G04*
G04 #@! TF.GenerationSoftware,Altium Limited,Altium Designer,19.1.5 (86)*
G04*
G04 Layer_Color=16711935*
%FSLAX24Y24*%
%MOIN*%
G70*
G01*
G75*
%ADD12C,0.0100*%
%ADD139C,0.0580*%
%ADD188C,0.0631*%
G04:AMPARAMS|DCode=192|XSize=118.7mil|YSize=118.7mil|CornerRadius=59.4mil|HoleSize=0mil|Usage=FLASHONLY|Rotation=90.000|XOffset=0mil|YOffset=0mil|HoleType=Round|Shape=RoundedRectangle|*
%AMROUNDEDRECTD192*
21,1,0.1187,0.0000,0,0,90.0*
21,1,0.0000,0.1187,0,0,90.0*
1,1,0.1187,0.0000,0.0000*
1,1,0.1187,0.0000,0.0000*
1,1,0.1187,0.0000,0.0000*
1,1,0.1187,0.0000,0.0000*
%
%ADD192ROUNDEDRECTD192*%
G04:AMPARAMS|DCode=214|XSize=33.1mil|YSize=43.4mil|CornerRadius=7.8mil|HoleSize=0mil|Usage=FLASHONLY|Rotation=90.000|XOffset=0mil|YOffset=0mil|HoleType=Round|Shape=RoundedRectangle|*
%AMROUNDEDRECTD214*
21,1,0.0331,0.0277,0,0,90.0*
21,1,0.0175,0.0434,0,0,90.0*
1,1,0.0157,0.0139,0.0087*
1,1,0.0157,0.0139,-0.0087*
1,1,0.0157,-0.0139,-0.0087*
1,1,0.0157,-0.0139,0.0087*
%
%ADD214ROUNDEDRECTD214*%
G04:AMPARAMS|DCode=223|XSize=54mil|YSize=54mil|CornerRadius=27mil|HoleSize=0mil|Usage=FLASHONLY|Rotation=270.000|XOffset=0mil|YOffset=0mil|HoleType=Round|Shape=RoundedRectangle|*
%AMROUNDEDRECTD223*
21,1,0.0540,0.0000,0,0,270.0*
21,1,0.0000,0.0540,0,0,270.0*
1,1,0.0540,0.0000,0.0000*
1,1,0.0540,0.0000,0.0000*
1,1,0.0540,0.0000,0.0000*
1,1,0.0540,0.0000,0.0000*
%
%ADD223ROUNDEDRECTD223*%
%ADD249R,0.0631X0.0631*%
%ADD250C,0.0631*%
%ADD251O,0.0865X0.1690*%
%ADD252R,0.0631X0.0631*%
G04:AMPARAMS|DCode=253|XSize=137mil|YSize=87mil|CornerRadius=0mil|HoleSize=0mil|Usage=FLASHONLY|Rotation=270.000|XOffset=0mil|YOffset=0mil|HoleType=Round|Shape=Octagon|*
%AMOCTAGOND253*
4,1,8,-0.0217,-0.0685,0.0217,-0.0685,0.0435,-0.0468,0.0435,0.0468,0.0217,0.0685,-0.0217,0.0685,-0.0435,0.0468,-0.0435,-0.0468,-0.0217,-0.0685,0.0*
%
%ADD253OCTAGOND253*%

%ADD254P,0.0714X8X22.5*%
%ADD255C,0.1345*%
%ADD256P,0.0801X8X292.5*%
%ADD257C,0.1040*%
%ADD258R,0.1240X0.0640*%
%ADD259O,0.1240X0.0640*%
%ADD260R,0.0640X0.1240*%
%ADD261O,0.0640X0.1240*%
%ADD262O,0.1400X0.1400*%
%ADD263R,0.1400X0.1400*%
%ADD264C,0.0840*%
%ADD266R,0.0704X0.0354*%
G04:AMPARAMS|DCode=267|XSize=54mil|YSize=54mil|CornerRadius=27mil|HoleSize=0mil|Usage=FLASHONLY|Rotation=180.000|XOffset=0mil|YOffset=0mil|HoleType=Round|Shape=RoundedRectangle|*
%AMROUNDEDRECTD267*
21,1,0.0540,0.0000,0,0,180.0*
21,1,0.0000,0.0540,0,0,180.0*
1,1,0.0540,0.0000,0.0000*
1,1,0.0540,0.0000,0.0000*
1,1,0.0540,0.0000,0.0000*
1,1,0.0540,0.0000,0.0000*
%
%ADD267ROUNDEDRECTD267*%
%ADD268R,0.1241X0.0280*%
G04:AMPARAMS|DCode=269|XSize=50mil|YSize=67mil|CornerRadius=13.5mil|HoleSize=0mil|Usage=FLASHONLY|Rotation=270.000|XOffset=0mil|YOffset=0mil|HoleType=Round|Shape=RoundedRectangle|*
%AMROUNDEDRECTD269*
21,1,0.0500,0.0400,0,0,270.0*
21,1,0.0230,0.0670,0,0,270.0*
1,1,0.0270,-0.0200,-0.0115*
1,1,0.0270,-0.0200,0.0115*
1,1,0.0270,0.0200,0.0115*
1,1,0.0270,0.0200,-0.0115*
%
%ADD269ROUNDEDRECTD269*%
%ADD270R,0.0532X0.0375*%
%ADD271R,0.0631X0.0631*%
%ADD272C,0.0100*%
G36*
X27324Y55127D02*
X26534Y54827D01*
X26654Y54947D01*
Y55307D01*
X26534Y55427D01*
X27324Y55127D01*
D02*
G37*
G36*
Y54127D02*
X26534Y53827D01*
X26654Y53947D01*
Y54307D01*
X26534Y54427D01*
X27324Y54127D01*
D02*
G37*
G36*
Y53127D02*
X26534Y52827D01*
X26654Y52947D01*
Y53307D01*
X26534Y53427D01*
X27324Y53127D01*
D02*
G37*
G36*
Y52127D02*
X26534Y51827D01*
X26654Y51947D01*
Y52307D01*
X26534Y52427D01*
X27324Y52127D01*
D02*
G37*
G36*
Y51127D02*
X26534Y50827D01*
X26654Y50947D01*
Y51307D01*
X26534Y51427D01*
X27324Y51127D01*
D02*
G37*
G36*
X12347Y50730D02*
X12402Y50675D01*
X12402Y50289D01*
X11064Y50289D01*
Y50675D01*
X11383Y50994D01*
X12083D01*
X12347Y50730D01*
D02*
G37*
G36*
X34587Y45356D02*
X33677D01*
Y46746D01*
X34587D01*
Y45356D01*
D02*
G37*
G36*
X12402Y44533D02*
X12402Y44147D01*
X12347Y44092D01*
X12083Y43828D01*
X11383D01*
X11064Y44147D01*
Y44533D01*
X12402Y44533D01*
D02*
G37*
G36*
X34587Y40056D02*
X33677D01*
Y41446D01*
X34587D01*
Y40056D01*
D02*
G37*
G36*
X31637Y35230D02*
X30727D01*
Y36620D01*
X31637D01*
Y35230D01*
D02*
G37*
G36*
X34537Y35226D02*
X33627D01*
Y36616D01*
X34537D01*
Y35226D01*
D02*
G37*
G36*
X31637Y29930D02*
X30727D01*
Y31320D01*
X31637D01*
Y29930D01*
D02*
G37*
G36*
X34537Y29926D02*
X33627D01*
Y31316D01*
X34537D01*
Y29926D01*
D02*
G37*
G36*
X27324Y26348D02*
X26534Y26048D01*
X26654Y26168D01*
Y26528D01*
X26534Y26648D01*
X27324Y26348D01*
D02*
G37*
G36*
Y25348D02*
X26534Y25048D01*
X26654Y25168D01*
Y25528D01*
X26534Y25648D01*
X27324Y25348D01*
D02*
G37*
G36*
Y24348D02*
X26534Y24048D01*
X26654Y24168D01*
Y24528D01*
X26534Y24648D01*
X27324Y24348D01*
D02*
G37*
G36*
Y23348D02*
X26534Y23048D01*
X26654Y23168D01*
Y23528D01*
X26534Y23648D01*
X27324Y23348D01*
D02*
G37*
G36*
Y22348D02*
X26534Y22048D01*
X26654Y22168D01*
Y22528D01*
X26534Y22648D01*
X27324Y22348D01*
D02*
G37*
G36*
X12347Y21950D02*
X12402Y21895D01*
X12402Y21510D01*
X11064Y21510D01*
Y21895D01*
X11383Y22214D01*
X12083D01*
X12347Y21950D01*
D02*
G37*
G36*
X34587Y16577D02*
X33677D01*
Y17967D01*
X34587D01*
Y16577D01*
D02*
G37*
G36*
X12402Y15754D02*
X12402Y15368D01*
X12347Y15313D01*
X12083Y15049D01*
X11383D01*
X11064Y15368D01*
Y15754D01*
X12402Y15754D01*
D02*
G37*
G36*
X34587Y11277D02*
X33677D01*
Y12667D01*
X34587D01*
Y11277D01*
D02*
G37*
G36*
X31637Y6451D02*
X30727D01*
Y7841D01*
X31637D01*
Y6451D01*
D02*
G37*
G36*
X34537Y6447D02*
X33627D01*
Y7837D01*
X34537D01*
Y6447D01*
D02*
G37*
G36*
X31637Y1151D02*
X30727D01*
Y2541D01*
X31637D01*
Y1151D01*
D02*
G37*
G36*
X34537Y1147D02*
X33627D01*
Y2537D01*
X34537D01*
Y1147D01*
D02*
G37*
G36*
X27324Y-2432D02*
X26534Y-2732D01*
X26654Y-2612D01*
Y-2252D01*
X26534Y-2132D01*
X27324Y-2432D01*
D02*
G37*
G36*
Y-3432D02*
X26534Y-3732D01*
X26654Y-3612D01*
Y-3252D01*
X26534Y-3132D01*
X27324Y-3432D01*
D02*
G37*
G36*
Y-4432D02*
X26534Y-4732D01*
X26654Y-4612D01*
Y-4252D01*
X26534Y-4132D01*
X27324Y-4432D01*
D02*
G37*
G36*
Y-5432D02*
X26534Y-5732D01*
X26654Y-5612D01*
Y-5252D01*
X26534Y-5132D01*
X27324Y-5432D01*
D02*
G37*
G36*
Y-6432D02*
X26534Y-6732D01*
X26654Y-6612D01*
Y-6252D01*
X26534Y-6132D01*
X27324Y-6432D01*
D02*
G37*
G36*
X12347Y-6829D02*
X12402Y-6884D01*
X12402Y-7270D01*
X11064Y-7270D01*
Y-6884D01*
X11383Y-6565D01*
X12083D01*
X12347Y-6829D01*
D02*
G37*
G36*
X34587Y-12203D02*
X33677D01*
Y-10813D01*
X34587D01*
Y-12203D01*
D02*
G37*
G36*
X12402Y-13026D02*
X12402Y-13412D01*
X12347Y-13467D01*
X12083Y-13731D01*
X11383D01*
X11064Y-13412D01*
Y-13026D01*
X12402Y-13026D01*
D02*
G37*
G36*
X34587Y-17503D02*
X33677D01*
Y-16113D01*
X34587D01*
Y-17503D01*
D02*
G37*
G36*
X31637Y-22329D02*
X30727D01*
Y-20939D01*
X31637D01*
Y-22329D01*
D02*
G37*
G36*
X34537Y-22333D02*
X33627D01*
Y-20943D01*
X34537D01*
Y-22333D01*
D02*
G37*
G36*
X31637Y-27629D02*
X30727D01*
Y-26239D01*
X31637D01*
Y-27629D01*
D02*
G37*
G36*
X34537Y-27633D02*
X33627D01*
Y-26243D01*
X34537D01*
Y-27633D01*
D02*
G37*
G54D12*
X25298Y69942D02*
Y69343D01*
X25598D01*
X25698Y69442D01*
Y69542D01*
X25598Y69642D01*
X25298D01*
X25598D01*
X25698Y69742D01*
Y69842D01*
X25598Y69942D01*
X25298D01*
X25998Y69343D02*
X26198D01*
X26298Y69442D01*
Y69642D01*
X26198Y69742D01*
X25998D01*
X25898Y69642D01*
Y69442D01*
X25998Y69343D01*
X26598Y69842D02*
Y69742D01*
X26498D01*
X26698D01*
X26598D01*
Y69442D01*
X26698Y69343D01*
X27098Y69842D02*
Y69742D01*
X26998D01*
X27198D01*
X27098D01*
Y69442D01*
X27198Y69343D01*
X27598D02*
X27798D01*
X27898Y69442D01*
Y69642D01*
X27798Y69742D01*
X27598D01*
X27498Y69642D01*
Y69442D01*
X27598Y69343D01*
X28097D02*
Y69742D01*
X28197D01*
X28297Y69642D01*
Y69343D01*
Y69642D01*
X28397Y69742D01*
X28497Y69642D01*
Y69343D01*
X29697Y69842D02*
X29597Y69942D01*
X29397D01*
X29297Y69842D01*
Y69742D01*
X29397Y69642D01*
X29597D01*
X29697Y69542D01*
Y69442D01*
X29597Y69343D01*
X29397D01*
X29297Y69442D01*
X29997Y69343D02*
X30197D01*
X30297Y69442D01*
Y69642D01*
X30197Y69742D01*
X29997D01*
X29897Y69642D01*
Y69442D01*
X29997Y69343D01*
X30497D02*
X30697D01*
X30597D01*
Y69942D01*
X30497D01*
X31396D02*
Y69343D01*
X31096D01*
X30996Y69442D01*
Y69642D01*
X31096Y69742D01*
X31396D01*
X31896Y69343D02*
X31696D01*
X31596Y69442D01*
Y69642D01*
X31696Y69742D01*
X31896D01*
X31996Y69642D01*
Y69542D01*
X31596D01*
X32196Y69742D02*
Y69343D01*
Y69542D01*
X32296Y69642D01*
X32396Y69742D01*
X32496D01*
X32796Y69343D02*
Y69742D01*
X32896D01*
X32996Y69642D01*
Y69343D01*
Y69642D01*
X33096Y69742D01*
X33196Y69642D01*
Y69343D01*
X33496Y69742D02*
X33696D01*
X33796Y69642D01*
Y69343D01*
X33496D01*
X33396Y69442D01*
X33496Y69542D01*
X33796D01*
X33996Y69343D02*
X34295D01*
X34395Y69442D01*
X34295Y69542D01*
X34095D01*
X33996Y69642D01*
X34095Y69742D01*
X34395D01*
X34595Y69343D02*
Y69942D01*
Y69542D02*
X34895Y69742D01*
X34595Y69542D02*
X34895Y69343D01*
X25698Y71192D02*
X25298D01*
Y70593D01*
X25698D01*
X25298Y70892D02*
X25498D01*
X25898Y70593D02*
X26098D01*
X25998D01*
Y70992D01*
X25898D01*
X26398Y70593D02*
Y70992D01*
X26698D01*
X26798Y70892D01*
Y70593D01*
X26998D02*
X27298D01*
X27398Y70692D01*
X27298Y70792D01*
X27098D01*
X26998Y70892D01*
X27098Y70992D01*
X27398D01*
X27598D02*
Y70692D01*
X27698Y70593D01*
X27997D01*
Y70493D01*
X27898Y70393D01*
X27798D01*
X27997Y70593D02*
Y70992D01*
X28797Y70593D02*
X28997D01*
X28897D01*
Y71192D01*
X28797Y71092D01*
X29297Y70593D02*
Y70692D01*
X29397D01*
Y70593D01*
X29297D01*
X30197D02*
X29797D01*
X30197Y70992D01*
Y71092D01*
X30097Y71192D01*
X29897D01*
X29797Y71092D01*
X30397Y71192D02*
Y70593D01*
X30697D01*
X30797Y70692D01*
Y70792D01*
Y70892D01*
X30697Y70992D01*
X30397D01*
G54D139*
X4725Y-13492D02*
D03*
Y-12500D02*
D03*
X3935D02*
D03*
Y-13492D02*
D03*
X4725Y15287D02*
D03*
Y16280D02*
D03*
X3935D02*
D03*
Y15287D02*
D03*
X4725Y44067D02*
D03*
Y45059D02*
D03*
X3935D02*
D03*
Y44067D02*
D03*
G54D188*
X26434Y-2432D02*
D03*
Y-3432D02*
D03*
Y-4432D02*
D03*
Y-5432D02*
D03*
Y-6432D02*
D03*
Y26348D02*
D03*
Y25348D02*
D03*
Y24348D02*
D03*
Y23348D02*
D03*
Y22348D02*
D03*
Y55127D02*
D03*
Y54127D02*
D03*
Y53127D02*
D03*
Y52127D02*
D03*
Y51127D02*
D03*
G54D192*
X40098Y58415D02*
D03*
Y-29557D02*
D03*
X1359Y-29596D02*
D03*
G54D214*
X17168Y-11012D02*
D03*
Y-11548D02*
D03*
Y-10481D02*
D03*
Y-11016D02*
D03*
Y-9467D02*
D03*
Y-10002D02*
D03*
Y17767D02*
D03*
Y17232D02*
D03*
Y18299D02*
D03*
Y17764D02*
D03*
Y19313D02*
D03*
Y18777D02*
D03*
Y46547D02*
D03*
Y46012D02*
D03*
Y47078D02*
D03*
Y46543D02*
D03*
Y48092D02*
D03*
Y47557D02*
D03*
G54D223*
X14267Y-8189D02*
D03*
X21267Y-26189D02*
D03*
X5267D02*
D03*
X6267D02*
D03*
X7267D02*
D03*
X8267D02*
D03*
X10267D02*
D03*
X13267D02*
D03*
X22267D02*
D03*
X30267Y-16189D02*
D03*
X29267Y-13189D02*
D03*
X28267Y-11189D02*
D03*
X19267Y-25189D02*
D03*
X21267D02*
D03*
X20267D02*
D03*
X22267D02*
D03*
X15267D02*
D03*
X17267D02*
D03*
X16267D02*
D03*
X18267D02*
D03*
X7267D02*
D03*
X11267D02*
D03*
X10267D02*
D03*
X12267D02*
D03*
X1267Y-24189D02*
D03*
X28237Y-26509D02*
D03*
X22267Y-16189D02*
D03*
X24267Y-6189D02*
D03*
X5267Y-25189D02*
D03*
X4267D02*
D03*
X6267D02*
D03*
X5267Y-12189D02*
D03*
X4267Y-11189D02*
D03*
X8267Y-4189D02*
D03*
X19267Y-19189D02*
D03*
X14267Y20591D02*
D03*
X21267Y2591D02*
D03*
X5267D02*
D03*
X6267D02*
D03*
X7267D02*
D03*
X8267D02*
D03*
X10267D02*
D03*
X13267D02*
D03*
X22267D02*
D03*
X30267Y12591D02*
D03*
X29267Y15591D02*
D03*
X28267Y17591D02*
D03*
X19267Y3591D02*
D03*
X21267D02*
D03*
X20267D02*
D03*
X22267D02*
D03*
X15267D02*
D03*
X17267D02*
D03*
X16267D02*
D03*
X18267D02*
D03*
X7267D02*
D03*
X11267D02*
D03*
X10267D02*
D03*
X12267D02*
D03*
X1267Y4591D02*
D03*
X28237Y2271D02*
D03*
X22267Y12591D02*
D03*
X24267Y22591D02*
D03*
X5267Y3591D02*
D03*
X4267D02*
D03*
X6267D02*
D03*
X5267Y16591D02*
D03*
X4267Y17591D02*
D03*
X8267Y24591D02*
D03*
X19267Y9591D02*
D03*
X14267Y49370D02*
D03*
X21267Y31370D02*
D03*
X5267D02*
D03*
X6267D02*
D03*
X7267D02*
D03*
X8267D02*
D03*
X10267D02*
D03*
X13267D02*
D03*
X22267D02*
D03*
X30267Y41370D02*
D03*
X29267Y44370D02*
D03*
X28267Y46370D02*
D03*
X19267Y32370D02*
D03*
X21267D02*
D03*
X20267D02*
D03*
X22267D02*
D03*
X15267D02*
D03*
X17267D02*
D03*
X16267D02*
D03*
X18267D02*
D03*
X7267D02*
D03*
X11267D02*
D03*
X10267D02*
D03*
X12267D02*
D03*
X1267Y33370D02*
D03*
X28237Y31050D02*
D03*
X22267Y41370D02*
D03*
X24267Y51370D02*
D03*
X5267Y32370D02*
D03*
X4267D02*
D03*
X6267D02*
D03*
X5267Y45370D02*
D03*
X4267Y46370D02*
D03*
X8267Y53370D02*
D03*
X19267Y38370D02*
D03*
G54D249*
X18007Y-2749D02*
D03*
Y-6499D02*
D03*
Y26031D02*
D03*
Y22281D02*
D03*
Y54810D02*
D03*
Y51060D02*
D03*
G54D250*
Y-1749D02*
D03*
X19007Y-2749D02*
D03*
Y-1749D02*
D03*
X20007Y-2749D02*
D03*
Y-1749D02*
D03*
X21007Y-2749D02*
D03*
Y-1749D02*
D03*
X22007Y-2749D02*
D03*
Y-1749D02*
D03*
X25434Y-6432D02*
D03*
Y-5432D02*
D03*
Y-4432D02*
D03*
Y-3432D02*
D03*
X22007Y-5499D02*
D03*
Y-6499D02*
D03*
X21007Y-5499D02*
D03*
Y-6499D02*
D03*
X20007Y-5499D02*
D03*
Y-6499D02*
D03*
X19007Y-5499D02*
D03*
Y-6499D02*
D03*
X18007Y-5499D02*
D03*
Y27031D02*
D03*
X19007Y26031D02*
D03*
Y27031D02*
D03*
X20007Y26031D02*
D03*
Y27031D02*
D03*
X21007Y26031D02*
D03*
Y27031D02*
D03*
X22007Y26031D02*
D03*
Y27031D02*
D03*
X25434Y22348D02*
D03*
Y23348D02*
D03*
Y24348D02*
D03*
Y25348D02*
D03*
X22007Y23281D02*
D03*
Y22281D02*
D03*
X21007Y23281D02*
D03*
Y22281D02*
D03*
X20007Y23281D02*
D03*
Y22281D02*
D03*
X19007Y23281D02*
D03*
Y22281D02*
D03*
X18007Y23281D02*
D03*
Y55810D02*
D03*
X19007Y54810D02*
D03*
Y55810D02*
D03*
X20007Y54810D02*
D03*
Y55810D02*
D03*
X21007Y54810D02*
D03*
Y55810D02*
D03*
X22007Y54810D02*
D03*
Y55810D02*
D03*
X25434Y51127D02*
D03*
Y52127D02*
D03*
Y53127D02*
D03*
Y54127D02*
D03*
X22007Y52060D02*
D03*
Y51060D02*
D03*
X21007Y52060D02*
D03*
Y51060D02*
D03*
X20007Y52060D02*
D03*
Y51060D02*
D03*
X19007Y52060D02*
D03*
Y51060D02*
D03*
X18007Y52060D02*
D03*
G54D251*
X26377Y-18759D02*
D03*
X28377D02*
D03*
X26377Y10021D02*
D03*
X28377D02*
D03*
X26377Y38800D02*
D03*
X28377D02*
D03*
G54D252*
X25434Y-2432D02*
D03*
Y26348D02*
D03*
Y55127D02*
D03*
G54D253*
X31856Y-26935D02*
D03*
X30516D02*
D03*
Y-21635D02*
D03*
X31856D02*
D03*
X33467Y-11509D02*
D03*
X34807D02*
D03*
Y-16809D02*
D03*
X33467D02*
D03*
X34757Y-21639D02*
D03*
X33417D02*
D03*
Y-26939D02*
D03*
X34757D02*
D03*
X31856Y1844D02*
D03*
X30516D02*
D03*
Y7144D02*
D03*
X31856D02*
D03*
X33467Y17271D02*
D03*
X34807D02*
D03*
Y11971D02*
D03*
X33467D02*
D03*
X34757Y7141D02*
D03*
X33417D02*
D03*
Y1841D02*
D03*
X34757D02*
D03*
X31856Y30624D02*
D03*
X30516D02*
D03*
Y35924D02*
D03*
X31856D02*
D03*
X33467Y46050D02*
D03*
X34807D02*
D03*
Y40750D02*
D03*
X33467D02*
D03*
X34757Y35920D02*
D03*
X33417D02*
D03*
Y30620D02*
D03*
X34757D02*
D03*
G54D254*
X5592Y-8543D02*
D03*
Y-7543D02*
D03*
X6592Y-8543D02*
D03*
Y-7543D02*
D03*
X7592Y-8543D02*
D03*
Y-7543D02*
D03*
X5592Y20236D02*
D03*
Y21236D02*
D03*
X6592Y20236D02*
D03*
Y21236D02*
D03*
X7592Y20236D02*
D03*
Y21236D02*
D03*
X5592Y49016D02*
D03*
Y50016D02*
D03*
X6592Y49016D02*
D03*
Y50016D02*
D03*
X7592Y49016D02*
D03*
Y50016D02*
D03*
G54D255*
X2865Y-10630D02*
D03*
Y-15362D02*
D03*
Y18150D02*
D03*
Y13417D02*
D03*
Y46929D02*
D03*
Y42197D02*
D03*
G54D256*
X1194Y-5409D02*
D03*
Y-7189D02*
D03*
Y23370D02*
D03*
Y21590D02*
D03*
Y52150D02*
D03*
Y50370D02*
D03*
G54D257*
X2174Y-4919D02*
D03*
Y-7679D02*
D03*
Y23860D02*
D03*
Y21100D02*
D03*
Y52640D02*
D03*
Y49880D02*
D03*
G54D258*
X26197Y-16119D02*
D03*
X23771Y-9972D02*
D03*
Y-13083D02*
D03*
Y-16193D02*
D03*
X36417Y-1929D02*
D03*
X26207Y-11979D02*
D03*
X26197Y12661D02*
D03*
X23771Y18807D02*
D03*
Y15697D02*
D03*
Y12587D02*
D03*
X36417Y26851D02*
D03*
X26207Y16801D02*
D03*
X26197Y41440D02*
D03*
X23771Y47587D02*
D03*
Y44476D02*
D03*
Y41366D02*
D03*
X36417Y55630D02*
D03*
X26207Y45580D02*
D03*
G54D259*
X26197Y-15119D02*
D03*
Y-14119D02*
D03*
X23771Y-10972D02*
D03*
Y-14083D02*
D03*
Y-17193D02*
D03*
X36417Y-2929D02*
D03*
X26207Y-9979D02*
D03*
Y-10979D02*
D03*
X26197Y13661D02*
D03*
Y14661D02*
D03*
X23771Y17807D02*
D03*
Y14697D02*
D03*
Y11587D02*
D03*
X36417Y25851D02*
D03*
X26207Y18801D02*
D03*
Y17801D02*
D03*
X26197Y42440D02*
D03*
Y43440D02*
D03*
X23771Y46587D02*
D03*
Y43476D02*
D03*
Y40366D02*
D03*
X36417Y54630D02*
D03*
X26207Y47580D02*
D03*
Y46580D02*
D03*
G54D260*
X9249Y-2366D02*
D03*
X14429Y-2362D02*
D03*
X7909Y-27166D02*
D03*
X13027D02*
D03*
X18146Y-24411D02*
D03*
Y-27166D02*
D03*
X23268Y-27163D02*
D03*
X5039Y-4776D02*
D03*
X6039Y-2366D02*
D03*
X9249Y26413D02*
D03*
X14429Y26417D02*
D03*
X7909Y1613D02*
D03*
X13027D02*
D03*
X18146Y4369D02*
D03*
Y1613D02*
D03*
X23268Y1617D02*
D03*
X5039Y24003D02*
D03*
X6039Y26413D02*
D03*
X9249Y55193D02*
D03*
X14429Y55197D02*
D03*
X7909Y30393D02*
D03*
X13027D02*
D03*
X18146Y33149D02*
D03*
Y30393D02*
D03*
X23268Y30397D02*
D03*
X5039Y52783D02*
D03*
X6039Y55193D02*
D03*
G54D261*
X8249Y-2366D02*
D03*
X13429Y-2362D02*
D03*
X12429D02*
D03*
X11429D02*
D03*
X4909Y-27166D02*
D03*
X5909D02*
D03*
X6909D02*
D03*
X10027D02*
D03*
X11027D02*
D03*
X12027D02*
D03*
X15146Y-24411D02*
D03*
X16146D02*
D03*
X17146D02*
D03*
X15146Y-27166D02*
D03*
X16146D02*
D03*
X17146D02*
D03*
X20268Y-27163D02*
D03*
X21268D02*
D03*
X22268D02*
D03*
X6039Y-4776D02*
D03*
X5039Y-2366D02*
D03*
X8249Y26413D02*
D03*
X13429Y26417D02*
D03*
X12429D02*
D03*
X11429D02*
D03*
X4909Y1613D02*
D03*
X5909D02*
D03*
X6909D02*
D03*
X10027D02*
D03*
X11027D02*
D03*
X12027D02*
D03*
X15146Y4369D02*
D03*
X16146D02*
D03*
X17146D02*
D03*
X15146Y1613D02*
D03*
X16146D02*
D03*
X17146D02*
D03*
X20268Y1617D02*
D03*
X21268D02*
D03*
X22268D02*
D03*
X6039Y24003D02*
D03*
X5039Y26413D02*
D03*
X8249Y55193D02*
D03*
X13429Y55197D02*
D03*
X12429D02*
D03*
X11429D02*
D03*
X4909Y30393D02*
D03*
X5909D02*
D03*
X6909D02*
D03*
X10027D02*
D03*
X11027D02*
D03*
X12027D02*
D03*
X15146Y33149D02*
D03*
X16146D02*
D03*
X17146D02*
D03*
X15146Y30393D02*
D03*
X16146D02*
D03*
X17146D02*
D03*
X20268Y30397D02*
D03*
X21268D02*
D03*
X22268D02*
D03*
X6039Y52783D02*
D03*
X5039Y55193D02*
D03*
G54D262*
X36637Y-6244D02*
D03*
Y-9494D02*
D03*
Y-12744D02*
D03*
Y-15994D02*
D03*
Y-19244D02*
D03*
Y22536D02*
D03*
Y19286D02*
D03*
Y16036D02*
D03*
Y12786D02*
D03*
Y9536D02*
D03*
Y51315D02*
D03*
Y48065D02*
D03*
Y44815D02*
D03*
Y41565D02*
D03*
Y38315D02*
D03*
G54D263*
Y-22494D02*
D03*
Y6286D02*
D03*
Y35065D02*
D03*
G54D264*
X40474Y-24134D02*
D03*
Y4646D02*
D03*
Y33425D02*
D03*
G54D266*
X8891Y-9685D02*
D03*
X39489Y-24262D02*
D03*
X3562Y-3947D02*
D03*
X3742Y-27557D02*
D03*
X39482Y-4607D02*
D03*
X8891Y19094D02*
D03*
X39489Y4517D02*
D03*
X3562Y24833D02*
D03*
X3742Y1223D02*
D03*
X39482Y24173D02*
D03*
X8891Y47874D02*
D03*
X39489Y33297D02*
D03*
X3562Y53612D02*
D03*
X3742Y30002D02*
D03*
X39482Y52952D02*
D03*
G54D267*
X22267Y-14189D02*
D03*
Y-11189D02*
D03*
X35267Y-24189D02*
D03*
X33267D02*
D03*
X31267D02*
D03*
X15267Y-1189D02*
D03*
X3267Y-13189D02*
D03*
X4267Y-14189D02*
D03*
X7267Y-9189D02*
D03*
X4267Y-8189D02*
D03*
X6267Y-9189D02*
D03*
X7267Y-10189D02*
D03*
X10277Y-3189D02*
D03*
X7267Y-4189D02*
D03*
X13267Y-9189D02*
D03*
X18267Y-7189D02*
D03*
X11267Y-9189D02*
D03*
X30267Y-15189D02*
D03*
X38267Y-11189D02*
D03*
X26267Y-20189D02*
D03*
X38267Y-9189D02*
D03*
X8267Y-15189D02*
D03*
Y-13189D02*
D03*
Y-12189D02*
D03*
X11267Y-14189D02*
D03*
X12267Y-15189D02*
D03*
X11267D02*
D03*
X22267Y14591D02*
D03*
Y17591D02*
D03*
X35267Y4591D02*
D03*
X33267D02*
D03*
X31267D02*
D03*
X15267Y27591D02*
D03*
X3267Y15591D02*
D03*
X4267Y14591D02*
D03*
X7267Y19591D02*
D03*
X4267Y20591D02*
D03*
X6267Y19591D02*
D03*
X7267Y18591D02*
D03*
X10277Y25591D02*
D03*
X7267Y24591D02*
D03*
X13267Y19591D02*
D03*
X18267Y21591D02*
D03*
X11267Y19591D02*
D03*
X30267Y13591D02*
D03*
X38267Y17591D02*
D03*
X26267Y8591D02*
D03*
X38267Y19591D02*
D03*
X8267Y13591D02*
D03*
Y15591D02*
D03*
Y16591D02*
D03*
X11267Y14591D02*
D03*
X12267Y13591D02*
D03*
X11267D02*
D03*
X22267Y43370D02*
D03*
Y46370D02*
D03*
X35267Y33370D02*
D03*
X33267D02*
D03*
X31267D02*
D03*
X15267Y56370D02*
D03*
X3267Y44370D02*
D03*
X4267Y43370D02*
D03*
X7267Y48370D02*
D03*
X4267Y49370D02*
D03*
X6267Y48370D02*
D03*
X7267Y47370D02*
D03*
X10277Y54370D02*
D03*
X7267Y53370D02*
D03*
X13267Y48370D02*
D03*
X18267Y50370D02*
D03*
X11267Y48370D02*
D03*
X30267Y42370D02*
D03*
X38267Y46370D02*
D03*
X26267Y37370D02*
D03*
X38267Y48370D02*
D03*
X8267Y42370D02*
D03*
Y44370D02*
D03*
Y45370D02*
D03*
X11267Y43370D02*
D03*
X12267Y42370D02*
D03*
X11267D02*
D03*
G54D268*
X15800Y-11152D02*
D03*
Y-10750D02*
D03*
Y-8742D02*
D03*
Y-9144D02*
D03*
Y-9546D02*
D03*
Y-9947D02*
D03*
Y-10349D02*
D03*
Y-11553D02*
D03*
Y17628D02*
D03*
Y18029D02*
D03*
Y20037D02*
D03*
Y19636D02*
D03*
Y19234D02*
D03*
Y18832D02*
D03*
Y18431D02*
D03*
Y17226D02*
D03*
Y46407D02*
D03*
Y46809D02*
D03*
Y48817D02*
D03*
Y48415D02*
D03*
Y48013D02*
D03*
Y47612D02*
D03*
Y47210D02*
D03*
Y46006D02*
D03*
G54D269*
X8899Y-9395D02*
D03*
Y-9995D02*
D03*
X39481Y-24552D02*
D03*
Y-23952D02*
D03*
X3569Y-3656D02*
D03*
Y-4256D02*
D03*
X3749Y-27266D02*
D03*
Y-27866D02*
D03*
X39489Y-4316D02*
D03*
Y-4916D02*
D03*
X8899Y19385D02*
D03*
Y18785D02*
D03*
X39481Y4227D02*
D03*
Y4827D02*
D03*
X3569Y25123D02*
D03*
Y24523D02*
D03*
X3749Y1513D02*
D03*
Y913D02*
D03*
X39489Y24463D02*
D03*
Y23863D02*
D03*
X8899Y48164D02*
D03*
Y47564D02*
D03*
X39481Y33007D02*
D03*
Y33607D02*
D03*
X3569Y53903D02*
D03*
Y53303D02*
D03*
X3749Y30293D02*
D03*
Y29693D02*
D03*
X39489Y53243D02*
D03*
Y52643D02*
D03*
G54D270*
X689Y-10151D02*
D03*
Y-9422D02*
D03*
X1709D02*
D03*
Y-10151D02*
D03*
X689Y18629D02*
D03*
Y19357D02*
D03*
X1709D02*
D03*
Y18629D02*
D03*
X689Y47408D02*
D03*
Y48137D02*
D03*
X1709D02*
D03*
Y47408D02*
D03*
G54D271*
X27714Y-2432D02*
D03*
Y-3432D02*
D03*
Y-4432D02*
D03*
Y-5432D02*
D03*
Y-6432D02*
D03*
Y26348D02*
D03*
Y25348D02*
D03*
Y24348D02*
D03*
Y23348D02*
D03*
Y22348D02*
D03*
Y55127D02*
D03*
Y54127D02*
D03*
Y53127D02*
D03*
Y52127D02*
D03*
Y51127D02*
D03*
G54D272*
X31928Y-10061D02*
D03*
X32328D02*
D03*
Y-9661D02*
D03*
X31928D02*
D03*
Y-9261D02*
D03*
X32328D02*
D03*
Y-8861D02*
D03*
X31928D02*
D03*
X31128D02*
D03*
X30728D02*
D03*
Y-9261D02*
D03*
X31128D02*
D03*
Y-9661D02*
D03*
X30728D02*
D03*
Y-10061D02*
D03*
X31128D02*
D03*
X31528D02*
D03*
Y-9661D02*
D03*
Y-8861D02*
D03*
Y-9261D02*
D03*
X28275Y-22872D02*
D03*
Y-22472D02*
D03*
X27875D02*
D03*
Y-22872D02*
D03*
X27475D02*
D03*
Y-22472D02*
D03*
X27075D02*
D03*
Y-22872D02*
D03*
Y-23672D02*
D03*
Y-24072D02*
D03*
X27475D02*
D03*
Y-23672D02*
D03*
X27875D02*
D03*
Y-24072D02*
D03*
X28275D02*
D03*
Y-23672D02*
D03*
Y-23272D02*
D03*
X27875D02*
D03*
X27075D02*
D03*
X27475D02*
D03*
X20924Y-21499D02*
D03*
X21790Y-22798D02*
D03*
X21357D02*
D03*
X20924D02*
D03*
X21790Y-22365D02*
D03*
X21357D02*
D03*
X20924D02*
D03*
X21790Y-21932D02*
D03*
X21357D02*
D03*
X20924D02*
D03*
X21790Y-21499D02*
D03*
X21357D02*
D03*
X8067Y-11089D02*
D03*
Y-10715D02*
D03*
X7690Y-10711D02*
D03*
X7695Y-11089D02*
D03*
X7693Y-11473D02*
D03*
X8067Y-11463D02*
D03*
X8441D02*
D03*
Y-11089D02*
D03*
Y-10715D02*
D03*
X33114Y-4423D02*
D03*
X32720D02*
D03*
Y-4030D02*
D03*
X33114D02*
D03*
X33507D02*
D03*
Y-4423D02*
D03*
Y-4817D02*
D03*
X33114D02*
D03*
X32720D02*
D03*
X2743Y-21139D02*
D03*
X3176D02*
D03*
X2310Y-21572D02*
D03*
X2743D02*
D03*
X3176D02*
D03*
X2310Y-22005D02*
D03*
X2743D02*
D03*
X3176D02*
D03*
X2310Y-22438D02*
D03*
X2743D02*
D03*
X3176D02*
D03*
X2310Y-21139D02*
D03*
X7217Y-21499D02*
D03*
X7650D02*
D03*
X6784Y-21932D02*
D03*
X7217D02*
D03*
X7650D02*
D03*
X6784Y-22365D02*
D03*
X7217D02*
D03*
X7650D02*
D03*
X6784Y-22798D02*
D03*
X7217D02*
D03*
X7650D02*
D03*
X6784Y-21499D02*
D03*
X11717D02*
D03*
X12150D02*
D03*
X11284Y-21932D02*
D03*
X11717D02*
D03*
X12150D02*
D03*
X11284Y-22365D02*
D03*
X11717D02*
D03*
X12150D02*
D03*
X11284Y-22798D02*
D03*
X11717D02*
D03*
X12150D02*
D03*
X11284Y-21499D02*
D03*
X31928Y18718D02*
D03*
X32328D02*
D03*
Y19118D02*
D03*
X31928D02*
D03*
Y19518D02*
D03*
X32328D02*
D03*
Y19918D02*
D03*
X31928D02*
D03*
X31128D02*
D03*
X30728D02*
D03*
Y19518D02*
D03*
X31128D02*
D03*
Y19118D02*
D03*
X30728D02*
D03*
Y18718D02*
D03*
X31128D02*
D03*
X31528D02*
D03*
Y19118D02*
D03*
Y19918D02*
D03*
Y19518D02*
D03*
X28275Y5907D02*
D03*
Y6307D02*
D03*
X27875D02*
D03*
Y5907D02*
D03*
X27475D02*
D03*
Y6307D02*
D03*
X27075D02*
D03*
Y5907D02*
D03*
Y5107D02*
D03*
Y4707D02*
D03*
X27475D02*
D03*
Y5107D02*
D03*
X27875D02*
D03*
Y4707D02*
D03*
X28275D02*
D03*
Y5107D02*
D03*
Y5507D02*
D03*
X27875D02*
D03*
X27075D02*
D03*
X27475D02*
D03*
X20924Y7281D02*
D03*
X21790Y5982D02*
D03*
X21357D02*
D03*
X20924D02*
D03*
X21790Y6415D02*
D03*
X21357D02*
D03*
X20924D02*
D03*
X21790Y6848D02*
D03*
X21357D02*
D03*
X20924D02*
D03*
X21790Y7281D02*
D03*
X21357D02*
D03*
X8067Y17691D02*
D03*
Y18065D02*
D03*
X7690Y18068D02*
D03*
X7695Y17691D02*
D03*
X7693Y17307D02*
D03*
X8067Y17317D02*
D03*
X8441D02*
D03*
Y17691D02*
D03*
Y18065D02*
D03*
X33114Y24356D02*
D03*
X32720D02*
D03*
Y24750D02*
D03*
X33114D02*
D03*
X33507D02*
D03*
Y24356D02*
D03*
Y23963D02*
D03*
X33114D02*
D03*
X32720D02*
D03*
X2743Y7641D02*
D03*
X3176D02*
D03*
X2310Y7208D02*
D03*
X2743D02*
D03*
X3176D02*
D03*
X2310Y6775D02*
D03*
X2743D02*
D03*
X3176D02*
D03*
X2310Y6342D02*
D03*
X2743D02*
D03*
X3176D02*
D03*
X2310Y7641D02*
D03*
X7217Y7281D02*
D03*
X7650D02*
D03*
X6784Y6848D02*
D03*
X7217D02*
D03*
X7650D02*
D03*
X6784Y6415D02*
D03*
X7217D02*
D03*
X7650D02*
D03*
X6784Y5982D02*
D03*
X7217D02*
D03*
X7650D02*
D03*
X6784Y7281D02*
D03*
X11717D02*
D03*
X12150D02*
D03*
X11284Y6848D02*
D03*
X11717D02*
D03*
X12150D02*
D03*
X11284Y6415D02*
D03*
X11717D02*
D03*
X12150D02*
D03*
X11284Y5982D02*
D03*
X11717D02*
D03*
X12150D02*
D03*
X11284Y7281D02*
D03*
X31928Y47498D02*
D03*
X32328D02*
D03*
Y47898D02*
D03*
X31928D02*
D03*
Y48298D02*
D03*
X32328D02*
D03*
Y48698D02*
D03*
X31928D02*
D03*
X31128D02*
D03*
X30728D02*
D03*
Y48298D02*
D03*
X31128D02*
D03*
Y47898D02*
D03*
X30728D02*
D03*
Y47498D02*
D03*
X31128D02*
D03*
X31528D02*
D03*
Y47898D02*
D03*
Y48698D02*
D03*
Y48298D02*
D03*
X28275Y34687D02*
D03*
Y35087D02*
D03*
X27875D02*
D03*
Y34687D02*
D03*
X27475D02*
D03*
Y35087D02*
D03*
X27075D02*
D03*
Y34687D02*
D03*
Y33887D02*
D03*
Y33487D02*
D03*
X27475D02*
D03*
Y33887D02*
D03*
X27875D02*
D03*
Y33487D02*
D03*
X28275D02*
D03*
Y33887D02*
D03*
Y34287D02*
D03*
X27875D02*
D03*
X27075D02*
D03*
X27475D02*
D03*
X20924Y36060D02*
D03*
X21790Y34761D02*
D03*
X21357D02*
D03*
X20924D02*
D03*
X21790Y35194D02*
D03*
X21357D02*
D03*
X20924D02*
D03*
X21790Y35627D02*
D03*
X21357D02*
D03*
X20924D02*
D03*
X21790Y36060D02*
D03*
X21357D02*
D03*
X8067Y46470D02*
D03*
Y46844D02*
D03*
X7690Y46848D02*
D03*
X7695Y46470D02*
D03*
X7693Y46086D02*
D03*
X8067Y46096D02*
D03*
X8441D02*
D03*
Y46470D02*
D03*
Y46844D02*
D03*
X33114Y53136D02*
D03*
X32720D02*
D03*
Y53530D02*
D03*
X33114D02*
D03*
X33507D02*
D03*
Y53136D02*
D03*
Y52742D02*
D03*
X33114D02*
D03*
X32720D02*
D03*
X2743Y36420D02*
D03*
X3176D02*
D03*
X2310Y35987D02*
D03*
X2743D02*
D03*
X3176D02*
D03*
X2310Y35554D02*
D03*
X2743D02*
D03*
X3176D02*
D03*
X2310Y35121D02*
D03*
X2743D02*
D03*
X3176D02*
D03*
X2310Y36420D02*
D03*
X7217Y36060D02*
D03*
X7650D02*
D03*
X6784Y35627D02*
D03*
X7217D02*
D03*
X7650D02*
D03*
X6784Y35194D02*
D03*
X7217D02*
D03*
X7650D02*
D03*
X6784Y34761D02*
D03*
X7217D02*
D03*
X7650D02*
D03*
X6784Y36060D02*
D03*
X11717D02*
D03*
X12150D02*
D03*
X11284Y35627D02*
D03*
X11717D02*
D03*
X12150D02*
D03*
X11284Y35194D02*
D03*
X11717D02*
D03*
X12150D02*
D03*
X11284Y34761D02*
D03*
X11717D02*
D03*
X12150D02*
D03*
X11284Y36060D02*
D03*
M02*
