G04*
G04 #@! TF.GenerationSoftware,Altium Limited,Altium Designer,21.0.8 (223)*
G04*
G04 Layer_Color=0*
%FSLAX24Y24*%
%MOIN*%
G70*
G04*
G04 #@! TF.SameCoordinates,E4671B76-4496-4F9E-9FB3-C0D7E55783D3*
G04*
G04*
G04 #@! TF.FilePolarity,Positive*
G04*
G01*
G75*
%ADD12C,0.0100*%
G54D12*
X9272Y9272D02*
X55272D01*
Y10846D02*
Y99862D01*
X9272D02*
X55272D01*
X9272Y10846D02*
Y99862D01*
X35600Y106900D02*
Y107500D01*
X35900D01*
X36000Y107400D01*
Y107200D01*
X35900Y107100D01*
X35600D01*
X36300Y107300D02*
X36500D01*
X36600Y107200D01*
Y106900D01*
X36300D01*
X36200Y107000D01*
X36300Y107100D01*
X36600D01*
X36800Y106900D02*
Y107300D01*
X37100D01*
X37199Y107200D01*
Y106900D01*
X37699D02*
X37499D01*
X37399Y107000D01*
Y107200D01*
X37499Y107300D01*
X37699D01*
X37799Y107200D01*
Y107100D01*
X37399D01*
X37999Y106900D02*
X38199D01*
X38099D01*
Y107500D01*
X37999D01*
X39399D02*
X39199D01*
X39099Y107400D01*
Y107000D01*
X39199Y106900D01*
X39399D01*
X39499Y107000D01*
Y107400D01*
X39399Y107500D01*
X39699Y107300D02*
Y107000D01*
X39799Y106900D01*
X40099D01*
Y107300D01*
X40398Y107400D02*
Y107300D01*
X40298D01*
X40498D01*
X40398D01*
Y107000D01*
X40498Y106900D01*
X40798D02*
X40998D01*
X40898D01*
Y107500D01*
X40798D01*
X41298Y106900D02*
X41498D01*
X41398D01*
Y107300D01*
X41298D01*
X41798Y106900D02*
Y107300D01*
X42098D01*
X42198Y107200D01*
Y106900D01*
X42698D02*
X42498D01*
X42398Y107000D01*
Y107200D01*
X42498Y107300D01*
X42698D01*
X42798Y107200D01*
Y107100D01*
X42398D01*
X36000Y108700D02*
X35600D01*
Y108100D01*
X36000D01*
X35600Y108400D02*
X35800D01*
X36200Y108100D02*
X36400D01*
X36300D01*
Y108500D01*
X36200D01*
X36700Y108100D02*
Y108500D01*
X37000D01*
X37100Y108400D01*
Y108100D01*
X37299D02*
X37599D01*
X37699Y108200D01*
X37599Y108300D01*
X37399D01*
X37299Y108400D01*
X37399Y108500D01*
X37699D01*
X37899D02*
Y108200D01*
X37999Y108100D01*
X38299D01*
Y108000D01*
X38199Y107900D01*
X38099D01*
X38299Y108100D02*
Y108500D01*
X39099Y108100D02*
X39299D01*
X39199D01*
Y108700D01*
X39099Y108600D01*
X39599Y108100D02*
Y108200D01*
X39699D01*
Y108100D01*
X39599D01*
X40498D02*
X40099D01*
X40498Y108500D01*
Y108600D01*
X40398Y108700D01*
X40199D01*
X40099Y108600D01*
X41098Y108700D02*
Y108100D01*
X40798D01*
X40698Y108200D01*
Y108400D01*
X40798Y108500D01*
X41098D01*
M02*
