G04*
G04 #@! TF.GenerationSoftware,Altium Limited,Altium Designer,21.0.8 (223)*
G04*
G04 Layer_Color=16711935*
%FSLAX24Y24*%
%MOIN*%
G70*
G04*
G04 #@! TF.SameCoordinates,E4671B76-4496-4F9E-9FB3-C0D7E55783D3*
G04*
G04*
G04 #@! TF.FilePolarity,Positive*
G04*
G01*
G75*
%ADD12C,0.0100*%
%ADD76C,0.0060*%
%ADD166C,0.0050*%
G54D12*
X33642Y17957D02*
Y21487D01*
X37407D01*
Y17957D02*
Y21487D01*
X33642Y17957D02*
X37407D01*
X44762Y25427D02*
X47124D01*
Y27002D01*
X44762D02*
X47124D01*
X44762Y25427D02*
Y27002D01*
X33592Y46667D02*
Y50197D01*
X37357D01*
Y46667D02*
Y50197D01*
X33592Y46667D02*
X37357D01*
X44808Y54222D02*
X47170D01*
Y55797D01*
X44808D02*
X47170D01*
X44808Y54222D02*
Y55797D01*
X33742Y75157D02*
Y78687D01*
X37507D01*
Y75157D02*
Y78687D01*
X33742Y75157D02*
X37507D01*
X44898Y83042D02*
X47260D01*
Y84617D01*
X44898D02*
X47260D01*
X44898Y83042D02*
Y84617D01*
X9422Y114371D02*
X9022D01*
Y113772D01*
X9422D01*
X9022Y114072D02*
X9222D01*
X9621Y113772D02*
X9821D01*
X9721D01*
Y114172D01*
X9621D01*
X10121Y113772D02*
Y114172D01*
X10421D01*
X10521Y114072D01*
Y113772D01*
X10721D02*
X11021D01*
X11121Y113872D01*
X11021Y113972D01*
X10821D01*
X10721Y114072D01*
X10821Y114172D01*
X11121D01*
X11321D02*
Y113872D01*
X11421Y113772D01*
X11721D01*
Y113672D01*
X11621Y113572D01*
X11521D01*
X11721Y113772D02*
Y114172D01*
X12521Y113772D02*
X12720D01*
X12620D01*
Y114371D01*
X12521Y114271D01*
X13020Y113772D02*
Y113872D01*
X13120D01*
Y113772D01*
X13020D01*
X13920D02*
X13520D01*
X13920Y114172D01*
Y114271D01*
X13820Y114371D01*
X13620D01*
X13520Y114271D01*
X14520Y114371D02*
Y113772D01*
X14220D01*
X14120Y113872D01*
Y114072D01*
X14220Y114172D01*
X14520D01*
X9022Y113121D02*
Y112622D01*
X9122Y112522D01*
X9322D01*
X9422Y112622D01*
Y113121D01*
X9621D02*
Y112522D01*
X10021D01*
X10821D02*
Y113121D01*
X11021Y112922D01*
X11221Y113121D01*
Y112522D01*
X11521Y112922D02*
X11721D01*
X11821Y112822D01*
Y112522D01*
X11521D01*
X11421Y112622D01*
X11521Y112722D01*
X11821D01*
X12021Y112922D02*
Y112522D01*
Y112722D01*
X12121Y112822D01*
X12221Y112922D01*
X12321D01*
X12620Y112522D02*
Y113121D01*
Y112722D02*
X12920Y112922D01*
X12620Y112722D02*
X12920Y112522D01*
X13220D02*
X13420D01*
X13320D01*
Y112922D01*
X13220D01*
X13720Y112522D02*
Y112922D01*
X14020D01*
X14120Y112822D01*
Y112522D01*
X14520Y112322D02*
X14620D01*
X14720Y112422D01*
Y112922D01*
X14420D01*
X14320Y112822D01*
Y112622D01*
X14420Y112522D01*
X14720D01*
X14920D02*
X15220D01*
X15320Y112622D01*
X15220Y112722D01*
X15020D01*
X14920Y112822D01*
X15020Y112922D01*
X15320D01*
G54D76*
X46531Y83889D02*
Y84209D01*
X46371D01*
X46318Y84156D01*
Y84049D01*
X46371Y83996D01*
X46531D01*
X46424D02*
X46318Y83889D01*
X46158D02*
X46051D01*
X45998Y83942D01*
Y84049D01*
X46051Y84102D01*
X46158D01*
X46211Y84049D01*
Y83942D01*
X46158Y83889D01*
X45891Y84209D02*
Y83889D01*
Y84049D01*
X45678D01*
Y84209D01*
Y83889D01*
X45358Y84156D02*
X45411Y84209D01*
X45518D01*
X45571Y84156D01*
Y84102D01*
X45518Y84049D01*
X45411D01*
X45358Y83996D01*
Y83942D01*
X45411Y83889D01*
X45518D01*
X45571Y83942D01*
X46571Y54899D02*
Y55219D01*
X46411D01*
X46358Y55166D01*
Y55059D01*
X46411Y55006D01*
X46571D01*
X46464D02*
X46358Y54899D01*
X46198D02*
X46091D01*
X46038Y54952D01*
Y55059D01*
X46091Y55112D01*
X46198D01*
X46251Y55059D01*
Y54952D01*
X46198Y54899D01*
X45931Y55219D02*
Y54899D01*
Y55059D01*
X45718D01*
Y55219D01*
Y54899D01*
X45398Y55166D02*
X45451Y55219D01*
X45558D01*
X45611Y55166D01*
Y55112D01*
X45558Y55059D01*
X45451D01*
X45398Y55006D01*
Y54952D01*
X45451Y54899D01*
X45558D01*
X45611Y54952D01*
X46758Y26419D02*
Y26739D01*
X46599D01*
X46545Y26686D01*
Y26579D01*
X46599Y26526D01*
X46758D01*
X46652D02*
X46545Y26419D01*
X46385D02*
X46279D01*
X46225Y26473D01*
Y26579D01*
X46279Y26632D01*
X46385D01*
X46439Y26579D01*
Y26473D01*
X46385Y26419D01*
X46119Y26739D02*
Y26419D01*
Y26579D01*
X45905D01*
Y26739D01*
Y26419D01*
X45586Y26686D02*
X45639Y26739D01*
X45745D01*
X45799Y26686D01*
Y26632D01*
X45745Y26579D01*
X45639D01*
X45586Y26526D01*
Y26473D01*
X45639Y26419D01*
X45745D01*
X45799Y26473D01*
X36861Y18859D02*
Y18459D01*
X36661D01*
X36594Y18526D01*
Y18593D01*
X36661Y18659D01*
X36861D01*
X36661D01*
X36594Y18726D01*
Y18793D01*
X36661Y18859D01*
X36861D01*
X36394Y18459D02*
X36261D01*
X36194Y18526D01*
Y18659D01*
X36261Y18726D01*
X36394D01*
X36461Y18659D01*
Y18526D01*
X36394Y18459D01*
X35994Y18793D02*
Y18726D01*
X36061D01*
X35928D01*
X35994D01*
Y18526D01*
X35928Y18459D01*
X35061Y18793D02*
X35128Y18859D01*
X35261D01*
X35328Y18793D01*
Y18726D01*
X35261Y18659D01*
X35128D01*
X35061Y18593D01*
Y18526D01*
X35128Y18459D01*
X35261D01*
X35328Y18526D01*
X34928Y18459D02*
X34795D01*
X34861D01*
Y18726D01*
X34928D01*
X34595Y18459D02*
X34461D01*
X34528D01*
Y18859D01*
X34595D01*
X34262Y18459D02*
Y18859D01*
Y18593D02*
X34062Y18726D01*
X34262Y18593D02*
X34062Y18459D01*
X46992Y25987D02*
Y25667D01*
X46832D01*
X46778Y25721D01*
Y25774D01*
X46832Y25827D01*
X46992D01*
X46832D01*
X46778Y25881D01*
Y25934D01*
X46832Y25987D01*
X46992D01*
X46618Y25667D02*
X46512D01*
X46458Y25721D01*
Y25827D01*
X46512Y25881D01*
X46618D01*
X46672Y25827D01*
Y25721D01*
X46618Y25667D01*
X46299Y25934D02*
Y25881D01*
X46352D01*
X46245D01*
X46299D01*
Y25721D01*
X46245Y25667D01*
X45552Y25934D02*
X45605Y25987D01*
X45712D01*
X45765Y25934D01*
Y25881D01*
X45712Y25827D01*
X45605D01*
X45552Y25774D01*
Y25721D01*
X45605Y25667D01*
X45712D01*
X45765Y25721D01*
X45445Y25667D02*
X45339D01*
X45392D01*
Y25881D01*
X45445D01*
X45179Y25667D02*
X45072D01*
X45126D01*
Y25987D01*
X45179D01*
X44912Y25667D02*
Y25987D01*
Y25774D02*
X44752Y25881D01*
X44912Y25774D02*
X44752Y25667D01*
X36811Y47569D02*
Y47169D01*
X36611D01*
X36544Y47236D01*
Y47303D01*
X36611Y47369D01*
X36811D01*
X36611D01*
X36544Y47436D01*
Y47503D01*
X36611Y47569D01*
X36811D01*
X36344Y47169D02*
X36211D01*
X36144Y47236D01*
Y47369D01*
X36211Y47436D01*
X36344D01*
X36411Y47369D01*
Y47236D01*
X36344Y47169D01*
X35944Y47503D02*
Y47436D01*
X36011D01*
X35878D01*
X35944D01*
Y47236D01*
X35878Y47169D01*
X35011Y47503D02*
X35078Y47569D01*
X35211D01*
X35278Y47503D01*
Y47436D01*
X35211Y47369D01*
X35078D01*
X35011Y47303D01*
Y47236D01*
X35078Y47169D01*
X35211D01*
X35278Y47236D01*
X34878Y47169D02*
X34745D01*
X34811D01*
Y47436D01*
X34878D01*
X34545Y47169D02*
X34411D01*
X34478D01*
Y47569D01*
X34545D01*
X34212Y47169D02*
Y47569D01*
Y47303D02*
X34012Y47436D01*
X34212Y47303D02*
X34012Y47169D01*
X46810Y54685D02*
Y54366D01*
X46651D01*
X46597Y54419D01*
Y54472D01*
X46651Y54526D01*
X46810D01*
X46651D01*
X46597Y54579D01*
Y54632D01*
X46651Y54685D01*
X46810D01*
X46437Y54366D02*
X46331D01*
X46277Y54419D01*
Y54526D01*
X46331Y54579D01*
X46437D01*
X46491Y54526D01*
Y54419D01*
X46437Y54366D01*
X46117Y54632D02*
Y54579D01*
X46171D01*
X46064D01*
X46117D01*
Y54419D01*
X46064Y54366D01*
X45371Y54632D02*
X45424Y54685D01*
X45531D01*
X45584Y54632D01*
Y54579D01*
X45531Y54526D01*
X45424D01*
X45371Y54472D01*
Y54419D01*
X45424Y54366D01*
X45531D01*
X45584Y54419D01*
X45264Y54366D02*
X45158D01*
X45211D01*
Y54579D01*
X45264D01*
X44998Y54366D02*
X44891D01*
X44944D01*
Y54685D01*
X44998D01*
X44731Y54366D02*
Y54685D01*
Y54472D02*
X44571Y54579D01*
X44731Y54472D02*
X44571Y54366D01*
X36961Y76059D02*
Y75659D01*
X36761D01*
X36694Y75726D01*
Y75793D01*
X36761Y75859D01*
X36961D01*
X36761D01*
X36694Y75926D01*
Y75993D01*
X36761Y76059D01*
X36961D01*
X36494Y75659D02*
X36361D01*
X36294Y75726D01*
Y75859D01*
X36361Y75926D01*
X36494D01*
X36561Y75859D01*
Y75726D01*
X36494Y75659D01*
X36094Y75993D02*
Y75926D01*
X36161D01*
X36028D01*
X36094D01*
Y75726D01*
X36028Y75659D01*
X35161Y75993D02*
X35228Y76059D01*
X35361D01*
X35428Y75993D01*
Y75926D01*
X35361Y75859D01*
X35228D01*
X35161Y75793D01*
Y75726D01*
X35228Y75659D01*
X35361D01*
X35428Y75726D01*
X35028Y75659D02*
X34895D01*
X34961D01*
Y75926D01*
X35028D01*
X34695Y75659D02*
X34561D01*
X34628D01*
Y76059D01*
X34695D01*
X34362Y75659D02*
Y76059D01*
Y75793D02*
X34162Y75926D01*
X34362Y75793D02*
X34162Y75659D01*
X46900Y83505D02*
Y83186D01*
X46741D01*
X46687Y83239D01*
Y83292D01*
X46741Y83346D01*
X46900D01*
X46741D01*
X46687Y83399D01*
Y83452D01*
X46741Y83505D01*
X46900D01*
X46527Y83186D02*
X46421D01*
X46367Y83239D01*
Y83346D01*
X46421Y83399D01*
X46527D01*
X46581Y83346D01*
Y83239D01*
X46527Y83186D01*
X46207Y83452D02*
Y83399D01*
X46261D01*
X46154D01*
X46207D01*
Y83239D01*
X46154Y83186D01*
X45461Y83452D02*
X45514Y83505D01*
X45621D01*
X45674Y83452D01*
Y83399D01*
X45621Y83346D01*
X45514D01*
X45461Y83292D01*
Y83239D01*
X45514Y83186D01*
X45621D01*
X45674Y83239D01*
X45354Y83186D02*
X45248D01*
X45301D01*
Y83399D01*
X45354D01*
X45088Y83186D02*
X44981D01*
X45034D01*
Y83505D01*
X45088D01*
X44821Y83186D02*
Y83505D01*
Y83292D02*
X44661Y83399D01*
X44821Y83292D02*
X44661Y83186D01*
G54D166*
X35110Y19872D02*
Y19622D01*
X35060Y19572D01*
X34960D01*
X34910Y19622D01*
Y19872D01*
X34810D02*
Y19572D01*
X34610D01*
X35060Y48582D02*
Y48332D01*
X35010Y48282D01*
X34910D01*
X34860Y48332D01*
Y48582D01*
X34760D02*
Y48282D01*
X34560D01*
X35210Y77072D02*
Y76822D01*
X35160Y76772D01*
X35060D01*
X35010Y76822D01*
Y77072D01*
X34910D02*
Y76772D01*
X34710D01*
M02*
