M48
;Layer_Color=9474304
;FILE_FORMAT=2:4
INCH,TZ
;TYPE=PLATED
T1F00S00C0.0100
T2F00S00C0.0150
T3F00S00C0.0354
T4F00S00C0.0380
T5F00S00C0.0400
T6F00S00C0.0550
T7F00S00C0.0590
T8F00S00C0.0630
T9F00S00C0.0760
T10F00S00C0.0870
;TYPE=NON_PLATED
T11F00S00C0.0504
T12F00S00C0.1181
%
T01
X2789Y2789
X5459Y2849
X6159Y4079
X6169Y4739
X6249Y5669
X5982
X6317Y5987
X5747Y6167
X4749Y6239
X4207Y6317
X3927
X3519Y6279
X2869Y5549
X7099Y5569
Y5309
X7109Y5879
X8049Y5589
Y5329
X8789Y5377
Y5137
X8807Y6147
X10199Y5639
X10039Y5319
X10029Y5059
X10919Y4229
X11009Y3469
X11949Y3499
X13949Y3329
X16099Y3379
X16089Y4369
X17009Y4379
Y6089
X16027Y6347
X15959Y5629
X15689
X15107Y5187
X14189Y5419
X14187Y5677
X14727Y6187
X12117Y6137
X11847
X11819Y5809
Y5549
X11429Y5669
X8849Y3339
X6729Y3369
X6709Y4319
X18129Y5359
X19079Y3359
X21169Y3399
X21199Y4499
X21189Y5409
X21927Y4857
X21787Y6297
X22127Y5867
X22387
X22769Y6219
X24087Y6027
X24337
X24927Y6247
X26347Y5677
X26289Y4589
X26319Y3379
X27159Y3949
X27139Y5169
X23577Y5207
X24209Y3379
X22139Y3409
X22129Y4179
X35079Y5939
X36519Y4919
X39307Y5237
X39607Y5557
X42699Y5949
X43349Y5309
X43089Y8619
X43019Y10939
X43069Y14249
X43099Y16139
X43109Y18189
X41589Y17669
X40659Y17489
X40619Y18979
X41599Y19739
X40199Y16279
X41109Y15119
X41089Y13169
X40859Y9719
X40899Y6769
X37697Y7117
X35409Y7929
X36449Y10599
X36679Y12699
X37449Y12369
X31292Y14582
X31059Y17279
X30589Y17719
X30389Y17729
X30563Y16795
X29779Y16145
X29555Y15917
X27149Y15849
X27209Y14159
X27157Y12717
X25779Y12609
X25587Y11297
X25007Y11327
Y11577
X24497
X24487Y11337
X24077Y11157
X23997Y10927
X22957Y10627
Y10377
X22777Y10137
X22822Y9902
X23354Y9387
Y8954
X23787
Y9387
X24220
Y8954
Y8521
Y8088
X23787
X23354
Y8521
X23787
X25077Y8798
X25267Y9462
X24977Y7577
X24711
X24927Y7217
X24787Y6967
X24447Y7037
Y6817
X25757Y6547
X26017
X26107Y7047
X29505Y7214
Y6814
X29905
Y7214
X30305
Y6814
X30705
Y7214
Y7614
Y8014
Y8414
X30305
Y8014
X29905
Y8414
X29505
Y8014
Y7614
X29905
X30305
X30387Y9567
X26667Y11667
X24247Y12347
X23507Y12657
X23584Y13208
X23013Y13386
X22661Y12937
X22118Y12913
X22472Y12431
X22907Y12137
X22637Y15097
X22763Y17732
X22606Y18054
X22350Y18523
X22339Y19049
X22870Y18602
X23649Y17549
X25137Y17970
X25096Y19055
X27159Y19139
X26193Y21976
X25078Y21693
X24740Y21736
X23438Y21707
X22547Y21630
X29441Y21392
X31489Y19829
X31969
X33158Y20824
Y21224
Y21624
X33558
Y21224
Y20824
X33958
X34358
X34758
Y21224
X34358
Y21624
X34758
X33958
Y21224
X32639Y16589
X25309Y16529
X24849Y14259
X24637Y13717
X22817Y7577
X22557
X22309Y7569
X22763Y6823
X21787Y6547
X21699Y8369
X21329Y8365
X21277Y8917
X21311Y9616
X20238Y9389
X20198Y9074
X19577Y8507
X19347
X18357Y8157
X18107
X17826Y8907
X17482Y9074
X18446Y9035
X18189Y10502
X17689Y10846
Y11525
X18279Y11368
X18840Y10699
X19608Y10630
Y11063
X20041
Y10630
X20887Y10797
X20464Y11456
X19716Y11506
X19913Y12608
X19834Y13149
X19330Y13027
X18702Y12992
X18147Y12997
X17877
X17748Y14291
X17677Y15357
X17551Y15669
X17700Y15960
X17165Y16200
X16850
X16826Y15496
X18311Y15396
X18467Y15667
X19086Y15814
X19472Y15862
X19992Y15667
X20299Y15799
X20299Y16154
X20809Y16506
X20785Y16917
X21095
X21405
X21370Y16437
X20783Y15512
X20484Y14228
X21291Y14393
X21645Y13927
X21517Y12917
X21827Y12437
X21077Y11827
X20693Y12992
X20984Y13370
X20283Y13433
X19578Y14301
X19943Y16840
X20649Y17416
X21449Y17999
X19303Y18071
X19293Y18848
X18259Y18819
X18200Y18100
X18023Y17342
X17547Y17569
X17295Y17320
X17088Y18198
X16657Y18177
X16775Y18697
X16299
X16287Y19185
X16767Y19197
X16635Y20067
X16325
X16941Y20059
X17315Y19689
X17374Y20413
X18191Y20452
X19214Y20403
X20740Y20137
X21189Y21374
X17236Y21880
X15275Y21897
X15263Y21567
X15039Y21563
X14547Y21732
X14346Y21854
X14322Y21521
X14736Y20627
X13862Y20614
X13359Y20549
X13177Y19740
X13859Y19738
X12839Y19249
X12809Y18209
X13311Y17964
X11727Y18087
X11822Y18456
X10987Y18407
X10871Y19423
X10497
Y19797
X10125
X10120Y20174
X10497Y20171
X10871
Y19797
X10123Y19413
X10599Y21039
X10317Y17387
X11007Y17287
X10859Y16129
X11169Y16139
X10239Y15629
X9407Y13207
X9047Y13097
Y12837
X8747Y12527
X8389Y11879
X8139Y12049
X7849Y12149
X7827Y11567
X6869Y11499
X6379Y11559
Y11789
X6377Y12097
X6607Y13647
X7157Y13487
X7327Y11027
X8617Y10947
X8867Y10547
Y10297
X8621Y10107
X8701Y9887
X9214Y9387
X9647
Y8954
X9214
Y8521
X9647
X10080
Y8954
Y9387
X11157Y9452
X10957Y8807
X10969Y7449
X10787Y7597
X10567
X10447Y7217
Y6957
X11679Y6729
X11977Y7507
X12267Y7417
X12377Y7787
X12859Y7509
X13177Y7597
Y7377
X13077Y7067
X13327
X13714Y8088
X14147
Y8521
X13714
Y8954
X14147
Y9387
X13714
X14580
Y8954
Y8521
Y8088
X15071Y7577
X15307
X15367Y7217
Y6967
X15899Y7459
X16319Y7679
X15509Y7879
X15457Y8817
X15627Y9472
X16817Y9497
X17285Y10216
X16957Y11067
X16487Y10767
X16157Y11357
X15930
X15667Y11187
X15747Y10977
X14437Y10937
X14307Y11137
X14107Y11397
X13337Y10637
X12837Y10547
X13117Y10137
X13197Y9907
X11997Y11227
X11369Y11189
X10847Y11277
Y11517
X10357
Y11277
X9807Y11137
X9937Y10937
X10067Y12397
X10317
X10607Y12487
X10927
X11277Y12037
X12097Y12377
X12477
X12857Y12367
X13587Y12737
X13787Y12927
X14667Y12767
X15687Y12967
X15987
X15835Y13988
X15197Y13987
X15090Y15082
X15102Y15964
X15405Y16067
X14838Y16409
X14000Y16165
X14277Y15467
X15696Y14747
X15401Y17590
X15019Y18068
X14649Y17479
X17351Y18720
X18811Y17697
X15616Y20617
X16537Y11919
X11906Y12744
X11747Y13037
X9859Y12619
X9647Y8088
X9214
X10080
X8687Y7577
Y7357
X8787Y7057
X8477Y7067
X7869Y6939
X8019Y6689
X7329Y6929
X6789
X6457Y7657
X6357Y7947
X6448Y9158
X6667Y9827
X7409Y7619
X7847Y7647
Y7947
X8107Y17137
X16207Y6677
X16339Y6399
X20697Y8127
X6097Y7947
X6207Y7587
X6197Y7167
X5867Y7327
X5606Y8448
Y8881
Y9314
Y9747
X5173
Y9314
X4740
Y9747
Y8881
X5173
Y8448
X4740
X4209Y7960
Y7730
X3297Y7827
X3299Y8179
X3167Y8707
X3297Y7067
X3517
X4599Y7049
X4227Y10247
X4147Y10467
X4257Y10747
Y10967
X5217Y11257
X5437
X5827Y11617
X5907Y11847
X5379Y12499
X5437Y12797
Y13057
X4927Y13297
X4667Y13517
X3817Y13447
X3407Y13717
X3259Y13979
X4157Y12677
Y12397
X3329Y20399
X5477Y21537
X5629Y22069
X5869Y23619
X5949Y25189
X4409Y25089
X4439Y24509
X2759Y24559
X2809Y26319
X3869Y26639
X5369Y27059
X5129Y30119
X5459Y30842
X6159Y32071
X6169Y32731
X6249Y33661
X5982
X6317Y33979
X5747Y34159
X4749Y34232
X4207Y34309
X3927
X3519Y34272
X3517Y35059
X3297
Y35819
X3299Y36172
X3167Y36699
X4740Y36873
X5173
Y37306
X4740
X5606
Y36873
Y36440
X5173
X4740
X4209Y35953
Y35723
X4599Y35041
X5867Y35319
X6197Y35159
X6207Y35579
X6097Y35939
X2869Y33542
X2789Y30782
X2859Y28209
X2829Y21999
X7587Y24327
X8649Y24294
X10119Y24529
X10219Y25159
X10719Y25109
X10739Y25609
X11885Y25519
Y24582
X11887Y23967
X12209Y23499
X12669Y23669
X13212Y22767
X13577Y22854
X14126Y22403
X14367Y22262
X14448Y23669
X15130Y23622
X15771Y23681
X15980Y23252
X15960Y22775
X15988Y22275
X15497Y23225
X16657Y23257
X17145Y23622
X17718Y23604
X18427Y23110
X17797Y22470
X20594Y22504
X20586Y22008
X21130
X21133Y22504
X21767Y22382
X21756Y21988
X19809Y24049
X18598Y24976
X18374Y24972
X18378Y25362
X18605Y25363
X18387Y26130
X16901Y26504
X16899Y24599
X15889Y24496
X14887Y24207
X14897Y26555
X15141Y29921
X15665Y29996
X14291Y29921
X13863
X12987Y29929
X12130Y29937
X11469Y29769
X9749Y30009
X10189Y28849
X9859Y27139
X10857Y27007
X8997Y26697
X7009Y27369
X7059Y29999
X6729Y31361
X6709Y32311
X7099Y33301
Y33561
X7109Y33872
X8049Y33582
Y33321
X8789Y33369
Y33129
X8807Y34139
X8787Y35049
X8477Y35059
X8687Y35349
Y35569
X7847Y35639
Y35939
X7409Y35612
X7329Y34922
X6789
X6457Y35649
X6357Y35939
X6448Y37150
X9214Y36946
X9647
Y37379
X9214
X10080
Y36946
Y36513
X9647
X9214
Y36080
X9647
X10080
X10567Y35589
X10787
X10969Y35442
X10447Y35209
Y34949
X11679Y34722
X11847Y34129
X12117
X11819Y33802
Y33542
X11429Y33661
X10199Y33631
X10039Y33312
X10029Y33052
X10919Y32222
X11009Y31462
X11949Y31491
X13949Y31321
X16099Y31372
X16089Y32362
X17009Y32371
Y34081
X16339Y34392
X16027Y34339
X16207Y34669
X15899Y35452
X16319Y35672
X15509Y35872
X15307Y35569
X15071
X15367Y35209
Y34959
X14727Y34179
X14187Y33669
X14189Y33412
X15107Y33179
X15689Y33621
X15959
X18129Y33352
X18107Y36149
X18357
X18446Y37027
X17826Y36899
X17482Y37067
X16817Y37489
X15627Y37464
X15457Y36809
X14580Y36946
Y37379
X14147
Y36946
X13714
Y37379
Y36513
X14147
X14580
Y36080
X14147
X13714
X13177Y35589
Y35369
X13077Y35059
X13327
X12859Y35501
X12267Y35409
X11977Y35499
X12377Y35779
X10957Y36799
X11157Y37444
X7869Y34931
X8019Y34681
X8849Y31332
X13119Y29129
X12707Y28157
X17603Y28256
X17773Y28426
X17626Y28842
X18433Y29074
Y29295
X18378Y29971
X18626Y29972
X19748Y29535
X19529Y28559
X20744Y27062
X21287Y26708
X21889Y27899
X21169Y31391
X21199Y32492
X21189Y33402
X21927Y32849
X21787Y34289
Y34539
X21699Y36361
X21329Y36357
X21277Y36909
X20198Y37067
X20238Y37382
X19577Y36499
X19347
X20697Y36119
X19079Y31351
X17019Y29699
X11259Y22619
X21996Y22186
X23563Y22689
X24378Y22657
X23967Y22008
X25570Y22134
X25482Y23573
X25689Y24102
X26618Y24060
X27007Y24387
X27389Y23185
X27393Y22956
X27964Y22779
Y22523
X28362Y22529
X28756Y22496
X29787Y22590
X29789Y22811
X30659Y22889
X31149Y22909
X31339Y23259
X31829Y24119
X30287Y25945
X30224Y26952
X30228Y27949
X30263Y28988
X30314Y29471
X30275Y29866
X31327Y30067
X31809Y29089
X33059Y29189
X34444Y28771
X34803Y29255
X34972Y28283
X34529Y28009
X35150Y26856
Y26463
X35544
Y26856
X35937
Y26463
Y26069
X35544
X35150
X36627Y28997
X36716Y29744
X36488
X37597Y29331
X37554Y28960
X36519Y32912
X35079Y33932
X35409Y35921
X30705Y36006
Y36406
X30305
Y36006
X29905
Y36406
X29505
Y36006
Y35606
Y35206
Y34806
X29905
Y35206
X30305
Y34806
X30705
Y35206
Y35606
X30305
X29905
X30387Y37559
X25267Y37454
X25077Y36790
X24220Y36946
Y37379
X23787
X23354
Y36946
X23787
Y36513
X23354
Y36080
X23787
X24220
Y36513
X24711Y35569
X24977
X24927Y35209
X24787Y34959
X24447Y35029
Y34809
X24337Y34019
X24087
X24927Y34239
X25757Y34539
X26017
X26107Y35039
X26347Y33669
X26289Y32582
X26319Y31372
X27159Y31941
X27139Y33161
X23577Y33199
X22769Y34211
X22763Y34815
X22817Y35569
X22557
X22309Y35561
X22387Y33859
X22127
X22129Y32171
X22139Y31402
X24209Y31372
X22929Y29529
X24959Y28999
Y28279
X25829Y28199
X26809Y28329
X26339Y27549
X25567Y26927
X25539Y26199
X25077Y26237
X24749Y26239
X24409
X24399Y27469
X23460Y26909
X22271Y27393
X24817Y24877
X23948Y23882
X26809Y25809
X33158Y22024
X33558
X33958
X34358
X34758
X40697Y22137
X41029Y22269
X41699Y23739
Y25029
X43099Y25039
X43079Y26759
X40739Y27099
X39529Y26089
X38529Y26409
X40059Y24589
X39809Y29729
X43179Y29899
X43349Y33301
X42699Y33942
X40899Y34762
X39607Y33549
X39307Y33229
X37697Y35109
X43089Y36611
X43019Y38932
X43069Y42242
X43099Y44131
X43109Y46182
X41589Y45662
X40659Y45482
X40619Y46972
X41599Y47731
X41029Y50262
X40697Y50129
X41699Y51732
Y53021
X43099Y53032
X40059Y52582
X40199Y44271
X41109Y43112
X41089Y41161
X40859Y37712
X36449Y38591
X36679Y40691
X37449Y40361
X31292Y42574
X31059Y45271
X30589Y45711
X30389Y45722
X30563Y44787
X29779Y44137
X29555Y43909
X27149Y43842
X27209Y42151
X27157Y40709
X25779Y40602
X25587Y39289
X25007Y39319
Y39569
X24497
X24487Y39329
X24077Y39149
X23997Y38919
X22957Y38619
Y38369
X22777Y38129
X22822Y37894
X22907Y40129
X22472Y40423
X22661Y40929
X22118Y40905
X23013Y41378
X23584Y41200
X23507Y40649
X24247Y40339
X24637Y41709
X24849Y42252
X25309Y44521
X25137Y45962
X25096Y47047
X27159Y47132
X26193Y49968
X25570Y50126
X25078Y49685
X24740Y49728
X23967Y50000
X23438Y49699
X22547Y49622
X21996Y50178
X23563Y50681
X24378Y50649
X23948Y51874
X25482Y51566
X25689Y52094
X26618Y52052
X27007Y52379
X27389Y51177
X27393Y50949
X27964Y50771
Y50515
X28362Y50521
X28756Y50488
X29787Y50582
X29789Y50803
X30659Y50882
X31149Y50901
X31339Y51252
X31829Y52112
X33158Y50016
X33558
Y49616
X33158
Y49216
X33558
Y48816
X33158
X33958
X34358
X34758
Y49216
X34358
Y49616
X34758
Y50016
X34358
X33958
Y49616
Y49216
X31969Y47821
X31489
X29441Y49384
X32639Y44581
X23649Y45542
X22763Y45724
X22606Y46046
X22350Y46515
X22339Y47042
X22870Y46594
X22637Y43089
X26667Y39659
X24817Y52869
X21767Y50374
X21756Y49980
X21130Y50000
X21133Y50496
X20594
X20586Y50000
X21189Y49366
X20740Y48130
X19214Y48395
X18191Y48445
X17374Y48405
X17315Y47681
X16941Y48051
X16635Y48059
X16325
X16287Y47177
X16767Y47189
X16775Y46689
X16299
X16657Y46169
X17088Y46191
X17351Y46712
X18259Y46811
X18200Y46092
X18023Y45334
X17547Y45561
X17295Y45313
X17165Y44193
X16850
X16826Y43488
X17551Y43661
X17677Y43349
X17700Y43952
X18467Y43659
X18311Y43388
X19086Y43806
X19472Y43854
X19992Y43659
X20299Y43791
X20299Y44146
X20809Y44498
X20785Y44909
X21095
X21405
X21370Y44429
X20783Y43504
X20484Y42220
X21291Y42386
X21645Y41919
X21517Y40909
X21827Y40429
X21077Y39819
X20464Y39448
X19716Y39498
X19608Y39055
X20041
Y38622
X19608
X18840Y38691
X18189Y38494
X17689Y38838
Y39517
X18279Y39360
X16957Y39059
X16487Y38759
X16157Y39349
X15930
X15667Y39179
X15747Y38969
X14437Y38929
X14307Y39129
X14107Y39389
X13337Y38629
X12837Y38539
X13117Y38129
X13197Y37899
X11997Y39219
X11369Y39181
X10847Y39269
Y39509
X10357
Y39269
X9807Y39129
X9937Y38929
X8617Y38939
X8867Y38539
Y38289
X8621Y38099
X8701Y37879
X6667Y37819
X7327Y39019
X6869Y39492
X6379Y39551
Y39781
X6377Y40089
X7849Y40142
X8139Y40041
X8389Y39871
X7827Y39559
X8747Y40519
X9047Y40829
Y41089
X9407Y41199
X9859Y40612
X10067Y40389
X10317
X10607Y40479
X10927
X11277Y40029
X12097Y40369
X12477
X12857Y40359
X13587Y40729
X13787Y40919
X14667Y40759
X15687Y40959
X15987
X15835Y41980
X15197Y41979
X15090Y43075
X15102Y43956
X15405Y44059
X14838Y44401
X14000Y44157
X14277Y43459
X15696Y42739
X17748Y42283
X17877Y40989
X18147
X18702Y40984
X19330Y41019
X19834Y41141
X19913Y40600
X20693Y40984
X20984Y41362
X20283Y41425
X19578Y42293
X19943Y44832
X20649Y45408
X21449Y45992
X19303Y46063
X19293Y46840
X18811Y45689
X15401Y45582
X15019Y46060
X14649Y45472
X13311Y45956
X12809Y46202
X12839Y47242
X13177Y47732
X13859Y47730
X13862Y48606
X13359Y48541
X14736Y48619
X15616Y48609
X15263Y49559
X15039Y49555
X15275Y49889
X14547Y49724
X14346Y49846
X14322Y49513
X14367Y50254
X14126Y50396
X13577Y50846
X13212Y50760
X12669Y51662
X12209Y51491
X11887Y51959
X11885Y52574
X10719Y53102
X10219Y53151
X10119Y52522
X8649Y52286
X7587Y52319
X11259Y50612
X10599Y49032
X10497Y48163
Y47789
X10125
X10120Y48167
X10871Y48163
Y47789
Y47415
X10497
X10123Y47405
X10987Y46399
X11822Y46448
X11727Y46079
X11007Y45279
X10317Y45379
X10859Y44121
X11169Y44131
X10239Y43622
X8107Y45129
X7157Y41479
X6607Y41639
X11747Y41029
X11906Y40736
X16537Y39911
X17285Y38208
X20887Y38789
X21311Y37608
X19809Y52042
X18598Y52968
X18374Y52964
X16899Y52592
X15889Y52488
X15771Y51673
X15980Y51244
X15960Y50767
X15988Y50267
X15497Y51217
X15130Y51614
X14448Y51661
X14887Y52199
X16657Y51249
X17145Y51614
X17718Y51596
X18427Y51102
X17797Y50462
X17236Y49872
X5629Y50061
X5477Y49529
X5869Y51611
X5949Y53182
X4409Y53081
X4439Y52502
X2759Y52551
X2829Y49991
X3329Y48391
X3259Y41972
X3407Y41709
X3817Y41439
X4667Y41509
X4927Y41289
X5437Y41049
Y40789
X5379Y40491
X5907Y39839
X5827Y39609
X5437Y39249
X5217
X4257Y38959
Y38739
X4147Y38459
X4227Y38239
X4740Y37739
X5173
X5606
X4157Y40389
Y40669
X3869Y54632
X2809Y54311
X2859Y56202
X2789Y58774
X5459Y58834
X5129Y58112
X6159Y60064
X6169Y60724
X6249Y61654
X5982
X6317Y61971
X5747Y62151
X4749Y62224
X4207Y62301
X3927
X3519Y62264
X3517Y63051
X3297
Y63811
X3299Y64164
X3167Y64691
X4740Y64865
X5173
Y65298
Y65731
X4740
Y65298
X5606
Y65731
Y64865
Y64432
X5173
X4740
X4209Y63945
Y63715
X4599Y63034
X5867Y63311
X6197Y63151
X6207Y63571
X6097Y63931
X5827Y67601
X5907Y67831
X5437Y67241
X5217
X4257Y66951
Y66731
X4147Y66451
X4227Y66231
X4157Y68381
Y68661
X5437Y68781
X5379Y68484
X2869Y61534
X5369Y55051
X7009Y55361
X8997Y54689
X9859Y55132
X10857Y54999
X10739Y53601
X11885Y53512
X12707Y56149
X13119Y57122
X12987Y57922
X12130Y57929
X11469Y57762
X9749Y58001
X10189Y56842
X11009Y59454
X10919Y60214
X10029Y61044
X10039Y61304
X10199Y61624
X11429Y61654
X11819Y61534
Y61794
X11847Y62121
X12117
X11679Y62714
X11977Y63491
X12267Y63401
X12377Y63771
X12859Y63494
X13177Y63581
Y63361
X13077Y63051
X13327
X13714Y64072
X14147
Y64505
X13714
Y64938
X14147
Y65371
X13714
X14580
Y64938
Y64505
Y64072
X15071Y63561
X15307
X15367Y63201
Y62951
X15899Y63444
X16319Y63664
X15509Y63864
X15457Y64801
X15627Y65456
X16817Y65481
X17482Y65059
X17826Y64891
X18446Y65019
X18357Y64141
X18107
X19347Y64491
X19577
X20198Y65059
X20238Y65374
X21311Y65600
X21277Y64901
X21329Y64349
X21699Y64354
X20697Y64111
X21787Y62531
Y62281
X21189Y61394
X21199Y60484
X21927Y60841
X21169Y59384
X19079Y59344
X18626Y57964
X18378Y57963
X18433Y57287
Y57067
X17626Y56834
X17773Y56418
X17603Y56248
X17019Y57691
X15665Y57988
X15141Y57913
X14291
X13863
X13949Y59314
X11949Y59484
X8849Y59324
X8789Y61121
Y61361
X8807Y62131
X8787Y63041
X8477Y63051
X8687Y63341
Y63561
X7847Y63631
Y63931
X7409Y63604
X7329Y62914
X6789
X6457Y63641
X6357Y63931
X6448Y65142
X6667Y65811
X7327Y67011
X6869Y67484
X6379Y67544
Y67774
X6377Y68081
X7849Y68134
X8139Y68034
X8389Y67864
X7827Y67551
X8617Y66931
X8867Y66531
Y66281
X8621Y66091
X8701Y65871
X9214Y65371
X9647
Y64938
X9214
Y64505
X9647
X10080
Y64938
Y65371
X11157Y65436
X10957Y64791
X10969Y63434
X10787Y63581
X10567
X10447Y63201
Y62941
X10080Y64072
X9647
X9214
X7869Y62924
X8019Y62674
X8049Y61574
Y61314
X7099Y61294
Y61554
X7109Y61864
X6709Y60304
X6729Y59354
X7059Y57991
X16099Y59364
X16089Y60354
X17009Y60364
Y62074
X16339Y62384
X16027Y62331
X16207Y62661
X15959Y61614
X15689
X15107Y61171
X14189Y61404
X14187Y61661
X14727Y62171
X18129Y61344
X18189Y66486
X17689Y66830
Y67510
X18279Y67352
X18840Y66683
X19608Y66614
Y67047
X20041
Y66614
X20887Y66781
X20464Y67441
X19716Y67490
X19913Y68592
X21077Y67811
X21827Y68421
X16537Y67903
X16157Y67341
X15930
X15667Y67171
X15747Y66961
X16487Y66751
X16957Y67051
X17285Y66200
X14437Y66921
X14307Y67121
X14107Y67381
X13337Y66621
X12837Y66531
X13117Y66121
X13197Y65891
X11997Y67211
X11369Y67174
X10847Y67261
Y67501
X10357
Y67261
X9807Y67121
X9937Y66921
X10067Y68381
X10317
X10607Y68471
X10927
X11277Y68021
X12097Y68361
X12477
X12857Y68351
X13587Y68721
X14667Y68751
X11906Y68728
X9859Y68604
X9047Y68821
X8747Y68511
X14897Y54547
X16901Y54496
X18387Y54122
X18378Y53354
X18605Y53355
X20744Y55054
X21287Y54700
X21889Y55891
X19529Y56551
X19748Y57527
X22929Y57522
X24959Y56992
Y56272
X25829Y56192
X26809Y56322
X26339Y55542
X25567Y54919
X25539Y54191
X25077Y54229
X24749Y54232
X24409
X24399Y55462
X23460Y54901
X22271Y55386
X22139Y59394
X22129Y60164
X22127Y61851
X22387
X22769Y62204
X22763Y62807
X22817Y63561
X22557
X22309Y63554
X23354Y64072
X23787
X24220
Y64505
X23787
X23354
Y64938
Y65371
X23787
Y64938
X24220
Y65371
X25267Y65446
X25077Y64782
X24977Y63561
X24711
X24927Y63201
X24787Y62951
X24447Y63021
Y62801
X24337Y62011
X24087
X24927Y62231
X25757Y62531
X26017
X26107Y63031
X26347Y61661
X26289Y60574
X26319Y59364
X27159Y59934
X27139Y61154
X23577Y61191
X24209Y59364
X30275Y57858
X30314Y57463
X30263Y56980
X30228Y55941
X30224Y54945
X30287Y53937
X26809Y53801
X31809Y57081
X33059Y57182
X34444Y56763
X34803Y57247
X34972Y56275
X34529Y56002
X35150Y54848
Y54455
X35544
Y54848
X35937
Y54455
Y54061
X35544
X35150
X36627Y56989
X36716Y57736
X36488
X37597Y57323
X37554Y56952
X36519Y60904
X35079Y61924
X35409Y63914
X36449Y66584
X36679Y68684
X37449Y68354
X30387Y65551
X30305Y64398
X30705
Y63998
X30305
X29905
Y64398
X29505
Y63998
Y63598
Y63198
Y62798
X29905
Y63198
X30305
Y62798
X30705
Y63198
Y63598
X30305
X29905
X31327Y58059
X26667Y67651
X25587Y67281
X25007Y67311
Y67561
X24497
X24487Y67321
X24077Y67141
X23997Y66911
X22957Y66611
Y66361
X22777Y66121
X22822Y65886
X22907Y68121
X22472Y68415
X23507Y68641
X24247Y68331
X25779Y68594
X27157Y68701
X37697Y63101
X39607Y61541
X39307Y61221
X40899Y62754
X42699Y61934
X43349Y61294
X43089Y64604
X43019Y66924
X40859Y65704
X39809Y57722
X43179Y57892
X43079Y54752
X40739Y55092
X39529Y54082
X38529Y54401
X41089Y69154
X41109Y71104
X40199Y72264
X40659Y73474
X41589Y73654
X43109Y74174
X43099Y72124
X43069Y70234
X41599Y75724
X40619Y74964
X40697Y78121
X41029Y78254
X41699Y79724
Y81014
X43099Y81024
X43079Y82744
X40739Y83084
X39529Y82074
X38529Y82394
X40059Y80574
X35937Y82053
Y82447
X35544
X35150
Y82841
X35544
X35937
X35544Y82053
X35150
X34972Y84267
X34529Y83994
X30228Y83933
X30224Y82937
X30287Y81929
X31829Y80104
X31339Y79244
X31149Y78894
X30659Y78874
X29789Y78795
X29787Y78574
X28756Y78480
X28362Y78513
X27964Y78508
Y78763
X27393Y78941
X27389Y79169
X27007Y80371
X26618Y80044
X25689Y80086
X25482Y79558
X25570Y78118
X26193Y77960
X25078Y77677
X24740Y77720
X23967Y77992
X23438Y77691
X22547Y77614
X21996Y78170
X23563Y78673
X24378Y78641
X23948Y79866
X24817Y80861
X24749Y82224
X25077Y82221
X25539Y82184
X25567Y82911
X26339Y83534
X25829Y84184
X24959Y84264
X24399Y83454
X24409Y82224
X23460Y82893
X22271Y83378
X26809Y84314
Y81794
X27159Y75124
X25096Y75039
X25137Y73954
X25309Y72514
X27149Y71834
X27209Y70144
X24849Y70244
X24637Y69701
X23584Y69193
X23013Y69370
X22661Y68921
X22118Y68897
X22637Y71081
X22763Y73716
X22606Y74038
X22350Y74508
X22339Y75034
X22870Y74586
X23649Y73534
X30389Y73714
X30589Y73704
X31059Y73263
X30563Y72779
X29779Y72130
X29555Y71901
X31292Y70566
X32639Y72574
X31969Y75814
X31489
X33158Y76809
Y77209
Y77609
Y78009
X33558
Y77609
Y77209
Y76809
X33958
X34358
X34758
Y77209
X34358
Y77609
X34758
Y78009
X34358
X33958
Y77609
Y77209
X29441Y77376
X21189Y77358
X21130Y77992
X21133Y78488
X20594
X20586Y77992
X21756Y77972
X21767Y78366
X20740Y76122
X19214Y76387
X18191Y76437
X17374Y76397
X17315Y75673
X16941Y76043
X16635Y76051
X16325
X16287Y75169
X16767Y75181
X16775Y74681
X16299
X16657Y74161
X17088Y74183
X17351Y74704
X18259Y74803
X18200Y74084
X18023Y73326
X17547Y73554
X17295Y73305
X17165Y72185
X16850
X16826Y71480
X17551Y71653
X17677Y71341
X17700Y71945
X18467Y71651
X18311Y71381
X19086Y71798
X19472Y71846
X19992Y71652
X20299Y71784
X20299Y72138
X20809Y72490
X20785Y72901
X21095
X21405
X21370Y72421
X20783Y71496
X20484Y70212
X21291Y70378
X21645Y69911
X21517Y68901
X20693Y68976
X20984Y69354
X20283Y69417
X19834Y69134
X19330Y69012
X18702Y68976
X18147Y68981
X17877
X17748Y70275
X19578Y70285
X19943Y72824
X20649Y73401
X21449Y73984
X19303Y74055
X19293Y74832
X18811Y73681
X15401Y73574
X15019Y74052
X14649Y73464
X14838Y72393
X15102Y71948
X15405Y72051
X15090Y71067
X15696Y70731
X15835Y69972
X15197Y69971
X15687Y68951
X15987
X13787Y68911
X11747Y69021
X9407Y69191
X9047Y69081
X7157Y69471
X6607Y69631
X8107Y73121
X10317Y73371
X11007Y73271
X10987Y74391
X11822Y74440
X11727Y74071
X12809Y74194
X13311Y73948
X12839Y75234
X13177Y75724
X13859Y75722
X13862Y76598
X13359Y76534
X14736Y76611
X15616Y76601
X15263Y77551
X15039Y77547
X15275Y77882
X14547Y77717
X14346Y77838
X14322Y77506
X14367Y78247
X14126Y78388
X13577Y78838
X13212Y78752
X12669Y79654
X12209Y79484
X11887Y79951
X11885Y80567
Y81504
X10739Y81594
X10719Y81094
X10219Y81144
X10119Y80514
X8649Y80279
X7587Y80311
X7009Y83354
X8997Y82681
X9859Y83124
X10857Y82991
X12707Y84141
X14897Y82539
X16901Y82488
X18387Y82114
X18378Y81346
X18605Y81347
X18598Y80960
X18374Y80956
X16899Y80584
X15889Y80480
X15771Y79665
X15980Y79236
X15960Y78760
X15988Y78260
X15497Y79209
X15130Y79606
X14448Y79653
X14887Y80191
X16657Y79241
X17145Y79606
X17718Y79588
X18427Y79094
X17797Y78454
X17236Y77864
X19809Y80034
X20744Y83046
X21287Y82693
X21889Y83884
X17603Y84240
X17773Y84410
X11259Y78604
X10599Y77024
X10497Y76155
Y75781
X10125
X10120Y76159
X10871Y76155
Y75781
Y75407
X10497
X10123Y75397
X10239Y71614
X10859Y72114
X11169Y72124
X14000Y72149
X14277Y71451
X5437Y69041
X4927Y69281
X4667Y69501
X3817Y69431
X3407Y69701
X3259Y69964
X3329Y76384
X2829Y77984
X2759Y80544
X4439Y80494
X4409Y81074
X5949Y81174
X5869Y79604
X5629Y78054
X5477Y77521
X5369Y83044
X3869Y82624
X2809Y82304
X2859Y84194
X5129Y86104
X7059Y85984
X9749Y85994
X10189Y84834
X11469Y85754
X12130Y85921
X12987Y85914
X13863Y85905
X14291
X15141
X15665Y85980
X17019Y85684
X17626Y84826
X18433Y85059
Y85279
X18378Y85955
X18626Y85956
X19748Y85519
X19529Y84544
X13119Y85114
X22929Y85514
X24959Y84984
X30263Y84972
X30314Y85455
X30275Y85850
X31327Y86051
X31809Y85074
X33059Y85174
X34444Y84755
X34803Y85240
X36627Y84981
X36716Y85728
X36488
X37597Y85316
X37554Y84945
X39809Y85714
X43179Y85884
T02
X3808Y3808
X4508Y3508
X5208Y3808
X5508Y4508
X5208Y5208
X4508Y5508
X3808Y5208
X3508Y4508
X27867Y4437
Y3917
Y3407
X28787
Y3927
Y4437
Y5437
Y5957
X27867
Y5437
X29547Y5187
X30559Y5344
Y4924
X30607Y3757
X30587Y3407
X31337Y3377
X31817
X32267Y3537
Y3957
Y4387
X32977Y4887
X35837
X37179Y4939
X36207Y6297
X35277Y3947
X29538Y3888
X31087Y5977
X38567Y5307
X38847Y4807
X38267Y4797
X38009Y4319
X39107Y3717
X41209Y3808
X40909Y4508
X41209Y5208
X41909Y5508
X42609Y5208
X42909Y4508
X42609Y3808
X41909Y3508
X40069Y6059
X38567Y6517
X39097Y7437
X38237Y7947
X40017Y8387
X40457Y8887
X39077Y9347
X38787Y10517
X37837Y10507
X37787Y11077
X37877Y11457
X38137Y11767
X37792Y12804
X38907Y13047
X39077Y12517
X39067Y13887
X38067Y14087
X38147Y14867
X39077Y15787
X39067Y17217
X39977Y18137
X39737Y19217
X39867Y20507
X39077Y20447
X38247Y20497
X37967Y19377
X38157Y18147
X40697Y20287
X40707Y21067
X40037Y21367
X42839Y20219
X40437Y15417
X39987Y14897
X40657Y14327
X40457Y13217
X40037Y11657
X36697Y11427
X36247
X35207Y11677
X35097Y11077
X35197Y10477
X34807Y10097
X34317Y10267
X34107Y11017
Y11537
Y12047
X33187
Y11537
Y11017
X32977Y10277
X33557Y8427
X34277Y8277
X34207Y7647
X34037Y7047
X35227Y6707
X35857Y7317
X35887Y8267
X36529Y8399
X37157Y8227
X36507Y9997
X35442Y12422
X35907Y13047
X35177Y14067
X34777Y14101
X32967Y13707
X32309Y15059
X31637Y15937
X31319Y16959
X33087Y17147
X33587
X34097
X34399Y17149
X34419Y17489
X32769Y17569
X32977Y18657
X33210Y19242
X33446Y19478
X33958
X33722Y19242
X34194
X34431Y19478
X35187Y19367
X35337Y18437
X35897Y18177
X36559Y18259
X37247Y18187
X36577Y20087
X35697Y20697
Y21697
X36697
X32557Y21457
X32547Y20737
X32777Y20266
Y19872
Y19478
X31170Y20004
X30977Y21077
X31747Y20967
X29949Y18039
X30255Y15598
X30217Y15157
X30087Y11847
X30177Y10937
X28577Y10147
X28227Y10187
Y9687
X28607
Y9167
X28227Y9177
X28177Y8346
X28189Y7756
X28197Y7117
X27277
X27256Y7730
X27263Y8319
X28847Y7867
X28787Y6487
X27867Y6484
X31967Y6857
X32279Y6859
Y7359
X31967Y7357
Y7857
X32279Y7849
X27477Y11057
X27327Y12107
X26647Y12417
X27557Y13507
X24257Y13937
X23017Y14027
X23049Y15179
X22657Y15867
X22819Y16309
X24617Y16217
X24727Y15797
Y15337
X25107Y17487
X23947Y18517
X24387Y19017
X23609Y19389
X23507Y19807
X23487Y20317
X23927Y21187
X22959Y21169
X22114Y20976
X25077Y20767
Y20317
X23967Y12807
X36137Y15087
X36669Y15039
X37227Y15087
X36787Y15697
X19175Y14252
X18259Y14242
X14531Y14980
X13830Y14644
X14494Y16432
X14487Y16812
X13559Y17472
X14517Y19297
X14972Y18881
X15137Y19856
X11821Y19902
X12174Y21168
X10807Y21870
X10167Y21457
X8667Y20527
X8657Y18687
X9037Y18697
X10137Y18137
X10518Y18144
X10718Y16831
X10719Y16439
X10738Y15108
Y14724
X9397Y15337
Y15657
X8647Y16097
X7687Y16087
X7697Y15667
Y15347
X8167Y17887
X7697Y19127
X7417Y19847
X7647Y21487
X7047
X6717Y21927
X19815Y21795
X4089Y20289
X3327Y15227
X6339Y22087
X6117Y22347
X6097Y23177
X5877Y24547
X5167Y23887
X5208Y27824
X4508Y27524
X3808Y27824
X3508Y28524
X3808Y29224
X4508Y29524
X5208Y29224
X5508Y28524
X5208Y31800
X4508Y31500
X3808Y31800
X3508Y32500
X3808Y33200
X4508Y33500
X5208Y33200
X5508Y32500
X11239Y27329
X11539
X12239
X12847Y27027
X15239Y27329
X15539
X17839Y27019
Y26685
X19799Y22179
X11073Y22146
X7219Y23147
X30697Y24877
X31090Y24878
X31669Y24879
X32259
X32859
X33077Y25307
X33457Y24077
X33897Y23467
X34687Y23327
X34697Y22697
X33697
X32697
X32567Y22167
X35697Y22507
X36587Y22687
X36657Y23697
X36667Y24087
X36487Y24747
X36107
X35047Y25027
Y25357
Y25687
X34667Y25527
Y25077
X34952Y24077
X35377Y23287
X37569Y23449
X37097Y27677
X36707Y28557
X36307Y28537
X36177Y28907
X35447Y28837
Y28467
Y28097
X36267Y27177
X34417Y27347
X35277Y31939
X35837Y32879
X37179Y32931
X36207Y34289
X35857Y35309
X35887Y36259
X36529Y36391
X37157Y36219
X34277Y36269
X34207Y35639
X34037Y35039
X35227Y34699
X32279Y34852
X31967Y34849
Y35349
X32279Y35352
Y35842
X31967Y35849
X33557Y36419
X32977Y32879
X32267Y32379
Y31949
Y31529
X31817Y31369
X31337
X30587Y31399
X30607Y31749
X29538Y31880
X28787Y31919
Y32429
X27867
Y31909
Y31399
X28787
Y33429
Y33949
Y34479
X27867Y34476
Y33949
Y33429
X29547Y33179
X30559Y33336
Y32916
X31087Y33969
X28197Y35109
X28189Y35748
X28177Y36338
X28227Y37169
X28607Y37159
X28847Y35859
X27256Y35723
X27263Y36311
X27277Y35109
X38237Y35939
X39097Y35429
X38567Y34509
X38567Y33299
X38847Y32799
X38267Y32789
X38009Y32311
X39107Y31709
X41209Y31800
X40909Y32500
X41209Y33200
X41909Y33500
X42609Y33200
X42909Y32500
X42609Y31800
X41909Y31500
Y29524
X41209Y29224
X40909Y28524
X41209Y27824
X41909Y27524
X42609Y27824
X42909Y28524
X42609Y29224
X42697Y23107
X39067Y23657
X39077Y22357
X38167Y24637
X37649Y25329
X39067Y25617
X40069Y34051
X40017Y36379
X40457Y36879
X39077Y37339
X38787Y38509
X37837Y38499
X37787Y39069
X37877Y39449
X38137Y39759
X37792Y40797
X38907Y41039
X39077Y40509
X39067Y41879
X38067Y42079
X38147Y42859
X39077Y43779
X39067Y45209
X39977Y46129
X39737Y47209
X39867Y48499
X39077Y48439
X38247Y48489
X37967Y47369
X38157Y46139
X40697Y48279
X40707Y49059
X40037Y49359
X39077Y50349
X39067Y51649
X38167Y52629
X42697Y51099
X42839Y48211
X40437Y43409
X39987Y42889
X40657Y42319
X40457Y41209
X40037Y39649
X36697Y39419
X36247
X35207Y39669
X35097Y39069
X35197Y38469
X34807Y38089
X34317Y38259
X34107Y39009
Y39529
Y40039
X33187
Y39529
Y39009
X32977Y38269
X32967Y41699
X32309Y43052
X31637Y43929
X31319Y44952
X33087Y45139
X33587
X34097
X34399Y45142
X34419Y45482
X32769Y45561
X32977Y46649
X33210Y47234
X33446Y47471
X33958
X33722Y47234
X34194
X34431Y47471
X35187Y47359
X35337Y46429
X35897Y46169
X36559Y46252
X37247Y46179
X36577Y48079
X35697Y48689
Y49689
Y50499
X36587Y50679
X36657Y51689
X36667Y52079
X36487Y52739
X36107
X35047Y53019
X34667Y53069
X34952Y52069
X34687Y51319
X34697Y50689
X33697
X33897Y51459
X33457Y52069
X32859Y52871
X32259
X31669
X31090Y52870
X30697Y52869
X30977Y49069
X31747Y48959
X32547Y48729
X32777Y48258
Y47864
Y47471
X31170Y47996
X32557Y49449
X32567Y50159
X32697Y50689
X35377Y51279
X37569Y51441
X36697Y49689
X36787Y43689
X36669Y43032
X36137Y43079
X37227
X35177Y42059
X34777Y42094
X35907Y41039
X35442Y40414
X36507Y37989
X30177Y38929
X30087Y39839
X27327Y40099
X26647Y40409
X27557Y41499
X27477Y39049
X28227Y38179
X28577Y38139
X28607Y37679
X28227
X23967Y40799
X24257Y41929
X23017Y42019
X23049Y43172
X22657Y43859
X22819Y44302
X24617Y44209
X24727Y43789
Y43329
X25107Y45479
X23947Y46509
X24387Y47009
X23609Y47382
X23507Y47799
X23487Y48309
X23927Y49179
X22959Y49162
X22114Y48968
X25077Y48759
Y48309
X29949Y46031
X30255Y43590
X30217Y43149
X19175Y42244
X18259Y42234
X14531Y42972
X13830Y42636
X14494Y44424
X14487Y44804
X13559Y45464
X14517Y47289
X14972Y46873
X15137Y47848
X11821Y47894
X12174Y49161
X10807Y49862
X11073Y50138
X10167Y49449
X8667Y48519
X8657Y46679
X9037Y46689
X10137Y46129
X10518Y46136
X10718Y44823
X10719Y44432
X10738Y43100
Y42717
X9397Y43329
Y43649
X8647Y44089
X7687Y44079
X7697Y43659
Y43339
X8167Y45879
X7697Y47119
X7417Y47839
X7647Y49479
X7047
X6717Y49919
X7219Y51140
X19799Y50171
X19815Y49787
X6339Y50079
X6117Y50339
X6097Y51169
X5877Y52539
X5167Y51879
X4089Y48281
X3327Y43219
X3808Y55816
X4508Y55516
X5208Y55816
X5508Y56516
X5208Y57216
X4508Y57516
X3808Y57216
X3508Y56516
X3808Y59792
X4508Y59492
X5208Y59792
X5508Y60492
X5208Y61192
X4508Y61492
X3808Y61192
X3508Y60492
X11239Y55321
X11539
X12239
X12847Y55019
X15239Y55321
X15539
X17839Y55012
Y54677
X27867Y59391
Y59901
Y60421
X28787
Y59911
Y59391
X29538Y59873
X30607Y59741
X30587Y59391
X31337Y59361
X31817
X32267Y59521
Y59941
Y60371
X32977Y60871
X30559Y60909
Y61328
X31087Y61961
X31967Y62841
X32279Y62844
Y63344
X31967Y63341
Y63841
X32279Y63834
X33557Y64411
X34277Y64261
X34207Y63631
X34037Y63031
X35227Y62691
X35857Y63301
X35887Y64251
X36529Y64384
X37157Y64211
X36507Y65981
X36697Y67411
X36247
X35207Y67661
X35097Y67061
X35197Y66461
X34807Y66081
X34317Y66251
X34107Y67001
Y67521
Y68031
X33187
Y67521
Y67001
X32977Y66261
X30177Y66921
X30087Y67831
X27327Y68091
X26647Y68401
X27477Y67041
X28227Y66171
X28577Y66131
X28607Y65671
X28227
Y65161
X28607Y65151
X28177Y64330
X28189Y63740
X28197Y63101
X27277
X27256Y63715
X27263Y64303
X28847Y63851
X28787Y62471
Y61941
Y61421
X27867
Y61941
Y62468
X29547Y61171
X35837Y60871
X37179Y60924
X36207Y62281
X35277Y59931
X35447Y56829
Y56459
Y56089
X36307Y56529
X36707Y56549
X36177Y56899
X36267Y55169
X37097Y55669
X34417Y55339
X34667Y53519
X35047Y53679
Y53349
X33077Y53299
X35442Y68406
X23967Y68791
X37792Y68789
X38137Y67751
X37877Y67441
X37787Y67061
X37837Y66491
X38787Y66501
X39077Y65331
X40457Y64871
X40017Y64371
X39097Y63421
X38237Y63931
X38567Y62501
X38567Y61291
X38847Y60791
X38267Y60781
X38009Y60304
X39107Y59701
X41209Y59792
X40909Y60492
X41209Y61192
X41909Y61492
X42609Y61192
X42909Y60492
X42609Y59792
X41909Y59492
Y57516
X41209Y57216
X40909Y56516
X41209Y55816
X41909Y55516
X42609Y55816
X42909Y56516
X42609Y57216
X39067Y53609
X37649Y53321
X40069Y62044
X40037Y67641
X39077Y68501
X38907Y69031
X39067Y69871
X38067Y70071
X38147Y70851
X39077Y71771
X39067Y73201
X39977Y74121
X39737Y75201
X39867Y76491
X39077Y76431
X38247Y76481
X37967Y75361
X38157Y74131
X40697Y76271
X40707Y77051
X40037Y77351
X39077Y78341
X39067Y79641
X38167Y80621
X37649Y81314
X39067Y81601
X41209Y83808
X41909Y83508
X42609Y83808
X42697Y79091
X42839Y76204
X40437Y71401
X39987Y70881
X40657Y70311
X40457Y69201
X35907Y69031
X35177Y70051
X34777Y70086
X32967Y69691
X32309Y71044
X31637Y71921
X31319Y72944
X33087Y73131
X33587
X34097
X34399Y73134
X34419Y73474
X32769Y73554
X32977Y74641
X33210Y75227
X33446Y75463
X33958
X33722Y75227
X34194
X34431Y75463
X35187Y75351
X35337Y74421
X35897Y74161
X36559Y74244
X37247Y74171
X36577Y76071
X35697Y76681
Y77681
Y78491
X36587Y78671
X36657Y79681
X36667Y80071
X36487Y80731
X36107
X35047Y81011
Y81341
Y81671
X34667Y81511
Y81061
X34952Y80061
X34687Y79311
X34697Y78681
X33697
X33897Y79451
X33457Y80061
X32859Y80864
X32259
X31669
X31090Y80862
X30697Y80861
X33077Y81291
X32697Y78681
X32567Y78151
X32557Y77441
X32547Y76721
X32777Y76250
Y75856
Y75463
X31170Y75988
X30977Y77061
X31747Y76951
X29949Y74024
X30255Y71582
X30217Y71141
X27557Y69491
X24257Y69921
X23017Y70011
X23049Y71164
X22657Y71851
X22819Y72294
X24617Y72201
X24727Y71781
Y71321
X25107Y73471
X23947Y74501
X24387Y75001
X23609Y75374
X23507Y75791
X23487Y76301
X23927Y77171
X22959Y77154
X22114Y76960
X25077Y76751
Y76301
X36697Y77681
X37569Y79434
X35377Y79271
X36267Y83161
X37097Y83661
X35447Y84081
Y84451
X34417Y83331
X36137Y71071
X36669Y71024
X37227Y71071
X36787Y71681
X19175Y70236
X18259Y70226
X14531Y70964
X13830Y70628
X14494Y72416
X14487Y72796
X13559Y73456
X14517Y75281
X14972Y74865
X15137Y75840
X11821Y75886
X12174Y77153
X10807Y77854
X11073Y78130
X10167Y77441
X8667Y76511
X8657Y74671
X9037Y74681
X10137Y74121
X10518Y74128
X10718Y72815
X10719Y72424
X10738Y71093
Y70709
X9397Y71321
Y71641
X8647Y72081
X7687Y72071
X7697Y71651
Y71331
X8167Y73871
X7697Y75111
X7417Y75831
X7647Y77471
X7047
X6717Y77911
X7219Y79132
X11239Y83314
X11539
X12239
X12847Y83011
X15239Y83314
X15539
X17839Y83004
Y82669
X19799Y78163
X19815Y77779
X6339Y78071
X6117Y78331
X6097Y79161
X5877Y80531
X5167Y79871
X5208Y83808
X4508Y83508
X3808Y83808
X4089Y76274
X3327Y71211
X3508Y84508
X3808Y85208
X4508Y85508
X5208Y85208
X5508Y84508
X35447Y84821
X36177Y84891
X36307Y84521
X36707Y84541
X40909Y84508
X41209Y85208
X41909Y85508
X42609Y85208
X42909Y84508
T03
X20437Y24387
X21437
Y25387
X20437
Y28137
Y29137
X21437
Y28137
X22437
Y29137
X23437
Y28137
X24437
Y29137
Y25387
Y24387
X23437
Y25387
X22437
Y24387
X27864Y24454
X28864
Y25454
X27864
Y26454
X28864
Y27454
X27864
Y28454
X28864
Y52446
X27864
X24437Y52379
X23437
X22437
X21437
X20437
Y53379
X21437
Y56129
X20437
Y57129
X21437
X22437
Y56129
X23437
Y57129
X24437
Y56129
Y53379
X23437
X22437
X27864Y53446
X28864
Y54446
X27864
Y55446
X28864
Y56446
X27864
Y80438
X28864
Y81438
X27864
Y82438
X28864
Y83438
X27864
Y84438
X28864
X24437Y84121
X23437
X22437
Y81371
X23437
X24437
Y80371
X23437
X22437
X21437
Y81371
X20437
Y80371
Y84121
X21437
Y85121
X20437
X22437
X23437
X24437
T04
X6365Y17394
X7155
Y18386
X6365
X8022Y22342
Y23342
X9022
Y22342
X10022
Y23342
X7155Y45386
X6365
Y46378
X7155
X8022Y50335
Y51335
X9022
Y50335
X10022
Y51335
X7155Y73378
X6365
Y74370
X7155
X8022Y78327
Y79327
X9022
Y78327
X10022
Y79327
T05
X7339Y3719
X8339
X9339
X10339
X12457
X13457
X14457
X15457
X17576
X18576
X19576
X20576
X22698Y3723
X23698
X24698
X25698
X42904Y6752
X28627Y14767
Y15767
Y16767
X28637Y18907
Y19907
Y20907
X26201Y20913
Y19913
Y17803
Y16803
Y14693
Y13693
X20576Y6475
X19576
X18576
X17576
X3624Y23697
Y25477
X7469Y26109
X8469
Y28519
X7469
X10679
X11679
X13859Y28524
X14859
X15859
X16859
X17576Y31711
X18576
X19576
X20576
Y34467
X19576
X18576
X17576
X15457Y31711
X14457
X13457
X12457
X10339
X9339
X8339
X7339
X22698Y31715
X23698
X24698
X25698
X38847Y28957
Y27957
X42904Y34744
X28627Y42759
Y43759
Y44759
X28637Y46899
Y47899
Y48899
X26201Y48906
Y47906
Y45795
Y44795
Y42685
Y41685
X3624Y51689
Y53469
X7469Y54102
X8469
Y56512
X7469
X10679
X11679
X13859Y56516
X14859
X15859
X16859
X17576Y59704
X18576
X19576
X20576
Y62460
X19576
X18576
X17576
X15457Y59704
X14457
X13457
X12457
X10339
X9339
X8339
X7339
X22698Y59708
X23698
X24698
X25698
X38847Y56949
Y55949
X42904Y62736
X38847Y83941
X28637Y76891
Y75891
Y74891
X28627Y72751
Y71751
Y70751
X26201Y70677
Y69677
Y72787
Y73787
Y75898
Y76898
X8469Y82094
X7469
X3624Y81461
Y79681
X7469Y84504
X8469
X10679
X11679
X13859Y84508
X14859
X15859
X16859
X38847Y84941
T06
X28807Y12127
X30807
Y40119
X28807
Y68111
X30807
T07
X4604Y23207
Y25967
Y51199
Y53959
Y79191
Y81951
T08
X32946Y3951
X34286
X35847Y3947
X37187
Y9247
X35847
X34286Y9251
X32946
X35897Y14077
X37237
Y19377
X35897
X35847Y31939
X37187
X34286Y31943
X32946
Y37243
X34286
X35847Y37239
X37187
X37237Y42069
X35897
Y47369
X37237
X37187Y59931
X35847
X34286Y59935
X32946
Y65235
X34286
X35847Y65231
X37187
X37237Y70061
X35897
Y75361
X37237
T09
X39067Y8392
Y11642
Y14892
Y18142
Y21392
Y24642
Y36384
Y39634
Y42884
Y46134
Y49384
Y52634
Y64376
Y67626
Y70876
Y74126
Y77376
Y80626
T10
X5295Y15524
Y20256
Y43516
Y48248
Y71508
Y76240
T11
X11389Y25019
X12389
X13389
X14389
X15389
X16389
X17389
Y26019
X16389
X15389
X14389
X13389
X12389
X11389
Y53011
X12389
X13389
X14389
X15389
X16389
X17389
Y54012
X16389
X15389
X14389
X13389
X12389
X11389
Y81004
X12389
X13389
X14389
X15389
X16389
X17389
Y82004
X16389
X15389
X14389
X13389
X12389
X11389
T12
X1329Y1329
X4508Y4508
X41909
X45108Y1329
X4508Y28524
Y32500
X41909
Y28524
X4508Y56516
Y60492
X41909
Y56516
X4508Y84508
X1329Y87687
X41909Y84508
X45108Y87687
M30
