G04*
G04 #@! TF.GenerationSoftware,Altium Limited,Altium Designer,19.1.8 (144)*
G04*
G04 Layer_Color=16711935*
%FSLAX24Y24*%
%MOIN*%
G70*
G01*
G75*
%ADD10C,0.0315*%
%ADD11C,0.0118*%
%ADD12C,0.0500*%
%ADD13C,0.0040*%
%ADD14C,0.0039*%
%ADD15C,0.0010*%
%ADD16C,0.0060*%
%ADD17R,0.0315X0.0138*%
D10*
X27150Y57210D02*
X33580D01*
Y51230D02*
Y57210D01*
X27150Y51230D02*
X33580D01*
X27150D02*
Y57210D01*
X35460Y53080D02*
X41500D01*
Y33410D02*
Y53080D01*
X35460Y33410D02*
X41500D01*
X35460D02*
Y53080D01*
X27020Y-500D02*
X33450D01*
Y-6480D02*
Y-500D01*
X27020Y-6480D02*
X33450D01*
X27020D02*
Y-500D01*
X35330Y-4630D02*
X41370D01*
Y-24300D02*
Y-4630D01*
X35330Y-24300D02*
X41370D01*
X35330D02*
Y-4630D01*
X27090Y28320D02*
X33520D01*
Y22340D02*
Y28320D01*
X27090Y22340D02*
X33520D01*
X27090D02*
Y28320D01*
X35400Y24190D02*
X41440D01*
Y4520D02*
Y24190D01*
X35400Y4520D02*
X41440D01*
X35400D02*
Y24190D01*
D11*
X32952Y56248D02*
Y55264D01*
Y55592D01*
X32296Y56248D01*
X32788Y55756D01*
X32296Y55264D01*
X31476D02*
X31804D01*
X31968Y55428D01*
Y55756D01*
X31804Y55920D01*
X31476D01*
X31312Y55756D01*
Y55592D01*
X31968D01*
X30492Y55264D02*
X30820D01*
X30984Y55428D01*
Y55756D01*
X30820Y55920D01*
X30492D01*
X30328Y55756D01*
Y55592D01*
X30984D01*
X30000Y54936D02*
Y55920D01*
X29508D01*
X29344Y55756D01*
Y55428D01*
X29508Y55264D01*
X30000D01*
X32952Y53472D02*
Y54456D01*
X32624Y54128D01*
X32296Y54456D01*
Y53472D01*
X31804Y54128D02*
X31476D01*
X31312Y53964D01*
Y53472D01*
X31804D01*
X31968Y53636D01*
X31804Y53800D01*
X31312D01*
X30984Y54128D02*
Y53472D01*
Y53800D01*
X30820Y53964D01*
X30656Y54128D01*
X30492D01*
X30000Y53472D02*
Y54456D01*
Y53800D02*
X29508Y54128D01*
X30000Y53800D02*
X29508Y53472D01*
X29016D02*
X28524D01*
X28360Y53636D01*
X28524Y53800D01*
X28852D01*
X29016Y53964D01*
X28852Y54128D01*
X28360D01*
X32460Y52992D02*
X32788D01*
X32952Y52828D01*
Y52172D01*
X32788Y52008D01*
X32460D01*
X32296Y52172D01*
Y52828D01*
X32460Y52992D01*
X31968Y52664D02*
Y52172D01*
X31804Y52008D01*
X31312D01*
Y52664D01*
X30820Y52828D02*
Y52664D01*
X30984D01*
X30656D01*
X30820D01*
Y52172D01*
X30656Y52008D01*
X40662Y-8042D02*
Y-9026D01*
Y-8698D01*
X40006Y-8042D01*
X40498Y-8534D01*
X40006Y-9026D01*
X39186D02*
X39514D01*
X39678Y-8862D01*
Y-8534D01*
X39514Y-8370D01*
X39186D01*
X39022Y-8534D01*
Y-8698D01*
X39678D01*
X38202Y-9026D02*
X38530D01*
X38694Y-8862D01*
Y-8534D01*
X38530Y-8370D01*
X38202D01*
X38038Y-8534D01*
Y-8698D01*
X38694D01*
X37710Y-9354D02*
Y-8370D01*
X37218D01*
X37054Y-8534D01*
Y-8862D01*
X37218Y-9026D01*
X37710D01*
X40662Y-10818D02*
Y-9834D01*
X40334Y-10162D01*
X40006Y-9834D01*
Y-10818D01*
X39514Y-10162D02*
X39186D01*
X39022Y-10326D01*
Y-10818D01*
X39514D01*
X39678Y-10654D01*
X39514Y-10490D01*
X39022D01*
X38694Y-10162D02*
Y-10818D01*
Y-10490D01*
X38530Y-10326D01*
X38366Y-10162D01*
X38202D01*
X37710Y-10818D02*
Y-9834D01*
Y-10490D02*
X37218Y-10162D01*
X37710Y-10490D02*
X37218Y-10818D01*
X36726D02*
X36234D01*
X36070Y-10654D01*
X36234Y-10490D01*
X36562D01*
X36726Y-10326D01*
X36562Y-10162D01*
X36070D01*
X40170Y-11298D02*
X40498D01*
X40662Y-11462D01*
Y-12118D01*
X40498Y-12282D01*
X40170D01*
X40006Y-12118D01*
Y-11462D01*
X40170Y-11298D01*
X39678Y-11626D02*
Y-12118D01*
X39514Y-12282D01*
X39022D01*
Y-11626D01*
X38530Y-11462D02*
Y-11626D01*
X38694D01*
X38366D01*
X38530D01*
Y-12118D01*
X38366Y-12282D01*
X32822Y-1462D02*
Y-2446D01*
Y-2118D01*
X32166Y-1462D01*
X32658Y-1954D01*
X32166Y-2446D01*
X31346D02*
X31674D01*
X31838Y-2282D01*
Y-1954D01*
X31674Y-1790D01*
X31346D01*
X31182Y-1954D01*
Y-2118D01*
X31838D01*
X30362Y-2446D02*
X30690D01*
X30854Y-2282D01*
Y-1954D01*
X30690Y-1790D01*
X30362D01*
X30198Y-1954D01*
Y-2118D01*
X30854D01*
X29870Y-2774D02*
Y-1790D01*
X29378D01*
X29214Y-1954D01*
Y-2282D01*
X29378Y-2446D01*
X29870D01*
X32822Y-4238D02*
Y-3254D01*
X32494Y-3582D01*
X32166Y-3254D01*
Y-4238D01*
X31674Y-3582D02*
X31346D01*
X31182Y-3746D01*
Y-4238D01*
X31674D01*
X31838Y-4074D01*
X31674Y-3910D01*
X31182D01*
X30854Y-3582D02*
Y-4238D01*
Y-3910D01*
X30690Y-3746D01*
X30526Y-3582D01*
X30362D01*
X29870Y-4238D02*
Y-3254D01*
Y-3910D02*
X29378Y-3582D01*
X29870Y-3910D02*
X29378Y-4238D01*
X28886D02*
X28394D01*
X28230Y-4074D01*
X28394Y-3910D01*
X28722D01*
X28886Y-3746D01*
X28722Y-3582D01*
X28230D01*
X32330Y-4718D02*
X32658D01*
X32822Y-4882D01*
Y-5538D01*
X32658Y-5702D01*
X32330D01*
X32166Y-5538D01*
Y-4882D01*
X32330Y-4718D01*
X31838Y-5046D02*
Y-5538D01*
X31674Y-5702D01*
X31182D01*
Y-5046D01*
X30690Y-4882D02*
Y-5046D01*
X30854D01*
X30526D01*
X30690D01*
Y-5538D01*
X30526Y-5702D01*
X40732Y20778D02*
Y19794D01*
Y20122D01*
X40076Y20778D01*
X40568Y20286D01*
X40076Y19794D01*
X39256D02*
X39584D01*
X39748Y19958D01*
Y20286D01*
X39584Y20450D01*
X39256D01*
X39092Y20286D01*
Y20122D01*
X39748D01*
X38272Y19794D02*
X38600D01*
X38764Y19958D01*
Y20286D01*
X38600Y20450D01*
X38272D01*
X38108Y20286D01*
Y20122D01*
X38764D01*
X37780Y19466D02*
Y20450D01*
X37288D01*
X37124Y20286D01*
Y19958D01*
X37288Y19794D01*
X37780D01*
X40732Y18002D02*
Y18986D01*
X40404Y18658D01*
X40076Y18986D01*
Y18002D01*
X39584Y18658D02*
X39256D01*
X39092Y18494D01*
Y18002D01*
X39584D01*
X39748Y18166D01*
X39584Y18330D01*
X39092D01*
X38764Y18658D02*
Y18002D01*
Y18330D01*
X38600Y18494D01*
X38436Y18658D01*
X38272D01*
X37780Y18002D02*
Y18986D01*
Y18330D02*
X37288Y18658D01*
X37780Y18330D02*
X37288Y18002D01*
X36796D02*
X36304D01*
X36140Y18166D01*
X36304Y18330D01*
X36632D01*
X36796Y18494D01*
X36632Y18658D01*
X36140D01*
X40240Y17522D02*
X40568D01*
X40732Y17358D01*
Y16702D01*
X40568Y16538D01*
X40240D01*
X40076Y16702D01*
Y17358D01*
X40240Y17522D01*
X39748Y17194D02*
Y16702D01*
X39584Y16538D01*
X39092D01*
Y17194D01*
X38600Y17358D02*
Y17194D01*
X38764D01*
X38436D01*
X38600D01*
Y16702D01*
X38436Y16538D01*
X32892Y27358D02*
Y26374D01*
Y26702D01*
X32236Y27358D01*
X32728Y26866D01*
X32236Y26374D01*
X31416D02*
X31744D01*
X31908Y26538D01*
Y26866D01*
X31744Y27030D01*
X31416D01*
X31252Y26866D01*
Y26702D01*
X31908D01*
X30432Y26374D02*
X30760D01*
X30924Y26538D01*
Y26866D01*
X30760Y27030D01*
X30432D01*
X30268Y26866D01*
Y26702D01*
X30924D01*
X29940Y26046D02*
Y27030D01*
X29448D01*
X29284Y26866D01*
Y26538D01*
X29448Y26374D01*
X29940D01*
X32892Y24582D02*
Y25566D01*
X32564Y25238D01*
X32236Y25566D01*
Y24582D01*
X31744Y25238D02*
X31416D01*
X31252Y25074D01*
Y24582D01*
X31744D01*
X31908Y24746D01*
X31744Y24910D01*
X31252D01*
X30924Y25238D02*
Y24582D01*
Y24910D01*
X30760Y25074D01*
X30596Y25238D01*
X30432D01*
X29940Y24582D02*
Y25566D01*
Y24910D02*
X29448Y25238D01*
X29940Y24910D02*
X29448Y24582D01*
X28956D02*
X28464D01*
X28300Y24746D01*
X28464Y24910D01*
X28792D01*
X28956Y25074D01*
X28792Y25238D01*
X28300D01*
X32400Y24102D02*
X32728D01*
X32892Y23938D01*
Y23282D01*
X32728Y23118D01*
X32400D01*
X32236Y23282D01*
Y23938D01*
X32400Y24102D01*
X31908Y23774D02*
Y23282D01*
X31744Y23118D01*
X31252D01*
Y23774D01*
X30760Y23938D02*
Y23774D01*
X30924D01*
X30596D01*
X30760D01*
Y23282D01*
X30596Y23118D01*
X40792Y49668D02*
Y48684D01*
Y49012D01*
X40136Y49668D01*
X40628Y49176D01*
X40136Y48684D01*
X39316D02*
X39644D01*
X39808Y48848D01*
Y49176D01*
X39644Y49340D01*
X39316D01*
X39152Y49176D01*
Y49012D01*
X39808D01*
X38332Y48684D02*
X38660D01*
X38824Y48848D01*
Y49176D01*
X38660Y49340D01*
X38332D01*
X38168Y49176D01*
Y49012D01*
X38824D01*
X37840Y48356D02*
Y49340D01*
X37348D01*
X37184Y49176D01*
Y48848D01*
X37348Y48684D01*
X37840D01*
X40792Y46892D02*
Y47876D01*
X40464Y47548D01*
X40136Y47876D01*
Y46892D01*
X39644Y47548D02*
X39316D01*
X39152Y47384D01*
Y46892D01*
X39644D01*
X39808Y47056D01*
X39644Y47220D01*
X39152D01*
X38824Y47548D02*
Y46892D01*
Y47220D01*
X38660Y47384D01*
X38496Y47548D01*
X38332D01*
X37840Y46892D02*
Y47876D01*
Y47220D02*
X37348Y47548D01*
X37840Y47220D02*
X37348Y46892D01*
X36856D02*
X36364D01*
X36200Y47056D01*
X36364Y47220D01*
X36692D01*
X36856Y47384D01*
X36692Y47548D01*
X36200D01*
X40300Y46412D02*
X40628D01*
X40792Y46248D01*
Y45592D01*
X40628Y45428D01*
X40300D01*
X40136Y45592D01*
Y46248D01*
X40300Y46412D01*
X39808Y46084D02*
Y45592D01*
X39644Y45428D01*
X39152D01*
Y46084D01*
X38660Y46248D02*
Y46084D01*
X38824D01*
X38496D01*
X38660D01*
Y45592D01*
X38496Y45428D01*
D12*
X8949Y-9595D02*
G03*
X8849Y-9595I-50J0D01*
G01*
Y-9795D02*
G03*
X8949Y-9795I50J0D01*
G01*
X39431Y-24352D02*
G03*
X39531Y-24352I50J0D01*
G01*
Y-24152D02*
G03*
X39431Y-24152I-50J0D01*
G01*
X3619Y-3856D02*
G03*
X3519Y-3856I-50J0D01*
G01*
Y-4056D02*
G03*
X3619Y-4056I50J0D01*
G01*
X3799Y-27466D02*
G03*
X3699Y-27466I-50J0D01*
G01*
Y-27666D02*
G03*
X3799Y-27666I50J0D01*
G01*
X39539Y-4516D02*
G03*
X39439Y-4516I-50J0D01*
G01*
Y-4716D02*
G03*
X39539Y-4716I50J0D01*
G01*
X8949Y19185D02*
G03*
X8849Y19185I-50J0D01*
G01*
Y18985D02*
G03*
X8949Y18985I50J0D01*
G01*
X39431Y4427D02*
G03*
X39531Y4427I50J0D01*
G01*
Y4627D02*
G03*
X39431Y4627I-50J0D01*
G01*
X3619Y24923D02*
G03*
X3519Y24923I-50J0D01*
G01*
Y24723D02*
G03*
X3619Y24723I50J0D01*
G01*
X3799Y1313D02*
G03*
X3699Y1313I-50J0D01*
G01*
Y1113D02*
G03*
X3799Y1113I50J0D01*
G01*
X39539Y24263D02*
G03*
X39439Y24263I-50J0D01*
G01*
Y24063D02*
G03*
X39539Y24063I50J0D01*
G01*
X8949Y47964D02*
G03*
X8849Y47964I-50J0D01*
G01*
Y47764D02*
G03*
X8949Y47764I50J0D01*
G01*
X39431Y33207D02*
G03*
X39531Y33207I50J0D01*
G01*
Y33407D02*
G03*
X39431Y33407I-50J0D01*
G01*
X3619Y53703D02*
G03*
X3519Y53703I-50J0D01*
G01*
Y53503D02*
G03*
X3619Y53503I50J0D01*
G01*
X3799Y30093D02*
G03*
X3699Y30093I-50J0D01*
G01*
Y29893D02*
G03*
X3799Y29893I50J0D01*
G01*
X39539Y53043D02*
G03*
X39439Y53043I-50J0D01*
G01*
Y52843D02*
G03*
X39539Y52843I50J0D01*
G01*
D13*
X17030Y-11457D02*
Y-11103D01*
Y-10925D02*
Y-10571D01*
Y-9912D02*
Y-9557D01*
Y17323D02*
Y17677D01*
Y17854D02*
Y18208D01*
Y18868D02*
Y19222D01*
Y46102D02*
Y46456D01*
Y46634D02*
Y46988D01*
Y47647D02*
Y48002D01*
D14*
X17306Y-11457D02*
Y-11103D01*
Y-10925D02*
Y-10571D01*
Y-9912D02*
Y-9557D01*
Y17323D02*
Y17677D01*
Y17854D02*
Y18208D01*
Y18868D02*
Y19222D01*
Y46102D02*
Y46456D01*
Y46634D02*
Y46988D01*
Y47647D02*
Y48002D01*
D15*
X22017Y-14189D02*
X22517D01*
X22267Y-14439D02*
Y-13939D01*
X22017Y-11189D02*
X22517D01*
X22267Y-11439D02*
Y-10939D01*
X12583Y-15363D02*
X13083D01*
X12833Y-15613D02*
Y-15113D01*
X28237Y-26759D02*
Y-26259D01*
X27987Y-26509D02*
X28487D01*
X35267Y-24439D02*
Y-23939D01*
X35017Y-24189D02*
X35517D01*
X33017D02*
X33517D01*
X33267Y-24439D02*
Y-23939D01*
X31267Y-24439D02*
Y-23939D01*
X31017Y-24189D02*
X31517D01*
X15017Y-1189D02*
X15517D01*
X15267Y-1439D02*
Y-939D01*
X3267Y-13439D02*
Y-12939D01*
X3017Y-13189D02*
X3517D01*
X4017Y-14189D02*
X4517D01*
X4267Y-14439D02*
Y-13939D01*
X7267Y-9439D02*
Y-8939D01*
X7017Y-9189D02*
X7517D01*
X4017Y-8189D02*
X4517D01*
X4267Y-8439D02*
Y-7939D01*
X6267Y-9439D02*
Y-8939D01*
X6017Y-9189D02*
X6517D01*
X7017Y-10189D02*
X7517D01*
X7267Y-10439D02*
Y-9939D01*
X10277Y-3439D02*
Y-2939D01*
X10027Y-3189D02*
X10527D01*
X7017Y-4189D02*
X7517D01*
X7267Y-4439D02*
Y-3939D01*
X13267Y-9439D02*
Y-8939D01*
X13017Y-9189D02*
X13517D01*
X18017Y-7189D02*
X18517D01*
X18267Y-7439D02*
Y-6939D01*
X11267Y-9439D02*
Y-8939D01*
X11017Y-9189D02*
X11517D01*
X22017Y14591D02*
X22517D01*
X22267Y14341D02*
Y14841D01*
X22017Y17591D02*
X22517D01*
X22267Y17341D02*
Y17841D01*
X12583Y13417D02*
X13083D01*
X12833Y13167D02*
Y13667D01*
X28237Y2021D02*
Y2521D01*
X27987Y2271D02*
X28487D01*
X35267Y4341D02*
Y4841D01*
X35017Y4591D02*
X35517D01*
X33017D02*
X33517D01*
X33267Y4341D02*
Y4841D01*
X31267Y4341D02*
Y4841D01*
X31017Y4591D02*
X31517D01*
X15017Y27591D02*
X15517D01*
X15267Y27341D02*
Y27841D01*
X3267Y15341D02*
Y15841D01*
X3017Y15591D02*
X3517D01*
X4017Y14591D02*
X4517D01*
X4267Y14341D02*
Y14841D01*
X7267Y19341D02*
Y19841D01*
X7017Y19591D02*
X7517D01*
X4017Y20591D02*
X4517D01*
X4267Y20341D02*
Y20841D01*
X6267Y19341D02*
Y19841D01*
X6017Y19591D02*
X6517D01*
X7017Y18591D02*
X7517D01*
X7267Y18341D02*
Y18841D01*
X10277Y25341D02*
Y25841D01*
X10027Y25591D02*
X10527D01*
X7017Y24591D02*
X7517D01*
X7267Y24341D02*
Y24841D01*
X13267Y19341D02*
Y19841D01*
X13017Y19591D02*
X13517D01*
X18017Y21591D02*
X18517D01*
X18267Y21341D02*
Y21841D01*
X11267Y19341D02*
Y19841D01*
X11017Y19591D02*
X11517D01*
X22017Y43370D02*
X22517D01*
X22267Y43120D02*
Y43620D01*
X22017Y46370D02*
X22517D01*
X22267Y46120D02*
Y46620D01*
X12583Y42197D02*
X13083D01*
X12833Y41947D02*
Y42447D01*
X28237Y30800D02*
Y31300D01*
X27987Y31050D02*
X28487D01*
X35267Y33120D02*
Y33620D01*
X35017Y33370D02*
X35517D01*
X33017D02*
X33517D01*
X33267Y33120D02*
Y33620D01*
X31267Y33120D02*
Y33620D01*
X31017Y33370D02*
X31517D01*
X15017Y56370D02*
X15517D01*
X15267Y56120D02*
Y56620D01*
X3267Y44120D02*
Y44620D01*
X3017Y44370D02*
X3517D01*
X4017Y43370D02*
X4517D01*
X4267Y43120D02*
Y43620D01*
X7267Y48120D02*
Y48620D01*
X7017Y48370D02*
X7517D01*
X4017Y49370D02*
X4517D01*
X4267Y49120D02*
Y49620D01*
X6267Y48120D02*
Y48620D01*
X6017Y48370D02*
X6517D01*
X7017Y47370D02*
X7517D01*
X7267Y47120D02*
Y47620D01*
X10277Y54120D02*
Y54620D01*
X10027Y54370D02*
X10527D01*
X7017Y53370D02*
X7517D01*
X7267Y53120D02*
Y53620D01*
X13267Y48120D02*
Y48620D01*
X13017Y48370D02*
X13517D01*
X18017Y50370D02*
X18517D01*
X18267Y50120D02*
Y50620D01*
X11267Y48120D02*
Y48620D01*
X11017Y48370D02*
X11517D01*
D16*
X8899Y-10295D02*
Y-10095D01*
Y-9295D02*
Y-9095D01*
X39481Y-23852D02*
Y-23652D01*
Y-24852D02*
Y-24652D01*
X3569Y-4556D02*
Y-4356D01*
Y-3556D02*
Y-3356D01*
X3749Y-28166D02*
Y-27966D01*
Y-27166D02*
Y-26966D01*
X39489Y-5216D02*
Y-5016D01*
Y-4216D02*
Y-4016D01*
X8899Y18485D02*
Y18685D01*
Y19485D02*
Y19685D01*
X39481Y4927D02*
Y5127D01*
Y3927D02*
Y4127D01*
X3569Y24223D02*
Y24423D01*
Y25223D02*
Y25423D01*
X3749Y613D02*
Y813D01*
Y1613D02*
Y1813D01*
X39489Y23563D02*
Y23763D01*
Y24563D02*
Y24763D01*
X8899Y47264D02*
Y47464D01*
Y48264D02*
Y48464D01*
X39481Y33707D02*
Y33907D01*
Y32707D02*
Y32907D01*
X3569Y53003D02*
Y53203D01*
Y54003D02*
Y54203D01*
X3749Y29393D02*
Y29593D01*
Y30393D02*
Y30593D01*
X39489Y52343D02*
Y52543D01*
Y53343D02*
Y53543D01*
D17*
X17168Y-11034D02*
D03*
Y-11526D02*
D03*
X17168Y-10502D02*
D03*
Y-10994D02*
D03*
X17168Y-9489D02*
D03*
Y-9981D02*
D03*
X17168Y17746D02*
D03*
Y17254D02*
D03*
X17168Y18277D02*
D03*
Y17785D02*
D03*
X17168Y19291D02*
D03*
Y18799D02*
D03*
X17168Y46525D02*
D03*
Y46033D02*
D03*
X17168Y47057D02*
D03*
Y46565D02*
D03*
X17168Y48071D02*
D03*
Y47578D02*
D03*
M02*
