G04*
G04 #@! TF.GenerationSoftware,Altium Limited,Altium Designer,18.1.9 (240)*
G04*
G04 Layer_Color=128*
%FSLAX24Y24*%
%MOIN*%
G70*
G01*
G75*
G04:AMPARAMS|DCode=16|XSize=78.7mil|YSize=78.7mil|CornerRadius=39.4mil|HoleSize=0mil|Usage=FLASHONLY|Rotation=90.000|XOffset=0mil|YOffset=0mil|HoleType=Round|Shape=RoundedRectangle|*
%AMROUNDEDRECTD16*
21,1,0.0787,0.0000,0,0,90.0*
21,1,0.0000,0.0787,0,0,90.0*
1,1,0.0787,0.0000,0.0000*
1,1,0.0787,0.0000,0.0000*
1,1,0.0787,0.0000,0.0000*
1,1,0.0787,0.0000,0.0000*
%
%ADD16ROUNDEDRECTD16*%
G04:AMPARAMS|DCode=37|XSize=27.1mil|YSize=37.4mil|CornerRadius=4.8mil|HoleSize=0mil|Usage=FLASHONLY|Rotation=90.000|XOffset=0mil|YOffset=0mil|HoleType=Round|Shape=RoundedRectangle|*
%AMROUNDEDRECTD37*
21,1,0.0271,0.0277,0,0,90.0*
21,1,0.0175,0.0374,0,0,90.0*
1,1,0.0097,0.0139,0.0087*
1,1,0.0097,0.0139,-0.0087*
1,1,0.0097,-0.0139,-0.0087*
1,1,0.0097,-0.0139,0.0087*
%
%ADD37ROUNDEDRECTD37*%
G04:AMPARAMS|DCode=69|XSize=48mil|YSize=48mil|CornerRadius=24mil|HoleSize=0mil|Usage=FLASHONLY|Rotation=180.000|XOffset=0mil|YOffset=0mil|HoleType=Round|Shape=RoundedRectangle|*
%AMROUNDEDRECTD69*
21,1,0.0480,0.0000,0,0,180.0*
21,1,0.0000,0.0480,0,0,180.0*
1,1,0.0480,0.0000,0.0000*
1,1,0.0480,0.0000,0.0000*
1,1,0.0480,0.0000,0.0000*
1,1,0.0480,0.0000,0.0000*
%
%ADD69ROUNDEDRECTD69*%
%ADD70R,0.1181X0.0220*%
%ADD71R,0.0472X0.0315*%
G04:AMPARAMS|DCode=72|XSize=44mil|YSize=61mil|CornerRadius=10.5mil|HoleSize=0mil|Usage=FLASHONLY|Rotation=90.000|XOffset=0mil|YOffset=0mil|HoleType=Round|Shape=RoundedRectangle|*
%AMROUNDEDRECTD72*
21,1,0.0440,0.0400,0,0,90.0*
21,1,0.0230,0.0610,0,0,90.0*
1,1,0.0210,0.0200,0.0115*
1,1,0.0210,0.0200,-0.0115*
1,1,0.0210,-0.0200,-0.0115*
1,1,0.0210,-0.0200,0.0115*
%
%ADD72ROUNDEDRECTD72*%
G36*
X14506Y80293D02*
X14817Y79982D01*
X14817Y79616D01*
X13506Y79616D01*
X13506Y79982D01*
X13817Y80293D01*
X14506Y80293D01*
D02*
G37*
G36*
X14817Y73828D02*
X14817Y73462D01*
X14506Y73151D01*
X13817Y73151D01*
X13506Y73462D01*
X13506Y73828D01*
X14817Y73828D01*
D02*
G37*
G36*
X14506Y52301D02*
X14817Y51990D01*
X14817Y51624D01*
X13506Y51624D01*
X13506Y51990D01*
X13817Y52301D01*
X14506Y52301D01*
D02*
G37*
G36*
X14817Y45836D02*
X14817Y45470D01*
X14506Y45159D01*
X13817Y45159D01*
X13506Y45470D01*
X13506Y45836D01*
X14817Y45836D01*
D02*
G37*
G36*
X14506Y24309D02*
X14817Y23998D01*
X14817Y23632D01*
X13506Y23632D01*
X13506Y23998D01*
X13817Y24309D01*
X14506Y24309D01*
D02*
G37*
G36*
X14817Y17844D02*
X14817Y17478D01*
X14506Y17167D01*
X13817Y17167D01*
X13506Y17478D01*
X13506Y17844D01*
X14817Y17844D01*
D02*
G37*
G54D16*
X42528Y87726D02*
D03*
Y1328D02*
D03*
X3789Y1289D02*
D03*
G54D37*
X19598Y19874D02*
D03*
Y19338D02*
D03*
Y20405D02*
D03*
Y19870D02*
D03*
Y21419D02*
D03*
Y20884D02*
D03*
Y47866D02*
D03*
Y47330D02*
D03*
Y48397D02*
D03*
Y47862D02*
D03*
Y49411D02*
D03*
Y48876D02*
D03*
Y75858D02*
D03*
Y75323D02*
D03*
Y76389D02*
D03*
Y75854D02*
D03*
Y77403D02*
D03*
Y76868D02*
D03*
G54D69*
X24697Y16697D02*
D03*
Y19697D02*
D03*
Y44689D02*
D03*
Y47689D02*
D03*
Y72681D02*
D03*
Y75681D02*
D03*
G54D70*
X18230Y19734D02*
D03*
Y20136D02*
D03*
Y22143D02*
D03*
Y21742D02*
D03*
Y21340D02*
D03*
Y20939D02*
D03*
Y20537D02*
D03*
Y19332D02*
D03*
Y47726D02*
D03*
Y48128D02*
D03*
Y50136D02*
D03*
Y49734D02*
D03*
Y49332D02*
D03*
Y48931D02*
D03*
Y48529D02*
D03*
Y47324D02*
D03*
Y75718D02*
D03*
Y76120D02*
D03*
Y78128D02*
D03*
Y77726D02*
D03*
Y77324D02*
D03*
Y76923D02*
D03*
Y76521D02*
D03*
Y75317D02*
D03*
G54D71*
X3119Y20735D02*
D03*
Y21464D02*
D03*
X4139D02*
D03*
Y20735D02*
D03*
X3119Y48727D02*
D03*
Y49456D02*
D03*
X4139D02*
D03*
Y48727D02*
D03*
X3119Y76719D02*
D03*
Y77448D02*
D03*
X4139D02*
D03*
Y76719D02*
D03*
G54D72*
X41911Y6334D02*
D03*
Y6934D02*
D03*
X5999Y27229D02*
D03*
Y26629D02*
D03*
X6179Y3619D02*
D03*
Y3019D02*
D03*
X41919Y26569D02*
D03*
Y25969D02*
D03*
X41911Y34326D02*
D03*
Y34926D02*
D03*
X5999Y55222D02*
D03*
Y54622D02*
D03*
X6179Y31611D02*
D03*
Y31012D02*
D03*
X41919Y54562D02*
D03*
Y53962D02*
D03*
X41911Y62318D02*
D03*
Y62918D02*
D03*
X5999Y83214D02*
D03*
Y82614D02*
D03*
X6179Y59604D02*
D03*
Y59004D02*
D03*
X41919Y82554D02*
D03*
Y81954D02*
D03*
M02*
