G04*
G04 #@! TF.GenerationSoftware,Altium Limited,Altium Designer,21.0.8 (223)*
G04*
G04 Layer_Physical_Order=2*
G04 Layer_Color=32768*
%FSLAX24Y24*%
%MOIN*%
G70*
G04*
G04 #@! TF.SameCoordinates,0398FE80-09BB-4AEC-B5AE-9C75AE321684*
G04*
G04*
G04 #@! TF.FilePolarity,Negative*
G04*
G01*
G75*
%ADD12C,0.0100*%
%ADD44C,0.0600*%
%ADD81C,0.0200*%
%ADD136C,0.0300*%
%ADD139C,0.1581*%
%ADD140C,0.0704*%
%ADD141C,0.0554*%
%ADD142C,0.0750*%
%ADD143C,0.0830*%
%ADD144C,0.0580*%
G04:AMPARAMS|DCode=145|XSize=86mil|YSize=86mil|CornerRadius=0mil|HoleSize=0mil|Usage=FLASHONLY|Rotation=0.000|XOffset=0mil|YOffset=0mil|HoleType=Round|Shape=Relief|Width=8mil|Gap=12mil|Entries=4|*
%AMTHD145*
7,0,0,0.0860,0.0620,0.0080,45*
%
%ADD145THD145*%
%ADD146C,0.1070*%
G04:AMPARAMS|DCode=147|XSize=88mil|YSize=88mil|CornerRadius=0mil|HoleSize=0mil|Usage=FLASHONLY|Rotation=0.000|XOffset=0mil|YOffset=0mil|HoleType=Round|Shape=Relief|Width=8mil|Gap=12mil|Entries=4|*
%AMTHD147*
7,0,0,0.0880,0.0640,0.0080,45*
%
%ADD147THD147*%
%ADD148C,0.0790*%
%ADD149C,0.0350*%
%ADD150C,0.1381*%
%ADD151C,0.0960*%
G04:AMPARAMS|DCode=152|XSize=123.984mil|YSize=123.984mil|CornerRadius=0mil|HoleSize=0mil|Usage=FLASHONLY|Rotation=0.000|XOffset=0mil|YOffset=0mil|HoleType=Round|Shape=Relief|Width=8mil|Gap=12mil|Entries=4|*
%AMTHD152*
7,0,0,0.1240,0.1000,0.0080,45*
%
%ADD152THD152*%
G54D12*
X3898Y63342D02*
Y62743D01*
X4298D01*
X4598Y63142D02*
X4798D01*
X4898Y63042D01*
Y62743D01*
X4598D01*
X4498Y62842D01*
X4598Y62942D01*
X4898D01*
X5098Y63142D02*
Y62842D01*
X5198Y62743D01*
X5498D01*
Y62643D01*
X5398Y62543D01*
X5298D01*
X5498Y62743D02*
Y63142D01*
X5998Y62743D02*
X5798D01*
X5698Y62842D01*
Y63042D01*
X5798Y63142D01*
X5998D01*
X6098Y63042D01*
Y62942D01*
X5698D01*
X6298Y63142D02*
Y62743D01*
Y62942D01*
X6398Y63042D01*
X6497Y63142D01*
X6597D01*
X7897Y62743D02*
X7497D01*
X7897Y63142D01*
Y63242D01*
X7797Y63342D01*
X7597D01*
X7497Y63242D01*
X4298Y64442D02*
X4198Y64542D01*
X3998D01*
X3898Y64442D01*
Y64042D01*
X3998Y63943D01*
X4198D01*
X4298Y64042D01*
Y64242D01*
X4098D01*
X4498Y63943D02*
Y64542D01*
X4898Y63943D01*
Y64542D01*
X5098D02*
Y63943D01*
X5398D01*
X5498Y64042D01*
Y64442D01*
X5398Y64542D01*
X5098D01*
X6298Y63943D02*
Y64542D01*
X6597D01*
X6697Y64442D01*
Y64242D01*
X6597Y64142D01*
X6298D01*
X6897Y63943D02*
X7097D01*
X6997D01*
Y64542D01*
X6897D01*
X7497Y64342D02*
X7697D01*
X7797Y64242D01*
Y63943D01*
X7497D01*
X7397Y64042D01*
X7497Y64142D01*
X7797D01*
X7997Y63943D02*
Y64342D01*
X8297D01*
X8397Y64242D01*
Y63943D01*
X8897D02*
X8697D01*
X8597Y64042D01*
Y64242D01*
X8697Y64342D01*
X8897D01*
X8997Y64242D01*
Y64142D01*
X8597D01*
X4298Y65742D02*
X3898D01*
Y65143D01*
X4298D01*
X3898Y65442D02*
X4098D01*
X4498Y65143D02*
X4698D01*
X4598D01*
Y65542D01*
X4498D01*
X4998Y65143D02*
Y65542D01*
X5298D01*
X5398Y65442D01*
Y65143D01*
X5598D02*
X5898D01*
X5998Y65242D01*
X5898Y65342D01*
X5698D01*
X5598Y65442D01*
X5698Y65542D01*
X5998D01*
X6198D02*
Y65242D01*
X6298Y65143D01*
X6597D01*
Y65043D01*
X6497Y64943D01*
X6398D01*
X6597Y65143D02*
Y65542D01*
X7397Y65143D02*
X7597D01*
X7497D01*
Y65742D01*
X7397Y65642D01*
X7897Y65143D02*
Y65242D01*
X7997D01*
Y65143D01*
X7897D01*
X8797D02*
X8397D01*
X8797Y65542D01*
Y65642D01*
X8697Y65742D01*
X8497D01*
X8397Y65642D01*
X9397Y65542D02*
X9097D01*
X8997Y65442D01*
Y65242D01*
X9097Y65143D01*
X9397D01*
X109Y-9789D02*
X3819D01*
Y-8136D01*
X5067Y-6889D01*
X10227Y-13315D02*
Y-8474D01*
Y-13315D02*
X10739Y-13826D01*
Y-16336D02*
Y-13826D01*
X10549Y-16526D02*
X10739Y-16336D01*
X345Y-16526D02*
X10549D01*
X8167Y-8474D02*
X10227D01*
X8167D02*
Y-7269D01*
X7787Y-6889D02*
X8167Y-7269D01*
X5067Y-6889D02*
X7787D01*
X109Y-16762D02*
X345Y-16526D01*
X109Y18991D02*
X3819D01*
Y20643D01*
X5067Y21891D01*
X10227Y15465D02*
Y20305D01*
Y15465D02*
X10739Y14953D01*
Y12443D02*
Y14953D01*
X10549Y12253D02*
X10739Y12443D01*
X345Y12253D02*
X10549D01*
X8167Y20305D02*
X10227D01*
X8167D02*
Y21511D01*
X7787Y21891D02*
X8167Y21511D01*
X5067Y21891D02*
X7787D01*
X109Y12018D02*
X345Y12253D01*
X109Y47770D02*
X3819D01*
Y49423D01*
X5067Y50670D01*
X10227Y44244D02*
Y49085D01*
Y44244D02*
X10739Y43733D01*
Y41223D02*
Y43733D01*
X10549Y41033D02*
X10739Y41223D01*
X345Y41033D02*
X10549D01*
X8167Y49085D02*
X10227D01*
X8167D02*
Y50290D01*
X7787Y50670D02*
X8167Y50290D01*
X5067Y50670D02*
X7787D01*
X109Y40797D02*
X345Y41033D01*
G54D44*
X1194Y-5409D02*
D03*
X26197Y-16119D02*
D03*
Y-15119D02*
D03*
Y-14119D02*
D03*
X8249Y-2366D02*
D03*
X14429Y-2362D02*
D03*
X13429D02*
D03*
X12429D02*
D03*
X11429D02*
D03*
X40474Y-24134D02*
D03*
X4909Y-27166D02*
D03*
X5909D02*
D03*
X6909D02*
D03*
X7909D02*
D03*
X10027D02*
D03*
X11027D02*
D03*
X12027D02*
D03*
X13027D02*
D03*
X15146Y-24411D02*
D03*
X16146D02*
D03*
X17146D02*
D03*
X18146D02*
D03*
X15146Y-27166D02*
D03*
X16146D02*
D03*
X17146D02*
D03*
X18146D02*
D03*
X20268Y-27163D02*
D03*
X21268D02*
D03*
X22268D02*
D03*
X23268D02*
D03*
X23771Y-10972D02*
D03*
Y-9972D02*
D03*
Y-14083D02*
D03*
Y-13083D02*
D03*
Y-17193D02*
D03*
Y-16193D02*
D03*
X6039Y-4776D02*
D03*
X5039Y-2366D02*
D03*
X36417Y-2929D02*
D03*
Y-1929D02*
D03*
X26207Y-9979D02*
D03*
Y-10979D02*
D03*
Y-11979D02*
D03*
X1194Y23370D02*
D03*
X26197Y12661D02*
D03*
Y13661D02*
D03*
Y14661D02*
D03*
X8249Y26413D02*
D03*
X14429Y26417D02*
D03*
X13429D02*
D03*
X12429D02*
D03*
X11429D02*
D03*
X40474Y4646D02*
D03*
X4909Y1613D02*
D03*
X5909D02*
D03*
X6909D02*
D03*
X7909D02*
D03*
X10027D02*
D03*
X11027D02*
D03*
X12027D02*
D03*
X13027D02*
D03*
X15146Y4369D02*
D03*
X16146D02*
D03*
X17146D02*
D03*
X18146D02*
D03*
X15146Y1613D02*
D03*
X16146D02*
D03*
X17146D02*
D03*
X18146D02*
D03*
X20268Y1617D02*
D03*
X21268D02*
D03*
X22268D02*
D03*
X23268D02*
D03*
X23771Y17807D02*
D03*
Y18807D02*
D03*
Y14697D02*
D03*
Y15697D02*
D03*
Y11587D02*
D03*
Y12587D02*
D03*
X6039Y24003D02*
D03*
X5039Y26413D02*
D03*
X36417Y25851D02*
D03*
Y26851D02*
D03*
X26207Y18801D02*
D03*
Y17801D02*
D03*
Y16801D02*
D03*
X1194Y52150D02*
D03*
X26197Y41440D02*
D03*
Y42440D02*
D03*
Y43440D02*
D03*
X8249Y55193D02*
D03*
X14429Y55197D02*
D03*
X13429D02*
D03*
X12429D02*
D03*
X11429D02*
D03*
X40474Y33425D02*
D03*
X4909Y30393D02*
D03*
X5909D02*
D03*
X6909D02*
D03*
X7909D02*
D03*
X10027D02*
D03*
X11027D02*
D03*
X12027D02*
D03*
X13027D02*
D03*
X15146Y33149D02*
D03*
X16146D02*
D03*
X17146D02*
D03*
X18146D02*
D03*
X15146Y30393D02*
D03*
X16146D02*
D03*
X17146D02*
D03*
X18146D02*
D03*
X20268Y30397D02*
D03*
X21268D02*
D03*
X22268D02*
D03*
X23268D02*
D03*
X23771Y46587D02*
D03*
Y47587D02*
D03*
Y43476D02*
D03*
Y44476D02*
D03*
Y40366D02*
D03*
Y41366D02*
D03*
X6039Y52783D02*
D03*
X5039Y55193D02*
D03*
X36417Y54630D02*
D03*
Y55630D02*
D03*
X26207Y47580D02*
D03*
Y46580D02*
D03*
Y45580D02*
D03*
G54D81*
X-2430Y59705D02*
X43570D01*
X43570Y-30886D02*
X43570Y59705D01*
X-2430Y-30886D02*
X43570D01*
X-2430D02*
Y59705D01*
X109Y-28346D02*
Y-394D01*
X41448D01*
Y-28346D02*
Y-394D01*
X109Y-28346D02*
X41448D01*
X109Y433D02*
Y28386D01*
X41448D01*
Y433D02*
Y28386D01*
X109Y433D02*
X41448D01*
X109Y29213D02*
Y57165D01*
X41448D01*
Y29213D02*
Y57165D01*
X109Y29213D02*
X41448D01*
G54D136*
X20615Y-9939D02*
D03*
X20507Y-9520D02*
D03*
X20301Y-9231D02*
D03*
X18755Y-9512D02*
D03*
X20896Y-9411D02*
D03*
X19203Y-8729D02*
D03*
X18484Y-8840D02*
D03*
X18600Y-8348D02*
D03*
X19160D02*
D03*
X20365Y-8068D02*
D03*
X21064Y-8088D02*
D03*
X18130Y-8878D02*
D03*
X18107Y-8348D02*
D03*
X22648Y-9193D02*
D03*
X971Y-23546D02*
D03*
X1087Y-23819D02*
D03*
X1378Y-22547D02*
D03*
X31928Y-10061D02*
D03*
X32328D02*
D03*
Y-9661D02*
D03*
X31928D02*
D03*
Y-9261D02*
D03*
X32328D02*
D03*
Y-8861D02*
D03*
X31928D02*
D03*
X31128D02*
D03*
X30728D02*
D03*
Y-9261D02*
D03*
X31128D02*
D03*
Y-9661D02*
D03*
X30728D02*
D03*
Y-10061D02*
D03*
X31128D02*
D03*
X31528D02*
D03*
Y-9661D02*
D03*
Y-8861D02*
D03*
Y-9261D02*
D03*
X28275Y-22872D02*
D03*
Y-22472D02*
D03*
X27875D02*
D03*
Y-22872D02*
D03*
X27475D02*
D03*
Y-22472D02*
D03*
X27075D02*
D03*
Y-22872D02*
D03*
Y-23672D02*
D03*
Y-24072D02*
D03*
X27475D02*
D03*
Y-23672D02*
D03*
X27875D02*
D03*
Y-24072D02*
D03*
X28275D02*
D03*
Y-23672D02*
D03*
Y-23272D02*
D03*
X27875D02*
D03*
X27075D02*
D03*
X27475D02*
D03*
X28629Y-13607D02*
D03*
X28159Y-13166D02*
D03*
X30209Y-14296D02*
D03*
X27959Y-13156D02*
D03*
X13857Y-11701D02*
D03*
X12660Y-15803D02*
D03*
X12971Y-13296D02*
D03*
X12845Y-8989D02*
D03*
X12306Y-10259D02*
D03*
X12833Y-9319D02*
D03*
X10782Y-8118D02*
D03*
X11937Y-8624D02*
D03*
X12408Y-14477D02*
D03*
X12672Y-14922D02*
D03*
X12975Y-14819D02*
D03*
X18263Y-17894D02*
D03*
X16900Y-17859D02*
D03*
X13558Y-8611D02*
D03*
X12609Y-9323D02*
D03*
X16784Y-10483D02*
D03*
X11696Y-8482D02*
D03*
X12700Y-7264D02*
D03*
X13550Y-7634D02*
D03*
X13067Y-7661D02*
D03*
X13341Y-7205D02*
D03*
X13530Y-8111D02*
D03*
X12467Y-4331D02*
D03*
X9455Y-6303D02*
D03*
Y-5366D02*
D03*
X14337Y-11689D02*
D03*
X14345Y-12189D02*
D03*
X13869D02*
D03*
X14921Y-12166D02*
D03*
X20440Y-12284D02*
D03*
X27884Y-1415D02*
D03*
X27845Y-1020D02*
D03*
X15173Y-2630D02*
D03*
X15343Y-2460D02*
D03*
X23140Y-8752D02*
D03*
X27349Y-14740D02*
D03*
X27125Y-14969D02*
D03*
X28133Y-14091D02*
D03*
X18861Y-16492D02*
D03*
X24963Y-7929D02*
D03*
X24959Y-7701D02*
D03*
X26326Y-8390D02*
D03*
X25534Y-8363D02*
D03*
Y-8107D02*
D03*
X14227Y-12709D02*
D03*
X17869Y-14732D02*
D03*
X17513Y-14046D02*
D03*
X23763Y-8910D02*
D03*
X24188Y-6826D02*
D03*
X23052Y-7312D02*
D03*
X23259Y-6784D02*
D03*
X18353Y-15374D02*
D03*
X20231Y-17949D02*
D03*
X15957Y-4756D02*
D03*
X14471Y-4382D02*
D03*
X13459Y-6390D02*
D03*
X17483Y-18278D02*
D03*
X17853Y-17453D02*
D03*
X18554Y-17516D02*
D03*
X18054Y-16658D02*
D03*
X15270Y-14926D02*
D03*
X11432Y-10272D02*
D03*
X14396Y-15390D02*
D03*
X14420Y-14685D02*
D03*
X15593Y-13544D02*
D03*
X14865Y-13565D02*
D03*
X21518Y-7004D02*
D03*
X15948Y-5524D02*
D03*
X16175Y-5523D02*
D03*
X20333Y-13154D02*
D03*
X20176Y-12832D02*
D03*
X19920Y-12363D02*
D03*
X13405Y-16898D02*
D03*
X13266Y-16139D02*
D03*
X11570Y-14721D02*
D03*
X8289Y-5776D02*
D03*
X14469Y-6286D02*
D03*
X10747Y-11146D02*
D03*
X12711Y-965D02*
D03*
X11433D02*
D03*
X15259Y-19361D02*
D03*
X16272Y-17894D02*
D03*
X15259Y-20040D02*
D03*
X17286Y-19380D02*
D03*
X17768Y-21811D02*
D03*
X18457Y-20089D02*
D03*
X17808Y-21496D02*
D03*
X18034Y-19429D02*
D03*
X20583Y-17500D02*
D03*
X21154Y-17677D02*
D03*
X20042Y-18455D02*
D03*
X19688Y-17973D02*
D03*
X17404Y-17737D02*
D03*
X15318Y-16595D02*
D03*
X14107Y-18967D02*
D03*
X17148Y-16585D02*
D03*
X28862Y-16304D02*
D03*
X24727Y-18169D02*
D03*
X12457Y-6679D02*
D03*
X34249Y-18186D02*
D03*
X35019Y-18516D02*
D03*
X29539Y-11056D02*
D03*
X29059D02*
D03*
X10557Y-956D02*
D03*
X9297Y-12799D02*
D03*
X10277Y-2729D02*
D03*
X6567Y-4189D02*
D03*
X8427Y-3879D02*
D03*
X38267Y-8749D02*
D03*
X35267Y-23769D02*
D03*
X19019Y-12886D02*
D03*
X9457Y-6919D02*
D03*
X15927Y-22729D02*
D03*
X19909Y-11836D02*
D03*
X28897Y-819D02*
D03*
X35167Y-1554D02*
D03*
X24577Y-6499D02*
D03*
X17869Y-15086D02*
D03*
X3047Y-9349D02*
D03*
X22319Y-4646D02*
D03*
X21979D02*
D03*
X7689Y-6356D02*
D03*
X3439Y-7266D02*
D03*
X17379Y-6836D02*
D03*
X22387Y-6009D02*
D03*
X11759Y-25466D02*
D03*
X3777Y-23299D02*
D03*
X22497Y-23669D02*
D03*
X7927Y-19609D02*
D03*
X22207Y-17169D02*
D03*
X9392Y-12430D02*
D03*
X8557Y-12479D02*
D03*
X8577Y-13599D02*
D03*
X8739Y-14746D02*
D03*
X10929Y-10336D02*
D03*
X11429Y-11148D02*
D03*
X11847Y-15419D02*
D03*
X18355Y-13969D02*
D03*
X13895Y-10819D02*
D03*
X14205D02*
D03*
X18975Y-13969D02*
D03*
X20207Y-15789D02*
D03*
X18665Y-13969D02*
D03*
X17042Y-15024D02*
D03*
X16037Y-15219D02*
D03*
X15247Y-15529D02*
D03*
X15677Y-22729D02*
D03*
X21647Y-19729D02*
D03*
X21567Y-19959D02*
D03*
X22017Y-23849D02*
D03*
X3947Y-18789D02*
D03*
X1387Y-17439D02*
D03*
X2237Y-17369D02*
D03*
X2497Y-17589D02*
D03*
X6187Y-19939D02*
D03*
X5397Y-19319D02*
D03*
X8847Y-18849D02*
D03*
X7927Y-19369D02*
D03*
X6977Y-17679D02*
D03*
X5419Y-18736D02*
D03*
X5709Y-18836D02*
D03*
X4727Y-17399D02*
D03*
X4177Y-17239D02*
D03*
X3477Y-19039D02*
D03*
X5959Y-19006D02*
D03*
X6437Y-20589D02*
D03*
X9667Y-18509D02*
D03*
X10427Y-18519D02*
D03*
X10047Y-18509D02*
D03*
X19397Y-18449D02*
D03*
X9547Y-23379D02*
D03*
X12237Y-18119D02*
D03*
X13727Y-19529D02*
D03*
X14057Y-20119D02*
D03*
X22057Y-19549D02*
D03*
X11877Y-19749D02*
D03*
X12007Y-19949D02*
D03*
X1827Y-19919D02*
D03*
X19497Y-26029D02*
D03*
X19957Y-25019D02*
D03*
X21657Y-24859D02*
D03*
X3007Y-19629D02*
D03*
X2787D02*
D03*
X1827Y-20139D02*
D03*
X8017Y-23669D02*
D03*
X3397Y-19269D02*
D03*
X4027Y-23229D02*
D03*
X9947Y-23099D02*
D03*
X7377Y-19749D02*
D03*
X5417Y-23239D02*
D03*
Y-22939D02*
D03*
X977Y-17169D02*
D03*
X12937Y-23919D02*
D03*
X22357D02*
D03*
X23157Y-19589D02*
D03*
X4439Y-19386D02*
D03*
X10907Y-20249D02*
D03*
X10407Y-20339D02*
D03*
X9567Y-19659D02*
D03*
X13500Y-19529D02*
D03*
X9317Y-17849D02*
D03*
X9476Y-18142D02*
D03*
X22017Y-24069D02*
D03*
X19697Y-25019D02*
D03*
X21907Y-24859D02*
D03*
X23327Y-24339D02*
D03*
X23587D02*
D03*
X18647Y-19059D02*
D03*
X17147Y-22379D02*
D03*
X16917D02*
D03*
X3437Y-23559D02*
D03*
X3767Y-23719D02*
D03*
X4899Y-23956D02*
D03*
X4359D02*
D03*
X6047Y-23819D02*
D03*
X6357Y-23829D02*
D03*
X10647Y-23819D02*
D03*
X10897D02*
D03*
X12937Y-23669D02*
D03*
X8017Y-23929D02*
D03*
X22067Y-19309D02*
D03*
X4897Y-19859D02*
D03*
X6437Y-20339D02*
D03*
X8177Y-18399D02*
D03*
X8497D02*
D03*
X3007Y-18089D02*
D03*
Y-17829D02*
D03*
X12767Y-16899D02*
D03*
X13257Y-17919D02*
D03*
X13557D02*
D03*
X8169Y-9846D02*
D03*
X7809Y-15256D02*
D03*
X8429Y-14756D02*
D03*
X7789Y-5726D02*
D03*
X7429Y-3746D02*
D03*
X21219Y-13336D02*
D03*
X28229Y-7996D02*
D03*
X28719Y-7976D02*
D03*
X28909Y-7626D02*
D03*
X27957Y-21319D02*
D03*
X6219Y-6591D02*
D03*
X34197Y-1889D02*
D03*
X3552Y-25216D02*
D03*
X3819D02*
D03*
X4669Y-25576D02*
D03*
Y-25316D02*
D03*
X5619Y-25296D02*
D03*
Y-25556D02*
D03*
X6359Y-25509D02*
D03*
Y-25749D02*
D03*
X7609Y-25566D02*
D03*
X7599Y-25826D02*
D03*
X9249Y-24156D02*
D03*
X9389Y-25076D02*
D03*
Y-25336D02*
D03*
X11757Y-25209D02*
D03*
X13259Y-25256D02*
D03*
X13529D02*
D03*
X14227Y-7629D02*
D03*
X22647Y-4649D02*
D03*
X14589Y-1186D02*
D03*
X7507Y-19949D02*
D03*
X8939Y-19696D02*
D03*
X20527Y-20259D02*
D03*
Y-20509D02*
D03*
X7429Y-18266D02*
D03*
X15367Y-8416D02*
D03*
X15997Y-7776D02*
D03*
X14944Y-10473D02*
D03*
X14511Y-10827D02*
D03*
X11892Y-9364D02*
D03*
X19087Y-17969D02*
D03*
X18314Y-3824D02*
D03*
X14806Y-9006D02*
D03*
X16381Y-13189D02*
D03*
X18310Y-10748D02*
D03*
X20615Y18840D02*
D03*
X20507Y19260D02*
D03*
X20301Y19549D02*
D03*
X18755Y19267D02*
D03*
X20896Y19369D02*
D03*
X19203Y20050D02*
D03*
X18484Y19939D02*
D03*
X18600Y20431D02*
D03*
X19160D02*
D03*
X20365Y20711D02*
D03*
X21064Y20692D02*
D03*
X18130Y19901D02*
D03*
X18107Y20431D02*
D03*
X22648Y19586D02*
D03*
X971Y5233D02*
D03*
X1087Y4961D02*
D03*
X1378Y6232D02*
D03*
X31928Y18718D02*
D03*
X32328D02*
D03*
Y19118D02*
D03*
X31928D02*
D03*
Y19518D02*
D03*
X32328D02*
D03*
Y19918D02*
D03*
X31928D02*
D03*
X31128D02*
D03*
X30728D02*
D03*
Y19518D02*
D03*
X31128D02*
D03*
Y19118D02*
D03*
X30728D02*
D03*
Y18718D02*
D03*
X31128D02*
D03*
X31528D02*
D03*
Y19118D02*
D03*
Y19918D02*
D03*
Y19518D02*
D03*
X28275Y5907D02*
D03*
Y6307D02*
D03*
X27875D02*
D03*
Y5907D02*
D03*
X27475D02*
D03*
Y6307D02*
D03*
X27075D02*
D03*
Y5907D02*
D03*
Y5107D02*
D03*
Y4707D02*
D03*
X27475D02*
D03*
Y5107D02*
D03*
X27875D02*
D03*
Y4707D02*
D03*
X28275D02*
D03*
Y5107D02*
D03*
Y5507D02*
D03*
X27875D02*
D03*
X27075D02*
D03*
X27475D02*
D03*
X28629Y15173D02*
D03*
X28159Y15613D02*
D03*
X30209Y14483D02*
D03*
X27959Y15623D02*
D03*
X13857Y17078D02*
D03*
X12660Y12976D02*
D03*
X12971Y15484D02*
D03*
X12845Y19791D02*
D03*
X12306Y18521D02*
D03*
X12833Y19460D02*
D03*
X10782Y20661D02*
D03*
X11937Y20156D02*
D03*
X12408Y14303D02*
D03*
X12672Y13858D02*
D03*
X12975Y13960D02*
D03*
X18263Y10886D02*
D03*
X16900Y10921D02*
D03*
X13558Y20169D02*
D03*
X12609Y19456D02*
D03*
X16784Y18297D02*
D03*
X11696Y20297D02*
D03*
X12700Y21515D02*
D03*
X13550Y21145D02*
D03*
X13067Y21118D02*
D03*
X13341Y21574D02*
D03*
X13530Y20669D02*
D03*
X12467Y24449D02*
D03*
X9455Y22476D02*
D03*
Y23413D02*
D03*
X14337Y17090D02*
D03*
X14345Y16590D02*
D03*
X13869D02*
D03*
X14921Y16614D02*
D03*
X20440Y16496D02*
D03*
X27884Y27365D02*
D03*
X27845Y27760D02*
D03*
X15173Y26149D02*
D03*
X15343Y26320D02*
D03*
X23140Y20027D02*
D03*
X27349Y14039D02*
D03*
X27125Y13811D02*
D03*
X28133Y14689D02*
D03*
X18861Y12287D02*
D03*
X24963Y20850D02*
D03*
X24959Y21078D02*
D03*
X26326Y20389D02*
D03*
X25534Y20417D02*
D03*
Y20673D02*
D03*
X14227Y16071D02*
D03*
X17869Y14048D02*
D03*
X17513Y14734D02*
D03*
X23763Y19870D02*
D03*
X24188Y21953D02*
D03*
X23052Y21467D02*
D03*
X23259Y21996D02*
D03*
X18353Y13406D02*
D03*
X20231Y10830D02*
D03*
X15957Y24023D02*
D03*
X14471Y24397D02*
D03*
X13459Y22389D02*
D03*
X17483Y10502D02*
D03*
X17853Y11326D02*
D03*
X18554Y11263D02*
D03*
X18054Y12122D02*
D03*
X15270Y13854D02*
D03*
X11432Y18508D02*
D03*
X14396Y13389D02*
D03*
X14420Y14094D02*
D03*
X15593Y15236D02*
D03*
X14865Y15214D02*
D03*
X21518Y21775D02*
D03*
X15948Y23256D02*
D03*
X16175Y23257D02*
D03*
X20333Y15626D02*
D03*
X20176Y15948D02*
D03*
X19920Y16417D02*
D03*
X13405Y11882D02*
D03*
X13266Y12641D02*
D03*
X11570Y14059D02*
D03*
X8289Y23003D02*
D03*
X14469Y22493D02*
D03*
X10747Y17634D02*
D03*
X12711Y27815D02*
D03*
X11433D02*
D03*
X15259Y9419D02*
D03*
X16272Y10886D02*
D03*
X15259Y8740D02*
D03*
X17286Y9399D02*
D03*
X17768Y6968D02*
D03*
X18457Y8691D02*
D03*
X17808Y7283D02*
D03*
X18034Y9350D02*
D03*
X20583Y11279D02*
D03*
X21154Y11102D02*
D03*
X20042Y10324D02*
D03*
X19688Y10807D02*
D03*
X17404Y11043D02*
D03*
X15318Y12185D02*
D03*
X14107Y9813D02*
D03*
X17148Y12195D02*
D03*
X28862Y12476D02*
D03*
X24727Y10611D02*
D03*
X12457Y22101D02*
D03*
X34249Y10593D02*
D03*
X35019Y10263D02*
D03*
X29539Y17723D02*
D03*
X29059D02*
D03*
X10557Y27823D02*
D03*
X9297Y15981D02*
D03*
X10277Y26051D02*
D03*
X6567Y24591D02*
D03*
X8427Y24901D02*
D03*
X38267Y20031D02*
D03*
X35267Y5011D02*
D03*
X19019Y15893D02*
D03*
X9457Y21861D02*
D03*
X15927Y6051D02*
D03*
X19909Y16943D02*
D03*
X28897Y27961D02*
D03*
X35167Y27225D02*
D03*
X24577Y22281D02*
D03*
X17869Y13693D02*
D03*
X3047Y19431D02*
D03*
X22319Y24133D02*
D03*
X21979D02*
D03*
X7689Y22423D02*
D03*
X3439Y21513D02*
D03*
X17379Y21943D02*
D03*
X22387Y22771D02*
D03*
X11759Y3313D02*
D03*
X3777Y5481D02*
D03*
X22497Y5111D02*
D03*
X7927Y9171D02*
D03*
X22207Y11611D02*
D03*
X9392Y16350D02*
D03*
X8557Y16301D02*
D03*
X8577Y15181D02*
D03*
X8739Y14033D02*
D03*
X10929Y18443D02*
D03*
X11429Y17632D02*
D03*
X11847Y13361D02*
D03*
X18355Y14811D02*
D03*
X13895Y17961D02*
D03*
X14205D02*
D03*
X18975Y14811D02*
D03*
X20207Y12991D02*
D03*
X18665Y14811D02*
D03*
X17042Y13756D02*
D03*
X16037Y13561D02*
D03*
X15247Y13251D02*
D03*
X15677Y6051D02*
D03*
X21647Y9051D02*
D03*
X21567Y8821D02*
D03*
X22017Y4931D02*
D03*
X3947Y9991D02*
D03*
X1387Y11341D02*
D03*
X2237Y11411D02*
D03*
X2497Y11191D02*
D03*
X6187Y8841D02*
D03*
X5397Y9461D02*
D03*
X8847Y9931D02*
D03*
X7927Y9411D02*
D03*
X6977Y11101D02*
D03*
X5419Y10043D02*
D03*
X5709Y9943D02*
D03*
X4727Y11381D02*
D03*
X4177Y11541D02*
D03*
X3477Y9741D02*
D03*
X5959Y9773D02*
D03*
X6437Y8191D02*
D03*
X9667Y10271D02*
D03*
X10427Y10261D02*
D03*
X10047Y10271D02*
D03*
X19397Y10331D02*
D03*
X9547Y5401D02*
D03*
X12237Y10661D02*
D03*
X13727Y9251D02*
D03*
X14057Y8661D02*
D03*
X22057Y9231D02*
D03*
X11877Y9031D02*
D03*
X12007Y8831D02*
D03*
X1827Y8861D02*
D03*
X19497Y2751D02*
D03*
X19957Y3761D02*
D03*
X21657Y3921D02*
D03*
X3007Y9151D02*
D03*
X2787D02*
D03*
X1827Y8641D02*
D03*
X8017Y5111D02*
D03*
X3397Y9511D02*
D03*
X4027Y5551D02*
D03*
X9947Y5681D02*
D03*
X7377Y9031D02*
D03*
X5417Y5541D02*
D03*
Y5841D02*
D03*
X977Y11611D02*
D03*
X12937Y4861D02*
D03*
X22357D02*
D03*
X23157Y9191D02*
D03*
X4439Y9393D02*
D03*
X10907Y8531D02*
D03*
X10407Y8441D02*
D03*
X9567Y9121D02*
D03*
X13500Y9251D02*
D03*
X9317Y10931D02*
D03*
X9476Y10637D02*
D03*
X22017Y4711D02*
D03*
X19697Y3761D02*
D03*
X21907Y3921D02*
D03*
X23327Y4441D02*
D03*
X23587D02*
D03*
X18647Y9721D02*
D03*
X17147Y6401D02*
D03*
X16917D02*
D03*
X3437Y5221D02*
D03*
X3767Y5061D02*
D03*
X4899Y4823D02*
D03*
X4359D02*
D03*
X6047Y4961D02*
D03*
X6357Y4951D02*
D03*
X10647Y4961D02*
D03*
X10897D02*
D03*
X12937Y5111D02*
D03*
X8017Y4851D02*
D03*
X22067Y9471D02*
D03*
X4897Y8921D02*
D03*
X6437Y8441D02*
D03*
X8177Y10381D02*
D03*
X8497D02*
D03*
X3007Y10691D02*
D03*
Y10951D02*
D03*
X12767Y11881D02*
D03*
X13257Y10861D02*
D03*
X13557D02*
D03*
X8169Y18933D02*
D03*
X7809Y13523D02*
D03*
X8429Y14023D02*
D03*
X7789Y23053D02*
D03*
X7429Y25033D02*
D03*
X21219Y15443D02*
D03*
X28229Y20783D02*
D03*
X28719Y20803D02*
D03*
X28909Y21153D02*
D03*
X27957Y7461D02*
D03*
X6219Y22188D02*
D03*
X34197Y26891D02*
D03*
X3552Y3563D02*
D03*
X3819D02*
D03*
X4669Y3203D02*
D03*
Y3463D02*
D03*
X5619Y3483D02*
D03*
Y3223D02*
D03*
X6359Y3271D02*
D03*
Y3031D02*
D03*
X7609Y3213D02*
D03*
X7599Y2953D02*
D03*
X9249Y4623D02*
D03*
X9389Y3703D02*
D03*
Y3443D02*
D03*
X11757Y3571D02*
D03*
X13259Y3523D02*
D03*
X13529D02*
D03*
X14227Y21151D02*
D03*
X22647Y24131D02*
D03*
X14589Y27593D02*
D03*
X7507Y8831D02*
D03*
X8939Y9083D02*
D03*
X20527Y8521D02*
D03*
Y8271D02*
D03*
X7429Y10513D02*
D03*
X15367Y20364D02*
D03*
X15997Y21004D02*
D03*
X14944Y18307D02*
D03*
X14511Y17952D02*
D03*
X11892Y19415D02*
D03*
X19087Y10811D02*
D03*
X18314Y24956D02*
D03*
X14806Y19773D02*
D03*
X16381Y15590D02*
D03*
X18310Y18031D02*
D03*
X20615Y47620D02*
D03*
X20507Y48039D02*
D03*
X20301Y48328D02*
D03*
X18755Y48047D02*
D03*
X20896Y48148D02*
D03*
X19203Y48830D02*
D03*
X18484Y48719D02*
D03*
X18600Y49211D02*
D03*
X19160D02*
D03*
X20365Y49491D02*
D03*
X21064Y49471D02*
D03*
X18130Y48681D02*
D03*
X18107Y49211D02*
D03*
X22648Y48366D02*
D03*
X971Y34013D02*
D03*
X1087Y33740D02*
D03*
X1378Y35012D02*
D03*
X31928Y47498D02*
D03*
X32328D02*
D03*
Y47898D02*
D03*
X31928D02*
D03*
Y48298D02*
D03*
X32328D02*
D03*
Y48698D02*
D03*
X31928D02*
D03*
X31128D02*
D03*
X30728D02*
D03*
Y48298D02*
D03*
X31128D02*
D03*
Y47898D02*
D03*
X30728D02*
D03*
Y47498D02*
D03*
X31128D02*
D03*
X31528D02*
D03*
Y47898D02*
D03*
Y48698D02*
D03*
Y48298D02*
D03*
X28275Y34687D02*
D03*
Y35087D02*
D03*
X27875D02*
D03*
Y34687D02*
D03*
X27475D02*
D03*
Y35087D02*
D03*
X27075D02*
D03*
Y34687D02*
D03*
Y33887D02*
D03*
Y33487D02*
D03*
X27475D02*
D03*
Y33887D02*
D03*
X27875D02*
D03*
Y33487D02*
D03*
X28275D02*
D03*
Y33887D02*
D03*
Y34287D02*
D03*
X27875D02*
D03*
X27075D02*
D03*
X27475D02*
D03*
X28629Y43952D02*
D03*
X28159Y44393D02*
D03*
X30209Y43263D02*
D03*
X27959Y44403D02*
D03*
X13857Y45858D02*
D03*
X12660Y41756D02*
D03*
X12971Y44263D02*
D03*
X12845Y48571D02*
D03*
X12306Y47300D02*
D03*
X12833Y48240D02*
D03*
X10782Y49441D02*
D03*
X11937Y48936D02*
D03*
X12408Y43082D02*
D03*
X12672Y42637D02*
D03*
X12975Y42740D02*
D03*
X18263Y39665D02*
D03*
X16900Y39700D02*
D03*
X13558Y48949D02*
D03*
X12609Y48236D02*
D03*
X16784Y47076D02*
D03*
X11696Y49077D02*
D03*
X12700Y50295D02*
D03*
X13550Y49925D02*
D03*
X13067Y49898D02*
D03*
X13341Y50354D02*
D03*
X13530Y49449D02*
D03*
X12467Y53228D02*
D03*
X9455Y51256D02*
D03*
Y52193D02*
D03*
X14337Y45870D02*
D03*
X14345Y45370D02*
D03*
X13869D02*
D03*
X14921Y45393D02*
D03*
X20440Y45275D02*
D03*
X27884Y56144D02*
D03*
X27845Y56539D02*
D03*
X15173Y54929D02*
D03*
X15343Y55099D02*
D03*
X23140Y48807D02*
D03*
X27349Y42819D02*
D03*
X27125Y42590D02*
D03*
X28133Y43468D02*
D03*
X18861Y41067D02*
D03*
X24963Y49630D02*
D03*
X24959Y49858D02*
D03*
X26326Y49169D02*
D03*
X25534Y49197D02*
D03*
Y49452D02*
D03*
X14227Y44850D02*
D03*
X17869Y42827D02*
D03*
X17513Y43513D02*
D03*
X23763Y48649D02*
D03*
X24188Y50733D02*
D03*
X23052Y50247D02*
D03*
X23259Y50775D02*
D03*
X18353Y42185D02*
D03*
X20231Y39610D02*
D03*
X15957Y52803D02*
D03*
X14471Y53177D02*
D03*
X13459Y51169D02*
D03*
X17483Y39281D02*
D03*
X17853Y40106D02*
D03*
X18554Y40043D02*
D03*
X18054Y40901D02*
D03*
X15270Y42634D02*
D03*
X11432Y47287D02*
D03*
X14396Y42169D02*
D03*
X14420Y42874D02*
D03*
X15593Y44015D02*
D03*
X14865Y43994D02*
D03*
X21518Y50555D02*
D03*
X15948Y52035D02*
D03*
X16175Y52036D02*
D03*
X20333Y44405D02*
D03*
X20176Y44727D02*
D03*
X19920Y45197D02*
D03*
X13405Y40661D02*
D03*
X13266Y41420D02*
D03*
X11570Y42838D02*
D03*
X8289Y51783D02*
D03*
X14469Y51273D02*
D03*
X10747Y46413D02*
D03*
X12711Y56594D02*
D03*
X11433D02*
D03*
X15259Y38199D02*
D03*
X16272Y39665D02*
D03*
X15259Y37519D02*
D03*
X17286Y38179D02*
D03*
X17768Y35748D02*
D03*
X18457Y37470D02*
D03*
X17808Y36063D02*
D03*
X18034Y38130D02*
D03*
X20583Y40059D02*
D03*
X21154Y39882D02*
D03*
X20042Y39104D02*
D03*
X19688Y39586D02*
D03*
X17404Y39823D02*
D03*
X15318Y40964D02*
D03*
X14107Y38592D02*
D03*
X17148Y40974D02*
D03*
X28862Y41255D02*
D03*
X24727Y39390D02*
D03*
X12457Y50880D02*
D03*
X34249Y39373D02*
D03*
X35019Y39043D02*
D03*
X29539Y46503D02*
D03*
X29059D02*
D03*
X10557Y56603D02*
D03*
X9297Y44760D02*
D03*
X10277Y54830D02*
D03*
X6567Y53370D02*
D03*
X8427Y53680D02*
D03*
X38267Y48810D02*
D03*
X35267Y33790D02*
D03*
X19019Y44673D02*
D03*
X9457Y50640D02*
D03*
X15927Y34830D02*
D03*
X19909Y45723D02*
D03*
X28897Y56740D02*
D03*
X35167Y56005D02*
D03*
X24577Y51060D02*
D03*
X17869Y42473D02*
D03*
X3047Y48210D02*
D03*
X22319Y52913D02*
D03*
X21979D02*
D03*
X7689Y51203D02*
D03*
X3439Y50293D02*
D03*
X17379Y50723D02*
D03*
X22387Y51550D02*
D03*
X11759Y32093D02*
D03*
X3777Y34260D02*
D03*
X22497Y33890D02*
D03*
X7927Y37950D02*
D03*
X22207Y40390D02*
D03*
X9392Y45129D02*
D03*
X8557Y45080D02*
D03*
X8577Y43960D02*
D03*
X8739Y42813D02*
D03*
X10929Y47223D02*
D03*
X11429Y46411D02*
D03*
X11847Y42140D02*
D03*
X18355Y43590D02*
D03*
X13895Y46740D02*
D03*
X14205D02*
D03*
X18975Y43590D02*
D03*
X20207Y41770D02*
D03*
X18665Y43590D02*
D03*
X17042Y42535D02*
D03*
X16037Y42340D02*
D03*
X15247Y42030D02*
D03*
X15677Y34830D02*
D03*
X21647Y37830D02*
D03*
X21567Y37600D02*
D03*
X22017Y33710D02*
D03*
X3947Y38770D02*
D03*
X1387Y40120D02*
D03*
X2237Y40190D02*
D03*
X2497Y39970D02*
D03*
X6187Y37620D02*
D03*
X5397Y38240D02*
D03*
X8847Y38710D02*
D03*
X7927Y38190D02*
D03*
X6977Y39880D02*
D03*
X5419Y38823D02*
D03*
X5709Y38723D02*
D03*
X4727Y40160D02*
D03*
X4177Y40320D02*
D03*
X3477Y38520D02*
D03*
X5959Y38553D02*
D03*
X6437Y36970D02*
D03*
X9667Y39050D02*
D03*
X10427Y39040D02*
D03*
X10047Y39050D02*
D03*
X19397Y39110D02*
D03*
X9547Y34180D02*
D03*
X12237Y39440D02*
D03*
X13727Y38030D02*
D03*
X14057Y37440D02*
D03*
X22057Y38010D02*
D03*
X11877Y37810D02*
D03*
X12007Y37610D02*
D03*
X1827Y37640D02*
D03*
X19497Y31530D02*
D03*
X19957Y32540D02*
D03*
X21657Y32700D02*
D03*
X3007Y37930D02*
D03*
X2787D02*
D03*
X1827Y37420D02*
D03*
X8017Y33890D02*
D03*
X3397Y38290D02*
D03*
X4027Y34330D02*
D03*
X9947Y34460D02*
D03*
X7377Y37810D02*
D03*
X5417Y34320D02*
D03*
Y34620D02*
D03*
X977Y40390D02*
D03*
X12937Y33640D02*
D03*
X22357D02*
D03*
X23157Y37970D02*
D03*
X4439Y38173D02*
D03*
X10907Y37310D02*
D03*
X10407Y37220D02*
D03*
X9567Y37900D02*
D03*
X13500Y38030D02*
D03*
X9317Y39710D02*
D03*
X9476Y39417D02*
D03*
X22017Y33490D02*
D03*
X19697Y32540D02*
D03*
X21907Y32700D02*
D03*
X23327Y33220D02*
D03*
X23587D02*
D03*
X18647Y38500D02*
D03*
X17147Y35180D02*
D03*
X16917D02*
D03*
X3437Y34000D02*
D03*
X3767Y33840D02*
D03*
X4899Y33603D02*
D03*
X4359D02*
D03*
X6047Y33740D02*
D03*
X6357Y33730D02*
D03*
X10647Y33740D02*
D03*
X10897D02*
D03*
X12937Y33890D02*
D03*
X8017Y33630D02*
D03*
X22067Y38250D02*
D03*
X4897Y37700D02*
D03*
X6437Y37220D02*
D03*
X8177Y39160D02*
D03*
X8497D02*
D03*
X3007Y39470D02*
D03*
Y39730D02*
D03*
X12767Y40660D02*
D03*
X13257Y39640D02*
D03*
X13557D02*
D03*
X8169Y47713D02*
D03*
X7809Y42303D02*
D03*
X8429Y42803D02*
D03*
X7789Y51833D02*
D03*
X7429Y53813D02*
D03*
X21219Y44223D02*
D03*
X28229Y49563D02*
D03*
X28719Y49583D02*
D03*
X28909Y49933D02*
D03*
X27957Y36240D02*
D03*
X6219Y50968D02*
D03*
X34197Y55670D02*
D03*
X3552Y32343D02*
D03*
X3819D02*
D03*
X4669Y31983D02*
D03*
Y32243D02*
D03*
X5619Y32263D02*
D03*
Y32003D02*
D03*
X6359Y32050D02*
D03*
Y31810D02*
D03*
X7609Y31993D02*
D03*
X7599Y31733D02*
D03*
X9249Y33403D02*
D03*
X9389Y32483D02*
D03*
Y32223D02*
D03*
X11757Y32350D02*
D03*
X13259Y32303D02*
D03*
X13529D02*
D03*
X14227Y49930D02*
D03*
X22647Y52910D02*
D03*
X14589Y56373D02*
D03*
X7507Y37610D02*
D03*
X8939Y37863D02*
D03*
X20527Y37300D02*
D03*
Y37050D02*
D03*
X7429Y39293D02*
D03*
X15367Y49143D02*
D03*
X15997Y49783D02*
D03*
X14944Y47086D02*
D03*
X14511Y46732D02*
D03*
X11892Y48195D02*
D03*
X19087Y39590D02*
D03*
X18314Y53735D02*
D03*
X14806Y48553D02*
D03*
X16381Y44370D02*
D03*
X18310Y46811D02*
D03*
G54D139*
X-1101Y58376D02*
D03*
X42678D02*
D03*
Y-29557D02*
D03*
X-1101D02*
D03*
G54D140*
X14959Y-4866D02*
D03*
Y-5866D02*
D03*
X13959Y-4866D02*
D03*
Y-5866D02*
D03*
X12959Y-4866D02*
D03*
Y-5866D02*
D03*
X11959Y-4866D02*
D03*
Y-5866D02*
D03*
X10959Y-4866D02*
D03*
Y-5866D02*
D03*
X9959Y-4866D02*
D03*
Y-5866D02*
D03*
X8959Y-4866D02*
D03*
Y-5866D02*
D03*
X14959Y23913D02*
D03*
Y22913D02*
D03*
X13959Y23913D02*
D03*
Y22913D02*
D03*
X12959Y23913D02*
D03*
Y22913D02*
D03*
X11959Y23913D02*
D03*
Y22913D02*
D03*
X10959Y23913D02*
D03*
Y22913D02*
D03*
X9959Y23913D02*
D03*
Y22913D02*
D03*
X8959Y23913D02*
D03*
Y22913D02*
D03*
X14959Y52693D02*
D03*
Y51693D02*
D03*
X13959Y52693D02*
D03*
Y51693D02*
D03*
X12959Y52693D02*
D03*
Y51693D02*
D03*
X11959Y52693D02*
D03*
Y51693D02*
D03*
X10959Y52693D02*
D03*
Y51693D02*
D03*
X9959Y52693D02*
D03*
Y51693D02*
D03*
X8959Y52693D02*
D03*
Y51693D02*
D03*
G54D141*
X18007Y-2749D02*
D03*
Y-1749D02*
D03*
X19007Y-2749D02*
D03*
Y-1749D02*
D03*
X20007Y-2749D02*
D03*
Y-1749D02*
D03*
X21007Y-2749D02*
D03*
Y-1749D02*
D03*
X22007Y-2749D02*
D03*
Y-1749D02*
D03*
X26434Y-6432D02*
D03*
X25434D02*
D03*
X26434Y-5432D02*
D03*
X25434D02*
D03*
X26434Y-4432D02*
D03*
X25434D02*
D03*
X26434Y-3432D02*
D03*
X25434D02*
D03*
X26434Y-2432D02*
D03*
X25434D02*
D03*
X22007Y-5499D02*
D03*
Y-6499D02*
D03*
X21007Y-5499D02*
D03*
Y-6499D02*
D03*
X20007Y-5499D02*
D03*
Y-6499D02*
D03*
X19007Y-5499D02*
D03*
Y-6499D02*
D03*
X18007Y-5499D02*
D03*
Y-6499D02*
D03*
Y26031D02*
D03*
Y27031D02*
D03*
X19007Y26031D02*
D03*
Y27031D02*
D03*
X20007Y26031D02*
D03*
Y27031D02*
D03*
X21007Y26031D02*
D03*
Y27031D02*
D03*
X22007Y26031D02*
D03*
Y27031D02*
D03*
X26434Y22348D02*
D03*
X25434D02*
D03*
X26434Y23348D02*
D03*
X25434D02*
D03*
X26434Y24348D02*
D03*
X25434D02*
D03*
X26434Y25348D02*
D03*
X25434D02*
D03*
X26434Y26348D02*
D03*
X25434D02*
D03*
X22007Y23281D02*
D03*
Y22281D02*
D03*
X21007Y23281D02*
D03*
Y22281D02*
D03*
X20007Y23281D02*
D03*
Y22281D02*
D03*
X19007Y23281D02*
D03*
Y22281D02*
D03*
X18007Y23281D02*
D03*
Y22281D02*
D03*
Y54810D02*
D03*
Y55810D02*
D03*
X19007Y54810D02*
D03*
Y55810D02*
D03*
X20007Y54810D02*
D03*
Y55810D02*
D03*
X21007Y54810D02*
D03*
Y55810D02*
D03*
X22007Y54810D02*
D03*
Y55810D02*
D03*
X26434Y51127D02*
D03*
X25434D02*
D03*
X26434Y52127D02*
D03*
X25434D02*
D03*
X26434Y53127D02*
D03*
X25434D02*
D03*
X26434Y54127D02*
D03*
X25434D02*
D03*
X26434Y55127D02*
D03*
X25434D02*
D03*
X22007Y52060D02*
D03*
Y51060D02*
D03*
X21007Y52060D02*
D03*
Y51060D02*
D03*
X20007Y52060D02*
D03*
Y51060D02*
D03*
X19007Y52060D02*
D03*
Y51060D02*
D03*
X18007Y52060D02*
D03*
Y51060D02*
D03*
G54D142*
X26377Y-18759D02*
D03*
X28377D02*
D03*
X26377Y10021D02*
D03*
X28377D02*
D03*
X26377Y38800D02*
D03*
X28377D02*
D03*
G54D143*
X31856Y-26935D02*
D03*
X30516D02*
D03*
Y-21635D02*
D03*
X31856D02*
D03*
X33467Y-11509D02*
D03*
X34807D02*
D03*
Y-16809D02*
D03*
X33467D02*
D03*
X34757Y-21639D02*
D03*
X33417D02*
D03*
Y-26939D02*
D03*
X34757D02*
D03*
X31856Y1844D02*
D03*
X30516D02*
D03*
Y7144D02*
D03*
X31856D02*
D03*
X33467Y17271D02*
D03*
X34807D02*
D03*
Y11971D02*
D03*
X33467D02*
D03*
X34757Y7141D02*
D03*
X33417D02*
D03*
Y1841D02*
D03*
X34757D02*
D03*
X31856Y30624D02*
D03*
X30516D02*
D03*
Y35924D02*
D03*
X31856D02*
D03*
X33467Y46050D02*
D03*
X34807D02*
D03*
Y40750D02*
D03*
X33467D02*
D03*
X34757Y35920D02*
D03*
X33417D02*
D03*
Y30620D02*
D03*
X34757D02*
D03*
G54D144*
X5592Y-8543D02*
D03*
Y-7543D02*
D03*
X6592Y-8543D02*
D03*
Y-7543D02*
D03*
X7592Y-8543D02*
D03*
X4725Y-13492D02*
D03*
Y-12500D02*
D03*
X3935D02*
D03*
X5592Y20236D02*
D03*
Y21236D02*
D03*
X6592Y20236D02*
D03*
Y21236D02*
D03*
X7592Y20236D02*
D03*
X4725Y15287D02*
D03*
Y16280D02*
D03*
X3935D02*
D03*
X5592Y49016D02*
D03*
Y50016D02*
D03*
X6592Y49016D02*
D03*
Y50016D02*
D03*
X7592Y49016D02*
D03*
X4725Y44067D02*
D03*
Y45059D02*
D03*
X3935D02*
D03*
G54D145*
X7592Y-7543D02*
D03*
X3935Y-13492D02*
D03*
X7592Y21236D02*
D03*
X3935Y15287D02*
D03*
X7592Y50016D02*
D03*
X3935Y44067D02*
D03*
G54D146*
X2865Y-10630D02*
D03*
Y-15362D02*
D03*
Y18150D02*
D03*
Y13417D02*
D03*
Y46929D02*
D03*
Y42197D02*
D03*
G54D147*
X1194Y-7189D02*
D03*
X9249Y-2366D02*
D03*
X5039Y-4776D02*
D03*
X6039Y-2366D02*
D03*
X1194Y21590D02*
D03*
X9249Y26413D02*
D03*
X5039Y24003D02*
D03*
X6039Y26413D02*
D03*
X1194Y50370D02*
D03*
X9249Y55193D02*
D03*
X5039Y52783D02*
D03*
X6039Y55193D02*
D03*
G54D148*
X2174Y-4919D02*
D03*
Y-7679D02*
D03*
Y23860D02*
D03*
Y21100D02*
D03*
Y52640D02*
D03*
Y49880D02*
D03*
G54D149*
X38779Y-27078D02*
D03*
X40179D02*
D03*
Y-25678D02*
D03*
X38779D02*
D03*
X38479Y-26378D02*
D03*
X40479D02*
D03*
X39479Y-25378D02*
D03*
Y-27378D02*
D03*
Y-3362D02*
D03*
Y-1362D02*
D03*
X40479Y-2362D02*
D03*
X38479D02*
D03*
X38779Y-1662D02*
D03*
X40179D02*
D03*
Y-3062D02*
D03*
X38779D02*
D03*
X2078Y-3362D02*
D03*
Y-1362D02*
D03*
X3078Y-2362D02*
D03*
X1078D02*
D03*
X1378Y-1662D02*
D03*
X2778D02*
D03*
Y-3062D02*
D03*
X1378D02*
D03*
X2078Y-27378D02*
D03*
Y-25378D02*
D03*
X3078Y-26378D02*
D03*
X1078D02*
D03*
X1378Y-25678D02*
D03*
X2778D02*
D03*
Y-27078D02*
D03*
X1378D02*
D03*
X21957Y-11717D02*
D03*
X28660Y-6008D02*
D03*
X17385Y-9091D02*
D03*
X35362Y-18081D02*
D03*
X28889Y-13926D02*
D03*
X12101Y-15906D02*
D03*
X12057Y-14074D02*
D03*
X15829Y-16644D02*
D03*
X34749Y-25946D02*
D03*
X34099Y-22486D02*
D03*
X29879Y-15826D02*
D03*
X1659Y-10596D02*
D03*
X27519Y-12846D02*
D03*
X31607Y-23839D02*
D03*
X8809Y-3556D02*
D03*
X9109D02*
D03*
X30137Y-8719D02*
D03*
X30117Y-10149D02*
D03*
X36637Y-5269D02*
D03*
X13109Y-3556D02*
D03*
X12809D02*
D03*
X20587Y-16859D02*
D03*
X3687Y-8539D02*
D03*
X3909Y-8799D02*
D03*
X5257Y-14799D02*
D03*
X5267Y-15539D02*
D03*
Y-15219D02*
D03*
X6607Y-12189D02*
D03*
X22677Y-13399D02*
D03*
X22187Y-14669D02*
D03*
X22297Y-15549D02*
D03*
X22647Y-10569D02*
D03*
X20619Y-15706D02*
D03*
X21827Y-16949D02*
D03*
X30647Y-5579D02*
D03*
X20227Y-15019D02*
D03*
X24217Y-18469D02*
D03*
X25797Y-21709D02*
D03*
X26177Y-21719D02*
D03*
X35737Y-6249D02*
D03*
X36637Y-7229D02*
D03*
X26357Y-24399D02*
D03*
X25437Y-24402D02*
D03*
Y-24929D02*
D03*
X26357D02*
D03*
X25437Y-25449D02*
D03*
X26357D02*
D03*
X29837Y-26929D02*
D03*
X29387Y-27509D02*
D03*
X28907D02*
D03*
X29837Y-26499D02*
D03*
Y-27349D02*
D03*
X30127Y-9429D02*
D03*
X4987Y-11039D02*
D03*
X5267Y-11759D02*
D03*
X8288Y-14055D02*
D03*
X9391Y-10984D02*
D03*
X4789Y-7738D02*
D03*
X8308Y-15778D02*
D03*
X9744Y-9717D02*
D03*
X8643Y-8740D02*
D03*
X12707Y-11030D02*
D03*
X5737Y-12999D02*
D03*
X8377Y-9016D02*
D03*
X4287Y-8959D02*
D03*
X7737Y-9429D02*
D03*
X8088Y-12742D02*
D03*
X21537Y-18079D02*
D03*
X3667Y-7709D02*
D03*
X28267Y-6009D02*
D03*
X32757Y-11519D02*
D03*
X32907Y-12449D02*
D03*
X33467Y-12709D02*
D03*
X34817Y-12699D02*
D03*
X34147Y-10799D02*
D03*
X35537Y-11509D02*
D03*
X36647Y-10439D02*
D03*
Y-8529D02*
D03*
X37607Y-9519D02*
D03*
X38277Y-9819D02*
D03*
X38267Y-10599D02*
D03*
X37307Y-11669D02*
D03*
X35817Y-10389D02*
D03*
X37437Y-10379D02*
D03*
X32747Y-16819D02*
D03*
X33477Y-17839D02*
D03*
X33707Y-15799D02*
D03*
X34797D02*
D03*
X35637Y-16799D02*
D03*
X38027Y-17669D02*
D03*
X38007Y-15469D02*
D03*
X37557Y-15989D02*
D03*
X36647Y-15099D02*
D03*
X35717Y-16019D02*
D03*
X36637Y-16999D02*
D03*
X38227Y-16559D02*
D03*
X34357Y-15189D02*
D03*
X36477Y-17839D02*
D03*
X30547Y-20609D02*
D03*
X31127Y-22459D02*
D03*
X31847Y-22609D02*
D03*
X32777Y-19209D02*
D03*
X32667Y-19809D02*
D03*
X32767Y-20409D02*
D03*
X32377Y-20789D02*
D03*
X31887Y-20619D02*
D03*
X35447Y-19429D02*
D03*
X35407Y-20379D02*
D03*
X35357Y-19809D02*
D03*
X36357Y-20369D02*
D03*
X38027Y-21999D02*
D03*
X36647Y-21539D02*
D03*
X36667Y-23449D02*
D03*
X35807Y-22939D02*
D03*
X37587Y-22499D02*
D03*
X36137Y-24369D02*
D03*
X36137Y-25579D02*
D03*
X37639Y-24826D02*
D03*
X30547Y-25999D02*
D03*
X30267Y-8189D02*
D03*
X32267D02*
D03*
X33267Y-8379D02*
D03*
X32947Y-7599D02*
D03*
X34227Y-7189D02*
D03*
X34157Y-8199D02*
D03*
X34267Y-9189D02*
D03*
X33267D02*
D03*
Y-10189D02*
D03*
X35139Y-7436D02*
D03*
X25797Y-21199D02*
D03*
Y-20699D02*
D03*
X27787Y-15729D02*
D03*
X34667Y-3209D02*
D03*
X3447Y-6339D02*
D03*
X27747Y-19949D02*
D03*
X27657Y-19039D02*
D03*
X26177Y-21199D02*
D03*
X26147Y-20739D02*
D03*
X31267Y-8189D02*
D03*
X32257Y-7559D02*
D03*
X31467Y-7419D02*
D03*
X30429Y-6006D02*
D03*
X29829D02*
D03*
X29239D02*
D03*
X33877Y-2349D02*
D03*
X32847Y-26939D02*
D03*
X34077Y-20889D02*
D03*
X34727Y-22659D02*
D03*
X33457Y-22619D02*
D03*
X33777Y-24589D02*
D03*
X33427Y-23569D02*
D03*
X35837Y-26089D02*
D03*
X36417Y-26079D02*
D03*
X33407Y-25999D02*
D03*
X35579Y-26566D02*
D03*
X34057Y-6139D02*
D03*
X33677D02*
D03*
X34239Y-15846D02*
D03*
X34129Y-12626D02*
D03*
X38779Y1702D02*
D03*
X40179D02*
D03*
Y3102D02*
D03*
X38779D02*
D03*
X38479Y2402D02*
D03*
X40479D02*
D03*
X39479Y3402D02*
D03*
Y1402D02*
D03*
Y25417D02*
D03*
Y27417D02*
D03*
X40479Y26417D02*
D03*
X38479D02*
D03*
X38779Y27117D02*
D03*
X40179D02*
D03*
Y25717D02*
D03*
X38779D02*
D03*
X2078Y25417D02*
D03*
Y27417D02*
D03*
X3078Y26417D02*
D03*
X1078D02*
D03*
X1378Y27117D02*
D03*
X2778D02*
D03*
Y25717D02*
D03*
X1378D02*
D03*
X2078Y1402D02*
D03*
Y3402D02*
D03*
X3078Y2402D02*
D03*
X1078D02*
D03*
X1378Y3102D02*
D03*
X2778D02*
D03*
Y1702D02*
D03*
X1378D02*
D03*
X21957Y17063D02*
D03*
X28660Y22771D02*
D03*
X17385Y19689D02*
D03*
X35362Y10698D02*
D03*
X28889Y14853D02*
D03*
X12101Y12874D02*
D03*
X12057Y14706D02*
D03*
X15829Y12136D02*
D03*
X34749Y2833D02*
D03*
X34099Y6293D02*
D03*
X29879Y12953D02*
D03*
X1659Y18183D02*
D03*
X27519Y15933D02*
D03*
X31607Y4941D02*
D03*
X8809Y25223D02*
D03*
X9109D02*
D03*
X30137Y20061D02*
D03*
X30117Y18631D02*
D03*
X36637Y23511D02*
D03*
X13109Y25223D02*
D03*
X12809D02*
D03*
X20587Y11921D02*
D03*
X3687Y20241D02*
D03*
X3909Y19981D02*
D03*
X5257Y13981D02*
D03*
X5267Y13241D02*
D03*
Y13561D02*
D03*
X6607Y16591D02*
D03*
X22677Y15381D02*
D03*
X22187Y14111D02*
D03*
X22297Y13231D02*
D03*
X22647Y18211D02*
D03*
X20619Y13073D02*
D03*
X21827Y11831D02*
D03*
X30647Y23201D02*
D03*
X20227Y13761D02*
D03*
X24217Y10311D02*
D03*
X25797Y7071D02*
D03*
X26177Y7061D02*
D03*
X35737Y22531D02*
D03*
X36637Y21551D02*
D03*
X26357Y4381D02*
D03*
X25437Y4378D02*
D03*
Y3851D02*
D03*
X26357D02*
D03*
X25437Y3331D02*
D03*
X26357D02*
D03*
X29837Y1851D02*
D03*
X29387Y1271D02*
D03*
X28907D02*
D03*
X29837Y2281D02*
D03*
Y1431D02*
D03*
X30127Y19351D02*
D03*
X4987Y17741D02*
D03*
X5267Y17021D02*
D03*
X8288Y14724D02*
D03*
X9391Y17795D02*
D03*
X4789Y21041D02*
D03*
X8308Y13002D02*
D03*
X9744Y19062D02*
D03*
X8643Y20039D02*
D03*
X12707Y17750D02*
D03*
X5737Y15781D02*
D03*
X8377Y19764D02*
D03*
X4287Y19821D02*
D03*
X7737Y19351D02*
D03*
X8088Y16038D02*
D03*
X21537Y10701D02*
D03*
X3667Y21071D02*
D03*
X28267Y22771D02*
D03*
X32757Y17261D02*
D03*
X32907Y16331D02*
D03*
X33467Y16071D02*
D03*
X34817Y16081D02*
D03*
X34147Y17981D02*
D03*
X35537Y17271D02*
D03*
X36647Y18341D02*
D03*
Y20251D02*
D03*
X37607Y19261D02*
D03*
X38277Y18961D02*
D03*
X38267Y18181D02*
D03*
X37307Y17111D02*
D03*
X35817Y18391D02*
D03*
X37437Y18401D02*
D03*
X32747Y11961D02*
D03*
X33477Y10941D02*
D03*
X33707Y12981D02*
D03*
X34797D02*
D03*
X35637Y11981D02*
D03*
X38027Y11111D02*
D03*
X38007Y13311D02*
D03*
X37557Y12791D02*
D03*
X36647Y13681D02*
D03*
X35717Y12761D02*
D03*
X36637Y11781D02*
D03*
X38227Y12221D02*
D03*
X34357Y13591D02*
D03*
X36477Y10941D02*
D03*
X30547Y8171D02*
D03*
X31127Y6321D02*
D03*
X31847Y6171D02*
D03*
X32777Y9571D02*
D03*
X32667Y8971D02*
D03*
X32767Y8371D02*
D03*
X32377Y7991D02*
D03*
X31887Y8161D02*
D03*
X35447Y9351D02*
D03*
X35407Y8401D02*
D03*
X35357Y8971D02*
D03*
X36357Y8411D02*
D03*
X38027Y6781D02*
D03*
X36647Y7241D02*
D03*
X36667Y5331D02*
D03*
X35807Y5841D02*
D03*
X37587Y6281D02*
D03*
X36137Y4411D02*
D03*
X36137Y3201D02*
D03*
X37639Y3953D02*
D03*
X30547Y2781D02*
D03*
X30267Y20591D02*
D03*
X32267D02*
D03*
X33267Y20401D02*
D03*
X32947Y21181D02*
D03*
X34227Y21591D02*
D03*
X34157Y20581D02*
D03*
X34267Y19591D02*
D03*
X33267D02*
D03*
Y18591D02*
D03*
X35139Y21343D02*
D03*
X25797Y7581D02*
D03*
Y8081D02*
D03*
X27787Y13051D02*
D03*
X34667Y25571D02*
D03*
X3447Y22441D02*
D03*
X27747Y8831D02*
D03*
X27657Y9741D02*
D03*
X26177Y7581D02*
D03*
X26147Y8041D02*
D03*
X31267Y20591D02*
D03*
X32257Y21221D02*
D03*
X31467Y21361D02*
D03*
X30429Y22773D02*
D03*
X29829D02*
D03*
X29239D02*
D03*
X33877Y26431D02*
D03*
X32847Y1841D02*
D03*
X34077Y7891D02*
D03*
X34727Y6121D02*
D03*
X33457Y6161D02*
D03*
X33777Y4191D02*
D03*
X33427Y5211D02*
D03*
X35837Y2691D02*
D03*
X36417Y2701D02*
D03*
X33407Y2781D02*
D03*
X35579Y2213D02*
D03*
X34057Y22641D02*
D03*
X33677D02*
D03*
X34239Y12933D02*
D03*
X34129Y16153D02*
D03*
X38779Y30481D02*
D03*
X40179D02*
D03*
Y31881D02*
D03*
X38779D02*
D03*
X38479Y31181D02*
D03*
X40479D02*
D03*
X39479Y32181D02*
D03*
Y30181D02*
D03*
Y54197D02*
D03*
Y56197D02*
D03*
X40479Y55197D02*
D03*
X38479D02*
D03*
X38779Y55897D02*
D03*
X40179D02*
D03*
Y54497D02*
D03*
X38779D02*
D03*
X2078Y54197D02*
D03*
Y56197D02*
D03*
X3078Y55197D02*
D03*
X1078D02*
D03*
X1378Y55897D02*
D03*
X2778D02*
D03*
Y54497D02*
D03*
X1378D02*
D03*
X2078Y30181D02*
D03*
Y32181D02*
D03*
X3078Y31181D02*
D03*
X1078D02*
D03*
X1378Y31881D02*
D03*
X2778D02*
D03*
Y30481D02*
D03*
X1378D02*
D03*
X21957Y45842D02*
D03*
X28660Y51551D02*
D03*
X17385Y48468D02*
D03*
X35362Y39478D02*
D03*
X28889Y43633D02*
D03*
X12101Y41653D02*
D03*
X12057Y43485D02*
D03*
X15829Y40915D02*
D03*
X34749Y31613D02*
D03*
X34099Y35073D02*
D03*
X29879Y41733D02*
D03*
X1659Y46963D02*
D03*
X27519Y44713D02*
D03*
X31607Y33720D02*
D03*
X8809Y54003D02*
D03*
X9109D02*
D03*
X30137Y48840D02*
D03*
X30117Y47410D02*
D03*
X36637Y52290D02*
D03*
X13109Y54003D02*
D03*
X12809D02*
D03*
X20587Y40700D02*
D03*
X3687Y49020D02*
D03*
X3909Y48760D02*
D03*
X5257Y42760D02*
D03*
X5267Y42020D02*
D03*
Y42340D02*
D03*
X6607Y45370D02*
D03*
X22677Y44160D02*
D03*
X22187Y42890D02*
D03*
X22297Y42010D02*
D03*
X22647Y46990D02*
D03*
X20619Y41853D02*
D03*
X21827Y40610D02*
D03*
X30647Y51980D02*
D03*
X20227Y42540D02*
D03*
X24217Y39090D02*
D03*
X25797Y35850D02*
D03*
X26177Y35840D02*
D03*
X35737Y51310D02*
D03*
X36637Y50330D02*
D03*
X26357Y33160D02*
D03*
X25437Y33157D02*
D03*
Y32630D02*
D03*
X26357D02*
D03*
X25437Y32110D02*
D03*
X26357D02*
D03*
X29837Y30630D02*
D03*
X29387Y30050D02*
D03*
X28907D02*
D03*
X29837Y31060D02*
D03*
Y30210D02*
D03*
X30127Y48130D02*
D03*
X4987Y46520D02*
D03*
X5267Y45800D02*
D03*
X8288Y43504D02*
D03*
X9391Y46575D02*
D03*
X4789Y49821D02*
D03*
X8308Y41782D02*
D03*
X9744Y47842D02*
D03*
X8643Y48819D02*
D03*
X12707Y46529D02*
D03*
X5737Y44560D02*
D03*
X8377Y48543D02*
D03*
X4287Y48600D02*
D03*
X7737Y48130D02*
D03*
X8088Y44817D02*
D03*
X21537Y39480D02*
D03*
X3667Y49850D02*
D03*
X28267Y51550D02*
D03*
X32757Y46040D02*
D03*
X32907Y45110D02*
D03*
X33467Y44850D02*
D03*
X34817Y44860D02*
D03*
X34147Y46760D02*
D03*
X35537Y46050D02*
D03*
X36647Y47120D02*
D03*
Y49030D02*
D03*
X37607Y48040D02*
D03*
X38277Y47740D02*
D03*
X38267Y46960D02*
D03*
X37307Y45890D02*
D03*
X35817Y47170D02*
D03*
X37437Y47180D02*
D03*
X32747Y40740D02*
D03*
X33477Y39720D02*
D03*
X33707Y41760D02*
D03*
X34797D02*
D03*
X35637Y40760D02*
D03*
X38027Y39890D02*
D03*
X38007Y42090D02*
D03*
X37557Y41570D02*
D03*
X36647Y42460D02*
D03*
X35717Y41540D02*
D03*
X36637Y40560D02*
D03*
X38227Y41000D02*
D03*
X34357Y42370D02*
D03*
X36477Y39720D02*
D03*
X30547Y36950D02*
D03*
X31127Y35100D02*
D03*
X31847Y34950D02*
D03*
X32777Y38350D02*
D03*
X32667Y37750D02*
D03*
X32767Y37150D02*
D03*
X32377Y36770D02*
D03*
X31887Y36940D02*
D03*
X35447Y38130D02*
D03*
X35407Y37180D02*
D03*
X35357Y37750D02*
D03*
X36357Y37190D02*
D03*
X38027Y35560D02*
D03*
X36647Y36020D02*
D03*
X36667Y34110D02*
D03*
X35807Y34620D02*
D03*
X37587Y35060D02*
D03*
X36137Y33190D02*
D03*
X36137Y31980D02*
D03*
X37639Y32733D02*
D03*
X30547Y31560D02*
D03*
X30267Y49370D02*
D03*
X32267D02*
D03*
X33267Y49180D02*
D03*
X32947Y49960D02*
D03*
X34227Y50370D02*
D03*
X34157Y49360D02*
D03*
X34267Y48370D02*
D03*
X33267D02*
D03*
Y47370D02*
D03*
X35139Y50123D02*
D03*
X25797Y36360D02*
D03*
Y36860D02*
D03*
X27787Y41830D02*
D03*
X34667Y54350D02*
D03*
X3447Y51220D02*
D03*
X27747Y37610D02*
D03*
X27657Y38520D02*
D03*
X26177Y36360D02*
D03*
X26147Y36820D02*
D03*
X31267Y49370D02*
D03*
X32257Y50000D02*
D03*
X31467Y50140D02*
D03*
X30429Y51553D02*
D03*
X29829D02*
D03*
X29239D02*
D03*
X33877Y55210D02*
D03*
X32847Y30620D02*
D03*
X34077Y36670D02*
D03*
X34727Y34900D02*
D03*
X33457Y34940D02*
D03*
X33777Y32970D02*
D03*
X33427Y33990D02*
D03*
X35837Y31470D02*
D03*
X36417Y31480D02*
D03*
X33407Y31560D02*
D03*
X35579Y30993D02*
D03*
X34057Y51420D02*
D03*
X33677D02*
D03*
X34239Y41713D02*
D03*
X34129Y44933D02*
D03*
G54D150*
X39479Y-26378D02*
D03*
Y-2362D02*
D03*
X2078D02*
D03*
Y-26378D02*
D03*
X39479Y2402D02*
D03*
Y26417D02*
D03*
X2078D02*
D03*
Y2402D02*
D03*
X39479Y31181D02*
D03*
Y55197D02*
D03*
X2078D02*
D03*
Y31181D02*
D03*
G54D151*
X36637Y-6244D02*
D03*
Y-9494D02*
D03*
Y-15994D02*
D03*
Y-22494D02*
D03*
Y22536D02*
D03*
Y19286D02*
D03*
Y12786D02*
D03*
Y6286D02*
D03*
Y51315D02*
D03*
Y48065D02*
D03*
Y41565D02*
D03*
Y35065D02*
D03*
G54D152*
Y-12744D02*
D03*
Y-19244D02*
D03*
Y16036D02*
D03*
Y9536D02*
D03*
Y44815D02*
D03*
Y38315D02*
D03*
M02*
