G04 Generated on UCAM*
%FSLAX24Y24*%
%MOIN*%
%IPPOS*%
%AMCOM10*
4,1-$1,48,
-0.05935,0.00000,
-0.05884,0.00775,-0.05733,0.01536,-0.05483,0.02271,-0.05140,0.02968,-0.04709,0.03613,
-0.04197,0.04197,-0.03613,0.04709,-0.02968,0.05140,-0.02271,0.05483,-0.01536,0.05733,
-0.00775,0.05884,0.00000,0.05935,0.00775,0.05884,0.01536,0.05733,0.02271,0.05483,
0.02968,0.05140,0.03613,0.04709,0.04197,0.04197,0.04709,0.03613,0.05140,0.02968,
0.05483,0.02271,0.05733,0.01536,0.05884,0.00775,0.05935,0.00000,0.05884,-0.00775,
0.05733,-0.01536,0.05483,-0.02271,0.05140,-0.02968,0.04709,-0.03613,0.04197,-0.04197,
0.03613,-0.04709,0.02968,-0.05140,0.02271,-0.05483,0.01536,-0.05733,0.00775,-0.05884,
0.00000,-0.05935,-0.00775,-0.05884,-0.01536,-0.05733,-0.02271,-0.05483,-0.02968,-0.05140,
-0.03613,-0.04709,-0.04197,-0.04197,-0.04709,-0.03613,-0.05140,-0.02968,-0.05483,-0.02271,
-0.05733,-0.01536,-0.05884,-0.00775,-0.05935,0.00000,$2*
%
%ADD10COM10,0X0.00*%
%ADD11R,0.03540X0.06180*%
%ADD12R,0.02760X0.01460*%
%ADD13R,0.03550X0.01570*%
%ADD14C,0.06200*%
%AMREC*21,1-$4,$1,$2,0,0,$3*%
%ADD15REC,0.01706X0.01706X45.00X0*%
%ADD16C,0.03200*%
%ADD17C,0.06000*%
%ADD18C,0.06510*%
%ADD19R,0.04800X0.01500*%
%ADD20R,0.05500X0.01900*%
%ADD21R,0.17000X0.10600*%
%ADD22R,0.07290X0.04930*%
%ADD23R,0.02770X0.02570*%
%ADD24R,0.02570X0.02770*%
%ADD25R,0.10100X0.14100*%
%AMCOM26*
4,1-$1,24,
-0.01500,0.00668,
-0.01465,0.00889,-0.01360,0.01096,-0.01196,0.01260,-0.00989,0.01365,-0.00768,0.01400,
0.00768,0.01400,0.00989,0.01365,0.01196,0.01260,0.01360,0.01096,0.01465,0.00889,
0.01500,0.00668,0.01500,-0.00667,0.01475,-0.00853,0.01376,-0.01072,0.01211,-0.01248,
0.00998,-0.01362,0.00768,-0.01400,-0.00768,-0.01400,-0.00989,-0.01365,-0.01196,-0.01260,
-0.01360,-0.01096,-0.01465,-0.00889,-0.01500,-0.00668,-0.01500,0.00668,$2*
%
%ADD26COM26,0X0.00*%
%ADD27R,0.02170X0.07400*%
%AMCOM28*
4,1-$1,28,
-0.01755,0.01392,
-0.01723,0.01631,-0.01622,0.01858,-0.01462,0.02049,-0.01256,0.02188,-0.01019,0.02263,
-0.00783,0.02270,0.00783,0.02270,0.01019,0.02263,0.01256,0.02188,0.01462,0.02049,
0.01622,0.01858,0.01723,0.01631,0.01755,0.01392,0.01755,-0.01392,0.01723,-0.01631,
0.01622,-0.01858,0.01462,-0.02049,0.01256,-0.02188,0.01019,-0.02263,0.00783,-0.02270,
-0.00783,-0.02270,-0.01019,-0.02263,-0.01256,-0.02188,-0.01462,-0.02049,-0.01622,-0.01858,
-0.01723,-0.01631,-0.01755,-0.01392,-0.01755,0.01392,$2*
%
%ADD28COM28,0X0.00*%
%ADD29R,0.03240X0.04060*%
%AMCOM30*
4,1-$1,24,
-0.01400,0.00768,
-0.01365,0.00989,-0.01260,0.01196,-0.01096,0.01360,-0.00889,0.01465,-0.00668,0.01500,
0.00668,0.01500,0.00889,0.01465,0.01096,0.01360,0.01260,0.01196,0.01365,0.00989,
0.01400,0.00768,0.01400,-0.00767,0.01375,-0.00953,0.01276,-0.01172,0.01111,-0.01348,
0.00898,-0.01462,0.00668,-0.01500,-0.00668,-0.01500,-0.00889,-0.01465,-0.01096,-0.01360,
-0.01260,-0.01196,-0.01365,-0.00989,-0.01400,-0.00768,-0.01400,0.00768,$2*
%
%ADD30COM30,0X0.00*%
%ADD31R,0.03400X0.06200*%
%ADD32R,0.06200X0.03400*%
%AMCOM33*
4,1-$1,33,
-0.01741,0.00070,
-0.01716,0.00261,-0.01642,0.00439,-0.01587,0.00512,-0.01598,0.00523,-0.00523,0.01598,
-0.00510,0.01585,-0.00405,0.01661,-0.00186,0.01732,0.00045,0.01732,0.00264,0.01662,
0.00370,0.01586,0.00382,0.01598,0.01598,0.00382,0.01586,0.00370,0.01662,0.00264,
0.01732,0.00045,0.01732,-0.00186,0.01661,-0.00405,0.01585,-0.00510,0.01598,-0.00523,
0.00523,-0.01598,0.00510,-0.01585,0.00405,-0.01661,0.00186,-0.01732,-0.00045,-0.01732,
-0.00264,-0.01662,-0.00370,-0.01586,-0.00382,-0.01598,-0.01598,-0.00382,-0.01587,-0.00371,
-0.01643,-0.00298,-0.01716,-0.00120,-0.01741,0.00070,$2*
%
%ADD33COM33,0X0.00*%
%ADD34R,0.06510X0.09770*%
%ADD35R,0.06030X0.07690*%
%ADD36R,0.02600X0.03400*%
%ADD37R,0.05600X0.02100*%
%ADD38R,0.08500X0.08500*%
%AMCOM39*
4,1-$1,56,
-0.03800,0.00000,
-0.03776,0.00425,-0.03704,0.00846,-0.03586,0.01255,-0.03423,0.01649,-0.03217,0.02022,
-0.02971,0.02369,-0.02687,0.02687,-0.02369,0.02971,-0.02022,0.03217,-0.01649,0.03423,
-0.01255,0.03586,-0.00846,0.03704,-0.00425,0.03776,0.00000,0.03800,0.00425,0.03776,
0.00846,0.03704,0.01255,0.03586,0.01649,0.03423,0.02022,0.03217,0.02369,0.02971,
0.02687,0.02687,0.02971,0.02369,0.03217,0.02022,0.03423,0.01649,0.03586,0.01255,
0.03704,0.00846,0.03776,0.00425,0.03800,0.00000,0.03776,-0.00425,0.03704,-0.00846,
0.03586,-0.01255,0.03423,-0.01649,0.03217,-0.02022,0.02971,-0.02369,0.02687,-0.02687,
0.02369,-0.02971,0.02022,-0.03217,0.01649,-0.03423,0.01255,-0.03586,0.00846,-0.03704,
0.00425,-0.03776,0.00000,-0.03800,-0.00425,-0.03776,-0.00846,-0.03704,-0.01255,-0.03586,
-0.01649,-0.03423,-0.02022,-0.03217,-0.02369,-0.02971,-0.02687,-0.02687,-0.02971,-0.02369,
-0.03217,-0.02022,-0.03423,-0.01649,-0.03586,-0.01255,-0.03704,-0.00846,-0.03776,-0.00425,
-0.03800,0.00000,$2*
%
%ADD39COM39,0X0.00*%
%ADD40R,0.13200X0.06900*%
%AMCOM41*
4,1-$1,36,
-0.02900,0.01705,
-0.02870,0.02012,-0.02779,0.02312,-0.02631,0.02589,-0.02432,0.02832,-0.02189,0.03031,
-0.01913,0.03179,-0.01612,0.03270,-0.01305,0.03300,0.01305,0.03300,0.01612,0.03270,
0.01912,0.03179,0.02189,0.03031,0.02432,0.02832,0.02631,0.02589,0.02779,0.02312,
0.02870,0.02012,0.02900,0.01705,0.02900,-0.01704,0.02876,-0.01979,0.02790,-0.02285,
0.02644,-0.02568,0.02446,-0.02817,0.02202,-0.03022,0.01922,-0.03175,0.01617,-0.03269,
0.01305,-0.03300,-0.01305,-0.03300,-0.01612,-0.03270,-0.01912,-0.03179,-0.02189,-0.03031,
-0.02432,-0.02832,-0.02631,-0.02589,-0.02779,-0.02312,-0.02870,-0.02012,-0.02900,-0.01705,
-0.02900,0.01705,$2*
%
%ADD41COM41,0X0.00*%
%ADD42R,0.05800X0.04800*%
%ADD43R,0.02600X0.03200*%
%AMCOM44*
4,1-$1,31,
-0.02275,-0.00876,
-0.02274,-0.00837,-0.02272,-0.00804,-0.02270,-0.00777,-0.02270,0.00783,-0.02263,0.01019,
-0.02188,0.01256,-0.02049,0.01462,-0.01858,0.01622,-0.01631,0.01723,-0.01392,0.01755,
0.01392,0.01755,0.01631,0.01723,0.01858,0.01622,0.02049,0.01462,0.02188,0.01256,
0.02263,0.01019,0.02270,0.00783,0.02270,-0.00783,0.02263,-0.01019,0.02188,-0.01256,
0.02049,-0.01462,0.01858,-0.01622,0.01631,-0.01723,0.01392,-0.01755,-0.01391,-0.01755,
-0.01615,-0.01727,-0.01830,-0.01639,-0.02014,-0.01498,-0.02156,-0.01315,-0.02245,-0.01100,
-0.02275,-0.00876,$2*
%
%ADD44COM44,0X0.00*%
%ADD45O,0.01580X0.05720*%
%ADD46O,0.05620X0.01480*%
%ADD47O,0.05720X0.01580*%
%ADD48R,0.03000X0.03000*%
%AMCOM49*
4,1-$1,46,
-0.03855,-0.01584,
-0.03854,-0.01533,-0.03853,-0.01486,-0.03850,-0.01444,-0.03850,0.01448,-0.03847,0.01762,
-0.03788,0.02079,-0.03676,0.02381,-0.03513,0.02660,-0.03306,0.02906,-0.03059,0.03114,
-0.02781,0.03276,-0.02479,0.03388,-0.02162,0.03447,-0.01847,0.03450,0.01847,0.03450,
0.02162,0.03447,0.02479,0.03388,0.02781,0.03276,0.03059,0.03114,0.03306,0.02906,
0.03514,0.02659,0.03676,0.02381,0.03788,0.02079,0.03847,0.01762,0.03850,0.01447,
0.03850,-0.01447,0.03847,-0.01762,0.03788,-0.02079,0.03676,-0.02381,0.03514,-0.02659,
0.03306,-0.02906,0.03060,-0.03113,0.02781,-0.03276,0.02479,-0.03388,0.02162,-0.03447,
0.01848,-0.03450,-0.01848,-0.03450,-0.02182,-0.03444,-0.02518,-0.03377,-0.02835,-0.03249,
-0.03125,-0.03066,-0.03376,-0.02833,-0.03580,-0.02558,-0.03731,-0.02251,-0.03824,-0.01921,
-0.03855,-0.01584,$2*
%
%ADD49COM49,0X0.00*%
%ADD50R,0.13990X0.06110*%
%ADD51R,0.03000X0.06600*%
%ADD52R,0.05400X0.05400*%
%AMCOM53*
4,1-$1,46,
-0.02750,0.00000,
-0.02724,0.00374,-0.02648,0.00742,-0.02522,0.01096,-0.02350,0.01429,-0.02133,0.01736,
-0.01877,0.02010,-0.01586,0.02247,-0.01265,0.02442,-0.00921,0.02591,-0.00560,0.02693,
-0.00188,0.02744,0.00188,0.02744,0.00560,0.02693,0.00921,0.02591,0.01265,0.02442,
0.01586,0.02247,0.01877,0.02010,0.02133,0.01736,0.02350,0.01429,0.02522,0.01096,
0.02648,0.00742,0.02724,0.00374,0.02750,0.00000,0.02724,-0.00374,0.02648,-0.00742,
0.02522,-0.01096,0.02350,-0.01429,0.02133,-0.01736,0.01877,-0.02010,0.01586,-0.02247,
0.01265,-0.02442,0.00921,-0.02591,0.00560,-0.02693,0.00188,-0.02744,-0.00188,-0.02744,
-0.00560,-0.02693,-0.00921,-0.02591,-0.01265,-0.02442,-0.01586,-0.02247,-0.01877,-0.02010,
-0.02133,-0.01736,-0.02350,-0.01429,-0.02522,-0.01096,-0.02648,-0.00742,-0.02724,-0.00374,
-0.02750,0.00000,$2*
%
%ADD53COM53,0X0.00*%
%ADD54R,0.14770X0.16740*%
%ADD55O,0.01480X0.03850*%
%ADD56O,0.01580X0.03950*%
%ADD57O,0.03850X0.01480*%
%AMCOM58*
4,1-$1,24,
-0.00800,0.01139,
-0.00765,0.01348,-0.00667,0.01539,-0.00514,0.01690,-0.00322,0.01787,-0.00114,0.01820,
0.00114,0.01820,0.00322,0.01787,0.00514,0.01690,0.00667,0.01539,0.00765,0.01348,
0.00800,0.01139,0.00800,-0.01139,0.00765,-0.01348,0.00667,-0.01539,0.00514,-0.01690,
0.00322,-0.01787,0.00114,-0.01820,-0.00114,-0.01820,-0.00322,-0.01787,-0.00514,-0.01690,
-0.00667,-0.01539,-0.00765,-0.01348,-0.00800,-0.01139,-0.00800,0.01139,$2*
%
%ADD58COM58,0X0.00*%
%AMCOM59*
4,1-$1,24,
-0.01820,0.00114,
-0.01787,0.00322,-0.01690,0.00514,-0.01539,0.00667,-0.01348,0.00765,-0.01139,0.00800,
0.01139,0.00800,0.01348,0.00765,0.01539,0.00667,0.01690,0.00514,0.01787,0.00322,
0.01820,0.00114,0.01820,-0.00113,0.01797,-0.00289,0.01705,-0.00493,0.01553,-0.00656,
0.01356,-0.00763,0.01139,-0.00800,-0.01139,-0.00800,-0.01348,-0.00765,-0.01539,-0.00667,
-0.01690,-0.00514,-0.01787,-0.00322,-0.01820,-0.00114,-0.01820,0.00114,$2*
%
%ADD59COM59,0X0.00*%
%ADD60R,0.14300X0.14300*%
%ADD61R,0.02960X0.03750*%
%ADD62R,0.03750X0.02770*%
%ADD63R,0.02770X0.01580*%
%ADD64R,0.01390X0.06900*%
%ADD65R,0.02270X0.01680*%
%ADD66R,0.02370X0.01780*%
%ADD67R,0.08670X0.08670*%
%ADD68O,0.01700X0.03750*%
%ADD69O,0.03750X0.01700*%
%ADD70R,0.01780X0.02370*%
%ADD71R,0.04060X0.03240*%
%ADD72R,0.06110X0.13990*%
%AMCOM73*
4,1-$1,46,
-0.03455,-0.01984,
-0.03454,-0.01933,-0.03453,-0.01886,-0.03450,-0.01844,-0.03450,0.01848,-0.03447,0.02162,
-0.03388,0.02479,-0.03276,0.02781,-0.03113,0.03060,-0.02906,0.03306,-0.02659,0.03514,
-0.02381,0.03676,-0.02079,0.03788,-0.01762,0.03847,-0.01447,0.03850,0.01447,0.03850,
0.01762,0.03847,0.02079,0.03788,0.02381,0.03676,0.02659,0.03514,0.02906,0.03306,
0.03114,0.03059,0.03276,0.02781,0.03388,0.02479,0.03447,0.02162,0.03450,0.01847,
0.03450,-0.01847,0.03447,-0.02162,0.03388,-0.02479,0.03276,-0.02781,0.03114,-0.03059,
0.02906,-0.03306,0.02660,-0.03513,0.02381,-0.03676,0.02079,-0.03788,0.01762,-0.03847,
0.01448,-0.03850,-0.01448,-0.03850,-0.01782,-0.03844,-0.02118,-0.03777,-0.02435,-0.03649,
-0.02725,-0.03466,-0.02976,-0.03233,-0.03180,-0.02958,-0.03331,-0.02651,-0.03424,-0.02321,
-0.03455,-0.01984,$2*
%
%ADD73COM73,0X0.00*%
%ADD74R,0.03750X0.02960*%
%ADD75R,0.04800X0.05800*%
%ADD76R,0.07690X0.06030*%
%ADD77R,0.06510X0.06510*%
%ADD78O,0.08850X0.17100*%
%AMCOM79*
4,1-$1,8,
-0.04450,0.04722,
-0.02211,0.06950,0.02211,0.06950,0.04450,0.04722,0.04450,-0.04722,0.02211,-0.06950,
-0.02211,-0.06950,-0.04450,-0.04722,-0.04450,0.04722,$2*
%
%ADD79COM79,0X0.00*%
%AMBOXS*
$10=$1/2*$11=$2/2*$12=$10-$3*$13=$11-$4*
4,1-$6,8,0-$12,$11,$12,$11,$10,$13,$10,0-$13,$12,0-$11,0-$12,0-$11,0-$10,0-$13,0-$10,$13,0-$12,$11,$5*%
%ADD80BOXS,0.06796X0.06796X0.01991X0.01991X45.00X0*%
%ADD81C,0.13650*%
%ADD82BOXS,0.07600X0.07600X0.02226X0.02226X45.00X0*%
%ADD83C,0.10600*%
%ADD84R,0.12600X0.06600*%
%ADD85O,0.12600X0.06600*%
%ADD86R,0.06600X0.12600*%
%ADD87O,0.06600X0.12600*%
%ADD88C,0.14200*%
%ADD89R,0.14200X0.14200*%
%ADD90C,0.08600*%
%SRX1Y1I0.0000J0.0000*%
%LN29384_csmask*%
%LPD*%
D10*
X51800Y98572D03*
Y10600D03*
X13061Y10561D03*
D11*
X44125Y35803D03*
X44794D03*
X44125Y64583D03*
X44794D03*
X44125Y93362D03*
X44794D03*
D12*
X44833Y36217D03*
Y36394D03*
Y36571D03*
X44085D03*
Y36394D03*
Y36217D03*
X44833Y64997D03*
Y65174D03*
Y65351D03*
X44085D03*
Y65174D03*
Y64997D03*
X44833Y93776D03*
Y93953D03*
Y94130D03*
X44085D03*
Y93953D03*
Y93776D03*
D13*
X31683Y31359D03*
Y31162D03*
Y30965D03*
Y30769D03*
X32943Y31359D03*
Y31162D03*
Y30965D03*
Y30769D03*
X31683Y60139D03*
Y59942D03*
Y59745D03*
Y59549D03*
X32943Y60139D03*
Y59942D03*
Y59745D03*
Y59549D03*
X31683Y88918D03*
Y88721D03*
Y88524D03*
Y88328D03*
X32943Y88918D03*
Y88721D03*
Y88524D03*
Y88328D03*
G36*
X44155Y60338D02*
Y59934D01*
X44057*
Y58596*
X42403*
Y59934*
X42305*
Y60338*
X44155*
G37*
G36*
X44155Y89117D02*
Y88713D01*
X44057*
Y87375*
X42403*
Y88713*
X42305*
Y89117*
X44155*
G37*
G36*
X44155Y31558D02*
Y31154D01*
X44057*
Y29816*
X42403*
Y31154*
X42305*
Y31558*
X44155*
G37*
G36*
X38515Y46590D02*
X38918D01*
Y46492*
X40257*
Y44838*
X38918*
Y44740*
X38515*
Y46590*
G37*
G36*
X38515Y75369D02*
X38918D01*
Y75271*
X40257*
Y73617*
X38918*
Y73519*
X38515*
Y75369*
G37*
G36*
X38515Y17810D02*
X38918D01*
Y17712*
X40257*
Y16058*
X38918*
Y15960*
X38515*
Y17810*
G37*
G36*
X27673Y77017D02*
X27614Y77076D01*
Y77120*
X27775*
Y77017*
X27673*
G37*
G36*
X27673Y48238D02*
X27614Y48297D01*
Y48341*
X27775*
Y48238*
X27673*
G37*
G36*
X27673Y19458D02*
X27614Y19517D01*
Y19561*
X27775*
Y19458*
X27673*
G37*
G36*
X27389Y19458D02*
X27287D01*
Y19561*
X27448*
Y19517*
X27389Y19458*
G37*
G36*
X27389Y77017D02*
X27287D01*
Y77120*
X27448*
Y77076*
X27389Y77017*
G37*
G36*
X27389Y48238D02*
X27287D01*
Y48341*
X27448*
Y48297*
X27389Y48238*
G37*
G36*
X27614Y19242D02*
X27673Y19301D01*
X27775*
Y19199*
X27614*
Y19242*
G37*
G36*
X27614Y48022D02*
X27673Y48081D01*
X27775*
Y47979*
X27614*
Y48022*
G37*
G36*
X27614Y76801D02*
X27673Y76860D01*
X27775*
Y76758*
X27614*
Y76801*
G37*
G36*
X27448Y19242D02*
Y19199D01*
X27287*
Y19301*
X27389*
X27448Y19242*
G37*
G36*
X27448Y48022D02*
Y47979D01*
X27287*
Y48081*
X27389*
X27448Y48022*
G37*
G36*
X27448Y76801D02*
Y76758D01*
X27287*
Y76860*
X27389*
X27448Y76801*
G37*
D14*
X51575Y12835D03*
X50787D03*
X50236Y13386D03*
Y14173D03*
X50787Y14724D03*
X51575D03*
X52126Y14173D03*
Y13386D03*
Y37402D03*
Y38189D03*
X51575Y38740D03*
X50787D03*
X50236Y38189D03*
Y37402D03*
X50787Y36850D03*
X51575D03*
X14724Y37402D03*
Y38189D03*
X14173Y38740D03*
X13386D03*
X12835Y38189D03*
Y37402D03*
X13386Y36850D03*
X14173D03*
X14724Y13386D03*
Y14173D03*
X14173Y14724D03*
X13386D03*
X12835Y14173D03*
Y13386D03*
X13386Y12835D03*
X14173D03*
X51575Y41615D03*
X50787D03*
X50236Y42166D03*
Y42953D03*
X50787Y43504D03*
X51575D03*
X52126Y42953D03*
Y42166D03*
Y66182D03*
Y66969D03*
X51575Y67520D03*
X50787D03*
X50236Y66969D03*
Y66182D03*
X50787Y65630D03*
X51575D03*
X14724Y66182D03*
Y66969D03*
X14173Y67520D03*
X13386D03*
X12835Y66969D03*
Y66182D03*
X13386Y65630D03*
X14173D03*
X14724Y42166D03*
Y42953D03*
X14173Y43504D03*
X13386D03*
X12835Y42953D03*
Y42166D03*
X13386Y41615D03*
X14173D03*
X51575Y70394D03*
X50787D03*
X50236Y70945D03*
Y71732D03*
X50787Y72283D03*
X51575D03*
X52126Y71732D03*
Y70945D03*
Y94961D03*
Y95748D03*
X51575Y96299D03*
X50787D03*
X50236Y95748D03*
Y94961D03*
X50787Y94409D03*
X51575D03*
X14724Y94961D03*
Y95748D03*
X14173Y96299D03*
X13386D03*
X12835Y95748D03*
Y94961D03*
X13386Y94409D03*
X14173D03*
X14724Y70945D03*
Y71732D03*
X14173Y72283D03*
X13386D03*
X12835Y71732D03*
Y70945D03*
X13386Y70394D03*
X14173D03*
D15*
X27531Y19380D03*
Y48160D03*
Y76939D03*
D16*
X43630Y30096D03*
Y30496D03*
Y30896D03*
Y31296D03*
X42830D03*
Y30896D03*
Y30496D03*
Y30096D03*
X43230D03*
Y30496D03*
Y31296D03*
Y30896D03*
X39977Y17285D03*
X39577D03*
X39177D03*
X38777D03*
Y16485D03*
X39177D03*
X39577D03*
X39977D03*
Y16885D03*
X39577D03*
X38777D03*
X39177D03*
X32625Y18659D03*
X33492Y17359D03*
X33059D03*
X32625D03*
X33492Y17793D03*
X33059D03*
X32625D03*
X33492Y18226D03*
X33059D03*
X32625D03*
X33492Y18659D03*
X33059D03*
X19769Y29069D03*
Y29443D03*
X19392Y29446D03*
X19396Y29069D03*
X19394Y28685D03*
X19769Y28694D03*
X20143D03*
Y29069D03*
Y29443D03*
X14445Y19019D03*
X14878D03*
X14012Y18586D03*
X14445D03*
X14878D03*
X14012Y18153D03*
X14445D03*
X14878D03*
X14012Y17719D03*
X14445D03*
X14878D03*
X14012Y19019D03*
X18918Y18659D03*
X19352D03*
X18485Y18226D03*
X18918D03*
X19352D03*
X18485Y17793D03*
X18918D03*
X19352D03*
X18485Y17359D03*
X18918D03*
X19352D03*
X18485Y18659D03*
X23419D03*
X23852D03*
X22985Y18226D03*
X23419D03*
X23852D03*
X22985Y17793D03*
X23419D03*
X23852D03*
X22985Y17359D03*
X23419D03*
X23852D03*
X22985Y18659D03*
X43630Y58876D03*
Y59276D03*
Y59676D03*
Y60076D03*
X42830D03*
Y59676D03*
Y59276D03*
Y58876D03*
X43230D03*
Y59276D03*
Y60076D03*
Y59676D03*
X39977Y46065D03*
X39577D03*
X39177D03*
X38777D03*
Y45265D03*
X39177D03*
X39577D03*
X39977D03*
Y45665D03*
X39577D03*
X38777D03*
X39177D03*
X32625Y47439D03*
X33492Y46139D03*
X33059D03*
X32625D03*
X33492Y46573D03*
X33059D03*
X32625D03*
X33492Y47006D03*
X33059D03*
X32625D03*
X33492Y47439D03*
X33059D03*
X19769Y57849D03*
Y58223D03*
X19392Y58226D03*
X19396Y57849D03*
X19394Y57465D03*
X19769Y57474D03*
X20143D03*
Y57849D03*
Y58223D03*
X14445Y47799D03*
X14878D03*
X14012Y47366D03*
X14445D03*
X14878D03*
X14012Y46933D03*
X14445D03*
X14878D03*
X14012Y46499D03*
X14445D03*
X14878D03*
X14012Y47799D03*
X18918Y47439D03*
X19352D03*
X18485Y47006D03*
X18918D03*
X19352D03*
X18485Y46573D03*
X18918D03*
X19352D03*
X18485Y46139D03*
X18918D03*
X19352D03*
X18485Y47439D03*
X23419D03*
X23852D03*
X22985Y47006D03*
X23419D03*
X23852D03*
X22985Y46573D03*
X23419D03*
X23852D03*
X22985Y46139D03*
X23419D03*
X23852D03*
X22985Y47439D03*
X43630Y87655D03*
Y88055D03*
Y88455D03*
Y88855D03*
X42830D03*
Y88455D03*
Y88055D03*
Y87655D03*
X43230D03*
Y88055D03*
Y88855D03*
Y88455D03*
X39977Y74844D03*
X39577D03*
X39177D03*
X38777D03*
Y74044D03*
X39177D03*
X39577D03*
X39977D03*
Y74444D03*
X39577D03*
X38777D03*
X39177D03*
X32625Y76218D03*
X33492Y74918D03*
X33059D03*
X32625D03*
X33492Y75352D03*
X33059D03*
X32625D03*
X33492Y75785D03*
X33059D03*
X32625D03*
X33492Y76218D03*
X33059D03*
X19769Y86628D03*
Y87002D03*
X19392Y87005D03*
X19396Y86628D03*
X19394Y86244D03*
X19769Y86253D03*
X20143D03*
Y86628D03*
Y87002D03*
X14445Y76578D03*
X14878D03*
X14012Y76145D03*
X14445D03*
X14878D03*
X14012Y75712D03*
X14445D03*
X14878D03*
X14012Y75278D03*
X14445D03*
X14878D03*
X14012Y76578D03*
X18918Y76218D03*
X19352D03*
X18485Y75785D03*
X18918D03*
X19352D03*
X18485Y75352D03*
X18918D03*
X19352D03*
X18485Y74918D03*
X18918D03*
X19352D03*
X18485Y76218D03*
X23419D03*
X23852D03*
X22985Y75785D03*
X23419D03*
X23852D03*
X22985Y75352D03*
X23419D03*
X23852D03*
X22985Y74918D03*
X23419D03*
X23852D03*
X22985Y76218D03*
D17*
X16427Y26665D03*
Y27657D03*
X15637D03*
Y26665D03*
X16427Y55445D03*
Y56437D03*
X15637D03*
Y55445D03*
X16427Y84224D03*
Y85216D03*
X15637D03*
Y84224D03*
D18*
X38135Y37726D03*
Y36726D03*
Y35726D03*
Y34726D03*
Y33726D03*
Y66506D03*
Y65506D03*
Y64506D03*
Y63506D03*
Y62506D03*
Y95285D03*
Y94285D03*
Y93285D03*
Y92285D03*
Y91285D03*
X29708Y38409D03*
X30708Y37408D03*
Y38409D03*
X31709Y37408D03*
Y38409D03*
X32708Y37408D03*
Y38409D03*
X33709Y37408D03*
Y38409D03*
X37135Y33726D03*
Y34726D03*
Y35726D03*
Y36726D03*
X33709Y34659D03*
Y33658D03*
X32708Y34659D03*
Y33658D03*
X31709Y34659D03*
Y33658D03*
X30708Y34659D03*
Y33658D03*
X29708Y34659D03*
Y67189D03*
X30708Y66188D03*
Y67189D03*
X31709Y66188D03*
Y67189D03*
X32708Y66188D03*
Y67189D03*
X33709Y66188D03*
Y67189D03*
X37135Y62506D03*
Y63506D03*
Y64506D03*
Y65506D03*
X33709Y63439D03*
Y62438D03*
X32708Y63439D03*
Y62438D03*
X31709Y63439D03*
Y62438D03*
X30708Y63439D03*
Y62438D03*
X29708Y63439D03*
Y95968D03*
X30708Y94967D03*
Y95968D03*
X31709Y94967D03*
Y95968D03*
X32708Y94967D03*
Y95968D03*
X33709Y94967D03*
Y95968D03*
X37135Y91285D03*
Y92285D03*
Y93285D03*
Y94285D03*
X33709Y92218D03*
Y91217D03*
X32708Y92218D03*
Y91217D03*
X31709Y92218D03*
Y91217D03*
X30708Y92218D03*
Y91217D03*
X29708Y92218D03*
D19*
X22910Y25944D03*
Y25694D03*
Y25444D03*
Y25194D03*
Y24944D03*
Y24694D03*
Y24444D03*
Y24194D03*
X20870D03*
Y24444D03*
Y24694D03*
Y24944D03*
Y25194D03*
Y25444D03*
Y25694D03*
Y25944D03*
X22910Y54724D03*
Y54474D03*
Y54224D03*
Y53974D03*
Y53724D03*
Y53474D03*
Y53224D03*
Y52974D03*
X20870D03*
Y53224D03*
Y53474D03*
Y53724D03*
Y53974D03*
Y54224D03*
Y54474D03*
Y54724D03*
X22910Y83503D03*
Y83253D03*
Y83003D03*
Y82753D03*
Y82503D03*
Y82253D03*
Y82003D03*
Y81753D03*
X20870D03*
Y82003D03*
Y82253D03*
Y82503D03*
Y82753D03*
Y83003D03*
Y83253D03*
Y83503D03*
D20*
X22915Y25944D03*
Y25694D03*
Y25444D03*
Y25194D03*
Y24944D03*
Y24694D03*
Y24444D03*
Y24194D03*
X20865D03*
Y24444D03*
Y24694D03*
Y24944D03*
Y25194D03*
Y25444D03*
Y25694D03*
Y25944D03*
X22915Y54724D03*
Y54474D03*
Y54224D03*
Y53974D03*
Y53724D03*
Y53474D03*
Y53224D03*
Y52974D03*
X20865D03*
Y53224D03*
Y53474D03*
Y53724D03*
Y53974D03*
Y54224D03*
Y54474D03*
Y54724D03*
X22915Y83503D03*
Y83253D03*
Y83003D03*
Y82753D03*
Y82503D03*
Y82253D03*
Y82003D03*
Y81753D03*
X20865D03*
Y82003D03*
Y82253D03*
Y82503D03*
Y82753D03*
Y83003D03*
Y83253D03*
Y83503D03*
D21*
X29096Y20107D03*
Y48887D03*
Y77666D03*
D22*
X45559Y35130D03*
Y34067D03*
X40869Y34820D03*
Y33757D03*
X41689Y34820D03*
Y33757D03*
X42529Y34820D03*
Y33757D03*
X45559Y63910D03*
Y62847D03*
X40869Y63600D03*
Y62537D03*
X41689Y63600D03*
Y62537D03*
X42529Y63600D03*
Y62537D03*
X45559Y92689D03*
Y91626D03*
X40869Y92379D03*
Y91316D03*
X41689Y92379D03*
Y91316D03*
X42529Y92379D03*
Y91316D03*
D23*
X45782Y37684D03*
X45405D03*
X45352Y38151D03*
X44975D03*
X31586Y30379D03*
X31960D03*
X32069Y29024D03*
X32446D03*
X32092Y29490D03*
X32469D03*
X41175Y24878D03*
X40799D03*
X33887Y27618D03*
X33510D03*
X32254Y28630D03*
X32631D03*
X19808Y35151D03*
X19434D03*
X24002Y31014D03*
X24376D03*
X41574Y28201D03*
X41951D03*
X39838Y28091D03*
X39464D03*
X46572Y38232D03*
X46198D03*
X45782Y66464D03*
X45405D03*
X45352Y66931D03*
X44975D03*
X31586Y59159D03*
X31960D03*
X32069Y57804D03*
X32446D03*
X32092Y58270D03*
X32469D03*
X41175Y53658D03*
X40799D03*
X33887Y56398D03*
X33510D03*
X32254Y57410D03*
X32631D03*
X19808Y63931D03*
X19434D03*
X24002Y59794D03*
X24376D03*
X41574Y56981D03*
X41951D03*
X39838Y56871D03*
X39464D03*
X46572Y67012D03*
X46198D03*
X45782Y95243D03*
X45405D03*
X45352Y95710D03*
X44975D03*
X31586Y87938D03*
X31960D03*
X32069Y86583D03*
X32446D03*
X32092Y87049D03*
X32469D03*
X41175Y82437D03*
X40799D03*
X33887Y85177D03*
X33510D03*
X32254Y86189D03*
X32631D03*
X19808Y92710D03*
X19434D03*
X24002Y88573D03*
X24376D03*
X41574Y85760D03*
X41951D03*
X39838Y85650D03*
X39464D03*
X46572Y95791D03*
X46198D03*
D24*
X40060Y35414D03*
Y35037D03*
X43949Y37344D03*
Y37721D03*
X46219Y36845D03*
Y36468D03*
X40060Y64194D03*
Y63817D03*
X43949Y66124D03*
Y66501D03*
X46219Y65625D03*
Y65248D03*
X40060Y92973D03*
Y92596D03*
X43949Y94903D03*
Y95280D03*
X46219Y94404D03*
Y94027D03*
D25*
X40739Y36733D03*
X43039D03*
X40739Y65513D03*
X43039D03*
X40739Y94292D03*
X43039D03*
D26*
X45819Y36468D03*
Y36847D03*
X44965Y37719D03*
Y37340D03*
X45399Y36847D03*
Y36468D03*
X44469Y37719D03*
Y37340D03*
X45399Y35678D03*
Y36057D03*
X45819Y35678D03*
Y36057D03*
X31215Y31807D03*
Y31428D03*
X21171Y32568D03*
Y32194D03*
X20761Y32568D03*
Y32194D03*
X27718Y18553D03*
Y18927D03*
X27315Y18553D03*
Y18927D03*
X26911Y18553D03*
Y18927D03*
X23368Y31088D03*
Y31462D03*
X39421Y25939D03*
Y26313D03*
X16179Y19095D03*
Y18721D03*
X20295Y26093D03*
Y25719D03*
X23474Y26077D03*
Y25703D03*
X23484Y24025D03*
Y24399D03*
X20305Y23996D03*
Y24370D03*
X21999Y17112D03*
Y17486D03*
X16314Y30082D03*
Y30456D03*
X22649Y27875D03*
Y27501D03*
X17488Y17002D03*
Y17376D03*
X28799Y30943D03*
Y31317D03*
X20639Y18726D03*
Y18352D03*
X25139Y18736D03*
Y18362D03*
X27429Y38095D03*
Y38469D03*
X40254Y33479D03*
Y33105D03*
X31639Y17091D03*
Y17465D03*
X34789Y18736D03*
Y18362D03*
X30763Y23689D03*
Y23315D03*
X17699Y26031D03*
Y26405D03*
X22732Y28931D03*
Y29305D03*
X24409Y28825D03*
Y28451D03*
X31769Y25384D03*
Y25758D03*
X14739Y33535D03*
Y33161D03*
X47041Y21651D03*
Y21272D03*
X21711Y32521D03*
Y32142D03*
X20361Y32571D03*
Y32192D03*
X16914Y30079D03*
Y30458D03*
X19021Y35581D03*
Y35960D03*
X46511Y37867D03*
Y37488D03*
X28130Y31068D03*
Y30689D03*
X19421Y24131D03*
Y24510D03*
X46941Y30641D03*
Y30262D03*
X15998Y31950D03*
Y31571D03*
X15149Y33159D03*
Y33537D03*
X39854Y33102D03*
Y33481D03*
X26881Y30774D03*
Y31153D03*
X39849Y32257D03*
Y32636D03*
X40259D03*
Y32257D03*
X22876Y31430D03*
Y31051D03*
X35268Y18738D03*
Y18360D03*
X16759Y18128D03*
Y17750D03*
X25619Y18738D03*
Y18360D03*
X21249Y17929D03*
Y17550D03*
X29599Y31628D03*
Y31250D03*
X30143Y31639D03*
Y31260D03*
X30615Y31804D03*
Y31425D03*
X27285Y30774D03*
Y31153D03*
X43701Y27591D03*
Y27970D03*
X44111Y27591D03*
Y27970D03*
X40638Y25578D03*
Y25957D03*
X27405Y33444D03*
Y33823D03*
Y35402D03*
Y35023D03*
X27413Y34635D03*
Y34256D03*
X25744Y31824D03*
Y31445D03*
Y32591D03*
Y32212D03*
X25157Y31190D03*
Y30811D03*
X27429Y37698D03*
Y37319D03*
X27421Y38869D03*
Y39248D03*
X33609Y26328D03*
Y25950D03*
X33198Y26328D03*
Y25950D03*
X33038Y23389D03*
Y23767D03*
X33238Y28749D03*
Y29127D03*
X39395Y25227D03*
Y25606D03*
X34025Y27963D03*
Y28342D03*
X33795Y24174D03*
Y23795D03*
X24588Y26282D03*
Y26661D03*
X27403Y32674D03*
Y33053D03*
X27974Y20351D03*
Y20730D03*
X45819Y65248D03*
Y65627D03*
X44965Y66499D03*
Y66120D03*
X45399Y65627D03*
Y65248D03*
X44469Y66499D03*
Y66120D03*
X45399Y64458D03*
Y64837D03*
X45819Y64458D03*
Y64837D03*
X31215Y60587D03*
Y60208D03*
X21171Y61348D03*
Y60974D03*
X20761Y61348D03*
Y60974D03*
X27718Y47333D03*
Y47707D03*
X27315Y47333D03*
Y47707D03*
X26911Y47333D03*
Y47707D03*
X23368Y59868D03*
Y60242D03*
X39421Y54719D03*
Y55093D03*
X16179Y47875D03*
Y47501D03*
X20295Y54873D03*
Y54499D03*
X23474Y54857D03*
Y54483D03*
X23484Y52805D03*
Y53179D03*
X20305Y52776D03*
Y53150D03*
X21999Y45892D03*
Y46266D03*
X16314Y58862D03*
Y59236D03*
X22649Y56655D03*
Y56281D03*
X17488Y45782D03*
Y46156D03*
X28799Y59723D03*
Y60097D03*
X20639Y47506D03*
Y47132D03*
X25139Y47516D03*
Y47142D03*
X27429Y66875D03*
Y67249D03*
X40254Y62259D03*
Y61885D03*
X31639Y45871D03*
Y46245D03*
X34789Y47516D03*
Y47142D03*
X30763Y52469D03*
Y52095D03*
X17699Y54811D03*
Y55185D03*
X22732Y57711D03*
Y58085D03*
X24409Y57605D03*
Y57231D03*
X31769Y54164D03*
Y54538D03*
X14739Y62315D03*
Y61941D03*
X47041Y50431D03*
Y50052D03*
X21711Y61301D03*
Y60922D03*
X20361Y61351D03*
Y60972D03*
X16914Y58859D03*
Y59238D03*
X19021Y64361D03*
Y64740D03*
X46511Y66647D03*
Y66268D03*
X28130Y59848D03*
Y59469D03*
X19421Y52911D03*
Y53290D03*
X46941Y59421D03*
Y59042D03*
X15998Y60730D03*
Y60351D03*
X15149Y61939D03*
Y62317D03*
X39854Y61882D03*
Y62261D03*
X26881Y59554D03*
Y59933D03*
X39849Y61037D03*
Y61416D03*
X40259D03*
Y61037D03*
X22876Y60210D03*
Y59831D03*
X35268Y47518D03*
Y47140D03*
X16759Y46908D03*
Y46530D03*
X25619Y47518D03*
Y47140D03*
X21249Y46709D03*
Y46330D03*
X29599Y60408D03*
Y60030D03*
X30143Y60419D03*
Y60040D03*
X30615Y60584D03*
Y60205D03*
X27285Y59554D03*
Y59933D03*
X43701Y56371D03*
Y56750D03*
X44111Y56371D03*
Y56750D03*
X40638Y54358D03*
Y54737D03*
X27405Y62224D03*
Y62603D03*
Y64182D03*
Y63803D03*
X27413Y63415D03*
Y63036D03*
X25744Y60604D03*
Y60225D03*
Y61371D03*
Y60992D03*
X25157Y59970D03*
Y59591D03*
X27429Y66478D03*
Y66099D03*
X27421Y67649D03*
Y68028D03*
X33609Y55108D03*
Y54730D03*
X33198Y55108D03*
Y54730D03*
X33038Y52169D03*
Y52547D03*
X33238Y57529D03*
Y57907D03*
X39395Y54007D03*
Y54386D03*
X34025Y56743D03*
Y57122D03*
X33795Y52954D03*
Y52575D03*
X24588Y55062D03*
Y55441D03*
X27403Y61454D03*
Y61833D03*
X27974Y49131D03*
Y49510D03*
X45819Y94027D03*
Y94406D03*
X44965Y95278D03*
Y94899D03*
X45399Y94406D03*
Y94027D03*
X44469Y95278D03*
Y94899D03*
X45399Y93237D03*
Y93616D03*
X45819Y93237D03*
Y93616D03*
X31215Y89366D03*
Y88987D03*
X21171Y90127D03*
Y89753D03*
X20761Y90127D03*
Y89753D03*
X27718Y76112D03*
Y76486D03*
X27315Y76112D03*
Y76486D03*
X26911Y76112D03*
Y76486D03*
X23368Y88647D03*
Y89021D03*
X39421Y83498D03*
Y83872D03*
X16179Y76654D03*
Y76280D03*
X20295Y83652D03*
Y83278D03*
X23474Y83636D03*
Y83262D03*
X23484Y81584D03*
Y81958D03*
X20305Y81555D03*
Y81929D03*
X21999Y74671D03*
Y75045D03*
X16314Y87641D03*
Y88015D03*
X22649Y85434D03*
Y85060D03*
X17488Y74561D03*
Y74935D03*
X28799Y88502D03*
Y88876D03*
X20639Y76285D03*
Y75911D03*
X25139Y76295D03*
Y75921D03*
X27429Y95654D03*
Y96028D03*
X40254Y91038D03*
Y90664D03*
X31639Y74650D03*
Y75024D03*
X34789Y76295D03*
Y75921D03*
X30763Y81248D03*
Y80874D03*
X17699Y83590D03*
Y83964D03*
X22732Y86490D03*
Y86864D03*
X24409Y86384D03*
Y86010D03*
X31769Y82943D03*
Y83317D03*
X14739Y91094D03*
Y90720D03*
X47041Y79210D03*
Y78831D03*
X21711Y90080D03*
Y89701D03*
X20361Y90130D03*
Y89751D03*
X16914Y87638D03*
Y88017D03*
X19021Y93140D03*
Y93519D03*
X46511Y95426D03*
Y95047D03*
X28130Y88627D03*
Y88248D03*
X19421Y81690D03*
Y82069D03*
X46941Y88200D03*
Y87821D03*
X15998Y89509D03*
Y89130D03*
X15149Y90718D03*
Y91096D03*
X39854Y90661D03*
Y91040D03*
X26881Y88333D03*
Y88712D03*
X39849Y89816D03*
Y90195D03*
X40259D03*
Y89816D03*
X22876Y88989D03*
Y88610D03*
X35268Y76297D03*
Y75919D03*
X16759Y75687D03*
Y75309D03*
X25619Y76297D03*
Y75919D03*
X21249Y75488D03*
Y75109D03*
X29599Y89187D03*
Y88809D03*
X30143Y89198D03*
Y88819D03*
X30615Y89363D03*
Y88984D03*
X27285Y88333D03*
Y88712D03*
X43701Y85150D03*
Y85529D03*
X44111Y85150D03*
Y85529D03*
X40638Y83137D03*
Y83516D03*
X27405Y91003D03*
Y91382D03*
Y92961D03*
Y92582D03*
X27413Y92194D03*
Y91815D03*
X25744Y89383D03*
Y89004D03*
Y90150D03*
Y89771D03*
X25157Y88749D03*
Y88370D03*
X27429Y95257D03*
Y94878D03*
X27421Y96428D03*
Y96807D03*
X33609Y83887D03*
Y83509D03*
X33198Y83887D03*
Y83509D03*
X33038Y80948D03*
Y81326D03*
X33238Y86308D03*
Y86686D03*
X39395Y82786D03*
Y83165D03*
X34025Y85522D03*
Y85901D03*
X33795Y81733D03*
Y81354D03*
X24588Y83841D03*
Y84220D03*
X27403Y90233D03*
Y90612D03*
X27974Y77910D03*
Y78289D03*
D27*
X44459Y35758D03*
Y64538D03*
Y93317D03*
D28*
X44767Y34958D03*
X44232D03*
X33992Y30038D03*
X33457D03*
X34004Y31161D03*
X33468D03*
X33992Y30594D03*
X33457D03*
X17546Y24078D03*
X18081D03*
X40661Y15249D03*
X41196D03*
X33291Y15698D03*
X33826D03*
X31136Y17239D03*
X30601D03*
X32866Y14878D03*
X32331D03*
X34226Y20259D03*
X33691D03*
X34531Y16219D03*
X35066D03*
X21411Y16358D03*
X21946D03*
X24521Y15628D03*
X25056D03*
X22681Y20319D03*
X23216D03*
X27631Y17824D03*
X27096D03*
X29966Y17779D03*
X29431D03*
X25221Y19678D03*
X25756D03*
X24061Y20248D03*
X24596D03*
X25466Y16288D03*
X24931D03*
X19571Y20248D03*
X20106D03*
X20546Y16279D03*
X20011D03*
X19046Y15008D03*
X18511D03*
X17439Y16501D03*
X16903D03*
X23831Y14828D03*
X24366D03*
X45016Y21704D03*
X45551D03*
X44941Y21128D03*
X45476D03*
X46011D03*
X46546D03*
X44046Y23779D03*
X43511D03*
X15111Y20498D03*
X15646D03*
X16406Y16599D03*
X15871D03*
X31785Y23149D03*
X31250D03*
X48076Y12989D03*
X47541D03*
X44767Y63738D03*
X44232D03*
X33992Y58818D03*
X33457D03*
X34004Y59941D03*
X33468D03*
X33992Y59374D03*
X33457D03*
X17546Y52858D03*
X18081D03*
X40661Y44029D03*
X41196D03*
X33291Y44478D03*
X33826D03*
X31136Y46019D03*
X30601D03*
X32866Y43658D03*
X32331D03*
X34226Y49039D03*
X33691D03*
X34531Y44999D03*
X35066D03*
X21411Y45138D03*
X21946D03*
X24521Y44408D03*
X25056D03*
X22681Y49099D03*
X23216D03*
X27631Y46604D03*
X27096D03*
X29966Y46559D03*
X29431D03*
X25221Y48458D03*
X25756D03*
X24061Y49028D03*
X24596D03*
X25466Y45068D03*
X24931D03*
X19571Y49028D03*
X20106D03*
X20546Y45059D03*
X20011D03*
X19046Y43788D03*
X18511D03*
X17439Y45281D03*
X16903D03*
X23831Y43608D03*
X24366D03*
X45016Y50484D03*
X45551D03*
X44941Y49908D03*
X45476D03*
X46011D03*
X46546D03*
X44046Y52559D03*
X43511D03*
X15111Y49278D03*
X15646D03*
X16406Y45379D03*
X15871D03*
X31785Y51929D03*
X31250D03*
X48076Y41769D03*
X47541D03*
X44767Y92517D03*
X44232D03*
X33992Y87597D03*
X33457D03*
X34004Y88720D03*
X33468D03*
X33992Y88153D03*
X33457D03*
X17546Y81637D03*
X18081D03*
X40661Y72808D03*
X41196D03*
X33291Y73257D03*
X33826D03*
X31136Y74798D03*
X30601D03*
X32866Y72437D03*
X32331D03*
X34226Y77818D03*
X33691D03*
X34531Y73778D03*
X35066D03*
X21411Y73917D03*
X21946D03*
X24521Y73187D03*
X25056D03*
X22681Y77878D03*
X23216D03*
X27631Y75383D03*
X27096D03*
X29966Y75338D03*
X29431D03*
X25221Y77237D03*
X25756D03*
X24061Y77807D03*
X24596D03*
X25466Y73847D03*
X24931D03*
X19571Y77807D03*
X20106D03*
X20546Y73838D03*
X20011D03*
X19046Y72567D03*
X18511D03*
X17439Y74060D03*
X16903D03*
X23831Y72387D03*
X24366D03*
X45016Y79263D03*
X45551D03*
X44941Y78687D03*
X45476D03*
X46011D03*
X46546D03*
X44046Y81338D03*
X43511D03*
X15111Y78057D03*
X15646D03*
X16406Y74158D03*
X15871D03*
X31785Y80708D03*
X31250D03*
X48076Y70548D03*
X47541D03*
D29*
X32147Y29933D03*
X31624D03*
X18300Y27159D03*
X17777D03*
X39395Y26693D03*
X39919D03*
X33347Y14839D03*
X33870D03*
X28997Y17189D03*
X29520D03*
X27907D03*
X28430D03*
X26537D03*
X27060D03*
X24430Y31414D03*
X23907D03*
X23123Y14951D03*
X22599D03*
X31640Y16368D03*
X31117D03*
X18449Y14471D03*
X18973D03*
X19609Y14461D03*
X20133D03*
X21419Y14951D03*
X21943D03*
X24949Y14511D03*
X25473D03*
X32147Y58713D03*
X31624D03*
X18300Y55939D03*
X17777D03*
X39395Y55473D03*
X39919D03*
X33347Y43619D03*
X33870D03*
X28997Y45969D03*
X29520D03*
X27907D03*
X28430D03*
X26537D03*
X27060D03*
X24430Y60194D03*
X23907D03*
X23123Y43731D03*
X22599D03*
X31640Y45148D03*
X31117D03*
X18449Y43251D03*
X18973D03*
X19609Y43241D03*
X20133D03*
X21419Y43731D03*
X21943D03*
X24949Y43291D03*
X25473D03*
X32147Y87492D03*
X31624D03*
X18300Y84718D03*
X17777D03*
X39395Y84252D03*
X39919D03*
X33347Y72398D03*
X33870D03*
X28997Y74748D03*
X29520D03*
X27907D03*
X28430D03*
X26537D03*
X27060D03*
X24430Y88973D03*
X23907D03*
X23123Y72510D03*
X22599D03*
X31640Y73927D03*
X31117D03*
X18449Y72030D03*
X18973D03*
X19609Y72020D03*
X20133D03*
X21419Y72510D03*
X21943D03*
X24949Y72070D03*
X25473D03*
D30*
X32654Y31939D03*
X32275D03*
X33275Y32130D03*
X33654D03*
X22104Y32741D03*
X22478D03*
X29578Y19045D03*
X29952D03*
X27866Y21949D03*
X28240D03*
X26704Y19330D03*
X27078D03*
X21639Y39194D03*
X22013D03*
X17162Y33604D03*
X17536D03*
X16345Y18269D03*
X15971D03*
X12723Y17841D03*
X13097D03*
X15496Y20038D03*
X15122D03*
X16001Y19549D03*
X16375D03*
X43013Y27578D03*
X42639D03*
X35006Y17868D03*
X34632D03*
X18305Y27619D03*
X17931D03*
X34195Y19789D03*
X33821D03*
X25445Y17909D03*
X25071D03*
X20856Y17888D03*
X20482D03*
X23565Y26721D03*
X23191D03*
X24565Y19778D03*
X24192D03*
X20055D03*
X19682D03*
X37620Y31449D03*
X37246D03*
X34622Y19199D03*
X34996D03*
X25041D03*
X25415D03*
X20475Y19189D03*
X20849D03*
X36221Y21689D03*
X36595D03*
X18305Y29499D03*
X17931D03*
X18305Y28259D03*
X17931D03*
X19792Y27686D03*
X19418D03*
X19231Y27039D03*
X19605D03*
X17232Y25369D03*
X17606D03*
X27807Y23523D03*
X28181D03*
X32511Y28019D03*
X32885D03*
X23509Y29297D03*
X23130D03*
X26944Y19823D03*
X26565D03*
X22481Y32351D03*
X22102D03*
X14471Y31618D03*
X14092D03*
X18591Y33561D03*
X18212D03*
X46578Y38603D03*
X46200D03*
X19431Y36361D03*
X19810D03*
X19431Y35951D03*
X19810D03*
X19811Y35531D03*
X19432D03*
X41118Y18779D03*
X40740D03*
X38988Y18838D03*
X39367D03*
X14468Y30808D03*
X14090D03*
X18309Y29069D03*
X17930D03*
X18309Y28658D03*
X17930D03*
X29831Y30659D03*
X30210D03*
X23251Y32741D03*
X22872D03*
X24532Y32411D03*
X24153D03*
X23698Y31929D03*
X24077D03*
X24886Y31945D03*
X24507D03*
X46195Y39015D03*
X46574D03*
X41828Y27459D03*
X41450D03*
X43049Y28038D03*
X42670D03*
X41828Y27848D03*
X41450D03*
X40261Y31411D03*
X39882D03*
X41191D03*
X40812D03*
X39881Y31841D03*
X40260D03*
X40811D03*
X41190D03*
X39921Y27301D03*
X39542D03*
X40799Y24448D03*
X41177D03*
X39878Y25329D03*
X40257D03*
X40258Y25728D03*
X39880D03*
X22855Y39193D03*
X22476D03*
X24162D03*
X23783D03*
X24667Y29899D03*
X24288D03*
X23727D03*
X23349D03*
X25579Y31063D03*
X25958D03*
X35316Y31622D03*
X34937D03*
X33589Y25498D03*
X33210D03*
X33658Y29105D03*
X34037D03*
X31856Y23631D03*
X31477D03*
X32689Y26344D03*
X32310D03*
X30860Y30661D03*
X31239D03*
X32408Y24784D03*
X32030D03*
X32689Y26734D03*
X32310D03*
X33419Y24169D03*
X33040D03*
X32508Y27638D03*
X32887D03*
X33658Y28717D03*
X34037D03*
X31479Y24049D03*
X31857D03*
X32938Y27139D03*
X32560D03*
X39329Y27715D03*
X39708D03*
X38758Y31449D03*
X39137D03*
X38004D03*
X38383D03*
X36471D03*
X36850D03*
X35564Y32039D03*
X35185D03*
X36086Y31441D03*
X35707D03*
X24485Y25874D03*
X24106D03*
X26727Y31801D03*
X26348D03*
X46081Y21661D03*
X46460D03*
X32654Y60719D03*
X32275D03*
X33275Y60910D03*
X33654D03*
X22104Y61521D03*
X22478D03*
X29578Y47825D03*
X29952D03*
X27866Y50729D03*
X28240D03*
X26704Y48110D03*
X27078D03*
X21639Y67974D03*
X22013D03*
X17162Y62384D03*
X17536D03*
X16345Y47049D03*
X15971D03*
X12723Y46621D03*
X13097D03*
X15496Y48818D03*
X15122D03*
X16001Y48329D03*
X16375D03*
X43013Y56358D03*
X42639D03*
X35006Y46648D03*
X34632D03*
X18305Y56399D03*
X17931D03*
X34195Y48569D03*
X33821D03*
X25445Y46689D03*
X25071D03*
X20856Y46668D03*
X20482D03*
X23565Y55501D03*
X23191D03*
X24565Y48558D03*
X24192D03*
X20055D03*
X19682D03*
X37620Y60229D03*
X37246D03*
X34622Y47979D03*
X34996D03*
X25041D03*
X25415D03*
X20475Y47969D03*
X20849D03*
X36221Y50469D03*
X36595D03*
X18305Y58279D03*
X17931D03*
X18305Y57039D03*
X17931D03*
X19792Y56466D03*
X19418D03*
X19231Y55819D03*
X19605D03*
X17232Y54149D03*
X17606D03*
X27807Y52303D03*
X28181D03*
X32511Y56799D03*
X32885D03*
X23509Y58077D03*
X23130D03*
X26944Y48603D03*
X26565D03*
X22481Y61131D03*
X22102D03*
X14471Y60398D03*
X14092D03*
X18591Y62341D03*
X18212D03*
X46578Y67383D03*
X46200D03*
X19431Y65141D03*
X19810D03*
X19431Y64731D03*
X19810D03*
X19811Y64311D03*
X19432D03*
X41118Y47559D03*
X40740D03*
X38988Y47618D03*
X39367D03*
X14468Y59588D03*
X14090D03*
X18309Y57849D03*
X17930D03*
X18309Y57438D03*
X17930D03*
X29831Y59439D03*
X30210D03*
X23251Y61521D03*
X22872D03*
X24532Y61191D03*
X24153D03*
X23698Y60709D03*
X24077D03*
X24886Y60725D03*
X24507D03*
X46195Y67795D03*
X46574D03*
X41828Y56239D03*
X41450D03*
X43049Y56818D03*
X42670D03*
X41828Y56628D03*
X41450D03*
X40261Y60191D03*
X39882D03*
X41191D03*
X40812D03*
X39881Y60621D03*
X40260D03*
X40811D03*
X41190D03*
X39921Y56081D03*
X39542D03*
X40799Y53228D03*
X41177D03*
X39878Y54109D03*
X40257D03*
X40258Y54508D03*
X39880D03*
X22855Y67973D03*
X22476D03*
X24162D03*
X23783D03*
X24667Y58679D03*
X24288D03*
X23727D03*
X23349D03*
X25579Y59843D03*
X25958D03*
X35316Y60402D03*
X34937D03*
X33589Y54278D03*
X33210D03*
X33658Y57885D03*
X34037D03*
X31856Y52411D03*
X31477D03*
X32689Y55124D03*
X32310D03*
X30860Y59441D03*
X31239D03*
X32408Y53564D03*
X32030D03*
X32689Y55514D03*
X32310D03*
X33419Y52949D03*
X33040D03*
X32508Y56418D03*
X32887D03*
X33658Y57497D03*
X34037D03*
X31479Y52829D03*
X31857D03*
X32938Y55919D03*
X32560D03*
X39329Y56495D03*
X39708D03*
X38758Y60229D03*
X39137D03*
X38004D03*
X38383D03*
X36471D03*
X36850D03*
X35564Y60819D03*
X35185D03*
X36086Y60221D03*
X35707D03*
X24485Y54654D03*
X24106D03*
X26727Y60581D03*
X26348D03*
X46081Y50441D03*
X46460D03*
X32654Y89498D03*
X32275D03*
X33275Y89689D03*
X33654D03*
X22104Y90300D03*
X22478D03*
X29578Y76604D03*
X29952D03*
X27866Y79508D03*
X28240D03*
X26704Y76889D03*
X27078D03*
X21639Y96753D03*
X22013D03*
X17162Y91163D03*
X17536D03*
X16345Y75828D03*
X15971D03*
X12723Y75400D03*
X13097D03*
X15496Y77597D03*
X15122D03*
X16001Y77108D03*
X16375D03*
X43013Y85137D03*
X42639D03*
X35006Y75427D03*
X34632D03*
X18305Y85178D03*
X17931D03*
X34195Y77348D03*
X33821D03*
X25445Y75468D03*
X25071D03*
X20856Y75447D03*
X20482D03*
X23565Y84280D03*
X23191D03*
X24565Y77337D03*
X24192D03*
X20055D03*
X19682D03*
X37620Y89008D03*
X37246D03*
X34622Y76758D03*
X34996D03*
X25041D03*
X25415D03*
X20475Y76748D03*
X20849D03*
X36221Y79248D03*
X36595D03*
X18305Y87058D03*
X17931D03*
X18305Y85818D03*
X17931D03*
X19792Y85245D03*
X19418D03*
X19231Y84598D03*
X19605D03*
X17232Y82928D03*
X17606D03*
X27807Y81082D03*
X28181D03*
X32511Y85578D03*
X32885D03*
X23509Y86856D03*
X23130D03*
X26944Y77382D03*
X26565D03*
X22481Y89910D03*
X22102D03*
X14471Y89177D03*
X14092D03*
X18591Y91120D03*
X18212D03*
X46578Y96162D03*
X46200D03*
X19431Y93920D03*
X19810D03*
X19431Y93510D03*
X19810D03*
X19811Y93090D03*
X19432D03*
X41118Y76338D03*
X40740D03*
X38988Y76397D03*
X39367D03*
X14468Y88367D03*
X14090D03*
X18309Y86628D03*
X17930D03*
X18309Y86217D03*
X17930D03*
X29831Y88218D03*
X30210D03*
X23251Y90300D03*
X22872D03*
X24532Y89970D03*
X24153D03*
X23698Y89488D03*
X24077D03*
X24886Y89504D03*
X24507D03*
X46195Y96574D03*
X46574D03*
X41828Y85018D03*
X41450D03*
X43049Y85597D03*
X42670D03*
X41828Y85407D03*
X41450D03*
X40261Y88970D03*
X39882D03*
X41191D03*
X40812D03*
X39881Y89400D03*
X40260D03*
X40811D03*
X41190D03*
X39921Y84860D03*
X39542D03*
X40799Y82007D03*
X41177D03*
X39878Y82888D03*
X40257D03*
X40258Y83287D03*
X39880D03*
X22855Y96752D03*
X22476D03*
X24162D03*
X23783D03*
X24667Y87458D03*
X24288D03*
X23727D03*
X23349D03*
X25579Y88622D03*
X25958D03*
X35316Y89181D03*
X34937D03*
X33589Y83057D03*
X33210D03*
X33658Y86664D03*
X34037D03*
X31856Y81190D03*
X31477D03*
X32689Y83903D03*
X32310D03*
X30860Y88220D03*
X31239D03*
X32408Y82343D03*
X32030D03*
X32689Y84293D03*
X32310D03*
X33419Y81728D03*
X33040D03*
X32508Y85197D03*
X32887D03*
X33658Y86276D03*
X34037D03*
X31479Y81608D03*
X31857D03*
X32938Y84698D03*
X32560D03*
X39329Y85274D03*
X39708D03*
X38758Y89008D03*
X39137D03*
X38004D03*
X38383D03*
X36471D03*
X36850D03*
X35564Y89598D03*
X35185D03*
X36086Y89000D03*
X35707D03*
X24485Y83433D03*
X24106D03*
X26727Y89360D03*
X26348D03*
X46081Y79220D03*
X46460D03*
D31*
X42480Y29242D03*
X42980D03*
X43480D03*
X43980D03*
X42480Y58022D03*
X42980D03*
X43480D03*
X43980D03*
X42480Y86801D03*
X42980D03*
X43480D03*
X43980D03*
D32*
X40831Y16135D03*
Y16635D03*
Y17135D03*
Y17635D03*
Y44915D03*
Y45415D03*
Y45915D03*
Y46415D03*
Y73694D03*
Y74194D03*
Y74694D03*
Y75194D03*
D33*
X27210Y31922D03*
X27478Y32190D03*
X27210Y60702D03*
X27478Y60970D03*
X27210Y89481D03*
X27478Y89749D03*
D34*
X20661Y33596D03*
Y35986D03*
X21661Y33596D03*
Y35986D03*
X22661Y33596D03*
Y35986D03*
X23661Y33596D03*
Y35986D03*
X24661Y33596D03*
Y35986D03*
X25661Y33596D03*
Y35986D03*
X26661Y33596D03*
Y35986D03*
X20661Y62376D03*
Y64766D03*
X21661Y62376D03*
Y64766D03*
X22661Y62376D03*
Y64766D03*
X23661Y62376D03*
Y64766D03*
X24661Y62376D03*
Y64766D03*
X25661Y62376D03*
Y64766D03*
X26661Y62376D03*
Y64766D03*
X20661Y91155D03*
Y93545D03*
X21661Y91155D03*
Y93545D03*
X22661Y91155D03*
Y93545D03*
X23661Y91155D03*
Y93545D03*
X24661Y91155D03*
Y93545D03*
X25661Y91155D03*
Y93545D03*
X26661Y91155D03*
Y93545D03*
D35*
X44917Y20348D03*
X46540D03*
X44917Y49128D03*
X46540D03*
X44917Y77907D03*
X46540D03*
D36*
X15568Y33053D03*
Y33604D03*
X16500Y32025D03*
Y31474D03*
X15568Y61833D03*
Y62384D03*
X16500Y60805D03*
Y60254D03*
X15568Y90612D03*
Y91163D03*
X16500Y89584D03*
Y89033D03*
D37*
X22920Y25944D03*
Y25694D03*
X20866Y24189D03*
X22920Y24439D03*
X20866D03*
Y24939D03*
X22920Y24189D03*
X20866Y24689D03*
X22920D03*
Y24939D03*
Y25444D03*
X20866Y25194D03*
Y25444D03*
Y25944D03*
X22920Y25194D03*
X20866Y25694D03*
X22920Y54724D03*
Y54474D03*
X20866Y52969D03*
X22920Y53219D03*
X20866D03*
Y53719D03*
X22920Y52969D03*
X20866Y53469D03*
X22920D03*
Y53719D03*
Y54224D03*
X20866Y53974D03*
Y54224D03*
Y54724D03*
X22920Y53974D03*
X20866Y54474D03*
X22920Y83503D03*
Y83253D03*
X20866Y81748D03*
X22920Y81998D03*
X20866D03*
Y82498D03*
X22920Y81748D03*
X20866Y82248D03*
X22920D03*
Y82498D03*
Y83003D03*
X20866Y82753D03*
Y83003D03*
Y83503D03*
X22920Y82753D03*
X20866Y83253D03*
D38*
X41496Y23598D03*
X39918D03*
X39376Y14445D03*
X40953D03*
X40944Y13247D03*
X39367D03*
X41496Y52378D03*
X39918D03*
X39376Y43225D03*
X40953D03*
X40944Y42027D03*
X39367D03*
X41496Y81157D03*
X39918D03*
X39376Y72004D03*
X40953D03*
X40944Y70806D03*
X39367D03*
X46741Y33491D03*
Y31914D03*
Y62271D03*
Y60694D03*
Y91050D03*
Y89473D03*
D39*
X12451Y12490D03*
Y41270D03*
Y70049D03*
Y39094D03*
Y67874D03*
Y96653D03*
X52480Y12451D03*
Y41231D03*
Y70010D03*
D40*
X42862Y24549D03*
Y26920D03*
Y53329D03*
Y55700D03*
Y82108D03*
Y84479D03*
D41*
X17438Y24769D03*
X18193D03*
X17438Y53549D03*
X18193D03*
X17438Y82328D03*
X18193D03*
D42*
X18196Y25854D03*
X19109D03*
Y26589D03*
X18196D03*
Y54634D03*
X19109D03*
Y55369D03*
X18196D03*
Y83413D03*
X19109D03*
Y84148D03*
X18196D03*
D43*
X21644Y30891D03*
X21329D03*
X21011D03*
X20691D03*
Y31427D03*
X21011D03*
X21329D03*
X21644D03*
Y59671D03*
X21329D03*
X21011D03*
X20691D03*
Y60207D03*
X21011D03*
X21329D03*
X21644D03*
Y88450D03*
X21329D03*
X21011D03*
X20691D03*
Y88986D03*
X21011D03*
X21329D03*
X21644D03*
D44*
X17418Y28586D03*
Y28051D03*
X16238Y20536D03*
Y20001D03*
X33359Y21306D03*
Y20771D03*
X34588Y15678D03*
Y15143D03*
X35708Y15816D03*
Y15281D03*
X34869Y20236D03*
Y19701D03*
X23631Y15363D03*
Y15899D03*
X19601Y15203D03*
Y15739D03*
X19198Y21296D03*
Y20761D03*
X20681Y15203D03*
Y15739D03*
X20728Y20196D03*
Y19661D03*
X42238Y23876D03*
Y23341D03*
X15099Y16226D03*
Y15691D03*
X12953Y16661D03*
Y17197D03*
X15668Y15551D03*
Y16086D03*
X14598Y21486D03*
Y20951D03*
X16244Y15413D03*
Y15948D03*
X16824Y15946D03*
Y15411D03*
X17419Y29101D03*
Y29636D03*
X48579Y15356D03*
Y14821D03*
Y14176D03*
Y13641D03*
X17418Y57366D03*
Y56831D03*
X16238Y49316D03*
Y48781D03*
X33359Y50086D03*
Y49551D03*
X34588Y44458D03*
Y43923D03*
X35708Y44596D03*
Y44061D03*
X34869Y49016D03*
Y48481D03*
X23631Y44143D03*
Y44679D03*
X19601Y43983D03*
Y44519D03*
X19198Y50076D03*
Y49541D03*
X20681Y43983D03*
Y44519D03*
X20728Y48976D03*
Y48441D03*
X42238Y52656D03*
Y52121D03*
X15099Y45006D03*
Y44471D03*
X12953Y45441D03*
Y45977D03*
X15668Y44331D03*
Y44866D03*
X14598Y50266D03*
Y49731D03*
X16244Y44193D03*
Y44728D03*
X16824Y44726D03*
Y44191D03*
X17419Y57881D03*
Y58416D03*
X48579Y44136D03*
Y43601D03*
Y42956D03*
Y42421D03*
X17418Y86145D03*
Y85610D03*
X16238Y78095D03*
Y77560D03*
X33359Y78865D03*
Y78330D03*
X34588Y73237D03*
Y72702D03*
X35708Y73375D03*
Y72840D03*
X34869Y77795D03*
Y77260D03*
X23631Y72922D03*
Y73458D03*
X19601Y72762D03*
Y73298D03*
X19198Y78855D03*
Y78320D03*
X20681Y72762D03*
Y73298D03*
X20728Y77755D03*
Y77220D03*
X42238Y81435D03*
Y80900D03*
X15099Y73785D03*
Y73250D03*
X12953Y74220D03*
Y74756D03*
X15668Y73110D03*
Y73645D03*
X14598Y79045D03*
Y78510D03*
X16244Y72972D03*
Y73507D03*
X16824Y73505D03*
Y72970D03*
X17419Y86660D03*
Y87195D03*
X48579Y72915D03*
Y72380D03*
Y71735D03*
Y71200D03*
D45*
X30499Y30180D03*
X30302D03*
X30105D03*
X29908D03*
X29711D03*
X29514D03*
X29317D03*
X29121D03*
X28924D03*
X28727D03*
X28530D03*
X28333D03*
X28136D03*
X27940D03*
X27743D03*
X27546D03*
X27349D03*
X27152D03*
X26955D03*
X26758D03*
X26562D03*
X26365D03*
X26168D03*
X25971D03*
X25774D03*
Y24157D03*
X25971D03*
X26168D03*
X26365D03*
X26562D03*
X26758D03*
X26955D03*
X27152D03*
X27349D03*
X27546D03*
X27743D03*
X27940D03*
X28136D03*
X28333D03*
X28530D03*
X28727D03*
X28924D03*
X29121D03*
X29317D03*
X29514D03*
X29711D03*
X29908D03*
X30105D03*
X30302D03*
X30499D03*
Y58960D03*
X30302D03*
X30105D03*
X29908D03*
X29711D03*
X29514D03*
X29317D03*
X29121D03*
X28924D03*
X28727D03*
X28530D03*
X28333D03*
X28136D03*
X27940D03*
X27743D03*
X27546D03*
X27349D03*
X27152D03*
X26955D03*
X26758D03*
X26562D03*
X26365D03*
X26168D03*
X25971D03*
X25774D03*
Y52937D03*
X25971D03*
X26168D03*
X26365D03*
X26562D03*
X26758D03*
X26955D03*
X27152D03*
X27349D03*
X27546D03*
X27743D03*
X27940D03*
X28136D03*
X28333D03*
X28530D03*
X28727D03*
X28924D03*
X29121D03*
X29317D03*
X29514D03*
X29711D03*
X29908D03*
X30105D03*
X30302D03*
X30499D03*
Y87739D03*
X30302D03*
X30105D03*
X29908D03*
X29711D03*
X29514D03*
X29317D03*
X29121D03*
X28924D03*
X28727D03*
X28530D03*
X28333D03*
X28136D03*
X27940D03*
X27743D03*
X27546D03*
X27349D03*
X27152D03*
X26955D03*
X26758D03*
X26562D03*
X26365D03*
X26168D03*
X25971D03*
X25774D03*
Y81716D03*
X25971D03*
X26168D03*
X26365D03*
X26562D03*
X26758D03*
X26955D03*
X27152D03*
X27349D03*
X27546D03*
X27743D03*
X27940D03*
X28136D03*
X28333D03*
X28530D03*
X28727D03*
X28924D03*
X29121D03*
X29317D03*
X29514D03*
X29711D03*
X29908D03*
X30105D03*
X30302D03*
X30499D03*
D46*
X25125Y24806D03*
Y53586D03*
Y82365D03*
D47*
Y29531D03*
Y29334D03*
Y29137D03*
Y28940D03*
Y28743D03*
Y28546D03*
Y28350D03*
Y28153D03*
Y27956D03*
Y27759D03*
Y27562D03*
Y27365D03*
Y27169D03*
Y26972D03*
Y26775D03*
Y26578D03*
Y26381D03*
Y26184D03*
Y25987D03*
Y25791D03*
Y25594D03*
Y25397D03*
Y25200D03*
Y25003D03*
X31148Y24806D03*
Y25003D03*
Y25200D03*
Y25397D03*
Y25594D03*
Y25791D03*
Y25987D03*
Y26184D03*
Y26381D03*
Y26578D03*
Y26775D03*
Y26972D03*
Y27169D03*
Y27365D03*
Y27562D03*
Y27759D03*
Y27956D03*
Y28153D03*
Y28350D03*
Y28546D03*
Y28743D03*
Y28940D03*
Y29137D03*
Y29334D03*
Y29531D03*
X25125Y58311D03*
Y58114D03*
Y57917D03*
Y57720D03*
Y57523D03*
Y57326D03*
Y57130D03*
Y56933D03*
Y56736D03*
Y56539D03*
Y56342D03*
Y56145D03*
Y55949D03*
Y55752D03*
Y55555D03*
Y55358D03*
Y55161D03*
Y54964D03*
Y54767D03*
Y54571D03*
Y54374D03*
Y54177D03*
Y53980D03*
Y53783D03*
X31148Y53586D03*
Y53783D03*
Y53980D03*
Y54177D03*
Y54374D03*
Y54571D03*
Y54767D03*
Y54964D03*
Y55161D03*
Y55358D03*
Y55555D03*
Y55752D03*
Y55949D03*
Y56145D03*
Y56342D03*
Y56539D03*
Y56736D03*
Y56933D03*
Y57130D03*
Y57326D03*
Y57523D03*
Y57720D03*
Y57917D03*
Y58114D03*
Y58311D03*
X25125Y87090D03*
Y86893D03*
Y86696D03*
Y86499D03*
Y86302D03*
Y86105D03*
Y85909D03*
Y85712D03*
Y85515D03*
Y85318D03*
Y85121D03*
Y84924D03*
Y84728D03*
Y84531D03*
Y84334D03*
Y84137D03*
Y83940D03*
Y83743D03*
Y83546D03*
Y83350D03*
Y83153D03*
Y82956D03*
Y82759D03*
Y82562D03*
X31148Y82365D03*
Y82562D03*
Y82759D03*
Y82956D03*
Y83153D03*
Y83350D03*
Y83546D03*
Y83743D03*
Y83940D03*
Y84137D03*
Y84334D03*
Y84531D03*
Y84728D03*
Y84924D03*
Y85121D03*
Y85318D03*
Y85515D03*
Y85712D03*
Y85909D03*
Y86105D03*
Y86302D03*
Y86499D03*
Y86696D03*
Y86893D03*
Y87090D03*
D48*
X15610Y30121D03*
Y30994D03*
Y58901D03*
Y59774D03*
Y87680D03*
Y88553D03*
D49*
X13918Y21869D03*
Y20749D03*
X32671Y21431D03*
Y20311D03*
X18519Y20329D03*
Y21449D03*
X13918Y50649D03*
Y49529D03*
X32671Y50211D03*
Y49091D03*
X18519Y49109D03*
Y50229D03*
X13918Y79428D03*
Y78308D03*
X32671Y78990D03*
Y77870D03*
X18519Y77888D03*
Y79008D03*
D50*
X17522Y22178D03*
X15475D03*
X24811Y21858D03*
X26858D03*
X19991Y22141D03*
X22038D03*
X17522Y50958D03*
X15475D03*
X24811Y50638D03*
X26858D03*
X19991Y50921D03*
X22038D03*
X17522Y79737D03*
X15475D03*
X24811Y79417D03*
X26858D03*
X19991Y79700D03*
X22038D03*
D51*
X40749Y30853D03*
Y28680D03*
X41249Y30853D03*
X40249D03*
X39749D03*
X41249Y28680D03*
X40249D03*
X39749D03*
X40749Y59633D03*
Y57460D03*
X41249Y59633D03*
X40249D03*
X39749D03*
X41249Y57460D03*
X40249D03*
X39749D03*
X40749Y88412D03*
Y86239D03*
X41249Y88412D03*
X40249D03*
X39749D03*
X41249Y86239D03*
X40249D03*
X39749D03*
D52*
X41139Y26518D03*
Y25685D03*
X21496Y29577D03*
Y28743D03*
X21486Y27293D03*
Y28127D03*
X40451Y27138D03*
Y27971D03*
X46441Y30318D03*
Y31151D03*
X41139Y55298D03*
Y54465D03*
X21496Y58357D03*
Y57523D03*
X21486Y56073D03*
Y56907D03*
X40451Y55918D03*
Y56751D03*
X46441Y59098D03*
Y59931D03*
X41139Y84077D03*
Y83244D03*
X21496Y87136D03*
Y86302D03*
X21486Y84852D03*
Y85686D03*
X40451Y84697D03*
Y85530D03*
X46441Y87877D03*
Y88710D03*
X13432Y31618D03*
X12599D03*
X13432Y30819D03*
X12599D03*
X39055Y18269D03*
X39889D03*
X13432Y60398D03*
X12599D03*
X13432Y59599D03*
X12599D03*
X39055Y47049D03*
X39889D03*
X13432Y89177D03*
X12599D03*
X13432Y88378D03*
X12599D03*
X39055Y75828D03*
X39889D03*
D53*
X24535Y24795D03*
Y53575D03*
Y82354D03*
D54*
X33059Y18009D03*
X14445Y18369D03*
X18918Y18009D03*
X23419D03*
X33059Y46789D03*
X14445Y47149D03*
X18918Y46789D03*
X23419D03*
X33059Y75568D03*
X14445Y75928D03*
X18918Y75568D03*
X23419D03*
D55*
X13756Y17217D03*
X13953D03*
X14149D03*
X14346D03*
X14543D03*
X14740D03*
X14937D03*
X15134D03*
Y19521D03*
X14937D03*
X14740D03*
X14543D03*
X14346D03*
X14149D03*
X13953D03*
X13756D03*
Y45997D03*
X13953D03*
X14149D03*
X14346D03*
X14543D03*
X14740D03*
X14937D03*
X15134D03*
Y48301D03*
X14937D03*
X14740D03*
X14543D03*
X14346D03*
X14149D03*
X13953D03*
X13756D03*
Y74776D03*
X13953D03*
X14149D03*
X14346D03*
X14543D03*
X14740D03*
X14937D03*
X15134D03*
Y77080D03*
X14937D03*
X14740D03*
X14543D03*
X14346D03*
X14149D03*
X13953D03*
X13756D03*
X22730Y16857D03*
X22926D03*
X23123D03*
X23320D03*
X23517D03*
X23714D03*
X23911D03*
X24107D03*
Y19161D03*
X23911D03*
X23714D03*
X23517D03*
X23320D03*
X23123D03*
X22926D03*
X22730D03*
Y45637D03*
X22926D03*
X23123D03*
X23320D03*
X23517D03*
X23714D03*
X23911D03*
X24107D03*
Y47941D03*
X23911D03*
X23714D03*
X23517D03*
X23320D03*
X23123D03*
X22926D03*
X22730D03*
Y74416D03*
X22926D03*
X23123D03*
X23320D03*
X23517D03*
X23714D03*
X23911D03*
X24107D03*
Y76720D03*
X23911D03*
X23714D03*
X23517D03*
X23320D03*
X23123D03*
X22926D03*
X22730D03*
X18230Y16857D03*
X18426D03*
X18623D03*
X18820D03*
X19017D03*
X19214D03*
X19411D03*
X19607D03*
Y19161D03*
X19411D03*
X19214D03*
X19017D03*
X18820D03*
X18623D03*
X18426D03*
X18230D03*
Y45637D03*
X18426D03*
X18623D03*
X18820D03*
X19017D03*
X19214D03*
X19411D03*
X19607D03*
Y47941D03*
X19411D03*
X19214D03*
X19017D03*
X18820D03*
X18623D03*
X18426D03*
X18230D03*
Y74416D03*
X18426D03*
X18623D03*
X18820D03*
X19017D03*
X19214D03*
X19411D03*
X19607D03*
Y76720D03*
X19411D03*
X19214D03*
X19017D03*
X18820D03*
X18623D03*
X18426D03*
X18230D03*
D56*
X32370Y19161D03*
X32566D03*
X32763D03*
X32960D03*
X33157D03*
X33354D03*
X33551D03*
X33747D03*
Y16857D03*
X33551D03*
X33354D03*
X33157D03*
X32960D03*
X32763D03*
X32566D03*
X32370D03*
Y47941D03*
X32566D03*
X32763D03*
X32960D03*
X33157D03*
X33354D03*
X33551D03*
X33747D03*
Y45637D03*
X33551D03*
X33354D03*
X33157D03*
X32960D03*
X32763D03*
X32566D03*
X32370D03*
Y76720D03*
X32566D03*
X32763D03*
X32960D03*
X33157D03*
X33354D03*
X33551D03*
X33747D03*
Y74416D03*
X33551D03*
X33354D03*
X33157D03*
X32960D03*
X32763D03*
X32566D03*
X32370D03*
D57*
X13488Y19255D03*
Y19058D03*
Y18861D03*
Y18664D03*
Y18467D03*
Y18271D03*
Y18074D03*
Y17877D03*
Y17680D03*
Y17483D03*
X15401D03*
Y17680D03*
Y17877D03*
Y18074D03*
Y18271D03*
Y18467D03*
Y18664D03*
Y18861D03*
Y19058D03*
Y19255D03*
X13488Y48035D03*
Y47838D03*
Y47641D03*
Y47444D03*
Y47247D03*
Y47051D03*
Y46854D03*
Y46657D03*
Y46460D03*
Y46263D03*
X15401D03*
Y46460D03*
Y46657D03*
Y46854D03*
Y47051D03*
Y47247D03*
Y47444D03*
Y47641D03*
Y47838D03*
Y48035D03*
X13488Y76814D03*
Y76617D03*
Y76420D03*
Y76223D03*
Y76026D03*
Y75830D03*
Y75633D03*
Y75436D03*
Y75239D03*
Y75042D03*
X15401D03*
Y75239D03*
Y75436D03*
Y75633D03*
Y75830D03*
Y76026D03*
Y76223D03*
Y76420D03*
Y76617D03*
Y76814D03*
X22462Y18895D03*
Y18698D03*
Y18501D03*
Y18304D03*
Y18107D03*
Y17911D03*
Y17714D03*
Y17517D03*
Y17320D03*
Y17123D03*
X24375D03*
Y17320D03*
Y17517D03*
Y17714D03*
Y17911D03*
Y18107D03*
Y18304D03*
Y18501D03*
Y18698D03*
Y18895D03*
X22462Y47675D03*
Y47478D03*
Y47281D03*
Y47084D03*
Y46887D03*
Y46691D03*
Y46494D03*
Y46297D03*
Y46100D03*
Y45903D03*
X24375D03*
Y46100D03*
Y46297D03*
Y46494D03*
Y46691D03*
Y46887D03*
Y47084D03*
Y47281D03*
Y47478D03*
Y47675D03*
X22462Y76454D03*
Y76257D03*
Y76060D03*
Y75863D03*
Y75666D03*
Y75470D03*
Y75273D03*
Y75076D03*
Y74879D03*
Y74682D03*
X24375D03*
Y74879D03*
Y75076D03*
Y75273D03*
Y75470D03*
Y75666D03*
Y75863D03*
Y76060D03*
Y76257D03*
Y76454D03*
X17962Y18895D03*
Y18698D03*
Y18501D03*
Y18304D03*
Y18107D03*
Y17911D03*
Y17714D03*
Y17517D03*
Y17320D03*
Y17123D03*
X19875D03*
Y17320D03*
Y17517D03*
Y17714D03*
Y17911D03*
Y18107D03*
Y18304D03*
Y18501D03*
Y18698D03*
Y18895D03*
X17962Y47675D03*
Y47478D03*
Y47281D03*
Y47084D03*
Y46887D03*
Y46691D03*
Y46494D03*
Y46297D03*
Y46100D03*
Y45903D03*
X19875D03*
Y46100D03*
Y46297D03*
Y46494D03*
Y46691D03*
Y46887D03*
Y47084D03*
Y47281D03*
Y47478D03*
Y47675D03*
X17962Y76454D03*
Y76257D03*
Y76060D03*
Y75863D03*
Y75666D03*
Y75470D03*
Y75273D03*
Y75076D03*
Y74879D03*
Y74682D03*
X19875D03*
Y74879D03*
Y75076D03*
Y75273D03*
Y75470D03*
Y75666D03*
Y75863D03*
Y76060D03*
Y76257D03*
Y76454D03*
X34015Y18895D03*
Y18698D03*
Y18501D03*
Y18304D03*
Y18107D03*
Y17911D03*
Y17714D03*
Y17517D03*
Y17320D03*
Y17123D03*
X32102D03*
Y17320D03*
Y17517D03*
Y17714D03*
Y17911D03*
Y18107D03*
Y18304D03*
Y18501D03*
Y18698D03*
Y18895D03*
X34015Y47675D03*
Y47478D03*
Y47281D03*
Y47084D03*
Y46887D03*
Y46691D03*
Y46494D03*
Y46297D03*
Y46100D03*
Y45903D03*
X32102D03*
Y46100D03*
Y46297D03*
Y46494D03*
Y46691D03*
Y46887D03*
Y47084D03*
Y47281D03*
Y47478D03*
Y47675D03*
X34015Y76454D03*
Y76257D03*
Y76060D03*
Y75863D03*
Y75666D03*
Y75470D03*
Y75273D03*
Y75076D03*
Y74879D03*
Y74682D03*
X32102D03*
Y74879D03*
Y75076D03*
Y75273D03*
Y75470D03*
Y75666D03*
Y75863D03*
Y76060D03*
Y76257D03*
Y76454D03*
D58*
X19080Y28124D03*
X19276D03*
X19473D03*
X19670D03*
X19867D03*
X20064D03*
X20261D03*
X20457D03*
Y30018D03*
X20261D03*
X20064D03*
X19867D03*
X19670D03*
X19473D03*
X19276D03*
X19080D03*
Y56904D03*
X19276D03*
X19473D03*
X19670D03*
X19867D03*
X20064D03*
X20261D03*
X20457D03*
Y58798D03*
X20261D03*
X20064D03*
X19867D03*
X19670D03*
X19473D03*
X19276D03*
X19080D03*
Y85683D03*
X19276D03*
X19473D03*
X19670D03*
X19867D03*
X20064D03*
X20261D03*
X20457D03*
Y87577D03*
X20261D03*
X20064D03*
X19867D03*
X19670D03*
X19473D03*
X19276D03*
X19080D03*
D59*
X20713Y28380D03*
Y28576D03*
Y28773D03*
Y28970D03*
Y29167D03*
Y29364D03*
Y29561D03*
Y29757D03*
X18819D03*
Y29561D03*
Y29364D03*
Y29167D03*
Y28970D03*
Y28773D03*
Y28576D03*
Y28380D03*
X20713Y57160D03*
Y57356D03*
Y57553D03*
Y57750D03*
Y57947D03*
Y58144D03*
Y58341D03*
Y58537D03*
X18819D03*
Y58341D03*
Y58144D03*
Y57947D03*
Y57750D03*
Y57553D03*
Y57356D03*
Y57160D03*
X20713Y85939D03*
Y86135D03*
Y86332D03*
Y86529D03*
Y86726D03*
Y86923D03*
Y87120D03*
Y87316D03*
X18819D03*
Y87120D03*
Y86923D03*
Y86726D03*
Y86529D03*
Y86332D03*
Y86135D03*
Y85939D03*
D60*
X19769Y29069D03*
Y57849D03*
Y86628D03*
D61*
X19816Y34731D03*
X19146D03*
X34093Y27229D03*
X33424D03*
X33404Y29523D03*
X34073D03*
X34093Y26769D03*
X33424D03*
X33029Y24609D03*
X33698D03*
X33024Y25069D03*
X33693D03*
X40722Y32629D03*
X41391D03*
X39804Y24429D03*
X40473D03*
X39804Y24889D03*
X40473D03*
X40722Y33119D03*
X41391D03*
X19026Y34141D03*
X19696D03*
X19816Y63511D03*
X19146D03*
X34093Y56009D03*
X33424D03*
X33404Y58303D03*
X34073D03*
X34093Y55549D03*
X33424D03*
X33029Y53389D03*
X33698D03*
X33024Y53849D03*
X33693D03*
X40722Y61409D03*
X41391D03*
X39804Y53209D03*
X40473D03*
X39804Y53669D03*
X40473D03*
X40722Y61899D03*
X41391D03*
X19026Y62921D03*
X19696D03*
X19816Y92290D03*
X19146D03*
X34093Y84788D03*
X33424D03*
X33404Y87082D03*
X34073D03*
X34093Y84328D03*
X33424D03*
X33029Y82168D03*
X33698D03*
X33024Y82628D03*
X33693D03*
X40722Y90188D03*
X41391D03*
X39804Y81988D03*
X40473D03*
X39804Y82448D03*
X40473D03*
X40722Y90678D03*
X41391D03*
X19026Y91700D03*
X19696D03*
D62*
X26281Y32470D03*
X26990Y32667D03*
Y32273D03*
X26281Y61250D03*
X26990Y61447D03*
Y61053D03*
X26281Y90029D03*
X26990Y90226D03*
Y89832D03*
D63*
X28074Y19114D03*
Y18917D03*
Y18720D03*
Y18523D03*
X29114Y19114D03*
Y18917D03*
Y18720D03*
Y18523D03*
X28074Y47894D03*
Y47697D03*
Y47500D03*
Y47303D03*
X29114Y47894D03*
Y47697D03*
Y47500D03*
Y47303D03*
X28074Y76673D03*
Y76476D03*
Y76279D03*
Y76082D03*
X29114Y76673D03*
Y76476D03*
Y76279D03*
Y76082D03*
D64*
X28594Y18819D03*
Y47599D03*
Y76378D03*
D65*
X27787Y21556D03*
Y21358D03*
Y21160D03*
Y50336D03*
Y50138D03*
Y49940D03*
Y79115D03*
Y78917D03*
Y78719D03*
D66*
X28319Y21161D03*
Y21555D03*
Y49941D03*
Y50335D03*
Y78720D03*
Y79114D03*
D67*
X29096Y20118D03*
Y48898D03*
Y77677D03*
D68*
X29391Y19476D03*
X28801D03*
Y20760D03*
X29391D03*
Y48256D03*
X28801D03*
Y49540D03*
X29391D03*
Y77035D03*
X28801D03*
Y78319D03*
X29391D03*
D69*
X28454Y19724D03*
Y19921D03*
Y20118D03*
Y20315D03*
Y20512D03*
X29738D03*
Y20315D03*
Y20118D03*
Y19921D03*
Y19724D03*
X28454Y48504D03*
Y48701D03*
Y48898D03*
Y49095D03*
Y49292D03*
X29738D03*
Y49095D03*
Y48898D03*
Y48701D03*
Y48504D03*
X28454Y77283D03*
Y77480D03*
Y77677D03*
Y77874D03*
Y78071D03*
X29738D03*
Y77874D03*
Y77677D03*
Y77480D03*
Y77283D03*
D70*
X23259Y31830D03*
X22866D03*
X22864Y32362D03*
X23063D03*
X23261D03*
X23259Y60610D03*
X22866D03*
X22864Y61142D03*
X23063D03*
X23261D03*
X23259Y89389D03*
X22866D03*
X22864Y89921D03*
X23063D03*
X23261D03*
D71*
X35148Y15520D03*
Y14997D03*
X31739Y14910D03*
Y14387D03*
X16741Y14973D03*
Y14449D03*
X32299Y23617D03*
Y24140D03*
X15911Y14973D03*
Y14449D03*
X17691Y14971D03*
Y14447D03*
X20141Y15803D03*
Y15279D03*
X35148Y44300D03*
Y43777D03*
X31739Y43690D03*
Y43167D03*
X16741Y43753D03*
Y43229D03*
X32299Y52397D03*
Y52920D03*
X15911Y43753D03*
Y43229D03*
X17691Y43751D03*
Y43227D03*
X20141Y44583D03*
Y44059D03*
X35148Y73079D03*
Y72556D03*
X31739Y72469D03*
Y71946D03*
X16741Y72532D03*
Y72008D03*
X32299Y81176D03*
Y81699D03*
X15911Y72532D03*
Y72008D03*
X17691Y72530D03*
Y72006D03*
X20141Y73362D03*
Y72838D03*
D72*
X37599Y15232D03*
Y13185D03*
X37009Y18952D03*
Y16905D03*
X42919Y22852D03*
Y20805D03*
X37599Y44012D03*
Y41965D03*
X37009Y47732D03*
Y45685D03*
X42919Y51632D03*
Y49585D03*
X37599Y72791D03*
Y70744D03*
X37009Y76511D03*
Y74464D03*
X42919Y80411D03*
Y78364D03*
D73*
X31498Y15689D03*
X32618D03*
X22861Y21001D03*
X23981D03*
X18841Y15771D03*
X17721D03*
X21831Y15681D03*
X22951D03*
X13309Y16078D03*
X14428D03*
X31498Y44469D03*
X32618D03*
X22861Y49781D03*
X23981D03*
X18841Y44551D03*
X17721D03*
X21831Y44461D03*
X22951D03*
X13309Y44858D03*
X14428D03*
X31498Y73248D03*
X32618D03*
X22861Y78560D03*
X23981D03*
X18841Y73330D03*
X17721D03*
X21831Y73240D03*
X22951D03*
X13309Y73637D03*
X14428D03*
D74*
X32964Y29476D03*
Y30145D03*
Y58256D03*
Y58925D03*
Y87035D03*
Y87704D03*
D75*
X23110Y27216D03*
Y28128D03*
X23844D03*
Y27216D03*
X23110Y55996D03*
Y56908D03*
X23844D03*
Y55996D03*
X23110Y84775D03*
Y85687D03*
X23844D03*
Y84775D03*
D76*
X47839Y13587D03*
Y15210D03*
Y42367D03*
Y43990D03*
Y71146D03*
Y72769D03*
D77*
X29708Y37408D03*
Y33658D03*
Y66188D03*
Y62438D03*
Y94967D03*
Y91217D03*
X37135Y37726D03*
Y66506D03*
Y95285D03*
D78*
X38078Y21398D03*
X40079D03*
X38078Y50178D03*
X40079D03*
X38078Y78957D03*
X40079D03*
D79*
X43558Y13222D03*
X42218D03*
Y18522D03*
X43558D03*
X45168Y28649D03*
X46508D03*
Y23349D03*
X45168D03*
X46459Y18519D03*
X45118D03*
Y13218D03*
X46459D03*
X43558Y42002D03*
X42218D03*
Y47302D03*
X43558D03*
X45168Y57429D03*
X46508D03*
Y52129D03*
X45168D03*
X46459Y47299D03*
X45118D03*
Y41998D03*
X46459D03*
X43558Y70781D03*
X42218D03*
Y76081D03*
X43558D03*
X45168Y86208D03*
X46508D03*
Y80908D03*
X45168D03*
X46459Y76078D03*
X45118D03*
Y70777D03*
X46459D03*
D80*
X17294Y31614D03*
Y32614D03*
X18294Y31614D03*
Y32614D03*
X19294Y31614D03*
Y32614D03*
X17294Y60394D03*
Y61394D03*
X18294Y60394D03*
Y61394D03*
X19294Y60394D03*
Y61394D03*
X17294Y89173D03*
Y90173D03*
X18294Y89173D03*
Y90173D03*
X19294Y89173D03*
Y90173D03*
D81*
X14567Y29528D03*
Y24795D03*
Y58308D03*
Y53575D03*
Y87087D03*
Y82354D03*
D82*
X12896Y34748D03*
Y32968D03*
Y63528D03*
Y61748D03*
Y92307D03*
Y90527D03*
D83*
X13876Y35238D03*
Y32478D03*
Y64018D03*
Y61258D03*
Y92797D03*
Y90037D03*
D84*
X37898Y24039D03*
X35472Y30185D03*
Y27075D03*
Y23965D03*
X48119Y38228D03*
X37908Y28179D03*
X37898Y52819D03*
X35472Y58965D03*
Y55855D03*
Y52745D03*
X48119Y67008D03*
X37908Y56959D03*
X37898Y81598D03*
X35472Y87744D03*
Y84634D03*
Y81524D03*
X48119Y95787D03*
X37908Y85738D03*
D85*
X37898Y25038D03*
Y26038D03*
X35472Y29185D03*
Y26075D03*
Y22965D03*
X48119Y37229D03*
X37908Y30178D03*
Y29179D03*
X37898Y53818D03*
Y54818D03*
X35472Y57965D03*
Y54855D03*
Y51745D03*
X48119Y66009D03*
X37908Y58958D03*
Y57959D03*
X37898Y82597D03*
Y83597D03*
X35472Y86744D03*
Y83634D03*
Y80524D03*
X48119Y94788D03*
X37908Y87737D03*
Y86738D03*
D86*
X20951Y37791D03*
X26131Y37795D03*
X19611Y12991D03*
X24729D03*
X29847Y15747D03*
Y12991D03*
X34969Y12995D03*
X16741Y35381D03*
X17741Y37791D03*
X20951Y66571D03*
X26131Y66575D03*
X19611Y41771D03*
X24729D03*
X29847Y44527D03*
Y41771D03*
X34969Y41775D03*
X16741Y64161D03*
X17741Y66571D03*
X20951Y95350D03*
X26131Y95354D03*
X19611Y70550D03*
X24729D03*
X29847Y73306D03*
Y70550D03*
X34969Y70554D03*
X16741Y92940D03*
X17741Y95350D03*
D87*
X19951Y37791D03*
X25131Y37795D03*
X24131D03*
X23131D03*
X16611Y12991D03*
X17611D03*
X18611D03*
X21729D03*
X22729D03*
X23729D03*
X26847Y15747D03*
X27847D03*
X28847D03*
X26847Y12991D03*
X27847D03*
X28847D03*
X31969Y12995D03*
X32969D03*
X33969D03*
X17741Y35381D03*
X16741Y37791D03*
X19951Y66571D03*
X25131Y66575D03*
X24131D03*
X23131D03*
X16611Y41771D03*
X17611D03*
X18611D03*
X21729D03*
X22729D03*
X23729D03*
X26847Y44527D03*
X27847D03*
X28847D03*
X26847Y41771D03*
X27847D03*
X28847D03*
X31969Y41775D03*
X32969D03*
X33969D03*
X17741Y64161D03*
X16741Y66571D03*
X19951Y95350D03*
X25131Y95354D03*
X24131D03*
X23131D03*
X16611Y70550D03*
X17611D03*
X18611D03*
X21729D03*
X22729D03*
X23729D03*
X26847Y73306D03*
X27847D03*
X28847D03*
X26847Y70550D03*
X27847D03*
X28847D03*
X31969Y70554D03*
X32969D03*
X33969D03*
X17741Y92940D03*
X16741Y95350D03*
D88*
X48338Y33914D03*
Y30663D03*
Y27413D03*
Y24163D03*
Y20914D03*
Y62694D03*
Y59443D03*
Y56193D03*
Y52943D03*
Y49694D03*
Y91473D03*
Y88222D03*
Y84972D03*
Y81722D03*
Y78473D03*
D89*
Y17664D03*
Y46444D03*
Y75223D03*
D90*
X52175Y16024D03*
Y44804D03*
Y73583D03*
%LPD*%
M02*