G04*
G04 #@! TF.GenerationSoftware,Altium Limited,Altium Designer,21.0.8 (223)*
G04*
G04 Layer_Color=16711935*
%FSLAX24Y24*%
%MOIN*%
G70*
G04*
G04 #@! TF.SameCoordinates,E1815635-7A5D-4FD7-A7C0-F7DF1B681885*
G04*
G04*
G04 #@! TF.FilePolarity,Negative*
G04*
G01*
G75*
%ADD12C,0.0100*%
%ADD142C,0.0580*%
%ADD192C,0.0631*%
G04:AMPARAMS|DCode=196|XSize=118.7mil|YSize=118.7mil|CornerRadius=59.4mil|HoleSize=0mil|Usage=FLASHONLY|Rotation=90.000|XOffset=0mil|YOffset=0mil|HoleType=Round|Shape=RoundedRectangle|*
%AMROUNDEDRECTD196*
21,1,0.1187,0.0000,0,0,90.0*
21,1,0.0000,0.1187,0,0,90.0*
1,1,0.1187,0.0000,0.0000*
1,1,0.1187,0.0000,0.0000*
1,1,0.1187,0.0000,0.0000*
1,1,0.1187,0.0000,0.0000*
%
%ADD196ROUNDEDRECTD196*%
G04:AMPARAMS|DCode=201|XSize=26mil|YSize=28mil|CornerRadius=6.4mil|HoleSize=0mil|Usage=FLASHONLY|Rotation=90.000|XOffset=0mil|YOffset=0mil|HoleType=Round|Shape=RoundedRectangle|*
%AMROUNDEDRECTD201*
21,1,0.0260,0.0152,0,0,90.0*
21,1,0.0132,0.0280,0,0,90.0*
1,1,0.0128,0.0076,0.0066*
1,1,0.0128,0.0076,-0.0066*
1,1,0.0128,-0.0076,-0.0066*
1,1,0.0128,-0.0076,0.0066*
%
%ADD201ROUNDEDRECTD201*%
G04:AMPARAMS|DCode=207|XSize=26mil|YSize=28mil|CornerRadius=6.4mil|HoleSize=0mil|Usage=FLASHONLY|Rotation=180.000|XOffset=0mil|YOffset=0mil|HoleType=Round|Shape=RoundedRectangle|*
%AMROUNDEDRECTD207*
21,1,0.0260,0.0152,0,0,180.0*
21,1,0.0132,0.0280,0,0,180.0*
1,1,0.0128,-0.0066,0.0076*
1,1,0.0128,0.0066,0.0076*
1,1,0.0128,0.0066,-0.0076*
1,1,0.0128,-0.0066,-0.0076*
%
%ADD207ROUNDEDRECTD207*%
G04:AMPARAMS|DCode=222|XSize=33.1mil|YSize=43.4mil|CornerRadius=7.8mil|HoleSize=0mil|Usage=FLASHONLY|Rotation=90.000|XOffset=0mil|YOffset=0mil|HoleType=Round|Shape=RoundedRectangle|*
%AMROUNDEDRECTD222*
21,1,0.0331,0.0277,0,0,90.0*
21,1,0.0175,0.0434,0,0,90.0*
1,1,0.0157,0.0139,0.0087*
1,1,0.0157,0.0139,-0.0087*
1,1,0.0157,-0.0139,-0.0087*
1,1,0.0157,-0.0139,0.0087*
%
%ADD222ROUNDEDRECTD222*%
G04:AMPARAMS|DCode=230|XSize=54mil|YSize=54mil|CornerRadius=27mil|HoleSize=0mil|Usage=FLASHONLY|Rotation=270.000|XOffset=0mil|YOffset=0mil|HoleType=Round|Shape=RoundedRectangle|*
%AMROUNDEDRECTD230*
21,1,0.0540,0.0000,0,0,270.0*
21,1,0.0000,0.0540,0,0,270.0*
1,1,0.0540,0.0000,0.0000*
1,1,0.0540,0.0000,0.0000*
1,1,0.0540,0.0000,0.0000*
1,1,0.0540,0.0000,0.0000*
%
%ADD230ROUNDEDRECTD230*%
%ADD254R,0.0631X0.0631*%
%ADD255C,0.0631*%
%ADD256O,0.0865X0.1690*%
%ADD257R,0.0631X0.0631*%
G04:AMPARAMS|DCode=258|XSize=137mil|YSize=87mil|CornerRadius=0mil|HoleSize=0mil|Usage=FLASHONLY|Rotation=270.000|XOffset=0mil|YOffset=0mil|HoleType=Round|Shape=Octagon|*
%AMOCTAGOND258*
4,1,8,-0.0217,-0.0685,0.0217,-0.0685,0.0435,-0.0468,0.0435,0.0468,0.0217,0.0685,-0.0217,0.0685,-0.0435,0.0468,-0.0435,-0.0468,-0.0217,-0.0685,0.0*
%
%ADD258OCTAGOND258*%

%ADD259P,0.0714X8X22.5*%
%ADD260C,0.1345*%
%ADD261P,0.0801X8X292.5*%
%ADD262C,0.1040*%
%ADD263R,0.1240X0.0640*%
%ADD264O,0.1240X0.0640*%
%ADD265R,0.0640X0.1240*%
%ADD266O,0.0640X0.1240*%
%ADD267O,0.1400X0.1400*%
%ADD268R,0.1400X0.1400*%
%ADD269C,0.0840*%
%ADD270R,0.0704X0.0354*%
%ADD271R,0.1241X0.0280*%
G04:AMPARAMS|DCode=272|XSize=54mil|YSize=54mil|CornerRadius=27mil|HoleSize=0mil|Usage=FLASHONLY|Rotation=180.000|XOffset=0mil|YOffset=0mil|HoleType=Round|Shape=RoundedRectangle|*
%AMROUNDEDRECTD272*
21,1,0.0540,0.0000,0,0,180.0*
21,1,0.0000,0.0540,0,0,180.0*
1,1,0.0540,0.0000,0.0000*
1,1,0.0540,0.0000,0.0000*
1,1,0.0540,0.0000,0.0000*
1,1,0.0540,0.0000,0.0000*
%
%ADD272ROUNDEDRECTD272*%
G04:AMPARAMS|DCode=273|XSize=50mil|YSize=67mil|CornerRadius=13.5mil|HoleSize=0mil|Usage=FLASHONLY|Rotation=270.000|XOffset=0mil|YOffset=0mil|HoleType=Round|Shape=RoundedRectangle|*
%AMROUNDEDRECTD273*
21,1,0.0500,0.0400,0,0,270.0*
21,1,0.0230,0.0670,0,0,270.0*
1,1,0.0270,-0.0200,-0.0115*
1,1,0.0270,-0.0200,0.0115*
1,1,0.0270,0.0200,0.0115*
1,1,0.0270,0.0200,-0.0115*
%
%ADD273ROUNDEDRECTD273*%
%ADD274R,0.0532X0.0375*%
%ADD275R,0.0631X0.0631*%
%ADD276C,0.0100*%
G36*
X39025Y95285D02*
X38235Y94985D01*
X38355Y95105D01*
Y95465D01*
X38235Y95585D01*
X39025Y95285D01*
D02*
G37*
G36*
Y94285D02*
X38235Y93985D01*
X38355Y94105D01*
Y94465D01*
X38235Y94585D01*
X39025Y94285D01*
D02*
G37*
G36*
Y93285D02*
X38235Y92985D01*
X38355Y93105D01*
Y93465D01*
X38235Y93585D01*
X39025Y93285D01*
D02*
G37*
G36*
Y92285D02*
X38235Y91985D01*
X38355Y92105D01*
Y92465D01*
X38235Y92585D01*
X39025Y92285D01*
D02*
G37*
G36*
Y91285D02*
X38235Y90985D01*
X38355Y91105D01*
Y91465D01*
X38235Y91585D01*
X39025Y91285D01*
D02*
G37*
G36*
X24049Y90887D02*
X24104Y90832D01*
X24104Y90447D01*
X22765Y90447D01*
Y90832D01*
X23084Y91151D01*
X23785D01*
X24049Y90887D01*
D02*
G37*
G36*
X46289Y85514D02*
X45379D01*
Y86904D01*
X46289D01*
Y85514D01*
D02*
G37*
G36*
X24104Y84691D02*
X24104Y84305D01*
X24049Y84250D01*
X23785Y83986D01*
X23084D01*
X22765Y84305D01*
Y84691D01*
X24104Y84691D01*
D02*
G37*
G36*
X46289Y80214D02*
X45379D01*
Y81604D01*
X46289D01*
Y80214D01*
D02*
G37*
G36*
X43338Y75388D02*
X42428D01*
Y76778D01*
X43338D01*
Y75388D01*
D02*
G37*
G36*
X46239Y75384D02*
X45329D01*
Y76774D01*
X46239D01*
Y75384D01*
D02*
G37*
G36*
X43338Y70088D02*
X42428D01*
Y71478D01*
X43338D01*
Y70088D01*
D02*
G37*
G36*
X46239Y70084D02*
X45329D01*
Y71474D01*
X46239D01*
Y70084D01*
D02*
G37*
G36*
X39025Y66505D02*
X38235Y66205D01*
X38355Y66325D01*
Y66685D01*
X38235Y66805D01*
X39025Y66505D01*
D02*
G37*
G36*
Y65505D02*
X38235Y65205D01*
X38355Y65325D01*
Y65685D01*
X38235Y65805D01*
X39025Y65505D01*
D02*
G37*
G36*
Y64505D02*
X38235Y64205D01*
X38355Y64325D01*
Y64685D01*
X38235Y64805D01*
X39025Y64505D01*
D02*
G37*
G36*
Y63505D02*
X38235Y63205D01*
X38355Y63325D01*
Y63685D01*
X38235Y63805D01*
X39025Y63505D01*
D02*
G37*
G36*
Y62505D02*
X38235Y62205D01*
X38355Y62325D01*
Y62685D01*
X38235Y62805D01*
X39025Y62505D01*
D02*
G37*
G36*
X24049Y62108D02*
X24104Y62053D01*
X24104Y61667D01*
X22765Y61667D01*
Y62053D01*
X23084Y62372D01*
X23785D01*
X24049Y62108D01*
D02*
G37*
G36*
X46289Y56734D02*
X45379D01*
Y58124D01*
X46289D01*
Y56734D01*
D02*
G37*
G36*
X24104Y55911D02*
X24104Y55525D01*
X24049Y55470D01*
X23785Y55206D01*
X23084D01*
X22765Y55525D01*
Y55911D01*
X24104Y55911D01*
D02*
G37*
G36*
X46289Y51434D02*
X45379D01*
Y52824D01*
X46289D01*
Y51434D01*
D02*
G37*
G36*
X43338Y46608D02*
X42428D01*
Y47998D01*
X43338D01*
Y46608D01*
D02*
G37*
G36*
X46239Y46604D02*
X45329D01*
Y47994D01*
X46239D01*
Y46604D01*
D02*
G37*
G36*
X43338Y41308D02*
X42428D01*
Y42698D01*
X43338D01*
Y41308D01*
D02*
G37*
G36*
X46239Y41304D02*
X45329D01*
Y42694D01*
X46239D01*
Y41304D01*
D02*
G37*
G36*
X39025Y37726D02*
X38235Y37426D01*
X38355Y37546D01*
Y37906D01*
X38235Y38026D01*
X39025Y37726D01*
D02*
G37*
G36*
Y36726D02*
X38235Y36426D01*
X38355Y36546D01*
Y36906D01*
X38235Y37026D01*
X39025Y36726D01*
D02*
G37*
G36*
Y35726D02*
X38235Y35426D01*
X38355Y35546D01*
Y35906D01*
X38235Y36026D01*
X39025Y35726D01*
D02*
G37*
G36*
Y34726D02*
X38235Y34426D01*
X38355Y34546D01*
Y34906D01*
X38235Y35026D01*
X39025Y34726D01*
D02*
G37*
G36*
Y33726D02*
X38235Y33426D01*
X38355Y33546D01*
Y33906D01*
X38235Y34026D01*
X39025Y33726D01*
D02*
G37*
G36*
X24049Y33328D02*
X24104Y33273D01*
X24104Y32887D01*
X22765Y32887D01*
Y33273D01*
X23084Y33592D01*
X23785D01*
X24049Y33328D01*
D02*
G37*
G36*
X46289Y27955D02*
X45379D01*
Y29345D01*
X46289D01*
Y27955D01*
D02*
G37*
G36*
X24104Y27132D02*
X24104Y26746D01*
X24049Y26691D01*
X23785Y26427D01*
X23084D01*
X22765Y26746D01*
Y27132D01*
X24104Y27132D01*
D02*
G37*
G36*
X46289Y22655D02*
X45379D01*
Y24045D01*
X46289D01*
Y22655D01*
D02*
G37*
G36*
X43338Y17829D02*
X42428D01*
Y19218D01*
X43338D01*
Y17829D01*
D02*
G37*
G36*
X46239Y17825D02*
X45329D01*
Y19215D01*
X46239D01*
Y17825D01*
D02*
G37*
G36*
X43338Y12529D02*
X42428D01*
Y13918D01*
X43338D01*
Y12529D01*
D02*
G37*
G36*
X46239Y12525D02*
X45329D01*
Y13915D01*
X46239D01*
Y12525D01*
D02*
G37*
G54D12*
X37000Y110100D02*
Y109500D01*
X37300D01*
X37400Y109600D01*
Y109700D01*
X37300Y109800D01*
X37000D01*
X37300D01*
X37400Y109900D01*
Y110000D01*
X37300Y110100D01*
X37000D01*
X37700Y109500D02*
X37900D01*
X38000Y109600D01*
Y109800D01*
X37900Y109900D01*
X37700D01*
X37600Y109800D01*
Y109600D01*
X37700Y109500D01*
X38300Y110000D02*
Y109900D01*
X38200D01*
X38400D01*
X38300D01*
Y109600D01*
X38400Y109500D01*
X38799Y110000D02*
Y109900D01*
X38699D01*
X38899D01*
X38799D01*
Y109600D01*
X38899Y109500D01*
X39299D02*
X39499D01*
X39599Y109600D01*
Y109800D01*
X39499Y109900D01*
X39299D01*
X39199Y109800D01*
Y109600D01*
X39299Y109500D01*
X39799D02*
Y109900D01*
X39899D01*
X39999Y109800D01*
Y109500D01*
Y109800D01*
X40099Y109900D01*
X40199Y109800D01*
Y109500D01*
X41399Y110000D02*
X41299Y110100D01*
X41099D01*
X40999Y110000D01*
Y109900D01*
X41099Y109800D01*
X41299D01*
X41399Y109700D01*
Y109600D01*
X41299Y109500D01*
X41099D01*
X40999Y109600D01*
X41698Y109500D02*
X41898D01*
X41998Y109600D01*
Y109800D01*
X41898Y109900D01*
X41698D01*
X41599Y109800D01*
Y109600D01*
X41698Y109500D01*
X42198D02*
X42398D01*
X42298D01*
Y110100D01*
X42198D01*
X43098D02*
Y109500D01*
X42798D01*
X42698Y109600D01*
Y109800D01*
X42798Y109900D01*
X43098D01*
X43598Y109500D02*
X43398D01*
X43298Y109600D01*
Y109800D01*
X43398Y109900D01*
X43598D01*
X43698Y109800D01*
Y109700D01*
X43298D01*
X43898Y109900D02*
Y109500D01*
Y109700D01*
X43998Y109800D01*
X44098Y109900D01*
X44198D01*
X44498Y109500D02*
Y109900D01*
X44598D01*
X44698Y109800D01*
Y109500D01*
Y109800D01*
X44797Y109900D01*
X44897Y109800D01*
Y109500D01*
X45197Y109900D02*
X45397D01*
X45497Y109800D01*
Y109500D01*
X45197D01*
X45097Y109600D01*
X45197Y109700D01*
X45497D01*
X45697Y109500D02*
X45997D01*
X46097Y109600D01*
X45997Y109700D01*
X45797D01*
X45697Y109800D01*
X45797Y109900D01*
X46097D01*
X46297Y109500D02*
Y110100D01*
Y109700D02*
X46597Y109900D01*
X46297Y109700D02*
X46597Y109500D01*
X37400Y111350D02*
X37000D01*
Y110750D01*
X37400D01*
X37000Y111050D02*
X37200D01*
X37600Y110750D02*
X37800D01*
X37700D01*
Y111150D01*
X37600D01*
X38100Y110750D02*
Y111150D01*
X38400D01*
X38500Y111050D01*
Y110750D01*
X38699D02*
X38999D01*
X39099Y110850D01*
X38999Y110950D01*
X38799D01*
X38699Y111050D01*
X38799Y111150D01*
X39099D01*
X39299D02*
Y110850D01*
X39399Y110750D01*
X39699D01*
Y110650D01*
X39599Y110550D01*
X39499D01*
X39699Y110750D02*
Y111150D01*
X40499Y110750D02*
X40699D01*
X40599D01*
Y111350D01*
X40499Y111250D01*
X40999Y110750D02*
Y110850D01*
X41099D01*
Y110750D01*
X40999D01*
X41898D02*
X41499D01*
X41898Y111150D01*
Y111250D01*
X41798Y111350D01*
X41599D01*
X41499Y111250D01*
X42398Y110750D02*
X42198D01*
X42098Y110850D01*
Y111050D01*
X42198Y111150D01*
X42398D01*
X42498Y111050D01*
Y110950D01*
X42098D01*
G54D142*
X16427Y26665D02*
D03*
Y27657D02*
D03*
X15637D02*
D03*
Y26665D02*
D03*
X16427Y55445D02*
D03*
Y56437D02*
D03*
X15637D02*
D03*
Y55445D02*
D03*
X16427Y84224D02*
D03*
Y85217D02*
D03*
X15637D02*
D03*
Y84224D02*
D03*
G54D192*
X38135Y37726D02*
D03*
Y36726D02*
D03*
Y35726D02*
D03*
Y34726D02*
D03*
Y33726D02*
D03*
Y66505D02*
D03*
Y65505D02*
D03*
Y64505D02*
D03*
Y63505D02*
D03*
Y62505D02*
D03*
Y95285D02*
D03*
Y94285D02*
D03*
Y93285D02*
D03*
Y92285D02*
D03*
Y91285D02*
D03*
G54D196*
X51800Y98572D02*
D03*
Y10600D02*
D03*
X13061Y10561D02*
D03*
G54D201*
X38407Y32088D02*
D03*
Y32467D02*
D03*
Y60868D02*
D03*
Y61247D02*
D03*
Y89648D02*
D03*
Y90027D02*
D03*
G54D207*
X37432Y32389D02*
D03*
X37053D02*
D03*
X37432Y61168D02*
D03*
X37053D02*
D03*
X37432Y89948D02*
D03*
X37053D02*
D03*
G54D222*
X28870Y29145D02*
D03*
Y28610D02*
D03*
Y29677D02*
D03*
Y29141D02*
D03*
Y30691D02*
D03*
Y30155D02*
D03*
Y57925D02*
D03*
Y57389D02*
D03*
Y58456D02*
D03*
Y57921D02*
D03*
Y59470D02*
D03*
Y58935D02*
D03*
Y86704D02*
D03*
Y86169D02*
D03*
Y87236D02*
D03*
Y86701D02*
D03*
Y88250D02*
D03*
Y87714D02*
D03*
G54D230*
X25968Y31969D02*
D03*
X32968Y13968D02*
D03*
X16968D02*
D03*
X17968D02*
D03*
X18968D02*
D03*
X19969D02*
D03*
X21969D02*
D03*
X24969D02*
D03*
X33969D02*
D03*
X41968Y23969D02*
D03*
X40968Y26969D02*
D03*
X39969Y28969D02*
D03*
X30968Y14969D02*
D03*
X32968D02*
D03*
X31969D02*
D03*
X33969D02*
D03*
X26969D02*
D03*
X28969D02*
D03*
X27968D02*
D03*
X29969D02*
D03*
X18968D02*
D03*
X22968D02*
D03*
X21969D02*
D03*
X23969D02*
D03*
X12968Y15969D02*
D03*
X39938Y13649D02*
D03*
X33969Y23969D02*
D03*
X35968Y33969D02*
D03*
X16968Y14969D02*
D03*
X15969D02*
D03*
X17968D02*
D03*
X16968Y27968D02*
D03*
X15969Y28969D02*
D03*
X19969Y35968D02*
D03*
X30968Y20968D02*
D03*
X25968Y60748D02*
D03*
X32968Y42748D02*
D03*
X16968D02*
D03*
X17968D02*
D03*
X18968D02*
D03*
X19969D02*
D03*
X21969D02*
D03*
X24969D02*
D03*
X33969D02*
D03*
X41968Y52748D02*
D03*
X40968Y55748D02*
D03*
X39969Y57748D02*
D03*
X30968Y43748D02*
D03*
X32968D02*
D03*
X31969D02*
D03*
X33969D02*
D03*
X26969D02*
D03*
X28969D02*
D03*
X27968D02*
D03*
X29969D02*
D03*
X18968D02*
D03*
X22968D02*
D03*
X21969D02*
D03*
X23969D02*
D03*
X12968Y44748D02*
D03*
X39938Y42428D02*
D03*
X33969Y52748D02*
D03*
X35968Y62748D02*
D03*
X16968Y43748D02*
D03*
X15969D02*
D03*
X17968D02*
D03*
X16968Y56748D02*
D03*
X15969Y57748D02*
D03*
X19969Y64748D02*
D03*
X30968Y49748D02*
D03*
X25968Y89528D02*
D03*
X32968Y71528D02*
D03*
X16968D02*
D03*
X17968D02*
D03*
X18968D02*
D03*
X19969D02*
D03*
X21969D02*
D03*
X24969D02*
D03*
X33969D02*
D03*
X41968Y81528D02*
D03*
X40968Y84528D02*
D03*
X39969Y86528D02*
D03*
X30968Y72528D02*
D03*
X32968D02*
D03*
X31969D02*
D03*
X33969D02*
D03*
X26969D02*
D03*
X28969D02*
D03*
X27968D02*
D03*
X29969D02*
D03*
X18968D02*
D03*
X22968D02*
D03*
X21969D02*
D03*
X23969D02*
D03*
X12968Y73528D02*
D03*
X39938Y71208D02*
D03*
X33969Y81528D02*
D03*
X35968Y91528D02*
D03*
X16968Y72528D02*
D03*
X15969D02*
D03*
X17968D02*
D03*
X16968Y85528D02*
D03*
X15969Y86528D02*
D03*
X19969Y93528D02*
D03*
X30968Y78528D02*
D03*
G54D254*
X29708Y37408D02*
D03*
Y33658D02*
D03*
Y66188D02*
D03*
Y62438D02*
D03*
Y94968D02*
D03*
Y91218D02*
D03*
G54D255*
Y38409D02*
D03*
X30708Y37408D02*
D03*
Y38409D02*
D03*
X31709Y37408D02*
D03*
Y38409D02*
D03*
X32708Y37408D02*
D03*
Y38409D02*
D03*
X33709Y37408D02*
D03*
Y38409D02*
D03*
X37135Y33726D02*
D03*
Y34726D02*
D03*
Y35726D02*
D03*
Y36726D02*
D03*
X33709Y34659D02*
D03*
Y33658D02*
D03*
X32708Y34659D02*
D03*
Y33658D02*
D03*
X31709Y34659D02*
D03*
Y33658D02*
D03*
X30708Y34659D02*
D03*
Y33658D02*
D03*
X29708Y34659D02*
D03*
Y67188D02*
D03*
X30708Y66188D02*
D03*
Y67188D02*
D03*
X31709Y66188D02*
D03*
Y67188D02*
D03*
X32708Y66188D02*
D03*
Y67188D02*
D03*
X33709Y66188D02*
D03*
Y67188D02*
D03*
X37135Y62505D02*
D03*
Y63505D02*
D03*
Y64505D02*
D03*
Y65505D02*
D03*
X33709Y63438D02*
D03*
Y62438D02*
D03*
X32708Y63438D02*
D03*
Y62438D02*
D03*
X31709Y63438D02*
D03*
Y62438D02*
D03*
X30708Y63438D02*
D03*
Y62438D02*
D03*
X29708Y63438D02*
D03*
Y95968D02*
D03*
X30708Y94968D02*
D03*
Y95968D02*
D03*
X31709Y94968D02*
D03*
Y95968D02*
D03*
X32708Y94968D02*
D03*
Y95968D02*
D03*
X33709Y94968D02*
D03*
Y95968D02*
D03*
X37135Y91285D02*
D03*
Y92285D02*
D03*
Y93285D02*
D03*
Y94285D02*
D03*
X33709Y92218D02*
D03*
Y91218D02*
D03*
X32708Y92218D02*
D03*
Y91218D02*
D03*
X31709Y92218D02*
D03*
Y91218D02*
D03*
X30708Y92218D02*
D03*
Y91218D02*
D03*
X29708Y92218D02*
D03*
G54D256*
X38078Y21398D02*
D03*
X40079D02*
D03*
X38078Y50178D02*
D03*
X40079D02*
D03*
X38078Y78958D02*
D03*
X40079D02*
D03*
G54D257*
X37135Y37726D02*
D03*
Y66505D02*
D03*
Y95285D02*
D03*
G54D258*
X43558Y13222D02*
D03*
X42218D02*
D03*
Y18522D02*
D03*
X43558D02*
D03*
X45168Y28649D02*
D03*
X46508D02*
D03*
Y23349D02*
D03*
X45168D02*
D03*
X46459Y18519D02*
D03*
X45118D02*
D03*
Y13218D02*
D03*
X46459D02*
D03*
X43558Y42002D02*
D03*
X42218D02*
D03*
Y47302D02*
D03*
X43558D02*
D03*
X45168Y57428D02*
D03*
X46508D02*
D03*
Y52128D02*
D03*
X45168D02*
D03*
X46459Y47298D02*
D03*
X45118D02*
D03*
Y41998D02*
D03*
X46459D02*
D03*
X43558Y70781D02*
D03*
X42218D02*
D03*
Y76082D02*
D03*
X43558D02*
D03*
X45168Y86208D02*
D03*
X46508D02*
D03*
Y80908D02*
D03*
X45168D02*
D03*
X46459Y76078D02*
D03*
X45118D02*
D03*
Y70778D02*
D03*
X46459D02*
D03*
G54D259*
X17294Y31614D02*
D03*
Y32614D02*
D03*
X18294Y31614D02*
D03*
Y32614D02*
D03*
X19294Y31614D02*
D03*
Y32614D02*
D03*
X17294Y60394D02*
D03*
Y61394D02*
D03*
X18294Y60394D02*
D03*
Y61394D02*
D03*
X19294Y60394D02*
D03*
Y61394D02*
D03*
X17294Y89173D02*
D03*
Y90173D02*
D03*
X18294Y89173D02*
D03*
Y90173D02*
D03*
X19294Y89173D02*
D03*
Y90173D02*
D03*
G54D260*
X14567Y29528D02*
D03*
Y24795D02*
D03*
Y58307D02*
D03*
Y53575D02*
D03*
Y87087D02*
D03*
Y82354D02*
D03*
G54D261*
X12896Y34748D02*
D03*
Y32968D02*
D03*
Y63528D02*
D03*
Y61748D02*
D03*
Y92307D02*
D03*
Y90527D02*
D03*
G54D262*
X13876Y35238D02*
D03*
Y32478D02*
D03*
Y64018D02*
D03*
Y61258D02*
D03*
Y92797D02*
D03*
Y90037D02*
D03*
G54D263*
X37898Y24039D02*
D03*
X35472Y30185D02*
D03*
Y27075D02*
D03*
Y23965D02*
D03*
X48119Y38228D02*
D03*
X37908Y28179D02*
D03*
X37898Y52818D02*
D03*
X35472Y58965D02*
D03*
Y55854D02*
D03*
Y52744D02*
D03*
X48119Y67008D02*
D03*
X37908Y56958D02*
D03*
X37898Y81598D02*
D03*
X35472Y87744D02*
D03*
Y84634D02*
D03*
Y81524D02*
D03*
X48119Y95788D02*
D03*
X37908Y85738D02*
D03*
G54D264*
X37898Y25038D02*
D03*
Y26038D02*
D03*
X35472Y29185D02*
D03*
Y26075D02*
D03*
Y22965D02*
D03*
X48119Y37229D02*
D03*
X37908Y30178D02*
D03*
Y29179D02*
D03*
X37898Y53818D02*
D03*
Y54818D02*
D03*
X35472Y57965D02*
D03*
Y54854D02*
D03*
Y51744D02*
D03*
X48119Y66008D02*
D03*
X37908Y58958D02*
D03*
Y57958D02*
D03*
X37898Y82598D02*
D03*
Y83598D02*
D03*
X35472Y86744D02*
D03*
Y83634D02*
D03*
Y80524D02*
D03*
X48119Y94788D02*
D03*
X37908Y87738D02*
D03*
Y86738D02*
D03*
G54D265*
X20951Y37791D02*
D03*
X26131Y37795D02*
D03*
X19611Y12991D02*
D03*
X24729D02*
D03*
X29847Y15747D02*
D03*
Y12991D02*
D03*
X34969Y12995D02*
D03*
X16741Y35381D02*
D03*
X17741Y37791D02*
D03*
X20951Y66571D02*
D03*
X26131Y66575D02*
D03*
X19611Y41771D02*
D03*
X24729D02*
D03*
X29847Y44526D02*
D03*
Y41771D02*
D03*
X34969Y41774D02*
D03*
X16741Y64161D02*
D03*
X17741Y66571D02*
D03*
X20951Y95350D02*
D03*
X26131Y95354D02*
D03*
X19611Y70550D02*
D03*
X24729D02*
D03*
X29847Y73306D02*
D03*
Y70550D02*
D03*
X34969Y70554D02*
D03*
X16741Y92940D02*
D03*
X17741Y95350D02*
D03*
G54D266*
X19951Y37791D02*
D03*
X25131Y37795D02*
D03*
X24131D02*
D03*
X23131D02*
D03*
X16611Y12991D02*
D03*
X17611D02*
D03*
X18611D02*
D03*
X21729D02*
D03*
X22729D02*
D03*
X23729D02*
D03*
X26847Y15747D02*
D03*
X27847D02*
D03*
X28847D02*
D03*
X26847Y12991D02*
D03*
X27847D02*
D03*
X28847D02*
D03*
X31969Y12995D02*
D03*
X32969D02*
D03*
X33969D02*
D03*
X17741Y35381D02*
D03*
X16741Y37791D02*
D03*
X19951Y66571D02*
D03*
X25131Y66575D02*
D03*
X24131D02*
D03*
X23131D02*
D03*
X16611Y41771D02*
D03*
X17611D02*
D03*
X18611D02*
D03*
X21729D02*
D03*
X22729D02*
D03*
X23729D02*
D03*
X26847Y44526D02*
D03*
X27847D02*
D03*
X28847D02*
D03*
X26847Y41771D02*
D03*
X27847D02*
D03*
X28847D02*
D03*
X31969Y41774D02*
D03*
X32969D02*
D03*
X33969D02*
D03*
X17741Y64161D02*
D03*
X16741Y66571D02*
D03*
X19951Y95350D02*
D03*
X25131Y95354D02*
D03*
X24131D02*
D03*
X23131D02*
D03*
X16611Y70550D02*
D03*
X17611D02*
D03*
X18611D02*
D03*
X21729D02*
D03*
X22729D02*
D03*
X23729D02*
D03*
X26847Y73306D02*
D03*
X27847D02*
D03*
X28847D02*
D03*
X26847Y70550D02*
D03*
X27847D02*
D03*
X28847D02*
D03*
X31969Y70554D02*
D03*
X32969D02*
D03*
X33969D02*
D03*
X17741Y92940D02*
D03*
X16741Y95350D02*
D03*
G54D267*
X48338Y33914D02*
D03*
Y30663D02*
D03*
Y27413D02*
D03*
Y24163D02*
D03*
Y20914D02*
D03*
Y62693D02*
D03*
Y59443D02*
D03*
Y56193D02*
D03*
Y52943D02*
D03*
Y49693D02*
D03*
Y91473D02*
D03*
Y88223D02*
D03*
Y84973D02*
D03*
Y81723D02*
D03*
Y78473D02*
D03*
G54D268*
Y17664D02*
D03*
Y46443D02*
D03*
Y75223D02*
D03*
G54D269*
X52175Y16024D02*
D03*
Y44803D02*
D03*
Y73583D02*
D03*
G54D270*
X20593Y30472D02*
D03*
X51190Y15895D02*
D03*
X15263Y36211D02*
D03*
X15443Y12601D02*
D03*
X51183Y35551D02*
D03*
X20593Y59252D02*
D03*
X51190Y44675D02*
D03*
X15263Y64990D02*
D03*
X15443Y41380D02*
D03*
X51183Y64330D02*
D03*
X20593Y88032D02*
D03*
X51190Y73454D02*
D03*
X15263Y93770D02*
D03*
X15443Y70160D02*
D03*
X51183Y93110D02*
D03*
G54D271*
X27502Y28604D02*
D03*
Y29809D02*
D03*
Y30210D02*
D03*
Y30612D02*
D03*
Y31013D02*
D03*
Y31415D02*
D03*
Y29407D02*
D03*
Y29006D02*
D03*
Y57384D02*
D03*
Y58588D02*
D03*
Y58990D02*
D03*
Y59391D02*
D03*
Y59793D02*
D03*
Y60195D02*
D03*
Y58187D02*
D03*
Y57785D02*
D03*
Y86163D02*
D03*
Y87368D02*
D03*
Y87769D02*
D03*
Y88171D02*
D03*
Y88573D02*
D03*
Y88974D02*
D03*
Y86966D02*
D03*
Y86565D02*
D03*
G54D272*
X33969Y25968D02*
D03*
Y28969D02*
D03*
X46968Y15969D02*
D03*
X44969D02*
D03*
X42969D02*
D03*
X26969Y38969D02*
D03*
X14969Y26969D02*
D03*
X15969Y25968D02*
D03*
X18968Y30968D02*
D03*
X15969Y31969D02*
D03*
X17968Y30968D02*
D03*
X18968Y29969D02*
D03*
X21978Y36969D02*
D03*
X18968Y35968D02*
D03*
X24969Y30968D02*
D03*
X29969Y32968D02*
D03*
X22968Y30968D02*
D03*
X41968Y24969D02*
D03*
X49969Y28969D02*
D03*
X37968Y19969D02*
D03*
X49969Y30968D02*
D03*
X19969Y24969D02*
D03*
Y26969D02*
D03*
Y27968D02*
D03*
X22968Y25968D02*
D03*
X23969Y24969D02*
D03*
X22968D02*
D03*
X33969Y54748D02*
D03*
Y57748D02*
D03*
X46968Y44748D02*
D03*
X44969D02*
D03*
X42969D02*
D03*
X26969Y67748D02*
D03*
X14969Y55748D02*
D03*
X15969Y54748D02*
D03*
X18968Y59748D02*
D03*
X15969Y60748D02*
D03*
X17968Y59748D02*
D03*
X18968Y58748D02*
D03*
X21978Y65748D02*
D03*
X18968Y64748D02*
D03*
X24969Y59748D02*
D03*
X29969Y61748D02*
D03*
X22968Y59748D02*
D03*
X41968Y53748D02*
D03*
X49969Y57748D02*
D03*
X37968Y48748D02*
D03*
X49969Y59748D02*
D03*
X19969Y53748D02*
D03*
Y55748D02*
D03*
Y56748D02*
D03*
X22968Y54748D02*
D03*
X23969Y53748D02*
D03*
X22968D02*
D03*
X33969Y83528D02*
D03*
Y86528D02*
D03*
X46968Y73528D02*
D03*
X44969D02*
D03*
X42969D02*
D03*
X26969Y96528D02*
D03*
X14969Y84528D02*
D03*
X15969Y83528D02*
D03*
X18968Y88528D02*
D03*
X15969Y89528D02*
D03*
X17968Y88528D02*
D03*
X18968Y87528D02*
D03*
X21978Y94528D02*
D03*
X18968Y93528D02*
D03*
X24969Y88528D02*
D03*
X29969Y90528D02*
D03*
X22968Y88528D02*
D03*
X41968Y82528D02*
D03*
X49969Y86528D02*
D03*
X37968Y77528D02*
D03*
X49969Y88528D02*
D03*
X19969Y82528D02*
D03*
Y84528D02*
D03*
Y85528D02*
D03*
X22968Y83528D02*
D03*
X23969Y82528D02*
D03*
X22968D02*
D03*
G54D273*
X20600Y30763D02*
D03*
Y30163D02*
D03*
X51183Y15605D02*
D03*
Y16205D02*
D03*
X15271Y36501D02*
D03*
Y35901D02*
D03*
X15451Y12891D02*
D03*
Y12291D02*
D03*
X51191Y35841D02*
D03*
Y35241D02*
D03*
X20600Y59542D02*
D03*
Y58942D02*
D03*
X51183Y44385D02*
D03*
Y44985D02*
D03*
X15271Y65281D02*
D03*
Y64681D02*
D03*
X15451Y41671D02*
D03*
Y41071D02*
D03*
X51191Y64621D02*
D03*
Y64021D02*
D03*
X20600Y88322D02*
D03*
Y87722D02*
D03*
X51183Y73164D02*
D03*
Y73764D02*
D03*
X15271Y94060D02*
D03*
Y93460D02*
D03*
X15451Y70450D02*
D03*
Y69850D02*
D03*
X51191Y93400D02*
D03*
Y92800D02*
D03*
G54D274*
X12391Y30007D02*
D03*
Y30735D02*
D03*
X13411D02*
D03*
Y30007D02*
D03*
X12391Y58786D02*
D03*
Y59515D02*
D03*
X13411D02*
D03*
Y58786D02*
D03*
X12391Y87566D02*
D03*
Y88294D02*
D03*
X13411D02*
D03*
Y87566D02*
D03*
G54D275*
X39415Y37726D02*
D03*
Y36726D02*
D03*
Y35726D02*
D03*
Y34726D02*
D03*
Y33726D02*
D03*
Y66505D02*
D03*
Y65505D02*
D03*
Y64505D02*
D03*
Y63505D02*
D03*
Y62505D02*
D03*
Y95285D02*
D03*
Y94285D02*
D03*
Y93285D02*
D03*
Y92285D02*
D03*
Y91285D02*
D03*
G54D276*
X43630Y30096D02*
D03*
X44030D02*
D03*
Y30496D02*
D03*
X43630D02*
D03*
Y30896D02*
D03*
X44030D02*
D03*
Y31296D02*
D03*
X43630D02*
D03*
X42830D02*
D03*
X42430D02*
D03*
Y30896D02*
D03*
X42830D02*
D03*
Y30496D02*
D03*
X42430D02*
D03*
Y30096D02*
D03*
X42830D02*
D03*
X43230D02*
D03*
Y30496D02*
D03*
Y31296D02*
D03*
Y30896D02*
D03*
X39977Y17285D02*
D03*
Y17685D02*
D03*
X39577D02*
D03*
Y17285D02*
D03*
X39177D02*
D03*
Y17685D02*
D03*
X38777D02*
D03*
Y17285D02*
D03*
Y16485D02*
D03*
Y16085D02*
D03*
X39177D02*
D03*
Y16485D02*
D03*
X39577D02*
D03*
Y16085D02*
D03*
X39977D02*
D03*
Y16485D02*
D03*
Y16885D02*
D03*
X39577D02*
D03*
X38777D02*
D03*
X39177D02*
D03*
X32625Y18659D02*
D03*
X33492Y17359D02*
D03*
X33059D02*
D03*
X32625D02*
D03*
X33492Y17793D02*
D03*
X33059D02*
D03*
X32625D02*
D03*
X33492Y18226D02*
D03*
X33059D02*
D03*
X32625D02*
D03*
X33492Y18659D02*
D03*
X33059D02*
D03*
X19769Y29069D02*
D03*
Y29443D02*
D03*
X19392Y29446D02*
D03*
X19396Y29069D02*
D03*
X19394Y28685D02*
D03*
X19769Y28694D02*
D03*
X20143D02*
D03*
Y29069D02*
D03*
Y29443D02*
D03*
X14445Y19019D02*
D03*
X14878D02*
D03*
X14012Y18586D02*
D03*
X14445D02*
D03*
X14878D02*
D03*
X14012Y18153D02*
D03*
X14445D02*
D03*
X14878D02*
D03*
X14012Y17719D02*
D03*
X14445D02*
D03*
X14878D02*
D03*
X14012Y19019D02*
D03*
X18918Y18659D02*
D03*
X19352D02*
D03*
X18485Y18226D02*
D03*
X18918D02*
D03*
X19352D02*
D03*
X18485Y17793D02*
D03*
X18918D02*
D03*
X19352D02*
D03*
X18485Y17359D02*
D03*
X18918D02*
D03*
X19352D02*
D03*
X18485Y18659D02*
D03*
X23419D02*
D03*
X23852D02*
D03*
X22985Y18226D02*
D03*
X23419D02*
D03*
X23852D02*
D03*
X22985Y17793D02*
D03*
X23419D02*
D03*
X23852D02*
D03*
X22985Y17359D02*
D03*
X23419D02*
D03*
X23852D02*
D03*
X22985Y18659D02*
D03*
X43630Y58876D02*
D03*
X44030D02*
D03*
Y59276D02*
D03*
X43630D02*
D03*
Y59676D02*
D03*
X44030D02*
D03*
Y60076D02*
D03*
X43630D02*
D03*
X42830D02*
D03*
X42430D02*
D03*
Y59676D02*
D03*
X42830D02*
D03*
Y59276D02*
D03*
X42430D02*
D03*
Y58876D02*
D03*
X42830D02*
D03*
X43230D02*
D03*
Y59276D02*
D03*
Y60076D02*
D03*
Y59676D02*
D03*
X39977Y46065D02*
D03*
Y46465D02*
D03*
X39577D02*
D03*
Y46065D02*
D03*
X39177D02*
D03*
Y46465D02*
D03*
X38777D02*
D03*
Y46065D02*
D03*
Y45265D02*
D03*
Y44865D02*
D03*
X39177D02*
D03*
Y45265D02*
D03*
X39577D02*
D03*
Y44865D02*
D03*
X39977D02*
D03*
Y45265D02*
D03*
Y45665D02*
D03*
X39577D02*
D03*
X38777D02*
D03*
X39177D02*
D03*
X32625Y47438D02*
D03*
X33492Y46139D02*
D03*
X33059D02*
D03*
X32625D02*
D03*
X33492Y46572D02*
D03*
X33059D02*
D03*
X32625D02*
D03*
X33492Y47005D02*
D03*
X33059D02*
D03*
X32625D02*
D03*
X33492Y47438D02*
D03*
X33059D02*
D03*
X19769Y57848D02*
D03*
Y58222D02*
D03*
X19392Y58226D02*
D03*
X19396Y57848D02*
D03*
X19394Y57464D02*
D03*
X19769Y57474D02*
D03*
X20143D02*
D03*
Y57848D02*
D03*
Y58222D02*
D03*
X14445Y47798D02*
D03*
X14878D02*
D03*
X14012Y47365D02*
D03*
X14445D02*
D03*
X14878D02*
D03*
X14012Y46932D02*
D03*
X14445D02*
D03*
X14878D02*
D03*
X14012Y46499D02*
D03*
X14445D02*
D03*
X14878D02*
D03*
X14012Y47798D02*
D03*
X18918Y47438D02*
D03*
X19352D02*
D03*
X18485Y47005D02*
D03*
X18918D02*
D03*
X19352D02*
D03*
X18485Y46572D02*
D03*
X18918D02*
D03*
X19352D02*
D03*
X18485Y46139D02*
D03*
X18918D02*
D03*
X19352D02*
D03*
X18485Y47438D02*
D03*
X23419D02*
D03*
X23852D02*
D03*
X22985Y47005D02*
D03*
X23419D02*
D03*
X23852D02*
D03*
X22985Y46572D02*
D03*
X23419D02*
D03*
X23852D02*
D03*
X22985Y46139D02*
D03*
X23419D02*
D03*
X23852D02*
D03*
X22985Y47438D02*
D03*
X43630Y87655D02*
D03*
X44030D02*
D03*
Y88055D02*
D03*
X43630D02*
D03*
Y88455D02*
D03*
X44030D02*
D03*
Y88855D02*
D03*
X43630D02*
D03*
X42830D02*
D03*
X42430D02*
D03*
Y88455D02*
D03*
X42830D02*
D03*
Y88055D02*
D03*
X42430D02*
D03*
Y87655D02*
D03*
X42830D02*
D03*
X43230D02*
D03*
Y88055D02*
D03*
Y88855D02*
D03*
Y88455D02*
D03*
X39977Y74844D02*
D03*
Y75244D02*
D03*
X39577D02*
D03*
Y74844D02*
D03*
X39177D02*
D03*
Y75244D02*
D03*
X38777D02*
D03*
Y74844D02*
D03*
Y74044D02*
D03*
Y73644D02*
D03*
X39177D02*
D03*
Y74044D02*
D03*
X39577D02*
D03*
Y73644D02*
D03*
X39977D02*
D03*
Y74044D02*
D03*
Y74444D02*
D03*
X39577D02*
D03*
X38777D02*
D03*
X39177D02*
D03*
X32625Y76218D02*
D03*
X33492Y74918D02*
D03*
X33059D02*
D03*
X32625D02*
D03*
X33492Y75352D02*
D03*
X33059D02*
D03*
X32625D02*
D03*
X33492Y75785D02*
D03*
X33059D02*
D03*
X32625D02*
D03*
X33492Y76218D02*
D03*
X33059D02*
D03*
X19769Y86628D02*
D03*
Y87002D02*
D03*
X19392Y87005D02*
D03*
X19396Y86628D02*
D03*
X19394Y86244D02*
D03*
X19769Y86254D02*
D03*
X20143D02*
D03*
Y86628D02*
D03*
Y87002D02*
D03*
X14445Y76578D02*
D03*
X14878D02*
D03*
X14012Y76145D02*
D03*
X14445D02*
D03*
X14878D02*
D03*
X14012Y75712D02*
D03*
X14445D02*
D03*
X14878D02*
D03*
X14012Y75279D02*
D03*
X14445D02*
D03*
X14878D02*
D03*
X14012Y76578D02*
D03*
X18918Y76218D02*
D03*
X19352D02*
D03*
X18485Y75785D02*
D03*
X18918D02*
D03*
X19352D02*
D03*
X18485Y75352D02*
D03*
X18918D02*
D03*
X19352D02*
D03*
X18485Y74918D02*
D03*
X18918D02*
D03*
X19352D02*
D03*
X18485Y76218D02*
D03*
X23419D02*
D03*
X23852D02*
D03*
X22985Y75785D02*
D03*
X23419D02*
D03*
X23852D02*
D03*
X22985Y75352D02*
D03*
X23419D02*
D03*
X23852D02*
D03*
X22985Y74918D02*
D03*
X23419D02*
D03*
X23852D02*
D03*
X22985Y76218D02*
D03*
M02*
