G04*
G04 #@! TF.GenerationSoftware,Altium Limited,Altium Designer,21.0.8 (223)*
G04*
G04 Layer_Color=128*
%FSLAX24Y24*%
%MOIN*%
G70*
G04*
G04 #@! TF.SameCoordinates,7408405E-8583-44A1-A0F5-06007D302AFB*
G04*
G04*
G04 #@! TF.FilePolarity,Positive*
G04*
G01*
G75*
G04:AMPARAMS|DCode=18|XSize=78.7mil|YSize=78.7mil|CornerRadius=39.4mil|HoleSize=0mil|Usage=FLASHONLY|Rotation=90.000|XOffset=0mil|YOffset=0mil|HoleType=Round|Shape=RoundedRectangle|*
%AMROUNDEDRECTD18*
21,1,0.0787,0.0000,0,0,90.0*
21,1,0.0000,0.0787,0,0,90.0*
1,1,0.0787,0.0000,0.0000*
1,1,0.0787,0.0000,0.0000*
1,1,0.0787,0.0000,0.0000*
1,1,0.0787,0.0000,0.0000*
%
%ADD18ROUNDEDRECTD18*%
G04:AMPARAMS|DCode=22|XSize=20mil|YSize=22mil|CornerRadius=3.4mil|HoleSize=0mil|Usage=FLASHONLY|Rotation=90.000|XOffset=0mil|YOffset=0mil|HoleType=Round|Shape=RoundedRectangle|*
%AMROUNDEDRECTD22*
21,1,0.0200,0.0152,0,0,90.0*
21,1,0.0132,0.0220,0,0,90.0*
1,1,0.0068,0.0076,0.0066*
1,1,0.0068,0.0076,-0.0066*
1,1,0.0068,-0.0076,-0.0066*
1,1,0.0068,-0.0076,0.0066*
%
%ADD22ROUNDEDRECTD22*%
G04:AMPARAMS|DCode=26|XSize=20mil|YSize=22mil|CornerRadius=3.4mil|HoleSize=0mil|Usage=FLASHONLY|Rotation=180.000|XOffset=0mil|YOffset=0mil|HoleType=Round|Shape=RoundedRectangle|*
%AMROUNDEDRECTD26*
21,1,0.0200,0.0152,0,0,180.0*
21,1,0.0132,0.0220,0,0,180.0*
1,1,0.0068,-0.0066,0.0076*
1,1,0.0068,0.0066,0.0076*
1,1,0.0068,0.0066,-0.0076*
1,1,0.0068,-0.0066,-0.0076*
%
%ADD26ROUNDEDRECTD26*%
G04:AMPARAMS|DCode=40|XSize=27.1mil|YSize=37.4mil|CornerRadius=4.8mil|HoleSize=0mil|Usage=FLASHONLY|Rotation=90.000|XOffset=0mil|YOffset=0mil|HoleType=Round|Shape=RoundedRectangle|*
%AMROUNDEDRECTD40*
21,1,0.0271,0.0277,0,0,90.0*
21,1,0.0175,0.0374,0,0,90.0*
1,1,0.0097,0.0139,0.0087*
1,1,0.0097,0.0139,-0.0087*
1,1,0.0097,-0.0139,-0.0087*
1,1,0.0097,-0.0139,0.0087*
%
%ADD40ROUNDEDRECTD40*%
%ADD70R,0.1181X0.0220*%
G04:AMPARAMS|DCode=71|XSize=48mil|YSize=48mil|CornerRadius=24mil|HoleSize=0mil|Usage=FLASHONLY|Rotation=180.000|XOffset=0mil|YOffset=0mil|HoleType=Round|Shape=RoundedRectangle|*
%AMROUNDEDRECTD71*
21,1,0.0480,0.0000,0,0,180.0*
21,1,0.0000,0.0480,0,0,180.0*
1,1,0.0480,0.0000,0.0000*
1,1,0.0480,0.0000,0.0000*
1,1,0.0480,0.0000,0.0000*
1,1,0.0480,0.0000,0.0000*
%
%ADD71ROUNDEDRECTD71*%
%ADD72R,0.0472X0.0315*%
G04:AMPARAMS|DCode=73|XSize=44mil|YSize=61mil|CornerRadius=10.5mil|HoleSize=0mil|Usage=FLASHONLY|Rotation=90.000|XOffset=0mil|YOffset=0mil|HoleType=Round|Shape=RoundedRectangle|*
%AMROUNDEDRECTD73*
21,1,0.0440,0.0400,0,0,90.0*
21,1,0.0230,0.0610,0,0,90.0*
1,1,0.0210,0.0200,0.0115*
1,1,0.0210,0.0200,-0.0115*
1,1,0.0210,-0.0200,-0.0115*
1,1,0.0210,-0.0200,0.0115*
%
%ADD73ROUNDEDRECTD73*%
G36*
X23777Y91139D02*
X24088Y90828D01*
X24088Y90462D01*
X22777Y90462D01*
X22777Y90828D01*
X23088Y91139D01*
X23777Y91139D01*
D02*
G37*
G36*
X24088Y84675D02*
X24088Y84309D01*
X23777Y83998D01*
X23088Y83998D01*
X22777Y84309D01*
X22777Y84675D01*
X24088Y84675D01*
D02*
G37*
G36*
X23777Y62360D02*
X24088Y62049D01*
X24088Y61683D01*
X22777Y61683D01*
X22777Y62049D01*
X23088Y62360D01*
X23777Y62360D01*
D02*
G37*
G36*
X24088Y55895D02*
X24088Y55529D01*
X23777Y55218D01*
X23088Y55218D01*
X22777Y55529D01*
X22777Y55895D01*
X24088Y55895D01*
D02*
G37*
G36*
X23777Y33580D02*
X24088Y33269D01*
X24088Y32903D01*
X22777Y32903D01*
X22777Y33269D01*
X23088Y33580D01*
X23777Y33580D01*
D02*
G37*
G36*
X24088Y27116D02*
X24088Y26750D01*
X23777Y26439D01*
X23088Y26439D01*
X22777Y26750D01*
X22777Y27116D01*
X24088Y27116D01*
D02*
G37*
G54D18*
X51800Y98572D02*
D03*
Y10600D02*
D03*
X13061Y10561D02*
D03*
G54D22*
X38407Y32088D02*
D03*
Y32467D02*
D03*
Y60868D02*
D03*
Y61247D02*
D03*
Y89648D02*
D03*
Y90027D02*
D03*
G54D26*
X37432Y32389D02*
D03*
X37053D02*
D03*
X37432Y61168D02*
D03*
X37053D02*
D03*
X37432Y89948D02*
D03*
X37053D02*
D03*
G54D40*
X28870Y29145D02*
D03*
Y28610D02*
D03*
Y29677D02*
D03*
Y29141D02*
D03*
Y30691D02*
D03*
Y30155D02*
D03*
Y57925D02*
D03*
Y57389D02*
D03*
Y58456D02*
D03*
Y57921D02*
D03*
Y59470D02*
D03*
Y58935D02*
D03*
Y86704D02*
D03*
Y86169D02*
D03*
Y87236D02*
D03*
Y86701D02*
D03*
Y88250D02*
D03*
Y87714D02*
D03*
G54D70*
X27502Y28604D02*
D03*
Y29809D02*
D03*
Y30210D02*
D03*
Y30612D02*
D03*
Y31013D02*
D03*
Y31415D02*
D03*
Y29407D02*
D03*
Y29006D02*
D03*
Y57384D02*
D03*
Y58588D02*
D03*
Y58990D02*
D03*
Y59391D02*
D03*
Y59793D02*
D03*
Y60195D02*
D03*
Y58187D02*
D03*
Y57785D02*
D03*
Y86163D02*
D03*
Y87368D02*
D03*
Y87769D02*
D03*
Y88171D02*
D03*
Y88573D02*
D03*
Y88974D02*
D03*
Y86966D02*
D03*
Y86565D02*
D03*
G54D71*
X33969Y25968D02*
D03*
Y28969D02*
D03*
Y54748D02*
D03*
Y57748D02*
D03*
Y83528D02*
D03*
Y86528D02*
D03*
G54D72*
X12391Y30007D02*
D03*
Y30735D02*
D03*
X13411D02*
D03*
Y30007D02*
D03*
X12391Y58786D02*
D03*
Y59515D02*
D03*
X13411D02*
D03*
Y58786D02*
D03*
X12391Y87566D02*
D03*
Y88294D02*
D03*
X13411D02*
D03*
Y87566D02*
D03*
G54D73*
X51183Y15605D02*
D03*
Y16205D02*
D03*
X15271Y36501D02*
D03*
Y35901D02*
D03*
X15451Y12891D02*
D03*
Y12291D02*
D03*
X51191Y35841D02*
D03*
Y35241D02*
D03*
X51183Y44385D02*
D03*
Y44985D02*
D03*
X15271Y65281D02*
D03*
Y64681D02*
D03*
X15451Y41671D02*
D03*
Y41071D02*
D03*
X51191Y64621D02*
D03*
Y64021D02*
D03*
X51183Y73164D02*
D03*
Y73764D02*
D03*
X15271Y94060D02*
D03*
Y93460D02*
D03*
X15451Y70450D02*
D03*
Y69850D02*
D03*
X51191Y93400D02*
D03*
Y92800D02*
D03*
M02*
