M48
;Layer_Color=9474304
;FILE_FORMAT=2:4
INCH,TZ
;TYPE=PLATED
T1F00S00C0.0150
T2F00S00C0.0220
T3F00S00C0.0280
T4F00S00C0.0354
T5F00S00C0.0380
T6F00S00C0.0400
T7F00S00C0.0550
T8F00S00C0.0590
T9F00S00C0.0709
T10F00S00C0.0870
T11F00S00C0.1000
T12F00S00C0.1181
;TYPE=NON_PLATED
T13F00S00C0.1181
%
T01
X15948Y14188
X16549Y14639
X17499Y14938
X19088Y14619
X21929Y14418
X22919Y14409
X23949Y14348
X31579Y14398
X32699Y14359
X33438Y14398
X34448
X36772Y13740
Y13268
Y12756
X37441
X37638Y13032
X37205
X37992Y13346
Y13740
X57326Y14188
X57926Y14639
X58876Y14938
X60466Y14619
X63306Y14418
X64296Y14409
X65326Y14348
X72956Y14398
X74076Y14359
X74816Y14398
X75826
X78150Y13740
Y13268
Y12756
X78819
X79016Y13032
X78583
X79370Y13346
Y13740
X82953Y20640
Y21299
X82936Y22009
X82953Y22756
X83661Y23041
X84156Y23549
X84466Y23538
X84980Y23091
X85266Y23839
X83326Y24128
X83189Y25669
X83248Y26250
X83858Y26890
X84321
X85039Y26673
X85030Y27146
X85000Y28740
X84350Y28888
X83652Y28671
X83258Y28287
X83356Y27884
X82736Y28268
X82096Y28368
Y28969
Y29569
Y30168
Y30768
X81496
Y30168
Y29569
Y28969
Y28368
X80896
Y28969
Y29569
Y30168
Y30768
X80296
Y30168
Y29569
Y28969
Y28368
X79696
Y28969
Y29569
Y30168
Y30768
X79096
Y30168
Y29569
Y28969
Y28368
X79764Y26890
X80079
X80354
X80669
X80748Y26496
Y26181
Y25827
Y25472
X80551Y25157
X80236
X79921
X79685Y25551
Y25866
Y26220
Y26535
X81968Y27441
X82676Y27529
X82677Y27008
X83110Y29488
X83425
X83740Y29606
Y29882
Y30157
Y30433
X83976Y21260
X84774Y21289
X87608Y21211
X88976Y21043
X89813Y21004
X89695Y20571
X89577Y20020
X89675Y19606
X89980Y19193
X90591Y19154
X89646Y18760
X89606Y17972
X89045Y17943
X87431Y18022
X85659Y18061
X90463Y20787
X76299Y21220
Y21850
X76896Y21948
X75433Y20866
X74724Y21181
X73661
X73189Y21142
X73228Y20709
X73189Y20039
X72677Y19882
X72283Y20039
Y21142
X72146Y21669
X72846Y21918
X74046Y22269
X75046Y23268
X75806Y24128
X75748Y24764
X75346Y26369
X74685Y27008
X74291Y26890
Y27756
X74291Y28661
X74134Y29075
Y29567
X74587Y29656
X74370Y30118
X74135Y30983
X72569Y31102
X72008Y31014
X71616Y31153
X70472Y30906
X70484Y29795
X70309Y29446
X69598Y29490
X67299Y29328
X66929Y29331
X66890Y28622
X67481Y28446
X67462Y28968
X67244Y28110
X67244Y27559
X67795Y27520
X67697Y27156
X67983Y26861
X67559Y26693
X67402Y26142
X67874Y26220
X67441Y25591
X67716Y25315
X67402Y24961
X67441Y24567
X68661Y24685
X69056Y24539
X68898Y25039
X69453Y24981
X69665Y24665
X70128Y24783
X70498Y24930
X70482Y25512
X70049Y25335
X69715Y23356
X69026Y23041
X68533Y23445
X68051Y23356
X66930Y23042
X66516Y23061
X65355Y23239
X65141Y24072
X65157Y24449
X64866Y24778
X64756Y25438
X65058Y25779
X65099Y26182
X65118Y26575
X65661Y26655
Y25631
X65946Y23849
X65736Y22059
X66366Y21828
X66811Y21942
X66929Y21142
X66535Y20984
X65905Y21102
X64803Y21181
X64331Y21102
X64449Y20709
X64331Y20315
X63583
Y21102
X63096Y21718
X62796Y21969
X64746Y21847
X64616Y19229
X65116
X65616
Y18729
Y18229
X65116
X64616
Y18729
X65116
X66496Y19026
X66378Y19882
X68228Y20000
X68238Y19488
X68986Y19419
Y20512
X68248Y20522
X68249Y21556
X67696Y21093
X70000Y21457
Y21850
X70896Y21969
X70787Y22933
X71419Y22549
X70522Y20719
X70149Y20483
X69961Y20000
X70157Y19488
X70039Y18740
X69961Y18071
X71220Y18346
X71732Y17874
X72008
X72283Y17520
X73496Y18160
Y18660
X73996
Y18160
X74496
Y18660
Y19160
X73996
X73496
X71624Y19400
X75236Y19882
X75502Y18957
X76614Y18425
Y18150
X75945Y17480
X75827Y16929
X75826Y16279
X74921Y16378
X74567
X73465
X73110
X66575Y16339
X65984
X65669
X64488Y16378
X64173
X63425Y16339
Y17126
X63386Y17559
X63032Y18189
X63071Y18465
X62795
X64055Y19764
X67047Y18032
X67323
X67913Y18425
X66575Y17126
X67126Y27008
X67767Y28013
X65793Y27677
X65610Y29242
X65236Y29213
X64961Y28898
X64288
X63799Y29045
X63597Y28207
X63661Y27047
X63976Y26880
X64178Y26531
X64104Y30207
X63041Y30472
X65787Y29646
X66713Y30207
X72144Y28625
X71811Y28189
X71862Y27806
X71654Y27008
X71594Y26476
X72047Y26604
X71860Y25925
X72638Y24488
X73651Y24409
X73348Y25080
X73740Y25364
X75096Y28768
X75748Y30157
X62470Y29173
X61646Y29069
X61146
Y29569
X60646
Y29069
Y28568
X61146
X61646
Y27729
X61319Y27489
X60925Y27431
X59951Y27500
X59065Y27283
X59301Y28179
X58366Y28438
X58056Y29118
X59203Y29931
X60766Y30719
X61457Y31142
X61646Y29569
X62471Y27728
X61556Y26539
X61368Y26102
X61378Y25709
X61646Y25348
X61388Y24380
Y23996
X60600Y24045
X60866Y22408
X60876Y21609
X60394Y21220
X59882Y21102
X60079Y20709
X59882Y20315
X59213
Y21102
X58780Y21496
X58946Y22016
X58646Y22269
X57835Y21969
X57291
X57480Y21260
X56850Y21211
X55984Y21220
X55157Y21102
X54528
Y20315
X55197
X54961Y19882
X55720Y19229
X56220
X56720
Y18729
Y18229
X56220
X55720
Y18729
X56220
X57620Y19024
X57520Y19882
X58196Y21198
X60046Y21718
X61369Y21153
X61890Y21142
X62441
X61696Y21969
X62047Y19882
X62077Y19026
X61230Y19229
Y18729
X60730
X60230
Y18229
X60730
X61230
X60730Y19229
X60230
X59724Y19764
X58661Y18494
X58356Y18484
X57982Y17569
X57913Y17126
Y16339
X57165Y16417
X56831Y16427
X55679Y16417
X55354
X54566Y16388
X54796Y15919
X54567Y17126
X54537Y17559
X54076Y18398
X54173Y18701
X55551Y20709
X54921Y21929
X53946Y21969
X56646Y22269
X58898Y24547
X59144Y25108
X58976Y17559
X58996Y17126
Y16339
X59803Y16378
X60197
X61260Y16339
X61575
X62441
Y17126
Y17559
X48228Y17972
X47667Y17943
X48268Y18760
X48602Y19193
X49213Y19154
X48297Y19606
X48199Y20020
X48317Y20571
X48435Y21004
X49085Y20787
X47598Y21043
X46230Y21211
X43396Y21289
X42598Y21260
X41575Y21299
Y20640
X41558Y22009
X41575Y22756
X42283Y23041
X42779Y23549
X43088Y23538
X43602Y23091
X43889Y23839
X41948Y24128
X41811Y25669
X41870Y26250
X42480Y26890
X42943
X43661Y26673
X43652Y27146
X43622Y28740
X42972Y28888
X42274Y28671
X41880Y28287
X41978Y27884
X41358Y28268
X40718Y28368
Y28969
Y29569
Y30168
Y30768
X40118
Y30168
Y29569
Y28969
Y28368
X39518
Y28969
Y29569
Y30168
Y30768
X38918
Y30168
Y29569
Y28969
Y28368
X38319
Y28969
Y29569
Y30168
Y30768
X37719
Y30168
Y29569
Y28969
Y28368
X38386Y26890
X38701
X38976
X39291
X39370Y26496
Y26181
Y25827
Y25472
X39173Y25157
X38858
X38543
X38307Y25551
Y25866
Y26220
Y26535
X40591Y27441
X41298Y27529
X41299Y27008
X41732Y29488
X42047
X42362Y29606
Y29882
Y30157
Y30433
X34370Y30157
X32992Y30118
X33209Y29656
X32756Y29567
Y29075
X32913Y28661
X32913Y27756
Y26890
X33307Y27008
X33969Y26369
X34370Y24764
X34429Y24128
X33668Y23268
X32668Y22269
X32283Y21181
X31811Y21142
X31850Y20709
X31811Y20039
X31299Y19882
X32118Y19160
Y18660
X32618
Y18160
X32118
X33118
Y18660
Y19160
X32618
X34124Y18957
X33858Y19882
X34055Y20866
X33346Y21181
X34921Y21220
Y21850
X35519Y21948
X35236Y18425
Y18150
X34567Y17480
X34449Y16929
X34448Y16279
X33543Y16378
X33189
X32087
X31732
X31469Y21918
X31260Y24488
X32273Y24409
X31970Y25080
X32362Y25364
X33719Y28768
X32757Y30983
X44282Y18061
X46053Y18022
X30630Y17874
X30354
X30906Y17520
X29843Y18346
X30246Y19400
X30906Y20039
Y21142
X30768Y21669
X29518Y21969
X28622Y21850
Y21457
X28771Y20483
X29144Y20719
X28583Y20000
X28780Y19488
X28661Y18740
X28583Y18071
X27608Y19419
X26860Y19488
X26850Y20000
X26870Y20522
X27608Y20512
X26871Y21556
X26319Y21093
X25551Y21142
X25157Y20984
X24528Y21102
X24359Y22059
X24989Y21828
X25433Y21942
X25552Y23042
X25138Y23061
X23977Y23239
X23763Y24072
X23780Y24449
X23489Y24778
X23379Y25438
X23680Y25779
X23722Y26182
X23740Y26575
X24283Y26655
Y25631
X26063Y25591
X26339Y25315
X26024Y24961
X26063Y24567
X27283Y24685
X27678Y24539
X27520Y25039
X28075Y24981
X28287Y24665
X28750Y24783
X29120Y24930
X29104Y25512
X28671Y25335
X28337Y23356
X27648Y23041
X27156Y23445
X26673Y23356
X24569Y23849
X23368Y21847
X23425Y21181
X22953Y21102
X23071Y20709
X22953Y20315
X22205
Y21102
X21718Y21718
X21418Y21969
X20319
X20512Y21142
X19991Y21153
X19498Y21609
X19489Y22408
X18669Y21718
X18504Y21102
X18701Y20709
X18504Y20315
X17835
Y21102
X17402Y21496
X17569Y22016
X17269Y22269
X16457Y21969
X15913
X16102Y21260
X16818Y21198
X16142Y19882
X16242Y19024
X16978Y18484
X17283Y18494
X17598Y17559
X17618Y17126
Y16339
X18425Y16378
X18819
X19882Y16339
X20197
X21063
Y17126
Y17559
X22008
X22047Y17126
Y16339
X22795Y16378
X23110
X24291Y16339
X24606
X25197
Y17126
X25669Y18032
X25945
X26535Y18425
X25118Y19026
X25000Y19882
X24238Y19229
X23738
X23238
Y18729
Y18229
X23738
X24238
Y18729
X23738
X22677Y19764
X20669Y19882
X20699Y19026
X19852Y19229
Y18729
X19352
X18852
Y18229
X19352
X19852
X19352Y19229
X18852
X18346Y19764
X19016Y21220
X21063Y21142
X21417Y18465
X21693
X21654Y18189
X16604Y17569
X16535Y17126
Y16339
X15787Y16417
X17520Y24547
X17766Y25108
X17687Y27283
X18573Y27500
X19547Y27431
X19941Y27489
X20268Y27729
X21093Y27728
X21093Y29173
X20268Y29069
X19769
Y29569
X19268
Y29069
Y28568
X19769
X20268
Y29569
X20079Y31142
X19389Y30719
X17825Y29931
X17923Y28179
X16989Y28438
X16679Y29118
X22421Y29045
X22910Y28898
X23583
X23858Y29213
X24232Y29242
X24409Y29646
X25551Y29331
X25921Y29328
X26084Y28968
X26104Y28446
X25866Y28110
X25866Y27559
X26417Y27520
X26319Y27156
X26606Y26861
X26181Y26693
X26024Y26142
X26496Y26220
X25748Y27008
X26389Y28013
X25512Y28622
X25335Y30207
X22726
X21663Y30472
X22220Y28207
X22283Y27047
X22598Y26880
X22800Y26531
X20178Y26539
X19990Y26102
X20000Y25709
X20268Y25348
X20010Y24380
Y23996
X19222Y24045
X24415Y27677
X28220Y29490
X28932Y29446
X29106Y29795
X29094Y30906
X30238Y31153
X30630Y31014
X31191Y31102
X30766Y28625
X30433Y28189
X30484Y27806
X30276Y27008
X30217Y26476
X30669Y26604
X30482Y25925
X30041Y22549
X29409Y22933
X15268Y22269
X15472Y21211
X14606Y21220
X13780Y21102
X13150
Y20315
X13819
X13583Y19882
X14343Y19229
X14843
X15343
Y18729
Y18229
X14843
X14343
Y18729
X14843
X12795Y18701
X12699Y18398
X13159Y17559
X13189Y17126
X13189Y16388
X13419Y15919
X13976Y16417
X14301
X15453Y16427
X14173Y20709
X13543Y21929
X12569Y21969
X13419Y43911
X13189Y44381
X13189Y45118
X13159Y45551
X12699Y46391
X12795Y46693
X14343Y46721
Y46221
X14843
X15343
Y46721
X14843
X14301Y44409
X13976
X15453Y44419
X15787Y44409
X16535Y44331
Y45118
X16604Y45561
X17598Y45551
X17618Y45118
Y44331
X18425Y44370
X18819
X19882Y44331
X20197
X21063
Y45118
Y45551
X22008
X22047Y45118
Y44331
X22795Y44370
X23110
X24291Y44331
X24606
X25197
Y45118
X25669Y46024
X25945
X26535Y46417
X28583Y46063
X28661Y46732
X29843Y46339
X30354Y45866
X30630
X30906Y45512
X24238Y46221
Y46721
X23738
Y46221
X23238
Y46721
X21693Y46457
X21417
X21654Y46181
X19852Y46221
X19352
Y46721
X18852
Y46221
X19852Y46721
X17283Y46486
X16978Y46476
X17499Y42931
X16549Y42631
X15948Y42181
X19088Y42611
X21929Y42411
X22919Y42401
X23949Y42341
X22989Y36598
X22248Y33259
X24989Y33428
X27069Y33579
X26958Y33958
X28198Y33768
X29086Y31685
X29094Y31299
X29567Y35945
X29908Y38038
X19259Y35728
X20472Y34409
X20344Y31417
X16388Y31328
X16850Y32559
X33138Y31598
X33368Y31309
X33828Y32088
X34418Y32259
X35008Y31469
X37719Y31369
X38319
X38918
X39518
X40118
X40718
Y31969
X41318
X41919
X41318Y32569
Y33168
X40718
Y32569
X39904Y32500
Y32100
X39504
X39104
Y32500
Y32900
Y33300
X38704
X38304
Y32900
X38704
Y32500
X38304
Y32100
X38704
X37719Y31969
Y32569
Y33168
X36788Y33409
X36428Y33749
X36119Y33279
X37318Y34148
X38622Y34646
X38858Y34839
X39094Y34646
X39606
X39839Y34839
X40099Y34646
X40378Y34839
X40748Y34646
X41048Y34839
X41063Y34350
X41189Y34049
X40748Y34055
X40236
X40472Y34350
X39904Y33300
Y32900
X39504
Y32500
Y33300
X39328Y35048
X39358Y35989
X39055Y35984
X38622
X38307
X37968Y36179
Y36639
X38245Y37360
X38645
Y37760
X38245
Y38160
X38645
Y38560
X38245
X39045
X39445
X39845
Y38160
X39445
Y37760
X39845
Y37360
X39445
X39045
Y37760
Y38160
X40368Y37868
Y37269
Y36858
X40968
Y37269
Y37868
Y38468
X40368
X42028Y37859
X42758Y38138
X42769Y37269
X41409Y36458
X41279Y35208
X41654Y35079
X40068Y35819
X43439Y34478
X43439Y34079
X43528Y33639
X44049Y33368
X44458
X44868
X44931Y32766
X44478Y32795
X43927Y32776
X43458Y32088
X43494Y31535
X43868Y31417
X44419Y31368
X45217Y31506
X45315Y32638
X45409Y33558
X45469Y34088
X45159Y34678
X44798Y34799
X44458Y34739
X44058Y34808
X45978Y35478
X46053Y46014
X44282Y46053
X35236Y46142
Y46417
X34567Y45472
X34449Y44921
X34448Y44271
X33543Y44370
X33189
X32087
X31732
X31579Y42391
X32699Y42351
X33438Y42391
X34448
X36772Y41732
Y41260
Y40748
X37441
X37638Y41024
X37205
X37992Y41339
Y41732
X33118Y46152
X32618
Y46652
X32118
Y46152
X33118Y46652
X34218Y33988
X47382Y35748
X47415Y36108
X47742
X48338Y36669
X48228Y45965
X47667Y45935
X48268Y46752
X54173Y46693
X54076Y46391
X54537Y45551
X54567Y45118
X54566Y44381
X54796Y43911
X55354Y44409
X55679
X56831Y44419
X57165Y44409
X57913Y44331
Y45118
X57982Y45561
X58976Y45551
X58996Y45118
Y44331
X59803Y44370
X60197
X61260Y44331
X61575
X62441
Y45118
Y45551
X61230Y46221
X60730
Y46721
X60230
Y46221
X61230Y46721
X58661Y46486
X58356Y46476
X56720Y46721
Y46221
X56220
X55720
Y46721
X56220
X57326Y42181
X57926Y42631
X58876Y42931
X60466Y42611
X60636Y35728
X61850Y34409
X61722Y31417
X57766Y31328
X58228Y32559
X63626Y33259
X66366Y33428
X68446Y33579
X68336Y33958
X69576Y33768
X70464Y31685
X70472Y31299
X74746Y31309
X74516Y31598
X75206Y32088
X75796Y32259
X76386Y31469
X77496Y33279
X77806Y33749
X75596Y33988
X70945Y35945
X71286Y38038
X72956Y42391
X74076Y42351
X74816Y42391
X75826
Y44271
X75827Y44921
X75945Y45472
X76614Y46142
Y46417
X74496Y46652
X73996
X73496
Y46152
X73996
X74496
X74567Y44370
X74921
X73465
X73110
X72283Y45512
X72008Y45866
X71732
X71220Y46339
X69961Y46063
X70039Y46732
X67913Y46417
X67323Y46024
X67047
X66575Y45118
Y44331
X65984
X65669
X64488Y44370
X64173
X63425Y44331
Y45118
X63386Y45551
X63032Y46181
X63071Y46457
X62795
X64616Y46221
X65116
X65616
Y46721
X65116
X64616
X64296Y42401
X63306Y42411
X65326Y42341
X64366Y36598
X79346Y36639
Y36179
X79685Y35984
X80000
X80433
X80736Y35989
X81446Y35819
X81476Y34646
X81216Y34839
X80984Y34646
X80472
X80236Y34839
X80000Y34646
X80706Y35048
X81756Y34839
X82126Y34646
X82426Y34839
X82441Y34350
X82566Y34049
X82126Y34055
X81614
X81850Y34350
X82096Y33168
X82696
Y32569
Y31969
X83296
X82096
Y32569
X81282Y32500
Y32100
X80882
X80482
Y32500
Y32900
Y33300
X80082
X79682
Y32900
X80082
Y32500
X79682
Y32100
X80082
X80296Y31369
X80896
X81496
X82096
X80882Y32500
Y32900
X81282
Y33300
X80882
X79096Y33168
Y32569
Y31969
Y31369
X79696
X78166Y33409
X78696Y34148
X79623Y37360
X80023
Y37760
X79623
Y38160
X80023
Y38560
X79623
X80423
X80823
X81223
Y38160
X80823
Y37760
X81223
Y37360
X80823
X80423
Y37760
Y38160
X81746Y37868
Y37269
Y36858
X82346
Y37269
Y37868
Y38468
X81746
X83406Y37859
X84136Y38138
X84146Y37269
X82786Y36458
X82656Y35208
X83032Y35079
X84816Y34478
X84817Y34079
X84906Y33639
X85426Y33368
X85836
X86246
X86309Y32766
X85856Y32795
X85305Y32776
X84836Y32088
X84872Y31535
X85246Y31417
X85797Y31368
X86594Y31506
X86693Y32638
X86786Y33558
X86846Y34088
X86536Y34678
X86176Y34799
X85836Y34739
X85436Y34808
X87356Y35478
X88760Y35748
X88793Y36108
X89120
X89716Y36669
X89606Y45965
X89045Y45935
X89646Y46752
X87431Y46014
X85659Y46053
X79370Y41732
Y41339
X79016Y41024
X78583
X78819Y40748
X78150
Y41260
Y41732
X82953Y48632
Y49291
X82936Y50001
X82953Y50748
X83661Y51033
X84156Y51541
X84466Y51531
X84980Y51083
X85266Y51831
X83326Y52121
X83189Y53661
X83248Y54242
X83858Y54882
X84321
X85039Y54665
X85030Y55138
X85000Y56732
X84350Y56880
X83652Y56663
X83258Y56280
X83356Y55876
X82736Y56261
X82096Y56361
Y56961
Y57561
Y58161
Y58761
Y59361
Y59961
X82696
X83296
X82696Y60561
Y61161
X82096
Y60561
X81282Y60492
Y60092
X80882
X80482
Y60492
Y60892
Y61292
X80082
X79682
Y60892
X80082
Y60492
X79682
Y60092
X80082
X80296Y59361
X80896
X81496
Y58761
Y58161
Y57561
Y56961
Y56361
X80896
Y56961
Y57561
Y58161
Y58761
X80296
Y58161
Y57561
Y56961
Y56361
X79696
Y56961
Y57561
Y58161
Y58761
Y59361
X79096
Y59961
Y60561
Y61161
X78166Y61401
X78696Y62141
X81614Y62047
X82126
X82566Y62041
X82441Y62343
X81850
X81282Y61292
Y60892
X80882
Y60492
Y61292
X79096Y58761
Y58161
Y57561
Y56961
Y56361
X79764Y54882
X80079
X80354
X80669
X80748Y54488
Y54173
Y53819
Y53465
X80551Y53150
X80236
X79921
X79685Y53543
Y53858
Y54213
Y54528
X81968Y55433
X82676Y55521
X82677Y55000
X83110Y57480
X83425
X83740Y57598
Y57874
Y58150
Y58425
X84872Y59528
X85246Y59409
X85797Y59360
X86594Y59498
X86693Y60630
X86309Y60758
X85856Y60787
X85305Y60768
X85426Y61361
X85836
X86246
X86786Y61551
X86846Y62081
X84817Y62071
X84816Y62471
X84906Y61631
X84836Y60081
X84774Y49282
X83976Y49252
X87608Y49203
X88976Y49035
X89813Y48996
X89695Y48563
X89577Y48012
X89675Y47598
X89980Y47185
X90591Y47146
X90463Y48780
X76299Y49213
Y49842
X76896Y49941
X75433Y48858
X74724Y49173
X73661
X73189Y49134
X73228Y48701
X73189Y48032
X72677Y47874
X72283Y48032
Y49134
X72146Y49661
X72846Y49911
X74046Y50261
X75046Y51261
X75806Y52121
X75748Y52756
X75346Y54361
X74685Y55000
X74291Y54882
Y55748
X74291Y56654
X74134Y57067
Y57559
X74587Y57648
X74370Y58110
X74135Y58975
X74746Y59301
X74516Y59591
X75206Y60081
X75796Y60251
X76386Y59461
X75748Y58150
X75096Y56761
X72144Y56617
X71811Y56181
X71862Y55799
X71654Y55000
X71594Y54468
X72047Y54596
X71860Y53917
X70482Y53504
X70498Y52922
X70128Y52776
X69665Y52657
X69453Y52974
X68898Y53031
X68661Y52677
X69056Y52531
X69026Y51033
X68533Y51437
X68051Y51348
X66930Y51034
X66516Y51053
X65355Y51231
X65141Y52064
X65157Y52441
X64866Y52771
X64756Y53431
X65058Y53771
X65099Y54174
X65118Y54567
X65661Y54647
Y53623
X67441Y53583
X67716Y53307
X67402Y52953
X67441Y52559
X67402Y54134
X67874Y54213
X67983Y54854
X67697Y55148
X67795Y55512
X67767Y56005
X67244Y56102
X67244Y55551
X67126Y55000
X67559Y54685
X67481Y56438
X67462Y56960
X67299Y57321
X66929Y57323
X66890Y56614
X66713Y58199
X65787Y57638
X65610Y57234
X65236Y57205
X64961Y56890
X64288
X63799Y57037
X63597Y56199
X63661Y55039
X63976Y54872
X64178Y54523
X65793Y55669
X65946Y51841
X65736Y50051
X66366Y49821
X66811Y49934
X66929Y49134
X66535Y48976
X65905Y49094
X64803Y49173
X64331Y49094
X64449Y48701
X64331Y48307
X63583
Y49094
X63096Y49711
X62796Y49961
X64746Y49839
X64616Y47221
X65116
X65616
X66496Y47018
X66378Y47874
X68228Y47992
X68238Y47480
X68986Y47411
Y48504
X68248Y48514
X68249Y49548
X67696Y49085
X70000Y49449
Y49843
X70896Y49961
X70787Y50925
X71419Y50541
X69715Y51348
X70049Y53327
X72638Y52480
X73651Y52402
X73348Y53072
X73740Y53356
X73496Y47152
X73996
X74496
X75502Y46949
X75236Y47874
X71624Y47392
X70157Y47480
X69961Y47992
X70149Y48475
X70522Y48711
X64055Y47756
X64104Y58199
X63041Y58465
X63626Y61251
X66366Y61421
X68446Y61571
X68336Y61951
X69576Y61761
X70464Y59677
X70472Y59291
Y58898
X70484Y57787
X70309Y57438
X69598Y57482
X71616Y59145
X72008Y59006
X72569Y59094
X75596Y61981
X77806Y61741
X77496Y61271
X61850Y62402
X61722Y59409
X61457Y59134
X60766Y58711
X60646Y57561
X61146
Y57061
X60646
Y56561
X61146
X61646
Y57061
Y57561
X62470Y57165
X62471Y55720
X61646Y55721
X61319Y55481
X60925Y55423
X59951Y55492
X59065Y55276
X59301Y56171
X58366Y56431
X58056Y57111
X59203Y57923
X57766Y59321
X58228Y60551
X59144Y53100
X58898Y52539
X60600Y52037
X61388Y51988
Y52372
X61646Y53341
X61378Y53701
X61368Y54094
X61556Y54531
X61696Y49961
X61890Y49134
X61369Y49145
X60876Y49601
X60866Y50401
X60046Y49711
X59882Y49094
X60079Y48701
X59882Y48307
X59213
Y49094
X58780Y49488
X58946Y50008
X58646Y50261
X57835Y49961
X57291
X57480Y49252
X56850Y49203
X55984Y49213
X55157Y49094
X54528
Y48307
X55197
X54961Y47874
X55720Y47221
X56220
X56720
X57620Y47016
X57520Y47874
X58196Y49191
X60394Y49213
X59724Y47756
X60230Y47221
X60730
X61230
X62077Y47018
X62047Y47874
X62441Y49134
X56646Y50261
X54921Y49921
X53946Y49961
X55551Y48701
X49085Y48780
X48435Y48996
X48317Y48563
X48199Y48012
X48297Y47598
X48602Y47185
X49213Y47146
X47598Y49035
X46230Y49203
X43396Y49282
X42598Y49252
X41575Y49291
Y48632
X41558Y50001
X41575Y50748
X42283Y51033
X42779Y51541
X43088Y51531
X43602Y51083
X43889Y51831
X41948Y52121
X41811Y53661
X41870Y54242
X42480Y54882
X42943
X43661Y54665
X43652Y55138
X43622Y56732
X42972Y56880
X42274Y56663
X41880Y56280
X41978Y55876
X41358Y56261
X40718Y56361
Y56961
Y57561
Y58161
Y58761
Y59361
Y59961
X41318
X41919
X41318Y60561
Y61161
X40718
Y60561
X39904Y60492
Y60092
X39504
X39104
Y60492
Y60892
Y61292
X38704
X38304
Y60892
X38704
Y60492
X38304
Y60092
X38704
X38918Y59361
X39518
X40118
Y58761
Y58161
Y57561
Y56961
Y56361
X39518
Y56961
Y57561
Y58161
Y58761
X38918
Y58161
Y57561
Y56961
Y56361
X38319
Y56961
Y57561
Y58161
Y58761
Y59361
X37719
Y59961
Y60561
Y61161
X36788Y61401
X36428Y61741
X36119Y61271
X37318Y62141
X40236Y62047
X40748
X41189Y62041
X41063Y62343
X40472
X39904Y61292
Y60892
X39504
Y60492
Y61292
X37719Y58761
Y58161
Y57561
Y56961
Y56361
X38386Y54882
X38701
X38976
X39291
X39370Y54488
Y54173
Y53819
Y53465
X39173Y53150
X38858
X38543
X38307Y53543
Y53858
Y54213
Y54528
X40591Y55433
X41298Y55521
X41299Y55000
X41732Y57480
X42047
X42362Y57598
Y57874
Y58150
Y58425
X43494Y59528
X43868Y59409
X44419Y59360
X45217Y59498
X45315Y60630
X44931Y60758
X44478Y60787
X43927Y60768
X44049Y61361
X44458
X44868
X45409Y61551
X45469Y62081
X43439Y62071
X43439Y62471
X43528Y61631
X43458Y60081
X35008Y59461
X34418Y60251
X33828Y60081
X33138Y59591
X33368Y59301
X32757Y58975
X32992Y58110
X33209Y57648
X32756Y57559
Y57067
X32913Y56654
X32913Y55748
Y54882
X33307Y55000
X33969Y54361
X34370Y52756
X34429Y52121
X33668Y51261
X32668Y50261
X32283Y49173
X31811Y49134
X31850Y48701
X31811Y48032
X31299Y47874
X32118Y47152
X32618
X33118
X34124Y46949
X33858Y47874
X34055Y48858
X33346Y49173
X34921Y49213
Y49842
X35519Y49941
X31469Y49911
X31260Y52480
X32273Y52402
X31970Y53072
X32362Y53356
X33719Y56761
X34370Y58150
X34218Y61981
X31191Y59094
X30630Y59006
X30238Y59145
X29094Y59291
Y58898
X29086Y59677
X29106Y57787
X28932Y57438
X28220Y57482
X25921Y57321
X25551Y57323
X25512Y56614
X26104Y56438
X26084Y56960
X25866Y56102
X25866Y55551
X26417Y55512
X26319Y55148
X26606Y54854
X26181Y54685
X26024Y54134
X26496Y54213
X26063Y53583
X26339Y53307
X26024Y52953
X26063Y52559
X27283Y52677
X27678Y52531
X27520Y53031
X28075Y52974
X28287Y52657
X28750Y52776
X29120Y52922
X29104Y53504
X28671Y53327
X28337Y51348
X27648Y51033
X27156Y51437
X26673Y51348
X25552Y51034
X25138Y51053
X23977Y51231
X23763Y52064
X23780Y52441
X23489Y52771
X23379Y53431
X23680Y53771
X23722Y54174
X23740Y54567
X24283Y54647
Y53623
X24569Y51841
X24359Y50051
X24989Y49821
X25433Y49934
X25551Y49134
X25157Y48976
X24528Y49094
X23425Y49173
X22953Y49094
X23071Y48701
X22953Y48307
X22205
Y49094
X21718Y49711
X21418Y49961
X20319
X20512Y49134
X19991Y49145
X19498Y49601
X19489Y50401
X18669Y49711
X18504Y49094
X18701Y48701
X18504Y48307
X17835
Y49094
X17402Y49488
X17569Y50008
X17269Y50261
X16457Y49961
X15913
X16102Y49252
X16818Y49191
X16142Y47874
X16242Y47016
X18852Y47221
X19352
X19852
X20699Y47018
X20669Y47874
X21063Y49134
X19016Y49213
X18346Y47756
X22677
X23238Y47221
X23738
X24238
X25118Y47018
X25000Y47874
X26850Y47992
X26860Y47480
X27608Y47411
Y48504
X26870Y48514
X26871Y49548
X26319Y49085
X28622Y49449
Y49843
X29518Y49961
X29409Y50925
X30041Y50541
X30768Y49661
X30906Y49134
Y48032
X30246Y47392
X28780Y47480
X28583Y47992
X28771Y48475
X29144Y48711
X30482Y53917
X30217Y54468
X30669Y54596
X30276Y55000
X30484Y55799
X30433Y56181
X30766Y56617
X26389Y56005
X25748Y55000
X24415Y55669
X24232Y57234
X23858Y57205
X23583Y56890
X22910
X22421Y57037
X22220Y56199
X22283Y55039
X22598Y54872
X22800Y54523
X20178Y54531
X19990Y54094
X20000Y53701
X20268Y53341
X20010Y52372
Y51988
X19222Y52037
X17520Y52539
X17766Y53100
X17687Y55276
X18573Y55492
X19547Y55423
X19941Y55481
X20268Y55721
X21093Y55720
X21093Y57165
X20268Y57061
X19769
Y57561
X19268
Y57061
Y56561
X19769
X20268
Y57561
X20079Y59134
X20344Y59409
X19389Y58711
X17825Y57923
X17923Y56171
X16989Y56431
X16679Y57111
X16388Y59321
X16850Y60551
X20472Y62402
X22248Y61251
X24989Y61421
X27069Y61571
X26958Y61951
X28198Y61761
X25335Y58199
X24409Y57638
X22726Y58199
X21663Y58465
X23368Y49839
X15268Y50261
X15472Y49203
X14606Y49213
X13780Y49094
X13150
Y48307
X13819
X13583Y47874
X14343Y47221
X14843
X15343
X14173Y48701
X13543Y49921
X12569Y49961
X13419Y71903
X13189Y72373
X13189Y73110
X13159Y73543
X12699Y74383
X12795Y74685
X14343Y74713
Y75213
X14843
X15343
Y74713
Y74213
X14843
X14343
X14843Y74713
X13583Y75866
X13819Y76299
X13150
Y77087
X13780
X14173Y76693
X14606Y77205
X15472Y77195
X13543Y77913
X12569Y77953
X13976Y72402
X14301
X15453Y72411
X15787Y72402
X16535Y72323
Y73110
X16604Y73553
X17598Y73543
X17618Y73110
Y72323
X18425Y72362
X18819
X19882Y72323
X20197
X21063
Y73110
Y73543
X22008
X22047Y73110
Y72323
X22795Y72362
X23110
X24291Y72323
X24606
X25197
Y73110
X25669Y74016
X25945
X26535Y74409
X26860Y75472
X26850Y75984
X26870Y76506
X27608Y76496
Y75404
X28780Y75472
X28583Y75984
X28771Y76467
X29144Y76703
X28622Y77441
Y77835
X29518Y77953
X30768Y77653
X30906Y77126
Y76024
X30246Y75384
X29843Y74331
X30354Y73858
X30630
X30906Y73504
X28583Y74055
X28661Y74724
X25118Y75010
X25000Y75866
X25157Y76968
X25551Y77126
X26319Y77078
X26871Y77540
X25433Y77926
X24989Y77813
X24359Y78043
X24528Y77087
X23425Y77165
X22953Y77087
X23071Y76693
X22953Y76299
X22205
Y77087
X21718Y77703
X21418Y77953
X20319
X20512Y77126
X19991Y77137
X19498Y77593
X19016Y77205
X18504Y77087
X18701Y76693
X18504Y76299
X17835
Y77087
X17402Y77480
X17569Y78000
X16457Y77953
X15913
X16102Y77244
X16818Y77183
X16142Y75866
X16242Y75008
X16978Y74468
X17283Y74478
X18852Y74713
X19352
Y74213
X18852
X19852
Y74713
Y75213
X19352
X18852
X18346Y75748
X18669Y77703
X21063Y77126
X20669Y75866
X20699Y75010
X21417Y74449
X21693
X21654Y74173
X23238Y74213
X23738
X24238
Y74713
Y75213
X23738
X23238
Y74713
X23738
X22677Y75748
X23368Y77832
X22919Y70393
X21929Y70403
X23949Y70333
X19088Y70603
X17499Y70923
X16549Y70623
X15948Y70173
X19259Y63721
X22989Y64591
X29567Y63937
X29908Y66031
X31579Y70383
X32699Y70343
X33438Y70383
X34448
Y72263
X34449Y72913
X34567Y73465
X35236Y74134
Y74409
X34124Y74941
X33858Y75866
X34055Y76850
X33346Y77165
X32283
X31811Y77126
X31850Y76693
X31811Y76024
X31299Y75866
X32118Y75144
Y74644
X32618
Y74144
X32118
X33118
Y74644
Y75144
X32618
X32087Y72362
X31732
X33189
X33543
X36772Y69724
Y69252
Y68740
X37441
X37638Y69016
X37205
X37992Y69331
Y69724
X38245Y66552
Y66152
Y65752
Y65352
X38645
Y65752
Y66152
Y66552
X39045
X39445
X39845
Y66152
X39445
Y65752
X39845
Y65352
X39445
X39045
Y65752
Y66152
X40368Y65861
Y65261
Y64851
X40968
Y65261
Y65861
Y66461
X40368
X42028Y65851
X42758Y66131
X42769Y65261
X41409Y64451
X41279Y63201
X41654Y63071
X41048Y62831
X40748Y62638
X40378Y62831
X40099Y62638
X39839Y62831
X39606Y62638
X39094
X38858Y62831
X38622Y62638
X39328Y63041
X39358Y63981
X39055Y63976
X38622
X38307
X37968Y64171
Y64631
X40068Y63811
X44058Y62801
X44458Y62731
X44798Y62791
X45159Y62671
X45978Y63471
X46053Y74006
X44282Y74045
X43396Y77274
X42598Y77244
X41575Y77283
Y76624
X41558Y77993
X46230Y77195
X34921Y77205
Y77835
X35519Y77933
X31469Y77903
X47598Y77028
X48435Y76988
X48317Y76555
X48199Y76004
X48297Y75591
X48602Y75177
X49213Y75138
X48268Y74744
X48228Y73957
X47667Y73927
X49085Y76772
X54528Y77087
X55157
X55551Y76693
X55197Y76299
X54961Y75866
X54528Y76299
X54173Y74685
X54076Y74383
X54537Y73543
X54567Y73110
X54566Y72373
X54796Y71903
X55354Y72402
X55679
X56831Y72411
X57165Y72402
X57913Y72323
Y73110
X57982Y73553
X58976Y73543
X58996Y73110
Y72323
X59803Y72362
X60197
X61260Y72323
X61575
X62441
Y73110
Y73543
X62077Y75010
X62047Y75866
X61890Y77126
X61369Y77137
X60876Y77593
X60394Y77205
X59882Y77087
X60079Y76693
X59882Y76299
X59213
Y77087
X58780Y77480
X58946Y78000
X57835Y77953
X57291
X57480Y77244
X56850Y77195
X55984Y77205
X54921Y77913
X53946Y77953
X55720Y75213
X56220
X56720
Y74713
Y74213
X56220
X55720
Y74713
X56220
X57620Y75008
X57520Y75866
X58196Y77183
X60046Y77703
X61696Y77953
X62441Y77126
X61230Y75213
Y74713
X60730
X60230
Y74213
X60730
X61230
X60730Y75213
X60230
X59724Y75748
X58661Y74478
X58356Y74468
X58876Y70923
X57926Y70623
X57326Y70173
X60466Y70603
X60636Y63721
X48338Y64661
X47742Y64100
X47415
X47382Y63740
X64366Y64591
X64296Y70393
X63306Y70403
X63425Y72323
Y73110
X63386Y73543
X63032Y74173
X63071Y74449
X62795
X64616Y74213
X65116
X65616
Y74713
Y75213
X65116
X64616
Y74713
X65116
X66496Y75010
X66378Y75866
X66535Y76968
X66929Y77126
X67696Y77078
X68249Y77540
X68248Y76506
X68228Y75984
X68238Y75472
X68986Y75404
Y76496
X70149Y76467
X70522Y76703
X70000Y77441
Y77835
X70896Y77953
X72146Y77653
X72283Y77126
X73189
X73228Y76693
X73189Y76024
X72677Y75866
X72283Y76024
X71624Y75384
X71220Y74331
X71732Y73858
X72008
X72283Y73504
X73496Y74144
Y74644
X73996
Y74144
X74496
Y74644
Y75144
X73996
X73496
X73661Y77165
X74724
X75433Y76850
X75236Y75866
X75502Y74941
X76614Y74409
Y74134
X75945Y73465
X75827Y72913
X75826Y72263
X74921Y72362
X74567
X73465
X73110
X72956Y70383
X74076Y70343
X74816Y70383
X75826
X76299Y77205
Y77835
X76896Y77933
X72846Y77903
X69961Y75984
X70157Y75472
X70039Y74724
X69961Y74055
X67913Y74409
X67323Y74016
X67047
X66575Y73110
Y72323
X65984
X65669
X64488Y72362
X64173
X65326Y70333
X64055Y75748
X64331Y76299
X64449Y76693
X64331Y77087
X64803Y77165
X64746Y77832
X65736Y78043
X66366Y77813
X66811Y77926
X65905Y77087
X63583Y77087
Y76299
X63096Y77703
X62796Y77953
X71286Y66031
X70945Y63937
X79346Y64171
Y64631
X79685Y63976
X80000
X80433
X80736Y63981
X81446Y63811
X81476Y62638
X81216Y62831
X80984Y62638
X80472
X80236Y62831
X80000Y62638
X80706Y63041
X81756Y62831
X82126Y62638
X82426Y62831
X82656Y63201
X83032Y63071
X82786Y64451
X82346Y64851
Y65261
X81746
Y64851
Y65861
Y66461
X82346
Y65861
X83406Y65851
X84136Y66131
X84146Y65261
X81223Y65352
Y65752
Y66152
Y66552
X80823
Y66152
Y65752
X80423
X80023
Y65352
X79623
Y65752
Y66152
X80023
Y66552
X79623
X80423
Y66152
Y65352
X80823
X78819Y68740
X79016Y69016
X78583
X78150Y69252
Y69724
Y68740
X79370Y69331
Y69724
X82953Y76624
Y77283
X82936Y77993
X83976Y77244
X84774Y77274
X87608Y77195
X88976Y77028
X89813Y76988
X89695Y76555
X89577Y76004
X89675Y75591
X89980Y75177
X90591Y75138
X89646Y74744
X89606Y73957
X89045Y73927
X87431Y74006
X85659Y74045
X90463Y76772
X89716Y64661
X89120Y64100
X88793
X88760Y63740
X87356Y63471
X86536Y62671
X86176Y62791
X85836Y62731
X85436Y62801
X84980Y79075
X84466Y79523
X84156Y79533
X83661Y79026
X82953Y78740
X83326Y80113
X83189Y81654
X83248Y82234
X83858Y82874
X84321
X85039Y82657
X85030Y83130
X85000Y84724
X84350Y84872
X83652Y84656
X83258Y84272
X83356Y83868
X82736Y84253
X82096Y84353
Y84953
Y85553
Y86153
Y86753
Y87353
Y87953
X82696
X83296
X82696Y88553
Y89153
X82096
Y88553
X81282Y88484
Y88084
X80882
X80482
Y88484
Y88884
Y89284
X80082
X79682
Y88884
X80082
Y88484
X79682
Y88084
X80082
X80296Y87353
X80896
X81496
Y86753
Y86153
Y85553
Y84953
Y84353
X80896
Y84953
Y85553
Y86153
Y86753
X80296
Y86153
Y85553
Y84953
Y84353
X79696
Y84953
Y85553
Y86153
Y86753
Y87353
X79096
Y87953
Y88553
Y89153
X78166Y89393
X78696Y90133
X80000Y90630
X80236Y90823
X80472Y90630
X80984
X81216Y90823
X81476Y90630
X81756Y90823
X82126Y90630
X82426Y90823
X82441Y90335
X82566Y90033
X82126Y90039
X81614
X81850Y90335
X81282Y89284
Y88884
X80882
Y88484
Y89284
X80706Y91033
X80736Y91973
X80433Y91968
X80000
X79685
X79346Y92163
Y92623
X79623Y93344
X80023
Y93744
X79623
X80423
X80823
X81223
Y93344
X80823
X80423
X81746Y93253
Y92843
X82346
Y93253
X82786Y92443
X82656Y91193
X83032Y91063
X81446Y91803
X84146Y93253
X84816Y90463
X84817Y90063
X84906Y89623
X85426Y89353
X85836
X86246
X86309Y88750
X85856Y88780
X85305Y88760
X84836Y88073
X84872Y87520
X85246Y87402
X85797Y87352
X86594Y87490
X86693Y88622
X86786Y89543
X86846Y90073
X86536Y90663
X86176Y90783
X85836Y90723
X85436Y90793
X87356Y91463
X88760Y91732
X88793Y92093
X89120
X89716Y92653
X83740Y86417
Y86142
Y85866
Y85591
X83425Y85472
X83110
X82676Y83513
X82677Y82992
X81968Y83425
X80669Y82874
X80354
X80079
X79764
X79685Y82520
Y82205
Y81850
Y81535
X79921Y81142
X80236
X80551
X80748Y81457
Y81811
Y82165
Y82480
X79096Y84353
Y84953
Y85553
Y86153
Y86753
X85266Y79823
X75806Y80113
X75748Y80748
X75346Y82353
X74685Y82992
X74291Y82874
Y83740
X74291Y84646
X74134Y85059
Y85551
X74587Y85640
X74370Y86102
X74135Y86967
X74746Y87293
X74516Y87583
X75206Y88073
X75796Y88243
X76386Y87453
X75748Y86142
X75096Y84753
X72144Y84609
X71811Y84173
X71862Y83791
X71654Y82992
X71594Y82461
X72047Y82589
X71860Y81909
X70482Y81496
X70498Y80914
X70128Y80768
X69665Y80650
X69453Y80966
X68898Y81024
X68661Y80669
X69056Y80523
X69026Y79026
X68533Y79429
X68051Y79341
X66930Y79027
X66516Y79045
X65355Y79223
X65141Y80056
X65157Y80433
X64866Y80763
X64756Y81423
X65058Y81763
X65099Y82167
X65118Y82559
X65661Y82639
Y81615
X67441Y81575
X67716Y81299
X67402Y80945
X67441Y80551
X67402Y82126
X67874Y82205
X67983Y82846
X67697Y83140
X67795Y83504
X67767Y83997
X67244Y84094
X67244Y83543
X67126Y82992
X67559Y82677
X67481Y84430
X67462Y84952
X67299Y85313
X66929Y85315
X66890Y84606
X66713Y86191
X65787Y85630
X65610Y85226
X65236Y85197
X64961Y84882
X64288
X63799Y85030
X63597Y84191
X63661Y83032
X63976Y82864
X64178Y82515
X65793Y83661
X65946Y79833
X69715Y79341
X70787Y78917
X71419Y78533
X74046Y78253
X75046Y79253
X73651Y80394
X73348Y81064
X73740Y81348
X72638Y80472
X70049Y81319
X70309Y85430
X70484Y85779
X70472Y86890
Y87283
X70464Y87669
X71616Y87137
X72008Y86998
X72569Y87087
X69598Y85474
X69576Y89753
X68446Y89563
X68336Y89943
X66366Y89413
X63626Y89243
X63041Y86457
X64104Y86191
X64366Y92583
X70945Y91929
X75596Y89973
X77806Y89733
X77496Y89263
X61850Y90394
X60636Y91713
X60766Y86703
X61457Y87126
X61722Y87402
X61646Y85553
X61146
Y85053
X60646
Y85553
Y84553
X61146
X61646
Y85053
X62470Y85157
X62471Y83712
X61646Y83713
X61319Y83473
X60925Y83415
X59951Y83484
X59065Y83268
X59301Y84163
X58366Y84423
X58056Y85103
X59203Y85915
X57766Y87313
X58228Y88543
X59144Y81093
X58898Y80532
X60600Y80030
X61388Y79980
Y80364
X61646Y81333
X61378Y81693
X61368Y82087
X61556Y82523
X60866Y78393
X58646Y78253
X56646
X48338Y92653
X47742Y92093
X47415
X47382Y91732
X45978Y91463
X45159Y90663
X44798Y90783
X44458Y90723
X44058Y90793
X43439Y90463
X43439Y90063
X43528Y89623
X44049Y89353
X44458
X44868
X44931Y88750
X44478Y88780
X43927Y88760
X43458Y88073
X43494Y87520
X43868Y87402
X44419Y87352
X45217Y87490
X45315Y88622
X45409Y89543
X45469Y90073
X41189Y90033
X41063Y90335
X41048Y90823
X40748Y90630
X40378Y90823
X40099Y90630
X39839Y90823
X39606Y90630
X39094
X38858Y90823
X38622Y90630
X39328Y91033
X39358Y91973
X39055Y91968
X38622
X38307
X37968Y92163
Y92623
X38245Y93344
X38645
Y93744
X38245
X39045
X39445
X39845
Y93344
X39445
X39045
X40368Y93253
Y92843
X40968
Y93253
X41409Y92443
X41279Y91193
X41654Y91063
X40472Y90335
X40236Y90039
X40748
X40718Y89153
X41318
Y88553
Y87953
X41919
X40718
Y88553
X39904Y88484
Y88084
X39504
X39104
Y88484
Y88884
Y89284
X38704
X38304
Y88884
X38704
Y88484
X38304
Y88084
X38704
X38918Y87353
X39518
X40118
X40718
Y86753
Y86153
Y85553
Y84953
Y84353
X40118
Y84953
Y85553
Y86153
Y86753
X39518
Y86153
Y85553
Y84953
Y84353
X38918
Y84953
Y85553
Y86153
Y86753
X38319
Y87353
X37719
Y87953
Y88553
Y89153
X36788Y89393
X36428Y89733
X36119Y89263
X37318Y90133
X39504Y89284
Y88884
Y88484
X39904Y88884
Y89284
X40068Y91803
X42769Y93253
X42362Y86417
Y86142
Y85866
Y85591
X42047Y85472
X41732
X41880Y84272
X41978Y83868
X41358Y84253
X41298Y83513
X41299Y82992
X40591Y83425
X39291Y82874
X38976
X38701
X38386
X38307Y82520
Y82205
Y81850
Y81535
X38543Y81142
X38858
X39173
X39370Y81457
Y81811
Y82165
Y82480
X41870Y82234
X41811Y81654
X41948Y80113
X42779Y79533
X43088Y79523
X43602Y79075
X43889Y79823
X42283Y79026
X41575Y78740
X42480Y82874
X42943
X43661Y82657
X43652Y83130
X43622Y84724
X42972Y84872
X42274Y84656
X38319Y84953
Y85553
Y86153
X37719
Y86753
Y85553
Y84953
Y84353
X38319
X33719Y84753
X32913Y84646
X32756Y85059
Y85551
X33209Y85640
X32992Y86102
X32757Y86967
X33368Y87293
X33138Y87583
X33828Y88073
X34418Y88243
X35008Y87453
X34370Y86142
X32913Y83740
Y82874
X33307Y82992
X33969Y82353
X34370Y80748
X34429Y80113
X33668Y79253
X32668Y78253
X32273Y80394
X31970Y81064
X32362Y81348
X31260Y80472
X34218Y89973
X31191Y87087
X30630Y86998
X30238Y87137
X29094Y87283
Y86890
X29086Y87669
X29106Y85779
X28932Y85430
X28220Y85474
X25921Y85313
X25551Y85315
X25512Y84606
X26104Y84430
X26084Y84952
X25866Y84094
X25866Y83543
X26417Y83504
X26319Y83140
X26606Y82846
X26181Y82677
X26024Y82126
X26496Y82205
X26063Y81575
X26339Y81299
X26024Y80945
X26063Y80551
X27283Y80669
X27678Y80523
X27520Y81024
X28075Y80966
X28287Y80650
X28750Y80768
X29120Y80914
X29104Y81496
X28671Y81319
X28337Y79341
X27648Y79026
X27156Y79429
X26673Y79341
X25552Y79027
X25138Y79045
X23977Y79223
X23763Y80056
X23780Y80433
X23489Y80763
X23379Y81423
X23680Y81763
X23722Y82167
X23740Y82559
X24283Y82639
Y81615
X24569Y79833
X24415Y83661
X24232Y85226
X23858Y85197
X23583Y84882
X22910
X22421Y85030
X22220Y84191
X22283Y83032
X22598Y82864
X22800Y82515
X20178Y82523
X19990Y82087
X20000Y81693
X20268Y81333
X20010Y80364
Y79980
X19222Y80030
X19489Y78393
X17269Y78253
X17520Y80532
X17766Y81093
X17687Y83268
X18573Y83484
X19547Y83415
X19941Y83473
X20268Y83713
X21093Y83712
X21093Y85157
X20268Y85053
X19769
Y85553
X19268
Y85053
Y84553
X19769
X20268
Y85553
X20079Y87126
X20344Y87402
X19389Y86703
X17825Y85915
X17923Y84163
X16989Y84423
X16679Y85103
X16388Y87313
X16850Y88543
X20472Y90394
X19259Y91713
X22989Y92583
X22248Y89243
X24989Y89413
X27069Y89563
X26958Y89943
X28198Y89753
X29567Y91929
X30766Y84609
X30433Y84173
X30484Y83791
X30276Y82992
X30217Y82461
X30669Y82589
X30482Y81909
X30041Y78533
X29409Y78917
X25748Y82992
X26389Y83997
X25335Y86191
X24409Y85630
X22726Y86191
X21663Y86457
X15268Y78253
X29908Y94023
X38245Y94144
X38645
Y94544
X38245
X39045
X39445
X39845
Y94144
X39445
X39045
X40368Y93853
Y94453
X40968
Y93853
X42028Y93843
X42758Y94123
X71286Y94023
X79623Y94144
X80023
Y94544
X79623
X80423
X80823
X81223
Y94144
X80823
X80423
X81746Y93853
Y94453
X82346
Y93853
X83406Y93843
X84136Y94123
T02
X29207Y33752
X29707
X30207
X30707
X31207
Y34752
X30707
X30207
X29707
X29207
Y37413
X29707
X30207
X30707
X31207
Y38413
X30707
X30207
X29707
X29207
X31707
X32207
X32707
X33207
X33707
Y37413
X33207
X32707
X32207
X31707
Y34752
X32207
X32707
X33207
X33707
Y33752
X33207
X32707
X32207
X31707
X70585
X71085
X71585
X72085
X72585
X73085
X73585
X74085
X74585
X75085
Y34752
X74585
X74085
X73585
X73085
X72585
X72085
X71585
X71085
X70585
Y37413
X71085
X71585
X72085
X72585
X73085
X73585
X74085
X74585
X75085
Y38413
X74585
X74085
X73585
X73085
X72585
X72085
X71585
X71085
X70585
Y61744
X71085
X71585
X72085
X72585
X73085
X73585
X74085
X74585
X75085
X33707
X33207
X32707
X32207
X31707
X31207
X30707
X30207
X29707
X29207
Y62744
X29707
X30207
X30707
X31207
Y65406
X30707
X30207
X29707
X29207
Y66406
X29707
X30207
X30707
X31207
X31707
X32207
X32707
X33207
X33707
Y65406
X33207
X32707
X32207
X31707
Y62744
X32207
X32707
X33207
X33707
X70585
X71085
X71585
X72085
X72585
X73085
X73585
X74085
X74585
X75085
Y65406
X74585
X74085
X73585
X73085
X72585
X72085
X71585
X71085
X70585
Y66406
X71085
X71585
X72085
X72585
X73085
X73585
X74085
X74585
X75085
Y89736
X74585
X74085
X73585
X73085
X72585
X72085
X71585
X71085
X70585
Y90736
X71085
X71585
X72085
X72585
X73085
X73585
X74085
X74585
X75085
Y93398
X74585
X74085
X73585
X73085
X72585
X72085
X71585
X71085
X70585
X33707
X33207
X32707
X32207
X31707
Y90736
X32207
X32707
X33207
X33707
Y89736
X33207
X32707
X32207
X31707
X31207
X30707
X30207
X29707
X29207
Y90736
X29707
X30207
X30707
X31207
Y93398
X30707
X30207
X29707
X29207
Y94398
X29707
X30207
X30707
X31207
X31707
X32207
X32707
X33207
X33707
X70585
X71085
X71585
X72085
X72585
X73085
X73585
X74085
X74585
X75085
T03
X86346Y17219
X87346Y16468
X45968
X44969Y17219
X15502Y31425
X44969Y45211
X45968Y44461
X56880Y31425
X86346Y45211
X87346Y44461
X56880Y59417
X15502
X44969Y73203
X45968Y72453
X86346Y73203
X87346Y72453
X56880Y87409
X15502
T04
X35968Y35018
Y36019
Y37018
Y38019
Y39018
X36969
Y38019
Y37018
Y36019
Y35018
X77346
Y36019
Y37018
Y38019
Y39018
X78346
Y38019
Y37018
Y36019
Y35018
X36969Y63011
Y64011
Y65011
Y66011
Y67011
X35968
Y66011
Y65011
Y64011
Y63011
X77346
Y64011
Y65011
Y66011
Y67011
X78346
Y66011
Y65011
Y64011
Y63011
Y91003
Y92003
Y93003
X77346
Y92003
Y91003
X36969
Y92003
Y93003
X35968
Y92003
Y91003
Y94003
Y95003
X36969
Y94003
X77346
Y95003
X78346
Y94003
T05
X57015Y26665
X57805
Y27657
X57015
X16427
X15637
Y26665
X16427
X17664Y31644
X18664
X19664
Y32644
X18664
X17664
X23390
X24390
X25390
Y31644
X24390
X23390
X59042
X60042
X61042
Y32644
X60042
X59042
X64768
X65768
X66768
Y31644
X65768
X64768
Y59636
X65768
X66768
Y60636
X65768
X64768
X61042
Y59636
X60042
Y60636
X59042
Y59636
X57805Y55650
X57015
Y54657
X57805
X25390Y59636
Y60636
X24390
Y59636
X23390
Y60636
X19664
Y59636
X18664
Y60636
X17664
Y59636
X16427Y55650
X15637
Y54657
X16427
X64768Y87628
X65768
X66768
Y88628
X65768
X64768
X61042
Y87628
X60042
Y88628
X59042
Y87628
X57805Y83642
X57015
Y82650
X57805
X25390Y87628
Y88628
X24390
Y87628
X23390
Y88628
X19664
Y87628
X18664
Y88628
X17664
Y87628
X16427Y83642
X15637
Y82650
X16427
T06
X16610Y13386
X17610
X18610
X19610
X21728
X22728
X23728
X24728
X26846
X27846
X28846
X29846
X31965
X32965
X33965
X34965
X43110Y13898
X47717Y13394
Y14794
X57988Y13386
X58988
X59988
X60988
X63106
X64106
X65106
X66106
X68224
X69224
X70224
X71224
X73343
X74343
X75343
X76343
X84488Y13898
X89094Y13394
Y14794
X84488Y15866
X81743Y22736
X80343
X78531Y20709
X77531
X76850Y22965
Y23965
Y26075
Y27075
Y29185
Y30185
X71224Y16142
X70224
X69224
X68224
X43110Y15866
X40365Y22736
X38965
X35472Y22965
Y23965
Y26075
Y27075
Y29185
Y30185
X36154Y20709
X37154
X29846Y16142
X28846
X27846
X26846
X12896Y32968
Y34748
X16323Y35433
X17323
X18323
X20457
X21457
X22457
X24591
X25591
X26591
Y37795
X25591
X24591
X22457
X21457
X20457
X18323
X17323
X16323
X16610Y41378
X17610
X18610
X19610
X21728
X22728
X23728
X24728
X26846
X27846
X28846
X29846
Y44134
X28846
X27846
X26846
X31965Y41378
X32965
X33965
X34965
X43110Y41890
Y43858
X36888Y32548
X35889
X47138Y38189
X48138
X47717Y41387
Y42787
X57988Y41378
X58988
X59988
X60988
X61835Y37795
X59701
X58701
X57701
Y35433
X58701
X59701
X61835
X54274Y34748
Y32968
X62835Y35433
X63835
X65968
X66968
X67969
Y37795
X66968
X65968
X63835
X62835
X63106Y41378
X64106
X65106
X66106
X68224
X69224
X70224
X71224
X73343
X74343
X75343
X76343
X71224Y44134
X70224
X69224
X68224
X77266Y32548
X78266
X84488Y41890
Y43858
X89094Y42787
Y41387
X89516Y38189
X88516
X81743Y50728
X80343
X78531Y48701
X78266Y60541
X77266
X76850Y58177
Y57177
Y55067
Y54067
Y51957
Y50957
X77531Y48701
X54274Y60960
X36888Y60541
X35889
X35472Y58177
Y57177
Y55067
Y54067
Y51957
Y50957
X36154Y48701
X37154
X38965Y50728
X40365
X12896Y60960
Y62740
X16323Y63425
X17323
X18323
X20457
X21457
X22457
X24591
X25591
X26591
Y65787
X25591
X24591
X22457
X21457
X20457
X18323
X17323
X16323
X16610Y69370
X17610
X18610
X19610
X21728
X22728
X23728
X24728
X26846
X27846
X28846
X29846
Y72126
X28846
X27846
X26846
X31965Y69370
X32965
X33965
X34965
X36154Y76693
X37154
X43110Y71850
Y69882
X47717Y69379
Y70779
X48138Y66181
X47138
X54274Y62740
X57701Y63425
X58701
X59701
X61835
Y65787
X59701
X58701
X57701
X57988Y69370
X58988
X59988
X60988
X63106
X64106
X65106
X66106
X68224
X69224
X70224
X71224
X73343
X74343
X75343
X76343
X71224Y72126
X70224
X69224
X68224
X67969Y65787
X66968
X65968
X63835
X62835
Y63425
X63835
X65968
X66968
X67969
X77531Y76693
X78531
X84488Y71850
Y69882
X89094Y69379
Y70779
X89516Y66181
X88516
X81743Y78720
X80343
X78266Y88533
X77266
X76850Y86169
Y85169
Y83059
Y82059
Y79949
Y78949
X67969Y91417
X66968
X65968
X63835
X62835
X61835
X59701
X58701
X57701
X54274Y90733
Y88953
X36888Y88533
X35889
X35472Y86169
Y85169
Y83059
Y82059
Y79949
Y78949
X38965Y78720
X40365
X26591Y91417
X25591
X24591
X22457
X21457
X20457
X18323
X17323
X16323
X12896Y90733
Y88953
X16323Y93780
X17323
X18323
X20457
X21457
X22457
X24591
X25591
X26591
X47138Y94173
X48138
X57701Y93780
X58701
X59701
X61835
X62835
X63835
X65968
X66968
X67969
X88516Y94173
X89516
T07
X44449Y32079
Y34079
Y36079
Y38079
X85827
Y36079
Y34079
Y32079
Y60071
Y62071
X44449
Y60071
Y64071
Y66071
X85827
Y64071
Y88063
Y90063
Y92063
X44449
Y90063
Y88063
Y94063
X85827
T08
X13876Y32478
Y35238
X55254
Y32478
Y60470
X13876
Y63230
X55254
Y88463
Y91223
X13876
Y88463
T09
X88283Y16693
Y18346
Y20000
Y21654
Y23307
Y24961
Y26614
Y28268
Y29921
X90449
Y28268
Y26614
Y24961
Y23307
Y21654
Y20000
Y18346
Y16693
X49071
Y18346
Y20000
Y21654
Y23307
Y24961
Y26614
Y28268
Y29921
X46906
Y28268
Y26614
Y24961
Y23307
Y21654
Y20000
Y18346
Y16693
Y31575
Y33228
Y34882
X49071
Y33228
Y31575
Y44685
Y46339
X46906
Y44685
X88283
Y46339
X90449
Y44685
Y34882
Y33228
Y31575
X88283
Y33228
Y34882
Y47992
Y49646
Y51299
Y52953
Y54606
Y56260
Y57913
Y59567
Y61220
X90449
Y59567
Y57913
Y56260
Y54606
Y52953
Y51299
Y49646
Y47992
X49071
Y49646
Y51299
Y52953
Y54606
Y56260
Y57913
Y59567
Y61220
X46906
Y59567
Y57913
Y56260
Y54606
Y52953
Y51299
Y49646
Y47992
Y62874
X49071
Y72677
Y74331
Y75984
Y77638
X46906
Y75984
Y74331
Y72677
X88283
Y74331
Y75984
Y77638
X90449
Y75984
Y74331
Y72677
Y62874
X88283
Y79291
Y80945
Y82598
Y84252
Y85906
Y87559
Y89213
Y90866
X90449
Y89213
Y87559
Y85906
Y84252
Y82598
Y80945
Y79291
X49071
Y80945
Y82598
Y84252
Y85906
Y87559
Y89213
Y90866
X46906
Y89213
Y87559
Y85906
Y84252
Y82598
Y80945
Y79291
T10
X55945Y24795
Y29528
X14567
Y24795
X55945Y52787
Y57520
X14567
Y52787
X55945Y80780
Y85512
X14567
Y80780
T11
X39409Y13775
X80787
Y15775
Y17375
Y19375
X84331Y22279
Y24279
Y25879
Y27879
X86496
Y25879
Y24279
Y22279
X45118
Y24279
Y25879
Y27879
X42953
Y25879
Y24279
Y22279
X39409Y19375
Y17375
Y15775
Y41767
Y43767
Y45367
X80787
Y43767
Y41767
Y47367
X84331Y50271
Y52271
Y53871
Y55871
X86496
Y53871
Y52271
Y50271
X45118
Y52271
Y53871
Y55871
X42953
Y53871
Y52271
Y50271
X39409Y47367
Y69759
Y71759
Y73359
Y75359
X80787
Y73359
Y71759
Y69759
X84331Y78263
Y80263
Y81863
Y83863
X86496
Y81863
Y80263
Y78263
X45118
Y80263
Y81863
Y83863
X42953
Y81863
Y80263
Y78263
T12
X13780Y13780
X51181
X55157
X92559
X13780Y37795
Y41772
X51181
Y37795
X55157
Y41772
X92559
Y37795
X13780Y65787
Y69764
X51181
Y65787
X55157
Y69764
X92559
Y65787
X13780Y93780
X51181
X55157
X92559
T13
X10600Y10600
X95778
X93323Y16693
X51945
Y34882
Y44685
X93323
Y34882
X51945Y62874
Y72677
X93323
Y62874
Y90866
X51945
X10600Y96959
X95778
M30
