M48
;Layer_Color=9474304
;FILE_FORMAT=2:4
INCH,TZ
;TYPE=PLATED
T1F00S00C0.0100
T2F00S00C0.0150
T3F00S00C0.0354
T4F00S00C0.0380
T5F00S00C0.0400
T6F00S00C0.0550
T7F00S00C0.0590
T8F00S00C0.0600
T9F00S00C0.0630
T10F00S00C0.0870
;TYPE=NON_PLATED
T11F00S00C0.0504
T12F00S00C0.1181
%
T01
X2789Y2789
X5459Y2849
X6159Y3809
X6169Y4739
X6249Y5669
X5982
X6317Y5987
X5747Y6167
X4749Y6239
X4207Y6317
X3927
X3519Y6279
X2869Y5549
X7099Y5569
Y5309
X7109Y5879
X8049Y5589
Y5329
X8789Y5377
Y5137
X8807Y6147
X10199Y5639
X10039Y5319
X10029Y5059
X10919Y4229
X11009Y3469
X11949Y3499
X13949Y3329
X16099Y3379
X16089Y4369
X17009Y4379
Y6089
X16027Y6347
X15959Y5629
X15689
X15107Y5187
X14189Y5419
X14187Y5677
X14727Y6187
X12117Y6137
X11847
X11819Y5809
Y5549
X11429Y5669
X8849Y3339
X6729Y3369
X6709Y4319
X18129Y5359
X19079Y3359
X21169Y3399
X21199Y4499
X21189Y5409
X21927Y4857
X21787Y6297
X22127Y5867
X22387
X22769Y6219
X24087Y6027
X24337
X24927Y6247
X26347Y5677
X26289Y4589
X26319Y3379
X27159Y3949
X27139Y5169
X23577Y5207
X24209Y3379
X22139Y3409
X22129Y4179
X35079Y5939
X36519Y4919
X39307Y5237
X39607Y5557
X42699Y5949
X43349Y5309
X43089Y8619
X43019Y10939
X43317Y11637
X43069Y14249
X43099Y16139
X43109Y18189
X41589Y17669
X40659Y17489
X40619Y18979
X41599Y19739
X40199Y16279
X41109Y15119
X41089Y13169
X40859Y9719
X40899Y6769
X37697Y7117
X35409Y7929
X36449Y10599
X36679Y12699
X37449Y12369
X31292Y14582
X30159Y16779
X30389Y17729
X30589Y17719
X31697Y18157
X31489Y19829
X31969
X33158Y20825
X33558
X33958
Y21225
Y21625
X33558
Y21225
X33158
Y21625
X34358
X34758
Y21225
X34358
Y20825
X34758
X29829Y21739
X26919Y21919
X25427Y21667
X24739Y21659
X22517Y21629
X22339Y19049
X22349Y18539
X22817Y18617
X22837Y17877
X22527Y17887
X23649Y17549
X25309Y16529
X26799Y15849
X27149
X27209Y14159
X27157Y12717
X25779Y12609
X25587Y11297
X25007Y11327
Y11577
X24497
X24487Y11337
X24077Y11157
X23997Y10927
X22957Y10627
Y10377
X22777Y10137
X22822Y9902
X23354Y9387
Y8954
X23787
Y9387
X24220
Y8954
Y8521
Y8088
X23787
X23354
Y8521
X23787
X25077Y8798
X25267Y9462
X24977Y7577
X24711
X24927Y7217
X24787Y6967
X24447Y7037
Y6817
X25757Y6547
X26017
X26107Y7047
X29505Y7214
Y6814
X29905
Y7214
X30305
Y6814
X30705
Y7214
Y7614
Y8014
Y8414
X30305
Y8014
X29905
Y8414
X29505
Y8014
Y7614
X29905
X30305
X30387Y9567
X26307Y10857
X26667Y11667
X24247Y12347
X23507Y12657
X23517Y13207
X23017
X22647Y12937
X22187Y12917
X22507Y12447
X22907Y12137
X22637Y15097
X24849Y14259
X24637Y13717
X26779Y19129
X27159Y19139
X32639Y16589
X22817Y7577
X22557
X22309Y7569
X22769Y6739
X21787Y6547
X21699Y8369
X21329Y8365
X21277Y8917
X20557Y9277
X20550Y9748
X20668Y10497
X20471Y11008
X20659Y11492
X21077Y11827
X21827Y12437
X21517Y12917
X21567Y13727
X20817Y13397
X20487Y13077
X20127Y13047
X19807
X19167
X18757Y12947
X18147Y12997
X17877
X17287Y13997
X15807Y13947
X15197Y13987
X15307Y14457
X15057Y15737
X15037Y16047
X15007Y16492
X14879Y17199
X14649Y17479
X14097Y16167
X14277Y15467
X16997Y15487
X16957Y16157
X17209Y16489
X17327Y17007
X16999Y17009
X17719Y17019
X18089Y17479
X18887Y16967
X19472Y15862
X19469Y15359
X20299Y15799
X20297Y16107
X20619Y15499
X20785Y16917
X21095
X21405
X21449Y17999
X20599Y17399
X20317Y18847
Y19437
X20147Y20247
X20377Y20457
X20586Y21978
X18807Y20107
X18089Y20109
X17257Y20067
X16947
X16635
X16325
X16327Y19137
X16637
X16635Y18697
X16325
X16635Y18247
X16945
X17259Y18239
X17087Y18697
X16945Y17697
X16635
X16325
X18089Y18849
X18909
X18467Y15667
X18139Y15659
X17677Y15357
Y15987
X19577Y14167
X20367Y13887
X19497Y11520
X18849Y11519
X18429
X18739Y11008
X18749Y10497
X19497Y10428
X19577Y8507
X19347
X18727Y9037
X18357Y8157
X18107
X17597Y9447
X16817Y9497
X15627Y9472
X15457Y8817
X15509Y7879
X15307Y7577
X15071
X15367Y7217
Y6967
X15899Y7459
X16319Y7679
X16207Y6677
X16339Y6399
X14580Y8088
Y8521
Y8954
Y9387
X14147
Y8954
X13714
Y9387
Y8521
X14147
Y8088
X13714
X13177Y7597
Y7377
X13077Y7067
X13327
X12859Y7509
X12267Y7417
X11977Y7507
X11937Y7977
X12377Y7787
X10969Y7449
X10787Y7597
X10567
X10447Y7217
Y6957
X11679Y6729
X10957Y8807
X11157Y9452
X10080Y9387
Y8954
Y8521
Y8088
X9647
X9214
Y8521
X9647
Y8954
X9214
Y9387
X9647
X8701Y9887
X8621Y10107
X8867Y10297
Y10547
X8617Y10947
X8389Y11879
X8139Y12049
X7849Y12149
X7827Y11567
X6869Y11499
X6379Y11559
Y11789
X6377Y12097
X6607Y13647
X7157Y13487
X9047Y13097
Y12837
X8747Y12527
X9859Y12619
X10067Y12397
X10317
X10607Y12487
X10927
X11277Y12037
X11369Y11189
X10847Y11277
Y11517
X10357
Y11277
X9807Y11137
X9937Y10937
X11997Y11227
X12097Y12377
X12477
X12857Y12367
X13587Y12737
X13787Y12927
X14667Y12767
X15687Y12967
X15987
X15930Y11357
X16157
X15667Y11187
X15747Y10977
X16487Y10767
X16957Y11067
X16857Y11917
X14107Y11397
X14307Y11137
X14437Y10937
X13337Y10637
X12837Y10547
X13117Y10137
X13197Y9907
X11906Y12744
X11747Y13037
X9407Y13207
X10239Y15629
X10859Y16129
X11169Y16139
X11007Y17287
X10317Y17387
X10987Y18407
X11822Y18456
X11727Y18087
X12809Y18209
X12839Y19249
X13477Y19677
X13859Y19659
X13857Y20637
X13359Y20549
X14736Y20627
X15689Y20609
X15267Y21807
X14547Y21697
X14107Y21627
X10599Y21039
X10497Y20171
X10871
Y19797
Y19423
X10497
Y19797
X10125
X10120Y20174
X10123Y19413
X8107Y17137
X7327Y11027
X6667Y9827
X6448Y9158
X6357Y7947
X6457Y7657
X7409Y7619
X7847Y7647
Y7947
Y8247
X7869Y6939
X8019Y6689
X8477Y7067
X8787Y7057
X8687Y7357
Y7577
X7329Y6929
X6789
X20697Y8127
X21287Y10037
X5606Y9747
Y9314
X5173
Y9747
X4740
Y9314
Y8881
X5173
X5606
Y8448
X5173
X4740
X4209Y7960
Y7730
X3297Y7827
X3299Y8179
X3167Y8707
X3297Y7067
X3517
X4599Y7049
X5867Y7327
X6197Y7167
X6207Y7587
X6097Y7947
X5827Y11617
X5907Y11847
X5437Y11257
X5217
X4257Y10967
Y10747
X4147Y10467
X4227Y10247
X4157Y12397
Y12677
X3817Y13447
X3407Y13717
X3259Y13979
X4667Y13517
X4927Y13297
X5437Y13057
Y12797
X5379Y12499
X5477Y21537
X3329Y20399
X2829Y21999
X2759Y24559
X4439Y24509
X4409Y25089
X5949Y25189
X5869Y23619
X5629Y22069
X5369Y27059
X3869Y26639
X2809Y26319
X2859Y28209
X2789Y30782
X5459Y30842
X5129Y30119
X6159Y31802
X6169Y32731
X6249Y33661
X5982
X6317Y33979
X5747Y34159
X4749Y34232
X4207Y34309
X3927
X3519Y34272
X3517Y35059
X3297
Y35819
X3299Y36172
X3167Y36699
X4740Y36873
X5173
Y37306
X4740
X5606
Y36873
Y36440
X5173
X4740
X4209Y35953
Y35723
X4599Y35041
X5867Y35319
X6197Y35159
X6207Y35579
X6097Y35939
X2869Y33542
X7099Y33561
Y33301
X7109Y33872
X8049Y33582
Y33321
X8789Y33369
Y33129
X8807Y34139
X8787Y35049
X8477Y35059
X8687Y35349
Y35569
X7847Y35639
Y35939
Y36239
X7409Y35612
X7329Y34922
X6789
X6457Y35649
X6357Y35939
X6448Y37150
X9214Y36946
Y37379
X9647
Y36946
Y36513
X9214
Y36080
X9647
X10080
Y36513
Y36946
Y37379
X11157Y37444
X10957Y36799
X10969Y35442
X10787Y35589
X10567
X10447Y35209
Y34949
X11679Y34722
X11847Y34129
X12117
X11819Y33802
Y33542
X11429Y33661
X10199Y33631
X10039Y33312
X10029Y33052
X10919Y32222
X11009Y31462
X11949Y31491
X13949Y31321
X14089Y29929
X13169Y29979
X13119Y29129
X12707Y28157
X11469Y29769
X9749Y30009
X10189Y28849
X9859Y27139
X10857Y27007
X10739Y25609
X10719Y25109
X10219Y25159
X10119Y24529
X8649Y24294
X7587Y24327
X7009Y27369
X8997Y26697
X11887Y25757
X11897Y24707
X11887Y23967
X12209Y23499
X12669Y23669
X14929Y23759
X14887Y24207
X14909Y23129
X14449Y22949
X14367Y22227
X15447Y22137
X15987Y22427
X15907Y22857
X15399Y22929
X15387Y23547
X16657Y23257
X17017Y23627
X16899Y24599
X16909Y25379
X16889Y25869
X14897Y26237
X15379Y30009
X17019Y29699
X17529Y29279
X19849Y29519
X19529Y28559
X18999Y27929
X19079Y27189
X20109Y27049
X20779Y27429
X21809
X21889Y27899
X21259Y26459
X19809Y24049
X18619Y23399
X18329Y23319
X17047Y22317
X20589Y22359
X21137Y22357
X21138Y21988
X21726
X21747Y22367
X21169Y31391
X21199Y32492
X21189Y33402
X21927Y32849
X21787Y34289
Y34539
X21699Y36361
X21329Y36357
X21277Y36909
X20557Y37269
X20697Y36119
X19577Y36499
X19347
X18727Y37029
X18357Y36149
X18107
X17597Y37439
X16817Y37489
X15627Y37464
X15457Y36809
X15509Y35872
X15307Y35569
X15071
X15367Y35209
Y34959
X15899Y35452
X16319Y35672
X16207Y34669
X16339Y34392
X16027Y34339
X15959Y33621
X15689
X15107Y33179
X14189Y33412
X14187Y33669
X14727Y34179
X14580Y36080
Y36513
Y36946
Y37379
X14147
Y36946
X13714
Y37379
Y36513
X14147
Y36080
X13714
X13177Y35589
Y35369
X13077Y35059
X13327
X12859Y35501
X12267Y35409
X11977Y35499
X11937Y35969
X12377Y35779
X7869Y34931
X8019Y34681
X6709Y32311
X6729Y31361
X7059Y29999
X8849Y31332
X16099Y31372
X16089Y32362
X17009Y32371
Y34081
X18129Y33352
X19079Y31351
X11259Y22619
X21987Y22177
X23337Y22237
X23995Y22075
X25599Y22679
X25587Y23327
Y23657
X26197Y23077
X27007Y24387
X26809Y25809
X25539Y26199
X25077Y26237
X24749Y26239
X24409
X24399Y27469
X23749Y26879
X22939Y27329
X22929Y29529
X24959Y28999
Y28279
X25829Y28199
X26809Y28329
X26339Y27549
X25567Y26927
X24817Y24877
X28889Y22639
X30659Y22889
X31149Y22909
X31339Y23259
X31829Y24119
X32989Y25839
X35150Y26069
X35544
X35937
Y26463
Y26856
X35544
X35150
Y26463
X35544
X34529Y28009
X34779Y29159
X33059Y29189
X31809Y29089
X31697Y30077
X31327Y30067
X30705Y34806
X30305
X29905
X29505
Y35206
X29905
X30305
X30705
Y35606
Y36006
Y36406
X30305
Y36006
X29905
Y36406
X29505
Y36006
Y35606
X29905
X30305
X30387Y37559
X25267Y37454
X25077Y36790
X24220Y36946
Y37379
X23787
X23354
Y36946
X23787
Y36513
X23354
Y36080
X23787
X24220
Y36513
X24711Y35569
X24977
X24927Y35209
X24787Y34959
X24447Y35029
Y34809
X24337Y34019
X24087
X24927Y34239
X25757Y34539
X26017
X26107Y35039
X26347Y33669
X26289Y32582
X26319Y31372
X27159Y31941
X27139Y33161
X23577Y33199
X22769Y34211
Y34732
X22817Y35569
X22557
X22309Y35561
X22387Y33859
X22127
X22129Y32171
X22139Y31402
X24209Y31372
X35079Y33932
X35409Y35921
X36519Y32912
X36627Y28997
X36999Y28239
X37547Y29367
X37597Y29737
X34758Y22025
X34358
X33958
X33558
X33158
X40697Y22137
X41029Y22269
X41699Y23739
Y25029
X43099Y25039
X43079Y26759
X40739Y27099
X39529Y26089
X38529Y26409
X40059Y24589
X39809Y29729
X43179Y29899
X43349Y33301
X42699Y33942
X40899Y34762
X39607Y33549
X39307Y33229
X37697Y35109
X43089Y36611
X43019Y38932
X43317Y39629
X43069Y42242
X43099Y44131
X43109Y46182
X41589Y45662
X40659Y45482
X40619Y46972
X41599Y47731
X41029Y50262
X40697Y50129
X41699Y51732
Y53021
X43099Y53032
X40059Y52582
X40199Y44271
X41109Y43112
X41089Y41161
X40859Y37712
X36449Y38591
X36679Y40691
X37449Y40361
X31292Y42574
X30159Y44771
X30389Y45722
X30589Y45711
X31697Y46149
X31489Y47821
X31969
X33158Y48817
X33558
X33958
Y49217
Y49617
Y50017
X33558
Y49617
Y49217
X33158
Y49617
Y50017
X34358
X34758
Y49617
X34358
Y49217
X34758
Y48817
X34358
X31149Y50901
X30659Y50882
X31339Y51252
X31829Y52112
X29829Y49731
X28889Y50631
X26919Y49911
X25427Y49659
X24739Y49651
X23995Y50067
X23337Y50229
X21987Y50169
X22517Y49622
X22339Y47042
X22349Y46532
X22817Y46609
X22837Y45869
X22527Y45879
X23649Y45542
X25309Y44521
X26799Y43842
X27149
X27209Y42151
X27157Y40709
X25779Y40602
X25587Y39289
X25007Y39319
Y39569
X24497
X24487Y39329
X24077Y39149
X23997Y38919
X22957Y38619
Y38369
X22777Y38129
X22822Y37894
X22907Y40129
X22507Y40439
X22647Y40929
X22187Y40909
X23017Y41199
X23517
X23507Y40649
X24247Y40339
X24637Y41709
X24849Y42252
X22637Y43089
X26667Y39659
X26307Y38849
X26779Y47122
X27159Y47132
X26197Y51069
X25587Y51319
Y51649
X25599Y50672
X24817Y52869
X27007Y52379
X32639Y44581
X21405Y44909
X21095
X20785
X20599Y45392
X21449Y45992
X20317Y46839
Y47429
X20147Y48239
X20377Y48449
X20586Y49970
X20589Y50352
X21137Y50349
X21138Y49980
X21726
X21747Y50359
X19809Y52042
X18619Y51392
X18329Y51311
X17017Y51619
X16657Y51249
X15907Y50849
X15987Y50419
X15447Y50129
X15267Y49799
X14547Y49689
X14107Y49619
X14367Y50219
X14449Y50942
X14909Y51122
X14929Y51751
X14887Y52199
X15387Y51539
X15399Y50922
X17047Y50309
X16947Y48059
X17257
X16635
X16325
X16327Y47129
X16637
X16635Y46689
X16325
X16635Y46239
X16945
X17259Y46231
X17087Y46689
X16945Y45689
X16635
X16325
X16999Y45002
X17327Y44999
X17719Y45012
X18089Y45472
X18887Y44959
X19472Y43854
X19469Y43351
X20299Y43791
X20297Y44099
X20619Y43492
X20367Y41879
X20487Y41069
X20127Y41039
X19807
X19167
X18757Y40939
X18147Y40989
X17877
X17287Y41989
X15807Y41939
X15197Y41979
X15307Y42449
X15057Y43729
X15037Y44039
X15007Y44484
X14879Y45191
X14649Y45472
X14097Y44159
X14277Y43459
X16997Y43479
X16957Y44149
X17209Y44482
X17677Y43979
Y43349
X18139Y43651
X18467Y43659
X19577Y42159
X20817Y41389
X21567Y41719
X21517Y40909
X21827Y40429
X21077Y39819
X20659Y39484
X20471Y39000
X20668Y38489
X20550Y37741
X21287Y38029
X19497Y38420
X18749Y38489
X18739Y39000
X18849Y39511
X18429
X19497Y39512
X16957Y39059
X16487Y38759
X16157Y39349
X15930
X15667Y39179
X15747Y38969
X14437Y38929
X14307Y39129
X14107Y39389
X13337Y38629
X12837Y38539
X13117Y38129
X13197Y37899
X11997Y39219
X11369Y39181
X10847Y39269
Y39509
X10357
Y39269
X9807Y39129
X9937Y38929
X8617Y38939
X8867Y38539
Y38289
X8621Y38099
X8701Y37879
X6667Y37819
X7327Y39019
X6869Y39492
X6379Y39551
Y39781
X6377Y40089
X7849Y40142
X8139Y40041
X8389Y39871
X7827Y39559
X8747Y40519
X9047Y40829
Y41089
X9407Y41199
X9859Y40612
X10067Y40389
X10317
X10607Y40479
X10927
X11277Y40029
X12097Y40369
X12477
X12857Y40359
X13587Y40729
X13787Y40919
X14667Y40759
X15687Y40959
X15987
X16857Y39909
X11906Y40736
X11747Y41029
X11169Y44131
X10859Y44121
X10239Y43622
X10317Y45379
X11007Y45279
X10987Y46399
X11822Y46448
X11727Y46079
X12809Y46202
X12839Y47242
X13477Y47669
X13859Y47652
X13857Y48629
X13359Y48541
X14736Y48619
X15689Y48601
X18089Y48102
X18807Y48099
X18909Y46842
X18089
X16899Y52592
X11897Y52699
X11887Y51959
X12209Y51491
X12669Y51662
X11259Y50612
X10599Y49032
X10497Y48163
X10871
Y47789
Y47415
X10497
Y47789
X10125
X10120Y48167
X10123Y47405
X8107Y45129
X7157Y41479
X6607Y41639
X7587Y52319
X8649Y52286
X10119Y52522
X10219Y53151
X10719Y53102
X5949Y53182
X4409Y53081
X4439Y52502
X2759Y52551
X2829Y49991
X3329Y48391
X5477Y49529
X5629Y50061
X5869Y51611
X5437Y41049
Y40789
X5379Y40491
X5907Y39839
X5827Y39609
X5437Y39249
X5217
X4257Y38959
Y38739
X4147Y38459
X4227Y38239
X4740Y37739
X5173
X5606
X4157Y40389
Y40669
X3817Y41439
X3407Y41709
X3259Y41972
X4667Y41509
X4927Y41289
X5369Y55051
X3869Y54632
X2809Y54311
X2859Y56202
X2789Y58774
X5459Y58834
X5129Y58112
X6159Y59794
X6169Y60724
X6249Y61654
X5982
X6317Y61971
X5747Y62151
X4749Y62224
X4207Y62301
X3927
X3519Y62264
X3517Y63051
X3297
Y63811
X3299Y64164
X3167Y64691
X4740Y64865
X5173
Y65298
Y65731
X4740
Y65298
X5606
Y65731
Y64865
Y64432
X5173
X4740
X4209Y63945
Y63715
X4599Y63034
X5867Y63311
X6197Y63151
X6207Y63571
X6097Y63931
X5827Y67601
X5907Y67831
X5437Y67241
X5217
X4257Y66951
Y66731
X4147Y66451
X4227Y66231
X4157Y68381
Y68661
X5379Y68484
X5437Y68781
X2869Y61534
X7099Y61554
Y61294
X7109Y61864
X8049Y61574
Y61314
X8789Y61361
Y61121
X8807Y62131
X8787Y63041
X8477Y63051
X8687Y63341
Y63561
X7847Y63631
Y63931
Y64231
X7409Y63604
X7329Y62914
X6789
X6457Y63641
X6357Y63931
X6448Y65142
X6667Y65811
X7327Y67011
X6869Y67484
X6379Y67544
Y67774
X6377Y68081
X7849Y68134
X8139Y68034
X8389Y67864
X7827Y67551
X8617Y66931
X8867Y66531
Y66281
X8621Y66091
X8701Y65871
X9214Y65371
Y64938
X9647
Y65371
X10080
Y64938
Y64505
Y64072
X9647
X9214
Y64505
X9647
X10957Y64791
X11157Y65436
X11369Y67174
X10847Y67261
Y67501
X10357
Y67261
X9807Y67121
X9937Y66921
X10067Y68381
X10317
X10607Y68471
X10927
X11277Y68021
X12097Y68361
X12477
X12857Y68351
X13587Y68721
X14667Y68751
X14107Y67381
X14307Y67121
X14437Y66921
X15747Y66961
X15667Y67171
X15930Y67341
X16157
X16487Y66751
X16957Y67051
X16857Y67901
X18429Y67504
X18849
X18739Y66993
X18749Y66481
X19497Y66412
Y67504
X20659Y67476
X20471Y66993
X20668Y66481
X20550Y65733
X20557Y65261
X21277Y64901
X21329Y64349
X21699Y64354
X20697Y64111
X19577Y64491
X19347
X18727Y65021
X18357Y64141
X18107
X17597Y65431
X16817Y65481
X15627Y65456
X15457Y64801
X15509Y63864
X15307Y63561
X15071
X15367Y63201
Y62951
X15899Y63444
X16319Y63664
X16207Y62661
X16339Y62384
X16027Y62331
X15959Y61614
X15689
X15107Y61171
X14189Y61404
X14187Y61661
X14727Y62171
X14580Y64072
Y64505
Y64938
Y65371
X14147
Y64938
X13714
Y65371
Y64505
X14147
Y64072
X13714
X13177Y63581
Y63361
X13077Y63051
X13327
X12859Y63494
X12267Y63401
X11977Y63491
X11937Y63961
X12377Y63771
X10969Y63434
X10787Y63581
X10567
X10447Y63201
Y62941
X11679Y62714
X11847Y62121
X12117
X11819Y61794
Y61534
X11429Y61654
X10199Y61624
X10039Y61304
X10029Y61044
X10919Y60214
X11009Y59454
X11949Y59484
X13949Y59314
X14089Y57922
X13169Y57972
X13119Y57122
X12707Y56149
X11469Y57762
X9749Y58001
X10189Y56842
X9859Y55132
X10857Y54999
X10739Y53601
X11887Y53749
X14897Y54229
X16889Y53861
X16909Y53372
X19079Y55181
X18999Y55922
X19529Y56551
X19849Y57512
X17529Y57271
X17019Y57691
X15379Y58001
X16099Y59364
X16089Y60354
X17009Y60364
Y62074
X18129Y61344
X19079Y59344
X21169Y59384
X21199Y60484
X21189Y61394
X21927Y60841
X21787Y62281
Y62531
X21287Y66021
X21077Y67811
X21827Y68421
X11906Y68728
X11997Y67211
X12837Y66531
X13337Y66621
X13117Y66121
X13197Y65891
X9859Y68604
X9047Y68821
X8747Y68511
X7869Y62924
X8019Y62674
X6709Y60304
X6729Y59354
X7059Y57991
X7009Y55361
X8997Y54689
X8849Y59324
X20109Y55041
X20779Y55422
X21809
X21889Y55891
X21259Y54451
X22939Y55321
X23749Y54872
X24399Y55462
X24409Y54232
X24749
X25077Y54229
X25539Y54191
X25567Y54919
X26339Y55542
X25829Y56192
X24959Y56272
Y56992
X26809Y56322
Y53801
X26319Y59364
X26289Y60574
X26347Y61661
X26017Y62531
X25757
X26107Y63031
X24927Y63201
X24787Y62951
X24447Y63021
Y62801
X24337Y62011
X24087
X24927Y62231
X24977Y63561
X24711
X24220Y64072
X23787
X23354
Y64505
X23787
X24220
Y64938
Y65371
X23787
X23354
Y64938
X23787
X25077Y64782
X25267Y65446
X25007Y67311
Y67561
X24497
X24487Y67321
X24077Y67141
X23997Y66911
X22957Y66611
Y66361
X22777Y66121
X22822Y65886
X22907Y68121
X22507Y68431
X23507Y68641
X24247Y68331
X25779Y68594
X27157Y68701
X26667Y67651
X26307Y66841
X25587Y67281
X22817Y63561
X22557
X22309Y63554
X22769Y62724
Y62204
X22387Y61851
X22127
X22129Y60164
X22139Y59394
X24209Y59364
X23577Y61191
X27139Y61154
X27159Y59934
X29505Y62798
Y63198
X29905
Y62798
X30305
Y63198
X30705
Y62798
Y63598
Y63998
Y64398
X30305
Y63998
X29905
Y64398
X29505
Y63998
Y63598
X29905
X30305
X30387Y65551
X35409Y63914
X35079Y61924
X36519Y60904
X36627Y56989
X36999Y56231
X37547Y57359
X37597Y57729
X34779Y57151
X34529Y56002
X35150Y54848
X35544
X35937
Y54455
Y54061
X35544
X35150
Y54455
X35544
X32989Y53832
X33059Y57182
X31809Y57081
X31697Y58069
X31327Y58059
X22929Y57522
X36449Y66584
X36679Y68684
X37449Y68354
X37697Y63101
X39607Y61541
X39307Y61221
X40899Y62754
X42699Y61934
X43349Y61294
X43089Y64604
X43019Y66924
X43317Y67621
X40859Y65704
X39809Y57722
X43179Y57892
X43079Y54752
X40739Y55092
X39529Y54082
X38529Y54401
X41089Y69154
X41109Y71104
X40199Y72264
X40659Y73474
X41589Y73654
X43109Y74174
X43099Y72124
X43069Y70234
X41599Y75724
X40619Y74964
X40697Y78121
X41029Y78254
X41699Y79724
Y81014
X43099Y81024
X43079Y82744
X40739Y83084
X39529Y82074
X38529Y82394
X40059Y80574
X35937Y82053
X35544
X35150
Y82447
Y82841
X35544
X35937
Y82447
X35544
X34529Y83994
X36999Y84224
X32989Y81824
X31829Y80104
X31339Y79244
X31149Y78894
X30659Y78874
X29829Y77724
X28889Y78624
X26919Y77904
X25427Y77651
X24739Y77644
X23995Y78059
X23337Y78221
X21987Y78161
X22517Y77614
X22339Y75034
X22349Y74524
X22817Y74601
X22837Y73861
X22527Y73871
X23649Y73534
X25309Y72514
X26799Y71834
X27149
X27209Y70144
X24849Y70244
X24637Y69701
X23517Y69191
X23017
X22647Y68921
X22187Y68901
X22637Y71081
X26779Y75114
X27159Y75124
X30389Y73714
X30589Y73704
X30159Y72764
X32639Y72574
X31697Y74141
X31489Y75814
X31969
X33158Y76809
X33558
X33958
Y77209
Y77609
Y78009
X33558
Y77609
Y77209
X33158
Y77609
Y78009
X34358
X34758
Y77609
X34358
Y77209
X34758
Y76809
X34358
X31292Y70566
X26197Y79061
X25587Y79311
Y79641
X25599Y78664
X24817Y80861
X24749Y82224
X25077Y82221
X25539Y82184
X25567Y82911
X26339Y83534
X25829Y84184
X24959Y84264
X24399Y83454
X23749Y82864
X22939Y83314
X24409Y82224
X26809Y81794
X27007Y80371
X26809Y84314
X21889Y83884
X21809Y83414
X20779
X20109Y83034
X19079Y83174
X18999Y83914
X21259Y82444
X19809Y80034
X18619Y79384
X18329Y79304
X17017Y79611
X16657Y79241
X15907Y78841
X15987Y78411
X15447Y78121
X15267Y77791
X14547Y77681
X14107Y77611
X14367Y78211
X14449Y78934
X14909Y79114
X14929Y79744
X14887Y80191
X15387Y79531
X15399Y78914
X17047Y78301
X16947Y76051
X17257
X16635
X16325
X16327Y75121
X16637
X16635Y74681
X16325
X16635Y74231
X16945
X17259Y74224
X17087Y74681
X16945Y73681
X16635
X16325
X16999Y72994
X17327Y72991
X17719Y73004
X18089Y73464
X18887Y72951
X19472Y71846
X19469Y71344
X20299Y71784
X20297Y72091
X20619Y71484
X20785Y72901
X21095
X21405
X21449Y73984
X20599Y73384
X20317Y74831
Y75421
X20147Y76231
X20377Y76441
X20586Y77962
X20589Y78344
X21137Y78341
X21138Y77972
X21726
X21747Y78351
X18807Y76091
X18089Y76094
Y74834
X18909
X18467Y71651
X18139Y71644
X17677Y71341
Y71971
X16957Y72141
X17209Y72474
X16997Y71471
X17287Y69981
X15807Y69931
X15197Y69971
X15307Y70441
X15057Y71721
X15037Y72031
X15007Y72476
X14879Y73184
X14649Y73464
X14097Y72151
X14277Y71451
X13787Y68911
X15687Y68951
X15987
X17877Y68981
X18147
X18757Y68931
X19167Y69031
X19807
X20127
X20487Y69061
X20817Y69381
X20367Y69871
X19577Y70151
X21567Y69711
X21517Y68901
X11747Y69021
X9407Y69191
X9047Y69081
X7157Y69471
X6607Y69631
X8107Y73121
X10317Y73371
X11007Y73271
X10987Y74391
X11822Y74440
X11727Y74071
X12809Y74194
X12839Y75234
X13477Y75661
X13859Y75644
X13857Y76621
X13359Y76534
X14736Y76611
X15689Y76594
X16899Y80584
X16909Y81364
X16889Y81854
X14897Y82221
X11887Y81741
X11897Y80691
X11887Y79951
X12209Y79484
X12669Y79654
X11259Y78604
X10599Y77024
X10497Y76155
X10871
Y75781
Y75407
X10497
Y75781
X10125
X10120Y76159
X10123Y75397
X10239Y71614
X10859Y72114
X11169Y72124
X10719Y81094
X10739Y81594
X10219Y81144
X10119Y80514
X8649Y80279
X7587Y80311
X7009Y83354
X8997Y82681
X9859Y83124
X10857Y82991
X12707Y84141
X5369Y83044
X3869Y82624
X2809Y82304
X2759Y80544
X4439Y80494
X4409Y81074
X5949Y81174
X5869Y79604
X5629Y78054
X5477Y77521
X2829Y77984
X3329Y76384
X3259Y69964
X3407Y69701
X3817Y69431
X4667Y69501
X4927Y69281
X5437Y69041
X2859Y84194
X5129Y86104
X7059Y85984
X9749Y85994
X10189Y84834
X11469Y85754
X13169Y85964
X13119Y85114
X14089Y85914
X15379Y85994
X17019Y85684
X17529Y85264
X19849Y85504
X19529Y84544
X22929Y85514
X24959Y84984
X31809Y85074
X31697Y86061
X31327Y86051
X33059Y85174
X34779Y85144
X36627Y84981
X37547Y85351
X37597Y85721
X39809Y85714
X43179Y85884
T02
X3808Y3808
X3508Y4508
X3808Y5208
X4508Y5508
X5208Y5208
X5508Y4508
X5208Y3808
X4508Y3508
X27867Y3407
Y3917
Y4437
X28787
Y3927
Y3407
X29538Y3888
X30607Y3757
X30587Y3407
X31337Y3377
X31817
X32267Y3537
Y3957
Y4387
X32977Y4887
X30559Y4924
Y5344
X31087Y5977
X28787Y5957
Y5437
X27867
Y5957
X29547Y5187
X35837Y4887
X37179Y4939
X36207Y6297
X35277Y3947
X38009Y4319
X38267Y4797
X38847Y4807
X38567Y5307
X39107Y3717
X41209Y3808
X40909Y4508
X41209Y5208
X41909Y5508
X42609Y5208
X42909Y4508
X42609Y3808
X41909Y3508
X40069Y6059
X38567Y6517
X39097Y7437
X38237Y7947
X40017Y8387
X40457Y8887
X39077Y9347
X38787Y10517
X37837Y10507
X37787Y11077
X37877Y11457
X38137Y11767
X39077Y12517
X38907Y13047
X39067Y13887
X38067Y14087
X38147Y14867
X39077Y15787
X39067Y17217
X39977Y18137
X39737Y19217
X39867Y20507
X39077Y20447
X38247Y20497
X37967Y19377
X38157Y18147
X40697Y20287
X40707Y21067
X40037Y21367
X42839Y20219
X40437Y15417
X39987Y14897
X40657Y14327
X40457Y13217
X40037Y11657
X36697Y11427
X36247
X35207Y11677
X35097Y11077
X35197Y10477
X34807Y10097
X34317Y10267
X34107Y11017
Y11537
Y12047
X33187
Y11537
Y11017
X32977Y10277
X33557Y8427
X34277Y8277
X34207Y7647
X34037Y7047
X35227Y6707
X35857Y7317
X35887Y8267
X36529Y8399
X37157Y8227
X36507Y9997
X35442Y12422
X35907Y13047
X37227Y13027
X36557Y14057
X35177Y14067
X34777Y14101
X32967Y13707
X32309Y15059
X31637Y15937
X31319Y16959
X33087Y17147
X33587
X34097
X34399Y17149
X34419Y17489
X32769Y17569
X32977Y18657
X33210Y19242
X33446Y19478
X33722Y19242
X33958Y19478
X34431
X34194Y19242
X35187Y19367
X35337Y18437
X35897Y18177
X37247Y18187
X36567Y19367
X36577Y20087
X35697Y20697
Y21697
X36697
X32557Y21457
X32547Y20737
X32777Y20266
Y19872
Y19478
X31170Y20004
X30977Y21077
X31747Y20967
X29949Y18039
X30237Y15617
X30217Y15157
X30087Y11847
X30177Y10937
X28577Y10147
X28227Y10187
Y9687
X28607
Y9167
X28227Y9177
X28197Y8147
Y7637
Y7117
X27277
Y7637
Y8147
X27147Y8507
X28847Y7867
X28787Y6487
X27867Y6484
X31967Y6857
X32279Y6859
Y7359
X31967Y7357
Y7857
X32279Y7849
X27477Y11057
X27327Y12107
X26647Y12417
X27557Y13507
X24257Y13937
X23017Y14027
X23049Y15179
X22657Y15867
X22819Y16309
X24617Y16217
X24727Y15797
Y15337
X25107Y17487
X23947Y18517
X24387Y19017
X23609Y19389
X23507Y19807
X23487Y20317
X23927Y21187
X22959Y21169
X25077Y20767
Y20317
X23967Y12807
X36137Y15087
X37227
X36787Y15697
X19197Y14167
X18257
X14537Y15127
X13830Y14644
X14507Y16437
X14487Y16887
X13437Y17488
X14517Y19297
X14987Y18867
X15027Y19797
X11821Y19902
X12174Y21168
X10807Y21870
X10167Y21457
X8667Y20527
X8657Y18687
X9037Y18697
X10137Y18137
X10518Y18144
X10718Y16831
X10719Y16439
X10738Y15108
Y14724
X9397Y15337
Y15657
X8647Y16097
X7687Y16087
X7697Y15667
Y15347
X8167Y17887
X7697Y19127
X7417Y19847
X7647Y21487
X7047
X6717Y21927
X19799Y21759
X21659Y21029
X4089Y20289
X3327Y15227
X6339Y22087
X6117Y22347
X6097Y23177
X5877Y24547
X5167Y23887
X5208Y27824
X5508Y28524
X5208Y29224
X4508Y29524
X3808Y29224
X3508Y28524
X3808Y27824
X4508Y27524
Y31500
X3808Y31800
X3508Y32500
X3808Y33200
X4508Y33500
X5208Y33200
X5508Y32500
X5208Y31800
X11239Y27329
X11539
X12239
X12847Y27027
X15239Y27329
X15539
X17839Y27019
Y26409
X17287Y29967
X19799Y22139
X11073Y22146
X7219Y23147
X30697Y24877
X31099Y24879
X31669
X32259
X32859
X33077Y25307
X33457Y24077
X33897Y23467
X34687Y23327
X34697Y22697
X33697
X32697
X32567Y22167
X35697Y22507
X36587Y22687
X36657Y23697
X36667Y24087
X36487Y24747
X36107
X35047Y25027
Y25357
Y25687
X34667Y25527
Y25077
X34952Y24077
X35377Y23287
X37569Y23449
X37097Y27677
X36707Y28557
X36307Y28537
X36177Y28907
X35447Y28837
Y28467
Y28097
X36267Y27177
X34417Y27347
X35277Y31939
X35837Y32879
X37179Y32931
X36207Y34289
X35857Y35309
X35887Y36259
X36529Y36391
X37157Y36219
X34277Y36269
X34207Y35639
X34037Y35039
X35227Y34699
X32279Y34852
X31967Y34849
Y35349
X32279Y35352
Y35842
X31967Y35849
X33557Y36419
X32977Y32879
X32267Y32379
Y31949
Y31529
X31817Y31369
X31337
X30587Y31399
X30607Y31749
X29538Y31880
X28787Y31919
Y32429
X27867
Y31909
Y31399
X28787
Y33429
Y33949
Y34479
X27867Y34476
Y33949
Y33429
X29547Y33179
X30559Y33336
Y32916
X31087Y33969
X28197Y35109
Y35629
Y36139
X27277
X27147Y36499
X27277Y35629
Y35109
X28847Y35859
X28607Y37159
X28227Y37169
X39077Y37339
X40457Y36879
X40017Y36379
X39097Y35429
X38237Y35939
X38567Y34509
X38567Y33299
X38847Y32799
X38267Y32789
X38009Y32311
X39107Y31709
X41209Y31800
X40909Y32500
X41209Y33200
X41909Y33500
X42609Y33200
X42909Y32500
X42609Y31800
X41909Y31500
Y29524
X42609Y29224
X42909Y28524
X42609Y27824
X41909Y27524
X41209Y27824
X40909Y28524
X41209Y29224
X39067Y25617
X37649Y25329
X38167Y24637
X39067Y23657
X39077Y22357
X42697Y23107
X40069Y34051
X40037Y39649
X39077Y40509
X38907Y41039
X39067Y41879
X38067Y42079
X38147Y42859
X39077Y43779
X39067Y45209
X39977Y46129
X39737Y47209
X39867Y48499
X39077Y48439
X38247Y48489
X37967Y47369
X38157Y46139
X40697Y48279
X40707Y49059
X40037Y49359
X39077Y50349
X39067Y51649
X38167Y52629
X42697Y51099
X42839Y48211
X40437Y43409
X39987Y42889
X40657Y42319
X40457Y41209
X38137Y39759
X37877Y39449
X37787Y39069
X37837Y38499
X38787Y38509
X36507Y37989
X36697Y39419
X36247
X35207Y39669
X35097Y39069
X35197Y38469
X34807Y38089
X34317Y38259
X34107Y39009
Y39529
Y40039
X33187
Y39529
Y39009
X32977Y38269
X32967Y41699
X32309Y43052
X31637Y43929
X31319Y44952
X33087Y45139
X33587
X34097
X34399Y45142
X34419Y45482
X32769Y45561
X32977Y46649
X33210Y47234
X33446Y47471
X33722Y47234
X33958Y47471
X34431
X34194Y47234
X35187Y47359
X35337Y46429
X35897Y46169
X37247Y46179
X36567Y47359
X36577Y48079
X35697Y48689
Y49689
Y50499
X36587Y50679
X36657Y51689
X36667Y52079
X36487Y52739
X36107
X35047Y53019
X34667Y53069
X34952Y52069
X34687Y51319
X34697Y50689
X33697
X33897Y51459
X33457Y52069
X32859Y52871
X32259
X31669
X31099
X30697Y52869
X30977Y49069
X31747Y48959
X32547Y48729
X32777Y48258
Y47864
Y47471
X31170Y47996
X32557Y49449
X32567Y50159
X32697Y50689
X35377Y51279
X37569Y51441
X36697Y49689
X36787Y43689
X37227Y43079
X36137
X36557Y42049
X35177Y42059
X34777Y42094
X35907Y41039
X35442Y40414
X37227Y41019
X30087Y39839
X30177Y38929
X28577Y38139
X28227Y38179
Y37679
X28607
X27477Y39049
X27327Y40099
X26647Y40409
X27557Y41499
X24257Y41929
X23017Y42019
X23049Y43172
X22657Y43859
X22819Y44302
X24617Y44209
X24727Y43789
Y43329
X25107Y45479
X23947Y46509
X24387Y47009
X23609Y47382
X23507Y47799
X23487Y48309
X23927Y49179
X22959Y49162
X25077Y48759
Y48309
X29949Y46031
X30237Y43609
X30217Y43149
X23967Y40799
X19197Y42159
X18257
X14537Y43119
X13830Y42636
X14507Y44429
X14487Y44879
X13437Y45480
X14517Y47289
X14987Y46859
X15027Y47789
X11821Y47894
X12174Y49161
X10807Y49862
X11073Y50138
X10167Y49449
X8667Y48519
X8657Y46679
X9037Y46689
X10137Y46129
X10518Y46136
X10718Y44823
X10719Y44432
X10738Y43100
Y42717
X9397Y43329
Y43649
X8647Y44089
X7687Y44079
X7697Y43659
Y43339
X8167Y45879
X7697Y47119
X7417Y47839
X7647Y49479
X7047
X6717Y49919
X7219Y51140
X19799Y50132
Y49752
X21659Y49022
X6339Y50079
X6117Y50339
X6097Y51169
X5877Y52539
X5167Y51879
X4089Y48281
X3327Y43219
X3808Y55816
X3508Y56516
X3808Y57216
X4508Y57516
X5208Y57216
X5508Y56516
X5208Y55816
X4508Y55516
Y59492
X3808Y59792
X3508Y60492
X3808Y61192
X4508Y61492
X5208Y61192
X5508Y60492
X5208Y59792
X11239Y55321
X11539
X12239
X12847Y55019
X15239Y55321
X15539
X17839Y55012
Y54401
X17287Y57959
X27867Y59391
Y59901
Y60421
X28787
Y59911
Y59391
X29538Y59873
X30607Y59741
X30587Y59391
X31337Y59361
X31817
X32267Y59521
Y59941
Y60371
X32977Y60871
X30559Y60909
Y61328
X31087Y61961
X31967Y62841
X32279Y62844
Y63344
X31967Y63341
Y63841
X32279Y63834
X33557Y64411
X34277Y64261
X34207Y63631
X34037Y63031
X35227Y62691
X35857Y63301
X35887Y64251
X36529Y64384
X37157Y64211
X36507Y65981
X36697Y67411
X36247
X35207Y67661
X35097Y67061
X35197Y66461
X34807Y66081
X34317Y66251
X34107Y67001
Y67521
Y68031
X33187
Y67521
Y67001
X32977Y66261
X30177Y66921
X30087Y67831
X27327Y68091
X26647Y68401
X27477Y67041
X28227Y66171
X28577Y66131
X28607Y65671
X28227
Y65161
X28607Y65151
X28197Y64131
Y63621
Y63101
X27277
Y63621
Y64131
X27147Y64491
X28847Y63851
X28787Y62471
Y61941
Y61421
X27867
Y61941
Y62468
X29547Y61171
X35837Y60871
X37179Y60924
X36207Y62281
X35277Y59931
X35447Y56829
Y56459
Y56089
X36307Y56529
X36707Y56549
X36177Y56899
X36267Y55169
X37097Y55669
X34417Y55339
X34667Y53519
X35047Y53679
Y53349
X33077Y53299
X35442Y68406
X23967Y68791
X38137Y67751
X37877Y67441
X37787Y67061
X37837Y66491
X38787Y66501
X39077Y65331
X40457Y64871
X40017Y64371
X39097Y63421
X38237Y63931
X38567Y62501
X38567Y61291
X38847Y60791
X38267Y60781
X38009Y60304
X39107Y59701
X41209Y59792
X40909Y60492
X41209Y61192
X41909Y61492
X42609Y61192
X42909Y60492
X42609Y59792
X41909Y59492
Y57516
X42609Y57216
X42909Y56516
X42609Y55816
X41909Y55516
X41209Y55816
X40909Y56516
X41209Y57216
X39067Y53609
X37649Y53321
X40069Y62044
X40037Y67641
X39077Y68501
X38907Y69031
X39067Y69871
X38067Y70071
X38147Y70851
X39077Y71771
X39067Y73201
X39977Y74121
X39737Y75201
X39867Y76491
X39077Y76431
X38247Y76481
X37967Y75361
X38157Y74131
X40697Y76271
X40707Y77051
X40037Y77351
X39077Y78341
X39067Y79641
X38167Y80621
X37649Y81314
X39067Y81601
X41209Y83808
X41909Y83508
X42609Y83808
X42697Y79091
X42839Y76204
X40437Y71401
X39987Y70881
X40657Y70311
X40457Y69201
X37227Y69011
X35907Y69031
X36557Y70041
X35177Y70051
X34777Y70086
X32967Y69691
X32309Y71044
X31637Y71921
X31319Y72944
X33087Y73131
X33587
X34097
X34399Y73134
X34419Y73474
X32769Y73554
X32977Y74641
X33210Y75227
X33446Y75463
X33722Y75227
X33958Y75463
X34431
X34194Y75227
X35187Y75351
X35337Y74421
X35897Y74161
X37247Y74171
X36567Y75351
X36577Y76071
X35697Y76681
Y77681
Y78491
X36587Y78671
X36657Y79681
X36667Y80071
X36487Y80731
X36107
X35047Y81011
Y81341
Y81671
X34667Y81511
Y81061
X34952Y80061
X34687Y79311
X34697Y78681
X33697
X33897Y79451
X33457Y80061
X32859Y80864
X32259
X31669
X31099
X30697Y80861
X33077Y81291
X32697Y78681
X32567Y78151
X32557Y77441
X32547Y76721
X32777Y76250
Y75856
Y75463
X31170Y75988
X30977Y77061
X31747Y76951
X29949Y74024
X30237Y71601
X30217Y71141
X27557Y69491
X24257Y69921
X23017Y70011
X23049Y71164
X22657Y71851
X22819Y72294
X24617Y72201
X24727Y71781
Y71321
X25107Y73471
X23947Y74501
X24387Y75001
X23609Y75374
X23507Y75791
X23487Y76301
X23927Y77171
X22959Y77154
X25077Y76751
Y76301
X36697Y77681
X37569Y79434
X35377Y79271
X36267Y83161
X37097Y83661
X35447Y84081
Y84451
X34417Y83331
X36137Y71071
X37227
X36787Y71681
X19197Y70151
X18257
X14537Y71111
X13830Y70628
X14507Y72421
X14487Y72871
X13437Y73473
X14517Y75281
X14987Y74851
X15027Y75781
X11821Y75886
X12174Y77153
X10807Y77854
X11073Y78130
X10167Y77441
X8667Y76511
X8657Y74671
X9037Y74681
X10137Y74121
X10518Y74128
X10718Y72815
X10719Y72424
X10738Y71093
Y70709
X9397Y71321
Y71641
X8647Y72081
X7687Y72071
X7697Y71651
Y71331
X8167Y73871
X7697Y75111
X7417Y75831
X7647Y77471
X7047
X6717Y77911
X7219Y79132
X11239Y83314
X11539
X12239
X12847Y83011
X15239Y83314
X15539
X17839Y83004
Y82394
X19799Y78124
Y77744
X21659Y77014
X6339Y78071
X6117Y78331
X6097Y79161
X5877Y80531
X5167Y79871
X5208Y83808
X4508Y83508
X3808Y83808
X4089Y76274
X3327Y71211
X3508Y84508
X3808Y85208
X4508Y85508
X5208Y85208
X5508Y84508
X17287Y85951
X35447Y84821
X36177Y84891
X36307Y84521
X36707Y84541
X40909Y84508
X41209Y85208
X41909Y85508
X42609Y85208
X42909Y84508
T03
X20437Y24387
Y25387
X21437
Y24387
Y28137
X20437
Y29137
X21437
X22437
Y28137
X23437
Y29137
X24437
Y28137
Y25387
X23437
X22437
Y24387
X23437
X24437
X27864Y24454
X28864
Y25454
X27864
Y26454
X28864
Y27454
X27864
Y28454
X28864
Y52446
X27864
X24437Y52379
X23437
X22437
X21437
X20437
Y53379
X21437
Y56129
X20437
Y57129
X21437
X22437
Y56129
X23437
Y57129
X24437
Y56129
Y53379
X23437
X22437
X27864Y53446
X28864
Y54446
X27864
Y55446
X28864
Y56446
X27864
Y80438
X28864
Y81438
X27864
Y82438
X28864
Y83438
X27864
Y84438
X28864
X24437Y84121
X23437
X22437
Y81371
Y80371
X23437
Y81371
X24437
Y80371
X21437
X20437
Y81371
X21437
Y84121
X20437
Y85121
X21437
X22437
X23437
X24437
T04
X6365Y17394
X7155
Y18386
X6365
X8022Y22342
Y23342
X9022
Y22342
X10022
Y23342
X7155Y45386
X6365
Y46378
X7155
X8022Y50335
Y51335
X9022
Y50335
X10022
Y51335
X7155Y73378
X6365
Y74370
X7155
X8022Y78327
Y79327
X9022
Y78327
X10022
Y79327
T05
X7339Y3719
X8339
X9339
X10339
X12457
X13457
X14457
X15457
X17576
X18576
X19576
X20576
X22698Y3723
X23698
X24698
X25698
X42904Y6752
X28627Y14767
Y15767
Y16767
X28637Y18907
Y19907
Y20907
X26201Y20913
Y19913
Y17803
Y16803
Y14693
Y13693
X20576Y6475
X19576
X18576
X17576
X3624Y23697
Y25477
X7469Y26109
X8469
Y28519
X7469
X10679
X11679
X13859Y28524
X14859
X15859
X16859
X17576Y31711
X18576
X19576
X20576
Y34467
X19576
X18576
X17576
X15457Y31711
X14457
X13457
X12457
X10339
X9339
X8339
X7339
X22698Y31715
X23698
X24698
X25698
X38847Y28957
Y27957
X42904Y34744
X28627Y42759
Y43759
Y44759
X28637Y46899
Y47899
Y48899
X26201Y48906
Y47906
Y45795
Y44795
Y42685
Y41685
X3624Y51689
Y53469
X7469Y54102
X8469
Y56512
X7469
X10679
X11679
X13859Y56516
X14859
X15859
X16859
X17576Y59704
X18576
X19576
X20576
Y62460
X19576
X18576
X17576
X15457Y59704
X14457
X13457
X12457
X10339
X9339
X8339
X7339
X22698Y59708
X23698
X24698
X25698
X38847Y56949
Y55949
X42904Y62736
X38847Y83941
X28637Y76891
Y75891
Y74891
X28627Y72751
Y71751
Y70751
X26201Y70677
Y69677
Y72787
Y73787
Y75898
Y76898
X8469Y82094
X7469
X3624Y81461
Y79681
X7469Y84504
X8469
X10679
X11679
X13859Y84508
X14859
X15859
X16859
X38847Y84941
T06
X28807Y12127
X30807
Y40119
X28807
Y68111
X30807
T07
X4604Y23207
Y25967
Y51199
Y53959
Y79191
Y81951
T08
X39067Y8392
Y11642
Y14892
Y18142
Y21392
Y24642
Y36384
Y39634
Y42884
Y46134
Y49384
Y52634
Y64376
Y67626
Y70876
Y74126
Y77376
Y80626
T09
X32946Y3951
X34286
X35847Y3947
X37187
Y9247
X35847
X34286Y9251
X32946
X35897Y14077
X37237
Y19377
X35897
X35847Y31939
X37187
X34286Y31943
X32946
Y37243
X34286
X35847Y37239
X37187
X37237Y42069
X35897
Y47369
X37237
X37187Y59931
X35847
X34286Y59935
X32946
Y65235
X34286
X35847Y65231
X37187
X37237Y70061
X35897
Y75361
X37237
T10
X5295Y15524
Y20256
Y43516
Y48248
Y71508
Y76240
T11
X11389Y25019
X12389
X13389
X14389
X15389
X16389
X17389
Y26019
X16389
X15389
X14389
X13389
X12389
X11389
Y53011
X12389
X13389
X14389
X15389
X16389
X17389
Y54012
X16389
X15389
X14389
X13389
X12389
X11389
Y81004
X12389
X13389
X14389
X15389
X16389
X17389
Y82004
X16389
X15389
X14389
X13389
X12389
X11389
T12
X1329Y1329
X4508Y4508
X41909
X45108Y1329
X4508Y28524
Y32500
X41909
Y28524
X4508Y56516
Y60492
X41909
Y56516
X4508Y84508
X1329Y87687
X41909Y84508
X45108Y87687
M30
