G04 Layer_Color=2752767*
%FSLAX25Y25*%
%MOIN*%
G70*
G01*
G75*
%ADD68C,0.01000*%
%ADD135C,0.00600*%
%ADD142C,0.00200*%
%ADD269C,0.00267*%
%ADD270C,0.00133*%
G54D68*
X413400Y-10900D02*
Y-1500D01*
X0Y-10900D02*
Y-4000D01*
X228693Y-9900D02*
X413400D01*
X0D02*
X181507D01*
X407400Y-7900D02*
X413400Y-9900D01*
X407400Y-11900D02*
X413400Y-9900D01*
X0D02*
X6000Y-11900D01*
X0Y-9900D02*
X6000Y-7900D01*
X-12200Y279500D02*
X-1500D01*
X-12200Y0D02*
X-4000D01*
X-11200Y159244D02*
Y279500D01*
Y0D02*
Y117056D01*
X-13200Y273500D02*
X-11200Y279500D01*
X-9200Y273500D01*
X-11200Y0D02*
X-9200Y6000D01*
X-13200D02*
X-11200Y0D01*
X431665Y-32503D02*
X425000D01*
Y-42500D01*
X431665D01*
X425000Y-37502D02*
X428332D01*
X434997Y-32503D02*
X438329D01*
X436663D01*
Y-42500D01*
X434997D01*
X438329D01*
X443327D02*
Y-32503D01*
X449992Y-42500D01*
Y-32503D01*
X453324D02*
Y-34169D01*
X456656Y-37502D01*
X459989Y-34169D01*
Y-32503D01*
X456656Y-37502D02*
Y-42500D01*
X473318Y-34169D02*
X474984Y-32503D01*
X478316D01*
X479982Y-34169D01*
Y-40834D01*
X478316Y-42500D01*
X474984D01*
X473318Y-40834D01*
Y-34169D01*
X483315Y-42500D02*
Y-40834D01*
X484981D01*
Y-42500D01*
X483315D01*
X498310D02*
X491645D01*
X498310Y-35835D01*
Y-34169D01*
X496643Y-32503D01*
X493311D01*
X491645Y-34169D01*
X503308Y-35835D02*
X506640D01*
X508306Y-37502D01*
Y-42500D01*
X503308D01*
X501642Y-40834D01*
X503308Y-39168D01*
X508306D01*
X425000Y-17503D02*
Y-27500D01*
X429998D01*
X431665Y-25834D01*
Y-19169D01*
X429998Y-17503D01*
X425000D01*
X434997Y-27500D02*
Y-17503D01*
X439995D01*
X441661Y-19169D01*
Y-22502D01*
X439995Y-24168D01*
X434997D01*
X438329D02*
X441661Y-27500D01*
X444993Y-17503D02*
X448326D01*
X446660D01*
Y-27500D01*
X444993D01*
X448326D01*
X453324Y-17503D02*
Y-27500D01*
X459989D01*
X463321Y-17503D02*
Y-27500D01*
X469985D01*
X483315Y-17503D02*
Y-27500D01*
X488313D01*
X489979Y-25834D01*
Y-19169D01*
X488313Y-17503D01*
X483315D01*
X493311Y-27500D02*
Y-17503D01*
X498310D01*
X499976Y-19169D01*
Y-22502D01*
X498310Y-24168D01*
X493311D01*
X496643D02*
X499976Y-27500D01*
X503308D02*
Y-20835D01*
X506640Y-17503D01*
X509972Y-20835D01*
Y-27500D01*
Y-22502D01*
X503308D01*
X513305Y-17503D02*
Y-27500D01*
X516637Y-24168D01*
X519969Y-27500D01*
Y-17503D01*
X523302D02*
X526634D01*
X524968D01*
Y-27500D01*
X523302D01*
X526634D01*
X531632D02*
Y-17503D01*
X538297Y-27500D01*
Y-17503D01*
X548293Y-19169D02*
X546627Y-17503D01*
X543295D01*
X541629Y-19169D01*
Y-25834D01*
X543295Y-27500D01*
X546627D01*
X548293Y-25834D01*
Y-22502D01*
X544961D01*
G54D135*
X183107Y-13499D02*
X185107D01*
X184107D01*
Y-7501D01*
X183107Y-8501D01*
X188105D02*
X189105Y-7501D01*
X191104D01*
X192104Y-8501D01*
Y-12499D01*
X191104Y-13499D01*
X189105D01*
X188105Y-12499D01*
Y-8501D01*
X198102Y-7501D02*
X194104D01*
Y-10500D01*
X196103Y-9500D01*
X197103D01*
X198102Y-10500D01*
Y-12499D01*
X197103Y-13499D01*
X195103D01*
X194104Y-12499D01*
X200102Y-13499D02*
Y-12499D01*
X201101D01*
Y-13499D01*
X200102D01*
X205100Y-8501D02*
X206100Y-7501D01*
X208099D01*
X209099Y-8501D01*
Y-12499D01*
X208099Y-13499D01*
X206100D01*
X205100Y-12499D01*
Y-8501D01*
X211098D02*
X212098Y-7501D01*
X214097D01*
X215097Y-8501D01*
Y-12499D01*
X214097Y-13499D01*
X212098D01*
X211098Y-12499D01*
Y-8501D01*
X217096Y-13499D02*
Y-9500D01*
X218096D01*
X219095Y-10500D01*
Y-13499D01*
Y-10500D01*
X220095Y-9500D01*
X221095Y-10500D01*
Y-13499D01*
X223094D02*
Y-9500D01*
X224094D01*
X225094Y-10500D01*
Y-13499D01*
Y-10500D01*
X226093Y-9500D01*
X227093Y-10500D01*
Y-13499D01*
X-13599Y118656D02*
Y122655D01*
X-12599D01*
X-8601Y118656D01*
X-7601D01*
X-12599Y124654D02*
X-13599Y125654D01*
Y127653D01*
X-12599Y128653D01*
X-8601D01*
X-7601Y127653D01*
Y125654D01*
X-8601Y124654D01*
X-12599D01*
X-7601Y130652D02*
X-8601D01*
Y131652D01*
X-7601D01*
Y130652D01*
X-8601Y135651D02*
X-7601Y136651D01*
Y138650D01*
X-8601Y139649D01*
X-12599D01*
X-13599Y138650D01*
Y136651D01*
X-12599Y135651D01*
X-11600D01*
X-10600Y136651D01*
Y139649D01*
X-8601Y141649D02*
X-7601Y142648D01*
Y144648D01*
X-8601Y145648D01*
X-12599D01*
X-13599Y144648D01*
Y142648D01*
X-12599Y141649D01*
X-11600D01*
X-10600Y142648D01*
Y145648D01*
X-7601Y147647D02*
X-11600D01*
Y148647D01*
X-10600Y149646D01*
X-7601D01*
X-10600D01*
X-11600Y150646D01*
X-10600Y151646D01*
X-7601D01*
Y153645D02*
X-11600D01*
Y154645D01*
X-10600Y155644D01*
X-7601D01*
X-10600D01*
X-11600Y156644D01*
X-10600Y157644D01*
X-7601D01*
G54D142*
X235839Y110761D02*
Y112361D01*
X237439D01*
Y110761D01*
X235839D01*
Y120761D02*
Y122361D01*
X237439D01*
Y120761D01*
X235839D01*
X200800Y15013D02*
Y16613D01*
X202400D01*
Y15013D01*
X200800D01*
X210800D02*
Y16613D01*
X212400D01*
Y15013D01*
X210800D01*
X220800D02*
Y16613D01*
X222400D01*
Y15013D01*
X220800D01*
X230800D02*
Y16613D01*
X232400D01*
Y15013D01*
X230800D01*
X149580Y14973D02*
Y16573D01*
X151180D01*
Y14973D01*
X149580D01*
X159580D02*
Y16573D01*
X161179D01*
Y14973D01*
X159580D01*
X169580D02*
Y16573D01*
X171179D01*
Y14973D01*
X169580D01*
X179579D02*
Y16573D01*
X181179D01*
Y14973D01*
X179579D01*
X149580Y42532D02*
Y44132D01*
X151180D01*
Y42532D01*
X149580D01*
X159580D02*
Y44132D01*
X161179D01*
Y42532D01*
X159580D01*
X169580D02*
Y44132D01*
X171179D01*
Y42532D01*
X169580D01*
X179579D02*
Y44132D01*
X181179D01*
Y42532D01*
X179579D01*
X98398Y14973D02*
Y16573D01*
X99998D01*
Y14973D01*
X98398D01*
X108398D02*
Y16573D01*
X109998D01*
Y14973D01*
X108398D01*
X118398D02*
Y16573D01*
X119998D01*
Y14973D01*
X118398D01*
X128398D02*
Y16573D01*
X129998D01*
Y14973D01*
X128398D01*
X47217D02*
Y16573D01*
X48817D01*
Y14973D01*
X47217D01*
X57217D02*
Y16573D01*
X58817D01*
Y14973D01*
X57217D01*
X67217D02*
Y16573D01*
X68817D01*
Y14973D01*
X67217D01*
X77217D02*
Y16573D01*
X78817D01*
Y14973D01*
X77217D01*
X282700Y95100D02*
X281900Y96700D01*
X283500D01*
X282700Y95100D01*
X262700D02*
X261900Y96700D01*
X263500D01*
X262700Y95100D01*
X346500Y13300D02*
X346900Y13700D01*
X347300D01*
X346900Y14100D01*
X347300Y14500D01*
X346900D01*
X346500Y14900D01*
X346100Y14500D01*
X345700D01*
X346100Y14100D01*
X345700Y13700D01*
X346100D01*
X346500Y13300D01*
X333100D02*
X333500Y13700D01*
X333900D01*
X333500Y14100D01*
X333900Y14500D01*
X333500D01*
X333100Y14900D01*
X332700Y14500D01*
X332300D01*
X332700Y14100D01*
X332300Y13700D01*
X332700D01*
X333100Y13300D01*
Y66300D02*
X333500Y66700D01*
X333900D01*
X333500Y67100D01*
X333900Y67500D01*
X333500D01*
X333100Y67900D01*
X332700Y67500D01*
X332300D01*
X332700Y67100D01*
X332300Y66700D01*
X332700D01*
X333100Y66300D01*
X346500D02*
X346900Y66700D01*
X347300D01*
X346900Y67100D01*
X347300Y67500D01*
X346900D01*
X346500Y67900D01*
X346100Y67500D01*
X345700D01*
X346100Y67100D01*
X345700Y66700D01*
X346100D01*
X346500Y66300D01*
X77753Y207556D02*
X78153Y208356D01*
X77753Y209156D01*
X78553Y208756D01*
X79353Y209156D01*
X78953Y208356D01*
X79353Y207556D01*
X78553Y207956D01*
X77753Y207556D01*
Y197556D02*
X78153Y198356D01*
X77753Y199156D01*
X78553Y198756D01*
X79353Y199156D01*
X78953Y198356D01*
X79353Y197556D01*
X78553Y197956D01*
X77753Y197556D01*
X67753Y207556D02*
X68153Y208356D01*
X67753Y209156D01*
X68553Y208756D01*
X69353Y209156D01*
X68953Y208356D01*
X69353Y207556D01*
X68553Y207956D01*
X67753Y207556D01*
Y197556D02*
X68153Y198356D01*
X67753Y199156D01*
X68553Y198756D01*
X69353Y199156D01*
X68953Y198356D01*
X69353Y197556D01*
X68553Y197956D01*
X67753Y197556D01*
X57753Y207556D02*
X58153Y208356D01*
X57753Y209156D01*
X58553Y208756D01*
X59353Y209156D01*
X58953Y208356D01*
X59353Y207556D01*
X58553Y207956D01*
X57753Y207556D01*
Y197556D02*
X58153Y198356D01*
X57753Y199156D01*
X58553Y198756D01*
X59353Y199156D01*
X58953Y198356D01*
X59353Y197556D01*
X58553Y197956D01*
X57753Y197556D01*
X135013Y207556D02*
X135413Y208356D01*
X135013Y209156D01*
X135813Y208756D01*
X136613Y209156D01*
X136213Y208356D01*
X136613Y207556D01*
X135813Y207956D01*
X135013Y207556D01*
Y197556D02*
X135413Y198356D01*
X135013Y199156D01*
X135813Y198756D01*
X136613Y199156D01*
X136213Y198356D01*
X136613Y197556D01*
X135813Y197956D01*
X135013Y197556D01*
X125013Y207556D02*
X125413Y208356D01*
X125013Y209156D01*
X125813Y208756D01*
X126613Y209156D01*
X126213Y208356D01*
X126613Y207556D01*
X125813Y207956D01*
X125013Y207556D01*
Y197556D02*
X125413Y198356D01*
X125013Y199156D01*
X125813Y198756D01*
X126613Y199156D01*
X126213Y198356D01*
X126613Y197556D01*
X125813Y197956D01*
X125013Y197556D01*
X115013Y207556D02*
X115413Y208356D01*
X115013Y209156D01*
X115813Y208756D01*
X116613Y209156D01*
X116213Y208356D01*
X116613Y207556D01*
X115813Y207956D01*
X115013Y207556D01*
Y197556D02*
X115413Y198356D01*
X115013Y199156D01*
X115813Y198756D01*
X116613Y199156D01*
X116213Y198356D01*
X116613Y197556D01*
X115813Y197956D01*
X115013Y197556D01*
X27184Y129469D02*
Y129069D01*
X27984D01*
Y129469D01*
X28384D01*
Y130269D01*
X27984D01*
Y130668D01*
X27184D01*
Y130269D01*
X26784D01*
Y129469D01*
X27184D01*
Y176790D02*
Y176391D01*
X27984D01*
Y176790D01*
X28384D01*
Y177591D01*
X27984D01*
Y177990D01*
X27184D01*
Y177591D01*
X26784D01*
Y176790D01*
X27184D01*
X37484Y147768D02*
X37884Y148568D01*
X37484Y149369D01*
X38284Y148969D01*
X39084Y149369D01*
X38684Y148568D01*
X39084Y147768D01*
X38284Y148169D01*
X37484Y147768D01*
Y157690D02*
X37884Y158490D01*
X37484Y159290D01*
X38284Y158890D01*
X39084Y159290D01*
X38684Y158490D01*
X39084Y157690D01*
X38284Y158090D01*
X37484Y157690D01*
X45384D02*
X45784Y158490D01*
X45384Y159290D01*
X46184Y158890D01*
X46984Y159290D01*
X46584Y158490D01*
X46984Y157690D01*
X46184Y158090D01*
X45384Y157690D01*
Y147768D02*
X45784Y148568D01*
X45384Y149369D01*
X46184Y148969D01*
X46984Y149369D01*
X46584Y148568D01*
X46984Y147768D01*
X46184Y148169D01*
X45384Y147768D01*
X19873Y205898D02*
X20273D01*
X20673Y206298D01*
X21073Y205898D01*
X21473D01*
Y206298D01*
X21073Y206698D01*
X21473Y207098D01*
Y207498D01*
X21073D01*
X20673Y207098D01*
X20273Y207498D01*
X19873D01*
Y207098D01*
X20273Y206698D01*
X19873Y206298D01*
Y205898D01*
Y233498D02*
X20273D01*
X20673Y233898D01*
X21073Y233498D01*
X21473D01*
Y233898D01*
X21073Y234298D01*
X21473Y234698D01*
Y235098D01*
X21073D01*
X20673Y234698D01*
X20273Y235098D01*
X19873D01*
Y234698D01*
X20273Y234298D01*
X19873Y233898D01*
Y233498D01*
X10073Y210798D02*
Y212398D01*
X11673D01*
Y210798D01*
X10073D01*
Y228598D02*
Y230198D01*
X11673D01*
Y228598D01*
X10073D01*
X392926Y19710D02*
X393726Y20510D01*
X394526Y19710D01*
X393726Y18910D01*
X392926Y19710D01*
Y8910D02*
Y10510D01*
X394526D01*
Y8910D01*
X392926D01*
X393326Y9310D02*
Y10110D01*
X394126D01*
Y9310D01*
X393326D01*
X392926Y28910D02*
Y30510D01*
X394526D01*
Y28910D01*
X392926D01*
X393326Y29310D02*
Y30110D01*
X394126D01*
Y29310D01*
X393326D01*
X402926Y18910D02*
Y20510D01*
X404526D01*
Y18910D01*
X402926D01*
X403326Y19310D02*
Y20110D01*
X404126D01*
Y19310D01*
X403326D01*
X382926Y18910D02*
Y20510D01*
X384526D01*
Y18910D01*
X382926D01*
X383326Y19310D02*
Y20110D01*
X384126D01*
Y19310D01*
X383326D01*
X385926Y25910D02*
Y27510D01*
X387526D01*
Y25910D01*
X385926D01*
X386326Y26310D02*
Y27110D01*
X387126D01*
Y26310D01*
X386326D01*
X399926Y25910D02*
Y27510D01*
X401526D01*
Y25910D01*
X399926D01*
X400326Y26310D02*
Y27110D01*
X401126D01*
Y26310D01*
X400326D01*
X399926Y11910D02*
Y13510D01*
X401526D01*
Y11910D01*
X399926D01*
X400326Y12310D02*
Y13110D01*
X401126D01*
Y12310D01*
X400326D01*
X385926Y11910D02*
Y13510D01*
X387526D01*
Y11910D01*
X385926D01*
X386326Y12310D02*
Y13110D01*
X387126D01*
Y12310D01*
X386326D01*
X250700Y214500D02*
Y216100D01*
X252300D01*
Y214500D01*
X250700D01*
Y204500D02*
Y206100D01*
X252300D01*
Y204500D01*
X250700D01*
X147020Y235446D02*
Y237046D01*
X148620D01*
Y235446D01*
X147020D01*
X137021D02*
Y237046D01*
X138620D01*
Y235446D01*
X137021D01*
X127021D02*
Y237046D01*
X128621D01*
Y235446D01*
X127021D01*
Y259068D02*
Y260668D01*
X128621D01*
Y259068D01*
X127021D01*
X137021D02*
Y260668D01*
X138620D01*
Y259068D01*
X137021D01*
X147020D02*
Y260668D01*
X148620D01*
Y259068D01*
X147020D01*
X85682D02*
Y260668D01*
X87282D01*
Y259068D01*
X85682D01*
X95682D02*
Y260668D01*
X97282D01*
Y259068D01*
X95682D01*
X105682D02*
Y260668D01*
X107282D01*
Y259068D01*
X105682D01*
X64343Y235446D02*
Y237046D01*
X65943D01*
Y235446D01*
X64343D01*
X54343D02*
Y237046D01*
X55943D01*
Y235446D01*
X54343D01*
X44343D02*
Y237046D01*
X45943D01*
Y235446D01*
X44343D01*
Y259068D02*
Y260668D01*
X45943D01*
Y259068D01*
X44343D01*
X54343D02*
Y260668D01*
X55943D01*
Y259068D01*
X54343D01*
X64343D02*
Y260668D01*
X65943D01*
Y259068D01*
X64343D01*
X235839Y172965D02*
Y174565D01*
X237439D01*
Y172965D01*
X235839D01*
Y182965D02*
Y184565D01*
X237439D01*
Y182965D01*
X235839D01*
Y141863D02*
Y143463D01*
X237439D01*
Y141863D01*
X235839D01*
Y151863D02*
Y153463D01*
X237439D01*
Y151863D01*
X235839D01*
X260200Y182900D02*
Y184500D01*
X261800D01*
Y182900D01*
X260200D01*
Y172900D02*
Y174500D01*
X261800D01*
Y172900D01*
X260200D01*
Y162900D02*
Y164500D01*
X261800D01*
Y162900D01*
X260200D01*
X260100Y141500D02*
Y143100D01*
X261700D01*
Y141500D01*
X260100D01*
Y131500D02*
Y133100D01*
X261700D01*
Y131500D01*
X260100D01*
Y121500D02*
Y123100D01*
X261700D01*
Y121500D01*
X260100D01*
X105682Y235446D02*
Y237046D01*
X107282D01*
Y235446D01*
X105682D01*
X95682D02*
Y237046D01*
X97282D01*
Y235446D01*
X95682D01*
X85682D02*
Y237046D01*
X87282D01*
Y235446D01*
X85682D01*
X402867Y41351D02*
Y42951D01*
X404467D01*
Y41351D01*
X402867D01*
X392926Y259868D02*
X393726Y260668D01*
X394526Y259868D01*
X393726Y259068D01*
X392926Y259868D01*
Y249068D02*
Y250668D01*
X394526D01*
Y249068D01*
X392926D01*
X393326Y249468D02*
Y250268D01*
X394126D01*
Y249468D01*
X393326D01*
X392926Y269068D02*
Y270668D01*
X394526D01*
Y269068D01*
X392926D01*
X393326Y269468D02*
Y270268D01*
X394126D01*
Y269468D01*
X393326D01*
X402926Y259068D02*
Y260668D01*
X404526D01*
Y259068D01*
X402926D01*
X403326Y259468D02*
Y260268D01*
X404126D01*
Y259468D01*
X403326D01*
X382926Y259068D02*
Y260668D01*
X384526D01*
Y259068D01*
X382926D01*
X383326Y259468D02*
Y260268D01*
X384126D01*
Y259468D01*
X383326D01*
X385926Y266068D02*
Y267668D01*
X387526D01*
Y266068D01*
X385926D01*
X386326Y266468D02*
Y267268D01*
X387126D01*
Y266468D01*
X386326D01*
X399926Y266068D02*
Y267668D01*
X401526D01*
Y266068D01*
X399926D01*
X400326Y266468D02*
Y267268D01*
X401126D01*
Y266468D01*
X400326D01*
X399926Y252068D02*
Y253668D01*
X401526D01*
Y252068D01*
X399926D01*
X400326Y252468D02*
Y253268D01*
X401126D01*
Y252468D01*
X400326D01*
X385926Y252068D02*
Y253668D01*
X387526D01*
Y252068D01*
X385926D01*
X386326Y252468D02*
Y253268D01*
X387126D01*
Y252468D01*
X386326D01*
X18910Y259868D02*
X19710Y260668D01*
X20510Y259868D01*
X19710Y259068D01*
X18910Y259868D01*
Y249068D02*
Y250668D01*
X20510D01*
Y249068D01*
X18910D01*
X19310Y249468D02*
Y250268D01*
X20110D01*
Y249468D01*
X19310D01*
X18910Y269068D02*
Y270668D01*
X20510D01*
Y269068D01*
X18910D01*
X19310Y269468D02*
Y270268D01*
X20110D01*
Y269468D01*
X19310D01*
X28910Y259068D02*
Y260668D01*
X30510D01*
Y259068D01*
X28910D01*
X29310Y259468D02*
Y260268D01*
X30110D01*
Y259468D01*
X29310D01*
X8910Y259068D02*
Y260668D01*
X10510D01*
Y259068D01*
X8910D01*
X9310Y259468D02*
Y260268D01*
X10110D01*
Y259468D01*
X9310D01*
X11910Y266068D02*
Y267668D01*
X13510D01*
Y266068D01*
X11910D01*
X12310Y266468D02*
Y267268D01*
X13110D01*
Y266468D01*
X12310D01*
X25910Y266068D02*
Y267668D01*
X27510D01*
Y266068D01*
X25910D01*
X26310Y266468D02*
Y267268D01*
X27110D01*
Y266468D01*
X26310D01*
X25910Y252068D02*
Y253668D01*
X27510D01*
Y252068D01*
X25910D01*
X26310Y252468D02*
Y253268D01*
X27110D01*
Y252468D01*
X26310D01*
X11910Y252068D02*
Y253668D01*
X13510D01*
Y252068D01*
X11910D01*
X12310Y252468D02*
Y253268D01*
X13110D01*
Y252468D01*
X12310D01*
X18910Y19710D02*
X19710Y20510D01*
X20510Y19710D01*
X19710Y18910D01*
X18910Y19710D01*
Y8910D02*
Y10510D01*
X20510D01*
Y8910D01*
X18910D01*
X19310Y9310D02*
Y10110D01*
X20110D01*
Y9310D01*
X19310D01*
X18910Y28910D02*
Y30510D01*
X20510D01*
Y28910D01*
X18910D01*
X19310Y29310D02*
Y30110D01*
X20110D01*
Y29310D01*
X19310D01*
X28910Y18910D02*
Y20510D01*
X30510D01*
Y18910D01*
X28910D01*
X29310Y19310D02*
Y20110D01*
X30110D01*
Y19310D01*
X29310D01*
X8910Y18910D02*
Y20510D01*
X10510D01*
Y18910D01*
X8910D01*
X9310Y19310D02*
Y20110D01*
X10110D01*
Y19310D01*
X9310D01*
X11910Y25910D02*
Y27510D01*
X13510D01*
Y25910D01*
X11910D01*
X12310Y26310D02*
Y27110D01*
X13110D01*
Y26310D01*
X12310D01*
X25910Y25910D02*
Y27510D01*
X27510D01*
Y25910D01*
X25910D01*
X26310Y26310D02*
Y27110D01*
X27110D01*
Y26310D01*
X26310D01*
X25910Y11910D02*
Y13510D01*
X27510D01*
Y11910D01*
X25910D01*
X26310Y12310D02*
Y13110D01*
X27110D01*
Y12310D01*
X26310D01*
X11910Y11910D02*
Y13510D01*
X13510D01*
Y11910D01*
X11910D01*
X12310Y12310D02*
Y13110D01*
X13110D01*
Y12310D01*
X12310D01*
X317495Y66339D02*
X317895Y66739D01*
X318295D01*
X317895Y67139D01*
X318295Y67539D01*
X317895D01*
X317495Y67939D01*
X317095Y67539D01*
X316695D01*
X317095Y67139D01*
X316695Y66739D01*
X317095D01*
X317495Y66339D01*
X304095D02*
X304495Y66739D01*
X304895D01*
X304495Y67139D01*
X304895Y67539D01*
X304495D01*
X304095Y67939D01*
X303695Y67539D01*
X303295D01*
X303695Y67139D01*
X303295Y66739D01*
X303695D01*
X304095Y66339D01*
Y13339D02*
X304495Y13739D01*
X304895D01*
X304495Y14139D01*
X304895Y14539D01*
X304495D01*
X304095Y14939D01*
X303695Y14539D01*
X303295D01*
X303695Y14139D01*
X303295Y13739D01*
X303695D01*
X304095Y13339D01*
X317495D02*
X317895Y13739D01*
X318295D01*
X317895Y14139D01*
X318295Y14539D01*
X317895D01*
X317495Y14939D01*
X317095Y14539D01*
X316695D01*
X317095Y14139D01*
X316695Y13739D01*
X317095D01*
X317495Y13339D01*
X333600Y167600D02*
X334000Y168000D01*
X334400D01*
X334000Y168400D01*
X334400Y168800D01*
X334000D01*
X333600Y169200D01*
X333200Y168800D01*
X332800D01*
X333200Y168400D01*
X332800Y168000D01*
X333200D01*
X333600Y167600D01*
X347000D02*
X347400Y168000D01*
X347800D01*
X347400Y168400D01*
X347800Y168800D01*
X347400D01*
X347000Y169200D01*
X346600Y168800D01*
X346200D01*
X346600Y168400D01*
X346200Y168000D01*
X346600D01*
X347000Y167600D01*
Y114600D02*
X347400Y115000D01*
X347800D01*
X347400Y115400D01*
X347800Y115800D01*
X347400D01*
X347000Y116200D01*
X346600Y115800D01*
X346200D01*
X346600Y115400D01*
X346200Y115000D01*
X346600D01*
X347000Y114600D01*
X333600D02*
X334000Y115000D01*
X334400D01*
X334000Y115400D01*
X334400Y115800D01*
X334000D01*
X333600Y116200D01*
X333200Y115800D01*
X332800D01*
X333200Y115400D01*
X332800Y115000D01*
X333200D01*
X333600Y114600D01*
X212500Y67702D02*
X211700Y69302D01*
X213300D01*
X212500Y67702D01*
Y68102D02*
X212100Y68902D01*
X212900D01*
X212500Y68102D01*
X216831Y67702D02*
X216031Y69302D01*
X217631D01*
X216831Y67702D01*
Y68102D02*
X216431Y68902D01*
X217231D01*
X216831Y68102D01*
X208169Y63371D02*
X207369Y64971D01*
X208969D01*
X208169Y63371D01*
Y63771D02*
X207769Y64571D01*
X208569D01*
X208169Y63771D01*
X212500Y63371D02*
X211700Y64971D01*
X213300D01*
X212500Y63371D01*
Y63771D02*
X212100Y64571D01*
X212900D01*
X212500Y63771D01*
X216831Y63371D02*
X216031Y64971D01*
X217631D01*
X216831Y63371D01*
Y63771D02*
X216431Y64571D01*
X217231D01*
X216831Y63771D01*
X208169Y59040D02*
X207369Y60640D01*
X208969D01*
X208169Y59040D01*
Y59440D02*
X207769Y60240D01*
X208569D01*
X208169Y59440D01*
X212500Y59040D02*
X211700Y60640D01*
X213300D01*
X212500Y59040D01*
Y59440D02*
X212100Y60240D01*
X212900D01*
X212500Y59440D01*
X216831Y59040D02*
X216031Y60640D01*
X217631D01*
X216831Y59040D01*
Y59440D02*
X216431Y60240D01*
X217231D01*
X216831Y59440D01*
X208169Y54710D02*
X207369Y56309D01*
X208969D01*
X208169Y54710D01*
Y55110D02*
X207769Y55910D01*
X208569D01*
X208169Y55110D01*
X212500Y54710D02*
X211700Y56309D01*
X213300D01*
X212500Y54710D01*
Y55110D02*
X212100Y55910D01*
X212900D01*
X212500Y55110D01*
X216831Y54710D02*
X216031Y56309D01*
X217631D01*
X216831Y54710D01*
Y55110D02*
X216431Y55910D01*
X217231D01*
X216831Y55110D01*
X208169Y67702D02*
X207369Y69302D01*
X208969D01*
X208169Y67702D01*
Y68102D02*
X207769Y68902D01*
X208569D01*
X208169Y68102D01*
X116100Y67702D02*
X115300Y69302D01*
X116900D01*
X116100Y67702D01*
Y68102D02*
X115700Y68902D01*
X116500D01*
X116100Y68102D01*
X120431Y67702D02*
X119631Y69302D01*
X121231D01*
X120431Y67702D01*
Y68102D02*
X120031Y68902D01*
X120831D01*
X120431Y68102D01*
X111769Y63371D02*
X110969Y64971D01*
X112569D01*
X111769Y63371D01*
Y63771D02*
X111369Y64571D01*
X112169D01*
X111769Y63771D01*
X116100Y63371D02*
X115300Y64971D01*
X116900D01*
X116100Y63371D01*
Y63771D02*
X115700Y64571D01*
X116500D01*
X116100Y63771D01*
X120431Y63371D02*
X119631Y64971D01*
X121231D01*
X120431Y63371D01*
Y63771D02*
X120031Y64571D01*
X120831D01*
X120431Y63771D01*
X111769Y59040D02*
X110969Y60640D01*
X112569D01*
X111769Y59040D01*
Y59440D02*
X111369Y60240D01*
X112169D01*
X111769Y59440D01*
X116100Y59040D02*
X115300Y60640D01*
X116900D01*
X116100Y59040D01*
Y59440D02*
X115700Y60240D01*
X116500D01*
X116100Y59440D01*
X120431Y59040D02*
X119631Y60640D01*
X121231D01*
X120431Y59040D01*
Y59440D02*
X120031Y60240D01*
X120831D01*
X120431Y59440D01*
X111769Y54710D02*
X110969Y56309D01*
X112569D01*
X111769Y54710D01*
Y55110D02*
X111369Y55910D01*
X112169D01*
X111769Y55110D01*
X116100Y54710D02*
X115300Y56309D01*
X116900D01*
X116100Y54710D01*
Y55110D02*
X115700Y55910D01*
X116500D01*
X116100Y55110D01*
X120431Y54710D02*
X119631Y56309D01*
X121231D01*
X120431Y54710D01*
Y55110D02*
X120031Y55910D01*
X120831D01*
X120431Y55110D01*
X111769Y67702D02*
X110969Y69302D01*
X112569D01*
X111769Y67702D01*
Y68102D02*
X111369Y68902D01*
X112169D01*
X111769Y68102D01*
X71100Y67702D02*
X70300Y69302D01*
X71900D01*
X71100Y67702D01*
Y68102D02*
X70700Y68902D01*
X71500D01*
X71100Y68102D01*
X75431Y67702D02*
X74631Y69302D01*
X76231D01*
X75431Y67702D01*
Y68102D02*
X75031Y68902D01*
X75831D01*
X75431Y68102D01*
X66769Y63371D02*
X65969Y64971D01*
X67569D01*
X66769Y63371D01*
Y63771D02*
X66369Y64571D01*
X67169D01*
X66769Y63771D01*
X71100Y63371D02*
X70300Y64971D01*
X71900D01*
X71100Y63371D01*
Y63771D02*
X70700Y64571D01*
X71500D01*
X71100Y63771D01*
X75431Y63371D02*
X74631Y64971D01*
X76231D01*
X75431Y63371D01*
Y63771D02*
X75031Y64571D01*
X75831D01*
X75431Y63771D01*
X66769Y59040D02*
X65969Y60640D01*
X67569D01*
X66769Y59040D01*
Y59440D02*
X66369Y60240D01*
X67169D01*
X66769Y59440D01*
X71100Y59040D02*
X70300Y60640D01*
X71900D01*
X71100Y59040D01*
Y59440D02*
X70700Y60240D01*
X71500D01*
X71100Y59440D01*
X75431Y59040D02*
X74631Y60640D01*
X76231D01*
X75431Y59040D01*
Y59440D02*
X75031Y60240D01*
X75831D01*
X75431Y59440D01*
X66769Y54710D02*
X65969Y56309D01*
X67569D01*
X66769Y54710D01*
Y55110D02*
X66369Y55910D01*
X67169D01*
X66769Y55110D01*
X71100Y54710D02*
X70300Y56309D01*
X71900D01*
X71100Y54710D01*
Y55110D02*
X70700Y55910D01*
X71500D01*
X71100Y55110D01*
X75431Y54710D02*
X74631Y56309D01*
X76231D01*
X75431Y54710D01*
Y55110D02*
X75031Y55910D01*
X75831D01*
X75431Y55110D01*
X66769Y67702D02*
X65969Y69302D01*
X67569D01*
X66769Y67702D01*
Y68102D02*
X66369Y68902D01*
X67169D01*
X66769Y68102D01*
X26362Y71302D02*
X25562Y72902D01*
X27162D01*
X26362Y71302D01*
Y71702D02*
X25962Y72502D01*
X26762D01*
X26362Y71702D01*
X30693Y71302D02*
X29893Y72902D01*
X31493D01*
X30693Y71302D01*
Y71702D02*
X30293Y72502D01*
X31093D01*
X30693Y71702D01*
X22031Y66971D02*
X21231Y68571D01*
X22831D01*
X22031Y66971D01*
Y67371D02*
X21632Y68171D01*
X22432D01*
X22031Y67371D01*
X26362Y66971D02*
X25562Y68571D01*
X27162D01*
X26362Y66971D01*
Y67371D02*
X25962Y68171D01*
X26762D01*
X26362Y67371D01*
X30693Y66971D02*
X29893Y68571D01*
X31493D01*
X30693Y66971D01*
Y67371D02*
X30293Y68171D01*
X31093D01*
X30693Y67371D01*
X22031Y62640D02*
X21231Y64240D01*
X22831D01*
X22031Y62640D01*
Y63040D02*
X21632Y63840D01*
X22432D01*
X22031Y63040D01*
X26362Y62640D02*
X25562Y64240D01*
X27162D01*
X26362Y62640D01*
Y63040D02*
X25962Y63840D01*
X26762D01*
X26362Y63040D01*
X30693Y62640D02*
X29893Y64240D01*
X31493D01*
X30693Y62640D01*
Y63040D02*
X30293Y63840D01*
X31093D01*
X30693Y63040D01*
X22031Y58310D02*
X21231Y59909D01*
X22831D01*
X22031Y58310D01*
Y58710D02*
X21632Y59509D01*
X22432D01*
X22031Y58710D01*
X26362Y58310D02*
X25562Y59909D01*
X27162D01*
X26362Y58310D01*
Y58710D02*
X25962Y59509D01*
X26762D01*
X26362Y58710D01*
X30693Y58310D02*
X29893Y59909D01*
X31493D01*
X30693Y58310D01*
Y58710D02*
X30293Y59509D01*
X31093D01*
X30693Y58710D01*
X22031Y71302D02*
X21231Y72902D01*
X22831D01*
X22031Y71302D01*
Y71702D02*
X21632Y72502D01*
X22432D01*
X22031Y71702D01*
X273681Y49968D02*
X272881Y51568D01*
X274481D01*
X273681Y49968D01*
Y50368D02*
X273281Y51168D01*
X274081D01*
X273681Y50368D01*
X269681Y49968D02*
X268881Y51568D01*
X270481D01*
X269681Y49968D01*
Y50368D02*
X269281Y51168D01*
X270081D01*
X269681Y50368D01*
X277681Y49968D02*
X276881Y51568D01*
X278481D01*
X277681Y49968D01*
Y50368D02*
X277281Y51168D01*
X278081D01*
X277681Y50368D01*
X281681Y49968D02*
X280881Y51568D01*
X282481D01*
X281681Y49968D01*
Y50368D02*
X281281Y51168D01*
X282081D01*
X281681Y50368D01*
Y45968D02*
X280881Y47568D01*
X282481D01*
X281681Y45968D01*
Y46368D02*
X281281Y47168D01*
X282081D01*
X281681Y46368D01*
Y41968D02*
X280881Y43568D01*
X282481D01*
X281681Y41968D01*
Y42368D02*
X281281Y43168D01*
X282081D01*
X281681Y42368D01*
X277681Y41968D02*
X276881Y43568D01*
X278481D01*
X277681Y41968D01*
Y42368D02*
X277281Y43168D01*
X278081D01*
X277681Y42368D01*
Y45968D02*
X276881Y47568D01*
X278481D01*
X277681Y45968D01*
Y46368D02*
X277281Y47168D01*
X278081D01*
X277681Y46368D01*
X273681Y45968D02*
X272881Y47568D01*
X274481D01*
X273681Y45968D01*
Y46368D02*
X273281Y47168D01*
X274081D01*
X273681Y46368D01*
Y41968D02*
X272881Y43568D01*
X274481D01*
X273681Y41968D01*
Y42368D02*
X273281Y43168D01*
X274081D01*
X273681Y42368D01*
X269681Y41968D02*
X268881Y43568D01*
X270481D01*
X269681Y41968D01*
Y42368D02*
X269281Y43168D01*
X270081D01*
X269681Y42368D01*
Y45968D02*
X268881Y47568D01*
X270481D01*
X269681Y45968D01*
Y46368D02*
X269281Y47168D01*
X270081D01*
X269681Y46368D01*
Y53968D02*
X268881Y55568D01*
X270481D01*
X269681Y53968D01*
Y54368D02*
X269281Y55168D01*
X270081D01*
X269681Y54368D01*
Y57968D02*
X268881Y59568D01*
X270481D01*
X269681Y57968D01*
Y58368D02*
X269281Y59168D01*
X270081D01*
X269681Y58368D01*
X273681Y57968D02*
X272881Y59568D01*
X274481D01*
X273681Y57968D01*
Y58368D02*
X273281Y59168D01*
X274081D01*
X273681Y58368D01*
Y53968D02*
X272881Y55568D01*
X274481D01*
X273681Y53968D01*
Y54368D02*
X273281Y55168D01*
X274081D01*
X273681Y54368D01*
X277681Y53968D02*
X276881Y55568D01*
X278481D01*
X277681Y53968D01*
Y54368D02*
X277281Y55168D01*
X278081D01*
X277681Y54368D01*
Y57968D02*
X276881Y59568D01*
X278481D01*
X277681Y57968D01*
Y58368D02*
X277281Y59168D01*
X278081D01*
X277681Y58368D01*
X281681Y57968D02*
X280881Y59568D01*
X282481D01*
X281681Y57968D01*
Y58368D02*
X281281Y59168D01*
X282081D01*
X281681Y58368D01*
Y53968D02*
X280881Y55568D01*
X282481D01*
X281681Y53968D01*
Y54368D02*
X281281Y55168D01*
X282081D01*
X281681Y54368D01*
X317131Y234520D02*
X316332Y236120D01*
X317932D01*
X317131Y234520D01*
Y234920D02*
X316732Y235720D01*
X317531D01*
X317131Y234920D01*
X321069Y234520D02*
X320269Y236120D01*
X321868D01*
X321069Y234520D01*
Y234920D02*
X320669Y235720D01*
X321468D01*
X321069Y234920D01*
X325006Y234520D02*
X324205Y236120D01*
X325805D01*
X325006Y234520D01*
Y234920D02*
X324605Y235720D01*
X325406D01*
X325006Y234920D01*
Y238457D02*
X324205Y240057D01*
X325805D01*
X325006Y238457D01*
Y238858D02*
X324605Y239657D01*
X325406D01*
X325006Y238858D01*
Y242394D02*
X324205Y243994D01*
X325805D01*
X325006Y242394D01*
Y242794D02*
X324605Y243595D01*
X325406D01*
X325006Y242794D01*
X321069Y242394D02*
X320269Y243994D01*
X321868D01*
X321069Y242394D01*
Y242794D02*
X320669Y243595D01*
X321468D01*
X321069Y242794D01*
X317131Y242394D02*
X316332Y243994D01*
X317932D01*
X317131Y242394D01*
Y242794D02*
X316732Y243595D01*
X317531D01*
X317131Y242794D01*
Y238457D02*
X316332Y240057D01*
X317932D01*
X317131Y238457D01*
Y238858D02*
X316732Y239657D01*
X317531D01*
X317131Y238858D01*
X321069Y238457D02*
X320269Y240057D01*
X321868D01*
X321069Y238457D01*
Y238858D02*
X320669Y239657D01*
X321468D01*
X321069Y238858D01*
X83340Y175540D02*
X82540Y177140D01*
X84140D01*
X83340Y175540D01*
Y175940D02*
X82940Y176740D01*
X83740D01*
X83340Y175940D01*
Y171800D02*
X82540Y173400D01*
X84140D01*
X83340Y171800D01*
Y172200D02*
X82940Y173000D01*
X83740D01*
X83340Y172200D01*
Y168060D02*
X82540Y169660D01*
X84140D01*
X83340Y168060D01*
Y168460D02*
X82940Y169260D01*
X83740D01*
X83340Y168460D01*
X79600Y168060D02*
X78800Y169660D01*
X80400D01*
X79600Y168060D01*
Y168460D02*
X79200Y169260D01*
X80000D01*
X79600Y168460D01*
X75860Y167961D02*
X75060Y169561D01*
X76660D01*
X75860Y167961D01*
Y168361D02*
X75460Y169161D01*
X76260D01*
X75860Y168361D01*
X75880Y171800D02*
X75080Y173400D01*
X76679D01*
X75880Y171800D01*
Y172200D02*
X75480Y173000D01*
X76279D01*
X75880Y172200D01*
X75831Y175576D02*
X75031Y177176D01*
X76631D01*
X75831Y175576D01*
Y175976D02*
X75431Y176776D01*
X76231D01*
X75831Y175976D01*
X79600Y175540D02*
X78800Y177140D01*
X80400D01*
X79600Y175540D01*
Y175940D02*
X79200Y176740D01*
X80000D01*
X79600Y175940D01*
Y171800D02*
X78800Y173400D01*
X80400D01*
X79600Y171800D01*
Y172200D02*
X79200Y173000D01*
X80000D01*
X79600Y172200D01*
X123900Y149300D02*
X123100Y150900D01*
X124700D01*
X123900Y149300D01*
Y149700D02*
X123500Y150500D01*
X124300D01*
X123900Y149700D01*
X318213Y182077D02*
X317413Y183677D01*
X319013D01*
X318213Y182077D01*
Y182477D02*
X317813Y183277D01*
X318613D01*
X318213Y182477D01*
X322213Y182077D02*
X321413Y183677D01*
X323013D01*
X322213Y182077D01*
Y182477D02*
X321813Y183277D01*
X322613D01*
X322213Y182477D01*
Y186077D02*
X321413Y187677D01*
X323013D01*
X322213Y186077D01*
Y186477D02*
X321813Y187277D01*
X322613D01*
X322213Y186477D01*
X318213Y186077D02*
X317413Y187677D01*
X319013D01*
X318213Y186077D01*
Y186477D02*
X317813Y187277D01*
X318613D01*
X318213Y186477D01*
Y190077D02*
X317413Y191677D01*
X319013D01*
X318213Y190077D01*
Y190477D02*
X317813Y191277D01*
X318613D01*
X318213Y190477D01*
X322213Y190077D02*
X321413Y191677D01*
X323013D01*
X322213Y190077D01*
Y190477D02*
X321813Y191277D01*
X322613D01*
X322213Y190477D01*
Y194077D02*
X321413Y195677D01*
X323013D01*
X322213Y194077D01*
Y194477D02*
X321813Y195277D01*
X322613D01*
X322213Y194477D01*
X318213Y194077D02*
X317413Y195677D01*
X319013D01*
X318213Y194077D01*
Y194477D02*
X317813Y195277D01*
X318613D01*
X318213Y194477D01*
X310213Y194077D02*
X309413Y195677D01*
X311013D01*
X310213Y194077D01*
Y194477D02*
X309813Y195277D01*
X310613D01*
X310213Y194477D01*
X306213Y194077D02*
X305413Y195677D01*
X307013D01*
X306213Y194077D01*
Y194477D02*
X305813Y195277D01*
X306613D01*
X306213Y194477D01*
Y190077D02*
X305413Y191677D01*
X307013D01*
X306213Y190077D01*
Y190477D02*
X305813Y191277D01*
X306613D01*
X306213Y190477D01*
X310213Y190077D02*
X309413Y191677D01*
X311013D01*
X310213Y190077D01*
Y190477D02*
X309813Y191277D01*
X310613D01*
X310213Y190477D01*
Y186077D02*
X309413Y187677D01*
X311013D01*
X310213Y186077D01*
Y186477D02*
X309813Y187277D01*
X310613D01*
X310213Y186477D01*
X306213Y186077D02*
X305413Y187677D01*
X307013D01*
X306213Y186077D01*
Y186477D02*
X305813Y187277D01*
X306613D01*
X306213Y186477D01*
Y182077D02*
X305413Y183677D01*
X307013D01*
X306213Y182077D01*
Y182477D02*
X305813Y183277D01*
X306613D01*
X306213Y182477D01*
X310213Y182077D02*
X309413Y183677D01*
X311013D01*
X310213Y182077D01*
Y182477D02*
X309813Y183277D01*
X310613D01*
X310213Y182477D01*
X314213Y182077D02*
X313413Y183677D01*
X315013D01*
X314213Y182077D01*
Y182477D02*
X313813Y183277D01*
X314613D01*
X314213Y182477D01*
Y186077D02*
X313413Y187677D01*
X315013D01*
X314213Y186077D01*
Y186477D02*
X313813Y187277D01*
X314613D01*
X314213Y186477D01*
Y194077D02*
X313413Y195677D01*
X315013D01*
X314213Y194077D01*
Y194477D02*
X313813Y195277D01*
X314613D01*
X314213Y194477D01*
Y190077D02*
X313413Y191677D01*
X315013D01*
X314213Y190077D01*
Y190477D02*
X313813Y191277D01*
X314613D01*
X314213Y190477D01*
X105800Y217800D02*
X105000Y219400D01*
X106600D01*
X105800Y217800D01*
Y218200D02*
X105400Y219000D01*
X106200D01*
X105800Y218200D01*
X114600Y226500D02*
X113800Y228100D01*
X115400D01*
X114600Y226500D01*
Y226900D02*
X114200Y227700D01*
X115000D01*
X114600Y226900D01*
X222800Y222600D02*
X222000Y224200D01*
X223600D01*
X222800Y222600D01*
Y223000D02*
X222400Y223800D01*
X223200D01*
X222800Y223000D01*
X147200Y174500D02*
X146400Y176100D01*
X148000D01*
X147200Y174500D01*
Y174900D02*
X146800Y175700D01*
X147600D01*
X147200Y174900D01*
X147100Y150800D02*
X146300Y152400D01*
X147900D01*
X147100Y150800D01*
Y151200D02*
X146700Y152000D01*
X147500D01*
X147100Y151200D01*
X155400Y143100D02*
X154600Y144700D01*
X156200D01*
X155400Y143100D01*
Y143500D02*
X155000Y144300D01*
X155800D01*
X155400Y143500D01*
X163500D02*
X162700Y145100D01*
X164300D01*
X163500Y143500D01*
Y143900D02*
X163100Y144700D01*
X163900D01*
X163500Y143900D01*
X180600Y148600D02*
X179800Y150200D01*
X181400D01*
X180600Y148600D01*
Y149000D02*
X180200Y149800D01*
X181000D01*
X180600Y149000D01*
X202400Y75200D02*
X201600Y76800D01*
X203200D01*
X202400Y75200D01*
Y75600D02*
X202000Y76400D01*
X202800D01*
X202400Y75600D01*
X118800Y25600D02*
X118000Y27200D01*
X119600D01*
X118800Y25600D01*
Y26000D02*
X118400Y26800D01*
X119200D01*
X118800Y26000D01*
X110700Y24572D02*
X109900Y26172D01*
X111500D01*
X110700Y24572D01*
Y24972D02*
X110300Y25772D01*
X111100D01*
X110700Y24972D01*
X36700Y49500D02*
X35900Y51100D01*
X37500D01*
X36700Y49500D01*
Y49900D02*
X36300Y50700D01*
X37100D01*
X36700Y49900D01*
X224400Y49600D02*
X223600Y51200D01*
X225200D01*
X224400Y49600D01*
Y50000D02*
X224000Y50800D01*
X224800D01*
X224400Y50000D01*
X223900Y46000D02*
X223100Y47600D01*
X224700D01*
X223900Y46000D01*
Y46400D02*
X223500Y47200D01*
X224300D01*
X223900Y46400D01*
X77800Y97800D02*
X77000Y99400D01*
X78600D01*
X77800Y97800D01*
Y98200D02*
X77400Y99000D01*
X78200D01*
X77800Y98200D01*
X61638Y72700D02*
X60838Y74300D01*
X62438D01*
X61638Y72700D01*
Y73100D02*
X61238Y73900D01*
X62038D01*
X61638Y73100D01*
X60838Y74900D02*
X60038Y76500D01*
X61638D01*
X60838Y74900D01*
Y75300D02*
X60438Y76100D01*
X61238D01*
X60838Y75300D01*
X38200Y53300D02*
X37400Y54900D01*
X39000D01*
X38200Y53300D01*
Y53700D02*
X37800Y54500D01*
X38600D01*
X38200Y53700D01*
X16700Y51000D02*
X15900Y52600D01*
X17500D01*
X16700Y51000D01*
Y51400D02*
X16300Y52200D01*
X17100D01*
X16700Y51400D01*
X16100Y78500D02*
X15300Y80100D01*
X16900D01*
X16100Y78500D01*
Y78900D02*
X15700Y79700D01*
X16500D01*
X16100Y78900D01*
X16700Y53300D02*
X15900Y54900D01*
X17500D01*
X16700Y53300D01*
Y53700D02*
X16300Y54500D01*
X17100D01*
X16700Y53700D01*
X78200Y86600D02*
X77400Y88200D01*
X79000D01*
X78200Y86600D01*
Y87000D02*
X77800Y87800D01*
X78600D01*
X78200Y87000D01*
X83100Y89000D02*
X82300Y90600D01*
X83900D01*
X83100Y89000D01*
Y89400D02*
X82700Y90200D01*
X83500D01*
X83100Y89400D01*
X326600Y262900D02*
Y264500D01*
X328200D01*
Y262900D01*
X326600D01*
X327000Y263300D02*
Y264100D01*
X327800D01*
Y263300D01*
X327000D01*
X319300Y254800D02*
Y256400D01*
X320900D01*
Y254800D01*
X319300D01*
X319700Y255200D02*
Y256000D01*
X320500D01*
Y255200D01*
X319700D01*
X319300Y262200D02*
Y263800D01*
X320900D01*
Y262200D01*
X319300D01*
X319700Y262600D02*
Y263400D01*
X320500D01*
Y262600D01*
X319700D01*
X319300Y258500D02*
Y260100D01*
X320900D01*
Y258500D01*
X319300D01*
X319700Y258900D02*
Y259700D01*
X320500D01*
Y258900D01*
X319700D01*
X284400Y202200D02*
X283600Y203800D01*
X285200D01*
X284400Y202200D01*
Y202600D02*
X284000Y203400D01*
X284800D01*
X284400Y202600D01*
X284500Y206100D02*
X283700Y207700D01*
X285300D01*
X284500Y206100D01*
Y206500D02*
X284100Y207300D01*
X284900D01*
X284500Y206500D01*
X291600Y155400D02*
X290800Y157000D01*
X292400D01*
X291600Y155400D01*
Y155800D02*
X291200Y156600D01*
X292000D01*
X291600Y155800D01*
X276200Y138600D02*
X275400Y140200D01*
X277000D01*
X276200Y138600D01*
Y139000D02*
X275800Y139800D01*
X276600D01*
X276200Y139000D01*
X221600Y144800D02*
X220800Y146400D01*
X222400D01*
X221600Y144800D01*
Y145200D02*
X221200Y146000D01*
X222000D01*
X221600Y145200D01*
X221000Y111000D02*
X220200Y112600D01*
X221800D01*
X221000Y111000D01*
Y111400D02*
X220600Y112200D01*
X221400D01*
X221000Y111400D01*
X204000Y114100D02*
Y115700D01*
X205600D01*
Y114100D01*
X204000D01*
X204400Y114500D02*
Y115300D01*
X205200D01*
Y114500D01*
X204400D01*
X204800Y105900D02*
X204000Y107500D01*
X205600D01*
X204800Y105900D01*
Y106300D02*
X204400Y107100D01*
X205200D01*
X204800Y106300D01*
X50300Y188700D02*
Y190300D01*
X51900D01*
Y188700D01*
X50300D01*
X50700Y189100D02*
Y189900D01*
X51500D01*
Y189100D01*
X50700D01*
X44300Y188700D02*
Y190300D01*
X45900D01*
Y188700D01*
X44300D01*
X44700Y189100D02*
Y189900D01*
X45500D01*
Y189100D01*
X44700D01*
X35000Y197300D02*
Y198900D01*
X36600D01*
Y197300D01*
X35000D01*
X35400Y197700D02*
Y198500D01*
X36200D01*
Y197700D01*
X35400D01*
X37217Y194700D02*
Y196300D01*
X38817D01*
Y194700D01*
X37217D01*
X37617Y195100D02*
Y195900D01*
X38417D01*
Y195100D01*
X37617D01*
X50700Y134700D02*
Y136300D01*
X52300D01*
Y134700D01*
X50700D01*
X51100Y135100D02*
Y135900D01*
X51900D01*
Y135100D01*
X51100D01*
X67800Y130400D02*
Y132000D01*
X69400D01*
Y130400D01*
X67800D01*
X68200Y130800D02*
Y131600D01*
X69000D01*
Y130800D01*
X68200D01*
X67800Y127200D02*
Y128800D01*
X69400D01*
Y127200D01*
X67800D01*
X68200Y127600D02*
Y128400D01*
X69000D01*
Y127600D01*
X68200D01*
X50800Y127300D02*
Y128900D01*
X52400D01*
Y127300D01*
X50800D01*
X51200Y127700D02*
Y128500D01*
X52000D01*
Y127700D01*
X51200D01*
X50800Y130500D02*
Y132100D01*
X52400D01*
Y130500D01*
X50800D01*
X51200Y130900D02*
Y131700D01*
X52000D01*
Y130900D01*
X51200D01*
X77000Y147700D02*
Y149300D01*
X78600D01*
Y147700D01*
X77000D01*
X77400Y148100D02*
Y148900D01*
X78200D01*
Y148100D01*
X77400D01*
X64200Y160700D02*
Y162300D01*
X65800D01*
Y160700D01*
X64200D01*
X64600Y161100D02*
Y161900D01*
X65400D01*
Y161100D01*
X64600D01*
X92849Y158391D02*
X92049Y159991D01*
X93650D01*
X92849Y158391D01*
Y158791D02*
X92449Y159591D01*
X93249D01*
X92849Y158791D01*
X84500Y157900D02*
X83700Y159500D01*
X85300D01*
X84500Y157900D01*
Y158300D02*
X84100Y159100D01*
X84900D01*
X84500Y158300D01*
X84700Y146700D02*
X83900Y148300D01*
X85500D01*
X84700Y146700D01*
Y147100D02*
X84300Y147900D01*
X85100D01*
X84700Y147100D01*
X85600Y133800D02*
X84800Y135400D01*
X86400D01*
X85600Y133800D01*
Y134200D02*
X85200Y135000D01*
X86000D01*
X85600Y134200D01*
X125000Y134300D02*
X124200Y135900D01*
X125800D01*
X125000Y134300D01*
Y134700D02*
X124600Y135500D01*
X125400D01*
X125000Y134700D01*
X119000Y166800D02*
Y168400D01*
X120600D01*
Y166800D01*
X119000D01*
X119400Y167200D02*
Y168000D01*
X120200D01*
Y167200D01*
X119400D01*
X115600Y135500D02*
X114800Y137100D01*
X116400D01*
X115600Y135500D01*
Y135900D02*
X115200Y136700D01*
X116000D01*
X115600Y135900D01*
X105100Y187400D02*
X104300Y189000D01*
X105900D01*
X105100Y187400D01*
Y187800D02*
X104700Y188600D01*
X105500D01*
X105100Y187800D01*
X116509Y173272D02*
X115709Y174872D01*
X117309D01*
X116509Y173272D01*
Y173672D02*
X116109Y174472D01*
X116909D01*
X116509Y173672D01*
X117400Y128500D02*
X116600Y130100D01*
X118200D01*
X117400Y128500D01*
Y128900D02*
X117000Y129700D01*
X117800D01*
X117400Y128900D01*
X125200Y131100D02*
X124400Y132700D01*
X126000D01*
X125200Y131100D01*
Y131500D02*
X124800Y132300D01*
X125600D01*
X125200Y131500D01*
X121200Y146900D02*
X120400Y148500D01*
X122000D01*
X121200Y146900D01*
Y147300D02*
X120800Y148100D01*
X121600D01*
X121200Y147300D01*
X162700Y174900D02*
X161900Y176500D01*
X163500D01*
X162700Y174900D01*
Y175300D02*
X162300Y176100D01*
X163100D01*
X162700Y175300D01*
X178400Y178400D02*
X177600Y180000D01*
X179200D01*
X178400Y178400D01*
Y178800D02*
X178000Y179600D01*
X178800D01*
X178400Y178800D01*
X182479Y143000D02*
X181679Y144600D01*
X183279D01*
X182479Y143000D01*
Y143400D02*
X182079Y144200D01*
X182879D01*
X182479Y143400D01*
X151400Y130500D02*
X150600Y132100D01*
X152200D01*
X151400Y130500D01*
Y130900D02*
X151000Y131700D01*
X151800D01*
X151400Y130900D01*
X175100Y178200D02*
X174300Y179800D01*
X175900D01*
X175100Y178200D01*
Y178600D02*
X174700Y179400D01*
X175500D01*
X175100Y178600D01*
Y175100D02*
X174300Y176700D01*
X175900D01*
X175100Y175100D01*
Y175500D02*
X174700Y176300D01*
X175500D01*
X175100Y175500D01*
X165900Y175100D02*
X165100Y176700D01*
X166700D01*
X165900Y175100D01*
Y175500D02*
X165500Y176300D01*
X166300D01*
X165900Y175500D01*
X137883Y174500D02*
X137083Y176100D01*
X138683D01*
X137883Y174500D01*
Y174900D02*
X137483Y175700D01*
X138283D01*
X137883Y174900D01*
X140983Y174500D02*
X140183Y176100D01*
X141783D01*
X140983Y174500D01*
Y174900D02*
X140583Y175700D01*
X141383D01*
X140983Y174900D01*
X144100Y174500D02*
X143300Y176100D01*
X144900D01*
X144100Y174500D01*
Y174900D02*
X143700Y175700D01*
X144500D01*
X144100Y174900D01*
X137900Y166800D02*
X137100Y168400D01*
X138700D01*
X137900Y166800D01*
Y167200D02*
X137500Y168000D01*
X138300D01*
X137900Y167200D01*
X137883Y160800D02*
X137083Y162400D01*
X138683D01*
X137883Y160800D01*
Y161200D02*
X137483Y162000D01*
X138283D01*
X137883Y161200D01*
X140983Y160800D02*
X140183Y162400D01*
X141783D01*
X140983Y160800D01*
Y161200D02*
X140583Y162000D01*
X141383D01*
X140983Y161200D01*
Y156300D02*
X140183Y157900D01*
X141783D01*
X140983Y156300D01*
Y156700D02*
X140583Y157500D01*
X141383D01*
X140983Y156700D01*
X137883Y150800D02*
X137083Y152400D01*
X138683D01*
X137883Y150800D01*
Y151200D02*
X137483Y152000D01*
X138283D01*
X137883Y151200D01*
X144083Y150800D02*
X143283Y152400D01*
X144883D01*
X144083Y150800D01*
Y151200D02*
X143683Y152000D01*
X144483D01*
X144083Y151200D01*
X146600Y144000D02*
X145800Y145600D01*
X147400D01*
X146600Y144000D01*
Y144400D02*
X146200Y145200D01*
X147000D01*
X146600Y144400D01*
X142600Y144000D02*
X141800Y145600D01*
X143400D01*
X142600Y144000D01*
Y144400D02*
X142200Y145200D01*
X143000D01*
X142600Y144400D01*
X142582Y138035D02*
X141782Y139635D01*
X143382D01*
X142582Y138035D01*
Y138435D02*
X142182Y139235D01*
X142982D01*
X142582Y138435D01*
X188679Y143000D02*
X187879Y144600D01*
X189479D01*
X188679Y143000D01*
Y143400D02*
X188279Y144200D01*
X189079D01*
X188679Y143400D01*
X185579Y131100D02*
X184779Y132700D01*
X186379D01*
X185579Y131100D01*
Y131500D02*
X185179Y132300D01*
X185979D01*
X185579Y131500D01*
X182479Y131100D02*
X181679Y132700D01*
X183279D01*
X182479Y131100D01*
Y131500D02*
X182079Y132300D01*
X182879D01*
X182479Y131500D01*
X214400Y165600D02*
X213600Y167200D01*
X215200D01*
X214400Y165600D01*
Y166000D02*
X214000Y166800D01*
X214800D01*
X214400Y166000D01*
X201900Y151100D02*
X201100Y152700D01*
X202700D01*
X201900Y151100D01*
Y151500D02*
X201500Y152300D01*
X202300D01*
X201900Y151500D01*
X208600Y142200D02*
X207800Y143800D01*
X209400D01*
X208600Y142200D01*
Y142600D02*
X208200Y143400D01*
X209000D01*
X208600Y142600D01*
X201400Y131300D02*
X200600Y132900D01*
X202200D01*
X201400Y131300D01*
Y131700D02*
X201000Y132500D01*
X201800D01*
X201400Y131700D01*
X185579Y143000D02*
X184779Y144600D01*
X186379D01*
X185579Y143000D01*
Y143400D02*
X185179Y144200D01*
X185979D01*
X185579Y143400D01*
X141000Y166800D02*
X140200Y168400D01*
X141800D01*
X141000Y166800D01*
Y167200D02*
X140600Y168000D01*
X141400D01*
X141000Y167200D01*
X144083Y156300D02*
X143283Y157900D01*
X144883D01*
X144083Y156300D01*
Y156700D02*
X143683Y157500D01*
X144483D01*
X144083Y156700D01*
X140983Y150800D02*
X140183Y152400D01*
X141783D01*
X140983Y150800D01*
Y151200D02*
X140583Y152000D01*
X141383D01*
X140983Y151200D01*
X147100Y137900D02*
X146300Y139500D01*
X147900D01*
X147100Y137900D01*
Y138300D02*
X146700Y139100D01*
X147500D01*
X147100Y138300D01*
X171200Y127400D02*
X170400Y129000D01*
X172000D01*
X171200Y127400D01*
Y127800D02*
X170800Y128600D01*
X171600D01*
X171200Y127800D01*
Y130500D02*
X170400Y132100D01*
X172000D01*
X171200Y130500D01*
Y130900D02*
X170800Y131700D01*
X171600D01*
X171200Y130900D01*
X159300Y130500D02*
X158500Y132100D01*
X160100D01*
X159300Y130500D01*
Y130900D02*
X158900Y131700D01*
X159700D01*
X159300Y130900D01*
Y127400D02*
X158500Y129000D01*
X160100D01*
X159300Y127400D01*
Y127800D02*
X158900Y128600D01*
X159700D01*
X159300Y127800D01*
X151400Y127400D02*
X150600Y129000D01*
X152200D01*
X151400Y127400D01*
Y127800D02*
X151000Y128600D01*
X151800D01*
X151400Y127800D01*
X146700Y130600D02*
X145900Y132200D01*
X147500D01*
X146700Y130600D01*
Y131000D02*
X146300Y131800D01*
X147100D01*
X146700Y131000D01*
X146800Y273800D02*
Y275400D01*
X148400D01*
Y273800D01*
X146800D01*
X147200Y274200D02*
Y275000D01*
X148000D01*
Y274200D01*
X147200D01*
X276000Y272200D02*
Y273800D01*
X277600D01*
Y272200D01*
X276000D01*
X276400Y272600D02*
Y273400D01*
X277200D01*
Y272600D01*
X276400D01*
X229800Y202600D02*
X229000Y204200D01*
X230600D01*
X229800Y202600D01*
Y203000D02*
X229400Y203800D01*
X230200D01*
X229800Y203000D01*
X222500Y207400D02*
X221700Y209000D01*
X223300D01*
X222500Y207400D01*
Y207800D02*
X222100Y208600D01*
X222900D01*
X222500Y207800D01*
X226300Y207400D02*
X225500Y209000D01*
X227100D01*
X226300Y207400D01*
Y207800D02*
X225900Y208600D01*
X226700D01*
X226300Y207800D01*
X237400Y200300D02*
X236600Y201900D01*
X238200D01*
X237400Y200300D01*
Y200700D02*
X237000Y201500D01*
X237800D01*
X237400Y200700D01*
X200300Y197100D02*
X199500Y198700D01*
X201100D01*
X200300Y197100D01*
Y197500D02*
X199900Y198300D01*
X200700D01*
X200300Y197500D01*
X147500Y113800D02*
X146700Y115400D01*
X148300D01*
X147500Y113800D01*
Y114200D02*
X147100Y115000D01*
X147900D01*
X147500Y114200D01*
X159200Y220300D02*
X158400Y221900D01*
X160000D01*
X159200Y220300D01*
Y220700D02*
X158800Y221500D01*
X159600D01*
X159200Y220700D01*
Y216500D02*
X158400Y218100D01*
X160000D01*
X159200Y216500D01*
Y216900D02*
X158800Y217700D01*
X159600D01*
X159200Y216900D01*
X156100Y211800D02*
X155300Y213400D01*
X156900D01*
X156100Y211800D01*
Y212200D02*
X155700Y213000D01*
X156500D01*
X156100Y212200D01*
X146500Y223100D02*
X145700Y224700D01*
X147300D01*
X146500Y223100D01*
Y223500D02*
X146100Y224300D01*
X146900D01*
X146500Y223500D01*
X108800Y223600D02*
X108000Y225200D01*
X109600D01*
X108800Y223600D01*
Y224000D02*
X108400Y224800D01*
X109200D01*
X108800Y224000D01*
X102100Y210400D02*
X101300Y212000D01*
X102900D01*
X102100Y210400D01*
Y210800D02*
X101700Y211600D01*
X102500D01*
X102100Y210800D01*
X172700Y104300D02*
X171900Y105900D01*
X173500D01*
X172700Y104300D01*
Y104700D02*
X172300Y105500D01*
X173100D01*
X172700Y104700D01*
X291300Y183500D02*
Y185100D01*
X292900D01*
Y183500D01*
X291300D01*
X291700Y183900D02*
Y184700D01*
X292500D01*
Y183900D01*
X291700D01*
X283600Y184600D02*
Y186200D01*
X285200D01*
Y184600D01*
X283600D01*
X284000Y185000D02*
Y185800D01*
X284800D01*
Y185000D01*
X284000D01*
X284900Y142000D02*
Y143600D01*
X286500D01*
Y142000D01*
X284900D01*
X285300Y142400D02*
Y143200D01*
X286100D01*
Y142400D01*
X285300D01*
X279100Y142000D02*
Y143600D01*
X280700D01*
Y142000D01*
X279100D01*
X279500Y142400D02*
Y143200D01*
X280300D01*
Y142400D01*
X279500D01*
X221100Y131800D02*
Y133400D01*
X222700D01*
Y131800D01*
X221100D01*
X221500Y132200D02*
Y133000D01*
X222300D01*
Y132200D01*
X221500D01*
X222200Y148700D02*
Y150300D01*
X223800D01*
Y148700D01*
X222200D01*
X222600Y149100D02*
Y149900D01*
X223400D01*
Y149100D01*
X222600D01*
X220000Y136100D02*
Y137700D01*
X221600D01*
Y136100D01*
X220000D01*
X220400Y136500D02*
Y137300D01*
X221200D01*
Y136500D01*
X220400D01*
X221100Y127200D02*
Y128800D01*
X222700D01*
Y127200D01*
X221100D01*
X221500Y127600D02*
Y128400D01*
X222300D01*
Y127600D01*
X221500D01*
X217700Y166800D02*
Y168400D01*
X219300D01*
Y166800D01*
X217700D01*
X218100Y167200D02*
Y168000D01*
X218900D01*
Y167200D01*
X218100D01*
X290200Y133200D02*
Y134800D01*
X291800D01*
Y133200D01*
X290200D01*
X290600Y133600D02*
Y134400D01*
X291400D01*
Y133600D01*
X290600D01*
X273300Y156100D02*
Y157700D01*
X274900D01*
Y156100D01*
X273300D01*
X273700Y156500D02*
Y157300D01*
X274500D01*
Y156500D01*
X273700D01*
X309700Y145300D02*
Y146900D01*
X311300D01*
Y145300D01*
X309700D01*
X310100Y145700D02*
Y146500D01*
X310900D01*
Y145700D01*
X310100D01*
X304700Y145300D02*
Y146900D01*
X306300D01*
Y145300D01*
X304700D01*
X305100Y145700D02*
Y146500D01*
X305900D01*
Y145700D01*
X305100D01*
X321900Y163900D02*
Y165500D01*
X323500D01*
Y163900D01*
X321900D01*
X322300Y164300D02*
Y165100D01*
X323100D01*
Y164300D01*
X322300D01*
X224600Y179800D02*
Y181400D01*
X226200D01*
Y179800D01*
X224600D01*
X225000Y180200D02*
Y181000D01*
X225800D01*
Y180200D01*
X225000D01*
X199400Y140800D02*
Y142400D01*
X201000D01*
Y140800D01*
X199400D01*
X199800Y141200D02*
Y142000D01*
X200600D01*
Y141200D01*
X199800D01*
X204000Y129100D02*
Y130700D01*
X205600D01*
Y129100D01*
X204000D01*
X204400Y129500D02*
Y130300D01*
X205200D01*
Y129500D01*
X204400D01*
X216400Y113200D02*
Y114800D01*
X218000D01*
Y113200D01*
X216400D01*
X216800Y113600D02*
Y114400D01*
X217600D01*
Y113600D01*
X216800D01*
X272800Y196800D02*
Y198400D01*
X274400D01*
Y196800D01*
X272800D01*
X273200Y197200D02*
Y198000D01*
X274000D01*
Y197200D01*
X273200D01*
X272300Y211000D02*
Y212600D01*
X273900D01*
Y211000D01*
X272300D01*
X272700Y211400D02*
Y212200D01*
X273500D01*
Y211400D01*
X272700D01*
X315300Y224100D02*
Y225700D01*
X316900D01*
Y224100D01*
X315300D01*
X315700Y224500D02*
Y225300D01*
X316500D01*
Y224500D01*
X315700D01*
X315300Y227400D02*
Y229000D01*
X316900D01*
Y227400D01*
X315300D01*
X315700Y227800D02*
Y228600D01*
X316500D01*
Y227800D01*
X315700D01*
X315300Y230700D02*
Y232300D01*
X316900D01*
Y230700D01*
X315300D01*
X315700Y231100D02*
Y231900D01*
X316500D01*
Y231100D01*
X315700D01*
X311500Y224600D02*
Y226200D01*
X313100D01*
Y224600D01*
X311500D01*
X311900Y225000D02*
Y225800D01*
X312700D01*
Y225000D01*
X311900D01*
X311500Y229100D02*
Y230700D01*
X313100D01*
Y229100D01*
X311500D01*
X311900Y229500D02*
Y230300D01*
X312700D01*
Y229500D01*
X311900D01*
X295600Y226900D02*
Y228500D01*
X297200D01*
Y226900D01*
X295600D01*
X296000Y227300D02*
Y228100D01*
X296800D01*
Y227300D01*
X296000D01*
X171975Y195260D02*
Y196860D01*
X173575D01*
Y195260D01*
X171975D01*
X172375Y195660D02*
Y196460D01*
X173175D01*
Y195660D01*
X172375D01*
X204200Y134800D02*
Y136400D01*
X205800D01*
Y134800D01*
X204200D01*
X204600Y135200D02*
Y136000D01*
X205400D01*
Y135200D01*
X204600D01*
X119000Y142700D02*
Y144300D01*
X120600D01*
Y142700D01*
X119000D01*
X119400Y143100D02*
Y143900D01*
X120200D01*
Y143100D01*
X119400D01*
X170800Y214700D02*
Y216300D01*
X172400D01*
Y214700D01*
X170800D01*
X171200Y215100D02*
Y215900D01*
X172000D01*
Y215100D01*
X171200D01*
X301602Y176491D02*
Y178091D01*
X303202D01*
Y176491D01*
X301602D01*
X302002Y176891D02*
Y177691D01*
X302802D01*
Y176891D01*
X302002D01*
X249400Y108900D02*
Y110500D01*
X251000D01*
Y108900D01*
X249400D01*
X249800Y109300D02*
Y110100D01*
X250600D01*
Y109300D01*
X249800D01*
X247100Y94900D02*
Y96500D01*
X248700D01*
Y94900D01*
X247100D01*
X247500Y95300D02*
Y96100D01*
X248300D01*
Y95300D01*
X247500D01*
X240300Y98000D02*
Y99600D01*
X241900D01*
Y98000D01*
X240300D01*
X240700Y98400D02*
Y99200D01*
X241500D01*
Y98400D01*
X240700D01*
X168500Y53800D02*
X167700Y55400D01*
X169300D01*
X168500Y53800D01*
Y54200D02*
X168100Y55000D01*
X168900D01*
X168500Y54200D01*
X242000Y222000D02*
Y223600D01*
X243600D01*
Y222000D01*
X242000D01*
X242400Y222400D02*
Y223200D01*
X243200D01*
Y222400D01*
X242400D01*
X230100Y270700D02*
Y272300D01*
X231700D01*
Y270700D01*
X230100D01*
X230500Y271100D02*
Y271900D01*
X231300D01*
Y271100D01*
X230500D01*
X119200Y268100D02*
Y269700D01*
X120800D01*
Y268100D01*
X119200D01*
X119600Y268500D02*
Y269300D01*
X120400D01*
Y268500D01*
X119600D01*
X400800Y204900D02*
Y206500D01*
X402400D01*
Y204900D01*
X400800D01*
X401200Y205300D02*
Y206100D01*
X402000D01*
Y205300D01*
X401200D01*
X401000Y174600D02*
Y176200D01*
X402600D01*
Y174600D01*
X401000D01*
X401400Y175000D02*
Y175800D01*
X402200D01*
Y175000D01*
X401400D01*
X316000Y51400D02*
Y53000D01*
X317600D01*
Y51400D01*
X316000D01*
X316400Y51800D02*
Y52600D01*
X317200D01*
Y51800D01*
X316400D01*
X262300Y52500D02*
Y54100D01*
X263900D01*
Y52500D01*
X262300D01*
X262700Y52900D02*
Y53700D01*
X263500D01*
Y52900D01*
X262700D01*
X256100Y65600D02*
Y67200D01*
X257700D01*
Y65600D01*
X256100D01*
X256500Y66000D02*
Y66800D01*
X257300D01*
Y66000D01*
X256500D01*
X246300Y65600D02*
Y67200D01*
X247900D01*
Y65600D01*
X246300D01*
X246700Y66000D02*
Y66800D01*
X247500D01*
Y66000D01*
X246700D01*
X355200Y91500D02*
Y93100D01*
X356800D01*
Y91500D01*
X355200D01*
X355600Y91900D02*
Y92700D01*
X356400D01*
Y91900D01*
X355600D01*
X364600Y99000D02*
Y100600D01*
X366200D01*
Y99000D01*
X364600D01*
X365000Y99400D02*
Y100200D01*
X365800D01*
Y99400D01*
X365000D01*
X374200Y90400D02*
Y92000D01*
X375800D01*
Y90400D01*
X374200D01*
X374600Y90800D02*
Y91600D01*
X375400D01*
Y90800D01*
X374600D01*
X373600Y155200D02*
Y156800D01*
X375200D01*
Y155200D01*
X373600D01*
X374000Y155600D02*
Y156400D01*
X374800D01*
Y155600D01*
X374000D01*
X364500Y146000D02*
Y147600D01*
X366100D01*
Y146000D01*
X364500D01*
X364900Y146400D02*
Y147200D01*
X365700D01*
Y146400D01*
X364900D01*
X355400Y155300D02*
Y156900D01*
X357000D01*
Y155300D01*
X355400D01*
X355800Y155700D02*
Y156500D01*
X356600D01*
Y155700D01*
X355800D01*
X364500Y230000D02*
Y231600D01*
X366100D01*
Y230000D01*
X364500D01*
X364900Y230400D02*
Y231200D01*
X365700D01*
Y230400D01*
X364900D01*
X355500Y220200D02*
Y221800D01*
X357100D01*
Y220200D01*
X355500D01*
X355900Y220600D02*
Y221400D01*
X356700D01*
Y220600D01*
X355900D01*
X364500Y210400D02*
Y212000D01*
X366100D01*
Y210400D01*
X364500D01*
X364900Y210800D02*
Y211600D01*
X365700D01*
Y210800D01*
X364900D01*
X346300Y226000D02*
Y227600D01*
X347900D01*
Y226000D01*
X346300D01*
X346700Y226400D02*
Y227200D01*
X347500D01*
Y226400D01*
X346700D01*
X351100Y210900D02*
X350300Y212500D01*
X351900D01*
X351100Y210900D01*
Y211300D02*
X350700Y212100D01*
X351500D01*
X351100Y211300D01*
X353000Y202500D02*
X352200Y204100D01*
X353800D01*
X353000Y202500D01*
Y202900D02*
X352600Y203700D01*
X353400D01*
X353000Y202900D01*
X277500Y111100D02*
X276700Y112700D01*
X278300D01*
X277500Y111100D01*
Y111500D02*
X277100Y112300D01*
X277900D01*
X277500Y111500D01*
X241000Y34900D02*
X240200Y36500D01*
X241800D01*
X241000Y34900D01*
Y35300D02*
X240600Y36100D01*
X241400D01*
X241000Y35300D01*
X223900Y36200D02*
X223100Y37800D01*
X224700D01*
X223900Y36200D01*
Y36600D02*
X223500Y37400D01*
X224300D01*
X223900Y36600D01*
X242800Y91400D02*
X242000Y93000D01*
X243600D01*
X242800Y91400D01*
Y91800D02*
X242400Y92600D01*
X243200D01*
X242800Y91800D01*
X144200Y84500D02*
X143400Y86100D01*
X145000D01*
X144200Y84500D01*
Y84900D02*
X143800Y85700D01*
X144600D01*
X144200Y84900D01*
X142800Y68800D02*
X142000Y70400D01*
X143600D01*
X142800Y68800D01*
Y69200D02*
X142400Y70000D01*
X143200D01*
X142800Y69200D01*
X235700Y44300D02*
X234900Y45900D01*
X236500D01*
X235700Y44300D01*
Y44700D02*
X235300Y45500D01*
X236100D01*
X235700Y44700D01*
X200200Y49600D02*
X199400Y51200D01*
X201000D01*
X200200Y49600D01*
Y50000D02*
X199800Y50800D01*
X200600D01*
X200200Y50000D01*
X187500Y74200D02*
X186700Y75800D01*
X188300D01*
X187500Y74200D01*
Y74600D02*
X187100Y75400D01*
X187900D01*
X187500Y74600D01*
X187400Y63000D02*
X186600Y64600D01*
X188200D01*
X187400Y63000D01*
Y63400D02*
X187000Y64200D01*
X187800D01*
X187400Y63400D01*
X190300Y111100D02*
X189500Y112700D01*
X191100D01*
X190300Y111100D01*
Y111500D02*
X189900Y112300D01*
X190700D01*
X190300Y111500D01*
X224700Y87100D02*
X223900Y88700D01*
X225500D01*
X224700Y87100D01*
Y87500D02*
X224300Y88300D01*
X225100D01*
X224700Y87500D01*
X215400Y85400D02*
X214600Y87000D01*
X216200D01*
X215400Y85400D01*
Y85800D02*
X215000Y86600D01*
X215800D01*
X215400Y85800D01*
X214600Y83100D02*
X213800Y84700D01*
X215400D01*
X214600Y83100D01*
Y83500D02*
X214200Y84300D01*
X215000D01*
X214600Y83500D01*
X204200Y77600D02*
X203400Y79200D01*
X205000D01*
X204200Y77600D01*
Y78000D02*
X203800Y78800D01*
X204600D01*
X204200Y78000D01*
X209700Y100400D02*
X208900Y102000D01*
X210500D01*
X209700Y100400D01*
Y100800D02*
X209300Y101600D01*
X210100D01*
X209700Y100800D01*
X203700Y95200D02*
X202900Y96800D01*
X204500D01*
X203700Y95200D01*
Y95600D02*
X203300Y96400D01*
X204100D01*
X203700Y95600D01*
X192500Y39300D02*
X191700Y40900D01*
X193300D01*
X192500Y39300D01*
Y39700D02*
X192100Y40500D01*
X192900D01*
X192500Y39700D01*
Y36800D02*
X191700Y38400D01*
X193300D01*
X192500Y36800D01*
Y37200D02*
X192100Y38000D01*
X192900D01*
X192500Y37200D01*
X219100Y44200D02*
X218300Y45800D01*
X219900D01*
X219100Y44200D01*
Y44600D02*
X218700Y45400D01*
X219500D01*
X219100Y44600D01*
X92900Y29700D02*
X92100Y31300D01*
X93700D01*
X92900Y29700D01*
Y30100D02*
X92500Y30900D01*
X93300D01*
X92900Y30100D01*
X162200Y103300D02*
X161400Y104900D01*
X163000D01*
X162200Y103300D01*
Y103700D02*
X161800Y104500D01*
X162600D01*
X162200Y103700D01*
X321600Y114846D02*
Y116446D01*
X323200D01*
Y114846D01*
X321600D01*
X322000Y115246D02*
Y116046D01*
X322800D01*
Y115246D01*
X322000D01*
X261700Y38700D02*
Y40300D01*
X263300D01*
Y38700D01*
X261700D01*
X262100Y39100D02*
Y39900D01*
X262900D01*
Y39100D01*
X262100D01*
X252500Y38672D02*
Y40272D01*
X254100D01*
Y38672D01*
X252500D01*
X252900Y39072D02*
Y39872D01*
X253700D01*
Y39072D01*
X252900D01*
X252500Y33400D02*
Y35000D01*
X254100D01*
Y33400D01*
X252500D01*
X252900Y33800D02*
Y34600D01*
X253700D01*
Y33800D01*
X252900D01*
X261700Y33400D02*
Y35000D01*
X263300D01*
Y33400D01*
X261700D01*
X262100Y33800D02*
Y34600D01*
X262900D01*
Y33800D01*
X262100D01*
X252500Y28200D02*
Y29800D01*
X254100D01*
Y28200D01*
X252500D01*
X252900Y28600D02*
Y29400D01*
X253700D01*
Y28600D01*
X252900D01*
X261700Y28200D02*
Y29800D01*
X263300D01*
Y28200D01*
X261700D01*
X262100Y28600D02*
Y29400D01*
X262900D01*
Y28600D01*
X262100D01*
X296500Y13400D02*
Y15000D01*
X298100D01*
Y13400D01*
X296500D01*
X296900Y13800D02*
Y14600D01*
X297700D01*
Y13800D01*
X296900D01*
X292000Y7600D02*
Y9200D01*
X293600D01*
Y7600D01*
X292000D01*
X292400Y8000D02*
Y8800D01*
X293200D01*
Y8000D01*
X292400D01*
X287200Y7600D02*
Y9200D01*
X288800D01*
Y7600D01*
X287200D01*
X287600Y8000D02*
Y8800D01*
X288400D01*
Y8000D01*
X287600D01*
X296500Y17700D02*
Y19300D01*
X298100D01*
Y17700D01*
X296500D01*
X296900Y18100D02*
Y18900D01*
X297700D01*
Y18100D01*
X296900D01*
X296500Y9200D02*
Y10800D01*
X298100D01*
Y9200D01*
X296500D01*
X296900Y9600D02*
Y10400D01*
X297700D01*
Y9600D01*
X296900D01*
X255800Y55300D02*
Y56900D01*
X257400D01*
Y55300D01*
X255800D01*
X256200Y55700D02*
Y56500D01*
X257000D01*
Y55700D01*
X256200D01*
X246600Y55300D02*
Y56900D01*
X248200D01*
Y55300D01*
X246600D01*
X247000Y55700D02*
Y56500D01*
X247800D01*
Y55700D01*
X247000D01*
X246600Y50200D02*
Y51800D01*
X248200D01*
Y50200D01*
X246600D01*
X247000Y50600D02*
Y51400D01*
X247800D01*
Y50600D01*
X247000D01*
X255800Y50200D02*
Y51800D01*
X257400D01*
Y50200D01*
X255800D01*
X256200Y50600D02*
Y51400D01*
X257000D01*
Y50600D01*
X256200D01*
X246600Y45000D02*
Y46600D01*
X248200D01*
Y45000D01*
X246600D01*
X247000Y45400D02*
Y46200D01*
X247800D01*
Y45400D01*
X247000D01*
X255800Y45000D02*
Y46600D01*
X257400D01*
Y45000D01*
X255800D01*
X256200Y45400D02*
Y46200D01*
X257000D01*
Y45400D01*
X256200D01*
X261700Y18200D02*
Y19800D01*
X263300D01*
Y18200D01*
X261700D01*
X262100Y18600D02*
Y19400D01*
X262900D01*
Y18600D01*
X262100D01*
X252500Y18200D02*
Y19800D01*
X254100D01*
Y18200D01*
X252500D01*
X252900Y18600D02*
Y19400D01*
X253700D01*
Y18600D01*
X252900D01*
X252500Y13000D02*
Y14600D01*
X254100D01*
Y13000D01*
X252500D01*
X252900Y13400D02*
Y14200D01*
X253700D01*
Y13400D01*
X252900D01*
X261700Y13100D02*
Y14700D01*
X263300D01*
Y13100D01*
X261700D01*
X262100Y13500D02*
Y14300D01*
X262900D01*
Y13500D01*
X262100D01*
X252500Y7900D02*
Y9500D01*
X254100D01*
Y7900D01*
X252500D01*
X252900Y8300D02*
Y9100D01*
X253700D01*
Y8300D01*
X252900D01*
X261700Y7900D02*
Y9500D01*
X263300D01*
Y7900D01*
X261700D01*
X262100Y8300D02*
Y9100D01*
X262900D01*
Y8300D01*
X262100D01*
X276200Y7900D02*
Y9500D01*
X277800D01*
Y7900D01*
X276200D01*
X276600Y8300D02*
Y9100D01*
X277400D01*
Y8300D01*
X276600D01*
X326100Y40900D02*
Y42500D01*
X327700D01*
Y40900D01*
X326100D01*
X326500Y41300D02*
Y42100D01*
X327300D01*
Y41300D01*
X326500D01*
X294200Y52400D02*
Y54000D01*
X295800D01*
Y52400D01*
X294200D01*
X294600Y52800D02*
Y53600D01*
X295400D01*
Y52800D01*
X294600D01*
X38400Y94800D02*
X37600Y96400D01*
X39200D01*
X38400Y94800D01*
Y95200D02*
X38000Y96000D01*
X38800D01*
X38400Y95200D01*
X16200Y100600D02*
X15400Y102200D01*
X17000D01*
X16200Y100600D01*
Y101000D02*
X15800Y101800D01*
X16600D01*
X16200Y101000D01*
X12800Y108300D02*
X12000Y109900D01*
X13600D01*
X12800Y108300D01*
Y108700D02*
X12400Y109500D01*
X13200D01*
X12800Y108700D01*
X21300Y109000D02*
X20500Y110600D01*
X22100D01*
X21300Y109000D01*
Y109400D02*
X20900Y110200D01*
X21700D01*
X21300Y109400D01*
X23900Y106800D02*
X23100Y108400D01*
X24700D01*
X23900Y106800D01*
Y107200D02*
X23500Y108000D01*
X24300D01*
X23900Y107200D01*
X60800Y83300D02*
X60000Y84900D01*
X61600D01*
X60800Y83300D01*
Y83700D02*
X60400Y84500D01*
X61200D01*
X60800Y83700D01*
X51500Y89100D02*
X50700Y90700D01*
X52300D01*
X51500Y89100D01*
Y89500D02*
X51100Y90300D01*
X51900D01*
X51500Y89500D01*
X73200Y99900D02*
X72400Y101500D01*
X74000D01*
X73200Y99900D01*
Y100300D02*
X72800Y101100D01*
X73600D01*
X73200Y100300D01*
X62100Y99100D02*
X61300Y100700D01*
X62900D01*
X62100Y99100D01*
Y99500D02*
X61700Y100300D01*
X62500D01*
X62100Y99500D01*
X75300Y97800D02*
X74500Y99400D01*
X76100D01*
X75300Y97800D01*
Y98200D02*
X74900Y99000D01*
X75700D01*
X75300Y98200D01*
X65100Y104800D02*
X64300Y106400D01*
X65900D01*
X65100Y104800D01*
Y105200D02*
X64700Y106000D01*
X65500D01*
X65100Y105200D01*
Y102200D02*
X64300Y103800D01*
X65900D01*
X65100Y102200D01*
Y102600D02*
X64700Y103400D01*
X65500D01*
X65100Y102600D01*
X87400Y94200D02*
X86600Y95800D01*
X88200D01*
X87400Y94200D01*
Y94600D02*
X87000Y95400D01*
X87800D01*
X87400Y94600D01*
X78200Y89000D02*
X77400Y90600D01*
X79000D01*
X78200Y89000D01*
Y89400D02*
X77800Y90200D01*
X78600D01*
X78200Y89400D01*
X68700Y105900D02*
X67900Y107500D01*
X69500D01*
X68700Y105900D01*
Y106300D02*
X68300Y107100D01*
X69100D01*
X68700Y106300D01*
X52000Y94925D02*
X51200Y96526D01*
X52800D01*
X52000Y94925D01*
Y95325D02*
X51600Y96126D01*
X52400D01*
X52000Y95325D01*
X55200Y94200D02*
X54400Y95800D01*
X56000D01*
X55200Y94200D01*
Y94600D02*
X54800Y95400D01*
X55600D01*
X55200Y94600D01*
X46200Y108700D02*
X45400Y110300D01*
X47000D01*
X46200Y108700D01*
Y109100D02*
X45800Y109900D01*
X46600D01*
X46200Y109100D01*
X40700Y110300D02*
X39900Y111900D01*
X41500D01*
X40700Y110300D01*
Y110700D02*
X40300Y111500D01*
X41100D01*
X40700Y110700D01*
X127700Y118400D02*
X126900Y120000D01*
X128500D01*
X127700Y118400D01*
Y118800D02*
X127300Y119600D01*
X128100D01*
X127700Y118800D01*
X38400Y91900D02*
X37600Y93500D01*
X39200D01*
X38400Y91900D01*
Y92300D02*
X38000Y93100D01*
X38800D01*
X38400Y92300D01*
Y89400D02*
X37600Y91000D01*
X39200D01*
X38400Y89400D01*
Y89800D02*
X38000Y90600D01*
X38800D01*
X38400Y89800D01*
X33700Y92300D02*
X32900Y93900D01*
X34500D01*
X33700Y92300D01*
Y92700D02*
X33300Y93500D01*
X34100D01*
X33700Y92700D01*
X58400D02*
X57600Y94300D01*
X59200D01*
X58400Y92700D01*
Y93100D02*
X58000Y93900D01*
X58800D01*
X58400Y93100D01*
X63300Y76600D02*
X62500Y78200D01*
X64100D01*
X63300Y76600D01*
Y77000D02*
X62900Y77800D01*
X63700D01*
X63300Y77000D01*
X95600Y97600D02*
X94800Y99200D01*
X96400D01*
X95600Y97600D01*
Y98000D02*
X95200Y98800D01*
X96000D01*
X95600Y98000D01*
X103200Y97500D02*
X102400Y99100D01*
X104000D01*
X103200Y97500D01*
Y97900D02*
X102800Y98700D01*
X103600D01*
X103200Y97900D01*
X99400Y97600D02*
X98600Y99200D01*
X100200D01*
X99400Y97600D01*
Y98000D02*
X99000Y98800D01*
X99800D01*
X99400Y98000D01*
X192900Y98200D02*
X192100Y99800D01*
X193700D01*
X192900Y98200D01*
Y98600D02*
X192500Y99400D01*
X193300D01*
X192900Y98600D01*
X112131Y120269D02*
Y121869D01*
X113731D01*
Y120269D01*
X112131D01*
X112531Y120669D02*
Y121469D01*
X113331D01*
Y120669D01*
X112531D01*
X94500Y48900D02*
X93700Y50500D01*
X95300D01*
X94500Y48900D01*
Y49300D02*
X94100Y50100D01*
X94900D01*
X94500Y49300D01*
X94000Y53600D02*
X93200Y55200D01*
X94800D01*
X94000Y53600D01*
Y54000D02*
X93600Y54800D01*
X94400D01*
X94000Y54000D01*
X121300Y101500D02*
X120500Y103100D01*
X122100D01*
X121300Y101500D01*
Y101900D02*
X120900Y102700D01*
X121700D01*
X121300Y101900D01*
X126100Y89400D02*
X125300Y91000D01*
X126900D01*
X126100Y89400D01*
Y89800D02*
X125700Y90600D01*
X126500D01*
X126100Y89800D01*
X132700Y113300D02*
X131900Y114900D01*
X133500D01*
X132700Y113300D01*
Y113700D02*
X132300Y114500D01*
X133100D01*
X132700Y113700D01*
X136200Y87400D02*
X135400Y89000D01*
X137000D01*
X136200Y87400D01*
Y87800D02*
X135800Y88600D01*
X136600D01*
X136200Y87800D01*
X131300Y85700D02*
X130500Y87300D01*
X132100D01*
X131300Y85700D01*
Y86100D02*
X130900Y86900D01*
X131700D01*
X131300Y86100D01*
X139500Y81600D02*
X138700Y83200D01*
X140300D01*
X139500Y81600D01*
Y82000D02*
X139100Y82800D01*
X139900D01*
X139500Y82000D01*
X224700Y89600D02*
X223900Y91200D01*
X225500D01*
X224700Y89600D01*
Y90000D02*
X224300Y90800D01*
X225100D01*
X224700Y90000D01*
X219500Y87200D02*
X218700Y88800D01*
X220300D01*
X219500Y87200D01*
Y87600D02*
X219100Y88400D01*
X219900D01*
X219500Y87600D01*
X209800Y105900D02*
X209000Y107500D01*
X210600D01*
X209800Y105900D01*
Y106300D02*
X209400Y107100D01*
X210200D01*
X209800Y106300D01*
X108000Y77600D02*
X107200Y79200D01*
X108800D01*
X108000Y77600D01*
Y78000D02*
X107600Y78800D01*
X108400D01*
X108000Y78000D01*
X117700Y85200D02*
X116900Y86800D01*
X118500D01*
X117700Y85200D01*
Y85600D02*
X117300Y86400D01*
X118100D01*
X117700Y85600D01*
X119000Y83200D02*
X118200Y84800D01*
X119800D01*
X119000Y83200D01*
Y83600D02*
X118600Y84400D01*
X119400D01*
X119000Y83600D01*
X35600Y53300D02*
X34800Y54900D01*
X36400D01*
X35600Y53300D01*
Y53700D02*
X35200Y54500D01*
X36000D01*
X35600Y53700D01*
X16900Y76300D02*
X16100Y77900D01*
X17700D01*
X16900Y76300D01*
Y76700D02*
X16500Y77500D01*
X17300D01*
X16900Y76700D01*
X17200Y83500D02*
X16400Y85100D01*
X18000D01*
X17200Y83500D01*
Y83900D02*
X16800Y84700D01*
X17600D01*
X17200Y83900D01*
X16056Y180229D02*
Y181829D01*
X17656D01*
Y180229D01*
X16056D01*
X16456Y180629D02*
Y181429D01*
X17256D01*
Y180629D01*
X16456D01*
X8576Y119501D02*
Y121101D01*
X10176D01*
Y119501D01*
X8576D01*
X8976Y119901D02*
Y120701D01*
X9776D01*
Y119901D01*
X8976D01*
X45485Y206804D02*
Y208404D01*
X47085D01*
Y206804D01*
X45485D01*
X45885Y207204D02*
Y208004D01*
X46685D01*
Y207204D01*
X45885D01*
X60400Y160700D02*
Y162300D01*
X62000D01*
Y160700D01*
X60400D01*
X60800Y161100D02*
Y161900D01*
X61600D01*
Y161100D01*
X60800D01*
X299700Y194100D02*
Y195700D01*
X301300D01*
Y194100D01*
X299700D01*
X300100Y194500D02*
Y195300D01*
X300900D01*
Y194500D01*
X300100D01*
X229639Y248832D02*
Y250431D01*
X231239D01*
Y248832D01*
X229639D01*
X230039Y249232D02*
Y250031D01*
X230839D01*
Y249232D01*
X230039D01*
X221500Y25600D02*
X220700Y27200D01*
X222300D01*
X221500Y25600D01*
Y26000D02*
X221100Y26800D01*
X221900D01*
X221500Y26000D01*
X201100Y25500D02*
X200300Y27100D01*
X201900D01*
X201100Y25500D01*
Y25900D02*
X200700Y26700D01*
X201500D01*
X201100Y25900D01*
X100700Y25500D02*
X99900Y27100D01*
X101500D01*
X100700Y25500D01*
Y25900D02*
X100300Y26700D01*
X101100D01*
X100700Y25900D01*
X193900Y22400D02*
X193100Y24000D01*
X194700D01*
X193900Y22400D01*
Y22800D02*
X193500Y23600D01*
X194300D01*
X193900Y22800D01*
X197300Y25600D02*
X196500Y27200D01*
X198100D01*
X197300Y25600D01*
Y26000D02*
X196900Y26800D01*
X197700D01*
X197300Y26000D01*
X48000Y172300D02*
Y173900D01*
X49600D01*
Y172300D01*
X48000D01*
X48400Y172700D02*
Y173500D01*
X49200D01*
Y172700D01*
X48400D01*
X50800Y165100D02*
Y166700D01*
X52400D01*
Y165100D01*
X50800D01*
X51200Y165500D02*
Y166300D01*
X52000D01*
Y165500D01*
X51200D01*
X81016Y142139D02*
Y143739D01*
X82617D01*
Y142139D01*
X81016D01*
X81416Y142539D02*
Y143339D01*
X82217D01*
Y142539D01*
X81416D01*
X81115Y138202D02*
Y139802D01*
X82715D01*
Y138202D01*
X81115D01*
X81515Y138602D02*
Y139402D01*
X82315D01*
Y138602D01*
X81515D01*
X75200Y155200D02*
Y156800D01*
X76800D01*
Y155200D01*
X75200D01*
X75600Y155600D02*
Y156400D01*
X76400D01*
Y155600D01*
X75600D01*
X314800Y145300D02*
Y146900D01*
X316400D01*
Y145300D01*
X314800D01*
X315200Y145700D02*
Y146500D01*
X316000D01*
Y145700D01*
X315200D01*
X208900Y171900D02*
Y173500D01*
X210500D01*
Y171900D01*
X208900D01*
X209300Y172300D02*
Y173100D01*
X210100D01*
Y172300D01*
X209300D01*
X210249Y167729D02*
Y169329D01*
X211849D01*
Y167729D01*
X210249D01*
X210649Y168129D02*
Y168929D01*
X211449D01*
Y168129D01*
X210649D01*
X165800Y115100D02*
Y116700D01*
X167400D01*
Y115100D01*
X165800D01*
X166200Y115500D02*
Y116300D01*
X167000D01*
Y115500D01*
X166200D01*
X123700Y162400D02*
Y164000D01*
X125300D01*
Y162400D01*
X123700D01*
X124100Y162800D02*
Y163600D01*
X124900D01*
Y162800D01*
X124100D01*
X108199Y148714D02*
Y150314D01*
X109799D01*
Y148714D01*
X108199D01*
X108599Y149114D02*
Y149914D01*
X109399D01*
Y149114D01*
X108599D01*
X54900Y145200D02*
Y146800D01*
X56500D01*
Y145200D01*
X54900D01*
X55300Y145600D02*
Y146400D01*
X56100D01*
Y145600D01*
X55300D01*
X169598Y89033D02*
X168798Y90633D01*
X170398D01*
X169598Y89033D01*
Y89433D02*
X169198Y90233D01*
X169998D01*
X169598Y89433D01*
X181310Y78797D02*
X180510Y80397D01*
X182110D01*
X181310Y78797D01*
Y79197D02*
X180910Y79997D01*
X181710D01*
X181310Y79197D01*
X169598Y78108D02*
X168798Y79708D01*
X170398D01*
X169598Y78108D01*
Y78508D02*
X169198Y79308D01*
X169998D01*
X169598Y78508D01*
X208700Y177000D02*
Y178600D01*
X210300D01*
Y177000D01*
X208700D01*
X209100Y177400D02*
Y178200D01*
X209900D01*
Y177400D01*
X209100D01*
X92040Y172847D02*
Y174447D01*
X93640D01*
Y172847D01*
X92040D01*
X92440Y173247D02*
Y174047D01*
X93240D01*
Y173247D01*
X92440D01*
X60500Y179100D02*
Y180700D01*
X62100D01*
Y179100D01*
X60500D01*
X60900Y179500D02*
Y180300D01*
X61700D01*
Y179500D01*
X60900D01*
X49619Y206705D02*
Y208306D01*
X51219D01*
Y206705D01*
X49619D01*
X50019Y207105D02*
Y207906D01*
X50819D01*
Y207105D01*
X50019D01*
X81213Y121076D02*
Y122676D01*
X82813D01*
Y121076D01*
X81213D01*
X81613Y121476D02*
Y122276D01*
X82413D01*
Y121476D01*
X81613D01*
X81213Y124914D02*
Y126514D01*
X82813D01*
Y124914D01*
X81213D01*
X81613Y125314D02*
Y126114D01*
X82413D01*
Y125314D01*
X81613D01*
X162117Y78797D02*
X161317Y80397D01*
X162917D01*
X162117Y78797D01*
Y79197D02*
X161717Y79997D01*
X162517D01*
X162117Y79197D01*
X95570Y185516D02*
Y187116D01*
X97170D01*
Y185516D01*
X95570D01*
X95970Y185916D02*
Y186716D01*
X96770D01*
Y185916D01*
X95970D01*
X180129Y71316D02*
X179329Y72917D01*
X180929D01*
X180129Y71316D01*
Y71716D02*
X179729Y72517D01*
X180529D01*
X180129Y71716D01*
X162200Y89000D02*
X161400Y90600D01*
X163000D01*
X162200Y89000D01*
Y89400D02*
X161800Y90200D01*
X162600D01*
X162200Y89400D01*
X84560Y195288D02*
Y196888D01*
X86160D01*
Y195288D01*
X84560D01*
X84960Y195688D02*
Y196488D01*
X85760D01*
Y195688D01*
X84960D01*
X124100Y171800D02*
Y173400D01*
X125700D01*
Y171800D01*
X124100D01*
X124500Y172200D02*
Y173000D01*
X125300D01*
Y172200D01*
X124500D01*
X55500Y152700D02*
Y154300D01*
X57100D01*
Y152700D01*
X55500D01*
X55900Y153100D02*
Y153900D01*
X56700D01*
Y153100D01*
X55900D01*
X60300Y134800D02*
Y136400D01*
X61900D01*
Y134800D01*
X60300D01*
X60700Y135200D02*
Y136000D01*
X61500D01*
Y135200D01*
X60700D01*
X81902Y192532D02*
Y194132D01*
X83502D01*
Y192532D01*
X81902D01*
X82302Y192932D02*
Y193732D01*
X83102D01*
Y192932D01*
X82302D01*
X346300Y257900D02*
Y259500D01*
X347900D01*
Y257900D01*
X346300D01*
X346700Y258300D02*
Y259100D01*
X347500D01*
Y258300D01*
X346700D01*
X327900Y259400D02*
Y261000D01*
X329500D01*
Y259400D01*
X327900D01*
X328300Y259800D02*
Y260600D01*
X329100D01*
Y259800D01*
X328300D01*
X331900Y259400D02*
Y261000D01*
X333500D01*
Y259400D01*
X331900D01*
X332300Y259800D02*
Y260600D01*
X333100D01*
Y259800D01*
X332300D01*
X346300Y241950D02*
Y243550D01*
X347900D01*
Y241950D01*
X346300D01*
X346700Y242350D02*
Y243150D01*
X347500D01*
Y242350D01*
X346700D01*
X342600Y270100D02*
Y271700D01*
X344200D01*
Y270100D01*
X342600D01*
X343000Y270500D02*
Y271300D01*
X343800D01*
Y270500D01*
X343000D01*
X323750Y270100D02*
Y271700D01*
X325350D01*
Y270100D01*
X323750D01*
X324150Y270500D02*
Y271300D01*
X324950D01*
Y270500D01*
X324150D01*
X304900Y270100D02*
Y271700D01*
X306500D01*
Y270100D01*
X304900D01*
X305300Y270500D02*
Y271300D01*
X306100D01*
Y270500D01*
X305300D01*
X286050Y270100D02*
Y271700D01*
X287650D01*
Y270100D01*
X286050D01*
X286450Y270500D02*
Y271300D01*
X287250D01*
Y270500D01*
X286450D01*
X294200Y42400D02*
Y44000D01*
X295800D01*
Y42400D01*
X294200D01*
X294600Y42800D02*
Y43600D01*
X295400D01*
Y42800D01*
X294600D01*
X294200Y47400D02*
Y49000D01*
X295800D01*
Y47400D01*
X294200D01*
X294600Y47800D02*
Y48600D01*
X295400D01*
Y47800D01*
X294600D01*
X313413Y168616D02*
Y170217D01*
X315013D01*
Y168616D01*
X313413D01*
X313813Y169017D02*
Y169817D01*
X314613D01*
Y169017D01*
X313813D01*
X315776Y166254D02*
Y167854D01*
X317376D01*
Y166254D01*
X315776D01*
X316176Y166654D02*
Y167454D01*
X316976D01*
Y166654D01*
X316176D01*
X318138Y168616D02*
Y170217D01*
X319738D01*
Y168616D01*
X318138D01*
X318538Y169017D02*
Y169817D01*
X319338D01*
Y169017D01*
X318538D01*
X311051Y166254D02*
Y167854D01*
X312651D01*
Y166254D01*
X311051D01*
X311451Y166654D02*
Y167454D01*
X312251D01*
Y166654D01*
X311451D01*
X305933Y166254D02*
Y167854D01*
X307533D01*
Y166254D01*
X305933D01*
X306333Y166654D02*
Y167454D01*
X307133D01*
Y166654D01*
X306333D01*
X301602Y172554D02*
Y174153D01*
X303202D01*
Y172554D01*
X301602D01*
X302002Y172953D02*
Y173753D01*
X302802D01*
Y172953D01*
X302002D01*
X301602Y168616D02*
Y170217D01*
X303202D01*
Y168616D01*
X301602D01*
X302002Y169017D02*
Y169817D01*
X302802D01*
Y169017D01*
X302002D01*
X308295Y168616D02*
Y170217D01*
X309895D01*
Y168616D01*
X308295D01*
X308695Y169017D02*
Y169817D01*
X309495D01*
Y169017D01*
X308695D01*
X272339Y31473D02*
Y33073D01*
X273939D01*
Y31473D01*
X272339D01*
X272739Y31873D02*
Y32673D01*
X273539D01*
Y31873D01*
X272739D01*
X275882Y31473D02*
Y33073D01*
X277482D01*
Y31473D01*
X275882D01*
X276282Y31873D02*
Y32673D01*
X277082D01*
Y31873D01*
X276282D01*
X279425Y31473D02*
Y33073D01*
X281025D01*
Y31473D01*
X279425D01*
X279825Y31873D02*
Y32673D01*
X280625D01*
Y31873D01*
X279825D01*
X279425Y27274D02*
Y28874D01*
X281025D01*
Y27274D01*
X279425D01*
X279825Y27674D02*
Y28474D01*
X280625D01*
Y27674D01*
X279825D01*
X73800Y238300D02*
Y239900D01*
X75400D01*
Y238300D01*
X73800D01*
X74200Y238700D02*
Y239500D01*
X75000D01*
Y238700D01*
X74200D01*
X44600Y194500D02*
Y196100D01*
X46200D01*
Y194500D01*
X44600D01*
X45000Y194900D02*
Y195700D01*
X45800D01*
Y194900D01*
X45000D01*
X75500Y188400D02*
Y190000D01*
X77100D01*
Y188400D01*
X75500D01*
X75900Y188800D02*
Y189600D01*
X76700D01*
Y188800D01*
X75900D01*
X116300Y25600D02*
X115500Y27200D01*
X117100D01*
X116300Y25600D01*
Y26000D02*
X115900Y26800D01*
X116700D01*
X116300Y26000D01*
X205400Y23900D02*
X204600Y25500D01*
X206200D01*
X205400Y23900D01*
Y24300D02*
X205000Y25100D01*
X205800D01*
X205400Y24300D01*
X215700Y25600D02*
X214900Y27200D01*
X216500D01*
X215700Y25600D01*
Y26000D02*
X215300Y26800D01*
X216100D01*
X215700Y26000D01*
X323350Y214600D02*
Y216200D01*
X324950D01*
Y214600D01*
X323350D01*
X323750Y215000D02*
Y215800D01*
X324550D01*
Y215000D01*
X323750D01*
X342200Y214600D02*
Y216200D01*
X343800D01*
Y214600D01*
X342200D01*
X342600Y215000D02*
Y215800D01*
X343400D01*
Y215000D01*
X342600D01*
X339658Y256961D02*
Y258561D01*
X341258D01*
Y256961D01*
X339658D01*
X340058Y257361D02*
Y258161D01*
X340858D01*
Y257361D01*
X340058D01*
X327500Y245600D02*
Y247200D01*
X329100D01*
Y245600D01*
X327500D01*
X327900Y246000D02*
Y246800D01*
X328700D01*
Y246000D01*
X327900D01*
X309000Y247300D02*
Y248900D01*
X310600D01*
Y247300D01*
X309000D01*
X309400Y247700D02*
Y248500D01*
X310200D01*
Y247700D01*
X309400D01*
X333700Y221200D02*
Y222800D01*
X335300D01*
Y221200D01*
X333700D01*
X334100Y221600D02*
Y222400D01*
X334900D01*
Y221600D01*
X334100D01*
X308400Y214600D02*
Y216200D01*
X310000D01*
Y214600D01*
X308400D01*
X308800Y215000D02*
Y215800D01*
X309600D01*
Y215000D01*
X308800D01*
X285928Y173870D02*
Y175470D01*
X287528D01*
Y173870D01*
X285928D01*
X286328Y174270D02*
Y175070D01*
X287128D01*
Y174270D01*
X286328D01*
X79013Y155174D02*
Y156774D01*
X80613D01*
Y155174D01*
X79013D01*
X79413Y155574D02*
Y156374D01*
X80213D01*
Y155574D01*
X79413D01*
X29000Y86400D02*
X28200Y88000D01*
X29800D01*
X29000Y86400D01*
Y86800D02*
X28600Y87600D01*
X29400D01*
X29000Y86800D01*
X26800Y86400D02*
X26000Y88000D01*
X27600D01*
X26800Y86400D01*
Y86800D02*
X26400Y87600D01*
X27200D01*
X26800Y86800D01*
X17200Y81300D02*
X16400Y82900D01*
X18000D01*
X17200Y81300D01*
Y81700D02*
X16800Y82500D01*
X17600D01*
X17200Y81700D01*
X222300Y243900D02*
Y245500D01*
X223900D01*
Y243900D01*
X222300D01*
X222700Y244300D02*
Y245100D01*
X223500D01*
Y244300D01*
X222700D01*
X219000Y241400D02*
Y243000D01*
X220600D01*
Y241400D01*
X219000D01*
X219400Y241800D02*
Y242600D01*
X220200D01*
Y241800D01*
X219400D01*
X7600Y44500D02*
X6800Y46100D01*
X8400D01*
X7600Y44500D01*
Y44900D02*
X7200Y45700D01*
X8000D01*
X7600Y44900D01*
X9800Y44500D02*
X9000Y46100D01*
X10600D01*
X9800Y44500D01*
Y44900D02*
X9400Y45700D01*
X10200D01*
X9800Y44900D01*
X61500Y49600D02*
X60700Y51200D01*
X62300D01*
X61500Y49600D01*
Y50000D02*
X61100Y50800D01*
X61900D01*
X61500Y50000D01*
X79100Y46000D02*
X78300Y47600D01*
X79900D01*
X79100Y46000D01*
Y46400D02*
X78700Y47200D01*
X79500D01*
X79100Y46400D01*
X57100Y26300D02*
X56300Y27900D01*
X57900D01*
X57100Y26300D01*
Y26700D02*
X56700Y27500D01*
X57500D01*
X57100Y26700D01*
X6300Y60900D02*
X5500Y62500D01*
X7100D01*
X6300Y60900D01*
Y61300D02*
X5900Y62100D01*
X6700D01*
X6300Y61300D01*
X39109Y65409D02*
X38309Y67009D01*
X39909D01*
X39109Y65409D01*
Y65809D02*
X38709Y66609D01*
X39509D01*
X39109Y65809D01*
X32900Y90000D02*
X32100Y91600D01*
X33700D01*
X32900Y90000D01*
Y90400D02*
X32500Y91200D01*
X33300D01*
X32900Y90400D01*
X83100Y86600D02*
X82300Y88200D01*
X83900D01*
X83100Y86600D01*
Y87000D02*
X82700Y87800D01*
X83500D01*
X83100Y87000D01*
X39200Y50400D02*
X38400Y52000D01*
X40000D01*
X39200Y50400D01*
Y50800D02*
X38800Y51600D01*
X39600D01*
X39200Y50800D01*
X106400Y49800D02*
X105600Y51400D01*
X107200D01*
X106400Y49800D01*
Y50200D02*
X106000Y51000D01*
X106800D01*
X106400Y50200D01*
X98400Y51700D02*
X97600Y53300D01*
X99200D01*
X98400Y51700D01*
Y52100D02*
X98000Y52900D01*
X98800D01*
X98400Y52100D01*
X84100Y61900D02*
X83300Y63500D01*
X84900D01*
X84100Y61900D01*
Y62300D02*
X83700Y63100D01*
X84500D01*
X84100Y62300D01*
X72700Y85200D02*
X71900Y86800D01*
X73500D01*
X72700Y85200D01*
Y85600D02*
X72300Y86400D01*
X73100D01*
X72700Y85600D01*
X85900Y68450D02*
X85100Y70050D01*
X86700D01*
X85900Y68450D01*
Y68850D02*
X85500Y69650D01*
X86300D01*
X85900Y68850D01*
X41300Y72100D02*
X40500Y73700D01*
X42100D01*
X41300Y72100D01*
Y72500D02*
X40900Y73300D01*
X41700D01*
X41300Y72500D01*
X53100Y50400D02*
X52300Y52000D01*
X53900D01*
X53100Y50400D01*
Y50800D02*
X52700Y51600D01*
X53500D01*
X53100Y50800D01*
Y53300D02*
X52300Y54900D01*
X53900D01*
X53100Y53300D01*
Y53700D02*
X52700Y54500D01*
X53500D01*
X53100Y53700D01*
Y56200D02*
X52300Y57800D01*
X53900D01*
X53100Y56200D01*
Y56600D02*
X52700Y57400D01*
X53500D01*
X53100Y56600D01*
X178300Y112700D02*
X177500Y114300D01*
X179100D01*
X178300Y112700D01*
Y113100D02*
X177900Y113900D01*
X178700D01*
X178300Y113100D01*
X130900Y68450D02*
X130100Y70050D01*
X131700D01*
X130900Y68450D01*
Y68850D02*
X130500Y69650D01*
X131300D01*
X130900Y68850D01*
X225400Y61809D02*
X224600Y63409D01*
X226200D01*
X225400Y61809D01*
Y62209D02*
X225000Y63009D01*
X225800D01*
X225400Y62209D01*
X227300Y68450D02*
X226500Y70050D01*
X228100D01*
X227300Y68450D01*
Y68850D02*
X226900Y69650D01*
X227700D01*
X227300Y68850D01*
X202847Y72853D02*
X202047Y74453D01*
X203647D01*
X202847Y72853D01*
Y73253D02*
X202447Y74053D01*
X203247D01*
X202847Y73253D01*
X202800Y49600D02*
X202000Y51200D01*
X203600D01*
X202800Y49600D01*
Y50000D02*
X202400Y50800D01*
X203200D01*
X202800Y50000D01*
X182800Y107800D02*
X182000Y109400D01*
X183600D01*
X182800Y107800D01*
Y108200D02*
X182400Y109000D01*
X183200D01*
X182800Y108200D01*
X179500Y104600D02*
X178700Y106200D01*
X180300D01*
X179500Y104600D01*
Y105000D02*
X179100Y105800D01*
X179900D01*
X179500Y105000D01*
X175900Y104300D02*
X175100Y105900D01*
X176700D01*
X175900Y104300D01*
Y104700D02*
X175500Y105500D01*
X176300D01*
X175900Y104700D01*
X156400Y115100D02*
Y116700D01*
X158000D01*
Y115100D01*
X156400D01*
X156800Y115500D02*
Y116300D01*
X157600D01*
Y115500D01*
X156800D01*
X8700Y111000D02*
X7900Y112600D01*
X9500D01*
X8700Y111000D01*
Y111400D02*
X8300Y112200D01*
X9100D01*
X8700Y111400D01*
X128300Y43500D02*
X127500Y45100D01*
X129100D01*
X128300Y43500D01*
Y43900D02*
X127900Y44700D01*
X128700D01*
X128300Y43900D01*
X204200Y80200D02*
X203400Y81800D01*
X205000D01*
X204200Y80200D01*
Y80600D02*
X203800Y81400D01*
X204600D01*
X204200Y80600D01*
X221738Y49600D02*
X220938Y51200D01*
X222538D01*
X221738Y49600D01*
Y50000D02*
X221338Y50800D01*
X222138D01*
X221738Y50000D01*
X222500Y43500D02*
X221700Y45100D01*
X223300D01*
X222500Y43500D01*
Y43900D02*
X222100Y44700D01*
X222900D01*
X222500Y43900D01*
X180200Y66600D02*
X179400Y68200D01*
X181000D01*
X180200Y66600D01*
Y67000D02*
X179800Y67800D01*
X180600D01*
X180200Y67000D01*
X237700Y82400D02*
X236900Y84000D01*
X238500D01*
X237700Y82400D01*
Y82800D02*
X237300Y83600D01*
X238100D01*
X237700Y82800D01*
X230500Y86800D02*
X229700Y88400D01*
X231300D01*
X230500Y86800D01*
Y87200D02*
X230100Y88000D01*
X230900D01*
X230500Y87200D01*
X162019Y83915D02*
X161219Y85515D01*
X162819D01*
X162019Y83915D01*
Y84315D02*
X161619Y85115D01*
X162419D01*
X162019Y84315D01*
X179342Y83915D02*
X178542Y85515D01*
X180142D01*
X179342Y83915D01*
Y84315D02*
X178942Y85115D01*
X179742D01*
X179342Y84315D01*
X181225Y88747D02*
X180425Y90347D01*
X182025D01*
X181225Y88747D01*
Y89147D02*
X180825Y89947D01*
X181625D01*
X181225Y89147D01*
X201100Y103200D02*
X200300Y104800D01*
X201900D01*
X201100Y103200D01*
Y103600D02*
X200700Y104400D01*
X201500D01*
X201100Y103600D01*
X196500Y103000D02*
X195700Y104600D01*
X197300D01*
X196500Y103000D01*
Y103400D02*
X196100Y104200D01*
X196900D01*
X196500Y103400D01*
X189800Y103000D02*
X189000Y104600D01*
X190600D01*
X189800Y103000D01*
Y103400D02*
X189400Y104200D01*
X190200D01*
X189800Y103400D01*
X199700Y98300D02*
X198900Y99900D01*
X200500D01*
X199700Y98300D01*
Y98700D02*
X199300Y99500D01*
X200100D01*
X199700Y98700D01*
X166300Y104300D02*
X165500Y105900D01*
X167100D01*
X166300Y104300D01*
Y104700D02*
X165900Y105500D01*
X166700D01*
X166300Y104700D01*
X43300Y89400D02*
X42500Y91000D01*
X44100D01*
X43300Y89400D01*
Y89800D02*
X42900Y90600D01*
X43700D01*
X43300Y89800D01*
X150600Y68300D02*
X149800Y69900D01*
X151400D01*
X150600Y68300D01*
Y68700D02*
X150200Y69500D01*
X151000D01*
X150600Y68700D01*
X88100Y86000D02*
X87300Y87600D01*
X88900D01*
X88100Y86000D01*
Y86400D02*
X87700Y87200D01*
X88500D01*
X88100Y86400D01*
X108000Y80200D02*
X107200Y81800D01*
X108800D01*
X108000Y80200D01*
Y80600D02*
X107600Y81400D01*
X108400D01*
X108000Y80600D01*
X103000Y79300D02*
X102200Y80900D01*
X103800D01*
X103000Y79300D01*
Y79700D02*
X102600Y80500D01*
X103400D01*
X103000Y79700D01*
X94600Y86100D02*
X93800Y87700D01*
X95400D01*
X94600Y86100D01*
Y86500D02*
X94200Y87300D01*
X95000D01*
X94600Y86500D01*
X115700Y87800D02*
X114900Y89400D01*
X116500D01*
X115700Y87800D01*
Y88200D02*
X115300Y89000D01*
X116100D01*
X115700Y88200D01*
X133828Y87400D02*
X133028Y89000D01*
X134628D01*
X133828Y87400D01*
Y87800D02*
X133428Y88600D01*
X134228D01*
X133828Y87800D01*
X112500Y103100D02*
X111700Y104700D01*
X113300D01*
X112500Y103100D01*
Y103500D02*
X112100Y104300D01*
X112900D01*
X112500Y103500D01*
X110500Y101200D02*
X109700Y102800D01*
X111300D01*
X110500Y101200D01*
Y101600D02*
X110100Y102400D01*
X110900D01*
X110500Y101600D01*
X92100Y104200D02*
X91300Y105800D01*
X92900D01*
X92100Y104200D01*
Y104600D02*
X91700Y105400D01*
X92500D01*
X92100Y104600D01*
X93693Y101268D02*
X92893Y102868D01*
X94493D01*
X93693Y101268D01*
Y101668D02*
X93293Y102468D01*
X94093D01*
X93693Y101668D01*
X219100Y42000D02*
X218300Y43600D01*
X219900D01*
X219100Y42000D01*
Y42400D02*
X218700Y43200D01*
X219500D01*
X219100Y42400D01*
X205400Y26500D02*
X204600Y28100D01*
X206200D01*
X205400Y26500D01*
Y26900D02*
X205000Y27700D01*
X205800D01*
X205400Y26900D01*
X218000Y23300D02*
X217200Y24900D01*
X218800D01*
X218000Y23300D01*
Y23700D02*
X217600Y24500D01*
X218400D01*
X218000Y23700D01*
X227000Y26400D02*
X226200Y28000D01*
X227800D01*
X227000Y26400D01*
Y26800D02*
X226600Y27600D01*
X227400D01*
X227000Y26800D01*
X229150Y24450D02*
X228350Y26050D01*
X229950D01*
X229150Y24450D01*
Y24850D02*
X228750Y25650D01*
X229550D01*
X229150Y24850D01*
X235700Y30200D02*
X234900Y31800D01*
X236500D01*
X235700Y30200D01*
Y30600D02*
X235300Y31400D01*
X236100D01*
X235700Y30600D01*
X210400Y25900D02*
X209600Y27500D01*
X211200D01*
X210400Y25900D01*
Y26300D02*
X210000Y27100D01*
X210800D01*
X210400Y26300D01*
X185400Y92100D02*
X184600Y93700D01*
X186200D01*
X185400Y92100D01*
Y92500D02*
X185000Y93300D01*
X185800D01*
X185400Y92500D01*
X217100Y97300D02*
X216300Y98900D01*
X217900D01*
X217100Y97300D01*
Y97700D02*
X216700Y98500D01*
X217500D01*
X217100Y97700D01*
X213500Y101900D02*
Y103500D01*
X215100D01*
Y101900D01*
X213500D01*
X213900Y102300D02*
Y103100D01*
X214700D01*
Y102300D01*
X213900D01*
X170400Y58900D02*
X169600Y60500D01*
X171200D01*
X170400Y58900D01*
Y59300D02*
X170000Y60100D01*
X170800D01*
X170400Y59300D01*
X168100Y58900D02*
X167300Y60500D01*
X168900D01*
X168100Y58900D01*
Y59300D02*
X167700Y60100D01*
X168500D01*
X168100Y59300D01*
X157300Y61700D02*
X156500Y63300D01*
X158100D01*
X157300Y61700D01*
Y62100D02*
X156900Y62900D01*
X157700D01*
X157300Y62100D01*
X136700Y40600D02*
X135900Y42200D01*
X137500D01*
X136700Y40600D01*
Y41000D02*
X136300Y41800D01*
X137100D01*
X136700Y41000D01*
X134900Y37300D02*
X134100Y38900D01*
X135700D01*
X134900Y37300D01*
Y37700D02*
X134500Y38500D01*
X135300D01*
X134900Y37700D01*
X93100Y35200D02*
X92300Y36800D01*
X93900D01*
X93100Y35200D01*
Y35600D02*
X92700Y36400D01*
X93500D01*
X93100Y35600D01*
X128500Y25700D02*
X127700Y27300D01*
X129300D01*
X128500Y25700D01*
Y26100D02*
X128100Y26900D01*
X128900D01*
X128500Y26100D01*
X87400Y40500D02*
X86600Y42100D01*
X88200D01*
X87400Y40500D01*
Y40900D02*
X87000Y41700D01*
X87800D01*
X87400Y40900D01*
X121900Y35700D02*
X121100Y37300D01*
X122700D01*
X121900Y35700D01*
Y36100D02*
X121500Y36900D01*
X122300D01*
X121900Y36100D01*
X33300Y47100D02*
X32500Y48700D01*
X34100D01*
X33300Y47100D01*
Y47500D02*
X32900Y48300D01*
X33700D01*
X33300Y47500D01*
X36600Y45500D02*
X35800Y47100D01*
X37400D01*
X36600Y45500D01*
Y45900D02*
X36200Y46700D01*
X37000D01*
X36600Y45900D01*
X13200Y37000D02*
X12400Y38600D01*
X14000D01*
X13200Y37000D01*
Y37400D02*
X12800Y38200D01*
X13600D01*
X13200Y37400D01*
X16700Y37000D02*
X15900Y38600D01*
X17500D01*
X16700Y37000D01*
Y37400D02*
X16300Y38200D01*
X17100D01*
X16700Y37400D01*
X46700Y26400D02*
X45900Y28000D01*
X47500D01*
X46700Y26400D01*
Y26800D02*
X46300Y27600D01*
X47100D01*
X46700Y26800D01*
X52000Y41400D02*
X51200Y43000D01*
X52800D01*
X52000Y41400D01*
Y41800D02*
X51600Y42600D01*
X52400D01*
X52000Y41800D01*
X53700Y38600D02*
X52900Y40200D01*
X54500D01*
X53700Y38600D01*
Y39000D02*
X53300Y39800D01*
X54100D01*
X53700Y39000D01*
X62700Y35300D02*
X61900Y36900D01*
X63500D01*
X62700Y35300D01*
Y35700D02*
X62300Y36500D01*
X63100D01*
X62700Y35700D01*
X65400Y25900D02*
X64600Y27500D01*
X66200D01*
X65400Y25900D01*
Y26300D02*
X65000Y27100D01*
X65800D01*
X65400Y26300D01*
X37800Y33600D02*
X37000Y35200D01*
X38600D01*
X37800Y33600D01*
Y34000D02*
X37400Y34800D01*
X38200D01*
X37800Y34000D01*
X32100Y35500D02*
X31300Y37100D01*
X32900D01*
X32100Y35500D01*
Y35900D02*
X31700Y36700D01*
X32500D01*
X32100Y35900D01*
X51600Y26400D02*
X50800Y28000D01*
X52400D01*
X51600Y26400D01*
Y26800D02*
X51200Y27600D01*
X52000D01*
X51600Y26800D01*
X59400Y44500D02*
X58600Y46100D01*
X60200D01*
X59400Y44500D01*
Y44900D02*
X59000Y45700D01*
X59800D01*
X59400Y44900D01*
X62500Y44400D02*
X61700Y46000D01*
X63300D01*
X62500Y44400D01*
Y44800D02*
X62100Y45600D01*
X62900D01*
X62500Y44800D01*
X105400Y44500D02*
X104600Y46100D01*
X106200D01*
X105400Y44500D01*
Y44900D02*
X105000Y45700D01*
X105800D01*
X105400Y44900D01*
X107900Y44500D02*
X107100Y46100D01*
X108700D01*
X107900Y44500D01*
Y44900D02*
X107500Y45700D01*
X108300D01*
X107900Y44900D01*
X128300Y46000D02*
X127500Y47600D01*
X129100D01*
X128300Y46000D01*
Y46400D02*
X127900Y47200D01*
X128700D01*
X128300Y46400D01*
X79100Y43400D02*
X78300Y45000D01*
X79900D01*
X79100Y43400D01*
Y43800D02*
X78700Y44600D01*
X79500D01*
X79100Y43800D01*
X97000Y29800D02*
X96200Y31400D01*
X97800D01*
X97000Y29800D01*
Y30200D02*
X96600Y31000D01*
X97400D01*
X97000Y30200D01*
X108972Y26300D02*
X108172Y27900D01*
X109772D01*
X108972Y26300D01*
Y26700D02*
X108572Y27500D01*
X109372D01*
X108972Y26700D01*
X219600Y89600D02*
X218800Y91200D01*
X220400D01*
X219600Y89600D01*
Y90000D02*
X219200Y90800D01*
X220000D01*
X219600Y90000D01*
X47900Y84100D02*
X47100Y85700D01*
X48700D01*
X47900Y84100D01*
Y84500D02*
X47500Y85300D01*
X48300D01*
X47900Y84500D01*
X63300Y79300D02*
X62500Y80900D01*
X64100D01*
X63300Y79300D01*
Y79700D02*
X62900Y80500D01*
X63700D01*
X63300Y79700D01*
X143200Y93000D02*
X142400Y94600D01*
X144000D01*
X143200Y93000D01*
Y93400D02*
X142800Y94200D01*
X143600D01*
X143200Y93400D01*
X7600Y52100D02*
X6800Y53700D01*
X8400D01*
X7600Y52100D01*
Y52500D02*
X7200Y53300D01*
X8000D01*
X7600Y52500D01*
X371100Y26200D02*
X370300Y27800D01*
X371900D01*
X371100Y26200D01*
Y26600D02*
X370700Y27400D01*
X371500D01*
X371100Y26600D01*
X374100Y29400D02*
X373300Y31000D01*
X374900D01*
X374100Y29400D01*
Y29800D02*
X373700Y30600D01*
X374500D01*
X374100Y29800D01*
X272700Y7900D02*
Y9500D01*
X274300D01*
Y7900D01*
X272700D01*
X273100Y8300D02*
Y9100D01*
X273900D01*
Y8300D01*
X273100D01*
X279700Y7900D02*
Y9500D01*
X281300D01*
Y7900D01*
X279700D01*
X280100Y8300D02*
Y9100D01*
X280900D01*
Y8300D01*
X280100D01*
X177100Y241400D02*
Y243000D01*
X178700D01*
Y241400D01*
X177100D01*
X177500Y241800D02*
Y242600D01*
X178300D01*
Y241800D01*
X177500D01*
X177600Y245900D02*
Y247500D01*
X179200D01*
Y245900D01*
X177600D01*
X178000Y246300D02*
Y247100D01*
X178800D01*
Y246300D01*
X178000D01*
X185730Y197100D02*
X184930Y198700D01*
X186530D01*
X185730Y197100D01*
Y197500D02*
X185330Y198300D01*
X186130D01*
X185730Y197500D01*
X192000Y191300D02*
X191200Y192900D01*
X192800D01*
X192000Y191300D01*
Y191700D02*
X191600Y192500D01*
X192400D01*
X192000Y191700D01*
X179900Y197000D02*
X179100Y198600D01*
X180700D01*
X179900Y197000D01*
Y197400D02*
X179500Y198200D01*
X180300D01*
X179900Y197400D01*
X120400Y213700D02*
X119600Y215300D01*
X121200D01*
X120400Y213700D01*
Y214100D02*
X120000Y214900D01*
X120800D01*
X120400Y214100D01*
X150800Y204900D02*
X150000Y206500D01*
X151600D01*
X150800Y204900D01*
Y205300D02*
X150400Y206100D01*
X151200D01*
X150800Y205300D01*
X77630Y223470D02*
X76830Y225070D01*
X78430D01*
X77630Y223470D01*
Y223870D02*
X77230Y224670D01*
X78030D01*
X77630Y223870D01*
X96940Y223470D02*
X96140Y225070D01*
X97740D01*
X96940Y223470D01*
Y223870D02*
X96540Y224670D01*
X97340D01*
X96940Y223870D01*
X62030Y222070D02*
X61230Y223670D01*
X62830D01*
X62030Y222070D01*
Y222470D02*
X61630Y223270D01*
X62430D01*
X62030Y222470D01*
X54230Y220630D02*
X53430Y222230D01*
X55030D01*
X54230Y220630D01*
Y221030D02*
X53830Y221830D01*
X54630D01*
X54230Y221030D01*
X132200Y213700D02*
X131400Y215300D01*
X133000D01*
X132200Y213700D01*
Y214100D02*
X131800Y214900D01*
X132600D01*
X132200Y214100D01*
X135970Y223200D02*
X135170Y224800D01*
X136770D01*
X135970Y223200D01*
Y223600D02*
X135570Y224400D01*
X136370D01*
X135970Y223600D01*
X92200Y200500D02*
X91400Y202100D01*
X93000D01*
X92200Y200500D01*
Y200900D02*
X91800Y201700D01*
X92600D01*
X92200Y200900D01*
X92100Y207200D02*
X91300Y208800D01*
X92900D01*
X92100Y207200D01*
Y207600D02*
X91700Y208400D01*
X92500D01*
X92100Y207600D01*
X34800Y205600D02*
Y207200D01*
X36400D01*
Y205600D01*
X34800D01*
X35200Y206000D02*
Y206800D01*
X36000D01*
Y206000D01*
X35200D01*
X45630Y220930D02*
Y222530D01*
X47230D01*
Y220930D01*
X45630D01*
X46030Y221330D02*
Y222130D01*
X46830D01*
Y221330D01*
X46030D01*
X128200Y213700D02*
X127400Y215300D01*
X129000D01*
X128200Y213700D01*
Y214100D02*
X127800Y214900D01*
X128600D01*
X128200Y214100D01*
X140100Y222900D02*
X139300Y224500D01*
X140900D01*
X140100Y222900D01*
Y223300D02*
X139700Y224100D01*
X140500D01*
X140100Y223300D01*
X120400Y223100D02*
X119600Y224700D01*
X121200D01*
X120400Y223100D01*
Y223500D02*
X120000Y224300D01*
X120800D01*
X120400Y223500D01*
X186100Y191200D02*
X185300Y192800D01*
X186900D01*
X186100Y191200D01*
Y191600D02*
X185700Y192400D01*
X186500D01*
X186100Y191600D01*
X180400Y191200D02*
X179600Y192800D01*
X181200D01*
X180400Y191200D01*
Y191600D02*
X180000Y192400D01*
X180800D01*
X180400Y191600D01*
X191430Y197100D02*
X190630Y198700D01*
X192230D01*
X191430Y197100D01*
Y197500D02*
X191030Y198300D01*
X191830D01*
X191430Y197500D01*
X269100Y223700D02*
Y225300D01*
X270700D01*
Y223700D01*
X269100D01*
X269500Y224100D02*
Y224900D01*
X270300D01*
Y224100D01*
X269500D01*
X325700Y167500D02*
Y169100D01*
X327300D01*
Y167500D01*
X325700D01*
X326100Y167900D02*
Y168700D01*
X326900D01*
Y167900D01*
X326100D01*
X327200Y158200D02*
Y159800D01*
X328800D01*
Y158200D01*
X327200D01*
X327600Y158600D02*
Y159400D01*
X328400D01*
Y158600D01*
X327600D01*
X332800Y155600D02*
Y157200D01*
X334400D01*
Y155600D01*
X332800D01*
X333200Y156000D02*
Y156800D01*
X334000D01*
Y156000D01*
X333200D01*
X346300Y155700D02*
Y157300D01*
X347900D01*
Y155700D01*
X346300D01*
X346700Y156100D02*
Y156900D01*
X347500D01*
Y156100D01*
X346700D01*
X339500Y167500D02*
Y169100D01*
X341100D01*
Y167500D01*
X339500D01*
X339900Y167900D02*
Y168700D01*
X340700D01*
Y167900D01*
X339900D01*
X339600Y174700D02*
Y176300D01*
X341200D01*
Y174700D01*
X339600D01*
X340000Y175100D02*
Y175900D01*
X340800D01*
Y175100D01*
X340000D01*
X353500Y167600D02*
Y169200D01*
X355100D01*
Y167600D01*
X353500D01*
X353900Y168000D02*
Y168800D01*
X354700D01*
Y168000D01*
X353900D01*
X364600Y178300D02*
Y179900D01*
X366200D01*
Y178300D01*
X364600D01*
X365000Y178700D02*
Y179500D01*
X365800D01*
Y178700D01*
X365000D01*
X364600Y197400D02*
Y199000D01*
X366200D01*
Y197400D01*
X364600D01*
X365000Y197800D02*
Y198600D01*
X365800D01*
Y197800D01*
X365000D01*
X374200Y187500D02*
Y189100D01*
X375800D01*
Y187500D01*
X374200D01*
X374600Y187900D02*
Y188700D01*
X375400D01*
Y187900D01*
X374600D01*
X380900Y184500D02*
Y186100D01*
X382500D01*
Y184500D01*
X380900D01*
X381300Y184900D02*
Y185700D01*
X382100D01*
Y184900D01*
X381300D01*
X380800Y176700D02*
Y178300D01*
X382400D01*
Y176700D01*
X380800D01*
X381200Y177100D02*
Y177900D01*
X382000D01*
Y177100D01*
X381200D01*
X371200Y166000D02*
Y167600D01*
X372800D01*
Y166000D01*
X371200D01*
X371600Y166400D02*
Y167200D01*
X372400D01*
Y166400D01*
X371600D01*
X356300Y178800D02*
Y180400D01*
X357900D01*
Y178800D01*
X356300D01*
X356700Y179200D02*
Y180000D01*
X357500D01*
Y179200D01*
X356700D01*
X372500Y178900D02*
Y180500D01*
X374100D01*
Y178900D01*
X372500D01*
X372900Y179300D02*
Y180100D01*
X373700D01*
Y179300D01*
X372900D01*
X349600Y98100D02*
Y99700D01*
X351200D01*
Y98100D01*
X349600D01*
X350000Y98500D02*
Y99300D01*
X350800D01*
Y98500D01*
X350000D01*
X325600Y114500D02*
Y116100D01*
X327200D01*
Y114500D01*
X325600D01*
X326000Y114900D02*
Y115700D01*
X326800D01*
Y114900D01*
X326000D01*
X332900Y104300D02*
Y105900D01*
X334500D01*
Y104300D01*
X332900D01*
X333300Y104700D02*
Y105500D01*
X334100D01*
Y104700D01*
X333300D01*
X339400Y114400D02*
Y116000D01*
X341000D01*
Y114400D01*
X339400D01*
X339800Y114800D02*
Y115600D01*
X340600D01*
Y114800D01*
X339800D01*
X335200Y124700D02*
Y126300D01*
X336800D01*
Y124700D01*
X335200D01*
X335600Y125100D02*
Y125900D01*
X336400D01*
Y125100D01*
X335600D01*
X346100Y124700D02*
Y126300D01*
X347700D01*
Y124700D01*
X346100D01*
X346500Y125100D02*
Y125900D01*
X347300D01*
Y125100D01*
X346500D01*
X354500Y114700D02*
Y116300D01*
X356100D01*
Y114700D01*
X354500D01*
X354900Y115100D02*
Y115900D01*
X355700D01*
Y115100D01*
X354900D01*
X346100Y104100D02*
Y105700D01*
X347700D01*
Y104100D01*
X346100D01*
X346500Y104500D02*
Y105300D01*
X347300D01*
Y104500D01*
X346500D01*
X378400Y106000D02*
Y107600D01*
X380000D01*
Y106000D01*
X378400D01*
X378800Y106400D02*
Y107200D01*
X379600D01*
Y106400D01*
X378800D01*
X378200Y128000D02*
Y129600D01*
X379800D01*
Y128000D01*
X378200D01*
X378600Y128400D02*
Y129200D01*
X379400D01*
Y128400D01*
X378600D01*
X373700Y122800D02*
Y124400D01*
X375300D01*
Y122800D01*
X373700D01*
X374100Y123200D02*
Y124000D01*
X374900D01*
Y123200D01*
X374100D01*
X364600Y131700D02*
Y133300D01*
X366200D01*
Y131700D01*
X364600D01*
X365000Y132100D02*
Y132900D01*
X365800D01*
Y132100D01*
X365000D01*
X355300Y122500D02*
Y124100D01*
X356900D01*
Y122500D01*
X355300D01*
X355700Y122900D02*
Y123700D01*
X356500D01*
Y122900D01*
X355700D01*
X364500Y112700D02*
Y114300D01*
X366100D01*
Y112700D01*
X364500D01*
X364900Y113100D02*
Y113900D01*
X365700D01*
Y113100D01*
X364900D01*
X380400Y117100D02*
Y118700D01*
X382000D01*
Y117100D01*
X380400D01*
X380800Y117500D02*
Y118300D01*
X381600D01*
Y117500D01*
X380800D01*
X341700Y130800D02*
Y132400D01*
X343300D01*
Y130800D01*
X341700D01*
X342100Y131200D02*
Y132000D01*
X342900D01*
Y131200D01*
X342100D01*
X362900Y104300D02*
Y105900D01*
X364500D01*
Y104300D01*
X362900D01*
X363300Y104700D02*
Y105500D01*
X364100D01*
Y104700D01*
X363300D01*
X310100Y66500D02*
Y68100D01*
X311700D01*
Y66500D01*
X310100D01*
X310500Y66900D02*
Y67700D01*
X311300D01*
Y66900D01*
X310500D01*
X303600Y76600D02*
Y78200D01*
X305200D01*
Y76600D01*
X303600D01*
X304000Y77000D02*
Y77800D01*
X304800D01*
Y77000D01*
X304000D01*
X309400Y58100D02*
Y59700D01*
X311000D01*
Y58100D01*
X309400D01*
X309800Y58500D02*
Y59300D01*
X310600D01*
Y58500D01*
X309800D01*
X316600Y56600D02*
Y58200D01*
X318200D01*
Y56600D01*
X316600D01*
X317000Y57000D02*
Y57800D01*
X317800D01*
Y57000D01*
X317000D01*
X325900Y90600D02*
Y92200D01*
X327500D01*
Y90600D01*
X325900D01*
X326300Y91000D02*
Y91800D01*
X327100D01*
Y91000D01*
X326300D01*
X324800Y84600D02*
Y86200D01*
X326400D01*
Y84600D01*
X324800D01*
X325200Y85000D02*
Y85800D01*
X326000D01*
Y85000D01*
X325200D01*
X336300Y88100D02*
Y89700D01*
X337900D01*
Y88100D01*
X336300D01*
X336700Y88500D02*
Y89300D01*
X337500D01*
Y88500D01*
X336700D01*
X340800Y88100D02*
Y89700D01*
X342400D01*
Y88100D01*
X340800D01*
X341200Y88500D02*
Y89300D01*
X342000D01*
Y88500D01*
X341200D01*
X325800Y78600D02*
Y80200D01*
X327400D01*
Y78600D01*
X325800D01*
X326200Y79000D02*
Y79800D01*
X327000D01*
Y79000D01*
X326200D01*
X321900Y74800D02*
Y76400D01*
X323500D01*
Y74800D01*
X321900D01*
X322300Y75200D02*
Y76000D01*
X323100D01*
Y75200D01*
X322300D01*
X317000Y76500D02*
Y78100D01*
X318600D01*
Y76500D01*
X317000D01*
X317400Y76900D02*
Y77700D01*
X318200D01*
Y76900D01*
X317400D01*
X314200Y44300D02*
Y45900D01*
X315800D01*
Y44300D01*
X314200D01*
X314600Y44700D02*
Y45500D01*
X315400D01*
Y44700D01*
X314600D01*
X352600Y88400D02*
Y90000D01*
X354200D01*
Y88400D01*
X352600D01*
X353000Y88800D02*
Y89600D01*
X353800D01*
Y88800D01*
X353000D01*
X352200Y78900D02*
Y80500D01*
X353800D01*
Y78900D01*
X352200D01*
X352600Y79300D02*
Y80100D01*
X353400D01*
Y79300D01*
X352600D01*
X351700Y84600D02*
Y86200D01*
X353300D01*
Y84600D01*
X351700D01*
X352100Y85000D02*
Y85800D01*
X352900D01*
Y85000D01*
X352100D01*
X361700Y79000D02*
Y80600D01*
X363300D01*
Y79000D01*
X361700D01*
X362100Y79400D02*
Y80200D01*
X362900D01*
Y79400D01*
X362100D01*
X378400Y62700D02*
Y64300D01*
X380000D01*
Y62700D01*
X378400D01*
X378800Y63100D02*
Y63900D01*
X379600D01*
Y63100D01*
X378800D01*
X364600Y67300D02*
Y68900D01*
X366200D01*
Y67300D01*
X364600D01*
X365000Y67700D02*
Y68500D01*
X365800D01*
Y67700D01*
X365000D01*
X364800Y48200D02*
Y49800D01*
X366400D01*
Y48200D01*
X364800D01*
X365200Y48600D02*
Y49400D01*
X366000D01*
Y48600D01*
X365200D01*
X356200Y53300D02*
Y54900D01*
X357800D01*
Y53300D01*
X356200D01*
X356600Y53700D02*
Y54500D01*
X357400D01*
Y53700D01*
X356600D01*
X374000Y57700D02*
Y59300D01*
X375600D01*
Y57700D01*
X374000D01*
X374400Y58100D02*
Y58900D01*
X375200D01*
Y58100D01*
X374400D01*
X362900Y39000D02*
Y40600D01*
X364500D01*
Y39000D01*
X362900D01*
X363300Y39400D02*
Y40200D01*
X364100D01*
Y39400D01*
X363300D01*
X356400Y33100D02*
Y34700D01*
X358000D01*
Y33100D01*
X356400D01*
X356800Y33500D02*
Y34300D01*
X357600D01*
Y33500D01*
X356800D01*
X362900Y26900D02*
Y28500D01*
X364500D01*
Y26900D01*
X362900D01*
X363300Y27300D02*
Y28100D01*
X364100D01*
Y27300D01*
X363300D01*
X376300Y35900D02*
Y37500D01*
X377900D01*
Y35900D01*
X376300D01*
X376700Y36300D02*
Y37100D01*
X377500D01*
Y36300D01*
X376700D01*
X338900Y73800D02*
Y75400D01*
X340500D01*
Y73800D01*
X338900D01*
X339300Y74200D02*
Y75000D01*
X340100D01*
Y74200D01*
X339300D01*
X339100Y66300D02*
Y67900D01*
X340700D01*
Y66300D01*
X339100D01*
X339500Y66700D02*
Y67500D01*
X340300D01*
Y66700D01*
X339500D01*
X345400Y56100D02*
Y57700D01*
X347000D01*
Y56100D01*
X345400D01*
X345800Y56500D02*
Y57300D01*
X346600D01*
Y56500D01*
X345800D01*
X332700D02*
Y58100D01*
X334300D01*
Y56500D01*
X332700D01*
X333100Y56900D02*
Y57700D01*
X333900D01*
Y56900D01*
X333100D01*
X335900Y36800D02*
Y38400D01*
X337500D01*
Y36800D01*
X335900D01*
X336300Y37200D02*
Y38000D01*
X337100D01*
Y37200D01*
X336300D01*
X332400Y47000D02*
Y48600D01*
X334000D01*
Y47000D01*
X332400D01*
X332800Y47400D02*
Y48200D01*
X333600D01*
Y47400D01*
X332800D01*
X347100Y34700D02*
Y36300D01*
X348700D01*
Y34700D01*
X347100D01*
X347500Y35100D02*
Y35900D01*
X348300D01*
Y35100D01*
X347500D01*
X359900Y21800D02*
Y23400D01*
X361500D01*
Y21800D01*
X359900D01*
X360300Y22200D02*
Y23000D01*
X361100D01*
Y22200D01*
X360300D01*
X365700Y21900D02*
Y23500D01*
X367300D01*
Y21900D01*
X365700D01*
X366100Y22300D02*
Y23100D01*
X366900D01*
Y22300D01*
X366100D01*
X356367Y16990D02*
Y18590D01*
X357967D01*
Y16990D01*
X356367D01*
X356767Y17390D02*
Y18190D01*
X357567D01*
Y17390D01*
X356767D01*
X339200Y13300D02*
Y14900D01*
X340800D01*
Y13300D01*
X339200D01*
X339600Y13700D02*
Y14500D01*
X340400D01*
Y13700D01*
X339600D01*
X345700Y21400D02*
Y23000D01*
X347300D01*
Y21400D01*
X345700D01*
X346100Y21800D02*
Y22600D01*
X346900D01*
Y21800D01*
X346100D01*
X332200Y22700D02*
Y24300D01*
X333800D01*
Y22700D01*
X332200D01*
X332600Y23100D02*
Y23900D01*
X333400D01*
Y23100D01*
X332600D01*
X326600Y13300D02*
Y14900D01*
X328200D01*
Y13300D01*
X326600D01*
X327000Y13700D02*
Y14500D01*
X327800D01*
Y13700D01*
X327000D01*
X246300Y70800D02*
Y72400D01*
X247900D01*
Y70800D01*
X246300D01*
X246700Y71200D02*
Y72000D01*
X247500D01*
Y71200D01*
X246700D01*
X279425Y23074D02*
Y24674D01*
X281025D01*
Y23074D01*
X279425D01*
X279825Y23474D02*
Y24274D01*
X280625D01*
Y23474D01*
X279825D01*
X269300Y29400D02*
Y31000D01*
X270900D01*
Y29400D01*
X269300D01*
X269700Y29800D02*
Y30600D01*
X270500D01*
Y29800D01*
X269700D01*
X269300Y25700D02*
Y27300D01*
X270900D01*
Y25700D01*
X269300D01*
X269700Y26100D02*
Y26900D01*
X270500D01*
Y26100D01*
X269700D01*
X269300Y22000D02*
Y23600D01*
X270900D01*
Y22000D01*
X269300D01*
X269700Y22400D02*
Y23200D01*
X270500D01*
Y22400D01*
X269700D01*
X309900Y13400D02*
Y15000D01*
X311500D01*
Y13400D01*
X309900D01*
X310300Y13800D02*
Y14600D01*
X311100D01*
Y13800D01*
X310300D01*
X303600Y22700D02*
Y24300D01*
X305200D01*
Y22700D01*
X303600D01*
X304000Y23100D02*
Y23900D01*
X304800D01*
Y23100D01*
X304000D01*
X245300Y61100D02*
Y62700D01*
X246900D01*
Y61100D01*
X245300D01*
X245700Y61500D02*
Y62300D01*
X246500D01*
Y61500D01*
X245700D01*
X248600Y84400D02*
Y86000D01*
X250200D01*
Y84400D01*
X248600D01*
X249000Y84800D02*
Y85600D01*
X249800D01*
Y84800D01*
X249000D01*
X300800Y200800D02*
Y202400D01*
X302400D01*
Y200800D01*
X300800D01*
X301200Y201200D02*
Y202000D01*
X302000D01*
Y201200D01*
X301200D01*
X310800Y200800D02*
Y202400D01*
X312400D01*
Y200800D01*
X310800D01*
X311200Y201200D02*
Y202000D01*
X312000D01*
Y201200D01*
X311200D01*
X310800Y210800D02*
Y212400D01*
X312400D01*
Y210800D01*
X310800D01*
X311200Y211200D02*
Y212000D01*
X312000D01*
Y211200D01*
X311200D01*
X320800Y210800D02*
Y212400D01*
X322400D01*
Y210800D01*
X320800D01*
X321200Y211200D02*
Y212000D01*
X322000D01*
Y211200D01*
X321200D01*
X320800Y200800D02*
Y202400D01*
X322400D01*
Y200800D01*
X320800D01*
X321200Y201200D02*
Y202000D01*
X322000D01*
Y201200D01*
X321200D01*
X330800Y200800D02*
Y202400D01*
X332400D01*
Y200800D01*
X330800D01*
X331200Y201200D02*
Y202000D01*
X332000D01*
Y201200D01*
X331200D01*
X330800Y210800D02*
Y212400D01*
X332400D01*
Y210800D01*
X330800D01*
X331200Y211200D02*
Y212000D01*
X332000D01*
Y211200D01*
X331200D01*
X340800Y210800D02*
Y212400D01*
X342400D01*
Y210800D01*
X340800D01*
X341200Y211200D02*
Y212000D01*
X342000D01*
Y211200D01*
X341200D01*
X340800Y200800D02*
Y202400D01*
X342400D01*
Y200800D01*
X340800D01*
X341200Y201200D02*
Y202000D01*
X342000D01*
Y201200D01*
X341200D01*
X340800Y190800D02*
Y192400D01*
X342400D01*
Y190800D01*
X340800D01*
X341200Y191200D02*
Y192000D01*
X342000D01*
Y191200D01*
X341200D01*
X330800Y190800D02*
Y192400D01*
X332400D01*
Y190800D01*
X330800D01*
X331200Y191200D02*
Y192000D01*
X332000D01*
Y191200D01*
X331200D01*
X330800Y180800D02*
Y182400D01*
X332400D01*
Y180800D01*
X330800D01*
X331200Y181200D02*
Y182000D01*
X332000D01*
Y181200D01*
X331200D01*
X350800Y195800D02*
Y197400D01*
X352400D01*
Y195800D01*
X350800D01*
X351200Y196200D02*
Y197000D01*
X352000D01*
Y196200D01*
X351200D01*
X36100Y268600D02*
Y270200D01*
X37700D01*
Y268600D01*
X36100D01*
X36500Y269000D02*
Y269800D01*
X37300D01*
Y269000D01*
X36500D01*
X364900Y11000D02*
Y12600D01*
X366500D01*
Y11000D01*
X364900D01*
X365300Y11400D02*
Y12200D01*
X366100D01*
Y11400D01*
X365300D01*
X284700Y33600D02*
Y35200D01*
X286300D01*
Y33600D01*
X284700D01*
X285100Y34000D02*
Y34800D01*
X285900D01*
Y34000D01*
X285100D01*
X269209Y9015D02*
Y10615D01*
X270809D01*
Y9015D01*
X269209D01*
X269609Y9415D02*
Y10215D01*
X270409D01*
Y9415D01*
X269609D01*
X269209Y12715D02*
Y14315D01*
X270809D01*
Y12715D01*
X269209D01*
X269609Y13115D02*
Y13915D01*
X270409D01*
Y13115D01*
X269609D01*
X269209Y16415D02*
Y18015D01*
X270809D01*
Y16415D01*
X269209D01*
X269609Y16815D02*
Y17615D01*
X270409D01*
Y16815D01*
X269609D01*
X279900Y11400D02*
Y13000D01*
X281500D01*
Y11400D01*
X279900D01*
X280300Y11800D02*
Y12600D01*
X281100D01*
Y11800D01*
X280300D01*
X294600Y68100D02*
Y69700D01*
X296200D01*
Y68100D01*
X294600D01*
X295000Y68500D02*
Y69300D01*
X295800D01*
Y68500D01*
X295000D01*
X256000Y83100D02*
Y84700D01*
X257600D01*
Y83100D01*
X256000D01*
X256400Y83500D02*
Y84300D01*
X257200D01*
Y83500D01*
X256400D01*
X256100Y70700D02*
Y72300D01*
X257700D01*
Y70700D01*
X256100D01*
X256500Y71100D02*
Y71900D01*
X257300D01*
Y71100D01*
X256500D01*
X246300Y75700D02*
Y77300D01*
X247900D01*
Y75700D01*
X246300D01*
X246700Y76100D02*
Y76900D01*
X247500D01*
Y76100D01*
X246700D01*
X256100Y75700D02*
Y77300D01*
X257700D01*
Y75700D01*
X256100D01*
X256500Y76100D02*
Y76900D01*
X257300D01*
Y76100D01*
X256500D01*
X329700Y221300D02*
Y222900D01*
X331300D01*
Y221300D01*
X329700D01*
X330100Y221700D02*
Y222500D01*
X330900D01*
Y221700D01*
X330100D01*
X325900Y221300D02*
Y222900D01*
X327500D01*
Y221300D01*
X325900D01*
X326300Y221700D02*
Y222500D01*
X327100D01*
Y221700D01*
X326300D01*
X303500Y110900D02*
Y112500D01*
X305100D01*
Y110900D01*
X303500D01*
X303900Y111300D02*
Y112100D01*
X304700D01*
Y111300D01*
X303900D01*
X224600Y184300D02*
Y185900D01*
X226200D01*
Y184300D01*
X224600D01*
X225000Y184700D02*
Y185500D01*
X225800D01*
Y184700D01*
X225000D01*
X297100Y122700D02*
Y124300D01*
X298700D01*
Y122700D01*
X297100D01*
X297500Y123100D02*
Y123900D01*
X298300D01*
Y123100D01*
X297500D01*
X222300Y153300D02*
Y154900D01*
X223900D01*
Y153300D01*
X222300D01*
X222700Y153700D02*
Y154500D01*
X223500D01*
Y153700D01*
X222700D01*
X212700Y158300D02*
Y159900D01*
X214300D01*
Y158300D01*
X212700D01*
X213100Y158700D02*
Y159500D01*
X213900D01*
Y158700D01*
X213100D01*
X276200Y130000D02*
Y131600D01*
X277800D01*
Y130000D01*
X276200D01*
X276600Y130400D02*
Y131200D01*
X277400D01*
Y130400D01*
X276600D01*
X276000Y125400D02*
Y127000D01*
X277600D01*
Y125400D01*
X276000D01*
X276400Y125800D02*
Y126600D01*
X277200D01*
Y125800D01*
X276400D01*
X58100Y220700D02*
X57300Y222300D01*
X58900D01*
X58100Y220700D01*
Y221100D02*
X57700Y221900D01*
X58500D01*
X58100Y221100D01*
X88600Y207300D02*
X87800Y208900D01*
X89400D01*
X88600Y207300D01*
Y207700D02*
X88200Y208500D01*
X89000D01*
X88600Y207700D01*
X102100Y224100D02*
X101300Y225700D01*
X102900D01*
X102100Y224100D01*
Y224500D02*
X101700Y225300D01*
X102500D01*
X102100Y224500D01*
X109400Y170500D02*
X108600Y172100D01*
X110200D01*
X109400Y170500D01*
Y170900D02*
X109000Y171700D01*
X109800D01*
X109400Y170900D01*
X335800Y250600D02*
Y252200D01*
X337400D01*
Y250600D01*
X335800D01*
X336200Y251000D02*
Y251800D01*
X337000D01*
Y251000D01*
X336200D01*
X32600Y219300D02*
Y220900D01*
X34200D01*
Y219300D01*
X32600D01*
X33000Y219700D02*
Y220500D01*
X33800D01*
Y219700D01*
X33000D01*
X25500Y212700D02*
Y214300D01*
X27100D01*
Y212700D01*
X25500D01*
X25900Y213100D02*
Y213900D01*
X26700D01*
Y213100D01*
X25900D01*
X114600Y223400D02*
X113800Y225000D01*
X115400D01*
X114600Y223400D01*
Y223800D02*
X114200Y224600D01*
X115000D01*
X114600Y223800D01*
X117500Y223100D02*
X116700Y224700D01*
X118300D01*
X117500Y223100D01*
Y223500D02*
X117100Y224300D01*
X117900D01*
X117500Y223500D01*
X128200Y223200D02*
X127400Y224800D01*
X129000D01*
X128200Y223200D01*
Y223600D02*
X127800Y224400D01*
X128600D01*
X128200Y223600D01*
X124500Y223200D02*
X123700Y224800D01*
X125300D01*
X124500Y223200D01*
Y223600D02*
X124100Y224400D01*
X124900D01*
X124500Y223600D01*
X119300Y125100D02*
Y126700D01*
X120900D01*
Y125100D01*
X119300D01*
X119700Y125500D02*
Y126300D01*
X120500D01*
Y125500D01*
X119700D01*
X118900Y138200D02*
Y139800D01*
X120500D01*
Y138200D01*
X118900D01*
X119300Y138600D02*
Y139400D01*
X120100D01*
Y138600D01*
X119300D01*
X171860Y191407D02*
Y193007D01*
X173460D01*
Y191407D01*
X171860D01*
X172260Y191807D02*
Y192607D01*
X173060D01*
Y191807D01*
X172260D01*
X207100Y185000D02*
Y186600D01*
X208700D01*
Y185000D01*
X207100D01*
X207500Y185400D02*
Y186200D01*
X208300D01*
Y185400D01*
X207500D01*
X141600Y204200D02*
X140800Y205800D01*
X142400D01*
X141600Y204200D01*
Y204600D02*
X141200Y205400D01*
X142000D01*
X141600Y204600D01*
X150500Y211400D02*
X149700Y213000D01*
X151300D01*
X150500Y211400D01*
Y211800D02*
X150100Y212600D01*
X150900D01*
X150500Y211800D01*
X156100Y207900D02*
X155300Y209500D01*
X156900D01*
X156100Y207900D01*
Y208300D02*
X155700Y209100D01*
X156500D01*
X156100Y208300D01*
X153700Y216600D02*
X152900Y218200D01*
X154500D01*
X153700Y216600D01*
Y217000D02*
X153300Y217800D01*
X154100D01*
X153700Y217000D01*
X155100Y199200D02*
X154300Y200800D01*
X155900D01*
X155100Y199200D01*
Y199600D02*
X154700Y200400D01*
X155500D01*
X155100Y199600D01*
X28700Y98800D02*
X27900Y100400D01*
X29500D01*
X28700Y98800D01*
Y99200D02*
X28300Y100000D01*
X29100D01*
X28700Y99200D01*
X16200Y97800D02*
X15400Y99400D01*
X17000D01*
X16200Y97800D01*
Y98200D02*
X15800Y99000D01*
X16600D01*
X16200Y98200D01*
X61500Y47400D02*
X60700Y49000D01*
X62300D01*
X61500Y47400D01*
Y47800D02*
X61100Y48600D01*
X61900D01*
X61500Y47800D01*
X80300Y49800D02*
X79500Y51400D01*
X81100D01*
X80300Y49800D01*
Y50200D02*
X79900Y51000D01*
X80700D01*
X80300Y50200D01*
X82500Y49800D02*
X81700Y51400D01*
X83300D01*
X82500Y49800D01*
Y50200D02*
X82100Y51000D01*
X82900D01*
X82500Y50200D01*
X48800Y48700D02*
X48000Y50300D01*
X49600D01*
X48800Y48700D01*
Y49100D02*
X48400Y49900D01*
X49200D01*
X48800Y49100D01*
X74000Y83200D02*
X73200Y84800D01*
X74800D01*
X74000Y83200D01*
Y83600D02*
X73600Y84400D01*
X74400D01*
X74000Y83600D01*
X105800Y75200D02*
X105000Y76800D01*
X106600D01*
X105800Y75200D01*
Y75600D02*
X105400Y76400D01*
X106200D01*
X105800Y75600D01*
X106600Y72900D02*
X105800Y74500D01*
X107400D01*
X106600Y72900D01*
Y73300D02*
X106200Y74100D01*
X107000D01*
X106600Y73300D01*
X106400Y47500D02*
X105600Y49100D01*
X107200D01*
X106400Y47500D01*
Y47900D02*
X106000Y48700D01*
X106800D01*
X106400Y47900D01*
X127700Y49600D02*
X126900Y51200D01*
X128500D01*
X127700Y49600D01*
Y50000D02*
X127300Y50800D01*
X128100D01*
X127700Y50000D01*
X125338Y49600D02*
X124538Y51200D01*
X126138D01*
X125338Y49600D01*
Y50000D02*
X124938Y50800D01*
X125738D01*
X125338Y50000D01*
X153400Y103800D02*
X152600Y105400D01*
X154200D01*
X153400Y103800D01*
Y104200D02*
X153000Y105000D01*
X153800D01*
X153400Y104200D01*
X156100Y103800D02*
X155300Y105400D01*
X156900D01*
X156100Y103800D01*
Y104200D02*
X155700Y105000D01*
X156500D01*
X156100Y104200D01*
X97300Y48000D02*
X96500Y49600D01*
X98100D01*
X97300Y48000D01*
Y48400D02*
X96900Y49200D01*
X97700D01*
X97300Y48400D01*
X95800Y35200D02*
X95000Y36800D01*
X96600D01*
X95800Y35200D01*
Y35600D02*
X95400Y36400D01*
X96200D01*
X95800Y35600D01*
X129200Y61900D02*
X128400Y63500D01*
X130000D01*
X129200Y61900D01*
Y62300D02*
X128800Y63100D01*
X129600D01*
X129200Y62300D01*
X132100Y83600D02*
X131300Y85200D01*
X132900D01*
X132100Y83600D01*
Y84000D02*
X131700Y84800D01*
X132500D01*
X132100Y84000D01*
X80700Y98700D02*
X79900Y100300D01*
X81500D01*
X80700Y98700D01*
Y99100D02*
X80300Y99900D01*
X81100D01*
X80700Y99100D01*
X83900Y98700D02*
X83100Y100300D01*
X84700D01*
X83900Y98700D01*
Y99100D02*
X83500Y99900D01*
X84300D01*
X83900Y99100D01*
X29000Y101800D02*
X28200Y103400D01*
X29800D01*
X29000Y101800D01*
Y102200D02*
X28600Y103000D01*
X29400D01*
X29000Y102200D01*
Y104400D02*
X28200Y106000D01*
X29800D01*
X29000Y104400D01*
Y104800D02*
X28600Y105600D01*
X29400D01*
X29000Y104800D01*
X126600Y113700D02*
X125800Y115300D01*
X127400D01*
X126600Y113700D01*
Y114100D02*
X126200Y114900D01*
X127000D01*
X126600Y114100D01*
X131500Y103500D02*
X130700Y105100D01*
X132300D01*
X131500Y103500D01*
Y103900D02*
X131100Y104700D01*
X131900D01*
X131500Y103900D01*
X134500Y103500D02*
X133700Y105100D01*
X135300D01*
X134500Y103500D01*
Y103900D02*
X134100Y104700D01*
X134900D01*
X134500Y103900D01*
X314900Y84000D02*
Y85600D01*
X316500D01*
Y84000D01*
X314900D01*
X315300Y84400D02*
Y85200D01*
X316100D01*
Y84400D01*
X315300D01*
X305700Y84000D02*
Y85600D01*
X307300D01*
Y84000D01*
X305700D01*
X306100Y84400D02*
Y85200D01*
X306900D01*
Y84400D01*
X306100D01*
X314900Y89200D02*
Y90800D01*
X316500D01*
Y89200D01*
X314900D01*
X315300Y89600D02*
Y90400D01*
X316100D01*
Y89600D01*
X315300D01*
X305700Y89200D02*
Y90800D01*
X307300D01*
Y89200D01*
X305700D01*
X306100Y89600D02*
Y90400D01*
X306900D01*
Y89600D01*
X306100D01*
X305700Y94300D02*
Y95900D01*
X307300D01*
Y94300D01*
X305700D01*
X306100Y94700D02*
Y95500D01*
X306900D01*
Y94700D01*
X306100D01*
X314900Y94300D02*
Y95900D01*
X316500D01*
Y94300D01*
X314900D01*
X315300Y94700D02*
Y95500D01*
X316100D01*
Y94700D01*
X315300D01*
X304666Y155338D02*
Y156938D01*
X306266D01*
Y155338D01*
X304666D01*
X305066Y155738D02*
Y156538D01*
X305866D01*
Y155738D01*
X305066D01*
X314766Y155338D02*
Y156938D01*
X316366D01*
Y155338D01*
X314766D01*
X315166Y155738D02*
Y156538D01*
X315966D01*
Y155738D01*
X315166D01*
X309766Y155338D02*
Y156938D01*
X311366D01*
Y155338D01*
X309766D01*
X310166Y155738D02*
Y156538D01*
X310966D01*
Y155738D01*
X310166D01*
G54D269*
X219800Y266000D02*
X219247Y266761D01*
X218353Y266470D01*
Y265530D01*
X219247Y265239D01*
X219800Y266000D01*
Y256000D02*
X219247Y256761D01*
X218353Y256470D01*
Y255530D01*
X219247Y255239D01*
X219800Y256000D01*
X209800Y266000D02*
X209247Y266761D01*
X208353Y266470D01*
Y265530D01*
X209247Y265239D01*
X209800Y266000D01*
Y256000D02*
X209247Y256761D01*
X208353Y256470D01*
Y255530D01*
X209247Y255239D01*
X209800Y256000D01*
X199800Y266000D02*
X199247Y266761D01*
X198353Y266470D01*
Y265530D01*
X199247Y265239D01*
X199800Y266000D01*
Y256000D02*
X199247Y256761D01*
X198353Y256470D01*
Y255530D01*
X199247Y255239D01*
X199800Y256000D01*
X189800Y266000D02*
X189247Y266761D01*
X188353Y266470D01*
Y265530D01*
X189247Y265239D01*
X189800Y266000D01*
Y256000D02*
X189247Y256761D01*
X188353Y256470D01*
Y255530D01*
X189247Y255239D01*
X189800Y256000D01*
X179800Y266000D02*
X179247Y266761D01*
X178353Y266470D01*
Y265530D01*
X179247Y265239D01*
X179800Y266000D01*
Y256000D02*
X179247Y256761D01*
X178353Y256470D01*
Y255530D01*
X179247Y255239D01*
X179800Y256000D01*
X246369Y272171D02*
X245816Y272932D01*
X244921Y272641D01*
Y271701D01*
X245816Y271410D01*
X246369Y272171D01*
X256368D02*
X255816Y272932D01*
X254921Y272641D01*
Y271701D01*
X255816Y271410D01*
X256368Y272171D01*
X246369Y262171D02*
X245816Y262932D01*
X244921Y262641D01*
Y261701D01*
X245816Y261410D01*
X246369Y262171D01*
X256368D02*
X255816Y262932D01*
X254921Y262641D01*
Y261701D01*
X255816Y261410D01*
X256368Y262171D01*
X246369Y252171D02*
X245816Y252932D01*
X244921Y252641D01*
Y251701D01*
X245816Y251410D01*
X246369Y252171D01*
X256368D02*
X255816Y252932D01*
X254921Y252641D01*
Y251701D01*
X255816Y251410D01*
X256368Y252171D01*
X246369Y242171D02*
X245816Y242932D01*
X244921Y242641D01*
Y241701D01*
X245816Y241410D01*
X246369Y242171D01*
X256368D02*
X255816Y242932D01*
X254921Y242641D01*
Y241701D01*
X255816Y241410D01*
X256368Y242171D01*
X246369Y232171D02*
X245816Y232932D01*
X244921Y232641D01*
Y231701D01*
X245816Y231410D01*
X246369Y232171D01*
X256368D02*
X255816Y232932D01*
X254921Y232641D01*
Y231701D01*
X255816Y231410D01*
X256368Y232171D01*
X366100Y221050D02*
X365547Y221811D01*
X364653Y221520D01*
Y220580D01*
X365547Y220289D01*
X366100Y221050D01*
Y188550D02*
X365547Y189311D01*
X364653Y189020D01*
Y188080D01*
X365547Y187789D01*
X366100Y188550D01*
Y156050D02*
X365547Y156811D01*
X364653Y156520D01*
Y155580D01*
X365547Y155289D01*
X366100Y156050D01*
Y123550D02*
X365547Y124311D01*
X364653Y124020D01*
Y123080D01*
X365547Y122789D01*
X366100Y123550D01*
Y91050D02*
X365547Y91811D01*
X364653Y91520D01*
Y90580D01*
X365547Y90289D01*
X366100Y91050D01*
Y58550D02*
X365547Y59311D01*
X364653Y59020D01*
Y58080D01*
X365547Y57789D01*
X366100Y58550D01*
X219800Y228500D02*
X219247Y229261D01*
X218353Y228970D01*
Y228030D01*
X219247Y227739D01*
X219800Y228500D01*
Y218500D02*
X219247Y219261D01*
X218353Y218970D01*
Y218030D01*
X219247Y217739D01*
X219800Y218500D01*
X209800Y228500D02*
X209247Y229261D01*
X208353Y228970D01*
Y228030D01*
X209247Y227739D01*
X209800Y228500D01*
Y218500D02*
X209247Y219261D01*
X208353Y218970D01*
Y218030D01*
X209247Y217739D01*
X209800Y218500D01*
X199800Y228500D02*
X199247Y229261D01*
X198353Y228970D01*
Y228030D01*
X199247Y227739D01*
X199800Y228500D01*
Y218500D02*
X199247Y219261D01*
X198353Y218970D01*
Y218030D01*
X199247Y217739D01*
X199800Y218500D01*
X189800Y228500D02*
X189247Y229261D01*
X188353Y228970D01*
Y228030D01*
X189247Y227739D01*
X189800Y228500D01*
Y218500D02*
X189247Y219261D01*
X188353Y218970D01*
Y218030D01*
X189247Y217739D01*
X189800Y218500D01*
X179800Y228500D02*
X179247Y229261D01*
X178353Y228970D01*
Y228030D01*
X179247Y227739D01*
X179800Y228500D01*
Y218500D02*
X179247Y219261D01*
X178353Y218970D01*
Y218030D01*
X179247Y217739D01*
X179800Y218500D01*
G54D270*
X365700Y221050D02*
X365100Y221396D01*
Y220704D01*
X365700Y221050D01*
Y188550D02*
X365100Y188896D01*
Y188204D01*
X365700Y188550D01*
Y156050D02*
X365100Y156396D01*
Y155704D01*
X365700Y156050D01*
Y123550D02*
X365100Y123896D01*
Y123204D01*
X365700Y123550D01*
Y91050D02*
X365100Y91396D01*
Y90704D01*
X365700Y91050D01*
Y58550D02*
X365100Y58896D01*
Y58204D01*
X365700Y58550D01*
M02*
