G04 Layer_Color=8388736*
%FSLAX25Y25*%
%MOIN*%
G70*
G01*
G75*
%ADD68C,0.01000*%
%ADD135C,0.00600*%
%ADD136C,0.00500*%
G54D68*
X296482Y233687D02*
Y249435D01*
X320104D01*
Y233687D02*
Y249435D01*
X296482Y233687D02*
X320104D01*
X305931Y177683D02*
X343576D01*
Y212983D01*
X305931D02*
X343576D01*
X305931Y177683D02*
Y212983D01*
G54D135*
X319513Y238264D02*
Y235065D01*
X317914D01*
X317381Y235598D01*
Y236131D01*
X317914Y236664D01*
X319513D01*
X317914D01*
X317381Y237197D01*
Y237730D01*
X317914Y238264D01*
X319513D01*
X315781Y235065D02*
X314715D01*
X314182Y235598D01*
Y236664D01*
X314715Y237197D01*
X315781D01*
X316314Y236664D01*
Y235598D01*
X315781Y235065D01*
X312582Y237730D02*
Y237197D01*
X313116D01*
X312049D01*
X312582D01*
Y235598D01*
X312049Y235065D01*
X305118Y237730D02*
X305651Y238264D01*
X306717D01*
X307251Y237730D01*
Y237197D01*
X306717Y236664D01*
X305651D01*
X305118Y236131D01*
Y235598D01*
X305651Y235065D01*
X306717D01*
X307251Y235598D01*
X304052Y235065D02*
X302985D01*
X303519D01*
Y237197D01*
X304052D01*
X301386Y235065D02*
X300320D01*
X300853D01*
Y238264D01*
X301386D01*
X298720Y235065D02*
Y238264D01*
Y236131D02*
X297121Y237197D01*
X298720Y236131D02*
X297121Y235065D01*
X338116Y186701D02*
Y182702D01*
X336116D01*
X335450Y183369D01*
Y184035D01*
X336116Y184702D01*
X338116D01*
X336116D01*
X335450Y185368D01*
Y186035D01*
X336116Y186701D01*
X338116D01*
X333451Y182702D02*
X332118D01*
X331451Y183369D01*
Y184702D01*
X332118Y185368D01*
X333451D01*
X334117Y184702D01*
Y183369D01*
X333451Y182702D01*
X329452Y186035D02*
Y185368D01*
X330118D01*
X328785D01*
X329452D01*
Y183369D01*
X328785Y182702D01*
X320122Y186035D02*
X320788Y186701D01*
X322121D01*
X322787Y186035D01*
Y185368D01*
X322121Y184702D01*
X320788D01*
X320122Y184035D01*
Y183369D01*
X320788Y182702D01*
X322121D01*
X322787Y183369D01*
X318789Y182702D02*
X317456D01*
X318122D01*
Y185368D01*
X318789D01*
X315456Y182702D02*
X314124D01*
X314790D01*
Y186701D01*
X315456D01*
X312124Y182702D02*
Y186701D01*
Y184035D02*
X310125Y185368D01*
X312124Y184035D02*
X310125Y182702D01*
G54D136*
X312821Y240183D02*
Y243182D01*
X311321D01*
X310821Y242682D01*
Y241682D01*
X311321Y241182D01*
X312821D01*
X311821D02*
X310821Y240183D01*
X308322Y243182D02*
X309322D01*
X309821Y242682D01*
Y240683D01*
X309322Y240183D01*
X308322D01*
X307822Y240683D01*
Y242682D01*
X308322Y243182D01*
X306822D02*
Y240183D01*
Y241682D01*
X304823D01*
Y243182D01*
Y240183D01*
X301824Y242682D02*
X302324Y243182D01*
X303324D01*
X303823Y242682D01*
Y242182D01*
X303324Y241682D01*
X302324D01*
X301824Y241182D01*
Y240683D01*
X302324Y240183D01*
X303324D01*
X303823Y240683D01*
X320611Y196825D02*
Y194326D01*
X320111Y193826D01*
X319111D01*
X318612Y194326D01*
Y196825D01*
X317612D02*
Y193826D01*
X315613D01*
M02*
