G04 Layer_Color=65535*
%FSLAX25Y25*%
%MOIN*%
G70*
G01*
G75*
%ADD11C,0.00800*%
%ADD64C,0.00700*%
%ADD67C,0.01000*%
%ADD110C,0.03000*%
%ADD133C,0.00984*%
%ADD134C,0.00394*%
%ADD135C,0.00600*%
%ADD136C,0.00000*%
%ADD137C,0.00500*%
%ADD138C,0.01000*%
%ADD139C,0.00787*%
%ADD140C,0.00200*%
%ADD141C,0.00400*%
%ADD142C,0.00197*%
%ADD143R,0.02953X0.08790*%
%ADD144R,0.24505X0.04921*%
%ADD145R,0.01190X0.01200*%
%ADD146R,0.00600X0.01200*%
%ADD147R,0.00590X0.01200*%
%ADD148R,0.08790X0.02953*%
%ADD149R,0.01200X0.01190*%
%ADD150R,0.01200X0.00600*%
%ADD151R,0.01200X0.00590*%
G36*
X272693Y104396D02*
Y104389D01*
Y104378D01*
Y104364D01*
Y104343D01*
X272689Y104321D01*
X272686Y104264D01*
X272678Y104203D01*
X272668Y104131D01*
X272650Y104056D01*
X272625Y103981D01*
Y103978D01*
X272618Y103967D01*
X272610Y103949D01*
X272600Y103924D01*
X272589Y103892D01*
X272571Y103856D01*
X272550Y103816D01*
X272528Y103773D01*
X272503Y103723D01*
X272471Y103673D01*
X272403Y103562D01*
X272321Y103444D01*
X272224Y103322D01*
X272220Y103319D01*
X272210Y103308D01*
X272195Y103290D01*
X272174Y103265D01*
X272145Y103233D01*
X272109Y103197D01*
X272070Y103154D01*
X272020Y103108D01*
X271966Y103054D01*
X271909Y102997D01*
X271844Y102936D01*
X271773Y102868D01*
X271694Y102800D01*
X271612Y102728D01*
X271522Y102653D01*
X271429Y102574D01*
X271426Y102571D01*
X271418Y102567D01*
X271408Y102556D01*
X271393Y102546D01*
X271375Y102528D01*
X271354Y102510D01*
X271300Y102463D01*
X271232Y102410D01*
X271161Y102341D01*
X271078Y102270D01*
X270992Y102191D01*
X270899Y102109D01*
X270810Y102023D01*
X270717Y101937D01*
X270631Y101848D01*
X270545Y101761D01*
X270470Y101679D01*
X270398Y101597D01*
X270341Y101522D01*
X270337Y101518D01*
X270330Y101504D01*
X270316Y101482D01*
X270294Y101457D01*
X270273Y101421D01*
X270251Y101382D01*
X270223Y101336D01*
X270198Y101285D01*
X270173Y101232D01*
X270144Y101174D01*
X270097Y101049D01*
X270079Y100985D01*
X270065Y100920D01*
X270058Y100856D01*
X270054Y100791D01*
Y100788D01*
Y100774D01*
Y100756D01*
X270058Y100731D01*
X270061Y100698D01*
X270069Y100663D01*
X270076Y100623D01*
X270087Y100580D01*
X270101Y100534D01*
X270119Y100484D01*
X270140Y100433D01*
X270165Y100383D01*
X270194Y100329D01*
X270230Y100279D01*
X270269Y100229D01*
X270316Y100183D01*
X270319Y100179D01*
X270326Y100172D01*
X270341Y100161D01*
X270362Y100143D01*
X270387Y100126D01*
X270420Y100104D01*
X270455Y100079D01*
X270495Y100057D01*
X270541Y100032D01*
X270591Y100011D01*
X270649Y99989D01*
X270706Y99971D01*
X270770Y99954D01*
X270838Y99943D01*
X270910Y99936D01*
X270985Y99932D01*
X271028D01*
X271057Y99936D01*
X271096Y99939D01*
X271139Y99946D01*
X271186Y99954D01*
X271239Y99964D01*
X271293Y99979D01*
X271350Y99997D01*
X271408Y100018D01*
X271468Y100043D01*
X271526Y100075D01*
X271583Y100111D01*
X271640Y100151D01*
X271690Y100197D01*
X271694Y100201D01*
X271701Y100208D01*
X271715Y100226D01*
X271730Y100244D01*
X271751Y100272D01*
X271773Y100304D01*
X271798Y100344D01*
X271819Y100387D01*
X271844Y100433D01*
X271869Y100491D01*
X271891Y100548D01*
X271912Y100612D01*
X271927Y100684D01*
X271941Y100759D01*
X271948Y100838D01*
X271952Y100924D01*
X272578Y100859D01*
Y100856D01*
Y100852D01*
X272575Y100841D01*
Y100827D01*
X272571Y100791D01*
X272560Y100745D01*
X272550Y100688D01*
X272535Y100619D01*
X272517Y100544D01*
X272496Y100466D01*
X272467Y100380D01*
X272435Y100294D01*
X272396Y100204D01*
X272349Y100115D01*
X272299Y100029D01*
X272238Y99946D01*
X272174Y99868D01*
X272099Y99796D01*
X272095Y99792D01*
X272081Y99782D01*
X272056Y99760D01*
X272023Y99739D01*
X271980Y99710D01*
X271930Y99678D01*
X271869Y99646D01*
X271801Y99610D01*
X271723Y99578D01*
X271640Y99546D01*
X271547Y99513D01*
X271447Y99485D01*
X271340Y99460D01*
X271225Y99442D01*
X271103Y99431D01*
X270974Y99427D01*
X270942D01*
X270906Y99431D01*
X270856Y99435D01*
X270795Y99438D01*
X270727Y99449D01*
X270649Y99460D01*
X270566Y99477D01*
X270477Y99499D01*
X270387Y99524D01*
X270291Y99556D01*
X270198Y99596D01*
X270105Y99642D01*
X270015Y99692D01*
X269929Y99753D01*
X269847Y99825D01*
X269843Y99828D01*
X269829Y99843D01*
X269807Y99864D01*
X269782Y99896D01*
X269750Y99932D01*
X269714Y99979D01*
X269675Y100032D01*
X269636Y100093D01*
X269600Y100161D01*
X269560Y100236D01*
X269525Y100319D01*
X269492Y100405D01*
X269467Y100498D01*
X269446Y100594D01*
X269431Y100698D01*
X269428Y100806D01*
Y100809D01*
Y100820D01*
Y100834D01*
Y100856D01*
X269431Y100884D01*
X269435Y100913D01*
X269439Y100949D01*
X269442Y100988D01*
X269457Y101078D01*
X269478Y101178D01*
X269510Y101282D01*
X269550Y101389D01*
Y101393D01*
X269557Y101403D01*
X269564Y101418D01*
X269575Y101439D01*
X269585Y101464D01*
X269603Y101497D01*
X269621Y101532D01*
X269646Y101572D01*
X269671Y101615D01*
X269700Y101661D01*
X269772Y101765D01*
X269811Y101819D01*
X269854Y101876D01*
X269904Y101933D01*
X269954Y101994D01*
X269958Y101998D01*
X269969Y102009D01*
X269983Y102026D01*
X270008Y102051D01*
X270040Y102084D01*
X270079Y102123D01*
X270122Y102170D01*
X270176Y102223D01*
X270237Y102281D01*
X270309Y102345D01*
X270384Y102417D01*
X270470Y102495D01*
X270563Y102578D01*
X270663Y102667D01*
X270774Y102764D01*
X270892Y102864D01*
X270899Y102868D01*
X270917Y102886D01*
X270942Y102907D01*
X270978Y102939D01*
X271025Y102975D01*
X271071Y103018D01*
X271125Y103065D01*
X271182Y103115D01*
X271304Y103219D01*
X271361Y103272D01*
X271418Y103322D01*
X271472Y103373D01*
X271519Y103416D01*
X271562Y103455D01*
X271594Y103491D01*
X271601Y103498D01*
X271619Y103519D01*
X271648Y103551D01*
X271683Y103591D01*
X271723Y103641D01*
X271766Y103695D01*
X271809Y103756D01*
X271848Y103816D01*
X269421D01*
Y104400D01*
X272693D01*
Y104396D01*
D02*
G37*
G36*
X289983Y100526D02*
X289986Y100530D01*
X289994Y100537D01*
X290004Y100548D01*
X290022Y100562D01*
X290044Y100580D01*
X290072Y100605D01*
X290105Y100630D01*
X290137Y100659D01*
X290180Y100688D01*
X290223Y100723D01*
X290269Y100756D01*
X290319Y100795D01*
X290377Y100831D01*
X290434Y100870D01*
X290563Y100949D01*
X290566Y100952D01*
X290577Y100960D01*
X290599Y100970D01*
X290624Y100981D01*
X290652Y100999D01*
X290688Y101021D01*
X290731Y101042D01*
X290774Y101067D01*
X290874Y101117D01*
X290982Y101167D01*
X291093Y101217D01*
X291200Y101260D01*
Y100673D01*
X291193Y100670D01*
X291178Y100663D01*
X291150Y100648D01*
X291114Y100630D01*
X291071Y100609D01*
X291017Y100580D01*
X290960Y100548D01*
X290899Y100512D01*
X290831Y100469D01*
X290760Y100426D01*
X290609Y100326D01*
X290455Y100215D01*
X290309Y100093D01*
X290305Y100090D01*
X290291Y100079D01*
X290273Y100061D01*
X290248Y100036D01*
X290215Y100004D01*
X290180Y99968D01*
X290140Y99925D01*
X290097Y99882D01*
X290054Y99832D01*
X290008Y99778D01*
X289918Y99667D01*
X289836Y99549D01*
X289800Y99488D01*
X289768Y99427D01*
X289374D01*
Y104400D01*
X289983D01*
Y100526D01*
D02*
G37*
G54D11*
X334200Y202100D02*
X334983Y202676D01*
X335514Y203490D01*
X335726Y204438D01*
X335592Y205401D01*
X335129Y206256D01*
X334396Y206894D01*
X333486Y207235D01*
X332514D01*
X331604Y206894D01*
X330871Y206256D01*
X330408Y205401D01*
X330274Y204438D01*
X330486Y203490D01*
X331017Y202676D01*
X331800Y202100D01*
X326900Y203000D02*
X327228Y202068D01*
X327700Y201200D01*
X327700Y207800D02*
X327226Y206933D01*
X326900Y206000D01*
X331500Y210500D02*
X330623Y210215D01*
X329800Y209800D01*
X336200Y209800D02*
X335331Y210270D01*
X334400Y210600D01*
X339200Y206000D02*
X338828Y206939D01*
X338300Y207800D01*
Y201200D02*
X338786Y202166D01*
X339100Y203200D01*
X299105Y185816D02*
X298561Y186565D01*
X297681Y186279D01*
Y185353D01*
X298561Y185067D01*
X299105Y185816D01*
X323713Y176700D02*
Y179554D01*
X304765Y176700D02*
Y179554D01*
X285004Y60268D02*
X287858D01*
X285004Y41319D02*
X287858D01*
X330300Y198700D02*
X331800Y202100D01*
X329600Y199100D02*
X330300Y198700D01*
X327800Y197900D02*
X329600Y199100D01*
X326400Y199300D02*
X327800Y197900D01*
X326400Y199300D02*
X327600Y201100D01*
X324600Y203500D02*
X326800Y203100D01*
X324600Y203500D02*
Y205500D01*
X326900Y205900D01*
X326400Y209700D02*
X327700Y207800D01*
X326400Y209700D02*
X327800Y211100D01*
X329700Y209800D01*
X331500Y210500D02*
X332000Y212900D01*
X333900D01*
X334400Y210500D01*
X336200Y209800D02*
X338200Y211100D01*
X339600Y209700D01*
X338200Y207800D02*
X339600Y209700D01*
X339100Y205900D02*
X341300Y205500D01*
Y203500D02*
Y205500D01*
X339100Y203100D02*
X341300Y203500D01*
X338300Y201100D02*
X339600Y199300D01*
X338200Y197900D02*
X339600Y199300D01*
X336400Y199100D02*
X338200Y197900D01*
X335600Y198700D02*
X336400Y199100D01*
X334200Y202100D02*
X335600Y198700D01*
X306533Y141419D02*
X314470D01*
X310533Y135951D02*
X314470Y141419D01*
X306533D02*
X310533Y135951D01*
X277400Y185127D02*
X296349D01*
Y172115D02*
Y185127D01*
Y187096D01*
X277400Y185127D02*
Y187096D01*
Y172115D02*
Y185127D01*
X168800Y242000D02*
X170466D01*
X169633D01*
Y246998D01*
X168800Y246165D01*
X263935Y271567D02*
Y274899D01*
X267267Y271567D01*
X268100D01*
X268933Y272400D01*
Y274066D01*
X268100Y274899D01*
X233423Y274309D02*
Y272642D01*
Y273476D01*
X238421D01*
X237588Y274309D01*
X196900Y107498D02*
X200232D01*
X198566D01*
Y102500D01*
X201898Y107498D02*
Y102500D01*
Y104999D01*
X202731Y105832D01*
X204398D01*
X205231Y104999D01*
Y102500D01*
X209396D02*
X207730D01*
X206897Y103333D01*
Y104999D01*
X207730Y105832D01*
X209396D01*
X210229Y104999D01*
Y104166D01*
X206897D01*
X211895Y105832D02*
Y102500D01*
Y104166D01*
X212728Y104999D01*
X213561Y105832D01*
X214394D01*
X216894Y102500D02*
Y105832D01*
X217727D01*
X218560Y104999D01*
Y102500D01*
Y104999D01*
X219393Y105832D01*
X220226Y104999D01*
Y102500D01*
X26802Y212332D02*
Y209000D01*
X31800D01*
Y212332D01*
X29301Y209000D02*
Y210666D01*
X31800Y213998D02*
X28468D01*
Y216498D01*
X29301Y217331D01*
X31800D01*
X26802Y222329D02*
X31800D01*
Y219830D01*
X30967Y218997D01*
X29301D01*
X28468Y219830D01*
Y222329D01*
X31800Y223995D02*
Y226494D01*
X30967Y227327D01*
X30134Y226494D01*
Y224828D01*
X29301Y223995D01*
X28468Y224828D01*
Y227327D01*
X27635Y229827D02*
X28468D01*
Y228994D01*
Y230660D01*
Y229827D01*
X30967D01*
X31800Y230660D01*
Y233992D02*
Y235658D01*
X30967Y236491D01*
X29301D01*
X28468Y235658D01*
Y233992D01*
X29301Y233159D01*
X30967D01*
X31800Y233992D01*
X33466Y238157D02*
X28468D01*
Y240656D01*
X29301Y241490D01*
X30967D01*
X31800Y240656D01*
Y238157D01*
Y243156D02*
Y245655D01*
X30967Y246488D01*
X30134Y245655D01*
Y243989D01*
X29301Y243156D01*
X28468Y243989D01*
Y246488D01*
X105300Y115700D02*
Y120698D01*
X106966Y119032D01*
X108632Y120698D01*
Y115700D01*
X111131D02*
X112798D01*
X113631Y116533D01*
Y118199D01*
X112798Y119032D01*
X111131D01*
X110298Y118199D01*
Y116533D01*
X111131Y115700D01*
X116130Y119865D02*
Y119032D01*
X115297D01*
X116963D01*
X116130D01*
Y116533D01*
X116963Y115700D01*
X120295D02*
X121961D01*
X122794Y116533D01*
Y118199D01*
X121961Y119032D01*
X120295D01*
X119462Y118199D01*
Y116533D01*
X120295Y115700D01*
X124460Y119032D02*
Y115700D01*
Y117366D01*
X125294Y118199D01*
X126127Y119032D01*
X126960D01*
X129459Y115700D02*
X131958D01*
X132791Y116533D01*
X131958Y117366D01*
X130292D01*
X129459Y118199D01*
X130292Y119032D01*
X132791D01*
X410101Y55700D02*
Y59032D01*
X408435Y57366D02*
X411767D01*
X410101Y90689D02*
Y94021D01*
X230200Y100198D02*
X233532D01*
X231866D01*
Y95200D01*
X238531D02*
X235198D01*
X238531Y98532D01*
Y99365D01*
X237698Y100198D01*
X236031D01*
X235198Y99365D01*
X200200Y148898D02*
X203532D01*
X201866D01*
Y143900D01*
X205198D02*
X206865D01*
X206031D01*
Y148898D01*
X205198Y148065D01*
X225700Y200098D02*
X229032D01*
X227366D01*
Y195100D01*
X230698Y199265D02*
X231531Y200098D01*
X233198D01*
X234031Y199265D01*
Y195933D01*
X233198Y195100D01*
X231531D01*
X230698Y195933D01*
Y199265D01*
X291566Y275199D02*
X288900D01*
Y271200D01*
X291566D01*
X288900Y273199D02*
X290233D01*
X292899Y275199D02*
X294232D01*
X293565D01*
Y271200D01*
X292899D01*
X294232D01*
X296231D02*
Y275199D01*
X298897Y271200D01*
Y275199D01*
X300230D02*
Y274532D01*
X301563Y273199D01*
X302895Y274532D01*
Y275199D01*
X301563Y273199D02*
Y271200D01*
X308227Y274532D02*
X308894Y275199D01*
X310226D01*
X310893Y274532D01*
Y271866D01*
X310226Y271200D01*
X308894D01*
X308227Y271866D01*
Y274532D01*
X312226Y271200D02*
Y271866D01*
X312892D01*
Y271200D01*
X312226D01*
X318224D02*
X315558D01*
X318224Y273866D01*
Y274532D01*
X317557Y275199D01*
X316225D01*
X315558Y274532D01*
X320223Y273866D02*
X321556D01*
X322223Y273199D01*
Y271200D01*
X320223D01*
X319557Y271866D01*
X320223Y272533D01*
X322223D01*
X413000Y60400D02*
X408002D01*
Y62899D01*
X408835Y63732D01*
X410501D01*
X411334Y62899D01*
Y60400D01*
X408002Y65398D02*
X413000D01*
X411334Y67064D01*
X413000Y68731D01*
X408002D01*
X413000Y70397D02*
X408002D01*
Y72896D01*
X408835Y73729D01*
X410501D01*
X411334Y72896D01*
Y70397D01*
Y72063D02*
X413000Y73729D01*
X408002Y80393D02*
Y82060D01*
Y81227D01*
X413000D01*
Y80393D01*
Y82060D01*
Y84559D02*
X408002D01*
X413000Y87891D01*
X408002D01*
X407602Y125300D02*
X412600D01*
Y127799D01*
X411767Y128632D01*
X410934D01*
X410101Y127799D01*
Y125300D01*
Y127799D01*
X409268Y128632D01*
X408435D01*
X407602Y127799D01*
Y125300D01*
Y133631D02*
Y130298D01*
X412600D01*
Y133631D01*
X410101Y130298D02*
Y131965D01*
X407602Y135297D02*
X412600D01*
Y137796D01*
X411767Y138629D01*
X408435D01*
X407602Y137796D01*
Y135297D01*
Y145293D02*
Y146960D01*
Y146127D01*
X412600D01*
Y145293D01*
Y146960D01*
Y149459D02*
X407602D01*
X412600Y152791D01*
X407602D01*
X293909Y178372D02*
X290576D01*
X293909Y181704D01*
Y182537D01*
X293076Y183370D01*
X291409D01*
X290576Y182537D01*
X297102Y183032D02*
Y179700D01*
X299601D01*
Y181366D01*
Y179700D01*
X302100D01*
X298768Y185531D02*
Y187198D01*
X299601Y188031D01*
X302100D01*
Y185531D01*
X301267Y184698D01*
X300434Y185531D01*
Y188031D01*
X302100Y189697D02*
X298768D01*
Y192196D01*
X299601Y193029D01*
X302100D01*
Y194695D02*
Y197194D01*
X301267Y198027D01*
X300434Y197194D01*
Y195528D01*
X299601Y194695D01*
X298768Y195528D01*
Y198027D01*
X294300Y170800D02*
X295966D01*
X295133D01*
Y175798D01*
X294300Y174965D01*
X410101Y120200D02*
Y123532D01*
X408435Y121866D02*
X411767D01*
X410101Y155189D02*
Y158521D01*
Y184200D02*
Y187532D01*
X408435Y185866D02*
X411767D01*
X410101Y229185D02*
Y232518D01*
X407602Y192800D02*
X412600D01*
Y195299D01*
X411767Y196132D01*
X410934D01*
X410101Y195299D01*
Y192800D01*
Y195299D01*
X409268Y196132D01*
X408435D01*
X407602Y195299D01*
Y192800D01*
Y201131D02*
Y197798D01*
X412600D01*
Y201131D01*
X410101Y197798D02*
Y199464D01*
X407602Y202797D02*
X412600D01*
Y205296D01*
X411767Y206129D01*
X408435D01*
X407602Y205296D01*
Y202797D01*
Y215293D02*
Y213627D01*
X408435Y212793D01*
X411767D01*
X412600Y213627D01*
Y215293D01*
X411767Y216126D01*
X408435D01*
X407602Y215293D01*
Y217792D02*
X411767D01*
X412600Y218625D01*
Y220291D01*
X411767Y221124D01*
X407602D01*
Y222790D02*
Y226122D01*
Y224456D01*
X412600D01*
G54D64*
X357566Y5899D02*
X354900D01*
Y3899D01*
X356233D01*
X354900D01*
Y1900D01*
X358899D02*
X360232D01*
X359565D01*
Y5899D01*
X358899Y5232D01*
X291466Y5499D02*
X288800D01*
Y3499D01*
X290133D01*
X288800D01*
Y1500D01*
X295464D02*
X292799D01*
X295464Y4166D01*
Y4832D01*
X294798Y5499D01*
X293465D01*
X292799Y4832D01*
X335266Y186199D02*
X332600D01*
Y184199D01*
X333933D01*
X332600D01*
Y182200D01*
X336599Y185532D02*
X337265Y186199D01*
X338598D01*
X339264Y185532D01*
Y184866D01*
X338598Y184199D01*
X337932D01*
X338598D01*
X339264Y183533D01*
Y182867D01*
X338598Y182200D01*
X337265D01*
X336599Y182867D01*
X271800Y244800D02*
X267801D01*
Y246799D01*
X268468Y247466D01*
X269801D01*
X270467Y246799D01*
Y244800D01*
X268468Y248799D02*
X267801Y249465D01*
Y250798D01*
X268468Y251465D01*
X269134D01*
X269801Y250798D01*
Y250132D01*
Y250798D01*
X270467Y251465D01*
X271134D01*
X271800Y250798D01*
Y249465D01*
X271134Y248799D01*
X366766Y246299D02*
X365433D01*
X366099D01*
Y242966D01*
X365433Y242300D01*
X364766D01*
X364100Y242966D01*
X368099Y242300D02*
X369432D01*
X368765D01*
Y246299D01*
X368099Y245632D01*
X239400Y90799D02*
X242066Y86800D01*
Y90799D02*
X239400Y86800D01*
X243399D02*
X244732D01*
X244065D01*
Y90799D01*
X243399Y90132D01*
X246731D02*
X247397Y90799D01*
X248730D01*
X249397Y90132D01*
Y89466D01*
X248730Y88799D01*
X248064D01*
X248730D01*
X249397Y88133D01*
Y87466D01*
X248730Y86800D01*
X247397D01*
X246731Y87466D01*
X189566Y89799D02*
X186900D01*
Y85800D01*
X189566D01*
X186900Y87799D02*
X188233D01*
X190899Y85800D02*
Y89799D01*
X192898D01*
X193564Y89132D01*
Y87799D01*
X192898Y87133D01*
X190899D01*
X192232D02*
X193564Y85800D01*
X197563Y89799D02*
X194897D01*
Y85800D01*
X197563D01*
X194897Y87799D02*
X196230D01*
X201562Y89799D02*
X198896D01*
Y87799D01*
X200229D01*
X198896D01*
Y85800D01*
X183000Y62099D02*
X185666D01*
Y61432D01*
X183000Y58766D01*
Y58100D01*
X185666D01*
X186999D02*
Y62099D01*
X188998D01*
X189664Y61432D01*
Y60099D01*
X188998Y59433D01*
X186999D01*
X188332D02*
X189664Y58100D01*
X193663Y62099D02*
X190997D01*
Y58100D01*
X193663D01*
X190997Y60099D02*
X192330D01*
X197662Y62099D02*
X194996D01*
Y60099D01*
X196329D01*
X194996D01*
Y58100D01*
X151101Y71200D02*
X155100Y73866D01*
X151101D02*
X155100Y71200D01*
Y75199D02*
X151101D01*
Y77198D01*
X151768Y77864D01*
X153101D01*
X153767Y77198D01*
Y75199D01*
Y76532D02*
X155100Y77864D01*
X151101Y81863D02*
Y79197D01*
X155100D01*
Y81863D01*
X153101Y79197D02*
Y80530D01*
X151101Y85862D02*
Y83196D01*
X153101D01*
Y84529D01*
Y83196D01*
X155100D01*
X348600Y275299D02*
Y272300D01*
X349200Y271700D01*
X350399D01*
X350999Y272300D01*
Y275299D01*
X352199Y271700D02*
X353398D01*
X352799D01*
Y275299D01*
X352199D01*
X355798Y274699D02*
Y274099D01*
X355198D01*
X356398D01*
X355798D01*
Y272300D01*
X356398Y271700D01*
X358197D02*
X359397D01*
X358797D01*
Y274099D01*
X358197D01*
X361196Y271700D02*
Y275299D01*
X362396Y274099D01*
X363595Y275299D01*
Y271700D01*
X365395Y274099D02*
X366594D01*
X367194Y273499D01*
Y271700D01*
X365395D01*
X364795Y272300D01*
X365395Y272900D01*
X367194D01*
X370793Y274099D02*
X368993D01*
X368394Y273499D01*
Y272300D01*
X368993Y271700D01*
X370793D01*
X371992Y275299D02*
Y271700D01*
Y273499D01*
X372592Y274099D01*
X373792D01*
X374392Y273499D01*
Y271700D01*
X375591D02*
X376791D01*
X376191D01*
Y274099D01*
X375591D01*
X378590Y271700D02*
Y274099D01*
X380390D01*
X380990Y273499D01*
Y271700D01*
X383989D02*
X382789D01*
X382189Y272300D01*
Y273499D01*
X382789Y274099D01*
X383989D01*
X384588Y273499D01*
Y272900D01*
X382189D01*
X260266Y109399D02*
X257600D01*
Y105400D01*
X260266D01*
X257600Y107399D02*
X258933D01*
X261599Y109399D02*
X264264Y105400D01*
Y109399D02*
X261599Y105400D01*
X265597Y109399D02*
X268263D01*
X266930D01*
Y105400D01*
X269596D02*
Y109399D01*
X271596D01*
X272262Y108732D01*
Y107399D01*
X271596Y106733D01*
X269596D01*
X270929D02*
X272262Y105400D01*
X273595Y109399D02*
Y106067D01*
X274261Y105400D01*
X275594D01*
X276261Y106067D01*
Y109399D01*
X277594D02*
Y105400D01*
X279593D01*
X280259Y106067D01*
Y108732D01*
X279593Y109399D01*
X277594D01*
X284258D02*
X281592D01*
Y105400D01*
X284258D01*
X281592Y107399D02*
X282925D01*
X285591Y105400D02*
Y109399D01*
X287590D01*
X288257Y108732D01*
Y107399D01*
X287590Y106733D01*
X285591D01*
X286924D02*
X288257Y105400D01*
X170500Y203300D02*
X171566D01*
X171033D01*
Y206499D01*
X170500Y205966D01*
G54D67*
X40698Y211657D02*
X40037Y212038D01*
Y211276D01*
X40698Y211657D01*
X187979Y177222D02*
X187479Y178088D01*
X186479D01*
X185979Y177222D01*
X186479Y176356D01*
X187479D01*
X187979Y177222D01*
X74968Y76400D02*
X74232D01*
X74968D01*
X48300Y204356D02*
X47640Y204737D01*
Y203975D01*
X48300Y204356D01*
X-12376Y176797D02*
X49684D01*
X-12376Y130269D02*
Y176797D01*
Y130269D02*
X49684D01*
Y176797D01*
X356300Y39050D02*
X406300D01*
Y240550D01*
X356300D02*
X406300D01*
X356300Y39050D02*
Y240550D01*
X275742Y253179D02*
X293500D01*
X275742Y263100D02*
X293500D01*
X280100Y122821D02*
X297858D01*
X280100Y112900D02*
X297858D01*
X187979Y181159D02*
X190879Y178206D01*
Y127000D02*
Y178206D01*
X189879Y126000D02*
X190879Y127000D01*
X136704Y126000D02*
X189879D01*
X135720Y127000D02*
X136704Y126000D01*
X135720Y127000D02*
Y180175D01*
X136704Y181159D01*
X187979D01*
X35089Y113542D02*
X37845Y116298D01*
Y116298D02*
X58711D01*
X35089Y109606D02*
Y113542D01*
X37845Y91102D02*
X58711D01*
X35089Y93858D02*
X37845Y91102D01*
X35089Y93858D02*
Y97795D01*
X58711Y91102D02*
Y97795D01*
Y109606D02*
Y116298D01*
X240200Y225300D02*
X262750D01*
X240200Y195300D02*
Y225300D01*
Y195300D02*
X262750D01*
Y196550D01*
X266500D01*
Y224100D01*
X262750D02*
X266500D01*
X262750D02*
Y225300D01*
X191600Y27063D02*
X202800D01*
Y30813D01*
X230350Y27063D02*
X241600D01*
Y4513D02*
Y27063D01*
X191600Y4513D02*
X241600D01*
X191600D02*
Y27063D01*
X237112Y10013D02*
Y21521D01*
X196000Y10013D02*
X237112D01*
X196000D02*
Y21521D01*
X237112D01*
X202727Y27035D02*
X230277D01*
X202800Y30813D02*
X230350D01*
Y27063D02*
Y30813D01*
X124071Y224996D02*
X151620D01*
X157820D02*
Y247546D01*
X117821D02*
X157820D01*
X117821Y224996D02*
Y247546D01*
Y224996D02*
X124071D01*
Y221246D02*
Y224996D01*
Y221246D02*
X151620D01*
Y224996D01*
X157820D01*
X140380Y54582D02*
X151579D01*
Y58332D01*
X179130Y54582D02*
X190380D01*
Y32032D02*
Y54582D01*
X140380Y32032D02*
X190380D01*
X140380D02*
Y54582D01*
X185891Y37532D02*
Y49041D01*
X144780Y37532D02*
X185891D01*
X144780D02*
Y49041D01*
X185891D01*
X151506Y54555D02*
X179056D01*
X151579Y58332D02*
X179130D01*
Y54582D02*
Y58332D01*
X140380Y27023D02*
X151579D01*
Y30773D01*
X179130Y27023D02*
X190380D01*
Y4473D02*
Y27023D01*
X140380Y4473D02*
X190380D01*
X140380D02*
Y27023D01*
X185891Y9973D02*
Y21482D01*
X144780Y9973D02*
X185891D01*
X144780D02*
Y21482D01*
X185891D01*
X151506Y26996D02*
X179056D01*
X151579Y30773D02*
X179130D01*
Y27023D02*
Y30773D01*
X89198Y27023D02*
X100398D01*
Y30773D01*
X127948Y27023D02*
X139198D01*
Y4473D02*
Y27023D01*
X89198Y4473D02*
X139198D01*
X89198D02*
Y27023D01*
X134710Y9973D02*
Y21482D01*
X93598Y9973D02*
X134710D01*
X93598D02*
Y21482D01*
X134710D01*
X100325Y26996D02*
X127875D01*
X100398Y30773D02*
X127948D01*
Y27023D02*
Y30773D01*
X38017Y27023D02*
X49217D01*
Y30773D01*
X76767Y27023D02*
X88017D01*
Y4473D02*
Y27023D01*
X38017Y4473D02*
X88017D01*
X38017D02*
Y27023D01*
X83529Y9973D02*
Y21482D01*
X42417Y9973D02*
X83529D01*
X42417D02*
Y21482D01*
X83529D01*
X49144Y26996D02*
X76694D01*
X49217Y30773D02*
X76767D01*
Y27023D02*
Y30773D01*
X225389Y163765D02*
X247939D01*
Y193765D01*
X225389D02*
X247939D01*
X225389Y192515D02*
Y193765D01*
X221639Y192515D02*
X225389D01*
X221639Y164965D02*
Y192515D01*
Y164965D02*
X225389D01*
Y163765D02*
Y164965D01*
Y132663D02*
X247939D01*
Y162663D01*
X225389D02*
X247939D01*
X225389Y161413D02*
Y162663D01*
X221639Y161413D02*
X225389D01*
X221639Y133863D02*
Y161413D01*
Y133863D02*
X225389D01*
Y132663D02*
Y133863D01*
X272250Y159950D02*
Y187500D01*
X249700Y193700D02*
X272250D01*
X249700Y153700D02*
Y193700D01*
Y153700D02*
X272250D01*
Y159950D01*
X276000D01*
Y187500D01*
X272250D02*
X276000D01*
X272250D02*
Y193700D01*
X272150Y118550D02*
Y146100D01*
X249600Y152300D02*
X272150D01*
X249600Y112300D02*
Y152300D01*
Y112300D02*
X272150D01*
Y118550D01*
X275900D01*
Y146100D01*
X272150D02*
X275900D01*
X272150D02*
Y152300D01*
X225389Y101561D02*
X247939D01*
Y131561D01*
X225389D02*
X247939D01*
X225389Y130311D02*
Y131561D01*
X221639Y130311D02*
X225389D01*
X221639Y102761D02*
Y130311D01*
Y102761D02*
X225389D01*
Y101561D02*
Y102761D01*
X124021Y271118D02*
X151570D01*
X117821Y248568D02*
Y271118D01*
Y248568D02*
X157820D01*
Y271118D01*
X151570D02*
X157820D01*
X151570D02*
Y274868D01*
X124021D02*
X151570D01*
X124021Y271118D02*
Y274868D01*
X117821Y271118D02*
X124021D01*
X82682D02*
X110232D01*
X76482Y248568D02*
Y271118D01*
Y248568D02*
X116482D01*
Y271118D01*
X110232D02*
X116482D01*
X110232D02*
Y274868D01*
X82682D02*
X110232D01*
X82682Y271118D02*
Y274868D01*
X76482Y271118D02*
X82682D01*
X41343D02*
X68893D01*
X35143Y248568D02*
Y271118D01*
Y248568D02*
X75143D01*
Y271118D01*
X68893D02*
X75143D01*
X68893D02*
Y274868D01*
X41343D02*
X68893D01*
X41343Y271118D02*
Y274868D01*
X35143Y271118D02*
X41343D01*
X41393Y224996D02*
X68943D01*
X75143D02*
Y247546D01*
X35143D02*
X75143D01*
X35143Y224996D02*
Y247546D01*
Y224996D02*
X41393D01*
Y221246D02*
Y224996D01*
Y221246D02*
X68943D01*
Y224996D01*
X75143D01*
X82732D02*
X110282D01*
X116482D02*
Y247546D01*
X76482D02*
X116482D01*
X76482Y224996D02*
Y247546D01*
Y224996D02*
X82732D01*
Y221246D02*
Y224996D01*
Y221246D02*
X110282D01*
Y224996D01*
X116482D01*
X297000Y221800D02*
X298300Y223200D01*
X274672Y31289D02*
X292430D01*
X274672Y21368D02*
X292430D01*
X274581Y19304D02*
X292339D01*
X274581Y9383D02*
X292339D01*
X353621Y185942D02*
Y203700D01*
X343700Y185942D02*
Y203700D01*
X128453Y110343D02*
X131209Y113098D01*
Y113098D02*
X152075D01*
X128453Y106405D02*
Y110343D01*
X131209Y87902D02*
X152075D01*
X128453Y90658D02*
X131209Y87902D01*
X128453Y90658D02*
Y94595D01*
X152075Y87902D02*
Y94595D01*
Y106405D02*
Y113098D01*
X80289Y113042D02*
X83045Y115798D01*
Y115798D02*
X103911D01*
X80289Y109106D02*
Y113042D01*
X83045Y90602D02*
X103911D01*
X80289Y93357D02*
X83045Y90602D01*
X80289Y93357D02*
Y97294D01*
X103911Y90602D02*
Y97294D01*
Y109106D02*
Y115798D01*
X267742Y35811D02*
X270498Y33055D01*
X270498Y12189D02*
Y33055D01*
X263806Y35811D02*
X267742D01*
X245302Y12189D02*
Y33055D01*
X245302D02*
X248058Y35811D01*
X251994D01*
X245302Y12189D02*
X251994D01*
X263806D02*
X270498D01*
X261842Y73011D02*
X264598Y70255D01*
X264598Y49389D02*
Y70255D01*
X257906Y73011D02*
X261842D01*
X239402Y49389D02*
Y70255D01*
X239402D02*
X242158Y73011D01*
X246094D01*
X239402Y49389D02*
X246094D01*
X257906D02*
X264598D01*
X320942Y112011D02*
X323698Y109255D01*
X323698Y88389D02*
Y109255D01*
X317005Y112011D02*
X320942D01*
X298502Y88389D02*
Y109255D01*
X298502D02*
X301257Y112011D01*
X305194D01*
X298502Y88389D02*
X305194D01*
X317005D02*
X323698D01*
X62899Y164998D02*
X58900D01*
Y161999D01*
X60899D01*
X58900D01*
Y159000D01*
X64898Y164998D02*
Y159000D01*
X67897D01*
X68897Y160000D01*
Y160999D01*
X67897Y161999D01*
X64898D01*
X67897D01*
X68897Y162999D01*
Y163998D01*
X67897Y164998D01*
X64898D01*
X74895D02*
X70896D01*
Y161999D01*
X72895Y162999D01*
X73895D01*
X74895Y161999D01*
Y160000D01*
X73895Y159000D01*
X71896D01*
X70896Y160000D01*
X64199Y168098D02*
X63199Y169098D01*
X61200D01*
X60200Y168098D01*
Y164100D01*
X61200Y163100D01*
X63199D01*
X64199Y164100D01*
X66198Y169098D02*
X70197D01*
Y168098D01*
X66198Y164100D01*
Y163100D01*
X75195D02*
Y169098D01*
X72196Y166099D01*
X76195D01*
X205899Y193698D02*
X201900D01*
Y190699D01*
X203899D01*
X201900D01*
Y187700D01*
X207898Y193698D02*
Y187700D01*
X210897D01*
X211897Y188700D01*
Y189699D01*
X210897Y190699D01*
X207898D01*
X210897D01*
X211897Y191699D01*
Y192698D01*
X210897Y193698D01*
X207898D01*
X213896Y192698D02*
X214896Y193698D01*
X216895D01*
X217895Y192698D01*
Y191699D01*
X216895Y190699D01*
X215896D01*
X216895D01*
X217895Y189699D01*
Y188700D01*
X216895Y187700D01*
X214896D01*
X213896Y188700D01*
X205999Y134098D02*
X202000D01*
Y131099D01*
X203999D01*
X202000D01*
Y128100D01*
X207998Y134098D02*
Y128100D01*
X210997D01*
X211997Y129100D01*
Y130099D01*
X210997Y131099D01*
X207998D01*
X210997D01*
X211997Y132099D01*
Y133098D01*
X210997Y134098D01*
X207998D01*
X216995Y128100D02*
Y134098D01*
X213996Y131099D01*
X217995D01*
X141665Y352497D02*
X135000D01*
Y342500D01*
X141665D01*
X135000Y347498D02*
X138332D01*
X144997Y352497D02*
X148329D01*
X146663D01*
Y342500D01*
X144997D01*
X148329D01*
X153327D02*
Y352497D01*
X159992Y342500D01*
Y352497D01*
X163324D02*
Y350831D01*
X166656Y347498D01*
X169989Y350831D01*
Y352497D01*
X166656Y347498D02*
Y342500D01*
X183318Y350831D02*
X184984Y352497D01*
X188316D01*
X189982Y350831D01*
Y344166D01*
X188316Y342500D01*
X184984D01*
X183318Y344166D01*
Y350831D01*
X193315Y342500D02*
Y344166D01*
X194981D01*
Y342500D01*
X193315D01*
X208310D02*
X201645D01*
X208310Y349165D01*
Y350831D01*
X206644Y352497D01*
X203311D01*
X201645Y350831D01*
X213308Y349165D02*
X216640D01*
X218306Y347498D01*
Y342500D01*
X213308D01*
X211642Y344166D01*
X213308Y345832D01*
X218306D01*
X132500Y367497D02*
X139164D01*
X135832D01*
Y357500D01*
X147495Y367497D02*
X144163D01*
X142497Y365831D01*
Y359166D01*
X144163Y357500D01*
X147495D01*
X149161Y359166D01*
Y365831D01*
X147495Y367497D01*
X152494Y357500D02*
Y367497D01*
X157492D01*
X159158Y365831D01*
Y362498D01*
X157492Y360832D01*
X152494D01*
X177486Y367497D02*
X174153D01*
X172487Y365831D01*
Y359166D01*
X174153Y357500D01*
X177486D01*
X179152Y359166D01*
Y365831D01*
X177486Y367497D01*
X182484D02*
Y360832D01*
X185816Y357500D01*
X189148Y360832D01*
Y367497D01*
X199145D02*
X192481D01*
Y357500D01*
X199145D01*
X192481Y362498D02*
X195813D01*
X202477Y357500D02*
Y367497D01*
X207476D01*
X209142Y365831D01*
Y362498D01*
X207476Y360832D01*
X202477D01*
X205810D02*
X209142Y357500D01*
X212474Y367497D02*
Y357500D01*
X219139D01*
X222471D02*
Y364164D01*
X225803Y367497D01*
X229135Y364164D01*
Y357500D01*
Y362498D01*
X222471D01*
X232468Y367497D02*
Y365831D01*
X235800Y362498D01*
X239132Y365831D01*
Y367497D01*
X235800Y362498D02*
Y357500D01*
G54D110*
X41517Y193525D02*
D03*
G54D133*
X329041Y232564D02*
X328303Y232991D01*
Y232138D01*
X329041Y232564D01*
X199803Y74013D02*
X199065Y74440D01*
Y73587D01*
X199803Y74013D01*
X103403D02*
X102665Y74440D01*
Y73587D01*
X103403Y74013D01*
X58403D02*
X57665Y74440D01*
Y73587D01*
X58403Y74013D01*
X13665Y77613D02*
X12927Y78040D01*
Y77187D01*
X13665Y77613D01*
X70151Y159608D02*
X69364D01*
X70151D01*
G54D134*
X206430Y47854D02*
D03*
X216964Y42146D02*
D03*
X206230Y81954D02*
D03*
X216264Y76246D02*
D03*
X110230Y47954D02*
D03*
X120464Y42246D02*
D03*
X119964Y76346D02*
D03*
X109830Y82054D02*
D03*
X65030Y48054D02*
D03*
X75264Y42346D02*
D03*
X64830Y82054D02*
D03*
X74964Y76346D02*
D03*
X20530Y51654D02*
D03*
X30764Y45946D02*
D03*
X29764Y80546D02*
D03*
X19530Y86254D02*
D03*
X273441Y205066D02*
D03*
X279363Y128956D02*
D03*
X287631Y128044D02*
D03*
X273441Y195466D02*
D03*
X223631Y177744D02*
D03*
X215363Y187856D02*
D03*
X221031Y146744D02*
D03*
X212763Y156856D02*
D03*
X219884Y125244D02*
D03*
X211563Y135356D02*
D03*
G54D135*
X291100Y105700D02*
X290480Y106451D01*
X289794Y107141D01*
X289047Y107765D01*
X288245Y108316D01*
X287396Y108791D01*
X286506Y109186D01*
X285583Y109496D01*
X284636Y109720D01*
X283672Y109855D01*
X282700Y109900D01*
X281728Y109855D01*
X280764Y109720D01*
X279817Y109496D01*
X278894Y109186D01*
X278004Y108791D01*
X277155Y108316D01*
X276353Y107765D01*
X275606Y107141D01*
X274920Y106451D01*
X274300Y105700D01*
X271100D02*
X270480Y106451D01*
X269794Y107141D01*
X269047Y107765D01*
X268245Y108316D01*
X267396Y108791D01*
X266506Y109186D01*
X265583Y109496D01*
X264636Y109720D01*
X263672Y109855D01*
X262700Y109900D01*
X261728Y109855D01*
X260764Y109720D01*
X259817Y109496D01*
X258894Y109186D01*
X258004Y108791D01*
X257155Y108316D01*
X256353Y107765D01*
X255606Y107141D01*
X254920Y106451D01*
X254300Y105700D01*
X35261Y183525D02*
Y191462D01*
X40817Y183525D02*
Y191462D01*
X159197Y243087D02*
X238803D01*
Y278913D01*
X159197D02*
X238803D01*
X159197Y243087D02*
Y278913D01*
X190142Y243087D02*
Y248402D01*
X207858Y243087D02*
Y248402D01*
X250200Y110900D02*
X295200D01*
Y77900D02*
Y79900D01*
Y110900D01*
X292700Y84900D02*
Y105900D01*
Y83900D02*
Y84900D01*
X271200Y105900D02*
X274200D01*
X291000D02*
X292700D01*
X284700Y84900D02*
X292700D01*
X280700D02*
X284700D01*
X264700D02*
X280700D01*
X260700D02*
X264700D01*
X284700Y77900D02*
X295200D01*
X280700D02*
X284700D01*
X264700D02*
X280700D01*
X260700D02*
X264700D01*
X285700Y79900D02*
X295200D01*
X265700D02*
X279700D01*
X265700Y83900D02*
X279700D01*
X285700D02*
X292700D01*
X280700Y77900D02*
Y84900D01*
X284700Y77900D02*
Y84900D01*
X285700Y79900D02*
Y83900D01*
X279700Y79900D02*
Y83900D01*
Y79900D02*
X280700Y77900D01*
X284700D02*
X285700Y79900D01*
X284700Y84900D02*
X285700Y83900D01*
X279700D02*
X280700Y84900D01*
X252700Y105900D02*
X254200D01*
X264700Y77900D02*
Y84900D01*
X260700Y77900D02*
Y84900D01*
X259700Y79900D02*
Y83900D01*
Y79900D02*
X260700Y77900D01*
X259700Y83900D02*
X260700Y84900D01*
X264700Y77900D02*
X265700Y79900D01*
Y83900D01*
X264700Y84900D02*
X265700Y83900D01*
X252700D02*
Y84900D01*
X259700Y83900D02*
X260700Y84900D01*
X259700Y79900D02*
X260700Y77900D01*
X252700Y83900D02*
X259700D01*
X250200Y79900D02*
X259700D01*
X252700Y84900D02*
X260700D01*
X252700Y105900D02*
X254400D01*
X252700Y84900D02*
Y105900D01*
X250200Y79900D02*
Y110900D01*
Y77900D02*
Y79900D01*
Y77900D02*
X260700D01*
X76053Y193356D02*
X81053D01*
X83553Y195856D02*
Y210856D01*
X81053Y213356D02*
X83553Y210856D01*
X76053Y213356D02*
X81053D01*
X73553Y210856D02*
X76053Y213356D01*
X81053Y193356D02*
X83553Y195856D01*
X73553D02*
X76053Y193356D01*
X56053D02*
X61053D01*
X66053D02*
X71053D01*
X73553Y195856D02*
Y210856D01*
X63553Y195856D02*
Y210856D01*
X71053Y213356D02*
X73553Y210856D01*
X66053Y213356D02*
X71053D01*
X63553Y210856D02*
X66053Y213356D01*
X61053D02*
X63553Y210856D01*
X56053Y213356D02*
X61053D01*
X53553Y210856D02*
X56053Y213356D01*
X53553Y195856D02*
Y210856D01*
X71053Y193356D02*
X73553Y195856D01*
X63553D02*
X66053Y193356D01*
X61053D02*
X63553Y195856D01*
X53553D02*
X56053Y193356D01*
X133313D02*
X138313D01*
X140813Y195856D02*
Y210856D01*
X138313Y213356D02*
X140813Y210856D01*
X133313Y213356D02*
X138313D01*
X130813Y210856D02*
X133313Y213356D01*
X138313Y193356D02*
X140813Y195856D01*
X130813D02*
X133313Y193356D01*
X113313D02*
X118313D01*
X123313D02*
X128313D01*
X130813Y195856D02*
Y210856D01*
X120813Y195856D02*
Y210856D01*
X128313Y213356D02*
X130813Y210856D01*
X123313Y213356D02*
X128313D01*
X120813Y210856D02*
X123313Y213356D01*
X118313D02*
X120813Y210856D01*
X113313Y213356D02*
X118313D01*
X110813Y210856D02*
X113313Y213356D01*
X110813Y195856D02*
Y210856D01*
X128313Y193356D02*
X130813Y195856D01*
X120813D02*
X123313Y193356D01*
X118313D02*
X120813Y195856D01*
X110813D02*
X113313Y193356D01*
X13773Y206998D02*
X15773D01*
X2773D02*
X7773D01*
X2773Y233998D02*
X7773D01*
X13773D02*
X15773D01*
Y206998D02*
Y209998D01*
X16773D01*
Y213498D01*
X15773D02*
X16773D01*
X15773D02*
Y217498D01*
X14773D02*
X15773D01*
X14773D02*
Y223498D01*
X15773D01*
Y227998D01*
X16773D01*
Y230998D01*
X15773D02*
X16773D01*
X15773D02*
Y233998D01*
X2773Y206998D02*
Y217998D01*
X6773D01*
Y222998D01*
X2773Y217998D02*
Y222998D01*
X6773D01*
X773Y210498D02*
Y215498D01*
Y225498D01*
X1773Y210498D02*
Y234998D01*
X773Y210498D02*
X1773D01*
X773Y225498D02*
Y230498D01*
X1773D01*
X2773Y222998D02*
Y233998D01*
X1773Y234998D02*
X15773D01*
X1773Y205998D02*
Y210498D01*
Y205998D02*
X15773D01*
X196500Y11413D02*
X236679D01*
X145280Y38932D02*
X185458D01*
X145280Y11373D02*
X185458D01*
X94098D02*
X134277D01*
X42917D02*
X83096D01*
X159197Y205587D02*
X238803D01*
Y241413D01*
X159197D02*
X238803D01*
X159197Y205587D02*
Y241413D01*
X190142Y205587D02*
Y210902D01*
X207858Y205587D02*
Y210902D01*
X403300Y32800D02*
Y33866D01*
Y33333D01*
X400101D01*
X400634Y32800D01*
X267801Y214433D02*
Y212300D01*
X269401D01*
X268867Y213366D01*
Y213899D01*
X269401Y214433D01*
X270467D01*
X271000Y213899D01*
Y212833D01*
X270467Y212300D01*
X267801Y215499D02*
X269934D01*
X271000Y216565D01*
X269934Y217632D01*
X267801D01*
X65380Y218185D02*
X66446D01*
X65913D01*
Y214986D01*
X65380D01*
X66446D01*
X70178Y217652D02*
X69645Y218185D01*
X68578D01*
X68045Y217652D01*
Y215519D01*
X68578Y214986D01*
X69645D01*
X70178Y215519D01*
X73377Y217652D02*
X72844Y218185D01*
X71777D01*
X71244Y217652D01*
Y217119D01*
X71777Y216585D01*
X72844D01*
X73377Y216052D01*
Y215519D01*
X72844Y214986D01*
X71777D01*
X71244Y215519D01*
X74443Y214986D02*
Y218185D01*
X76043D01*
X76576Y217652D01*
Y216585D01*
X76043Y216052D01*
X74443D01*
X77642Y216585D02*
X79775D01*
X80841Y214986D02*
X81907D01*
X81374D01*
Y218185D01*
X80841Y217652D01*
X124435Y192397D02*
X125501D01*
X124968D01*
Y189198D01*
X124435D01*
X125501D01*
X129233Y191864D02*
X128700Y192397D01*
X127634D01*
X127101Y191864D01*
Y189732D01*
X127634Y189198D01*
X128700D01*
X129233Y189732D01*
X132432Y191864D02*
X131899Y192397D01*
X130833D01*
X130299Y191864D01*
Y191331D01*
X130833Y190798D01*
X131899D01*
X132432Y190265D01*
Y189732D01*
X131899Y189198D01*
X130833D01*
X130299Y189732D01*
X133498Y189198D02*
Y192397D01*
X135098D01*
X135631Y191864D01*
Y190798D01*
X135098Y190265D01*
X133498D01*
X130340Y225271D02*
X132473D01*
Y224738D01*
X130340Y222606D01*
Y222072D01*
X132473D01*
X133539Y223672D02*
X135672D01*
X136738Y222072D02*
Y225271D01*
X137804Y224205D01*
X138871Y225271D01*
Y222072D01*
X139937D02*
Y224205D01*
X141003Y225271D01*
X142070Y224205D01*
Y222072D01*
Y223672D01*
X139937D01*
X143136Y225271D02*
X145269Y222072D01*
Y225271D02*
X143136Y222072D01*
X89002Y225271D02*
Y224738D01*
X90068Y223672D01*
X91134Y224738D01*
Y225271D01*
X90068Y223672D02*
Y222072D01*
X92200Y223672D02*
X94333D01*
X95399Y222072D02*
Y225271D01*
X96466Y224205D01*
X97532Y225271D01*
Y222072D01*
X98598D02*
Y224205D01*
X99665Y225271D01*
X100731Y224205D01*
Y222072D01*
Y223672D01*
X98598D01*
X101797Y225271D02*
X103930Y222072D01*
Y225271D02*
X101797Y222072D01*
X48057Y225271D02*
X50189Y222072D01*
Y225271D02*
X48057Y222072D01*
X51256Y223672D02*
X53388D01*
X54455Y222072D02*
Y225271D01*
X55521Y224205D01*
X56587Y225271D01*
Y222072D01*
X57654D02*
Y224205D01*
X58720Y225271D01*
X59786Y224205D01*
Y222072D01*
Y223672D01*
X57654D01*
X60853Y225271D02*
X62985Y222072D01*
Y225271D02*
X60853Y222072D01*
X131128Y273697D02*
X133260D01*
Y273163D01*
X131128Y271031D01*
Y270498D01*
X133260D01*
X134327Y272097D02*
X136459D01*
X137525Y270498D02*
Y273697D01*
X138592Y272630D01*
X139658Y273697D01*
Y270498D01*
X140725Y273697D02*
X141791D01*
X141258D01*
Y270498D01*
X140725D01*
X141791D01*
X143390D02*
Y273697D01*
X145523Y270498D01*
Y273697D01*
X90183D02*
Y273163D01*
X91249Y272097D01*
X92315Y273163D01*
Y273697D01*
X91249Y272097D02*
Y270498D01*
X93382Y272097D02*
X95514D01*
X96581Y270498D02*
Y273697D01*
X97647Y272630D01*
X98713Y273697D01*
Y270498D01*
X99780Y273697D02*
X100846D01*
X100313D01*
Y270498D01*
X99780D01*
X100846D01*
X102445D02*
Y273697D01*
X104578Y270498D01*
Y273697D01*
X48844D02*
X50977Y270498D01*
Y273697D02*
X48844Y270498D01*
X52043Y272097D02*
X54176D01*
X55242Y270498D02*
Y273697D01*
X56308Y272630D01*
X57375Y273697D01*
Y270498D01*
X58441Y273697D02*
X59507D01*
X58974D01*
Y270498D01*
X58441D01*
X59507D01*
X61107D02*
Y273697D01*
X63239Y270498D01*
Y273697D01*
X100100Y159100D02*
Y162299D01*
X101699D01*
X102233Y161766D01*
Y160699D01*
X101699Y160166D01*
X100100D01*
X101166D02*
X102233Y159100D01*
X103299Y162299D02*
X105432Y159100D01*
Y162299D02*
X103299Y159100D01*
X99900Y170699D02*
X102033D01*
X100966D01*
Y167500D01*
X103099Y170699D02*
X105232Y167500D01*
Y170699D02*
X103099Y167500D01*
X6000Y244998D02*
Y240000D01*
X7000Y239000D01*
X8999D01*
X9999Y240000D01*
Y244998D01*
X16900Y130700D02*
X19033D01*
X17966Y131766D02*
Y129633D01*
X55100Y3399D02*
X57233Y200D01*
Y3399D02*
X55100Y200D01*
X61498D02*
Y3399D01*
X62564Y2333D01*
X63631Y3399D01*
Y200D01*
X66296Y3399D02*
X65230D01*
X64697Y2866D01*
Y733D01*
X65230Y200D01*
X66296D01*
X66830Y733D01*
Y2866D01*
X66296Y3399D01*
X67896D02*
X70029D01*
X68962D01*
Y200D01*
X29500Y130300D02*
X31100D01*
X31633Y130833D01*
X31100Y131366D01*
X30033D01*
X29500Y131899D01*
X30033Y132433D01*
X31633D01*
X151600Y30783D02*
X153733D01*
Y30250D01*
X151600Y28117D01*
Y27584D01*
X153733D01*
X157998D02*
Y30783D01*
X159064Y29717D01*
X160131Y30783D01*
Y27584D01*
X162796Y30783D02*
X161730D01*
X161197Y30250D01*
Y28117D01*
X161730Y27584D01*
X162796D01*
X163330Y28117D01*
Y30250D01*
X162796Y30783D01*
X164396D02*
X166528D01*
X165462D01*
Y27584D01*
X169194Y30783D02*
X168128D01*
X167595Y30250D01*
Y28117D01*
X168128Y27584D01*
X169194D01*
X169728Y28117D01*
Y30250D01*
X169194Y30783D01*
X170794Y27584D02*
Y30783D01*
X172393D01*
X172926Y30250D01*
Y29184D01*
X172393Y28651D01*
X170794D01*
X171860D02*
X172926Y27584D01*
X179324D02*
X177192D01*
X179324Y29717D01*
Y30250D01*
X178791Y30783D01*
X177725D01*
X177192Y30250D01*
X152000Y3399D02*
X154133D01*
Y2866D01*
X152000Y733D01*
Y200D01*
X154133D01*
X158398D02*
Y3399D01*
X159464Y2333D01*
X160531Y3399D01*
Y200D01*
X163196Y3399D02*
X162130D01*
X161597Y2866D01*
Y733D01*
X162130Y200D01*
X163196D01*
X163730Y733D01*
Y2866D01*
X163196Y3399D01*
X164796D02*
X166929D01*
X165862D01*
Y200D01*
X169594Y3399D02*
X168528D01*
X167995Y2866D01*
Y733D01*
X168528Y200D01*
X169594D01*
X170127Y733D01*
Y2866D01*
X169594Y3399D01*
X171194Y200D02*
Y3399D01*
X172793D01*
X173327Y2866D01*
Y1799D01*
X172793Y1266D01*
X171194D01*
X172260D02*
X173327Y200D01*
X177592D02*
X178658D01*
X178125D01*
Y3399D01*
X177592Y2866D01*
X23500Y130799D02*
X25633D01*
X102500Y3399D02*
Y2866D01*
X103566Y1799D01*
X104633Y2866D01*
Y3399D01*
X103566Y1799D02*
Y200D01*
X108898D02*
Y3399D01*
X109964Y2333D01*
X111031Y3399D01*
Y200D01*
X113696Y3399D02*
X112630D01*
X112097Y2866D01*
Y733D01*
X112630Y200D01*
X113696D01*
X114230Y733D01*
Y2866D01*
X113696Y3399D01*
X115296D02*
X117429D01*
X116362D01*
Y200D01*
X120094Y3399D02*
X119028D01*
X118495Y2866D01*
Y733D01*
X119028Y200D01*
X120094D01*
X120627Y733D01*
Y2866D01*
X120094Y3399D01*
X121694Y200D02*
Y3399D01*
X123293D01*
X123827Y2866D01*
Y1799D01*
X123293Y1266D01*
X121694D01*
X122760D02*
X123827Y200D01*
X295600Y208299D02*
Y205100D01*
Y206699D01*
X297733D01*
Y208299D01*
Y205100D01*
X299332Y207233D02*
X300398D01*
X300932Y206699D01*
Y205100D01*
X299332D01*
X298799Y205633D01*
X299332Y206166D01*
X300932D01*
X301998Y207233D02*
Y205100D01*
Y206166D01*
X302531Y206699D01*
X303064Y207233D01*
X303597D01*
X307330Y208299D02*
Y205100D01*
X305730D01*
X305197Y205633D01*
Y206699D01*
X305730Y207233D01*
X307330D01*
X308396D02*
Y205633D01*
X308929Y205100D01*
X309462Y205633D01*
X309995Y205100D01*
X310528Y205633D01*
Y207233D01*
X312128D02*
X313194D01*
X313727Y206699D01*
Y205100D01*
X312128D01*
X311595Y205633D01*
X312128Y206166D01*
X313727D01*
X314794Y207233D02*
Y205100D01*
Y206166D01*
X315327Y206699D01*
X315860Y207233D01*
X316393D01*
X319592Y205100D02*
X318526D01*
X317993Y205633D01*
Y206699D01*
X318526Y207233D01*
X319592D01*
X320125Y206699D01*
Y206166D01*
X317993D01*
X293000Y213699D02*
X291933D01*
X291400Y213166D01*
Y211033D01*
X291933Y210500D01*
X293000D01*
X293533Y211033D01*
Y213166D01*
X293000Y213699D01*
X294599Y209434D02*
Y212633D01*
X296199D01*
X296732Y212100D01*
Y211033D01*
X296199Y210500D01*
X294599D01*
X299397D02*
X298331D01*
X297798Y211033D01*
Y212100D01*
X298331Y212633D01*
X299397D01*
X299931Y212100D01*
Y211566D01*
X297798D01*
X300997Y210500D02*
Y212633D01*
X302596D01*
X303130Y212100D01*
Y210500D01*
X309527Y213166D02*
X308994Y213699D01*
X307928D01*
X307395Y213166D01*
Y212633D01*
X307928Y212100D01*
X308994D01*
X309527Y211566D01*
Y211033D01*
X308994Y210500D01*
X307928D01*
X307395Y211033D01*
X311127Y210500D02*
X312193D01*
X312726Y211033D01*
Y212100D01*
X312193Y212633D01*
X311127D01*
X310594Y212100D01*
Y211033D01*
X311127Y210500D01*
X313793Y212633D02*
Y211033D01*
X314326Y210500D01*
X315925D01*
Y212633D01*
X316992D02*
Y210500D01*
Y211566D01*
X317525Y212100D01*
X318058Y212633D01*
X318591D01*
X322323D02*
X320724D01*
X320191Y212100D01*
Y211033D01*
X320724Y210500D01*
X322323D01*
X324989D02*
X323923D01*
X323390Y211033D01*
Y212100D01*
X323923Y212633D01*
X324989D01*
X325522Y212100D01*
Y211566D01*
X323390D01*
X206833Y3399D02*
X204700D01*
Y200D01*
X206833D01*
X204700Y1799D02*
X205766D01*
X211098Y200D02*
Y3399D01*
X212164Y2333D01*
X213231Y3399D01*
Y200D01*
X215896Y3399D02*
X214830D01*
X214297Y2866D01*
Y733D01*
X214830Y200D01*
X215896D01*
X216430Y733D01*
Y2866D01*
X215896Y3399D01*
X217496D02*
X219629D01*
X218562D01*
Y200D01*
X222294Y3399D02*
X221228D01*
X220695Y2866D01*
Y733D01*
X221228Y200D01*
X222294D01*
X222828Y733D01*
Y2866D01*
X222294Y3399D01*
X223894Y200D02*
Y3399D01*
X225493D01*
X226027Y2866D01*
Y1799D01*
X225493Y1266D01*
X223894D01*
X224960D02*
X226027Y200D01*
G54D136*
X97613Y139304D02*
X97261Y140153D01*
X96413Y140504D01*
X95564Y140153D01*
X95213Y139304D01*
X95564Y138455D01*
X96413Y138104D01*
X97261Y138455D01*
X97613Y139304D01*
G54D137*
X12300Y242200D02*
X12178Y243205D01*
X11819Y244152D01*
X11244Y244985D01*
X10486Y245656D01*
X9589Y246127D01*
X8606Y246369D01*
X7594D01*
X6611Y246127D01*
X5714Y245656D01*
X4956Y244985D01*
X4381Y244152D01*
X4022Y243205D01*
X3900Y242200D01*
X4022Y241195D01*
X4381Y240248D01*
X4956Y239415D01*
X5714Y238743D01*
X6611Y238273D01*
X7594Y238031D01*
X8606D01*
X9589Y238273D01*
X10486Y238743D01*
X11244Y239415D01*
X11819Y240248D01*
X12178Y241195D01*
X12300Y242200D01*
X326050Y1600D02*
Y79600D01*
Y1600D02*
X353550D01*
Y79600D01*
X326050D02*
X353550D01*
X62101Y149100D02*
X74700D01*
X62101Y139179D02*
Y149100D01*
Y139179D02*
X74700D01*
Y149100D01*
X69600Y182600D02*
X70781D01*
X88419D02*
X89600D01*
Y181419D02*
Y182600D01*
Y162600D02*
Y163781D01*
X69600Y162600D02*
X70781D01*
X88419D02*
X89600D01*
X69600Y181419D02*
Y182600D01*
Y162600D02*
Y163781D01*
X111714Y152300D02*
Y164899D01*
Y152300D02*
X121636D01*
Y164899D01*
X111714D02*
X121636D01*
X297045Y79639D02*
X324545D01*
Y1639D02*
Y79639D01*
X297045Y1639D02*
X324545D01*
X297045D02*
Y79639D01*
X354050Y102900D02*
Y180900D01*
X326550D02*
X354050D01*
X326550Y102900D02*
Y180900D01*
Y102900D02*
X354050D01*
X122200Y135399D02*
X123866D01*
X123033D01*
Y132900D01*
X124699D02*
Y135399D01*
X125949D01*
X126365Y134983D01*
Y134150D01*
X125949Y133733D01*
X124699D01*
X127198Y132900D02*
X128031D01*
X127615D01*
Y135399D01*
X127198Y134983D01*
X129281Y132900D02*
X130114D01*
X129698D01*
Y135399D01*
X129281Y134983D01*
X91700Y222200D02*
Y224699D01*
X92950D01*
X93366Y224283D01*
Y223450D01*
X92950Y223033D01*
X91700D01*
X92533D02*
X93366Y222200D01*
X94199Y224699D02*
X95865D01*
Y224283D01*
X94199Y222617D01*
Y222200D01*
X98365Y224699D02*
X97531Y224283D01*
X96698Y223450D01*
Y222617D01*
X97115Y222200D01*
X97948D01*
X98365Y222617D01*
Y223033D01*
X97948Y223450D01*
X96698D01*
X83900Y226300D02*
Y228799D01*
X85150D01*
X85566Y228383D01*
Y227550D01*
X85150Y227133D01*
X83900D01*
X84733D02*
X85566Y226300D01*
X86399Y228799D02*
X88065D01*
Y228383D01*
X86399Y226716D01*
Y226300D01*
X90565Y228799D02*
X88898D01*
Y227550D01*
X89731Y227966D01*
X90148D01*
X90565Y227550D01*
Y226716D01*
X90148Y226300D01*
X89315D01*
X88898Y226716D01*
X68300Y224800D02*
Y227299D01*
X69550D01*
X69966Y226883D01*
Y226050D01*
X69550Y225633D01*
X68300D01*
X69133D02*
X69966Y224800D01*
X70799Y227299D02*
X72465D01*
Y226883D01*
X70799Y225217D01*
Y224800D01*
X74548D02*
Y227299D01*
X73298Y226050D01*
X74964D01*
X212100Y207600D02*
Y210099D01*
X213350D01*
X213766Y209683D01*
Y208850D01*
X213350Y208433D01*
X212100D01*
X212933D02*
X213766Y207600D01*
X216265Y210099D02*
X215432Y209683D01*
X214599Y208850D01*
Y208016D01*
X215016Y207600D01*
X215849D01*
X216265Y208016D01*
Y208433D01*
X215849Y208850D01*
X214599D01*
X217098Y210099D02*
X218764D01*
Y209683D01*
X217098Y208016D01*
Y207600D01*
X122900Y222000D02*
Y224499D01*
X124150D01*
X124566Y224083D01*
Y223250D01*
X124150Y222833D01*
X122900D01*
X123733D02*
X124566Y222000D01*
X127065Y224499D02*
X126232Y224083D01*
X125399Y223250D01*
Y222416D01*
X125816Y222000D01*
X126649D01*
X127065Y222416D01*
Y222833D01*
X126649Y223250D01*
X125399D01*
X127898Y224083D02*
X128315Y224499D01*
X129148D01*
X129564Y224083D01*
Y222416D01*
X129148Y222000D01*
X128315D01*
X127898Y222416D01*
Y224083D01*
X115100Y222000D02*
Y224499D01*
X116350D01*
X116766Y224083D01*
Y223250D01*
X116350Y222833D01*
X115100D01*
X115933D02*
X116766Y222000D01*
X119265Y224499D02*
X117599D01*
Y223250D01*
X118432Y223666D01*
X118849D01*
X119265Y223250D01*
Y222416D01*
X118849Y222000D01*
X118016D01*
X117599Y222416D01*
X120098D02*
X120515Y222000D01*
X121348D01*
X121765Y222416D01*
Y224083D01*
X121348Y224499D01*
X120515D01*
X120098Y224083D01*
Y223666D01*
X120515Y223250D01*
X121765D01*
X130700Y222000D02*
Y224499D01*
X131950D01*
X132366Y224083D01*
Y223250D01*
X131950Y222833D01*
X130700D01*
X131533D02*
X132366Y222000D01*
X134865Y224499D02*
X133199D01*
Y223250D01*
X134032Y223666D01*
X134449D01*
X134865Y223250D01*
Y222416D01*
X134449Y222000D01*
X133616D01*
X133199Y222416D01*
X137364Y224499D02*
X135698D01*
Y223250D01*
X136531Y223666D01*
X136948D01*
X137364Y223250D01*
Y222416D01*
X136948Y222000D01*
X136115D01*
X135698Y222416D01*
X146500Y216700D02*
Y219199D01*
X147750D01*
X148166Y218783D01*
Y217950D01*
X147750Y217533D01*
X146500D01*
X147333D02*
X148166Y216700D01*
X150665Y219199D02*
X148999D01*
Y217950D01*
X149832Y218366D01*
X150249D01*
X150665Y217950D01*
Y217116D01*
X150249Y216700D01*
X149416D01*
X148999Y217116D01*
X152748Y216700D02*
Y219199D01*
X151498Y217950D01*
X153165D01*
X152000Y217100D02*
Y219599D01*
X153250D01*
X153666Y219183D01*
Y218350D01*
X153250Y217933D01*
X152000D01*
X152833D02*
X153666Y217100D01*
X156165Y219599D02*
X154499D01*
Y218350D01*
X155332Y218766D01*
X155749D01*
X156165Y218350D01*
Y217516D01*
X155749Y217100D01*
X154916D01*
X154499Y217516D01*
X156998Y219183D02*
X157415Y219599D01*
X158248D01*
X158665Y219183D01*
Y218766D01*
X158248Y218350D01*
X157831D01*
X158248D01*
X158665Y217933D01*
Y217516D01*
X158248Y217100D01*
X157415D01*
X156998Y217516D01*
X146200Y222000D02*
Y224499D01*
X147450D01*
X147866Y224083D01*
Y223250D01*
X147450Y222833D01*
X146200D01*
X147033D02*
X147866Y222000D01*
X150365Y224499D02*
X148699D01*
Y223250D01*
X149532Y223666D01*
X149949D01*
X150365Y223250D01*
Y222416D01*
X149949Y222000D01*
X149116D01*
X148699Y222416D01*
X152865Y222000D02*
X151198D01*
X152865Y223666D01*
Y224083D01*
X152448Y224499D01*
X151615D01*
X151198Y224083D01*
X119466Y252999D02*
X118633D01*
X119050D01*
Y250917D01*
X118633Y250500D01*
X118217D01*
X117800Y250917D01*
X120299Y250500D02*
X121132D01*
X120716D01*
Y252999D01*
X120299Y252583D01*
X122382D02*
X122798Y252999D01*
X123631D01*
X124048Y252583D01*
Y252166D01*
X123631Y251750D01*
X124048Y251333D01*
Y250917D01*
X123631Y250500D01*
X122798D01*
X122382Y250917D01*
Y251333D01*
X122798Y251750D01*
X122382Y252166D01*
Y252583D01*
X122798Y251750D02*
X123631D01*
X78166Y252999D02*
X77333D01*
X77750D01*
Y250917D01*
X77333Y250500D01*
X76916D01*
X76500Y250917D01*
X78999Y250500D02*
X79832D01*
X79416D01*
Y252999D01*
X78999Y252583D01*
X81082Y252999D02*
X82748D01*
Y252583D01*
X81082Y250917D01*
Y250500D01*
X36766Y252999D02*
X35933D01*
X36350D01*
Y250917D01*
X35933Y250500D01*
X35517D01*
X35100Y250917D01*
X37599Y250500D02*
X38432D01*
X38016D01*
Y252999D01*
X37599Y252583D01*
X41348Y252999D02*
X40515Y252583D01*
X39682Y251750D01*
Y250917D01*
X40098Y250500D01*
X40931D01*
X41348Y250917D01*
Y251333D01*
X40931Y251750D01*
X39682D01*
X119466Y280399D02*
X118633D01*
X119050D01*
Y278316D01*
X118633Y277900D01*
X118217D01*
X117800Y278316D01*
X120299Y277900D02*
X121132D01*
X120716D01*
Y280399D01*
X120299Y279983D01*
X124048Y280399D02*
X122382D01*
Y279150D01*
X123215Y279566D01*
X123631D01*
X124048Y279150D01*
Y278316D01*
X123631Y277900D01*
X122798D01*
X122382Y278316D01*
X78166Y280399D02*
X77333D01*
X77750D01*
Y278316D01*
X77333Y277900D01*
X76916D01*
X76500Y278316D01*
X78999Y277900D02*
X79832D01*
X79416D01*
Y280399D01*
X78999Y279983D01*
X82331Y277900D02*
Y280399D01*
X81082Y279150D01*
X82748D01*
X36766Y280399D02*
X35933D01*
X36350D01*
Y278316D01*
X35933Y277900D01*
X35517D01*
X35100Y278316D01*
X37599Y277900D02*
X38432D01*
X38016D01*
Y280399D01*
X37599Y279983D01*
X39682D02*
X40098Y280399D01*
X40931D01*
X41348Y279983D01*
Y279566D01*
X40931Y279150D01*
X40515D01*
X40931D01*
X41348Y278733D01*
Y278316D01*
X40931Y277900D01*
X40098D01*
X39682Y278316D01*
X193266Y36299D02*
X192433D01*
X192850D01*
Y34216D01*
X192433Y33800D01*
X192016D01*
X191600Y34216D01*
X194099Y33800D02*
X194932D01*
X194516D01*
Y36299D01*
X194099Y35883D01*
X197848Y33800D02*
X196182D01*
X197848Y35466D01*
Y35883D01*
X197431Y36299D01*
X196598D01*
X196182Y35883D01*
X142066Y36299D02*
X141233D01*
X141650D01*
Y34216D01*
X141233Y33800D01*
X140816D01*
X140400Y34216D01*
X142899Y33800D02*
X143732D01*
X143316D01*
Y36299D01*
X142899Y35883D01*
X144982Y33800D02*
X145815D01*
X145398D01*
Y36299D01*
X144982Y35883D01*
X142066Y63799D02*
X141233D01*
X141650D01*
Y61717D01*
X141233Y61300D01*
X140816D01*
X140400Y61717D01*
X142899Y61300D02*
X143732D01*
X143316D01*
Y63799D01*
X142899Y63383D01*
X144982D02*
X145398Y63799D01*
X146231D01*
X146648Y63383D01*
Y61717D01*
X146231Y61300D01*
X145398D01*
X144982Y61717D01*
Y63383D01*
X90866Y36299D02*
X90033D01*
X90450D01*
Y34216D01*
X90033Y33800D01*
X89617D01*
X89200Y34216D01*
X91699D02*
X92116Y33800D01*
X92949D01*
X93365Y34216D01*
Y35883D01*
X92949Y36299D01*
X92116D01*
X91699Y35883D01*
Y35466D01*
X92116Y35050D01*
X93365D01*
X39666Y36299D02*
X38833D01*
X39250D01*
Y34216D01*
X38833Y33800D01*
X38416D01*
X38000Y34216D01*
X40499Y35883D02*
X40916Y36299D01*
X41749D01*
X42165Y35883D01*
Y35466D01*
X41749Y35050D01*
X42165Y34633D01*
Y34216D01*
X41749Y33800D01*
X40916D01*
X40499Y34216D01*
Y34633D01*
X40916Y35050D01*
X40499Y35466D01*
Y35883D01*
X40916Y35050D02*
X41749D01*
X241866Y230799D02*
X241033D01*
X241450D01*
Y228716D01*
X241033Y228300D01*
X240616D01*
X240200Y228716D01*
X242699Y230799D02*
X244365D01*
Y230383D01*
X242699Y228716D01*
Y228300D01*
X223266Y137099D02*
X222433D01*
X222850D01*
Y135017D01*
X222433Y134600D01*
X222017D01*
X221600Y135017D01*
X225765Y137099D02*
X224932Y136683D01*
X224099Y135850D01*
Y135017D01*
X224516Y134600D01*
X225349D01*
X225765Y135017D01*
Y135433D01*
X225349Y135850D01*
X224099D01*
X251266Y157799D02*
X250433D01*
X250850D01*
Y155717D01*
X250433Y155300D01*
X250016D01*
X249600Y155717D01*
X253765Y157799D02*
X252099D01*
Y156550D01*
X252932Y156966D01*
X253349D01*
X253765Y156550D01*
Y155717D01*
X253349Y155300D01*
X252516D01*
X252099Y155717D01*
X251366Y199199D02*
X250533D01*
X250950D01*
Y197116D01*
X250533Y196700D01*
X250116D01*
X249700Y197116D01*
X253449Y196700D02*
Y199199D01*
X252199Y197950D01*
X253865D01*
X223266Y168199D02*
X222433D01*
X222850D01*
Y166116D01*
X222433Y165700D01*
X222017D01*
X221600Y166116D01*
X224099Y167783D02*
X224516Y168199D01*
X225349D01*
X225765Y167783D01*
Y167366D01*
X225349Y166950D01*
X224932D01*
X225349D01*
X225765Y166533D01*
Y166116D01*
X225349Y165700D01*
X224516D01*
X224099Y166116D01*
X223266Y199299D02*
X222433D01*
X222850D01*
Y197216D01*
X222433Y196800D01*
X222017D01*
X221600Y197216D01*
X225765Y196800D02*
X224099D01*
X225765Y198466D01*
Y198883D01*
X225349Y199299D01*
X224516D01*
X224099Y198883D01*
X280166Y276183D02*
X279750Y276599D01*
X278917D01*
X278500Y276183D01*
Y274517D01*
X278917Y274100D01*
X279750D01*
X280166Y274517D01*
X282249Y274100D02*
Y276599D01*
X280999Y275350D01*
X282665D01*
X285164Y276599D02*
X284331Y276183D01*
X283498Y275350D01*
Y274517D01*
X283915Y274100D01*
X284748D01*
X285164Y274517D01*
Y274933D01*
X284748Y275350D01*
X283498D01*
X144266Y277883D02*
X143850Y278299D01*
X143017D01*
X142600Y277883D01*
Y276217D01*
X143017Y275800D01*
X143850D01*
X144266Y276217D01*
X146349Y275800D02*
Y278299D01*
X145099Y277050D01*
X146765D01*
X148848Y275800D02*
Y278299D01*
X147598Y277050D01*
X149265D01*
X291101Y150200D02*
X293600D01*
Y151866D01*
X291101Y154365D02*
Y152699D01*
X293600D01*
Y154365D01*
X292350Y152699D02*
Y153532D01*
X291101Y155198D02*
X293600D01*
Y156448D01*
X293183Y156865D01*
X291517D01*
X291101Y156448D01*
Y155198D01*
Y159364D02*
Y157698D01*
X292350D01*
X291934Y158531D01*
Y158947D01*
X292350Y159364D01*
X293183D01*
X293600Y158947D01*
Y158114D01*
X293183Y157698D01*
X258000Y200500D02*
Y202999D01*
X259250D01*
X259666Y202583D01*
Y201750D01*
X259250Y201333D01*
X258000D01*
X258833D02*
X259666Y200500D01*
X260499Y202583D02*
X260916Y202999D01*
X261749D01*
X262165Y202583D01*
Y202166D01*
X261749Y201750D01*
X261332D01*
X261749D01*
X262165Y201333D01*
Y200917D01*
X261749Y200500D01*
X260916D01*
X260499Y200917D01*
X262998Y202583D02*
X263415Y202999D01*
X264248D01*
X264665Y202583D01*
Y202166D01*
X264248Y201750D01*
X263831D01*
X264248D01*
X264665Y201333D01*
Y200917D01*
X264248Y200500D01*
X263415D01*
X262998Y200917D01*
X274901Y214700D02*
X277400D01*
Y215950D01*
X276983Y216366D01*
X275317D01*
X274901Y215950D01*
Y214700D01*
X275317Y217199D02*
X274901Y217616D01*
Y218449D01*
X275317Y218865D01*
X275734D01*
X276150Y218449D01*
Y218032D01*
Y218449D01*
X276567Y218865D01*
X276983D01*
X277400Y218449D01*
Y217616D01*
X276983Y217199D01*
X274901Y221364D02*
Y219698D01*
X276150D01*
X275734Y220531D01*
Y220948D01*
X276150Y221364D01*
X276983D01*
X277400Y220948D01*
Y220115D01*
X276983Y219698D01*
X268400Y132199D02*
Y129700D01*
X269650D01*
X270066Y130116D01*
Y131783D01*
X269650Y132199D01*
X268400D01*
X270899Y131783D02*
X271316Y132199D01*
X272149D01*
X272565Y131783D01*
Y131366D01*
X272149Y130950D01*
X271732D01*
X272149D01*
X272565Y130533D01*
Y130116D01*
X272149Y129700D01*
X271316D01*
X270899Y130116D01*
X274648Y129700D02*
Y132199D01*
X273398Y130950D01*
X275064D01*
X268100Y127599D02*
Y125100D01*
X269350D01*
X269766Y125516D01*
Y127183D01*
X269350Y127599D01*
X268100D01*
X270599Y127183D02*
X271016Y127599D01*
X271849D01*
X272265Y127183D01*
Y126766D01*
X271849Y126350D01*
X271432D01*
X271849D01*
X272265Y125933D01*
Y125516D01*
X271849Y125100D01*
X271016D01*
X270599Y125516D01*
X273098Y127183D02*
X273515Y127599D01*
X274348D01*
X274764Y127183D01*
Y126766D01*
X274348Y126350D01*
X273931D01*
X274348D01*
X274764Y125933D01*
Y125516D01*
X274348Y125100D01*
X273515D01*
X273098Y125516D01*
X274301Y188400D02*
X276800D01*
Y189650D01*
X276383Y190066D01*
X274717D01*
X274301Y189650D01*
Y188400D01*
X276800Y190899D02*
Y191732D01*
Y191316D01*
X274301D01*
X274717Y190899D01*
X274301Y194648D02*
Y192982D01*
X275550D01*
X275134Y193815D01*
Y194231D01*
X275550Y194648D01*
X276383D01*
X276800Y194231D01*
Y193398D01*
X276383Y192982D01*
X204700Y133999D02*
Y131500D01*
X205950D01*
X206366Y131916D01*
Y133583D01*
X205950Y133999D01*
X204700D01*
X207199Y131500D02*
X208032D01*
X207616D01*
Y133999D01*
X207199Y133583D01*
X210531Y131500D02*
Y133999D01*
X209282Y132750D01*
X210948D01*
X297966Y166116D02*
Y167783D01*
X297550Y168199D01*
X296716D01*
X296300Y167783D01*
Y166116D01*
X296716Y165700D01*
X297550D01*
X297133Y166533D02*
X297966Y165700D01*
X297550D02*
X297966Y166116D01*
X300465Y165700D02*
X298799D01*
X300465Y167366D01*
Y167783D01*
X300049Y168199D01*
X299216D01*
X298799Y167783D01*
X285600Y209000D02*
X283101D01*
Y210250D01*
X283517Y210666D01*
X284350D01*
X284767Y210250D01*
Y209000D01*
Y209833D02*
X285600Y210666D01*
X283101Y213165D02*
Y211499D01*
X284350D01*
X283934Y212332D01*
Y212749D01*
X284350Y213165D01*
X285184D01*
X285600Y212749D01*
Y211916D01*
X285184Y211499D01*
X283517Y213998D02*
X283101Y214415D01*
Y215248D01*
X283517Y215665D01*
X285184D01*
X285600Y215248D01*
Y214415D01*
X285184Y213998D01*
X283517D01*
X294800Y202500D02*
X292301D01*
Y203750D01*
X292717Y204166D01*
X293550D01*
X293967Y203750D01*
Y202500D01*
Y203333D02*
X294800Y204166D01*
Y206249D02*
X292301D01*
X293550Y204999D01*
Y206665D01*
X294384Y207498D02*
X294800Y207915D01*
Y208748D01*
X294384Y209165D01*
X292717D01*
X292301Y208748D01*
Y207915D01*
X292717Y207498D01*
X293134D01*
X293550Y207915D01*
Y209165D01*
X281600Y202600D02*
X279101D01*
Y203850D01*
X279517Y204266D01*
X280350D01*
X280767Y203850D01*
Y202600D01*
Y203433D02*
X281600Y204266D01*
Y206349D02*
X279101D01*
X280350Y205099D01*
Y206765D01*
X279517Y207598D02*
X279101Y208015D01*
Y208848D01*
X279517Y209264D01*
X279934D01*
X280350Y208848D01*
X280767Y209264D01*
X281184D01*
X281600Y208848D01*
Y208015D01*
X281184Y207598D01*
X280767D01*
X280350Y208015D01*
X279934Y207598D01*
X279517D01*
X280350Y208015D02*
Y208848D01*
X242066Y104983D02*
X241650Y105399D01*
X240816D01*
X240400Y104983D01*
Y103316D01*
X240816Y102900D01*
X241650D01*
X242066Y103316D01*
X242899Y102900D02*
X243732D01*
X243316D01*
Y105399D01*
X242899Y104983D01*
X244982Y105399D02*
X246648D01*
Y104983D01*
X244982Y103316D01*
Y102900D01*
X265183Y45366D02*
X263517D01*
X263101Y44950D01*
Y44117D01*
X263517Y43700D01*
X265183D01*
X265600Y44117D01*
Y44950D01*
X264767Y44533D02*
X265600Y45366D01*
Y44950D02*
X265183Y45366D01*
X265600Y46199D02*
Y47032D01*
Y46616D01*
X263101D01*
X263517Y46199D01*
X55917Y84766D02*
X55501Y84350D01*
Y83517D01*
X55917Y83100D01*
X57583D01*
X58000Y83517D01*
Y84350D01*
X57583Y84766D01*
Y85599D02*
X58000Y86016D01*
Y86849D01*
X57583Y87265D01*
X55917D01*
X55501Y86849D01*
Y86016D01*
X55917Y85599D01*
X56334D01*
X56750Y86016D01*
Y87265D01*
X55917Y88098D02*
X55501Y88515D01*
Y89348D01*
X55917Y89764D01*
X57583D01*
X58000Y89348D01*
Y88515D01*
X57583Y88098D01*
X55917D01*
X49166Y78183D02*
X48750Y78599D01*
X47916D01*
X47500Y78183D01*
Y76516D01*
X47916Y76100D01*
X48750D01*
X49166Y76516D01*
X49999D02*
X50416Y76100D01*
X51249D01*
X51665Y76516D01*
Y78183D01*
X51249Y78599D01*
X50416D01*
X49999Y78183D01*
Y77766D01*
X50416Y77350D01*
X51665D01*
X52498Y76100D02*
X53331D01*
X52915D01*
Y78599D01*
X52498Y78183D01*
X48866Y85483D02*
X48450Y85899D01*
X47616D01*
X47200Y85483D01*
Y83816D01*
X47616Y83400D01*
X48450D01*
X48866Y83816D01*
X49699D02*
X50116Y83400D01*
X50949D01*
X51365Y83816D01*
Y85483D01*
X50949Y85899D01*
X50116D01*
X49699Y85483D01*
Y85066D01*
X50116Y84650D01*
X51365D01*
X53865Y83400D02*
X52198D01*
X53865Y85066D01*
Y85483D01*
X53448Y85899D01*
X52615D01*
X52198Y85483D01*
X187966Y115483D02*
X187550Y115899D01*
X186716D01*
X186300Y115483D01*
Y113816D01*
X186716Y113400D01*
X187550D01*
X187966Y113816D01*
X188799D02*
X189216Y113400D01*
X190049D01*
X190465Y113816D01*
Y115483D01*
X190049Y115899D01*
X189216D01*
X188799Y115483D01*
Y115066D01*
X189216Y114650D01*
X190465D01*
X191298Y115483D02*
X191715Y115899D01*
X192548D01*
X192964Y115483D01*
Y115066D01*
X192548Y114650D01*
X192131D01*
X192548D01*
X192964Y114233D01*
Y113816D01*
X192548Y113400D01*
X191715D01*
X191298Y113816D01*
X7517Y56866D02*
X7101Y56450D01*
Y55616D01*
X7517Y55200D01*
X9183D01*
X9600Y55616D01*
Y56450D01*
X9183Y56866D01*
Y57699D02*
X9600Y58116D01*
Y58949D01*
X9183Y59365D01*
X7517D01*
X7101Y58949D01*
Y58116D01*
X7517Y57699D01*
X7934D01*
X8350Y58116D01*
Y59365D01*
X9600Y61448D02*
X7101D01*
X8350Y60198D01*
Y61865D01*
X46517Y69366D02*
X46101Y68950D01*
Y68116D01*
X46517Y67700D01*
X48184D01*
X48600Y68116D01*
Y68950D01*
X48184Y69366D01*
Y70199D02*
X48600Y70616D01*
Y71449D01*
X48184Y71865D01*
X46517D01*
X46101Y71449D01*
Y70616D01*
X46517Y70199D01*
X46934D01*
X47350Y70616D01*
Y71865D01*
X46101Y74365D02*
Y72698D01*
X47350D01*
X46934Y73531D01*
Y73948D01*
X47350Y74365D01*
X48184D01*
X48600Y73948D01*
Y73115D01*
X48184Y72698D01*
X41466Y61883D02*
X41050Y62299D01*
X40216D01*
X39800Y61883D01*
Y60216D01*
X40216Y59800D01*
X41050D01*
X41466Y60216D01*
X42299D02*
X42716Y59800D01*
X43549D01*
X43965Y60216D01*
Y61883D01*
X43549Y62299D01*
X42716D01*
X42299Y61883D01*
Y61466D01*
X42716Y61050D01*
X43965D01*
X46464Y62299D02*
X45631Y61883D01*
X44798Y61050D01*
Y60216D01*
X45215Y59800D01*
X46048D01*
X46464Y60216D01*
Y60633D01*
X46048Y61050D01*
X44798D01*
X49566Y36683D02*
X49150Y37099D01*
X48316D01*
X47900Y36683D01*
Y35017D01*
X48316Y34600D01*
X49150D01*
X49566Y35017D01*
X50399D02*
X50816Y34600D01*
X51649D01*
X52065Y35017D01*
Y36683D01*
X51649Y37099D01*
X50816D01*
X50399Y36683D01*
Y36266D01*
X50816Y35850D01*
X52065D01*
X52898Y37099D02*
X54564D01*
Y36683D01*
X52898Y35017D01*
Y34600D01*
X38466Y31483D02*
X38050Y31899D01*
X37216D01*
X36800Y31483D01*
Y29816D01*
X37216Y29400D01*
X38050D01*
X38466Y29816D01*
X39299D02*
X39716Y29400D01*
X40549D01*
X40965Y29816D01*
Y31483D01*
X40549Y31899D01*
X39716D01*
X39299Y31483D01*
Y31066D01*
X39716Y30650D01*
X40965D01*
X41798Y31483D02*
X42215Y31899D01*
X43048D01*
X43464Y31483D01*
Y31066D01*
X43048Y30650D01*
X43464Y30233D01*
Y29816D01*
X43048Y29400D01*
X42215D01*
X41798Y29816D01*
Y30233D01*
X42215Y30650D01*
X41798Y31066D01*
Y31483D01*
X42215Y30650D02*
X43048D01*
X26517Y105966D02*
X26101Y105550D01*
Y104717D01*
X26517Y104300D01*
X28183D01*
X28600Y104717D01*
Y105550D01*
X28183Y105966D01*
Y106799D02*
X28600Y107216D01*
Y108049D01*
X28183Y108465D01*
X26517D01*
X26101Y108049D01*
Y107216D01*
X26517Y106799D01*
X26934D01*
X27350Y107216D01*
Y108465D01*
X28183Y109298D02*
X28600Y109715D01*
Y110548D01*
X28183Y110965D01*
X26517D01*
X26101Y110548D01*
Y109715D01*
X26517Y109298D01*
X26934D01*
X27350Y109715D01*
Y110965D01*
X42117Y37466D02*
X41701Y37050D01*
Y36217D01*
X42117Y35800D01*
X43784D01*
X44200Y36217D01*
Y37050D01*
X43784Y37466D01*
X44200Y38299D02*
Y39132D01*
Y38716D01*
X41701D01*
X42117Y38299D01*
Y40382D02*
X41701Y40798D01*
Y41631D01*
X42117Y42048D01*
X43784D01*
X44200Y41631D01*
Y40798D01*
X43784Y40382D01*
X42117D01*
Y42881D02*
X41701Y43298D01*
Y44131D01*
X42117Y44547D01*
X43784D01*
X44200Y44131D01*
Y43298D01*
X43784Y42881D01*
X42117D01*
X4017Y39966D02*
X3601Y39550D01*
Y38717D01*
X4017Y38300D01*
X5683D01*
X6100Y38717D01*
Y39550D01*
X5683Y39966D01*
X6100Y40799D02*
Y41632D01*
Y41216D01*
X3601D01*
X4017Y40799D01*
Y42882D02*
X3601Y43298D01*
Y44131D01*
X4017Y44548D01*
X5683D01*
X6100Y44131D01*
Y43298D01*
X5683Y42882D01*
X4017D01*
X6100Y45381D02*
Y46214D01*
Y45798D01*
X3601D01*
X4017Y45381D01*
X33417Y28966D02*
X33001Y28550D01*
Y27716D01*
X33417Y27300D01*
X35083D01*
X35500Y27716D01*
Y28550D01*
X35083Y28966D01*
X35500Y29799D02*
Y30632D01*
Y30216D01*
X33001D01*
X33417Y29799D01*
Y31882D02*
X33001Y32298D01*
Y33132D01*
X33417Y33548D01*
X35083D01*
X35500Y33132D01*
Y32298D01*
X35083Y31882D01*
X33417D01*
X35500Y36047D02*
Y34381D01*
X33834Y36047D01*
X33417D01*
X33001Y35631D01*
Y34798D01*
X33417Y34381D01*
X29066Y116883D02*
X28650Y117299D01*
X27817D01*
X27400Y116883D01*
Y115217D01*
X27817Y114800D01*
X28650D01*
X29066Y115217D01*
X31565Y114800D02*
X29899D01*
X31565Y116466D01*
Y116883D01*
X31149Y117299D01*
X30316D01*
X29899Y116883D01*
X33648Y114800D02*
Y117299D01*
X32398Y116050D01*
X34064D01*
X39666Y52983D02*
X39250Y53399D01*
X38416D01*
X38000Y52983D01*
Y51316D01*
X38416Y50900D01*
X39250D01*
X39666Y51316D01*
X40499Y50900D02*
X41332D01*
X40916D01*
Y53399D01*
X40499Y52983D01*
X42582D02*
X42998Y53399D01*
X43832D01*
X44248Y52983D01*
Y51316D01*
X43832Y50900D01*
X42998D01*
X42582Y51316D01*
Y52983D01*
X46331Y50900D02*
Y53399D01*
X45081Y52150D01*
X46747D01*
X31717Y91666D02*
X31301Y91250D01*
Y90417D01*
X31717Y90000D01*
X33384D01*
X33800Y90417D01*
Y91250D01*
X33384Y91666D01*
X33800Y92499D02*
Y93332D01*
Y92916D01*
X31301D01*
X31717Y92499D01*
Y94582D02*
X31301Y94998D01*
Y95831D01*
X31717Y96248D01*
X33384D01*
X33800Y95831D01*
Y94998D01*
X33384Y94582D01*
X31717D01*
X31301Y98747D02*
Y97081D01*
X32550D01*
X32134Y97914D01*
Y98331D01*
X32550Y98747D01*
X33384D01*
X33800Y98331D01*
Y97498D01*
X33384Y97081D01*
X54600Y58900D02*
X52101D01*
Y60150D01*
X52517Y60566D01*
X53350D01*
X53767Y60150D01*
Y58900D01*
Y59733D02*
X54600Y60566D01*
Y61399D02*
Y62232D01*
Y61816D01*
X52101D01*
X52517Y61399D01*
X54600Y65148D02*
Y63482D01*
X52934Y65148D01*
X52517D01*
X52101Y64731D01*
Y63898D01*
X52517Y63482D01*
X15700Y91400D02*
X13201D01*
Y92650D01*
X13617Y93066D01*
X14450D01*
X14867Y92650D01*
Y91400D01*
Y92233D02*
X15700Y93066D01*
Y93899D02*
Y94732D01*
Y94316D01*
X13201D01*
X13617Y93899D01*
X13201Y95982D02*
Y97648D01*
X13617D01*
X15283Y95982D01*
X15700D01*
X10400Y37800D02*
X7901D01*
Y39050D01*
X8317Y39466D01*
X9150D01*
X9567Y39050D01*
Y37800D01*
Y38633D02*
X10400Y39466D01*
Y40299D02*
Y41132D01*
Y40716D01*
X7901D01*
X8317Y40299D01*
Y42382D02*
X7901Y42798D01*
Y43632D01*
X8317Y44048D01*
X8734D01*
X9150Y43632D01*
X9567Y44048D01*
X9984D01*
X10400Y43632D01*
Y42798D01*
X9984Y42382D01*
X9567D01*
X9150Y42798D01*
X8734Y42382D01*
X8317D01*
X9150Y42798D02*
Y43632D01*
X9300Y75299D02*
Y73216D01*
X9717Y72800D01*
X10550D01*
X10966Y73216D01*
Y75299D01*
X13049Y72800D02*
Y75299D01*
X11799Y74050D01*
X13465D01*
X308100Y265700D02*
Y268199D01*
X309350D01*
X309766Y267783D01*
Y266950D01*
X309350Y266533D01*
X308100D01*
X308933D02*
X309766Y265700D01*
X310599D02*
X311432D01*
X311016D01*
Y268199D01*
X310599Y267783D01*
X312682D02*
X313098Y268199D01*
X313931D01*
X314348Y267783D01*
Y267366D01*
X313931Y266950D01*
X313515D01*
X313931D01*
X314348Y266533D01*
Y266116D01*
X313931Y265700D01*
X313098D01*
X312682Y266116D01*
X32601Y184400D02*
X35100D01*
Y185650D01*
X34683Y186066D01*
X33017D01*
X32601Y185650D01*
Y184400D01*
X35100Y186899D02*
Y187732D01*
Y187316D01*
X32601D01*
X33017Y186899D01*
X32601Y190648D02*
X33017Y189815D01*
X33850Y188982D01*
X34683D01*
X35100Y189398D01*
Y190231D01*
X34683Y190648D01*
X34267D01*
X33850Y190231D01*
Y188982D01*
X19017Y223466D02*
X18601Y223050D01*
Y222217D01*
X19017Y221800D01*
X19434D01*
X19850Y222217D01*
Y223050D01*
X20267Y223466D01*
X20684D01*
X21100Y223050D01*
Y222217D01*
X20684Y221800D01*
X21100Y224299D02*
Y225132D01*
Y224716D01*
X18601D01*
X19017Y224299D01*
X8584Y181968D02*
X10250Y179469D01*
Y181968D02*
X8584Y179469D01*
X12750D02*
X11083D01*
X12750Y181135D01*
Y181551D01*
X12333Y181968D01*
X11500D01*
X11083Y181551D01*
X133400Y188299D02*
Y186216D01*
X133817Y185800D01*
X134650D01*
X135066Y186216D01*
Y188299D01*
X137565Y185800D02*
X135899D01*
X137565Y187466D01*
Y187883D01*
X137149Y188299D01*
X136316D01*
X135899Y187883D01*
X112600Y192199D02*
X114266Y189700D01*
Y192199D02*
X112600Y189700D01*
X115099D02*
X115932D01*
X115516D01*
Y192199D01*
X115099Y191783D01*
X117182D02*
X117598Y192199D01*
X118431D01*
X118848Y191783D01*
Y191366D01*
X118431Y190950D01*
X118848Y190533D01*
Y190117D01*
X118431Y189700D01*
X117598D01*
X117182Y190117D01*
Y190533D01*
X117598Y190950D01*
X117182Y191366D01*
Y191783D01*
X117598Y190950D02*
X118431D01*
X5537Y185989D02*
Y183490D01*
X7203D01*
X9702Y185989D02*
X8036D01*
Y183490D01*
X9702D01*
X8036Y184739D02*
X8869D01*
X10535Y185989D02*
Y183490D01*
X11785D01*
X12201Y183906D01*
Y185572D01*
X11785Y185989D01*
X10535D01*
X13035D02*
X14701D01*
Y185572D01*
X13035Y183906D01*
Y183490D01*
X197666Y185083D02*
X197250Y185499D01*
X196416D01*
X196000Y185083D01*
Y183416D01*
X196416Y183000D01*
X197250D01*
X197666Y183416D01*
X200165Y185499D02*
X199332Y185083D01*
X198499Y184250D01*
Y183416D01*
X198916Y183000D01*
X199749D01*
X200165Y183416D01*
Y183833D01*
X199749Y184250D01*
X198499D01*
X119865Y163264D02*
X119448Y162847D01*
Y162014D01*
X119865Y161598D01*
X121531D01*
X121947Y162014D01*
Y162847D01*
X121531Y163264D01*
Y164097D02*
X121947Y164513D01*
Y165346D01*
X121531Y165763D01*
X119865D01*
X119448Y165346D01*
Y164513D01*
X119865Y164097D01*
X120281D01*
X120698Y164513D01*
Y165763D01*
X204517Y139566D02*
X204101Y139150D01*
Y138317D01*
X204517Y137900D01*
X206184D01*
X206600Y138317D01*
Y139150D01*
X206184Y139566D01*
X204517Y140399D02*
X204101Y140816D01*
Y141649D01*
X204517Y142065D01*
X204934D01*
X205350Y141649D01*
X205767Y142065D01*
X206184D01*
X206600Y141649D01*
Y140816D01*
X206184Y140399D01*
X205767D01*
X205350Y140816D01*
X204934Y140399D01*
X204517D01*
X205350Y140816D02*
Y141649D01*
X170614Y115697D02*
X170198Y116113D01*
X169365D01*
X168948Y115697D01*
Y114031D01*
X169365Y113614D01*
X170198D01*
X170614Y114031D01*
X171447Y116113D02*
X173113D01*
Y115697D01*
X171447Y114031D01*
Y113614D01*
X28427Y209579D02*
X28010Y209163D01*
Y208330D01*
X28427Y207913D01*
X30093D01*
X30509Y208330D01*
Y209163D01*
X30093Y209579D01*
X30509Y210413D02*
Y211246D01*
Y210829D01*
X28010D01*
X28427Y210413D01*
X56485Y139698D02*
X56902Y139282D01*
X57735D01*
X58151Y139698D01*
Y141365D01*
X57735Y141781D01*
X56902D01*
X56485Y141365D01*
X55652Y141781D02*
X54819D01*
X55235D01*
Y139282D01*
X55652Y139698D01*
X53569Y141781D02*
X52736D01*
X53153D01*
Y139282D01*
X53569Y139698D01*
X44566Y166883D02*
X44150Y167299D01*
X43317D01*
X42900Y166883D01*
Y165217D01*
X43317Y164800D01*
X44150D01*
X44566Y165217D01*
X45399Y164800D02*
X46232D01*
X45816D01*
Y167299D01*
X45399Y166883D01*
X49148Y167299D02*
X47482D01*
Y166050D01*
X48315Y166466D01*
X48731D01*
X49148Y166050D01*
Y165217D01*
X48731Y164800D01*
X47898D01*
X47482Y165217D01*
X3568Y203706D02*
Y201206D01*
X5235D01*
X7734Y203706D02*
X6068D01*
Y201206D01*
X7734D01*
X6068Y202456D02*
X6901D01*
X8567Y203706D02*
Y201206D01*
X9816D01*
X10233Y201623D01*
Y203289D01*
X9816Y203706D01*
X8567D01*
X11066Y201206D02*
X11899D01*
X11483D01*
Y203706D01*
X11066Y203289D01*
X123017Y150366D02*
X122601Y149950D01*
Y149117D01*
X123017Y148700D01*
X124683D01*
X125100Y149117D01*
Y149950D01*
X124683Y150366D01*
X125100Y151199D02*
Y152032D01*
Y151616D01*
X122601D01*
X123017Y151199D01*
Y153282D02*
X122601Y153698D01*
Y154531D01*
X123017Y154948D01*
X124683D01*
X125100Y154531D01*
Y153698D01*
X124683Y153282D01*
X123017D01*
X57363Y176597D02*
X57780Y176180D01*
X58613D01*
X59029Y176597D01*
Y178263D01*
X58613Y178680D01*
X57780D01*
X57363Y178263D01*
X56530Y178680D02*
X55697D01*
X56113D01*
Y176180D01*
X56530Y176597D01*
X52781Y176180D02*
X53614Y176597D01*
X54447Y177430D01*
Y178263D01*
X54031Y178680D01*
X53198D01*
X52781Y178263D01*
Y177847D01*
X53198Y177430D01*
X54447D01*
X70498Y187958D02*
Y185875D01*
X70914Y185458D01*
X71747D01*
X72164Y185875D01*
Y187958D01*
X72997Y185458D02*
X73830D01*
X73413D01*
Y187958D01*
X72997Y187541D01*
X55300Y216799D02*
X56966Y214300D01*
Y216799D02*
X55300Y214300D01*
X57799D02*
X58632D01*
X58216D01*
Y216799D01*
X57799Y216383D01*
X59882Y216799D02*
X61548D01*
Y216383D01*
X59882Y214717D01*
Y214300D01*
X56718Y151994D02*
X54219D01*
Y153243D01*
X54636Y153660D01*
X55468D01*
X55885Y153243D01*
Y151994D01*
Y152827D02*
X56718Y153660D01*
X54219Y154493D02*
X55885D01*
X56718Y155326D01*
X55885Y156159D01*
X54219D01*
X56718Y156992D02*
Y157825D01*
Y157409D01*
X54219D01*
X54636Y156992D01*
X57300Y181300D02*
X54801D01*
Y182550D01*
X55217Y182966D01*
X56050D01*
X56467Y182550D01*
Y181300D01*
Y182133D02*
X57300Y182966D01*
X54801Y183799D02*
X56467D01*
X57300Y184632D01*
X56467Y185465D01*
X54801D01*
X57300Y187964D02*
Y186298D01*
X55634Y187964D01*
X55217D01*
X54801Y187548D01*
Y186715D01*
X55217Y186298D01*
X101600Y190000D02*
Y192499D01*
X102850D01*
X103266Y192083D01*
Y191250D01*
X102850Y190833D01*
X101600D01*
X102433D02*
X103266Y190000D01*
X104099D02*
Y192499D01*
X105765Y190000D01*
Y192499D01*
X108265D02*
X106598D01*
Y191250D01*
X107431Y191666D01*
X107848D01*
X108265Y191250D01*
Y190417D01*
X107848Y190000D01*
X107015D01*
X106598Y190417D01*
X64231Y146371D02*
X64647Y146787D01*
Y147620D01*
X64231Y148037D01*
X62565D01*
X62148Y147620D01*
Y146787D01*
X62565Y146371D01*
X62148Y145538D02*
Y144705D01*
Y145121D01*
X64647D01*
X64231Y145538D01*
Y143455D02*
X64647Y143039D01*
Y142206D01*
X64231Y141789D01*
X63814D01*
X63398Y142206D01*
Y142622D01*
Y142206D01*
X62981Y141789D01*
X62565D01*
X62148Y142206D01*
Y143039D01*
X62565Y143455D01*
X88610Y151326D02*
X89027Y150909D01*
X89860D01*
X90276Y151326D01*
Y152992D01*
X89860Y153409D01*
X89027D01*
X88610Y152992D01*
X87777Y153409D02*
X86944D01*
X87361D01*
Y150909D01*
X87777Y151326D01*
X84028Y153409D02*
X85694D01*
X84028Y151742D01*
Y151326D01*
X84445Y150909D01*
X85278D01*
X85694Y151326D01*
X76466Y153683D02*
X76050Y154099D01*
X75217D01*
X74800Y153683D01*
Y152016D01*
X75217Y151600D01*
X76050D01*
X76466Y152016D01*
X77299Y151600D02*
X78132D01*
X77716D01*
Y154099D01*
X77299Y153683D01*
X80631Y151600D02*
Y154099D01*
X79382Y152850D01*
X81048D01*
X76154Y150252D02*
X76570D01*
X77403Y151085D01*
X76570Y151918D01*
X76154D01*
X77403Y151085D02*
X78653D01*
Y154417D02*
Y152751D01*
X76987Y154417D01*
X76570D01*
X76154Y154001D01*
Y153168D01*
X76570Y152751D01*
X327297Y191782D02*
Y193448D01*
X326880Y193865D01*
X326047D01*
X325631Y193448D01*
Y191782D01*
X326047Y191365D01*
X326880D01*
X326464Y192198D02*
X327297Y191365D01*
X326880D02*
X327297Y191782D01*
X329796Y193865D02*
X328130D01*
Y192615D01*
X328963Y193032D01*
X329380D01*
X329796Y192615D01*
Y191782D01*
X329380Y191365D01*
X328546D01*
X328130Y191782D01*
X224700Y169900D02*
Y172399D01*
X225950D01*
X226366Y171983D01*
Y171150D01*
X225950Y170733D01*
X224700D01*
X225533D02*
X226366Y169900D01*
X227199Y171983D02*
X227616Y172399D01*
X228449D01*
X228865Y171983D01*
Y171566D01*
X228449Y171150D01*
X228032D01*
X228449D01*
X228865Y170733D01*
Y170317D01*
X228449Y169900D01*
X227616D01*
X227199Y170317D01*
X229698Y169900D02*
X230531D01*
X230115D01*
Y172399D01*
X229698Y171983D01*
X104766Y147383D02*
X104350Y147799D01*
X103516D01*
X103100Y147383D01*
Y145717D01*
X103516Y145300D01*
X104350D01*
X104766Y145717D01*
X107265Y147799D02*
X105599D01*
Y146550D01*
X106432Y146966D01*
X106849D01*
X107265Y146550D01*
Y145717D01*
X106849Y145300D01*
X106016D01*
X105599Y145717D01*
X108098Y147799D02*
X109765D01*
Y147383D01*
X108098Y145717D01*
Y145300D01*
X107907Y164759D02*
X107491Y164342D01*
Y163509D01*
X107907Y163093D01*
X109573D01*
X109990Y163509D01*
Y164342D01*
X109573Y164759D01*
X107491Y167258D02*
Y165592D01*
X108740D01*
X108324Y166425D01*
Y166842D01*
X108740Y167258D01*
X109573D01*
X109990Y166842D01*
Y166009D01*
X109573Y165592D01*
X107907Y168091D02*
X107491Y168508D01*
Y169341D01*
X107907Y169757D01*
X108324D01*
X108740Y169341D01*
X109157Y169757D01*
X109573D01*
X109990Y169341D01*
Y168508D01*
X109573Y168091D01*
X109157D01*
X108740Y168508D01*
X108324Y168091D01*
X107907D01*
X108740Y168508D02*
Y169341D01*
X195166Y181583D02*
X194750Y181999D01*
X193916D01*
X193500Y181583D01*
Y179917D01*
X193916Y179500D01*
X194750D01*
X195166Y179917D01*
X197665Y181999D02*
X195999D01*
Y180750D01*
X196832Y181166D01*
X197249D01*
X197665Y180750D01*
Y179917D01*
X197249Y179500D01*
X196416D01*
X195999Y179917D01*
X198498D02*
X198915Y179500D01*
X199748D01*
X200165Y179917D01*
Y181583D01*
X199748Y181999D01*
X198915D01*
X198498Y181583D01*
Y181166D01*
X198915Y180750D01*
X200165D01*
X24200Y192700D02*
Y195199D01*
X25450D01*
X25866Y194783D01*
Y193950D01*
X25450Y193533D01*
X24200D01*
X25033D02*
X25866Y192700D01*
X26699Y194783D02*
X27116Y195199D01*
X27949D01*
X28365Y194783D01*
Y194366D01*
X27949Y193950D01*
X27532D01*
X27949D01*
X28365Y193533D01*
Y193116D01*
X27949Y192700D01*
X27116D01*
X26699Y193116D01*
X30865Y195199D02*
X29198D01*
Y193950D01*
X30031Y194366D01*
X30448D01*
X30865Y193950D01*
Y193116D01*
X30448Y192700D01*
X29615D01*
X29198Y193116D01*
X222800Y135800D02*
Y138299D01*
X224050D01*
X224466Y137883D01*
Y137050D01*
X224050Y136633D01*
X222800D01*
X223633D02*
X224466Y135800D01*
X225299Y137883D02*
X225716Y138299D01*
X226549D01*
X226965Y137883D01*
Y137466D01*
X226549Y137050D01*
X226132D01*
X226549D01*
X226965Y136633D01*
Y136216D01*
X226549Y135800D01*
X225716D01*
X225299Y136216D01*
X229465Y138299D02*
X228631Y137883D01*
X227798Y137050D01*
Y136216D01*
X228215Y135800D01*
X229048D01*
X229465Y136216D01*
Y136633D01*
X229048Y137050D01*
X227798D01*
X215666Y163483D02*
X215250Y163899D01*
X214417D01*
X214000Y163483D01*
Y161817D01*
X214417Y161400D01*
X215250D01*
X215666Y161817D01*
X218165Y163899D02*
X216499D01*
Y162650D01*
X217332Y163066D01*
X217749D01*
X218165Y162650D01*
Y161817D01*
X217749Y161400D01*
X216916D01*
X216499Y161817D01*
X220665Y163899D02*
X219831Y163483D01*
X218998Y162650D01*
Y161817D01*
X219415Y161400D01*
X220248D01*
X220665Y161817D01*
Y162233D01*
X220248Y162650D01*
X218998D01*
X273900Y70799D02*
Y68300D01*
X275566D01*
X278065Y70799D02*
X276399D01*
Y68300D01*
X278065D01*
X276399Y69550D02*
X277232D01*
X278898Y70799D02*
Y68300D01*
X280148D01*
X280564Y68717D01*
Y70383D01*
X280148Y70799D01*
X278898D01*
X283064Y68300D02*
X281398D01*
X283064Y69966D01*
Y70383D01*
X282647Y70799D01*
X281814D01*
X281398Y70383D01*
X267000Y72900D02*
Y75399D01*
X268250D01*
X268666Y74983D01*
Y74150D01*
X268250Y73733D01*
X267000D01*
X267833D02*
X268666Y72900D01*
X270749D02*
Y75399D01*
X269499Y74150D01*
X271165D01*
X271998Y74983D02*
X272415Y75399D01*
X273248D01*
X273664Y74983D01*
Y73317D01*
X273248Y72900D01*
X272415D01*
X271998Y73317D01*
Y74983D01*
X283900Y72500D02*
Y74999D01*
X285150D01*
X285566Y74583D01*
Y73750D01*
X285150Y73333D01*
X283900D01*
X284733D02*
X285566Y72500D01*
X287649D02*
Y74999D01*
X286399Y73750D01*
X288065D01*
X290564Y72500D02*
X288898D01*
X290564Y74166D01*
Y74583D01*
X290148Y74999D01*
X289315D01*
X288898Y74583D01*
X294600Y69800D02*
X292101D01*
Y71050D01*
X292517Y71466D01*
X293350D01*
X293767Y71050D01*
Y69800D01*
Y70633D02*
X294600Y71466D01*
Y73549D02*
X292101D01*
X293350Y72299D01*
Y73965D01*
X292517Y74798D02*
X292101Y75215D01*
Y76048D01*
X292517Y76464D01*
X292934D01*
X293350Y76048D01*
Y75631D01*
Y76048D01*
X293767Y76464D01*
X294183D01*
X294600Y76048D01*
Y75215D01*
X294183Y74798D01*
X29857Y212644D02*
X27358D01*
Y213894D01*
X27774Y214310D01*
X28607D01*
X29024Y213894D01*
Y212644D01*
Y213477D02*
X29857Y214310D01*
Y216393D02*
X27358D01*
X28607Y215143D01*
Y216809D01*
X27358Y219309D02*
X27774Y218476D01*
X28607Y217642D01*
X29440D01*
X29857Y218059D01*
Y218892D01*
X29440Y219309D01*
X29024D01*
X28607Y218892D01*
Y217642D01*
X46600Y209600D02*
X44101D01*
Y210850D01*
X44517Y211266D01*
X45350D01*
X45767Y210850D01*
Y209600D01*
Y210433D02*
X46600Y211266D01*
Y213349D02*
X44101D01*
X45350Y212099D01*
Y213765D01*
X44101Y214598D02*
Y216265D01*
X44517D01*
X46183Y214598D01*
X46600D01*
X299400Y161000D02*
Y163499D01*
X300650D01*
X301066Y163083D01*
Y162250D01*
X300650Y161833D01*
X299400D01*
X300233D02*
X301066Y161000D01*
X303565Y163499D02*
X301899D01*
Y162250D01*
X302732Y162666D01*
X303149D01*
X303565Y162250D01*
Y161416D01*
X303149Y161000D01*
X302316D01*
X301899Y161416D01*
X306065Y163499D02*
X305231Y163083D01*
X304398Y162250D01*
Y161416D01*
X304815Y161000D01*
X305648D01*
X306065Y161416D01*
Y161833D01*
X305648Y162250D01*
X304398D01*
X322500Y160500D02*
Y162999D01*
X323750D01*
X324166Y162583D01*
Y161750D01*
X323750Y161333D01*
X322500D01*
X323333D02*
X324166Y160500D01*
X326665Y162999D02*
X324999D01*
Y161750D01*
X325832Y162166D01*
X326249D01*
X326665Y161750D01*
Y160916D01*
X326249Y160500D01*
X325416D01*
X324999Y160916D01*
X327498Y162999D02*
X329165D01*
Y162583D01*
X327498Y160916D01*
Y160500D01*
X348801Y246100D02*
X351300D01*
Y247766D01*
X348801Y250265D02*
Y248599D01*
X351300D01*
Y250265D01*
X350050Y248599D02*
Y249432D01*
X348801Y251098D02*
X351300D01*
Y252348D01*
X350884Y252765D01*
X349217D01*
X348801Y252348D01*
Y251098D01*
Y255264D02*
X349217Y254431D01*
X350050Y253598D01*
X350884D01*
X351300Y254014D01*
Y254847D01*
X350884Y255264D01*
X350467D01*
X350050Y254847D01*
Y253598D01*
X351800Y260000D02*
X349301D01*
Y261250D01*
X349717Y261666D01*
X350550D01*
X350967Y261250D01*
Y260000D01*
Y260833D02*
X351800Y261666D01*
X349301Y264165D02*
Y262499D01*
X350550D01*
X350134Y263332D01*
Y263749D01*
X350550Y264165D01*
X351383D01*
X351800Y263749D01*
Y262916D01*
X351383Y262499D01*
X349717Y264998D02*
X349301Y265415D01*
Y266248D01*
X349717Y266665D01*
X350134D01*
X350550Y266248D01*
X350967Y266665D01*
X351383D01*
X351800Y266248D01*
Y265415D01*
X351383Y264998D01*
X350967D01*
X350550Y265415D01*
X350134Y264998D01*
X349717D01*
X350550Y265415D02*
Y266248D01*
X113724Y169828D02*
Y169412D01*
X114557Y168579D01*
X115390Y169412D01*
Y169828D01*
X114557Y168579D02*
Y167329D01*
X116223D02*
X117056D01*
X116639D01*
Y169828D01*
X116223Y169412D01*
X43200Y167700D02*
Y170199D01*
X44450D01*
X44866Y169783D01*
Y168950D01*
X44450Y168533D01*
X43200D01*
X44033D02*
X44866Y167700D01*
X45699D02*
X46532D01*
X46116D01*
Y170199D01*
X45699Y169783D01*
X42900Y171500D02*
Y173999D01*
X44150D01*
X44566Y173583D01*
Y172750D01*
X44150Y172333D01*
X42900D01*
X43733D02*
X44566Y171500D01*
X47065D02*
X45399D01*
X47065Y173166D01*
Y173583D01*
X46649Y173999D01*
X45816D01*
X45399Y173583D01*
X49187Y130718D02*
X48770Y131135D01*
X47937D01*
X47521Y130718D01*
Y129052D01*
X47937Y128635D01*
X48770D01*
X49187Y129052D01*
X51686Y128635D02*
X50020D01*
X51686Y130302D01*
Y130718D01*
X51269Y131135D01*
X50436D01*
X50020Y130718D01*
X295600Y157499D02*
Y155000D01*
X296850D01*
X297266Y155417D01*
Y157083D01*
X296850Y157499D01*
X295600D01*
X298099D02*
X299765D01*
Y157083D01*
X298099Y155417D01*
Y155000D01*
X195116Y188798D02*
X194700Y189215D01*
X193867D01*
X193450Y188798D01*
Y187132D01*
X193867Y186716D01*
X194700D01*
X195116Y187132D01*
X197616Y186716D02*
X195950D01*
X197616Y188382D01*
Y188798D01*
X197199Y189215D01*
X196366D01*
X195950Y188798D01*
X200115Y189215D02*
X199282Y188798D01*
X198449Y187965D01*
Y187132D01*
X198865Y186716D01*
X199698D01*
X200115Y187132D01*
Y187549D01*
X199698Y187965D01*
X198449D01*
X165707Y191078D02*
X165291Y190661D01*
Y189828D01*
X165707Y189412D01*
X167373D01*
X167790Y189828D01*
Y190661D01*
X167373Y191078D01*
X165291Y193577D02*
Y191911D01*
X166540D01*
X166124Y192744D01*
Y193161D01*
X166540Y193577D01*
X167373D01*
X167790Y193161D01*
Y192327D01*
X167373Y191911D01*
X167790Y196076D02*
Y194410D01*
X166124Y196076D01*
X165707D01*
X165291Y195660D01*
Y194827D01*
X165707Y194410D01*
X289666Y39183D02*
X289250Y39599D01*
X288417D01*
X288000Y39183D01*
Y37516D01*
X288417Y37100D01*
X289250D01*
X289666Y37516D01*
X292165Y39599D02*
X291332Y39183D01*
X290499Y38350D01*
Y37516D01*
X290916Y37100D01*
X291749D01*
X292165Y37516D01*
Y37933D01*
X291749Y38350D01*
X290499D01*
X292998Y39183D02*
X293415Y39599D01*
X294248D01*
X294665Y39183D01*
Y37516D01*
X294248Y37100D01*
X293415D01*
X292998Y37516D01*
Y39183D01*
X319466Y125183D02*
X319050Y125599D01*
X318216D01*
X317800Y125183D01*
Y123516D01*
X318216Y123100D01*
X319050D01*
X319466Y123516D01*
X321965Y125599D02*
X321132Y125183D01*
X320299Y124350D01*
Y123516D01*
X320716Y123100D01*
X321549D01*
X321965Y123516D01*
Y123933D01*
X321549Y124350D01*
X320299D01*
X324465Y123100D02*
X322798D01*
X324465Y124766D01*
Y125183D01*
X324048Y125599D01*
X323215D01*
X322798Y125183D01*
X290100Y144500D02*
X287601D01*
Y145750D01*
X288017Y146166D01*
X288850D01*
X289267Y145750D01*
Y144500D01*
Y145333D02*
X290100Y146166D01*
X289684Y146999D02*
X290100Y147416D01*
Y148249D01*
X289684Y148665D01*
X288017D01*
X287601Y148249D01*
Y147416D01*
X288017Y146999D01*
X288434D01*
X288850Y147416D01*
Y148665D01*
X273800Y147800D02*
Y150299D01*
X275050D01*
X275466Y149883D01*
Y149050D01*
X275050Y148633D01*
X273800D01*
X274633D02*
X275466Y147800D01*
X276299D02*
X277132D01*
X276716D01*
Y150299D01*
X276299Y149883D01*
X280048Y150299D02*
X279215Y149883D01*
X278382Y149050D01*
Y148216D01*
X278798Y147800D01*
X279631D01*
X280048Y148216D01*
Y148633D01*
X279631Y149050D01*
X278382D01*
X273501Y112900D02*
X276000D01*
Y114150D01*
X275584Y114566D01*
X273917D01*
X273501Y114150D01*
Y112900D01*
Y117065D02*
X273917Y116232D01*
X274750Y115399D01*
X275584D01*
X276000Y115816D01*
Y116649D01*
X275584Y117065D01*
X275167D01*
X274750Y116649D01*
Y115399D01*
X346000Y210499D02*
Y208000D01*
X347250D01*
X347666Y208417D01*
Y210083D01*
X347250Y210499D01*
X346000D01*
X348499Y208000D02*
X349332D01*
X348916D01*
Y210499D01*
X348499Y210083D01*
X350582D02*
X350998Y210499D01*
X351831D01*
X352248Y210083D01*
Y208417D01*
X351831Y208000D01*
X350998D01*
X350582Y208417D01*
Y210083D01*
X89592Y146225D02*
Y144142D01*
X90009Y143726D01*
X90842D01*
X91258Y144142D01*
Y146225D01*
X92091Y143726D02*
X92924D01*
X92508D01*
Y146225D01*
X92091Y145809D01*
X94174D02*
X94591Y146225D01*
X95424D01*
X95840Y145809D01*
Y144142D01*
X95424Y143726D01*
X94591D01*
X94174Y144142D01*
Y145809D01*
X45400Y190000D02*
Y192499D01*
X46650D01*
X47066Y192083D01*
Y191250D01*
X46650Y190833D01*
X45400D01*
X46233D02*
X47066Y190000D01*
X47899Y192499D02*
X49565D01*
Y192083D01*
X47899Y190417D01*
Y190000D01*
X52065D02*
X50398D01*
X52065Y191666D01*
Y192083D01*
X51648Y192499D01*
X50815D01*
X50398Y192083D01*
X78217Y122066D02*
X77801Y121650D01*
Y120817D01*
X78217Y120400D01*
X79883D01*
X80300Y120817D01*
Y121650D01*
X79883Y122066D01*
X77801Y124565D02*
X78217Y123732D01*
X79050Y122899D01*
X79883D01*
X80300Y123316D01*
Y124149D01*
X79883Y124565D01*
X79467D01*
X79050Y124149D01*
Y122899D01*
X77801Y125398D02*
Y127065D01*
X78217D01*
X79883Y125398D01*
X80300D01*
X122317Y122566D02*
X121901Y122150D01*
Y121317D01*
X122317Y120900D01*
X123984D01*
X124400Y121317D01*
Y122150D01*
X123984Y122566D01*
X121901Y125065D02*
X122317Y124232D01*
X123150Y123399D01*
X123984D01*
X124400Y123816D01*
Y124649D01*
X123984Y125065D01*
X123567D01*
X123150Y124649D01*
Y123399D01*
X122317Y125898D02*
X121901Y126315D01*
Y127148D01*
X122317Y127565D01*
X122734D01*
X123150Y127148D01*
X123567Y127565D01*
X123984D01*
X124400Y127148D01*
Y126315D01*
X123984Y125898D01*
X123567D01*
X123150Y126315D01*
X122734Y125898D01*
X122317D01*
X123150Y126315D02*
Y127148D01*
X125717Y141666D02*
X125301Y141250D01*
Y140417D01*
X125717Y140000D01*
X127383D01*
X127800Y140417D01*
Y141250D01*
X127383Y141666D01*
X125301Y144165D02*
X125717Y143332D01*
X126550Y142499D01*
X127383D01*
X127800Y142916D01*
Y143749D01*
X127383Y144165D01*
X126967D01*
X126550Y143749D01*
Y142499D01*
X127383Y144998D02*
X127800Y145415D01*
Y146248D01*
X127383Y146665D01*
X125717D01*
X125301Y146248D01*
Y145415D01*
X125717Y144998D01*
X126134D01*
X126550Y145415D01*
Y146665D01*
X77917Y139366D02*
X77501Y138950D01*
Y138117D01*
X77917Y137700D01*
X79584D01*
X80000Y138117D01*
Y138950D01*
X79584Y139366D01*
X77501Y140199D02*
Y141865D01*
X77917D01*
X79584Y140199D01*
X80000D01*
X77917Y142698D02*
X77501Y143115D01*
Y143948D01*
X77917Y144365D01*
X79584D01*
X80000Y143948D01*
Y143115D01*
X79584Y142698D01*
X77917D01*
X142800Y202300D02*
X145299D01*
Y201050D01*
X144883Y200634D01*
X144050D01*
X143633Y201050D01*
Y202300D01*
Y201467D02*
X142800Y200634D01*
X144883Y199801D02*
X145299Y199384D01*
Y198551D01*
X144883Y198135D01*
X144466D01*
X144050Y198551D01*
Y198968D01*
Y198551D01*
X143633Y198135D01*
X143217D01*
X142800Y198551D01*
Y199384D01*
X143217Y199801D01*
X142800Y196052D02*
X145299D01*
X144050Y197302D01*
Y195635D01*
X223800Y129199D02*
Y126700D01*
X225050D01*
X225466Y127117D01*
Y128783D01*
X225050Y129199D01*
X223800D01*
X226299Y126700D02*
X227132D01*
X226716D01*
Y129199D01*
X226299Y128783D01*
X228382D02*
X228798Y129199D01*
X229631D01*
X230048Y128783D01*
Y128366D01*
X229631Y127950D01*
X229215D01*
X229631D01*
X230048Y127533D01*
Y127117D01*
X229631Y126700D01*
X228798D01*
X228382Y127117D01*
X225000Y150599D02*
Y148100D01*
X226250D01*
X226666Y148516D01*
Y150183D01*
X226250Y150599D01*
X225000D01*
X227499Y148100D02*
X228332D01*
X227916D01*
Y150599D01*
X227499Y150183D01*
X229582Y148100D02*
X230415D01*
X229998D01*
Y150599D01*
X229582Y150183D01*
X224600Y176100D02*
Y178599D01*
X225850D01*
X226266Y178183D01*
Y177350D01*
X225850Y176933D01*
X224600D01*
X225433D02*
X226266Y176100D01*
X227099Y178183D02*
X227516Y178599D01*
X228349D01*
X228765Y178183D01*
Y177766D01*
X228349Y177350D01*
X227932D01*
X228349D01*
X228765Y176933D01*
Y176516D01*
X228349Y176100D01*
X227516D01*
X227099Y176516D01*
X231264Y176100D02*
X229598D01*
X231264Y177766D01*
Y178183D01*
X230848Y178599D01*
X230015D01*
X229598Y178183D01*
X229400Y139900D02*
X226901D01*
Y141150D01*
X227317Y141566D01*
X228150D01*
X228567Y141150D01*
Y139900D01*
Y140733D02*
X229400Y141566D01*
X227317Y142399D02*
X226901Y142816D01*
Y143649D01*
X227317Y144065D01*
X227734D01*
X228150Y143649D01*
Y143232D01*
Y143649D01*
X228567Y144065D01*
X228983D01*
X229400Y143649D01*
Y142816D01*
X228983Y142399D01*
X226901Y144898D02*
Y146564D01*
X227317D01*
X228983Y144898D01*
X229400D01*
X273400Y6499D02*
Y4000D01*
X274650D01*
X275066Y4417D01*
Y6083D01*
X274650Y6499D01*
X273400D01*
X277565Y4000D02*
X275899D01*
X277565Y5666D01*
Y6083D01*
X277149Y6499D01*
X276316D01*
X275899Y6083D01*
X272100Y37599D02*
Y35100D01*
X273350D01*
X273766Y35517D01*
Y37183D01*
X273350Y37599D01*
X272100D01*
X274599Y37183D02*
X275016Y37599D01*
X275849D01*
X276265Y37183D01*
Y36766D01*
X275849Y36350D01*
X276265Y35933D01*
Y35517D01*
X275849Y35100D01*
X275016D01*
X274599Y35517D01*
Y35933D01*
X275016Y36350D01*
X274599Y36766D01*
Y37183D01*
X275016Y36350D02*
X275849D01*
X44866Y178883D02*
X44450Y179299D01*
X43617D01*
X43200Y178883D01*
Y177216D01*
X43617Y176800D01*
X44450D01*
X44866Y177216D01*
X47365Y179299D02*
X46532Y178883D01*
X45699Y178050D01*
Y177216D01*
X46116Y176800D01*
X46949D01*
X47365Y177216D01*
Y177633D01*
X46949Y178050D01*
X45699D01*
X48198Y178883D02*
X48615Y179299D01*
X49448D01*
X49865Y178883D01*
Y178466D01*
X49448Y178050D01*
X49031D01*
X49448D01*
X49865Y177633D01*
Y177216D01*
X49448Y176800D01*
X48615D01*
X48198Y177216D01*
X42372Y221780D02*
X39872D01*
Y220531D01*
X40289Y220114D01*
X41955D01*
X42372Y220531D01*
Y221780D01*
X41955Y219281D02*
X42372Y218865D01*
Y218032D01*
X41955Y217615D01*
X41539D01*
X41122Y218032D01*
Y218448D01*
Y218032D01*
X40705Y217615D01*
X40289D01*
X39872Y218032D01*
Y218865D01*
X40289Y219281D01*
X49201Y209900D02*
X51700D01*
Y211150D01*
X51284Y211566D01*
X49617D01*
X49201Y211150D01*
Y209900D01*
X51700Y213649D02*
X49201D01*
X50450Y212399D01*
Y214065D01*
X168300Y107000D02*
Y109499D01*
X169550D01*
X169966Y109083D01*
Y108250D01*
X169550Y107833D01*
X168300D01*
X169133D02*
X169966Y107000D01*
X170799D02*
Y109499D01*
X172465Y107000D01*
Y109499D01*
X173298Y107000D02*
X174131D01*
X173715D01*
Y109499D01*
X173298Y109083D01*
X187666Y97683D02*
X187250Y98099D01*
X186416D01*
X186000Y97683D01*
Y96017D01*
X186416Y95600D01*
X187250D01*
X187666Y96017D01*
X188499Y95600D02*
X189332D01*
X188916D01*
Y98099D01*
X188499Y97683D01*
X190582Y96017D02*
X190998Y95600D01*
X191831D01*
X192248Y96017D01*
Y97683D01*
X191831Y98099D01*
X190998D01*
X190582Y97683D01*
Y97266D01*
X190998Y96850D01*
X192248D01*
X193066Y78383D02*
X192650Y78799D01*
X191816D01*
X191400Y78383D01*
Y76717D01*
X191816Y76300D01*
X192650D01*
X193066Y76717D01*
X195565Y76300D02*
X193899D01*
X195565Y77966D01*
Y78383D01*
X195149Y78799D01*
X194316D01*
X193899Y78383D01*
X196398D02*
X196815Y78799D01*
X197648D01*
X198064Y78383D01*
Y76717D01*
X197648Y76300D01*
X196815D01*
X196398Y76717D01*
Y78383D01*
X178358Y85896D02*
Y88395D01*
X179607D01*
X180024Y87979D01*
Y87146D01*
X179607Y86729D01*
X178358D01*
X179191D02*
X180024Y85896D01*
X180857D02*
Y88395D01*
X182523Y85896D01*
Y88395D01*
X185022Y85896D02*
X183356D01*
X185022Y87562D01*
Y87979D01*
X184606Y88395D01*
X183772D01*
X183356Y87979D01*
X163700Y66800D02*
X161201D01*
Y68050D01*
X161617Y68466D01*
X162450D01*
X162867Y68050D01*
Y66800D01*
Y67633D02*
X163700Y68466D01*
Y69299D02*
X161201D01*
X163700Y70965D01*
X161201D01*
X161617Y71798D02*
X161201Y72215D01*
Y73048D01*
X161617Y73465D01*
X162034D01*
X162450Y73048D01*
Y72631D01*
Y73048D01*
X162867Y73465D01*
X163284D01*
X163700Y73048D01*
Y72215D01*
X163284Y71798D01*
X180266Y97683D02*
X179850Y98099D01*
X179016D01*
X178600Y97683D01*
Y96017D01*
X179016Y95600D01*
X179850D01*
X180266Y96017D01*
X182765Y95600D02*
X181099D01*
X182765Y97266D01*
Y97683D01*
X182349Y98099D01*
X181516D01*
X181099Y97683D01*
X183598Y95600D02*
X184431D01*
X184015D01*
Y98099D01*
X183598Y97683D01*
X185266Y78483D02*
X184850Y78899D01*
X184017D01*
X183600Y78483D01*
Y76816D01*
X184017Y76400D01*
X184850D01*
X185266Y76816D01*
X187765Y76400D02*
X186099D01*
X187765Y78066D01*
Y78483D01*
X187349Y78899D01*
X186516D01*
X186099Y78483D01*
X190264Y76400D02*
X188598D01*
X190264Y78066D01*
Y78483D01*
X189848Y78899D01*
X189015D01*
X188598Y78483D01*
X155666Y96083D02*
X155250Y96499D01*
X154417D01*
X154000Y96083D01*
Y94416D01*
X154417Y94000D01*
X155250D01*
X155666Y94416D01*
X157749Y94000D02*
Y96499D01*
X156499Y95250D01*
X158165D01*
X158998Y96499D02*
X160664D01*
Y96083D01*
X158998Y94416D01*
Y94000D01*
X157217Y73066D02*
X156801Y72650D01*
Y71816D01*
X157217Y71400D01*
X158884D01*
X159300Y71816D01*
Y72650D01*
X158884Y73066D01*
X159300Y75149D02*
X156801D01*
X158050Y73899D01*
Y75565D01*
X157217Y76398D02*
X156801Y76815D01*
Y77648D01*
X157217Y78065D01*
X157634D01*
X158050Y77648D01*
X158467Y78065D01*
X158884D01*
X159300Y77648D01*
Y76815D01*
X158884Y76398D01*
X158467D01*
X158050Y76815D01*
X157634Y76398D01*
X157217D01*
X158050Y76815D02*
Y77648D01*
X208066Y163883D02*
X207650Y164299D01*
X206817D01*
X206400Y163883D01*
Y162216D01*
X206817Y161800D01*
X207650D01*
X208066Y162216D01*
X210149Y161800D02*
Y164299D01*
X208899Y163050D01*
X210565D01*
X216200Y190699D02*
Y188200D01*
X217450D01*
X217866Y188617D01*
Y190283D01*
X217450Y190699D01*
X216200D01*
X218699Y188200D02*
X219532D01*
X219116D01*
Y190699D01*
X218699Y190283D01*
X215300Y194099D02*
Y191600D01*
X216550D01*
X216966Y192016D01*
Y193683D01*
X216550Y194099D01*
X215300D01*
X219465D02*
X217799D01*
Y192850D01*
X218632Y193266D01*
X219049D01*
X219465Y192850D01*
Y192016D01*
X219049Y191600D01*
X218216D01*
X217799Y192016D01*
X215700Y108900D02*
X213201D01*
Y110150D01*
X213617Y110566D01*
X214450D01*
X214867Y110150D01*
Y108900D01*
Y109733D02*
X215700Y110566D01*
X213201Y113065D02*
Y111399D01*
X214450D01*
X214034Y112232D01*
Y112649D01*
X214450Y113065D01*
X215283D01*
X215700Y112649D01*
Y111816D01*
X215283Y111399D01*
X213700Y178500D02*
X211201D01*
Y179750D01*
X211617Y180166D01*
X212450D01*
X212867Y179750D01*
Y178500D01*
Y179333D02*
X213700Y180166D01*
X211201Y182665D02*
X211617Y181832D01*
X212450Y180999D01*
X213283D01*
X213700Y181416D01*
Y182249D01*
X213283Y182665D01*
X212867D01*
X212450Y182249D01*
Y180999D01*
X286101Y151500D02*
X288600D01*
Y153166D01*
X286101Y155665D02*
Y153999D01*
X288600D01*
Y155665D01*
X287350Y153999D02*
Y154832D01*
X286101Y156498D02*
X288600D01*
Y157748D01*
X288183Y158165D01*
X286517D01*
X286101Y157748D01*
Y156498D01*
X286517Y158998D02*
X286101Y159414D01*
Y160247D01*
X286517Y160664D01*
X286934D01*
X287350Y160247D01*
Y159831D01*
Y160247D01*
X287767Y160664D01*
X288183D01*
X288600Y160247D01*
Y159414D01*
X288183Y158998D01*
X290700Y202577D02*
X288200D01*
Y203827D01*
X288617Y204244D01*
X289450D01*
X289867Y203827D01*
Y202577D01*
Y203411D02*
X290700Y204244D01*
Y206743D02*
Y205077D01*
X289034Y206743D01*
X288617D01*
X288200Y206326D01*
Y205493D01*
X288617Y205077D01*
X290700Y207576D02*
Y208409D01*
Y207992D01*
X288200D01*
X288617Y207576D01*
X363666Y8183D02*
X363250Y8599D01*
X362417D01*
X362000Y8183D01*
Y6516D01*
X362417Y6100D01*
X363250D01*
X363666Y6516D01*
X364499Y8183D02*
X364916Y8599D01*
X365749D01*
X366165Y8183D01*
Y7766D01*
X365749Y7350D01*
X365332D01*
X365749D01*
X366165Y6933D01*
Y6516D01*
X365749Y6100D01*
X364916D01*
X364499Y6516D01*
X320766Y83799D02*
X319100D01*
Y82550D01*
X319933D01*
X319100D01*
Y81300D01*
X321599Y83799D02*
Y81300D01*
X322849D01*
X323265Y81717D01*
Y82133D01*
X322849Y82550D01*
X321599D01*
X322849D01*
X323265Y82966D01*
Y83383D01*
X322849Y83799D01*
X321599D01*
X325764Y81300D02*
X324098D01*
X325764Y82966D01*
Y83383D01*
X325348Y83799D01*
X324515D01*
X324098Y83383D01*
X367901Y9866D02*
Y8200D01*
X369150D01*
Y9033D01*
Y8200D01*
X370400D01*
X367901Y10699D02*
X370400D01*
Y11949D01*
X369984Y12365D01*
X369567D01*
X369150Y11949D01*
Y10699D01*
Y11949D01*
X368734Y12365D01*
X368317D01*
X367901Y11949D01*
Y10699D01*
X370400Y13198D02*
Y14031D01*
Y13615D01*
X367901D01*
X368317Y13198D01*
X301966Y216883D02*
X301550Y217299D01*
X300716D01*
X300300Y216883D01*
Y215216D01*
X300716Y214800D01*
X301550D01*
X301966Y215216D01*
X304465Y214800D02*
X302799D01*
X304465Y216466D01*
Y216883D01*
X304049Y217299D01*
X303216D01*
X302799Y216883D01*
X306964Y217299D02*
X305298D01*
Y216050D01*
X306131Y216466D01*
X306548D01*
X306964Y216050D01*
Y215216D01*
X306548Y214800D01*
X305715D01*
X305298Y215216D01*
X319166Y222583D02*
X318750Y222999D01*
X317916D01*
X317500Y222583D01*
Y220917D01*
X317916Y220500D01*
X318750D01*
X319166Y220917D01*
X319999Y222583D02*
X320416Y222999D01*
X321249D01*
X321665Y222583D01*
Y222166D01*
X321249Y221750D01*
X320832D01*
X321249D01*
X321665Y221333D01*
Y220917D01*
X321249Y220500D01*
X320416D01*
X319999Y220917D01*
X322498Y222583D02*
X322915Y222999D01*
X323748D01*
X324165Y222583D01*
Y220917D01*
X323748Y220500D01*
X322915D01*
X322498Y220917D01*
Y222583D01*
X343117Y227166D02*
X342701Y226750D01*
Y225917D01*
X343117Y225500D01*
X344783D01*
X345200Y225917D01*
Y226750D01*
X344783Y227166D01*
X343117Y227999D02*
X342701Y228416D01*
Y229249D01*
X343117Y229665D01*
X343534D01*
X343950Y229249D01*
Y228832D01*
Y229249D01*
X344367Y229665D01*
X344783D01*
X345200Y229249D01*
Y228416D01*
X344783Y227999D01*
X342701Y232165D02*
Y230498D01*
X343950D01*
X343534Y231331D01*
Y231748D01*
X343950Y232165D01*
X344783D01*
X345200Y231748D01*
Y230915D01*
X344783Y230498D01*
X305517Y234266D02*
X305101Y233850D01*
Y233016D01*
X305517Y232600D01*
X307184D01*
X307600Y233016D01*
Y233850D01*
X307184Y234266D01*
X307600Y236349D02*
X305101D01*
X306350Y235099D01*
Y236765D01*
X305517Y237598D02*
X305101Y238015D01*
Y238848D01*
X305517Y239264D01*
X307184D01*
X307600Y238848D01*
Y238015D01*
X307184Y237598D01*
X305517D01*
X291266Y221183D02*
X290850Y221599D01*
X290017D01*
X289600Y221183D01*
Y219516D01*
X290017Y219100D01*
X290850D01*
X291266Y219516D01*
X293349Y219100D02*
Y221599D01*
X292099Y220350D01*
X293765D01*
X296265Y221599D02*
X294598D01*
Y220350D01*
X295431Y220766D01*
X295848D01*
X296265Y220350D01*
Y219516D01*
X295848Y219100D01*
X295015D01*
X294598Y219516D01*
X342266Y251283D02*
X341850Y251699D01*
X341017D01*
X340600Y251283D01*
Y249617D01*
X341017Y249200D01*
X341850D01*
X342266Y249617D01*
X344349Y249200D02*
Y251699D01*
X343099Y250450D01*
X344765D01*
X345598Y249617D02*
X346015Y249200D01*
X346848D01*
X347265Y249617D01*
Y251283D01*
X346848Y251699D01*
X346015D01*
X345598Y251283D01*
Y250866D01*
X346015Y250450D01*
X347265D01*
X298100Y249599D02*
Y247100D01*
X299350D01*
X299766Y247516D01*
Y249183D01*
X299350Y249599D01*
X298100D01*
X300599Y247516D02*
X301016Y247100D01*
X301849D01*
X302265Y247516D01*
Y249183D01*
X301849Y249599D01*
X301016D01*
X300599Y249183D01*
Y248766D01*
X301016Y248350D01*
X302265D01*
X298600Y244676D02*
Y242177D01*
X300266D01*
X301099D02*
X301932D01*
X301516D01*
Y244676D01*
X301099Y244260D01*
X342600Y237700D02*
Y240199D01*
X343850D01*
X344266Y239783D01*
Y238950D01*
X343850Y238533D01*
X342600D01*
X343433D02*
X344266Y237700D01*
X345099Y239783D02*
X345516Y240199D01*
X346349D01*
X346765Y239783D01*
Y239366D01*
X346349Y238950D01*
X345932D01*
X346349D01*
X346765Y238533D01*
Y238117D01*
X346349Y237700D01*
X345516D01*
X345099Y238117D01*
X342600Y240500D02*
X340101D01*
Y241750D01*
X340517Y242166D01*
X341350D01*
X341767Y241750D01*
Y240500D01*
Y241333D02*
X342600Y242166D01*
Y242999D02*
Y243832D01*
Y243416D01*
X340101D01*
X340517Y242999D01*
X342600Y245082D02*
Y245915D01*
Y245498D01*
X340101D01*
X340517Y245082D01*
X327454Y246517D02*
X329954D01*
Y245268D01*
X329537Y244851D01*
X328704D01*
X328287Y245268D01*
Y246517D01*
Y245684D02*
X327454Y244851D01*
Y242352D02*
Y244018D01*
X329120Y242352D01*
X329537D01*
X329954Y242769D01*
Y243602D01*
X329537Y244018D01*
Y241519D02*
X329954Y241102D01*
Y240269D01*
X329537Y239853D01*
X329120D01*
X328704Y240269D01*
Y240686D01*
Y240269D01*
X328287Y239853D01*
X327871D01*
X327454Y240269D01*
Y241102D01*
X327871Y241519D01*
X331463Y247117D02*
X333962D01*
Y245867D01*
X333546Y245451D01*
X332713D01*
X332296Y245867D01*
Y247117D01*
Y246284D02*
X331463Y245451D01*
Y242951D02*
Y244618D01*
X333129Y242951D01*
X333546D01*
X333962Y243368D01*
Y244201D01*
X333546Y244618D01*
X331463Y240869D02*
X333962D01*
X332713Y242118D01*
Y240452D01*
X318100Y249899D02*
Y247816D01*
X318516Y247400D01*
X319350D01*
X319766Y247816D01*
Y249899D01*
X320599Y249483D02*
X321016Y249899D01*
X321849D01*
X322265Y249483D01*
Y249066D01*
X321849Y248650D01*
X321432D01*
X321849D01*
X322265Y248233D01*
Y247816D01*
X321849Y247400D01*
X321016D01*
X320599Y247816D01*
X376117Y29766D02*
X375701Y29350D01*
Y28517D01*
X376117Y28100D01*
X377783D01*
X378200Y28517D01*
Y29350D01*
X377783Y29766D01*
X376117Y30599D02*
X375701Y31016D01*
Y31849D01*
X376117Y32265D01*
X376534D01*
X376950Y31849D01*
X377367Y32265D01*
X377783D01*
X378200Y31849D01*
Y31016D01*
X377783Y30599D01*
X377367D01*
X376950Y31016D01*
X376534Y30599D01*
X376117D01*
X376950Y31016D02*
Y31849D01*
X378200Y34348D02*
X375701D01*
X376950Y33098D01*
Y34765D01*
X374817Y19966D02*
X374401Y19550D01*
Y18717D01*
X374817Y18300D01*
X376483D01*
X376900Y18717D01*
Y19550D01*
X376483Y19966D01*
X374817Y20799D02*
X374401Y21216D01*
Y22049D01*
X374817Y22465D01*
X375234D01*
X375650Y22049D01*
X376067Y22465D01*
X376483D01*
X376900Y22049D01*
Y21216D01*
X376483Y20799D01*
X376067D01*
X375650Y21216D01*
X375234Y20799D01*
X374817D01*
X375650Y21216D02*
Y22049D01*
X374401Y24964D02*
Y23298D01*
X375650D01*
X375234Y24131D01*
Y24548D01*
X375650Y24964D01*
X376483D01*
X376900Y24548D01*
Y23715D01*
X376483Y23298D01*
X350717Y92166D02*
X350301Y91750D01*
Y90917D01*
X350717Y90500D01*
X352383D01*
X352800Y90917D01*
Y91750D01*
X352383Y92166D01*
X350717Y92999D02*
X350301Y93416D01*
Y94249D01*
X350717Y94665D01*
X351134D01*
X351550Y94249D01*
X351967Y94665D01*
X352383D01*
X352800Y94249D01*
Y93416D01*
X352383Y92999D01*
X351967D01*
X351550Y93416D01*
X351134Y92999D01*
X350717D01*
X351550Y93416D02*
Y94249D01*
X350301Y97164D02*
X350717Y96331D01*
X351550Y95498D01*
X352383D01*
X352800Y95915D01*
Y96748D01*
X352383Y97164D01*
X351967D01*
X351550Y96748D01*
Y95498D01*
X330066Y98183D02*
X329650Y98599D01*
X328817D01*
X328400Y98183D01*
Y96517D01*
X328817Y96100D01*
X329650D01*
X330066Y96517D01*
X330899Y98183D02*
X331316Y98599D01*
X332149D01*
X332565Y98183D01*
Y97766D01*
X332149Y97350D01*
X332565Y96933D01*
Y96517D01*
X332149Y96100D01*
X331316D01*
X330899Y96517D01*
Y96933D01*
X331316Y97350D01*
X330899Y97766D01*
Y98183D01*
X331316Y97350D02*
X332149D01*
X333398Y98599D02*
X335065D01*
Y98183D01*
X333398Y96517D01*
Y96100D01*
X334166Y101783D02*
X333750Y102199D01*
X332916D01*
X332500Y101783D01*
Y100117D01*
X332916Y99700D01*
X333750D01*
X334166Y100117D01*
X334999Y101783D02*
X335416Y102199D01*
X336249D01*
X336665Y101783D01*
Y101366D01*
X336249Y100950D01*
X336665Y100533D01*
Y100117D01*
X336249Y99700D01*
X335416D01*
X334999Y100117D01*
Y100533D01*
X335416Y100950D01*
X334999Y101366D01*
Y101783D01*
X335416Y100950D02*
X336249D01*
X337498Y101783D02*
X337915Y102199D01*
X338748D01*
X339164Y101783D01*
Y101366D01*
X338748Y100950D01*
X339164Y100533D01*
Y100117D01*
X338748Y99700D01*
X337915D01*
X337498Y100117D01*
Y100533D01*
X337915Y100950D01*
X337498Y101366D01*
Y101783D01*
X337915Y100950D02*
X338748D01*
X303317Y104766D02*
X302901Y104350D01*
Y103516D01*
X303317Y103100D01*
X304983D01*
X305400Y103516D01*
Y104350D01*
X304983Y104766D01*
X303317Y105599D02*
X302901Y106016D01*
Y106849D01*
X303317Y107265D01*
X303734D01*
X304150Y106849D01*
X304567Y107265D01*
X304983D01*
X305400Y106849D01*
Y106016D01*
X304983Y105599D01*
X304567D01*
X304150Y106016D01*
X303734Y105599D01*
X303317D01*
X304150Y106016D02*
Y106849D01*
X304983Y108098D02*
X305400Y108515D01*
Y109348D01*
X304983Y109765D01*
X303317D01*
X302901Y109348D01*
Y108515D01*
X303317Y108098D01*
X303734D01*
X304150Y108515D01*
Y109765D01*
X300366Y86183D02*
X299950Y86599D01*
X299116D01*
X298700Y86183D01*
Y84517D01*
X299116Y84100D01*
X299950D01*
X300366Y84517D01*
X302865Y84100D02*
X301199D01*
X302865Y85766D01*
Y86183D01*
X302449Y86599D01*
X301616D01*
X301199Y86183D01*
X303698Y86599D02*
X305364D01*
Y86183D01*
X303698Y84517D01*
Y84100D01*
X237866Y47583D02*
X237450Y47999D01*
X236616D01*
X236200Y47583D01*
Y45917D01*
X236616Y45500D01*
X237450D01*
X237866Y45917D01*
X238699Y45500D02*
X239532D01*
X239116D01*
Y47999D01*
X238699Y47583D01*
X240782D02*
X241198Y47999D01*
X242031D01*
X242448Y47583D01*
Y45917D01*
X242031Y45500D01*
X241198D01*
X240782Y45917D01*
Y47583D01*
X243281D02*
X243698Y47999D01*
X244531D01*
X244947Y47583D01*
Y47166D01*
X244531Y46750D01*
X244114D01*
X244531D01*
X244947Y46333D01*
Y45917D01*
X244531Y45500D01*
X243698D01*
X243281Y45917D01*
X94166Y86383D02*
X93750Y86799D01*
X92917D01*
X92500Y86383D01*
Y84716D01*
X92917Y84300D01*
X93750D01*
X94166Y84716D01*
X96665Y84300D02*
X94999D01*
X96665Y85966D01*
Y86383D01*
X96249Y86799D01*
X95416D01*
X94999Y86383D01*
X97498D02*
X97915Y86799D01*
X98748D01*
X99164Y86383D01*
Y85966D01*
X98748Y85550D01*
X99164Y85133D01*
Y84716D01*
X98748Y84300D01*
X97915D01*
X97498Y84716D01*
Y85133D01*
X97915Y85550D01*
X97498Y85966D01*
Y86383D01*
X97915Y85550D02*
X98748D01*
X94266Y75283D02*
X93850Y75699D01*
X93016D01*
X92600Y75283D01*
Y73616D01*
X93016Y73200D01*
X93850D01*
X94266Y73616D01*
X96765Y73200D02*
X95099D01*
X96765Y74866D01*
Y75283D01*
X96349Y75699D01*
X95516D01*
X95099Y75283D01*
X97598Y73616D02*
X98015Y73200D01*
X98848D01*
X99265Y73616D01*
Y75283D01*
X98848Y75699D01*
X98015D01*
X97598Y75283D01*
Y74866D01*
X98015Y74450D01*
X99265D01*
X91517Y66466D02*
X91101Y66050D01*
Y65216D01*
X91517Y64800D01*
X93183D01*
X93600Y65216D01*
Y66050D01*
X93183Y66466D01*
X91101Y68965D02*
Y67299D01*
X92350D01*
X91934Y68132D01*
Y68549D01*
X92350Y68965D01*
X93183D01*
X93600Y68549D01*
Y67716D01*
X93183Y67299D01*
X93600Y69798D02*
Y70631D01*
Y70215D01*
X91101D01*
X91517Y69798D01*
X56417Y59666D02*
X56001Y59250D01*
Y58416D01*
X56417Y58000D01*
X58083D01*
X58500Y58416D01*
Y59250D01*
X58083Y59666D01*
X56001Y62165D02*
Y60499D01*
X57250D01*
X56834Y61332D01*
Y61749D01*
X57250Y62165D01*
X58083D01*
X58500Y61749D01*
Y60916D01*
X58083Y60499D01*
X56417Y62998D02*
X56001Y63415D01*
Y64248D01*
X56417Y64665D01*
X56834D01*
X57250Y64248D01*
Y63831D01*
Y64248D01*
X57667Y64665D01*
X58083D01*
X58500Y64248D01*
Y63415D01*
X58083Y62998D01*
X94066Y82783D02*
X93650Y83199D01*
X92817D01*
X92400Y82783D01*
Y81116D01*
X92817Y80700D01*
X93650D01*
X94066Y81116D01*
X96565Y83199D02*
X94899D01*
Y81950D01*
X95732Y82366D01*
X96149D01*
X96565Y81950D01*
Y81116D01*
X96149Y80700D01*
X95316D01*
X94899Y81116D01*
X98648Y80700D02*
Y83199D01*
X97398Y81950D01*
X99064D01*
X85566Y58283D02*
X85150Y58699D01*
X84316D01*
X83900Y58283D01*
Y56616D01*
X84316Y56200D01*
X85150D01*
X85566Y56616D01*
X88065Y58699D02*
X87232Y58283D01*
X86399Y57450D01*
Y56616D01*
X86816Y56200D01*
X87649D01*
X88065Y56616D01*
Y57033D01*
X87649Y57450D01*
X86399D01*
X88898Y56200D02*
X89731D01*
X89315D01*
Y58699D01*
X88898Y58283D01*
X132866Y30683D02*
X132450Y31099D01*
X131616D01*
X131200Y30683D01*
Y29017D01*
X131616Y28600D01*
X132450D01*
X132866Y29017D01*
X135365Y31099D02*
X134532Y30683D01*
X133699Y29850D01*
Y29017D01*
X134116Y28600D01*
X134949D01*
X135365Y29017D01*
Y29433D01*
X134949Y29850D01*
X133699D01*
X137864Y31099D02*
X136198D01*
Y29850D01*
X137031Y30266D01*
X137448D01*
X137864Y29850D01*
Y29017D01*
X137448Y28600D01*
X136615D01*
X136198Y29017D01*
X94366Y33683D02*
X93950Y34099D01*
X93116D01*
X92700Y33683D01*
Y32017D01*
X93116Y31600D01*
X93950D01*
X94366Y32017D01*
X96865Y34099D02*
X96032Y33683D01*
X95199Y32850D01*
Y32017D01*
X95616Y31600D01*
X96449D01*
X96865Y32017D01*
Y32433D01*
X96449Y32850D01*
X95199D01*
X99365Y34099D02*
X98531Y33683D01*
X97698Y32850D01*
Y32017D01*
X98115Y31600D01*
X98948D01*
X99365Y32017D01*
Y32433D01*
X98948Y32850D01*
X97698D01*
X71517Y103066D02*
X71101Y102650D01*
Y101816D01*
X71517Y101400D01*
X73184D01*
X73600Y101816D01*
Y102650D01*
X73184Y103066D01*
X71101Y103899D02*
Y105565D01*
X71517D01*
X73184Y103899D01*
X73600D01*
Y106398D02*
Y107231D01*
Y106815D01*
X71101D01*
X71517Y106398D01*
X82366Y35483D02*
X81950Y35899D01*
X81116D01*
X80700Y35483D01*
Y33816D01*
X81116Y33400D01*
X81950D01*
X82366Y33816D01*
X83199Y33400D02*
X84032D01*
X83616D01*
Y35899D01*
X83199Y35483D01*
X85282D02*
X85698Y35899D01*
X86531D01*
X86948Y35483D01*
Y33816D01*
X86531Y33400D01*
X85698D01*
X85282Y33816D01*
Y35483D01*
X89447Y35899D02*
X88614Y35483D01*
X87781Y34650D01*
Y33816D01*
X88198Y33400D01*
X89031D01*
X89447Y33816D01*
Y34233D01*
X89031Y34650D01*
X87781D01*
X50317Y50566D02*
X49901Y50150D01*
Y49316D01*
X50317Y48900D01*
X51983D01*
X52400Y49316D01*
Y50150D01*
X51983Y50566D01*
X52400Y51399D02*
Y52232D01*
Y51816D01*
X49901D01*
X50317Y51399D01*
Y53482D02*
X49901Y53898D01*
Y54731D01*
X50317Y55148D01*
X51983D01*
X52400Y54731D01*
Y53898D01*
X51983Y53482D01*
X50317D01*
X49901Y55981D02*
Y57647D01*
X50317D01*
X51983Y55981D01*
X52400D01*
X75517Y33866D02*
X75101Y33450D01*
Y32616D01*
X75517Y32200D01*
X77184D01*
X77600Y32616D01*
Y33450D01*
X77184Y33866D01*
X77600Y34699D02*
Y35532D01*
Y35116D01*
X75101D01*
X75517Y34699D01*
Y36782D02*
X75101Y37198D01*
Y38032D01*
X75517Y38448D01*
X77184D01*
X77600Y38032D01*
Y37198D01*
X77184Y36782D01*
X75517D01*
Y39281D02*
X75101Y39698D01*
Y40531D01*
X75517Y40947D01*
X75934D01*
X76350Y40531D01*
X76767Y40947D01*
X77184D01*
X77600Y40531D01*
Y39698D01*
X77184Y39281D01*
X76767D01*
X76350Y39698D01*
X75934Y39281D01*
X75517D01*
X76350Y39698D02*
Y40531D01*
X71566Y112683D02*
X71150Y113099D01*
X70316D01*
X69900Y112683D01*
Y111016D01*
X70316Y110600D01*
X71150D01*
X71566Y111016D01*
X72399Y110600D02*
X73232D01*
X72816D01*
Y113099D01*
X72399Y112683D01*
X74482D02*
X74898Y113099D01*
X75731D01*
X76148Y112683D01*
Y111016D01*
X75731Y110600D01*
X74898D01*
X74482Y111016D01*
Y112683D01*
X76981Y111016D02*
X77398Y110600D01*
X78231D01*
X78647Y111016D01*
Y112683D01*
X78231Y113099D01*
X77398D01*
X76981Y112683D01*
Y112266D01*
X77398Y111850D01*
X78647D01*
X81166Y41283D02*
X80750Y41699D01*
X79917D01*
X79500Y41283D01*
Y39617D01*
X79917Y39200D01*
X80750D01*
X81166Y39617D01*
X81999Y39200D02*
X82832D01*
X82416D01*
Y41699D01*
X81999Y41283D01*
X84082Y39200D02*
X84915D01*
X84498D01*
Y41699D01*
X84082Y41283D01*
X86164D02*
X86581Y41699D01*
X87414D01*
X87831Y41283D01*
Y39617D01*
X87414Y39200D01*
X86581D01*
X86164Y39617D01*
Y41283D01*
X77017Y90066D02*
X76601Y89650D01*
Y88816D01*
X77017Y88400D01*
X78684D01*
X79100Y88816D01*
Y89650D01*
X78684Y90066D01*
X79100Y90899D02*
Y91732D01*
Y91316D01*
X76601D01*
X77017Y90899D01*
X79100Y92982D02*
Y93815D01*
Y93398D01*
X76601D01*
X77017Y92982D01*
X79100Y95065D02*
Y95898D01*
Y95481D01*
X76601D01*
X77017Y95065D01*
X92000Y51300D02*
X89501D01*
Y52550D01*
X89917Y52966D01*
X90750D01*
X91167Y52550D01*
Y51300D01*
Y52133D02*
X92000Y52966D01*
Y55049D02*
X89501D01*
X90750Y53799D01*
Y55465D01*
X62900Y88500D02*
X60401D01*
Y89750D01*
X60817Y90166D01*
X61650D01*
X62067Y89750D01*
Y88500D01*
Y89333D02*
X62900Y90166D01*
X60401Y90999D02*
Y92665D01*
X60817D01*
X62484Y90999D01*
X62900D01*
X45500Y38000D02*
Y40499D01*
X46750D01*
X47166Y40083D01*
Y39250D01*
X46750Y38833D01*
X45500D01*
X46333D02*
X47166Y38000D01*
X49665D02*
X47999D01*
X49665Y39666D01*
Y40083D01*
X49249Y40499D01*
X48416D01*
X47999Y40083D01*
X52165Y38000D02*
X50498D01*
X52165Y39666D01*
Y40083D01*
X51748Y40499D01*
X50915D01*
X50498Y40083D01*
X53800Y71799D02*
Y69717D01*
X54216Y69300D01*
X55050D01*
X55466Y69717D01*
Y71799D01*
X57965D02*
X56299D01*
Y70550D01*
X57132Y70966D01*
X57549D01*
X57965Y70550D01*
Y69717D01*
X57549Y69300D01*
X56716D01*
X56299Y69717D01*
X1800Y84499D02*
Y82000D01*
X3050D01*
X3466Y82416D01*
Y84083D01*
X3050Y84499D01*
X1800D01*
X4299Y82000D02*
X5132D01*
X4716D01*
Y84499D01*
X4299Y84083D01*
X6382Y84499D02*
X8048D01*
Y84083D01*
X6382Y82416D01*
Y82000D01*
X10000Y84599D02*
Y82100D01*
X11250D01*
X11666Y82516D01*
Y84183D01*
X11250Y84599D01*
X10000D01*
X12499Y82100D02*
X13332D01*
X12916D01*
Y84599D01*
X12499Y84183D01*
X14582D02*
X14998Y84599D01*
X15832D01*
X16248Y84183D01*
Y83766D01*
X15832Y83350D01*
X16248Y82933D01*
Y82516D01*
X15832Y82100D01*
X14998D01*
X14582Y82516D01*
Y82933D01*
X14998Y83350D01*
X14582Y83766D01*
Y84183D01*
X14998Y83350D02*
X15832D01*
X21500Y37799D02*
Y35300D01*
X22750D01*
X23166Y35717D01*
Y37383D01*
X22750Y37799D01*
X21500D01*
X23999Y35300D02*
X24832D01*
X24416D01*
Y37799D01*
X23999Y37383D01*
X26082Y35717D02*
X26498Y35300D01*
X27332D01*
X27748Y35717D01*
Y37383D01*
X27332Y37799D01*
X26498D01*
X26082Y37383D01*
Y36966D01*
X26498Y36550D01*
X27748D01*
X12900Y37699D02*
Y35200D01*
X14150D01*
X14566Y35616D01*
Y37283D01*
X14150Y37699D01*
X12900D01*
X17065Y35200D02*
X15399D01*
X17065Y36866D01*
Y37283D01*
X16649Y37699D01*
X15816D01*
X15399Y37283D01*
X17898D02*
X18315Y37699D01*
X19148D01*
X19565Y37283D01*
Y35616D01*
X19148Y35200D01*
X18315D01*
X17898Y35616D01*
Y37283D01*
X56400Y82399D02*
Y79900D01*
X57650D01*
X58066Y80317D01*
Y81983D01*
X57650Y82399D01*
X56400D01*
X60565Y79900D02*
X58899D01*
X60565Y81566D01*
Y81983D01*
X60149Y82399D01*
X59316D01*
X58899Y81983D01*
X61398Y79900D02*
X62231D01*
X61815D01*
Y82399D01*
X61398Y81983D01*
X48500Y82399D02*
Y79900D01*
X49750D01*
X50166Y80317D01*
Y81983D01*
X49750Y82399D01*
X48500D01*
X52665Y79900D02*
X50999D01*
X52665Y81566D01*
Y81983D01*
X52249Y82399D01*
X51416D01*
X50999Y81983D01*
X55164Y79900D02*
X53498D01*
X55164Y81566D01*
Y81983D01*
X54748Y82399D01*
X53915D01*
X53498Y81983D01*
X67800Y25599D02*
Y23100D01*
X69050D01*
X69466Y23516D01*
Y25183D01*
X69050Y25599D01*
X67800D01*
X71965Y23100D02*
X70299D01*
X71965Y24766D01*
Y25183D01*
X71549Y25599D01*
X70716D01*
X70299Y25183D01*
X72798D02*
X73215Y25599D01*
X74048D01*
X74464Y25183D01*
Y24766D01*
X74048Y24350D01*
X73631D01*
X74048D01*
X74464Y23933D01*
Y23516D01*
X74048Y23100D01*
X73215D01*
X72798Y23516D01*
X56500Y25599D02*
Y23100D01*
X57750D01*
X58166Y23516D01*
Y25183D01*
X57750Y25599D01*
X56500D01*
X60665Y23100D02*
X58999D01*
X60665Y24766D01*
Y25183D01*
X60249Y25599D01*
X59416D01*
X58999Y25183D01*
X62748Y23100D02*
Y25599D01*
X61498Y24350D01*
X63165D01*
X124130Y109383D02*
X123713Y109799D01*
X122880D01*
X122464Y109383D01*
Y107717D01*
X122880Y107300D01*
X123713D01*
X124130Y107717D01*
X126629Y109799D02*
X124963D01*
Y108550D01*
X125796Y108966D01*
X126213D01*
X126629Y108550D01*
Y107717D01*
X126213Y107300D01*
X125380D01*
X124963Y107717D01*
X133266Y49983D02*
X132850Y50399D01*
X132017D01*
X131600Y49983D01*
Y48316D01*
X132017Y47900D01*
X132850D01*
X133266Y48316D01*
X135765Y47900D02*
X134099D01*
X135765Y49566D01*
Y49983D01*
X135349Y50399D01*
X134516D01*
X134099Y49983D01*
X136598D02*
X137015Y50399D01*
X137848D01*
X138265Y49983D01*
Y49566D01*
X137848Y49150D01*
X137431D01*
X137848D01*
X138265Y48733D01*
Y48316D01*
X137848Y47900D01*
X137015D01*
X136598Y48316D01*
X134866Y86483D02*
X134450Y86899D01*
X133616D01*
X133200Y86483D01*
Y84816D01*
X133616Y84400D01*
X134450D01*
X134866Y84816D01*
X135699Y86483D02*
X136116Y86899D01*
X136949D01*
X137365Y86483D01*
Y86066D01*
X136949Y85650D01*
X136532D01*
X136949D01*
X137365Y85233D01*
Y84816D01*
X136949Y84400D01*
X136116D01*
X135699Y84816D01*
X139865Y84400D02*
X138198D01*
X139865Y86066D01*
Y86483D01*
X139448Y86899D01*
X138615D01*
X138198Y86483D01*
X142917Y77666D02*
X142501Y77250D01*
Y76416D01*
X142917Y76000D01*
X144583D01*
X145000Y76416D01*
Y77250D01*
X144583Y77666D01*
X142917Y78499D02*
X142501Y78916D01*
Y79749D01*
X142917Y80165D01*
X143334D01*
X143750Y79749D01*
Y79332D01*
Y79749D01*
X144167Y80165D01*
X144583D01*
X145000Y79749D01*
Y78916D01*
X144583Y78499D01*
X142917Y80998D02*
X142501Y81415D01*
Y82248D01*
X142917Y82665D01*
X143334D01*
X143750Y82248D01*
Y81831D01*
Y82248D01*
X144167Y82665D01*
X144583D01*
X145000Y82248D01*
Y81415D01*
X144583Y80998D01*
X139166Y74583D02*
X138750Y74999D01*
X137917D01*
X137500Y74583D01*
Y72917D01*
X137917Y72500D01*
X138750D01*
X139166Y72917D01*
X139999Y74583D02*
X140416Y74999D01*
X141249D01*
X141665Y74583D01*
Y74166D01*
X141249Y73750D01*
X140832D01*
X141249D01*
X141665Y73333D01*
Y72917D01*
X141249Y72500D01*
X140416D01*
X139999Y72917D01*
X143748Y72500D02*
Y74999D01*
X142498Y73750D01*
X144165D01*
X141117Y63166D02*
X140701Y62750D01*
Y61917D01*
X141117Y61500D01*
X142783D01*
X143200Y61917D01*
Y62750D01*
X142783Y63166D01*
X140701Y65665D02*
Y63999D01*
X141950D01*
X141534Y64832D01*
Y65249D01*
X141950Y65665D01*
X142783D01*
X143200Y65249D01*
Y64416D01*
X142783Y63999D01*
X141117Y66498D02*
X140701Y66915D01*
Y67748D01*
X141117Y68164D01*
X142783D01*
X143200Y67748D01*
Y66915D01*
X142783Y66498D01*
X141117D01*
X132266Y83583D02*
X131850Y83999D01*
X131017D01*
X130600Y83583D01*
Y81916D01*
X131017Y81500D01*
X131850D01*
X132266Y81916D01*
X134765Y83999D02*
X133099D01*
Y82750D01*
X133932Y83166D01*
X134349D01*
X134765Y82750D01*
Y81916D01*
X134349Y81500D01*
X133516D01*
X133099Y81916D01*
X137265Y83999D02*
X135598D01*
Y82750D01*
X136431Y83166D01*
X136848D01*
X137265Y82750D01*
Y81916D01*
X136848Y81500D01*
X136015D01*
X135598Y81916D01*
X101017Y60866D02*
X100601Y60450D01*
Y59617D01*
X101017Y59200D01*
X102683D01*
X103100Y59617D01*
Y60450D01*
X102683Y60866D01*
X100601Y63365D02*
X101017Y62532D01*
X101850Y61699D01*
X102683D01*
X103100Y62116D01*
Y62949D01*
X102683Y63365D01*
X102267D01*
X101850Y62949D01*
Y61699D01*
X103100Y65448D02*
X100601D01*
X101850Y64198D01*
Y65864D01*
X132566Y55283D02*
X132150Y55699D01*
X131316D01*
X130900Y55283D01*
Y53616D01*
X131316Y53200D01*
X132150D01*
X132566Y53616D01*
X133399Y55699D02*
X135065D01*
Y55283D01*
X133399Y53616D01*
Y53200D01*
X137565D02*
X135898D01*
X137565Y54866D01*
Y55283D01*
X137148Y55699D01*
X136315D01*
X135898Y55283D01*
X174266Y64583D02*
X173850Y64999D01*
X173017D01*
X172600Y64583D01*
Y62916D01*
X173017Y62500D01*
X173850D01*
X174266Y62916D01*
X175099Y64999D02*
X176765D01*
Y64583D01*
X175099Y62916D01*
Y62500D01*
X179264Y64999D02*
X177598D01*
Y63750D01*
X178431Y64166D01*
X178848D01*
X179264Y63750D01*
Y62916D01*
X178848Y62500D01*
X178015D01*
X177598Y62916D01*
X157066Y65483D02*
X156650Y65899D01*
X155816D01*
X155400Y65483D01*
Y63816D01*
X155816Y63400D01*
X156650D01*
X157066Y63816D01*
X157899Y63400D02*
X158732D01*
X158316D01*
Y65899D01*
X157899Y65483D01*
X159982Y63400D02*
X160815D01*
X160398D01*
Y65899D01*
X159982Y65483D01*
X163731Y63400D02*
X162065D01*
X163731Y65066D01*
Y65483D01*
X163314Y65899D01*
X162481D01*
X162065Y65483D01*
X99666Y89283D02*
X99250Y89699D01*
X98417D01*
X98000Y89283D01*
Y87616D01*
X98417Y87200D01*
X99250D01*
X99666Y87616D01*
X100499Y87200D02*
X101332D01*
X100916D01*
Y89699D01*
X100499Y89283D01*
X102582Y87200D02*
X103415D01*
X102998D01*
Y89699D01*
X102582Y89283D01*
X104665D02*
X105081Y89699D01*
X105914D01*
X106331Y89283D01*
Y88866D01*
X105914Y88450D01*
X105498D01*
X105914D01*
X106331Y88033D01*
Y87616D01*
X105914Y87200D01*
X105081D01*
X104665Y87616D01*
X132266Y34883D02*
X131850Y35299D01*
X131017D01*
X130600Y34883D01*
Y33217D01*
X131017Y32800D01*
X131850D01*
X132266Y33217D01*
X133099Y32800D02*
X133932D01*
X133516D01*
Y35299D01*
X133099Y34883D01*
X135182Y32800D02*
X136015D01*
X135598D01*
Y35299D01*
X135182Y34883D01*
X138514Y32800D02*
Y35299D01*
X137265Y34050D01*
X138931D01*
X90817Y43066D02*
X90401Y42650D01*
Y41816D01*
X90817Y41400D01*
X92484D01*
X92900Y41816D01*
Y42650D01*
X92484Y43066D01*
X92900Y43899D02*
Y44732D01*
Y44316D01*
X90401D01*
X90817Y43899D01*
X92900Y45982D02*
Y46815D01*
Y46398D01*
X90401D01*
X90817Y45982D01*
X90401Y49731D02*
Y48065D01*
X91650D01*
X91234Y48898D01*
Y49314D01*
X91650Y49731D01*
X92484D01*
X92900Y49314D01*
Y48481D01*
X92484Y48065D01*
X122017Y35166D02*
X121601Y34750D01*
Y33917D01*
X122017Y33500D01*
X123684D01*
X124100Y33917D01*
Y34750D01*
X123684Y35166D01*
X124100Y35999D02*
Y36832D01*
Y36416D01*
X121601D01*
X122017Y35999D01*
X124100Y38082D02*
Y38915D01*
Y38498D01*
X121601D01*
X122017Y38082D01*
X121601Y41831D02*
X122017Y40998D01*
X122850Y40165D01*
X123684D01*
X124100Y40581D01*
Y41414D01*
X123684Y41831D01*
X123267D01*
X122850Y41414D01*
Y40165D01*
X93400Y79799D02*
Y77300D01*
X94650D01*
X95066Y77716D01*
Y79383D01*
X94650Y79799D01*
X93400D01*
X97565Y77300D02*
X95899D01*
X97565Y78966D01*
Y79383D01*
X97149Y79799D01*
X96316D01*
X95899Y79383D01*
X100065Y79799D02*
X98398D01*
Y78550D01*
X99231Y78966D01*
X99648D01*
X100065Y78550D01*
Y77716D01*
X99648Y77300D01*
X98815D01*
X98398Y77716D01*
X99700Y85999D02*
Y83500D01*
X100950D01*
X101366Y83916D01*
Y85583D01*
X100950Y85999D01*
X99700D01*
X103865Y83500D02*
X102199D01*
X103865Y85166D01*
Y85583D01*
X103449Y85999D01*
X102616D01*
X102199Y85583D01*
X106365Y85999D02*
X105531Y85583D01*
X104698Y84750D01*
Y83916D01*
X105115Y83500D01*
X105948D01*
X106365Y83916D01*
Y84333D01*
X105948Y84750D01*
X104698D01*
X119100Y25699D02*
Y23200D01*
X120350D01*
X120766Y23617D01*
Y25283D01*
X120350Y25699D01*
X119100D01*
X123265Y23200D02*
X121599D01*
X123265Y24866D01*
Y25283D01*
X122849Y25699D01*
X122016D01*
X121599Y25283D01*
X124098Y25699D02*
X125765D01*
Y25283D01*
X124098Y23617D01*
Y23200D01*
X102000Y25799D02*
Y23300D01*
X103250D01*
X103666Y23717D01*
Y25383D01*
X103250Y25799D01*
X102000D01*
X106165Y23300D02*
X104499D01*
X106165Y24966D01*
Y25383D01*
X105749Y25799D01*
X104916D01*
X104499Y25383D01*
X106998D02*
X107415Y25799D01*
X108248D01*
X108665Y25383D01*
Y24966D01*
X108248Y24550D01*
X108665Y24133D01*
Y23717D01*
X108248Y23300D01*
X107415D01*
X106998Y23717D01*
Y24133D01*
X107415Y24550D01*
X106998Y24966D01*
Y25383D01*
X107415Y24550D02*
X108248D01*
X146500Y64000D02*
X144001D01*
Y65250D01*
X144417Y65666D01*
X145250D01*
X145667Y65250D01*
Y64000D01*
Y64833D02*
X146500Y65666D01*
X144417Y66499D02*
X144001Y66916D01*
Y67749D01*
X144417Y68165D01*
X144834D01*
X145250Y67749D01*
X145667Y68165D01*
X146083D01*
X146500Y67749D01*
Y66916D01*
X146083Y66499D01*
X145667D01*
X145250Y66916D01*
X144834Y66499D01*
X144417D01*
X145250Y66916D02*
Y67749D01*
X113000Y96700D02*
Y99199D01*
X114250D01*
X114666Y98783D01*
Y97950D01*
X114250Y97533D01*
X113000D01*
X113833D02*
X114666Y96700D01*
X115499D02*
X116332D01*
X115916D01*
Y99199D01*
X115499Y98783D01*
X117582D02*
X117998Y99199D01*
X118831D01*
X119248Y98783D01*
Y97117D01*
X118831Y96700D01*
X117998D01*
X117582Y97117D01*
Y98783D01*
X96400Y35200D02*
X93901D01*
Y36450D01*
X94317Y36866D01*
X95150D01*
X95567Y36450D01*
Y35200D01*
Y36033D02*
X96400Y36866D01*
Y39365D02*
Y37699D01*
X94734Y39365D01*
X94317D01*
X93901Y38949D01*
Y38116D01*
X94317Y37699D01*
X93901Y41864D02*
Y40198D01*
X95150D01*
X94734Y41031D01*
Y41448D01*
X95150Y41864D01*
X95983D01*
X96400Y41448D01*
Y40615D01*
X95983Y40198D01*
X99400Y71999D02*
Y69916D01*
X99817Y69500D01*
X100650D01*
X101066Y69916D01*
Y71999D01*
X103565D02*
X102732Y71583D01*
X101899Y70750D01*
Y69916D01*
X102316Y69500D01*
X103149D01*
X103565Y69916D01*
Y70333D01*
X103149Y70750D01*
X101899D01*
X191800Y123699D02*
X193466D01*
X192633D01*
Y121200D01*
X194299D02*
Y123699D01*
X195549D01*
X195965Y123283D01*
Y122450D01*
X195549Y122033D01*
X194299D01*
X196798Y123283D02*
X197215Y123699D01*
X198048D01*
X198465Y123283D01*
Y122866D01*
X198048Y122450D01*
X198465Y122033D01*
Y121616D01*
X198048Y121200D01*
X197215D01*
X196798Y121616D01*
Y122033D01*
X197215Y122450D01*
X196798Y122866D01*
Y123283D01*
X197215Y122450D02*
X198048D01*
X245266Y10783D02*
X244850Y11199D01*
X244017D01*
X243600Y10783D01*
Y9116D01*
X244017Y8700D01*
X244850D01*
X245266Y9116D01*
X246099Y8700D02*
X246932D01*
X246516D01*
Y11199D01*
X246099Y10783D01*
X248182D02*
X248598Y11199D01*
X249431D01*
X249848Y10783D01*
Y10366D01*
X249431Y9950D01*
X249848Y9533D01*
Y9116D01*
X249431Y8700D01*
X248598D01*
X248182Y9116D01*
Y9533D01*
X248598Y9950D01*
X248182Y10366D01*
Y10783D01*
X248598Y9950D02*
X249431D01*
X236666Y41783D02*
X236250Y42199D01*
X235417D01*
X235000Y41783D01*
Y40117D01*
X235417Y39700D01*
X236250D01*
X236666Y40117D01*
X237499Y41783D02*
X237916Y42199D01*
X238749D01*
X239165Y41783D01*
Y41366D01*
X238749Y40950D01*
X238332D01*
X238749D01*
X239165Y40533D01*
Y40117D01*
X238749Y39700D01*
X237916D01*
X237499Y40117D01*
X239998Y39700D02*
X240831D01*
X240415D01*
Y42199D01*
X239998Y41783D01*
X224066Y96283D02*
X223650Y96699D01*
X222816D01*
X222400Y96283D01*
Y94617D01*
X222816Y94200D01*
X223650D01*
X224066Y94617D01*
X224899Y96283D02*
X225316Y96699D01*
X226149D01*
X226565Y96283D01*
Y95866D01*
X226149Y95450D01*
X225732D01*
X226149D01*
X226565Y95033D01*
Y94617D01*
X226149Y94200D01*
X225316D01*
X224899Y94617D01*
X229064Y96699D02*
X228231Y96283D01*
X227398Y95450D01*
Y94617D01*
X227815Y94200D01*
X228648D01*
X229064Y94617D01*
Y95033D01*
X228648Y95450D01*
X227398D01*
X234217Y79166D02*
X233801Y78750D01*
Y77917D01*
X234217Y77500D01*
X235883D01*
X236300Y77917D01*
Y78750D01*
X235883Y79166D01*
X234217Y79999D02*
X233801Y80416D01*
Y81249D01*
X234217Y81665D01*
X234634D01*
X235050Y81249D01*
Y80832D01*
Y81249D01*
X235467Y81665D01*
X235883D01*
X236300Y81249D01*
Y80416D01*
X235883Y79999D01*
X233801Y82498D02*
Y84165D01*
X234217D01*
X235883Y82498D01*
X236300D01*
X235666Y74783D02*
X235250Y75199D01*
X234417D01*
X234000Y74783D01*
Y73116D01*
X234417Y72700D01*
X235250D01*
X235666Y73116D01*
X236499Y74783D02*
X236916Y75199D01*
X237749D01*
X238165Y74783D01*
Y74366D01*
X237749Y73950D01*
X237332D01*
X237749D01*
X238165Y73533D01*
Y73116D01*
X237749Y72700D01*
X236916D01*
X236499Y73116D01*
X238998Y74783D02*
X239415Y75199D01*
X240248D01*
X240665Y74783D01*
Y74366D01*
X240248Y73950D01*
X240665Y73533D01*
Y73116D01*
X240248Y72700D01*
X239415D01*
X238998Y73116D01*
Y73533D01*
X239415Y73950D01*
X238998Y74366D01*
Y74783D01*
X239415Y73950D02*
X240248D01*
X228817Y53166D02*
X228401Y52750D01*
Y51916D01*
X228817Y51500D01*
X230484D01*
X230900Y51916D01*
Y52750D01*
X230484Y53166D01*
X228817Y53999D02*
X228401Y54416D01*
Y55249D01*
X228817Y55665D01*
X229234D01*
X229650Y55249D01*
Y54832D01*
Y55249D01*
X230067Y55665D01*
X230484D01*
X230900Y55249D01*
Y54416D01*
X230484Y53999D01*
Y56498D02*
X230900Y56915D01*
Y57748D01*
X230484Y58165D01*
X228817D01*
X228401Y57748D01*
Y56915D01*
X228817Y56498D01*
X229234D01*
X229650Y56915D01*
Y58165D01*
X193817Y53566D02*
X193401Y53150D01*
Y52316D01*
X193817Y51900D01*
X195484D01*
X195900Y52316D01*
Y53150D01*
X195484Y53566D01*
X195900Y55649D02*
X193401D01*
X194650Y54399D01*
Y56065D01*
X195900Y56898D02*
Y57731D01*
Y57315D01*
X193401D01*
X193817Y56898D01*
X224066Y92883D02*
X223650Y93299D01*
X222816D01*
X222400Y92883D01*
Y91216D01*
X222816Y90800D01*
X223650D01*
X224066Y91216D01*
X224899Y93299D02*
X226565D01*
Y92883D01*
X224899Y91216D01*
Y90800D01*
X227398Y92883D02*
X227815Y93299D01*
X228648D01*
X229064Y92883D01*
Y92466D01*
X228648Y92050D01*
X228231D01*
X228648D01*
X229064Y91633D01*
Y91216D01*
X228648Y90800D01*
X227815D01*
X227398Y91216D01*
X228566Y50383D02*
X228150Y50799D01*
X227316D01*
X226900Y50383D01*
Y48717D01*
X227316Y48300D01*
X228150D01*
X228566Y48717D01*
X229399Y50799D02*
X231065D01*
Y50383D01*
X229399Y48717D01*
Y48300D01*
X233564Y50799D02*
X232731Y50383D01*
X231898Y49550D01*
Y48717D01*
X232315Y48300D01*
X233148D01*
X233564Y48717D01*
Y49133D01*
X233148Y49550D01*
X231898D01*
X238866Y31783D02*
X238450Y32199D01*
X237616D01*
X237200Y31783D01*
Y30117D01*
X237616Y29700D01*
X238450D01*
X238866Y30117D01*
X239699Y32199D02*
X241365D01*
Y31783D01*
X239699Y30117D01*
Y29700D01*
X242198Y31783D02*
X242615Y32199D01*
X243448D01*
X243864Y31783D01*
Y31366D01*
X243448Y30950D01*
X243864Y30533D01*
Y30117D01*
X243448Y29700D01*
X242615D01*
X242198Y30117D01*
Y30533D01*
X242615Y30950D01*
X242198Y31366D01*
Y31783D01*
X242615Y30950D02*
X243448D01*
X234266Y35883D02*
X233850Y36299D01*
X233016D01*
X232600Y35883D01*
Y34216D01*
X233016Y33800D01*
X233850D01*
X234266Y34216D01*
X235099Y35883D02*
X235516Y36299D01*
X236349D01*
X236765Y35883D01*
Y35466D01*
X236349Y35050D01*
X236765Y34633D01*
Y34216D01*
X236349Y33800D01*
X235516D01*
X235099Y34216D01*
Y34633D01*
X235516Y35050D01*
X235099Y35466D01*
Y35883D01*
X235516Y35050D02*
X236349D01*
X237598Y35883D02*
X238015Y36299D01*
X238848D01*
X239264Y35883D01*
Y34216D01*
X238848Y33800D01*
X238015D01*
X237598Y34216D01*
Y35883D01*
X219117Y94166D02*
X218701Y93750D01*
Y92917D01*
X219117Y92500D01*
X220783D01*
X221200Y92917D01*
Y93750D01*
X220783Y94166D01*
X219117Y94999D02*
X218701Y95416D01*
Y96249D01*
X219117Y96665D01*
X219534D01*
X219950Y96249D01*
X220367Y96665D01*
X220783D01*
X221200Y96249D01*
Y95416D01*
X220783Y94999D01*
X220367D01*
X219950Y95416D01*
X219534Y94999D01*
X219117D01*
X219950Y95416D02*
Y96249D01*
X221200Y99164D02*
Y97498D01*
X219534Y99164D01*
X219117D01*
X218701Y98748D01*
Y97915D01*
X219117Y97498D01*
X224966Y35783D02*
X224550Y36199D01*
X223716D01*
X223300Y35783D01*
Y34117D01*
X223716Y33700D01*
X224550D01*
X224966Y34117D01*
X225799Y33700D02*
X226632D01*
X226216D01*
Y36199D01*
X225799Y35783D01*
X227882Y33700D02*
X228715D01*
X228298D01*
Y36199D01*
X227882Y35783D01*
X229964Y36199D02*
X231631D01*
Y35783D01*
X229964Y34117D01*
Y33700D01*
X184266Y30283D02*
X183850Y30699D01*
X183017D01*
X182600Y30283D01*
Y28616D01*
X183017Y28200D01*
X183850D01*
X184266Y28616D01*
X185099Y28200D02*
X185932D01*
X185516D01*
Y30699D01*
X185099Y30283D01*
X187182Y28200D02*
X188015D01*
X187598D01*
Y30699D01*
X187182Y30283D01*
X189265D02*
X189681Y30699D01*
X190514D01*
X190931Y30283D01*
Y29866D01*
X190514Y29450D01*
X190931Y29033D01*
Y28616D01*
X190514Y28200D01*
X189681D01*
X189265Y28616D01*
Y29033D01*
X189681Y29450D01*
X189265Y29866D01*
Y30283D01*
X189681Y29450D02*
X190514D01*
X225266Y40483D02*
X224850Y40899D01*
X224016D01*
X223600Y40483D01*
Y38816D01*
X224016Y38400D01*
X224850D01*
X225266Y38816D01*
X226099Y38400D02*
X226932D01*
X226516D01*
Y40899D01*
X226099Y40483D01*
X228182Y38400D02*
X229015D01*
X228598D01*
Y40899D01*
X228182Y40483D01*
X230264Y38816D02*
X230681Y38400D01*
X231514D01*
X231931Y38816D01*
Y40483D01*
X231514Y40899D01*
X230681D01*
X230264Y40483D01*
Y40066D01*
X230681Y39650D01*
X231931D01*
X197200Y84299D02*
Y81800D01*
X198450D01*
X198866Y82217D01*
Y83883D01*
X198450Y84299D01*
X197200D01*
X201365Y81800D02*
X199699D01*
X201365Y83466D01*
Y83883D01*
X200949Y84299D01*
X200116D01*
X199699Y83883D01*
X202198Y82217D02*
X202615Y81800D01*
X203448D01*
X203865Y82217D01*
Y83883D01*
X203448Y84299D01*
X202615D01*
X202198Y83883D01*
Y83466D01*
X202615Y83050D01*
X203865D01*
X189700Y84199D02*
Y81700D01*
X190950D01*
X191366Y82117D01*
Y83783D01*
X190950Y84199D01*
X189700D01*
X192199Y83783D02*
X192616Y84199D01*
X193449D01*
X193865Y83783D01*
Y83366D01*
X193449Y82950D01*
X193032D01*
X193449D01*
X193865Y82533D01*
Y82117D01*
X193449Y81700D01*
X192616D01*
X192199Y82117D01*
X194698Y83783D02*
X195115Y84199D01*
X195948D01*
X196364Y83783D01*
Y82117D01*
X195948Y81700D01*
X195115D01*
X194698Y82117D01*
Y83783D01*
X222300Y25199D02*
Y22700D01*
X223550D01*
X223966Y23117D01*
Y24783D01*
X223550Y25199D01*
X222300D01*
X224799Y24783D02*
X225216Y25199D01*
X226049D01*
X226465Y24783D01*
Y24366D01*
X226049Y23950D01*
X225632D01*
X226049D01*
X226465Y23533D01*
Y23117D01*
X226049Y22700D01*
X225216D01*
X224799Y23117D01*
X227298Y22700D02*
X228131D01*
X227715D01*
Y25199D01*
X227298Y24783D01*
X202700Y25299D02*
Y22800D01*
X203950D01*
X204366Y23216D01*
Y24883D01*
X203950Y25299D01*
X202700D01*
X205199Y24883D02*
X205616Y25299D01*
X206449D01*
X206865Y24883D01*
Y24466D01*
X206449Y24050D01*
X206032D01*
X206449D01*
X206865Y23633D01*
Y23216D01*
X206449Y22800D01*
X205616D01*
X205199Y23216D01*
X209365Y22800D02*
X207698D01*
X209365Y24466D01*
Y24883D01*
X208948Y25299D01*
X208115D01*
X207698Y24883D01*
X235400Y51800D02*
X232901D01*
Y53050D01*
X233317Y53466D01*
X234150D01*
X234567Y53050D01*
Y51800D01*
Y52633D02*
X235400Y53466D01*
Y54299D02*
Y55132D01*
Y54716D01*
X232901D01*
X233317Y54299D01*
X235400Y57631D02*
X232901D01*
X234150Y56382D01*
Y58048D01*
X202000Y91100D02*
X199501D01*
Y92350D01*
X199917Y92766D01*
X200750D01*
X201167Y92350D01*
Y91100D01*
Y91933D02*
X202000Y92766D01*
Y93599D02*
Y94432D01*
Y94016D01*
X199501D01*
X199917Y93599D01*
X199501Y97348D02*
Y95682D01*
X200750D01*
X200334Y96515D01*
Y96931D01*
X200750Y97348D01*
X201584D01*
X202000Y96931D01*
Y96098D01*
X201584Y95682D01*
X192700Y43300D02*
Y45799D01*
X193950D01*
X194366Y45383D01*
Y44550D01*
X193950Y44133D01*
X192700D01*
X193533D02*
X194366Y43300D01*
X196865D02*
X195199D01*
X196865Y44966D01*
Y45383D01*
X196449Y45799D01*
X195616D01*
X195199Y45383D01*
X199364Y45799D02*
X198531Y45383D01*
X197698Y44550D01*
Y43716D01*
X198115Y43300D01*
X198948D01*
X199364Y43716D01*
Y44133D01*
X198948Y44550D01*
X197698D01*
X195300Y72099D02*
Y70016D01*
X195717Y69600D01*
X196550D01*
X196966Y70016D01*
Y72099D01*
X197799D02*
X199465D01*
Y71683D01*
X197799Y70016D01*
Y69600D01*
X154100Y275500D02*
Y277999D01*
X155350D01*
X155766Y277583D01*
Y276750D01*
X155350Y276333D01*
X154100D01*
X156599Y275500D02*
X157432D01*
X157016D01*
Y277999D01*
X156599Y277583D01*
X162800Y201600D02*
Y204099D01*
X164050D01*
X164466Y203683D01*
Y202850D01*
X164050Y202433D01*
X162800D01*
X166965Y201600D02*
X165299D01*
X166965Y203266D01*
Y203683D01*
X166549Y204099D01*
X165716D01*
X165299Y203683D01*
X68200Y217600D02*
Y220099D01*
X69450D01*
X69866Y219683D01*
Y218850D01*
X69450Y218433D01*
X68200D01*
X69033D02*
X69866Y217600D01*
X70699Y220099D02*
Y218433D01*
X71532Y217600D01*
X72365Y218433D01*
Y220099D01*
X73198Y219683D02*
X73615Y220099D01*
X74448D01*
X74865Y219683D01*
Y219266D01*
X74448Y218850D01*
X74031D01*
X74448D01*
X74865Y218433D01*
Y218017D01*
X74448Y217600D01*
X73615D01*
X73198Y218017D01*
X37200Y216700D02*
Y219199D01*
X38450D01*
X38866Y218783D01*
Y217950D01*
X38450Y217533D01*
X37200D01*
X38033D02*
X38866Y216700D01*
X39699Y219199D02*
Y217533D01*
X40532Y216700D01*
X41365Y217533D01*
Y219199D01*
X43448Y216700D02*
Y219199D01*
X42198Y217950D01*
X43865D01*
X67230Y215400D02*
Y217899D01*
X68480D01*
X68896Y217483D01*
Y216650D01*
X68480Y216233D01*
X67230D01*
X68063D02*
X68896Y215400D01*
X69729Y217899D02*
Y216233D01*
X70562Y215400D01*
X71395Y216233D01*
Y217899D01*
X73895D02*
X72228D01*
Y216650D01*
X73061Y217066D01*
X73478D01*
X73895Y216650D01*
Y215816D01*
X73478Y215400D01*
X72645D01*
X72228Y215816D01*
X41400Y216000D02*
Y218499D01*
X42650D01*
X43066Y218083D01*
Y217250D01*
X42650Y216833D01*
X41400D01*
X42233D02*
X43066Y216000D01*
X43899Y218499D02*
Y216833D01*
X44732Y216000D01*
X45565Y216833D01*
Y218499D01*
X48065D02*
X47231Y218083D01*
X46398Y217250D01*
Y216417D01*
X46815Y216000D01*
X47648D01*
X48065Y216417D01*
Y216833D01*
X47648Y217250D01*
X46398D01*
X106940Y228000D02*
Y225501D01*
X105690D01*
X105274Y225917D01*
Y226750D01*
X105690Y227167D01*
X106940D01*
X106107D02*
X105274Y228000D01*
X104441Y225501D02*
Y227167D01*
X103608Y228000D01*
X102775Y227167D01*
Y225501D01*
X101942D02*
X100276D01*
Y225917D01*
X101942Y227584D01*
Y228000D01*
X134800Y218300D02*
Y215801D01*
X133550D01*
X133134Y216217D01*
Y217050D01*
X133550Y217467D01*
X134800D01*
X133967D02*
X133134Y218300D01*
X132301Y215801D02*
Y217467D01*
X131468Y218300D01*
X130635Y217467D01*
Y215801D01*
X129802Y216217D02*
X129385Y215801D01*
X128552D01*
X128136Y216217D01*
Y216634D01*
X128552Y217050D01*
X128136Y217467D01*
Y217883D01*
X128552Y218300D01*
X129385D01*
X129802Y217883D01*
Y217467D01*
X129385Y217050D01*
X129802Y216634D01*
Y216217D01*
X129385Y217050D02*
X128552D01*
X156400Y209170D02*
Y206671D01*
X155150D01*
X154734Y207087D01*
Y207920D01*
X155150Y208337D01*
X156400D01*
X155567D02*
X154734Y209170D01*
X153901Y206671D02*
Y208337D01*
X153068Y209170D01*
X152235Y208337D01*
Y206671D01*
X151402Y208753D02*
X150985Y209170D01*
X150152D01*
X149735Y208753D01*
Y207087D01*
X150152Y206671D01*
X150985D01*
X151402Y207087D01*
Y207504D01*
X150985Y207920D01*
X149735D01*
X147000Y200700D02*
X149499D01*
Y199450D01*
X149083Y199034D01*
X148250D01*
X147833Y199450D01*
Y200700D01*
Y199867D02*
X147000Y199034D01*
X149499Y198201D02*
X147833D01*
X147000Y197368D01*
X147833Y196535D01*
X149499D01*
X147000Y195702D02*
Y194869D01*
Y195285D01*
X149499D01*
X149083Y195702D01*
Y193619D02*
X149499Y193202D01*
Y192369D01*
X149083Y191953D01*
X147416D01*
X147000Y192369D01*
Y193202D01*
X147416Y193619D01*
X149083D01*
X147500Y243300D02*
Y240801D01*
X146250D01*
X145834Y241217D01*
Y242050D01*
X146250Y242467D01*
X147500D01*
X146667D02*
X145834Y243300D01*
X145001Y240801D02*
Y242467D01*
X144168Y243300D01*
X143335Y242467D01*
Y240801D01*
X142502Y243300D02*
X141669D01*
X142085D01*
Y240801D01*
X142502Y241217D01*
X140419Y243300D02*
X139586D01*
X140002D01*
Y240801D01*
X140419Y241217D01*
X127900Y217400D02*
X130399D01*
Y216150D01*
X129983Y215734D01*
X129150D01*
X128733Y216150D01*
Y217400D01*
Y216567D02*
X127900Y215734D01*
X130399Y214901D02*
X128733D01*
X127900Y214068D01*
X128733Y213235D01*
X130399D01*
X127900Y212402D02*
Y211569D01*
Y211985D01*
X130399D01*
X129983Y212402D01*
X127900Y208653D02*
Y210319D01*
X129566Y208653D01*
X129983D01*
X130399Y209069D01*
Y209902D01*
X129983Y210319D01*
X166100Y212400D02*
X163601D01*
Y213650D01*
X164017Y214066D01*
X164850D01*
X165267Y213650D01*
Y212400D01*
Y213233D02*
X166100Y214066D01*
X163601Y214899D02*
X165267D01*
X166100Y215732D01*
X165267Y216565D01*
X163601D01*
X166100Y217398D02*
Y218231D01*
Y217815D01*
X163601D01*
X164017Y217398D01*
Y219481D02*
X163601Y219898D01*
Y220731D01*
X164017Y221147D01*
X164434D01*
X164850Y220731D01*
Y220314D01*
Y220731D01*
X165267Y221147D01*
X165683D01*
X166100Y220731D01*
Y219898D01*
X165683Y219481D01*
X144700Y213800D02*
Y211301D01*
X143450D01*
X143034Y211717D01*
Y212550D01*
X143450Y212967D01*
X144700D01*
X143867D02*
X143034Y213800D01*
X142201Y211301D02*
Y212967D01*
X141368Y213800D01*
X140535Y212967D01*
Y211301D01*
X139702Y213800D02*
X138869D01*
X139285D01*
Y211301D01*
X139702Y211717D01*
X136369Y213800D02*
Y211301D01*
X137619Y212550D01*
X135953D01*
X127700Y212800D02*
Y210301D01*
X126450D01*
X126034Y210717D01*
Y211550D01*
X126450Y211967D01*
X127700D01*
X126867D02*
X126034Y212800D01*
X125201Y210301D02*
Y211967D01*
X124368Y212800D01*
X123535Y211967D01*
Y210301D01*
X122702Y212800D02*
X121869D01*
X122285D01*
Y210301D01*
X122702Y210717D01*
X118953Y210301D02*
X120619D01*
Y211550D01*
X119786Y211134D01*
X119369D01*
X118953Y211550D01*
Y212384D01*
X119369Y212800D01*
X120202D01*
X120619Y212384D01*
X133500Y212000D02*
X135999D01*
Y210750D01*
X135583Y210334D01*
X134750D01*
X134333Y210750D01*
Y212000D01*
Y211167D02*
X133500Y210334D01*
X135999Y209501D02*
X134333D01*
X133500Y208668D01*
X134333Y207835D01*
X135999D01*
X133500Y207002D02*
Y206169D01*
Y206585D01*
X135999D01*
X135583Y207002D01*
X135999Y203253D02*
X135583Y204086D01*
X134750Y204919D01*
X133916D01*
X133500Y204502D01*
Y203669D01*
X133916Y203253D01*
X134333D01*
X134750Y203669D01*
Y204919D01*
X96800Y216500D02*
Y218999D01*
X98050D01*
X98466Y218583D01*
Y217750D01*
X98050Y217333D01*
X96800D01*
X97633D02*
X98466Y216500D01*
X99299Y218999D02*
Y217333D01*
X100132Y216500D01*
X100965Y217333D01*
Y218999D01*
X101798Y216500D02*
X102631D01*
X102215D01*
Y218999D01*
X101798Y218583D01*
X103881Y218999D02*
X105547D01*
Y218583D01*
X103881Y216916D01*
Y216500D01*
X141500Y205700D02*
Y203201D01*
X140250D01*
X139834Y203617D01*
Y204450D01*
X140250Y204867D01*
X141500D01*
X140667D02*
X139834Y205700D01*
X139001Y203201D02*
Y204867D01*
X138168Y205700D01*
X137335Y204867D01*
Y203201D01*
X136502Y205700D02*
X135669D01*
X136085D01*
Y203201D01*
X136502Y203617D01*
X134419D02*
X134002Y203201D01*
X133169D01*
X132753Y203617D01*
Y204034D01*
X133169Y204450D01*
X132753Y204867D01*
Y205283D01*
X133169Y205700D01*
X134002D01*
X134419Y205283D01*
Y204867D01*
X134002Y204450D01*
X134419Y204034D01*
Y203617D01*
X134002Y204450D02*
X133169D01*
X211800Y202100D02*
Y204599D01*
X213050D01*
X213466Y204183D01*
Y203350D01*
X213050Y202933D01*
X211800D01*
X212633D02*
X213466Y202100D01*
X214299Y204599D02*
Y202933D01*
X215132Y202100D01*
X215965Y202933D01*
Y204599D01*
X216798Y202100D02*
X217631D01*
X217215D01*
Y204599D01*
X216798Y204183D01*
X218881Y202517D02*
X219298Y202100D01*
X220131D01*
X220547Y202517D01*
Y204183D01*
X220131Y204599D01*
X219298D01*
X218881Y204183D01*
Y203766D01*
X219298Y203350D01*
X220547D01*
X187200Y198900D02*
Y201399D01*
X188450D01*
X188866Y200983D01*
Y200150D01*
X188450Y199733D01*
X187200D01*
X188033D02*
X188866Y198900D01*
X189699Y201399D02*
Y199733D01*
X190532Y198900D01*
X191365Y199733D01*
Y201399D01*
X193865Y198900D02*
X192198D01*
X193865Y200566D01*
Y200983D01*
X193448Y201399D01*
X192615D01*
X192198Y200983D01*
X194698D02*
X195114Y201399D01*
X195947D01*
X196364Y200983D01*
Y199317D01*
X195947Y198900D01*
X195114D01*
X194698Y199317D01*
Y200983D01*
X178100Y202000D02*
Y204499D01*
X179350D01*
X179766Y204083D01*
Y203250D01*
X179350Y202833D01*
X178100D01*
X178933D02*
X179766Y202000D01*
X180599Y204499D02*
Y202833D01*
X181432Y202000D01*
X182265Y202833D01*
Y204499D01*
X184765Y202000D02*
X183098D01*
X184765Y203666D01*
Y204083D01*
X184348Y204499D01*
X183515D01*
X183098Y204083D01*
X185598Y202000D02*
X186431D01*
X186014D01*
Y204499D01*
X185598Y204083D01*
X169900Y198100D02*
Y200599D01*
X171150D01*
X171566Y200183D01*
Y199350D01*
X171150Y198933D01*
X169900D01*
X170733D02*
X171566Y198100D01*
X172399Y200599D02*
Y198933D01*
X173232Y198100D01*
X174065Y198933D01*
Y200599D01*
X176565Y198100D02*
X174898D01*
X176565Y199766D01*
Y200183D01*
X176148Y200599D01*
X175315D01*
X174898Y200183D01*
X179064Y198100D02*
X177398D01*
X179064Y199766D01*
Y200183D01*
X178647Y200599D01*
X177814D01*
X177398Y200183D01*
X88900Y216100D02*
Y218599D01*
X90150D01*
X90566Y218183D01*
Y217350D01*
X90150Y216933D01*
X88900D01*
X89733D02*
X90566Y216100D01*
X91399Y218599D02*
Y216933D01*
X92232Y216100D01*
X93065Y216933D01*
Y218599D01*
X95565Y216100D02*
X93898D01*
X95565Y217766D01*
Y218183D01*
X95148Y218599D01*
X94315D01*
X93898Y218183D01*
X96398D02*
X96814Y218599D01*
X97647D01*
X98064Y218183D01*
Y217766D01*
X97647Y217350D01*
X97231D01*
X97647D01*
X98064Y216933D01*
Y216516D01*
X97647Y216100D01*
X96814D01*
X96398Y216516D01*
X118200Y165002D02*
X120699D01*
Y163752D01*
X120283Y163336D01*
X119450D01*
X119033Y163752D01*
Y165002D01*
Y164169D02*
X118200Y163336D01*
X120699Y162502D02*
X119033D01*
X118200Y161669D01*
X119033Y160836D01*
X120699D01*
X118200Y158337D02*
Y160003D01*
X119866Y158337D01*
X120283D01*
X120699Y158754D01*
Y159587D01*
X120283Y160003D01*
X118200Y156254D02*
X120699D01*
X119450Y157504D01*
Y155838D01*
X143970Y121400D02*
Y123899D01*
X145220D01*
X145636Y123483D01*
Y122650D01*
X145220Y122233D01*
X143970D01*
X144803D02*
X145636Y121400D01*
X146469Y123899D02*
Y122233D01*
X147302Y121400D01*
X148135Y122233D01*
Y123899D01*
X150635Y121400D02*
X148968D01*
X150635Y123066D01*
Y123483D01*
X150218Y123899D01*
X149385D01*
X148968Y123483D01*
X153134Y123899D02*
X151468D01*
Y122650D01*
X152301Y123066D01*
X152717D01*
X153134Y122650D01*
Y121817D01*
X152717Y121400D01*
X151884D01*
X151468Y121817D01*
X95524Y198100D02*
Y200599D01*
X96774D01*
X97190Y200183D01*
Y199350D01*
X96774Y198933D01*
X95524D01*
X96358D02*
X97190Y198100D01*
X98024D02*
Y200599D01*
X99690Y198100D01*
Y200599D01*
X101772Y198100D02*
Y200599D01*
X100523Y199350D01*
X102189D01*
X117600Y224900D02*
Y227399D01*
X118850D01*
X119266Y226983D01*
Y226150D01*
X118850Y225733D01*
X117600D01*
X118433D02*
X119266Y224900D01*
X120099D02*
X120932D01*
X120516D01*
Y227399D01*
X120099Y226983D01*
X122182Y225317D02*
X122598Y224900D01*
X123431D01*
X123848Y225317D01*
Y226983D01*
X123431Y227399D01*
X122598D01*
X122182Y226983D01*
Y226566D01*
X122598Y226150D01*
X123848D01*
X148300Y206100D02*
Y203601D01*
X147050D01*
X146634Y204017D01*
Y204850D01*
X147050Y205267D01*
X148300D01*
X147467D02*
X146634Y206100D01*
X144135D02*
X145801D01*
X144135Y204434D01*
Y204017D01*
X144551Y203601D01*
X145384D01*
X145801Y204017D01*
X143302D02*
X142885Y203601D01*
X142052D01*
X141636Y204017D01*
Y205683D01*
X142052Y206100D01*
X142885D01*
X143302Y205683D01*
Y204017D01*
X139800Y240100D02*
Y237601D01*
X138550D01*
X138134Y238017D01*
Y238850D01*
X138550Y239267D01*
X139800D01*
X138967D02*
X138134Y240100D01*
X135635D02*
X137301D01*
X135635Y238434D01*
Y238017D01*
X136051Y237601D01*
X136884D01*
X137301Y238017D01*
X134802Y237601D02*
X133135D01*
Y238017D01*
X134802Y239684D01*
Y240100D01*
X267700Y138100D02*
Y140599D01*
X268950D01*
X269366Y140183D01*
Y139350D01*
X268950Y138933D01*
X267700D01*
X268533D02*
X269366Y138100D01*
X271865D02*
X270199D01*
X271865Y139766D01*
Y140183D01*
X271449Y140599D01*
X270616D01*
X270199Y140183D01*
X272698D02*
X273115Y140599D01*
X273948D01*
X274364Y140183D01*
Y139766D01*
X273948Y139350D01*
X274364Y138933D01*
Y138516D01*
X273948Y138100D01*
X273115D01*
X272698Y138516D01*
Y138933D01*
X273115Y139350D01*
X272698Y139766D01*
Y140183D01*
X273115Y139350D02*
X273948D01*
X257900Y196600D02*
Y199099D01*
X259150D01*
X259566Y198683D01*
Y197850D01*
X259150Y197433D01*
X257900D01*
X258733D02*
X259566Y196600D01*
X262065D02*
X260399D01*
X262065Y198266D01*
Y198683D01*
X261649Y199099D01*
X260816D01*
X260399Y198683D01*
X262898Y197017D02*
X263315Y196600D01*
X264148D01*
X264564Y197017D01*
Y198683D01*
X264148Y199099D01*
X263315D01*
X262898Y198683D01*
Y198266D01*
X263315Y197850D01*
X264564D01*
X268500Y134300D02*
Y136799D01*
X269750D01*
X270166Y136383D01*
Y135550D01*
X269750Y135133D01*
X268500D01*
X269333D02*
X270166Y134300D01*
X270999Y136383D02*
X271416Y136799D01*
X272249D01*
X272665Y136383D01*
Y135966D01*
X272249Y135550D01*
X271832D01*
X272249D01*
X272665Y135133D01*
Y134716D01*
X272249Y134300D01*
X271416D01*
X270999Y134716D01*
X273498Y136383D02*
X273915Y136799D01*
X274748D01*
X275165Y136383D01*
Y134716D01*
X274748Y134300D01*
X273915D01*
X273498Y134716D01*
Y136383D01*
X300166Y129883D02*
X299750Y130299D01*
X298917D01*
X298500Y129883D01*
Y128217D01*
X298917Y127800D01*
X299750D01*
X300166Y128217D01*
X302249Y127800D02*
Y130299D01*
X300999Y129050D01*
X302665D01*
X305165Y127800D02*
X303498D01*
X305165Y129466D01*
Y129883D01*
X304748Y130299D01*
X303915D01*
X303498Y129883D01*
X259766Y210683D02*
X259350Y211099D01*
X258517D01*
X258100Y210683D01*
Y209016D01*
X258517Y208600D01*
X259350D01*
X259766Y209016D01*
X261849Y208600D02*
Y211099D01*
X260599Y209850D01*
X262265D01*
X263098Y210683D02*
X263515Y211099D01*
X264348D01*
X264764Y210683D01*
Y210266D01*
X264348Y209850D01*
X263931D01*
X264348D01*
X264764Y209433D01*
Y209016D01*
X264348Y208600D01*
X263515D01*
X263098Y209016D01*
X225900Y139900D02*
X223401D01*
Y141150D01*
X223817Y141566D01*
X224650D01*
X225067Y141150D01*
Y139900D01*
Y140733D02*
X225900Y141566D01*
X223817Y142399D02*
X223401Y142816D01*
Y143649D01*
X223817Y144065D01*
X224234D01*
X224650Y143649D01*
Y143232D01*
Y143649D01*
X225067Y144065D01*
X225483D01*
X225900Y143649D01*
Y142816D01*
X225483Y142399D01*
X223817Y144898D02*
X223401Y145315D01*
Y146148D01*
X223817Y146564D01*
X224234D01*
X224650Y146148D01*
X225067Y146564D01*
X225483D01*
X225900Y146148D01*
Y145315D01*
X225483Y144898D01*
X225067D01*
X224650Y145315D01*
X224234Y144898D01*
X223817D01*
X224650Y145315D02*
Y146148D01*
X204700Y150200D02*
Y152699D01*
X205950D01*
X206366Y152283D01*
Y151450D01*
X205950Y151033D01*
X204700D01*
X205533D02*
X206366Y150200D01*
X207199Y152283D02*
X207616Y152699D01*
X208449D01*
X208865Y152283D01*
Y151866D01*
X208449Y151450D01*
X208032D01*
X208449D01*
X208865Y151033D01*
Y150617D01*
X208449Y150200D01*
X207616D01*
X207199Y150617D01*
X209698D02*
X210115Y150200D01*
X210948D01*
X211365Y150617D01*
Y152283D01*
X210948Y152699D01*
X210115D01*
X209698Y152283D01*
Y151866D01*
X210115Y151450D01*
X211365D01*
X218600Y122400D02*
Y124899D01*
X219850D01*
X220266Y124483D01*
Y123650D01*
X219850Y123233D01*
X218600D01*
X219433D02*
X220266Y122400D01*
X222349D02*
Y124899D01*
X221099Y123650D01*
X222765D01*
X223598Y122400D02*
X224431D01*
X224015D01*
Y124899D01*
X223598Y124483D01*
X298500Y124400D02*
Y126899D01*
X299750D01*
X300166Y126483D01*
Y125650D01*
X299750Y125233D01*
X298500D01*
X299333D02*
X300166Y124400D01*
X302249D02*
Y126899D01*
X300999Y125650D01*
X302665D01*
X304748Y124400D02*
Y126899D01*
X303498Y125650D01*
X305165D01*
X258100Y204500D02*
Y206999D01*
X259350D01*
X259766Y206583D01*
Y205750D01*
X259350Y205333D01*
X258100D01*
X258933D02*
X259766Y204500D01*
X261849D02*
Y206999D01*
X260599Y205750D01*
X262265D01*
X264764Y206999D02*
X263098D01*
Y205750D01*
X263931Y206166D01*
X264348D01*
X264764Y205750D01*
Y204917D01*
X264348Y204500D01*
X263515D01*
X263098Y204917D01*
X224700Y157099D02*
Y154600D01*
X225950D01*
X226366Y155017D01*
Y156683D01*
X225950Y157099D01*
X224700D01*
X227199Y154600D02*
X228032D01*
X227616D01*
Y157099D01*
X227199Y156683D01*
X230948Y154600D02*
X229282D01*
X230948Y156266D01*
Y156683D01*
X230531Y157099D01*
X229698D01*
X229282Y156683D01*
X268100Y246600D02*
Y249099D01*
X269350D01*
X269766Y248683D01*
Y247850D01*
X269350Y247433D01*
X268100D01*
X268933D02*
X269766Y246600D01*
X272265Y249099D02*
X270599D01*
Y247850D01*
X271432Y248266D01*
X271849D01*
X272265Y247850D01*
Y247017D01*
X271849Y246600D01*
X271016D01*
X270599Y247017D01*
X273098Y246600D02*
X273931D01*
X273515D01*
Y249099D01*
X273098Y248683D01*
X268100Y260400D02*
Y262899D01*
X269350D01*
X269766Y262483D01*
Y261650D01*
X269350Y261233D01*
X268100D01*
X268933D02*
X269766Y260400D01*
X272265Y262899D02*
X271432Y262483D01*
X270599Y261650D01*
Y260817D01*
X271016Y260400D01*
X271849D01*
X272265Y260817D01*
Y261233D01*
X271849Y261650D01*
X270599D01*
X273098Y260400D02*
X273931D01*
X273515D01*
Y262899D01*
X273098Y262483D01*
X358001Y246700D02*
X360500D01*
Y247950D01*
X360084Y248366D01*
X359667D01*
X359250Y247950D01*
Y246700D01*
Y247950D01*
X358834Y248366D01*
X358417D01*
X358001Y247950D01*
Y246700D01*
Y250865D02*
Y249199D01*
X360500D01*
Y250865D01*
X359250Y249199D02*
Y250032D01*
X358001Y251698D02*
X360500D01*
Y252948D01*
X360084Y253364D01*
X358417D01*
X358001Y252948D01*
Y251698D01*
G54D138*
X64341Y81200D02*
D03*
X19600Y85600D02*
D03*
X29764Y80546D02*
D03*
X30800Y46600D02*
D03*
X20000Y51000D02*
D03*
X65030Y48054D02*
D03*
X75264Y42346D02*
D03*
X110200Y47500D02*
D03*
X120400Y43000D02*
D03*
X206300Y47200D02*
D03*
X216964Y42146D02*
D03*
X216500Y76800D02*
D03*
X206000Y81300D02*
D03*
X119964Y76346D02*
D03*
X109830Y82054D02*
D03*
G54D139*
X318510Y245950D02*
X323628D01*
X318510Y232564D02*
X323628D01*
X201870Y72931D02*
Y74604D01*
X203543D01*
X221457D02*
X223130D01*
Y72931D02*
Y74604D01*
Y49407D02*
Y51080D01*
X221457Y49407D02*
X223130D01*
X201870D02*
Y51080D01*
Y49407D02*
X203543D01*
X105470D02*
X107143D01*
X105470D02*
Y51080D01*
X125057Y49407D02*
X126730D01*
Y51080D01*
Y72931D02*
Y74604D01*
X125057D02*
X126730D01*
X105470D02*
X107143D01*
X105470Y72931D02*
Y74604D01*
X60470Y72931D02*
Y74604D01*
X62143D01*
X80057D02*
X81730D01*
Y72931D02*
Y74604D01*
Y49407D02*
Y51080D01*
X80057Y49407D02*
X81730D01*
X60470D02*
Y51080D01*
Y49407D02*
X62143D01*
X15732Y53007D02*
X17405D01*
X15732D02*
Y54680D01*
X35319Y53007D02*
X36992D01*
Y54680D01*
Y76531D02*
Y78204D01*
X35319D02*
X36992D01*
X15732D02*
X17405D01*
X15732Y76531D02*
Y78204D01*
X163528Y248402D02*
X234472D01*
X163528Y273598D02*
X234472D01*
X163528Y248402D02*
Y273598D01*
X234472Y248402D02*
Y273598D01*
X240568Y227171D02*
X260568D01*
X240568Y277171D02*
X260568D01*
Y227171D02*
Y277171D01*
X240568Y227171D02*
Y277171D01*
X273379Y226273D02*
X274758D01*
X273379Y247927D02*
X274758D01*
X294443Y226273D02*
X295820D01*
X294443Y247927D02*
X295820D01*
X273379Y226273D02*
Y247927D01*
X295820Y226273D02*
Y247927D01*
X323525Y224547D02*
X326675D01*
X323525Y230453D02*
X326675D01*
X335263Y82250D02*
X343137D01*
X335263Y88550D02*
X343137D01*
X303832Y264202D02*
X320368D01*
X303832Y251998D02*
X320368D01*
X366850Y21963D02*
Y29837D01*
X360550Y21963D02*
Y29837D01*
X163528Y210902D02*
X234472D01*
X163528Y236098D02*
X234472D01*
X163528Y210902D02*
Y236098D01*
X234472Y210902D02*
Y236098D01*
G54D140*
X211850Y34900D02*
Y42670D01*
X193150D02*
X211850D01*
X193150Y34900D02*
Y42670D01*
Y34900D02*
X211850D01*
X204900Y81450D02*
Y100150D01*
X212670D01*
Y81450D02*
Y100150D01*
X204900Y81450D02*
X212670D01*
X115350Y34800D02*
Y42570D01*
X96650D02*
X115350D01*
X96650Y34800D02*
Y42570D01*
Y34800D02*
X115350D01*
X106750Y95700D02*
X125450D01*
Y87930D02*
Y95700D01*
X106750Y87930D02*
X125450D01*
X106750D02*
Y95700D01*
X73350Y35200D02*
Y42970D01*
X54650D02*
X73350D01*
X54650Y35200D02*
Y42970D01*
Y35200D02*
X73350D01*
X63200Y81450D02*
Y100150D01*
X70970D01*
Y81450D02*
Y100150D01*
X63200Y81450D02*
X70970D01*
X29950Y38800D02*
Y46570D01*
X11250D02*
X29950D01*
X11250Y38800D02*
Y46570D01*
Y38800D02*
X29950D01*
X17200Y85650D02*
Y104350D01*
X24970D01*
Y85650D02*
Y104350D01*
X17200Y85650D02*
X24970D01*
X212480Y35244D02*
X222520D01*
X212480D02*
Y40756D01*
X222520D01*
Y35244D02*
Y40756D01*
X191580Y27944D02*
Y33456D01*
Y27944D02*
X201620D01*
Y33456D01*
X191580D02*
X201620D01*
X202880D02*
X212920D01*
Y27944D02*
Y33456D01*
X202880Y27944D02*
X212920D01*
X202880D02*
Y33456D01*
X212744Y97320D02*
X218256D01*
X212744Y87280D02*
Y97320D01*
Y87280D02*
X218256D01*
Y97320D01*
X213180Y33756D02*
X223220D01*
Y28244D02*
Y33756D01*
X213180Y28244D02*
X223220D01*
X213180D02*
Y33756D01*
X224780Y28244D02*
Y33756D01*
Y28244D02*
X234820D01*
Y33756D01*
X224780D02*
X234820D01*
X227644Y76580D02*
Y86620D01*
X233156D01*
Y76580D02*
Y86620D01*
X227644Y76580D02*
X233156D01*
X226520Y81544D02*
Y87056D01*
X216480D02*
X226520D01*
X216480Y81544D02*
Y87056D01*
Y81544D02*
X226520D01*
X224880Y41344D02*
X234920D01*
X224880D02*
Y46856D01*
X234920D01*
Y41344D02*
Y46856D01*
X115444Y32580D02*
X120956D01*
Y42620D01*
X115444D02*
X120956D01*
X115444Y32580D02*
Y42620D01*
X93680Y42744D02*
X103720D01*
X93680D02*
Y48256D01*
X103720D01*
Y42744D02*
Y48256D01*
X124780Y35444D02*
Y40956D01*
Y35444D02*
X134820D01*
Y40956D01*
X124780D02*
X134820D01*
X106380Y82344D02*
X116420D01*
X106380D02*
Y87856D01*
X116420D01*
Y82344D02*
Y87856D01*
X165020Y56244D02*
Y61756D01*
X154980D02*
X165020D01*
X154980Y56244D02*
Y61756D01*
Y56244D02*
X165020D01*
X170980Y61956D02*
X181020D01*
Y56444D02*
Y61956D01*
X170980Y56444D02*
X181020D01*
X170980D02*
Y61956D01*
X131780Y75944D02*
Y81456D01*
Y75944D02*
X141820D01*
Y81456D01*
X131780D02*
X141820D01*
X120180Y81644D02*
X130220D01*
X120180D02*
Y87156D01*
X130220D01*
Y81644D02*
Y87156D01*
X138920Y42044D02*
Y47556D01*
X128880D02*
X138920D01*
X128880Y42044D02*
Y47556D01*
Y42044D02*
X138920D01*
X75280Y81644D02*
X85320D01*
X75280D02*
Y87156D01*
X85320D01*
Y81644D02*
Y87156D01*
X89720Y41944D02*
Y47456D01*
X79680D02*
X89720D01*
X79680Y41944D02*
Y47456D01*
Y41944D02*
X89720D01*
X64680Y34756D02*
X74720D01*
Y29244D02*
Y34756D01*
X64680Y29244D02*
X74720D01*
X64680D02*
Y34756D01*
X58620Y42944D02*
Y48456D01*
X48580D02*
X58620D01*
X48580Y42944D02*
Y48456D01*
Y42944D02*
X58620D01*
X82380Y33256D02*
X92420D01*
Y27744D02*
Y33256D01*
X82380Y27744D02*
X92420D01*
X82380D02*
Y33256D01*
X71144Y97220D02*
X76656D01*
X71144Y87180D02*
Y97220D01*
Y87180D02*
X76656D01*
Y97220D01*
X99380Y27844D02*
X109420D01*
X99380D02*
Y33356D01*
X109420D01*
Y27844D02*
Y33356D01*
X120680Y27444D02*
Y32956D01*
Y27444D02*
X130720D01*
Y32956D01*
X120680D02*
X130720D01*
X86444Y76180D02*
Y86220D01*
X91956D01*
Y76180D02*
Y86220D01*
X86444Y76180D02*
X91956D01*
X301544Y123020D02*
X307056D01*
X301544Y112980D02*
Y123020D01*
Y112980D02*
X307056D01*
Y123020D01*
X339680Y101556D02*
X349720D01*
Y96044D02*
Y101556D01*
X339680Y96044D02*
X349720D01*
X339680D02*
Y101556D01*
X328980Y90444D02*
Y95956D01*
Y90444D02*
X339020D01*
Y95956D01*
X328980D02*
X339020D01*
X339680Y90444D02*
X349720D01*
X339680D02*
Y95956D01*
X349720D01*
Y90444D02*
Y95956D01*
X368344Y15980D02*
X373856D01*
Y26020D01*
X368344D02*
X373856D01*
X368344Y15980D02*
Y26020D01*
X373856Y27780D02*
Y37820D01*
X368344Y27780D02*
X373856D01*
X368344D02*
Y37820D01*
X373856D01*
X298144Y231480D02*
X303656D01*
Y241520D01*
X298144D02*
X303656D01*
X298144Y231480D02*
Y241520D01*
X299380Y223456D02*
X309420D01*
Y217944D02*
Y223456D01*
X299380Y217944D02*
X309420D01*
X299380D02*
Y223456D01*
X354980Y9044D02*
Y14556D01*
Y9044D02*
X365020D01*
Y14556D01*
X354980D02*
X365020D01*
X314680Y122456D02*
X324720D01*
Y116944D02*
Y122456D01*
X314680Y116944D02*
X324720D01*
X314680D02*
Y122456D01*
X296220Y31644D02*
Y37156D01*
X286180D02*
X296220D01*
X286180Y31644D02*
Y37156D01*
Y31644D02*
X296220D01*
X30680Y84144D02*
X40720D01*
X30680D02*
Y89656D01*
X40720D01*
Y84144D02*
Y89656D01*
X48320Y45144D02*
Y50656D01*
X38280D02*
X48320D01*
X38280Y45144D02*
Y50656D01*
Y45144D02*
X48320D01*
X30144Y36480D02*
Y46520D01*
X35656D01*
Y36480D02*
Y46520D01*
X30144Y36480D02*
X35656D01*
X14620Y46744D02*
Y52256D01*
X4580D02*
X14620D01*
X4580Y46744D02*
Y52256D01*
Y46744D02*
X14620D01*
X41356Y35080D02*
Y45120D01*
X35844Y35080D02*
X41356D01*
X35844D02*
Y45120D01*
X41356D01*
X25144Y99120D02*
X30656D01*
X25144Y89080D02*
Y99120D01*
Y89080D02*
X30656D01*
Y99120D01*
X43703Y28244D02*
X53742D01*
X43703D02*
Y33756D01*
X53742D01*
Y28244D02*
Y33756D01*
X63820Y28244D02*
Y33756D01*
X53780D02*
X63820D01*
X53780Y28244D02*
Y33756D01*
Y28244D02*
X63820D01*
X192080Y113256D02*
X202120D01*
Y107744D02*
Y113256D01*
X192080Y107744D02*
X202120D01*
X192080D02*
Y113256D01*
X41544Y79580D02*
X47056D01*
Y89620D01*
X41544D02*
X47056D01*
X41544Y79580D02*
Y89620D01*
X312200Y223730D02*
Y231500D01*
X296632Y223730D02*
Y231500D01*
Y223730D02*
X312200D01*
X296632Y231500D02*
X312200D01*
X342000Y221200D02*
Y236768D01*
X334230Y221200D02*
Y236768D01*
X342000D01*
X334230Y221200D02*
X342000D01*
X52300Y125700D02*
Y133470D01*
X67868Y125700D02*
Y133470D01*
X52300D02*
X67868D01*
X52300Y125700D02*
X67868D01*
X59301Y170500D02*
X66900D01*
Y166598D02*
Y170500D01*
X59301Y166598D02*
X66900D01*
X59301D02*
Y170500D01*
X122998Y171499D02*
X126900D01*
X122998Y163900D02*
Y171499D01*
Y163900D02*
X126900D01*
Y171499D01*
X91300Y215700D02*
X98899D01*
X91300D02*
Y219602D01*
X98899D01*
Y215700D02*
Y219602D01*
X59300Y156100D02*
X66899D01*
X59300D02*
Y160002D01*
X66899D01*
Y156100D02*
Y160002D01*
X158199Y272600D02*
Y276502D01*
X150600D02*
X158199D01*
X150600Y272600D02*
Y276502D01*
Y272600D02*
X158199D01*
X268000Y271000D02*
X275599D01*
X268000D02*
Y274902D01*
X275599D01*
Y271000D02*
Y274902D01*
X265201Y211600D02*
X272800D01*
Y207698D02*
Y211600D01*
X265201Y207698D02*
X272800D01*
X265201D02*
Y211600D01*
X295599Y128700D02*
Y132602D01*
X288000D02*
X295599D01*
X288000Y128700D02*
Y132602D01*
Y128700D02*
X295599D01*
X147771Y118400D02*
X155370D01*
Y114498D02*
Y118400D01*
X147771Y114498D02*
X155370D01*
X147771D02*
Y118400D01*
X107501Y172198D02*
Y176100D01*
Y172198D02*
X115100D01*
Y176100D01*
X107501D02*
X115100D01*
X99100Y219700D02*
X106699D01*
X99100D02*
Y223602D01*
X106699D01*
Y219700D02*
Y223602D01*
X175998Y197699D02*
X179900D01*
X175998Y190100D02*
Y197699D01*
Y190100D02*
X179900D01*
Y197699D01*
X185700Y190200D02*
Y197799D01*
X181798Y190200D02*
X185700D01*
X181798D02*
Y197799D01*
X185700D01*
X187498D02*
X191400D01*
X187498Y190200D02*
Y197799D01*
Y190200D02*
X191400D01*
Y197799D01*
X221501Y205200D02*
X229100D01*
Y201298D02*
Y205200D01*
X221501Y201298D02*
X229100D01*
X221501D02*
Y205200D01*
X142001Y202398D02*
Y206300D01*
Y202398D02*
X149600D01*
Y206300D01*
X142001D02*
X149600D01*
X106900Y219600D02*
X114499D01*
X106900D02*
Y223502D01*
X114499D01*
Y219600D02*
Y223502D01*
X130099Y219600D02*
Y223502D01*
X122500D02*
X130099D01*
X122500Y219600D02*
Y223502D01*
Y219600D02*
X130099D01*
X114701Y223500D02*
X122300D01*
Y219598D02*
Y223500D01*
X114701Y219598D02*
X122300D01*
X114701D02*
Y223500D01*
X137899Y219600D02*
Y223502D01*
X130300D02*
X137899D01*
X130300Y219600D02*
Y223502D01*
Y219600D02*
X137899D01*
X145900Y206500D02*
Y214099D01*
X141998Y206500D02*
X145900D01*
X141998D02*
Y214099D01*
X145900D01*
X154798Y223099D02*
X158700D01*
X154798Y215500D02*
Y223099D01*
Y215500D02*
X158700D01*
Y223099D01*
X145801Y223500D02*
X153400D01*
Y219598D02*
Y223500D01*
X145801Y219598D02*
X153400D01*
X145801D02*
Y223500D01*
X150800Y191301D02*
X154702D01*
Y198900D01*
X150800D02*
X154702D01*
X150800Y191301D02*
Y198900D01*
X154600Y198571D02*
Y206170D01*
X158502D01*
Y198571D02*
Y206170D01*
X154600Y198571D02*
X158502D01*
X138101Y219598D02*
Y223500D01*
Y219598D02*
X145700D01*
Y223500D01*
X138101D02*
X145700D01*
X91270Y219700D02*
X98869D01*
X91270D02*
Y223602D01*
X98869D01*
Y219700D02*
Y223602D01*
X52301Y216898D02*
Y220800D01*
Y216898D02*
X59900D01*
Y220800D01*
X52301D02*
X59900D01*
X75701Y223700D02*
X83300D01*
Y219798D02*
Y223700D01*
X75701Y219798D02*
X83300D01*
X75701D02*
Y223700D01*
X44501Y216898D02*
Y220800D01*
Y216898D02*
X52100D01*
Y220800D01*
X44501D02*
X52100D01*
X60101Y222200D02*
X67700D01*
Y218298D02*
Y222200D01*
X60101Y218298D02*
X67700D01*
X60101D02*
Y222200D01*
X233899Y58600D02*
Y62502D01*
X226300D02*
X233899D01*
X226300Y58600D02*
Y62502D01*
Y58600D02*
X233899D01*
X218200Y77600D02*
X225799D01*
X218200D02*
Y81502D01*
X225799D01*
Y77600D02*
Y81502D01*
X196300Y50901D02*
X200202D01*
Y58500D01*
X196300D02*
X200202D01*
X196300Y50901D02*
Y58500D01*
X231800Y63600D02*
Y71199D01*
X227898Y63600D02*
X231800D01*
X227898D02*
Y71199D01*
X231800D01*
X225901Y71998D02*
Y75900D01*
Y71998D02*
X233500D01*
Y75900D01*
X225901D02*
X233500D01*
X130700Y59000D02*
X138299D01*
X130700D02*
Y62902D01*
X138299D01*
Y59000D02*
Y62902D01*
X99900Y51101D02*
X103802D01*
Y58700D01*
X99900D02*
X103802D01*
X99900Y51101D02*
Y58700D01*
X121900Y77700D02*
X129499D01*
X121900D02*
Y81602D01*
X129499D01*
Y77700D02*
Y81602D01*
X131398Y71199D02*
X135300D01*
X131398Y63600D02*
Y71199D01*
Y63600D02*
X135300D01*
Y71199D01*
X129401Y75900D02*
X137000D01*
Y71998D02*
Y75900D01*
X129401Y71998D02*
X137000D01*
X129401D02*
Y75900D01*
X92099Y59000D02*
Y62902D01*
X84500D02*
X92099D01*
X84500Y59000D02*
Y62902D01*
Y59000D02*
X92099D01*
X76900Y77700D02*
X84499D01*
X76900D02*
Y81602D01*
X84499D01*
Y77700D02*
Y81602D01*
X54800Y50001D02*
X58702D01*
Y57600D01*
X54800D02*
X58702D01*
X54800Y50001D02*
Y57600D01*
X90300Y63600D02*
Y71199D01*
X86398Y63600D02*
X90300D01*
X86398D02*
Y71199D01*
X90300D01*
X84239Y71898D02*
Y75800D01*
Y71898D02*
X91838D01*
Y75800D01*
X84239D02*
X91838D01*
X326600Y247200D02*
X334199D01*
X326600D02*
Y251102D01*
X334199D01*
Y247200D02*
Y251102D01*
X204501Y157298D02*
Y161200D01*
Y157298D02*
X212100D01*
Y161200D01*
X204501D02*
X212100D01*
X159892Y74644D02*
X167491D01*
X159892D02*
Y78546D01*
X167491D01*
Y74644D02*
Y78546D01*
X167787Y90983D02*
Y94884D01*
X160187D02*
X167787D01*
X160187Y90983D02*
Y94884D01*
Y90983D02*
X167787D01*
X167668Y74644D02*
X175267D01*
X167668D02*
Y78546D01*
X175267D01*
Y74644D02*
Y78546D01*
Y90983D02*
Y94884D01*
X167668D02*
X175267D01*
X167668Y90983D02*
Y94884D01*
Y90983D02*
X175267D01*
X175444Y78546D02*
X183043D01*
Y74644D02*
Y78546D01*
X175444Y74644D02*
X183043D01*
X175444D02*
Y78546D01*
Y90983D02*
Y94884D01*
Y90983D02*
X183043D01*
Y94884D01*
X175444D02*
X183043D01*
X43053Y180801D02*
Y188400D01*
X46954D01*
Y180801D02*
Y188400D01*
X43053Y180801D02*
X46954D01*
X82966Y144769D02*
X86868D01*
X82966Y137170D02*
Y144769D01*
Y137170D02*
X86868D01*
Y144769D01*
X118659Y137761D02*
Y145360D01*
X114757Y137761D02*
X118659D01*
X114757D02*
Y145360D01*
X118659D01*
X114757Y120235D02*
X118659D01*
Y127835D01*
X114757D02*
X118659D01*
X114757Y120235D02*
Y127835D01*
X82966Y119947D02*
Y127546D01*
X86868D01*
Y119947D02*
Y127546D01*
X82966Y119947D02*
X86868D01*
X167900Y189601D02*
X171802D01*
Y197200D01*
X167900D02*
X171802D01*
X167900Y189601D02*
Y197200D01*
X200901Y179800D02*
X208500D01*
Y175898D02*
Y179800D01*
X200901Y175898D02*
X208500D01*
X200901D02*
Y179800D01*
X222399Y157100D02*
Y161002D01*
X214800D02*
X222399D01*
X214800Y157100D02*
Y161002D01*
Y157100D02*
X222399D01*
X202525Y170529D02*
X210124D01*
Y166628D02*
Y170529D01*
X202525Y166628D02*
X210124D01*
X202525D02*
Y170529D01*
X106498Y162599D02*
X110400D01*
X106498Y155000D02*
Y162599D01*
Y155000D02*
X110400D01*
Y162599D01*
X111892Y147120D02*
X119491D01*
X111892D02*
Y151022D01*
X119491D01*
Y147120D02*
Y151022D01*
X81765Y156779D02*
Y160680D01*
X74165D02*
X81765D01*
X74165Y156779D02*
Y160680D01*
Y156779D02*
X81765D01*
X72301Y154300D02*
X79900D01*
Y150398D02*
Y154300D01*
X72301Y150398D02*
X79900D01*
X72301D02*
Y154300D01*
X56900Y140301D02*
X60802D01*
Y147900D01*
X56900D02*
X60802D01*
X56900Y140301D02*
Y147900D01*
X59300Y174900D02*
X66899D01*
X59300D02*
Y178802D01*
X66899D01*
Y174900D02*
Y178802D01*
X122100Y139301D02*
X126002D01*
Y146900D01*
X122100D02*
X126002D01*
X122100Y139301D02*
Y146900D01*
X59300Y162500D02*
X66899D01*
X59300D02*
Y166402D01*
X66899D01*
Y162500D02*
Y166402D01*
X52301Y133698D02*
Y137600D01*
Y133698D02*
X59900D01*
Y137600D01*
X52301D02*
X59900D01*
X31300Y211600D02*
Y219199D01*
X27398Y211600D02*
X31300D01*
X27398D02*
Y219199D01*
X31300D01*
X158062Y113878D02*
Y117780D01*
Y113878D02*
X165661D01*
Y117780D01*
X158062D02*
X165661D01*
X199600Y133628D02*
Y141227D01*
X203502D01*
Y133628D02*
Y141227D01*
X199600Y133628D02*
X203502D01*
X200950Y174663D02*
X208550D01*
Y170761D02*
Y174663D01*
X200950Y170761D02*
X208550D01*
X200950D02*
Y174663D01*
X47299Y62600D02*
Y66502D01*
X39700D02*
X47299D01*
X39700Y62600D02*
Y66502D01*
Y62600D02*
X47299D01*
X45700Y67200D02*
Y74799D01*
X41798Y67200D02*
X45700D01*
X41798D02*
Y74799D01*
X45700D01*
X10200Y53401D02*
X14102D01*
Y61000D01*
X10200D02*
X14102D01*
X10200Y53401D02*
Y61000D01*
X31100Y80200D02*
X38699D01*
X31100D02*
Y84102D01*
X38699D01*
Y80200D02*
Y84102D01*
X39701Y75498D02*
Y79400D01*
Y75498D02*
X47300D01*
Y79400D01*
X39701D02*
X47300D01*
X242201Y100800D02*
X249800D01*
Y96898D02*
Y100800D01*
X242201Y96898D02*
X249800D01*
X242201D02*
Y100800D01*
X265201Y203698D02*
Y207600D01*
Y203698D02*
X272800D01*
Y207600D01*
X265201D02*
X272800D01*
X288000Y124400D02*
X295599D01*
X288000D02*
Y128302D01*
X295599D01*
Y124400D02*
Y128302D01*
X210401Y121698D02*
Y125600D01*
Y121698D02*
X218000D01*
Y125600D01*
X210401D02*
X218000D01*
X204500Y153400D02*
X212099D01*
X204500D02*
Y157302D01*
X212099D01*
Y153400D02*
Y157302D01*
X211900Y139501D02*
X215802D01*
Y147100D01*
X211900D02*
X215802D01*
X211900Y139501D02*
Y147100D01*
X278000Y133200D02*
X285599D01*
X278000D02*
Y137102D01*
X285599D01*
Y133200D02*
Y137102D01*
X265191Y195698D02*
Y199600D01*
Y195698D02*
X272790D01*
Y199600D01*
X265191D02*
X272790D01*
X278001Y141300D02*
X285600D01*
Y137398D02*
Y141300D01*
X278001Y137398D02*
X285600D01*
X278001D02*
Y141300D01*
X138101Y215498D02*
Y219400D01*
Y215498D02*
X145700D01*
Y219400D01*
X138101D02*
X145700D01*
X142000Y194601D02*
Y202200D01*
X145902D01*
Y194601D02*
Y202200D01*
X142000Y194601D02*
X145902D01*
X106901Y215498D02*
Y219400D01*
Y215498D02*
X114500D01*
Y219400D01*
X106901D02*
X114500D01*
X232600Y63601D02*
Y71200D01*
X236502D01*
Y63601D02*
Y71200D01*
X232600Y63601D02*
X236502D01*
X136100D02*
X140002D01*
Y71200D01*
X136100D02*
X140002D01*
X136100Y63601D02*
Y71200D01*
X92100Y55601D02*
Y63200D01*
X96002D01*
Y55601D02*
Y63200D01*
X92100Y55601D02*
X96002D01*
X334201Y236798D02*
Y240700D01*
Y236798D02*
X341800D01*
Y240700D01*
X334201D02*
X341800D01*
X291400Y194100D02*
Y201699D01*
X287498Y194100D02*
X291400D01*
X287498D02*
Y201699D01*
X291400D01*
X212398Y177899D02*
X216300D01*
X212398Y170300D02*
Y177899D01*
Y170300D02*
X216300D01*
Y177899D01*
X214300Y113900D02*
Y121499D01*
X210398Y113900D02*
X214300D01*
X210398D02*
Y121499D01*
X214300D01*
X216000Y139501D02*
X219902D01*
Y147100D01*
X216000D02*
X219902D01*
X216000Y139501D02*
Y147100D01*
X216600Y174200D02*
X224199D01*
X216600D02*
Y178102D01*
X224199D01*
Y174200D02*
Y178102D01*
X146098Y202199D02*
X150000D01*
X146098Y194600D02*
Y202199D01*
Y194600D02*
X150000D01*
Y202199D01*
X53053Y180801D02*
Y188400D01*
X49151Y180801D02*
X53053D01*
X49151D02*
Y188400D01*
X53053D01*
X275398Y158699D02*
X279300D01*
X275398Y151100D02*
Y158699D01*
Y151100D02*
X279300D01*
Y158699D01*
X290300Y135800D02*
Y143399D01*
X286398Y135800D02*
X290300D01*
X286398D02*
Y143399D01*
X290300D01*
X59301Y170698D02*
Y174600D01*
Y170698D02*
X66900D01*
Y174600D01*
X59301D02*
X66900D01*
X352598Y266899D02*
X356500D01*
X352598Y259300D02*
Y266899D01*
Y259300D02*
X356500D01*
Y266899D01*
X314601Y164100D02*
X322200D01*
Y160198D02*
Y164100D01*
X314601Y160198D02*
X322200D01*
X314601D02*
Y164100D01*
X306701Y160198D02*
Y164100D01*
Y160198D02*
X314300D01*
Y164100D01*
X306701D02*
X314300D01*
X287401Y67500D02*
X295000D01*
Y63598D02*
Y67500D01*
X287401Y63598D02*
X295000D01*
X287401D02*
Y67500D01*
X283601Y67798D02*
Y71700D01*
Y67798D02*
X291200D01*
Y71700D01*
X283601D02*
X291200D01*
X266201Y72200D02*
X273800D01*
Y68298D02*
Y72200D01*
X266201Y68298D02*
X273800D01*
X266201D02*
Y72200D01*
X212101Y134998D02*
Y138900D01*
Y134998D02*
X219700D01*
Y138900D01*
X212101D02*
X219700D01*
X23601Y192000D02*
X31200D01*
Y188098D02*
Y192000D01*
X23601Y188098D02*
X31200D01*
X23601D02*
Y192000D01*
X224199Y170000D02*
Y173902D01*
X216600D02*
X224199D01*
X216600Y170000D02*
Y173902D01*
Y170000D02*
X224199D01*
X47500Y57501D02*
Y65100D01*
X51402D01*
Y57501D02*
Y65100D01*
X47500Y57501D02*
X51402D01*
X278398Y201699D02*
X282300D01*
X278398Y194100D02*
Y201699D01*
Y194100D02*
X282300D01*
Y201699D01*
X295500Y194100D02*
Y201699D01*
X291598Y194100D02*
X295500D01*
X291598D02*
Y201699D01*
X295500D01*
X282498D02*
X286400D01*
X282498Y194100D02*
Y201699D01*
Y194100D02*
X286400D01*
Y201699D01*
X265200Y199700D02*
X272799D01*
X265200D02*
Y203602D01*
X272799D01*
Y199700D02*
Y203602D01*
X145800Y215500D02*
X153399D01*
X145800D02*
Y219402D01*
X153399D01*
Y215500D02*
Y219402D01*
X151598Y214499D02*
X155500D01*
X151598Y206900D02*
Y214499D01*
Y206900D02*
X155500D01*
Y214499D01*
X146100Y206501D02*
Y214100D01*
X150002D01*
Y206501D02*
Y214100D01*
X146100Y206501D02*
X150002D01*
X137899Y215500D02*
Y219402D01*
X130300D02*
X137899D01*
X130300Y215500D02*
Y219402D01*
Y215500D02*
X137899D01*
X114700D02*
X122299D01*
X114700D02*
Y219402D01*
X122299D01*
Y215500D02*
Y219402D01*
X122501Y215498D02*
Y219400D01*
Y215498D02*
X130100D01*
Y219400D01*
X122501D02*
X130100D01*
X211701Y205000D02*
X219300D01*
Y201098D02*
Y205000D01*
X211701Y201098D02*
X219300D01*
X211701D02*
Y205000D01*
X67900Y218300D02*
X75499D01*
X67900D02*
Y222202D01*
X75499D01*
Y218300D02*
Y222202D01*
X91099Y219800D02*
Y223702D01*
X83500D02*
X91099D01*
X83500Y219800D02*
Y223702D01*
Y219800D02*
X91099D01*
X334500Y241001D02*
X338402D01*
Y248600D01*
X334500D02*
X338402D01*
X334500Y241001D02*
Y248600D01*
X326700Y251501D02*
X330602D01*
Y259100D01*
X326700D02*
X330602D01*
X326700Y251501D02*
Y259100D01*
X330798Y259099D02*
X334700D01*
X330798Y251500D02*
Y259099D01*
Y251500D02*
X334700D01*
Y259099D01*
X31498Y219199D02*
X35400D01*
X31498Y211600D02*
Y219199D01*
Y211600D02*
X35400D01*
Y219199D01*
X43498Y197112D02*
X47399D01*
Y204711D01*
X43498D02*
X47399D01*
X43498Y197112D02*
Y204711D01*
X267698Y243999D02*
X271600D01*
X267698Y236400D02*
Y243999D01*
Y236400D02*
X271600D01*
Y243999D01*
X267700Y250201D02*
X271602D01*
Y257800D01*
X267700D02*
X271602D01*
X267700Y250201D02*
Y257800D01*
G54D141*
X93522Y202447D02*
Y208400D01*
X105824Y202447D02*
Y208400D01*
X164972Y67050D02*
Y73002D01*
X177275Y67050D02*
Y73002D01*
Y81026D02*
Y86979D01*
X164972Y81026D02*
Y86979D01*
Y96577D02*
Y102530D01*
X177275Y96577D02*
Y102530D01*
X99730Y190529D02*
Y196482D01*
X87428Y190529D02*
Y196482D01*
X39175Y212877D02*
Y217600D01*
X36000Y212877D02*
Y217600D01*
X323328Y125439D02*
Y153019D01*
X297733Y125439D02*
Y153019D01*
X52117Y198413D02*
Y203135D01*
X48943Y198413D02*
Y203135D01*
G54D142*
X205249Y42736D02*
X211351D01*
X205249Y47264D02*
X211351D01*
Y42736D02*
Y47264D01*
X205249Y42736D02*
Y47264D01*
X217751Y42736D02*
Y47264D01*
X211649Y42736D02*
Y47264D01*
Y42736D02*
X217751D01*
X211649Y47264D02*
X217751D01*
X205049Y76836D02*
X211151D01*
X205049Y81364D02*
X211151D01*
Y76836D02*
Y81364D01*
X205049Y76836D02*
Y81364D01*
X217051Y76836D02*
Y81364D01*
X210949Y76836D02*
Y81364D01*
Y76836D02*
X217051D01*
X210949Y81364D02*
X217051D01*
X109049Y42836D02*
X115151D01*
X109049Y47364D02*
X115151D01*
Y42836D02*
Y47364D01*
X109049Y42836D02*
Y47364D01*
X121251Y42836D02*
Y47364D01*
X115149Y42836D02*
Y47364D01*
Y42836D02*
X121251D01*
X115149Y47364D02*
X121251D01*
X114649Y81464D02*
X120751D01*
X114649Y76936D02*
X120751D01*
X114649D02*
Y81464D01*
X120751Y76936D02*
Y81464D01*
X108649Y76936D02*
Y81464D01*
X114751Y76936D02*
Y81464D01*
X108649D02*
X114751D01*
X108649Y76936D02*
X114751D01*
X63849Y42936D02*
X69951D01*
X63849Y47464D02*
X69951D01*
Y42936D02*
Y47464D01*
X63849Y42936D02*
Y47464D01*
X76051Y42936D02*
Y47464D01*
X69949Y42936D02*
Y47464D01*
Y42936D02*
X76051D01*
X69949Y47464D02*
X76051D01*
X63649Y76936D02*
X69751D01*
X63649Y81464D02*
X69751D01*
Y76936D02*
Y81464D01*
X63649Y76936D02*
Y81464D01*
X75751Y76936D02*
Y81464D01*
X69649Y76936D02*
Y81464D01*
Y76936D02*
X75751D01*
X69649Y81464D02*
X75751D01*
X19349Y46536D02*
X25451D01*
X19349Y51064D02*
X25451D01*
Y46536D02*
Y51064D01*
X19349Y46536D02*
Y51064D01*
X31551Y46536D02*
Y51064D01*
X25449Y46536D02*
Y51064D01*
Y46536D02*
X31551D01*
X25449Y51064D02*
X31551D01*
X24449Y85664D02*
X30551D01*
X24449Y81136D02*
X30551D01*
X24449D02*
Y85664D01*
X30551Y81136D02*
Y85664D01*
X18349Y81136D02*
Y85664D01*
X24451Y81136D02*
Y85664D01*
X18349D02*
X24451D01*
X18349Y81136D02*
X24451D01*
X57969Y151138D02*
X66631D01*
X57969Y155862D02*
X66631D01*
Y151138D02*
Y155862D01*
X57969Y151138D02*
Y155862D01*
X209631Y179838D02*
Y184562D01*
X200969Y179838D02*
Y184562D01*
Y179838D02*
X209631D01*
X200969Y184562D02*
X209631D01*
X201138Y125031D02*
X205862D01*
X201138Y116369D02*
X205862D01*
Y125031D01*
X201138Y116369D02*
Y125031D01*
G54D143*
X282671Y258105D02*
D03*
X290929Y117894D02*
D03*
X285502Y26360D02*
D03*
X285410Y14378D02*
D03*
G54D144*
X310487Y133408D02*
D03*
G54D145*
X293305Y143500D02*
D03*
X282805Y158300D02*
D03*
X354495Y250001D02*
D03*
X96869Y172949D02*
D03*
X96782Y159582D02*
D03*
G54D146*
X295700Y143500D02*
D03*
X285200Y158300D02*
D03*
X352100Y250001D02*
D03*
X94474Y172949D02*
D03*
X99177Y159582D02*
D03*
G54D147*
X290938Y143500D02*
D03*
X280438Y158300D02*
D03*
X356862Y250001D02*
D03*
X99236Y172949D02*
D03*
X94415Y159582D02*
D03*
G54D148*
X348696Y192873D02*
D03*
G54D149*
X277200Y64593D02*
D03*
X11500Y198105D02*
D03*
Y190105D02*
D03*
G54D150*
X277200Y62198D02*
D03*
X11500Y200500D02*
D03*
Y192500D02*
D03*
G54D151*
X277200Y66960D02*
D03*
X11500Y195738D02*
D03*
Y187738D02*
D03*
M02*
