G04 Layer_Color=65535*
%FSLAX25Y25*%
%MOIN*%
G70*
G01*
G75*
%ADD12C,0.00800*%
%ADD65C,0.00700*%
%ADD68C,0.01000*%
%ADD111C,0.03000*%
%ADD133C,0.00394*%
%ADD134C,0.00984*%
%ADD135C,0.00600*%
%ADD136C,0.00500*%
%ADD137C,0.01000*%
%ADD138C,0.02500*%
%ADD139C,0.00197*%
%ADD140C,0.00787*%
%ADD141C,0.00400*%
%ADD142C,0.00200*%
%ADD143R,0.02953X0.08790*%
%ADD144R,0.24505X0.04921*%
%ADD145R,0.01190X0.01200*%
%ADD146R,0.00600X0.01200*%
%ADD147R,0.00590X0.01200*%
%ADD148R,0.08790X0.02953*%
%ADD149R,0.01200X0.01190*%
%ADD150R,0.01200X0.00600*%
%ADD151R,0.01200X0.00590*%
G36*
X272693Y104396D02*
Y104389D01*
Y104378D01*
Y104364D01*
Y104343D01*
X272689Y104321D01*
X272686Y104264D01*
X272678Y104203D01*
X272668Y104131D01*
X272650Y104056D01*
X272625Y103981D01*
Y103978D01*
X272618Y103967D01*
X272610Y103949D01*
X272600Y103924D01*
X272589Y103892D01*
X272571Y103856D01*
X272550Y103816D01*
X272528Y103773D01*
X272503Y103723D01*
X272471Y103673D01*
X272403Y103562D01*
X272321Y103444D01*
X272224Y103322D01*
X272220Y103319D01*
X272210Y103308D01*
X272195Y103290D01*
X272174Y103265D01*
X272145Y103233D01*
X272109Y103197D01*
X272070Y103154D01*
X272020Y103108D01*
X271966Y103054D01*
X271909Y102997D01*
X271844Y102936D01*
X271773Y102868D01*
X271694Y102800D01*
X271612Y102728D01*
X271522Y102653D01*
X271429Y102574D01*
X271426Y102571D01*
X271418Y102567D01*
X271408Y102556D01*
X271393Y102546D01*
X271375Y102528D01*
X271354Y102510D01*
X271300Y102463D01*
X271232Y102410D01*
X271161Y102341D01*
X271078Y102270D01*
X270992Y102191D01*
X270899Y102109D01*
X270810Y102023D01*
X270717Y101937D01*
X270631Y101848D01*
X270545Y101761D01*
X270470Y101679D01*
X270398Y101597D01*
X270341Y101522D01*
X270337Y101518D01*
X270330Y101504D01*
X270316Y101482D01*
X270294Y101457D01*
X270273Y101421D01*
X270251Y101382D01*
X270223Y101336D01*
X270198Y101285D01*
X270173Y101232D01*
X270144Y101174D01*
X270097Y101049D01*
X270079Y100985D01*
X270065Y100920D01*
X270058Y100856D01*
X270054Y100791D01*
Y100788D01*
Y100774D01*
Y100756D01*
X270058Y100731D01*
X270061Y100698D01*
X270069Y100663D01*
X270076Y100623D01*
X270087Y100580D01*
X270101Y100534D01*
X270119Y100484D01*
X270140Y100433D01*
X270165Y100383D01*
X270194Y100329D01*
X270230Y100279D01*
X270269Y100229D01*
X270316Y100183D01*
X270319Y100179D01*
X270326Y100172D01*
X270341Y100161D01*
X270362Y100143D01*
X270387Y100126D01*
X270420Y100104D01*
X270455Y100079D01*
X270495Y100057D01*
X270541Y100032D01*
X270591Y100011D01*
X270649Y99989D01*
X270706Y99971D01*
X270770Y99954D01*
X270838Y99943D01*
X270910Y99936D01*
X270985Y99932D01*
X271028D01*
X271057Y99936D01*
X271096Y99939D01*
X271139Y99946D01*
X271186Y99954D01*
X271239Y99964D01*
X271293Y99979D01*
X271350Y99997D01*
X271408Y100018D01*
X271468Y100043D01*
X271526Y100075D01*
X271583Y100111D01*
X271640Y100151D01*
X271690Y100197D01*
X271694Y100201D01*
X271701Y100208D01*
X271715Y100226D01*
X271730Y100244D01*
X271751Y100272D01*
X271773Y100304D01*
X271798Y100344D01*
X271819Y100387D01*
X271844Y100433D01*
X271869Y100491D01*
X271891Y100548D01*
X271912Y100612D01*
X271927Y100684D01*
X271941Y100759D01*
X271948Y100838D01*
X271952Y100924D01*
X272578Y100859D01*
Y100856D01*
Y100852D01*
X272575Y100841D01*
Y100827D01*
X272571Y100791D01*
X272560Y100745D01*
X272550Y100688D01*
X272535Y100619D01*
X272517Y100544D01*
X272496Y100466D01*
X272467Y100380D01*
X272435Y100294D01*
X272396Y100204D01*
X272349Y100115D01*
X272299Y100029D01*
X272238Y99946D01*
X272174Y99868D01*
X272099Y99796D01*
X272095Y99792D01*
X272081Y99782D01*
X272056Y99760D01*
X272023Y99739D01*
X271980Y99710D01*
X271930Y99678D01*
X271869Y99646D01*
X271801Y99610D01*
X271723Y99578D01*
X271640Y99546D01*
X271547Y99513D01*
X271447Y99485D01*
X271340Y99460D01*
X271225Y99442D01*
X271103Y99431D01*
X270974Y99427D01*
X270942D01*
X270906Y99431D01*
X270856Y99435D01*
X270795Y99438D01*
X270727Y99449D01*
X270649Y99460D01*
X270566Y99477D01*
X270477Y99499D01*
X270387Y99524D01*
X270291Y99556D01*
X270198Y99596D01*
X270105Y99642D01*
X270015Y99692D01*
X269929Y99753D01*
X269847Y99825D01*
X269843Y99828D01*
X269829Y99843D01*
X269807Y99864D01*
X269782Y99896D01*
X269750Y99932D01*
X269714Y99979D01*
X269675Y100032D01*
X269636Y100093D01*
X269600Y100161D01*
X269560Y100236D01*
X269525Y100319D01*
X269492Y100405D01*
X269467Y100498D01*
X269446Y100594D01*
X269431Y100698D01*
X269428Y100806D01*
Y100809D01*
Y100820D01*
Y100834D01*
Y100856D01*
X269431Y100884D01*
X269435Y100913D01*
X269439Y100949D01*
X269442Y100988D01*
X269457Y101078D01*
X269478Y101178D01*
X269510Y101282D01*
X269550Y101389D01*
Y101393D01*
X269557Y101403D01*
X269564Y101418D01*
X269575Y101439D01*
X269585Y101464D01*
X269603Y101497D01*
X269621Y101532D01*
X269646Y101572D01*
X269671Y101615D01*
X269700Y101661D01*
X269772Y101765D01*
X269811Y101819D01*
X269854Y101876D01*
X269904Y101933D01*
X269954Y101994D01*
X269958Y101998D01*
X269969Y102009D01*
X269983Y102026D01*
X270008Y102051D01*
X270040Y102084D01*
X270079Y102123D01*
X270122Y102170D01*
X270176Y102223D01*
X270237Y102281D01*
X270309Y102345D01*
X270384Y102417D01*
X270470Y102495D01*
X270563Y102578D01*
X270663Y102667D01*
X270774Y102764D01*
X270892Y102864D01*
X270899Y102868D01*
X270917Y102886D01*
X270942Y102907D01*
X270978Y102939D01*
X271025Y102975D01*
X271071Y103018D01*
X271125Y103065D01*
X271182Y103115D01*
X271304Y103219D01*
X271361Y103272D01*
X271418Y103322D01*
X271472Y103373D01*
X271519Y103416D01*
X271562Y103455D01*
X271594Y103491D01*
X271601Y103498D01*
X271619Y103519D01*
X271648Y103551D01*
X271683Y103591D01*
X271723Y103641D01*
X271766Y103695D01*
X271809Y103756D01*
X271848Y103816D01*
X269421D01*
Y104400D01*
X272693D01*
Y104396D01*
D02*
G37*
G36*
X289983Y100526D02*
X289986Y100530D01*
X289994Y100537D01*
X290004Y100548D01*
X290022Y100562D01*
X290044Y100580D01*
X290072Y100605D01*
X290105Y100630D01*
X290137Y100659D01*
X290180Y100688D01*
X290223Y100723D01*
X290269Y100756D01*
X290319Y100795D01*
X290377Y100831D01*
X290434Y100870D01*
X290563Y100949D01*
X290566Y100952D01*
X290577Y100960D01*
X290599Y100970D01*
X290624Y100981D01*
X290652Y100999D01*
X290688Y101021D01*
X290731Y101042D01*
X290774Y101067D01*
X290874Y101117D01*
X290982Y101167D01*
X291093Y101217D01*
X291200Y101260D01*
Y100673D01*
X291193Y100670D01*
X291178Y100663D01*
X291150Y100648D01*
X291114Y100630D01*
X291071Y100609D01*
X291017Y100580D01*
X290960Y100548D01*
X290899Y100512D01*
X290831Y100469D01*
X290760Y100426D01*
X290609Y100326D01*
X290455Y100215D01*
X290309Y100093D01*
X290305Y100090D01*
X290291Y100079D01*
X290273Y100061D01*
X290248Y100036D01*
X290215Y100004D01*
X290180Y99968D01*
X290140Y99925D01*
X290097Y99882D01*
X290054Y99832D01*
X290008Y99778D01*
X289918Y99667D01*
X289836Y99549D01*
X289800Y99488D01*
X289768Y99427D01*
X289374D01*
Y104400D01*
X289983D01*
Y100526D01*
D02*
G37*
G54D12*
X334200Y202100D02*
X334983Y202676D01*
X335514Y203490D01*
X335726Y204438D01*
X335592Y205401D01*
X335129Y206256D01*
X334396Y206894D01*
X333486Y207235D01*
X332514D01*
X331604Y206894D01*
X330871Y206256D01*
X330408Y205401D01*
X330274Y204438D01*
X330486Y203490D01*
X331017Y202676D01*
X331800Y202100D01*
X326900Y203000D02*
X327228Y202068D01*
X327700Y201200D01*
X327700Y207800D02*
X327226Y206933D01*
X326900Y206000D01*
X331500Y210500D02*
X330623Y210215D01*
X329800Y209800D01*
X336200Y209800D02*
X335331Y210270D01*
X334400Y210600D01*
X339200Y206000D02*
X338828Y206939D01*
X338300Y207800D01*
Y201200D02*
X338786Y202166D01*
X339100Y203200D01*
X299105Y185816D02*
X298561Y186565D01*
X297681Y186279D01*
Y185353D01*
X298561Y185067D01*
X299105Y185816D01*
X93632Y123304D02*
X108113D01*
Y141853D01*
X93632D02*
X108113D01*
X93632Y123304D02*
Y141853D01*
X330300Y198700D02*
X331800Y202100D01*
X329600Y199100D02*
X330300Y198700D01*
X327800Y197900D02*
X329600Y199100D01*
X326400Y199300D02*
X327800Y197900D01*
X326400Y199300D02*
X327600Y201100D01*
X324600Y203500D02*
X326800Y203100D01*
X324600Y203500D02*
Y205500D01*
X326900Y205900D01*
X326400Y209700D02*
X327700Y207800D01*
X326400Y209700D02*
X327800Y211100D01*
X329700Y209800D01*
X331500Y210500D02*
X332000Y212900D01*
X333900D01*
X334400Y210500D01*
X336200Y209800D02*
X338200Y211100D01*
X339600Y209700D01*
X338200Y207800D02*
X339600Y209700D01*
X339100Y205900D02*
X341300Y205500D01*
Y203500D02*
Y205500D01*
X339100Y203100D02*
X341300Y203500D01*
X338300Y201100D02*
X339600Y199300D01*
X338200Y197900D02*
X339600Y199300D01*
X336400Y199100D02*
X338200Y197900D01*
X335600Y198700D02*
X336400Y199100D01*
X334200Y202100D02*
X335600Y198700D01*
X306533Y141419D02*
X314470D01*
X310533Y135951D02*
X314470Y141419D01*
X306533D02*
X310533Y135951D01*
X285004Y60268D02*
X287858D01*
X285004Y41319D02*
X287858D01*
X277400Y185127D02*
X296349D01*
Y172115D02*
Y185127D01*
Y187096D01*
X277400Y185127D02*
Y187096D01*
Y172115D02*
Y185127D01*
X304765Y176700D02*
Y179554D01*
X323713Y176700D02*
Y179554D01*
X191100Y71998D02*
Y67833D01*
X191933Y67000D01*
X193599D01*
X194432Y67833D01*
Y71998D01*
X196098D02*
X199431D01*
Y71165D01*
X196098Y67833D01*
Y67000D01*
X94800Y71698D02*
Y67533D01*
X95633Y66700D01*
X97299D01*
X98132Y67533D01*
Y71698D01*
X103131D02*
X101464Y70865D01*
X99798Y69199D01*
Y67533D01*
X100631Y66700D01*
X102298D01*
X103131Y67533D01*
Y68366D01*
X102298Y69199D01*
X99798D01*
X49600Y71998D02*
Y67833D01*
X50433Y67000D01*
X52099D01*
X52932Y67833D01*
Y71998D01*
X57931D02*
X54598D01*
Y69499D01*
X56265Y70332D01*
X57098D01*
X57931Y69499D01*
Y67833D01*
X57098Y67000D01*
X55431D01*
X54598Y67833D01*
X4900Y75898D02*
Y71733D01*
X5733Y70900D01*
X7399D01*
X8232Y71733D01*
Y75898D01*
X12398Y70900D02*
Y75898D01*
X9898Y73399D01*
X13231D01*
X168800Y242000D02*
X170466D01*
X169633D01*
Y246998D01*
X168800Y246165D01*
X263935Y271567D02*
Y274899D01*
X267267Y271567D01*
X268100D01*
X268933Y272400D01*
Y274066D01*
X268100Y274899D01*
X233423Y274309D02*
Y272642D01*
Y273476D01*
X238421D01*
X237588Y274309D01*
X196900Y107498D02*
X200232D01*
X198566D01*
Y102500D01*
X201898Y107498D02*
Y102500D01*
Y104999D01*
X202731Y105832D01*
X204398D01*
X205231Y104999D01*
Y102500D01*
X209396D02*
X207730D01*
X206897Y103333D01*
Y104999D01*
X207730Y105832D01*
X209396D01*
X210229Y104999D01*
Y104166D01*
X206897D01*
X211895Y105832D02*
Y102500D01*
Y104166D01*
X212728Y104999D01*
X213561Y105832D01*
X214394D01*
X216894Y102500D02*
Y105832D01*
X217727D01*
X218560Y104999D01*
Y102500D01*
Y104999D01*
X219393Y105832D01*
X220226Y104999D01*
Y102500D01*
X105300Y115700D02*
Y120698D01*
X106966Y119032D01*
X108632Y120698D01*
Y115700D01*
X111131D02*
X112798D01*
X113631Y116533D01*
Y118199D01*
X112798Y119032D01*
X111131D01*
X110298Y118199D01*
Y116533D01*
X111131Y115700D01*
X116130Y119865D02*
Y119032D01*
X115297D01*
X116963D01*
X116130D01*
Y116533D01*
X116963Y115700D01*
X120295D02*
X121961D01*
X122794Y116533D01*
Y118199D01*
X121961Y119032D01*
X120295D01*
X119462Y118199D01*
Y116533D01*
X120295Y115700D01*
X124460Y119032D02*
Y115700D01*
Y117366D01*
X125294Y118199D01*
X126127Y119032D01*
X126960D01*
X129459Y115700D02*
X131958D01*
X132791Y116533D01*
X131958Y117366D01*
X130292D01*
X129459Y118199D01*
X130292Y119032D01*
X132791D01*
X410101Y55700D02*
Y59032D01*
X408435Y57366D02*
X411767D01*
X410101Y90689D02*
Y94021D01*
X230200Y100198D02*
X233532D01*
X231866D01*
Y95200D01*
X238531D02*
X235198D01*
X238531Y98532D01*
Y99365D01*
X237698Y100198D01*
X236031D01*
X235198Y99365D01*
X199102Y143700D02*
Y147032D01*
Y145366D01*
X204100D01*
Y148698D02*
Y150364D01*
Y149531D01*
X199102D01*
X199935Y148698D01*
X225700Y200098D02*
X229032D01*
X227366D01*
Y195100D01*
X230698Y199265D02*
X231531Y200098D01*
X233198D01*
X234031Y199265D01*
Y195933D01*
X233198Y195100D01*
X231531D01*
X230698Y195933D01*
Y199265D01*
X291566Y275199D02*
X288900D01*
Y271200D01*
X291566D01*
X288900Y273199D02*
X290233D01*
X292899Y275199D02*
X294232D01*
X293565D01*
Y271200D01*
X292899D01*
X294232D01*
X296231D02*
Y275199D01*
X298897Y271200D01*
Y275199D01*
X300230D02*
Y274532D01*
X301563Y273199D01*
X302895Y274532D01*
Y275199D01*
X301563Y273199D02*
Y271200D01*
X308227Y274532D02*
X308894Y275199D01*
X310226D01*
X310893Y274532D01*
Y271866D01*
X310226Y271200D01*
X308894D01*
X308227Y271866D01*
Y274532D01*
X312226Y271200D02*
Y271866D01*
X312892D01*
Y271200D01*
X312226D01*
X318224D02*
X315558D01*
X318224Y273866D01*
Y274532D01*
X317557Y275199D01*
X316225D01*
X315558Y274532D01*
X320223Y273866D02*
X321556D01*
X322223Y273199D01*
Y271200D01*
X320223D01*
X319557Y271866D01*
X320223Y272533D01*
X322223D01*
X413000Y60400D02*
X408002D01*
Y62899D01*
X408835Y63732D01*
X410501D01*
X411334Y62899D01*
Y60400D01*
X408002Y65398D02*
X413000D01*
X411334Y67064D01*
X413000Y68731D01*
X408002D01*
X413000Y70397D02*
X408002D01*
Y72896D01*
X408835Y73729D01*
X410501D01*
X411334Y72896D01*
Y70397D01*
Y72063D02*
X413000Y73729D01*
X408002Y80393D02*
Y82060D01*
Y81227D01*
X413000D01*
Y80393D01*
Y82060D01*
Y84559D02*
X408002D01*
X413000Y87891D01*
X408002D01*
X407602Y125300D02*
X412600D01*
Y127799D01*
X411767Y128632D01*
X410934D01*
X410101Y127799D01*
Y125300D01*
Y127799D01*
X409268Y128632D01*
X408435D01*
X407602Y127799D01*
Y125300D01*
Y133631D02*
Y130298D01*
X412600D01*
Y133631D01*
X410101Y130298D02*
Y131965D01*
X407602Y135297D02*
X412600D01*
Y137796D01*
X411767Y138629D01*
X408435D01*
X407602Y137796D01*
Y135297D01*
Y145293D02*
Y146960D01*
Y146127D01*
X412600D01*
Y145293D01*
Y146960D01*
Y149459D02*
X407602D01*
X412600Y152791D01*
X407602D01*
X293909Y178372D02*
X290576D01*
X293909Y181704D01*
Y182537D01*
X293076Y183370D01*
X291409D01*
X290576Y182537D01*
X297102Y183032D02*
Y179700D01*
X299601D01*
Y181366D01*
Y179700D01*
X302100D01*
X298768Y185531D02*
Y187198D01*
X299601Y188031D01*
X302100D01*
Y185531D01*
X301267Y184698D01*
X300434Y185531D01*
Y188031D01*
X302100Y189697D02*
X298768D01*
Y192196D01*
X299601Y193029D01*
X302100D01*
Y194695D02*
Y197194D01*
X301267Y198027D01*
X300434Y197194D01*
Y195528D01*
X299601Y194695D01*
X298768Y195528D01*
Y198027D01*
X294300Y170800D02*
X295966D01*
X295133D01*
Y175798D01*
X294300Y174965D01*
X410101Y120200D02*
Y123532D01*
X408435Y121866D02*
X411767D01*
X410101Y155189D02*
Y158521D01*
Y184200D02*
Y187532D01*
X408435Y185866D02*
X411767D01*
X410101Y229185D02*
Y232518D01*
X407602Y192800D02*
X412600D01*
Y195299D01*
X411767Y196132D01*
X410934D01*
X410101Y195299D01*
Y192800D01*
Y195299D01*
X409268Y196132D01*
X408435D01*
X407602Y195299D01*
Y192800D01*
Y201131D02*
Y197798D01*
X412600D01*
Y201131D01*
X410101Y197798D02*
Y199464D01*
X407602Y202797D02*
X412600D01*
Y205296D01*
X411767Y206129D01*
X408435D01*
X407602Y205296D01*
Y202797D01*
Y215293D02*
Y213627D01*
X408435Y212793D01*
X411767D01*
X412600Y213627D01*
Y215293D01*
X411767Y216126D01*
X408435D01*
X407602Y215293D01*
Y217792D02*
X411767D01*
X412600Y218625D01*
Y220291D01*
X411767Y221124D01*
X407602D01*
Y222790D02*
Y226122D01*
Y224456D01*
X412600D01*
G54D65*
X234200Y63000D02*
X236800Y58100D01*
X130100Y81000D02*
X141900Y83800D01*
X105300Y97900D02*
X105800Y86700D01*
X53500Y35000D02*
X55900Y34300D01*
X48300Y79200D02*
X62700Y78800D01*
X25900Y108700D02*
X26600Y100000D01*
X268808Y224108D02*
Y250092D01*
Y224108D02*
X294792D01*
Y250092D01*
X268808D02*
X294792D01*
X57500Y158400D02*
X59300Y161800D01*
X142866Y59799D02*
X141533D01*
X142199D01*
Y56466D01*
X141533Y55800D01*
X140866D01*
X140200Y56466D01*
X144199Y55800D02*
X145532D01*
X144865D01*
Y59799D01*
X144199Y59132D01*
X147531D02*
X148197Y59799D01*
X149530D01*
X150197Y59132D01*
Y56466D01*
X149530Y55800D01*
X148197D01*
X147531Y56466D01*
Y59132D01*
X32266Y6099D02*
X30933D01*
X31599D01*
Y2767D01*
X30933Y2100D01*
X30266D01*
X29600Y2767D01*
X33599Y5432D02*
X34265Y6099D01*
X35598D01*
X36265Y5432D01*
Y4766D01*
X35598Y4099D01*
X36265Y3433D01*
Y2767D01*
X35598Y2100D01*
X34265D01*
X33599Y2767D01*
Y3433D01*
X34265Y4099D01*
X33599Y4766D01*
Y5432D01*
X34265Y4099D02*
X35598D01*
X216501Y117066D02*
Y115733D01*
Y116399D01*
X219834D01*
X220500Y115733D01*
Y115067D01*
X219834Y114400D01*
X216501Y121064D02*
X217168Y119732D01*
X218501Y118399D01*
X219834D01*
X220500Y119065D01*
Y120398D01*
X219834Y121064D01*
X219167D01*
X218501Y120398D01*
Y118399D01*
X265034Y45266D02*
X262368D01*
X261701Y44599D01*
Y43266D01*
X262368Y42600D01*
X265034D01*
X265700Y43266D01*
Y44599D01*
X264367Y43933D02*
X265700Y45266D01*
Y44599D02*
X265034Y45266D01*
X265700Y46599D02*
Y47932D01*
Y47265D01*
X261701D01*
X262368Y46599D01*
X26866Y117832D02*
X26199Y118499D01*
X24867D01*
X24200Y117832D01*
Y115166D01*
X24867Y114500D01*
X26199D01*
X26866Y115166D01*
X30865Y114500D02*
X28199D01*
X30865Y117166D01*
Y117832D01*
X30198Y118499D01*
X28865D01*
X28199Y117832D01*
X34197Y114500D02*
Y118499D01*
X32197Y116499D01*
X34863D01*
X20766Y222032D02*
X20099Y222699D01*
X18767D01*
X18100Y222032D01*
Y221366D01*
X18767Y220699D01*
X20099D01*
X20766Y220033D01*
Y219366D01*
X20099Y218700D01*
X18767D01*
X18100Y219366D01*
X22099Y218700D02*
X23432D01*
X22765D01*
Y222699D01*
X22099Y222032D01*
X2700Y182899D02*
X5366Y178900D01*
Y182899D02*
X2700Y178900D01*
X9364D02*
X6699D01*
X9364Y181566D01*
Y182232D01*
X8698Y182899D01*
X7365D01*
X6699Y182232D01*
X70300Y137199D02*
Y136532D01*
X71633Y135199D01*
X72966Y136532D01*
Y137199D01*
X71633Y135199D02*
Y133200D01*
X76964D02*
X74299D01*
X76964Y135866D01*
Y136532D01*
X76298Y137199D01*
X74965D01*
X74299Y136532D01*
X273100Y5899D02*
Y1900D01*
X275099D01*
X275766Y2567D01*
Y5232D01*
X275099Y5899D01*
X273100D01*
X279765Y1900D02*
X277099D01*
X279765Y4566D01*
Y5232D01*
X279098Y5899D01*
X277765D01*
X277099Y5232D01*
X272100Y39099D02*
Y35100D01*
X274099D01*
X274766Y35766D01*
Y38432D01*
X274099Y39099D01*
X272100D01*
X276099Y38432D02*
X276765Y39099D01*
X278098D01*
X278765Y38432D01*
Y37766D01*
X278098Y37099D01*
X278765Y36433D01*
Y35766D01*
X278098Y35100D01*
X276765D01*
X276099Y35766D01*
Y36433D01*
X276765Y37099D01*
X276099Y37766D01*
Y38432D01*
X276765Y37099D02*
X278098D01*
X357566Y5899D02*
X354900D01*
Y3899D01*
X356233D01*
X354900D01*
Y1900D01*
X358899D02*
X360232D01*
X359565D01*
Y5899D01*
X358899Y5232D01*
X291466Y5499D02*
X288800D01*
Y3499D01*
X290133D01*
X288800D01*
Y1500D01*
X295464D02*
X292799D01*
X295464Y4166D01*
Y4832D01*
X294798Y5499D01*
X293465D01*
X292799Y4832D01*
X335266Y186199D02*
X332600D01*
Y184199D01*
X333933D01*
X332600D01*
Y182200D01*
X336599Y185532D02*
X337265Y186199D01*
X338598D01*
X339264Y185532D01*
Y184866D01*
X338598Y184199D01*
X337932D01*
X338598D01*
X339264Y183533D01*
Y182867D01*
X338598Y182200D01*
X337265D01*
X336599Y182867D01*
X271800Y244800D02*
X267801D01*
Y246799D01*
X268468Y247466D01*
X269801D01*
X270467Y246799D01*
Y244800D01*
X268468Y248799D02*
X267801Y249465D01*
Y250798D01*
X268468Y251465D01*
X269134D01*
X269801Y250798D01*
Y250132D01*
Y250798D01*
X270467Y251465D01*
X271134D01*
X271800Y250798D01*
Y249465D01*
X271134Y248799D01*
X236100Y94199D02*
X238766Y90200D01*
Y94199D02*
X236100Y90200D01*
X240099D02*
X241432D01*
X240765D01*
Y94199D01*
X240099Y93532D01*
X243431D02*
X244097Y94199D01*
X245430D01*
X246097Y93532D01*
Y92866D01*
X245430Y92199D01*
X244764D01*
X245430D01*
X246097Y91533D01*
Y90866D01*
X245430Y90200D01*
X244097D01*
X243431Y90866D01*
X241668Y77166D02*
X241001Y76499D01*
Y75166D01*
X241668Y74500D01*
X244334D01*
X245000Y75166D01*
Y76499D01*
X244334Y77166D01*
X245000Y78499D02*
Y79832D01*
Y79165D01*
X241001D01*
X241668Y78499D01*
Y81831D02*
X241001Y82497D01*
Y83830D01*
X241668Y84497D01*
X244334D01*
X245000Y83830D01*
Y82497D01*
X244334Y81831D01*
X241668D01*
Y85830D02*
X241001Y86496D01*
Y87829D01*
X241668Y88495D01*
X242334D01*
X243001Y87829D01*
Y87163D01*
Y87829D01*
X243667Y88495D01*
X244334D01*
X245000Y87829D01*
Y86496D01*
X244334Y85830D01*
X68566Y117132D02*
X67899Y117799D01*
X66566D01*
X65900Y117132D01*
Y114467D01*
X66566Y113800D01*
X67899D01*
X68566Y114467D01*
X69899Y113800D02*
X71232D01*
X70565D01*
Y117799D01*
X69899Y117132D01*
X73231D02*
X73897Y117799D01*
X75230D01*
X75897Y117132D01*
Y114467D01*
X75230Y113800D01*
X73897D01*
X73231Y114467D01*
Y117132D01*
X77230Y114467D02*
X77896Y113800D01*
X79229D01*
X79896Y114467D01*
Y117132D01*
X79229Y117799D01*
X77896D01*
X77230Y117132D01*
Y116466D01*
X77896Y115799D01*
X79896D01*
X122366Y110732D02*
X121699Y111399D01*
X120367D01*
X119700Y110732D01*
Y108066D01*
X120367Y107400D01*
X121699D01*
X122366Y108066D01*
X126365Y111399D02*
X123699D01*
Y109399D01*
X125032Y110066D01*
X125698D01*
X126365Y109399D01*
Y108066D01*
X125698Y107400D01*
X124365D01*
X123699Y108066D01*
X254766Y5032D02*
X254099Y5699D01*
X252766D01*
X252100Y5032D01*
Y2366D01*
X252766Y1700D01*
X254099D01*
X254766Y2366D01*
X256099Y1700D02*
X257432D01*
X256765D01*
Y5699D01*
X256099Y5032D01*
X259431D02*
X260097Y5699D01*
X261430D01*
X262097Y5032D01*
Y4366D01*
X261430Y3699D01*
X262097Y3033D01*
Y2366D01*
X261430Y1700D01*
X260097D01*
X259431Y2366D01*
Y3033D01*
X260097Y3699D01*
X259431Y4366D01*
Y5032D01*
X260097Y3699D02*
X261430D01*
X185766Y89799D02*
X183100D01*
Y85800D01*
X185766D01*
X183100Y87799D02*
X184433D01*
X187099Y85800D02*
Y89799D01*
X189098D01*
X189764Y89132D01*
Y87799D01*
X189098Y87133D01*
X187099D01*
X188432D02*
X189764Y85800D01*
X193763Y89799D02*
X191097D01*
Y85800D01*
X193763D01*
X191097Y87799D02*
X192430D01*
X197762Y89799D02*
X195096D01*
Y87799D01*
X196429D01*
X195096D01*
Y85800D01*
X183000Y62099D02*
X185666D01*
Y61432D01*
X183000Y58766D01*
Y58100D01*
X185666D01*
X186999D02*
Y62099D01*
X188998D01*
X189664Y61432D01*
Y60099D01*
X188998Y59433D01*
X186999D01*
X188332D02*
X189664Y58100D01*
X193663Y62099D02*
X190997D01*
Y58100D01*
X193663D01*
X190997Y60099D02*
X192330D01*
X197662Y62099D02*
X194996D01*
Y60099D01*
X196329D01*
X194996D01*
Y58100D01*
X151401Y72200D02*
X155400Y74866D01*
X151401D02*
X155400Y72200D01*
Y76199D02*
X151401D01*
Y78198D01*
X152068Y78865D01*
X153401D01*
X154067Y78198D01*
Y76199D01*
Y77532D02*
X155400Y78865D01*
X151401Y82863D02*
Y80197D01*
X155400D01*
Y82863D01*
X153401Y80197D02*
Y81530D01*
X151401Y86862D02*
Y84196D01*
X153401D01*
Y85529D01*
Y84196D01*
X155400D01*
X348600Y275299D02*
Y272300D01*
X349200Y271700D01*
X350399D01*
X350999Y272300D01*
Y275299D01*
X352199Y271700D02*
X353398D01*
X352799D01*
Y275299D01*
X352199D01*
X355798Y274699D02*
Y274099D01*
X355198D01*
X356398D01*
X355798D01*
Y272300D01*
X356398Y271700D01*
X358197D02*
X359397D01*
X358797D01*
Y274099D01*
X358197D01*
X361196Y271700D02*
Y275299D01*
X362396Y274099D01*
X363595Y275299D01*
Y271700D01*
X365395Y274099D02*
X366594D01*
X367194Y273499D01*
Y271700D01*
X365395D01*
X364795Y272300D01*
X365395Y272900D01*
X367194D01*
X370793Y274099D02*
X368993D01*
X368394Y273499D01*
Y272300D01*
X368993Y271700D01*
X370793D01*
X371992Y275299D02*
Y271700D01*
Y273499D01*
X372592Y274099D01*
X373792D01*
X374392Y273499D01*
Y271700D01*
X375591D02*
X376791D01*
X376191D01*
Y274099D01*
X375591D01*
X378590Y271700D02*
Y274099D01*
X380390D01*
X380990Y273499D01*
Y271700D01*
X383989D02*
X382789D01*
X382189Y272300D01*
Y273499D01*
X382789Y274099D01*
X383989D01*
X384588Y273499D01*
Y272900D01*
X382189D01*
X260266Y109399D02*
X257600D01*
Y105400D01*
X260266D01*
X257600Y107399D02*
X258933D01*
X261599Y109399D02*
X264264Y105400D01*
Y109399D02*
X261599Y105400D01*
X265597Y109399D02*
X268263D01*
X266930D01*
Y105400D01*
X269596D02*
Y109399D01*
X271596D01*
X272262Y108732D01*
Y107399D01*
X271596Y106733D01*
X269596D01*
X270929D02*
X272262Y105400D01*
X273595Y109399D02*
Y106067D01*
X274261Y105400D01*
X275594D01*
X276261Y106067D01*
Y109399D01*
X277594D02*
Y105400D01*
X279593D01*
X280259Y106067D01*
Y108732D01*
X279593Y109399D01*
X277594D01*
X284258D02*
X281592D01*
Y105400D01*
X284258D01*
X281592Y107399D02*
X282925D01*
X285591Y105400D02*
Y109399D01*
X287590D01*
X288257Y108732D01*
Y107399D01*
X287590Y106733D01*
X285591D01*
X286924D02*
X288257Y105400D01*
X170500Y203300D02*
X171566D01*
X171033D01*
Y206499D01*
X170500Y205966D01*
G54D68*
X40698Y211657D02*
X40037Y212038D01*
Y211276D01*
X40698Y211657D01*
X187979Y177222D02*
X187479Y178088D01*
X186479D01*
X185979Y177222D01*
X186479Y176356D01*
X187479D01*
X187979Y177222D01*
X74968Y76400D02*
X74232D01*
X74968D01*
X48300Y204356D02*
X47640Y204737D01*
Y203975D01*
X48300Y204356D01*
X225389Y101561D02*
X247939D01*
Y131561D01*
X225389D02*
X247939D01*
X225389Y130311D02*
Y131561D01*
X221639Y130311D02*
X225389D01*
X221639Y102761D02*
Y130311D01*
Y102761D02*
X225389D01*
Y101561D02*
Y102761D01*
X191600Y27063D02*
X202800D01*
Y30813D01*
X230350Y27063D02*
X241600D01*
Y4513D02*
Y27063D01*
X191600Y4513D02*
X241600D01*
X191600D02*
Y27063D01*
X237112Y10013D02*
Y21521D01*
X196000Y10013D02*
X237112D01*
X196000D02*
Y21521D01*
X237112D01*
X202727Y27035D02*
X230277D01*
X202800Y30813D02*
X230350D01*
Y27063D02*
Y30813D01*
X140380Y27023D02*
X151579D01*
Y30773D01*
X179130Y27023D02*
X190380D01*
Y4473D02*
Y27023D01*
X140380Y4473D02*
X190380D01*
X140380D02*
Y27023D01*
X185891Y9973D02*
Y21482D01*
X144780Y9973D02*
X185891D01*
X144780D02*
Y21482D01*
X185891D01*
X151506Y26996D02*
X179056D01*
X151579Y30773D02*
X179130D01*
Y27023D02*
Y30773D01*
X140380Y54582D02*
X151579D01*
Y58332D01*
X179130Y54582D02*
X190380D01*
Y32032D02*
Y54582D01*
X140380Y32032D02*
X190380D01*
X140380D02*
Y54582D01*
X185891Y37532D02*
Y49041D01*
X144780Y37532D02*
X185891D01*
X144780D02*
Y49041D01*
X185891D01*
X151506Y54555D02*
X179056D01*
X151579Y58332D02*
X179130D01*
Y54582D02*
Y58332D01*
X89198Y27023D02*
X100398D01*
Y30773D01*
X127948Y27023D02*
X139198D01*
Y4473D02*
Y27023D01*
X89198Y4473D02*
X139198D01*
X89198D02*
Y27023D01*
X134710Y9973D02*
Y21482D01*
X93598Y9973D02*
X134710D01*
X93598D02*
Y21482D01*
X134710D01*
X100325Y26996D02*
X127875D01*
X100398Y30773D02*
X127948D01*
Y27023D02*
Y30773D01*
X38017Y27023D02*
X49217D01*
Y30773D01*
X76767Y27023D02*
X88017D01*
Y4473D02*
Y27023D01*
X38017Y4473D02*
X88017D01*
X38017D02*
Y27023D01*
X83529Y9973D02*
Y21482D01*
X42417Y9973D02*
X83529D01*
X42417D02*
Y21482D01*
X83529D01*
X49144Y26996D02*
X76694D01*
X49217Y30773D02*
X76767D01*
Y27023D02*
Y30773D01*
X275742Y253179D02*
X293500D01*
X275742Y263100D02*
X293500D01*
X280100Y122821D02*
X297858D01*
X280100Y112900D02*
X297858D01*
X187979Y181159D02*
X190879Y178206D01*
Y127000D02*
Y178206D01*
X189879Y126000D02*
X190879Y127000D01*
X136704Y126000D02*
X189879D01*
X135720Y127000D02*
X136704Y126000D01*
X135720Y127000D02*
Y180175D01*
X136704Y181159D01*
X187979D01*
X-12376Y176797D02*
X49684D01*
X-12376Y130269D02*
Y176797D01*
Y130269D02*
X49684D01*
Y176797D01*
X35089Y113542D02*
X37845Y116298D01*
Y116298D02*
X58711D01*
X35089Y109606D02*
Y113542D01*
X37845Y91102D02*
X58711D01*
X35089Y93858D02*
X37845Y91102D01*
X35089Y93858D02*
Y97795D01*
X58711Y91102D02*
Y97795D01*
Y109606D02*
Y116298D01*
X240200Y225300D02*
X262750D01*
X240200Y195300D02*
Y225300D01*
Y195300D02*
X262750D01*
Y196550D01*
X266500D01*
Y224100D01*
X262750D02*
X266500D01*
X262750D02*
Y225300D01*
X124071Y224996D02*
X151620D01*
X157820D02*
Y247546D01*
X117821D02*
X157820D01*
X117821Y224996D02*
Y247546D01*
Y224996D02*
X124071D01*
Y221246D02*
Y224996D01*
Y221246D02*
X151620D01*
Y224996D01*
X157820D01*
X356300Y39050D02*
X406300D01*
Y240550D01*
X356300D02*
X406300D01*
X356300Y39050D02*
Y240550D01*
X124021Y271118D02*
X151570D01*
X117821Y248568D02*
Y271118D01*
Y248568D02*
X157820D01*
Y271118D01*
X151570D02*
X157820D01*
X151570D02*
Y274868D01*
X124021D02*
X151570D01*
X124021Y271118D02*
Y274868D01*
X117821Y271118D02*
X124021D01*
X82682D02*
X110232D01*
X76482Y248568D02*
Y271118D01*
Y248568D02*
X116482D01*
Y271118D01*
X110232D02*
X116482D01*
X110232D02*
Y274868D01*
X82682D02*
X110232D01*
X82682Y271118D02*
Y274868D01*
X76482Y271118D02*
X82682D01*
X41393Y224996D02*
X68943D01*
X75143D02*
Y247546D01*
X35143D02*
X75143D01*
X35143Y224996D02*
Y247546D01*
Y224996D02*
X41393D01*
Y221246D02*
Y224996D01*
Y221246D02*
X68943D01*
Y224996D01*
X75143D01*
X41343Y271118D02*
X68893D01*
X35143Y248568D02*
Y271118D01*
Y248568D02*
X75143D01*
Y271118D01*
X68893D02*
X75143D01*
X68893D02*
Y274868D01*
X41343D02*
X68893D01*
X41343Y271118D02*
Y274868D01*
X35143Y271118D02*
X41343D01*
X225389Y163765D02*
X247939D01*
Y193765D01*
X225389D02*
X247939D01*
X225389Y192515D02*
Y193765D01*
X221639Y192515D02*
X225389D01*
X221639Y164965D02*
Y192515D01*
Y164965D02*
X225389D01*
Y163765D02*
Y164965D01*
Y132663D02*
X247939D01*
Y162663D01*
X225389D02*
X247939D01*
X225389Y161413D02*
Y162663D01*
X221639Y161413D02*
X225389D01*
X221639Y133863D02*
Y161413D01*
Y133863D02*
X225389D01*
Y132663D02*
Y133863D01*
X272250Y159950D02*
Y187500D01*
X249700Y193700D02*
X272250D01*
X249700Y153700D02*
Y193700D01*
Y153700D02*
X272250D01*
Y159950D01*
X276000D01*
Y187500D01*
X272250D02*
X276000D01*
X272250D02*
Y193700D01*
X272150Y118550D02*
Y146100D01*
X249600Y152300D02*
X272150D01*
X249600Y112300D02*
Y152300D01*
Y112300D02*
X272150D01*
Y118550D01*
X275900D01*
Y146100D01*
X272150D02*
X275900D01*
X272150D02*
Y152300D01*
X82732Y224996D02*
X110282D01*
X116482D02*
Y247546D01*
X76482D02*
X116482D01*
X76482Y224996D02*
Y247546D01*
Y224996D02*
X82732D01*
Y221246D02*
Y224996D01*
Y221246D02*
X110282D01*
Y224996D01*
X116482D01*
X297000Y221800D02*
X298300Y223200D01*
X274672Y31289D02*
X292430D01*
X274672Y21368D02*
X292430D01*
X274581Y19304D02*
X292339D01*
X274581Y9383D02*
X292339D01*
X353621Y185942D02*
Y203700D01*
X343700Y185942D02*
Y203700D01*
X128453Y110343D02*
X131209Y113098D01*
Y113098D02*
X152075D01*
X128453Y106405D02*
Y110343D01*
X131209Y87902D02*
X152075D01*
X128453Y90658D02*
X131209Y87902D01*
X128453Y90658D02*
Y94595D01*
X152075Y87902D02*
Y94595D01*
Y106405D02*
Y113098D01*
X80289Y113042D02*
X83045Y115798D01*
Y115798D02*
X103911D01*
X80289Y109106D02*
Y113042D01*
X83045Y90602D02*
X103911D01*
X80289Y93357D02*
X83045Y90602D01*
X80289Y93357D02*
Y97294D01*
X103911Y90602D02*
Y97294D01*
Y109106D02*
Y115798D01*
X267742Y35811D02*
X270498Y33055D01*
X270498Y12189D02*
Y33055D01*
X263806Y35811D02*
X267742D01*
X245302Y12189D02*
Y33055D01*
X245302D02*
X248058Y35811D01*
X251994D01*
X245302Y12189D02*
X251994D01*
X263806D02*
X270498D01*
X261842Y73011D02*
X264598Y70255D01*
X264598Y49389D02*
Y70255D01*
X257906Y73011D02*
X261842D01*
X239402Y49389D02*
Y70255D01*
X239402D02*
X242158Y73011D01*
X246094D01*
X239402Y49389D02*
X246094D01*
X257906D02*
X264598D01*
X320942Y112011D02*
X323698Y109255D01*
X323698Y88389D02*
Y109255D01*
X317005Y112011D02*
X320942D01*
X298502Y88389D02*
Y109255D01*
X298502D02*
X301257Y112011D01*
X305194D01*
X298502Y88389D02*
X305194D01*
X317005D02*
X323698D01*
X360749Y250048D02*
X358749D01*
X359749D01*
Y245050D01*
X358749Y244050D01*
X357750D01*
X356750Y245050D01*
X362748Y244050D02*
X364747D01*
X363748D01*
Y250048D01*
X362748Y249048D01*
X69349Y192849D02*
Y187851D01*
X70349Y186851D01*
X72348D01*
X73348Y187851D01*
Y192849D01*
X75347Y186851D02*
X77346D01*
X76346D01*
Y192849D01*
X75347Y191850D01*
X310217Y255418D02*
Y250420D01*
X311217Y249420D01*
X313216D01*
X314216Y250420D01*
Y255418D01*
X316215Y254419D02*
X317215Y255418D01*
X319214D01*
X320214Y254419D01*
Y253419D01*
X319214Y252419D01*
X318215D01*
X319214D01*
X320214Y251420D01*
Y250420D01*
X319214Y249420D01*
X317215D01*
X316215Y250420D01*
X403300Y32800D02*
Y34799D01*
Y33800D01*
X397302D01*
X398302Y32800D01*
X141665Y352497D02*
X135000D01*
Y342500D01*
X141665D01*
X135000Y347498D02*
X138332D01*
X144997Y352497D02*
X148329D01*
X146663D01*
Y342500D01*
X144997D01*
X148329D01*
X153327D02*
Y352497D01*
X159992Y342500D01*
Y352497D01*
X163324D02*
Y350831D01*
X166656Y347498D01*
X169989Y350831D01*
Y352497D01*
X166656Y347498D02*
Y342500D01*
X183318Y350831D02*
X184984Y352497D01*
X188316D01*
X189982Y350831D01*
Y344166D01*
X188316Y342500D01*
X184984D01*
X183318Y344166D01*
Y350831D01*
X193315Y342500D02*
Y344166D01*
X194981D01*
Y342500D01*
X193315D01*
X208310D02*
X201645D01*
X208310Y349165D01*
Y350831D01*
X206644Y352497D01*
X203311D01*
X201645Y350831D01*
X213308Y349165D02*
X216640D01*
X218306Y347498D01*
Y342500D01*
X213308D01*
X211642Y344166D01*
X213308Y345832D01*
X218306D01*
X132500Y367497D02*
X139164D01*
X135832D01*
Y357500D01*
X147495Y367497D02*
X144163D01*
X142497Y365831D01*
Y359166D01*
X144163Y357500D01*
X147495D01*
X149161Y359166D01*
Y365831D01*
X147495Y367497D01*
X152494Y357500D02*
Y367497D01*
X157492D01*
X159158Y365831D01*
Y362498D01*
X157492Y360832D01*
X152494D01*
X177486Y367497D02*
X174153D01*
X172487Y365831D01*
Y359166D01*
X174153Y357500D01*
X177486D01*
X179152Y359166D01*
Y365831D01*
X177486Y367497D01*
X182484D02*
Y360832D01*
X185816Y357500D01*
X189148Y360832D01*
Y367497D01*
X199145D02*
X192481D01*
Y357500D01*
X199145D01*
X192481Y362498D02*
X195813D01*
X202477Y357500D02*
Y367497D01*
X207476D01*
X209142Y365831D01*
Y362498D01*
X207476Y360832D01*
X202477D01*
X205810D02*
X209142Y357500D01*
X212474Y367497D02*
Y357500D01*
X219139D01*
X222471D02*
Y364164D01*
X225803Y367497D01*
X229135Y364164D01*
Y357500D01*
Y362498D01*
X222471D01*
X232468Y367497D02*
Y365831D01*
X235800Y362498D01*
X239132Y365831D01*
Y367497D01*
X235800Y362498D02*
Y357500D01*
G54D111*
X41517Y193525D02*
D03*
G54D133*
X211900Y156500D02*
D03*
X214500Y187500D02*
D03*
X224494Y178100D02*
D03*
X221894Y147100D02*
D03*
X220747Y125600D02*
D03*
X210700Y135000D02*
D03*
X273797Y194603D02*
D03*
X278500Y128600D02*
D03*
X288494Y128400D02*
D03*
X273797Y204203D02*
D03*
X19530Y86254D02*
D03*
X206430Y47854D02*
D03*
X216964Y42146D02*
D03*
X206230Y81954D02*
D03*
X216264Y76246D02*
D03*
X110230Y47954D02*
D03*
X120464Y42246D02*
D03*
X119964Y76346D02*
D03*
X109830Y82054D02*
D03*
X65030Y48054D02*
D03*
X75264Y42346D02*
D03*
X64830Y82054D02*
D03*
X74964Y76346D02*
D03*
X20530Y51654D02*
D03*
X30764Y45946D02*
D03*
X29764Y80546D02*
D03*
G54D134*
X199803Y74013D02*
X199065Y74440D01*
Y73587D01*
X199803Y74013D01*
X103403D02*
X102665Y74440D01*
Y73587D01*
X103403Y74013D01*
X58403D02*
X57665Y74440D01*
Y73587D01*
X58403Y74013D01*
X13665Y77613D02*
X12927Y78040D01*
Y77187D01*
X13665Y77613D01*
X329041Y232564D02*
X328303Y232991D01*
Y232138D01*
X329041Y232564D01*
X70151Y159608D02*
X69364D01*
X70151D01*
G54D135*
X97613Y139304D02*
X97261Y140153D01*
X96413Y140504D01*
X95564Y140153D01*
X95213Y139304D01*
X95564Y138455D01*
X96413Y138104D01*
X97261Y138455D01*
X97613Y139304D01*
X291100Y105700D02*
X290480Y106451D01*
X289794Y107141D01*
X289047Y107765D01*
X288245Y108316D01*
X287396Y108791D01*
X286506Y109186D01*
X285583Y109496D01*
X284636Y109720D01*
X283672Y109855D01*
X282700Y109900D01*
X281728Y109855D01*
X280764Y109720D01*
X279817Y109496D01*
X278894Y109186D01*
X278004Y108791D01*
X277155Y108316D01*
X276353Y107765D01*
X275606Y107141D01*
X274920Y106451D01*
X274300Y105700D01*
X271100D02*
X270480Y106451D01*
X269794Y107141D01*
X269047Y107765D01*
X268245Y108316D01*
X267396Y108791D01*
X266506Y109186D01*
X265583Y109496D01*
X264636Y109720D01*
X263672Y109855D01*
X262700Y109900D01*
X261728Y109855D01*
X260764Y109720D01*
X259817Y109496D01*
X258894Y109186D01*
X258004Y108791D01*
X257155Y108316D01*
X256353Y107765D01*
X255606Y107141D01*
X254920Y106451D01*
X254300Y105700D01*
X196500Y11413D02*
X236679D01*
X145280Y11373D02*
X185458D01*
X145280Y38932D02*
X185458D01*
X94098Y11373D02*
X134277D01*
X42917D02*
X83096D01*
X159197Y243087D02*
X238803D01*
Y278913D01*
X159197D02*
X238803D01*
X159197Y243087D02*
Y278913D01*
X190142Y243087D02*
Y248402D01*
X207858Y243087D02*
Y248402D01*
X250200Y110900D02*
X295200D01*
Y77900D02*
Y79900D01*
Y110900D01*
X292700Y84900D02*
Y105900D01*
Y83900D02*
Y84900D01*
X271200Y105900D02*
X274200D01*
X291000D02*
X292700D01*
X284700Y84900D02*
X292700D01*
X280700D02*
X284700D01*
X264700D02*
X280700D01*
X260700D02*
X264700D01*
X284700Y77900D02*
X295200D01*
X280700D02*
X284700D01*
X264700D02*
X280700D01*
X260700D02*
X264700D01*
X285700Y79900D02*
X295200D01*
X265700D02*
X279700D01*
X265700Y83900D02*
X279700D01*
X285700D02*
X292700D01*
X280700Y77900D02*
Y84900D01*
X284700Y77900D02*
Y84900D01*
X285700Y79900D02*
Y83900D01*
X279700Y79900D02*
Y83900D01*
Y79900D02*
X280700Y77900D01*
X284700D02*
X285700Y79900D01*
X284700Y84900D02*
X285700Y83900D01*
X279700D02*
X280700Y84900D01*
X252700Y105900D02*
X254200D01*
X264700Y77900D02*
Y84900D01*
X260700Y77900D02*
Y84900D01*
X259700Y79900D02*
Y83900D01*
Y79900D02*
X260700Y77900D01*
X259700Y83900D02*
X260700Y84900D01*
X264700Y77900D02*
X265700Y79900D01*
Y83900D01*
X264700Y84900D02*
X265700Y83900D01*
X252700D02*
Y84900D01*
X259700Y83900D02*
X260700Y84900D01*
X259700Y79900D02*
X260700Y77900D01*
X252700Y83900D02*
X259700D01*
X250200Y79900D02*
X259700D01*
X252700Y84900D02*
X260700D01*
X252700Y105900D02*
X254400D01*
X252700Y84900D02*
Y105900D01*
X250200Y79900D02*
Y110900D01*
Y77900D02*
Y79900D01*
Y77900D02*
X260700D01*
X76053Y193356D02*
X81053D01*
X83553Y195856D02*
Y210856D01*
X81053Y213356D02*
X83553Y210856D01*
X76053Y213356D02*
X81053D01*
X73553Y210856D02*
X76053Y213356D01*
X81053Y193356D02*
X83553Y195856D01*
X73553D02*
X76053Y193356D01*
X56053D02*
X61053D01*
X66053D02*
X71053D01*
X73553Y195856D02*
Y210856D01*
X63553Y195856D02*
Y210856D01*
X71053Y213356D02*
X73553Y210856D01*
X66053Y213356D02*
X71053D01*
X63553Y210856D02*
X66053Y213356D01*
X61053D02*
X63553Y210856D01*
X56053Y213356D02*
X61053D01*
X53553Y210856D02*
X56053Y213356D01*
X53553Y195856D02*
Y210856D01*
X71053Y193356D02*
X73553Y195856D01*
X63553D02*
X66053Y193356D01*
X61053D02*
X63553Y195856D01*
X53553D02*
X56053Y193356D01*
X133313D02*
X138313D01*
X140813Y195856D02*
Y210856D01*
X138313Y213356D02*
X140813Y210856D01*
X133313Y213356D02*
X138313D01*
X130813Y210856D02*
X133313Y213356D01*
X138313Y193356D02*
X140813Y195856D01*
X130813D02*
X133313Y193356D01*
X113313D02*
X118313D01*
X123313D02*
X128313D01*
X130813Y195856D02*
Y210856D01*
X120813Y195856D02*
Y210856D01*
X128313Y213356D02*
X130813Y210856D01*
X123313Y213356D02*
X128313D01*
X120813Y210856D02*
X123313Y213356D01*
X118313D02*
X120813Y210856D01*
X113313Y213356D02*
X118313D01*
X110813Y210856D02*
X113313Y213356D01*
X110813Y195856D02*
Y210856D01*
X128313Y193356D02*
X130813Y195856D01*
X120813D02*
X123313Y193356D01*
X118313D02*
X120813Y195856D01*
X110813D02*
X113313Y193356D01*
X13773Y206998D02*
X15773D01*
X2773D02*
X7773D01*
X2773Y233998D02*
X7773D01*
X13773D02*
X15773D01*
Y206998D02*
Y209998D01*
X16773D01*
Y213498D01*
X15773D02*
X16773D01*
X15773D02*
Y217498D01*
X14773D02*
X15773D01*
X14773D02*
Y223498D01*
X15773D01*
Y227998D01*
X16773D01*
Y230998D01*
X15773D02*
X16773D01*
X15773D02*
Y233998D01*
X2773Y206998D02*
Y217998D01*
X6773D01*
Y222998D01*
X2773Y217998D02*
Y222998D01*
X6773D01*
X773Y210498D02*
Y215498D01*
Y225498D01*
X1773Y210498D02*
Y234998D01*
X773Y210498D02*
X1773D01*
X773Y225498D02*
Y230498D01*
X1773D01*
X2773Y222998D02*
Y233998D01*
X1773Y234998D02*
X15773D01*
X1773Y205998D02*
Y210498D01*
Y205998D02*
X15773D01*
X35261Y183525D02*
Y191462D01*
X40817Y183525D02*
Y191462D01*
X159197Y205587D02*
X238803D01*
Y241413D01*
X159197D02*
X238803D01*
X159197Y205587D02*
Y241413D01*
X190142Y205587D02*
Y210902D01*
X207858Y205587D02*
Y210902D01*
X298399Y85499D02*
X297900Y85999D01*
X296900D01*
X296400Y85499D01*
Y83500D01*
X296900Y83000D01*
X297900D01*
X298399Y83500D01*
X301398Y83000D02*
X299399D01*
X301398Y84999D01*
Y85499D01*
X300899Y85999D01*
X299899D01*
X299399Y85499D01*
X302398Y85999D02*
X304397D01*
Y85499D01*
X302398Y83500D01*
Y83000D01*
X267801Y214433D02*
Y212300D01*
X269401D01*
X268867Y213366D01*
Y213899D01*
X269401Y214433D01*
X270467D01*
X271000Y213899D01*
Y212833D01*
X270467Y212300D01*
X267801Y215499D02*
X269934D01*
X271000Y216565D01*
X269934Y217632D01*
X267801D01*
X65380Y218185D02*
X66446D01*
X65913D01*
Y214986D01*
X65380D01*
X66446D01*
X70178Y217652D02*
X69645Y218185D01*
X68578D01*
X68045Y217652D01*
Y215519D01*
X68578Y214986D01*
X69645D01*
X70178Y215519D01*
X73377Y217652D02*
X72844Y218185D01*
X71777D01*
X71244Y217652D01*
Y217119D01*
X71777Y216585D01*
X72844D01*
X73377Y216052D01*
Y215519D01*
X72844Y214986D01*
X71777D01*
X71244Y215519D01*
X74443Y214986D02*
Y218185D01*
X76043D01*
X76576Y217652D01*
Y216585D01*
X76043Y216052D01*
X74443D01*
X77642Y216585D02*
X79775D01*
X80841Y214986D02*
X81907D01*
X81374D01*
Y218185D01*
X80841Y217652D01*
X124435Y192397D02*
X125501D01*
X124968D01*
Y189198D01*
X124435D01*
X125501D01*
X129233Y191864D02*
X128700Y192397D01*
X127634D01*
X127101Y191864D01*
Y189732D01*
X127634Y189198D01*
X128700D01*
X129233Y189732D01*
X132432Y191864D02*
X131899Y192397D01*
X130833D01*
X130299Y191864D01*
Y191331D01*
X130833Y190798D01*
X131899D01*
X132432Y190265D01*
Y189732D01*
X131899Y189198D01*
X130833D01*
X130299Y189732D01*
X133498Y189198D02*
Y192397D01*
X135098D01*
X135631Y191864D01*
Y190798D01*
X135098Y190265D01*
X133498D01*
X130340Y225271D02*
X132473D01*
Y224738D01*
X130340Y222606D01*
Y222072D01*
X132473D01*
X133539Y223672D02*
X135672D01*
X136738Y222072D02*
Y225271D01*
X137804Y224205D01*
X138871Y225271D01*
Y222072D01*
X139937D02*
Y224205D01*
X141003Y225271D01*
X142070Y224205D01*
Y222072D01*
Y223672D01*
X139937D01*
X143136Y225271D02*
X145269Y222072D01*
Y225271D02*
X143136Y222072D01*
X89002Y225271D02*
Y224738D01*
X90068Y223672D01*
X91134Y224738D01*
Y225271D01*
X90068Y223672D02*
Y222072D01*
X92200Y223672D02*
X94333D01*
X95399Y222072D02*
Y225271D01*
X96466Y224205D01*
X97532Y225271D01*
Y222072D01*
X98598D02*
Y224205D01*
X99665Y225271D01*
X100731Y224205D01*
Y222072D01*
Y223672D01*
X98598D01*
X101797Y225271D02*
X103930Y222072D01*
Y225271D02*
X101797Y222072D01*
X48057Y225271D02*
X50189Y222072D01*
Y225271D02*
X48057Y222072D01*
X51256Y223672D02*
X53388D01*
X54455Y222072D02*
Y225271D01*
X55521Y224205D01*
X56587Y225271D01*
Y222072D01*
X57654D02*
Y224205D01*
X58720Y225271D01*
X59786Y224205D01*
Y222072D01*
Y223672D01*
X57654D01*
X60853Y225271D02*
X62985Y222072D01*
Y225271D02*
X60853Y222072D01*
X124100Y279099D02*
X126233D01*
Y278566D01*
X124100Y276433D01*
Y275900D01*
X126233D01*
X127299Y277500D02*
X129432D01*
X130498Y275900D02*
Y279099D01*
X131564Y278033D01*
X132631Y279099D01*
Y275900D01*
X133697Y279099D02*
X134763D01*
X134230D01*
Y275900D01*
X133697D01*
X134763D01*
X136363D02*
Y279099D01*
X138495Y275900D01*
Y279099D01*
X89600D02*
Y278566D01*
X90666Y277500D01*
X91733Y278566D01*
Y279099D01*
X90666Y277500D02*
Y275900D01*
X92799Y277500D02*
X94932D01*
X95998Y275900D02*
Y279099D01*
X97064Y278033D01*
X98131Y279099D01*
Y275900D01*
X99197Y279099D02*
X100263D01*
X99730D01*
Y275900D01*
X99197D01*
X100263D01*
X101863D02*
Y279099D01*
X103995Y275900D01*
Y279099D01*
X47400Y278999D02*
X49533Y275800D01*
Y278999D02*
X47400Y275800D01*
X50599Y277399D02*
X52732D01*
X53798Y275800D02*
Y278999D01*
X54864Y277933D01*
X55931Y278999D01*
Y275800D01*
X56997Y278999D02*
X58063D01*
X57530D01*
Y275800D01*
X56997D01*
X58063D01*
X59663D02*
Y278999D01*
X61795Y275800D01*
Y278999D01*
X100100Y159100D02*
Y162299D01*
X101699D01*
X102233Y161766D01*
Y160699D01*
X101699Y160166D01*
X100100D01*
X101166D02*
X102233Y159100D01*
X103299Y162299D02*
X105432Y159100D01*
Y162299D02*
X103299Y159100D01*
X99900Y170699D02*
X102033D01*
X100966D01*
Y167500D01*
X103099Y170699D02*
X105232Y167500D01*
Y170699D02*
X103099Y167500D01*
X6000Y244998D02*
Y240000D01*
X7000Y239000D01*
X8999D01*
X9999Y240000D01*
Y244998D01*
X55100Y3399D02*
X57233Y200D01*
Y3399D02*
X55100Y200D01*
X61498D02*
Y3399D01*
X62564Y2333D01*
X63631Y3399D01*
Y200D01*
X66296Y3399D02*
X65230D01*
X64697Y2866D01*
Y733D01*
X65230Y200D01*
X66296D01*
X66830Y733D01*
Y2866D01*
X66296Y3399D01*
X67896D02*
X70029D01*
X68962D01*
Y200D01*
X29500Y130300D02*
X31100D01*
X31633Y130833D01*
X31100Y131366D01*
X30033D01*
X29500Y131899D01*
X30033Y132433D01*
X31633D01*
X151600Y30783D02*
X153733D01*
Y30250D01*
X151600Y28117D01*
Y27584D01*
X153733D01*
X157998D02*
Y30783D01*
X159064Y29717D01*
X160131Y30783D01*
Y27584D01*
X162796Y30783D02*
X161730D01*
X161197Y30250D01*
Y28117D01*
X161730Y27584D01*
X162796D01*
X163330Y28117D01*
Y30250D01*
X162796Y30783D01*
X164396D02*
X166528D01*
X165462D01*
Y27584D01*
X169194Y30783D02*
X168128D01*
X167595Y30250D01*
Y28117D01*
X168128Y27584D01*
X169194D01*
X169728Y28117D01*
Y30250D01*
X169194Y30783D01*
X170794Y27584D02*
Y30783D01*
X172393D01*
X172926Y30250D01*
Y29184D01*
X172393Y28651D01*
X170794D01*
X171860D02*
X172926Y27584D01*
X179324D02*
X177192D01*
X179324Y29717D01*
Y30250D01*
X178791Y30783D01*
X177725D01*
X177192Y30250D01*
X152000Y3599D02*
X154133D01*
Y3066D01*
X152000Y933D01*
Y400D01*
X154133D01*
X158398D02*
Y3599D01*
X159464Y2533D01*
X160531Y3599D01*
Y400D01*
X163196Y3599D02*
X162130D01*
X161597Y3066D01*
Y933D01*
X162130Y400D01*
X163196D01*
X163730Y933D01*
Y3066D01*
X163196Y3599D01*
X164796D02*
X166929D01*
X165862D01*
Y400D01*
X169594Y3599D02*
X168528D01*
X167995Y3066D01*
Y933D01*
X168528Y400D01*
X169594D01*
X170127Y933D01*
Y3066D01*
X169594Y3599D01*
X171194Y400D02*
Y3599D01*
X172793D01*
X173327Y3066D01*
Y2000D01*
X172793Y1466D01*
X171194D01*
X172260D02*
X173327Y400D01*
X177592D02*
X178658D01*
X178125D01*
Y3599D01*
X177592Y3066D01*
X23500Y130799D02*
X25633D01*
X102500Y3599D02*
Y3066D01*
X103566Y2000D01*
X104633Y3066D01*
Y3599D01*
X103566Y2000D02*
Y400D01*
X108898D02*
Y3599D01*
X109964Y2533D01*
X111031Y3599D01*
Y400D01*
X113696Y3599D02*
X112630D01*
X112097Y3066D01*
Y933D01*
X112630Y400D01*
X113696D01*
X114230Y933D01*
Y3066D01*
X113696Y3599D01*
X115296D02*
X117429D01*
X116362D01*
Y400D01*
X120094Y3599D02*
X119028D01*
X118495Y3066D01*
Y933D01*
X119028Y400D01*
X120094D01*
X120627Y933D01*
Y3066D01*
X120094Y3599D01*
X121694Y400D02*
Y3599D01*
X123293D01*
X123827Y3066D01*
Y2000D01*
X123293Y1466D01*
X121694D01*
X122760D02*
X123827Y400D01*
X295600Y208299D02*
Y205100D01*
Y206699D01*
X297733D01*
Y208299D01*
Y205100D01*
X299332Y207233D02*
X300398D01*
X300932Y206699D01*
Y205100D01*
X299332D01*
X298799Y205633D01*
X299332Y206166D01*
X300932D01*
X301998Y207233D02*
Y205100D01*
Y206166D01*
X302531Y206699D01*
X303064Y207233D01*
X303597D01*
X307330Y208299D02*
Y205100D01*
X305730D01*
X305197Y205633D01*
Y206699D01*
X305730Y207233D01*
X307330D01*
X308396D02*
Y205633D01*
X308929Y205100D01*
X309462Y205633D01*
X309995Y205100D01*
X310528Y205633D01*
Y207233D01*
X312128D02*
X313194D01*
X313727Y206699D01*
Y205100D01*
X312128D01*
X311595Y205633D01*
X312128Y206166D01*
X313727D01*
X314794Y207233D02*
Y205100D01*
Y206166D01*
X315327Y206699D01*
X315860Y207233D01*
X316393D01*
X319592Y205100D02*
X318526D01*
X317993Y205633D01*
Y206699D01*
X318526Y207233D01*
X319592D01*
X320125Y206699D01*
Y206166D01*
X317993D01*
X293000Y213699D02*
X291933D01*
X291400Y213166D01*
Y211033D01*
X291933Y210500D01*
X293000D01*
X293533Y211033D01*
Y213166D01*
X293000Y213699D01*
X294599Y209434D02*
Y212633D01*
X296199D01*
X296732Y212100D01*
Y211033D01*
X296199Y210500D01*
X294599D01*
X299397D02*
X298331D01*
X297798Y211033D01*
Y212100D01*
X298331Y212633D01*
X299397D01*
X299931Y212100D01*
Y211566D01*
X297798D01*
X300997Y210500D02*
Y212633D01*
X302596D01*
X303130Y212100D01*
Y210500D01*
X309527Y213166D02*
X308994Y213699D01*
X307928D01*
X307395Y213166D01*
Y212633D01*
X307928Y212100D01*
X308994D01*
X309527Y211566D01*
Y211033D01*
X308994Y210500D01*
X307928D01*
X307395Y211033D01*
X311127Y210500D02*
X312193D01*
X312726Y211033D01*
Y212100D01*
X312193Y212633D01*
X311127D01*
X310594Y212100D01*
Y211033D01*
X311127Y210500D01*
X313793Y212633D02*
Y211033D01*
X314326Y210500D01*
X315925D01*
Y212633D01*
X316992D02*
Y210500D01*
Y211566D01*
X317525Y212100D01*
X318058Y212633D01*
X318591D01*
X322323D02*
X320724D01*
X320191Y212100D01*
Y211033D01*
X320724Y210500D01*
X322323D01*
X324989D02*
X323923D01*
X323390Y211033D01*
Y212100D01*
X323923Y212633D01*
X324989D01*
X325522Y212100D01*
Y211566D01*
X323390D01*
X206833Y3399D02*
X204700D01*
Y200D01*
X206833D01*
X204700Y1799D02*
X205766D01*
X211098Y200D02*
Y3399D01*
X212164Y2333D01*
X213231Y3399D01*
Y200D01*
X215896Y3399D02*
X214830D01*
X214297Y2866D01*
Y733D01*
X214830Y200D01*
X215896D01*
X216430Y733D01*
Y2866D01*
X215896Y3399D01*
X217496D02*
X219629D01*
X218562D01*
Y200D01*
X222294Y3399D02*
X221228D01*
X220695Y2866D01*
Y733D01*
X221228Y200D01*
X222294D01*
X222828Y733D01*
Y2866D01*
X222294Y3399D01*
X223894Y200D02*
Y3399D01*
X225493D01*
X226027Y2866D01*
Y1799D01*
X225493Y1266D01*
X223894D01*
X224960D02*
X226027Y200D01*
G54D136*
X12300Y242200D02*
X12178Y243205D01*
X11819Y244152D01*
X11244Y244985D01*
X10486Y245656D01*
X9589Y246127D01*
X8606Y246369D01*
X7594D01*
X6611Y246127D01*
X5714Y245656D01*
X4956Y244985D01*
X4381Y244152D01*
X4022Y243205D01*
X3900Y242200D01*
X4022Y241195D01*
X4381Y240248D01*
X4956Y239415D01*
X5714Y238743D01*
X6611Y238273D01*
X7594Y238031D01*
X8606D01*
X9589Y238273D01*
X10486Y238743D01*
X11244Y239415D01*
X11819Y240248D01*
X12178Y241195D01*
X12300Y242200D01*
X212468Y156265D02*
X220932D01*
X212468Y151935D02*
X220932D01*
X215068Y182935D02*
X223532D01*
X215068Y187265D02*
X223532D01*
X215068Y178335D02*
X223532D01*
X215068Y182665D02*
X223532D01*
X212468Y151665D02*
X220932D01*
X212468Y147335D02*
X220932D01*
X211321Y125835D02*
X219786D01*
X211321Y130165D02*
X219786D01*
X211268Y130435D02*
X219732D01*
X211268Y134765D02*
X219732D01*
X273835Y195368D02*
Y203832D01*
X278165Y195368D02*
Y203832D01*
X279068Y124035D02*
X287532D01*
X279068Y128365D02*
X287532D01*
X279068Y128635D02*
X287532D01*
X279068Y132965D02*
X287532D01*
X278165Y204968D02*
Y213432D01*
X273835Y204968D02*
Y213432D01*
X58856Y170580D02*
Y180619D01*
X53344Y170580D02*
X58856D01*
X53344D02*
Y180619D01*
X58856D01*
X53344Y160081D02*
X58856D01*
Y170120D01*
X53344D02*
X58856D01*
X53344Y160081D02*
Y170120D01*
X326050Y1600D02*
Y79600D01*
Y1600D02*
X353550D01*
Y79600D01*
X326050D02*
X353550D01*
X62101Y149100D02*
X74700D01*
X62101Y139179D02*
Y149100D01*
Y139179D02*
X74700D01*
Y149100D01*
X69600Y182600D02*
X70781D01*
X88419D02*
X89600D01*
Y181419D02*
Y182600D01*
Y162600D02*
Y163781D01*
X69600Y162600D02*
X70781D01*
X88419D02*
X89600D01*
X69600Y181419D02*
Y182600D01*
Y162600D02*
Y163781D01*
X111714Y152300D02*
Y164899D01*
Y152300D02*
X121636D01*
Y164899D01*
X111714D02*
X121636D01*
X297045Y79639D02*
X324545D01*
Y1639D02*
Y79639D01*
X297045Y1639D02*
X324545D01*
X297045D02*
Y79639D01*
X354050Y102900D02*
Y180900D01*
X326550D02*
X354050D01*
X326550Y102900D02*
Y180900D01*
Y102900D02*
X354050D01*
X52466Y151399D02*
X50800D01*
Y150150D01*
X51633D01*
X50800D01*
Y148900D01*
X53299Y151399D02*
Y148900D01*
X54549D01*
X54965Y149317D01*
Y149733D01*
X54549Y150150D01*
X53299D01*
X54549D01*
X54965Y150566D01*
Y150983D01*
X54549Y151399D01*
X53299D01*
X57464D02*
X55798D01*
Y150150D01*
X56631Y150566D01*
X57048D01*
X57464Y150150D01*
Y149317D01*
X57048Y148900D01*
X56215D01*
X55798Y149317D01*
X68517Y152466D02*
X68101Y152050D01*
Y151216D01*
X68517Y150800D01*
X70183D01*
X70600Y151216D01*
Y152050D01*
X70183Y152466D01*
X68101Y153299D02*
Y154965D01*
X68517D01*
X70183Y153299D01*
X70600D01*
Y157048D02*
X68101D01*
X69350Y155798D01*
Y157465D01*
X122200Y135399D02*
X123866D01*
X123033D01*
Y132900D01*
X124699D02*
Y135399D01*
X125949D01*
X126365Y134983D01*
Y134150D01*
X125949Y133733D01*
X124699D01*
X127198Y132900D02*
X128031D01*
X127615D01*
Y135399D01*
X127198Y134983D01*
X129281Y132900D02*
X130114D01*
X129698D01*
Y135399D01*
X129281Y134983D01*
X91700Y222200D02*
Y224699D01*
X92950D01*
X93366Y224283D01*
Y223450D01*
X92950Y223033D01*
X91700D01*
X92533D02*
X93366Y222200D01*
X94199Y224699D02*
X95865D01*
Y224283D01*
X94199Y222617D01*
Y222200D01*
X98365Y224699D02*
X97531Y224283D01*
X96698Y223450D01*
Y222617D01*
X97115Y222200D01*
X97948D01*
X98365Y222617D01*
Y223033D01*
X97948Y223450D01*
X96698D01*
X83900Y226300D02*
Y228799D01*
X85150D01*
X85566Y228383D01*
Y227550D01*
X85150Y227133D01*
X83900D01*
X84733D02*
X85566Y226300D01*
X86399Y228799D02*
X88065D01*
Y228383D01*
X86399Y226716D01*
Y226300D01*
X90565Y228799D02*
X88898D01*
Y227550D01*
X89731Y227966D01*
X90148D01*
X90565Y227550D01*
Y226716D01*
X90148Y226300D01*
X89315D01*
X88898Y226716D01*
X68300Y224800D02*
Y227299D01*
X69550D01*
X69966Y226883D01*
Y226050D01*
X69550Y225633D01*
X68300D01*
X69133D02*
X69966Y224800D01*
X70799Y227299D02*
X72465D01*
Y226883D01*
X70799Y225217D01*
Y224800D01*
X74548D02*
Y227299D01*
X73298Y226050D01*
X74964D01*
X212100Y207600D02*
Y210099D01*
X213350D01*
X213766Y209683D01*
Y208850D01*
X213350Y208433D01*
X212100D01*
X212933D02*
X213766Y207600D01*
X216265Y210099D02*
X215432Y209683D01*
X214599Y208850D01*
Y208016D01*
X215016Y207600D01*
X215849D01*
X216265Y208016D01*
Y208433D01*
X215849Y208850D01*
X214599D01*
X217098Y210099D02*
X218764D01*
Y209683D01*
X217098Y208016D01*
Y207600D01*
X122900Y222000D02*
Y224499D01*
X124150D01*
X124566Y224083D01*
Y223250D01*
X124150Y222833D01*
X122900D01*
X123733D02*
X124566Y222000D01*
X127065Y224499D02*
X126232Y224083D01*
X125399Y223250D01*
Y222416D01*
X125816Y222000D01*
X126649D01*
X127065Y222416D01*
Y222833D01*
X126649Y223250D01*
X125399D01*
X127898Y224083D02*
X128315Y224499D01*
X129148D01*
X129564Y224083D01*
Y222416D01*
X129148Y222000D01*
X128315D01*
X127898Y222416D01*
Y224083D01*
X115100Y222000D02*
Y224499D01*
X116350D01*
X116766Y224083D01*
Y223250D01*
X116350Y222833D01*
X115100D01*
X115933D02*
X116766Y222000D01*
X119265Y224499D02*
X117599D01*
Y223250D01*
X118432Y223666D01*
X118849D01*
X119265Y223250D01*
Y222416D01*
X118849Y222000D01*
X118016D01*
X117599Y222416D01*
X120098D02*
X120515Y222000D01*
X121348D01*
X121765Y222416D01*
Y224083D01*
X121348Y224499D01*
X120515D01*
X120098Y224083D01*
Y223666D01*
X120515Y223250D01*
X121765D01*
X130700Y222000D02*
Y224499D01*
X131950D01*
X132366Y224083D01*
Y223250D01*
X131950Y222833D01*
X130700D01*
X131533D02*
X132366Y222000D01*
X134865Y224499D02*
X133199D01*
Y223250D01*
X134032Y223666D01*
X134449D01*
X134865Y223250D01*
Y222416D01*
X134449Y222000D01*
X133616D01*
X133199Y222416D01*
X137364Y224499D02*
X135698D01*
Y223250D01*
X136531Y223666D01*
X136948D01*
X137364Y223250D01*
Y222416D01*
X136948Y222000D01*
X136115D01*
X135698Y222416D01*
X146500Y216700D02*
Y219199D01*
X147750D01*
X148166Y218783D01*
Y217950D01*
X147750Y217533D01*
X146500D01*
X147333D02*
X148166Y216700D01*
X150665Y219199D02*
X148999D01*
Y217950D01*
X149832Y218366D01*
X150249D01*
X150665Y217950D01*
Y217116D01*
X150249Y216700D01*
X149416D01*
X148999Y217116D01*
X152748Y216700D02*
Y219199D01*
X151498Y217950D01*
X153165D01*
X152000Y217100D02*
Y219599D01*
X153250D01*
X153666Y219183D01*
Y218350D01*
X153250Y217933D01*
X152000D01*
X152833D02*
X153666Y217100D01*
X156165Y219599D02*
X154499D01*
Y218350D01*
X155332Y218766D01*
X155749D01*
X156165Y218350D01*
Y217516D01*
X155749Y217100D01*
X154916D01*
X154499Y217516D01*
X156998Y219183D02*
X157415Y219599D01*
X158248D01*
X158665Y219183D01*
Y218766D01*
X158248Y218350D01*
X157831D01*
X158248D01*
X158665Y217933D01*
Y217516D01*
X158248Y217100D01*
X157415D01*
X156998Y217516D01*
X146200Y222000D02*
Y224499D01*
X147450D01*
X147866Y224083D01*
Y223250D01*
X147450Y222833D01*
X146200D01*
X147033D02*
X147866Y222000D01*
X150365Y224499D02*
X148699D01*
Y223250D01*
X149532Y223666D01*
X149949D01*
X150365Y223250D01*
Y222416D01*
X149949Y222000D01*
X149116D01*
X148699Y222416D01*
X152865Y222000D02*
X151198D01*
X152865Y223666D01*
Y224083D01*
X152448Y224499D01*
X151615D01*
X151198Y224083D01*
X119466Y252999D02*
X118633D01*
X119050D01*
Y250917D01*
X118633Y250500D01*
X118217D01*
X117800Y250917D01*
X120299Y250500D02*
X121132D01*
X120716D01*
Y252999D01*
X120299Y252583D01*
X122382D02*
X122798Y252999D01*
X123631D01*
X124048Y252583D01*
Y252166D01*
X123631Y251750D01*
X124048Y251333D01*
Y250917D01*
X123631Y250500D01*
X122798D01*
X122382Y250917D01*
Y251333D01*
X122798Y251750D01*
X122382Y252166D01*
Y252583D01*
X122798Y251750D02*
X123631D01*
X78166Y252999D02*
X77333D01*
X77750D01*
Y250917D01*
X77333Y250500D01*
X76916D01*
X76500Y250917D01*
X78999Y250500D02*
X79832D01*
X79416D01*
Y252999D01*
X78999Y252583D01*
X81082Y252999D02*
X82748D01*
Y252583D01*
X81082Y250917D01*
Y250500D01*
X35766Y223799D02*
X34933D01*
X35350D01*
Y221716D01*
X34933Y221300D01*
X34517D01*
X34100Y221716D01*
X36599Y221300D02*
X37432D01*
X37016D01*
Y223799D01*
X36599Y223383D01*
X40348Y223799D02*
X39515Y223383D01*
X38682Y222550D01*
Y221716D01*
X39098Y221300D01*
X39931D01*
X40348Y221716D01*
Y222133D01*
X39931Y222550D01*
X38682D01*
X118166Y274799D02*
X117333D01*
X117750D01*
Y272716D01*
X117333Y272300D01*
X116917D01*
X116500Y272716D01*
X118999Y272300D02*
X119832D01*
X119416D01*
Y274799D01*
X118999Y274383D01*
X122748Y274799D02*
X121082D01*
Y273550D01*
X121915Y273966D01*
X122331D01*
X122748Y273550D01*
Y272716D01*
X122331Y272300D01*
X121498D01*
X121082Y272716D01*
X76866Y274699D02*
X76033D01*
X76450D01*
Y272617D01*
X76033Y272200D01*
X75617D01*
X75200Y272617D01*
X77699Y272200D02*
X78532D01*
X78116D01*
Y274699D01*
X77699Y274283D01*
X81031Y272200D02*
Y274699D01*
X79782Y273450D01*
X81448D01*
X35566Y274899D02*
X34733D01*
X35150D01*
Y272816D01*
X34733Y272400D01*
X34317D01*
X33900Y272816D01*
X36399Y272400D02*
X37232D01*
X36816D01*
Y274899D01*
X36399Y274483D01*
X38482D02*
X38898Y274899D01*
X39731D01*
X40148Y274483D01*
Y274066D01*
X39731Y273650D01*
X39315D01*
X39731D01*
X40148Y273233D01*
Y272816D01*
X39731Y272400D01*
X38898D01*
X38482Y272816D01*
X193266Y3199D02*
X192433D01*
X192850D01*
Y1116D01*
X192433Y700D01*
X192016D01*
X191600Y1116D01*
X194099Y700D02*
X194932D01*
X194516D01*
Y3199D01*
X194099Y2783D01*
X197848Y700D02*
X196182D01*
X197848Y2366D01*
Y2783D01*
X197431Y3199D01*
X196598D01*
X196182Y2783D01*
X142066Y3199D02*
X141233D01*
X141650D01*
Y1116D01*
X141233Y700D01*
X140816D01*
X140400Y1116D01*
X142899Y700D02*
X143732D01*
X143316D01*
Y3199D01*
X142899Y2783D01*
X144982Y700D02*
X145815D01*
X145398D01*
Y3199D01*
X144982Y2783D01*
X90966Y3299D02*
X90133D01*
X90550D01*
Y1216D01*
X90133Y800D01*
X89717D01*
X89300Y1216D01*
X91799D02*
X92216Y800D01*
X93049D01*
X93465Y1216D01*
Y2883D01*
X93049Y3299D01*
X92216D01*
X91799Y2883D01*
Y2466D01*
X92216Y2050D01*
X93465D01*
X241866Y230799D02*
X241033D01*
X241450D01*
Y228716D01*
X241033Y228300D01*
X240616D01*
X240200Y228716D01*
X242699Y230799D02*
X244365D01*
Y230383D01*
X242699Y228716D01*
Y228300D01*
X251266Y157799D02*
X250433D01*
X250850D01*
Y155717D01*
X250433Y155300D01*
X250016D01*
X249600Y155717D01*
X253765Y157799D02*
X252099D01*
Y156550D01*
X252932Y156966D01*
X253349D01*
X253765Y156550D01*
Y155717D01*
X253349Y155300D01*
X252516D01*
X252099Y155717D01*
X251366Y199199D02*
X250533D01*
X250950D01*
Y197116D01*
X250533Y196700D01*
X250116D01*
X249700Y197116D01*
X253449Y196700D02*
Y199199D01*
X252199Y197950D01*
X253865D01*
X223266Y168199D02*
X222433D01*
X222850D01*
Y166116D01*
X222433Y165700D01*
X222017D01*
X221600Y166116D01*
X224099Y167783D02*
X224516Y168199D01*
X225349D01*
X225765Y167783D01*
Y167366D01*
X225349Y166950D01*
X224932D01*
X225349D01*
X225765Y166533D01*
Y166116D01*
X225349Y165700D01*
X224516D01*
X224099Y166116D01*
X223266Y199299D02*
X222433D01*
X222850D01*
Y197216D01*
X222433Y196800D01*
X222017D01*
X221600Y197216D01*
X225765Y196800D02*
X224099D01*
X225765Y198466D01*
Y198883D01*
X225349Y199299D01*
X224516D01*
X224099Y198883D01*
X280166Y276183D02*
X279750Y276599D01*
X278917D01*
X278500Y276183D01*
Y274517D01*
X278917Y274100D01*
X279750D01*
X280166Y274517D01*
X282249Y274100D02*
Y276599D01*
X280999Y275350D01*
X282665D01*
X285164Y276599D02*
X284331Y276183D01*
X283498Y275350D01*
Y274517D01*
X283915Y274100D01*
X284748D01*
X285164Y274517D01*
Y274933D01*
X284748Y275350D01*
X283498D01*
X145266Y278383D02*
X144850Y278799D01*
X144017D01*
X143600Y278383D01*
Y276716D01*
X144017Y276300D01*
X144850D01*
X145266Y276716D01*
X147349Y276300D02*
Y278799D01*
X146099Y277550D01*
X147765D01*
X149848Y276300D02*
Y278799D01*
X148598Y277550D01*
X150265D01*
X293301Y150200D02*
X295800D01*
Y151866D01*
X293301Y154365D02*
Y152699D01*
X295800D01*
Y154365D01*
X294550Y152699D02*
Y153532D01*
X293301Y155198D02*
X295800D01*
Y156448D01*
X295384Y156865D01*
X293717D01*
X293301Y156448D01*
Y155198D01*
Y159364D02*
Y157698D01*
X294550D01*
X294134Y158531D01*
Y158947D01*
X294550Y159364D01*
X295384D01*
X295800Y158947D01*
Y158114D01*
X295384Y157698D01*
X258000Y200500D02*
Y202999D01*
X259250D01*
X259666Y202583D01*
Y201750D01*
X259250Y201333D01*
X258000D01*
X258833D02*
X259666Y200500D01*
X260499Y202583D02*
X260916Y202999D01*
X261749D01*
X262165Y202583D01*
Y202166D01*
X261749Y201750D01*
X261332D01*
X261749D01*
X262165Y201333D01*
Y200917D01*
X261749Y200500D01*
X260916D01*
X260499Y200917D01*
X262998Y202583D02*
X263415Y202999D01*
X264248D01*
X264665Y202583D01*
Y202166D01*
X264248Y201750D01*
X263831D01*
X264248D01*
X264665Y201333D01*
Y200917D01*
X264248Y200500D01*
X263415D01*
X262998Y200917D01*
X274901Y214700D02*
X277400D01*
Y215950D01*
X276983Y216366D01*
X275317D01*
X274901Y215950D01*
Y214700D01*
X275317Y217199D02*
X274901Y217616D01*
Y218449D01*
X275317Y218865D01*
X275734D01*
X276150Y218449D01*
Y218032D01*
Y218449D01*
X276567Y218865D01*
X276983D01*
X277400Y218449D01*
Y217616D01*
X276983Y217199D01*
X274901Y221364D02*
Y219698D01*
X276150D01*
X275734Y220531D01*
Y220948D01*
X276150Y221364D01*
X276983D01*
X277400Y220948D01*
Y220115D01*
X276983Y219698D01*
X268400Y132199D02*
Y129700D01*
X269650D01*
X270066Y130116D01*
Y131783D01*
X269650Y132199D01*
X268400D01*
X270899Y131783D02*
X271316Y132199D01*
X272149D01*
X272565Y131783D01*
Y131366D01*
X272149Y130950D01*
X271732D01*
X272149D01*
X272565Y130533D01*
Y130116D01*
X272149Y129700D01*
X271316D01*
X270899Y130116D01*
X274648Y129700D02*
Y132199D01*
X273398Y130950D01*
X275064D01*
X268100Y127599D02*
Y125100D01*
X269350D01*
X269766Y125516D01*
Y127183D01*
X269350Y127599D01*
X268100D01*
X270599Y127183D02*
X271016Y127599D01*
X271849D01*
X272265Y127183D01*
Y126766D01*
X271849Y126350D01*
X271432D01*
X271849D01*
X272265Y125933D01*
Y125516D01*
X271849Y125100D01*
X271016D01*
X270599Y125516D01*
X273098Y127183D02*
X273515Y127599D01*
X274348D01*
X274764Y127183D01*
Y126766D01*
X274348Y126350D01*
X273931D01*
X274348D01*
X274764Y125933D01*
Y125516D01*
X274348Y125100D01*
X273515D01*
X273098Y125516D01*
X274301Y188400D02*
X276800D01*
Y189650D01*
X276383Y190066D01*
X274717D01*
X274301Y189650D01*
Y188400D01*
X276800Y190899D02*
Y191732D01*
Y191316D01*
X274301D01*
X274717Y190899D01*
X274301Y194648D02*
Y192982D01*
X275550D01*
X275134Y193815D01*
Y194231D01*
X275550Y194648D01*
X276383D01*
X276800Y194231D01*
Y193398D01*
X276383Y192982D01*
X204700Y133999D02*
Y131500D01*
X205950D01*
X206366Y131916D01*
Y133583D01*
X205950Y133999D01*
X204700D01*
X207199Y131500D02*
X208032D01*
X207616D01*
Y133999D01*
X207199Y133583D01*
X210531Y131500D02*
Y133999D01*
X209282Y132750D01*
X210948D01*
X297966Y166116D02*
Y167783D01*
X297550Y168199D01*
X296716D01*
X296300Y167783D01*
Y166116D01*
X296716Y165700D01*
X297550D01*
X297133Y166533D02*
X297966Y165700D01*
X297550D02*
X297966Y166116D01*
X300465Y165700D02*
X298799D01*
X300465Y167366D01*
Y167783D01*
X300049Y168199D01*
X299216D01*
X298799Y167783D01*
X285600Y209000D02*
X283101D01*
Y210250D01*
X283517Y210666D01*
X284350D01*
X284767Y210250D01*
Y209000D01*
Y209833D02*
X285600Y210666D01*
X283101Y213165D02*
Y211499D01*
X284350D01*
X283934Y212332D01*
Y212749D01*
X284350Y213165D01*
X285184D01*
X285600Y212749D01*
Y211916D01*
X285184Y211499D01*
X283517Y213998D02*
X283101Y214415D01*
Y215248D01*
X283517Y215665D01*
X285184D01*
X285600Y215248D01*
Y214415D01*
X285184Y213998D01*
X283517D01*
X294800Y202500D02*
X292301D01*
Y203750D01*
X292717Y204166D01*
X293550D01*
X293967Y203750D01*
Y202500D01*
Y203333D02*
X294800Y204166D01*
Y206249D02*
X292301D01*
X293550Y204999D01*
Y206665D01*
X294384Y207498D02*
X294800Y207915D01*
Y208748D01*
X294384Y209165D01*
X292717D01*
X292301Y208748D01*
Y207915D01*
X292717Y207498D01*
X293134D01*
X293550Y207915D01*
Y209165D01*
X281600Y202600D02*
X279101D01*
Y203850D01*
X279517Y204266D01*
X280350D01*
X280767Y203850D01*
Y202600D01*
Y203433D02*
X281600Y204266D01*
Y206349D02*
X279101D01*
X280350Y205099D01*
Y206765D01*
X279517Y207598D02*
X279101Y208015D01*
Y208848D01*
X279517Y209264D01*
X279934D01*
X280350Y208848D01*
X280767Y209264D01*
X281184D01*
X281600Y208848D01*
Y208015D01*
X281184Y207598D01*
X280767D01*
X280350Y208015D01*
X279934Y207598D01*
X279517D01*
X280350Y208015D02*
Y208848D01*
X247417Y89266D02*
X247001Y88850D01*
Y88016D01*
X247417Y87600D01*
X249083D01*
X249500Y88016D01*
Y88850D01*
X249083Y89266D01*
X249500Y90099D02*
Y90932D01*
Y90516D01*
X247001D01*
X247417Y90099D01*
X247001Y92182D02*
Y93848D01*
X247417D01*
X249083Y92182D01*
X249500D01*
X57317Y84666D02*
X56901Y84250D01*
Y83416D01*
X57317Y83000D01*
X58983D01*
X59400Y83416D01*
Y84250D01*
X58983Y84666D01*
Y85499D02*
X59400Y85916D01*
Y86749D01*
X58983Y87165D01*
X57317D01*
X56901Y86749D01*
Y85916D01*
X57317Y85499D01*
X57734D01*
X58150Y85916D01*
Y87165D01*
X57317Y87998D02*
X56901Y88415D01*
Y89248D01*
X57317Y89665D01*
X58983D01*
X59400Y89248D01*
Y88415D01*
X58983Y87998D01*
X57317D01*
X49466Y77483D02*
X49050Y77899D01*
X48217D01*
X47800Y77483D01*
Y75817D01*
X48217Y75400D01*
X49050D01*
X49466Y75817D01*
X50299D02*
X50716Y75400D01*
X51549D01*
X51965Y75817D01*
Y77483D01*
X51549Y77899D01*
X50716D01*
X50299Y77483D01*
Y77066D01*
X50716Y76650D01*
X51965D01*
X52798Y75400D02*
X53631D01*
X53215D01*
Y77899D01*
X52798Y77483D01*
X50966Y85183D02*
X50550Y85599D01*
X49716D01*
X49300Y85183D01*
Y83517D01*
X49716Y83100D01*
X50550D01*
X50966Y83517D01*
X51799D02*
X52216Y83100D01*
X53049D01*
X53465Y83517D01*
Y85183D01*
X53049Y85599D01*
X52216D01*
X51799Y85183D01*
Y84766D01*
X52216Y84350D01*
X53465D01*
X55964Y83100D02*
X54298D01*
X55964Y84766D01*
Y85183D01*
X55548Y85599D01*
X54715D01*
X54298Y85183D01*
X186566Y109283D02*
X186150Y109699D01*
X185317D01*
X184900Y109283D01*
Y107616D01*
X185317Y107200D01*
X186150D01*
X186566Y107616D01*
X187399D02*
X187816Y107200D01*
X188649D01*
X189065Y107616D01*
Y109283D01*
X188649Y109699D01*
X187816D01*
X187399Y109283D01*
Y108866D01*
X187816Y108450D01*
X189065D01*
X189898Y109283D02*
X190315Y109699D01*
X191148D01*
X191565Y109283D01*
Y108866D01*
X191148Y108450D01*
X190731D01*
X191148D01*
X191565Y108033D01*
Y107616D01*
X191148Y107200D01*
X190315D01*
X189898Y107616D01*
X7517Y56866D02*
X7101Y56450D01*
Y55616D01*
X7517Y55200D01*
X9183D01*
X9600Y55616D01*
Y56450D01*
X9183Y56866D01*
Y57699D02*
X9600Y58116D01*
Y58949D01*
X9183Y59365D01*
X7517D01*
X7101Y58949D01*
Y58116D01*
X7517Y57699D01*
X7934D01*
X8350Y58116D01*
Y59365D01*
X9600Y61448D02*
X7101D01*
X8350Y60198D01*
Y61865D01*
X46517Y69366D02*
X46101Y68950D01*
Y68116D01*
X46517Y67700D01*
X48184D01*
X48600Y68116D01*
Y68950D01*
X48184Y69366D01*
Y70199D02*
X48600Y70616D01*
Y71449D01*
X48184Y71865D01*
X46517D01*
X46101Y71449D01*
Y70616D01*
X46517Y70199D01*
X46934D01*
X47350Y70616D01*
Y71865D01*
X46101Y74365D02*
Y72698D01*
X47350D01*
X46934Y73531D01*
Y73948D01*
X47350Y74365D01*
X48184D01*
X48600Y73948D01*
Y73115D01*
X48184Y72698D01*
X41466Y61883D02*
X41050Y62299D01*
X40216D01*
X39800Y61883D01*
Y60216D01*
X40216Y59800D01*
X41050D01*
X41466Y60216D01*
X42299D02*
X42716Y59800D01*
X43549D01*
X43965Y60216D01*
Y61883D01*
X43549Y62299D01*
X42716D01*
X42299Y61883D01*
Y61466D01*
X42716Y61050D01*
X43965D01*
X46464Y62299D02*
X45631Y61883D01*
X44798Y61050D01*
Y60216D01*
X45215Y59800D01*
X46048D01*
X46464Y60216D01*
Y60633D01*
X46048Y61050D01*
X44798D01*
X48766Y36383D02*
X48350Y36799D01*
X47517D01*
X47100Y36383D01*
Y34716D01*
X47517Y34300D01*
X48350D01*
X48766Y34716D01*
X49599D02*
X50016Y34300D01*
X50849D01*
X51265Y34716D01*
Y36383D01*
X50849Y36799D01*
X50016D01*
X49599Y36383D01*
Y35966D01*
X50016Y35550D01*
X51265D01*
X52098Y36799D02*
X53764D01*
Y36383D01*
X52098Y34716D01*
Y34300D01*
X38466Y31483D02*
X38050Y31899D01*
X37216D01*
X36800Y31483D01*
Y29816D01*
X37216Y29400D01*
X38050D01*
X38466Y29816D01*
X39299D02*
X39716Y29400D01*
X40549D01*
X40965Y29816D01*
Y31483D01*
X40549Y31899D01*
X39716D01*
X39299Y31483D01*
Y31066D01*
X39716Y30650D01*
X40965D01*
X41798Y31483D02*
X42215Y31899D01*
X43048D01*
X43464Y31483D01*
Y31066D01*
X43048Y30650D01*
X43464Y30233D01*
Y29816D01*
X43048Y29400D01*
X42215D01*
X41798Y29816D01*
Y30233D01*
X42215Y30650D01*
X41798Y31066D01*
Y31483D01*
X42215Y30650D02*
X43048D01*
X24966Y111683D02*
X24550Y112099D01*
X23717D01*
X23300Y111683D01*
Y110017D01*
X23717Y109600D01*
X24550D01*
X24966Y110017D01*
X25799D02*
X26216Y109600D01*
X27049D01*
X27465Y110017D01*
Y111683D01*
X27049Y112099D01*
X26216D01*
X25799Y111683D01*
Y111266D01*
X26216Y110850D01*
X27465D01*
X28298Y110017D02*
X28715Y109600D01*
X29548D01*
X29965Y110017D01*
Y111683D01*
X29548Y112099D01*
X28715D01*
X28298Y111683D01*
Y111266D01*
X28715Y110850D01*
X29965D01*
X42117Y37466D02*
X41701Y37050D01*
Y36217D01*
X42117Y35800D01*
X43784D01*
X44200Y36217D01*
Y37050D01*
X43784Y37466D01*
X44200Y38299D02*
Y39132D01*
Y38716D01*
X41701D01*
X42117Y38299D01*
Y40382D02*
X41701Y40798D01*
Y41631D01*
X42117Y42048D01*
X43784D01*
X44200Y41631D01*
Y40798D01*
X43784Y40382D01*
X42117D01*
Y42881D02*
X41701Y43298D01*
Y44131D01*
X42117Y44547D01*
X43784D01*
X44200Y44131D01*
Y43298D01*
X43784Y42881D01*
X42117D01*
X4017Y39966D02*
X3601Y39550D01*
Y38717D01*
X4017Y38300D01*
X5683D01*
X6100Y38717D01*
Y39550D01*
X5683Y39966D01*
X6100Y40799D02*
Y41632D01*
Y41216D01*
X3601D01*
X4017Y40799D01*
Y42882D02*
X3601Y43298D01*
Y44131D01*
X4017Y44548D01*
X5683D01*
X6100Y44131D01*
Y43298D01*
X5683Y42882D01*
X4017D01*
X6100Y45381D02*
Y46214D01*
Y45798D01*
X3601D01*
X4017Y45381D01*
X33317Y27966D02*
X32901Y27550D01*
Y26717D01*
X33317Y26300D01*
X34984D01*
X35400Y26717D01*
Y27550D01*
X34984Y27966D01*
X35400Y28799D02*
Y29632D01*
Y29216D01*
X32901D01*
X33317Y28799D01*
Y30882D02*
X32901Y31298D01*
Y32131D01*
X33317Y32548D01*
X34984D01*
X35400Y32131D01*
Y31298D01*
X34984Y30882D01*
X33317D01*
X35400Y35047D02*
Y33381D01*
X33734Y35047D01*
X33317D01*
X32901Y34631D01*
Y33798D01*
X33317Y33381D01*
X41366Y54583D02*
X40950Y54999D01*
X40117D01*
X39700Y54583D01*
Y52917D01*
X40117Y52500D01*
X40950D01*
X41366Y52917D01*
X42199Y52500D02*
X43032D01*
X42616D01*
Y54999D01*
X42199Y54583D01*
X44282D02*
X44698Y54999D01*
X45531D01*
X45948Y54583D01*
Y52917D01*
X45531Y52500D01*
X44698D01*
X44282Y52917D01*
Y54583D01*
X48031Y52500D02*
Y54999D01*
X46781Y53750D01*
X48447D01*
X49166Y88283D02*
X48750Y88699D01*
X47916D01*
X47500Y88283D01*
Y86616D01*
X47916Y86200D01*
X48750D01*
X49166Y86616D01*
X49999Y86200D02*
X50832D01*
X50416D01*
Y88699D01*
X49999Y88283D01*
X52082D02*
X52498Y88699D01*
X53331D01*
X53748Y88283D01*
Y86616D01*
X53331Y86200D01*
X52498D01*
X52082Y86616D01*
Y88283D01*
X56247Y88699D02*
X54581D01*
Y87450D01*
X55414Y87866D01*
X55831D01*
X56247Y87450D01*
Y86616D01*
X55831Y86200D01*
X54998D01*
X54581Y86616D01*
X54600Y58900D02*
X52101D01*
Y60150D01*
X52517Y60566D01*
X53350D01*
X53767Y60150D01*
Y58900D01*
Y59733D02*
X54600Y60566D01*
Y61399D02*
Y62232D01*
Y61816D01*
X52101D01*
X52517Y61399D01*
X54600Y65148D02*
Y63482D01*
X52934Y65148D01*
X52517D01*
X52101Y64731D01*
Y63898D01*
X52517Y63482D01*
X15700Y91400D02*
X13201D01*
Y92650D01*
X13617Y93066D01*
X14450D01*
X14867Y92650D01*
Y91400D01*
Y92233D02*
X15700Y93066D01*
Y93899D02*
Y94732D01*
Y94316D01*
X13201D01*
X13617Y93899D01*
X13201Y95982D02*
Y97648D01*
X13617D01*
X15283Y95982D01*
X15700D01*
X10400Y37800D02*
X7901D01*
Y39050D01*
X8317Y39466D01*
X9150D01*
X9567Y39050D01*
Y37800D01*
Y38633D02*
X10400Y39466D01*
Y40299D02*
Y41132D01*
Y40716D01*
X7901D01*
X8317Y40299D01*
Y42382D02*
X7901Y42798D01*
Y43632D01*
X8317Y44048D01*
X8734D01*
X9150Y43632D01*
X9567Y44048D01*
X9984D01*
X10400Y43632D01*
Y42798D01*
X9984Y42382D01*
X9567D01*
X9150Y42798D01*
X8734Y42382D01*
X8317D01*
X9150Y42798D02*
Y43632D01*
X308100Y265700D02*
Y268199D01*
X309350D01*
X309766Y267783D01*
Y266950D01*
X309350Y266533D01*
X308100D01*
X308933D02*
X309766Y265700D01*
X310599D02*
X311432D01*
X311016D01*
Y268199D01*
X310599Y267783D01*
X312682D02*
X313098Y268199D01*
X313931D01*
X314348Y267783D01*
Y267366D01*
X313931Y266950D01*
X313515D01*
X313931D01*
X314348Y266533D01*
Y266116D01*
X313931Y265700D01*
X313098D01*
X312682Y266116D01*
X32001Y184500D02*
X34500D01*
Y185750D01*
X34084Y186166D01*
X32417D01*
X32001Y185750D01*
Y184500D01*
X34500Y186999D02*
Y187832D01*
Y187416D01*
X32001D01*
X32417Y186999D01*
X32001Y190748D02*
X32417Y189915D01*
X33250Y189082D01*
X34084D01*
X34500Y189498D01*
Y190331D01*
X34084Y190748D01*
X33667D01*
X33250Y190331D01*
Y189082D01*
X133400Y188299D02*
Y186216D01*
X133817Y185800D01*
X134650D01*
X135066Y186216D01*
Y188299D01*
X137565Y185800D02*
X135899D01*
X137565Y187466D01*
Y187883D01*
X137149Y188299D01*
X136316D01*
X135899Y187883D01*
X112600Y192199D02*
X114266Y189700D01*
Y192199D02*
X112600Y189700D01*
X115099D02*
X115932D01*
X115516D01*
Y192199D01*
X115099Y191783D01*
X117182D02*
X117598Y192199D01*
X118431D01*
X118848Y191783D01*
Y191366D01*
X118431Y190950D01*
X118848Y190533D01*
Y190117D01*
X118431Y189700D01*
X117598D01*
X117182Y190117D01*
Y190533D01*
X117598Y190950D01*
X117182Y191366D01*
Y191783D01*
X117598Y190950D02*
X118431D01*
X6900Y186399D02*
Y183900D01*
X8566D01*
X11065Y186399D02*
X9399D01*
Y183900D01*
X11065D01*
X9399Y185150D02*
X10232D01*
X11898Y186399D02*
Y183900D01*
X13148D01*
X13565Y184317D01*
Y185983D01*
X13148Y186399D01*
X11898D01*
X14398D02*
X16064D01*
Y185983D01*
X14398Y184317D01*
Y183900D01*
X197666Y185083D02*
X197250Y185499D01*
X196416D01*
X196000Y185083D01*
Y183416D01*
X196416Y183000D01*
X197250D01*
X197666Y183416D01*
X200165Y185499D02*
X199332Y185083D01*
X198499Y184250D01*
Y183416D01*
X198916Y183000D01*
X199749D01*
X200165Y183416D01*
Y183833D01*
X199749Y184250D01*
X198499D01*
X119865Y163264D02*
X119448Y162847D01*
Y162014D01*
X119865Y161598D01*
X121531D01*
X121947Y162014D01*
Y162847D01*
X121531Y163264D01*
Y164097D02*
X121947Y164513D01*
Y165346D01*
X121531Y165763D01*
X119865D01*
X119448Y165346D01*
Y164513D01*
X119865Y164097D01*
X120281D01*
X120698Y164513D01*
Y165763D01*
X199417Y128366D02*
X199001Y127950D01*
Y127117D01*
X199417Y126700D01*
X201083D01*
X201500Y127117D01*
Y127950D01*
X201083Y128366D01*
X199417Y129199D02*
X199001Y129616D01*
Y130449D01*
X199417Y130865D01*
X199834D01*
X200250Y130449D01*
X200667Y130865D01*
X201083D01*
X201500Y130449D01*
Y129616D01*
X201083Y129199D01*
X200667D01*
X200250Y129616D01*
X199834Y129199D01*
X199417D01*
X200250Y129616D02*
Y130449D01*
X170566Y116883D02*
X170150Y117299D01*
X169316D01*
X168900Y116883D01*
Y115217D01*
X169316Y114800D01*
X170150D01*
X170566Y115217D01*
X171399Y117299D02*
X173065D01*
Y116883D01*
X171399Y115217D01*
Y114800D01*
X28217Y209166D02*
X27801Y208750D01*
Y207916D01*
X28217Y207500D01*
X29884D01*
X30300Y207916D01*
Y208750D01*
X29884Y209166D01*
X30300Y209999D02*
Y210832D01*
Y210416D01*
X27801D01*
X28217Y209999D01*
X64666Y136283D02*
X64250Y136699D01*
X63416D01*
X63000Y136283D01*
Y134616D01*
X63416Y134200D01*
X64250D01*
X64666Y134616D01*
X65499Y134200D02*
X66332D01*
X65916D01*
Y136699D01*
X65499Y136283D01*
X67582Y134200D02*
X68415D01*
X67998D01*
Y136699D01*
X67582Y136283D01*
X52366Y157383D02*
X51950Y157799D01*
X51117D01*
X50700Y157383D01*
Y155717D01*
X51117Y155300D01*
X51950D01*
X52366Y155717D01*
X53199Y155300D02*
X54032D01*
X53616D01*
Y157799D01*
X53199Y157383D01*
X56948Y157799D02*
X55282D01*
Y156550D01*
X56115Y156966D01*
X56531D01*
X56948Y156550D01*
Y155717D01*
X56531Y155300D01*
X55698D01*
X55282Y155717D01*
X6700Y204199D02*
Y201700D01*
X8366D01*
X10865Y204199D02*
X9199D01*
Y201700D01*
X10865D01*
X9199Y202950D02*
X10032D01*
X11698Y204199D02*
Y201700D01*
X12948D01*
X13364Y202116D01*
Y203783D01*
X12948Y204199D01*
X11698D01*
X14198Y201700D02*
X15031D01*
X14614D01*
Y204199D01*
X14198Y203783D01*
X123017Y150366D02*
X122601Y149950D01*
Y149117D01*
X123017Y148700D01*
X124683D01*
X125100Y149117D01*
Y149950D01*
X124683Y150366D01*
X125100Y151199D02*
Y152032D01*
Y151616D01*
X122601D01*
X123017Y151199D01*
Y153282D02*
X122601Y153698D01*
Y154531D01*
X123017Y154948D01*
X124683D01*
X125100Y154531D01*
Y153698D01*
X124683Y153282D01*
X123017D01*
X62166Y188383D02*
X61750Y188799D01*
X60917D01*
X60500Y188383D01*
Y186716D01*
X60917Y186300D01*
X61750D01*
X62166Y186716D01*
X62999Y186300D02*
X63832D01*
X63416D01*
Y188799D01*
X62999Y188383D01*
X66748Y188799D02*
X65915Y188383D01*
X65082Y187550D01*
Y186716D01*
X65498Y186300D01*
X66331D01*
X66748Y186716D01*
Y187133D01*
X66331Y187550D01*
X65082D01*
X55300Y216799D02*
X56966Y214300D01*
Y216799D02*
X55300Y214300D01*
X57799D02*
X58632D01*
X58216D01*
Y216799D01*
X57799Y216383D01*
X59882Y216799D02*
X61548D01*
Y216383D01*
X59882Y214717D01*
Y214300D01*
X53300Y158700D02*
X50801D01*
Y159950D01*
X51217Y160366D01*
X52050D01*
X52467Y159950D01*
Y158700D01*
Y159533D02*
X53300Y160366D01*
X50801Y161199D02*
X52467D01*
X53300Y162032D01*
X52467Y162865D01*
X50801D01*
X53300Y163698D02*
Y164531D01*
Y164115D01*
X50801D01*
X51217Y163698D01*
X58400Y181400D02*
X55901D01*
Y182650D01*
X56317Y183066D01*
X57150D01*
X57567Y182650D01*
Y181400D01*
Y182233D02*
X58400Y183066D01*
X55901Y183899D02*
X57567D01*
X58400Y184732D01*
X57567Y185565D01*
X55901D01*
X58400Y188065D02*
Y186398D01*
X56734Y188065D01*
X56317D01*
X55901Y187648D01*
Y186815D01*
X56317Y186398D01*
X101600Y190000D02*
Y192499D01*
X102850D01*
X103266Y192083D01*
Y191250D01*
X102850Y190833D01*
X101600D01*
X102433D02*
X103266Y190000D01*
X104099D02*
Y192499D01*
X105765Y190000D01*
Y192499D01*
X108265D02*
X106598D01*
Y191250D01*
X107431Y191666D01*
X107848D01*
X108265Y191250D01*
Y190417D01*
X107848Y190000D01*
X107015D01*
X106598Y190417D01*
X54117Y139666D02*
X53701Y139250D01*
Y138417D01*
X54117Y138000D01*
X55783D01*
X56200Y138417D01*
Y139250D01*
X55783Y139666D01*
X56200Y140499D02*
Y141332D01*
Y140916D01*
X53701D01*
X54117Y140499D01*
Y142582D02*
X53701Y142998D01*
Y143831D01*
X54117Y144248D01*
X54534D01*
X54950Y143831D01*
Y143415D01*
Y143831D01*
X55367Y144248D01*
X55783D01*
X56200Y143831D01*
Y142998D01*
X55783Y142582D01*
X82566Y153083D02*
X82150Y153499D01*
X81317D01*
X80900Y153083D01*
Y151417D01*
X81317Y151000D01*
X82150D01*
X82566Y151417D01*
X83399Y151000D02*
X84232D01*
X83816D01*
Y153499D01*
X83399Y153083D01*
X87148Y151000D02*
X85482D01*
X87148Y152666D01*
Y153083D01*
X86731Y153499D01*
X85898D01*
X85482Y153083D01*
X84466Y156783D02*
X84050Y157199D01*
X83217D01*
X82800Y156783D01*
Y155116D01*
X83217Y154700D01*
X84050D01*
X84466Y155116D01*
X85299Y154700D02*
X86132D01*
X85716D01*
Y157199D01*
X85299Y156783D01*
X88631Y154700D02*
Y157199D01*
X87382Y155950D01*
X89048D01*
X327297Y191782D02*
Y193448D01*
X326880Y193865D01*
X326047D01*
X325631Y193448D01*
Y191782D01*
X326047Y191365D01*
X326880D01*
X326464Y192198D02*
X327297Y191365D01*
X326880D02*
X327297Y191782D01*
X329796Y193865D02*
X328130D01*
Y192615D01*
X328963Y193032D01*
X329380D01*
X329796Y192615D01*
Y191782D01*
X329380Y191365D01*
X328546D01*
X328130Y191782D01*
X224700Y169900D02*
Y172399D01*
X225950D01*
X226366Y171983D01*
Y171150D01*
X225950Y170733D01*
X224700D01*
X225533D02*
X226366Y169900D01*
X227199Y171983D02*
X227616Y172399D01*
X228449D01*
X228865Y171983D01*
Y171566D01*
X228449Y171150D01*
X228032D01*
X228449D01*
X228865Y170733D01*
Y170317D01*
X228449Y169900D01*
X227616D01*
X227199Y170317D01*
X229698Y169900D02*
X230531D01*
X230115D01*
Y172399D01*
X229698Y171983D01*
X104766Y147383D02*
X104350Y147799D01*
X103516D01*
X103100Y147383D01*
Y145717D01*
X103516Y145300D01*
X104350D01*
X104766Y145717D01*
X107265Y147799D02*
X105599D01*
Y146550D01*
X106432Y146966D01*
X106849D01*
X107265Y146550D01*
Y145717D01*
X106849Y145300D01*
X106016D01*
X105599Y145717D01*
X108098Y147799D02*
X109765D01*
Y147383D01*
X108098Y145717D01*
Y145300D01*
X107907Y164759D02*
X107491Y164342D01*
Y163509D01*
X107907Y163093D01*
X109573D01*
X109990Y163509D01*
Y164342D01*
X109573Y164759D01*
X107491Y167258D02*
Y165592D01*
X108740D01*
X108324Y166425D01*
Y166842D01*
X108740Y167258D01*
X109573D01*
X109990Y166842D01*
Y166009D01*
X109573Y165592D01*
X107907Y168091D02*
X107491Y168508D01*
Y169341D01*
X107907Y169757D01*
X108324D01*
X108740Y169341D01*
X109157Y169757D01*
X109573D01*
X109990Y169341D01*
Y168508D01*
X109573Y168091D01*
X109157D01*
X108740Y168508D01*
X108324Y168091D01*
X107907D01*
X108740Y168508D02*
Y169341D01*
X195166Y181583D02*
X194750Y181999D01*
X193916D01*
X193500Y181583D01*
Y179917D01*
X193916Y179500D01*
X194750D01*
X195166Y179917D01*
X197665Y181999D02*
X195999D01*
Y180750D01*
X196832Y181166D01*
X197249D01*
X197665Y180750D01*
Y179917D01*
X197249Y179500D01*
X196416D01*
X195999Y179917D01*
X198498D02*
X198915Y179500D01*
X199748D01*
X200165Y179917D01*
Y181583D01*
X199748Y181999D01*
X198915D01*
X198498Y181583D01*
Y181166D01*
X198915Y180750D01*
X200165D01*
X24200Y192700D02*
Y195199D01*
X25450D01*
X25866Y194783D01*
Y193950D01*
X25450Y193533D01*
X24200D01*
X25033D02*
X25866Y192700D01*
X26699Y194783D02*
X27116Y195199D01*
X27949D01*
X28365Y194783D01*
Y194366D01*
X27949Y193950D01*
X27532D01*
X27949D01*
X28365Y193533D01*
Y193116D01*
X27949Y192700D01*
X27116D01*
X26699Y193116D01*
X30865Y195199D02*
X29198D01*
Y193950D01*
X30031Y194366D01*
X30448D01*
X30865Y193950D01*
Y193116D01*
X30448Y192700D01*
X29615D01*
X29198Y193116D01*
X204500Y137400D02*
Y139899D01*
X205750D01*
X206166Y139483D01*
Y138650D01*
X205750Y138233D01*
X204500D01*
X205333D02*
X206166Y137400D01*
X206999Y139483D02*
X207416Y139899D01*
X208249D01*
X208665Y139483D01*
Y139066D01*
X208249Y138650D01*
X207832D01*
X208249D01*
X208665Y138233D01*
Y137817D01*
X208249Y137400D01*
X207416D01*
X206999Y137817D01*
X211164Y139899D02*
X210331Y139483D01*
X209498Y138650D01*
Y137817D01*
X209915Y137400D01*
X210748D01*
X211164Y137817D01*
Y138233D01*
X210748Y138650D01*
X209498D01*
X216666Y163883D02*
X216250Y164299D01*
X215417D01*
X215000Y163883D01*
Y162216D01*
X215417Y161800D01*
X216250D01*
X216666Y162216D01*
X219165Y164299D02*
X217499D01*
Y163050D01*
X218332Y163466D01*
X218749D01*
X219165Y163050D01*
Y162216D01*
X218749Y161800D01*
X217916D01*
X217499Y162216D01*
X221665Y164299D02*
X220831Y163883D01*
X219998Y163050D01*
Y162216D01*
X220415Y161800D01*
X221248D01*
X221665Y162216D01*
Y162633D01*
X221248Y163050D01*
X219998D01*
X275801Y67800D02*
X278300D01*
Y69466D01*
X275801Y71965D02*
Y70299D01*
X278300D01*
Y71965D01*
X277050Y70299D02*
Y71132D01*
X275801Y72798D02*
X278300D01*
Y74048D01*
X277884Y74464D01*
X276217D01*
X275801Y74048D01*
Y72798D01*
X278300Y76964D02*
Y75298D01*
X276634Y76964D01*
X276217D01*
X275801Y76547D01*
Y75714D01*
X276217Y75298D01*
X267000Y72900D02*
Y75399D01*
X268250D01*
X268666Y74983D01*
Y74150D01*
X268250Y73733D01*
X267000D01*
X267833D02*
X268666Y72900D01*
X270749D02*
Y75399D01*
X269499Y74150D01*
X271165D01*
X271998Y74983D02*
X272415Y75399D01*
X273248D01*
X273664Y74983D01*
Y73317D01*
X273248Y72900D01*
X272415D01*
X271998Y73317D01*
Y74983D01*
X283900Y72500D02*
Y74999D01*
X285150D01*
X285566Y74583D01*
Y73750D01*
X285150Y73333D01*
X283900D01*
X284733D02*
X285566Y72500D01*
X287649D02*
Y74999D01*
X286399Y73750D01*
X288065D01*
X290564Y72500D02*
X288898D01*
X290564Y74166D01*
Y74583D01*
X290148Y74999D01*
X289315D01*
X288898Y74583D01*
X288500Y60600D02*
Y63099D01*
X289750D01*
X290166Y62683D01*
Y61850D01*
X289750Y61433D01*
X288500D01*
X289333D02*
X290166Y60600D01*
X292249D02*
Y63099D01*
X290999Y61850D01*
X292665D01*
X293498Y62683D02*
X293915Y63099D01*
X294748D01*
X295164Y62683D01*
Y62266D01*
X294748Y61850D01*
X294331D01*
X294748D01*
X295164Y61433D01*
Y61016D01*
X294748Y60600D01*
X293915D01*
X293498Y61016D01*
X34100Y204100D02*
X31601D01*
Y205350D01*
X32017Y205766D01*
X32850D01*
X33267Y205350D01*
Y204100D01*
Y204933D02*
X34100Y205766D01*
Y207849D02*
X31601D01*
X32850Y206599D01*
Y208265D01*
X31601Y210765D02*
X32017Y209931D01*
X32850Y209098D01*
X33683D01*
X34100Y209515D01*
Y210348D01*
X33683Y210765D01*
X33267D01*
X32850Y210348D01*
Y209098D01*
X42800Y197600D02*
X40301D01*
Y198850D01*
X40717Y199266D01*
X41550D01*
X41967Y198850D01*
Y197600D01*
Y198433D02*
X42800Y199266D01*
Y201349D02*
X40301D01*
X41550Y200099D01*
Y201765D01*
X40301Y202598D02*
Y204264D01*
X40717D01*
X42384Y202598D01*
X42800D01*
X299400Y161000D02*
Y163499D01*
X300650D01*
X301066Y163083D01*
Y162250D01*
X300650Y161833D01*
X299400D01*
X300233D02*
X301066Y161000D01*
X303565Y163499D02*
X301899D01*
Y162250D01*
X302732Y162666D01*
X303149D01*
X303565Y162250D01*
Y161416D01*
X303149Y161000D01*
X302316D01*
X301899Y161416D01*
X306065Y163499D02*
X305231Y163083D01*
X304398Y162250D01*
Y161416D01*
X304815Y161000D01*
X305648D01*
X306065Y161416D01*
Y161833D01*
X305648Y162250D01*
X304398D01*
X322500Y160500D02*
Y162999D01*
X323750D01*
X324166Y162583D01*
Y161750D01*
X323750Y161333D01*
X322500D01*
X323333D02*
X324166Y160500D01*
X326665Y162999D02*
X324999D01*
Y161750D01*
X325832Y162166D01*
X326249D01*
X326665Y161750D01*
Y160916D01*
X326249Y160500D01*
X325416D01*
X324999Y160916D01*
X327498Y162999D02*
X329165D01*
Y162583D01*
X327498Y160916D01*
Y160500D01*
X348801Y246100D02*
X351300D01*
Y247766D01*
X348801Y250265D02*
Y248599D01*
X351300D01*
Y250265D01*
X350050Y248599D02*
Y249432D01*
X348801Y251098D02*
X351300D01*
Y252348D01*
X350884Y252765D01*
X349217D01*
X348801Y252348D01*
Y251098D01*
Y255264D02*
X349217Y254431D01*
X350050Y253598D01*
X350884D01*
X351300Y254014D01*
Y254847D01*
X350884Y255264D01*
X350467D01*
X350050Y254847D01*
Y253598D01*
X351800Y260000D02*
X349301D01*
Y261250D01*
X349717Y261666D01*
X350550D01*
X350967Y261250D01*
Y260000D01*
Y260833D02*
X351800Y261666D01*
X349301Y264165D02*
Y262499D01*
X350550D01*
X350134Y263332D01*
Y263749D01*
X350550Y264165D01*
X351383D01*
X351800Y263749D01*
Y262916D01*
X351383Y262499D01*
X349717Y264998D02*
X349301Y265415D01*
Y266248D01*
X349717Y266665D01*
X350134D01*
X350550Y266248D01*
X350967Y266665D01*
X351383D01*
X351800Y266248D01*
Y265415D01*
X351383Y264998D01*
X350967D01*
X350550Y265415D01*
X350134Y264998D01*
X349717D01*
X350550Y265415D02*
Y266248D01*
X113724Y169828D02*
Y169412D01*
X114557Y168579D01*
X115390Y169412D01*
Y169828D01*
X114557Y168579D02*
Y167329D01*
X116223D02*
X117056D01*
X116639D01*
Y169828D01*
X116223Y169412D01*
X63500Y179400D02*
Y181899D01*
X64750D01*
X65166Y181483D01*
Y180650D01*
X64750Y180233D01*
X63500D01*
X64333D02*
X65166Y179400D01*
X65999D02*
X66832D01*
X66416D01*
Y181899D01*
X65999Y181483D01*
X62600Y182800D02*
Y185299D01*
X63850D01*
X64266Y184883D01*
Y184050D01*
X63850Y183633D01*
X62600D01*
X63433D02*
X64266Y182800D01*
X66765D02*
X65099D01*
X66765Y184466D01*
Y184883D01*
X66349Y185299D01*
X65516D01*
X65099Y184883D01*
X54566Y124483D02*
X54150Y124899D01*
X53316D01*
X52900Y124483D01*
Y122817D01*
X53316Y122400D01*
X54150D01*
X54566Y122817D01*
X57065Y122400D02*
X55399D01*
X57065Y124066D01*
Y124483D01*
X56649Y124899D01*
X55816D01*
X55399Y124483D01*
X297100Y159299D02*
Y156800D01*
X298350D01*
X298766Y157217D01*
Y158883D01*
X298350Y159299D01*
X297100D01*
X299599D02*
X301265D01*
Y158883D01*
X299599Y157217D01*
Y156800D01*
X195116Y188798D02*
X194700Y189215D01*
X193867D01*
X193450Y188798D01*
Y187132D01*
X193867Y186716D01*
X194700D01*
X195116Y187132D01*
X197616Y186716D02*
X195950D01*
X197616Y188382D01*
Y188798D01*
X197199Y189215D01*
X196366D01*
X195950Y188798D01*
X200115Y189215D02*
X199282Y188798D01*
X198449Y187965D01*
Y187132D01*
X198865Y186716D01*
X199698D01*
X200115Y187132D01*
Y187549D01*
X199698Y187965D01*
X198449D01*
X165707Y191078D02*
X165291Y190661D01*
Y189828D01*
X165707Y189412D01*
X167373D01*
X167790Y189828D01*
Y190661D01*
X167373Y191078D01*
X165291Y193577D02*
Y191911D01*
X166540D01*
X166124Y192744D01*
Y193161D01*
X166540Y193577D01*
X167373D01*
X167790Y193161D01*
Y192327D01*
X167373Y191911D01*
X167790Y196076D02*
Y194410D01*
X166124Y196076D01*
X165707D01*
X165291Y195660D01*
Y194827D01*
X165707Y194410D01*
X289966Y39883D02*
X289550Y40299D01*
X288717D01*
X288300Y39883D01*
Y38217D01*
X288717Y37800D01*
X289550D01*
X289966Y38217D01*
X292465Y40299D02*
X291632Y39883D01*
X290799Y39050D01*
Y38217D01*
X291216Y37800D01*
X292049D01*
X292465Y38217D01*
Y38633D01*
X292049Y39050D01*
X290799D01*
X293298Y39883D02*
X293715Y40299D01*
X294548D01*
X294965Y39883D01*
Y38217D01*
X294548Y37800D01*
X293715D01*
X293298Y38217D01*
Y39883D01*
X319466Y125183D02*
X319050Y125599D01*
X318216D01*
X317800Y125183D01*
Y123516D01*
X318216Y123100D01*
X319050D01*
X319466Y123516D01*
X321965Y125599D02*
X321132Y125183D01*
X320299Y124350D01*
Y123516D01*
X320716Y123100D01*
X321549D01*
X321965Y123516D01*
Y123933D01*
X321549Y124350D01*
X320299D01*
X324465Y123100D02*
X322798D01*
X324465Y124766D01*
Y125183D01*
X324048Y125599D01*
X323215D01*
X322798Y125183D01*
X290100Y144500D02*
X287601D01*
Y145750D01*
X288017Y146166D01*
X288850D01*
X289267Y145750D01*
Y144500D01*
Y145333D02*
X290100Y146166D01*
X289684Y146999D02*
X290100Y147416D01*
Y148249D01*
X289684Y148665D01*
X288017D01*
X287601Y148249D01*
Y147416D01*
X288017Y146999D01*
X288434D01*
X288850Y147416D01*
Y148665D01*
X273800Y147800D02*
Y150299D01*
X275050D01*
X275466Y149883D01*
Y149050D01*
X275050Y148633D01*
X273800D01*
X274633D02*
X275466Y147800D01*
X276299D02*
X277132D01*
X276716D01*
Y150299D01*
X276299Y149883D01*
X280048Y150299D02*
X279215Y149883D01*
X278382Y149050D01*
Y148216D01*
X278798Y147800D01*
X279631D01*
X280048Y148216D01*
Y148633D01*
X279631Y149050D01*
X278382D01*
X273501Y112900D02*
X276000D01*
Y114150D01*
X275584Y114566D01*
X273917D01*
X273501Y114150D01*
Y112900D01*
Y117065D02*
X273917Y116232D01*
X274750Y115399D01*
X275584D01*
X276000Y115816D01*
Y116649D01*
X275584Y117065D01*
X275167D01*
X274750Y116649D01*
Y115399D01*
X346000Y210499D02*
Y208000D01*
X347250D01*
X347666Y208417D01*
Y210083D01*
X347250Y210499D01*
X346000D01*
X348499Y208000D02*
X349332D01*
X348916D01*
Y210499D01*
X348499Y210083D01*
X350582D02*
X350998Y210499D01*
X351831D01*
X352248Y210083D01*
Y208417D01*
X351831Y208000D01*
X350998D01*
X350582Y208417D01*
Y210083D01*
X97300Y145599D02*
Y143517D01*
X97716Y143100D01*
X98550D01*
X98966Y143517D01*
Y145599D01*
X99799Y143100D02*
X100632D01*
X100216D01*
Y145599D01*
X99799Y145183D01*
X101882D02*
X102298Y145599D01*
X103131D01*
X103548Y145183D01*
Y143517D01*
X103131Y143100D01*
X102298D01*
X101882Y143517D01*
Y145183D01*
X46100Y177700D02*
Y180199D01*
X47350D01*
X47766Y179783D01*
Y178950D01*
X47350Y178533D01*
X46100D01*
X46933D02*
X47766Y177700D01*
X48599Y180199D02*
X50265D01*
Y179783D01*
X48599Y178117D01*
Y177700D01*
X52764D02*
X51098D01*
X52764Y179366D01*
Y179783D01*
X52348Y180199D01*
X51515D01*
X51098Y179783D01*
X78217Y122066D02*
X77801Y121650D01*
Y120817D01*
X78217Y120400D01*
X79883D01*
X80300Y120817D01*
Y121650D01*
X79883Y122066D01*
X77801Y124565D02*
X78217Y123732D01*
X79050Y122899D01*
X79883D01*
X80300Y123316D01*
Y124149D01*
X79883Y124565D01*
X79467D01*
X79050Y124149D01*
Y122899D01*
X77801Y125398D02*
Y127065D01*
X78217D01*
X79883Y125398D01*
X80300D01*
X122317Y122566D02*
X121901Y122150D01*
Y121317D01*
X122317Y120900D01*
X123984D01*
X124400Y121317D01*
Y122150D01*
X123984Y122566D01*
X121901Y125065D02*
X122317Y124232D01*
X123150Y123399D01*
X123984D01*
X124400Y123816D01*
Y124649D01*
X123984Y125065D01*
X123567D01*
X123150Y124649D01*
Y123399D01*
X122317Y125898D02*
X121901Y126315D01*
Y127148D01*
X122317Y127565D01*
X122734D01*
X123150Y127148D01*
X123567Y127565D01*
X123984D01*
X124400Y127148D01*
Y126315D01*
X123984Y125898D01*
X123567D01*
X123150Y126315D01*
X122734Y125898D01*
X122317D01*
X123150Y126315D02*
Y127148D01*
X125717Y141666D02*
X125301Y141250D01*
Y140417D01*
X125717Y140000D01*
X127383D01*
X127800Y140417D01*
Y141250D01*
X127383Y141666D01*
X125301Y144165D02*
X125717Y143332D01*
X126550Y142499D01*
X127383D01*
X127800Y142916D01*
Y143749D01*
X127383Y144165D01*
X126967D01*
X126550Y143749D01*
Y142499D01*
X127383Y144998D02*
X127800Y145415D01*
Y146248D01*
X127383Y146665D01*
X125717D01*
X125301Y146248D01*
Y145415D01*
X125717Y144998D01*
X126134D01*
X126550Y145415D01*
Y146665D01*
X88566Y147783D02*
X88150Y148199D01*
X87317D01*
X86900Y147783D01*
Y146116D01*
X87317Y145700D01*
X88150D01*
X88566Y146116D01*
X89399Y148199D02*
X91065D01*
Y147783D01*
X89399Y146116D01*
Y145700D01*
X91898Y147783D02*
X92315Y148199D01*
X93148D01*
X93564Y147783D01*
Y146116D01*
X93148Y145700D01*
X92315D01*
X91898Y146116D01*
Y147783D01*
X142800Y202300D02*
X145299D01*
Y201050D01*
X144883Y200634D01*
X144050D01*
X143633Y201050D01*
Y202300D01*
Y201467D02*
X142800Y200634D01*
X144883Y199801D02*
X145299Y199384D01*
Y198551D01*
X144883Y198135D01*
X144466D01*
X144050Y198551D01*
Y198968D01*
Y198551D01*
X143633Y198135D01*
X143217D01*
X142800Y198551D01*
Y199384D01*
X143217Y199801D01*
X142800Y196052D02*
X145299D01*
X144050Y197302D01*
Y195635D01*
X203500Y127999D02*
Y125500D01*
X204750D01*
X205166Y125917D01*
Y127583D01*
X204750Y127999D01*
X203500D01*
X205999Y125500D02*
X206832D01*
X206416D01*
Y127999D01*
X205999Y127583D01*
X208082D02*
X208498Y127999D01*
X209331D01*
X209748Y127583D01*
Y127166D01*
X209331Y126750D01*
X208915D01*
X209331D01*
X209748Y126333D01*
Y125917D01*
X209331Y125500D01*
X208498D01*
X208082Y125917D01*
X225000Y150599D02*
Y148100D01*
X226250D01*
X226666Y148516D01*
Y150183D01*
X226250Y150599D01*
X225000D01*
X227499Y148100D02*
X228332D01*
X227916D01*
Y150599D01*
X227499Y150183D01*
X229582Y148100D02*
X230415D01*
X229998D01*
Y150599D01*
X229582Y150183D01*
X224600Y176100D02*
Y178599D01*
X225850D01*
X226266Y178183D01*
Y177350D01*
X225850Y176933D01*
X224600D01*
X225433D02*
X226266Y176100D01*
X227099Y178183D02*
X227516Y178599D01*
X228349D01*
X228765Y178183D01*
Y177766D01*
X228349Y177350D01*
X227932D01*
X228349D01*
X228765Y176933D01*
Y176516D01*
X228349Y176100D01*
X227516D01*
X227099Y176516D01*
X231264Y176100D02*
X229598D01*
X231264Y177766D01*
Y178183D01*
X230848Y178599D01*
X230015D01*
X229598Y178183D01*
X211300Y144500D02*
X208801D01*
Y145750D01*
X209217Y146166D01*
X210050D01*
X210467Y145750D01*
Y144500D01*
Y145333D02*
X211300Y146166D01*
X209217Y146999D02*
X208801Y147416D01*
Y148249D01*
X209217Y148665D01*
X209634D01*
X210050Y148249D01*
Y147832D01*
Y148249D01*
X210467Y148665D01*
X210883D01*
X211300Y148249D01*
Y147416D01*
X210883Y146999D01*
X208801Y149498D02*
Y151164D01*
X209217D01*
X210883Y149498D01*
X211300D01*
X39066Y179783D02*
X38650Y180199D01*
X37817D01*
X37400Y179783D01*
Y178117D01*
X37817Y177700D01*
X38650D01*
X39066Y178117D01*
X41565Y180199D02*
X40732Y179783D01*
X39899Y178950D01*
Y178117D01*
X40316Y177700D01*
X41149D01*
X41565Y178117D01*
Y178533D01*
X41149Y178950D01*
X39899D01*
X42398Y179783D02*
X42815Y180199D01*
X43648D01*
X44065Y179783D01*
Y179366D01*
X43648Y178950D01*
X43231D01*
X43648D01*
X44065Y178533D01*
Y178117D01*
X43648Y177700D01*
X42815D01*
X42398Y178117D01*
X37501Y206300D02*
X40000D01*
Y207550D01*
X39584Y207966D01*
X37917D01*
X37501Y207550D01*
Y206300D01*
X37917Y208799D02*
X37501Y209216D01*
Y210049D01*
X37917Y210465D01*
X38334D01*
X38750Y210049D01*
Y209632D01*
Y210049D01*
X39167Y210465D01*
X39584D01*
X40000Y210049D01*
Y209216D01*
X39584Y208799D01*
X49201Y209900D02*
X51700D01*
Y211150D01*
X51284Y211566D01*
X49617D01*
X49201Y211150D01*
Y209900D01*
X51700Y213649D02*
X49201D01*
X50450Y212399D01*
Y214065D01*
X168300Y107000D02*
Y109499D01*
X169550D01*
X169966Y109083D01*
Y108250D01*
X169550Y107833D01*
X168300D01*
X169133D02*
X169966Y107000D01*
X170799D02*
Y109499D01*
X172465Y107000D01*
Y109499D01*
X173298Y107000D02*
X174131D01*
X173715D01*
Y109499D01*
X173298Y109083D01*
X187666Y97683D02*
X187250Y98099D01*
X186416D01*
X186000Y97683D01*
Y96017D01*
X186416Y95600D01*
X187250D01*
X187666Y96017D01*
X188499Y95600D02*
X189332D01*
X188916D01*
Y98099D01*
X188499Y97683D01*
X190582Y96017D02*
X190998Y95600D01*
X191831D01*
X192248Y96017D01*
Y97683D01*
X191831Y98099D01*
X190998D01*
X190582Y97683D01*
Y97266D01*
X190998Y96850D01*
X192248D01*
X193766Y78283D02*
X193350Y78699D01*
X192517D01*
X192100Y78283D01*
Y76617D01*
X192517Y76200D01*
X193350D01*
X193766Y76617D01*
X196265Y76200D02*
X194599D01*
X196265Y77866D01*
Y78283D01*
X195849Y78699D01*
X195016D01*
X194599Y78283D01*
X197098D02*
X197515Y78699D01*
X198348D01*
X198765Y78283D01*
Y76617D01*
X198348Y76200D01*
X197515D01*
X197098Y76617D01*
Y78283D01*
X157500Y86100D02*
Y88599D01*
X158750D01*
X159166Y88183D01*
Y87350D01*
X158750Y86933D01*
X157500D01*
X158333D02*
X159166Y86100D01*
X159999D02*
Y88599D01*
X161665Y86100D01*
Y88599D01*
X164164Y86100D02*
X162498D01*
X164164Y87766D01*
Y88183D01*
X163748Y88599D01*
X162915D01*
X162498Y88183D01*
X163700Y66800D02*
X161201D01*
Y68050D01*
X161617Y68466D01*
X162450D01*
X162867Y68050D01*
Y66800D01*
Y67633D02*
X163700Y68466D01*
Y69299D02*
X161201D01*
X163700Y70965D01*
X161201D01*
X161617Y71798D02*
X161201Y72215D01*
Y73048D01*
X161617Y73465D01*
X162034D01*
X162450Y73048D01*
Y72631D01*
Y73048D01*
X162867Y73465D01*
X163284D01*
X163700Y73048D01*
Y72215D01*
X163284Y71798D01*
X180266Y97683D02*
X179850Y98099D01*
X179016D01*
X178600Y97683D01*
Y96017D01*
X179016Y95600D01*
X179850D01*
X180266Y96017D01*
X182765Y95600D02*
X181099D01*
X182765Y97266D01*
Y97683D01*
X182349Y98099D01*
X181516D01*
X181099Y97683D01*
X183598Y95600D02*
X184431D01*
X184015D01*
Y98099D01*
X183598Y97683D01*
X185266Y78483D02*
X184850Y78899D01*
X184017D01*
X183600Y78483D01*
Y76816D01*
X184017Y76400D01*
X184850D01*
X185266Y76816D01*
X187765Y76400D02*
X186099D01*
X187765Y78066D01*
Y78483D01*
X187349Y78899D01*
X186516D01*
X186099Y78483D01*
X190264Y76400D02*
X188598D01*
X190264Y78066D01*
Y78483D01*
X189848Y78899D01*
X189015D01*
X188598Y78483D01*
X161617Y97066D02*
X161201Y96650D01*
Y95816D01*
X161617Y95400D01*
X163284D01*
X163700Y95816D01*
Y96650D01*
X163284Y97066D01*
X163700Y99149D02*
X161201D01*
X162450Y97899D01*
Y99565D01*
X161201Y100398D02*
Y102065D01*
X161617D01*
X163284Y100398D01*
X163700D01*
X157217Y73066D02*
X156801Y72650D01*
Y71816D01*
X157217Y71400D01*
X158884D01*
X159300Y71816D01*
Y72650D01*
X158884Y73066D01*
X159300Y75149D02*
X156801D01*
X158050Y73899D01*
Y75565D01*
X157217Y76398D02*
X156801Y76815D01*
Y77648D01*
X157217Y78065D01*
X157634D01*
X158050Y77648D01*
X158467Y78065D01*
X158884D01*
X159300Y77648D01*
Y76815D01*
X158884Y76398D01*
X158467D01*
X158050Y76815D01*
X157634Y76398D01*
X157217D01*
X158050Y76815D02*
Y77648D01*
X208066Y163883D02*
X207650Y164299D01*
X206817D01*
X206400Y163883D01*
Y162216D01*
X206817Y161800D01*
X207650D01*
X208066Y162216D01*
X210149Y161800D02*
Y164299D01*
X208899Y163050D01*
X210565D01*
X216200Y190699D02*
Y188200D01*
X217450D01*
X217866Y188617D01*
Y190283D01*
X217450Y190699D01*
X216200D01*
X218699Y188200D02*
X219532D01*
X219116D01*
Y190699D01*
X218699Y190283D01*
X215300Y194099D02*
Y191600D01*
X216550D01*
X216966Y192016D01*
Y193683D01*
X216550Y194099D01*
X215300D01*
X219465D02*
X217799D01*
Y192850D01*
X218632Y193266D01*
X219049D01*
X219465Y192850D01*
Y192016D01*
X219049Y191600D01*
X218216D01*
X217799Y192016D01*
X214000Y109300D02*
X211501D01*
Y110550D01*
X211917Y110966D01*
X212750D01*
X213167Y110550D01*
Y109300D01*
Y110133D02*
X214000Y110966D01*
X211501Y113465D02*
Y111799D01*
X212750D01*
X212334Y112632D01*
Y113049D01*
X212750Y113465D01*
X213583D01*
X214000Y113049D01*
Y112216D01*
X213583Y111799D01*
X213700Y178500D02*
X211201D01*
Y179750D01*
X211617Y180166D01*
X212450D01*
X212867Y179750D01*
Y178500D01*
Y179333D02*
X213700Y180166D01*
X211201Y182665D02*
X211617Y181832D01*
X212450Y180999D01*
X213283D01*
X213700Y181416D01*
Y182249D01*
X213283Y182665D01*
X212867D01*
X212450Y182249D01*
Y180999D01*
X286101Y151500D02*
X288600D01*
Y153166D01*
X286101Y155665D02*
Y153999D01*
X288600D01*
Y155665D01*
X287350Y153999D02*
Y154832D01*
X286101Y156498D02*
X288600D01*
Y157748D01*
X288183Y158165D01*
X286517D01*
X286101Y157748D01*
Y156498D01*
X286517Y158998D02*
X286101Y159414D01*
Y160247D01*
X286517Y160664D01*
X286934D01*
X287350Y160247D01*
Y159831D01*
Y160247D01*
X287767Y160664D01*
X288183D01*
X288600Y160247D01*
Y159414D01*
X288183Y158998D01*
X290700Y202577D02*
X288200D01*
Y203827D01*
X288617Y204244D01*
X289450D01*
X289867Y203827D01*
Y202577D01*
Y203411D02*
X290700Y204244D01*
Y206743D02*
Y205077D01*
X289034Y206743D01*
X288617D01*
X288200Y206326D01*
Y205493D01*
X288617Y205077D01*
X290700Y207576D02*
Y208409D01*
Y207992D01*
X288200D01*
X288617Y207576D01*
X363666Y8183D02*
X363250Y8599D01*
X362417D01*
X362000Y8183D01*
Y6516D01*
X362417Y6100D01*
X363250D01*
X363666Y6516D01*
X364499Y8183D02*
X364916Y8599D01*
X365749D01*
X366165Y8183D01*
Y7766D01*
X365749Y7350D01*
X365332D01*
X365749D01*
X366165Y6933D01*
Y6516D01*
X365749Y6100D01*
X364916D01*
X364499Y6516D01*
X320766Y83799D02*
X319100D01*
Y82550D01*
X319933D01*
X319100D01*
Y81300D01*
X321599Y83799D02*
Y81300D01*
X322849D01*
X323265Y81717D01*
Y82133D01*
X322849Y82550D01*
X321599D01*
X322849D01*
X323265Y82966D01*
Y83383D01*
X322849Y83799D01*
X321599D01*
X325764Y81300D02*
X324098D01*
X325764Y82966D01*
Y83383D01*
X325348Y83799D01*
X324515D01*
X324098Y83383D01*
X367901Y9866D02*
Y8200D01*
X369150D01*
Y9033D01*
Y8200D01*
X370400D01*
X367901Y10699D02*
X370400D01*
Y11949D01*
X369984Y12365D01*
X369567D01*
X369150Y11949D01*
Y10699D01*
Y11949D01*
X368734Y12365D01*
X368317D01*
X367901Y11949D01*
Y10699D01*
X370400Y13198D02*
Y14031D01*
Y13615D01*
X367901D01*
X368317Y13198D01*
X301966Y216883D02*
X301550Y217299D01*
X300716D01*
X300300Y216883D01*
Y215216D01*
X300716Y214800D01*
X301550D01*
X301966Y215216D01*
X304465Y214800D02*
X302799D01*
X304465Y216466D01*
Y216883D01*
X304049Y217299D01*
X303216D01*
X302799Y216883D01*
X306964Y217299D02*
X305298D01*
Y216050D01*
X306131Y216466D01*
X306548D01*
X306964Y216050D01*
Y215216D01*
X306548Y214800D01*
X305715D01*
X305298Y215216D01*
X319166Y222583D02*
X318750Y222999D01*
X317916D01*
X317500Y222583D01*
Y220917D01*
X317916Y220500D01*
X318750D01*
X319166Y220917D01*
X319999Y222583D02*
X320416Y222999D01*
X321249D01*
X321665Y222583D01*
Y222166D01*
X321249Y221750D01*
X320832D01*
X321249D01*
X321665Y221333D01*
Y220917D01*
X321249Y220500D01*
X320416D01*
X319999Y220917D01*
X322498Y222583D02*
X322915Y222999D01*
X323748D01*
X324165Y222583D01*
Y220917D01*
X323748Y220500D01*
X322915D01*
X322498Y220917D01*
Y222583D01*
X343117Y227166D02*
X342701Y226750D01*
Y225917D01*
X343117Y225500D01*
X344783D01*
X345200Y225917D01*
Y226750D01*
X344783Y227166D01*
X343117Y227999D02*
X342701Y228416D01*
Y229249D01*
X343117Y229665D01*
X343534D01*
X343950Y229249D01*
Y228832D01*
Y229249D01*
X344367Y229665D01*
X344783D01*
X345200Y229249D01*
Y228416D01*
X344783Y227999D01*
X342701Y232165D02*
Y230498D01*
X343950D01*
X343534Y231331D01*
Y231748D01*
X343950Y232165D01*
X344783D01*
X345200Y231748D01*
Y230915D01*
X344783Y230498D01*
X305517Y234266D02*
X305101Y233850D01*
Y233016D01*
X305517Y232600D01*
X307184D01*
X307600Y233016D01*
Y233850D01*
X307184Y234266D01*
X307600Y236349D02*
X305101D01*
X306350Y235099D01*
Y236765D01*
X305517Y237598D02*
X305101Y238015D01*
Y238848D01*
X305517Y239264D01*
X307184D01*
X307600Y238848D01*
Y238015D01*
X307184Y237598D01*
X305517D01*
X291266Y221183D02*
X290850Y221599D01*
X290017D01*
X289600Y221183D01*
Y219516D01*
X290017Y219100D01*
X290850D01*
X291266Y219516D01*
X293349Y219100D02*
Y221599D01*
X292099Y220350D01*
X293765D01*
X296265Y221599D02*
X294598D01*
Y220350D01*
X295431Y220766D01*
X295848D01*
X296265Y220350D01*
Y219516D01*
X295848Y219100D01*
X295015D01*
X294598Y219516D01*
X342266Y251283D02*
X341850Y251699D01*
X341017D01*
X340600Y251283D01*
Y249617D01*
X341017Y249200D01*
X341850D01*
X342266Y249617D01*
X344349Y249200D02*
Y251699D01*
X343099Y250450D01*
X344765D01*
X345598Y249617D02*
X346015Y249200D01*
X346848D01*
X347265Y249617D01*
Y251283D01*
X346848Y251699D01*
X346015D01*
X345598Y251283D01*
Y250866D01*
X346015Y250450D01*
X347265D01*
X298100Y249599D02*
Y247100D01*
X299350D01*
X299766Y247516D01*
Y249183D01*
X299350Y249599D01*
X298100D01*
X300599Y247516D02*
X301016Y247100D01*
X301849D01*
X302265Y247516D01*
Y249183D01*
X301849Y249599D01*
X301016D01*
X300599Y249183D01*
Y248766D01*
X301016Y248350D01*
X302265D01*
X295800Y244676D02*
Y242177D01*
X297466D01*
X298299D02*
X299132D01*
X298716D01*
Y244676D01*
X298299Y244260D01*
X342600Y237700D02*
Y240199D01*
X343850D01*
X344266Y239783D01*
Y238950D01*
X343850Y238533D01*
X342600D01*
X343433D02*
X344266Y237700D01*
X345099Y239783D02*
X345516Y240199D01*
X346349D01*
X346765Y239783D01*
Y239366D01*
X346349Y238950D01*
X345932D01*
X346349D01*
X346765Y238533D01*
Y238117D01*
X346349Y237700D01*
X345516D01*
X345099Y238117D01*
X342600Y240500D02*
X340101D01*
Y241750D01*
X340517Y242166D01*
X341350D01*
X341767Y241750D01*
Y240500D01*
Y241333D02*
X342600Y242166D01*
Y242999D02*
Y243832D01*
Y243416D01*
X340101D01*
X340517Y242999D01*
X342600Y245082D02*
Y245915D01*
Y245498D01*
X340101D01*
X340517Y245082D01*
X327454Y246517D02*
X329954D01*
Y245268D01*
X329537Y244851D01*
X328704D01*
X328287Y245268D01*
Y246517D01*
Y245684D02*
X327454Y244851D01*
Y242352D02*
Y244018D01*
X329120Y242352D01*
X329537D01*
X329954Y242769D01*
Y243602D01*
X329537Y244018D01*
Y241519D02*
X329954Y241102D01*
Y240269D01*
X329537Y239853D01*
X329120D01*
X328704Y240269D01*
Y240686D01*
Y240269D01*
X328287Y239853D01*
X327871D01*
X327454Y240269D01*
Y241102D01*
X327871Y241519D01*
X331463Y247117D02*
X333962D01*
Y245867D01*
X333546Y245451D01*
X332713D01*
X332296Y245867D01*
Y247117D01*
Y246284D02*
X331463Y245451D01*
Y242951D02*
Y244618D01*
X333129Y242951D01*
X333546D01*
X333962Y243368D01*
Y244201D01*
X333546Y244618D01*
X331463Y240869D02*
X333962D01*
X332713Y242118D01*
Y240452D01*
X376117Y29766D02*
X375701Y29350D01*
Y28517D01*
X376117Y28100D01*
X377783D01*
X378200Y28517D01*
Y29350D01*
X377783Y29766D01*
X376117Y30599D02*
X375701Y31016D01*
Y31849D01*
X376117Y32265D01*
X376534D01*
X376950Y31849D01*
X377367Y32265D01*
X377783D01*
X378200Y31849D01*
Y31016D01*
X377783Y30599D01*
X377367D01*
X376950Y31016D01*
X376534Y30599D01*
X376117D01*
X376950Y31016D02*
Y31849D01*
X378200Y34348D02*
X375701D01*
X376950Y33098D01*
Y34765D01*
X374817Y19966D02*
X374401Y19550D01*
Y18717D01*
X374817Y18300D01*
X376483D01*
X376900Y18717D01*
Y19550D01*
X376483Y19966D01*
X374817Y20799D02*
X374401Y21216D01*
Y22049D01*
X374817Y22465D01*
X375234D01*
X375650Y22049D01*
X376067Y22465D01*
X376483D01*
X376900Y22049D01*
Y21216D01*
X376483Y20799D01*
X376067D01*
X375650Y21216D01*
X375234Y20799D01*
X374817D01*
X375650Y21216D02*
Y22049D01*
X374401Y24964D02*
Y23298D01*
X375650D01*
X375234Y24131D01*
Y24548D01*
X375650Y24964D01*
X376483D01*
X376900Y24548D01*
Y23715D01*
X376483Y23298D01*
X350717Y92166D02*
X350301Y91750D01*
Y90917D01*
X350717Y90500D01*
X352383D01*
X352800Y90917D01*
Y91750D01*
X352383Y92166D01*
X350717Y92999D02*
X350301Y93416D01*
Y94249D01*
X350717Y94665D01*
X351134D01*
X351550Y94249D01*
X351967Y94665D01*
X352383D01*
X352800Y94249D01*
Y93416D01*
X352383Y92999D01*
X351967D01*
X351550Y93416D01*
X351134Y92999D01*
X350717D01*
X351550Y93416D02*
Y94249D01*
X350301Y97164D02*
X350717Y96331D01*
X351550Y95498D01*
X352383D01*
X352800Y95915D01*
Y96748D01*
X352383Y97164D01*
X351967D01*
X351550Y96748D01*
Y95498D01*
X328466Y98483D02*
X328050Y98899D01*
X327217D01*
X326800Y98483D01*
Y96816D01*
X327217Y96400D01*
X328050D01*
X328466Y96816D01*
X329299Y98483D02*
X329716Y98899D01*
X330549D01*
X330965Y98483D01*
Y98066D01*
X330549Y97650D01*
X330965Y97233D01*
Y96816D01*
X330549Y96400D01*
X329716D01*
X329299Y96816D01*
Y97233D01*
X329716Y97650D01*
X329299Y98066D01*
Y98483D01*
X329716Y97650D02*
X330549D01*
X331798Y98899D02*
X333465D01*
Y98483D01*
X331798Y96816D01*
Y96400D01*
X334166Y101783D02*
X333750Y102199D01*
X332916D01*
X332500Y101783D01*
Y100117D01*
X332916Y99700D01*
X333750D01*
X334166Y100117D01*
X334999Y101783D02*
X335416Y102199D01*
X336249D01*
X336665Y101783D01*
Y101366D01*
X336249Y100950D01*
X336665Y100533D01*
Y100117D01*
X336249Y99700D01*
X335416D01*
X334999Y100117D01*
Y100533D01*
X335416Y100950D01*
X334999Y101366D01*
Y101783D01*
X335416Y100950D02*
X336249D01*
X337498Y101783D02*
X337915Y102199D01*
X338748D01*
X339164Y101783D01*
Y101366D01*
X338748Y100950D01*
X339164Y100533D01*
Y100117D01*
X338748Y99700D01*
X337915D01*
X337498Y100117D01*
Y100533D01*
X337915Y100950D01*
X337498Y101366D01*
Y101783D01*
X337915Y100950D02*
X338748D01*
X303317Y104766D02*
X302901Y104350D01*
Y103516D01*
X303317Y103100D01*
X304983D01*
X305400Y103516D01*
Y104350D01*
X304983Y104766D01*
X303317Y105599D02*
X302901Y106016D01*
Y106849D01*
X303317Y107265D01*
X303734D01*
X304150Y106849D01*
X304567Y107265D01*
X304983D01*
X305400Y106849D01*
Y106016D01*
X304983Y105599D01*
X304567D01*
X304150Y106016D01*
X303734Y105599D01*
X303317D01*
X304150Y106016D02*
Y106849D01*
X304983Y108098D02*
X305400Y108515D01*
Y109348D01*
X304983Y109765D01*
X303317D01*
X302901Y109348D01*
Y108515D01*
X303317Y108098D01*
X303734D01*
X304150Y108515D01*
Y109765D01*
X101317Y83266D02*
X100901Y82850D01*
Y82016D01*
X101317Y81600D01*
X102983D01*
X103400Y82016D01*
Y82850D01*
X102983Y83266D01*
X103400Y85765D02*
Y84099D01*
X101734Y85765D01*
X101317D01*
X100901Y85349D01*
Y84516D01*
X101317Y84099D01*
Y86598D02*
X100901Y87015D01*
Y87848D01*
X101317Y88265D01*
X101734D01*
X102150Y87848D01*
X102567Y88265D01*
X102983D01*
X103400Y87848D01*
Y87015D01*
X102983Y86598D01*
X102567D01*
X102150Y87015D01*
X101734Y86598D01*
X101317D01*
X102150Y87015D02*
Y87848D01*
X94266Y74483D02*
X93850Y74899D01*
X93016D01*
X92600Y74483D01*
Y72816D01*
X93016Y72400D01*
X93850D01*
X94266Y72816D01*
X96765Y72400D02*
X95099D01*
X96765Y74066D01*
Y74483D01*
X96349Y74899D01*
X95516D01*
X95099Y74483D01*
X97598Y72816D02*
X98015Y72400D01*
X98848D01*
X99265Y72816D01*
Y74483D01*
X98848Y74899D01*
X98015D01*
X97598Y74483D01*
Y74066D01*
X98015Y73650D01*
X99265D01*
X91517Y66466D02*
X91101Y66050D01*
Y65216D01*
X91517Y64800D01*
X93183D01*
X93600Y65216D01*
Y66050D01*
X93183Y66466D01*
X91101Y68965D02*
Y67299D01*
X92350D01*
X91934Y68132D01*
Y68549D01*
X92350Y68965D01*
X93183D01*
X93600Y68549D01*
Y67716D01*
X93183Y67299D01*
X93600Y69798D02*
Y70631D01*
Y70215D01*
X91101D01*
X91517Y69798D01*
X56417Y59666D02*
X56001Y59250D01*
Y58416D01*
X56417Y58000D01*
X58083D01*
X58500Y58416D01*
Y59250D01*
X58083Y59666D01*
X56001Y62165D02*
Y60499D01*
X57250D01*
X56834Y61332D01*
Y61749D01*
X57250Y62165D01*
X58083D01*
X58500Y61749D01*
Y60916D01*
X58083Y60499D01*
X56417Y62998D02*
X56001Y63415D01*
Y64248D01*
X56417Y64665D01*
X56834D01*
X57250Y64248D01*
Y63831D01*
Y64248D01*
X57667Y64665D01*
X58083D01*
X58500Y64248D01*
Y63415D01*
X58083Y62998D01*
X94066Y81383D02*
X93650Y81799D01*
X92817D01*
X92400Y81383D01*
Y79716D01*
X92817Y79300D01*
X93650D01*
X94066Y79716D01*
X96565Y81799D02*
X94899D01*
Y80550D01*
X95732Y80966D01*
X96149D01*
X96565Y80550D01*
Y79716D01*
X96149Y79300D01*
X95316D01*
X94899Y79716D01*
X98648Y79300D02*
Y81799D01*
X97398Y80550D01*
X99064D01*
X86366Y57983D02*
X85950Y58399D01*
X85116D01*
X84700Y57983D01*
Y56317D01*
X85116Y55900D01*
X85950D01*
X86366Y56317D01*
X88865Y58399D02*
X88032Y57983D01*
X87199Y57150D01*
Y56317D01*
X87616Y55900D01*
X88449D01*
X88865Y56317D01*
Y56733D01*
X88449Y57150D01*
X87199D01*
X89698Y55900D02*
X90531D01*
X90115D01*
Y58399D01*
X89698Y57983D01*
X132866Y30783D02*
X132450Y31199D01*
X131616D01*
X131200Y30783D01*
Y29116D01*
X131616Y28700D01*
X132450D01*
X132866Y29116D01*
X135365Y31199D02*
X134532Y30783D01*
X133699Y29950D01*
Y29116D01*
X134116Y28700D01*
X134949D01*
X135365Y29116D01*
Y29533D01*
X134949Y29950D01*
X133699D01*
X137864Y31199D02*
X136198D01*
Y29950D01*
X137031Y30366D01*
X137448D01*
X137864Y29950D01*
Y29116D01*
X137448Y28700D01*
X136615D01*
X136198Y29116D01*
X94366Y33683D02*
X93950Y34099D01*
X93116D01*
X92700Y33683D01*
Y32017D01*
X93116Y31600D01*
X93950D01*
X94366Y32017D01*
X96865Y34099D02*
X96032Y33683D01*
X95199Y32850D01*
Y32017D01*
X95616Y31600D01*
X96449D01*
X96865Y32017D01*
Y32433D01*
X96449Y32850D01*
X95199D01*
X99365Y34099D02*
X98531Y33683D01*
X97698Y32850D01*
Y32017D01*
X98115Y31600D01*
X98948D01*
X99365Y32017D01*
Y32433D01*
X98948Y32850D01*
X97698D01*
X71917Y104166D02*
X71501Y103750D01*
Y102917D01*
X71917Y102500D01*
X73584D01*
X74000Y102917D01*
Y103750D01*
X73584Y104166D01*
X71501Y104999D02*
Y106665D01*
X71917D01*
X73584Y104999D01*
X74000D01*
Y107498D02*
Y108331D01*
Y107915D01*
X71501D01*
X71917Y107498D01*
X82266Y35883D02*
X81850Y36299D01*
X81016D01*
X80600Y35883D01*
Y34216D01*
X81016Y33800D01*
X81850D01*
X82266Y34216D01*
X83099Y33800D02*
X83932D01*
X83516D01*
Y36299D01*
X83099Y35883D01*
X85182D02*
X85598Y36299D01*
X86431D01*
X86848Y35883D01*
Y34216D01*
X86431Y33800D01*
X85598D01*
X85182Y34216D01*
Y35883D01*
X89347Y36299D02*
X88514Y35883D01*
X87681Y35050D01*
Y34216D01*
X88098Y33800D01*
X88931D01*
X89347Y34216D01*
Y34633D01*
X88931Y35050D01*
X87681D01*
X49917Y50866D02*
X49501Y50450D01*
Y49617D01*
X49917Y49200D01*
X51583D01*
X52000Y49617D01*
Y50450D01*
X51583Y50866D01*
X52000Y51699D02*
Y52532D01*
Y52116D01*
X49501D01*
X49917Y51699D01*
Y53782D02*
X49501Y54198D01*
Y55031D01*
X49917Y55448D01*
X51583D01*
X52000Y55031D01*
Y54198D01*
X51583Y53782D01*
X49917D01*
X49501Y56281D02*
Y57947D01*
X49917D01*
X51583Y56281D01*
X52000D01*
X75517Y33866D02*
X75101Y33450D01*
Y32616D01*
X75517Y32200D01*
X77184D01*
X77600Y32616D01*
Y33450D01*
X77184Y33866D01*
X77600Y34699D02*
Y35532D01*
Y35116D01*
X75101D01*
X75517Y34699D01*
Y36782D02*
X75101Y37198D01*
Y38032D01*
X75517Y38448D01*
X77184D01*
X77600Y38032D01*
Y37198D01*
X77184Y36782D01*
X75517D01*
Y39281D02*
X75101Y39698D01*
Y40531D01*
X75517Y40947D01*
X75934D01*
X76350Y40531D01*
X76767Y40947D01*
X77184D01*
X77600Y40531D01*
Y39698D01*
X77184Y39281D01*
X76767D01*
X76350Y39698D01*
X75934Y39281D01*
X75517D01*
X76350Y39698D02*
Y40531D01*
X80566Y39683D02*
X80150Y40099D01*
X79317D01*
X78900Y39683D01*
Y38017D01*
X79317Y37600D01*
X80150D01*
X80566Y38017D01*
X81399Y37600D02*
X82232D01*
X81816D01*
Y40099D01*
X81399Y39683D01*
X83482Y37600D02*
X84315D01*
X83898D01*
Y40099D01*
X83482Y39683D01*
X85565D02*
X85981Y40099D01*
X86814D01*
X87231Y39683D01*
Y38017D01*
X86814Y37600D01*
X85981D01*
X85565Y38017D01*
Y39683D01*
X94066Y85183D02*
X93650Y85599D01*
X92817D01*
X92400Y85183D01*
Y83517D01*
X92817Y83100D01*
X93650D01*
X94066Y83517D01*
X94899Y83100D02*
X95732D01*
X95316D01*
Y85599D01*
X94899Y85183D01*
X96982Y83100D02*
X97815D01*
X97398D01*
Y85599D01*
X96982Y85183D01*
X99064Y83100D02*
X99898D01*
X99481D01*
Y85599D01*
X99064Y85183D01*
X99000Y55500D02*
X96501D01*
Y56750D01*
X96917Y57166D01*
X97750D01*
X98167Y56750D01*
Y55500D01*
Y56333D02*
X99000Y57166D01*
Y59249D02*
X96501D01*
X97750Y57999D01*
Y59665D01*
X70000Y101000D02*
X67501D01*
Y102250D01*
X67917Y102666D01*
X68750D01*
X69167Y102250D01*
Y101000D01*
Y101833D02*
X70000Y102666D01*
X67501Y103499D02*
Y105165D01*
X67917D01*
X69583Y103499D01*
X70000D01*
X45600Y37800D02*
Y40299D01*
X46850D01*
X47266Y39883D01*
Y39050D01*
X46850Y38633D01*
X45600D01*
X46433D02*
X47266Y37800D01*
X49765D02*
X48099D01*
X49765Y39466D01*
Y39883D01*
X49349Y40299D01*
X48516D01*
X48099Y39883D01*
X52264Y37800D02*
X50598D01*
X52264Y39466D01*
Y39883D01*
X51848Y40299D01*
X51015D01*
X50598Y39883D01*
X1200Y84399D02*
Y81900D01*
X2450D01*
X2866Y82316D01*
Y83983D01*
X2450Y84399D01*
X1200D01*
X3699Y81900D02*
X4532D01*
X4116D01*
Y84399D01*
X3699Y83983D01*
X5782Y84399D02*
X7448D01*
Y83983D01*
X5782Y82316D01*
Y81900D01*
X9500Y84499D02*
Y82000D01*
X10750D01*
X11166Y82416D01*
Y84083D01*
X10750Y84499D01*
X9500D01*
X11999Y82000D02*
X12832D01*
X12416D01*
Y84499D01*
X11999Y84083D01*
X14082D02*
X14498Y84499D01*
X15331D01*
X15748Y84083D01*
Y83666D01*
X15331Y83250D01*
X15748Y82833D01*
Y82416D01*
X15331Y82000D01*
X14498D01*
X14082Y82416D01*
Y82833D01*
X14498Y83250D01*
X14082Y83666D01*
Y84083D01*
X14498Y83250D02*
X15331D01*
X24200Y36799D02*
Y34300D01*
X25450D01*
X25866Y34716D01*
Y36383D01*
X25450Y36799D01*
X24200D01*
X26699Y34300D02*
X27532D01*
X27116D01*
Y36799D01*
X26699Y36383D01*
X28782Y34716D02*
X29198Y34300D01*
X30031D01*
X30448Y34716D01*
Y36383D01*
X30031Y36799D01*
X29198D01*
X28782Y36383D01*
Y35966D01*
X29198Y35550D01*
X30448D01*
X16200Y36799D02*
Y34300D01*
X17450D01*
X17866Y34716D01*
Y36383D01*
X17450Y36799D01*
X16200D01*
X20365Y34300D02*
X18699D01*
X20365Y35966D01*
Y36383D01*
X19949Y36799D01*
X19116D01*
X18699Y36383D01*
X21198D02*
X21615Y36799D01*
X22448D01*
X22864Y36383D01*
Y34716D01*
X22448Y34300D01*
X21615D01*
X21198Y34716D01*
Y36383D01*
X56400Y82399D02*
Y79900D01*
X57650D01*
X58066Y80317D01*
Y81983D01*
X57650Y82399D01*
X56400D01*
X60565Y79900D02*
X58899D01*
X60565Y81566D01*
Y81983D01*
X60149Y82399D01*
X59316D01*
X58899Y81983D01*
X61398Y79900D02*
X62231D01*
X61815D01*
Y82399D01*
X61398Y81983D01*
X48100Y82499D02*
Y80000D01*
X49350D01*
X49766Y80417D01*
Y82083D01*
X49350Y82499D01*
X48100D01*
X52265Y80000D02*
X50599D01*
X52265Y81666D01*
Y82083D01*
X51849Y82499D01*
X51016D01*
X50599Y82083D01*
X54764Y80000D02*
X53098D01*
X54764Y81666D01*
Y82083D01*
X54348Y82499D01*
X53515D01*
X53098Y82083D01*
X67800Y25599D02*
Y23100D01*
X69050D01*
X69466Y23516D01*
Y25183D01*
X69050Y25599D01*
X67800D01*
X71965Y23100D02*
X70299D01*
X71965Y24766D01*
Y25183D01*
X71549Y25599D01*
X70716D01*
X70299Y25183D01*
X72798D02*
X73215Y25599D01*
X74048D01*
X74464Y25183D01*
Y24766D01*
X74048Y24350D01*
X73631D01*
X74048D01*
X74464Y23933D01*
Y23516D01*
X74048Y23100D01*
X73215D01*
X72798Y23516D01*
X56500Y25599D02*
Y23100D01*
X57750D01*
X58166Y23516D01*
Y25183D01*
X57750Y25599D01*
X56500D01*
X60665Y23100D02*
X58999D01*
X60665Y24766D01*
Y25183D01*
X60249Y25599D01*
X59416D01*
X58999Y25183D01*
X62748Y23100D02*
Y25599D01*
X61498Y24350D01*
X63165D01*
X133466Y50383D02*
X133050Y50799D01*
X132217D01*
X131800Y50383D01*
Y48717D01*
X132217Y48300D01*
X133050D01*
X133466Y48717D01*
X135965Y48300D02*
X134299D01*
X135965Y49966D01*
Y50383D01*
X135549Y50799D01*
X134716D01*
X134299Y50383D01*
X136798D02*
X137215Y50799D01*
X138048D01*
X138464Y50383D01*
Y49966D01*
X138048Y49550D01*
X137631D01*
X138048D01*
X138464Y49133D01*
Y48717D01*
X138048Y48300D01*
X137215D01*
X136798Y48717D01*
X135666Y86483D02*
X135250Y86899D01*
X134416D01*
X134000Y86483D01*
Y84816D01*
X134416Y84400D01*
X135250D01*
X135666Y84816D01*
X136499Y86483D02*
X136916Y86899D01*
X137749D01*
X138165Y86483D01*
Y86066D01*
X137749Y85650D01*
X137332D01*
X137749D01*
X138165Y85233D01*
Y84816D01*
X137749Y84400D01*
X136916D01*
X136499Y84816D01*
X140665Y84400D02*
X138998D01*
X140665Y86066D01*
Y86483D01*
X140248Y86899D01*
X139415D01*
X138998Y86483D01*
X144166Y79483D02*
X143750Y79899D01*
X142917D01*
X142500Y79483D01*
Y77816D01*
X142917Y77400D01*
X143750D01*
X144166Y77816D01*
X144999Y79483D02*
X145416Y79899D01*
X146249D01*
X146665Y79483D01*
Y79066D01*
X146249Y78650D01*
X145832D01*
X146249D01*
X146665Y78233D01*
Y77816D01*
X146249Y77400D01*
X145416D01*
X144999Y77816D01*
X147498Y79483D02*
X147915Y79899D01*
X148748D01*
X149164Y79483D01*
Y79066D01*
X148748Y78650D01*
X148331D01*
X148748D01*
X149164Y78233D01*
Y77816D01*
X148748Y77400D01*
X147915D01*
X147498Y77816D01*
X139166Y74583D02*
X138750Y74999D01*
X137917D01*
X137500Y74583D01*
Y72917D01*
X137917Y72500D01*
X138750D01*
X139166Y72917D01*
X139999Y74583D02*
X140416Y74999D01*
X141249D01*
X141665Y74583D01*
Y74166D01*
X141249Y73750D01*
X140832D01*
X141249D01*
X141665Y73333D01*
Y72917D01*
X141249Y72500D01*
X140416D01*
X139999Y72917D01*
X143748Y72500D02*
Y74999D01*
X142498Y73750D01*
X144165D01*
X141017Y63166D02*
X140601Y62750D01*
Y61917D01*
X141017Y61500D01*
X142683D01*
X143100Y61917D01*
Y62750D01*
X142683Y63166D01*
X140601Y65665D02*
Y63999D01*
X141850D01*
X141434Y64832D01*
Y65249D01*
X141850Y65665D01*
X142683D01*
X143100Y65249D01*
Y64416D01*
X142683Y63999D01*
X141017Y66498D02*
X140601Y66915D01*
Y67748D01*
X141017Y68164D01*
X142683D01*
X143100Y67748D01*
Y66915D01*
X142683Y66498D01*
X141017D01*
X144266Y83483D02*
X143850Y83899D01*
X143017D01*
X142600Y83483D01*
Y81817D01*
X143017Y81400D01*
X143850D01*
X144266Y81817D01*
X146765Y83899D02*
X145099D01*
Y82650D01*
X145932Y83066D01*
X146349D01*
X146765Y82650D01*
Y81817D01*
X146349Y81400D01*
X145516D01*
X145099Y81817D01*
X149265Y83899D02*
X147598D01*
Y82650D01*
X148431Y83066D01*
X148848D01*
X149265Y82650D01*
Y81817D01*
X148848Y81400D01*
X148015D01*
X147598Y81817D01*
X101017Y60866D02*
X100601Y60450D01*
Y59617D01*
X101017Y59200D01*
X102683D01*
X103100Y59617D01*
Y60450D01*
X102683Y60866D01*
X100601Y63365D02*
X101017Y62532D01*
X101850Y61699D01*
X102683D01*
X103100Y62116D01*
Y62949D01*
X102683Y63365D01*
X102267D01*
X101850Y62949D01*
Y61699D01*
X103100Y65448D02*
X100601D01*
X101850Y64198D01*
Y65864D01*
X132666Y57983D02*
X132250Y58399D01*
X131416D01*
X131000Y57983D01*
Y56317D01*
X131416Y55900D01*
X132250D01*
X132666Y56317D01*
X133499Y58399D02*
X135165D01*
Y57983D01*
X133499Y56317D01*
Y55900D01*
X137664D02*
X135998D01*
X137664Y57566D01*
Y57983D01*
X137248Y58399D01*
X136415D01*
X135998Y57983D01*
X174266Y64583D02*
X173850Y64999D01*
X173017D01*
X172600Y64583D01*
Y62916D01*
X173017Y62500D01*
X173850D01*
X174266Y62916D01*
X175099Y64999D02*
X176765D01*
Y64583D01*
X175099Y62916D01*
Y62500D01*
X179264Y64999D02*
X177598D01*
Y63750D01*
X178431Y64166D01*
X178848D01*
X179264Y63750D01*
Y62916D01*
X178848Y62500D01*
X178015D01*
X177598Y62916D01*
X160466Y64483D02*
X160050Y64899D01*
X159216D01*
X158800Y64483D01*
Y62817D01*
X159216Y62400D01*
X160050D01*
X160466Y62817D01*
X161299Y62400D02*
X162132D01*
X161716D01*
Y64899D01*
X161299Y64483D01*
X163382Y62400D02*
X164215D01*
X163798D01*
Y64899D01*
X163382Y64483D01*
X167131Y62400D02*
X165464D01*
X167131Y64066D01*
Y64483D01*
X166714Y64899D01*
X165881D01*
X165464Y64483D01*
X108266Y98283D02*
X107850Y98699D01*
X107017D01*
X106600Y98283D01*
Y96617D01*
X107017Y96200D01*
X107850D01*
X108266Y96617D01*
X109099Y96200D02*
X109932D01*
X109516D01*
Y98699D01*
X109099Y98283D01*
X111182Y96200D02*
X112015D01*
X111598D01*
Y98699D01*
X111182Y98283D01*
X113265D02*
X113681Y98699D01*
X114514D01*
X114931Y98283D01*
Y97866D01*
X114514Y97450D01*
X114098D01*
X114514D01*
X114931Y97033D01*
Y96617D01*
X114514Y96200D01*
X113681D01*
X113265Y96617D01*
X132666Y34683D02*
X132250Y35099D01*
X131416D01*
X131000Y34683D01*
Y33016D01*
X131416Y32600D01*
X132250D01*
X132666Y33016D01*
X133499Y32600D02*
X134332D01*
X133916D01*
Y35099D01*
X133499Y34683D01*
X135582Y32600D02*
X136415D01*
X135998D01*
Y35099D01*
X135582Y34683D01*
X138914Y32600D02*
Y35099D01*
X137664Y33850D01*
X139331D01*
X90917Y43166D02*
X90501Y42750D01*
Y41916D01*
X90917Y41500D01*
X92584D01*
X93000Y41916D01*
Y42750D01*
X92584Y43166D01*
X93000Y43999D02*
Y44832D01*
Y44416D01*
X90501D01*
X90917Y43999D01*
X93000Y46082D02*
Y46915D01*
Y46498D01*
X90501D01*
X90917Y46082D01*
X90501Y49831D02*
Y48164D01*
X91750D01*
X91334Y48998D01*
Y49414D01*
X91750Y49831D01*
X92584D01*
X93000Y49414D01*
Y48581D01*
X92584Y48164D01*
X122017Y35166D02*
X121601Y34750D01*
Y33917D01*
X122017Y33500D01*
X123684D01*
X124100Y33917D01*
Y34750D01*
X123684Y35166D01*
X124100Y35999D02*
Y36832D01*
Y36416D01*
X121601D01*
X122017Y35999D01*
X124100Y38082D02*
Y38915D01*
Y38498D01*
X121601D01*
X122017Y38082D01*
X121601Y41831D02*
X122017Y40998D01*
X122850Y40165D01*
X123684D01*
X124100Y40581D01*
Y41414D01*
X123684Y41831D01*
X123267D01*
X122850Y41414D01*
Y40165D01*
X92500Y78599D02*
Y76100D01*
X93750D01*
X94166Y76516D01*
Y78183D01*
X93750Y78599D01*
X92500D01*
X96665Y76100D02*
X94999D01*
X96665Y77766D01*
Y78183D01*
X96249Y78599D01*
X95416D01*
X94999Y78183D01*
X99164Y78599D02*
X97498D01*
Y77350D01*
X98331Y77766D01*
X98748D01*
X99164Y77350D01*
Y76516D01*
X98748Y76100D01*
X97915D01*
X97498Y76516D01*
X100100Y78899D02*
Y76400D01*
X101350D01*
X101766Y76816D01*
Y78483D01*
X101350Y78899D01*
X100100D01*
X104265Y76400D02*
X102599D01*
X104265Y78066D01*
Y78483D01*
X103849Y78899D01*
X103016D01*
X102599Y78483D01*
X106764Y78899D02*
X105931Y78483D01*
X105098Y77650D01*
Y76816D01*
X105515Y76400D01*
X106348D01*
X106764Y76816D01*
Y77233D01*
X106348Y77650D01*
X105098D01*
X119100Y25699D02*
Y23200D01*
X120350D01*
X120766Y23617D01*
Y25283D01*
X120350Y25699D01*
X119100D01*
X123265Y23200D02*
X121599D01*
X123265Y24866D01*
Y25283D01*
X122849Y25699D01*
X122016D01*
X121599Y25283D01*
X124098Y25699D02*
X125765D01*
Y25283D01*
X124098Y23617D01*
Y23200D01*
X102000Y25799D02*
Y23300D01*
X103250D01*
X103666Y23717D01*
Y25383D01*
X103250Y25799D01*
X102000D01*
X106165Y23300D02*
X104499D01*
X106165Y24966D01*
Y25383D01*
X105749Y25799D01*
X104916D01*
X104499Y25383D01*
X106998D02*
X107415Y25799D01*
X108248D01*
X108665Y25383D01*
Y24966D01*
X108248Y24550D01*
X108665Y24133D01*
Y23717D01*
X108248Y23300D01*
X107415D01*
X106998Y23717D01*
Y24133D01*
X107415Y24550D01*
X106998Y24966D01*
Y25383D01*
X107415Y24550D02*
X108248D01*
X146400Y61600D02*
X143901D01*
Y62850D01*
X144317Y63266D01*
X145150D01*
X145567Y62850D01*
Y61600D01*
Y62433D02*
X146400Y63266D01*
X144317Y64099D02*
X143901Y64516D01*
Y65349D01*
X144317Y65765D01*
X144734D01*
X145150Y65349D01*
X145567Y65765D01*
X145984D01*
X146400Y65349D01*
Y64516D01*
X145984Y64099D01*
X145567D01*
X145150Y64516D01*
X144734Y64099D01*
X144317D01*
X145150Y64516D02*
Y65349D01*
X112800Y99400D02*
Y101899D01*
X114050D01*
X114466Y101483D01*
Y100650D01*
X114050Y100233D01*
X112800D01*
X113633D02*
X114466Y99400D01*
X115299D02*
X116132D01*
X115716D01*
Y101899D01*
X115299Y101483D01*
X117382D02*
X117798Y101899D01*
X118631D01*
X119048Y101483D01*
Y99817D01*
X118631Y99400D01*
X117798D01*
X117382Y99817D01*
Y101483D01*
X89200Y37400D02*
Y39899D01*
X90450D01*
X90866Y39483D01*
Y38650D01*
X90450Y38233D01*
X89200D01*
X90033D02*
X90866Y37400D01*
X93365D02*
X91699D01*
X93365Y39066D01*
Y39483D01*
X92949Y39899D01*
X92116D01*
X91699Y39483D01*
X95864Y39899D02*
X94198D01*
Y38650D01*
X95031Y39066D01*
X95448D01*
X95864Y38650D01*
Y37817D01*
X95448Y37400D01*
X94615D01*
X94198Y37817D01*
X191800Y123699D02*
X193466D01*
X192633D01*
Y121200D01*
X194299D02*
Y123699D01*
X195549D01*
X195965Y123283D01*
Y122450D01*
X195549Y122033D01*
X194299D01*
X196798Y123283D02*
X197215Y123699D01*
X198048D01*
X198465Y123283D01*
Y122866D01*
X198048Y122450D01*
X198465Y122033D01*
Y121616D01*
X198048Y121200D01*
X197215D01*
X196798Y121616D01*
Y122033D01*
X197215Y122450D01*
X196798Y122866D01*
Y123283D01*
X197215Y122450D02*
X198048D01*
X237166Y43083D02*
X236750Y43499D01*
X235916D01*
X235500Y43083D01*
Y41416D01*
X235916Y41000D01*
X236750D01*
X237166Y41416D01*
X237999Y43083D02*
X238416Y43499D01*
X239249D01*
X239665Y43083D01*
Y42666D01*
X239249Y42250D01*
X238832D01*
X239249D01*
X239665Y41833D01*
Y41416D01*
X239249Y41000D01*
X238416D01*
X237999Y41416D01*
X240498Y41000D02*
X241331D01*
X240915D01*
Y43499D01*
X240498Y43083D01*
X224066Y97383D02*
X223650Y97799D01*
X222816D01*
X222400Y97383D01*
Y95717D01*
X222816Y95300D01*
X223650D01*
X224066Y95717D01*
X224899Y97383D02*
X225316Y97799D01*
X226149D01*
X226565Y97383D01*
Y96966D01*
X226149Y96550D01*
X225732D01*
X226149D01*
X226565Y96133D01*
Y95717D01*
X226149Y95300D01*
X225316D01*
X224899Y95717D01*
X229064Y97799D02*
X228231Y97383D01*
X227398Y96550D01*
Y95717D01*
X227815Y95300D01*
X228648D01*
X229064Y95717D01*
Y96133D01*
X228648Y96550D01*
X227398D01*
X234217Y79166D02*
X233801Y78750D01*
Y77917D01*
X234217Y77500D01*
X235883D01*
X236300Y77917D01*
Y78750D01*
X235883Y79166D01*
X234217Y79999D02*
X233801Y80416D01*
Y81249D01*
X234217Y81665D01*
X234634D01*
X235050Y81249D01*
Y80832D01*
Y81249D01*
X235467Y81665D01*
X235883D01*
X236300Y81249D01*
Y80416D01*
X235883Y79999D01*
X233801Y82498D02*
Y84165D01*
X234217D01*
X235883Y82498D01*
X236300D01*
X235666Y74783D02*
X235250Y75199D01*
X234417D01*
X234000Y74783D01*
Y73116D01*
X234417Y72700D01*
X235250D01*
X235666Y73116D01*
X236499Y74783D02*
X236916Y75199D01*
X237749D01*
X238165Y74783D01*
Y74366D01*
X237749Y73950D01*
X237332D01*
X237749D01*
X238165Y73533D01*
Y73116D01*
X237749Y72700D01*
X236916D01*
X236499Y73116D01*
X238998Y74783D02*
X239415Y75199D01*
X240248D01*
X240665Y74783D01*
Y74366D01*
X240248Y73950D01*
X240665Y73533D01*
Y73116D01*
X240248Y72700D01*
X239415D01*
X238998Y73116D01*
Y73533D01*
X239415Y73950D01*
X238998Y74366D01*
Y74783D01*
X239415Y73950D02*
X240248D01*
X232917Y52466D02*
X232501Y52050D01*
Y51217D01*
X232917Y50800D01*
X234583D01*
X235000Y51217D01*
Y52050D01*
X234583Y52466D01*
X232917Y53299D02*
X232501Y53716D01*
Y54549D01*
X232917Y54965D01*
X233334D01*
X233750Y54549D01*
Y54132D01*
Y54549D01*
X234167Y54965D01*
X234583D01*
X235000Y54549D01*
Y53716D01*
X234583Y53299D01*
Y55798D02*
X235000Y56215D01*
Y57048D01*
X234583Y57464D01*
X232917D01*
X232501Y57048D01*
Y56215D01*
X232917Y55798D01*
X233334D01*
X233750Y56215D01*
Y57464D01*
X193817Y53566D02*
X193401Y53150D01*
Y52316D01*
X193817Y51900D01*
X195484D01*
X195900Y52316D01*
Y53150D01*
X195484Y53566D01*
X195900Y55649D02*
X193401D01*
X194650Y54399D01*
Y56065D01*
X195900Y56898D02*
Y57731D01*
Y57315D01*
X193401D01*
X193817Y56898D01*
X224066Y93983D02*
X223650Y94399D01*
X222816D01*
X222400Y93983D01*
Y92317D01*
X222816Y91900D01*
X223650D01*
X224066Y92317D01*
X224899Y94399D02*
X226565D01*
Y93983D01*
X224899Y92317D01*
Y91900D01*
X227398Y93983D02*
X227815Y94399D01*
X228648D01*
X229064Y93983D01*
Y93566D01*
X228648Y93150D01*
X228231D01*
X228648D01*
X229064Y92733D01*
Y92317D01*
X228648Y91900D01*
X227815D01*
X227398Y92317D01*
X226866Y57683D02*
X226450Y58099D01*
X225617D01*
X225200Y57683D01*
Y56016D01*
X225617Y55600D01*
X226450D01*
X226866Y56016D01*
X227699Y58099D02*
X229365D01*
Y57683D01*
X227699Y56016D01*
Y55600D01*
X231865Y58099D02*
X231031Y57683D01*
X230198Y56850D01*
Y56016D01*
X230615Y55600D01*
X231448D01*
X231865Y56016D01*
Y56433D01*
X231448Y56850D01*
X230198D01*
X238866Y30383D02*
X238450Y30799D01*
X237616D01*
X237200Y30383D01*
Y28716D01*
X237616Y28300D01*
X238450D01*
X238866Y28716D01*
X239699Y30799D02*
X241365D01*
Y30383D01*
X239699Y28716D01*
Y28300D01*
X242198Y30383D02*
X242615Y30799D01*
X243448D01*
X243864Y30383D01*
Y29966D01*
X243448Y29550D01*
X243864Y29133D01*
Y28716D01*
X243448Y28300D01*
X242615D01*
X242198Y28716D01*
Y29133D01*
X242615Y29550D01*
X242198Y29966D01*
Y30383D01*
X242615Y29550D02*
X243448D01*
X239066Y39183D02*
X238650Y39599D01*
X237817D01*
X237400Y39183D01*
Y37516D01*
X237817Y37100D01*
X238650D01*
X239066Y37516D01*
X239899Y39183D02*
X240316Y39599D01*
X241149D01*
X241565Y39183D01*
Y38766D01*
X241149Y38350D01*
X241565Y37933D01*
Y37516D01*
X241149Y37100D01*
X240316D01*
X239899Y37516D01*
Y37933D01*
X240316Y38350D01*
X239899Y38766D01*
Y39183D01*
X240316Y38350D02*
X241149D01*
X242398Y39183D02*
X242815Y39599D01*
X243648D01*
X244064Y39183D01*
Y37516D01*
X243648Y37100D01*
X242815D01*
X242398Y37516D01*
Y39183D01*
X219117Y94166D02*
X218701Y93750D01*
Y92917D01*
X219117Y92500D01*
X220783D01*
X221200Y92917D01*
Y93750D01*
X220783Y94166D01*
X219117Y94999D02*
X218701Y95416D01*
Y96249D01*
X219117Y96665D01*
X219534D01*
X219950Y96249D01*
X220367Y96665D01*
X220783D01*
X221200Y96249D01*
Y95416D01*
X220783Y94999D01*
X220367D01*
X219950Y95416D01*
X219534Y94999D01*
X219117D01*
X219950Y95416D02*
Y96249D01*
X221200Y99164D02*
Y97498D01*
X219534Y99164D01*
X219117D01*
X218701Y98748D01*
Y97915D01*
X219117Y97498D01*
X226766Y36383D02*
X226350Y36799D01*
X225517D01*
X225100Y36383D01*
Y34716D01*
X225517Y34300D01*
X226350D01*
X226766Y34716D01*
X227599Y34300D02*
X228432D01*
X228016D01*
Y36799D01*
X227599Y36383D01*
X229682Y34300D02*
X230515D01*
X230098D01*
Y36799D01*
X229682Y36383D01*
X231765Y36799D02*
X233431D01*
Y36383D01*
X231765Y34716D01*
Y34300D01*
X184266Y30283D02*
X183850Y30699D01*
X183017D01*
X182600Y30283D01*
Y28616D01*
X183017Y28200D01*
X183850D01*
X184266Y28616D01*
X185099Y28200D02*
X185932D01*
X185516D01*
Y30699D01*
X185099Y30283D01*
X187182Y28200D02*
X188015D01*
X187598D01*
Y30699D01*
X187182Y30283D01*
X189265D02*
X189681Y30699D01*
X190514D01*
X190931Y30283D01*
Y29866D01*
X190514Y29450D01*
X190931Y29033D01*
Y28616D01*
X190514Y28200D01*
X189681D01*
X189265Y28616D01*
Y29033D01*
X189681Y29450D01*
X189265Y29866D01*
Y30283D01*
X189681Y29450D02*
X190514D01*
X224866Y40483D02*
X224450Y40899D01*
X223617D01*
X223200Y40483D01*
Y38816D01*
X223617Y38400D01*
X224450D01*
X224866Y38816D01*
X225699Y38400D02*
X226532D01*
X226116D01*
Y40899D01*
X225699Y40483D01*
X227782Y38400D02*
X228615D01*
X228198D01*
Y40899D01*
X227782Y40483D01*
X229865Y38816D02*
X230281Y38400D01*
X231114D01*
X231531Y38816D01*
Y40483D01*
X231114Y40899D01*
X230281D01*
X229865Y40483D01*
Y40066D01*
X230281Y39650D01*
X231531D01*
X197200Y84299D02*
Y81800D01*
X198450D01*
X198866Y82217D01*
Y83883D01*
X198450Y84299D01*
X197200D01*
X201365Y81800D02*
X199699D01*
X201365Y83466D01*
Y83883D01*
X200949Y84299D01*
X200116D01*
X199699Y83883D01*
X202198Y82217D02*
X202615Y81800D01*
X203448D01*
X203865Y82217D01*
Y83883D01*
X203448Y84299D01*
X202615D01*
X202198Y83883D01*
Y83466D01*
X202615Y83050D01*
X203865D01*
X189700Y84199D02*
Y81700D01*
X190950D01*
X191366Y82117D01*
Y83783D01*
X190950Y84199D01*
X189700D01*
X192199Y83783D02*
X192616Y84199D01*
X193449D01*
X193865Y83783D01*
Y83366D01*
X193449Y82950D01*
X193032D01*
X193449D01*
X193865Y82533D01*
Y82117D01*
X193449Y81700D01*
X192616D01*
X192199Y82117D01*
X194698Y83783D02*
X195115Y84199D01*
X195948D01*
X196364Y83783D01*
Y82117D01*
X195948Y81700D01*
X195115D01*
X194698Y82117D01*
Y83783D01*
X199200Y46699D02*
Y44200D01*
X200450D01*
X200866Y44616D01*
Y46283D01*
X200450Y46699D01*
X199200D01*
X201699Y46283D02*
X202116Y46699D01*
X202949D01*
X203365Y46283D01*
Y45866D01*
X202949Y45450D01*
X202532D01*
X202949D01*
X203365Y45033D01*
Y44616D01*
X202949Y44200D01*
X202116D01*
X201699Y44616D01*
X204198Y44200D02*
X205031D01*
X204615D01*
Y46699D01*
X204198Y46283D01*
X191500Y46699D02*
Y44200D01*
X192750D01*
X193166Y44616D01*
Y46283D01*
X192750Y46699D01*
X191500D01*
X193999Y46283D02*
X194416Y46699D01*
X195249D01*
X195665Y46283D01*
Y45866D01*
X195249Y45450D01*
X194832D01*
X195249D01*
X195665Y45033D01*
Y44616D01*
X195249Y44200D01*
X194416D01*
X193999Y44616D01*
X198164Y44200D02*
X196498D01*
X198164Y45866D01*
Y46283D01*
X197748Y46699D01*
X196915D01*
X196498Y46283D01*
X238300Y50800D02*
X235801D01*
Y52050D01*
X236217Y52466D01*
X237050D01*
X237467Y52050D01*
Y50800D01*
Y51633D02*
X238300Y52466D01*
Y53299D02*
Y54132D01*
Y53716D01*
X235801D01*
X236217Y53299D01*
X238300Y56631D02*
X235801D01*
X237050Y55382D01*
Y57048D01*
X204400Y86200D02*
X201901D01*
Y87450D01*
X202317Y87866D01*
X203150D01*
X203567Y87450D01*
Y86200D01*
Y87033D02*
X204400Y87866D01*
Y88699D02*
Y89532D01*
Y89116D01*
X201901D01*
X202317Y88699D01*
X201901Y92448D02*
Y90782D01*
X203150D01*
X202734Y91615D01*
Y92031D01*
X203150Y92448D01*
X203983D01*
X204400Y92031D01*
Y91198D01*
X203983Y90782D01*
X191500Y47700D02*
Y50199D01*
X192750D01*
X193166Y49783D01*
Y48950D01*
X192750Y48533D01*
X191500D01*
X192333D02*
X193166Y47700D01*
X195665D02*
X193999D01*
X195665Y49366D01*
Y49783D01*
X195249Y50199D01*
X194416D01*
X193999Y49783D01*
X198164Y50199D02*
X197331Y49783D01*
X196498Y48950D01*
Y48116D01*
X196915Y47700D01*
X197748D01*
X198164Y48116D01*
Y48533D01*
X197748Y48950D01*
X196498D01*
X154800Y276800D02*
Y279299D01*
X156050D01*
X156466Y278883D01*
Y278050D01*
X156050Y277633D01*
X154800D01*
X157299Y276800D02*
X158132D01*
X157716D01*
Y279299D01*
X157299Y278883D01*
X162800Y201600D02*
Y204099D01*
X164050D01*
X164466Y203683D01*
Y202850D01*
X164050Y202433D01*
X162800D01*
X166965Y201600D02*
X165299D01*
X166965Y203266D01*
Y203683D01*
X166549Y204099D01*
X165716D01*
X165299Y203683D01*
X68200Y217600D02*
Y220099D01*
X69450D01*
X69866Y219683D01*
Y218850D01*
X69450Y218433D01*
X68200D01*
X69033D02*
X69866Y217600D01*
X70699Y220099D02*
Y218433D01*
X71532Y217600D01*
X72365Y218433D01*
Y220099D01*
X73198Y219683D02*
X73615Y220099D01*
X74448D01*
X74865Y219683D01*
Y219266D01*
X74448Y218850D01*
X74031D01*
X74448D01*
X74865Y218433D01*
Y218017D01*
X74448Y217600D01*
X73615D01*
X73198Y218017D01*
X37200Y216700D02*
Y219199D01*
X38450D01*
X38866Y218783D01*
Y217950D01*
X38450Y217533D01*
X37200D01*
X38033D02*
X38866Y216700D01*
X39699Y219199D02*
Y217533D01*
X40532Y216700D01*
X41365Y217533D01*
Y219199D01*
X43448Y216700D02*
Y219199D01*
X42198Y217950D01*
X43865D01*
X67230Y215400D02*
Y217899D01*
X68480D01*
X68896Y217483D01*
Y216650D01*
X68480Y216233D01*
X67230D01*
X68063D02*
X68896Y215400D01*
X69729Y217899D02*
Y216233D01*
X70562Y215400D01*
X71395Y216233D01*
Y217899D01*
X73895D02*
X72228D01*
Y216650D01*
X73061Y217066D01*
X73478D01*
X73895Y216650D01*
Y215816D01*
X73478Y215400D01*
X72645D01*
X72228Y215816D01*
X41400Y216000D02*
Y218499D01*
X42650D01*
X43066Y218083D01*
Y217250D01*
X42650Y216833D01*
X41400D01*
X42233D02*
X43066Y216000D01*
X43899Y218499D02*
Y216833D01*
X44732Y216000D01*
X45565Y216833D01*
Y218499D01*
X48065D02*
X47231Y218083D01*
X46398Y217250D01*
Y216417D01*
X46815Y216000D01*
X47648D01*
X48065Y216417D01*
Y216833D01*
X47648Y217250D01*
X46398D01*
X106940Y228000D02*
Y225501D01*
X105690D01*
X105274Y225917D01*
Y226750D01*
X105690Y227167D01*
X106940D01*
X106107D02*
X105274Y228000D01*
X104441Y225501D02*
Y227167D01*
X103608Y228000D01*
X102775Y227167D01*
Y225501D01*
X101942D02*
X100276D01*
Y225917D01*
X101942Y227584D01*
Y228000D01*
X134800Y218300D02*
Y215801D01*
X133550D01*
X133134Y216217D01*
Y217050D01*
X133550Y217467D01*
X134800D01*
X133967D02*
X133134Y218300D01*
X132301Y215801D02*
Y217467D01*
X131468Y218300D01*
X130635Y217467D01*
Y215801D01*
X129802Y216217D02*
X129385Y215801D01*
X128552D01*
X128136Y216217D01*
Y216634D01*
X128552Y217050D01*
X128136Y217467D01*
Y217883D01*
X128552Y218300D01*
X129385D01*
X129802Y217883D01*
Y217467D01*
X129385Y217050D01*
X129802Y216634D01*
Y216217D01*
X129385Y217050D02*
X128552D01*
X156400Y209170D02*
Y206671D01*
X155150D01*
X154734Y207087D01*
Y207920D01*
X155150Y208337D01*
X156400D01*
X155567D02*
X154734Y209170D01*
X153901Y206671D02*
Y208337D01*
X153068Y209170D01*
X152235Y208337D01*
Y206671D01*
X151402Y208753D02*
X150985Y209170D01*
X150152D01*
X149735Y208753D01*
Y207087D01*
X150152Y206671D01*
X150985D01*
X151402Y207087D01*
Y207504D01*
X150985Y207920D01*
X149735D01*
X147000Y200700D02*
X149499D01*
Y199450D01*
X149083Y199034D01*
X148250D01*
X147833Y199450D01*
Y200700D01*
Y199867D02*
X147000Y199034D01*
X149499Y198201D02*
X147833D01*
X147000Y197368D01*
X147833Y196535D01*
X149499D01*
X147000Y195702D02*
Y194869D01*
Y195285D01*
X149499D01*
X149083Y195702D01*
Y193619D02*
X149499Y193202D01*
Y192369D01*
X149083Y191953D01*
X147416D01*
X147000Y192369D01*
Y193202D01*
X147416Y193619D01*
X149083D01*
X147500Y243300D02*
Y240801D01*
X146250D01*
X145834Y241217D01*
Y242050D01*
X146250Y242467D01*
X147500D01*
X146667D02*
X145834Y243300D01*
X145001Y240801D02*
Y242467D01*
X144168Y243300D01*
X143335Y242467D01*
Y240801D01*
X142502Y243300D02*
X141669D01*
X142085D01*
Y240801D01*
X142502Y241217D01*
X140419Y243300D02*
X139586D01*
X140002D01*
Y240801D01*
X140419Y241217D01*
X127900Y217400D02*
X130399D01*
Y216150D01*
X129983Y215734D01*
X129150D01*
X128733Y216150D01*
Y217400D01*
Y216567D02*
X127900Y215734D01*
X130399Y214901D02*
X128733D01*
X127900Y214068D01*
X128733Y213235D01*
X130399D01*
X127900Y212402D02*
Y211569D01*
Y211985D01*
X130399D01*
X129983Y212402D01*
X127900Y208653D02*
Y210319D01*
X129566Y208653D01*
X129983D01*
X130399Y209069D01*
Y209902D01*
X129983Y210319D01*
X166100Y212400D02*
X163601D01*
Y213650D01*
X164017Y214066D01*
X164850D01*
X165267Y213650D01*
Y212400D01*
Y213233D02*
X166100Y214066D01*
X163601Y214899D02*
X165267D01*
X166100Y215732D01*
X165267Y216565D01*
X163601D01*
X166100Y217398D02*
Y218231D01*
Y217815D01*
X163601D01*
X164017Y217398D01*
Y219481D02*
X163601Y219898D01*
Y220731D01*
X164017Y221147D01*
X164434D01*
X164850Y220731D01*
Y220314D01*
Y220731D01*
X165267Y221147D01*
X165683D01*
X166100Y220731D01*
Y219898D01*
X165683Y219481D01*
X144700Y213800D02*
Y211301D01*
X143450D01*
X143034Y211717D01*
Y212550D01*
X143450Y212967D01*
X144700D01*
X143867D02*
X143034Y213800D01*
X142201Y211301D02*
Y212967D01*
X141368Y213800D01*
X140535Y212967D01*
Y211301D01*
X139702Y213800D02*
X138869D01*
X139285D01*
Y211301D01*
X139702Y211717D01*
X136369Y213800D02*
Y211301D01*
X137619Y212550D01*
X135953D01*
X127700Y212800D02*
Y210301D01*
X126450D01*
X126034Y210717D01*
Y211550D01*
X126450Y211967D01*
X127700D01*
X126867D02*
X126034Y212800D01*
X125201Y210301D02*
Y211967D01*
X124368Y212800D01*
X123535Y211967D01*
Y210301D01*
X122702Y212800D02*
X121869D01*
X122285D01*
Y210301D01*
X122702Y210717D01*
X118953Y210301D02*
X120619D01*
Y211550D01*
X119786Y211134D01*
X119369D01*
X118953Y211550D01*
Y212384D01*
X119369Y212800D01*
X120202D01*
X120619Y212384D01*
X133500Y212000D02*
X135999D01*
Y210750D01*
X135583Y210334D01*
X134750D01*
X134333Y210750D01*
Y212000D01*
Y211167D02*
X133500Y210334D01*
X135999Y209501D02*
X134333D01*
X133500Y208668D01*
X134333Y207835D01*
X135999D01*
X133500Y207002D02*
Y206169D01*
Y206585D01*
X135999D01*
X135583Y207002D01*
X135999Y203253D02*
X135583Y204086D01*
X134750Y204919D01*
X133916D01*
X133500Y204502D01*
Y203669D01*
X133916Y203253D01*
X134333D01*
X134750Y203669D01*
Y204919D01*
X96800Y216500D02*
Y218999D01*
X98050D01*
X98466Y218583D01*
Y217750D01*
X98050Y217333D01*
X96800D01*
X97633D02*
X98466Y216500D01*
X99299Y218999D02*
Y217333D01*
X100132Y216500D01*
X100965Y217333D01*
Y218999D01*
X101798Y216500D02*
X102631D01*
X102215D01*
Y218999D01*
X101798Y218583D01*
X103881Y218999D02*
X105547D01*
Y218583D01*
X103881Y216916D01*
Y216500D01*
X141500Y205700D02*
Y203201D01*
X140250D01*
X139834Y203617D01*
Y204450D01*
X140250Y204867D01*
X141500D01*
X140667D02*
X139834Y205700D01*
X139001Y203201D02*
Y204867D01*
X138168Y205700D01*
X137335Y204867D01*
Y203201D01*
X136502Y205700D02*
X135669D01*
X136085D01*
Y203201D01*
X136502Y203617D01*
X134419D02*
X134002Y203201D01*
X133169D01*
X132753Y203617D01*
Y204034D01*
X133169Y204450D01*
X132753Y204867D01*
Y205283D01*
X133169Y205700D01*
X134002D01*
X134419Y205283D01*
Y204867D01*
X134002Y204450D01*
X134419Y204034D01*
Y203617D01*
X134002Y204450D02*
X133169D01*
X211800Y202100D02*
Y204599D01*
X213050D01*
X213466Y204183D01*
Y203350D01*
X213050Y202933D01*
X211800D01*
X212633D02*
X213466Y202100D01*
X214299Y204599D02*
Y202933D01*
X215132Y202100D01*
X215965Y202933D01*
Y204599D01*
X216798Y202100D02*
X217631D01*
X217215D01*
Y204599D01*
X216798Y204183D01*
X218881Y202517D02*
X219298Y202100D01*
X220131D01*
X220547Y202517D01*
Y204183D01*
X220131Y204599D01*
X219298D01*
X218881Y204183D01*
Y203766D01*
X219298Y203350D01*
X220547D01*
X187200Y198900D02*
Y201399D01*
X188450D01*
X188866Y200983D01*
Y200150D01*
X188450Y199733D01*
X187200D01*
X188033D02*
X188866Y198900D01*
X189699Y201399D02*
Y199733D01*
X190532Y198900D01*
X191365Y199733D01*
Y201399D01*
X193865Y198900D02*
X192198D01*
X193865Y200566D01*
Y200983D01*
X193448Y201399D01*
X192615D01*
X192198Y200983D01*
X194698D02*
X195114Y201399D01*
X195947D01*
X196364Y200983D01*
Y199317D01*
X195947Y198900D01*
X195114D01*
X194698Y199317D01*
Y200983D01*
X178100Y202000D02*
Y204499D01*
X179350D01*
X179766Y204083D01*
Y203250D01*
X179350Y202833D01*
X178100D01*
X178933D02*
X179766Y202000D01*
X180599Y204499D02*
Y202833D01*
X181432Y202000D01*
X182265Y202833D01*
Y204499D01*
X184765Y202000D02*
X183098D01*
X184765Y203666D01*
Y204083D01*
X184348Y204499D01*
X183515D01*
X183098Y204083D01*
X185598Y202000D02*
X186431D01*
X186014D01*
Y204499D01*
X185598Y204083D01*
X169900Y198100D02*
Y200599D01*
X171150D01*
X171566Y200183D01*
Y199350D01*
X171150Y198933D01*
X169900D01*
X170733D02*
X171566Y198100D01*
X172399Y200599D02*
Y198933D01*
X173232Y198100D01*
X174065Y198933D01*
Y200599D01*
X176565Y198100D02*
X174898D01*
X176565Y199766D01*
Y200183D01*
X176148Y200599D01*
X175315D01*
X174898Y200183D01*
X179064Y198100D02*
X177398D01*
X179064Y199766D01*
Y200183D01*
X178647Y200599D01*
X177814D01*
X177398Y200183D01*
X88900Y216100D02*
Y218599D01*
X90150D01*
X90566Y218183D01*
Y217350D01*
X90150Y216933D01*
X88900D01*
X89733D02*
X90566Y216100D01*
X91399Y218599D02*
Y216933D01*
X92232Y216100D01*
X93065Y216933D01*
Y218599D01*
X95565Y216100D02*
X93898D01*
X95565Y217766D01*
Y218183D01*
X95148Y218599D01*
X94315D01*
X93898Y218183D01*
X96398D02*
X96814Y218599D01*
X97647D01*
X98064Y218183D01*
Y217766D01*
X97647Y217350D01*
X97231D01*
X97647D01*
X98064Y216933D01*
Y216516D01*
X97647Y216100D01*
X96814D01*
X96398Y216516D01*
X118200Y165002D02*
X120699D01*
Y163752D01*
X120283Y163336D01*
X119450D01*
X119033Y163752D01*
Y165002D01*
Y164169D02*
X118200Y163336D01*
X120699Y162502D02*
X119033D01*
X118200Y161669D01*
X119033Y160836D01*
X120699D01*
X118200Y158337D02*
Y160003D01*
X119866Y158337D01*
X120283D01*
X120699Y158754D01*
Y159587D01*
X120283Y160003D01*
X118200Y156254D02*
X120699D01*
X119450Y157504D01*
Y155838D01*
X137200Y115700D02*
Y118199D01*
X138450D01*
X138866Y117783D01*
Y116950D01*
X138450Y116533D01*
X137200D01*
X138033D02*
X138866Y115700D01*
X139699Y118199D02*
Y116533D01*
X140532Y115700D01*
X141365Y116533D01*
Y118199D01*
X143865Y115700D02*
X142198D01*
X143865Y117366D01*
Y117783D01*
X143448Y118199D01*
X142615D01*
X142198Y117783D01*
X146364Y118199D02*
X144698D01*
Y116950D01*
X145531Y117366D01*
X145947D01*
X146364Y116950D01*
Y116116D01*
X145947Y115700D01*
X145114D01*
X144698Y116116D01*
X95524Y198100D02*
Y200599D01*
X96774D01*
X97190Y200183D01*
Y199350D01*
X96774Y198933D01*
X95524D01*
X96358D02*
X97190Y198100D01*
X98024D02*
Y200599D01*
X99690Y198100D01*
Y200599D01*
X101772Y198100D02*
Y200599D01*
X100523Y199350D01*
X102189D01*
X117600Y224900D02*
Y227399D01*
X118850D01*
X119266Y226983D01*
Y226150D01*
X118850Y225733D01*
X117600D01*
X118433D02*
X119266Y224900D01*
X120099D02*
X120932D01*
X120516D01*
Y227399D01*
X120099Y226983D01*
X122182Y225317D02*
X122598Y224900D01*
X123431D01*
X123848Y225317D01*
Y226983D01*
X123431Y227399D01*
X122598D01*
X122182Y226983D01*
Y226566D01*
X122598Y226150D01*
X123848D01*
X148300Y206100D02*
Y203601D01*
X147050D01*
X146634Y204017D01*
Y204850D01*
X147050Y205267D01*
X148300D01*
X147467D02*
X146634Y206100D01*
X144135D02*
X145801D01*
X144135Y204434D01*
Y204017D01*
X144551Y203601D01*
X145384D01*
X145801Y204017D01*
X143302D02*
X142885Y203601D01*
X142052D01*
X141636Y204017D01*
Y205683D01*
X142052Y206100D01*
X142885D01*
X143302Y205683D01*
Y204017D01*
X139800Y240100D02*
Y237601D01*
X138550D01*
X138134Y238017D01*
Y238850D01*
X138550Y239267D01*
X139800D01*
X138967D02*
X138134Y240100D01*
X135635D02*
X137301D01*
X135635Y238434D01*
Y238017D01*
X136051Y237601D01*
X136884D01*
X137301Y238017D01*
X134802Y237601D02*
X133135D01*
Y238017D01*
X134802Y239684D01*
Y240100D01*
X267700Y138100D02*
Y140599D01*
X268950D01*
X269366Y140183D01*
Y139350D01*
X268950Y138933D01*
X267700D01*
X268533D02*
X269366Y138100D01*
X271865D02*
X270199D01*
X271865Y139766D01*
Y140183D01*
X271449Y140599D01*
X270616D01*
X270199Y140183D01*
X272698D02*
X273115Y140599D01*
X273948D01*
X274364Y140183D01*
Y139766D01*
X273948Y139350D01*
X274364Y138933D01*
Y138516D01*
X273948Y138100D01*
X273115D01*
X272698Y138516D01*
Y138933D01*
X273115Y139350D01*
X272698Y139766D01*
Y140183D01*
X273115Y139350D02*
X273948D01*
X257900Y196600D02*
Y199099D01*
X259150D01*
X259566Y198683D01*
Y197850D01*
X259150Y197433D01*
X257900D01*
X258733D02*
X259566Y196600D01*
X262065D02*
X260399D01*
X262065Y198266D01*
Y198683D01*
X261649Y199099D01*
X260816D01*
X260399Y198683D01*
X262898Y197017D02*
X263315Y196600D01*
X264148D01*
X264564Y197017D01*
Y198683D01*
X264148Y199099D01*
X263315D01*
X262898Y198683D01*
Y198266D01*
X263315Y197850D01*
X264564D01*
X268500Y134300D02*
Y136799D01*
X269750D01*
X270166Y136383D01*
Y135550D01*
X269750Y135133D01*
X268500D01*
X269333D02*
X270166Y134300D01*
X270999Y136383D02*
X271416Y136799D01*
X272249D01*
X272665Y136383D01*
Y135966D01*
X272249Y135550D01*
X271832D01*
X272249D01*
X272665Y135133D01*
Y134716D01*
X272249Y134300D01*
X271416D01*
X270999Y134716D01*
X273498Y136383D02*
X273915Y136799D01*
X274748D01*
X275165Y136383D01*
Y134716D01*
X274748Y134300D01*
X273915D01*
X273498Y134716D01*
Y136383D01*
X300166Y129883D02*
X299750Y130299D01*
X298917D01*
X298500Y129883D01*
Y128217D01*
X298917Y127800D01*
X299750D01*
X300166Y128217D01*
X302249Y127800D02*
Y130299D01*
X300999Y129050D01*
X302665D01*
X305165Y127800D02*
X303498D01*
X305165Y129466D01*
Y129883D01*
X304748Y130299D01*
X303915D01*
X303498Y129883D01*
X259766Y210683D02*
X259350Y211099D01*
X258517D01*
X258100Y210683D01*
Y209016D01*
X258517Y208600D01*
X259350D01*
X259766Y209016D01*
X261849Y208600D02*
Y211099D01*
X260599Y209850D01*
X262265D01*
X263098Y210683D02*
X263515Y211099D01*
X264348D01*
X264764Y210683D01*
Y210266D01*
X264348Y209850D01*
X263931D01*
X264348D01*
X264764Y209433D01*
Y209016D01*
X264348Y208600D01*
X263515D01*
X263098Y209016D01*
X207900Y144500D02*
X205401D01*
Y145750D01*
X205817Y146166D01*
X206650D01*
X207067Y145750D01*
Y144500D01*
Y145333D02*
X207900Y146166D01*
X205817Y146999D02*
X205401Y147416D01*
Y148249D01*
X205817Y148665D01*
X206234D01*
X206650Y148249D01*
Y147832D01*
Y148249D01*
X207067Y148665D01*
X207484D01*
X207900Y148249D01*
Y147416D01*
X207484Y146999D01*
X205817Y149498D02*
X205401Y149915D01*
Y150748D01*
X205817Y151164D01*
X206234D01*
X206650Y150748D01*
X207067Y151164D01*
X207484D01*
X207900Y150748D01*
Y149915D01*
X207484Y149498D01*
X207067D01*
X206650Y149915D01*
X206234Y149498D01*
X205817D01*
X206650Y149915D02*
Y150748D01*
X203000Y153600D02*
X200501D01*
Y154850D01*
X200917Y155266D01*
X201750D01*
X202167Y154850D01*
Y153600D01*
Y154433D02*
X203000Y155266D01*
X200917Y156099D02*
X200501Y156516D01*
Y157349D01*
X200917Y157765D01*
X201334D01*
X201750Y157349D01*
Y156932D01*
Y157349D01*
X202167Y157765D01*
X202584D01*
X203000Y157349D01*
Y156516D01*
X202584Y156099D01*
Y158598D02*
X203000Y159015D01*
Y159848D01*
X202584Y160265D01*
X200917D01*
X200501Y159848D01*
Y159015D01*
X200917Y158598D01*
X201334D01*
X201750Y159015D01*
Y160265D01*
X218600Y122400D02*
Y124899D01*
X219850D01*
X220266Y124483D01*
Y123650D01*
X219850Y123233D01*
X218600D01*
X219433D02*
X220266Y122400D01*
X222349D02*
Y124899D01*
X221099Y123650D01*
X222765D01*
X223598Y122400D02*
X224431D01*
X224015D01*
Y124899D01*
X223598Y124483D01*
X298500Y124400D02*
Y126899D01*
X299750D01*
X300166Y126483D01*
Y125650D01*
X299750Y125233D01*
X298500D01*
X299333D02*
X300166Y124400D01*
X302249D02*
Y126899D01*
X300999Y125650D01*
X302665D01*
X304748Y124400D02*
Y126899D01*
X303498Y125650D01*
X305165D01*
X258100Y204500D02*
Y206999D01*
X259350D01*
X259766Y206583D01*
Y205750D01*
X259350Y205333D01*
X258100D01*
X258933D02*
X259766Y204500D01*
X261849D02*
Y206999D01*
X260599Y205750D01*
X262265D01*
X264764Y206999D02*
X263098D01*
Y205750D01*
X263931Y206166D01*
X264348D01*
X264764Y205750D01*
Y204917D01*
X264348Y204500D01*
X263515D01*
X263098Y204917D01*
X224700Y157099D02*
Y154600D01*
X225950D01*
X226366Y155017D01*
Y156683D01*
X225950Y157099D01*
X224700D01*
X227199Y154600D02*
X228032D01*
X227616D01*
Y157099D01*
X227199Y156683D01*
X230948Y154600D02*
X229282D01*
X230948Y156266D01*
Y156683D01*
X230531Y157099D01*
X229698D01*
X229282Y156683D01*
X203066Y189699D02*
X201400D01*
Y188450D01*
X202233D01*
X201400D01*
Y187200D01*
X203899Y189699D02*
Y187200D01*
X205149D01*
X205565Y187617D01*
Y188033D01*
X205149Y188450D01*
X203899D01*
X205149D01*
X205565Y188866D01*
Y189283D01*
X205149Y189699D01*
X203899D01*
X206398Y189283D02*
X206815Y189699D01*
X207648D01*
X208065Y189283D01*
Y188866D01*
X207648Y188450D01*
X207231D01*
X207648D01*
X208065Y188033D01*
Y187617D01*
X207648Y187200D01*
X206815D01*
X206398Y187617D01*
X206401Y118966D02*
Y117300D01*
X207650D01*
Y118133D01*
Y117300D01*
X208900D01*
X206401Y119799D02*
X208900D01*
Y121049D01*
X208484Y121465D01*
X208067D01*
X207650Y121049D01*
Y119799D01*
Y121049D01*
X207234Y121465D01*
X206817D01*
X206401Y121049D01*
Y119799D01*
X208900Y123548D02*
X206401D01*
X207650Y122298D01*
Y123965D01*
X268300Y225000D02*
Y227499D01*
X269550D01*
X269966Y227083D01*
Y226250D01*
X269550Y225833D01*
X268300D01*
X269133D02*
X269966Y225000D01*
X272465Y227499D02*
X270799D01*
Y226250D01*
X271632Y226666D01*
X272049D01*
X272465Y226250D01*
Y225416D01*
X272049Y225000D01*
X271216D01*
X270799Y225416D01*
X273298Y225000D02*
X274131D01*
X273715D01*
Y227499D01*
X273298Y227083D01*
X268100Y262400D02*
Y264899D01*
X269350D01*
X269766Y264483D01*
Y263650D01*
X269350Y263233D01*
X268100D01*
X268933D02*
X269766Y262400D01*
X272265Y264899D02*
X271432Y264483D01*
X270599Y263650D01*
Y262817D01*
X271016Y262400D01*
X271849D01*
X272265Y262817D01*
Y263233D01*
X271849Y263650D01*
X270599D01*
X273098Y262400D02*
X273931D01*
X273515D01*
Y264899D01*
X273098Y264483D01*
X358001Y246700D02*
X360500D01*
Y247950D01*
X360084Y248366D01*
X359667D01*
X359250Y247950D01*
Y246700D01*
Y247950D01*
X358834Y248366D01*
X358417D01*
X358001Y247950D01*
Y246700D01*
Y250865D02*
Y249199D01*
X360500D01*
Y250865D01*
X359250Y249199D02*
Y250032D01*
X358001Y251698D02*
X360500D01*
Y252948D01*
X360084Y253364D01*
X358417D01*
X358001Y252948D01*
Y251698D01*
X29801Y227499D02*
Y225500D01*
X32800D01*
Y227499D01*
X31301Y225500D02*
Y226500D01*
X32800Y228499D02*
X30801D01*
Y229998D01*
X31301Y230498D01*
X32800D01*
X29801Y233497D02*
X32800D01*
Y231998D01*
X32300Y231498D01*
X31301D01*
X30801Y231998D01*
Y233497D01*
X32800Y234497D02*
Y235997D01*
X32300Y236496D01*
X31800Y235997D01*
Y234997D01*
X31301Y234497D01*
X30801Y234997D01*
Y236496D01*
X30301Y237996D02*
X30801D01*
Y237496D01*
Y238496D01*
Y237996D01*
X32300D01*
X32800Y238496D01*
Y240495D02*
Y241495D01*
X32300Y241995D01*
X31301D01*
X30801Y241495D01*
Y240495D01*
X31301Y239995D01*
X32300D01*
X32800Y240495D01*
X33800Y242994D02*
X30801D01*
Y244494D01*
X31301Y244994D01*
X32300D01*
X32800Y244494D01*
Y242994D01*
Y245993D02*
Y247493D01*
X32300Y247993D01*
X31800Y247493D01*
Y246493D01*
X31301Y245993D01*
X30801Y246493D01*
Y247993D01*
G54D137*
X64341Y81200D02*
D03*
X19600Y85600D02*
D03*
X29764Y80546D02*
D03*
X30800Y46600D02*
D03*
X20000Y51000D02*
D03*
X65030Y48054D02*
D03*
X75264Y42346D02*
D03*
X110200Y47500D02*
D03*
X120400Y43000D02*
D03*
X206300Y47200D02*
D03*
X216964Y42146D02*
D03*
X216500Y76800D02*
D03*
X206000Y81300D02*
D03*
X119964Y76346D02*
D03*
X109830Y82054D02*
D03*
G54D138*
X90813Y144104D02*
D03*
G54D139*
X201138Y125031D02*
X205862D01*
X201138Y116369D02*
X205862D01*
Y125031D01*
X201138Y116369D02*
Y125031D01*
X18349Y81136D02*
Y85664D01*
X24451Y81136D02*
Y85664D01*
X18349D02*
X24451D01*
X18349Y81136D02*
X24451D01*
X57969Y151138D02*
X66631D01*
X57969Y155862D02*
X66631D01*
Y151138D02*
Y155862D01*
X57969Y151138D02*
Y155862D01*
X205249Y42736D02*
X211351D01*
X205249Y47264D02*
X211351D01*
Y42736D02*
Y47264D01*
X205249Y42736D02*
Y47264D01*
X217751Y42736D02*
Y47264D01*
X211649Y42736D02*
Y47264D01*
Y42736D02*
X217751D01*
X211649Y47264D02*
X217751D01*
X205049Y76836D02*
X211151D01*
X205049Y81364D02*
X211151D01*
Y76836D02*
Y81364D01*
X205049Y76836D02*
Y81364D01*
X217051Y76836D02*
Y81364D01*
X210949Y76836D02*
Y81364D01*
Y76836D02*
X217051D01*
X210949Y81364D02*
X217051D01*
X109049Y42836D02*
X115151D01*
X109049Y47364D02*
X115151D01*
Y42836D02*
Y47364D01*
X109049Y42836D02*
Y47364D01*
X121251Y42836D02*
Y47364D01*
X115149Y42836D02*
Y47364D01*
Y42836D02*
X121251D01*
X115149Y47364D02*
X121251D01*
X114649Y81464D02*
X120751D01*
X114649Y76936D02*
X120751D01*
X114649D02*
Y81464D01*
X120751Y76936D02*
Y81464D01*
X108649Y76936D02*
Y81464D01*
X114751Y76936D02*
Y81464D01*
X108649D02*
X114751D01*
X108649Y76936D02*
X114751D01*
X63849Y42936D02*
X69951D01*
X63849Y47464D02*
X69951D01*
Y42936D02*
Y47464D01*
X63849Y42936D02*
Y47464D01*
X76051Y42936D02*
Y47464D01*
X69949Y42936D02*
Y47464D01*
Y42936D02*
X76051D01*
X69949Y47464D02*
X76051D01*
X63649Y76936D02*
X69751D01*
X63649Y81464D02*
X69751D01*
Y76936D02*
Y81464D01*
X63649Y76936D02*
Y81464D01*
X75751Y76936D02*
Y81464D01*
X69649Y76936D02*
Y81464D01*
Y76936D02*
X75751D01*
X69649Y81464D02*
X75751D01*
X19349Y46536D02*
X25451D01*
X19349Y51064D02*
X25451D01*
Y46536D02*
Y51064D01*
X19349Y46536D02*
Y51064D01*
X31551Y46536D02*
Y51064D01*
X25449Y46536D02*
Y51064D01*
Y46536D02*
X31551D01*
X25449Y51064D02*
X31551D01*
X24449Y85664D02*
X30551D01*
X24449Y81136D02*
X30551D01*
X24449D02*
Y85664D01*
X30551Y81136D02*
Y85664D01*
X209631Y179838D02*
Y184562D01*
X200969Y179838D02*
Y184562D01*
Y179838D02*
X209631D01*
X200969Y184562D02*
X209631D01*
G54D140*
X201870Y72931D02*
Y74604D01*
X203543D01*
X221457D02*
X223130D01*
Y72931D02*
Y74604D01*
Y49407D02*
Y51080D01*
X221457Y49407D02*
X223130D01*
X201870D02*
Y51080D01*
Y49407D02*
X203543D01*
X105470Y72931D02*
Y74604D01*
X107143D01*
X125057D02*
X126730D01*
Y72931D02*
Y74604D01*
Y49407D02*
Y51080D01*
X125057Y49407D02*
X126730D01*
X105470D02*
Y51080D01*
Y49407D02*
X107143D01*
X60470Y72931D02*
Y74604D01*
X62143D01*
X80057D02*
X81730D01*
Y72931D02*
Y74604D01*
Y49407D02*
Y51080D01*
X80057Y49407D02*
X81730D01*
X60470D02*
Y51080D01*
Y49407D02*
X62143D01*
X15732Y76531D02*
Y78204D01*
X17405D01*
X35319D02*
X36992D01*
Y76531D02*
Y78204D01*
Y53007D02*
Y54680D01*
X35319Y53007D02*
X36992D01*
X15732D02*
Y54680D01*
Y53007D02*
X17405D01*
X163528Y248402D02*
X234472D01*
X163528Y273598D02*
X234472D01*
X163528Y248402D02*
Y273598D01*
X234472Y248402D02*
Y273598D01*
X240568Y227171D02*
X260568D01*
X240568Y277171D02*
X260568D01*
Y227171D02*
Y277171D01*
X240568Y227171D02*
Y277171D01*
X323525Y224547D02*
X326675D01*
X323525Y230453D02*
X326675D01*
X335263Y82250D02*
X343137D01*
X335263Y88550D02*
X343137D01*
X303832Y264202D02*
X320368D01*
X303832Y251998D02*
X320368D01*
X318510Y245950D02*
X323628D01*
X318510Y232564D02*
X323628D01*
X366850Y21963D02*
Y29837D01*
X360550Y21963D02*
Y29837D01*
X163528Y210902D02*
X234472D01*
X163528Y236098D02*
X234472D01*
X163528Y210902D02*
Y236098D01*
X234472Y210902D02*
Y236098D01*
G54D141*
X93522Y202447D02*
Y208400D01*
X105824Y202447D02*
Y208400D01*
X39175Y212877D02*
Y217600D01*
X36000Y212877D02*
Y217600D01*
X323328Y125439D02*
Y153019D01*
X297733Y125439D02*
Y153019D01*
X99730Y190529D02*
Y196482D01*
X87428Y190529D02*
Y196482D01*
X164972Y67050D02*
Y73002D01*
X177275Y67050D02*
Y73002D01*
Y81026D02*
Y86979D01*
X164972Y81026D02*
Y86979D01*
Y96577D02*
Y102530D01*
X177275Y96577D02*
Y102530D01*
X52117Y198413D02*
Y203135D01*
X48943Y198413D02*
Y203135D01*
G54D142*
X342000Y221200D02*
Y236768D01*
X334230Y221200D02*
Y236768D01*
X342000D01*
X334230Y221200D02*
X342000D01*
X296220Y31644D02*
Y37156D01*
X286180D02*
X296220D01*
X286180Y31644D02*
Y37156D01*
Y31644D02*
X296220D01*
X52300Y125700D02*
Y133470D01*
X67868Y125700D02*
Y133470D01*
X52300D02*
X67868D01*
X52300Y125700D02*
X67868D01*
X59301Y170500D02*
X66900D01*
Y166598D02*
Y170500D01*
X59301Y166598D02*
X66900D01*
X59301D02*
Y170500D01*
X122998Y171499D02*
X126900D01*
X122998Y163900D02*
Y171499D01*
Y163900D02*
X126900D01*
Y171499D01*
X17200Y85650D02*
Y104350D01*
X24970D01*
Y85650D02*
Y104350D01*
X17200Y85650D02*
X24970D01*
X41544Y79580D02*
X47056D01*
Y89620D01*
X41544D02*
X47056D01*
X41544Y79580D02*
Y89620D01*
X91300Y215700D02*
X98899D01*
X91300D02*
Y219602D01*
X98899D01*
Y215700D02*
Y219602D01*
X59300Y156100D02*
X66899D01*
X59300D02*
Y160002D01*
X66899D01*
Y156100D02*
Y160002D01*
X211850Y34900D02*
Y42670D01*
X193150D02*
X211850D01*
X193150Y34900D02*
Y42670D01*
Y34900D02*
X211850D01*
X204900Y81450D02*
Y100150D01*
X212670D01*
Y81450D02*
Y100150D01*
X204900Y81450D02*
X212670D01*
X115350Y34800D02*
Y42570D01*
X96650D02*
X115350D01*
X96650Y34800D02*
Y42570D01*
Y34800D02*
X115350D01*
X106750Y95700D02*
X125450D01*
Y87930D02*
Y95700D01*
X106750Y87930D02*
X125450D01*
X106750D02*
Y95700D01*
X73350Y35200D02*
Y42970D01*
X54650D02*
X73350D01*
X54650Y35200D02*
Y42970D01*
Y35200D02*
X73350D01*
X63200Y81450D02*
Y100150D01*
X70970D01*
Y81450D02*
Y100150D01*
X63200Y81450D02*
X70970D01*
X29950Y38800D02*
Y46570D01*
X11250D02*
X29950D01*
X11250Y38800D02*
Y46570D01*
Y38800D02*
X29950D01*
X212480Y35244D02*
X222520D01*
X212480D02*
Y40756D01*
X222520D01*
Y35244D02*
Y40756D01*
X191580Y27944D02*
Y33456D01*
Y27944D02*
X201620D01*
Y33456D01*
X191580D02*
X201620D01*
X202880D02*
X212920D01*
Y27944D02*
Y33456D01*
X202880Y27944D02*
X212920D01*
X202880D02*
Y33456D01*
X212744Y97320D02*
X218256D01*
X212744Y87280D02*
Y97320D01*
Y87280D02*
X218256D01*
Y97320D01*
X213180Y33756D02*
X223220D01*
Y28244D02*
Y33756D01*
X213180Y28244D02*
X223220D01*
X213180D02*
Y33756D01*
X224780Y28244D02*
Y33756D01*
Y28244D02*
X234820D01*
Y33756D01*
X224780D02*
X234820D01*
X227644Y76580D02*
Y86620D01*
X233156D01*
Y76580D02*
Y86620D01*
X227644Y76580D02*
X233156D01*
X226520Y81544D02*
Y87056D01*
X216480D02*
X226520D01*
X216480Y81544D02*
Y87056D01*
Y81544D02*
X226520D01*
X224880Y41344D02*
X234920D01*
X224880D02*
Y46856D01*
X234920D01*
Y41344D02*
Y46856D01*
X115444Y32580D02*
X120956D01*
Y42620D01*
X115444D02*
X120956D01*
X115444Y32580D02*
Y42620D01*
X93680Y42744D02*
X103720D01*
X93680D02*
Y48256D01*
X103720D01*
Y42744D02*
Y48256D01*
X124780Y35444D02*
Y40956D01*
Y35444D02*
X134820D01*
Y40956D01*
X124780D02*
X134820D01*
X106380Y82344D02*
X116420D01*
X106380D02*
Y87856D01*
X116420D01*
Y82344D02*
Y87856D01*
X165020Y56244D02*
Y61756D01*
X154980D02*
X165020D01*
X154980Y56244D02*
Y61756D01*
Y56244D02*
X165020D01*
X170980Y61956D02*
X181020D01*
Y56444D02*
Y61956D01*
X170980Y56444D02*
X181020D01*
X170980D02*
Y61956D01*
X131780Y75944D02*
Y81456D01*
Y75944D02*
X141820D01*
Y81456D01*
X131780D02*
X141820D01*
X120180Y81644D02*
X130220D01*
X120180D02*
Y87156D01*
X130220D01*
Y81644D02*
Y87156D01*
X138920Y42044D02*
Y47556D01*
X128880D02*
X138920D01*
X128880Y42044D02*
Y47556D01*
Y42044D02*
X138920D01*
X75280Y81644D02*
X85320D01*
X75280D02*
Y87156D01*
X85320D01*
Y81644D02*
Y87156D01*
X89720Y41944D02*
Y47456D01*
X79680D02*
X89720D01*
X79680Y41944D02*
Y47456D01*
Y41944D02*
X89720D01*
X64680Y34756D02*
X74720D01*
Y29244D02*
Y34756D01*
X64680Y29244D02*
X74720D01*
X64680D02*
Y34756D01*
X58620Y42944D02*
Y48456D01*
X48580D02*
X58620D01*
X48580Y42944D02*
Y48456D01*
Y42944D02*
X58620D01*
X82380Y33256D02*
X92420D01*
Y27744D02*
Y33256D01*
X82380Y27744D02*
X92420D01*
X82380D02*
Y33256D01*
X71144Y97220D02*
X76656D01*
X71144Y87180D02*
Y97220D01*
Y87180D02*
X76656D01*
Y97220D01*
X99380Y27844D02*
X109420D01*
X99380D02*
Y33356D01*
X109420D01*
Y27844D02*
Y33356D01*
X120680Y27444D02*
Y32956D01*
Y27444D02*
X130720D01*
Y32956D01*
X120680D02*
X130720D01*
X86444Y76180D02*
Y86220D01*
X91956D01*
Y76180D02*
Y86220D01*
X86444Y76180D02*
X91956D01*
X301544Y123020D02*
X307056D01*
X301544Y112980D02*
Y123020D01*
Y112980D02*
X307056D01*
Y123020D01*
X339680Y101556D02*
X349720D01*
Y96044D02*
Y101556D01*
X339680Y96044D02*
X349720D01*
X339680D02*
Y101556D01*
X328980Y90444D02*
Y95956D01*
Y90444D02*
X339020D01*
Y95956D01*
X328980D02*
X339020D01*
X339680Y90444D02*
X349720D01*
X339680D02*
Y95956D01*
X349720D01*
Y90444D02*
Y95956D01*
X368344Y15980D02*
X373856D01*
Y26020D01*
X368344D02*
X373856D01*
X368344Y15980D02*
Y26020D01*
X373856Y27780D02*
Y37820D01*
X368344Y27780D02*
X373856D01*
X368344D02*
Y37820D01*
X373856D01*
X298144Y231480D02*
X303656D01*
Y241520D01*
X298144D02*
X303656D01*
X298144Y231480D02*
Y241520D01*
X299380Y223456D02*
X309420D01*
Y217944D02*
Y223456D01*
X299380Y217944D02*
X309420D01*
X299380D02*
Y223456D01*
X354980Y9044D02*
Y14556D01*
Y9044D02*
X365020D01*
Y14556D01*
X354980D02*
X365020D01*
X314680Y122456D02*
X324720D01*
Y116944D02*
Y122456D01*
X314680Y116944D02*
X324720D01*
X314680D02*
Y122456D01*
X30680Y84144D02*
X40720D01*
X30680D02*
Y89656D01*
X40720D01*
Y84144D02*
Y89656D01*
X48320Y45144D02*
Y50656D01*
X38280D02*
X48320D01*
X38280Y45144D02*
Y50656D01*
Y45144D02*
X48320D01*
X30144Y36480D02*
Y46520D01*
X35656D01*
Y36480D02*
Y46520D01*
X30144Y36480D02*
X35656D01*
X14620Y46744D02*
Y52256D01*
X4580D02*
X14620D01*
X4580Y46744D02*
Y52256D01*
Y46744D02*
X14620D01*
X41356Y35080D02*
Y45120D01*
X35844Y35080D02*
X41356D01*
X35844D02*
Y45120D01*
X41356D01*
X25144Y99120D02*
X30656D01*
X25144Y89080D02*
Y99120D01*
Y89080D02*
X30656D01*
Y99120D01*
X43703Y28244D02*
X53742D01*
X43703D02*
Y33756D01*
X53742D01*
Y28244D02*
Y33756D01*
X63820Y28244D02*
Y33756D01*
X53780D02*
X63820D01*
X53780Y28244D02*
Y33756D01*
Y28244D02*
X63820D01*
X192080Y113256D02*
X202120D01*
Y107744D02*
Y113256D01*
X192080Y107744D02*
X202120D01*
X192080D02*
Y113256D01*
X312200Y223730D02*
Y231500D01*
X296632Y223730D02*
Y231500D01*
Y223730D02*
X312200D01*
X296632Y231500D02*
X312200D01*
X158199Y272600D02*
Y276502D01*
X150600D02*
X158199D01*
X150600Y272600D02*
Y276502D01*
Y272600D02*
X158199D01*
X268000Y271000D02*
X275599D01*
X268000D02*
Y274902D01*
X275599D01*
Y271000D02*
Y274902D01*
X265201Y211600D02*
X272800D01*
Y207698D02*
Y211600D01*
X265201Y207698D02*
X272800D01*
X265201D02*
Y211600D01*
X295599Y128700D02*
Y132602D01*
X288000D02*
X295599D01*
X288000Y128700D02*
Y132602D01*
Y128700D02*
X295599D01*
X147771Y118400D02*
X155370D01*
Y114498D02*
Y118400D01*
X147771Y114498D02*
X155370D01*
X147771D02*
Y118400D01*
X107501Y172198D02*
Y176100D01*
Y172198D02*
X115100D01*
Y176100D01*
X107501D02*
X115100D01*
X99100Y219700D02*
X106699D01*
X99100D02*
Y223602D01*
X106699D01*
Y219700D02*
Y223602D01*
X175998Y197699D02*
X179900D01*
X175998Y190100D02*
Y197699D01*
Y190100D02*
X179900D01*
Y197699D01*
X185700Y190200D02*
Y197799D01*
X181798Y190200D02*
X185700D01*
X181798D02*
Y197799D01*
X185700D01*
X187498D02*
X191400D01*
X187498Y190200D02*
Y197799D01*
Y190200D02*
X191400D01*
Y197799D01*
X221501Y205200D02*
X229100D01*
Y201298D02*
Y205200D01*
X221501Y201298D02*
X229100D01*
X221501D02*
Y205200D01*
X142001Y202398D02*
Y206300D01*
Y202398D02*
X149600D01*
Y206300D01*
X142001D02*
X149600D01*
X106900Y219600D02*
X114499D01*
X106900D02*
Y223502D01*
X114499D01*
Y219600D02*
Y223502D01*
X130099Y219600D02*
Y223502D01*
X122500D02*
X130099D01*
X122500Y219600D02*
Y223502D01*
Y219600D02*
X130099D01*
X114701Y223500D02*
X122300D01*
Y219598D02*
Y223500D01*
X114701Y219598D02*
X122300D01*
X114701D02*
Y223500D01*
X137899Y219600D02*
Y223502D01*
X130300D02*
X137899D01*
X130300Y219600D02*
Y223502D01*
Y219600D02*
X137899D01*
X145900Y206500D02*
Y214099D01*
X141998Y206500D02*
X145900D01*
X141998D02*
Y214099D01*
X145900D01*
X154798Y223099D02*
X158700D01*
X154798Y215500D02*
Y223099D01*
Y215500D02*
X158700D01*
Y223099D01*
X145801Y223500D02*
X153400D01*
Y219598D02*
Y223500D01*
X145801Y219598D02*
X153400D01*
X145801D02*
Y223500D01*
X150800Y191301D02*
X154702D01*
Y198900D01*
X150800D02*
X154702D01*
X150800Y191301D02*
Y198900D01*
X154600Y198571D02*
Y206170D01*
X158502D01*
Y198571D02*
Y206170D01*
X154600Y198571D02*
X158502D01*
X138101Y219598D02*
Y223500D01*
Y219598D02*
X145700D01*
Y223500D01*
X138101D02*
X145700D01*
X91270Y219700D02*
X98869D01*
X91270D02*
Y223602D01*
X98869D01*
Y219700D02*
Y223602D01*
X52301Y216898D02*
Y220800D01*
Y216898D02*
X59900D01*
Y220800D01*
X52301D02*
X59900D01*
X75701Y223700D02*
X83300D01*
Y219798D02*
Y223700D01*
X75701Y219798D02*
X83300D01*
X75701D02*
Y223700D01*
X44501Y216898D02*
Y220800D01*
Y216898D02*
X52100D01*
Y220800D01*
X44501D02*
X52100D01*
X60101Y222200D02*
X67700D01*
Y218298D02*
Y222200D01*
X60101Y218298D02*
X67700D01*
X60101D02*
Y222200D01*
X233899Y58600D02*
Y62502D01*
X226300D02*
X233899D01*
X226300Y58600D02*
Y62502D01*
Y58600D02*
X233899D01*
X218200Y77600D02*
X225799D01*
X218200D02*
Y81502D01*
X225799D01*
Y77600D02*
Y81502D01*
X196300Y50901D02*
X200202D01*
Y58500D01*
X196300D02*
X200202D01*
X196300Y50901D02*
Y58500D01*
X231800Y63600D02*
Y71199D01*
X227898Y63600D02*
X231800D01*
X227898D02*
Y71199D01*
X231800D01*
X225901Y71998D02*
Y75900D01*
Y71998D02*
X233500D01*
Y75900D01*
X225901D02*
X233500D01*
X130700Y59000D02*
X138299D01*
X130700D02*
Y62902D01*
X138299D01*
Y59000D02*
Y62902D01*
X99900Y51101D02*
X103802D01*
Y58700D01*
X99900D02*
X103802D01*
X99900Y51101D02*
Y58700D01*
X121900Y77700D02*
X129499D01*
X121900D02*
Y81602D01*
X129499D01*
Y77700D02*
Y81602D01*
X131398Y71199D02*
X135300D01*
X131398Y63600D02*
Y71199D01*
Y63600D02*
X135300D01*
Y71199D01*
X129401Y75900D02*
X137000D01*
Y71998D02*
Y75900D01*
X129401Y71998D02*
X137000D01*
X129401D02*
Y75900D01*
X92099Y59000D02*
Y62902D01*
X84500D02*
X92099D01*
X84500Y59000D02*
Y62902D01*
Y59000D02*
X92099D01*
X76900Y77700D02*
X84499D01*
X76900D02*
Y81602D01*
X84499D01*
Y77700D02*
Y81602D01*
X54800Y50001D02*
X58702D01*
Y57600D01*
X54800D02*
X58702D01*
X54800Y50001D02*
Y57600D01*
X90300Y63600D02*
Y71199D01*
X86398Y63600D02*
X90300D01*
X86398D02*
Y71199D01*
X90300D01*
X84239Y71898D02*
Y75800D01*
Y71898D02*
X91838D01*
Y75800D01*
X84239D02*
X91838D01*
X326600Y247200D02*
X334199D01*
X326600D02*
Y251102D01*
X334199D01*
Y247200D02*
Y251102D01*
X204501Y157298D02*
Y161200D01*
Y157298D02*
X212100D01*
Y161200D01*
X204501D02*
X212100D01*
X159892Y74644D02*
X167491D01*
X159892D02*
Y78546D01*
X167491D01*
Y74644D02*
Y78546D01*
X167787Y90983D02*
Y94884D01*
X160187D02*
X167787D01*
X160187Y90983D02*
Y94884D01*
Y90983D02*
X167787D01*
X167668Y74644D02*
X175267D01*
X167668D02*
Y78546D01*
X175267D01*
Y74644D02*
Y78546D01*
Y90983D02*
Y94884D01*
X167668D02*
X175267D01*
X167668Y90983D02*
Y94884D01*
Y90983D02*
X175267D01*
X175444Y78546D02*
X183043D01*
Y74644D02*
Y78546D01*
X175444Y74644D02*
X183043D01*
X175444D02*
Y78546D01*
Y90983D02*
Y94884D01*
Y90983D02*
X183043D01*
Y94884D01*
X175444D02*
X183043D01*
X43053Y180801D02*
Y188400D01*
X46954D01*
Y180801D02*
Y188400D01*
X43053Y180801D02*
X46954D01*
X82966Y144769D02*
X86868D01*
X82966Y137170D02*
Y144769D01*
Y137170D02*
X86868D01*
Y144769D01*
X118659Y137761D02*
Y145360D01*
X114757Y137761D02*
X118659D01*
X114757D02*
Y145360D01*
X118659D01*
X114757Y120235D02*
X118659D01*
Y127835D01*
X114757D02*
X118659D01*
X114757Y120235D02*
Y127835D01*
X82966Y119947D02*
Y127546D01*
X86868D01*
Y119947D02*
Y127546D01*
X82966Y119947D02*
X86868D01*
X167900Y189601D02*
X171802D01*
Y197200D01*
X167900D02*
X171802D01*
X167900Y189601D02*
Y197200D01*
X200901Y179800D02*
X208500D01*
Y175898D02*
Y179800D01*
X200901Y175898D02*
X208500D01*
X200901D02*
Y179800D01*
X222399Y157100D02*
Y161002D01*
X214800D02*
X222399D01*
X214800Y157100D02*
Y161002D01*
Y157100D02*
X222399D01*
X202525Y170529D02*
X210124D01*
Y166628D02*
Y170529D01*
X202525Y166628D02*
X210124D01*
X202525D02*
Y170529D01*
X106498Y162599D02*
X110400D01*
X106498Y155000D02*
Y162599D01*
Y155000D02*
X110400D01*
Y162599D01*
X111892Y147120D02*
X119491D01*
X111892D02*
Y151022D01*
X119491D01*
Y147120D02*
Y151022D01*
X81765Y156779D02*
Y160680D01*
X74165D02*
X81765D01*
X74165Y156779D02*
Y160680D01*
Y156779D02*
X81765D01*
X72301Y154300D02*
X79900D01*
Y150398D02*
Y154300D01*
X72301Y150398D02*
X79900D01*
X72301D02*
Y154300D01*
X56900Y140301D02*
X60802D01*
Y147900D01*
X56900D02*
X60802D01*
X56900Y140301D02*
Y147900D01*
X59300Y174900D02*
X66899D01*
X59300D02*
Y178802D01*
X66899D01*
Y174900D02*
Y178802D01*
X122100Y139301D02*
X126002D01*
Y146900D01*
X122100D02*
X126002D01*
X122100Y139301D02*
Y146900D01*
X59300Y162500D02*
X66899D01*
X59300D02*
Y166402D01*
X66899D01*
Y162500D02*
Y166402D01*
X52301Y133698D02*
Y137600D01*
Y133698D02*
X59900D01*
Y137600D01*
X52301D02*
X59900D01*
X31300Y211600D02*
Y219199D01*
X27398Y211600D02*
X31300D01*
X27398D02*
Y219199D01*
X31300D01*
X158062Y113878D02*
Y117780D01*
Y113878D02*
X165661D01*
Y117780D01*
X158062D02*
X165661D01*
X199600Y133628D02*
Y141227D01*
X203502D01*
Y133628D02*
Y141227D01*
X199600Y133628D02*
X203502D01*
X200950Y174663D02*
X208550D01*
Y170761D02*
Y174663D01*
X200950Y170761D02*
X208550D01*
X200950D02*
Y174663D01*
X47299Y62600D02*
Y66502D01*
X39700D02*
X47299D01*
X39700Y62600D02*
Y66502D01*
Y62600D02*
X47299D01*
X45700Y67200D02*
Y74799D01*
X41798Y67200D02*
X45700D01*
X41798D02*
Y74799D01*
X45700D01*
X10200Y53401D02*
X14102D01*
Y61000D01*
X10200D02*
X14102D01*
X10200Y53401D02*
Y61000D01*
X31100Y80200D02*
X38699D01*
X31100D02*
Y84102D01*
X38699D01*
Y80200D02*
Y84102D01*
X39701Y75498D02*
Y79400D01*
Y75498D02*
X47300D01*
Y79400D01*
X39701D02*
X47300D01*
X242201Y100800D02*
X249800D01*
Y96898D02*
Y100800D01*
X242201Y96898D02*
X249800D01*
X242201D02*
Y100800D01*
X265201Y203698D02*
Y207600D01*
Y203698D02*
X272800D01*
Y207600D01*
X265201D02*
X272800D01*
X288000Y124400D02*
X295599D01*
X288000D02*
Y128302D01*
X295599D01*
Y124400D02*
Y128302D01*
X210401Y121698D02*
Y125600D01*
Y121698D02*
X218000D01*
Y125600D01*
X210401D02*
X218000D01*
X204500Y153400D02*
X212099D01*
X204500D02*
Y157302D01*
X212099D01*
Y153400D02*
Y157302D01*
X211900Y139501D02*
X215802D01*
Y147100D01*
X211900D02*
X215802D01*
X211900Y139501D02*
Y147100D01*
X278000Y133200D02*
X285599D01*
X278000D02*
Y137102D01*
X285599D01*
Y133200D02*
Y137102D01*
X265191Y195698D02*
Y199600D01*
Y195698D02*
X272790D01*
Y199600D01*
X265191D02*
X272790D01*
X278001Y141300D02*
X285600D01*
Y137398D02*
Y141300D01*
X278001Y137398D02*
X285600D01*
X278001D02*
Y141300D01*
X138101Y215498D02*
Y219400D01*
Y215498D02*
X145700D01*
Y219400D01*
X138101D02*
X145700D01*
X142000Y194601D02*
Y202200D01*
X145902D01*
Y194601D02*
Y202200D01*
X142000Y194601D02*
X145902D01*
X106901Y215498D02*
Y219400D01*
Y215498D02*
X114500D01*
Y219400D01*
X106901D02*
X114500D01*
X232600Y63601D02*
Y71200D01*
X236502D01*
Y63601D02*
Y71200D01*
X232600Y63601D02*
X236502D01*
X136100D02*
X140002D01*
Y71200D01*
X136100D02*
X140002D01*
X136100Y63601D02*
Y71200D01*
X92100Y55601D02*
Y63200D01*
X96002D01*
Y55601D02*
Y63200D01*
X92100Y55601D02*
X96002D01*
X334201Y236798D02*
Y240700D01*
Y236798D02*
X341800D01*
Y240700D01*
X334201D02*
X341800D01*
X291400Y194100D02*
Y201699D01*
X287498Y194100D02*
X291400D01*
X287498D02*
Y201699D01*
X291400D01*
X212398Y177899D02*
X216300D01*
X212398Y170300D02*
Y177899D01*
Y170300D02*
X216300D01*
Y177899D01*
X214300Y113900D02*
Y121499D01*
X210398Y113900D02*
X214300D01*
X210398D02*
Y121499D01*
X214300D01*
X216000Y139501D02*
X219902D01*
Y147100D01*
X216000D02*
X219902D01*
X216000Y139501D02*
Y147100D01*
X216600Y174200D02*
X224199D01*
X216600D02*
Y178102D01*
X224199D01*
Y174200D02*
Y178102D01*
X146098Y202199D02*
X150000D01*
X146098Y194600D02*
Y202199D01*
Y194600D02*
X150000D01*
Y202199D01*
X53053Y180801D02*
Y188400D01*
X49151Y180801D02*
X53053D01*
X49151D02*
Y188400D01*
X53053D01*
X275398Y158699D02*
X279300D01*
X275398Y151100D02*
Y158699D01*
Y151100D02*
X279300D01*
Y158699D01*
X290300Y135800D02*
Y143399D01*
X286398Y135800D02*
X290300D01*
X286398D02*
Y143399D01*
X290300D01*
X59301Y170698D02*
Y174600D01*
Y170698D02*
X66900D01*
Y174600D01*
X59301D02*
X66900D01*
X352598Y266899D02*
X356500D01*
X352598Y259300D02*
Y266899D01*
Y259300D02*
X356500D01*
Y266899D01*
X314601Y164100D02*
X322200D01*
Y160198D02*
Y164100D01*
X314601Y160198D02*
X322200D01*
X314601D02*
Y164100D01*
X306701Y160198D02*
Y164100D01*
Y160198D02*
X314300D01*
Y164100D01*
X306701D02*
X314300D01*
X287401Y67500D02*
X295000D01*
Y63598D02*
Y67500D01*
X287401Y63598D02*
X295000D01*
X287401D02*
Y67500D01*
X283601Y67798D02*
Y71700D01*
Y67798D02*
X291200D01*
Y71700D01*
X283601D02*
X291200D01*
X266201Y72200D02*
X273800D01*
Y68298D02*
Y72200D01*
X266201Y68298D02*
X273800D01*
X266201D02*
Y72200D01*
X212101Y134998D02*
Y138900D01*
Y134998D02*
X219700D01*
Y138900D01*
X212101D02*
X219700D01*
X23601Y192000D02*
X31200D01*
Y188098D02*
Y192000D01*
X23601Y188098D02*
X31200D01*
X23601D02*
Y192000D01*
X224199Y170000D02*
Y173902D01*
X216600D02*
X224199D01*
X216600Y170000D02*
Y173902D01*
Y170000D02*
X224199D01*
X47500Y57501D02*
Y65100D01*
X51402D01*
Y57501D02*
Y65100D01*
X47500Y57501D02*
X51402D01*
X278398Y201699D02*
X282300D01*
X278398Y194100D02*
Y201699D01*
Y194100D02*
X282300D01*
Y201699D01*
X295500Y194100D02*
Y201699D01*
X291598Y194100D02*
X295500D01*
X291598D02*
Y201699D01*
X295500D01*
X282498D02*
X286400D01*
X282498Y194100D02*
Y201699D01*
Y194100D02*
X286400D01*
Y201699D01*
X265200Y199700D02*
X272799D01*
X265200D02*
Y203602D01*
X272799D01*
Y199700D02*
Y203602D01*
X145800Y215500D02*
X153399D01*
X145800D02*
Y219402D01*
X153399D01*
Y215500D02*
Y219402D01*
X151598Y214499D02*
X155500D01*
X151598Y206900D02*
Y214499D01*
Y206900D02*
X155500D01*
Y214499D01*
X146100Y206501D02*
Y214100D01*
X150002D01*
Y206501D02*
Y214100D01*
X146100Y206501D02*
X150002D01*
X137899Y215500D02*
Y219402D01*
X130300D02*
X137899D01*
X130300Y215500D02*
Y219402D01*
Y215500D02*
X137899D01*
X114700D02*
X122299D01*
X114700D02*
Y219402D01*
X122299D01*
Y215500D02*
Y219402D01*
X122501Y215498D02*
Y219400D01*
Y215498D02*
X130100D01*
Y219400D01*
X122501D02*
X130100D01*
X211701Y205000D02*
X219300D01*
Y201098D02*
Y205000D01*
X211701Y201098D02*
X219300D01*
X211701D02*
Y205000D01*
X67900Y218300D02*
X75499D01*
X67900D02*
Y222202D01*
X75499D01*
Y218300D02*
Y222202D01*
X91099Y219800D02*
Y223702D01*
X83500D02*
X91099D01*
X83500Y219800D02*
Y223702D01*
Y219800D02*
X91099D01*
X334500Y241001D02*
X338402D01*
Y248600D01*
X334500D02*
X338402D01*
X334500Y241001D02*
Y248600D01*
X326700Y251501D02*
X330602D01*
Y259100D01*
X326700D02*
X330602D01*
X326700Y251501D02*
Y259100D01*
X330798Y259099D02*
X334700D01*
X330798Y251500D02*
Y259099D01*
Y251500D02*
X334700D01*
Y259099D01*
X31498Y219199D02*
X35400D01*
X31498Y211600D02*
Y219199D01*
Y211600D02*
X35400D01*
Y219199D01*
X43498Y197112D02*
X47399D01*
Y204711D01*
X43498D02*
X47399D01*
X43498Y197112D02*
Y204711D01*
X267900Y214801D02*
X271802D01*
Y222400D01*
X267900D02*
X271802D01*
X267900Y214801D02*
Y222400D01*
X267700Y252201D02*
X271602D01*
Y259800D01*
X267700D02*
X271602D01*
X267700Y252201D02*
Y259800D01*
G54D143*
X282671Y258105D02*
D03*
X290929Y117894D02*
D03*
X285502Y26360D02*
D03*
X285410Y14378D02*
D03*
G54D144*
X310487Y133407D02*
D03*
G54D145*
X293305Y143500D02*
D03*
X282805Y158300D02*
D03*
X354495Y250001D02*
D03*
X96869Y172949D02*
D03*
X96782Y159582D02*
D03*
G54D146*
X295700Y143500D02*
D03*
X285200Y158300D02*
D03*
X352100Y250001D02*
D03*
X94473Y172949D02*
D03*
X99177Y159582D02*
D03*
G54D147*
X290938Y143500D02*
D03*
X280438Y158300D02*
D03*
X356862Y250001D02*
D03*
X99236Y172949D02*
D03*
X94415Y159582D02*
D03*
G54D148*
X348696Y192873D02*
D03*
G54D149*
X277200Y64593D02*
D03*
X11500Y198105D02*
D03*
Y190105D02*
D03*
G54D150*
X277200Y62198D02*
D03*
X11500Y200500D02*
D03*
Y192500D02*
D03*
G54D151*
X277200Y66960D02*
D03*
X11500Y195738D02*
D03*
Y187738D02*
D03*
M02*
