G04 Layer_Color=8388736*
%FSLAX25Y25*%
%MOIN*%
G70*
G01*
G75*
%ADD40C,0.06000*%
%ADD68C,0.01000*%
%ADD111C,0.03000*%
%ADD198R,0.05300X0.01700*%
%ADD199R,0.04600X0.01300*%
%ADD200R,0.02962X0.03750*%
%ADD201R,0.03750X0.02962*%
%ADD202R,0.04065X0.03238*%
G04:AMPARAMS|DCode=203|XSize=35.13mil|YSize=45.37mil|CornerRadius=8.83mil|HoleSize=0mil|Usage=FLASHONLY|Rotation=270.000|XOffset=0mil|YOffset=0mil|HoleType=Round|Shape=RoundedRectangle|*
%AMROUNDEDRECTD203*
21,1,0.03513,0.02772,0,0,270.0*
21,1,0.01748,0.04537,0,0,270.0*
1,1,0.01765,-0.01386,-0.00874*
1,1,0.01765,-0.01386,0.00874*
1,1,0.01765,0.01386,0.00874*
1,1,0.01765,0.01386,-0.00874*
%
%ADD203ROUNDEDRECTD203*%
%ADD204O,0.03747X0.01384*%
%ADD205O,0.01384X0.03747*%
%ADD206R,0.14573X0.16542*%
%ADD207R,0.05600X0.02100*%
%ADD208R,0.02600X0.03200*%
%ADD209R,0.01772X0.02756*%
%ADD210R,0.20679X0.08415*%
%ADD211R,0.08500X0.08500*%
G04:AMPARAMS|DCode=212|XSize=58mil|YSize=66mil|CornerRadius=16mil|HoleSize=0mil|Usage=FLASHONLY|Rotation=270.000|XOffset=0mil|YOffset=0mil|HoleType=Round|Shape=RoundedRectangle|*
%AMROUNDEDRECTD212*
21,1,0.05800,0.03400,0,0,270.0*
21,1,0.02600,0.06600,0,0,270.0*
1,1,0.03200,-0.01700,-0.01300*
1,1,0.03200,-0.01700,0.01300*
1,1,0.03200,0.01700,0.01300*
1,1,0.03200,0.01700,-0.01300*
%
%ADD212ROUNDEDRECTD212*%
%ADD213R,0.04931X0.07293*%
%ADD214R,0.06033X0.07687*%
%ADD215R,0.02600X0.03400*%
G04:AMPARAMS|DCode=216|XSize=35.13mil|YSize=45.37mil|CornerRadius=8.83mil|HoleSize=0mil|Usage=FLASHONLY|Rotation=180.000|XOffset=0mil|YOffset=0mil|HoleType=Round|Shape=RoundedRectangle|*
%AMROUNDEDRECTD216*
21,1,0.03513,0.02772,0,0,180.0*
21,1,0.01748,0.04537,0,0,180.0*
1,1,0.01765,-0.00874,0.01386*
1,1,0.01765,0.00874,0.01386*
1,1,0.01765,0.00874,-0.01386*
1,1,0.01765,-0.00874,-0.01386*
%
%ADD216ROUNDEDRECTD216*%
G04:AMPARAMS|DCode=217|XSize=80mil|YSize=80mil|CornerRadius=40mil|HoleSize=0mil|Usage=FLASHONLY|Rotation=0.000|XOffset=0mil|YOffset=0mil|HoleType=Round|Shape=RoundedRectangle|*
%AMROUNDEDRECTD217*
21,1,0.08000,0.00000,0,0,0.0*
21,1,0.00000,0.08000,0,0,0.0*
1,1,0.08000,0.00000,0.00000*
1,1,0.08000,0.00000,0.00000*
1,1,0.08000,0.00000,0.00000*
1,1,0.08000,0.00000,0.00000*
%
%ADD217ROUNDEDRECTD217*%
%ADD218R,0.13200X0.06900*%
G04:AMPARAMS|DCode=219|XSize=58mil|YSize=66mil|CornerRadius=16mil|HoleSize=0mil|Usage=FLASHONLY|Rotation=180.000|XOffset=0mil|YOffset=0mil|HoleType=Round|Shape=RoundedRectangle|*
%AMROUNDEDRECTD219*
21,1,0.05800,0.03400,0,0,180.0*
21,1,0.02600,0.06600,0,0,180.0*
1,1,0.03200,-0.01300,0.01700*
1,1,0.03200,0.01300,0.01700*
1,1,0.03200,0.01300,-0.01700*
1,1,0.03200,-0.01300,-0.01700*
%
%ADD219ROUNDEDRECTD219*%
G04:AMPARAMS|DCode=220|XSize=28mil|YSize=30mil|CornerRadius=7.4mil|HoleSize=0mil|Usage=FLASHONLY|Rotation=0.000|XOffset=0mil|YOffset=0mil|HoleType=Round|Shape=RoundedRectangle|*
%AMROUNDEDRECTD220*
21,1,0.02800,0.01520,0,0,0.0*
21,1,0.01320,0.03000,0,0,0.0*
1,1,0.01480,0.00660,-0.00760*
1,1,0.01480,-0.00660,-0.00760*
1,1,0.01480,-0.00660,0.00760*
1,1,0.01480,0.00660,0.00760*
%
%ADD220ROUNDEDRECTD220*%
%ADD221R,0.05800X0.04800*%
G04:AMPARAMS|DCode=222|XSize=28mil|YSize=30mil|CornerRadius=7.4mil|HoleSize=0mil|Usage=FLASHONLY|Rotation=270.000|XOffset=0mil|YOffset=0mil|HoleType=Round|Shape=RoundedRectangle|*
%AMROUNDEDRECTD222*
21,1,0.02800,0.01520,0,0,270.0*
21,1,0.01320,0.03000,0,0,270.0*
1,1,0.01480,-0.00760,-0.00660*
1,1,0.01480,-0.00760,0.00660*
1,1,0.01480,0.00760,0.00660*
1,1,0.01480,0.00760,-0.00660*
%
%ADD222ROUNDEDRECTD222*%
%ADD223R,0.02000X0.06800*%
%ADD224R,0.06800X0.02000*%
%ADD225R,0.03000X0.03000*%
%ADD226R,0.04143X0.13592*%
G04:AMPARAMS|DCode=227|XSize=69mil|YSize=77mil|CornerRadius=18.75mil|HoleSize=0mil|Usage=FLASHONLY|Rotation=90.000|XOffset=0mil|YOffset=0mil|HoleType=Round|Shape=RoundedRectangle|*
%AMROUNDEDRECTD227*
21,1,0.06900,0.03950,0,0,90.0*
21,1,0.03150,0.07700,0,0,90.0*
1,1,0.03750,0.01975,0.01575*
1,1,0.03750,0.01975,-0.01575*
1,1,0.03750,-0.01975,-0.01575*
1,1,0.03750,-0.01975,0.01575*
%
%ADD227ROUNDEDRECTD227*%
%ADD228R,0.13986X0.06112*%
%ADD229R,0.17600X0.20300*%
%ADD230R,0.06200X0.03400*%
%ADD231R,0.03000X0.06600*%
%ADD232R,0.05400X0.05400*%
G04:AMPARAMS|DCode=233|XSize=56mil|YSize=56mil|CornerRadius=28mil|HoleSize=0mil|Usage=FLASHONLY|Rotation=90.000|XOffset=0mil|YOffset=0mil|HoleType=Round|Shape=RoundedRectangle|*
%AMROUNDEDRECTD233*
21,1,0.05600,0.00000,0,0,90.0*
21,1,0.00000,0.05600,0,0,90.0*
1,1,0.05600,0.00000,0.00000*
1,1,0.05600,0.00000,0.00000*
1,1,0.05600,0.00000,0.00000*
1,1,0.05600,0.00000,0.00000*
%
%ADD233ROUNDEDRECTD233*%
%ADD234R,0.03238X0.04065*%
G04:AMPARAMS|DCode=235|XSize=111mil|YSize=111mil|CornerRadius=29.25mil|HoleSize=0mil|Usage=FLASHONLY|Rotation=180.000|XOffset=0mil|YOffset=0mil|HoleType=Round|Shape=RoundedRectangle|*
%AMROUNDEDRECTD235*
21,1,0.11100,0.05250,0,0,180.0*
21,1,0.05250,0.11100,0,0,180.0*
1,1,0.05850,-0.02625,0.02625*
1,1,0.05850,0.02625,0.02625*
1,1,0.05850,0.02625,-0.02625*
1,1,0.05850,-0.02625,-0.02625*
%
%ADD235ROUNDEDRECTD235*%
%ADD236R,0.04816X0.01981*%
G04:AMPARAMS|DCode=237|XSize=14.96mil|YSize=35.43mil|CornerRadius=6.38mil|HoleSize=0mil|Usage=FLASHONLY|Rotation=270.000|XOffset=0mil|YOffset=0mil|HoleType=Round|Shape=RoundedRectangle|*
%AMROUNDEDRECTD237*
21,1,0.01496,0.02268,0,0,270.0*
21,1,0.00220,0.03543,0,0,270.0*
1,1,0.01276,-0.01134,-0.00110*
1,1,0.01276,-0.01134,0.00110*
1,1,0.01276,0.01134,0.00110*
1,1,0.01276,0.01134,-0.00110*
%
%ADD237ROUNDEDRECTD237*%
G04:AMPARAMS|DCode=238|XSize=14.96mil|YSize=35.43mil|CornerRadius=6.38mil|HoleSize=0mil|Usage=FLASHONLY|Rotation=180.000|XOffset=0mil|YOffset=0mil|HoleType=Round|Shape=RoundedRectangle|*
%AMROUNDEDRECTD238*
21,1,0.01496,0.02268,0,0,180.0*
21,1,0.00220,0.03543,0,0,180.0*
1,1,0.01276,-0.00110,0.01134*
1,1,0.01276,0.00110,0.01134*
1,1,0.01276,0.00110,-0.01134*
1,1,0.01276,-0.00110,-0.01134*
%
%ADD238ROUNDEDRECTD238*%
%ADD239R,0.03400X0.06200*%
%ADD240R,0.20300X0.17600*%
G04:AMPARAMS|DCode=241|XSize=69mil|YSize=77mil|CornerRadius=18.75mil|HoleSize=0mil|Usage=FLASHONLY|Rotation=180.000|XOffset=0mil|YOffset=0mil|HoleType=Round|Shape=RoundedRectangle|*
%AMROUNDEDRECTD241*
21,1,0.06900,0.03950,0,0,180.0*
21,1,0.03150,0.07700,0,0,180.0*
1,1,0.03750,-0.01575,0.01975*
1,1,0.03750,0.01575,0.01975*
1,1,0.03750,0.01575,-0.01975*
1,1,0.03750,-0.01575,-0.01975*
%
%ADD241ROUNDEDRECTD241*%
%ADD242R,0.07687X0.06033*%
%ADD243R,0.08500X0.08500*%
%ADD244R,0.04800X0.05800*%
%ADD245R,0.05400X0.05400*%
%ADD246R,0.06112X0.13986*%
%ADD247O,0.12600X0.06600*%
%ADD248O,0.06600X0.12600*%
%ADD249C,0.06506*%
%ADD250R,0.06506X0.06506*%
%ADD251O,0.08850X0.17100*%
%ADD252R,0.06506X0.06506*%
%ADD253O,0.14773X0.06506*%
G04:AMPARAMS|DCode=254|XSize=139mil|YSize=89mil|CornerRadius=0mil|HoleSize=0mil|Usage=FLASHONLY|Rotation=270.000|XOffset=0mil|YOffset=0mil|HoleType=Round|Shape=Octagon|*
%AMOCTAGOND254*
4,1,8,-0.02225,-0.06950,0.02225,-0.06950,0.04450,-0.04725,0.04450,0.04725,0.02225,0.06950,-0.02225,0.06950,-0.04450,0.04725,-0.04450,-0.04725,-0.02225,-0.06950,0.0*
%
%ADD254OCTAGOND254*%

%ADD255P,0.07360X8X22.5*%
%ADD256C,0.13650*%
%ADD257C,0.10600*%
%ADD258P,0.08226X8X292.5*%
%ADD259O,0.13600X0.14200*%
%ADD260C,0.08600*%
G54D40*
X403175Y15773D02*
D03*
Y23647D02*
D03*
X397663Y29159D02*
D03*
X389789D02*
D03*
X384277Y23647D02*
D03*
Y15773D02*
D03*
X389789Y10261D02*
D03*
X397663D02*
D03*
X403175Y255931D02*
D03*
Y263805D02*
D03*
X397663Y269317D02*
D03*
X389789D02*
D03*
X384277Y263805D02*
D03*
Y255931D02*
D03*
X389789Y250419D02*
D03*
X397663D02*
D03*
X29159Y255931D02*
D03*
Y263805D02*
D03*
X23647Y269317D02*
D03*
X15773D02*
D03*
X10261Y263805D02*
D03*
Y255931D02*
D03*
X15773Y250419D02*
D03*
X23647D02*
D03*
X29159Y15773D02*
D03*
Y23647D02*
D03*
X23647Y29159D02*
D03*
X15773D02*
D03*
X10261Y23647D02*
D03*
Y15773D02*
D03*
X15773Y10261D02*
D03*
X23647D02*
D03*
X38284Y148568D02*
D03*
Y158490D02*
D03*
X46184D02*
D03*
Y148568D02*
D03*
G54D68*
X134165Y382497D02*
X127500D01*
Y372500D01*
X134165D01*
X127500Y377498D02*
X130832D01*
X137497Y382497D02*
X140829D01*
X139163D01*
Y372500D01*
X137497D01*
X140829D01*
X145827D02*
Y382497D01*
X152492Y372500D01*
Y382497D01*
X155824D02*
Y380831D01*
X159156Y377498D01*
X162489Y380831D01*
Y382497D01*
X159156Y377498D02*
Y372500D01*
X175818Y380831D02*
X177484Y382497D01*
X180816D01*
X182482Y380831D01*
Y374166D01*
X180816Y372500D01*
X177484D01*
X175818Y374166D01*
Y380831D01*
X185814Y372500D02*
Y374166D01*
X187481D01*
Y372500D01*
X185814D01*
X200810D02*
X194145D01*
X200810Y379165D01*
Y380831D01*
X199144Y382497D01*
X195811D01*
X194145Y380831D01*
X205808Y379165D02*
X209140D01*
X210806Y377498D01*
Y372500D01*
X205808D01*
X204142Y374166D01*
X205808Y375832D01*
X210806D01*
X127500Y397497D02*
X134165D01*
X130832D01*
Y387500D01*
X142495Y397497D02*
X139163D01*
X137497Y395831D01*
Y389166D01*
X139163Y387500D01*
X142495D01*
X144161Y389166D01*
Y395831D01*
X142495Y397497D01*
X147494Y387500D02*
Y397497D01*
X152492D01*
X154158Y395831D01*
Y392498D01*
X152492Y390832D01*
X147494D01*
X174152Y395831D02*
X172485Y397497D01*
X169153D01*
X167487Y395831D01*
Y394164D01*
X169153Y392498D01*
X172485D01*
X174152Y390832D01*
Y389166D01*
X172485Y387500D01*
X169153D01*
X167487Y389166D01*
X182482Y397497D02*
X179150D01*
X177484Y395831D01*
Y389166D01*
X179150Y387500D01*
X182482D01*
X184148Y389166D01*
Y395831D01*
X182482Y397497D01*
X187481D02*
Y387500D01*
X194145D01*
X197477Y397497D02*
Y387500D01*
X202476D01*
X204142Y389166D01*
Y395831D01*
X202476Y397497D01*
X197477D01*
X214139D02*
X207474D01*
Y387500D01*
X214139D01*
X207474Y392498D02*
X210806D01*
X217471Y387500D02*
Y397497D01*
X222469D01*
X224135Y395831D01*
Y392498D01*
X222469Y390832D01*
X217471D01*
X220803D02*
X224135Y387500D01*
X227468D02*
Y397497D01*
X230800Y394164D01*
X234132Y397497D01*
Y387500D01*
X237464D02*
Y394164D01*
X240797Y397497D01*
X244129Y394164D01*
Y387500D01*
Y392498D01*
X237464D01*
X254126Y395831D02*
X252460Y397497D01*
X249127D01*
X247461Y395831D01*
Y394164D01*
X249127Y392498D01*
X252460D01*
X254126Y390832D01*
Y389166D01*
X252460Y387500D01*
X249127D01*
X247461Y389166D01*
X257458Y397497D02*
Y387500D01*
Y390832D01*
X264123Y397497D01*
X259124Y392498D01*
X264123Y387500D01*
G54D111*
X212500Y68502D02*
D03*
X216831D02*
D03*
X208169Y64171D02*
D03*
X212500D02*
D03*
X216831D02*
D03*
X208169Y59840D02*
D03*
X212500D02*
D03*
X216831D02*
D03*
X208169Y55510D02*
D03*
X212500D02*
D03*
X216831D02*
D03*
X208169Y68502D02*
D03*
X116100D02*
D03*
X120431D02*
D03*
X111769Y64171D02*
D03*
X116100D02*
D03*
X120431D02*
D03*
X111769Y59840D02*
D03*
X116100D02*
D03*
X120431D02*
D03*
X111769Y55510D02*
D03*
X116100D02*
D03*
X120431D02*
D03*
X111769Y68502D02*
D03*
X71100D02*
D03*
X75431D02*
D03*
X66769Y64171D02*
D03*
X71100D02*
D03*
X75431D02*
D03*
X66769Y59840D02*
D03*
X71100D02*
D03*
X75431D02*
D03*
X66769Y55510D02*
D03*
X71100D02*
D03*
X75431D02*
D03*
X66769Y68502D02*
D03*
X26362Y72102D02*
D03*
X30693D02*
D03*
X22031Y67771D02*
D03*
X26362D02*
D03*
X30693D02*
D03*
X22031Y63440D02*
D03*
X26362D02*
D03*
X30693D02*
D03*
X22031Y59109D02*
D03*
X26362D02*
D03*
X30693D02*
D03*
X22031Y72102D02*
D03*
X273681Y50768D02*
D03*
X269681D02*
D03*
X277681D02*
D03*
X281681D02*
D03*
Y46768D02*
D03*
Y42768D02*
D03*
X277681D02*
D03*
Y46768D02*
D03*
X273681D02*
D03*
Y42768D02*
D03*
X269681D02*
D03*
Y46768D02*
D03*
Y54768D02*
D03*
Y58768D02*
D03*
X273681D02*
D03*
Y54768D02*
D03*
X277681D02*
D03*
Y58768D02*
D03*
X281681D02*
D03*
Y54768D02*
D03*
X317131Y235320D02*
D03*
X321069D02*
D03*
X325006D02*
D03*
Y239258D02*
D03*
Y243195D02*
D03*
X321069D02*
D03*
X317131D02*
D03*
Y239258D02*
D03*
X321069D02*
D03*
X83340Y176340D02*
D03*
Y172600D02*
D03*
Y168860D02*
D03*
X79600D02*
D03*
X75860Y168761D02*
D03*
X75880Y172600D02*
D03*
X75831Y176376D02*
D03*
X79600Y176340D02*
D03*
Y172600D02*
D03*
X318213Y182877D02*
D03*
X322213D02*
D03*
Y186877D02*
D03*
X318213D02*
D03*
Y190877D02*
D03*
X322213D02*
D03*
Y194877D02*
D03*
X318213D02*
D03*
X310213D02*
D03*
X306213D02*
D03*
Y190877D02*
D03*
X310213D02*
D03*
Y186877D02*
D03*
X306213D02*
D03*
Y182877D02*
D03*
X310213D02*
D03*
X314213D02*
D03*
Y186877D02*
D03*
Y194877D02*
D03*
Y190877D02*
D03*
G54D198*
X90563Y141354D02*
D03*
Y138854D02*
D03*
X90563Y136354D02*
D03*
Y133854D02*
D03*
X90563Y131354D02*
D03*
X90563Y128854D02*
D03*
Y126354D02*
D03*
X90563Y123854D02*
D03*
X111063Y123854D02*
D03*
X111063Y126354D02*
D03*
X111063Y128854D02*
D03*
X111063Y131354D02*
D03*
X111063Y133854D02*
D03*
X111063Y136354D02*
D03*
X111063Y138854D02*
D03*
X111063Y141354D02*
D03*
G54D199*
X90613Y141354D02*
D03*
X90613Y138854D02*
D03*
X90613Y136354D02*
D03*
Y133854D02*
D03*
X90613Y131354D02*
D03*
X90613Y128854D02*
D03*
Y126354D02*
D03*
X90613Y123854D02*
D03*
X111012D02*
D03*
X111013Y126354D02*
D03*
Y128854D02*
D03*
X111013Y131354D02*
D03*
X111012Y133854D02*
D03*
X111013Y136354D02*
D03*
X111013Y138854D02*
D03*
X111012Y141354D02*
D03*
G54D200*
X220046Y154100D02*
D03*
X213353D02*
D03*
X215953Y185100D02*
D03*
X222646D02*
D03*
X215953Y180500D02*
D03*
X222646D02*
D03*
X220046Y149500D02*
D03*
X213353D02*
D03*
X212207Y128000D02*
D03*
X218900D02*
D03*
X212154Y132600D02*
D03*
X218847D02*
D03*
X279954Y126200D02*
D03*
X286647D02*
D03*
X279954Y130800D02*
D03*
X286647D02*
D03*
G54D201*
X276000Y202946D02*
D03*
Y196254D02*
D03*
Y205854D02*
D03*
Y212546D02*
D03*
G54D202*
X203500Y118082D02*
D03*
Y123318D02*
D03*
G54D203*
X56100Y172923D02*
D03*
Y178277D02*
D03*
X56100Y162423D02*
D03*
Y167778D02*
D03*
X44300Y81923D02*
D03*
Y87277D02*
D03*
X215500Y94977D02*
D03*
Y89623D02*
D03*
X230400Y84277D02*
D03*
Y78923D02*
D03*
X118200Y34923D02*
D03*
Y40277D02*
D03*
X73900Y94877D02*
D03*
Y89523D02*
D03*
X89200Y83877D02*
D03*
Y78523D02*
D03*
X304300Y120677D02*
D03*
Y115323D02*
D03*
X371100Y18323D02*
D03*
Y23677D02*
D03*
Y30123D02*
D03*
Y35477D02*
D03*
X300900Y233823D02*
D03*
Y239177D02*
D03*
X32900Y44177D02*
D03*
Y38823D02*
D03*
X38600Y37423D02*
D03*
Y42777D02*
D03*
X27900Y96777D02*
D03*
Y91423D02*
D03*
G54D204*
X202953Y70864D02*
D03*
Y68895D02*
D03*
Y66927D02*
D03*
Y64958D02*
D03*
Y62990D02*
D03*
Y61021D02*
D03*
Y59053D02*
D03*
Y57084D02*
D03*
Y55116D02*
D03*
Y53147D02*
D03*
X222047D02*
D03*
Y55116D02*
D03*
Y57084D02*
D03*
Y59053D02*
D03*
Y61021D02*
D03*
Y62990D02*
D03*
Y64958D02*
D03*
Y66927D02*
D03*
Y68895D02*
D03*
Y70864D02*
D03*
X106553D02*
D03*
Y68895D02*
D03*
Y66927D02*
D03*
Y64958D02*
D03*
Y62990D02*
D03*
Y61021D02*
D03*
Y59053D02*
D03*
Y57084D02*
D03*
Y55116D02*
D03*
Y53147D02*
D03*
X125647D02*
D03*
Y55116D02*
D03*
Y57084D02*
D03*
Y59053D02*
D03*
Y61021D02*
D03*
Y62990D02*
D03*
Y64958D02*
D03*
Y66927D02*
D03*
Y68895D02*
D03*
Y70864D02*
D03*
X61553D02*
D03*
Y68895D02*
D03*
Y66927D02*
D03*
Y64958D02*
D03*
Y62990D02*
D03*
Y61021D02*
D03*
Y59053D02*
D03*
Y57084D02*
D03*
Y55116D02*
D03*
Y53147D02*
D03*
X80647D02*
D03*
Y55116D02*
D03*
Y57084D02*
D03*
Y59053D02*
D03*
Y61021D02*
D03*
Y62990D02*
D03*
Y64958D02*
D03*
Y66927D02*
D03*
Y68895D02*
D03*
Y70864D02*
D03*
X16815Y74464D02*
D03*
Y72495D02*
D03*
Y70527D02*
D03*
Y68558D02*
D03*
Y66590D02*
D03*
Y64621D02*
D03*
Y62653D02*
D03*
Y60684D02*
D03*
Y58716D02*
D03*
Y56747D02*
D03*
X35910D02*
D03*
Y58716D02*
D03*
Y60684D02*
D03*
Y62653D02*
D03*
Y64621D02*
D03*
Y66590D02*
D03*
Y68558D02*
D03*
Y70527D02*
D03*
Y72495D02*
D03*
Y74464D02*
D03*
G54D205*
X205610Y50490D02*
D03*
X207579D02*
D03*
X209547D02*
D03*
X211516D02*
D03*
X213484D02*
D03*
X215453D02*
D03*
X217421D02*
D03*
X219390D02*
D03*
Y73521D02*
D03*
X217421D02*
D03*
X215453D02*
D03*
X213484D02*
D03*
X211516D02*
D03*
X209547D02*
D03*
X207579D02*
D03*
X205610D02*
D03*
X109210Y50490D02*
D03*
X111179D02*
D03*
X113147D02*
D03*
X115116D02*
D03*
X117084D02*
D03*
X119053D02*
D03*
X121021D02*
D03*
X122990D02*
D03*
Y73521D02*
D03*
X121021D02*
D03*
X119053D02*
D03*
X117084D02*
D03*
X115116D02*
D03*
X113147D02*
D03*
X111179D02*
D03*
X109210D02*
D03*
X64210Y50490D02*
D03*
X66179D02*
D03*
X68147D02*
D03*
X70116D02*
D03*
X72084D02*
D03*
X74053D02*
D03*
X76021D02*
D03*
X77990D02*
D03*
Y73521D02*
D03*
X76021D02*
D03*
X74053D02*
D03*
X72084D02*
D03*
X70116D02*
D03*
X68147D02*
D03*
X66179D02*
D03*
X64210D02*
D03*
X19473Y54090D02*
D03*
X21441D02*
D03*
X23410D02*
D03*
X25378D02*
D03*
X27347D02*
D03*
X29315D02*
D03*
X31284D02*
D03*
X33252D02*
D03*
Y77121D02*
D03*
X31284D02*
D03*
X29315D02*
D03*
X27347D02*
D03*
X25378D02*
D03*
X23410D02*
D03*
X21441D02*
D03*
X19473D02*
D03*
G54D206*
X212500Y62006D02*
D03*
X116100D02*
D03*
X71100D02*
D03*
X26362Y65605D02*
D03*
G54D207*
X90576Y138854D02*
D03*
X111113Y133854D02*
D03*
X90576Y141354D02*
D03*
Y136354D02*
D03*
Y133854D02*
D03*
X111113Y136354D02*
D03*
X111113Y131304D02*
D03*
X111113Y128804D02*
D03*
X90576D02*
D03*
X111113Y123804D02*
D03*
X90576Y131304D02*
D03*
Y126304D02*
D03*
X111113D02*
D03*
X90576Y123804D02*
D03*
X111113Y138854D02*
D03*
Y141354D02*
D03*
G54D208*
X94900Y202743D02*
D03*
X98050D02*
D03*
X101224D02*
D03*
X104424D02*
D03*
Y208100D02*
D03*
X101224D02*
D03*
X98050D02*
D03*
X94900D02*
D03*
X98352Y196186D02*
D03*
X95202D02*
D03*
X92028D02*
D03*
X88828D02*
D03*
Y190829D02*
D03*
X92028D02*
D03*
X95202D02*
D03*
X98352D02*
D03*
X175897Y67350D02*
D03*
X172747D02*
D03*
X169572D02*
D03*
X166372D02*
D03*
Y72707D02*
D03*
X169572D02*
D03*
X172747D02*
D03*
X175897D02*
D03*
Y86683D02*
D03*
X172747D02*
D03*
X169572D02*
D03*
X166372D02*
D03*
Y81326D02*
D03*
X169572D02*
D03*
X172747D02*
D03*
X175897D02*
D03*
Y96877D02*
D03*
X172747D02*
D03*
X169572D02*
D03*
X166372D02*
D03*
Y102235D02*
D03*
X169572D02*
D03*
X172747D02*
D03*
X175897D02*
D03*
G54D209*
X20121Y83400D02*
D03*
X22680D02*
D03*
X209579Y45000D02*
D03*
X207020D02*
D03*
X215980D02*
D03*
X213421D02*
D03*
X209380Y79100D02*
D03*
X206821D02*
D03*
X215280D02*
D03*
X212720D02*
D03*
X113380Y45100D02*
D03*
X110820D02*
D03*
X119480D02*
D03*
X116920D02*
D03*
X116420Y79200D02*
D03*
X118980D02*
D03*
X110421D02*
D03*
X112979D02*
D03*
X68180Y45200D02*
D03*
X65620D02*
D03*
X74279D02*
D03*
X71720D02*
D03*
X67980Y79200D02*
D03*
X65421D02*
D03*
X73980D02*
D03*
X71421D02*
D03*
X23679Y48800D02*
D03*
X21121D02*
D03*
X29779D02*
D03*
X27220D02*
D03*
X26221Y83400D02*
D03*
X28780D02*
D03*
G54D210*
X281800Y229226D02*
D03*
Y244974D02*
D03*
G54D211*
X292500Y258100D02*
D03*
X276726D02*
D03*
X281100Y117900D02*
D03*
X296874D02*
D03*
X275672Y26368D02*
D03*
X291446D02*
D03*
X275581Y14383D02*
D03*
X291355D02*
D03*
G54D212*
X338100Y225200D02*
D03*
Y232740D02*
D03*
G54D213*
X330316Y227500D02*
D03*
X319883D02*
D03*
G54D214*
X347310Y85400D02*
D03*
X331090D02*
D03*
G54D215*
X37600Y217956D02*
D03*
Y212444D02*
D03*
X50517Y203569D02*
D03*
Y198057D02*
D03*
G54D216*
X293877Y34400D02*
D03*
X288523D02*
D03*
X214823Y38000D02*
D03*
X220177D02*
D03*
X193923Y30700D02*
D03*
X199277D02*
D03*
X210577D02*
D03*
X205223D02*
D03*
X220877Y31000D02*
D03*
X215523D02*
D03*
X227123D02*
D03*
X232477D02*
D03*
X224177Y84300D02*
D03*
X218823D02*
D03*
X227223Y44100D02*
D03*
X232577D02*
D03*
X96023Y45500D02*
D03*
X101377D02*
D03*
X127123Y38200D02*
D03*
X132477D02*
D03*
X108723Y85100D02*
D03*
X114077D02*
D03*
X162677Y59000D02*
D03*
X157323D02*
D03*
X178677Y59200D02*
D03*
X173323D02*
D03*
X134123Y78700D02*
D03*
X139477D02*
D03*
X122523Y84400D02*
D03*
X127877D02*
D03*
X136577Y44800D02*
D03*
X131223D02*
D03*
X77623Y84400D02*
D03*
X82977D02*
D03*
X87377Y44700D02*
D03*
X82023D02*
D03*
X72377Y32000D02*
D03*
X67023D02*
D03*
X56277Y45700D02*
D03*
X50923D02*
D03*
X90077Y30500D02*
D03*
X84723D02*
D03*
X101723Y30600D02*
D03*
X107077D02*
D03*
X123023Y30200D02*
D03*
X128377D02*
D03*
X347377Y98800D02*
D03*
X342023D02*
D03*
X331323Y93200D02*
D03*
X336677D02*
D03*
X342023D02*
D03*
X347377D02*
D03*
X307077Y220700D02*
D03*
X301723D02*
D03*
X357323Y11800D02*
D03*
X362677D02*
D03*
X322377Y119700D02*
D03*
X317023D02*
D03*
X33023Y86900D02*
D03*
X38377D02*
D03*
X45977Y47900D02*
D03*
X40623D02*
D03*
X12277Y49500D02*
D03*
X6923D02*
D03*
X46046Y31000D02*
D03*
X51400D02*
D03*
X61477D02*
D03*
X56123D02*
D03*
X199777Y110500D02*
D03*
X194423D02*
D03*
G54D217*
X6423Y6816D02*
D03*
X406718Y6423D02*
D03*
X6423Y272860D02*
D03*
G54D218*
X310533Y151119D02*
D03*
Y127408D02*
D03*
G54D219*
X63840Y129600D02*
D03*
X56300D02*
D03*
X300660Y227600D02*
D03*
X308200D02*
D03*
G54D220*
X65000Y168500D02*
D03*
X61210D02*
D03*
X93200Y217700D02*
D03*
X96990D02*
D03*
X61200Y158100D02*
D03*
X64970D02*
D03*
X156270Y274600D02*
D03*
X152500D02*
D03*
X269900Y273000D02*
D03*
X273670D02*
D03*
X270900Y209600D02*
D03*
X267130D02*
D03*
X293670Y130700D02*
D03*
X289900D02*
D03*
X153470Y116400D02*
D03*
X149700D02*
D03*
X109430Y174100D02*
D03*
X113200D02*
D03*
X101000Y221700D02*
D03*
X104770D02*
D03*
X227200Y203200D02*
D03*
X223430D02*
D03*
X143930Y204300D02*
D03*
X147700D02*
D03*
X108800Y221600D02*
D03*
X112570D02*
D03*
X128170D02*
D03*
X124400D02*
D03*
X120400Y221500D02*
D03*
X116630D02*
D03*
X135970Y221600D02*
D03*
X132200D02*
D03*
X151500Y221500D02*
D03*
X147730D02*
D03*
X140030D02*
D03*
X143800D02*
D03*
X93170Y221700D02*
D03*
X96940D02*
D03*
X54230Y218800D02*
D03*
X58000D02*
D03*
X81400Y221700D02*
D03*
X77630D02*
D03*
X46430Y218800D02*
D03*
X50200D02*
D03*
X65800Y220200D02*
D03*
X62030D02*
D03*
X231970Y60600D02*
D03*
X228200D02*
D03*
X220100Y79600D02*
D03*
X223870D02*
D03*
X227830Y73900D02*
D03*
X231600D02*
D03*
X132600Y61000D02*
D03*
X136370D02*
D03*
X123800Y79700D02*
D03*
X127570D02*
D03*
X135100Y73900D02*
D03*
X131330D02*
D03*
X90170Y61000D02*
D03*
X86400D02*
D03*
X78800Y79700D02*
D03*
X82570D02*
D03*
X86168Y73800D02*
D03*
X89938D02*
D03*
X328500Y249200D02*
D03*
X332270D02*
D03*
X206430Y159200D02*
D03*
X210200D02*
D03*
X161792Y76644D02*
D03*
X165562D02*
D03*
X165857Y92983D02*
D03*
X162087D02*
D03*
X169568Y76644D02*
D03*
X173338D02*
D03*
Y92983D02*
D03*
X169568D02*
D03*
X181143Y76546D02*
D03*
X177373D02*
D03*
Y92884D02*
D03*
X181143D02*
D03*
X206600Y177800D02*
D03*
X202830D02*
D03*
X220470Y159100D02*
D03*
X216700D02*
D03*
X208224Y168529D02*
D03*
X204454D02*
D03*
X113792Y149120D02*
D03*
X117562D02*
D03*
X79835Y158779D02*
D03*
X76065D02*
D03*
X78000Y152300D02*
D03*
X74230D02*
D03*
X61200Y176900D02*
D03*
X64970D02*
D03*
X61200Y164500D02*
D03*
X64970D02*
D03*
X54230Y135600D02*
D03*
X58000D02*
D03*
X159991Y115779D02*
D03*
X163761D02*
D03*
X206650Y172663D02*
D03*
X202880D02*
D03*
X45370Y64600D02*
D03*
X41600D02*
D03*
X33000Y82200D02*
D03*
X36770D02*
D03*
X41630Y77400D02*
D03*
X45400D02*
D03*
X247900Y98800D02*
D03*
X244130D02*
D03*
X267110Y205600D02*
D03*
X270900D02*
D03*
X289900Y126400D02*
D03*
X293690D02*
D03*
X212310Y123600D02*
D03*
X216100D02*
D03*
X206400Y155400D02*
D03*
X210190D02*
D03*
X279900Y135200D02*
D03*
X283690D02*
D03*
X267100Y197600D02*
D03*
X270890D02*
D03*
X283700Y139300D02*
D03*
X279910D02*
D03*
X140010Y217400D02*
D03*
X143800D02*
D03*
X108810D02*
D03*
X112600D02*
D03*
X336110Y238700D02*
D03*
X339900D02*
D03*
X218500Y176200D02*
D03*
X222290D02*
D03*
X61210Y172600D02*
D03*
X65000D02*
D03*
X320300Y162100D02*
D03*
X316510D02*
D03*
X308610D02*
D03*
X312400D02*
D03*
X293100Y65500D02*
D03*
X289310D02*
D03*
X285510Y69700D02*
D03*
X289300D02*
D03*
X271900Y70200D02*
D03*
X268110D02*
D03*
X214010Y136900D02*
D03*
X217800D02*
D03*
X29300Y190000D02*
D03*
X25510D02*
D03*
X222290Y172000D02*
D03*
X218500D02*
D03*
X267100Y201700D02*
D03*
X270890D02*
D03*
X147700Y217500D02*
D03*
X151490D02*
D03*
X135990D02*
D03*
X132200D02*
D03*
X116600D02*
D03*
X120390D02*
D03*
X124410Y217400D02*
D03*
X128200D02*
D03*
X217400Y203000D02*
D03*
X213610D02*
D03*
X69800Y220300D02*
D03*
X73590D02*
D03*
X89190Y221800D02*
D03*
X85400D02*
D03*
G54D221*
X63872Y147800D02*
D03*
X73000D02*
D03*
Y140458D02*
D03*
X63872D02*
D03*
G54D222*
X124900Y169570D02*
D03*
Y165800D02*
D03*
X177900Y195770D02*
D03*
Y192000D02*
D03*
X183700Y192100D02*
D03*
Y195870D02*
D03*
X189400D02*
D03*
Y192100D02*
D03*
X143900Y208400D02*
D03*
Y212170D02*
D03*
X156700Y221170D02*
D03*
Y217400D02*
D03*
X152800Y193230D02*
D03*
Y197000D02*
D03*
X156600Y204270D02*
D03*
Y200500D02*
D03*
X198300Y52830D02*
D03*
Y56600D02*
D03*
X229800Y65500D02*
D03*
Y69270D02*
D03*
X101900Y53030D02*
D03*
Y56800D02*
D03*
X133300Y69270D02*
D03*
Y65500D02*
D03*
X56800Y51930D02*
D03*
Y55700D02*
D03*
X88300Y65500D02*
D03*
Y69270D02*
D03*
X45053Y186500D02*
D03*
Y182730D02*
D03*
X84868Y142840D02*
D03*
Y139070D02*
D03*
X116659Y139661D02*
D03*
Y143431D02*
D03*
X116757Y122165D02*
D03*
Y125935D02*
D03*
X84966Y125646D02*
D03*
Y121876D02*
D03*
X169900Y191530D02*
D03*
Y195300D02*
D03*
X108400Y160670D02*
D03*
Y156900D02*
D03*
X58900Y142230D02*
D03*
Y146000D02*
D03*
X124100Y141230D02*
D03*
Y145000D02*
D03*
X29300Y213500D02*
D03*
Y217270D02*
D03*
X201600Y139327D02*
D03*
Y135557D02*
D03*
X43700Y69100D02*
D03*
Y72870D02*
D03*
X12200Y55330D02*
D03*
Y59100D02*
D03*
X213900Y141410D02*
D03*
Y145200D02*
D03*
X144000Y200300D02*
D03*
Y196510D02*
D03*
X234600Y69300D02*
D03*
Y65510D02*
D03*
X138100D02*
D03*
Y69300D02*
D03*
X94100Y61300D02*
D03*
Y57510D02*
D03*
X289400Y196000D02*
D03*
Y199790D02*
D03*
X214300Y175990D02*
D03*
Y172200D02*
D03*
X212300Y115800D02*
D03*
Y119590D02*
D03*
X218000Y141410D02*
D03*
Y145200D02*
D03*
X148000Y200290D02*
D03*
Y196500D02*
D03*
X51053Y182701D02*
D03*
Y186491D02*
D03*
X277300Y156790D02*
D03*
Y153000D02*
D03*
X288300Y137700D02*
D03*
Y141490D02*
D03*
X354500Y264990D02*
D03*
Y261200D02*
D03*
X49500Y63200D02*
D03*
Y59410D02*
D03*
X280300Y199790D02*
D03*
Y196000D02*
D03*
X293500D02*
D03*
Y199790D02*
D03*
X284400D02*
D03*
Y196000D02*
D03*
X153500Y212590D02*
D03*
Y208800D02*
D03*
X148100Y212200D02*
D03*
Y208410D02*
D03*
X336500Y242910D02*
D03*
Y246700D02*
D03*
X328700Y253410D02*
D03*
Y257200D02*
D03*
X332700Y257190D02*
D03*
Y253400D02*
D03*
X33400Y217290D02*
D03*
Y213500D02*
D03*
X45498Y199021D02*
D03*
Y202811D02*
D03*
X269900Y216710D02*
D03*
Y220500D02*
D03*
X269700Y254110D02*
D03*
Y257900D02*
D03*
G54D223*
X186979Y185096D02*
D03*
X184979D02*
D03*
X182979D02*
D03*
X181079D02*
D03*
X179079D02*
D03*
X177079D02*
D03*
X175179D02*
D03*
X173179D02*
D03*
X171179D02*
D03*
X169279D02*
D03*
X167279D02*
D03*
X165279D02*
D03*
X163279D02*
D03*
X161310D02*
D03*
X159342D02*
D03*
X157373D02*
D03*
X155405D02*
D03*
X153436D02*
D03*
X151468D02*
D03*
X149499D02*
D03*
X147531D02*
D03*
X145562D02*
D03*
X143594D02*
D03*
X141625D02*
D03*
X139657D02*
D03*
Y122100D02*
D03*
X141625D02*
D03*
X143594D02*
D03*
X145562D02*
D03*
X147531D02*
D03*
X149499D02*
D03*
X151468D02*
D03*
X153436D02*
D03*
X155405D02*
D03*
X157373D02*
D03*
X159342D02*
D03*
X161310D02*
D03*
X163279D02*
D03*
X165279D02*
D03*
X167279D02*
D03*
X169279D02*
D03*
X171179D02*
D03*
X173179D02*
D03*
X175179D02*
D03*
X177079D02*
D03*
X179079D02*
D03*
X181079D02*
D03*
X182979D02*
D03*
X184979D02*
D03*
X186979D02*
D03*
G54D224*
X131783Y177222D02*
D03*
Y175254D02*
D03*
Y173285D02*
D03*
Y171317D02*
D03*
Y169348D02*
D03*
Y167380D02*
D03*
Y165411D02*
D03*
Y163443D02*
D03*
Y161474D02*
D03*
Y159506D02*
D03*
Y157537D02*
D03*
Y155569D02*
D03*
Y153600D02*
D03*
Y151600D02*
D03*
Y149600D02*
D03*
Y147600D02*
D03*
Y145700D02*
D03*
Y143700D02*
D03*
Y141700D02*
D03*
Y139800D02*
D03*
Y137800D02*
D03*
Y135800D02*
D03*
Y133900D02*
D03*
Y131900D02*
D03*
Y129900D02*
D03*
X194779D02*
D03*
Y131900D02*
D03*
Y133900D02*
D03*
Y135800D02*
D03*
Y137800D02*
D03*
Y139800D02*
D03*
Y141700D02*
D03*
Y143700D02*
D03*
Y145700D02*
D03*
Y147600D02*
D03*
Y149600D02*
D03*
Y151600D02*
D03*
Y153600D02*
D03*
Y155569D02*
D03*
Y157537D02*
D03*
Y159506D02*
D03*
Y161474D02*
D03*
Y163443D02*
D03*
Y165411D02*
D03*
Y167380D02*
D03*
Y169348D02*
D03*
Y171317D02*
D03*
Y173285D02*
D03*
Y175254D02*
D03*
Y177222D02*
D03*
G54D225*
X38017Y191856D02*
D03*
Y183125D02*
D03*
G54D226*
X300486Y258100D02*
D03*
X323714D02*
D03*
G54D227*
X21100Y89402D02*
D03*
Y100600D02*
D03*
X208800Y85202D02*
D03*
Y96400D02*
D03*
X67100Y85202D02*
D03*
Y96400D02*
D03*
G54D228*
X36664Y103700D02*
D03*
X57136D02*
D03*
X130028Y100500D02*
D03*
X150500D02*
D03*
X81864Y103200D02*
D03*
X102336D02*
D03*
G54D229*
X275781Y50768D02*
D03*
G54D230*
X290220Y58268D02*
D03*
Y53268D02*
D03*
Y48268D02*
D03*
Y43268D02*
D03*
G54D231*
X279400Y168715D02*
D03*
X284400D02*
D03*
X294400D02*
D03*
X279400Y190442D02*
D03*
X284400D02*
D03*
X294400D02*
D03*
X289400Y168715D02*
D03*
Y190442D02*
D03*
G54D232*
X293300Y138766D02*
D03*
Y147100D02*
D03*
X282800Y153566D02*
D03*
Y161900D02*
D03*
X354500Y254734D02*
D03*
Y246400D02*
D03*
X96876Y177683D02*
D03*
Y169349D02*
D03*
X96777Y154848D02*
D03*
Y163182D02*
D03*
G54D233*
X124500Y127600D02*
D03*
X195700Y118100D02*
D03*
X186000Y82400D02*
D03*
X186700Y68700D02*
D03*
X158672Y83140D02*
D03*
G54D234*
X59682Y153500D02*
D03*
X64918D02*
D03*
X202682Y182200D02*
D03*
X207918D02*
D03*
G54D235*
X321069Y239258D02*
D03*
G54D236*
X311620Y243195D02*
D03*
Y241226D02*
D03*
Y239258D02*
D03*
Y237289D02*
D03*
Y235320D02*
D03*
X330517Y243195D02*
D03*
Y241226D02*
D03*
Y239258D02*
D03*
Y237289D02*
D03*
Y235320D02*
D03*
G54D237*
X70100Y165710D02*
D03*
Y167679D02*
D03*
Y169647D02*
D03*
Y171616D02*
D03*
Y173600D02*
D03*
Y175600D02*
D03*
Y177600D02*
D03*
Y179500D02*
D03*
X89049D02*
D03*
Y177600D02*
D03*
Y175600D02*
D03*
Y173600D02*
D03*
Y171616D02*
D03*
Y169647D02*
D03*
Y167679D02*
D03*
Y165710D02*
D03*
G54D238*
X72700Y182100D02*
D03*
X74600D02*
D03*
X76600D02*
D03*
X78600D02*
D03*
X80584D02*
D03*
X82553D02*
D03*
X84521D02*
D03*
X86490D02*
D03*
Y163151D02*
D03*
X84521D02*
D03*
X82553D02*
D03*
X80584D02*
D03*
X78600D02*
D03*
X76600D02*
D03*
X74600D02*
D03*
X72700D02*
D03*
G54D239*
X306713Y174338D02*
D03*
X311713D02*
D03*
X316713D02*
D03*
X321713D02*
D03*
G54D240*
X314213Y188777D02*
D03*
G54D241*
X196900Y38800D02*
D03*
X208098D02*
D03*
X100400Y38700D02*
D03*
X111598D02*
D03*
X110502Y91800D02*
D03*
X121700D02*
D03*
X58400Y39100D02*
D03*
X69598D02*
D03*
X15000Y42700D02*
D03*
X26198D02*
D03*
G54D242*
X363700Y34010D02*
D03*
Y17790D02*
D03*
G54D243*
X348700Y202700D02*
D03*
Y186926D02*
D03*
G54D244*
X113014Y154071D02*
D03*
Y163199D02*
D03*
X120356D02*
D03*
Y154071D02*
D03*
G54D245*
X272466Y64600D02*
D03*
X280800D02*
D03*
X16234Y198100D02*
D03*
X7900D02*
D03*
X16234Y190100D02*
D03*
X7900D02*
D03*
G54D246*
X257900Y34236D02*
D03*
Y13764D02*
D03*
X252000Y71436D02*
D03*
Y50964D02*
D03*
X311100Y110436D02*
D03*
Y89964D02*
D03*
G54D247*
X236639Y111561D02*
D03*
Y121561D02*
D03*
X251500Y215300D02*
D03*
Y205300D02*
D03*
X236639Y173765D02*
D03*
Y183765D02*
D03*
Y142663D02*
D03*
Y152663D02*
D03*
X261000Y183700D02*
D03*
Y173700D02*
D03*
Y163700D02*
D03*
X260900Y142300D02*
D03*
Y132300D02*
D03*
Y122300D02*
D03*
G54D248*
X201600Y15813D02*
D03*
X211600D02*
D03*
X221600D02*
D03*
X231600D02*
D03*
X150380Y15773D02*
D03*
X160380D02*
D03*
X170379D02*
D03*
X180379D02*
D03*
X150380Y43332D02*
D03*
X160380D02*
D03*
X170379D02*
D03*
X180379D02*
D03*
X99198Y15773D02*
D03*
X109198D02*
D03*
X119198D02*
D03*
X129198D02*
D03*
X48017D02*
D03*
X58017D02*
D03*
X68017D02*
D03*
X78017D02*
D03*
X147820Y236246D02*
D03*
X137820D02*
D03*
X127821D02*
D03*
Y259868D02*
D03*
X137820D02*
D03*
X147820D02*
D03*
X86482D02*
D03*
X96482D02*
D03*
X106482D02*
D03*
X65143Y236246D02*
D03*
X55143D02*
D03*
X45143D02*
D03*
Y259868D02*
D03*
X55143D02*
D03*
X65143D02*
D03*
X106482Y236246D02*
D03*
X96482D02*
D03*
X86482D02*
D03*
G54D249*
X219000Y266000D02*
D03*
Y256000D02*
D03*
X209000Y266000D02*
D03*
Y256000D02*
D03*
X199000Y266000D02*
D03*
Y256000D02*
D03*
X189000Y266000D02*
D03*
Y256000D02*
D03*
X179000Y266000D02*
D03*
X245568Y262171D02*
D03*
Y252171D02*
D03*
Y242171D02*
D03*
Y232171D02*
D03*
X219000Y228500D02*
D03*
Y218500D02*
D03*
X209000Y228500D02*
D03*
Y218500D02*
D03*
X199000Y228500D02*
D03*
Y218500D02*
D03*
X189000Y228500D02*
D03*
Y218500D02*
D03*
X179000Y228500D02*
D03*
G54D250*
Y256000D02*
D03*
Y218500D02*
D03*
G54D251*
X282700Y95900D02*
D03*
X262700D02*
D03*
G54D252*
X245568Y272171D02*
D03*
G54D253*
X259702D02*
D03*
Y262171D02*
D03*
Y252171D02*
D03*
Y242171D02*
D03*
Y232171D02*
D03*
G54D254*
X346500Y14100D02*
D03*
X333100D02*
D03*
Y67100D02*
D03*
X346500D02*
D03*
X317495Y67139D02*
D03*
X304095D02*
D03*
Y14139D02*
D03*
X317495D02*
D03*
X333600Y168400D02*
D03*
X347000D02*
D03*
Y115400D02*
D03*
X333600D02*
D03*
G54D255*
X78553Y208356D02*
D03*
Y198356D02*
D03*
X68553Y208356D02*
D03*
Y198356D02*
D03*
X58553Y208356D02*
D03*
Y198356D02*
D03*
X135813Y208356D02*
D03*
Y198356D02*
D03*
X125813Y208356D02*
D03*
Y198356D02*
D03*
X115813Y208356D02*
D03*
Y198356D02*
D03*
G54D256*
X27584Y129868D02*
D03*
Y177190D02*
D03*
G54D257*
X20673Y206698D02*
D03*
Y234298D02*
D03*
G54D258*
X10873Y211598D02*
D03*
Y229398D02*
D03*
G54D259*
X365300Y221050D02*
D03*
Y188550D02*
D03*
Y156050D02*
D03*
Y123550D02*
D03*
Y91050D02*
D03*
Y58550D02*
D03*
G54D260*
X403667Y42151D02*
D03*
M02*
