G04 Layer_Physical_Order=2*
G04 Layer_Color=32768*
%FSLAX25Y25*%
%MOIN*%
G70*
G01*
G75*
%ADD68C,0.01000*%
%ADD82C,0.04000*%
%ADD113C,0.06400*%
G04:AMPARAMS|DCode=114|XSize=100mil|YSize=100mil|CornerRadius=0mil|HoleSize=0mil|Usage=FLASHONLY|Rotation=0.000|XOffset=0mil|YOffset=0mil|HoleType=Round|Shape=Relief|Width=10mil|Gap=10mil|Entries=4|*
%AMTHD114*
7,0,0,0.10000,0.08000,0.01000,45*
%
%ADD114THD114*%
%ADD115C,0.05943*%
G04:AMPARAMS|DCode=116|XSize=95.433mil|YSize=95.433mil|CornerRadius=0mil|HoleSize=0mil|Usage=FLASHONLY|Rotation=0.000|XOffset=0mil|YOffset=0mil|HoleType=Round|Shape=Relief|Width=10mil|Gap=10mil|Entries=4|*
%AMTHD116*
7,0,0,0.09543,0.07543,0.01000,45*
%
%ADD116THD116*%
%ADD117C,0.07900*%
%ADD118C,0.08700*%
G04:AMPARAMS|DCode=119|XSize=98mil|YSize=98mil|CornerRadius=0mil|HoleSize=0mil|Usage=FLASHONLY|Rotation=0.000|XOffset=0mil|YOffset=0mil|HoleType=Round|Shape=Relief|Width=10mil|Gap=10mil|Entries=4|*
%AMTHD119*
7,0,0,0.09800,0.07800,0.01000,45*
%
%ADD119THD119*%
%ADD120C,0.06200*%
%ADD121C,0.11100*%
%ADD122C,0.08300*%
%ADD123C,0.14211*%
%ADD124C,0.03900*%
%ADD125C,0.08400*%
G04:AMPARAMS|DCode=126|XSize=120mil|YSize=120mil|CornerRadius=0mil|HoleSize=0mil|Usage=FLASHONLY|Rotation=0.000|XOffset=0mil|YOffset=0mil|HoleType=Round|Shape=Relief|Width=10mil|Gap=10mil|Entries=4|*
%AMTHD126*
7,0,0,0.12000,0.10000,0.01000,45*
%
%ADD126THD126*%
%ADD127C,0.03400*%
G54D68*
X25Y185600D02*
X41856D01*
Y206856D01*
X49600Y214600D01*
X101206Y152486D02*
Y198746D01*
X95399Y146679D02*
X101206Y152486D01*
X95399Y121384D02*
Y146679D01*
X89887Y115872D02*
X95399Y121384D01*
X25Y115872D02*
X89887D01*
X85352Y198746D02*
X101206D01*
X85352D02*
Y209648D01*
X80400Y214600D02*
X85352Y209648D01*
X49600Y214600D02*
X80400D01*
X107500Y322497D02*
Y312500D01*
X114164D01*
X117497D02*
Y319164D01*
X120829Y322497D01*
X124161Y319164D01*
Y312500D01*
Y317498D01*
X117497D01*
X127494Y322497D02*
Y320831D01*
X130826Y317498D01*
X134158Y320831D01*
Y322497D01*
X130826Y317498D02*
Y312500D01*
X144155Y322497D02*
X137490D01*
Y312500D01*
X144155D01*
X137490Y317498D02*
X140823D01*
X147487Y312500D02*
Y322497D01*
X152486D01*
X154152Y320831D01*
Y317498D01*
X152486Y315832D01*
X147487D01*
X150819D02*
X154152Y312500D01*
X174145D02*
X167481D01*
X174145Y319164D01*
Y320831D01*
X172479Y322497D01*
X169147D01*
X167481Y320831D01*
X114164Y335831D02*
X112498Y337497D01*
X109166D01*
X107500Y335831D01*
Y329166D01*
X109166Y327500D01*
X112498D01*
X114164Y329166D01*
Y332498D01*
X110832D01*
X117497Y327500D02*
Y337497D01*
X124161Y327500D01*
Y337497D01*
X127494D02*
Y327500D01*
X132492D01*
X134158Y329166D01*
Y335831D01*
X132492Y337497D01*
X127494D01*
X147487Y327500D02*
Y337497D01*
X152486D01*
X154152Y335831D01*
Y332498D01*
X152486Y330832D01*
X147487D01*
X157484Y337497D02*
Y327500D01*
X164148D01*
X167481D02*
Y334165D01*
X170813Y337497D01*
X174145Y334165D01*
Y327500D01*
Y332498D01*
X167481D01*
X177477Y327500D02*
Y337497D01*
X184142Y327500D01*
Y337497D01*
X194139D02*
X187474D01*
Y327500D01*
X194139D01*
X187474Y332498D02*
X190806D01*
X114164Y307497D02*
X107500D01*
Y297500D01*
X114164D01*
X107500Y302498D02*
X110832D01*
X117497Y307497D02*
X120829D01*
X119163D01*
Y297500D01*
X117497D01*
X120829D01*
X125827D02*
Y307497D01*
X132492Y297500D01*
Y307497D01*
X135824D02*
Y305831D01*
X139156Y302498D01*
X142489Y305831D01*
Y307497D01*
X139156Y302498D02*
Y297500D01*
X155818Y305831D02*
X157484Y307497D01*
X160816D01*
X162482Y305831D01*
Y299166D01*
X160816Y297500D01*
X157484D01*
X155818Y299166D01*
Y305831D01*
X165814Y297500D02*
Y299166D01*
X167481D01*
Y297500D01*
X165814D01*
X180810D02*
X174145D01*
X180810Y304165D01*
Y305831D01*
X179144Y307497D01*
X175811D01*
X174145Y305831D01*
X185808Y304165D02*
X189140D01*
X190806Y302498D01*
Y297500D01*
X185808D01*
X184142Y299166D01*
X185808Y300832D01*
X190806D01*
G54D82*
X25Y25D02*
Y279553D01*
X413411D01*
Y25D02*
Y279553D01*
X25Y25D02*
X413411D01*
G54D113*
X236639Y111561D02*
D03*
X201600Y15813D02*
D03*
X211600D02*
D03*
X221600D02*
D03*
X231600D02*
D03*
X150380Y15773D02*
D03*
X160380D02*
D03*
X170379D02*
D03*
X180379D02*
D03*
X150380Y43332D02*
D03*
X160380D02*
D03*
X170379D02*
D03*
X180379D02*
D03*
X99198Y15773D02*
D03*
X109198D02*
D03*
X119198D02*
D03*
X129198D02*
D03*
X48017D02*
D03*
X58017D02*
D03*
X68017D02*
D03*
X78017D02*
D03*
X10873Y229398D02*
D03*
X251500Y215300D02*
D03*
X147820Y236246D02*
D03*
X127821D02*
D03*
Y259868D02*
D03*
X147820D02*
D03*
X86482D02*
D03*
X106482D02*
D03*
X65143Y236246D02*
D03*
X45143D02*
D03*
Y259868D02*
D03*
X65143D02*
D03*
X236639Y173765D02*
D03*
Y142663D02*
D03*
X261000Y183700D02*
D03*
Y173700D02*
D03*
Y163700D02*
D03*
X260900Y142300D02*
D03*
Y132300D02*
D03*
Y122300D02*
D03*
X106482Y236246D02*
D03*
X86482D02*
D03*
X403667Y42151D02*
D03*
G54D114*
X236639Y121561D02*
D03*
X10873Y211598D02*
D03*
X251500Y205300D02*
D03*
X137820Y236246D02*
D03*
Y259868D02*
D03*
X96482D02*
D03*
X55143Y236246D02*
D03*
Y259868D02*
D03*
X236639Y183765D02*
D03*
Y152663D02*
D03*
X96482Y236246D02*
D03*
G54D115*
X219000Y266000D02*
D03*
Y256000D02*
D03*
X209000Y266000D02*
D03*
Y256000D02*
D03*
X199000Y266000D02*
D03*
Y256000D02*
D03*
X189000Y266000D02*
D03*
Y256000D02*
D03*
X179000D02*
D03*
X245568Y272171D02*
D03*
X255569D02*
D03*
X245568Y262171D02*
D03*
Y252171D02*
D03*
X255569D02*
D03*
Y242171D02*
D03*
X245568Y232171D02*
D03*
X255569D02*
D03*
X219000Y228500D02*
D03*
Y218500D02*
D03*
X209000Y228500D02*
D03*
Y218500D02*
D03*
X199000Y228500D02*
D03*
Y218500D02*
D03*
X189000Y228500D02*
D03*
Y218500D02*
D03*
X179000D02*
D03*
G54D116*
Y266000D02*
D03*
X255569Y262171D02*
D03*
X245568Y242171D02*
D03*
X179000Y228500D02*
D03*
G54D117*
X282700Y95900D02*
D03*
X262700D02*
D03*
G54D118*
X346500Y14100D02*
D03*
X333100D02*
D03*
Y67100D02*
D03*
X346500D02*
D03*
X317495Y67139D02*
D03*
X304095D02*
D03*
Y14139D02*
D03*
X317495D02*
D03*
X333600Y168400D02*
D03*
X347000D02*
D03*
Y115400D02*
D03*
X333600D02*
D03*
G54D119*
X78553Y208356D02*
D03*
X135813D02*
D03*
X38284Y148568D02*
D03*
G54D120*
X78553Y198356D02*
D03*
X68553Y208356D02*
D03*
Y198356D02*
D03*
X58553Y208356D02*
D03*
Y198356D02*
D03*
X135813D02*
D03*
X125813Y208356D02*
D03*
Y198356D02*
D03*
X115813Y208356D02*
D03*
Y198356D02*
D03*
X38284Y158490D02*
D03*
X46184D02*
D03*
Y148568D02*
D03*
G54D121*
X27584Y129868D02*
D03*
Y177190D02*
D03*
G54D122*
X20673Y206698D02*
D03*
Y234298D02*
D03*
G54D123*
X393726Y19710D02*
D03*
Y259868D02*
D03*
X19710D02*
D03*
Y19710D02*
D03*
G54D124*
X393726Y9710D02*
D03*
Y29710D02*
D03*
X403726Y19710D02*
D03*
X383726D02*
D03*
X386726Y26710D02*
D03*
X400726D02*
D03*
Y12710D02*
D03*
X386726D02*
D03*
X393726Y249868D02*
D03*
Y269868D02*
D03*
X403726Y259868D02*
D03*
X383726D02*
D03*
X386726Y266868D02*
D03*
X400726D02*
D03*
Y252868D02*
D03*
X386726D02*
D03*
X19710Y249868D02*
D03*
Y269868D02*
D03*
X29710Y259868D02*
D03*
X9710D02*
D03*
X12710Y266868D02*
D03*
X26710D02*
D03*
Y252868D02*
D03*
X12710D02*
D03*
X19710Y9710D02*
D03*
Y29710D02*
D03*
X29710Y19710D02*
D03*
X9710D02*
D03*
X12710Y26710D02*
D03*
X26710D02*
D03*
Y12710D02*
D03*
X12710D02*
D03*
X204800Y114900D02*
D03*
X35800Y198100D02*
D03*
X38017Y195500D02*
D03*
X51500Y135500D02*
D03*
X51600Y128100D02*
D03*
Y131300D02*
D03*
X65000Y161500D02*
D03*
X285700Y142800D02*
D03*
X279900D02*
D03*
X223000Y149500D02*
D03*
X220800Y136900D02*
D03*
X221900Y128000D02*
D03*
X218500Y167600D02*
D03*
X274100Y156900D02*
D03*
X225400Y180600D02*
D03*
X204800Y129900D02*
D03*
X217200Y114000D02*
D03*
X273600Y197600D02*
D03*
X296400Y227700D02*
D03*
X205000Y135600D02*
D03*
X119800Y143500D02*
D03*
X171600Y215500D02*
D03*
X241100Y98800D02*
D03*
X256900Y66400D02*
D03*
X247100D02*
D03*
X365300Y230800D02*
D03*
X356300Y221000D02*
D03*
X365300Y211200D02*
D03*
X262500Y39500D02*
D03*
X253300Y39472D02*
D03*
Y34200D02*
D03*
X262500D02*
D03*
X253300Y29000D02*
D03*
X262500D02*
D03*
X297300Y14200D02*
D03*
X292800Y8400D02*
D03*
X288000D02*
D03*
X297300Y18500D02*
D03*
Y10000D02*
D03*
X300500Y194900D02*
D03*
X230439Y249632D02*
D03*
X48800Y173100D02*
D03*
X51600Y165900D02*
D03*
X81817Y142939D02*
D03*
X92840Y173647D02*
D03*
X50419Y207505D02*
D03*
X82013Y125714D02*
D03*
X96370Y186316D02*
D03*
X85360Y196088D02*
D03*
X124900Y172600D02*
D03*
X56300Y153500D02*
D03*
X82702Y193332D02*
D03*
X328700Y260200D02*
D03*
X74600Y239100D02*
D03*
X45400Y195300D02*
D03*
X76300Y189200D02*
D03*
X79813Y155974D02*
D03*
X223100Y244700D02*
D03*
X219800Y242200D02*
D03*
X157200Y115900D02*
D03*
X214300Y102700D02*
D03*
X177900Y242200D02*
D03*
X178400Y246700D02*
D03*
X35600Y206400D02*
D03*
X269900Y224500D02*
D03*
X326500Y168300D02*
D03*
X328000Y159000D02*
D03*
X333600Y156400D02*
D03*
X347100Y156500D02*
D03*
X340300Y168300D02*
D03*
X340400Y175500D02*
D03*
X354300Y168400D02*
D03*
X365400Y179100D02*
D03*
Y198200D02*
D03*
X375000Y188300D02*
D03*
X381700Y185300D02*
D03*
X381600Y177500D02*
D03*
X372000Y166800D02*
D03*
X357100Y179600D02*
D03*
X373300Y179700D02*
D03*
X326400Y115300D02*
D03*
X333700Y105100D02*
D03*
X340200Y115200D02*
D03*
X336000Y125500D02*
D03*
X346900D02*
D03*
X355300Y115500D02*
D03*
X346900Y104900D02*
D03*
X379200Y106800D02*
D03*
X379000Y128800D02*
D03*
X374500Y123600D02*
D03*
X365400Y132500D02*
D03*
X356100Y123300D02*
D03*
X365300Y113500D02*
D03*
X381200Y117900D02*
D03*
X342500Y131600D02*
D03*
X363700Y105100D02*
D03*
X310900Y67300D02*
D03*
X304400Y77400D02*
D03*
X310200Y58900D02*
D03*
X317400Y57400D02*
D03*
X326700Y91400D02*
D03*
X325600Y85400D02*
D03*
X326600Y79400D02*
D03*
X322700Y75600D02*
D03*
X317800Y77300D02*
D03*
X315000Y45100D02*
D03*
X353400Y89200D02*
D03*
X353000Y79700D02*
D03*
X352500Y85400D02*
D03*
X362500Y79800D02*
D03*
X379200Y63500D02*
D03*
X365400Y68100D02*
D03*
X365600Y49000D02*
D03*
X357000Y54100D02*
D03*
X374800Y58500D02*
D03*
X363700Y39800D02*
D03*
X357200Y33900D02*
D03*
X363700Y27700D02*
D03*
X377100Y36700D02*
D03*
X339700Y74600D02*
D03*
X339900Y67100D02*
D03*
X346200Y56900D02*
D03*
X333500Y57300D02*
D03*
X336700Y37600D02*
D03*
X333200Y47800D02*
D03*
X347900Y35500D02*
D03*
X360700Y22600D02*
D03*
X366500Y22700D02*
D03*
X357167Y17790D02*
D03*
X340000Y14100D02*
D03*
X346500Y22200D02*
D03*
X333000Y23500D02*
D03*
X327400Y14100D02*
D03*
X247100Y71600D02*
D03*
X310700Y14200D02*
D03*
X304400Y23500D02*
D03*
X301600Y201600D02*
D03*
X311600D02*
D03*
Y211600D02*
D03*
X321600D02*
D03*
Y201600D02*
D03*
X331600D02*
D03*
Y211600D02*
D03*
X341600D02*
D03*
Y201600D02*
D03*
Y191600D02*
D03*
X331600D02*
D03*
Y181600D02*
D03*
X351600Y196600D02*
D03*
X256800Y83900D02*
D03*
X256900Y71500D02*
D03*
X247100Y76500D02*
D03*
X256900D02*
D03*
X330500Y222100D02*
D03*
X326700D02*
D03*
X297900Y123500D02*
D03*
X276800Y126200D02*
D03*
X336600Y251400D02*
D03*
X33400Y220100D02*
D03*
X120100Y125900D02*
D03*
X172660Y192207D02*
D03*
X207900Y185800D02*
D03*
G54D125*
X365300Y221050D02*
D03*
Y188550D02*
D03*
Y123550D02*
D03*
Y58550D02*
D03*
G54D126*
Y156050D02*
D03*
Y91050D02*
D03*
G54D127*
X273681Y50768D02*
D03*
X269681D02*
D03*
X277681D02*
D03*
X281681D02*
D03*
Y46768D02*
D03*
Y42768D02*
D03*
X277681D02*
D03*
Y46768D02*
D03*
X273681D02*
D03*
Y42768D02*
D03*
X269681D02*
D03*
Y46768D02*
D03*
Y54768D02*
D03*
Y58768D02*
D03*
X273681D02*
D03*
Y54768D02*
D03*
X277681D02*
D03*
Y58768D02*
D03*
X281681D02*
D03*
Y54768D02*
D03*
X318213Y182877D02*
D03*
X322213D02*
D03*
Y186877D02*
D03*
X318213D02*
D03*
Y190877D02*
D03*
X322213D02*
D03*
Y194877D02*
D03*
X318213D02*
D03*
X310213D02*
D03*
X306213D02*
D03*
Y190877D02*
D03*
X310213D02*
D03*
Y186877D02*
D03*
X306213D02*
D03*
Y182877D02*
D03*
X310213D02*
D03*
X314213D02*
D03*
Y186877D02*
D03*
Y194877D02*
D03*
Y190877D02*
D03*
X105800Y218600D02*
D03*
X114600Y227300D02*
D03*
X222800Y223400D02*
D03*
X118800Y26400D02*
D03*
X110700Y25372D02*
D03*
X36700Y50300D02*
D03*
X223900Y46800D02*
D03*
X78200Y87400D02*
D03*
X284400Y203000D02*
D03*
X284500Y206900D02*
D03*
X291600Y156200D02*
D03*
X276200Y139400D02*
D03*
X221600Y145600D02*
D03*
X221000Y111800D02*
D03*
X204800Y106700D02*
D03*
X92849Y159191D02*
D03*
X84500Y158700D02*
D03*
X84700Y147500D02*
D03*
X85600Y134600D02*
D03*
X125000Y135100D02*
D03*
X115600Y136300D02*
D03*
X105100Y188200D02*
D03*
X116509Y174072D02*
D03*
X117400Y129300D02*
D03*
X125200Y131900D02*
D03*
X121200Y147700D02*
D03*
X182479Y143800D02*
D03*
X151400Y131300D02*
D03*
X175100Y179000D02*
D03*
Y175900D02*
D03*
X165900D02*
D03*
X137883Y175300D02*
D03*
X140983D02*
D03*
X144100D02*
D03*
X137900Y167600D02*
D03*
X137883Y161600D02*
D03*
X140983D02*
D03*
Y157100D02*
D03*
X137883Y151600D02*
D03*
X144083D02*
D03*
X146600Y144800D02*
D03*
X142600D02*
D03*
X142582Y138835D02*
D03*
X188679Y143800D02*
D03*
X185579Y131900D02*
D03*
X182479D02*
D03*
X214400Y166400D02*
D03*
X201900Y151900D02*
D03*
X208600Y143000D02*
D03*
X201400Y132100D02*
D03*
X185579Y143800D02*
D03*
X141000Y167600D02*
D03*
X144083Y157100D02*
D03*
X140983Y151600D02*
D03*
X147100Y138700D02*
D03*
X171200Y128200D02*
D03*
Y131300D02*
D03*
X159300D02*
D03*
Y128200D02*
D03*
X151400D02*
D03*
X146700Y131400D02*
D03*
X222500Y208200D02*
D03*
X226300D02*
D03*
X237400Y201100D02*
D03*
X200300Y197900D02*
D03*
X159200Y217300D02*
D03*
X156100Y212600D02*
D03*
X146500Y223900D02*
D03*
X102100Y211200D02*
D03*
X172700Y105100D02*
D03*
X168500Y54600D02*
D03*
X351100Y211700D02*
D03*
X353000Y203300D02*
D03*
X277500Y111900D02*
D03*
X215400Y86200D02*
D03*
X214600Y83900D02*
D03*
X204200Y78400D02*
D03*
X219100Y45000D02*
D03*
X162200Y104100D02*
D03*
X38400Y95600D02*
D03*
X12800Y109100D02*
D03*
X21300Y109800D02*
D03*
X23900Y107600D02*
D03*
X60800Y84100D02*
D03*
X51500Y89900D02*
D03*
X73200Y100700D02*
D03*
X87400Y95000D02*
D03*
X78200Y89800D02*
D03*
X68700Y106700D02*
D03*
X52000Y95726D02*
D03*
X55200Y95000D02*
D03*
X46200Y109500D02*
D03*
X40700Y111100D02*
D03*
X127700Y119200D02*
D03*
X33700Y93100D02*
D03*
X58400Y93500D02*
D03*
X63300Y77400D02*
D03*
X95600Y98400D02*
D03*
X103200Y98300D02*
D03*
X99400Y98400D02*
D03*
X192900Y99000D02*
D03*
X94500Y49700D02*
D03*
X94000Y54400D02*
D03*
X121300Y102300D02*
D03*
X132700Y114100D02*
D03*
X136200Y88200D02*
D03*
X139500Y82400D02*
D03*
X219500Y88000D02*
D03*
X209800Y106700D02*
D03*
X108000Y78400D02*
D03*
X117700Y86000D02*
D03*
X119000Y84000D02*
D03*
X17200Y84300D02*
D03*
X100700Y26300D02*
D03*
X193900Y23200D02*
D03*
X180129Y72117D02*
D03*
X116300Y26400D02*
D03*
X205400Y24700D02*
D03*
X215700Y26400D02*
D03*
X29000Y87200D02*
D03*
X26800D02*
D03*
X17200Y82100D02*
D03*
X7600Y45300D02*
D03*
X9800D02*
D03*
X79100Y46800D02*
D03*
X6300Y61700D02*
D03*
X32900Y90800D02*
D03*
X39200Y51200D02*
D03*
X98400Y52500D02*
D03*
X72700Y86000D02*
D03*
X53100Y51200D02*
D03*
Y54100D02*
D03*
Y57000D02*
D03*
X178300Y113500D02*
D03*
X182800Y108600D02*
D03*
X179500Y105400D02*
D03*
X175900Y105100D02*
D03*
X8700Y111800D02*
D03*
X128300Y44300D02*
D03*
X204200Y81000D02*
D03*
X222500Y44300D02*
D03*
X237700Y83200D02*
D03*
X230500Y87600D02*
D03*
X162019Y84715D02*
D03*
X179342Y84715D02*
D03*
X201100Y104000D02*
D03*
X196500Y103800D02*
D03*
X189800D02*
D03*
X199700Y99100D02*
D03*
X166300Y105100D02*
D03*
X43300Y90200D02*
D03*
X150600Y69100D02*
D03*
X88100Y86800D02*
D03*
X108000Y81000D02*
D03*
X103000Y80100D02*
D03*
X94600Y86900D02*
D03*
X133828Y88200D02*
D03*
X92100Y105000D02*
D03*
X93693Y102068D02*
D03*
X219100Y42800D02*
D03*
X205400Y27300D02*
D03*
X218000Y24100D02*
D03*
X227000Y27200D02*
D03*
X229150Y25250D02*
D03*
X185400Y92900D02*
D03*
X170400Y59700D02*
D03*
X168100D02*
D03*
X33300Y47900D02*
D03*
X36600Y46300D02*
D03*
X65400Y26700D02*
D03*
X51600Y27200D02*
D03*
X59400Y45300D02*
D03*
X62500Y45200D02*
D03*
X105400Y45300D02*
D03*
X107900D02*
D03*
X128300Y46800D02*
D03*
X79100Y44200D02*
D03*
X108972Y27100D02*
D03*
X219600Y90400D02*
D03*
X47900Y84900D02*
D03*
X63300Y80100D02*
D03*
X143200Y93800D02*
D03*
X185730Y197900D02*
D03*
X179900Y197800D02*
D03*
X120400Y214500D02*
D03*
X150800Y205700D02*
D03*
X132200Y214500D02*
D03*
X135970Y224000D02*
D03*
X92200Y201300D02*
D03*
X92100Y208000D02*
D03*
X128200Y214500D02*
D03*
X191430Y197900D02*
D03*
X58100Y221500D02*
D03*
X88600Y208100D02*
D03*
X102100Y224900D02*
D03*
X114600Y224200D02*
D03*
X117500Y223900D02*
D03*
X124500Y224000D02*
D03*
X150500Y212200D02*
D03*
X156100Y208700D02*
D03*
X153700Y217400D02*
D03*
X74000Y84000D02*
D03*
X80700Y99500D02*
D03*
X83900D02*
D03*
X29000Y102600D02*
D03*
Y105200D02*
D03*
X126600Y114500D02*
D03*
X131500Y104300D02*
D03*
X134500D02*
D03*
M02*
