G04 Layer_Color=2752767*
%FSLAX25Y25*%
%MOIN*%
G70*
G01*
G75*
%ADD67C,0.01000*%
%ADD135C,0.00600*%
%ADD140C,0.00200*%
%ADD267C,0.00267*%
%ADD268C,0.00133*%
G54D67*
X413400Y-10900D02*
Y-1500D01*
X0Y-10900D02*
Y-4000D01*
X228693Y-9900D02*
X413400D01*
X0D02*
X181507D01*
X407400Y-7900D02*
X413400Y-9900D01*
X407400Y-11900D02*
X413400Y-9900D01*
X0D02*
X6000Y-11900D01*
X0Y-9900D02*
X6000Y-7900D01*
X-12200Y279500D02*
X-1500D01*
X-12200Y0D02*
X-4000D01*
X-11200Y159244D02*
Y279500D01*
Y0D02*
Y117056D01*
X-13200Y273500D02*
X-11200Y279500D01*
X-9200Y273500D01*
X-11200Y0D02*
X-9200Y6000D01*
X-13200D02*
X-11200Y0D01*
X431665Y-32503D02*
X425000D01*
Y-42500D01*
X431665D01*
X425000Y-37502D02*
X428332D01*
X434997Y-32503D02*
X438329D01*
X436663D01*
Y-42500D01*
X434997D01*
X438329D01*
X443327D02*
Y-32503D01*
X449992Y-42500D01*
Y-32503D01*
X453324D02*
Y-34169D01*
X456656Y-37502D01*
X459989Y-34169D01*
Y-32503D01*
X456656Y-37502D02*
Y-42500D01*
X473318Y-34169D02*
X474984Y-32503D01*
X478316D01*
X479982Y-34169D01*
Y-40834D01*
X478316Y-42500D01*
X474984D01*
X473318Y-40834D01*
Y-34169D01*
X483315Y-42500D02*
Y-40834D01*
X484981D01*
Y-42500D01*
X483315D01*
X498310D02*
X491645D01*
X498310Y-35835D01*
Y-34169D01*
X496643Y-32503D01*
X493311D01*
X491645Y-34169D01*
X503308Y-35835D02*
X506640D01*
X508306Y-37502D01*
Y-42500D01*
X503308D01*
X501642Y-40834D01*
X503308Y-39168D01*
X508306D01*
X425000Y-17503D02*
Y-27500D01*
X429998D01*
X431665Y-25834D01*
Y-19169D01*
X429998Y-17503D01*
X425000D01*
X434997Y-27500D02*
Y-17503D01*
X439995D01*
X441661Y-19169D01*
Y-22502D01*
X439995Y-24168D01*
X434997D01*
X438329D02*
X441661Y-27500D01*
X444993Y-17503D02*
X448326D01*
X446660D01*
Y-27500D01*
X444993D01*
X448326D01*
X453324Y-17503D02*
Y-27500D01*
X459989D01*
X463321Y-17503D02*
Y-27500D01*
X469985D01*
X483315Y-17503D02*
Y-27500D01*
X488313D01*
X489979Y-25834D01*
Y-19169D01*
X488313Y-17503D01*
X483315D01*
X493311Y-27500D02*
Y-17503D01*
X498310D01*
X499976Y-19169D01*
Y-22502D01*
X498310Y-24168D01*
X493311D01*
X496643D02*
X499976Y-27500D01*
X503308D02*
Y-20835D01*
X506640Y-17503D01*
X509972Y-20835D01*
Y-27500D01*
Y-22502D01*
X503308D01*
X513305Y-17503D02*
Y-27500D01*
X516637Y-24168D01*
X519969Y-27500D01*
Y-17503D01*
X523302D02*
X526634D01*
X524968D01*
Y-27500D01*
X523302D01*
X526634D01*
X531632D02*
Y-17503D01*
X538297Y-27500D01*
Y-17503D01*
X548293Y-19169D02*
X546627Y-17503D01*
X543295D01*
X541629Y-19169D01*
Y-25834D01*
X543295Y-27500D01*
X546627D01*
X548293Y-25834D01*
Y-22502D01*
X544961D01*
G54D135*
X183107Y-13499D02*
X185107D01*
X184107D01*
Y-7501D01*
X183107Y-8501D01*
X188105D02*
X189105Y-7501D01*
X191104D01*
X192104Y-8501D01*
Y-12499D01*
X191104Y-13499D01*
X189105D01*
X188105Y-12499D01*
Y-8501D01*
X198102Y-7501D02*
X194104D01*
Y-10500D01*
X196103Y-9500D01*
X197103D01*
X198102Y-10500D01*
Y-12499D01*
X197103Y-13499D01*
X195103D01*
X194104Y-12499D01*
X200102Y-13499D02*
Y-12499D01*
X201101D01*
Y-13499D01*
X200102D01*
X205100Y-8501D02*
X206100Y-7501D01*
X208099D01*
X209099Y-8501D01*
Y-12499D01*
X208099Y-13499D01*
X206100D01*
X205100Y-12499D01*
Y-8501D01*
X211098D02*
X212098Y-7501D01*
X214097D01*
X215097Y-8501D01*
Y-12499D01*
X214097Y-13499D01*
X212098D01*
X211098Y-12499D01*
Y-8501D01*
X217096Y-13499D02*
Y-9500D01*
X218096D01*
X219095Y-10500D01*
Y-13499D01*
Y-10500D01*
X220095Y-9500D01*
X221095Y-10500D01*
Y-13499D01*
X223094D02*
Y-9500D01*
X224094D01*
X225094Y-10500D01*
Y-13499D01*
Y-10500D01*
X226093Y-9500D01*
X227093Y-10500D01*
Y-13499D01*
X-13599Y118656D02*
Y122655D01*
X-12599D01*
X-8601Y118656D01*
X-7601D01*
X-12599Y124654D02*
X-13599Y125654D01*
Y127653D01*
X-12599Y128653D01*
X-8601D01*
X-7601Y127653D01*
Y125654D01*
X-8601Y124654D01*
X-12599D01*
X-7601Y130652D02*
X-8601D01*
Y131652D01*
X-7601D01*
Y130652D01*
X-8601Y135651D02*
X-7601Y136651D01*
Y138650D01*
X-8601Y139649D01*
X-12599D01*
X-13599Y138650D01*
Y136651D01*
X-12599Y135651D01*
X-11600D01*
X-10600Y136651D01*
Y139649D01*
X-8601Y141649D02*
X-7601Y142648D01*
Y144648D01*
X-8601Y145648D01*
X-12599D01*
X-13599Y144648D01*
Y142648D01*
X-12599Y141649D01*
X-11600D01*
X-10600Y142648D01*
Y145648D01*
X-7601Y147647D02*
X-11600D01*
Y148647D01*
X-10600Y149646D01*
X-7601D01*
X-10600D01*
X-11600Y150646D01*
X-10600Y151646D01*
X-7601D01*
Y153645D02*
X-11600D01*
Y154645D01*
X-10600Y155644D01*
X-7601D01*
X-10600D01*
X-11600Y156644D01*
X-10600Y157644D01*
X-7601D01*
G54D140*
X26784Y129069D02*
Y130668D01*
X28384D01*
Y129069D01*
X26784D01*
Y176391D02*
Y177990D01*
X28384D01*
Y176391D01*
X26784D01*
X219000Y265200D02*
X218200Y266800D01*
X219800D01*
X219000Y265200D01*
Y255200D02*
X218200Y256800D01*
X219800D01*
X219000Y255200D01*
X209000Y265200D02*
X208200Y266800D01*
X209800D01*
X209000Y265200D01*
Y255200D02*
X208200Y256800D01*
X209800D01*
X209000Y255200D01*
X199000Y265200D02*
X198200Y266800D01*
X199800D01*
X199000Y265200D01*
Y255200D02*
X198200Y256800D01*
X199800D01*
X199000Y255200D01*
X189000Y265200D02*
X188200Y266800D01*
X189800D01*
X189000Y265200D01*
Y255200D02*
X188200Y256800D01*
X189800D01*
X189000Y255200D01*
X179000Y265200D02*
X178200Y266800D01*
X179800D01*
X179000Y265200D01*
Y255200D02*
X178200Y256800D01*
X179800D01*
X179000Y255200D01*
X282700Y95100D02*
X283100Y95500D01*
X283500D01*
X283100Y95900D01*
X283500Y96300D01*
X283100D01*
X282700Y96700D01*
X282300Y96300D01*
X281900D01*
X282300Y95900D01*
X281900Y95500D01*
X282300D01*
X282700Y95100D01*
X262700D02*
X263100Y95500D01*
X263500D01*
X263100Y95900D01*
X263500Y96300D01*
X263100D01*
X262700Y96700D01*
X262300Y96300D01*
X261900D01*
X262300Y95900D01*
X261900Y95500D01*
X262300D01*
X262700Y95100D01*
X364500Y220250D02*
X364900Y221050D01*
X364500Y221850D01*
X365300Y221450D01*
X366100Y221850D01*
X365700Y221050D01*
X366100Y220250D01*
X365300Y220650D01*
X364500Y220250D01*
Y187750D02*
X364900Y188550D01*
X364500Y189350D01*
X365300Y188950D01*
X366100Y189350D01*
X365700Y188550D01*
X366100Y187750D01*
X365300Y188150D01*
X364500Y187750D01*
Y155250D02*
X364900Y156050D01*
X364500Y156850D01*
X365300Y156450D01*
X366100Y156850D01*
X365700Y156050D01*
X366100Y155250D01*
X365300Y155650D01*
X364500Y155250D01*
Y122750D02*
X364900Y123550D01*
X364500Y124350D01*
X365300Y123950D01*
X366100Y124350D01*
X365700Y123550D01*
X366100Y122750D01*
X365300Y123150D01*
X364500Y122750D01*
Y90250D02*
X364900Y91050D01*
X364500Y91850D01*
X365300Y91450D01*
X366100Y91850D01*
X365700Y91050D01*
X366100Y90250D01*
X365300Y90650D01*
X364500Y90250D01*
Y57750D02*
X364900Y58550D01*
X364500Y59350D01*
X365300Y58950D01*
X366100Y59350D01*
X365700Y58550D01*
X366100Y57750D01*
X365300Y58150D01*
X364500Y57750D01*
X245568Y271371D02*
X244769Y272971D01*
X246369D01*
X245568Y271371D01*
X255569D02*
X254768Y272971D01*
X256368D01*
X255569Y271371D01*
X245568Y261371D02*
X244769Y262971D01*
X246369D01*
X245568Y261371D01*
X255569D02*
X254768Y262971D01*
X256368D01*
X255569Y261371D01*
X245568Y251371D02*
X244769Y252971D01*
X246369D01*
X245568Y251371D01*
X255569D02*
X254768Y252971D01*
X256368D01*
X255569Y251371D01*
X245568Y241371D02*
X244769Y242971D01*
X246369D01*
X245568Y241371D01*
X255569D02*
X254768Y242971D01*
X256368D01*
X255569Y241371D01*
X245568Y231371D02*
X244769Y232971D01*
X246369D01*
X245568Y231371D01*
X255569D02*
X254768Y232971D01*
X256368D01*
X255569Y231371D01*
X346100Y13700D02*
Y13300D01*
X346900D01*
Y13700D01*
X347300D01*
Y14500D01*
X346900D01*
Y14900D01*
X346100D01*
Y14500D01*
X345700D01*
Y13700D01*
X346100D01*
X332700D02*
Y13300D01*
X333500D01*
Y13700D01*
X333900D01*
Y14500D01*
X333500D01*
Y14900D01*
X332700D01*
Y14500D01*
X332300D01*
Y13700D01*
X332700D01*
Y66700D02*
Y66300D01*
X333500D01*
Y66700D01*
X333900D01*
Y67500D01*
X333500D01*
Y67900D01*
X332700D01*
Y67500D01*
X332300D01*
Y66700D01*
X332700D01*
X346100D02*
Y66300D01*
X346900D01*
Y66700D01*
X347300D01*
Y67500D01*
X346900D01*
Y67900D01*
X346100D01*
Y67500D01*
X345700D01*
Y66700D01*
X346100D01*
X19873Y205898D02*
X20273D01*
X20673Y206298D01*
X21073Y205898D01*
X21473D01*
Y206298D01*
X21073Y206698D01*
X21473Y207098D01*
Y207498D01*
X21073D01*
X20673Y207098D01*
X20273Y207498D01*
X19873D01*
Y207098D01*
X20273Y206698D01*
X19873Y206298D01*
Y205898D01*
Y233498D02*
X20273D01*
X20673Y233898D01*
X21073Y233498D01*
X21473D01*
Y233898D01*
X21073Y234298D01*
X21473Y234698D01*
Y235098D01*
X21073D01*
X20673Y234698D01*
X20273Y235098D01*
X19873D01*
Y234698D01*
X20273Y234298D01*
X19873Y233898D01*
Y233498D01*
X10073Y211598D02*
X10873Y212398D01*
X11673Y211598D01*
X10873Y210798D01*
X10073Y211598D01*
Y229398D02*
X10873Y230198D01*
X11673Y229398D01*
X10873Y228598D01*
X10073Y229398D01*
X392926Y18910D02*
Y20510D01*
X394526D01*
Y18910D01*
X392926D01*
X393326Y19310D02*
Y20110D01*
X394126D01*
Y19310D01*
X393326D01*
X250700Y215300D02*
X251500Y216100D01*
X252300Y215300D01*
X251500Y214500D01*
X250700Y215300D01*
Y205300D02*
X251500Y206100D01*
X252300Y205300D01*
X251500Y204500D01*
X250700Y205300D01*
X200800Y15813D02*
X201600Y16613D01*
X202400Y15813D01*
X201600Y15013D01*
X200800Y15813D01*
X210800D02*
X211600Y16613D01*
X212400Y15813D01*
X211600Y15013D01*
X210800Y15813D01*
X220800D02*
X221600Y16613D01*
X222400Y15813D01*
X221600Y15013D01*
X220800Y15813D01*
X230800D02*
X231600Y16613D01*
X232400Y15813D01*
X231600Y15013D01*
X230800Y15813D01*
X147020Y236246D02*
X147820Y237046D01*
X148620Y236246D01*
X147820Y235446D01*
X147020Y236246D01*
X137021D02*
X137820Y237046D01*
X138620Y236246D01*
X137820Y235446D01*
X137021Y236246D01*
X127021D02*
X127821Y237046D01*
X128621Y236246D01*
X127821Y235446D01*
X127021Y236246D01*
X149580Y43332D02*
X150380Y44132D01*
X151180Y43332D01*
X150380Y42532D01*
X149580Y43332D01*
X159580D02*
X160380Y44132D01*
X161179Y43332D01*
X160380Y42532D01*
X159580Y43332D01*
X169580D02*
X170379Y44132D01*
X171179Y43332D01*
X170379Y42532D01*
X169580Y43332D01*
X179579D02*
X180379Y44132D01*
X181179Y43332D01*
X180379Y42532D01*
X179579Y43332D01*
X149580Y15773D02*
X150380Y16573D01*
X151180Y15773D01*
X150380Y14973D01*
X149580Y15773D01*
X159580D02*
X160380Y16573D01*
X161179Y15773D01*
X160380Y14973D01*
X159580Y15773D01*
X169580D02*
X170379Y16573D01*
X171179Y15773D01*
X170379Y14973D01*
X169580Y15773D01*
X179579D02*
X180379Y16573D01*
X181179Y15773D01*
X180379Y14973D01*
X179579Y15773D01*
X98398D02*
X99198Y16573D01*
X99998Y15773D01*
X99198Y14973D01*
X98398Y15773D01*
X108398D02*
X109198Y16573D01*
X109998Y15773D01*
X109198Y14973D01*
X108398Y15773D01*
X118398D02*
X119198Y16573D01*
X119998Y15773D01*
X119198Y14973D01*
X118398Y15773D01*
X128398D02*
X129198Y16573D01*
X129998Y15773D01*
X129198Y14973D01*
X128398Y15773D01*
X47217D02*
X48017Y16573D01*
X48817Y15773D01*
X48017Y14973D01*
X47217Y15773D01*
X57217D02*
X58017Y16573D01*
X58817Y15773D01*
X58017Y14973D01*
X57217Y15773D01*
X67217D02*
X68017Y16573D01*
X68817Y15773D01*
X68017Y14973D01*
X67217Y15773D01*
X77217D02*
X78017Y16573D01*
X78817Y15773D01*
X78017Y14973D01*
X77217Y15773D01*
X235839Y173765D02*
X236639Y174565D01*
X237439Y173765D01*
X236639Y172965D01*
X235839Y173765D01*
Y183765D02*
X236639Y184565D01*
X237439Y183765D01*
X236639Y182965D01*
X235839Y183765D01*
Y142663D02*
X236639Y143463D01*
X237439Y142663D01*
X236639Y141863D01*
X235839Y142663D01*
Y152663D02*
X236639Y153463D01*
X237439Y152663D01*
X236639Y151863D01*
X235839Y152663D01*
X260200Y183700D02*
X261000Y184500D01*
X261800Y183700D01*
X261000Y182900D01*
X260200Y183700D01*
Y173700D02*
X261000Y174500D01*
X261800Y173700D01*
X261000Y172900D01*
X260200Y173700D01*
Y163700D02*
X261000Y164500D01*
X261800Y163700D01*
X261000Y162900D01*
X260200Y163700D01*
X260100Y142300D02*
X260900Y143100D01*
X261700Y142300D01*
X260900Y141500D01*
X260100Y142300D01*
Y132300D02*
X260900Y133100D01*
X261700Y132300D01*
X260900Y131500D01*
X260100Y132300D01*
Y122300D02*
X260900Y123100D01*
X261700Y122300D01*
X260900Y121500D01*
X260100Y122300D01*
X235839Y111561D02*
X236639Y112361D01*
X237439Y111561D01*
X236639Y110761D01*
X235839Y111561D01*
Y121561D02*
X236639Y122361D01*
X237439Y121561D01*
X236639Y120761D01*
X235839Y121561D01*
X127021Y259868D02*
X127821Y260668D01*
X128621Y259868D01*
X127821Y259068D01*
X127021Y259868D01*
X137021D02*
X137820Y260668D01*
X138620Y259868D01*
X137820Y259068D01*
X137021Y259868D01*
X147020D02*
X147820Y260668D01*
X148620Y259868D01*
X147820Y259068D01*
X147020Y259868D01*
X85682D02*
X86482Y260668D01*
X87282Y259868D01*
X86482Y259068D01*
X85682Y259868D01*
X95682D02*
X96482Y260668D01*
X97282Y259868D01*
X96482Y259068D01*
X95682Y259868D01*
X105682D02*
X106482Y260668D01*
X107282Y259868D01*
X106482Y259068D01*
X105682Y259868D01*
X44343D02*
X45143Y260668D01*
X45943Y259868D01*
X45143Y259068D01*
X44343Y259868D01*
X54343D02*
X55143Y260668D01*
X55943Y259868D01*
X55143Y259068D01*
X54343Y259868D01*
X64343D02*
X65143Y260668D01*
X65943Y259868D01*
X65143Y259068D01*
X64343Y259868D01*
Y236246D02*
X65143Y237046D01*
X65943Y236246D01*
X65143Y235446D01*
X64343Y236246D01*
X54343D02*
X55143Y237046D01*
X55943Y236246D01*
X55143Y235446D01*
X54343Y236246D01*
X44343D02*
X45143Y237046D01*
X45943Y236246D01*
X45143Y235446D01*
X44343Y236246D01*
X105682D02*
X106482Y237046D01*
X107282Y236246D01*
X106482Y235446D01*
X105682Y236246D01*
X95682D02*
X96482Y237046D01*
X97282Y236246D01*
X96482Y235446D01*
X95682Y236246D01*
X85682D02*
X86482Y237046D01*
X87282Y236246D01*
X86482Y235446D01*
X85682Y236246D01*
X402867Y42151D02*
X403667Y42951D01*
X404467Y42151D01*
X403667Y41351D01*
X402867Y42151D01*
X392926Y259068D02*
Y260668D01*
X394526D01*
Y259068D01*
X392926D01*
X393326Y259468D02*
Y260268D01*
X394126D01*
Y259468D01*
X393326D01*
X18910Y259068D02*
Y260668D01*
X20510D01*
Y259068D01*
X18910D01*
X19310Y259468D02*
Y260268D01*
X20110D01*
Y259468D01*
X19310D01*
X18910Y18910D02*
Y20510D01*
X20510D01*
Y18910D01*
X18910D01*
X19310Y19310D02*
Y20110D01*
X20110D01*
Y19310D01*
X19310D01*
X317095Y66739D02*
Y66339D01*
X317895D01*
Y66739D01*
X318295D01*
Y67539D01*
X317895D01*
Y67939D01*
X317095D01*
Y67539D01*
X316695D01*
Y66739D01*
X317095D01*
X303695D02*
Y66339D01*
X304495D01*
Y66739D01*
X304895D01*
Y67539D01*
X304495D01*
Y67939D01*
X303695D01*
Y67539D01*
X303295D01*
Y66739D01*
X303695D01*
Y13739D02*
Y13339D01*
X304495D01*
Y13739D01*
X304895D01*
Y14539D01*
X304495D01*
Y14939D01*
X303695D01*
Y14539D01*
X303295D01*
Y13739D01*
X303695D01*
X317095D02*
Y13339D01*
X317895D01*
Y13739D01*
X318295D01*
Y14539D01*
X317895D01*
Y14939D01*
X317095D01*
Y14539D01*
X316695D01*
Y13739D01*
X317095D01*
X333200Y168000D02*
Y167600D01*
X334000D01*
Y168000D01*
X334400D01*
Y168800D01*
X334000D01*
Y169200D01*
X333200D01*
Y168800D01*
X332800D01*
Y168000D01*
X333200D01*
X346600D02*
Y167600D01*
X347400D01*
Y168000D01*
X347800D01*
Y168800D01*
X347400D01*
Y169200D01*
X346600D01*
Y168800D01*
X346200D01*
Y168000D01*
X346600D01*
Y115000D02*
Y114600D01*
X347400D01*
Y115000D01*
X347800D01*
Y115800D01*
X347400D01*
Y116200D01*
X346600D01*
Y115800D01*
X346200D01*
Y115000D01*
X346600D01*
X333200D02*
Y114600D01*
X334000D01*
Y115000D01*
X334400D01*
Y115800D01*
X334000D01*
Y116200D01*
X333200D01*
Y115800D01*
X332800D01*
Y115000D01*
X333200D01*
X219000Y227700D02*
X218200Y229300D01*
X219800D01*
X219000Y227700D01*
Y217700D02*
X218200Y219300D01*
X219800D01*
X219000Y217700D01*
X209000Y227700D02*
X208200Y229300D01*
X209800D01*
X209000Y227700D01*
Y217700D02*
X208200Y219300D01*
X209800D01*
X209000Y217700D01*
X199000Y227700D02*
X198200Y229300D01*
X199800D01*
X199000Y227700D01*
Y217700D02*
X198200Y219300D01*
X199800D01*
X199000Y217700D01*
X189000Y227700D02*
X188200Y229300D01*
X189800D01*
X189000Y227700D01*
Y217700D02*
X188200Y219300D01*
X189800D01*
X189000Y217700D01*
X179000Y227700D02*
X178200Y229300D01*
X179800D01*
X179000Y227700D01*
Y217700D02*
X178200Y219300D01*
X179800D01*
X179000Y217700D01*
X317131Y234520D02*
X316332Y236120D01*
X317932D01*
X317131Y234520D01*
Y234920D02*
X316732Y235720D01*
X317531D01*
X317131Y234920D01*
X321069Y234520D02*
X320269Y236120D01*
X321868D01*
X321069Y234520D01*
Y234920D02*
X320669Y235720D01*
X321468D01*
X321069Y234920D01*
X325006Y234520D02*
X324205Y236120D01*
X325805D01*
X325006Y234520D01*
Y234920D02*
X324605Y235720D01*
X325406D01*
X325006Y234920D01*
Y238457D02*
X324205Y240057D01*
X325805D01*
X325006Y238457D01*
Y238858D02*
X324605Y239657D01*
X325406D01*
X325006Y238858D01*
Y242394D02*
X324205Y243994D01*
X325805D01*
X325006Y242394D01*
Y242794D02*
X324605Y243595D01*
X325406D01*
X325006Y242794D01*
X321069Y242394D02*
X320269Y243994D01*
X321868D01*
X321069Y242394D01*
Y242794D02*
X320669Y243595D01*
X321468D01*
X321069Y242794D01*
X317131Y242394D02*
X316332Y243994D01*
X317932D01*
X317131Y242394D01*
Y242794D02*
X316732Y243595D01*
X317531D01*
X317131Y242794D01*
Y238457D02*
X316332Y240057D01*
X317932D01*
X317131Y238457D01*
Y238858D02*
X316732Y239657D01*
X317531D01*
X317131Y238858D01*
X321069Y238457D02*
X320269Y240057D01*
X321868D01*
X321069Y238457D01*
Y238858D02*
X320669Y239657D01*
X321468D01*
X321069Y238858D01*
X105800Y217800D02*
X105000Y219400D01*
X106600D01*
X105800Y217800D01*
Y218200D02*
X105400Y219000D01*
X106200D01*
X105800Y218200D01*
X114600Y226500D02*
X113800Y228100D01*
X115400D01*
X114600Y226500D01*
Y226900D02*
X114200Y227700D01*
X115000D01*
X114600Y226900D01*
X222800Y222600D02*
X222000Y224200D01*
X223600D01*
X222800Y222600D01*
Y223000D02*
X222400Y223800D01*
X223200D01*
X222800Y223000D01*
X212500Y67702D02*
X211700Y69302D01*
X213300D01*
X212500Y67702D01*
Y68102D02*
X212100Y68902D01*
X212900D01*
X212500Y68102D01*
X216831Y67702D02*
X216031Y69302D01*
X217631D01*
X216831Y67702D01*
Y68102D02*
X216431Y68902D01*
X217231D01*
X216831Y68102D01*
X208169Y63371D02*
X207369Y64971D01*
X208969D01*
X208169Y63371D01*
Y63771D02*
X207769Y64571D01*
X208569D01*
X208169Y63771D01*
X212500Y63371D02*
X211700Y64971D01*
X213300D01*
X212500Y63371D01*
Y63771D02*
X212100Y64571D01*
X212900D01*
X212500Y63771D01*
X216831Y63371D02*
X216031Y64971D01*
X217631D01*
X216831Y63371D01*
Y63771D02*
X216431Y64571D01*
X217231D01*
X216831Y63771D01*
X208169Y59040D02*
X207369Y60640D01*
X208969D01*
X208169Y59040D01*
Y59440D02*
X207769Y60240D01*
X208569D01*
X208169Y59440D01*
X212500Y59040D02*
X211700Y60640D01*
X213300D01*
X212500Y59040D01*
Y59440D02*
X212100Y60240D01*
X212900D01*
X212500Y59440D01*
X216831Y59040D02*
X216031Y60640D01*
X217631D01*
X216831Y59040D01*
Y59440D02*
X216431Y60240D01*
X217231D01*
X216831Y59440D01*
X208169Y54710D02*
X207369Y56309D01*
X208969D01*
X208169Y54710D01*
Y55110D02*
X207769Y55910D01*
X208569D01*
X208169Y55110D01*
X212500Y54710D02*
X211700Y56309D01*
X213300D01*
X212500Y54710D01*
Y55110D02*
X212100Y55910D01*
X212900D01*
X212500Y55110D01*
X216831Y54710D02*
X216031Y56309D01*
X217631D01*
X216831Y54710D01*
Y55110D02*
X216431Y55910D01*
X217231D01*
X216831Y55110D01*
X208169Y67702D02*
X207369Y69302D01*
X208969D01*
X208169Y67702D01*
Y68102D02*
X207769Y68902D01*
X208569D01*
X208169Y68102D01*
X111769Y67702D02*
X110969Y69302D01*
X112569D01*
X111769Y67702D01*
Y68102D02*
X111369Y68902D01*
X112169D01*
X111769Y68102D01*
X120431Y54710D02*
X119631Y56309D01*
X121231D01*
X120431Y54710D01*
Y55110D02*
X120031Y55910D01*
X120831D01*
X120431Y55110D01*
X116100Y54710D02*
X115300Y56309D01*
X116900D01*
X116100Y54710D01*
Y55110D02*
X115700Y55910D01*
X116500D01*
X116100Y55110D01*
X111769Y54710D02*
X110969Y56309D01*
X112569D01*
X111769Y54710D01*
Y55110D02*
X111369Y55910D01*
X112169D01*
X111769Y55110D01*
X120431Y59040D02*
X119631Y60640D01*
X121231D01*
X120431Y59040D01*
Y59440D02*
X120031Y60240D01*
X120831D01*
X120431Y59440D01*
X116100Y59040D02*
X115300Y60640D01*
X116900D01*
X116100Y59040D01*
Y59440D02*
X115700Y60240D01*
X116500D01*
X116100Y59440D01*
X111769Y59040D02*
X110969Y60640D01*
X112569D01*
X111769Y59040D01*
Y59440D02*
X111369Y60240D01*
X112169D01*
X111769Y59440D01*
X120431Y63371D02*
X119631Y64971D01*
X121231D01*
X120431Y63371D01*
Y63771D02*
X120031Y64571D01*
X120831D01*
X120431Y63771D01*
X116100Y63371D02*
X115300Y64971D01*
X116900D01*
X116100Y63371D01*
Y63771D02*
X115700Y64571D01*
X116500D01*
X116100Y63771D01*
X111769Y63371D02*
X110969Y64971D01*
X112569D01*
X111769Y63371D01*
Y63771D02*
X111369Y64571D01*
X112169D01*
X111769Y63771D01*
X120431Y67702D02*
X119631Y69302D01*
X121231D01*
X120431Y67702D01*
Y68102D02*
X120031Y68902D01*
X120831D01*
X120431Y68102D01*
X116100Y67702D02*
X115300Y69302D01*
X116900D01*
X116100Y67702D01*
Y68102D02*
X115700Y68902D01*
X116500D01*
X116100Y68102D01*
X71100Y67702D02*
X70300Y69302D01*
X71900D01*
X71100Y67702D01*
Y68102D02*
X70700Y68902D01*
X71500D01*
X71100Y68102D01*
X75431Y67702D02*
X74631Y69302D01*
X76231D01*
X75431Y67702D01*
Y68102D02*
X75031Y68902D01*
X75831D01*
X75431Y68102D01*
X66769Y63371D02*
X65969Y64971D01*
X67569D01*
X66769Y63371D01*
Y63771D02*
X66369Y64571D01*
X67169D01*
X66769Y63771D01*
X71100Y63371D02*
X70300Y64971D01*
X71900D01*
X71100Y63371D01*
Y63771D02*
X70700Y64571D01*
X71500D01*
X71100Y63771D01*
X75431Y63371D02*
X74631Y64971D01*
X76231D01*
X75431Y63371D01*
Y63771D02*
X75031Y64571D01*
X75831D01*
X75431Y63771D01*
X66769Y59040D02*
X65969Y60640D01*
X67569D01*
X66769Y59040D01*
Y59440D02*
X66369Y60240D01*
X67169D01*
X66769Y59440D01*
X71100Y59040D02*
X70300Y60640D01*
X71900D01*
X71100Y59040D01*
Y59440D02*
X70700Y60240D01*
X71500D01*
X71100Y59440D01*
X75431Y59040D02*
X74631Y60640D01*
X76231D01*
X75431Y59040D01*
Y59440D02*
X75031Y60240D01*
X75831D01*
X75431Y59440D01*
X66769Y54710D02*
X65969Y56309D01*
X67569D01*
X66769Y54710D01*
Y55110D02*
X66369Y55910D01*
X67169D01*
X66769Y55110D01*
X71100Y54710D02*
X70300Y56309D01*
X71900D01*
X71100Y54710D01*
Y55110D02*
X70700Y55910D01*
X71500D01*
X71100Y55110D01*
X75431Y54710D02*
X74631Y56309D01*
X76231D01*
X75431Y54710D01*
Y55110D02*
X75031Y55910D01*
X75831D01*
X75431Y55110D01*
X66769Y67702D02*
X65969Y69302D01*
X67569D01*
X66769Y67702D01*
Y68102D02*
X66369Y68902D01*
X67169D01*
X66769Y68102D01*
X22031Y71302D02*
X21231Y72902D01*
X22831D01*
X22031Y71302D01*
Y71702D02*
X21632Y72502D01*
X22432D01*
X22031Y71702D01*
X30693Y58310D02*
X29893Y59909D01*
X31493D01*
X30693Y58310D01*
Y58710D02*
X30293Y59509D01*
X31093D01*
X30693Y58710D01*
X26362Y58310D02*
X25562Y59909D01*
X27162D01*
X26362Y58310D01*
Y58710D02*
X25962Y59509D01*
X26762D01*
X26362Y58710D01*
X22031Y58310D02*
X21231Y59909D01*
X22831D01*
X22031Y58310D01*
Y58710D02*
X21632Y59509D01*
X22432D01*
X22031Y58710D01*
X30693Y62640D02*
X29893Y64240D01*
X31493D01*
X30693Y62640D01*
Y63040D02*
X30293Y63840D01*
X31093D01*
X30693Y63040D01*
X26362Y62640D02*
X25562Y64240D01*
X27162D01*
X26362Y62640D01*
Y63040D02*
X25962Y63840D01*
X26762D01*
X26362Y63040D01*
X22031Y62640D02*
X21231Y64240D01*
X22831D01*
X22031Y62640D01*
Y63040D02*
X21632Y63840D01*
X22432D01*
X22031Y63040D01*
X30693Y66971D02*
X29893Y68571D01*
X31493D01*
X30693Y66971D01*
Y67371D02*
X30293Y68171D01*
X31093D01*
X30693Y67371D01*
X26362Y66971D02*
X25562Y68571D01*
X27162D01*
X26362Y66971D01*
Y67371D02*
X25962Y68171D01*
X26762D01*
X26362Y67371D01*
X22031Y66971D02*
X21231Y68571D01*
X22831D01*
X22031Y66971D01*
Y67371D02*
X21632Y68171D01*
X22432D01*
X22031Y67371D01*
X30693Y71302D02*
X29893Y72902D01*
X31493D01*
X30693Y71302D01*
Y71702D02*
X30293Y72502D01*
X31093D01*
X30693Y71702D01*
X26362Y71302D02*
X25562Y72902D01*
X27162D01*
X26362Y71302D01*
Y71702D02*
X25962Y72502D01*
X26762D01*
X26362Y71702D01*
X147200Y174500D02*
X146400Y176100D01*
X148000D01*
X147200Y174500D01*
Y174900D02*
X146800Y175700D01*
X147600D01*
X147200Y174900D01*
X147100Y150800D02*
X146300Y152400D01*
X147900D01*
X147100Y150800D01*
Y151200D02*
X146700Y152000D01*
X147500D01*
X147100Y151200D01*
X155400Y143100D02*
X154600Y144700D01*
X156200D01*
X155400Y143100D01*
Y143500D02*
X155000Y144300D01*
X155800D01*
X155400Y143500D01*
X163500D02*
X162700Y145100D01*
X164300D01*
X163500Y143500D01*
Y143900D02*
X163100Y144700D01*
X163900D01*
X163500Y143900D01*
X180600Y148600D02*
X179800Y150200D01*
X181400D01*
X180600Y148600D01*
Y149000D02*
X180200Y149800D01*
X181000D01*
X180600Y149000D01*
X202400Y75200D02*
X201600Y76800D01*
X203200D01*
X202400Y75200D01*
Y75600D02*
X202000Y76400D01*
X202800D01*
X202400Y75600D01*
X118800Y25600D02*
X118000Y27200D01*
X119600D01*
X118800Y25600D01*
Y26000D02*
X118400Y26800D01*
X119200D01*
X118800Y26000D01*
X110700Y24572D02*
X109900Y26172D01*
X111500D01*
X110700Y24572D01*
Y24972D02*
X110300Y25772D01*
X111100D01*
X110700Y24972D01*
X36700Y49500D02*
X35900Y51100D01*
X37500D01*
X36700Y49500D01*
Y49900D02*
X36300Y50700D01*
X37100D01*
X36700Y49900D01*
X224400Y49600D02*
X223600Y51200D01*
X225200D01*
X224400Y49600D01*
Y50000D02*
X224000Y50800D01*
X224800D01*
X224400Y50000D01*
X223900Y46000D02*
X223100Y47600D01*
X224700D01*
X223900Y46000D01*
Y46400D02*
X223500Y47200D01*
X224300D01*
X223900Y46400D01*
X77800Y97800D02*
X77000Y99400D01*
X78600D01*
X77800Y97800D01*
Y98200D02*
X77400Y99000D01*
X78200D01*
X77800Y98200D01*
X61638Y72700D02*
X60838Y74300D01*
X62438D01*
X61638Y72700D01*
Y73100D02*
X61238Y73900D01*
X62038D01*
X61638Y73100D01*
X60838Y74900D02*
X60038Y76500D01*
X61638D01*
X60838Y74900D01*
Y75300D02*
X60438Y76100D01*
X61238D01*
X60838Y75300D01*
X38200Y53300D02*
X37400Y54900D01*
X39000D01*
X38200Y53300D01*
Y53700D02*
X37800Y54500D01*
X38600D01*
X38200Y53700D01*
X16700Y51000D02*
X15900Y52600D01*
X17500D01*
X16700Y51000D01*
Y51400D02*
X16300Y52200D01*
X17100D01*
X16700Y51400D01*
X16100Y78500D02*
X15300Y80100D01*
X16900D01*
X16100Y78500D01*
Y78900D02*
X15700Y79700D01*
X16500D01*
X16100Y78900D01*
X16700Y53300D02*
X15900Y54900D01*
X17500D01*
X16700Y53300D01*
Y53700D02*
X16300Y54500D01*
X17100D01*
X16700Y53700D01*
X78200Y86600D02*
X77400Y88200D01*
X79000D01*
X78200Y86600D01*
Y87000D02*
X77800Y87800D01*
X78600D01*
X78200Y87000D01*
X83100Y89000D02*
X82300Y90600D01*
X83900D01*
X83100Y89000D01*
Y89400D02*
X82700Y90200D01*
X83500D01*
X83100Y89400D01*
X284400Y202200D02*
X283600Y203800D01*
X285200D01*
X284400Y202200D01*
Y202600D02*
X284000Y203400D01*
X284800D01*
X284400Y202600D01*
X284500Y206100D02*
X283700Y207700D01*
X285300D01*
X284500Y206100D01*
Y206500D02*
X284100Y207300D01*
X284900D01*
X284500Y206500D01*
X291600Y155400D02*
X290800Y157000D01*
X292400D01*
X291600Y155400D01*
Y155800D02*
X291200Y156600D01*
X292000D01*
X291600Y155800D01*
X276200Y138600D02*
X275400Y140200D01*
X277000D01*
X276200Y138600D01*
Y139000D02*
X275800Y139800D01*
X276600D01*
X276200Y139000D01*
X221600Y144800D02*
X220800Y146400D01*
X222400D01*
X221600Y144800D01*
Y145200D02*
X221200Y146000D01*
X222000D01*
X221600Y145200D01*
X221000Y111000D02*
X220200Y112600D01*
X221800D01*
X221000Y111000D01*
Y111400D02*
X220600Y112200D01*
X221400D01*
X221000Y111400D01*
X204800Y105900D02*
X204000Y107500D01*
X205600D01*
X204800Y105900D01*
Y106300D02*
X204400Y107100D01*
X205200D01*
X204800Y106300D01*
X92849Y158391D02*
X92049Y159991D01*
X93650D01*
X92849Y158391D01*
Y158791D02*
X92449Y159591D01*
X93249D01*
X92849Y158791D01*
X84500Y157900D02*
X83700Y159500D01*
X85300D01*
X84500Y157900D01*
Y158300D02*
X84100Y159100D01*
X84900D01*
X84500Y158300D01*
X84700Y146700D02*
X83900Y148300D01*
X85500D01*
X84700Y146700D01*
Y147100D02*
X84300Y147900D01*
X85100D01*
X84700Y147100D01*
X85600Y133800D02*
X84800Y135400D01*
X86400D01*
X85600Y133800D01*
Y134200D02*
X85200Y135000D01*
X86000D01*
X85600Y134200D01*
X125000Y134300D02*
X124200Y135900D01*
X125800D01*
X125000Y134300D01*
Y134700D02*
X124600Y135500D01*
X125400D01*
X125000Y134700D01*
X115600Y135500D02*
X114800Y137100D01*
X116400D01*
X115600Y135500D01*
Y135900D02*
X115200Y136700D01*
X116000D01*
X115600Y135900D01*
X105100Y187400D02*
X104300Y189000D01*
X105900D01*
X105100Y187400D01*
Y187800D02*
X104700Y188600D01*
X105500D01*
X105100Y187800D01*
X116509Y173272D02*
X115709Y174872D01*
X117309D01*
X116509Y173272D01*
Y173672D02*
X116109Y174472D01*
X116909D01*
X116509Y173672D01*
X117400Y128500D02*
X116600Y130100D01*
X118200D01*
X117400Y128500D01*
Y128900D02*
X117000Y129700D01*
X117800D01*
X117400Y128900D01*
X125200Y131100D02*
X124400Y132700D01*
X126000D01*
X125200Y131100D01*
Y131500D02*
X124800Y132300D01*
X125600D01*
X125200Y131500D01*
X121200Y146900D02*
X120400Y148500D01*
X122000D01*
X121200Y146900D01*
Y147300D02*
X120800Y148100D01*
X121600D01*
X121200Y147300D01*
X162700Y174900D02*
X161900Y176500D01*
X163500D01*
X162700Y174900D01*
Y175300D02*
X162300Y176100D01*
X163100D01*
X162700Y175300D01*
X178400Y178400D02*
X177600Y180000D01*
X179200D01*
X178400Y178400D01*
Y178800D02*
X178000Y179600D01*
X178800D01*
X178400Y178800D01*
X182479Y143000D02*
X181679Y144600D01*
X183279D01*
X182479Y143000D01*
Y143400D02*
X182079Y144200D01*
X182879D01*
X182479Y143400D01*
X151400Y130500D02*
X150600Y132100D01*
X152200D01*
X151400Y130500D01*
Y130900D02*
X151000Y131700D01*
X151800D01*
X151400Y130900D01*
X175100Y178200D02*
X174300Y179800D01*
X175900D01*
X175100Y178200D01*
Y178600D02*
X174700Y179400D01*
X175500D01*
X175100Y178600D01*
Y175100D02*
X174300Y176700D01*
X175900D01*
X175100Y175100D01*
Y175500D02*
X174700Y176300D01*
X175500D01*
X175100Y175500D01*
X165900Y175100D02*
X165100Y176700D01*
X166700D01*
X165900Y175100D01*
Y175500D02*
X165500Y176300D01*
X166300D01*
X165900Y175500D01*
X137883Y174500D02*
X137083Y176100D01*
X138683D01*
X137883Y174500D01*
Y174900D02*
X137483Y175700D01*
X138283D01*
X137883Y174900D01*
X140983Y174500D02*
X140183Y176100D01*
X141783D01*
X140983Y174500D01*
Y174900D02*
X140583Y175700D01*
X141383D01*
X140983Y174900D01*
X144100Y174500D02*
X143300Y176100D01*
X144900D01*
X144100Y174500D01*
Y174900D02*
X143700Y175700D01*
X144500D01*
X144100Y174900D01*
X137900Y166800D02*
X137100Y168400D01*
X138700D01*
X137900Y166800D01*
Y167200D02*
X137500Y168000D01*
X138300D01*
X137900Y167200D01*
X137883Y160800D02*
X137083Y162400D01*
X138683D01*
X137883Y160800D01*
Y161200D02*
X137483Y162000D01*
X138283D01*
X137883Y161200D01*
X140983Y160800D02*
X140183Y162400D01*
X141783D01*
X140983Y160800D01*
Y161200D02*
X140583Y162000D01*
X141383D01*
X140983Y161200D01*
Y156300D02*
X140183Y157900D01*
X141783D01*
X140983Y156300D01*
Y156700D02*
X140583Y157500D01*
X141383D01*
X140983Y156700D01*
X137883Y150800D02*
X137083Y152400D01*
X138683D01*
X137883Y150800D01*
Y151200D02*
X137483Y152000D01*
X138283D01*
X137883Y151200D01*
X144083Y150800D02*
X143283Y152400D01*
X144883D01*
X144083Y150800D01*
Y151200D02*
X143683Y152000D01*
X144483D01*
X144083Y151200D01*
X146600Y144000D02*
X145800Y145600D01*
X147400D01*
X146600Y144000D01*
Y144400D02*
X146200Y145200D01*
X147000D01*
X146600Y144400D01*
X142600Y144000D02*
X141800Y145600D01*
X143400D01*
X142600Y144000D01*
Y144400D02*
X142200Y145200D01*
X143000D01*
X142600Y144400D01*
X142582Y138035D02*
X141782Y139635D01*
X143382D01*
X142582Y138035D01*
Y138435D02*
X142182Y139235D01*
X142982D01*
X142582Y138435D01*
X188679Y143000D02*
X187879Y144600D01*
X189479D01*
X188679Y143000D01*
Y143400D02*
X188279Y144200D01*
X189079D01*
X188679Y143400D01*
X185579Y131100D02*
X184779Y132700D01*
X186379D01*
X185579Y131100D01*
Y131500D02*
X185179Y132300D01*
X185979D01*
X185579Y131500D01*
X182479Y131100D02*
X181679Y132700D01*
X183279D01*
X182479Y131100D01*
Y131500D02*
X182079Y132300D01*
X182879D01*
X182479Y131500D01*
X214400Y165600D02*
X213600Y167200D01*
X215200D01*
X214400Y165600D01*
Y166000D02*
X214000Y166800D01*
X214800D01*
X214400Y166000D01*
X201900Y151100D02*
X201100Y152700D01*
X202700D01*
X201900Y151100D01*
Y151500D02*
X201500Y152300D01*
X202300D01*
X201900Y151500D01*
X208600Y142200D02*
X207800Y143800D01*
X209400D01*
X208600Y142200D01*
Y142600D02*
X208200Y143400D01*
X209000D01*
X208600Y142600D01*
X201400Y131300D02*
X200600Y132900D01*
X202200D01*
X201400Y131300D01*
Y131700D02*
X201000Y132500D01*
X201800D01*
X201400Y131700D01*
X185579Y143000D02*
X184779Y144600D01*
X186379D01*
X185579Y143000D01*
Y143400D02*
X185179Y144200D01*
X185979D01*
X185579Y143400D01*
X141000Y166800D02*
X140200Y168400D01*
X141800D01*
X141000Y166800D01*
Y167200D02*
X140600Y168000D01*
X141400D01*
X141000Y167200D01*
X144083Y156300D02*
X143283Y157900D01*
X144883D01*
X144083Y156300D01*
Y156700D02*
X143683Y157500D01*
X144483D01*
X144083Y156700D01*
X140983Y150800D02*
X140183Y152400D01*
X141783D01*
X140983Y150800D01*
Y151200D02*
X140583Y152000D01*
X141383D01*
X140983Y151200D01*
X147100Y137900D02*
X146300Y139500D01*
X147900D01*
X147100Y137900D01*
Y138300D02*
X146700Y139100D01*
X147500D01*
X147100Y138300D01*
X171200Y127400D02*
X170400Y129000D01*
X172000D01*
X171200Y127400D01*
Y127800D02*
X170800Y128600D01*
X171600D01*
X171200Y127800D01*
Y130500D02*
X170400Y132100D01*
X172000D01*
X171200Y130500D01*
Y130900D02*
X170800Y131700D01*
X171600D01*
X171200Y130900D01*
X159300Y130500D02*
X158500Y132100D01*
X160100D01*
X159300Y130500D01*
Y130900D02*
X158900Y131700D01*
X159700D01*
X159300Y130900D01*
Y127400D02*
X158500Y129000D01*
X160100D01*
X159300Y127400D01*
Y127800D02*
X158900Y128600D01*
X159700D01*
X159300Y127800D01*
X151400Y127400D02*
X150600Y129000D01*
X152200D01*
X151400Y127400D01*
Y127800D02*
X151000Y128600D01*
X151800D01*
X151400Y127800D01*
X146700Y130600D02*
X145900Y132200D01*
X147500D01*
X146700Y130600D01*
Y131000D02*
X146300Y131800D01*
X147100D01*
X146700Y131000D01*
X229800Y202600D02*
X229000Y204200D01*
X230600D01*
X229800Y202600D01*
Y203000D02*
X229400Y203800D01*
X230200D01*
X229800Y203000D01*
X222500Y207400D02*
X221700Y209000D01*
X223300D01*
X222500Y207400D01*
Y207800D02*
X222100Y208600D01*
X222900D01*
X222500Y207800D01*
X226300Y207400D02*
X225500Y209000D01*
X227100D01*
X226300Y207400D01*
Y207800D02*
X225900Y208600D01*
X226700D01*
X226300Y207800D01*
X237400Y200300D02*
X236600Y201900D01*
X238200D01*
X237400Y200300D01*
Y200700D02*
X237000Y201500D01*
X237800D01*
X237400Y200700D01*
X200300Y197100D02*
X199500Y198700D01*
X201100D01*
X200300Y197100D01*
Y197500D02*
X199900Y198300D01*
X200700D01*
X200300Y197500D01*
X147500Y113800D02*
X146700Y115400D01*
X148300D01*
X147500Y113800D01*
Y114200D02*
X147100Y115000D01*
X147900D01*
X147500Y114200D01*
X159200Y220300D02*
X158400Y221900D01*
X160000D01*
X159200Y220300D01*
Y220700D02*
X158800Y221500D01*
X159600D01*
X159200Y220700D01*
Y216500D02*
X158400Y218100D01*
X160000D01*
X159200Y216500D01*
Y216900D02*
X158800Y217700D01*
X159600D01*
X159200Y216900D01*
X156100Y211800D02*
X155300Y213400D01*
X156900D01*
X156100Y211800D01*
Y212200D02*
X155700Y213000D01*
X156500D01*
X156100Y212200D01*
X146500Y223100D02*
X145700Y224700D01*
X147300D01*
X146500Y223100D01*
Y223500D02*
X146100Y224300D01*
X146900D01*
X146500Y223500D01*
X108800Y223600D02*
X108000Y225200D01*
X109600D01*
X108800Y223600D01*
Y224000D02*
X108400Y224800D01*
X109200D01*
X108800Y224000D01*
X102100Y210400D02*
X101300Y212000D01*
X102900D01*
X102100Y210400D01*
Y210800D02*
X101700Y211600D01*
X102500D01*
X102100Y210800D01*
X172700Y104300D02*
X171900Y105900D01*
X173500D01*
X172700Y104300D01*
Y104700D02*
X172300Y105500D01*
X173100D01*
X172700Y104700D01*
X168500Y53800D02*
X167700Y55400D01*
X169300D01*
X168500Y53800D01*
Y54200D02*
X168100Y55000D01*
X168900D01*
X168500Y54200D01*
X351100Y210900D02*
X350300Y212500D01*
X351900D01*
X351100Y210900D01*
Y211300D02*
X350700Y212100D01*
X351500D01*
X351100Y211300D01*
X353000Y202500D02*
X352200Y204100D01*
X353800D01*
X353000Y202500D01*
Y202900D02*
X352600Y203700D01*
X353400D01*
X353000Y202900D01*
X277500Y111100D02*
X276700Y112700D01*
X278300D01*
X277500Y111100D01*
Y111500D02*
X277100Y112300D01*
X277900D01*
X277500Y111500D01*
X241000Y34900D02*
X240200Y36500D01*
X241800D01*
X241000Y34900D01*
Y35300D02*
X240600Y36100D01*
X241400D01*
X241000Y35300D01*
X223900Y36200D02*
X223100Y37800D01*
X224700D01*
X223900Y36200D01*
Y36600D02*
X223500Y37400D01*
X224300D01*
X223900Y36600D01*
X242800Y91400D02*
X242000Y93000D01*
X243600D01*
X242800Y91400D01*
Y91800D02*
X242400Y92600D01*
X243200D01*
X242800Y91800D01*
X144200Y84500D02*
X143400Y86100D01*
X145000D01*
X144200Y84500D01*
Y84900D02*
X143800Y85700D01*
X144600D01*
X144200Y84900D01*
X142800Y68800D02*
X142000Y70400D01*
X143600D01*
X142800Y68800D01*
Y69200D02*
X142400Y70000D01*
X143200D01*
X142800Y69200D01*
X235700Y44300D02*
X234900Y45900D01*
X236500D01*
X235700Y44300D01*
Y44700D02*
X235300Y45500D01*
X236100D01*
X235700Y44700D01*
X200200Y49600D02*
X199400Y51200D01*
X201000D01*
X200200Y49600D01*
Y50000D02*
X199800Y50800D01*
X200600D01*
X200200Y50000D01*
X187500Y74200D02*
X186700Y75800D01*
X188300D01*
X187500Y74200D01*
Y74600D02*
X187100Y75400D01*
X187900D01*
X187500Y74600D01*
X187400Y63000D02*
X186600Y64600D01*
X188200D01*
X187400Y63000D01*
Y63400D02*
X187000Y64200D01*
X187800D01*
X187400Y63400D01*
X190300Y111100D02*
X189500Y112700D01*
X191100D01*
X190300Y111100D01*
Y111500D02*
X189900Y112300D01*
X190700D01*
X190300Y111500D01*
X224700Y87100D02*
X223900Y88700D01*
X225500D01*
X224700Y87100D01*
Y87500D02*
X224300Y88300D01*
X225100D01*
X224700Y87500D01*
X215400Y85400D02*
X214600Y87000D01*
X216200D01*
X215400Y85400D01*
Y85800D02*
X215000Y86600D01*
X215800D01*
X215400Y85800D01*
X214600Y83100D02*
X213800Y84700D01*
X215400D01*
X214600Y83100D01*
Y83500D02*
X214200Y84300D01*
X215000D01*
X214600Y83500D01*
X204200Y77600D02*
X203400Y79200D01*
X205000D01*
X204200Y77600D01*
Y78000D02*
X203800Y78800D01*
X204600D01*
X204200Y78000D01*
X209700Y100400D02*
X208900Y102000D01*
X210500D01*
X209700Y100400D01*
Y100800D02*
X209300Y101600D01*
X210100D01*
X209700Y100800D01*
X203700Y95200D02*
X202900Y96800D01*
X204500D01*
X203700Y95200D01*
Y95600D02*
X203300Y96400D01*
X204100D01*
X203700Y95600D01*
X192500Y39300D02*
X191700Y40900D01*
X193300D01*
X192500Y39300D01*
Y39700D02*
X192100Y40500D01*
X192900D01*
X192500Y39700D01*
Y36800D02*
X191700Y38400D01*
X193300D01*
X192500Y36800D01*
Y37200D02*
X192100Y38000D01*
X192900D01*
X192500Y37200D01*
X219100Y44200D02*
X218300Y45800D01*
X219900D01*
X219100Y44200D01*
Y44600D02*
X218700Y45400D01*
X219500D01*
X219100Y44600D01*
X92900Y29700D02*
X92100Y31300D01*
X93700D01*
X92900Y29700D01*
Y30100D02*
X92500Y30900D01*
X93300D01*
X92900Y30100D01*
X162200Y103300D02*
X161400Y104900D01*
X163000D01*
X162200Y103300D01*
Y103700D02*
X161800Y104500D01*
X162600D01*
X162200Y103700D01*
X38400Y94800D02*
X37600Y96400D01*
X39200D01*
X38400Y94800D01*
Y95200D02*
X38000Y96000D01*
X38800D01*
X38400Y95200D01*
X16200Y100600D02*
X15400Y102200D01*
X17000D01*
X16200Y100600D01*
Y101000D02*
X15800Y101800D01*
X16600D01*
X16200Y101000D01*
X12800Y108300D02*
X12000Y109900D01*
X13600D01*
X12800Y108300D01*
Y108700D02*
X12400Y109500D01*
X13200D01*
X12800Y108700D01*
X21300Y109000D02*
X20500Y110600D01*
X22100D01*
X21300Y109000D01*
Y109400D02*
X20900Y110200D01*
X21700D01*
X21300Y109400D01*
X23900Y106800D02*
X23100Y108400D01*
X24700D01*
X23900Y106800D01*
Y107200D02*
X23500Y108000D01*
X24300D01*
X23900Y107200D01*
X60800Y83300D02*
X60000Y84900D01*
X61600D01*
X60800Y83300D01*
Y83700D02*
X60400Y84500D01*
X61200D01*
X60800Y83700D01*
X51500Y89100D02*
X50700Y90700D01*
X52300D01*
X51500Y89100D01*
Y89500D02*
X51100Y90300D01*
X51900D01*
X51500Y89500D01*
X73200Y99900D02*
X72400Y101500D01*
X74000D01*
X73200Y99900D01*
Y100300D02*
X72800Y101100D01*
X73600D01*
X73200Y100300D01*
X62100Y99100D02*
X61300Y100700D01*
X62900D01*
X62100Y99100D01*
Y99500D02*
X61700Y100300D01*
X62500D01*
X62100Y99500D01*
X75300Y97800D02*
X74500Y99400D01*
X76100D01*
X75300Y97800D01*
Y98200D02*
X74900Y99000D01*
X75700D01*
X75300Y98200D01*
X65100Y104800D02*
X64300Y106400D01*
X65900D01*
X65100Y104800D01*
Y105200D02*
X64700Y106000D01*
X65500D01*
X65100Y105200D01*
Y102200D02*
X64300Y103800D01*
X65900D01*
X65100Y102200D01*
Y102600D02*
X64700Y103400D01*
X65500D01*
X65100Y102600D01*
X87400Y94200D02*
X86600Y95800D01*
X88200D01*
X87400Y94200D01*
Y94600D02*
X87000Y95400D01*
X87800D01*
X87400Y94600D01*
X78200Y89000D02*
X77400Y90600D01*
X79000D01*
X78200Y89000D01*
Y89400D02*
X77800Y90200D01*
X78600D01*
X78200Y89400D01*
X68700Y105900D02*
X67900Y107500D01*
X69500D01*
X68700Y105900D01*
Y106300D02*
X68300Y107100D01*
X69100D01*
X68700Y106300D01*
X52000Y94925D02*
X51200Y96526D01*
X52800D01*
X52000Y94925D01*
Y95325D02*
X51600Y96126D01*
X52400D01*
X52000Y95325D01*
X55200Y94200D02*
X54400Y95800D01*
X56000D01*
X55200Y94200D01*
Y94600D02*
X54800Y95400D01*
X55600D01*
X55200Y94600D01*
X46200Y108700D02*
X45400Y110300D01*
X47000D01*
X46200Y108700D01*
Y109100D02*
X45800Y109900D01*
X46600D01*
X46200Y109100D01*
X40700Y110300D02*
X39900Y111900D01*
X41500D01*
X40700Y110300D01*
Y110700D02*
X40300Y111500D01*
X41100D01*
X40700Y110700D01*
X127700Y118400D02*
X126900Y120000D01*
X128500D01*
X127700Y118400D01*
Y118800D02*
X127300Y119600D01*
X128100D01*
X127700Y118800D01*
X38400Y91900D02*
X37600Y93500D01*
X39200D01*
X38400Y91900D01*
Y92300D02*
X38000Y93100D01*
X38800D01*
X38400Y92300D01*
Y89400D02*
X37600Y91000D01*
X39200D01*
X38400Y89400D01*
Y89800D02*
X38000Y90600D01*
X38800D01*
X38400Y89800D01*
X33700Y92300D02*
X32900Y93900D01*
X34500D01*
X33700Y92300D01*
Y92700D02*
X33300Y93500D01*
X34100D01*
X33700Y92700D01*
X58400D02*
X57600Y94300D01*
X59200D01*
X58400Y92700D01*
Y93100D02*
X58000Y93900D01*
X58800D01*
X58400Y93100D01*
X63300Y76600D02*
X62500Y78200D01*
X64100D01*
X63300Y76600D01*
Y77000D02*
X62900Y77800D01*
X63700D01*
X63300Y77000D01*
X95600Y97600D02*
X94800Y99200D01*
X96400D01*
X95600Y97600D01*
Y98000D02*
X95200Y98800D01*
X96000D01*
X95600Y98000D01*
X103200Y97500D02*
X102400Y99100D01*
X104000D01*
X103200Y97500D01*
Y97900D02*
X102800Y98700D01*
X103600D01*
X103200Y97900D01*
X99400Y97600D02*
X98600Y99200D01*
X100200D01*
X99400Y97600D01*
Y98000D02*
X99000Y98800D01*
X99800D01*
X99400Y98000D01*
X192900Y98200D02*
X192100Y99800D01*
X193700D01*
X192900Y98200D01*
Y98600D02*
X192500Y99400D01*
X193300D01*
X192900Y98600D01*
X94500Y48900D02*
X93700Y50500D01*
X95300D01*
X94500Y48900D01*
Y49300D02*
X94100Y50100D01*
X94900D01*
X94500Y49300D01*
X94000Y53600D02*
X93200Y55200D01*
X94800D01*
X94000Y53600D01*
Y54000D02*
X93600Y54800D01*
X94400D01*
X94000Y54000D01*
X121300Y101500D02*
X120500Y103100D01*
X122100D01*
X121300Y101500D01*
Y101900D02*
X120900Y102700D01*
X121700D01*
X121300Y101900D01*
X126100Y89400D02*
X125300Y91000D01*
X126900D01*
X126100Y89400D01*
Y89800D02*
X125700Y90600D01*
X126500D01*
X126100Y89800D01*
X132700Y113300D02*
X131900Y114900D01*
X133500D01*
X132700Y113300D01*
Y113700D02*
X132300Y114500D01*
X133100D01*
X132700Y113700D01*
X136200Y87400D02*
X135400Y89000D01*
X137000D01*
X136200Y87400D01*
Y87800D02*
X135800Y88600D01*
X136600D01*
X136200Y87800D01*
X131300Y85700D02*
X130500Y87300D01*
X132100D01*
X131300Y85700D01*
Y86100D02*
X130900Y86900D01*
X131700D01*
X131300Y86100D01*
X139500Y81600D02*
X138700Y83200D01*
X140300D01*
X139500Y81600D01*
Y82000D02*
X139100Y82800D01*
X139900D01*
X139500Y82000D01*
X224700Y89600D02*
X223900Y91200D01*
X225500D01*
X224700Y89600D01*
Y90000D02*
X224300Y90800D01*
X225100D01*
X224700Y90000D01*
X219500Y87200D02*
X218700Y88800D01*
X220300D01*
X219500Y87200D01*
Y87600D02*
X219100Y88400D01*
X219900D01*
X219500Y87600D01*
X209800Y105900D02*
X209000Y107500D01*
X210600D01*
X209800Y105900D01*
Y106300D02*
X209400Y107100D01*
X210200D01*
X209800Y106300D01*
X108000Y77600D02*
X107200Y79200D01*
X108800D01*
X108000Y77600D01*
Y78000D02*
X107600Y78800D01*
X108400D01*
X108000Y78000D01*
X117700Y85200D02*
X116900Y86800D01*
X118500D01*
X117700Y85200D01*
Y85600D02*
X117300Y86400D01*
X118100D01*
X117700Y85600D01*
X119000Y83200D02*
X118200Y84800D01*
X119800D01*
X119000Y83200D01*
Y83600D02*
X118600Y84400D01*
X119400D01*
X119000Y83600D01*
X35600Y53300D02*
X34800Y54900D01*
X36400D01*
X35600Y53300D01*
Y53700D02*
X35200Y54500D01*
X36000D01*
X35600Y53700D01*
X16900Y76300D02*
X16100Y77900D01*
X17700D01*
X16900Y76300D01*
Y76700D02*
X16500Y77500D01*
X17300D01*
X16900Y76700D01*
X17200Y83500D02*
X16400Y85100D01*
X18000D01*
X17200Y83500D01*
Y83900D02*
X16800Y84700D01*
X17600D01*
X17200Y83900D01*
X221500Y25600D02*
X220700Y27200D01*
X222300D01*
X221500Y25600D01*
Y26000D02*
X221100Y26800D01*
X221900D01*
X221500Y26000D01*
X201100Y25500D02*
X200300Y27100D01*
X201900D01*
X201100Y25500D01*
Y25900D02*
X200700Y26700D01*
X201500D01*
X201100Y25900D01*
X100700Y25500D02*
X99900Y27100D01*
X101500D01*
X100700Y25500D01*
Y25900D02*
X100300Y26700D01*
X101100D01*
X100700Y25900D01*
X193900Y22400D02*
X193100Y24000D01*
X194700D01*
X193900Y22400D01*
Y22800D02*
X193500Y23600D01*
X194300D01*
X193900Y22800D01*
X197300Y25600D02*
X196500Y27200D01*
X198100D01*
X197300Y25600D01*
Y26000D02*
X196900Y26800D01*
X197700D01*
X197300Y26000D01*
X169598Y89033D02*
X168798Y90633D01*
X170398D01*
X169598Y89033D01*
Y89433D02*
X169198Y90233D01*
X169998D01*
X169598Y89433D01*
X181310Y78797D02*
X180510Y80397D01*
X182110D01*
X181310Y78797D01*
Y79197D02*
X180910Y79997D01*
X181710D01*
X181310Y79197D01*
X169598Y78108D02*
X168798Y79708D01*
X170398D01*
X169598Y78108D01*
Y78508D02*
X169198Y79308D01*
X169998D01*
X169598Y78508D01*
X162117Y78797D02*
X161317Y80397D01*
X162917D01*
X162117Y78797D01*
Y79197D02*
X161717Y79997D01*
X162517D01*
X162117Y79197D01*
X180129Y71316D02*
X179329Y72917D01*
X180929D01*
X180129Y71316D01*
Y71716D02*
X179729Y72517D01*
X180529D01*
X180129Y71716D01*
X162200Y89000D02*
X161400Y90600D01*
X163000D01*
X162200Y89000D01*
Y89400D02*
X161800Y90200D01*
X162600D01*
X162200Y89400D01*
X116300Y25600D02*
X115500Y27200D01*
X117100D01*
X116300Y25600D01*
Y26000D02*
X115900Y26800D01*
X116700D01*
X116300Y26000D01*
X205400Y23900D02*
X204600Y25500D01*
X206200D01*
X205400Y23900D01*
Y24300D02*
X205000Y25100D01*
X205800D01*
X205400Y24300D01*
X215700Y25600D02*
X214900Y27200D01*
X216500D01*
X215700Y25600D01*
Y26000D02*
X215300Y26800D01*
X216100D01*
X215700Y26000D01*
X29000Y86400D02*
X28200Y88000D01*
X29800D01*
X29000Y86400D01*
Y86800D02*
X28600Y87600D01*
X29400D01*
X29000Y86800D01*
X26800Y86400D02*
X26000Y88000D01*
X27600D01*
X26800Y86400D01*
Y86800D02*
X26400Y87600D01*
X27200D01*
X26800Y86800D01*
X17200Y81300D02*
X16400Y82900D01*
X18000D01*
X17200Y81300D01*
Y81700D02*
X16800Y82500D01*
X17600D01*
X17200Y81700D01*
X7600Y44500D02*
X6800Y46100D01*
X8400D01*
X7600Y44500D01*
Y44900D02*
X7200Y45700D01*
X8000D01*
X7600Y44900D01*
X9800Y44500D02*
X9000Y46100D01*
X10600D01*
X9800Y44500D01*
Y44900D02*
X9400Y45700D01*
X10200D01*
X9800Y44900D01*
X61500Y49600D02*
X60700Y51200D01*
X62300D01*
X61500Y49600D01*
Y50000D02*
X61100Y50800D01*
X61900D01*
X61500Y50000D01*
X79100Y46000D02*
X78300Y47600D01*
X79900D01*
X79100Y46000D01*
Y46400D02*
X78700Y47200D01*
X79500D01*
X79100Y46400D01*
X57100Y26300D02*
X56300Y27900D01*
X57900D01*
X57100Y26300D01*
Y26700D02*
X56700Y27500D01*
X57500D01*
X57100Y26700D01*
X6300Y60900D02*
X5500Y62500D01*
X7100D01*
X6300Y60900D01*
Y61300D02*
X5900Y62100D01*
X6700D01*
X6300Y61300D01*
X39109Y65409D02*
X38309Y67009D01*
X39909D01*
X39109Y65409D01*
Y65809D02*
X38709Y66609D01*
X39509D01*
X39109Y65809D01*
X32900Y90000D02*
X32100Y91600D01*
X33700D01*
X32900Y90000D01*
Y90400D02*
X32500Y91200D01*
X33300D01*
X32900Y90400D01*
X83100Y86600D02*
X82300Y88200D01*
X83900D01*
X83100Y86600D01*
Y87000D02*
X82700Y87800D01*
X83500D01*
X83100Y87000D01*
X39200Y50400D02*
X38400Y52000D01*
X40000D01*
X39200Y50400D01*
Y50800D02*
X38800Y51600D01*
X39600D01*
X39200Y50800D01*
X106400Y49800D02*
X105600Y51400D01*
X107200D01*
X106400Y49800D01*
Y50200D02*
X106000Y51000D01*
X106800D01*
X106400Y50200D01*
X98400Y51700D02*
X97600Y53300D01*
X99200D01*
X98400Y51700D01*
Y52100D02*
X98000Y52900D01*
X98800D01*
X98400Y52100D01*
X84100Y61900D02*
X83300Y63500D01*
X84900D01*
X84100Y61900D01*
Y62300D02*
X83700Y63100D01*
X84500D01*
X84100Y62300D01*
X72700Y85200D02*
X71900Y86800D01*
X73500D01*
X72700Y85200D01*
Y85600D02*
X72300Y86400D01*
X73100D01*
X72700Y85600D01*
X85900Y68450D02*
X85100Y70050D01*
X86700D01*
X85900Y68450D01*
Y68850D02*
X85500Y69650D01*
X86300D01*
X85900Y68850D01*
X41300Y72100D02*
X40500Y73700D01*
X42100D01*
X41300Y72100D01*
Y72500D02*
X40900Y73300D01*
X41700D01*
X41300Y72500D01*
X53100Y50400D02*
X52300Y52000D01*
X53900D01*
X53100Y50400D01*
Y50800D02*
X52700Y51600D01*
X53500D01*
X53100Y50800D01*
Y53300D02*
X52300Y54900D01*
X53900D01*
X53100Y53300D01*
Y53700D02*
X52700Y54500D01*
X53500D01*
X53100Y53700D01*
Y56200D02*
X52300Y57800D01*
X53900D01*
X53100Y56200D01*
Y56600D02*
X52700Y57400D01*
X53500D01*
X53100Y56600D01*
X178300Y112700D02*
X177500Y114300D01*
X179100D01*
X178300Y112700D01*
Y113100D02*
X177900Y113900D01*
X178700D01*
X178300Y113100D01*
X130900Y68450D02*
X130100Y70050D01*
X131700D01*
X130900Y68450D01*
Y68850D02*
X130500Y69650D01*
X131300D01*
X130900Y68850D01*
X225400Y61809D02*
X224600Y63409D01*
X226200D01*
X225400Y61809D01*
Y62209D02*
X225000Y63009D01*
X225800D01*
X225400Y62209D01*
X227300Y68450D02*
X226500Y70050D01*
X228100D01*
X227300Y68450D01*
Y68850D02*
X226900Y69650D01*
X227700D01*
X227300Y68850D01*
X202847Y72853D02*
X202047Y74453D01*
X203647D01*
X202847Y72853D01*
Y73253D02*
X202447Y74053D01*
X203247D01*
X202847Y73253D01*
X202800Y49600D02*
X202000Y51200D01*
X203600D01*
X202800Y49600D01*
Y50000D02*
X202400Y50800D01*
X203200D01*
X202800Y50000D01*
X182800Y107800D02*
X182000Y109400D01*
X183600D01*
X182800Y107800D01*
Y108200D02*
X182400Y109000D01*
X183200D01*
X182800Y108200D01*
X179500Y104600D02*
X178700Y106200D01*
X180300D01*
X179500Y104600D01*
Y105000D02*
X179100Y105800D01*
X179900D01*
X179500Y105000D01*
X175900Y104300D02*
X175100Y105900D01*
X176700D01*
X175900Y104300D01*
Y104700D02*
X175500Y105500D01*
X176300D01*
X175900Y104700D01*
X8700Y111000D02*
X7900Y112600D01*
X9500D01*
X8700Y111000D01*
Y111400D02*
X8300Y112200D01*
X9100D01*
X8700Y111400D01*
X128300Y43500D02*
X127500Y45100D01*
X129100D01*
X128300Y43500D01*
Y43900D02*
X127900Y44700D01*
X128700D01*
X128300Y43900D01*
X204200Y80200D02*
X203400Y81800D01*
X205000D01*
X204200Y80200D01*
Y80600D02*
X203800Y81400D01*
X204600D01*
X204200Y80600D01*
X221738Y49600D02*
X220938Y51200D01*
X222538D01*
X221738Y49600D01*
Y50000D02*
X221338Y50800D01*
X222138D01*
X221738Y50000D01*
X222500Y43500D02*
X221700Y45100D01*
X223300D01*
X222500Y43500D01*
Y43900D02*
X222100Y44700D01*
X222900D01*
X222500Y43900D01*
X180200Y66600D02*
X179400Y68200D01*
X181000D01*
X180200Y66600D01*
Y67000D02*
X179800Y67800D01*
X180600D01*
X180200Y67000D01*
X237700Y82400D02*
X236900Y84000D01*
X238500D01*
X237700Y82400D01*
Y82800D02*
X237300Y83600D01*
X238100D01*
X237700Y82800D01*
X230500Y86800D02*
X229700Y88400D01*
X231300D01*
X230500Y86800D01*
Y87200D02*
X230100Y88000D01*
X230900D01*
X230500Y87200D01*
X162019Y83915D02*
X161219Y85515D01*
X162819D01*
X162019Y83915D01*
Y84315D02*
X161619Y85115D01*
X162419D01*
X162019Y84315D01*
X179342Y83915D02*
X178542Y85515D01*
X180142D01*
X179342Y83915D01*
Y84315D02*
X178942Y85115D01*
X179742D01*
X179342Y84315D01*
X181225Y88747D02*
X180425Y90347D01*
X182025D01*
X181225Y88747D01*
Y89147D02*
X180825Y89947D01*
X181625D01*
X181225Y89147D01*
X201100Y103200D02*
X200300Y104800D01*
X201900D01*
X201100Y103200D01*
Y103600D02*
X200700Y104400D01*
X201500D01*
X201100Y103600D01*
X196500Y103000D02*
X195700Y104600D01*
X197300D01*
X196500Y103000D01*
Y103400D02*
X196100Y104200D01*
X196900D01*
X196500Y103400D01*
X189800Y103000D02*
X189000Y104600D01*
X190600D01*
X189800Y103000D01*
Y103400D02*
X189400Y104200D01*
X190200D01*
X189800Y103400D01*
X199700Y98300D02*
X198900Y99900D01*
X200500D01*
X199700Y98300D01*
Y98700D02*
X199300Y99500D01*
X200100D01*
X199700Y98700D01*
X166300Y104300D02*
X165500Y105900D01*
X167100D01*
X166300Y104300D01*
Y104700D02*
X165900Y105500D01*
X166700D01*
X166300Y104700D01*
X43300Y89400D02*
X42500Y91000D01*
X44100D01*
X43300Y89400D01*
Y89800D02*
X42900Y90600D01*
X43700D01*
X43300Y89800D01*
X150600Y68300D02*
X149800Y69900D01*
X151400D01*
X150600Y68300D01*
Y68700D02*
X150200Y69500D01*
X151000D01*
X150600Y68700D01*
X88100Y86000D02*
X87300Y87600D01*
X88900D01*
X88100Y86000D01*
Y86400D02*
X87700Y87200D01*
X88500D01*
X88100Y86400D01*
X108000Y80200D02*
X107200Y81800D01*
X108800D01*
X108000Y80200D01*
Y80600D02*
X107600Y81400D01*
X108400D01*
X108000Y80600D01*
X103000Y79300D02*
X102200Y80900D01*
X103800D01*
X103000Y79300D01*
Y79700D02*
X102600Y80500D01*
X103400D01*
X103000Y79700D01*
X94600Y86100D02*
X93800Y87700D01*
X95400D01*
X94600Y86100D01*
Y86500D02*
X94200Y87300D01*
X95000D01*
X94600Y86500D01*
X115700Y87800D02*
X114900Y89400D01*
X116500D01*
X115700Y87800D01*
Y88200D02*
X115300Y89000D01*
X116100D01*
X115700Y88200D01*
X133828Y87400D02*
X133028Y89000D01*
X134628D01*
X133828Y87400D01*
Y87800D02*
X133428Y88600D01*
X134228D01*
X133828Y87800D01*
X112500Y103100D02*
X111700Y104700D01*
X113300D01*
X112500Y103100D01*
Y103500D02*
X112100Y104300D01*
X112900D01*
X112500Y103500D01*
X110500Y101200D02*
X109700Y102800D01*
X111300D01*
X110500Y101200D01*
Y101600D02*
X110100Y102400D01*
X110900D01*
X110500Y101600D01*
X92100Y104200D02*
X91300Y105800D01*
X92900D01*
X92100Y104200D01*
Y104600D02*
X91700Y105400D01*
X92500D01*
X92100Y104600D01*
X93693Y101268D02*
X92893Y102868D01*
X94493D01*
X93693Y101268D01*
Y101668D02*
X93293Y102468D01*
X94093D01*
X93693Y101668D01*
X219100Y42000D02*
X218300Y43600D01*
X219900D01*
X219100Y42000D01*
Y42400D02*
X218700Y43200D01*
X219500D01*
X219100Y42400D01*
X205400Y26500D02*
X204600Y28100D01*
X206200D01*
X205400Y26500D01*
Y26900D02*
X205000Y27700D01*
X205800D01*
X205400Y26900D01*
X218000Y23300D02*
X217200Y24900D01*
X218800D01*
X218000Y23300D01*
Y23700D02*
X217600Y24500D01*
X218400D01*
X218000Y23700D01*
X227000Y26400D02*
X226200Y28000D01*
X227800D01*
X227000Y26400D01*
Y26800D02*
X226600Y27600D01*
X227400D01*
X227000Y26800D01*
X229150Y24450D02*
X228350Y26050D01*
X229950D01*
X229150Y24450D01*
Y24850D02*
X228750Y25650D01*
X229550D01*
X229150Y24850D01*
X235700Y30200D02*
X234900Y31800D01*
X236500D01*
X235700Y30200D01*
Y30600D02*
X235300Y31400D01*
X236100D01*
X235700Y30600D01*
X210400Y25900D02*
X209600Y27500D01*
X211200D01*
X210400Y25900D01*
Y26300D02*
X210000Y27100D01*
X210800D01*
X210400Y26300D01*
X185400Y92100D02*
X184600Y93700D01*
X186200D01*
X185400Y92100D01*
Y92500D02*
X185000Y93300D01*
X185800D01*
X185400Y92500D01*
X217100Y97300D02*
X216300Y98900D01*
X217900D01*
X217100Y97300D01*
Y97700D02*
X216700Y98500D01*
X217500D01*
X217100Y97700D01*
X170400Y58900D02*
X169600Y60500D01*
X171200D01*
X170400Y58900D01*
Y59300D02*
X170000Y60100D01*
X170800D01*
X170400Y59300D01*
X168100Y58900D02*
X167300Y60500D01*
X168900D01*
X168100Y58900D01*
Y59300D02*
X167700Y60100D01*
X168500D01*
X168100Y59300D01*
X157300Y61700D02*
X156500Y63300D01*
X158100D01*
X157300Y61700D01*
Y62100D02*
X156900Y62900D01*
X157700D01*
X157300Y62100D01*
X136700Y40600D02*
X135900Y42200D01*
X137500D01*
X136700Y40600D01*
Y41000D02*
X136300Y41800D01*
X137100D01*
X136700Y41000D01*
X134900Y37300D02*
X134100Y38900D01*
X135700D01*
X134900Y37300D01*
Y37700D02*
X134500Y38500D01*
X135300D01*
X134900Y37700D01*
X93100Y35200D02*
X92300Y36800D01*
X93900D01*
X93100Y35200D01*
Y35600D02*
X92700Y36400D01*
X93500D01*
X93100Y35600D01*
X128500Y25700D02*
X127700Y27300D01*
X129300D01*
X128500Y25700D01*
Y26100D02*
X128100Y26900D01*
X128900D01*
X128500Y26100D01*
X87400Y40500D02*
X86600Y42100D01*
X88200D01*
X87400Y40500D01*
Y40900D02*
X87000Y41700D01*
X87800D01*
X87400Y40900D01*
X121900Y35700D02*
X121100Y37300D01*
X122700D01*
X121900Y35700D01*
Y36100D02*
X121500Y36900D01*
X122300D01*
X121900Y36100D01*
X33300Y47100D02*
X32500Y48700D01*
X34100D01*
X33300Y47100D01*
Y47500D02*
X32900Y48300D01*
X33700D01*
X33300Y47500D01*
X36600Y45500D02*
X35800Y47100D01*
X37400D01*
X36600Y45500D01*
Y45900D02*
X36200Y46700D01*
X37000D01*
X36600Y45900D01*
X13200Y37000D02*
X12400Y38600D01*
X14000D01*
X13200Y37000D01*
Y37400D02*
X12800Y38200D01*
X13600D01*
X13200Y37400D01*
X16700Y37000D02*
X15900Y38600D01*
X17500D01*
X16700Y37000D01*
Y37400D02*
X16300Y38200D01*
X17100D01*
X16700Y37400D01*
X46700Y26400D02*
X45900Y28000D01*
X47500D01*
X46700Y26400D01*
Y26800D02*
X46300Y27600D01*
X47100D01*
X46700Y26800D01*
X52000Y41400D02*
X51200Y43000D01*
X52800D01*
X52000Y41400D01*
Y41800D02*
X51600Y42600D01*
X52400D01*
X52000Y41800D01*
X53700Y38600D02*
X52900Y40200D01*
X54500D01*
X53700Y38600D01*
Y39000D02*
X53300Y39800D01*
X54100D01*
X53700Y39000D01*
X62700Y35300D02*
X61900Y36900D01*
X63500D01*
X62700Y35300D01*
Y35700D02*
X62300Y36500D01*
X63100D01*
X62700Y35700D01*
X65400Y25900D02*
X64600Y27500D01*
X66200D01*
X65400Y25900D01*
Y26300D02*
X65000Y27100D01*
X65800D01*
X65400Y26300D01*
X37800Y33600D02*
X37000Y35200D01*
X38600D01*
X37800Y33600D01*
Y34000D02*
X37400Y34800D01*
X38200D01*
X37800Y34000D01*
X32100Y35500D02*
X31300Y37100D01*
X32900D01*
X32100Y35500D01*
Y35900D02*
X31700Y36700D01*
X32500D01*
X32100Y35900D01*
X51600Y26400D02*
X50800Y28000D01*
X52400D01*
X51600Y26400D01*
Y26800D02*
X51200Y27600D01*
X52000D01*
X51600Y26800D01*
X59400Y44500D02*
X58600Y46100D01*
X60200D01*
X59400Y44500D01*
Y44900D02*
X59000Y45700D01*
X59800D01*
X59400Y44900D01*
X62500Y44400D02*
X61700Y46000D01*
X63300D01*
X62500Y44400D01*
Y44800D02*
X62100Y45600D01*
X62900D01*
X62500Y44800D01*
X105400Y44500D02*
X104600Y46100D01*
X106200D01*
X105400Y44500D01*
Y44900D02*
X105000Y45700D01*
X105800D01*
X105400Y44900D01*
X107900Y44500D02*
X107100Y46100D01*
X108700D01*
X107900Y44500D01*
Y44900D02*
X107500Y45700D01*
X108300D01*
X107900Y44900D01*
X128300Y46000D02*
X127500Y47600D01*
X129100D01*
X128300Y46000D01*
Y46400D02*
X127900Y47200D01*
X128700D01*
X128300Y46400D01*
X79100Y43400D02*
X78300Y45000D01*
X79900D01*
X79100Y43400D01*
Y43800D02*
X78700Y44600D01*
X79500D01*
X79100Y43800D01*
X97000Y29800D02*
X96200Y31400D01*
X97800D01*
X97000Y29800D01*
Y30200D02*
X96600Y31000D01*
X97400D01*
X97000Y30200D01*
X108972Y26300D02*
X108172Y27900D01*
X109772D01*
X108972Y26300D01*
Y26700D02*
X108572Y27500D01*
X109372D01*
X108972Y26700D01*
X219600Y89600D02*
X218800Y91200D01*
X220400D01*
X219600Y89600D01*
Y90000D02*
X219200Y90800D01*
X220000D01*
X219600Y90000D01*
X47900Y84100D02*
X47100Y85700D01*
X48700D01*
X47900Y84100D01*
Y84500D02*
X47500Y85300D01*
X48300D01*
X47900Y84500D01*
X63300Y79300D02*
X62500Y80900D01*
X64100D01*
X63300Y79300D01*
Y79700D02*
X62900Y80500D01*
X63700D01*
X63300Y79700D01*
X143200Y93000D02*
X142400Y94600D01*
X144000D01*
X143200Y93000D01*
Y93400D02*
X142800Y94200D01*
X143600D01*
X143200Y93400D01*
X7600Y52100D02*
X6800Y53700D01*
X8400D01*
X7600Y52100D01*
Y52500D02*
X7200Y53300D01*
X8000D01*
X7600Y52500D01*
X371100Y26200D02*
X370300Y27800D01*
X371900D01*
X371100Y26200D01*
Y26600D02*
X370700Y27400D01*
X371500D01*
X371100Y26600D01*
X374100Y29400D02*
X373300Y31000D01*
X374900D01*
X374100Y29400D01*
Y29800D02*
X373700Y30600D01*
X374500D01*
X374100Y29800D01*
X185730Y197100D02*
X184930Y198700D01*
X186530D01*
X185730Y197100D01*
Y197500D02*
X185330Y198300D01*
X186130D01*
X185730Y197500D01*
X192000Y191300D02*
X191200Y192900D01*
X192800D01*
X192000Y191300D01*
Y191700D02*
X191600Y192500D01*
X192400D01*
X192000Y191700D01*
X179900Y197000D02*
X179100Y198600D01*
X180700D01*
X179900Y197000D01*
Y197400D02*
X179500Y198200D01*
X180300D01*
X179900Y197400D01*
X120400Y213700D02*
X119600Y215300D01*
X121200D01*
X120400Y213700D01*
Y214100D02*
X120000Y214900D01*
X120800D01*
X120400Y214100D01*
X150800Y204900D02*
X150000Y206500D01*
X151600D01*
X150800Y204900D01*
Y205300D02*
X150400Y206100D01*
X151200D01*
X150800Y205300D01*
X77630Y223470D02*
X76830Y225070D01*
X78430D01*
X77630Y223470D01*
Y223870D02*
X77230Y224670D01*
X78030D01*
X77630Y223870D01*
X96940Y223470D02*
X96140Y225070D01*
X97740D01*
X96940Y223470D01*
Y223870D02*
X96540Y224670D01*
X97340D01*
X96940Y223870D01*
X62030Y222070D02*
X61230Y223670D01*
X62830D01*
X62030Y222070D01*
Y222470D02*
X61630Y223270D01*
X62430D01*
X62030Y222470D01*
X54230Y220630D02*
X53430Y222230D01*
X55030D01*
X54230Y220630D01*
Y221030D02*
X53830Y221830D01*
X54630D01*
X54230Y221030D01*
X132200Y213700D02*
X131400Y215300D01*
X133000D01*
X132200Y213700D01*
Y214100D02*
X131800Y214900D01*
X132600D01*
X132200Y214100D01*
X135970Y223200D02*
X135170Y224800D01*
X136770D01*
X135970Y223200D01*
Y223600D02*
X135570Y224400D01*
X136370D01*
X135970Y223600D01*
X92200Y200500D02*
X91400Y202100D01*
X93000D01*
X92200Y200500D01*
Y200900D02*
X91800Y201700D01*
X92600D01*
X92200Y200900D01*
X92100Y207200D02*
X91300Y208800D01*
X92900D01*
X92100Y207200D01*
Y207600D02*
X91700Y208400D01*
X92500D01*
X92100Y207600D01*
X128200Y213700D02*
X127400Y215300D01*
X129000D01*
X128200Y213700D01*
Y214100D02*
X127800Y214900D01*
X128600D01*
X128200Y214100D01*
X140100Y222900D02*
X139300Y224500D01*
X140900D01*
X140100Y222900D01*
Y223300D02*
X139700Y224100D01*
X140500D01*
X140100Y223300D01*
X120400Y223100D02*
X119600Y224700D01*
X121200D01*
X120400Y223100D01*
Y223500D02*
X120000Y224300D01*
X120800D01*
X120400Y223500D01*
X186100Y191200D02*
X185300Y192800D01*
X186900D01*
X186100Y191200D01*
Y191600D02*
X185700Y192400D01*
X186500D01*
X186100Y191600D01*
X180400Y191200D02*
X179600Y192800D01*
X181200D01*
X180400Y191200D01*
Y191600D02*
X180000Y192400D01*
X180800D01*
X180400Y191600D01*
X191430Y197100D02*
X190630Y198700D01*
X192230D01*
X191430Y197100D01*
Y197500D02*
X191030Y198300D01*
X191830D01*
X191430Y197500D01*
X58100Y220700D02*
X57300Y222300D01*
X58900D01*
X58100Y220700D01*
Y221100D02*
X57700Y221900D01*
X58500D01*
X58100Y221100D01*
X88600Y207300D02*
X87800Y208900D01*
X89400D01*
X88600Y207300D01*
Y207700D02*
X88200Y208500D01*
X89000D01*
X88600Y207700D01*
X102100Y224100D02*
X101300Y225700D01*
X102900D01*
X102100Y224100D01*
Y224500D02*
X101700Y225300D01*
X102500D01*
X102100Y224500D01*
X109400Y170500D02*
X108600Y172100D01*
X110200D01*
X109400Y170500D01*
Y170900D02*
X109000Y171700D01*
X109800D01*
X109400Y170900D01*
X114600Y223400D02*
X113800Y225000D01*
X115400D01*
X114600Y223400D01*
Y223800D02*
X114200Y224600D01*
X115000D01*
X114600Y223800D01*
X117500Y223100D02*
X116700Y224700D01*
X118300D01*
X117500Y223100D01*
Y223500D02*
X117100Y224300D01*
X117900D01*
X117500Y223500D01*
X128200Y223200D02*
X127400Y224800D01*
X129000D01*
X128200Y223200D01*
Y223600D02*
X127800Y224400D01*
X128600D01*
X128200Y223600D01*
X124500Y223200D02*
X123700Y224800D01*
X125300D01*
X124500Y223200D01*
Y223600D02*
X124100Y224400D01*
X124900D01*
X124500Y223600D01*
X141600Y204200D02*
X140800Y205800D01*
X142400D01*
X141600Y204200D01*
Y204600D02*
X141200Y205400D01*
X142000D01*
X141600Y204600D01*
X150500Y211400D02*
X149700Y213000D01*
X151300D01*
X150500Y211400D01*
Y211800D02*
X150100Y212600D01*
X150900D01*
X150500Y211800D01*
X156100Y207900D02*
X155300Y209500D01*
X156900D01*
X156100Y207900D01*
Y208300D02*
X155700Y209100D01*
X156500D01*
X156100Y208300D01*
X153700Y216600D02*
X152900Y218200D01*
X154500D01*
X153700Y216600D01*
Y217000D02*
X153300Y217800D01*
X154100D01*
X153700Y217000D01*
X155100Y199200D02*
X154300Y200800D01*
X155900D01*
X155100Y199200D01*
Y199600D02*
X154700Y200400D01*
X155500D01*
X155100Y199600D01*
X28700Y98800D02*
X27900Y100400D01*
X29500D01*
X28700Y98800D01*
Y99200D02*
X28300Y100000D01*
X29100D01*
X28700Y99200D01*
X16200Y97800D02*
X15400Y99400D01*
X17000D01*
X16200Y97800D01*
Y98200D02*
X15800Y99000D01*
X16600D01*
X16200Y98200D01*
X61500Y47400D02*
X60700Y49000D01*
X62300D01*
X61500Y47400D01*
Y47800D02*
X61100Y48600D01*
X61900D01*
X61500Y47800D01*
X80300Y49800D02*
X79500Y51400D01*
X81100D01*
X80300Y49800D01*
Y50200D02*
X79900Y51000D01*
X80700D01*
X80300Y50200D01*
X82500Y49800D02*
X81700Y51400D01*
X83300D01*
X82500Y49800D01*
Y50200D02*
X82100Y51000D01*
X82900D01*
X82500Y50200D01*
X48800Y48700D02*
X48000Y50300D01*
X49600D01*
X48800Y48700D01*
Y49100D02*
X48400Y49900D01*
X49200D01*
X48800Y49100D01*
X74000Y83200D02*
X73200Y84800D01*
X74800D01*
X74000Y83200D01*
Y83600D02*
X73600Y84400D01*
X74400D01*
X74000Y83600D01*
X105800Y75200D02*
X105000Y76800D01*
X106600D01*
X105800Y75200D01*
Y75600D02*
X105400Y76400D01*
X106200D01*
X105800Y75600D01*
X106600Y72900D02*
X105800Y74500D01*
X107400D01*
X106600Y72900D01*
Y73300D02*
X106200Y74100D01*
X107000D01*
X106600Y73300D01*
X106400Y47500D02*
X105600Y49100D01*
X107200D01*
X106400Y47500D01*
Y47900D02*
X106000Y48700D01*
X106800D01*
X106400Y47900D01*
X127700Y49600D02*
X126900Y51200D01*
X128500D01*
X127700Y49600D01*
Y50000D02*
X127300Y50800D01*
X128100D01*
X127700Y50000D01*
X125338Y49600D02*
X124538Y51200D01*
X126138D01*
X125338Y49600D01*
Y50000D02*
X124938Y50800D01*
X125738D01*
X125338Y50000D01*
X153400Y103800D02*
X152600Y105400D01*
X154200D01*
X153400Y103800D01*
Y104200D02*
X153000Y105000D01*
X153800D01*
X153400Y104200D01*
X156100Y103800D02*
X155300Y105400D01*
X156900D01*
X156100Y103800D01*
Y104200D02*
X155700Y105000D01*
X156500D01*
X156100Y104200D01*
X97300Y48000D02*
X96500Y49600D01*
X98100D01*
X97300Y48000D01*
Y48400D02*
X96900Y49200D01*
X97700D01*
X97300Y48400D01*
X95800Y35200D02*
X95000Y36800D01*
X96600D01*
X95800Y35200D01*
Y35600D02*
X95400Y36400D01*
X96200D01*
X95800Y35600D01*
X129200Y61900D02*
X128400Y63500D01*
X130000D01*
X129200Y61900D01*
Y62300D02*
X128800Y63100D01*
X129600D01*
X129200Y62300D01*
X132100Y83600D02*
X131300Y85200D01*
X132900D01*
X132100Y83600D01*
Y84000D02*
X131700Y84800D01*
X132500D01*
X132100Y84000D01*
X80700Y98700D02*
X79900Y100300D01*
X81500D01*
X80700Y98700D01*
Y99100D02*
X80300Y99900D01*
X81100D01*
X80700Y99100D01*
X83900Y98700D02*
X83100Y100300D01*
X84700D01*
X83900Y98700D01*
Y99100D02*
X83500Y99900D01*
X84300D01*
X83900Y99100D01*
X29000Y101800D02*
X28200Y103400D01*
X29800D01*
X29000Y101800D01*
Y102200D02*
X28600Y103000D01*
X29400D01*
X29000Y102200D01*
Y104400D02*
X28200Y106000D01*
X29800D01*
X29000Y104400D01*
Y104800D02*
X28600Y105600D01*
X29400D01*
X29000Y104800D01*
X126600Y113700D02*
X125800Y115300D01*
X127400D01*
X126600Y113700D01*
Y114100D02*
X126200Y114900D01*
X127000D01*
X126600Y114100D01*
X131500Y103500D02*
X130700Y105100D01*
X132300D01*
X131500Y103500D01*
Y103900D02*
X131100Y104700D01*
X131900D01*
X131500Y103900D01*
X134500Y103500D02*
X133700Y105100D01*
X135300D01*
X134500Y103500D01*
Y103900D02*
X134100Y104700D01*
X134900D01*
X134500Y103900D01*
G54D267*
X39084Y148568D02*
X38532Y149329D01*
X37637Y149039D01*
Y148098D01*
X38532Y147808D01*
X39084Y148568D01*
Y158490D02*
X38532Y159250D01*
X37637Y158960D01*
Y158019D01*
X38532Y157729D01*
X39084Y158490D01*
X46984D02*
X46431Y159250D01*
X45537Y158960D01*
Y158019D01*
X46431Y157729D01*
X46984Y158490D01*
Y148568D02*
X46431Y149329D01*
X45537Y149039D01*
Y148098D01*
X46431Y147808D01*
X46984Y148568D01*
X79353Y208356D02*
X78800Y209117D01*
X77905Y208826D01*
Y207886D01*
X78800Y207595D01*
X79353Y208356D01*
Y198356D02*
X78800Y199117D01*
X77905Y198826D01*
Y197886D01*
X78800Y197595D01*
X79353Y198356D01*
X69353Y208356D02*
X68800Y209117D01*
X67905Y208826D01*
Y207886D01*
X68800Y207595D01*
X69353Y208356D01*
Y198356D02*
X68800Y199117D01*
X67905Y198826D01*
Y197886D01*
X68800Y197595D01*
X69353Y198356D01*
X59353Y208356D02*
X58800Y209117D01*
X57906Y208826D01*
Y207886D01*
X58800Y207595D01*
X59353Y208356D01*
Y198356D02*
X58800Y199117D01*
X57906Y198826D01*
Y197886D01*
X58800Y197595D01*
X59353Y198356D01*
X136613Y208356D02*
X136060Y209117D01*
X135165Y208826D01*
Y207886D01*
X136060Y207595D01*
X136613Y208356D01*
Y198356D02*
X136060Y199117D01*
X135165Y198826D01*
Y197886D01*
X136060Y197595D01*
X136613Y198356D01*
X126613Y208356D02*
X126060Y209117D01*
X125165Y208826D01*
Y207886D01*
X126060Y207595D01*
X126613Y208356D01*
Y198356D02*
X126060Y199117D01*
X125165Y198826D01*
Y197886D01*
X126060Y197595D01*
X126613Y198356D01*
X116613Y208356D02*
X116060Y209117D01*
X115165Y208826D01*
Y207886D01*
X116060Y207595D01*
X116613Y208356D01*
Y198356D02*
X116060Y199117D01*
X115165Y198826D01*
Y197886D01*
X116060Y197595D01*
X116613Y198356D01*
X394526Y9710D02*
X393973Y10471D01*
X393079Y10180D01*
Y9240D01*
X393973Y8949D01*
X394526Y9710D01*
Y29710D02*
X393973Y30471D01*
X393079Y30180D01*
Y29240D01*
X393973Y28949D01*
X394526Y29710D01*
X404526Y19710D02*
X403973Y20471D01*
X403079Y20180D01*
Y19240D01*
X403973Y18949D01*
X404526Y19710D01*
X384526D02*
X383973Y20471D01*
X383079Y20180D01*
Y19240D01*
X383973Y18949D01*
X384526Y19710D01*
X387526Y26710D02*
X386973Y27471D01*
X386079Y27180D01*
Y26240D01*
X386973Y25949D01*
X387526Y26710D01*
X401526D02*
X400973Y27471D01*
X400079Y27180D01*
Y26240D01*
X400973Y25949D01*
X401526Y26710D01*
Y12710D02*
X400973Y13471D01*
X400079Y13180D01*
Y12240D01*
X400973Y11949D01*
X401526Y12710D01*
X387526D02*
X386973Y13471D01*
X386079Y13180D01*
Y12240D01*
X386973Y11949D01*
X387526Y12710D01*
X394526Y249868D02*
X393973Y250628D01*
X393079Y250338D01*
Y249397D01*
X393973Y249107D01*
X394526Y249868D01*
Y269868D02*
X393973Y270628D01*
X393079Y270338D01*
Y269397D01*
X393973Y269107D01*
X394526Y269868D01*
X404526Y259868D02*
X403973Y260629D01*
X403079Y260338D01*
Y259398D01*
X403973Y259107D01*
X404526Y259868D01*
X384526D02*
X383973Y260629D01*
X383079Y260338D01*
Y259398D01*
X383973Y259107D01*
X384526Y259868D01*
X387526Y266868D02*
X386973Y267629D01*
X386079Y267338D01*
Y266398D01*
X386973Y266107D01*
X387526Y266868D01*
X401526D02*
X400973Y267629D01*
X400079Y267338D01*
Y266398D01*
X400973Y266107D01*
X401526Y266868D01*
Y252868D02*
X400973Y253628D01*
X400079Y253338D01*
Y252397D01*
X400973Y252107D01*
X401526Y252868D01*
X387526D02*
X386973Y253628D01*
X386079Y253338D01*
Y252397D01*
X386973Y252107D01*
X387526Y252868D01*
X20510Y249868D02*
X19957Y250628D01*
X19063Y250338D01*
Y249397D01*
X19957Y249107D01*
X20510Y249868D01*
Y269868D02*
X19957Y270628D01*
X19063Y270338D01*
Y269397D01*
X19957Y269107D01*
X20510Y269868D01*
X30510Y259868D02*
X29957Y260629D01*
X29063Y260338D01*
Y259398D01*
X29957Y259107D01*
X30510Y259868D01*
X10510D02*
X9957Y260629D01*
X9063Y260338D01*
Y259398D01*
X9957Y259107D01*
X10510Y259868D01*
X13510Y266868D02*
X12957Y267629D01*
X12063Y267338D01*
Y266398D01*
X12957Y266107D01*
X13510Y266868D01*
X27510D02*
X26957Y267629D01*
X26063Y267338D01*
Y266398D01*
X26957Y266107D01*
X27510Y266868D01*
Y252868D02*
X26957Y253628D01*
X26063Y253338D01*
Y252397D01*
X26957Y252107D01*
X27510Y252868D01*
X13510D02*
X12957Y253628D01*
X12063Y253338D01*
Y252397D01*
X12957Y252107D01*
X13510Y252868D01*
X20510Y9710D02*
X19957Y10471D01*
X19063Y10180D01*
Y9240D01*
X19957Y8949D01*
X20510Y9710D01*
Y29710D02*
X19957Y30471D01*
X19063Y30180D01*
Y29240D01*
X19957Y28949D01*
X20510Y29710D01*
X30510Y19710D02*
X29957Y20471D01*
X29063Y20180D01*
Y19240D01*
X29957Y18949D01*
X30510Y19710D01*
X10510D02*
X9957Y20471D01*
X9063Y20180D01*
Y19240D01*
X9957Y18949D01*
X10510Y19710D01*
X13510Y26710D02*
X12957Y27471D01*
X12063Y27180D01*
Y26240D01*
X12957Y25949D01*
X13510Y26710D01*
X27510D02*
X26957Y27471D01*
X26063Y27180D01*
Y26240D01*
X26957Y25949D01*
X27510Y26710D01*
Y12710D02*
X26957Y13471D01*
X26063Y13180D01*
Y12240D01*
X26957Y11949D01*
X27510Y12710D01*
X13510D02*
X12957Y13471D01*
X12063Y13180D01*
Y12240D01*
X12957Y11949D01*
X13510Y12710D01*
X315013Y190877D02*
X314461Y191638D01*
X313566Y191347D01*
Y190407D01*
X314461Y190116D01*
X315013Y190877D01*
Y194877D02*
X314461Y195638D01*
X313566Y195347D01*
Y194407D01*
X314461Y194116D01*
X315013Y194877D01*
Y186877D02*
X314461Y187638D01*
X313566Y187347D01*
Y186407D01*
X314461Y186116D01*
X315013Y186877D01*
Y182877D02*
X314461Y183638D01*
X313566Y183347D01*
Y182407D01*
X314461Y182116D01*
X315013Y182877D01*
X311013D02*
X310461Y183638D01*
X309566Y183347D01*
Y182407D01*
X310461Y182116D01*
X311013Y182877D01*
X307013D02*
X306461Y183638D01*
X305566Y183347D01*
Y182407D01*
X306461Y182116D01*
X307013Y182877D01*
Y186877D02*
X306461Y187638D01*
X305566Y187347D01*
Y186407D01*
X306461Y186116D01*
X307013Y186877D01*
X311013D02*
X310461Y187638D01*
X309566Y187347D01*
Y186407D01*
X310461Y186116D01*
X311013Y186877D01*
Y190877D02*
X310461Y191638D01*
X309566Y191347D01*
Y190407D01*
X310461Y190116D01*
X311013Y190877D01*
X307013D02*
X306461Y191638D01*
X305566Y191347D01*
Y190407D01*
X306461Y190116D01*
X307013Y190877D01*
Y194877D02*
X306461Y195638D01*
X305566Y195347D01*
Y194407D01*
X306461Y194116D01*
X307013Y194877D01*
X311013D02*
X310461Y195638D01*
X309566Y195347D01*
Y194407D01*
X310461Y194116D01*
X311013Y194877D01*
X319013D02*
X318461Y195638D01*
X317566Y195347D01*
Y194407D01*
X318461Y194116D01*
X319013Y194877D01*
X323013D02*
X322461Y195638D01*
X321566Y195347D01*
Y194407D01*
X322461Y194116D01*
X323013Y194877D01*
Y190877D02*
X322461Y191638D01*
X321566Y191347D01*
Y190407D01*
X322461Y190116D01*
X323013Y190877D01*
X319013D02*
X318461Y191638D01*
X317566Y191347D01*
Y190407D01*
X318461Y190116D01*
X319013Y190877D01*
Y186877D02*
X318461Y187638D01*
X317566Y187347D01*
Y186407D01*
X318461Y186116D01*
X319013Y186877D01*
X323013D02*
X322461Y187638D01*
X321566Y187347D01*
Y186407D01*
X322461Y186116D01*
X323013Y186877D01*
Y182877D02*
X322461Y183638D01*
X321566Y183347D01*
Y182407D01*
X322461Y182116D01*
X323013Y182877D01*
X319013D02*
X318461Y183638D01*
X317566Y183347D01*
Y182407D01*
X318461Y182116D01*
X319013Y182877D01*
X274481Y50768D02*
X273928Y51529D01*
X273034Y51238D01*
Y50297D01*
X273928Y50007D01*
X274481Y50768D01*
X270481D02*
X269928Y51529D01*
X269034Y51238D01*
Y50297D01*
X269928Y50007D01*
X270481Y50768D01*
X278481D02*
X277928Y51529D01*
X277034Y51238D01*
Y50297D01*
X277928Y50007D01*
X278481Y50768D01*
X282481D02*
X281928Y51529D01*
X281034Y51238D01*
Y50297D01*
X281928Y50007D01*
X282481Y50768D01*
Y46768D02*
X281928Y47529D01*
X281034Y47238D01*
Y46297D01*
X281928Y46007D01*
X282481Y46768D01*
Y42768D02*
X281928Y43529D01*
X281034Y43238D01*
Y42298D01*
X281928Y42007D01*
X282481Y42768D01*
X278481D02*
X277928Y43529D01*
X277034Y43238D01*
Y42298D01*
X277928Y42007D01*
X278481Y42768D01*
Y46768D02*
X277928Y47529D01*
X277034Y47238D01*
Y46297D01*
X277928Y46007D01*
X278481Y46768D01*
X274481D02*
X273928Y47529D01*
X273034Y47238D01*
Y46297D01*
X273928Y46007D01*
X274481Y46768D01*
Y42768D02*
X273928Y43529D01*
X273034Y43238D01*
Y42298D01*
X273928Y42007D01*
X274481Y42768D01*
X270481D02*
X269928Y43529D01*
X269034Y43238D01*
Y42298D01*
X269928Y42007D01*
X270481Y42768D01*
Y46768D02*
X269928Y47529D01*
X269034Y47238D01*
Y46297D01*
X269928Y46007D01*
X270481Y46768D01*
Y54768D02*
X269928Y55528D01*
X269034Y55238D01*
Y54298D01*
X269928Y54007D01*
X270481Y54768D01*
Y58768D02*
X269928Y59528D01*
X269034Y59238D01*
Y58297D01*
X269928Y58007D01*
X270481Y58768D01*
X274481D02*
X273928Y59528D01*
X273034Y59238D01*
Y58297D01*
X273928Y58007D01*
X274481Y58768D01*
Y54768D02*
X273928Y55528D01*
X273034Y55238D01*
Y54298D01*
X273928Y54007D01*
X274481Y54768D01*
X278481D02*
X277928Y55528D01*
X277034Y55238D01*
Y54298D01*
X277928Y54007D01*
X278481Y54768D01*
Y58768D02*
X277928Y59528D01*
X277034Y59238D01*
Y58297D01*
X277928Y58007D01*
X278481Y58768D01*
X282481D02*
X281928Y59528D01*
X281034Y59238D01*
Y58297D01*
X281928Y58007D01*
X282481Y58768D01*
Y54768D02*
X281928Y55528D01*
X281034Y55238D01*
Y54298D01*
X281928Y54007D01*
X282481Y54768D01*
X328200Y263700D02*
X327647Y264461D01*
X326753Y264170D01*
Y263230D01*
X327647Y262939D01*
X328200Y263700D01*
X320900Y255600D02*
X320347Y256361D01*
X319453Y256070D01*
Y255130D01*
X320347Y254839D01*
X320900Y255600D01*
Y263000D02*
X320347Y263761D01*
X319453Y263470D01*
Y262530D01*
X320347Y262239D01*
X320900Y263000D01*
Y259300D02*
X320347Y260061D01*
X319453Y259770D01*
Y258830D01*
X320347Y258539D01*
X320900Y259300D01*
X205600Y114900D02*
X205047Y115661D01*
X204153Y115370D01*
Y114430D01*
X205047Y114139D01*
X205600Y114900D01*
X51900Y189500D02*
X51347Y190261D01*
X50453Y189970D01*
Y189030D01*
X51347Y188739D01*
X51900Y189500D01*
X45900D02*
X45347Y190261D01*
X44453Y189970D01*
Y189030D01*
X45347Y188739D01*
X45900Y189500D01*
X36600Y198100D02*
X36047Y198861D01*
X35153Y198570D01*
Y197630D01*
X36047Y197339D01*
X36600Y198100D01*
X38817Y195500D02*
X38265Y196261D01*
X37370Y195970D01*
Y195030D01*
X38265Y194739D01*
X38817Y195500D01*
X52300Y135500D02*
X51747Y136261D01*
X50853Y135970D01*
Y135030D01*
X51747Y134739D01*
X52300Y135500D01*
X69400Y131200D02*
X68847Y131961D01*
X67953Y131670D01*
Y130730D01*
X68847Y130439D01*
X69400Y131200D01*
Y128000D02*
X68847Y128761D01*
X67953Y128470D01*
Y127530D01*
X68847Y127239D01*
X69400Y128000D01*
X52400Y128100D02*
X51847Y128861D01*
X50953Y128570D01*
Y127630D01*
X51847Y127339D01*
X52400Y128100D01*
Y131300D02*
X51847Y132061D01*
X50953Y131770D01*
Y130830D01*
X51847Y130539D01*
X52400Y131300D01*
X84140Y176340D02*
X83587Y177101D01*
X82693Y176810D01*
Y175870D01*
X83587Y175579D01*
X84140Y176340D01*
Y172600D02*
X83587Y173361D01*
X82693Y173070D01*
Y172130D01*
X83587Y171839D01*
X84140Y172600D01*
Y168860D02*
X83587Y169621D01*
X82693Y169330D01*
Y168390D01*
X83587Y168099D01*
X84140Y168860D01*
X80400D02*
X79847Y169621D01*
X78953Y169330D01*
Y168390D01*
X79847Y168099D01*
X80400Y168860D01*
X76660Y168761D02*
X76107Y169522D01*
X75213Y169232D01*
Y168291D01*
X76107Y168001D01*
X76660Y168761D01*
X76679Y172600D02*
X76127Y173361D01*
X75232Y173070D01*
Y172130D01*
X76127Y171839D01*
X76679Y172600D01*
X76631Y176376D02*
X76079Y177137D01*
X75184Y176846D01*
Y175906D01*
X76079Y175615D01*
X76631Y176376D01*
X80400Y176340D02*
X79847Y177101D01*
X78953Y176810D01*
Y175870D01*
X79847Y175579D01*
X80400Y176340D01*
Y172600D02*
X79847Y173361D01*
X78953Y173070D01*
Y172130D01*
X79847Y171839D01*
X80400Y172600D01*
X78600Y148500D02*
X78047Y149261D01*
X77153Y148970D01*
Y148030D01*
X78047Y147739D01*
X78600Y148500D01*
X65800Y161500D02*
X65247Y162261D01*
X64353Y161970D01*
Y161030D01*
X65247Y160739D01*
X65800Y161500D01*
X120600Y167600D02*
X120047Y168361D01*
X119153Y168070D01*
Y167130D01*
X120047Y166839D01*
X120600Y167600D01*
X148400Y274600D02*
X147847Y275361D01*
X146953Y275070D01*
Y274130D01*
X147847Y273839D01*
X148400Y274600D01*
X277600Y273000D02*
X277047Y273761D01*
X276153Y273470D01*
Y272530D01*
X277047Y272239D01*
X277600Y273000D01*
X292900Y184300D02*
X292347Y185061D01*
X291453Y184770D01*
Y183830D01*
X292347Y183539D01*
X292900Y184300D01*
X285200Y185400D02*
X284647Y186161D01*
X283753Y185870D01*
Y184930D01*
X284647Y184639D01*
X285200Y185400D01*
X286500Y142800D02*
X285947Y143561D01*
X285053Y143270D01*
Y142330D01*
X285947Y142039D01*
X286500Y142800D01*
X280700D02*
X280147Y143561D01*
X279253Y143270D01*
Y142330D01*
X280147Y142039D01*
X280700Y142800D01*
X222700Y132600D02*
X222147Y133361D01*
X221253Y133070D01*
Y132130D01*
X222147Y131839D01*
X222700Y132600D01*
X223800Y149500D02*
X223247Y150261D01*
X222353Y149970D01*
Y149030D01*
X223247Y148739D01*
X223800Y149500D01*
X221600Y136900D02*
X221047Y137661D01*
X220153Y137370D01*
Y136430D01*
X221047Y136139D01*
X221600Y136900D01*
X222700Y128000D02*
X222147Y128761D01*
X221253Y128470D01*
Y127530D01*
X222147Y127239D01*
X222700Y128000D01*
X219300Y167600D02*
X218747Y168361D01*
X217853Y168070D01*
Y167130D01*
X218747Y166839D01*
X219300Y167600D01*
X291800Y134000D02*
X291247Y134761D01*
X290353Y134470D01*
Y133530D01*
X291247Y133239D01*
X291800Y134000D01*
X274900Y156900D02*
X274347Y157661D01*
X273453Y157370D01*
Y156430D01*
X274347Y156139D01*
X274900Y156900D01*
X311300Y146100D02*
X310747Y146861D01*
X309853Y146570D01*
Y145630D01*
X310747Y145339D01*
X311300Y146100D01*
X306300D02*
X305747Y146861D01*
X304853Y146570D01*
Y145630D01*
X305747Y145339D01*
X306300Y146100D01*
X323500Y164700D02*
X322947Y165461D01*
X322053Y165170D01*
Y164230D01*
X322947Y163939D01*
X323500Y164700D01*
X226200Y180600D02*
X225647Y181361D01*
X224753Y181070D01*
Y180130D01*
X225647Y179839D01*
X226200Y180600D01*
X201000Y141600D02*
X200447Y142361D01*
X199553Y142070D01*
Y141130D01*
X200447Y140839D01*
X201000Y141600D01*
X205600Y129900D02*
X205047Y130661D01*
X204153Y130370D01*
Y129430D01*
X205047Y129139D01*
X205600Y129900D01*
X218000Y114000D02*
X217447Y114761D01*
X216553Y114470D01*
Y113530D01*
X217447Y113239D01*
X218000Y114000D01*
X274400Y197600D02*
X273847Y198361D01*
X272953Y198070D01*
Y197130D01*
X273847Y196839D01*
X274400Y197600D01*
X273900Y211800D02*
X273347Y212561D01*
X272453Y212270D01*
Y211330D01*
X273347Y211039D01*
X273900Y211800D01*
X316900Y224900D02*
X316347Y225661D01*
X315453Y225370D01*
Y224430D01*
X316347Y224139D01*
X316900Y224900D01*
Y228200D02*
X316347Y228961D01*
X315453Y228670D01*
Y227730D01*
X316347Y227439D01*
X316900Y228200D01*
Y231500D02*
X316347Y232261D01*
X315453Y231970D01*
Y231030D01*
X316347Y230739D01*
X316900Y231500D01*
X313100Y225400D02*
X312547Y226161D01*
X311653Y225870D01*
Y224930D01*
X312547Y224639D01*
X313100Y225400D01*
Y229900D02*
X312547Y230661D01*
X311653Y230370D01*
Y229430D01*
X312547Y229139D01*
X313100Y229900D01*
X297600Y225300D02*
X297047Y226061D01*
X296153Y225770D01*
Y224830D01*
X297047Y224539D01*
X297600Y225300D01*
Y230000D02*
X297047Y230761D01*
X296153Y230470D01*
Y229530D01*
X297047Y229239D01*
X297600Y230000D01*
X295100Y227600D02*
X294547Y228361D01*
X293653Y228070D01*
Y227130D01*
X294547Y226839D01*
X295100Y227600D01*
X173575Y196060D02*
X173022Y196821D01*
X172127Y196530D01*
Y195590D01*
X173022Y195299D01*
X173575Y196060D01*
X205800Y135600D02*
X205247Y136361D01*
X204353Y136070D01*
Y135130D01*
X205247Y134839D01*
X205800Y135600D01*
X120600Y143500D02*
X120047Y144261D01*
X119153Y143970D01*
Y143030D01*
X120047Y142739D01*
X120600Y143500D01*
X172400Y215500D02*
X171847Y216261D01*
X170953Y215970D01*
Y215030D01*
X171847Y214739D01*
X172400Y215500D01*
X303202Y177291D02*
X302650Y178051D01*
X301755Y177761D01*
Y176820D01*
X302650Y176530D01*
X303202Y177291D01*
X251000Y109700D02*
X250447Y110461D01*
X249553Y110170D01*
Y109230D01*
X250447Y108939D01*
X251000Y109700D01*
X248700Y95700D02*
X248147Y96461D01*
X247253Y96170D01*
Y95230D01*
X248147Y94939D01*
X248700Y95700D01*
X241900Y98800D02*
X241347Y99561D01*
X240453Y99270D01*
Y98330D01*
X241347Y98039D01*
X241900Y98800D01*
X243600Y222800D02*
X243047Y223561D01*
X242153Y223270D01*
Y222330D01*
X243047Y222039D01*
X243600Y222800D01*
X231700Y271500D02*
X231147Y272261D01*
X230253Y271970D01*
Y271030D01*
X231147Y270739D01*
X231700Y271500D01*
X119100D02*
X118547Y272261D01*
X117653Y271970D01*
Y271030D01*
X118547Y270739D01*
X119100Y271500D01*
X402400Y205700D02*
X401847Y206461D01*
X400953Y206170D01*
Y205230D01*
X401847Y204939D01*
X402400Y205700D01*
X402600Y175400D02*
X402047Y176161D01*
X401153Y175870D01*
Y174930D01*
X402047Y174639D01*
X402600Y175400D01*
X317600Y52200D02*
X317047Y52961D01*
X316153Y52670D01*
Y51730D01*
X317047Y51439D01*
X317600Y52200D01*
X263900Y53300D02*
X263347Y54061D01*
X262453Y53770D01*
Y52830D01*
X263347Y52539D01*
X263900Y53300D01*
X257700Y66400D02*
X257147Y67161D01*
X256253Y66870D01*
Y65930D01*
X257147Y65639D01*
X257700Y66400D01*
X247900D02*
X247347Y67161D01*
X246453Y66870D01*
Y65930D01*
X247347Y65639D01*
X247900Y66400D01*
X356800Y92300D02*
X356247Y93061D01*
X355353Y92770D01*
Y91830D01*
X356247Y91539D01*
X356800Y92300D01*
X366200Y99800D02*
X365647Y100561D01*
X364753Y100270D01*
Y99330D01*
X365647Y99039D01*
X366200Y99800D01*
X375800Y91200D02*
X375247Y91961D01*
X374353Y91670D01*
Y90730D01*
X375247Y90439D01*
X375800Y91200D01*
X375200Y156000D02*
X374647Y156761D01*
X373753Y156470D01*
Y155530D01*
X374647Y155239D01*
X375200Y156000D01*
X366100Y146800D02*
X365547Y147561D01*
X364653Y147270D01*
Y146330D01*
X365547Y146039D01*
X366100Y146800D01*
X357000Y156100D02*
X356447Y156861D01*
X355553Y156570D01*
Y155630D01*
X356447Y155339D01*
X357000Y156100D01*
X366100Y230800D02*
X365547Y231561D01*
X364653Y231270D01*
Y230330D01*
X365547Y230039D01*
X366100Y230800D01*
X357100Y221000D02*
X356547Y221761D01*
X355653Y221470D01*
Y220530D01*
X356547Y220239D01*
X357100Y221000D01*
X366100Y211200D02*
X365547Y211961D01*
X364653Y211670D01*
Y210730D01*
X365547Y210439D01*
X366100Y211200D01*
X347900Y226800D02*
X347347Y227561D01*
X346453Y227270D01*
Y226330D01*
X347347Y226039D01*
X347900Y226800D01*
X323200Y115646D02*
X322647Y116407D01*
X321753Y116116D01*
Y115175D01*
X322647Y114885D01*
X323200Y115646D01*
X263300Y39500D02*
X262747Y40261D01*
X261853Y39970D01*
Y39030D01*
X262747Y38739D01*
X263300Y39500D01*
X254100Y39472D02*
X253547Y40233D01*
X252653Y39943D01*
Y39002D01*
X253547Y38712D01*
X254100Y39472D01*
Y34200D02*
X253547Y34961D01*
X252653Y34670D01*
Y33730D01*
X253547Y33439D01*
X254100Y34200D01*
X263300D02*
X262747Y34961D01*
X261853Y34670D01*
Y33730D01*
X262747Y33439D01*
X263300Y34200D01*
X254100Y29000D02*
X253547Y29761D01*
X252653Y29470D01*
Y28530D01*
X253547Y28239D01*
X254100Y29000D01*
X263300D02*
X262747Y29761D01*
X261853Y29470D01*
Y28530D01*
X262747Y28239D01*
X263300Y29000D01*
X298100Y14200D02*
X297547Y14961D01*
X296653Y14670D01*
Y13730D01*
X297547Y13439D01*
X298100Y14200D01*
X293600Y8400D02*
X293047Y9161D01*
X292153Y8870D01*
Y7930D01*
X293047Y7639D01*
X293600Y8400D01*
X288800D02*
X288247Y9161D01*
X287353Y8870D01*
Y7930D01*
X288247Y7639D01*
X288800Y8400D01*
X298100Y18500D02*
X297547Y19261D01*
X296653Y18970D01*
Y18030D01*
X297547Y17739D01*
X298100Y18500D01*
Y10000D02*
X297547Y10761D01*
X296653Y10470D01*
Y9530D01*
X297547Y9239D01*
X298100Y10000D01*
X257400Y56100D02*
X256847Y56861D01*
X255953Y56570D01*
Y55630D01*
X256847Y55339D01*
X257400Y56100D01*
X248200D02*
X247647Y56861D01*
X246753Y56570D01*
Y55630D01*
X247647Y55339D01*
X248200Y56100D01*
Y51000D02*
X247647Y51761D01*
X246753Y51470D01*
Y50530D01*
X247647Y50239D01*
X248200Y51000D01*
X257400D02*
X256847Y51761D01*
X255953Y51470D01*
Y50530D01*
X256847Y50239D01*
X257400Y51000D01*
X248200Y45800D02*
X247647Y46561D01*
X246753Y46270D01*
Y45330D01*
X247647Y45039D01*
X248200Y45800D01*
X257400D02*
X256847Y46561D01*
X255953Y46270D01*
Y45330D01*
X256847Y45039D01*
X257400Y45800D01*
X263300Y19000D02*
X262747Y19761D01*
X261853Y19470D01*
Y18530D01*
X262747Y18239D01*
X263300Y19000D01*
X254100D02*
X253547Y19761D01*
X252653Y19470D01*
Y18530D01*
X253547Y18239D01*
X254100Y19000D01*
Y13800D02*
X253547Y14561D01*
X252653Y14270D01*
Y13330D01*
X253547Y13039D01*
X254100Y13800D01*
X263300Y13900D02*
X262747Y14661D01*
X261853Y14370D01*
Y13430D01*
X262747Y13139D01*
X263300Y13900D01*
X254100Y8700D02*
X253547Y9461D01*
X252653Y9170D01*
Y8230D01*
X253547Y7939D01*
X254100Y8700D01*
X263300D02*
X262747Y9461D01*
X261853Y9170D01*
Y8230D01*
X262747Y7939D01*
X263300Y8700D01*
X277800D02*
X277247Y9461D01*
X276353Y9170D01*
Y8230D01*
X277247Y7939D01*
X277800Y8700D01*
X327700Y41700D02*
X327147Y42461D01*
X326253Y42170D01*
Y41230D01*
X327147Y40939D01*
X327700Y41700D01*
X295800Y53200D02*
X295247Y53961D01*
X294353Y53670D01*
Y52730D01*
X295247Y52439D01*
X295800Y53200D01*
X113731Y121069D02*
X113178Y121830D01*
X112284Y121539D01*
Y120599D01*
X113178Y120308D01*
X113731Y121069D01*
X17656Y181029D02*
X17103Y181790D01*
X16209Y181499D01*
Y180559D01*
X17103Y180268D01*
X17656Y181029D01*
X10176Y120301D02*
X9623Y121062D01*
X8728Y120771D01*
Y119831D01*
X9623Y119540D01*
X10176Y120301D01*
X47085Y207604D02*
X46532Y208365D01*
X45638Y208074D01*
Y207134D01*
X46532Y206843D01*
X47085Y207604D01*
X62000Y161500D02*
X61447Y162261D01*
X60553Y161970D01*
Y161030D01*
X61447Y160739D01*
X62000Y161500D01*
X301300Y194900D02*
X300747Y195661D01*
X299853Y195370D01*
Y194430D01*
X300747Y194139D01*
X301300Y194900D01*
X231239Y249632D02*
X230686Y250392D01*
X229791Y250102D01*
Y249161D01*
X230686Y248871D01*
X231239Y249632D01*
X49600Y173100D02*
X49047Y173861D01*
X48153Y173570D01*
Y172630D01*
X49047Y172339D01*
X49600Y173100D01*
X52400Y165900D02*
X51847Y166661D01*
X50953Y166370D01*
Y165430D01*
X51847Y165139D01*
X52400Y165900D01*
X82617Y142939D02*
X82064Y143699D01*
X81169Y143409D01*
Y142468D01*
X82064Y142178D01*
X82617Y142939D01*
X82715Y139002D02*
X82162Y139762D01*
X81268Y139472D01*
Y138531D01*
X82162Y138241D01*
X82715Y139002D01*
X76800Y156000D02*
X76247Y156761D01*
X75353Y156470D01*
Y155530D01*
X76247Y155239D01*
X76800Y156000D01*
X316400Y146100D02*
X315847Y146861D01*
X314953Y146570D01*
Y145630D01*
X315847Y145339D01*
X316400Y146100D01*
X210500Y172700D02*
X209947Y173461D01*
X209053Y173170D01*
Y172230D01*
X209947Y171939D01*
X210500Y172700D01*
X211849Y168529D02*
X211296Y169290D01*
X210402Y168999D01*
Y168059D01*
X211296Y167768D01*
X211849Y168529D01*
X167400Y115900D02*
X166847Y116661D01*
X165953Y116370D01*
Y115430D01*
X166847Y115139D01*
X167400Y115900D01*
X125300Y163200D02*
X124747Y163961D01*
X123853Y163670D01*
Y162730D01*
X124747Y162439D01*
X125300Y163200D01*
X109799Y149514D02*
X109246Y150275D01*
X108352Y149984D01*
Y149044D01*
X109246Y148753D01*
X109799Y149514D01*
X56500Y146000D02*
X55947Y146761D01*
X55053Y146470D01*
Y145530D01*
X55947Y145239D01*
X56500Y146000D01*
X210300Y177800D02*
X209747Y178561D01*
X208853Y178270D01*
Y177330D01*
X209747Y177039D01*
X210300Y177800D01*
X93640Y173647D02*
X93087Y174408D01*
X92193Y174118D01*
Y173177D01*
X93087Y172886D01*
X93640Y173647D01*
X62100Y179900D02*
X61547Y180661D01*
X60653Y180370D01*
Y179430D01*
X61547Y179139D01*
X62100Y179900D01*
X51219Y207505D02*
X50666Y208266D01*
X49772Y207976D01*
Y207035D01*
X50666Y206745D01*
X51219Y207505D01*
X82813Y121876D02*
X82261Y122636D01*
X81366Y122346D01*
Y121405D01*
X82261Y121115D01*
X82813Y121876D01*
Y125714D02*
X82261Y126475D01*
X81366Y126184D01*
Y125244D01*
X82261Y124953D01*
X82813Y125714D01*
X97170Y186316D02*
X96617Y187077D01*
X95723Y186786D01*
Y185846D01*
X96617Y185555D01*
X97170Y186316D01*
X86160Y196088D02*
X85607Y196849D01*
X84713Y196558D01*
Y195618D01*
X85607Y195327D01*
X86160Y196088D01*
X125700Y172600D02*
X125147Y173361D01*
X124253Y173070D01*
Y172130D01*
X125147Y171839D01*
X125700Y172600D01*
X57100Y153500D02*
X56547Y154261D01*
X55653Y153970D01*
Y153030D01*
X56547Y152739D01*
X57100Y153500D01*
X61900Y135600D02*
X61347Y136361D01*
X60453Y136070D01*
Y135130D01*
X61347Y134839D01*
X61900Y135600D01*
X83502Y193332D02*
X82950Y194093D01*
X82055Y193802D01*
Y192862D01*
X82950Y192571D01*
X83502Y193332D01*
X347900Y258700D02*
X347347Y259461D01*
X346453Y259170D01*
Y258230D01*
X347347Y257939D01*
X347900Y258700D01*
X329500Y260200D02*
X328947Y260961D01*
X328053Y260670D01*
Y259730D01*
X328947Y259439D01*
X329500Y260200D01*
X333500D02*
X332947Y260961D01*
X332053Y260670D01*
Y259730D01*
X332947Y259439D01*
X333500Y260200D01*
X347900Y242750D02*
X347347Y243511D01*
X346453Y243220D01*
Y242280D01*
X347347Y241989D01*
X347900Y242750D01*
X344200Y270900D02*
X343647Y271661D01*
X342753Y271370D01*
Y270430D01*
X343647Y270139D01*
X344200Y270900D01*
X325350D02*
X324797Y271661D01*
X323903Y271370D01*
Y270430D01*
X324797Y270139D01*
X325350Y270900D01*
X306500D02*
X305947Y271661D01*
X305053Y271370D01*
Y270430D01*
X305947Y270139D01*
X306500Y270900D01*
X287650D02*
X287097Y271661D01*
X286203Y271370D01*
Y270430D01*
X287097Y270139D01*
X287650Y270900D01*
X295800Y43200D02*
X295247Y43961D01*
X294353Y43670D01*
Y42730D01*
X295247Y42439D01*
X295800Y43200D01*
Y48200D02*
X295247Y48961D01*
X294353Y48670D01*
Y47730D01*
X295247Y47439D01*
X295800Y48200D01*
X315013Y169416D02*
X314461Y170177D01*
X313566Y169887D01*
Y168946D01*
X314461Y168656D01*
X315013Y169416D01*
X317376Y167054D02*
X316823Y167815D01*
X315928Y167525D01*
Y166584D01*
X316823Y166294D01*
X317376Y167054D01*
X319738Y169416D02*
X319185Y170177D01*
X318291Y169887D01*
Y168946D01*
X319185Y168656D01*
X319738Y169416D01*
X312651Y167054D02*
X312098Y167815D01*
X311204Y167525D01*
Y166584D01*
X312098Y166294D01*
X312651Y167054D01*
X307533D02*
X306980Y167815D01*
X306086Y167525D01*
Y166584D01*
X306980Y166294D01*
X307533Y167054D01*
X303202Y173354D02*
X302650Y174114D01*
X301755Y173824D01*
Y172883D01*
X302650Y172593D01*
X303202Y173354D01*
Y169416D02*
X302650Y170177D01*
X301755Y169887D01*
Y168946D01*
X302650Y168656D01*
X303202Y169416D01*
X309895D02*
X309343Y170177D01*
X308448Y169887D01*
Y168946D01*
X309343Y168656D01*
X309895Y169416D01*
X273939Y32273D02*
X273386Y33034D01*
X272491Y32743D01*
Y31803D01*
X273386Y31512D01*
X273939Y32273D01*
X277482D02*
X276929Y33034D01*
X276035Y32743D01*
Y31803D01*
X276929Y31512D01*
X277482Y32273D01*
X281025D02*
X280472Y33034D01*
X279578Y32743D01*
Y31803D01*
X280472Y31512D01*
X281025Y32273D01*
X281025Y28074D02*
X280472Y28835D01*
X279578Y28544D01*
Y27604D01*
X280472Y27313D01*
X281025Y28074D01*
X75400Y239100D02*
X74847Y239861D01*
X73953Y239570D01*
Y238630D01*
X74847Y238339D01*
X75400Y239100D01*
X46200Y195300D02*
X45647Y196061D01*
X44753Y195770D01*
Y194830D01*
X45647Y194539D01*
X46200Y195300D01*
X77100Y189200D02*
X76547Y189961D01*
X75653Y189670D01*
Y188730D01*
X76547Y188439D01*
X77100Y189200D01*
X324950Y215400D02*
X324397Y216161D01*
X323503Y215870D01*
Y214930D01*
X324397Y214639D01*
X324950Y215400D01*
X343800D02*
X343247Y216161D01*
X342353Y215870D01*
Y214930D01*
X343247Y214639D01*
X343800Y215400D01*
X341258Y257761D02*
X340705Y258522D01*
X339811Y258232D01*
Y257291D01*
X340705Y257000D01*
X341258Y257761D01*
X329100Y246400D02*
X328547Y247161D01*
X327653Y246870D01*
Y245930D01*
X328547Y245639D01*
X329100Y246400D01*
X310600Y248100D02*
X310047Y248861D01*
X309153Y248570D01*
Y247630D01*
X310047Y247339D01*
X310600Y248100D01*
X335300Y222000D02*
X334747Y222761D01*
X333853Y222470D01*
Y221530D01*
X334747Y221239D01*
X335300Y222000D01*
X310000Y215400D02*
X309447Y216161D01*
X308553Y215870D01*
Y214930D01*
X309447Y214639D01*
X310000Y215400D01*
X287528Y174670D02*
X286975Y175431D01*
X286080Y175140D01*
Y174200D01*
X286975Y173909D01*
X287528Y174670D01*
X80613Y155974D02*
X80060Y156735D01*
X79165Y156444D01*
Y155504D01*
X80060Y155213D01*
X80613Y155974D01*
X223900Y244700D02*
X223347Y245461D01*
X222453Y245170D01*
Y244230D01*
X223347Y243939D01*
X223900Y244700D01*
X220600Y242200D02*
X220047Y242961D01*
X219153Y242670D01*
Y241730D01*
X220047Y241439D01*
X220600Y242200D01*
X158000Y115900D02*
X157447Y116661D01*
X156553Y116370D01*
Y115430D01*
X157447Y115139D01*
X158000Y115900D01*
X215100Y102700D02*
X214547Y103461D01*
X213653Y103170D01*
Y102230D01*
X214547Y101939D01*
X215100Y102700D01*
X274300Y8700D02*
X273747Y9461D01*
X272853Y9170D01*
Y8230D01*
X273747Y7939D01*
X274300Y8700D01*
X281300D02*
X280747Y9461D01*
X279853Y9170D01*
Y8230D01*
X280747Y7939D01*
X281300Y8700D01*
X178700Y242200D02*
X178147Y242961D01*
X177253Y242670D01*
Y241730D01*
X178147Y241439D01*
X178700Y242200D01*
X179200Y246700D02*
X178647Y247461D01*
X177753Y247170D01*
Y246230D01*
X178647Y245939D01*
X179200Y246700D01*
X36400Y206400D02*
X35847Y207161D01*
X34953Y206870D01*
Y205930D01*
X35847Y205639D01*
X36400Y206400D01*
X47230Y221730D02*
X46677Y222491D01*
X45783Y222200D01*
Y221260D01*
X46677Y220969D01*
X47230Y221730D01*
X270700Y224500D02*
X270147Y225261D01*
X269253Y224970D01*
Y224030D01*
X270147Y223739D01*
X270700Y224500D01*
X327300Y168300D02*
X326747Y169061D01*
X325853Y168770D01*
Y167830D01*
X326747Y167539D01*
X327300Y168300D01*
X328800Y159000D02*
X328247Y159761D01*
X327353Y159470D01*
Y158530D01*
X328247Y158239D01*
X328800Y159000D01*
X334400Y156400D02*
X333847Y157161D01*
X332953Y156870D01*
Y155930D01*
X333847Y155639D01*
X334400Y156400D01*
X347900Y156500D02*
X347347Y157261D01*
X346453Y156970D01*
Y156030D01*
X347347Y155739D01*
X347900Y156500D01*
X341100Y168300D02*
X340547Y169061D01*
X339653Y168770D01*
Y167830D01*
X340547Y167539D01*
X341100Y168300D01*
X341200Y175500D02*
X340647Y176261D01*
X339753Y175970D01*
Y175030D01*
X340647Y174739D01*
X341200Y175500D01*
X355100Y168400D02*
X354547Y169161D01*
X353653Y168870D01*
Y167930D01*
X354547Y167639D01*
X355100Y168400D01*
X366200Y179100D02*
X365647Y179861D01*
X364753Y179570D01*
Y178630D01*
X365647Y178339D01*
X366200Y179100D01*
Y198200D02*
X365647Y198961D01*
X364753Y198670D01*
Y197730D01*
X365647Y197439D01*
X366200Y198200D01*
X375800Y188300D02*
X375247Y189061D01*
X374353Y188770D01*
Y187830D01*
X375247Y187539D01*
X375800Y188300D01*
X382500Y185300D02*
X381947Y186061D01*
X381053Y185770D01*
Y184830D01*
X381947Y184539D01*
X382500Y185300D01*
X382400Y177500D02*
X381847Y178261D01*
X380953Y177970D01*
Y177030D01*
X381847Y176739D01*
X382400Y177500D01*
X372800Y166800D02*
X372247Y167561D01*
X371353Y167270D01*
Y166330D01*
X372247Y166039D01*
X372800Y166800D01*
X357900Y179600D02*
X357347Y180361D01*
X356453Y180070D01*
Y179130D01*
X357347Y178839D01*
X357900Y179600D01*
X374100Y179700D02*
X373547Y180461D01*
X372653Y180170D01*
Y179230D01*
X373547Y178939D01*
X374100Y179700D01*
X351200Y98900D02*
X350647Y99661D01*
X349753Y99370D01*
Y98430D01*
X350647Y98139D01*
X351200Y98900D01*
X327200Y115300D02*
X326647Y116061D01*
X325753Y115770D01*
Y114830D01*
X326647Y114539D01*
X327200Y115300D01*
X334500Y105100D02*
X333947Y105861D01*
X333053Y105570D01*
Y104630D01*
X333947Y104339D01*
X334500Y105100D01*
X341000Y115200D02*
X340447Y115961D01*
X339553Y115670D01*
Y114730D01*
X340447Y114439D01*
X341000Y115200D01*
X336800Y125500D02*
X336247Y126261D01*
X335353Y125970D01*
Y125030D01*
X336247Y124739D01*
X336800Y125500D01*
X347700D02*
X347147Y126261D01*
X346253Y125970D01*
Y125030D01*
X347147Y124739D01*
X347700Y125500D01*
X356100Y115500D02*
X355547Y116261D01*
X354653Y115970D01*
Y115030D01*
X355547Y114739D01*
X356100Y115500D01*
X347700Y104900D02*
X347147Y105661D01*
X346253Y105370D01*
Y104430D01*
X347147Y104139D01*
X347700Y104900D01*
X380000Y106800D02*
X379447Y107561D01*
X378553Y107270D01*
Y106330D01*
X379447Y106039D01*
X380000Y106800D01*
X379800Y128800D02*
X379247Y129561D01*
X378353Y129270D01*
Y128330D01*
X379247Y128039D01*
X379800Y128800D01*
X375300Y123600D02*
X374747Y124361D01*
X373853Y124070D01*
Y123130D01*
X374747Y122839D01*
X375300Y123600D01*
X366200Y132500D02*
X365647Y133261D01*
X364753Y132970D01*
Y132030D01*
X365647Y131739D01*
X366200Y132500D01*
X356900Y123300D02*
X356347Y124061D01*
X355453Y123770D01*
Y122830D01*
X356347Y122539D01*
X356900Y123300D01*
X366100Y113500D02*
X365547Y114261D01*
X364653Y113970D01*
Y113030D01*
X365547Y112739D01*
X366100Y113500D01*
X382000Y117900D02*
X381447Y118661D01*
X380553Y118370D01*
Y117430D01*
X381447Y117139D01*
X382000Y117900D01*
X343300Y131600D02*
X342747Y132361D01*
X341853Y132070D01*
Y131130D01*
X342747Y130839D01*
X343300Y131600D01*
X364500Y105100D02*
X363947Y105861D01*
X363053Y105570D01*
Y104630D01*
X363947Y104339D01*
X364500Y105100D01*
X311700Y67300D02*
X311147Y68061D01*
X310253Y67770D01*
Y66830D01*
X311147Y66539D01*
X311700Y67300D01*
X305200Y77400D02*
X304647Y78161D01*
X303753Y77870D01*
Y76930D01*
X304647Y76639D01*
X305200Y77400D01*
X311000Y58900D02*
X310447Y59661D01*
X309553Y59370D01*
Y58430D01*
X310447Y58139D01*
X311000Y58900D01*
X318200Y57400D02*
X317647Y58161D01*
X316753Y57870D01*
Y56930D01*
X317647Y56639D01*
X318200Y57400D01*
X327500Y91400D02*
X326947Y92161D01*
X326053Y91870D01*
Y90930D01*
X326947Y90639D01*
X327500Y91400D01*
X326400Y85400D02*
X325847Y86161D01*
X324953Y85870D01*
Y84930D01*
X325847Y84639D01*
X326400Y85400D01*
X337900Y88900D02*
X337347Y89661D01*
X336453Y89370D01*
Y88430D01*
X337347Y88139D01*
X337900Y88900D01*
X342400D02*
X341847Y89661D01*
X340953Y89370D01*
Y88430D01*
X341847Y88139D01*
X342400Y88900D01*
X327400Y79400D02*
X326847Y80161D01*
X325953Y79870D01*
Y78930D01*
X326847Y78639D01*
X327400Y79400D01*
X323500Y75600D02*
X322947Y76361D01*
X322053Y76070D01*
Y75130D01*
X322947Y74839D01*
X323500Y75600D01*
X318600Y77300D02*
X318047Y78061D01*
X317153Y77770D01*
Y76830D01*
X318047Y76539D01*
X318600Y77300D01*
X315800Y45100D02*
X315247Y45861D01*
X314353Y45570D01*
Y44630D01*
X315247Y44339D01*
X315800Y45100D01*
X354200Y89200D02*
X353647Y89961D01*
X352753Y89670D01*
Y88730D01*
X353647Y88439D01*
X354200Y89200D01*
X353800Y79700D02*
X353247Y80461D01*
X352353Y80170D01*
Y79230D01*
X353247Y78939D01*
X353800Y79700D01*
X353300Y85400D02*
X352747Y86161D01*
X351853Y85870D01*
Y84930D01*
X352747Y84639D01*
X353300Y85400D01*
X363300Y79800D02*
X362747Y80561D01*
X361853Y80270D01*
Y79330D01*
X362747Y79039D01*
X363300Y79800D01*
X380000Y63500D02*
X379447Y64261D01*
X378553Y63970D01*
Y63030D01*
X379447Y62739D01*
X380000Y63500D01*
X366200Y68100D02*
X365647Y68861D01*
X364753Y68570D01*
Y67630D01*
X365647Y67339D01*
X366200Y68100D01*
X366400Y49000D02*
X365847Y49761D01*
X364953Y49470D01*
Y48530D01*
X365847Y48239D01*
X366400Y49000D01*
X357800Y54100D02*
X357247Y54861D01*
X356353Y54570D01*
Y53630D01*
X357247Y53339D01*
X357800Y54100D01*
X375600Y58500D02*
X375047Y59261D01*
X374153Y58970D01*
Y58030D01*
X375047Y57739D01*
X375600Y58500D01*
X364500Y39800D02*
X363947Y40561D01*
X363053Y40270D01*
Y39330D01*
X363947Y39039D01*
X364500Y39800D01*
X358000Y33900D02*
X357447Y34661D01*
X356553Y34370D01*
Y33430D01*
X357447Y33139D01*
X358000Y33900D01*
X364500Y27700D02*
X363947Y28461D01*
X363053Y28170D01*
Y27230D01*
X363947Y26939D01*
X364500Y27700D01*
X377900Y36700D02*
X377347Y37461D01*
X376453Y37170D01*
Y36230D01*
X377347Y35939D01*
X377900Y36700D01*
X340500Y74600D02*
X339947Y75361D01*
X339053Y75070D01*
Y74130D01*
X339947Y73839D01*
X340500Y74600D01*
X340700Y67100D02*
X340147Y67861D01*
X339253Y67570D01*
Y66630D01*
X340147Y66339D01*
X340700Y67100D01*
X347000Y56900D02*
X346447Y57661D01*
X345553Y57370D01*
Y56430D01*
X346447Y56139D01*
X347000Y56900D01*
X334300Y57300D02*
X333747Y58061D01*
X332853Y57770D01*
Y56830D01*
X333747Y56539D01*
X334300Y57300D01*
X337500Y37600D02*
X336947Y38361D01*
X336053Y38070D01*
Y37130D01*
X336947Y36839D01*
X337500Y37600D01*
X334000Y47800D02*
X333447Y48561D01*
X332553Y48270D01*
Y47330D01*
X333447Y47039D01*
X334000Y47800D01*
X348700Y35500D02*
X348147Y36261D01*
X347253Y35970D01*
Y35030D01*
X348147Y34739D01*
X348700Y35500D01*
X361500Y22600D02*
X360947Y23361D01*
X360053Y23070D01*
Y22130D01*
X360947Y21839D01*
X361500Y22600D01*
X367300Y22700D02*
X366747Y23461D01*
X365853Y23170D01*
Y22230D01*
X366747Y21939D01*
X367300Y22700D01*
X357967Y17790D02*
X357414Y18551D01*
X356520Y18260D01*
Y17320D01*
X357414Y17029D01*
X357967Y17790D01*
X340800Y14100D02*
X340247Y14861D01*
X339353Y14570D01*
Y13630D01*
X340247Y13339D01*
X340800Y14100D01*
X347300Y22200D02*
X346747Y22961D01*
X345853Y22670D01*
Y21730D01*
X346747Y21439D01*
X347300Y22200D01*
X333800Y23500D02*
X333247Y24261D01*
X332353Y23970D01*
Y23030D01*
X333247Y22739D01*
X333800Y23500D01*
X328200Y14100D02*
X327647Y14861D01*
X326753Y14570D01*
Y13630D01*
X327647Y13339D01*
X328200Y14100D01*
X247900Y71600D02*
X247347Y72361D01*
X246453Y72070D01*
Y71130D01*
X247347Y70839D01*
X247900Y71600D01*
X281025Y23874D02*
X280472Y24635D01*
X279578Y24344D01*
Y23404D01*
X280472Y23113D01*
X281025Y23874D01*
X270900Y30200D02*
X270347Y30961D01*
X269453Y30670D01*
Y29730D01*
X270347Y29439D01*
X270900Y30200D01*
Y26500D02*
X270347Y27261D01*
X269453Y26970D01*
Y26030D01*
X270347Y25739D01*
X270900Y26500D01*
Y22800D02*
X270347Y23561D01*
X269453Y23270D01*
Y22330D01*
X270347Y22039D01*
X270900Y22800D01*
X311500Y14200D02*
X310947Y14961D01*
X310053Y14670D01*
Y13730D01*
X310947Y13439D01*
X311500Y14200D01*
X305200Y23500D02*
X304647Y24261D01*
X303753Y23970D01*
Y23030D01*
X304647Y22739D01*
X305200Y23500D01*
X246900Y61900D02*
X246347Y62661D01*
X245453Y62370D01*
Y61430D01*
X246347Y61139D01*
X246900Y61900D01*
X250200Y85200D02*
X249647Y85961D01*
X248753Y85670D01*
Y84730D01*
X249647Y84439D01*
X250200Y85200D01*
X302400Y201600D02*
X301847Y202361D01*
X300953Y202070D01*
Y201130D01*
X301847Y200839D01*
X302400Y201600D01*
X312400D02*
X311847Y202361D01*
X310953Y202070D01*
Y201130D01*
X311847Y200839D01*
X312400Y201600D01*
Y211600D02*
X311847Y212361D01*
X310953Y212070D01*
Y211130D01*
X311847Y210839D01*
X312400Y211600D01*
X322400D02*
X321847Y212361D01*
X320953Y212070D01*
Y211130D01*
X321847Y210839D01*
X322400Y211600D01*
Y201600D02*
X321847Y202361D01*
X320953Y202070D01*
Y201130D01*
X321847Y200839D01*
X322400Y201600D01*
X332400D02*
X331847Y202361D01*
X330953Y202070D01*
Y201130D01*
X331847Y200839D01*
X332400Y201600D01*
Y211600D02*
X331847Y212361D01*
X330953Y212070D01*
Y211130D01*
X331847Y210839D01*
X332400Y211600D01*
X342400D02*
X341847Y212361D01*
X340953Y212070D01*
Y211130D01*
X341847Y210839D01*
X342400Y211600D01*
Y201600D02*
X341847Y202361D01*
X340953Y202070D01*
Y201130D01*
X341847Y200839D01*
X342400Y201600D01*
Y191600D02*
X341847Y192361D01*
X340953Y192070D01*
Y191130D01*
X341847Y190839D01*
X342400Y191600D01*
X332400D02*
X331847Y192361D01*
X330953Y192070D01*
Y191130D01*
X331847Y190839D01*
X332400Y191600D01*
Y181600D02*
X331847Y182361D01*
X330953Y182070D01*
Y181130D01*
X331847Y180839D01*
X332400Y181600D01*
X352400Y196600D02*
X351847Y197361D01*
X350953Y197070D01*
Y196130D01*
X351847Y195839D01*
X352400Y196600D01*
X37400Y271600D02*
X36847Y272361D01*
X35953Y272070D01*
Y271130D01*
X36847Y270839D01*
X37400Y271600D01*
X366500Y11800D02*
X365947Y12561D01*
X365053Y12270D01*
Y11330D01*
X365947Y11039D01*
X366500Y11800D01*
X286300Y34400D02*
X285747Y35161D01*
X284853Y34870D01*
Y33930D01*
X285747Y33639D01*
X286300Y34400D01*
X270809Y9815D02*
X270257Y10576D01*
X269362Y10285D01*
Y9345D01*
X270257Y9054D01*
X270809Y9815D01*
Y13515D02*
X270257Y14276D01*
X269362Y13985D01*
Y13045D01*
X270257Y12754D01*
X270809Y13515D01*
Y17215D02*
X270257Y17976D01*
X269362Y17685D01*
Y16745D01*
X270257Y16454D01*
X270809Y17215D01*
X281500Y12200D02*
X280947Y12961D01*
X280053Y12670D01*
Y11730D01*
X280947Y11439D01*
X281500Y12200D01*
X296200Y68900D02*
X295647Y69661D01*
X294753Y69371D01*
Y68430D01*
X295647Y68139D01*
X296200Y68900D01*
X257600Y83900D02*
X257047Y84661D01*
X256153Y84370D01*
Y83430D01*
X257047Y83139D01*
X257600Y83900D01*
X257700Y71500D02*
X257147Y72261D01*
X256253Y71970D01*
Y71030D01*
X257147Y70739D01*
X257700Y71500D01*
X247900Y76500D02*
X247347Y77261D01*
X246453Y76970D01*
Y76030D01*
X247347Y75739D01*
X247900Y76500D01*
X257700D02*
X257147Y77261D01*
X256253Y76970D01*
Y76030D01*
X257147Y75739D01*
X257700Y76500D01*
X331300Y222100D02*
X330747Y222861D01*
X329853Y222570D01*
Y221630D01*
X330747Y221339D01*
X331300Y222100D01*
X327500D02*
X326947Y222861D01*
X326053Y222570D01*
Y221630D01*
X326947Y221339D01*
X327500Y222100D01*
X305100Y111700D02*
X304547Y112461D01*
X303653Y112170D01*
Y111230D01*
X304547Y110939D01*
X305100Y111700D01*
X226200Y185100D02*
X225647Y185861D01*
X224753Y185570D01*
Y184630D01*
X225647Y184339D01*
X226200Y185100D01*
X298700Y123500D02*
X298147Y124261D01*
X297253Y123970D01*
Y123030D01*
X298147Y122739D01*
X298700Y123500D01*
X223900Y154100D02*
X223347Y154861D01*
X222453Y154570D01*
Y153630D01*
X223347Y153339D01*
X223900Y154100D01*
X214300Y159100D02*
X213747Y159861D01*
X212853Y159570D01*
Y158630D01*
X213747Y158339D01*
X214300Y159100D01*
X277800Y130800D02*
X277247Y131561D01*
X276353Y131270D01*
Y130330D01*
X277247Y130039D01*
X277800Y130800D01*
X277600Y126200D02*
X277047Y126961D01*
X276153Y126670D01*
Y125730D01*
X277047Y125439D01*
X277600Y126200D01*
X337400Y251400D02*
X336847Y252161D01*
X335953Y251870D01*
Y250930D01*
X336847Y250639D01*
X337400Y251400D01*
X34200Y220100D02*
X33647Y220861D01*
X32753Y220570D01*
Y219630D01*
X33647Y219339D01*
X34200Y220100D01*
X27100Y213500D02*
X26547Y214261D01*
X25653Y213970D01*
Y213030D01*
X26547Y212739D01*
X27100Y213500D01*
X120900Y125900D02*
X120347Y126661D01*
X119453Y126370D01*
Y125430D01*
X120347Y125139D01*
X120900Y125900D01*
X120500Y139000D02*
X119947Y139761D01*
X119053Y139470D01*
Y138530D01*
X119947Y138239D01*
X120500Y139000D01*
X173460Y192207D02*
X172907Y192968D01*
X172013Y192677D01*
Y191737D01*
X172907Y191446D01*
X173460Y192207D01*
X208700Y185800D02*
X208147Y186561D01*
X207253Y186270D01*
Y185330D01*
X208147Y185039D01*
X208700Y185800D01*
X316500Y84800D02*
X315947Y85561D01*
X315053Y85270D01*
Y84330D01*
X315947Y84039D01*
X316500Y84800D01*
X307300D02*
X306747Y85561D01*
X305853Y85270D01*
Y84330D01*
X306747Y84039D01*
X307300Y84800D01*
X316500Y90000D02*
X315947Y90761D01*
X315053Y90470D01*
Y89530D01*
X315947Y89239D01*
X316500Y90000D01*
X307300D02*
X306747Y90761D01*
X305853Y90470D01*
Y89530D01*
X306747Y89239D01*
X307300Y90000D01*
Y95100D02*
X306747Y95861D01*
X305853Y95570D01*
Y94630D01*
X306747Y94339D01*
X307300Y95100D01*
X316500D02*
X315947Y95861D01*
X315053Y95570D01*
Y94630D01*
X315947Y94339D01*
X316500Y95100D01*
X306266Y156138D02*
X305713Y156899D01*
X304819Y156608D01*
Y155668D01*
X305713Y155377D01*
X306266Y156138D01*
X316366D02*
X315813Y156899D01*
X314919Y156608D01*
Y155668D01*
X315813Y155377D01*
X316366Y156138D01*
X311366D02*
X310813Y156899D01*
X309919Y156608D01*
Y155668D01*
X310813Y155377D01*
X311366Y156138D01*
G54D268*
X394126Y9710D02*
X393526Y10057D01*
Y9364D01*
X394126Y9710D01*
Y29710D02*
X393526Y30057D01*
Y29364D01*
X394126Y29710D01*
X404126Y19710D02*
X403526Y20057D01*
Y19364D01*
X404126Y19710D01*
X384126D02*
X383526Y20057D01*
Y19364D01*
X384126Y19710D01*
X387126Y26710D02*
X386526Y27057D01*
Y26364D01*
X387126Y26710D01*
X401126D02*
X400526Y27057D01*
Y26364D01*
X401126Y26710D01*
Y12710D02*
X400526Y13057D01*
Y12364D01*
X401126Y12710D01*
X387126D02*
X386526Y13057D01*
Y12364D01*
X387126Y12710D01*
X394126Y249868D02*
X393526Y250214D01*
Y249521D01*
X394126Y249868D01*
Y269868D02*
X393526Y270214D01*
Y269521D01*
X394126Y269868D01*
X404126Y259868D02*
X403526Y260214D01*
Y259521D01*
X404126Y259868D01*
X384126D02*
X383526Y260214D01*
Y259521D01*
X384126Y259868D01*
X387126Y266868D02*
X386526Y267214D01*
Y266521D01*
X387126Y266868D01*
X401126D02*
X400526Y267214D01*
Y266521D01*
X401126Y266868D01*
Y252868D02*
X400526Y253214D01*
Y252521D01*
X401126Y252868D01*
X387126D02*
X386526Y253214D01*
Y252521D01*
X387126Y252868D01*
X20110Y249868D02*
X19510Y250214D01*
Y249521D01*
X20110Y249868D01*
Y269868D02*
X19510Y270214D01*
Y269521D01*
X20110Y269868D01*
X30110Y259868D02*
X29510Y260214D01*
Y259521D01*
X30110Y259868D01*
X10110D02*
X9510Y260214D01*
Y259521D01*
X10110Y259868D01*
X13110Y266868D02*
X12510Y267214D01*
Y266521D01*
X13110Y266868D01*
X27110D02*
X26510Y267214D01*
Y266521D01*
X27110Y266868D01*
Y252868D02*
X26510Y253214D01*
Y252521D01*
X27110Y252868D01*
X13110D02*
X12510Y253214D01*
Y252521D01*
X13110Y252868D01*
X20110Y9710D02*
X19510Y10057D01*
Y9364D01*
X20110Y9710D01*
Y29710D02*
X19510Y30057D01*
Y29364D01*
X20110Y29710D01*
X30110Y19710D02*
X29510Y20057D01*
Y19364D01*
X30110Y19710D01*
X10110D02*
X9510Y20057D01*
Y19364D01*
X10110Y19710D01*
X13110Y26710D02*
X12510Y27057D01*
Y26364D01*
X13110Y26710D01*
X27110D02*
X26510Y27057D01*
Y26364D01*
X27110Y26710D01*
Y12710D02*
X26510Y13057D01*
Y12364D01*
X27110Y12710D01*
X13110D02*
X12510Y13057D01*
Y12364D01*
X13110Y12710D01*
X314613Y190877D02*
X314013Y191224D01*
Y190531D01*
X314613Y190877D01*
Y194877D02*
X314013Y195224D01*
Y194531D01*
X314613Y194877D01*
Y186877D02*
X314013Y187224D01*
Y186531D01*
X314613Y186877D01*
Y182877D02*
X314013Y183224D01*
Y182531D01*
X314613Y182877D01*
X310613D02*
X310013Y183224D01*
Y182531D01*
X310613Y182877D01*
X306613D02*
X306013Y183224D01*
Y182531D01*
X306613Y182877D01*
Y186877D02*
X306013Y187224D01*
Y186531D01*
X306613Y186877D01*
X310613D02*
X310013Y187224D01*
Y186531D01*
X310613Y186877D01*
Y190877D02*
X310013Y191224D01*
Y190531D01*
X310613Y190877D01*
X306613D02*
X306013Y191224D01*
Y190531D01*
X306613Y190877D01*
Y194877D02*
X306013Y195224D01*
Y194531D01*
X306613Y194877D01*
X310613D02*
X310013Y195224D01*
Y194531D01*
X310613Y194877D01*
X318613D02*
X318013Y195224D01*
Y194531D01*
X318613Y194877D01*
X322613D02*
X322013Y195224D01*
Y194531D01*
X322613Y194877D01*
Y190877D02*
X322013Y191224D01*
Y190531D01*
X322613Y190877D01*
X318613D02*
X318013Y191224D01*
Y190531D01*
X318613Y190877D01*
Y186877D02*
X318013Y187224D01*
Y186531D01*
X318613Y186877D01*
X322613D02*
X322013Y187224D01*
Y186531D01*
X322613Y186877D01*
Y182877D02*
X322013Y183224D01*
Y182531D01*
X322613Y182877D01*
X318613D02*
X318013Y183224D01*
Y182531D01*
X318613Y182877D01*
X274081Y50768D02*
X273481Y51114D01*
Y50421D01*
X274081Y50768D01*
X270081D02*
X269481Y51114D01*
Y50421D01*
X270081Y50768D01*
X278081D02*
X277481Y51114D01*
Y50421D01*
X278081Y50768D01*
X282081D02*
X281481Y51114D01*
Y50421D01*
X282081Y50768D01*
Y46768D02*
X281481Y47114D01*
Y46421D01*
X282081Y46768D01*
Y42768D02*
X281481Y43114D01*
Y42421D01*
X282081Y42768D01*
X278081D02*
X277481Y43114D01*
Y42421D01*
X278081Y42768D01*
Y46768D02*
X277481Y47114D01*
Y46421D01*
X278081Y46768D01*
X274081D02*
X273481Y47114D01*
Y46421D01*
X274081Y46768D01*
Y42768D02*
X273481Y43114D01*
Y42421D01*
X274081Y42768D01*
X270081D02*
X269481Y43114D01*
Y42421D01*
X270081Y42768D01*
Y46768D02*
X269481Y47114D01*
Y46421D01*
X270081Y46768D01*
Y54768D02*
X269481Y55114D01*
Y54421D01*
X270081Y54768D01*
Y58768D02*
X269481Y59114D01*
Y58421D01*
X270081Y58768D01*
X274081D02*
X273481Y59114D01*
Y58421D01*
X274081Y58768D01*
Y54768D02*
X273481Y55114D01*
Y54421D01*
X274081Y54768D01*
X278081D02*
X277481Y55114D01*
Y54421D01*
X278081Y54768D01*
Y58768D02*
X277481Y59114D01*
Y58421D01*
X278081Y58768D01*
X282081D02*
X281481Y59114D01*
Y58421D01*
X282081Y58768D01*
Y54768D02*
X281481Y55114D01*
Y54421D01*
X282081Y54768D01*
X327800Y263700D02*
X327200Y264046D01*
Y263354D01*
X327800Y263700D01*
X320500Y255600D02*
X319900Y255946D01*
Y255254D01*
X320500Y255600D01*
Y263000D02*
X319900Y263346D01*
Y262654D01*
X320500Y263000D01*
Y259300D02*
X319900Y259646D01*
Y258954D01*
X320500Y259300D01*
X205200Y114900D02*
X204600Y115246D01*
Y114554D01*
X205200Y114900D01*
X51500Y189500D02*
X50900Y189846D01*
Y189154D01*
X51500Y189500D01*
X45500D02*
X44900Y189846D01*
Y189154D01*
X45500Y189500D01*
X36200Y198100D02*
X35600Y198446D01*
Y197754D01*
X36200Y198100D01*
X38417Y195500D02*
X37817Y195846D01*
Y195154D01*
X38417Y195500D01*
X51900Y135500D02*
X51300Y135846D01*
Y135154D01*
X51900Y135500D01*
X69000Y131200D02*
X68400Y131546D01*
Y130854D01*
X69000Y131200D01*
Y128000D02*
X68400Y128346D01*
Y127654D01*
X69000Y128000D01*
X52000Y128100D02*
X51400Y128446D01*
Y127754D01*
X52000Y128100D01*
Y131300D02*
X51400Y131646D01*
Y130954D01*
X52000Y131300D01*
X83740Y176340D02*
X83140Y176687D01*
Y175994D01*
X83740Y176340D01*
Y172600D02*
X83140Y172946D01*
Y172254D01*
X83740Y172600D01*
Y168860D02*
X83140Y169206D01*
Y168513D01*
X83740Y168860D01*
X80000D02*
X79400Y169206D01*
Y168513D01*
X80000Y168860D01*
X76260Y168761D02*
X75660Y169108D01*
Y168415D01*
X76260Y168761D01*
X76279Y172600D02*
X75679Y172946D01*
Y172254D01*
X76279Y172600D01*
X76231Y176376D02*
X75631Y176723D01*
Y176030D01*
X76231Y176376D01*
X80000Y176340D02*
X79400Y176687D01*
Y175994D01*
X80000Y176340D01*
Y172600D02*
X79400Y172946D01*
Y172254D01*
X80000Y172600D01*
X78200Y148500D02*
X77600Y148846D01*
Y148154D01*
X78200Y148500D01*
X65400Y161500D02*
X64800Y161846D01*
Y161154D01*
X65400Y161500D01*
X120200Y167600D02*
X119600Y167946D01*
Y167254D01*
X120200Y167600D01*
X148000Y274600D02*
X147400Y274946D01*
Y274254D01*
X148000Y274600D01*
X277200Y273000D02*
X276600Y273346D01*
Y272654D01*
X277200Y273000D01*
X292500Y184300D02*
X291900Y184646D01*
Y183954D01*
X292500Y184300D01*
X284800Y185400D02*
X284200Y185746D01*
Y185054D01*
X284800Y185400D01*
X286100Y142800D02*
X285500Y143146D01*
Y142454D01*
X286100Y142800D01*
X280300D02*
X279700Y143146D01*
Y142454D01*
X280300Y142800D01*
X222300Y132600D02*
X221700Y132946D01*
Y132254D01*
X222300Y132600D01*
X223400Y149500D02*
X222800Y149846D01*
Y149154D01*
X223400Y149500D01*
X221200Y136900D02*
X220600Y137246D01*
Y136554D01*
X221200Y136900D01*
X222300Y128000D02*
X221700Y128346D01*
Y127654D01*
X222300Y128000D01*
X218900Y167600D02*
X218300Y167946D01*
Y167254D01*
X218900Y167600D01*
X291400Y134000D02*
X290800Y134346D01*
Y133654D01*
X291400Y134000D01*
X274500Y156900D02*
X273900Y157246D01*
Y156554D01*
X274500Y156900D01*
X310900Y146100D02*
X310300Y146446D01*
Y145754D01*
X310900Y146100D01*
X305900D02*
X305300Y146446D01*
Y145754D01*
X305900Y146100D01*
X323100Y164700D02*
X322500Y165046D01*
Y164354D01*
X323100Y164700D01*
X225800Y180600D02*
X225200Y180946D01*
Y180254D01*
X225800Y180600D01*
X200600Y141600D02*
X200000Y141946D01*
Y141254D01*
X200600Y141600D01*
X205200Y129900D02*
X204600Y130246D01*
Y129554D01*
X205200Y129900D01*
X217600Y114000D02*
X217000Y114346D01*
Y113654D01*
X217600Y114000D01*
X274000Y197600D02*
X273400Y197946D01*
Y197254D01*
X274000Y197600D01*
X273500Y211800D02*
X272900Y212146D01*
Y211454D01*
X273500Y211800D01*
X316500Y224900D02*
X315900Y225246D01*
Y224554D01*
X316500Y224900D01*
Y228200D02*
X315900Y228546D01*
Y227854D01*
X316500Y228200D01*
Y231500D02*
X315900Y231846D01*
Y231154D01*
X316500Y231500D01*
X312700Y225400D02*
X312100Y225746D01*
Y225054D01*
X312700Y225400D01*
Y229900D02*
X312100Y230246D01*
Y229554D01*
X312700Y229900D01*
X297200Y225300D02*
X296600Y225646D01*
Y224954D01*
X297200Y225300D01*
Y230000D02*
X296600Y230346D01*
Y229654D01*
X297200Y230000D01*
X294700Y227600D02*
X294100Y227946D01*
Y227254D01*
X294700Y227600D01*
X173175Y196060D02*
X172575Y196407D01*
Y195714D01*
X173175Y196060D01*
X205400Y135600D02*
X204800Y135946D01*
Y135254D01*
X205400Y135600D01*
X120200Y143500D02*
X119600Y143846D01*
Y143154D01*
X120200Y143500D01*
X172000Y215500D02*
X171400Y215846D01*
Y215154D01*
X172000Y215500D01*
X302802Y177291D02*
X302202Y177637D01*
Y176944D01*
X302802Y177291D01*
X250600Y109700D02*
X250000Y110046D01*
Y109354D01*
X250600Y109700D01*
X248300Y95700D02*
X247700Y96046D01*
Y95354D01*
X248300Y95700D01*
X241500Y98800D02*
X240900Y99146D01*
Y98454D01*
X241500Y98800D01*
X243200Y222800D02*
X242600Y223146D01*
Y222454D01*
X243200Y222800D01*
X231300Y271500D02*
X230700Y271846D01*
Y271154D01*
X231300Y271500D01*
X118700D02*
X118100Y271846D01*
Y271154D01*
X118700Y271500D01*
X402000Y205700D02*
X401400Y206046D01*
Y205354D01*
X402000Y205700D01*
X402200Y175400D02*
X401600Y175746D01*
Y175054D01*
X402200Y175400D01*
X317200Y52200D02*
X316600Y52546D01*
Y51854D01*
X317200Y52200D01*
X263500Y53300D02*
X262900Y53646D01*
Y52954D01*
X263500Y53300D01*
X257300Y66400D02*
X256700Y66746D01*
Y66054D01*
X257300Y66400D01*
X247500D02*
X246900Y66746D01*
Y66054D01*
X247500Y66400D01*
X356400Y92300D02*
X355800Y92646D01*
Y91954D01*
X356400Y92300D01*
X365800Y99800D02*
X365200Y100146D01*
Y99454D01*
X365800Y99800D01*
X375400Y91200D02*
X374800Y91546D01*
Y90854D01*
X375400Y91200D01*
X374800Y156000D02*
X374200Y156346D01*
Y155654D01*
X374800Y156000D01*
X365700Y146800D02*
X365100Y147146D01*
Y146454D01*
X365700Y146800D01*
X356600Y156100D02*
X356000Y156446D01*
Y155754D01*
X356600Y156100D01*
X365700Y230800D02*
X365100Y231146D01*
Y230454D01*
X365700Y230800D01*
X356700Y221000D02*
X356100Y221346D01*
Y220654D01*
X356700Y221000D01*
X365700Y211200D02*
X365100Y211546D01*
Y210854D01*
X365700Y211200D01*
X347500Y226800D02*
X346900Y227146D01*
Y226454D01*
X347500Y226800D01*
X322800Y115646D02*
X322200Y115992D01*
Y115299D01*
X322800Y115646D01*
X262900Y39500D02*
X262300Y39846D01*
Y39154D01*
X262900Y39500D01*
X253700Y39472D02*
X253100Y39819D01*
Y39126D01*
X253700Y39472D01*
Y34200D02*
X253100Y34546D01*
Y33854D01*
X253700Y34200D01*
X262900D02*
X262300Y34546D01*
Y33854D01*
X262900Y34200D01*
X253700Y29000D02*
X253100Y29346D01*
Y28654D01*
X253700Y29000D01*
X262900D02*
X262300Y29346D01*
Y28654D01*
X262900Y29000D01*
X297700Y14200D02*
X297100Y14546D01*
Y13854D01*
X297700Y14200D01*
X293200Y8400D02*
X292600Y8746D01*
Y8054D01*
X293200Y8400D01*
X288400D02*
X287800Y8746D01*
Y8054D01*
X288400Y8400D01*
X297700Y18500D02*
X297100Y18846D01*
Y18154D01*
X297700Y18500D01*
Y10000D02*
X297100Y10346D01*
Y9654D01*
X297700Y10000D01*
X257000Y56100D02*
X256400Y56446D01*
Y55754D01*
X257000Y56100D01*
X247800D02*
X247200Y56446D01*
Y55754D01*
X247800Y56100D01*
Y51000D02*
X247200Y51346D01*
Y50654D01*
X247800Y51000D01*
X257000D02*
X256400Y51346D01*
Y50654D01*
X257000Y51000D01*
X247800Y45800D02*
X247200Y46146D01*
Y45454D01*
X247800Y45800D01*
X257000D02*
X256400Y46146D01*
Y45454D01*
X257000Y45800D01*
X262900Y19000D02*
X262300Y19346D01*
Y18654D01*
X262900Y19000D01*
X253700D02*
X253100Y19346D01*
Y18654D01*
X253700Y19000D01*
Y13800D02*
X253100Y14146D01*
Y13454D01*
X253700Y13800D01*
X262900Y13900D02*
X262300Y14246D01*
Y13554D01*
X262900Y13900D01*
X253700Y8700D02*
X253100Y9046D01*
Y8354D01*
X253700Y8700D01*
X262900D02*
X262300Y9046D01*
Y8354D01*
X262900Y8700D01*
X277400D02*
X276800Y9046D01*
Y8354D01*
X277400Y8700D01*
X327300Y41700D02*
X326700Y42046D01*
Y41354D01*
X327300Y41700D01*
X295400Y53200D02*
X294800Y53546D01*
Y52854D01*
X295400Y53200D01*
X113331Y121069D02*
X112731Y121416D01*
Y120723D01*
X113331Y121069D01*
X17256Y181029D02*
X16656Y181376D01*
Y180683D01*
X17256Y181029D01*
X9776Y120301D02*
X9176Y120647D01*
Y119954D01*
X9776Y120301D01*
X46685Y207604D02*
X46085Y207950D01*
Y207258D01*
X46685Y207604D01*
X61600Y161500D02*
X61000Y161846D01*
Y161154D01*
X61600Y161500D01*
X300900Y194900D02*
X300300Y195246D01*
Y194554D01*
X300900Y194900D01*
X230839Y249632D02*
X230239Y249978D01*
Y249285D01*
X230839Y249632D01*
X49200Y173100D02*
X48600Y173446D01*
Y172754D01*
X49200Y173100D01*
X52000Y165900D02*
X51400Y166246D01*
Y165554D01*
X52000Y165900D01*
X82217Y142939D02*
X81616Y143285D01*
Y142592D01*
X82217Y142939D01*
X82315Y139002D02*
X81715Y139348D01*
Y138655D01*
X82315Y139002D01*
X76400Y156000D02*
X75800Y156346D01*
Y155654D01*
X76400Y156000D01*
X316000Y146100D02*
X315400Y146446D01*
Y145754D01*
X316000Y146100D01*
X210100Y172700D02*
X209500Y173046D01*
Y172354D01*
X210100Y172700D01*
X211449Y168529D02*
X210849Y168876D01*
Y168183D01*
X211449Y168529D01*
X167000Y115900D02*
X166400Y116246D01*
Y115554D01*
X167000Y115900D01*
X124900Y163200D02*
X124300Y163546D01*
Y162854D01*
X124900Y163200D01*
X109399Y149514D02*
X108799Y149861D01*
Y149168D01*
X109399Y149514D01*
X56100Y146000D02*
X55500Y146346D01*
Y145654D01*
X56100Y146000D01*
X209900Y177800D02*
X209300Y178146D01*
Y177454D01*
X209900Y177800D01*
X93240Y173647D02*
X92640Y173994D01*
Y173301D01*
X93240Y173647D01*
X61700Y179900D02*
X61100Y180246D01*
Y179554D01*
X61700Y179900D01*
X50819Y207505D02*
X50219Y207852D01*
Y207159D01*
X50819Y207505D01*
X82413Y121876D02*
X81813Y122222D01*
Y121529D01*
X82413Y121876D01*
Y125714D02*
X81813Y126061D01*
Y125368D01*
X82413Y125714D01*
X96770Y186316D02*
X96170Y186662D01*
Y185970D01*
X96770Y186316D01*
X85760Y196088D02*
X85160Y196435D01*
Y195742D01*
X85760Y196088D01*
X125300Y172600D02*
X124700Y172946D01*
Y172254D01*
X125300Y172600D01*
X56700Y153500D02*
X56100Y153846D01*
Y153154D01*
X56700Y153500D01*
X61500Y135600D02*
X60900Y135946D01*
Y135254D01*
X61500Y135600D01*
X83102Y193332D02*
X82502Y193679D01*
Y192986D01*
X83102Y193332D01*
X347500Y258700D02*
X346900Y259046D01*
Y258354D01*
X347500Y258700D01*
X329100Y260200D02*
X328500Y260546D01*
Y259854D01*
X329100Y260200D01*
X333100D02*
X332500Y260546D01*
Y259854D01*
X333100Y260200D01*
X347500Y242750D02*
X346900Y243096D01*
Y242404D01*
X347500Y242750D01*
X343800Y270900D02*
X343200Y271246D01*
Y270554D01*
X343800Y270900D01*
X324950D02*
X324350Y271246D01*
Y270554D01*
X324950Y270900D01*
X306100D02*
X305500Y271246D01*
Y270554D01*
X306100Y270900D01*
X287250D02*
X286650Y271246D01*
Y270554D01*
X287250Y270900D01*
X295400Y43200D02*
X294800Y43546D01*
Y42854D01*
X295400Y43200D01*
Y48200D02*
X294800Y48546D01*
Y47854D01*
X295400Y48200D01*
X314613Y169416D02*
X314013Y169763D01*
Y169070D01*
X314613Y169416D01*
X316976Y167054D02*
X316376Y167401D01*
Y166708D01*
X316976Y167054D01*
X319338Y169416D02*
X318738Y169763D01*
Y169070D01*
X319338Y169416D01*
X312251Y167054D02*
X311651Y167401D01*
Y166708D01*
X312251Y167054D01*
X307133D02*
X306533Y167401D01*
Y166708D01*
X307133Y167054D01*
X302802Y173354D02*
X302202Y173700D01*
Y173007D01*
X302802Y173354D01*
Y169416D02*
X302202Y169763D01*
Y169070D01*
X302802Y169416D01*
X309495D02*
X308895Y169763D01*
Y169070D01*
X309495Y169416D01*
X273539Y32273D02*
X272939Y32620D01*
Y31927D01*
X273539Y32273D01*
X277082D02*
X276482Y32620D01*
Y31927D01*
X277082Y32273D01*
X280625D02*
X280025Y32620D01*
Y31927D01*
X280625Y32273D01*
X280625Y28074D02*
X280025Y28420D01*
Y27727D01*
X280625Y28074D01*
X75000Y239100D02*
X74400Y239446D01*
Y238754D01*
X75000Y239100D01*
X45800Y195300D02*
X45200Y195646D01*
Y194954D01*
X45800Y195300D01*
X76700Y189200D02*
X76100Y189546D01*
Y188854D01*
X76700Y189200D01*
X324550Y215400D02*
X323950Y215746D01*
Y215054D01*
X324550Y215400D01*
X343400D02*
X342800Y215746D01*
Y215054D01*
X343400Y215400D01*
X340858Y257761D02*
X340258Y258108D01*
Y257415D01*
X340858Y257761D01*
X328700Y246400D02*
X328100Y246746D01*
Y246054D01*
X328700Y246400D01*
X310200Y248100D02*
X309600Y248446D01*
Y247754D01*
X310200Y248100D01*
X334900Y222000D02*
X334300Y222346D01*
Y221654D01*
X334900Y222000D01*
X309600Y215400D02*
X309000Y215746D01*
Y215054D01*
X309600Y215400D01*
X287128Y174670D02*
X286528Y175016D01*
Y174324D01*
X287128Y174670D01*
X80213Y155974D02*
X79613Y156320D01*
Y155628D01*
X80213Y155974D01*
X223500Y244700D02*
X222900Y245046D01*
Y244354D01*
X223500Y244700D01*
X220200Y242200D02*
X219600Y242546D01*
Y241854D01*
X220200Y242200D01*
X157600Y115900D02*
X157000Y116246D01*
Y115554D01*
X157600Y115900D01*
X214700Y102700D02*
X214100Y103046D01*
Y102354D01*
X214700Y102700D01*
X273900Y8700D02*
X273300Y9046D01*
Y8354D01*
X273900Y8700D01*
X280900D02*
X280300Y9046D01*
Y8354D01*
X280900Y8700D01*
X178300Y242200D02*
X177700Y242546D01*
Y241854D01*
X178300Y242200D01*
X178800Y246700D02*
X178200Y247046D01*
Y246354D01*
X178800Y246700D01*
X36000Y206400D02*
X35400Y206746D01*
Y206054D01*
X36000Y206400D01*
X46830Y221730D02*
X46230Y222076D01*
Y221384D01*
X46830Y221730D01*
X270300Y224500D02*
X269700Y224846D01*
Y224154D01*
X270300Y224500D01*
X326900Y168300D02*
X326300Y168646D01*
Y167954D01*
X326900Y168300D01*
X328400Y159000D02*
X327800Y159346D01*
Y158654D01*
X328400Y159000D01*
X334000Y156400D02*
X333400Y156746D01*
Y156054D01*
X334000Y156400D01*
X347500Y156500D02*
X346900Y156846D01*
Y156154D01*
X347500Y156500D01*
X340700Y168300D02*
X340100Y168646D01*
Y167954D01*
X340700Y168300D01*
X340800Y175500D02*
X340200Y175846D01*
Y175154D01*
X340800Y175500D01*
X354700Y168400D02*
X354100Y168746D01*
Y168054D01*
X354700Y168400D01*
X365800Y179100D02*
X365200Y179446D01*
Y178754D01*
X365800Y179100D01*
Y198200D02*
X365200Y198546D01*
Y197854D01*
X365800Y198200D01*
X375400Y188300D02*
X374800Y188646D01*
Y187954D01*
X375400Y188300D01*
X382100Y185300D02*
X381500Y185646D01*
Y184954D01*
X382100Y185300D01*
X382000Y177500D02*
X381400Y177846D01*
Y177154D01*
X382000Y177500D01*
X372400Y166800D02*
X371800Y167146D01*
Y166454D01*
X372400Y166800D01*
X357500Y179600D02*
X356900Y179946D01*
Y179254D01*
X357500Y179600D01*
X373700Y179700D02*
X373100Y180046D01*
Y179354D01*
X373700Y179700D01*
X350800Y98900D02*
X350200Y99246D01*
Y98554D01*
X350800Y98900D01*
X326800Y115300D02*
X326200Y115646D01*
Y114954D01*
X326800Y115300D01*
X334100Y105100D02*
X333500Y105446D01*
Y104754D01*
X334100Y105100D01*
X340600Y115200D02*
X340000Y115546D01*
Y114854D01*
X340600Y115200D01*
X336400Y125500D02*
X335800Y125846D01*
Y125154D01*
X336400Y125500D01*
X347300D02*
X346700Y125846D01*
Y125154D01*
X347300Y125500D01*
X355700Y115500D02*
X355100Y115846D01*
Y115154D01*
X355700Y115500D01*
X347300Y104900D02*
X346700Y105246D01*
Y104554D01*
X347300Y104900D01*
X379600Y106800D02*
X379000Y107146D01*
Y106454D01*
X379600Y106800D01*
X379400Y128800D02*
X378800Y129146D01*
Y128454D01*
X379400Y128800D01*
X374900Y123600D02*
X374300Y123946D01*
Y123254D01*
X374900Y123600D01*
X365800Y132500D02*
X365200Y132846D01*
Y132154D01*
X365800Y132500D01*
X356500Y123300D02*
X355900Y123646D01*
Y122954D01*
X356500Y123300D01*
X365700Y113500D02*
X365100Y113846D01*
Y113154D01*
X365700Y113500D01*
X381600Y117900D02*
X381000Y118246D01*
Y117554D01*
X381600Y117900D01*
X342900Y131600D02*
X342300Y131946D01*
Y131254D01*
X342900Y131600D01*
X364100Y105100D02*
X363500Y105446D01*
Y104754D01*
X364100Y105100D01*
X311300Y67300D02*
X310700Y67646D01*
Y66954D01*
X311300Y67300D01*
X304800Y77400D02*
X304200Y77746D01*
Y77054D01*
X304800Y77400D01*
X310600Y58900D02*
X310000Y59246D01*
Y58554D01*
X310600Y58900D01*
X317800Y57400D02*
X317200Y57746D01*
Y57054D01*
X317800Y57400D01*
X327100Y91400D02*
X326500Y91746D01*
Y91054D01*
X327100Y91400D01*
X326000Y85400D02*
X325400Y85746D01*
Y85054D01*
X326000Y85400D01*
X337500Y88900D02*
X336900Y89246D01*
Y88554D01*
X337500Y88900D01*
X342000D02*
X341400Y89246D01*
Y88554D01*
X342000Y88900D01*
X327000Y79400D02*
X326400Y79746D01*
Y79054D01*
X327000Y79400D01*
X323100Y75600D02*
X322500Y75946D01*
Y75254D01*
X323100Y75600D01*
X318200Y77300D02*
X317600Y77646D01*
Y76954D01*
X318200Y77300D01*
X315400Y45100D02*
X314800Y45446D01*
Y44754D01*
X315400Y45100D01*
X353800Y89200D02*
X353200Y89546D01*
Y88854D01*
X353800Y89200D01*
X353400Y79700D02*
X352800Y80046D01*
Y79354D01*
X353400Y79700D01*
X352900Y85400D02*
X352300Y85746D01*
Y85054D01*
X352900Y85400D01*
X362900Y79800D02*
X362300Y80146D01*
Y79454D01*
X362900Y79800D01*
X379600Y63500D02*
X379000Y63846D01*
Y63154D01*
X379600Y63500D01*
X365800Y68100D02*
X365200Y68446D01*
Y67754D01*
X365800Y68100D01*
X366000Y49000D02*
X365400Y49346D01*
Y48654D01*
X366000Y49000D01*
X357400Y54100D02*
X356800Y54446D01*
Y53754D01*
X357400Y54100D01*
X375200Y58500D02*
X374600Y58846D01*
Y58154D01*
X375200Y58500D01*
X364100Y39800D02*
X363500Y40146D01*
Y39454D01*
X364100Y39800D01*
X357600Y33900D02*
X357000Y34246D01*
Y33554D01*
X357600Y33900D01*
X364100Y27700D02*
X363500Y28046D01*
Y27354D01*
X364100Y27700D01*
X377500Y36700D02*
X376900Y37046D01*
Y36354D01*
X377500Y36700D01*
X340100Y74600D02*
X339500Y74946D01*
Y74254D01*
X340100Y74600D01*
X340300Y67100D02*
X339700Y67446D01*
Y66754D01*
X340300Y67100D01*
X346600Y56900D02*
X346000Y57246D01*
Y56554D01*
X346600Y56900D01*
X333900Y57300D02*
X333300Y57646D01*
Y56954D01*
X333900Y57300D01*
X337100Y37600D02*
X336500Y37946D01*
Y37254D01*
X337100Y37600D01*
X333600Y47800D02*
X333000Y48146D01*
Y47454D01*
X333600Y47800D01*
X348300Y35500D02*
X347700Y35846D01*
Y35154D01*
X348300Y35500D01*
X361100Y22600D02*
X360500Y22946D01*
Y22254D01*
X361100Y22600D01*
X366900Y22700D02*
X366300Y23046D01*
Y22354D01*
X366900Y22700D01*
X357567Y17790D02*
X356967Y18136D01*
Y17443D01*
X357567Y17790D01*
X340400Y14100D02*
X339800Y14446D01*
Y13754D01*
X340400Y14100D01*
X346900Y22200D02*
X346300Y22546D01*
Y21854D01*
X346900Y22200D01*
X333400Y23500D02*
X332800Y23846D01*
Y23154D01*
X333400Y23500D01*
X327800Y14100D02*
X327200Y14446D01*
Y13754D01*
X327800Y14100D01*
X247500Y71600D02*
X246900Y71946D01*
Y71254D01*
X247500Y71600D01*
X280625Y23874D02*
X280025Y24221D01*
Y23528D01*
X280625Y23874D01*
X270500Y30200D02*
X269900Y30546D01*
Y29854D01*
X270500Y30200D01*
Y26500D02*
X269900Y26846D01*
Y26154D01*
X270500Y26500D01*
Y22800D02*
X269900Y23146D01*
Y22454D01*
X270500Y22800D01*
X311100Y14200D02*
X310500Y14546D01*
Y13854D01*
X311100Y14200D01*
X304800Y23500D02*
X304200Y23846D01*
Y23154D01*
X304800Y23500D01*
X246500Y61900D02*
X245900Y62246D01*
Y61554D01*
X246500Y61900D01*
X249800Y85200D02*
X249200Y85546D01*
Y84854D01*
X249800Y85200D01*
X302000Y201600D02*
X301400Y201946D01*
Y201254D01*
X302000Y201600D01*
X312000D02*
X311400Y201946D01*
Y201254D01*
X312000Y201600D01*
Y211600D02*
X311400Y211946D01*
Y211254D01*
X312000Y211600D01*
X322000D02*
X321400Y211946D01*
Y211254D01*
X322000Y211600D01*
Y201600D02*
X321400Y201946D01*
Y201254D01*
X322000Y201600D01*
X332000D02*
X331400Y201946D01*
Y201254D01*
X332000Y201600D01*
Y211600D02*
X331400Y211946D01*
Y211254D01*
X332000Y211600D01*
X342000D02*
X341400Y211946D01*
Y211254D01*
X342000Y211600D01*
Y201600D02*
X341400Y201946D01*
Y201254D01*
X342000Y201600D01*
Y191600D02*
X341400Y191946D01*
Y191254D01*
X342000Y191600D01*
X332000D02*
X331400Y191946D01*
Y191254D01*
X332000Y191600D01*
Y181600D02*
X331400Y181946D01*
Y181254D01*
X332000Y181600D01*
X352000Y196600D02*
X351400Y196946D01*
Y196254D01*
X352000Y196600D01*
X37000Y271600D02*
X36400Y271946D01*
Y271254D01*
X37000Y271600D01*
X366100Y11800D02*
X365500Y12146D01*
Y11454D01*
X366100Y11800D01*
X285900Y34400D02*
X285300Y34746D01*
Y34054D01*
X285900Y34400D01*
X270409Y9815D02*
X269809Y10161D01*
Y9469D01*
X270409Y9815D01*
Y13515D02*
X269809Y13861D01*
Y13169D01*
X270409Y13515D01*
Y17215D02*
X269809Y17561D01*
Y16869D01*
X270409Y17215D01*
X281100Y12200D02*
X280500Y12546D01*
Y11854D01*
X281100Y12200D01*
X295800Y68900D02*
X295200Y69247D01*
Y68554D01*
X295800Y68900D01*
X257200Y83900D02*
X256600Y84246D01*
Y83554D01*
X257200Y83900D01*
X257300Y71500D02*
X256700Y71846D01*
Y71154D01*
X257300Y71500D01*
X247500Y76500D02*
X246900Y76846D01*
Y76154D01*
X247500Y76500D01*
X257300D02*
X256700Y76846D01*
Y76154D01*
X257300Y76500D01*
X330900Y222100D02*
X330300Y222446D01*
Y221754D01*
X330900Y222100D01*
X327100D02*
X326500Y222446D01*
Y221754D01*
X327100Y222100D01*
X304700Y111700D02*
X304100Y112046D01*
Y111354D01*
X304700Y111700D01*
X225800Y185100D02*
X225200Y185446D01*
Y184754D01*
X225800Y185100D01*
X298300Y123500D02*
X297700Y123846D01*
Y123154D01*
X298300Y123500D01*
X223500Y154100D02*
X222900Y154446D01*
Y153754D01*
X223500Y154100D01*
X213900Y159100D02*
X213300Y159446D01*
Y158754D01*
X213900Y159100D01*
X277400Y130800D02*
X276800Y131146D01*
Y130454D01*
X277400Y130800D01*
X277200Y126200D02*
X276600Y126546D01*
Y125854D01*
X277200Y126200D01*
X337000Y251400D02*
X336400Y251746D01*
Y251054D01*
X337000Y251400D01*
X33800Y220100D02*
X33200Y220446D01*
Y219754D01*
X33800Y220100D01*
X26700Y213500D02*
X26100Y213846D01*
Y213154D01*
X26700Y213500D01*
X120500Y125900D02*
X119900Y126246D01*
Y125554D01*
X120500Y125900D01*
X120100Y139000D02*
X119500Y139346D01*
Y138654D01*
X120100Y139000D01*
X173060Y192207D02*
X172460Y192553D01*
Y191861D01*
X173060Y192207D01*
X208300Y185800D02*
X207700Y186146D01*
Y185454D01*
X208300Y185800D01*
X316100Y84800D02*
X315500Y85146D01*
Y84454D01*
X316100Y84800D01*
X306900D02*
X306300Y85146D01*
Y84454D01*
X306900Y84800D01*
X316100Y90000D02*
X315500Y90346D01*
Y89654D01*
X316100Y90000D01*
X306900D02*
X306300Y90346D01*
Y89654D01*
X306900Y90000D01*
Y95100D02*
X306300Y95446D01*
Y94754D01*
X306900Y95100D01*
X316100D02*
X315500Y95446D01*
Y94754D01*
X316100Y95100D01*
X305866Y156138D02*
X305266Y156484D01*
Y155791D01*
X305866Y156138D01*
X315966D02*
X315366Y156484D01*
Y155791D01*
X315966Y156138D01*
X310966D02*
X310366Y156484D01*
Y155791D01*
X310966Y156138D01*
M02*
