G04 Layer_Color=128*
%FSLAX25Y25*%
%MOIN*%
G70*
G01*
G75*
%ADD67C,0.01000*%
G04:AMPARAMS|DCode=265|XSize=44mil|YSize=61mil|CornerRadius=10.5mil|HoleSize=0mil|Usage=FLASHONLY|Rotation=270.000|XOffset=0mil|YOffset=0mil|HoleType=Round|Shape=RoundedRectangle|*
%AMROUNDEDRECTD265*
21,1,0.04400,0.04000,0,0,270.0*
21,1,0.02300,0.06100,0,0,270.0*
1,1,0.02100,-0.02000,-0.01150*
1,1,0.02100,-0.02000,0.01150*
1,1,0.02100,0.02000,0.01150*
1,1,0.02100,0.02000,-0.01150*
%
%ADD265ROUNDEDRECTD265*%
G04:AMPARAMS|DCode=266|XSize=44mil|YSize=61mil|CornerRadius=10.5mil|HoleSize=0mil|Usage=FLASHONLY|Rotation=180.000|XOffset=0mil|YOffset=0mil|HoleType=Round|Shape=RoundedRectangle|*
%AMROUNDEDRECTD266*
21,1,0.04400,0.04000,0,0,180.0*
21,1,0.02300,0.06100,0,0,180.0*
1,1,0.02100,-0.01150,0.02000*
1,1,0.02100,0.01150,0.02000*
1,1,0.02100,0.01150,-0.02000*
1,1,0.02100,-0.01150,-0.02000*
%
%ADD266ROUNDEDRECTD266*%
G54D67*
X6664Y382497D02*
X0D01*
Y372500D01*
X6664D01*
X0Y377498D02*
X3332D01*
X9997Y382497D02*
X13329D01*
X11663D01*
Y372500D01*
X9997D01*
X13329D01*
X18327D02*
Y382497D01*
X24992Y372500D01*
Y382497D01*
X28324D02*
Y380831D01*
X31656Y377498D01*
X34989Y380831D01*
Y382497D01*
X31656Y377498D02*
Y372500D01*
X48318Y380831D02*
X49984Y382497D01*
X53316D01*
X54982Y380831D01*
Y374166D01*
X53316Y372500D01*
X49984D01*
X48318Y374166D01*
Y380831D01*
X58315Y372500D02*
Y374166D01*
X59981D01*
Y372500D01*
X58315D01*
X73310D02*
X66645D01*
X73310Y379165D01*
Y380831D01*
X71644Y382497D01*
X68311D01*
X66645Y380831D01*
X78308Y379165D02*
X81640D01*
X83306Y377498D01*
Y372500D01*
X78308D01*
X76642Y374166D01*
X78308Y375832D01*
X83306D01*
X0Y397497D02*
Y387500D01*
X4998D01*
X6664Y389166D01*
Y390832D01*
X4998Y392498D01*
X0D01*
X4998D01*
X6664Y394164D01*
Y395831D01*
X4998Y397497D01*
X0D01*
X14995D02*
X11663D01*
X9997Y395831D01*
Y389166D01*
X11663Y387500D01*
X14995D01*
X16661Y389166D01*
Y395831D01*
X14995Y397497D01*
X19994D02*
X26658D01*
X23326D01*
Y387500D01*
X29990Y397497D02*
X36655D01*
X33323D01*
Y387500D01*
X44985Y397497D02*
X41653D01*
X39987Y395831D01*
Y389166D01*
X41653Y387500D01*
X44985D01*
X46652Y389166D01*
Y395831D01*
X44985Y397497D01*
X49984Y387500D02*
Y397497D01*
X53316Y394164D01*
X56648Y397497D01*
Y387500D01*
X69977D02*
Y397497D01*
X74976D01*
X76642Y395831D01*
Y392498D01*
X74976Y390832D01*
X69977D01*
X79974Y387500D02*
Y394164D01*
X83306Y397497D01*
X86639Y394164D01*
Y387500D01*
Y392498D01*
X79974D01*
X96635Y395831D02*
X94969Y397497D01*
X91637D01*
X89971Y395831D01*
Y394164D01*
X91637Y392498D01*
X94969D01*
X96635Y390832D01*
Y389166D01*
X94969Y387500D01*
X91637D01*
X89971Y389166D01*
X99968Y397497D02*
X106632D01*
X103300D01*
Y387500D01*
X116629Y397497D02*
X109965D01*
Y387500D01*
X116629D01*
X109965Y392498D02*
X113297D01*
G54D265*
X87919Y183541D02*
D03*
Y189541D02*
D03*
G54D266*
X397700Y91000D02*
D03*
X403700D02*
D03*
M02*
