G04 Layer_Color=32896*
%FSLAX24Y24*%
%MOIN*%
G70*
G01*
G75*
%ADD12C,0.0100*%
%ADD15C,0.0080*%
%ADD142C,0.0060*%
%ADD148C,0.0020*%
%ADD150C,0.0040*%
%ADD154R,0.0295X0.0879*%
%ADD155R,0.0879X0.0295*%
%ADD283C,0.0010*%
%ADD284C,0.0039*%
%ADD285R,0.0118X0.0240*%
%ADD286R,0.0110X0.0240*%
%ADD287R,0.0197X0.0413*%
%ADD288R,0.0236X0.0246*%
%ADD289R,0.0190X0.0413*%
%ADD290R,0.0230X0.0246*%
%ADD291R,0.0246X0.0230*%
%ADD292R,0.0413X0.0190*%
%ADD293R,0.0246X0.0236*%
%ADD294R,0.0413X0.0197*%
%ADD295R,0.0240X0.0110*%
%ADD296R,0.0240X0.0118*%
%ADD297R,0.0118X0.0240*%
%ADD298R,0.0138X0.0315*%
%ADD299R,0.0315X0.0138*%
%ADD300R,0.0295X0.0575*%
%ADD301R,0.0300X0.0575*%
%ADD302R,0.0575X0.0300*%
%ADD303R,0.0575X0.0295*%
%ADD304R,0.0240X0.0118*%
%ADD305R,0.0290X0.0630*%
%ADD306R,0.0630X0.0290*%
%ADD307R,0.0190X0.0194*%
%ADD308R,0.0187X0.0194*%
%ADD309R,0.0194X0.0194*%
%ADD310R,0.0194X0.0187*%
%ADD311R,0.0194X0.0190*%
%ADD312R,0.0460X0.0140*%
%ADD313R,0.0470X0.0140*%
%ADD314R,0.0010X0.0010*%
%ADD315R,0.0020X0.0010*%
%ADD316R,0.0011X0.0010*%
%ADD317R,0.0021X0.0010*%
%ADD318R,0.0200X0.0200*%
%ADD319R,0.0120X0.0413*%
%ADD320R,0.0110X0.0413*%
%ADD321R,0.0119X0.0413*%
%ADD322R,0.0118X0.0413*%
%ADD323R,0.0118X0.0413*%
%ADD324R,0.0118X0.0413*%
%ADD325R,0.0118X0.0413*%
%ADD326R,0.0413X0.0118*%
%ADD327R,0.0413X0.0118*%
%ADD328R,0.0413X0.0118*%
%ADD329R,0.0413X0.0119*%
%ADD330R,0.0413X0.0120*%
%ADD331R,0.0413X0.0110*%
%ADD332R,0.0118X0.0410*%
%ADD333R,0.0118X0.0410*%
%ADD334R,0.0118X0.0410*%
%ADD335R,0.0119X0.0410*%
%ADD336R,0.0120X0.0410*%
%ADD337R,0.0110X0.0410*%
%ADD338R,0.0410X0.0120*%
%ADD339R,0.0410X0.0110*%
%ADD340R,0.0410X0.0119*%
%ADD341R,0.0410X0.0118*%
%ADD342R,0.0410X0.0118*%
%ADD343R,0.0410X0.0118*%
%ADD344R,0.0193X0.0440*%
%ADD345R,0.0190X0.0440*%
%ADD346R,0.0190X0.0433*%
%ADD347R,0.0193X0.0433*%
%ADD348R,0.0236X0.0536*%
%ADD349R,0.0240X0.0536*%
%ADD350R,0.0165X0.0635*%
%ADD351R,0.0170X0.0645*%
%ADD352R,0.0317X0.0114*%
%ADD353R,0.0137X0.0080*%
%ADD354R,0.0137X0.0083*%
%ADD355R,0.0635X0.0165*%
%ADD356R,0.0645X0.0170*%
%ADD357R,0.0860X0.0210*%
%ADD358R,0.0556X0.0079*%
%ADD359R,0.0536X0.0236*%
%ADD360R,0.0536X0.0240*%
G36*
X47793Y94837D02*
X47794Y94836D01*
X47795Y94834D01*
X47797Y94831D01*
X47798Y94827D01*
X47800Y94823D01*
X47806Y94814D01*
X47812Y94803D01*
X47820Y94791D01*
X47829Y94778D01*
X47839Y94767D01*
X47840Y94766D01*
X47840Y94766D01*
X47844Y94762D01*
X47849Y94757D01*
X47856Y94750D01*
X47864Y94743D01*
X47873Y94736D01*
X47883Y94729D01*
X47893Y94723D01*
Y94691D01*
X47494D01*
Y94740D01*
X47804D01*
X47804Y94741D01*
X47801Y94743D01*
X47798Y94748D01*
X47794Y94753D01*
X47789Y94760D01*
X47783Y94768D01*
X47777Y94777D01*
X47771Y94787D01*
Y94788D01*
X47770Y94788D01*
X47768Y94792D01*
X47765Y94797D01*
X47761Y94804D01*
X47757Y94812D01*
X47753Y94820D01*
X47749Y94829D01*
X47745Y94838D01*
X47793D01*
Y94837D01*
D02*
G37*
G36*
X21479Y94089D02*
X21479Y94090D01*
X21482Y94092D01*
X21486Y94095D01*
X21491Y94100D01*
X21498Y94105D01*
X21506Y94110D01*
X21515Y94117D01*
X21525Y94123D01*
X21526D01*
X21526Y94124D01*
X21530Y94126D01*
X21535Y94129D01*
X21542Y94133D01*
X21550Y94137D01*
X21558Y94141D01*
X21568Y94145D01*
X21576Y94149D01*
Y94101D01*
X21575D01*
X21574Y94100D01*
X21572Y94099D01*
X21569Y94097D01*
X21566Y94095D01*
X21562Y94094D01*
X21552Y94088D01*
X21541Y94081D01*
X21529Y94074D01*
X21517Y94065D01*
X21505Y94055D01*
X21505Y94054D01*
X21504Y94054D01*
X21500Y94050D01*
X21495Y94045D01*
X21488Y94038D01*
X21481Y94029D01*
X21474Y94020D01*
X21467Y94011D01*
X21462Y94001D01*
X21430D01*
Y94400D01*
X21479D01*
Y94089D01*
D02*
G37*
G36*
X18269D02*
X18269Y94090D01*
X18272Y94092D01*
X18276Y94095D01*
X18281Y94100D01*
X18288Y94105D01*
X18296Y94110D01*
X18305Y94117D01*
X18315Y94123D01*
X18316D01*
X18316Y94124D01*
X18320Y94126D01*
X18325Y94129D01*
X18332Y94133D01*
X18340Y94137D01*
X18348Y94141D01*
X18358Y94145D01*
X18366Y94149D01*
Y94101D01*
X18365D01*
X18364Y94100D01*
X18362Y94099D01*
X18359Y94097D01*
X18356Y94095D01*
X18352Y94094D01*
X18342Y94088D01*
X18331Y94081D01*
X18319Y94074D01*
X18307Y94065D01*
X18295Y94055D01*
X18295Y94054D01*
X18294Y94054D01*
X18290Y94050D01*
X18285Y94045D01*
X18278Y94038D01*
X18271Y94029D01*
X18264Y94020D01*
X18257Y94011D01*
X18252Y94001D01*
X18220D01*
Y94400D01*
X18269D01*
Y94089D01*
D02*
G37*
G36*
X16262Y90740D02*
X16213D01*
Y91051D01*
X16213Y91051D01*
X16210Y91048D01*
X16206Y91045D01*
X16201Y91041D01*
X16194Y91036D01*
X16186Y91030D01*
X16177Y91023D01*
X16167Y91017D01*
X16166D01*
X16166Y91017D01*
X16162Y91014D01*
X16157Y91011D01*
X16150Y91008D01*
X16142Y91003D01*
X16134Y91000D01*
X16124Y90996D01*
X16116Y90992D01*
Y91040D01*
X16117D01*
X16118Y91040D01*
X16120Y91042D01*
X16123Y91043D01*
X16126Y91045D01*
X16131Y91047D01*
X16140Y91052D01*
X16151Y91059D01*
X16163Y91067D01*
X16175Y91076D01*
X16187Y91086D01*
X16187Y91086D01*
X16188Y91087D01*
X16192Y91091D01*
X16197Y91096D01*
X16204Y91103D01*
X16211Y91111D01*
X16218Y91120D01*
X16225Y91130D01*
X16230Y91140D01*
X16262D01*
Y90740D01*
D02*
G37*
G36*
X35147Y86794D02*
X35148Y86792D01*
X35149Y86790D01*
X35151Y86788D01*
X35152Y86784D01*
X35154Y86780D01*
X35160Y86770D01*
X35166Y86759D01*
X35174Y86747D01*
X35183Y86735D01*
X35193Y86723D01*
X35194Y86723D01*
X35194Y86722D01*
X35198Y86719D01*
X35203Y86713D01*
X35210Y86707D01*
X35218Y86699D01*
X35227Y86692D01*
X35237Y86685D01*
X35247Y86680D01*
Y86648D01*
X34847D01*
Y86697D01*
X35158D01*
X35158Y86697D01*
X35155Y86700D01*
X35152Y86704D01*
X35148Y86710D01*
X35143Y86716D01*
X35137Y86724D01*
X35131Y86733D01*
X35125Y86743D01*
Y86744D01*
X35124Y86745D01*
X35122Y86748D01*
X35118Y86754D01*
X35115Y86760D01*
X35111Y86768D01*
X35107Y86777D01*
X35103Y86786D01*
X35099Y86794D01*
X35147D01*
Y86794D01*
D02*
G37*
G36*
X38533Y83635D02*
X38223D01*
X38223Y83635D01*
X38226Y83632D01*
X38229Y83628D01*
X38233Y83622D01*
X38238Y83616D01*
X38244Y83608D01*
X38250Y83599D01*
X38256Y83589D01*
Y83588D01*
X38257Y83587D01*
X38259Y83584D01*
X38262Y83578D01*
X38266Y83572D01*
X38270Y83564D01*
X38274Y83555D01*
X38278Y83546D01*
X38282Y83538D01*
X38234D01*
Y83538D01*
X38233Y83540D01*
X38232Y83542D01*
X38230Y83544D01*
X38229Y83548D01*
X38227Y83552D01*
X38221Y83562D01*
X38215Y83573D01*
X38207Y83585D01*
X38198Y83597D01*
X38188Y83609D01*
X38187Y83609D01*
X38187Y83610D01*
X38183Y83613D01*
X38178Y83619D01*
X38171Y83625D01*
X38163Y83633D01*
X38154Y83640D01*
X38144Y83647D01*
X38134Y83652D01*
Y83684D01*
X38533D01*
Y83635D01*
D02*
G37*
G36*
X35147Y83683D02*
X35148Y83682D01*
X35149Y83680D01*
X35151Y83677D01*
X35152Y83674D01*
X35154Y83670D01*
X35160Y83660D01*
X35166Y83649D01*
X35174Y83637D01*
X35183Y83625D01*
X35193Y83613D01*
X35194Y83613D01*
X35194Y83612D01*
X35198Y83608D01*
X35203Y83603D01*
X35210Y83596D01*
X35218Y83589D01*
X35227Y83582D01*
X35237Y83575D01*
X35247Y83570D01*
Y83538D01*
X34847D01*
Y83587D01*
X35158D01*
X35158Y83587D01*
X35155Y83590D01*
X35152Y83594D01*
X35148Y83599D01*
X35143Y83606D01*
X35137Y83614D01*
X35131Y83623D01*
X35125Y83633D01*
Y83634D01*
X35124Y83634D01*
X35122Y83638D01*
X35118Y83644D01*
X35115Y83650D01*
X35111Y83658D01*
X35107Y83667D01*
X35103Y83676D01*
X35099Y83684D01*
X35147D01*
Y83683D01*
D02*
G37*
G36*
Y80573D02*
X35148Y80572D01*
X35149Y80570D01*
X35151Y80567D01*
X35152Y80564D01*
X35154Y80559D01*
X35160Y80550D01*
X35166Y80539D01*
X35174Y80527D01*
X35183Y80515D01*
X35193Y80503D01*
X35194Y80502D01*
X35194Y80502D01*
X35198Y80498D01*
X35203Y80493D01*
X35210Y80486D01*
X35218Y80479D01*
X35227Y80472D01*
X35237Y80465D01*
X35247Y80459D01*
Y80427D01*
X34847D01*
Y80476D01*
X35158D01*
X35158Y80477D01*
X35155Y80479D01*
X35152Y80484D01*
X35148Y80489D01*
X35143Y80496D01*
X35137Y80504D01*
X35131Y80513D01*
X35125Y80523D01*
Y80524D01*
X35124Y80524D01*
X35122Y80528D01*
X35118Y80533D01*
X35115Y80540D01*
X35111Y80548D01*
X35107Y80556D01*
X35103Y80565D01*
X35099Y80574D01*
X35147D01*
Y80573D01*
D02*
G37*
G36*
X38523Y79495D02*
X38213D01*
X38213Y79495D01*
X38216Y79492D01*
X38219Y79488D01*
X38223Y79482D01*
X38228Y79476D01*
X38234Y79468D01*
X38240Y79459D01*
X38246Y79449D01*
Y79448D01*
X38247Y79447D01*
X38249Y79444D01*
X38252Y79438D01*
X38256Y79432D01*
X38260Y79424D01*
X38264Y79415D01*
X38268Y79406D01*
X38272Y79398D01*
X38224D01*
Y79398D01*
X38223Y79400D01*
X38222Y79402D01*
X38220Y79404D01*
X38219Y79408D01*
X38217Y79412D01*
X38211Y79422D01*
X38205Y79433D01*
X38197Y79445D01*
X38188Y79457D01*
X38178Y79469D01*
X38177Y79469D01*
X38177Y79470D01*
X38173Y79473D01*
X38168Y79479D01*
X38161Y79485D01*
X38153Y79493D01*
X38144Y79500D01*
X38134Y79507D01*
X38124Y79512D01*
Y79544D01*
X38523D01*
Y79495D01*
D02*
G37*
G36*
X47793Y66845D02*
X47794Y66844D01*
X47795Y66841D01*
X47797Y66839D01*
X47798Y66835D01*
X47800Y66831D01*
X47806Y66821D01*
X47812Y66811D01*
X47820Y66798D01*
X47829Y66786D01*
X47839Y66775D01*
X47840Y66774D01*
X47840Y66774D01*
X47844Y66770D01*
X47849Y66765D01*
X47856Y66758D01*
X47864Y66751D01*
X47873Y66743D01*
X47883Y66737D01*
X47893Y66731D01*
Y66699D01*
X47494D01*
Y66748D01*
X47804D01*
X47804Y66749D01*
X47801Y66751D01*
X47798Y66755D01*
X47794Y66761D01*
X47789Y66768D01*
X47783Y66775D01*
X47777Y66785D01*
X47771Y66795D01*
Y66795D01*
X47770Y66796D01*
X47768Y66800D01*
X47765Y66805D01*
X47761Y66812D01*
X47757Y66820D01*
X47753Y66828D01*
X47749Y66837D01*
X47745Y66846D01*
X47793D01*
Y66845D01*
D02*
G37*
G36*
X21479Y66097D02*
X21479Y66098D01*
X21482Y66100D01*
X21486Y66103D01*
X21491Y66107D01*
X21498Y66113D01*
X21506Y66118D01*
X21515Y66125D01*
X21525Y66131D01*
X21526D01*
X21526Y66132D01*
X21530Y66134D01*
X21535Y66137D01*
X21542Y66141D01*
X21550Y66145D01*
X21558Y66149D01*
X21568Y66153D01*
X21576Y66156D01*
Y66109D01*
X21575D01*
X21574Y66108D01*
X21572Y66107D01*
X21569Y66105D01*
X21566Y66103D01*
X21562Y66101D01*
X21552Y66096D01*
X21541Y66089D01*
X21529Y66081D01*
X21517Y66072D01*
X21505Y66063D01*
X21505Y66062D01*
X21504Y66061D01*
X21500Y66058D01*
X21495Y66052D01*
X21488Y66046D01*
X21481Y66037D01*
X21474Y66028D01*
X21467Y66019D01*
X21462Y66009D01*
X21430D01*
Y66408D01*
X21479D01*
Y66097D01*
D02*
G37*
G36*
X18269D02*
X18269Y66098D01*
X18272Y66100D01*
X18276Y66103D01*
X18281Y66107D01*
X18288Y66113D01*
X18296Y66118D01*
X18305Y66125D01*
X18315Y66131D01*
X18316D01*
X18316Y66132D01*
X18320Y66134D01*
X18325Y66137D01*
X18332Y66141D01*
X18340Y66145D01*
X18348Y66149D01*
X18358Y66153D01*
X18366Y66156D01*
Y66109D01*
X18365D01*
X18364Y66108D01*
X18362Y66107D01*
X18359Y66105D01*
X18356Y66103D01*
X18352Y66101D01*
X18342Y66096D01*
X18331Y66089D01*
X18319Y66081D01*
X18307Y66072D01*
X18295Y66063D01*
X18295Y66062D01*
X18294Y66061D01*
X18290Y66058D01*
X18285Y66052D01*
X18278Y66046D01*
X18271Y66037D01*
X18264Y66028D01*
X18257Y66019D01*
X18252Y66009D01*
X18220D01*
Y66408D01*
X18269D01*
Y66097D01*
D02*
G37*
G36*
X16262Y62748D02*
X16213D01*
Y63059D01*
X16213Y63059D01*
X16210Y63056D01*
X16206Y63053D01*
X16201Y63049D01*
X16194Y63043D01*
X16186Y63038D01*
X16177Y63031D01*
X16167Y63025D01*
X16166D01*
X16166Y63025D01*
X16162Y63022D01*
X16157Y63019D01*
X16150Y63016D01*
X16142Y63011D01*
X16134Y63008D01*
X16124Y63003D01*
X16116Y63000D01*
Y63048D01*
X16117D01*
X16118Y63048D01*
X16120Y63049D01*
X16123Y63051D01*
X16126Y63053D01*
X16131Y63055D01*
X16140Y63060D01*
X16151Y63067D01*
X16163Y63075D01*
X16175Y63084D01*
X16187Y63094D01*
X16187Y63094D01*
X16188Y63095D01*
X16192Y63098D01*
X16197Y63104D01*
X16204Y63111D01*
X16211Y63119D01*
X16218Y63128D01*
X16225Y63138D01*
X16230Y63147D01*
X16262D01*
Y62748D01*
D02*
G37*
G36*
X35147Y58802D02*
X35148Y58800D01*
X35149Y58798D01*
X35151Y58796D01*
X35152Y58792D01*
X35154Y58788D01*
X35160Y58778D01*
X35166Y58767D01*
X35174Y58755D01*
X35183Y58743D01*
X35193Y58731D01*
X35194Y58731D01*
X35194Y58730D01*
X35198Y58727D01*
X35203Y58721D01*
X35210Y58714D01*
X35218Y58707D01*
X35227Y58700D01*
X35237Y58693D01*
X35247Y58688D01*
Y58656D01*
X34847D01*
Y58705D01*
X35158D01*
X35158Y58705D01*
X35155Y58708D01*
X35152Y58712D01*
X35148Y58717D01*
X35143Y58724D01*
X35137Y58732D01*
X35131Y58741D01*
X35125Y58751D01*
Y58752D01*
X35124Y58753D01*
X35122Y58756D01*
X35118Y58762D01*
X35115Y58768D01*
X35111Y58776D01*
X35107Y58785D01*
X35103Y58794D01*
X35099Y58802D01*
X35147D01*
Y58802D01*
D02*
G37*
G36*
X38533Y55643D02*
X38223D01*
X38223Y55642D01*
X38226Y55640D01*
X38229Y55636D01*
X38233Y55630D01*
X38238Y55624D01*
X38244Y55616D01*
X38250Y55607D01*
X38256Y55596D01*
Y55596D01*
X38257Y55595D01*
X38259Y55592D01*
X38262Y55586D01*
X38266Y55580D01*
X38270Y55572D01*
X38274Y55563D01*
X38278Y55554D01*
X38282Y55546D01*
X38234D01*
Y55546D01*
X38233Y55547D01*
X38232Y55550D01*
X38230Y55552D01*
X38229Y55556D01*
X38227Y55560D01*
X38221Y55570D01*
X38215Y55581D01*
X38207Y55593D01*
X38198Y55605D01*
X38188Y55616D01*
X38187Y55617D01*
X38187Y55618D01*
X38183Y55621D01*
X38178Y55627D01*
X38171Y55633D01*
X38163Y55641D01*
X38154Y55648D01*
X38144Y55655D01*
X38134Y55660D01*
Y55692D01*
X38533D01*
Y55643D01*
D02*
G37*
G36*
X35147Y55691D02*
X35148Y55690D01*
X35149Y55688D01*
X35151Y55685D01*
X35152Y55682D01*
X35154Y55677D01*
X35160Y55668D01*
X35166Y55657D01*
X35174Y55645D01*
X35183Y55633D01*
X35193Y55621D01*
X35194Y55621D01*
X35194Y55620D01*
X35198Y55616D01*
X35203Y55611D01*
X35210Y55604D01*
X35218Y55597D01*
X35227Y55590D01*
X35237Y55583D01*
X35247Y55578D01*
Y55546D01*
X34847D01*
Y55595D01*
X35158D01*
X35158Y55595D01*
X35155Y55598D01*
X35152Y55602D01*
X35148Y55607D01*
X35143Y55614D01*
X35137Y55622D01*
X35131Y55631D01*
X35125Y55641D01*
Y55642D01*
X35124Y55642D01*
X35122Y55646D01*
X35118Y55651D01*
X35115Y55658D01*
X35111Y55666D01*
X35107Y55674D01*
X35103Y55683D01*
X35099Y55692D01*
X35147D01*
Y55691D01*
D02*
G37*
G36*
Y52581D02*
X35148Y52580D01*
X35149Y52577D01*
X35151Y52575D01*
X35152Y52571D01*
X35154Y52567D01*
X35160Y52557D01*
X35166Y52547D01*
X35174Y52534D01*
X35183Y52522D01*
X35193Y52511D01*
X35194Y52510D01*
X35194Y52510D01*
X35198Y52506D01*
X35203Y52501D01*
X35210Y52494D01*
X35218Y52487D01*
X35227Y52479D01*
X35237Y52473D01*
X35247Y52467D01*
Y52435D01*
X34847D01*
Y52484D01*
X35158D01*
X35158Y52485D01*
X35155Y52487D01*
X35152Y52492D01*
X35148Y52497D01*
X35143Y52504D01*
X35137Y52512D01*
X35131Y52521D01*
X35125Y52531D01*
Y52531D01*
X35124Y52532D01*
X35122Y52536D01*
X35118Y52541D01*
X35115Y52548D01*
X35111Y52556D01*
X35107Y52564D01*
X35103Y52573D01*
X35099Y52582D01*
X35147D01*
Y52581D01*
D02*
G37*
G36*
X38523Y51503D02*
X38213D01*
X38213Y51502D01*
X38216Y51500D01*
X38219Y51496D01*
X38223Y51490D01*
X38228Y51484D01*
X38234Y51476D01*
X38240Y51467D01*
X38246Y51456D01*
Y51456D01*
X38247Y51455D01*
X38249Y51452D01*
X38252Y51446D01*
X38256Y51440D01*
X38260Y51432D01*
X38264Y51423D01*
X38268Y51414D01*
X38272Y51406D01*
X38224D01*
Y51406D01*
X38223Y51407D01*
X38222Y51410D01*
X38220Y51412D01*
X38219Y51416D01*
X38217Y51420D01*
X38211Y51430D01*
X38205Y51441D01*
X38197Y51453D01*
X38188Y51465D01*
X38178Y51476D01*
X38177Y51477D01*
X38177Y51478D01*
X38173Y51481D01*
X38168Y51487D01*
X38161Y51493D01*
X38153Y51501D01*
X38144Y51508D01*
X38134Y51515D01*
X38124Y51520D01*
Y51552D01*
X38523D01*
Y51503D01*
D02*
G37*
G36*
X47793Y38853D02*
X47794Y38852D01*
X47795Y38849D01*
X47797Y38847D01*
X47798Y38843D01*
X47800Y38839D01*
X47806Y38829D01*
X47812Y38818D01*
X47820Y38806D01*
X47829Y38794D01*
X47839Y38783D01*
X47840Y38782D01*
X47840Y38782D01*
X47844Y38778D01*
X47849Y38772D01*
X47856Y38766D01*
X47864Y38759D01*
X47873Y38751D01*
X47883Y38745D01*
X47893Y38739D01*
Y38707D01*
X47494D01*
Y38756D01*
X47804D01*
X47804Y38757D01*
X47801Y38759D01*
X47798Y38763D01*
X47794Y38769D01*
X47789Y38775D01*
X47783Y38783D01*
X47777Y38792D01*
X47771Y38803D01*
Y38803D01*
X47770Y38804D01*
X47768Y38808D01*
X47765Y38813D01*
X47761Y38820D01*
X47757Y38827D01*
X47753Y38836D01*
X47749Y38845D01*
X47745Y38853D01*
X47793D01*
Y38853D01*
D02*
G37*
G36*
X21479Y38105D02*
X21479Y38106D01*
X21482Y38108D01*
X21486Y38111D01*
X21491Y38115D01*
X21498Y38121D01*
X21506Y38126D01*
X21515Y38133D01*
X21525Y38139D01*
X21526D01*
X21526Y38140D01*
X21530Y38142D01*
X21535Y38145D01*
X21542Y38149D01*
X21550Y38153D01*
X21558Y38156D01*
X21568Y38161D01*
X21576Y38164D01*
Y38117D01*
X21575D01*
X21574Y38116D01*
X21572Y38115D01*
X21569Y38113D01*
X21566Y38111D01*
X21562Y38109D01*
X21552Y38104D01*
X21541Y38097D01*
X21529Y38089D01*
X21517Y38080D01*
X21505Y38071D01*
X21505Y38070D01*
X21504Y38069D01*
X21500Y38066D01*
X21495Y38060D01*
X21488Y38054D01*
X21481Y38045D01*
X21474Y38036D01*
X21467Y38026D01*
X21462Y38017D01*
X21430D01*
Y38416D01*
X21479D01*
Y38105D01*
D02*
G37*
G36*
X18269D02*
X18269Y38106D01*
X18272Y38108D01*
X18276Y38111D01*
X18281Y38115D01*
X18288Y38121D01*
X18296Y38126D01*
X18305Y38133D01*
X18315Y38139D01*
X18316D01*
X18316Y38140D01*
X18320Y38142D01*
X18325Y38145D01*
X18332Y38149D01*
X18340Y38153D01*
X18348Y38156D01*
X18358Y38161D01*
X18366Y38164D01*
Y38117D01*
X18365D01*
X18364Y38116D01*
X18362Y38115D01*
X18359Y38113D01*
X18356Y38111D01*
X18352Y38109D01*
X18342Y38104D01*
X18331Y38097D01*
X18319Y38089D01*
X18307Y38080D01*
X18295Y38071D01*
X18295Y38070D01*
X18294Y38069D01*
X18290Y38066D01*
X18285Y38060D01*
X18278Y38054D01*
X18271Y38045D01*
X18264Y38036D01*
X18257Y38026D01*
X18252Y38017D01*
X18220D01*
Y38416D01*
X18269D01*
Y38105D01*
D02*
G37*
G36*
X16262Y34756D02*
X16213D01*
Y35067D01*
X16213Y35066D01*
X16210Y35064D01*
X16206Y35061D01*
X16201Y35057D01*
X16194Y35051D01*
X16186Y35046D01*
X16177Y35039D01*
X16167Y35033D01*
X16166D01*
X16166Y35033D01*
X16162Y35030D01*
X16157Y35027D01*
X16150Y35023D01*
X16142Y35019D01*
X16134Y35016D01*
X16124Y35011D01*
X16116Y35008D01*
Y35055D01*
X16117D01*
X16118Y35056D01*
X16120Y35057D01*
X16123Y35059D01*
X16126Y35061D01*
X16131Y35063D01*
X16140Y35068D01*
X16151Y35075D01*
X16163Y35083D01*
X16175Y35092D01*
X16187Y35101D01*
X16187Y35102D01*
X16188Y35103D01*
X16192Y35106D01*
X16197Y35112D01*
X16204Y35118D01*
X16211Y35127D01*
X16218Y35136D01*
X16225Y35146D01*
X16230Y35155D01*
X16262D01*
Y34756D01*
D02*
G37*
G36*
X35147Y30809D02*
X35148Y30808D01*
X35149Y30806D01*
X35151Y30803D01*
X35152Y30800D01*
X35154Y30796D01*
X35160Y30786D01*
X35166Y30775D01*
X35174Y30763D01*
X35183Y30751D01*
X35193Y30739D01*
X35194Y30739D01*
X35194Y30738D01*
X35198Y30734D01*
X35203Y30729D01*
X35210Y30722D01*
X35218Y30715D01*
X35227Y30708D01*
X35237Y30701D01*
X35247Y30696D01*
Y30664D01*
X34847D01*
Y30713D01*
X35158D01*
X35158Y30713D01*
X35155Y30716D01*
X35152Y30720D01*
X35148Y30725D01*
X35143Y30732D01*
X35137Y30740D01*
X35131Y30749D01*
X35125Y30759D01*
Y30760D01*
X35124Y30760D01*
X35122Y30764D01*
X35118Y30770D01*
X35115Y30776D01*
X35111Y30784D01*
X35107Y30792D01*
X35103Y30802D01*
X35099Y30810D01*
X35147D01*
Y30809D01*
D02*
G37*
G36*
X38533Y27651D02*
X38223D01*
X38223Y27650D01*
X38226Y27648D01*
X38229Y27644D01*
X38233Y27638D01*
X38238Y27632D01*
X38244Y27624D01*
X38250Y27615D01*
X38256Y27604D01*
Y27604D01*
X38257Y27603D01*
X38259Y27599D01*
X38262Y27594D01*
X38266Y27587D01*
X38270Y27580D01*
X38274Y27571D01*
X38278Y27562D01*
X38282Y27554D01*
X38234D01*
Y27554D01*
X38233Y27555D01*
X38232Y27558D01*
X38230Y27560D01*
X38229Y27564D01*
X38227Y27568D01*
X38221Y27578D01*
X38215Y27589D01*
X38207Y27601D01*
X38198Y27613D01*
X38188Y27624D01*
X38187Y27625D01*
X38187Y27626D01*
X38183Y27629D01*
X38178Y27635D01*
X38171Y27641D01*
X38163Y27648D01*
X38154Y27656D01*
X38144Y27662D01*
X38134Y27668D01*
Y27700D01*
X38533D01*
Y27651D01*
D02*
G37*
G36*
X35147Y27699D02*
X35148Y27698D01*
X35149Y27696D01*
X35151Y27693D01*
X35152Y27690D01*
X35154Y27685D01*
X35160Y27676D01*
X35166Y27665D01*
X35174Y27653D01*
X35183Y27641D01*
X35193Y27629D01*
X35194Y27628D01*
X35194Y27628D01*
X35198Y27624D01*
X35203Y27619D01*
X35210Y27612D01*
X35218Y27605D01*
X35227Y27598D01*
X35237Y27591D01*
X35247Y27585D01*
Y27553D01*
X34847D01*
Y27602D01*
X35158D01*
X35158Y27603D01*
X35155Y27605D01*
X35152Y27610D01*
X35148Y27615D01*
X35143Y27622D01*
X35137Y27630D01*
X35131Y27639D01*
X35125Y27649D01*
Y27650D01*
X35124Y27650D01*
X35122Y27654D01*
X35118Y27659D01*
X35115Y27666D01*
X35111Y27674D01*
X35107Y27682D01*
X35103Y27691D01*
X35099Y27700D01*
X35147D01*
Y27699D01*
D02*
G37*
G36*
Y24589D02*
X35148Y24588D01*
X35149Y24585D01*
X35151Y24583D01*
X35152Y24579D01*
X35154Y24575D01*
X35160Y24565D01*
X35166Y24554D01*
X35174Y24542D01*
X35183Y24530D01*
X35193Y24519D01*
X35194Y24518D01*
X35194Y24518D01*
X35198Y24514D01*
X35203Y24509D01*
X35210Y24502D01*
X35218Y24495D01*
X35227Y24487D01*
X35237Y24481D01*
X35247Y24475D01*
Y24443D01*
X34847D01*
Y24492D01*
X35158D01*
X35158Y24493D01*
X35155Y24495D01*
X35152Y24499D01*
X35148Y24505D01*
X35143Y24512D01*
X35137Y24519D01*
X35131Y24528D01*
X35125Y24539D01*
Y24539D01*
X35124Y24540D01*
X35122Y24544D01*
X35118Y24549D01*
X35115Y24556D01*
X35111Y24564D01*
X35107Y24572D01*
X35103Y24581D01*
X35099Y24590D01*
X35147D01*
Y24589D01*
D02*
G37*
G36*
X38523Y23511D02*
X38213D01*
X38213Y23510D01*
X38216Y23508D01*
X38219Y23504D01*
X38223Y23498D01*
X38228Y23492D01*
X38234Y23484D01*
X38240Y23475D01*
X38246Y23464D01*
Y23464D01*
X38247Y23463D01*
X38249Y23459D01*
X38252Y23454D01*
X38256Y23447D01*
X38260Y23440D01*
X38264Y23431D01*
X38268Y23422D01*
X38272Y23414D01*
X38224D01*
Y23414D01*
X38223Y23415D01*
X38222Y23418D01*
X38220Y23420D01*
X38219Y23424D01*
X38217Y23428D01*
X38211Y23438D01*
X38205Y23449D01*
X38197Y23461D01*
X38188Y23473D01*
X38178Y23484D01*
X38177Y23485D01*
X38177Y23486D01*
X38173Y23489D01*
X38168Y23495D01*
X38161Y23501D01*
X38153Y23508D01*
X38144Y23516D01*
X38134Y23522D01*
X38124Y23528D01*
Y23560D01*
X38523D01*
Y23511D01*
D02*
G37*
G54D12*
X53290Y39764D02*
X59116D01*
X53290Y11811D02*
X59116D01*
X59016Y27087D02*
Y39764D01*
Y11811D02*
Y24168D01*
X58816Y39164D02*
X59016Y39764D01*
X59216Y39164D01*
X59016Y11811D02*
X59216Y12411D01*
X58816D02*
X59016Y11811D01*
X11811Y39904D02*
Y42128D01*
X53150Y39904D02*
Y42128D01*
X11811Y42028D02*
X30561D01*
X34080D02*
X53150D01*
X11811D02*
X12411Y41828D01*
X11811Y42028D02*
X12411Y42228D01*
X52550D02*
X53150Y42028D01*
X52550Y41828D02*
X53150Y42028D01*
X16777Y24835D02*
Y29488D01*
X10571Y24835D02*
X16777D01*
X10571D02*
Y29488D01*
X16777D01*
X40283Y37126D02*
Y38119D01*
X42059Y37126D02*
Y38119D01*
X41051Y13945D02*
Y14937D01*
X39276Y13945D02*
Y14937D01*
X41042Y12747D02*
Y13739D01*
X39267Y12747D02*
Y13739D01*
X46178Y30403D02*
X47171D01*
X46178Y32178D02*
X47171D01*
X41594Y23098D02*
Y24091D01*
X39818Y23098D02*
Y24091D01*
X53290Y67756D02*
X59116D01*
X53290Y39803D02*
X59116D01*
X59016Y55079D02*
Y67756D01*
Y39803D02*
Y52160D01*
X58816Y67156D02*
X59016Y67756D01*
X59216Y67156D01*
X59016Y39803D02*
X59216Y40403D01*
X58816D02*
X59016Y39803D01*
X11811Y67896D02*
Y70120D01*
X53150Y67896D02*
Y70120D01*
X11811Y70020D02*
X30561D01*
X34080D02*
X53150D01*
X11811D02*
X12411Y69820D01*
X11811Y70020D02*
X12411Y70220D01*
X52550D02*
X53150Y70020D01*
X52550Y69820D02*
X53150Y70020D01*
X16777Y52827D02*
Y57480D01*
X10571Y52827D02*
X16777D01*
X10571D02*
Y57480D01*
X16777D01*
X40283Y65119D02*
Y66111D01*
X42059Y65119D02*
Y66111D01*
X41051Y41937D02*
Y42930D01*
X39276Y41937D02*
Y42930D01*
X41042Y40739D02*
Y41731D01*
X39267Y40739D02*
Y41731D01*
X46178Y58395D02*
X47171D01*
X46178Y60171D02*
X47171D01*
X41594Y51091D02*
Y52083D01*
X39818Y51091D02*
Y52083D01*
X53290Y95748D02*
X59116D01*
X53290Y67795D02*
X59116D01*
X59016Y83071D02*
Y95748D01*
Y67795D02*
Y80152D01*
X58816Y95148D02*
X59016Y95748D01*
X59216Y95148D01*
X59016Y67795D02*
X59216Y68395D01*
X58816D02*
X59016Y67795D01*
X11811Y95888D02*
Y98112D01*
X53150Y95888D02*
Y98112D01*
X11811Y98012D02*
X30561D01*
X34080D02*
X53150D01*
X11811D02*
X12411Y97812D01*
X11811Y98012D02*
X12411Y98212D01*
X52550D02*
X53150Y98012D01*
X52550Y97812D02*
X53150Y98012D01*
X16777Y80820D02*
Y85472D01*
X10571Y80820D02*
X16777D01*
X10571D02*
Y85472D01*
X16777D01*
X40283Y93111D02*
Y94103D01*
X42059Y93111D02*
Y94103D01*
X41051Y69930D02*
Y70922D01*
X39276Y69930D02*
Y70922D01*
X41042Y68731D02*
Y69723D01*
X39267Y68731D02*
Y69723D01*
X46178Y86387D02*
X47171D01*
X46178Y88163D02*
X47171D01*
X41594Y79083D02*
Y80075D01*
X39818Y79083D02*
Y80075D01*
G54D15*
X42220Y29246D02*
X42182Y29338D01*
X42090Y29376D01*
X41998Y29338D01*
X41960Y29246D01*
X41998Y29154D01*
X42090Y29116D01*
X42182Y29154D01*
X42220Y29246D01*
X40957Y15746D02*
X40919Y15837D01*
X40827Y15876D01*
X40735Y15837D01*
X40697Y15746D01*
X40735Y15654D01*
X40827Y15616D01*
X40919Y15654D01*
X40957Y15746D01*
X44180Y29478D02*
Y31016D01*
X42285Y29478D02*
X44180D01*
X42285D02*
Y31016D01*
X39057Y15940D02*
X40594D01*
Y17835D01*
X39057D02*
X40594D01*
X21172Y24139D02*
Y25994D01*
X22620D01*
Y24139D02*
Y25994D01*
X21339Y24139D02*
X22620D01*
X21172D02*
X21339D01*
X39549Y29020D02*
X41443D01*
X39549Y30518D02*
X41443D01*
X42220Y57238D02*
X42182Y57330D01*
X42090Y57368D01*
X41998Y57330D01*
X41960Y57238D01*
X41998Y57146D01*
X42090Y57108D01*
X42182Y57146D01*
X42220Y57238D01*
X40957Y43738D02*
X40919Y43830D01*
X40827Y43868D01*
X40735Y43830D01*
X40697Y43738D01*
X40735Y43646D01*
X40827Y43608D01*
X40919Y43646D01*
X40957Y43738D01*
X44180Y57471D02*
Y59008D01*
X42285Y57471D02*
X44180D01*
X42285D02*
Y59008D01*
X39057Y43933D02*
X40594D01*
Y45827D01*
X39057D02*
X40594D01*
X21172Y52131D02*
Y53986D01*
X22620D01*
Y52131D02*
Y53986D01*
X21339Y52131D02*
X22620D01*
X21172D02*
X21339D01*
X39549Y57012D02*
X41443D01*
X39549Y58510D02*
X41443D01*
X42220Y85230D02*
X42182Y85322D01*
X42090Y85360D01*
X41998Y85322D01*
X41960Y85230D01*
X41998Y85139D01*
X42090Y85100D01*
X42182Y85139D01*
X42220Y85230D01*
X40957Y71730D02*
X40919Y71822D01*
X40827Y71860D01*
X40735Y71822D01*
X40697Y71730D01*
X40735Y71638D01*
X40827Y71600D01*
X40919Y71638D01*
X40957Y71730D01*
X44180Y85463D02*
Y87000D01*
X42285Y85463D02*
X44180D01*
X42285D02*
Y87000D01*
X39057Y71925D02*
X40594D01*
Y73820D01*
X39057D02*
X40594D01*
X21172Y80123D02*
Y81978D01*
X22620D01*
Y80123D02*
Y81978D01*
X21339Y80123D02*
X22620D01*
X21172D02*
X21339D01*
X39549Y85004D02*
X41443D01*
X39549Y86502D02*
X41443D01*
G54D142*
X16960Y13386D02*
X16946Y13484D01*
X16905Y13575D01*
X16839Y13650D01*
X16756Y13704D01*
X16660Y13732D01*
X16560Y13732D01*
X16465Y13704D01*
X16381Y13650D01*
X16316Y13575D01*
X16274Y13484D01*
X16260Y13386D01*
X16274Y13287D01*
X16316Y13197D01*
X16381Y13121D01*
X16465Y13067D01*
X16560Y13039D01*
X16660Y13039D01*
X16756Y13067D01*
X16839Y13121D01*
X16905Y13197D01*
X16946Y13287D01*
X16960Y13386D01*
X17960D02*
X17946Y13484D01*
X17905Y13575D01*
X17839Y13650D01*
X17756Y13704D01*
X17660Y13732D01*
X17560Y13732D01*
X17465Y13704D01*
X17381Y13650D01*
X17316Y13575D01*
X17274Y13484D01*
X17260Y13386D01*
X17274Y13287D01*
X17316Y13197D01*
X17381Y13121D01*
X17465Y13067D01*
X17560Y13039D01*
X17660Y13039D01*
X17756Y13067D01*
X17839Y13121D01*
X17905Y13197D01*
X17946Y13287D01*
X17960Y13386D01*
X18960D02*
X18946Y13484D01*
X18905Y13575D01*
X18839Y13650D01*
X18756Y13704D01*
X18660Y13732D01*
X18560Y13732D01*
X18465Y13704D01*
X18381Y13650D01*
X18316Y13575D01*
X18274Y13484D01*
X18260Y13386D01*
X18274Y13287D01*
X18316Y13197D01*
X18381Y13121D01*
X18465Y13067D01*
X18560Y13039D01*
X18660Y13039D01*
X18756Y13067D01*
X18839Y13121D01*
X18905Y13197D01*
X18946Y13287D01*
X18960Y13386D01*
X19960D02*
X19946Y13484D01*
X19905Y13575D01*
X19839Y13650D01*
X19756Y13704D01*
X19660Y13732D01*
X19560Y13732D01*
X19465Y13704D01*
X19381Y13650D01*
X19316Y13575D01*
X19274Y13484D01*
X19260Y13386D01*
X19274Y13287D01*
X19316Y13197D01*
X19381Y13121D01*
X19465Y13067D01*
X19560Y13039D01*
X19660Y13039D01*
X19756Y13067D01*
X19839Y13121D01*
X19905Y13197D01*
X19946Y13287D01*
X19960Y13386D01*
X25078D02*
X25064Y13484D01*
X25023Y13575D01*
X24958Y13650D01*
X24874Y13704D01*
X24778Y13732D01*
X24679Y13732D01*
X24583Y13704D01*
X24499Y13650D01*
X24434Y13575D01*
X24393Y13484D01*
X24378Y13386D01*
X24393Y13287D01*
X24434Y13197D01*
X24499Y13121D01*
X24583Y13067D01*
X24679Y13039D01*
X24778Y13039D01*
X24874Y13067D01*
X24958Y13121D01*
X25023Y13197D01*
X25064Y13287D01*
X25078Y13386D01*
X24078D02*
X24064Y13484D01*
X24023Y13575D01*
X23958Y13650D01*
X23874Y13704D01*
X23778Y13732D01*
X23679Y13732D01*
X23583Y13704D01*
X23499Y13650D01*
X23434Y13575D01*
X23393Y13484D01*
X23378Y13386D01*
X23393Y13287D01*
X23434Y13197D01*
X23499Y13121D01*
X23583Y13067D01*
X23679Y13039D01*
X23778Y13039D01*
X23874Y13067D01*
X23958Y13121D01*
X24023Y13197D01*
X24064Y13287D01*
X24078Y13386D01*
X23078D02*
X23064Y13484D01*
X23023Y13575D01*
X22958Y13650D01*
X22874Y13704D01*
X22778Y13732D01*
X22679Y13732D01*
X22583Y13704D01*
X22499Y13650D01*
X22434Y13575D01*
X22393Y13484D01*
X22378Y13386D01*
X22393Y13287D01*
X22434Y13197D01*
X22499Y13121D01*
X22583Y13067D01*
X22679Y13039D01*
X22778Y13039D01*
X22874Y13067D01*
X22958Y13121D01*
X23023Y13197D01*
X23064Y13287D01*
X23078Y13386D01*
X22078D02*
X22064Y13484D01*
X22023Y13575D01*
X21958Y13650D01*
X21874Y13704D01*
X21778Y13732D01*
X21679Y13732D01*
X21583Y13704D01*
X21499Y13650D01*
X21434Y13575D01*
X21393Y13484D01*
X21378Y13386D01*
X21393Y13287D01*
X21434Y13197D01*
X21499Y13121D01*
X21583Y13067D01*
X21679Y13039D01*
X21778Y13039D01*
X21874Y13067D01*
X21958Y13121D01*
X22023Y13197D01*
X22064Y13287D01*
X22078Y13386D01*
X27196Y16142D02*
X27182Y16240D01*
X27141Y16331D01*
X27076Y16406D01*
X26992Y16460D01*
X26896Y16488D01*
X26797Y16488D01*
X26701Y16460D01*
X26617Y16406D01*
X26552Y16331D01*
X26511Y16240D01*
X26496Y16142D01*
X26511Y16043D01*
X26552Y15953D01*
X26617Y15877D01*
X26701Y15823D01*
X26797Y15795D01*
X26896Y15795D01*
X26992Y15823D01*
X27076Y15877D01*
X27141Y15953D01*
X27182Y16043D01*
X27196Y16142D01*
X28196D02*
X28182Y16240D01*
X28141Y16331D01*
X28076Y16406D01*
X27992Y16460D01*
X27896Y16488D01*
X27797Y16488D01*
X27701Y16460D01*
X27617Y16406D01*
X27552Y16331D01*
X27511Y16240D01*
X27496Y16142D01*
X27511Y16043D01*
X27552Y15953D01*
X27617Y15877D01*
X27701Y15823D01*
X27797Y15795D01*
X27896Y15795D01*
X27992Y15823D01*
X28076Y15877D01*
X28141Y15953D01*
X28182Y16043D01*
X28196Y16142D01*
X29196D02*
X29182Y16240D01*
X29141Y16331D01*
X29076Y16406D01*
X28992Y16460D01*
X28896Y16488D01*
X28797Y16488D01*
X28701Y16460D01*
X28617Y16406D01*
X28552Y16331D01*
X28511Y16240D01*
X28496Y16142D01*
X28511Y16043D01*
X28552Y15953D01*
X28617Y15877D01*
X28701Y15823D01*
X28797Y15795D01*
X28896Y15795D01*
X28992Y15823D01*
X29076Y15877D01*
X29141Y15953D01*
X29182Y16043D01*
X29196Y16142D01*
X30196D02*
X30182Y16240D01*
X30141Y16331D01*
X30076Y16406D01*
X29992Y16460D01*
X29896Y16488D01*
X29797Y16488D01*
X29701Y16460D01*
X29617Y16406D01*
X29552Y16331D01*
X29511Y16240D01*
X29496Y16142D01*
X29511Y16043D01*
X29552Y15953D01*
X29617Y15877D01*
X29701Y15823D01*
X29797Y15795D01*
X29896Y15795D01*
X29992Y15823D01*
X30076Y15877D01*
X30141Y15953D01*
X30182Y16043D01*
X30196Y16142D01*
Y13386D02*
X30182Y13484D01*
X30141Y13575D01*
X30076Y13650D01*
X29992Y13704D01*
X29896Y13732D01*
X29797Y13732D01*
X29701Y13704D01*
X29617Y13650D01*
X29552Y13575D01*
X29511Y13484D01*
X29496Y13386D01*
X29511Y13287D01*
X29552Y13197D01*
X29617Y13121D01*
X29701Y13067D01*
X29797Y13039D01*
X29896Y13039D01*
X29992Y13067D01*
X30076Y13121D01*
X30141Y13197D01*
X30182Y13287D01*
X30196Y13386D01*
X29196D02*
X29182Y13484D01*
X29141Y13575D01*
X29076Y13650D01*
X28992Y13704D01*
X28896Y13732D01*
X28797Y13732D01*
X28701Y13704D01*
X28617Y13650D01*
X28552Y13575D01*
X28511Y13484D01*
X28496Y13386D01*
X28511Y13287D01*
X28552Y13197D01*
X28617Y13121D01*
X28701Y13067D01*
X28797Y13039D01*
X28896Y13039D01*
X28992Y13067D01*
X29076Y13121D01*
X29141Y13197D01*
X29182Y13287D01*
X29196Y13386D01*
X28196D02*
X28182Y13484D01*
X28141Y13575D01*
X28076Y13650D01*
X27992Y13704D01*
X27896Y13732D01*
X27797Y13732D01*
X27701Y13704D01*
X27617Y13650D01*
X27552Y13575D01*
X27511Y13484D01*
X27496Y13386D01*
X27511Y13287D01*
X27552Y13197D01*
X27617Y13121D01*
X27701Y13067D01*
X27797Y13039D01*
X27896Y13039D01*
X27992Y13067D01*
X28076Y13121D01*
X28141Y13197D01*
X28182Y13287D01*
X28196Y13386D01*
X27196D02*
X27182Y13484D01*
X27141Y13575D01*
X27076Y13650D01*
X26992Y13704D01*
X26896Y13732D01*
X26797Y13732D01*
X26701Y13704D01*
X26617Y13650D01*
X26552Y13575D01*
X26511Y13484D01*
X26496Y13386D01*
X26511Y13287D01*
X26552Y13197D01*
X26617Y13121D01*
X26701Y13067D01*
X26797Y13039D01*
X26896Y13039D01*
X26992Y13067D01*
X27076Y13121D01*
X27141Y13197D01*
X27182Y13287D01*
X27196Y13386D01*
X32318Y13390D02*
X32304Y13488D01*
X32263Y13579D01*
X32198Y13654D01*
X32114Y13708D01*
X32018Y13736D01*
X31919Y13736D01*
X31823Y13708D01*
X31739Y13654D01*
X31674Y13579D01*
X31633Y13488D01*
X31618Y13390D01*
X31633Y13291D01*
X31674Y13201D01*
X31739Y13125D01*
X31823Y13071D01*
X31919Y13043D01*
X32018Y13043D01*
X32114Y13071D01*
X32198Y13125D01*
X32263Y13201D01*
X32304Y13291D01*
X32318Y13390D01*
X33319D02*
X33304Y13488D01*
X33263Y13579D01*
X33198Y13654D01*
X33114Y13708D01*
X33018Y13736D01*
X32919Y13736D01*
X32823Y13708D01*
X32739Y13654D01*
X32674Y13579D01*
X32633Y13488D01*
X32619Y13390D01*
X32633Y13291D01*
X32674Y13201D01*
X32739Y13125D01*
X32823Y13071D01*
X32919Y13043D01*
X33018Y13043D01*
X33114Y13071D01*
X33198Y13125D01*
X33263Y13201D01*
X33304Y13291D01*
X33319Y13390D01*
X34318D02*
X34304Y13488D01*
X34263Y13579D01*
X34198Y13654D01*
X34114Y13708D01*
X34018Y13736D01*
X33919Y13736D01*
X33823Y13708D01*
X33739Y13654D01*
X33674Y13579D01*
X33633Y13488D01*
X33619Y13390D01*
X33633Y13291D01*
X33674Y13201D01*
X33739Y13125D01*
X33823Y13071D01*
X33919Y13043D01*
X34018Y13043D01*
X34114Y13071D01*
X34198Y13125D01*
X34263Y13201D01*
X34304Y13291D01*
X34318Y13390D01*
X35319D02*
X35304Y13488D01*
X35263Y13579D01*
X35198Y13654D01*
X35114Y13708D01*
X35018Y13736D01*
X34919Y13736D01*
X34823Y13708D01*
X34739Y13654D01*
X34674Y13579D01*
X34633Y13488D01*
X34618Y13390D01*
X34633Y13291D01*
X34674Y13201D01*
X34739Y13125D01*
X34823Y13071D01*
X34919Y13043D01*
X35018Y13043D01*
X35114Y13071D01*
X35198Y13125D01*
X35263Y13201D01*
X35304Y13291D01*
X35319Y13390D01*
X26481Y37795D02*
X26466Y37894D01*
X26425Y37984D01*
X26360Y38060D01*
X26276Y38114D01*
X26180Y38142D01*
X26081Y38142D01*
X25985Y38114D01*
X25901Y38060D01*
X25836Y37984D01*
X25795Y37894D01*
X25781Y37795D01*
X25795Y37697D01*
X25836Y37606D01*
X25901Y37531D01*
X25985Y37477D01*
X26081Y37449D01*
X26180Y37449D01*
X26276Y37477D01*
X26360Y37531D01*
X26425Y37606D01*
X26466Y37697D01*
X26481Y37795D01*
X25481D02*
X25466Y37894D01*
X25425Y37984D01*
X25360Y38060D01*
X25276Y38114D01*
X25180Y38142D01*
X25081Y38142D01*
X24985Y38114D01*
X24901Y38060D01*
X24836Y37984D01*
X24795Y37894D01*
X24781Y37795D01*
X24795Y37697D01*
X24836Y37606D01*
X24901Y37531D01*
X24985Y37477D01*
X25081Y37449D01*
X25180Y37449D01*
X25276Y37477D01*
X25360Y37531D01*
X25425Y37606D01*
X25466Y37697D01*
X25481Y37795D01*
X24481D02*
X24466Y37894D01*
X24425Y37984D01*
X24360Y38060D01*
X24276Y38114D01*
X24180Y38142D01*
X24081Y38142D01*
X23985Y38114D01*
X23901Y38060D01*
X23836Y37984D01*
X23795Y37894D01*
X23781Y37795D01*
X23795Y37697D01*
X23836Y37606D01*
X23901Y37531D01*
X23985Y37477D01*
X24081Y37449D01*
X24180Y37449D01*
X24276Y37477D01*
X24360Y37531D01*
X24425Y37606D01*
X24466Y37697D01*
X24481Y37795D01*
X23481D02*
X23466Y37894D01*
X23425Y37984D01*
X23360Y38060D01*
X23276Y38114D01*
X23180Y38142D01*
X23081Y38142D01*
X22985Y38114D01*
X22901Y38060D01*
X22836Y37984D01*
X22795Y37894D01*
X22781Y37795D01*
X22795Y37697D01*
X22836Y37606D01*
X22901Y37531D01*
X22985Y37477D01*
X23081Y37449D01*
X23180Y37449D01*
X23276Y37477D01*
X23360Y37531D01*
X23425Y37606D01*
X23466Y37697D01*
X23481Y37795D01*
X41628Y27998D02*
X41825D01*
X41628Y28177D02*
X41825D01*
X40200Y33444D02*
Y33640D01*
X40378Y33444D02*
Y33640D01*
X40889Y24788D02*
X41085D01*
X40889Y24967D02*
X41085D01*
X34718Y17779D02*
X34915D01*
X34718Y17957D02*
X34915D01*
X33909Y19857D02*
X34105D01*
X33909Y19678D02*
X34105D01*
X31549Y17182D02*
Y17378D01*
X31727Y17182D02*
Y17378D01*
X34700Y18448D02*
Y18645D01*
X34878Y18448D02*
Y18645D01*
X34682Y19289D02*
X34878D01*
X34682Y19110D02*
X34878D01*
X25159Y17997D02*
X25355D01*
X25159Y17818D02*
X25355D01*
X21909Y17202D02*
Y17399D01*
X22087Y17202D02*
Y17399D01*
X24279Y19867D02*
X24475D01*
X24279Y19689D02*
X24475D01*
X25229Y18448D02*
Y18645D01*
X25050Y18448D02*
Y18645D01*
X25032Y19110D02*
X25229D01*
X25032Y19289D02*
X25229D01*
X20538Y17818D02*
X20735D01*
X20538Y17997D02*
X20735D01*
X19778Y19867D02*
X19975D01*
X19778Y19689D02*
X19975D01*
X17399Y17092D02*
Y17289D01*
X17577Y17092D02*
Y17289D01*
X20550Y18448D02*
Y18645D01*
X20728Y18448D02*
Y18645D01*
X20516Y19279D02*
X20712D01*
X20516Y19100D02*
X20712D01*
X45648Y36817D02*
X45845D01*
X45648Y36639D02*
X45845D01*
X32542Y27819D02*
X32738D01*
X32542Y27640D02*
X32738D01*
X28078Y19561D02*
X28274D01*
X28078Y19383D02*
X28274D01*
X28217Y21017D02*
X28414D01*
X28217Y21195D02*
X28414D01*
X28855Y19561D02*
X29052D01*
X28855Y19383D02*
X29052D01*
X28965Y21017D02*
X29162D01*
X28965Y21195D02*
X29162D01*
X29636Y19375D02*
X29833D01*
X29636Y19553D02*
X29833D01*
X29746Y21187D02*
X29943D01*
X29746Y21009D02*
X29943D01*
X16402Y30172D02*
Y30368D01*
X16224Y30172D02*
Y30368D01*
X20385Y25806D02*
Y26002D01*
X20207Y25806D02*
Y26002D01*
X23386Y25865D02*
Y26061D01*
X23564Y25865D02*
Y26061D01*
X23394Y24116D02*
Y24312D01*
X23572Y24116D02*
Y24312D01*
X20393Y24087D02*
Y24283D01*
X20215Y24087D02*
Y24283D01*
X28709Y31052D02*
Y31249D01*
X28887Y31052D02*
Y31249D01*
X32182Y29500D02*
X32378D01*
X32182Y29678D02*
X32378D01*
X33568Y27629D02*
X33765D01*
X33568Y27807D02*
X33765D01*
X32344Y28573D02*
X32541D01*
X32344Y28751D02*
X32541D01*
X22738Y27589D02*
Y27785D01*
X22560Y27589D02*
Y27785D01*
X23278Y26809D02*
X23474D01*
X23278Y26631D02*
X23474D01*
X19505Y27596D02*
X19701D01*
X19505Y27775D02*
X19701D01*
X19322Y26950D02*
X19519D01*
X19322Y27129D02*
X19519D01*
X17608Y26122D02*
Y26319D01*
X17787Y26122D02*
Y26319D01*
X18018Y29587D02*
X18215D01*
X18018Y29409D02*
X18215D01*
X22842Y28724D02*
X23038D01*
X22842Y28545D02*
X23038D01*
X18018Y28347D02*
X18215D01*
X18018Y28168D02*
X18215D01*
X17322Y25459D02*
X17519D01*
X17322Y25280D02*
X17519D01*
X14650Y33249D02*
Y33445D01*
X14828Y33249D02*
Y33445D01*
X27898Y23476D02*
X28095D01*
X27898Y23298D02*
X28095D01*
X32057Y25455D02*
Y25651D01*
X31878Y25455D02*
Y25651D01*
X24388Y28479D02*
Y28675D01*
X24210Y28479D02*
Y28675D01*
X32187Y28987D02*
X32383D01*
X32187Y29165D02*
X32383D01*
X16058Y18178D02*
X16255D01*
X16058Y18357D02*
X16255D01*
X16090Y18808D02*
Y19005D01*
X16269Y18808D02*
Y19005D01*
X12938Y17432D02*
Y17629D01*
X13117Y17432D02*
Y17629D01*
X15199Y20117D02*
X15395D01*
X15199Y19938D02*
X15395D01*
X16062Y19639D02*
X16258D01*
X16062Y19460D02*
X16258D01*
X36312Y21600D02*
X36509D01*
X36312Y21779D02*
X36509D01*
X27148Y39179D02*
X27345D01*
X27148Y39357D02*
X27345D01*
X40689Y39137D02*
X40885D01*
X40689Y38958D02*
X40885D01*
X18018Y27707D02*
X18215D01*
X18018Y27529D02*
X18215D01*
X18305Y33473D02*
X18501D01*
X18305Y33651D02*
X18501D01*
X18933Y35671D02*
Y35867D01*
X19111Y35671D02*
Y35867D01*
X19521Y36039D02*
X19717D01*
X19521Y35861D02*
X19717D01*
X19521Y36449D02*
X19717D01*
X19521Y36271D02*
X19717D01*
X19525Y35443D02*
X19721D01*
X19525Y35621D02*
X19721D01*
X41631Y27570D02*
X41827D01*
X41631Y27748D02*
X41827D01*
X46288Y38357D02*
X46485D01*
X46288Y38179D02*
X46485D01*
X46292Y38920D02*
X46488D01*
X46292Y39098D02*
X46488D01*
X19511Y24221D02*
Y24417D01*
X19333Y24221D02*
Y24417D01*
X39978Y33444D02*
Y33640D01*
X39800Y33444D02*
Y33640D01*
X39731Y38765D02*
Y38961D01*
X39909Y38765D02*
Y38961D01*
X40131Y38765D02*
Y38961D01*
X40309Y38765D02*
Y38961D01*
X40889Y24537D02*
X41085D01*
X40889Y24358D02*
X41085D01*
X33132Y24258D02*
X33328D01*
X33132Y24080D02*
X33328D01*
X32538Y27437D02*
X32735D01*
X32538Y27259D02*
X32735D01*
X33108Y26042D02*
Y26239D01*
X33287Y26042D02*
Y26239D01*
X39889Y25417D02*
X40085D01*
X39889Y25238D02*
X40085D01*
X40204Y32601D02*
Y32797D01*
X40382Y32601D02*
Y32797D01*
X39892Y25650D02*
X40089D01*
X39892Y25828D02*
X40089D01*
X25294Y32422D02*
Y32619D01*
X25472Y32422D02*
Y32619D01*
X25752Y31740D02*
X25949D01*
X25752Y31918D02*
X25949D01*
X23331Y32661D02*
X23527D01*
X23331Y32839D02*
X23527D01*
X26869Y23360D02*
X27065D01*
X26869Y23538D02*
X27065D01*
X22842Y29309D02*
X23038D01*
X22842Y29130D02*
X23038D01*
X29688Y31339D02*
Y31535D01*
X29510Y31339D02*
Y31535D01*
X30090Y31349D02*
Y31545D01*
X30268Y31349D02*
Y31545D01*
X30838Y31349D02*
Y31545D01*
X30660Y31349D02*
Y31545D01*
X34242Y32040D02*
X34439D01*
X34242Y32218D02*
X34439D01*
X26292Y32329D02*
X26488D01*
X26292Y32150D02*
X26488D01*
X23153Y32051D02*
Y32247D01*
X23331Y32051D02*
Y32247D01*
X24101Y32251D02*
X24297D01*
X24101Y32429D02*
X24297D01*
X23792Y31830D02*
X23988D01*
X23792Y32009D02*
X23988D01*
X24575Y32011D02*
X24771D01*
X24575Y31833D02*
X24771D01*
X26295Y32741D02*
X26491D01*
X26295Y32563D02*
X26491D01*
X26999Y31222D02*
Y31418D01*
X27177Y31222D02*
Y31418D01*
X27111Y32009D02*
X27307D01*
X27111Y31831D02*
X27307D01*
X24884Y32422D02*
Y32619D01*
X25062Y32422D02*
Y32619D01*
X22565Y32653D02*
X22761D01*
X22565Y32831D02*
X22761D01*
X21723Y32211D02*
Y32407D01*
X21901Y32211D02*
Y32407D01*
X21313Y32211D02*
Y32407D01*
X21491Y32211D02*
Y32407D01*
X35357Y18452D02*
Y18649D01*
X35178Y18452D02*
Y18649D01*
X25529Y18452D02*
Y18649D01*
X25707Y18452D02*
Y18649D01*
X21307Y17652D02*
Y17849D01*
X21128Y17652D02*
Y17849D01*
X46069Y37239D02*
Y37435D01*
X45890Y37239D02*
Y37435D01*
X45489Y37242D02*
Y37438D01*
X45667Y37242D02*
Y37438D01*
X46269Y36192D02*
Y36388D01*
X46447Y36192D02*
Y36388D01*
X46412Y35768D02*
X46609D01*
X46412Y35590D02*
X46609D01*
X40901Y31929D02*
X41097D01*
X40901Y31751D02*
X41097D01*
X33328Y28839D02*
Y29035D01*
X33150Y28839D02*
Y29035D01*
X32950Y23479D02*
Y23675D01*
X33128Y23479D02*
Y23675D01*
X33519Y26042D02*
Y26239D01*
X33697Y26042D02*
Y26239D01*
X33749Y29237D02*
X33945D01*
X33749Y29058D02*
X33945D01*
X26699Y31549D02*
Y31745D01*
X26520Y31549D02*
Y31745D01*
X16826Y30169D02*
Y30365D01*
X17004Y30169D02*
Y30365D01*
X39629Y27199D02*
Y27395D01*
X39450Y27199D02*
Y27395D01*
X40550Y25668D02*
Y25865D01*
X40729Y25668D02*
Y25865D01*
X18022Y29158D02*
X18218D01*
X18022Y28980D02*
X18218D01*
X18022Y28570D02*
X18218D01*
X18022Y28749D02*
X18218D01*
X46186Y32850D02*
Y33046D01*
X46364Y32850D02*
Y33046D01*
X43552Y27930D02*
X43748D01*
X43552Y28108D02*
X43748D01*
X42762D02*
X42958D01*
X42762Y27930D02*
X42958D01*
X15908Y31663D02*
Y31860D01*
X16086Y31663D02*
Y31860D01*
X15238Y33249D02*
Y33445D01*
X15060Y33249D02*
Y33445D01*
X40832Y18270D02*
X41028D01*
X40832Y18448D02*
X41028D01*
X40832Y18868D02*
X41028D01*
X40832Y18690D02*
X41028D01*
X39079Y18927D02*
X39275D01*
X39079Y18749D02*
X39275D01*
X33302Y25589D02*
X33498D01*
X33302Y25410D02*
X33498D01*
X14182Y30720D02*
X14378D01*
X14182Y30898D02*
X14378D01*
X33749Y28639D02*
X33945D01*
X33749Y28817D02*
X33945D01*
X16847Y17842D02*
Y18039D01*
X16668Y17842D02*
Y18039D01*
X39971Y31751D02*
X40167D01*
X39971Y31929D02*
X40167D01*
X40905Y31323D02*
X41101D01*
X40905Y31501D02*
X41101D01*
X39975D02*
X40171D01*
X39975Y31323D02*
X40171D01*
X39795Y32599D02*
Y32795D01*
X39974Y32599D02*
Y32795D01*
X27084Y32731D02*
X27280D01*
X27084Y32553D02*
X27280D01*
X24575Y31601D02*
X24771D01*
X24575Y31423D02*
X24771D01*
X23788Y31607D02*
X23985D01*
X23788Y31428D02*
X23985D01*
X24105Y32831D02*
X24301D01*
X24105Y32653D02*
X24301D01*
X33262Y32020D02*
X33458D01*
X33262Y32199D02*
X33458D01*
X21089Y32215D02*
Y32411D01*
X20911Y32215D02*
Y32411D01*
X22341Y32055D02*
Y32251D01*
X22519Y32055D02*
Y32251D01*
X22929Y32055D02*
Y32251D01*
X22751Y32055D02*
Y32251D01*
X14185Y31530D02*
X14381D01*
X14185Y31709D02*
X14381D01*
X16310Y13536D02*
X16910Y13236D01*
X17410Y13636D02*
X17810Y13136D01*
X18310Y13336D02*
X18910Y13486D01*
X19410Y13136D02*
X19860Y13586D01*
X24528Y13136D02*
X24978Y13586D01*
X23428Y13336D02*
X24028Y13486D01*
X22528Y13636D02*
X22928Y13136D01*
X21428Y13536D02*
X22028Y13236D01*
X26546Y16292D02*
X27146Y15992D01*
X27646Y16392D02*
X28046Y15892D01*
X28546Y16092D02*
X29146Y16242D01*
X29646Y15892D02*
X30096Y16342D01*
X29646Y13136D02*
X30096Y13586D01*
X28546Y13336D02*
X29146Y13486D01*
X27646Y13636D02*
X28046Y13136D01*
X26546Y13536D02*
X27146Y13236D01*
X31669Y13540D02*
X32269Y13240D01*
X32768Y13640D02*
X33168Y13140D01*
X33668Y13340D02*
X34269Y13490D01*
X34769Y13140D02*
X35219Y13590D01*
X25931Y37545D02*
X26381Y37995D01*
X24831Y37745D02*
X25431Y37895D01*
X23931Y38045D02*
X24331Y37545D01*
X22831Y37945D02*
X23431Y37645D01*
X37829Y21149D02*
Y21648D01*
X40328Y21149D02*
Y21648D01*
X39829D02*
X40328D01*
X39829Y21149D02*
Y21648D01*
Y21149D02*
X40328D01*
X39829Y21648D02*
X40328Y21149D01*
X39829D02*
X40328Y21648D01*
X37829D02*
X38328D01*
Y21149D02*
Y21648D01*
X37829Y21149D02*
X38328D01*
X37829D02*
X38328Y21648D01*
X37829D02*
X38328Y21149D01*
X11736Y33358D02*
X11886D01*
X11736D02*
Y34358D01*
X11886D01*
X12586Y32508D02*
X13186D01*
X12586Y35208D02*
X13186D01*
X12736Y33758D02*
Y33858D01*
Y33958D01*
Y33858D02*
X12886D01*
X13036Y33208D02*
Y33658D01*
X12886D02*
X13036Y34158D01*
Y34508D01*
X14436Y32408D02*
Y32508D01*
X13386D02*
X14436D01*
X13386Y35208D02*
X14436D01*
Y35308D01*
X13386D02*
X14436D01*
X13386Y32408D02*
X14436D01*
X15890Y30161D02*
Y30955D01*
X15335Y30161D02*
X15890D01*
X15335D02*
Y30955D01*
X15890D01*
X15610Y30758D02*
X15770Y30521D01*
X15453D02*
X15770D01*
X15453D02*
X15610Y30758D01*
X27963Y21631D02*
Y21827D01*
X28141Y21631D02*
Y21827D01*
X32122Y24695D02*
X32318D01*
X32122Y24874D02*
X32318D01*
X32342Y26835D02*
X32538D01*
X32342Y27014D02*
X32538D01*
X32342Y26425D02*
X32538D01*
X32342Y26604D02*
X32538D01*
X58776Y24328D02*
Y24728D01*
X58876D01*
X59276Y24328D01*
X59376D01*
Y24928D02*
Y25128D01*
Y25028D01*
X58776D01*
X58876Y24928D01*
X59376Y25427D02*
X59276D01*
Y25527D01*
X59376D01*
Y25427D01*
X58876Y25927D02*
X58776Y26027D01*
Y26227D01*
X58876Y26327D01*
X59276D01*
X59376Y26227D01*
Y26027D01*
X59276Y25927D01*
X58876D01*
Y26527D02*
X58776Y26627D01*
Y26827D01*
X58876Y26927D01*
X59276D01*
X59376Y26827D01*
Y26627D01*
X59276Y26527D01*
X58876D01*
X30721Y41668D02*
X30921D01*
X30821D01*
Y42267D01*
X30721Y42167D01*
X31221D02*
X31321Y42267D01*
X31521D01*
X31621Y42167D01*
Y41768D01*
X31521Y41668D01*
X31321D01*
X31221Y41768D01*
Y42167D01*
X32220Y42267D02*
X31820D01*
Y41968D01*
X32020Y42068D01*
X32120D01*
X32220Y41968D01*
Y41768D01*
X32120Y41668D01*
X31920D01*
X31820Y41768D01*
X32420Y41668D02*
Y41768D01*
X32520D01*
Y41668D01*
X32420D01*
X32920Y42167D02*
X33020Y42267D01*
X33220D01*
X33320Y42167D01*
Y41768D01*
X33220Y41668D01*
X33020D01*
X32920Y41768D01*
Y42167D01*
X33520D02*
X33620Y42267D01*
X33820D01*
X33920Y42167D01*
Y41768D01*
X33820Y41668D01*
X33620D01*
X33520Y41768D01*
Y42167D01*
X16960Y41378D02*
X16946Y41477D01*
X16905Y41567D01*
X16839Y41642D01*
X16756Y41696D01*
X16660Y41724D01*
X16560Y41724D01*
X16465Y41696D01*
X16381Y41642D01*
X16316Y41567D01*
X16274Y41477D01*
X16260Y41378D01*
X16274Y41279D01*
X16316Y41189D01*
X16381Y41113D01*
X16465Y41060D01*
X16560Y41032D01*
X16660Y41032D01*
X16756Y41060D01*
X16839Y41113D01*
X16905Y41189D01*
X16946Y41279D01*
X16960Y41378D01*
X17960D02*
X17946Y41477D01*
X17905Y41567D01*
X17839Y41642D01*
X17756Y41696D01*
X17660Y41724D01*
X17560Y41724D01*
X17465Y41696D01*
X17381Y41642D01*
X17316Y41567D01*
X17274Y41477D01*
X17260Y41378D01*
X17274Y41279D01*
X17316Y41189D01*
X17381Y41113D01*
X17465Y41060D01*
X17560Y41032D01*
X17660Y41032D01*
X17756Y41060D01*
X17839Y41113D01*
X17905Y41189D01*
X17946Y41279D01*
X17960Y41378D01*
X18960D02*
X18946Y41477D01*
X18905Y41567D01*
X18839Y41642D01*
X18756Y41696D01*
X18660Y41724D01*
X18560Y41724D01*
X18465Y41696D01*
X18381Y41642D01*
X18316Y41567D01*
X18274Y41477D01*
X18260Y41378D01*
X18274Y41279D01*
X18316Y41189D01*
X18381Y41113D01*
X18465Y41060D01*
X18560Y41032D01*
X18660Y41032D01*
X18756Y41060D01*
X18839Y41113D01*
X18905Y41189D01*
X18946Y41279D01*
X18960Y41378D01*
X19960D02*
X19946Y41477D01*
X19905Y41567D01*
X19839Y41642D01*
X19756Y41696D01*
X19660Y41724D01*
X19560Y41724D01*
X19465Y41696D01*
X19381Y41642D01*
X19316Y41567D01*
X19274Y41477D01*
X19260Y41378D01*
X19274Y41279D01*
X19316Y41189D01*
X19381Y41113D01*
X19465Y41060D01*
X19560Y41032D01*
X19660Y41032D01*
X19756Y41060D01*
X19839Y41113D01*
X19905Y41189D01*
X19946Y41279D01*
X19960Y41378D01*
X25078D02*
X25064Y41477D01*
X25023Y41567D01*
X24958Y41642D01*
X24874Y41696D01*
X24778Y41724D01*
X24679Y41724D01*
X24583Y41696D01*
X24499Y41642D01*
X24434Y41567D01*
X24393Y41477D01*
X24378Y41378D01*
X24393Y41279D01*
X24434Y41189D01*
X24499Y41113D01*
X24583Y41060D01*
X24679Y41032D01*
X24778Y41032D01*
X24874Y41060D01*
X24958Y41113D01*
X25023Y41189D01*
X25064Y41279D01*
X25078Y41378D01*
X24078D02*
X24064Y41477D01*
X24023Y41567D01*
X23958Y41642D01*
X23874Y41696D01*
X23778Y41724D01*
X23679Y41724D01*
X23583Y41696D01*
X23499Y41642D01*
X23434Y41567D01*
X23393Y41477D01*
X23378Y41378D01*
X23393Y41279D01*
X23434Y41189D01*
X23499Y41113D01*
X23583Y41060D01*
X23679Y41032D01*
X23778Y41032D01*
X23874Y41060D01*
X23958Y41113D01*
X24023Y41189D01*
X24064Y41279D01*
X24078Y41378D01*
X23078D02*
X23064Y41477D01*
X23023Y41567D01*
X22958Y41642D01*
X22874Y41696D01*
X22778Y41724D01*
X22679Y41724D01*
X22583Y41696D01*
X22499Y41642D01*
X22434Y41567D01*
X22393Y41477D01*
X22378Y41378D01*
X22393Y41279D01*
X22434Y41189D01*
X22499Y41113D01*
X22583Y41060D01*
X22679Y41032D01*
X22778Y41032D01*
X22874Y41060D01*
X22958Y41113D01*
X23023Y41189D01*
X23064Y41279D01*
X23078Y41378D01*
X22078D02*
X22064Y41477D01*
X22023Y41567D01*
X21958Y41642D01*
X21874Y41696D01*
X21778Y41724D01*
X21679Y41724D01*
X21583Y41696D01*
X21499Y41642D01*
X21434Y41567D01*
X21393Y41477D01*
X21378Y41378D01*
X21393Y41279D01*
X21434Y41189D01*
X21499Y41113D01*
X21583Y41060D01*
X21679Y41032D01*
X21778Y41032D01*
X21874Y41060D01*
X21958Y41113D01*
X22023Y41189D01*
X22064Y41279D01*
X22078Y41378D01*
X27196Y44134D02*
X27182Y44232D01*
X27141Y44323D01*
X27076Y44398D01*
X26992Y44452D01*
X26896Y44480D01*
X26797Y44480D01*
X26701Y44452D01*
X26617Y44398D01*
X26552Y44323D01*
X26511Y44232D01*
X26496Y44134D01*
X26511Y44035D01*
X26552Y43945D01*
X26617Y43869D01*
X26701Y43815D01*
X26797Y43787D01*
X26896Y43787D01*
X26992Y43815D01*
X27076Y43869D01*
X27141Y43945D01*
X27182Y44035D01*
X27196Y44134D01*
X28196D02*
X28182Y44232D01*
X28141Y44323D01*
X28076Y44398D01*
X27992Y44452D01*
X27896Y44480D01*
X27797Y44480D01*
X27701Y44452D01*
X27617Y44398D01*
X27552Y44323D01*
X27511Y44232D01*
X27496Y44134D01*
X27511Y44035D01*
X27552Y43945D01*
X27617Y43869D01*
X27701Y43815D01*
X27797Y43787D01*
X27896Y43787D01*
X27992Y43815D01*
X28076Y43869D01*
X28141Y43945D01*
X28182Y44035D01*
X28196Y44134D01*
X29196D02*
X29182Y44232D01*
X29141Y44323D01*
X29076Y44398D01*
X28992Y44452D01*
X28896Y44480D01*
X28797Y44480D01*
X28701Y44452D01*
X28617Y44398D01*
X28552Y44323D01*
X28511Y44232D01*
X28496Y44134D01*
X28511Y44035D01*
X28552Y43945D01*
X28617Y43869D01*
X28701Y43815D01*
X28797Y43787D01*
X28896Y43787D01*
X28992Y43815D01*
X29076Y43869D01*
X29141Y43945D01*
X29182Y44035D01*
X29196Y44134D01*
X30196D02*
X30182Y44232D01*
X30141Y44323D01*
X30076Y44398D01*
X29992Y44452D01*
X29896Y44480D01*
X29797Y44480D01*
X29701Y44452D01*
X29617Y44398D01*
X29552Y44323D01*
X29511Y44232D01*
X29496Y44134D01*
X29511Y44035D01*
X29552Y43945D01*
X29617Y43869D01*
X29701Y43815D01*
X29797Y43787D01*
X29896Y43787D01*
X29992Y43815D01*
X30076Y43869D01*
X30141Y43945D01*
X30182Y44035D01*
X30196Y44134D01*
Y41378D02*
X30182Y41477D01*
X30141Y41567D01*
X30076Y41642D01*
X29992Y41696D01*
X29896Y41724D01*
X29797Y41724D01*
X29701Y41696D01*
X29617Y41642D01*
X29552Y41567D01*
X29511Y41477D01*
X29496Y41378D01*
X29511Y41279D01*
X29552Y41189D01*
X29617Y41113D01*
X29701Y41060D01*
X29797Y41032D01*
X29896Y41032D01*
X29992Y41060D01*
X30076Y41113D01*
X30141Y41189D01*
X30182Y41279D01*
X30196Y41378D01*
X29196D02*
X29182Y41477D01*
X29141Y41567D01*
X29076Y41642D01*
X28992Y41696D01*
X28896Y41724D01*
X28797Y41724D01*
X28701Y41696D01*
X28617Y41642D01*
X28552Y41567D01*
X28511Y41477D01*
X28496Y41378D01*
X28511Y41279D01*
X28552Y41189D01*
X28617Y41113D01*
X28701Y41060D01*
X28797Y41032D01*
X28896Y41032D01*
X28992Y41060D01*
X29076Y41113D01*
X29141Y41189D01*
X29182Y41279D01*
X29196Y41378D01*
X28196D02*
X28182Y41477D01*
X28141Y41567D01*
X28076Y41642D01*
X27992Y41696D01*
X27896Y41724D01*
X27797Y41724D01*
X27701Y41696D01*
X27617Y41642D01*
X27552Y41567D01*
X27511Y41477D01*
X27496Y41378D01*
X27511Y41279D01*
X27552Y41189D01*
X27617Y41113D01*
X27701Y41060D01*
X27797Y41032D01*
X27896Y41032D01*
X27992Y41060D01*
X28076Y41113D01*
X28141Y41189D01*
X28182Y41279D01*
X28196Y41378D01*
X27196D02*
X27182Y41477D01*
X27141Y41567D01*
X27076Y41642D01*
X26992Y41696D01*
X26896Y41724D01*
X26797Y41724D01*
X26701Y41696D01*
X26617Y41642D01*
X26552Y41567D01*
X26511Y41477D01*
X26496Y41378D01*
X26511Y41279D01*
X26552Y41189D01*
X26617Y41113D01*
X26701Y41060D01*
X26797Y41032D01*
X26896Y41032D01*
X26992Y41060D01*
X27076Y41113D01*
X27141Y41189D01*
X27182Y41279D01*
X27196Y41378D01*
X32318Y41382D02*
X32304Y41480D01*
X32263Y41571D01*
X32198Y41646D01*
X32114Y41700D01*
X32018Y41728D01*
X31919Y41728D01*
X31823Y41700D01*
X31739Y41646D01*
X31674Y41571D01*
X31633Y41480D01*
X31618Y41382D01*
X31633Y41283D01*
X31674Y41193D01*
X31739Y41117D01*
X31823Y41064D01*
X31919Y41035D01*
X32018Y41035D01*
X32114Y41064D01*
X32198Y41117D01*
X32263Y41193D01*
X32304Y41283D01*
X32318Y41382D01*
X33319D02*
X33304Y41480D01*
X33263Y41571D01*
X33198Y41646D01*
X33114Y41700D01*
X33018Y41728D01*
X32919Y41728D01*
X32823Y41700D01*
X32739Y41646D01*
X32674Y41571D01*
X32633Y41480D01*
X32619Y41382D01*
X32633Y41283D01*
X32674Y41193D01*
X32739Y41117D01*
X32823Y41064D01*
X32919Y41035D01*
X33018Y41035D01*
X33114Y41064D01*
X33198Y41117D01*
X33263Y41193D01*
X33304Y41283D01*
X33319Y41382D01*
X34318D02*
X34304Y41480D01*
X34263Y41571D01*
X34198Y41646D01*
X34114Y41700D01*
X34018Y41728D01*
X33919Y41728D01*
X33823Y41700D01*
X33739Y41646D01*
X33674Y41571D01*
X33633Y41480D01*
X33619Y41382D01*
X33633Y41283D01*
X33674Y41193D01*
X33739Y41117D01*
X33823Y41064D01*
X33919Y41035D01*
X34018Y41035D01*
X34114Y41064D01*
X34198Y41117D01*
X34263Y41193D01*
X34304Y41283D01*
X34318Y41382D01*
X35319D02*
X35304Y41480D01*
X35263Y41571D01*
X35198Y41646D01*
X35114Y41700D01*
X35018Y41728D01*
X34919Y41728D01*
X34823Y41700D01*
X34739Y41646D01*
X34674Y41571D01*
X34633Y41480D01*
X34618Y41382D01*
X34633Y41283D01*
X34674Y41193D01*
X34739Y41117D01*
X34823Y41064D01*
X34919Y41035D01*
X35018Y41035D01*
X35114Y41064D01*
X35198Y41117D01*
X35263Y41193D01*
X35304Y41283D01*
X35319Y41382D01*
X26481Y65787D02*
X26466Y65886D01*
X26425Y65977D01*
X26360Y66052D01*
X26276Y66106D01*
X26180Y66134D01*
X26081Y66134D01*
X25985Y66106D01*
X25901Y66052D01*
X25836Y65977D01*
X25795Y65886D01*
X25781Y65787D01*
X25795Y65689D01*
X25836Y65598D01*
X25901Y65523D01*
X25985Y65469D01*
X26081Y65441D01*
X26180Y65441D01*
X26276Y65469D01*
X26360Y65523D01*
X26425Y65598D01*
X26466Y65689D01*
X26481Y65787D01*
X25481D02*
X25466Y65886D01*
X25425Y65977D01*
X25360Y66052D01*
X25276Y66106D01*
X25180Y66134D01*
X25081Y66134D01*
X24985Y66106D01*
X24901Y66052D01*
X24836Y65977D01*
X24795Y65886D01*
X24781Y65787D01*
X24795Y65689D01*
X24836Y65598D01*
X24901Y65523D01*
X24985Y65469D01*
X25081Y65441D01*
X25180Y65441D01*
X25276Y65469D01*
X25360Y65523D01*
X25425Y65598D01*
X25466Y65689D01*
X25481Y65787D01*
X24481D02*
X24466Y65886D01*
X24425Y65977D01*
X24360Y66052D01*
X24276Y66106D01*
X24180Y66134D01*
X24081Y66134D01*
X23985Y66106D01*
X23901Y66052D01*
X23836Y65977D01*
X23795Y65886D01*
X23781Y65787D01*
X23795Y65689D01*
X23836Y65598D01*
X23901Y65523D01*
X23985Y65469D01*
X24081Y65441D01*
X24180Y65441D01*
X24276Y65469D01*
X24360Y65523D01*
X24425Y65598D01*
X24466Y65689D01*
X24481Y65787D01*
X23481D02*
X23466Y65886D01*
X23425Y65977D01*
X23360Y66052D01*
X23276Y66106D01*
X23180Y66134D01*
X23081Y66134D01*
X22985Y66106D01*
X22901Y66052D01*
X22836Y65977D01*
X22795Y65886D01*
X22781Y65787D01*
X22795Y65689D01*
X22836Y65598D01*
X22901Y65523D01*
X22985Y65469D01*
X23081Y65441D01*
X23180Y65441D01*
X23276Y65469D01*
X23360Y65523D01*
X23425Y65598D01*
X23466Y65689D01*
X23481Y65787D01*
X41628Y55991D02*
X41825D01*
X41628Y56169D02*
X41825D01*
X40200Y61436D02*
Y61632D01*
X40378Y61436D02*
Y61632D01*
X40889Y52781D02*
X41085D01*
X40889Y52959D02*
X41085D01*
X34718Y45771D02*
X34915D01*
X34718Y45949D02*
X34915D01*
X33909Y47849D02*
X34105D01*
X33909Y47671D02*
X34105D01*
X31549Y45174D02*
Y45371D01*
X31727Y45174D02*
Y45371D01*
X34700Y46441D02*
Y46637D01*
X34878Y46441D02*
Y46637D01*
X34682Y47281D02*
X34878D01*
X34682Y47102D02*
X34878D01*
X25159Y45989D02*
X25355D01*
X25159Y45811D02*
X25355D01*
X21909Y45194D02*
Y45391D01*
X22087Y45194D02*
Y45391D01*
X24279Y47859D02*
X24475D01*
X24279Y47681D02*
X24475D01*
X25229Y46441D02*
Y46637D01*
X25050Y46441D02*
Y46637D01*
X25032Y47102D02*
X25229D01*
X25032Y47281D02*
X25229D01*
X20538Y45811D02*
X20735D01*
X20538Y45989D02*
X20735D01*
X19778Y47859D02*
X19975D01*
X19778Y47681D02*
X19975D01*
X17399Y45084D02*
Y45281D01*
X17577Y45084D02*
Y45281D01*
X20550Y46441D02*
Y46637D01*
X20728Y46441D02*
Y46637D01*
X20516Y47271D02*
X20712D01*
X20516Y47092D02*
X20712D01*
X45648Y64809D02*
X45845D01*
X45648Y64631D02*
X45845D01*
X32542Y55811D02*
X32738D01*
X32542Y55632D02*
X32738D01*
X28078Y47553D02*
X28274D01*
X28078Y47375D02*
X28274D01*
X28217Y49009D02*
X28414D01*
X28217Y49187D02*
X28414D01*
X28855Y47553D02*
X29052D01*
X28855Y47375D02*
X29052D01*
X28965Y49009D02*
X29162D01*
X28965Y49187D02*
X29162D01*
X29636Y47367D02*
X29833D01*
X29636Y47545D02*
X29833D01*
X29746Y49179D02*
X29943D01*
X29746Y49001D02*
X29943D01*
X16402Y58164D02*
Y58361D01*
X16224Y58164D02*
Y58361D01*
X20385Y53798D02*
Y53994D01*
X20207Y53798D02*
Y53994D01*
X23386Y53857D02*
Y54053D01*
X23564Y53857D02*
Y54053D01*
X23394Y52108D02*
Y52304D01*
X23572Y52108D02*
Y52304D01*
X20393Y52079D02*
Y52275D01*
X20215Y52079D02*
Y52275D01*
X28709Y59044D02*
Y59241D01*
X28887Y59044D02*
Y59241D01*
X32182Y57492D02*
X32378D01*
X32182Y57671D02*
X32378D01*
X33568Y55621D02*
X33765D01*
X33568Y55799D02*
X33765D01*
X32344Y56565D02*
X32541D01*
X32344Y56744D02*
X32541D01*
X22738Y55581D02*
Y55777D01*
X22560Y55581D02*
Y55777D01*
X23278Y54801D02*
X23474D01*
X23278Y54623D02*
X23474D01*
X19505Y55588D02*
X19701D01*
X19505Y55767D02*
X19701D01*
X19322Y54942D02*
X19519D01*
X19322Y55121D02*
X19519D01*
X17608Y54114D02*
Y54311D01*
X17787Y54114D02*
Y54311D01*
X18018Y57579D02*
X18215D01*
X18018Y57401D02*
X18215D01*
X22842Y56716D02*
X23038D01*
X22842Y56537D02*
X23038D01*
X18018Y56339D02*
X18215D01*
X18018Y56161D02*
X18215D01*
X17322Y53451D02*
X17519D01*
X17322Y53272D02*
X17519D01*
X14650Y61241D02*
Y61437D01*
X14828Y61241D02*
Y61437D01*
X27898Y51469D02*
X28095D01*
X27898Y51290D02*
X28095D01*
X32057Y53447D02*
Y53643D01*
X31878Y53447D02*
Y53643D01*
X24388Y56471D02*
Y56667D01*
X24210Y56471D02*
Y56667D01*
X32187Y56979D02*
X32383D01*
X32187Y57157D02*
X32383D01*
X16058Y46171D02*
X16255D01*
X16058Y46349D02*
X16255D01*
X16090Y46801D02*
Y46997D01*
X16269Y46801D02*
Y46997D01*
X12938Y45424D02*
Y45621D01*
X13117Y45424D02*
Y45621D01*
X15199Y48109D02*
X15395D01*
X15199Y47931D02*
X15395D01*
X16062Y47631D02*
X16258D01*
X16062Y47452D02*
X16258D01*
X36312Y49592D02*
X36509D01*
X36312Y49771D02*
X36509D01*
X27148Y67171D02*
X27345D01*
X27148Y67349D02*
X27345D01*
X40689Y67129D02*
X40885D01*
X40689Y66951D02*
X40885D01*
X18018Y55699D02*
X18215D01*
X18018Y55521D02*
X18215D01*
X18305Y61465D02*
X18501D01*
X18305Y61643D02*
X18501D01*
X18933Y63663D02*
Y63860D01*
X19111Y63663D02*
Y63860D01*
X19521Y64031D02*
X19717D01*
X19521Y63853D02*
X19717D01*
X19521Y64441D02*
X19717D01*
X19521Y64263D02*
X19717D01*
X19525Y63435D02*
X19721D01*
X19525Y63613D02*
X19721D01*
X41631Y55562D02*
X41827D01*
X41631Y55741D02*
X41827D01*
X46288Y66349D02*
X46485D01*
X46288Y66171D02*
X46485D01*
X46292Y66912D02*
X46488D01*
X46292Y67091D02*
X46488D01*
X19511Y52213D02*
Y52410D01*
X19333Y52213D02*
Y52410D01*
X39978Y61436D02*
Y61632D01*
X39800Y61436D02*
Y61632D01*
X39731Y66757D02*
Y66953D01*
X39909Y66757D02*
Y66953D01*
X40131Y66757D02*
Y66953D01*
X40309Y66757D02*
Y66953D01*
X40889Y52529D02*
X41085D01*
X40889Y52351D02*
X41085D01*
X33132Y52251D02*
X33328D01*
X33132Y52072D02*
X33328D01*
X32538Y55429D02*
X32735D01*
X32538Y55251D02*
X32735D01*
X33108Y54034D02*
Y54231D01*
X33287Y54034D02*
Y54231D01*
X39889Y53409D02*
X40085D01*
X39889Y53231D02*
X40085D01*
X40204Y60593D02*
Y60790D01*
X40382Y60593D02*
Y60790D01*
X39892Y53642D02*
X40089D01*
X39892Y53821D02*
X40089D01*
X25294Y60414D02*
Y60611D01*
X25472Y60414D02*
Y60611D01*
X25752Y59732D02*
X25949D01*
X25752Y59911D02*
X25949D01*
X23331Y60653D02*
X23527D01*
X23331Y60831D02*
X23527D01*
X26869Y51352D02*
X27065D01*
X26869Y51531D02*
X27065D01*
X22842Y57301D02*
X23038D01*
X22842Y57122D02*
X23038D01*
X29688Y59331D02*
Y59527D01*
X29510Y59331D02*
Y59527D01*
X30090Y59341D02*
Y59537D01*
X30268Y59341D02*
Y59537D01*
X30838Y59341D02*
Y59537D01*
X30660Y59341D02*
Y59537D01*
X34242Y60032D02*
X34439D01*
X34242Y60211D02*
X34439D01*
X26292Y60321D02*
X26488D01*
X26292Y60142D02*
X26488D01*
X23153Y60043D02*
Y60240D01*
X23331Y60043D02*
Y60240D01*
X24101Y60243D02*
X24297D01*
X24101Y60421D02*
X24297D01*
X23792Y59822D02*
X23988D01*
X23792Y60001D02*
X23988D01*
X24575Y60003D02*
X24771D01*
X24575Y59825D02*
X24771D01*
X26295Y60733D02*
X26491D01*
X26295Y60555D02*
X26491D01*
X26999Y59214D02*
Y59411D01*
X27177Y59214D02*
Y59411D01*
X27111Y60001D02*
X27307D01*
X27111Y59823D02*
X27307D01*
X24884Y60414D02*
Y60611D01*
X25062Y60414D02*
Y60611D01*
X22565Y60645D02*
X22761D01*
X22565Y60823D02*
X22761D01*
X21723Y60203D02*
Y60400D01*
X21901Y60203D02*
Y60400D01*
X21313Y60203D02*
Y60400D01*
X21491Y60203D02*
Y60400D01*
X35357Y46444D02*
Y46641D01*
X35178Y46444D02*
Y46641D01*
X25529Y46444D02*
Y46641D01*
X25707Y46444D02*
Y46641D01*
X21307Y45644D02*
Y45841D01*
X21128Y45644D02*
Y45841D01*
X46069Y65231D02*
Y65427D01*
X45890Y65231D02*
Y65427D01*
X45489Y65234D02*
Y65431D01*
X45667Y65234D02*
Y65431D01*
X46269Y64184D02*
Y64381D01*
X46447Y64184D02*
Y64381D01*
X46412Y63761D02*
X46609D01*
X46412Y63582D02*
X46609D01*
X40901Y59921D02*
X41097D01*
X40901Y59743D02*
X41097D01*
X33328Y56831D02*
Y57027D01*
X33150Y56831D02*
Y57027D01*
X32950Y51471D02*
Y51667D01*
X33128Y51471D02*
Y51667D01*
X33519Y54034D02*
Y54231D01*
X33697Y54034D02*
Y54231D01*
X33749Y57229D02*
X33945D01*
X33749Y57051D02*
X33945D01*
X26699Y59541D02*
Y59737D01*
X26520Y59541D02*
Y59737D01*
X16826Y58161D02*
Y58357D01*
X17004Y58161D02*
Y58357D01*
X39629Y55191D02*
Y55387D01*
X39450Y55191D02*
Y55387D01*
X40550Y53661D02*
Y53857D01*
X40729Y53661D02*
Y53857D01*
X18022Y57151D02*
X18218D01*
X18022Y56972D02*
X18218D01*
X18022Y56562D02*
X18218D01*
X18022Y56741D02*
X18218D01*
X46186Y60842D02*
Y61038D01*
X46364Y60842D02*
Y61038D01*
X43552Y55922D02*
X43748D01*
X43552Y56101D02*
X43748D01*
X42762D02*
X42958D01*
X42762Y55922D02*
X42958D01*
X15908Y59655D02*
Y59852D01*
X16086Y59655D02*
Y59852D01*
X15238Y61241D02*
Y61437D01*
X15060Y61241D02*
Y61437D01*
X40832Y46262D02*
X41028D01*
X40832Y46441D02*
X41028D01*
X40832Y46861D02*
X41028D01*
X40832Y46682D02*
X41028D01*
X39079Y46919D02*
X39275D01*
X39079Y46741D02*
X39275D01*
X33302Y53581D02*
X33498D01*
X33302Y53402D02*
X33498D01*
X14182Y58712D02*
X14378D01*
X14182Y58891D02*
X14378D01*
X33749Y56631D02*
X33945D01*
X33749Y56809D02*
X33945D01*
X16847Y45834D02*
Y46031D01*
X16668Y45834D02*
Y46031D01*
X39971Y59743D02*
X40167D01*
X39971Y59921D02*
X40167D01*
X40905Y59315D02*
X41101D01*
X40905Y59493D02*
X41101D01*
X39975D02*
X40171D01*
X39975Y59315D02*
X40171D01*
X39795Y60591D02*
Y60787D01*
X39974Y60591D02*
Y60787D01*
X27084Y60723D02*
X27280D01*
X27084Y60545D02*
X27280D01*
X24575Y59593D02*
X24771D01*
X24575Y59415D02*
X24771D01*
X23788Y59599D02*
X23985D01*
X23788Y59421D02*
X23985D01*
X24105Y60823D02*
X24301D01*
X24105Y60645D02*
X24301D01*
X33262Y60012D02*
X33458D01*
X33262Y60191D02*
X33458D01*
X21089Y60207D02*
Y60403D01*
X20911Y60207D02*
Y60403D01*
X22341Y60047D02*
Y60243D01*
X22519Y60047D02*
Y60243D01*
X22929Y60047D02*
Y60243D01*
X22751Y60047D02*
Y60243D01*
X14185Y59522D02*
X14381D01*
X14185Y59701D02*
X14381D01*
X16310Y41528D02*
X16910Y41228D01*
X17410Y41628D02*
X17810Y41128D01*
X18310Y41328D02*
X18910Y41478D01*
X19410Y41128D02*
X19860Y41578D01*
X24528Y41128D02*
X24978Y41578D01*
X23428Y41328D02*
X24028Y41478D01*
X22528Y41628D02*
X22928Y41128D01*
X21428Y41528D02*
X22028Y41228D01*
X26546Y44284D02*
X27146Y43984D01*
X27646Y44384D02*
X28046Y43884D01*
X28546Y44084D02*
X29146Y44234D01*
X29646Y43884D02*
X30096Y44334D01*
X29646Y41128D02*
X30096Y41578D01*
X28546Y41328D02*
X29146Y41478D01*
X27646Y41628D02*
X28046Y41128D01*
X26546Y41528D02*
X27146Y41228D01*
X31669Y41532D02*
X32269Y41232D01*
X32768Y41632D02*
X33168Y41132D01*
X33668Y41332D02*
X34269Y41482D01*
X34769Y41132D02*
X35219Y41582D01*
X25931Y65537D02*
X26381Y65987D01*
X24831Y65737D02*
X25431Y65887D01*
X23931Y66037D02*
X24331Y65537D01*
X22831Y65937D02*
X23431Y65637D01*
X37829Y49141D02*
Y49641D01*
X40328Y49141D02*
Y49641D01*
X39829D02*
X40328D01*
X39829Y49141D02*
Y49641D01*
Y49141D02*
X40328D01*
X39829Y49641D02*
X40328Y49141D01*
X39829D02*
X40328Y49641D01*
X37829D02*
X38328D01*
Y49141D02*
Y49641D01*
X37829Y49141D02*
X38328D01*
X37829D02*
X38328Y49641D01*
X37829D02*
X38328Y49141D01*
X11736Y61350D02*
X11886D01*
X11736D02*
Y62350D01*
X11886D01*
X12586Y60500D02*
X13186D01*
X12586Y63200D02*
X13186D01*
X12736Y61750D02*
Y61850D01*
Y61950D01*
Y61850D02*
X12886D01*
X13036Y61200D02*
Y61650D01*
X12886D02*
X13036Y62150D01*
Y62500D01*
X14436Y60400D02*
Y60500D01*
X13386D02*
X14436D01*
X13386Y63200D02*
X14436D01*
Y63300D01*
X13386D02*
X14436D01*
X13386Y60400D02*
X14436D01*
X15890Y58153D02*
Y58947D01*
X15335Y58153D02*
X15890D01*
X15335D02*
Y58947D01*
X15890D01*
X15610Y58750D02*
X15770Y58513D01*
X15453D02*
X15770D01*
X15453D02*
X15610Y58750D01*
X27963Y49623D02*
Y49820D01*
X28141Y49623D02*
Y49820D01*
X32122Y52687D02*
X32318D01*
X32122Y52866D02*
X32318D01*
X32342Y54827D02*
X32538D01*
X32342Y55006D02*
X32538D01*
X32342Y54417D02*
X32538D01*
X32342Y54596D02*
X32538D01*
X58776Y52320D02*
Y52720D01*
X58876D01*
X59276Y52320D01*
X59376D01*
Y52920D02*
Y53120D01*
Y53020D01*
X58776D01*
X58876Y52920D01*
X59376Y53420D02*
X59276D01*
Y53520D01*
X59376D01*
Y53420D01*
X58876Y53919D02*
X58776Y54019D01*
Y54219D01*
X58876Y54319D01*
X59276D01*
X59376Y54219D01*
Y54019D01*
X59276Y53919D01*
X58876D01*
Y54519D02*
X58776Y54619D01*
Y54819D01*
X58876Y54919D01*
X59276D01*
X59376Y54819D01*
Y54619D01*
X59276Y54519D01*
X58876D01*
X30721Y69660D02*
X30921D01*
X30821D01*
Y70260D01*
X30721Y70160D01*
X31221D02*
X31321Y70260D01*
X31521D01*
X31621Y70160D01*
Y69760D01*
X31521Y69660D01*
X31321D01*
X31221Y69760D01*
Y70160D01*
X32220Y70260D02*
X31820D01*
Y69960D01*
X32020Y70060D01*
X32120D01*
X32220Y69960D01*
Y69760D01*
X32120Y69660D01*
X31920D01*
X31820Y69760D01*
X32420Y69660D02*
Y69760D01*
X32520D01*
Y69660D01*
X32420D01*
X32920Y70160D02*
X33020Y70260D01*
X33220D01*
X33320Y70160D01*
Y69760D01*
X33220Y69660D01*
X33020D01*
X32920Y69760D01*
Y70160D01*
X33520D02*
X33620Y70260D01*
X33820D01*
X33920Y70160D01*
Y69760D01*
X33820Y69660D01*
X33620D01*
X33520Y69760D01*
Y70160D01*
X16960Y69370D02*
X16946Y69469D01*
X16905Y69559D01*
X16839Y69635D01*
X16756Y69688D01*
X16660Y69717D01*
X16560Y69717D01*
X16465Y69688D01*
X16381Y69635D01*
X16316Y69559D01*
X16274Y69469D01*
X16260Y69370D01*
X16274Y69271D01*
X16316Y69181D01*
X16381Y69106D01*
X16465Y69052D01*
X16560Y69024D01*
X16660Y69024D01*
X16756Y69052D01*
X16839Y69106D01*
X16905Y69181D01*
X16946Y69271D01*
X16960Y69370D01*
X17960D02*
X17946Y69469D01*
X17905Y69559D01*
X17839Y69635D01*
X17756Y69688D01*
X17660Y69717D01*
X17560Y69717D01*
X17465Y69688D01*
X17381Y69635D01*
X17316Y69559D01*
X17274Y69469D01*
X17260Y69370D01*
X17274Y69271D01*
X17316Y69181D01*
X17381Y69106D01*
X17465Y69052D01*
X17560Y69024D01*
X17660Y69024D01*
X17756Y69052D01*
X17839Y69106D01*
X17905Y69181D01*
X17946Y69271D01*
X17960Y69370D01*
X18960D02*
X18946Y69469D01*
X18905Y69559D01*
X18839Y69635D01*
X18756Y69688D01*
X18660Y69717D01*
X18560Y69717D01*
X18465Y69688D01*
X18381Y69635D01*
X18316Y69559D01*
X18274Y69469D01*
X18260Y69370D01*
X18274Y69271D01*
X18316Y69181D01*
X18381Y69106D01*
X18465Y69052D01*
X18560Y69024D01*
X18660Y69024D01*
X18756Y69052D01*
X18839Y69106D01*
X18905Y69181D01*
X18946Y69271D01*
X18960Y69370D01*
X19960D02*
X19946Y69469D01*
X19905Y69559D01*
X19839Y69635D01*
X19756Y69688D01*
X19660Y69717D01*
X19560Y69717D01*
X19465Y69688D01*
X19381Y69635D01*
X19316Y69559D01*
X19274Y69469D01*
X19260Y69370D01*
X19274Y69271D01*
X19316Y69181D01*
X19381Y69106D01*
X19465Y69052D01*
X19560Y69024D01*
X19660Y69024D01*
X19756Y69052D01*
X19839Y69106D01*
X19905Y69181D01*
X19946Y69271D01*
X19960Y69370D01*
X25078D02*
X25064Y69469D01*
X25023Y69559D01*
X24958Y69635D01*
X24874Y69688D01*
X24778Y69717D01*
X24679Y69717D01*
X24583Y69688D01*
X24499Y69635D01*
X24434Y69559D01*
X24393Y69469D01*
X24378Y69370D01*
X24393Y69271D01*
X24434Y69181D01*
X24499Y69106D01*
X24583Y69052D01*
X24679Y69024D01*
X24778Y69024D01*
X24874Y69052D01*
X24958Y69106D01*
X25023Y69181D01*
X25064Y69271D01*
X25078Y69370D01*
X24078D02*
X24064Y69469D01*
X24023Y69559D01*
X23958Y69635D01*
X23874Y69688D01*
X23778Y69717D01*
X23679Y69717D01*
X23583Y69688D01*
X23499Y69635D01*
X23434Y69559D01*
X23393Y69469D01*
X23378Y69370D01*
X23393Y69271D01*
X23434Y69181D01*
X23499Y69106D01*
X23583Y69052D01*
X23679Y69024D01*
X23778Y69024D01*
X23874Y69052D01*
X23958Y69106D01*
X24023Y69181D01*
X24064Y69271D01*
X24078Y69370D01*
X23078D02*
X23064Y69469D01*
X23023Y69559D01*
X22958Y69635D01*
X22874Y69688D01*
X22778Y69717D01*
X22679Y69717D01*
X22583Y69688D01*
X22499Y69635D01*
X22434Y69559D01*
X22393Y69469D01*
X22378Y69370D01*
X22393Y69271D01*
X22434Y69181D01*
X22499Y69106D01*
X22583Y69052D01*
X22679Y69024D01*
X22778Y69024D01*
X22874Y69052D01*
X22958Y69106D01*
X23023Y69181D01*
X23064Y69271D01*
X23078Y69370D01*
X22078D02*
X22064Y69469D01*
X22023Y69559D01*
X21958Y69635D01*
X21874Y69688D01*
X21778Y69717D01*
X21679Y69717D01*
X21583Y69688D01*
X21499Y69635D01*
X21434Y69559D01*
X21393Y69469D01*
X21378Y69370D01*
X21393Y69271D01*
X21434Y69181D01*
X21499Y69106D01*
X21583Y69052D01*
X21679Y69024D01*
X21778Y69024D01*
X21874Y69052D01*
X21958Y69106D01*
X22023Y69181D01*
X22064Y69271D01*
X22078Y69370D01*
X27196Y72126D02*
X27182Y72225D01*
X27141Y72315D01*
X27076Y72390D01*
X26992Y72444D01*
X26896Y72472D01*
X26797Y72472D01*
X26701Y72444D01*
X26617Y72390D01*
X26552Y72315D01*
X26511Y72225D01*
X26496Y72126D01*
X26511Y72027D01*
X26552Y71937D01*
X26617Y71861D01*
X26701Y71808D01*
X26797Y71780D01*
X26896Y71780D01*
X26992Y71808D01*
X27076Y71861D01*
X27141Y71937D01*
X27182Y72027D01*
X27196Y72126D01*
X28196D02*
X28182Y72225D01*
X28141Y72315D01*
X28076Y72390D01*
X27992Y72444D01*
X27896Y72472D01*
X27797Y72472D01*
X27701Y72444D01*
X27617Y72390D01*
X27552Y72315D01*
X27511Y72225D01*
X27496Y72126D01*
X27511Y72027D01*
X27552Y71937D01*
X27617Y71861D01*
X27701Y71808D01*
X27797Y71780D01*
X27896Y71780D01*
X27992Y71808D01*
X28076Y71861D01*
X28141Y71937D01*
X28182Y72027D01*
X28196Y72126D01*
X29196D02*
X29182Y72225D01*
X29141Y72315D01*
X29076Y72390D01*
X28992Y72444D01*
X28896Y72472D01*
X28797Y72472D01*
X28701Y72444D01*
X28617Y72390D01*
X28552Y72315D01*
X28511Y72225D01*
X28496Y72126D01*
X28511Y72027D01*
X28552Y71937D01*
X28617Y71861D01*
X28701Y71808D01*
X28797Y71780D01*
X28896Y71780D01*
X28992Y71808D01*
X29076Y71861D01*
X29141Y71937D01*
X29182Y72027D01*
X29196Y72126D01*
X30196D02*
X30182Y72225D01*
X30141Y72315D01*
X30076Y72390D01*
X29992Y72444D01*
X29896Y72472D01*
X29797Y72472D01*
X29701Y72444D01*
X29617Y72390D01*
X29552Y72315D01*
X29511Y72225D01*
X29496Y72126D01*
X29511Y72027D01*
X29552Y71937D01*
X29617Y71861D01*
X29701Y71808D01*
X29797Y71780D01*
X29896Y71780D01*
X29992Y71808D01*
X30076Y71861D01*
X30141Y71937D01*
X30182Y72027D01*
X30196Y72126D01*
Y69370D02*
X30182Y69469D01*
X30141Y69559D01*
X30076Y69635D01*
X29992Y69688D01*
X29896Y69717D01*
X29797Y69717D01*
X29701Y69688D01*
X29617Y69635D01*
X29552Y69559D01*
X29511Y69469D01*
X29496Y69370D01*
X29511Y69271D01*
X29552Y69181D01*
X29617Y69106D01*
X29701Y69052D01*
X29797Y69024D01*
X29896Y69024D01*
X29992Y69052D01*
X30076Y69106D01*
X30141Y69181D01*
X30182Y69271D01*
X30196Y69370D01*
X29196D02*
X29182Y69469D01*
X29141Y69559D01*
X29076Y69635D01*
X28992Y69688D01*
X28896Y69717D01*
X28797Y69717D01*
X28701Y69688D01*
X28617Y69635D01*
X28552Y69559D01*
X28511Y69469D01*
X28496Y69370D01*
X28511Y69271D01*
X28552Y69181D01*
X28617Y69106D01*
X28701Y69052D01*
X28797Y69024D01*
X28896Y69024D01*
X28992Y69052D01*
X29076Y69106D01*
X29141Y69181D01*
X29182Y69271D01*
X29196Y69370D01*
X28196D02*
X28182Y69469D01*
X28141Y69559D01*
X28076Y69635D01*
X27992Y69688D01*
X27896Y69717D01*
X27797Y69717D01*
X27701Y69688D01*
X27617Y69635D01*
X27552Y69559D01*
X27511Y69469D01*
X27496Y69370D01*
X27511Y69271D01*
X27552Y69181D01*
X27617Y69106D01*
X27701Y69052D01*
X27797Y69024D01*
X27896Y69024D01*
X27992Y69052D01*
X28076Y69106D01*
X28141Y69181D01*
X28182Y69271D01*
X28196Y69370D01*
X27196D02*
X27182Y69469D01*
X27141Y69559D01*
X27076Y69635D01*
X26992Y69688D01*
X26896Y69717D01*
X26797Y69717D01*
X26701Y69688D01*
X26617Y69635D01*
X26552Y69559D01*
X26511Y69469D01*
X26496Y69370D01*
X26511Y69271D01*
X26552Y69181D01*
X26617Y69106D01*
X26701Y69052D01*
X26797Y69024D01*
X26896Y69024D01*
X26992Y69052D01*
X27076Y69106D01*
X27141Y69181D01*
X27182Y69271D01*
X27196Y69370D01*
X32318Y69374D02*
X32304Y69473D01*
X32263Y69563D01*
X32198Y69639D01*
X32114Y69692D01*
X32018Y69720D01*
X31919Y69720D01*
X31823Y69692D01*
X31739Y69639D01*
X31674Y69563D01*
X31633Y69473D01*
X31618Y69374D01*
X31633Y69275D01*
X31674Y69185D01*
X31739Y69110D01*
X31823Y69056D01*
X31919Y69028D01*
X32018Y69028D01*
X32114Y69056D01*
X32198Y69110D01*
X32263Y69185D01*
X32304Y69275D01*
X32318Y69374D01*
X33319D02*
X33304Y69473D01*
X33263Y69563D01*
X33198Y69639D01*
X33114Y69692D01*
X33018Y69720D01*
X32919Y69720D01*
X32823Y69692D01*
X32739Y69639D01*
X32674Y69563D01*
X32633Y69473D01*
X32619Y69374D01*
X32633Y69275D01*
X32674Y69185D01*
X32739Y69110D01*
X32823Y69056D01*
X32919Y69028D01*
X33018Y69028D01*
X33114Y69056D01*
X33198Y69110D01*
X33263Y69185D01*
X33304Y69275D01*
X33319Y69374D01*
X34318D02*
X34304Y69473D01*
X34263Y69563D01*
X34198Y69639D01*
X34114Y69692D01*
X34018Y69720D01*
X33919Y69720D01*
X33823Y69692D01*
X33739Y69639D01*
X33674Y69563D01*
X33633Y69473D01*
X33619Y69374D01*
X33633Y69275D01*
X33674Y69185D01*
X33739Y69110D01*
X33823Y69056D01*
X33919Y69028D01*
X34018Y69028D01*
X34114Y69056D01*
X34198Y69110D01*
X34263Y69185D01*
X34304Y69275D01*
X34318Y69374D01*
X35319D02*
X35304Y69473D01*
X35263Y69563D01*
X35198Y69639D01*
X35114Y69692D01*
X35018Y69720D01*
X34919Y69720D01*
X34823Y69692D01*
X34739Y69639D01*
X34674Y69563D01*
X34633Y69473D01*
X34618Y69374D01*
X34633Y69275D01*
X34674Y69185D01*
X34739Y69110D01*
X34823Y69056D01*
X34919Y69028D01*
X35018Y69028D01*
X35114Y69056D01*
X35198Y69110D01*
X35263Y69185D01*
X35304Y69275D01*
X35319Y69374D01*
X26481Y93780D02*
X26466Y93878D01*
X26425Y93969D01*
X26360Y94044D01*
X26276Y94098D01*
X26180Y94126D01*
X26081Y94126D01*
X25985Y94098D01*
X25901Y94044D01*
X25836Y93969D01*
X25795Y93878D01*
X25781Y93780D01*
X25795Y93681D01*
X25836Y93590D01*
X25901Y93515D01*
X25985Y93461D01*
X26081Y93433D01*
X26180Y93433D01*
X26276Y93461D01*
X26360Y93515D01*
X26425Y93590D01*
X26466Y93681D01*
X26481Y93780D01*
X25481D02*
X25466Y93878D01*
X25425Y93969D01*
X25360Y94044D01*
X25276Y94098D01*
X25180Y94126D01*
X25081Y94126D01*
X24985Y94098D01*
X24901Y94044D01*
X24836Y93969D01*
X24795Y93878D01*
X24781Y93780D01*
X24795Y93681D01*
X24836Y93590D01*
X24901Y93515D01*
X24985Y93461D01*
X25081Y93433D01*
X25180Y93433D01*
X25276Y93461D01*
X25360Y93515D01*
X25425Y93590D01*
X25466Y93681D01*
X25481Y93780D01*
X24481D02*
X24466Y93878D01*
X24425Y93969D01*
X24360Y94044D01*
X24276Y94098D01*
X24180Y94126D01*
X24081Y94126D01*
X23985Y94098D01*
X23901Y94044D01*
X23836Y93969D01*
X23795Y93878D01*
X23781Y93780D01*
X23795Y93681D01*
X23836Y93590D01*
X23901Y93515D01*
X23985Y93461D01*
X24081Y93433D01*
X24180Y93433D01*
X24276Y93461D01*
X24360Y93515D01*
X24425Y93590D01*
X24466Y93681D01*
X24481Y93780D01*
X23481D02*
X23466Y93878D01*
X23425Y93969D01*
X23360Y94044D01*
X23276Y94098D01*
X23180Y94126D01*
X23081Y94126D01*
X22985Y94098D01*
X22901Y94044D01*
X22836Y93969D01*
X22795Y93878D01*
X22781Y93780D01*
X22795Y93681D01*
X22836Y93590D01*
X22901Y93515D01*
X22985Y93461D01*
X23081Y93433D01*
X23180Y93433D01*
X23276Y93461D01*
X23360Y93515D01*
X23425Y93590D01*
X23466Y93681D01*
X23481Y93780D01*
X41628Y83983D02*
X41825D01*
X41628Y84161D02*
X41825D01*
X40200Y89428D02*
Y89624D01*
X40378Y89428D02*
Y89624D01*
X40889Y80773D02*
X41085D01*
X40889Y80951D02*
X41085D01*
X34718Y73763D02*
X34915D01*
X34718Y73941D02*
X34915D01*
X33909Y75841D02*
X34105D01*
X33909Y75663D02*
X34105D01*
X31549Y73166D02*
Y73363D01*
X31727Y73166D02*
Y73363D01*
X34700Y74433D02*
Y74629D01*
X34878Y74433D02*
Y74629D01*
X34682Y75273D02*
X34878D01*
X34682Y75095D02*
X34878D01*
X25159Y73981D02*
X25355D01*
X25159Y73803D02*
X25355D01*
X21909Y73186D02*
Y73383D01*
X22087Y73186D02*
Y73383D01*
X24279Y75851D02*
X24475D01*
X24279Y75673D02*
X24475D01*
X25229Y74433D02*
Y74629D01*
X25050Y74433D02*
Y74629D01*
X25032Y75095D02*
X25229D01*
X25032Y75273D02*
X25229D01*
X20538Y73803D02*
X20735D01*
X20538Y73981D02*
X20735D01*
X19778Y75851D02*
X19975D01*
X19778Y75673D02*
X19975D01*
X17399Y73076D02*
Y73273D01*
X17577Y73076D02*
Y73273D01*
X20550Y74433D02*
Y74629D01*
X20728Y74433D02*
Y74629D01*
X20516Y75263D02*
X20712D01*
X20516Y75085D02*
X20712D01*
X45648Y92801D02*
X45845D01*
X45648Y92623D02*
X45845D01*
X32542Y83803D02*
X32738D01*
X32542Y83625D02*
X32738D01*
X28078Y75545D02*
X28274D01*
X28078Y75367D02*
X28274D01*
X28217Y77001D02*
X28414D01*
X28217Y77179D02*
X28414D01*
X28855Y75545D02*
X29052D01*
X28855Y75367D02*
X29052D01*
X28965Y77001D02*
X29162D01*
X28965Y77179D02*
X29162D01*
X29636Y75359D02*
X29833D01*
X29636Y75537D02*
X29833D01*
X29746Y77171D02*
X29943D01*
X29746Y76993D02*
X29943D01*
X16402Y86156D02*
Y86353D01*
X16224Y86156D02*
Y86353D01*
X20385Y81790D02*
Y81986D01*
X20207Y81790D02*
Y81986D01*
X23386Y81849D02*
Y82045D01*
X23564Y81849D02*
Y82045D01*
X23394Y80100D02*
Y80296D01*
X23572Y80100D02*
Y80296D01*
X20393Y80071D02*
Y80267D01*
X20215Y80071D02*
Y80267D01*
X28709Y87036D02*
Y87233D01*
X28887Y87036D02*
Y87233D01*
X32182Y85485D02*
X32378D01*
X32182Y85663D02*
X32378D01*
X33568Y83613D02*
X33765D01*
X33568Y83791D02*
X33765D01*
X32344Y84557D02*
X32541D01*
X32344Y84736D02*
X32541D01*
X22738Y83573D02*
Y83769D01*
X22560Y83573D02*
Y83769D01*
X23278Y82793D02*
X23474D01*
X23278Y82615D02*
X23474D01*
X19505Y83581D02*
X19701D01*
X19505Y83759D02*
X19701D01*
X19322Y82935D02*
X19519D01*
X19322Y83113D02*
X19519D01*
X17608Y82106D02*
Y82303D01*
X17787Y82106D02*
Y82303D01*
X18018Y85571D02*
X18215D01*
X18018Y85393D02*
X18215D01*
X22842Y84708D02*
X23038D01*
X22842Y84530D02*
X23038D01*
X18018Y84331D02*
X18215D01*
X18018Y84153D02*
X18215D01*
X17322Y81443D02*
X17519D01*
X17322Y81265D02*
X17519D01*
X14650Y89233D02*
Y89429D01*
X14828Y89233D02*
Y89429D01*
X27898Y79461D02*
X28095D01*
X27898Y79283D02*
X28095D01*
X32057Y81439D02*
Y81635D01*
X31878Y81439D02*
Y81635D01*
X24388Y84463D02*
Y84659D01*
X24210Y84463D02*
Y84659D01*
X32187Y84971D02*
X32383D01*
X32187Y85149D02*
X32383D01*
X16058Y74163D02*
X16255D01*
X16058Y74341D02*
X16255D01*
X16090Y74793D02*
Y74989D01*
X16269Y74793D02*
Y74989D01*
X12938Y73416D02*
Y73613D01*
X13117Y73416D02*
Y73613D01*
X15199Y76101D02*
X15395D01*
X15199Y75923D02*
X15395D01*
X16062Y75623D02*
X16258D01*
X16062Y75445D02*
X16258D01*
X36312Y77585D02*
X36509D01*
X36312Y77763D02*
X36509D01*
X27148Y95163D02*
X27345D01*
X27148Y95341D02*
X27345D01*
X40689Y95121D02*
X40885D01*
X40689Y94943D02*
X40885D01*
X18018Y83691D02*
X18215D01*
X18018Y83513D02*
X18215D01*
X18305Y89457D02*
X18501D01*
X18305Y89635D02*
X18501D01*
X18933Y91655D02*
Y91852D01*
X19111Y91655D02*
Y91852D01*
X19521Y92023D02*
X19717D01*
X19521Y91845D02*
X19717D01*
X19521Y92433D02*
X19717D01*
X19521Y92255D02*
X19717D01*
X19525Y91427D02*
X19721D01*
X19525Y91605D02*
X19721D01*
X41631Y83555D02*
X41827D01*
X41631Y83733D02*
X41827D01*
X46288Y94341D02*
X46485D01*
X46288Y94163D02*
X46485D01*
X46292Y94905D02*
X46488D01*
X46292Y95083D02*
X46488D01*
X19511Y80205D02*
Y80402D01*
X19333Y80205D02*
Y80402D01*
X39978Y89428D02*
Y89624D01*
X39800Y89428D02*
Y89624D01*
X39731Y94749D02*
Y94945D01*
X39909Y94749D02*
Y94945D01*
X40131Y94749D02*
Y94945D01*
X40309Y94749D02*
Y94945D01*
X40889Y80521D02*
X41085D01*
X40889Y80343D02*
X41085D01*
X33132Y80243D02*
X33328D01*
X33132Y80065D02*
X33328D01*
X32538Y83421D02*
X32735D01*
X32538Y83243D02*
X32735D01*
X33108Y82026D02*
Y82223D01*
X33287Y82026D02*
Y82223D01*
X39889Y81401D02*
X40085D01*
X39889Y81223D02*
X40085D01*
X40204Y88585D02*
Y88782D01*
X40382Y88585D02*
Y88782D01*
X39892Y81635D02*
X40089D01*
X39892Y81813D02*
X40089D01*
X25294Y88406D02*
Y88603D01*
X25472Y88406D02*
Y88603D01*
X25752Y87725D02*
X25949D01*
X25752Y87903D02*
X25949D01*
X23331Y88645D02*
X23527D01*
X23331Y88823D02*
X23527D01*
X26869Y79345D02*
X27065D01*
X26869Y79523D02*
X27065D01*
X22842Y85293D02*
X23038D01*
X22842Y85115D02*
X23038D01*
X29688Y87323D02*
Y87519D01*
X29510Y87323D02*
Y87519D01*
X30090Y87333D02*
Y87529D01*
X30268Y87333D02*
Y87529D01*
X30838Y87333D02*
Y87529D01*
X30660Y87333D02*
Y87529D01*
X34242Y88025D02*
X34439D01*
X34242Y88203D02*
X34439D01*
X26292Y88313D02*
X26488D01*
X26292Y88135D02*
X26488D01*
X23153Y88035D02*
Y88232D01*
X23331Y88035D02*
Y88232D01*
X24101Y88235D02*
X24297D01*
X24101Y88413D02*
X24297D01*
X23792Y87815D02*
X23988D01*
X23792Y87993D02*
X23988D01*
X24575Y87995D02*
X24771D01*
X24575Y87817D02*
X24771D01*
X26295Y88725D02*
X26491D01*
X26295Y88547D02*
X26491D01*
X26999Y87206D02*
Y87403D01*
X27177Y87206D02*
Y87403D01*
X27111Y87993D02*
X27307D01*
X27111Y87815D02*
X27307D01*
X24884Y88406D02*
Y88603D01*
X25062Y88406D02*
Y88603D01*
X22565Y88637D02*
X22761D01*
X22565Y88815D02*
X22761D01*
X21723Y88195D02*
Y88392D01*
X21901Y88195D02*
Y88392D01*
X21313Y88195D02*
Y88392D01*
X21491Y88195D02*
Y88392D01*
X35357Y74436D02*
Y74633D01*
X35178Y74436D02*
Y74633D01*
X25529Y74436D02*
Y74633D01*
X25707Y74436D02*
Y74633D01*
X21307Y73636D02*
Y73833D01*
X21128Y73636D02*
Y73833D01*
X46069Y93223D02*
Y93419D01*
X45890Y93223D02*
Y93419D01*
X45489Y93226D02*
Y93423D01*
X45667Y93226D02*
Y93423D01*
X46269Y92176D02*
Y92373D01*
X46447Y92176D02*
Y92373D01*
X46412Y91753D02*
X46609D01*
X46412Y91575D02*
X46609D01*
X40901Y87913D02*
X41097D01*
X40901Y87735D02*
X41097D01*
X33328Y84823D02*
Y85019D01*
X33150Y84823D02*
Y85019D01*
X32950Y79463D02*
Y79659D01*
X33128Y79463D02*
Y79659D01*
X33519Y82026D02*
Y82223D01*
X33697Y82026D02*
Y82223D01*
X33749Y85221D02*
X33945D01*
X33749Y85043D02*
X33945D01*
X26699Y87533D02*
Y87729D01*
X26520Y87533D02*
Y87729D01*
X16826Y86153D02*
Y86349D01*
X17004Y86153D02*
Y86349D01*
X39629Y83183D02*
Y83379D01*
X39450Y83183D02*
Y83379D01*
X40550Y81653D02*
Y81849D01*
X40729Y81653D02*
Y81849D01*
X18022Y85143D02*
X18218D01*
X18022Y84965D02*
X18218D01*
X18022Y84555D02*
X18218D01*
X18022Y84733D02*
X18218D01*
X46186Y88834D02*
Y89030D01*
X46364Y88834D02*
Y89030D01*
X43552Y83915D02*
X43748D01*
X43552Y84093D02*
X43748D01*
X42762D02*
X42958D01*
X42762Y83915D02*
X42958D01*
X15908Y87647D02*
Y87844D01*
X16086Y87647D02*
Y87844D01*
X15238Y89233D02*
Y89429D01*
X15060Y89233D02*
Y89429D01*
X40832Y74255D02*
X41028D01*
X40832Y74433D02*
X41028D01*
X40832Y74853D02*
X41028D01*
X40832Y74675D02*
X41028D01*
X39079Y74911D02*
X39275D01*
X39079Y74733D02*
X39275D01*
X33302Y81573D02*
X33498D01*
X33302Y81395D02*
X33498D01*
X14182Y86705D02*
X14378D01*
X14182Y86883D02*
X14378D01*
X33749Y84623D02*
X33945D01*
X33749Y84801D02*
X33945D01*
X16847Y73826D02*
Y74023D01*
X16668Y73826D02*
Y74023D01*
X39971Y87735D02*
X40167D01*
X39971Y87913D02*
X40167D01*
X40905Y87307D02*
X41101D01*
X40905Y87485D02*
X41101D01*
X39975D02*
X40171D01*
X39975Y87307D02*
X40171D01*
X39795Y88583D02*
Y88779D01*
X39974Y88583D02*
Y88779D01*
X27084Y88715D02*
X27280D01*
X27084Y88537D02*
X27280D01*
X24575Y87585D02*
X24771D01*
X24575Y87407D02*
X24771D01*
X23788Y87591D02*
X23985D01*
X23788Y87413D02*
X23985D01*
X24105Y88815D02*
X24301D01*
X24105Y88637D02*
X24301D01*
X33262Y88005D02*
X33458D01*
X33262Y88183D02*
X33458D01*
X21089Y88199D02*
Y88395D01*
X20911Y88199D02*
Y88395D01*
X22341Y88039D02*
Y88235D01*
X22519Y88039D02*
Y88235D01*
X22929Y88039D02*
Y88235D01*
X22751Y88039D02*
Y88235D01*
X14185Y87515D02*
X14381D01*
X14185Y87693D02*
X14381D01*
X16310Y69520D02*
X16910Y69220D01*
X17410Y69620D02*
X17810Y69120D01*
X18310Y69320D02*
X18910Y69470D01*
X19410Y69120D02*
X19860Y69570D01*
X24528Y69120D02*
X24978Y69570D01*
X23428Y69320D02*
X24028Y69470D01*
X22528Y69620D02*
X22928Y69120D01*
X21428Y69520D02*
X22028Y69220D01*
X26546Y72276D02*
X27146Y71976D01*
X27646Y72376D02*
X28046Y71876D01*
X28546Y72076D02*
X29146Y72226D01*
X29646Y71876D02*
X30096Y72326D01*
X29646Y69120D02*
X30096Y69570D01*
X28546Y69320D02*
X29146Y69470D01*
X27646Y69620D02*
X28046Y69120D01*
X26546Y69520D02*
X27146Y69220D01*
X31669Y69524D02*
X32269Y69224D01*
X32768Y69624D02*
X33168Y69124D01*
X33668Y69324D02*
X34269Y69474D01*
X34769Y69124D02*
X35219Y69574D01*
X25931Y93530D02*
X26381Y93980D01*
X24831Y93730D02*
X25431Y93880D01*
X23931Y94030D02*
X24331Y93530D01*
X22831Y93930D02*
X23431Y93630D01*
X37829Y77133D02*
Y77633D01*
X40328Y77133D02*
Y77633D01*
X39829D02*
X40328D01*
X39829Y77133D02*
Y77633D01*
Y77133D02*
X40328D01*
X39829Y77633D02*
X40328Y77133D01*
X39829D02*
X40328Y77633D01*
X37829D02*
X38328D01*
Y77133D02*
Y77633D01*
X37829Y77133D02*
X38328D01*
X37829D02*
X38328Y77633D01*
X37829D02*
X38328Y77133D01*
X11736Y89343D02*
X11886D01*
X11736D02*
Y90343D01*
X11886D01*
X12586Y88493D02*
X13186D01*
X12586Y91193D02*
X13186D01*
X12736Y89743D02*
Y89843D01*
Y89943D01*
Y89843D02*
X12886D01*
X13036Y89193D02*
Y89643D01*
X12886D02*
X13036Y90143D01*
Y90493D01*
X14436Y88393D02*
Y88493D01*
X13386D02*
X14436D01*
X13386Y91193D02*
X14436D01*
Y91293D01*
X13386D02*
X14436D01*
X13386Y88393D02*
X14436D01*
X15890Y86145D02*
Y86939D01*
X15335Y86145D02*
X15890D01*
X15335D02*
Y86939D01*
X15890D01*
X15610Y86742D02*
X15770Y86505D01*
X15453D02*
X15770D01*
X15453D02*
X15610Y86742D01*
X27963Y77615D02*
Y77812D01*
X28141Y77615D02*
Y77812D01*
X32122Y80680D02*
X32318D01*
X32122Y80858D02*
X32318D01*
X32342Y82820D02*
X32538D01*
X32342Y82998D02*
X32538D01*
X32342Y82410D02*
X32538D01*
X32342Y82588D02*
X32538D01*
X58776Y80312D02*
Y80712D01*
X58876D01*
X59276Y80312D01*
X59376D01*
Y80912D02*
Y81112D01*
Y81012D01*
X58776D01*
X58876Y80912D01*
X59376Y81412D02*
X59276D01*
Y81512D01*
X59376D01*
Y81412D01*
X58876Y81912D02*
X58776Y82012D01*
Y82211D01*
X58876Y82311D01*
X59276D01*
X59376Y82211D01*
Y82012D01*
X59276Y81912D01*
X58876D01*
Y82511D02*
X58776Y82611D01*
Y82811D01*
X58876Y82911D01*
X59276D01*
X59376Y82811D01*
Y82611D01*
X59276Y82511D01*
X58876D01*
X30721Y97652D02*
X30921D01*
X30821D01*
Y98252D01*
X30721Y98152D01*
X31221D02*
X31321Y98252D01*
X31521D01*
X31621Y98152D01*
Y97752D01*
X31521Y97652D01*
X31321D01*
X31221Y97752D01*
Y98152D01*
X32220Y98252D02*
X31820D01*
Y97952D01*
X32020Y98052D01*
X32120D01*
X32220Y97952D01*
Y97752D01*
X32120Y97652D01*
X31920D01*
X31820Y97752D01*
X32420Y97652D02*
Y97752D01*
X32520D01*
Y97652D01*
X32420D01*
X32920Y98152D02*
X33020Y98252D01*
X33220D01*
X33320Y98152D01*
Y97752D01*
X33220Y97652D01*
X33020D01*
X32920Y97752D01*
Y98152D01*
X33520D02*
X33620Y98252D01*
X33820D01*
X33920Y98152D01*
Y97752D01*
X33820Y97652D01*
X33620D01*
X33520Y97752D01*
Y98152D01*
G54D148*
X21701Y36911D02*
Y38666D01*
X19201Y36911D02*
Y38666D01*
Y36911D02*
X21701D01*
X21576Y38666D02*
X21701D01*
X19321D02*
X21576D01*
X19201D02*
X19321D01*
Y39041D02*
X21576D01*
Y38666D02*
Y39041D01*
X19321Y38666D02*
Y39041D01*
X18491Y36911D02*
Y38666D01*
X15991Y36911D02*
Y38666D01*
Y36911D02*
X18491D01*
X18366Y38666D02*
X18491D01*
X16111D02*
X18366D01*
X15991D02*
X16111D01*
Y39041D02*
X18366D01*
Y38666D02*
Y39041D01*
X16111Y38666D02*
Y39041D01*
X37018Y23289D02*
X38774D01*
X37018Y26788D02*
X38774D01*
X37018Y23289D02*
Y26788D01*
X38774Y23289D02*
Y23914D01*
Y26168D01*
Y26788D01*
X39148Y23914D02*
Y26168D01*
X38774Y23914D02*
X39148D01*
X38774Y26168D02*
X39148D01*
X37029Y27429D02*
X38784D01*
X37029Y30928D02*
X38784D01*
X37029Y27429D02*
Y30928D01*
X38784Y27429D02*
Y28054D01*
Y30308D01*
Y30928D01*
X39158Y28054D02*
Y30308D01*
X38784Y28054D02*
X39158D01*
X38784Y30308D02*
X39158D01*
X34597Y30935D02*
X36352D01*
X34597Y28435D02*
X36352D01*
Y30935D01*
X34597Y30810D02*
Y30935D01*
Y28555D02*
Y30810D01*
Y28435D02*
Y28555D01*
X34222D02*
Y30810D01*
X34597D01*
X34222Y28555D02*
X34597D01*
Y24715D02*
X36352D01*
X34597Y22215D02*
X36352D01*
Y24715D01*
X34597Y24590D02*
Y24715D01*
Y22335D02*
Y24590D01*
Y22215D02*
Y22335D01*
X34222D02*
Y24590D01*
X34597D01*
X34222Y22335D02*
X34597D01*
X47243Y38979D02*
X48998D01*
X47243Y36479D02*
X48998D01*
Y38979D01*
X47243Y38853D02*
Y38979D01*
Y36598D02*
Y38853D01*
Y36479D02*
Y36598D01*
X46869D02*
Y38853D01*
X47243D01*
X46869Y36598D02*
X47243D01*
X34597Y27825D02*
X36352D01*
X34597Y25325D02*
X36352D01*
Y27825D01*
X34597Y27700D02*
Y27825D01*
Y25445D02*
Y27700D01*
Y25325D02*
Y25445D01*
X34222D02*
Y27700D01*
X34597D01*
X34222Y25445D02*
X34597D01*
X15991Y34506D02*
Y36261D01*
X18491Y34506D02*
Y36261D01*
X15991D02*
X18491D01*
X15991Y34506D02*
X16116D01*
X18371D01*
X18491D01*
X16116Y34131D02*
X18371D01*
X16116D02*
Y34506D01*
X18371Y34131D02*
Y34506D01*
X21701Y64903D02*
Y66658D01*
X19201Y64903D02*
Y66658D01*
Y64903D02*
X21701D01*
X21576Y66658D02*
X21701D01*
X19321D02*
X21576D01*
X19201D02*
X19321D01*
Y67033D02*
X21576D01*
Y66658D02*
Y67033D01*
X19321Y66658D02*
Y67033D01*
X18491Y64903D02*
Y66658D01*
X15991Y64903D02*
Y66658D01*
Y64903D02*
X18491D01*
X18366Y66658D02*
X18491D01*
X16111D02*
X18366D01*
X15991D02*
X16111D01*
Y67033D02*
X18366D01*
Y66658D02*
Y67033D01*
X16111Y66658D02*
Y67033D01*
X37018Y51281D02*
X38774D01*
X37018Y54781D02*
X38774D01*
X37018Y51281D02*
Y54781D01*
X38774Y51281D02*
Y51906D01*
Y54161D01*
Y54781D01*
X39148Y51906D02*
Y54161D01*
X38774Y51906D02*
X39148D01*
X38774Y54161D02*
X39148D01*
X37029Y55421D02*
X38784D01*
X37029Y58921D02*
X38784D01*
X37029Y55421D02*
Y58921D01*
X38784Y55421D02*
Y56046D01*
Y58301D01*
Y58921D01*
X39158Y56046D02*
Y58301D01*
X38784Y56046D02*
X39158D01*
X38784Y58301D02*
X39158D01*
X34597Y58927D02*
X36352D01*
X34597Y56427D02*
X36352D01*
Y58927D01*
X34597Y58802D02*
Y58927D01*
Y56547D02*
Y58802D01*
Y56427D02*
Y56547D01*
X34222D02*
Y58802D01*
X34597D01*
X34222Y56547D02*
X34597D01*
Y52707D02*
X36352D01*
X34597Y50207D02*
X36352D01*
Y52707D01*
X34597Y52582D02*
Y52707D01*
Y50327D02*
Y52582D01*
Y50207D02*
Y50327D01*
X34222D02*
Y52582D01*
X34597D01*
X34222Y50327D02*
X34597D01*
X47243Y66971D02*
X48998D01*
X47243Y64471D02*
X48998D01*
Y66971D01*
X47243Y66846D02*
Y66971D01*
Y64591D02*
Y66846D01*
Y64471D02*
Y64591D01*
X46869D02*
Y66846D01*
X47243D01*
X46869Y64591D02*
X47243D01*
X34597Y55817D02*
X36352D01*
X34597Y53317D02*
X36352D01*
Y55817D01*
X34597Y55692D02*
Y55817D01*
Y53437D02*
Y55692D01*
Y53317D02*
Y53437D01*
X34222D02*
Y55692D01*
X34597D01*
X34222Y53437D02*
X34597D01*
X15991Y62498D02*
Y64253D01*
X18491Y62498D02*
Y64253D01*
X15991D02*
X18491D01*
X15991Y62498D02*
X16116D01*
X18371D01*
X18491D01*
X16116Y62123D02*
X18371D01*
X16116D02*
Y62498D01*
X18371Y62123D02*
Y62498D01*
X21701Y92895D02*
Y94650D01*
X19201Y92895D02*
Y94650D01*
Y92895D02*
X21701D01*
X21576Y94650D02*
X21701D01*
X19321D02*
X21576D01*
X19201D02*
X19321D01*
Y95025D02*
X21576D01*
Y94650D02*
Y95025D01*
X19321Y94650D02*
Y95025D01*
X18491Y92895D02*
Y94650D01*
X15991Y92895D02*
Y94650D01*
Y92895D02*
X18491D01*
X18366Y94650D02*
X18491D01*
X16111D02*
X18366D01*
X15991D02*
X16111D01*
Y95025D02*
X18366D01*
Y94650D02*
Y95025D01*
X16111Y94650D02*
Y95025D01*
X37018Y79273D02*
X38774D01*
X37018Y82773D02*
X38774D01*
X37018Y79273D02*
Y82773D01*
X38774Y79273D02*
Y79898D01*
Y82153D01*
Y82773D01*
X39148Y79898D02*
Y82153D01*
X38774Y79898D02*
X39148D01*
X38774Y82153D02*
X39148D01*
X37029Y83413D02*
X38784D01*
X37029Y86913D02*
X38784D01*
X37029Y83413D02*
Y86913D01*
X38784Y83413D02*
Y84038D01*
Y86293D01*
Y86913D01*
X39158Y84038D02*
Y86293D01*
X38784Y84038D02*
X39158D01*
X38784Y86293D02*
X39158D01*
X34597Y86919D02*
X36352D01*
X34597Y84419D02*
X36352D01*
Y86919D01*
X34597Y86794D02*
Y86919D01*
Y84539D02*
Y86794D01*
Y84419D02*
Y84539D01*
X34222D02*
Y86794D01*
X34597D01*
X34222Y84539D02*
X34597D01*
Y80699D02*
X36352D01*
X34597Y78199D02*
X36352D01*
Y80699D01*
X34597Y80574D02*
Y80699D01*
Y78319D02*
Y80574D01*
Y78199D02*
Y78319D01*
X34222D02*
Y80574D01*
X34597D01*
X34222Y78319D02*
X34597D01*
X47243Y94963D02*
X48998D01*
X47243Y92463D02*
X48998D01*
Y94963D01*
X47243Y94838D02*
Y94963D01*
Y92583D02*
Y94838D01*
Y92463D02*
Y92583D01*
X46869D02*
Y94838D01*
X47243D01*
X46869Y92583D02*
X47243D01*
X34597Y83809D02*
X36352D01*
X34597Y81309D02*
X36352D01*
Y83809D01*
X34597Y83684D02*
Y83809D01*
Y81429D02*
Y83684D01*
Y81309D02*
Y81429D01*
X34222D02*
Y83684D01*
X34597D01*
X34222Y81429D02*
X34597D01*
X15991Y90490D02*
Y92245D01*
X18491Y90490D02*
Y92245D01*
X15991D02*
X18491D01*
X15991Y90490D02*
X16116D01*
X18371D01*
X18491D01*
X16116Y90115D02*
X18371D01*
X16116D02*
Y90490D01*
X18371Y90115D02*
Y90490D01*
G54D150*
X29162Y19109D02*
X29241Y19030D01*
X29319Y19109D01*
X28846D02*
X28925Y19029D01*
X29004Y19109D01*
X28526D02*
X28566Y19039D01*
X28646D01*
X28686Y19109D01*
Y18513D02*
X28646Y18583D01*
X28566D01*
X28526Y18513D01*
X29004D02*
X28925Y18593D01*
X28846Y18513D01*
X29319D02*
X29241Y18592D01*
X29162Y18513D01*
X29319Y19911D02*
X29241Y19990D01*
X29162Y19911D01*
X29004D02*
X28925Y19990D01*
X28846Y19911D01*
X28686D02*
X28646Y19980D01*
X28566D01*
X28526Y19911D01*
Y20506D02*
X28566Y20437D01*
X28646D01*
X28686Y20506D01*
X28846D02*
X28925Y20427D01*
X29004Y20506D01*
X29162D02*
X29241Y20428D01*
X29319Y20506D01*
X29162Y22062D02*
X29241Y21983D01*
X29319Y22062D01*
X28846D02*
X28925Y21982D01*
X29004Y22062D01*
X28526D02*
X28566Y21992D01*
X28646D01*
X28686Y22062D01*
Y21466D02*
X28646Y21535D01*
X28566D01*
X28526Y21466D01*
X29004D02*
X28925Y21546D01*
X28846Y21466D01*
X29319D02*
X29241Y21545D01*
X29162Y21466D01*
X21565Y30861D02*
X21486Y30940D01*
X21407Y30861D01*
X21250D02*
X21171Y30941D01*
X21091Y30861D01*
X20931D02*
X20891Y30931D01*
X20811D01*
X20771Y30861D01*
Y31457D02*
X20811Y31387D01*
X20891D01*
X20931Y31457D01*
X21091D02*
X21171Y31377D01*
X21250Y31457D01*
X21407D02*
X21486Y31378D01*
X21565Y31457D01*
X33381Y15746D02*
X33736D01*
X31291Y14741D02*
X31646D01*
X32421D02*
X32776D01*
X33221Y20861D02*
Y21216D01*
X33451Y14771D02*
X33806D01*
X34611D02*
X34966D01*
X34986Y19791D02*
Y20146D01*
X33781Y20376D02*
X34136D01*
X34621Y16356D02*
X34976D01*
X23766Y15391D02*
Y15746D01*
X21501Y16496D02*
X21856D01*
X24611Y15491D02*
X24966D01*
X22771Y20456D02*
X23126D01*
X27631Y17846D02*
X27986D01*
X29231Y17591D02*
X29586D01*
X25311Y19541D02*
X25666D01*
X24151Y20386D02*
X24506D01*
X25021Y16426D02*
X25376D01*
X19661Y20386D02*
X20016D01*
X20101Y16416D02*
X20456D01*
X18601Y14871D02*
X18956D01*
X16991Y16516D02*
X17346D01*
X20371Y14721D02*
X20726D01*
X19061Y20851D02*
Y21206D01*
X22071Y15006D02*
X22426D01*
X24201Y14691D02*
X24556D01*
X20866Y19751D02*
Y20106D01*
X42101Y23431D02*
Y23786D01*
X46101Y21551D02*
X46456D01*
X45031Y20991D02*
X45386D01*
X46101Y21266D02*
X46456D01*
X48716Y13731D02*
Y14086D01*
X48441Y14911D02*
Y15266D01*
X42998Y34829D02*
X43299D01*
X43008Y34309D02*
X43299D01*
X42936Y35281D02*
Y35636D01*
X46259Y34558D02*
Y34849D01*
X46778Y34558D02*
Y34859D01*
X42971Y33741D02*
X43326D01*
X47631Y12851D02*
X47986D01*
X43601Y23641D02*
X43956D01*
X40751Y15386D02*
X41106D01*
X17668Y24509D02*
X17968D01*
X17668Y25028D02*
X17959D01*
X15201Y20636D02*
X15556D01*
X15961Y16736D02*
X16316D01*
X15236Y15781D02*
Y16136D01*
X12591Y16896D02*
X12946D01*
X15531Y15641D02*
Y15996D01*
X14461Y21041D02*
Y21396D01*
X16504Y15046D02*
X16858D01*
X17511D02*
X17866D01*
X31341Y22721D02*
X31696D01*
X16376Y20091D02*
Y20446D01*
X17636Y24216D02*
X17991D01*
X29319Y19109D02*
X29536D01*
X29004D02*
X29162D01*
X28686D02*
X28846D01*
X28306D02*
X28526D01*
X29536Y18513D02*
Y19109D01*
X28306Y18513D02*
Y19109D01*
Y18513D02*
X28526D01*
X28686D02*
X28846D01*
X29004D02*
X29162D01*
X29319D02*
X29536D01*
X29319Y19911D02*
X29536D01*
X29004D02*
X29162D01*
X28686D02*
X28846D01*
X28306D02*
X28526D01*
X28306D02*
Y20506D01*
X29536Y19911D02*
Y20506D01*
X28306D02*
X28526D01*
X28686D02*
X28846D01*
X29004D02*
X29162D01*
X29319D02*
X29536D01*
X29319Y22062D02*
X29536D01*
X29004D02*
X29162D01*
X28686D02*
X28846D01*
X28306D02*
X28526D01*
X29536Y21466D02*
Y22062D01*
X28306Y21466D02*
Y22062D01*
Y21466D02*
X28526D01*
X28686D02*
X28846D01*
X29004D02*
X29162D01*
X29319D02*
X29536D01*
X21565Y30861D02*
X21781D01*
X21250D02*
X21407D01*
X20931D02*
X21091D01*
X20551D02*
X20771D01*
X20551D02*
Y31457D01*
X21781Y30861D02*
Y31457D01*
X20551D02*
X20771D01*
X20931D02*
X21091D01*
X21250D02*
X21407D01*
X21565D02*
X21781D01*
X17281Y29191D02*
Y29546D01*
X17556Y28141D02*
Y28496D01*
X12838Y31869D02*
X13205D01*
X12838Y31372D02*
X13196D01*
X12838Y31068D02*
X13205D01*
X12838Y30572D02*
X13196D01*
X16343Y31982D02*
X16660D01*
X16343Y31510D02*
Y31982D01*
Y31510D02*
X16660D01*
Y31982D01*
X15409Y33096D02*
Y33568D01*
X15726D01*
Y33096D02*
Y33568D01*
X15409Y33096D02*
X15726D01*
X41582Y27110D02*
X44141D01*
X41582Y24352D02*
X44141D01*
X21246Y28983D02*
Y29350D01*
X21742Y28983D02*
Y29341D01*
X21736Y27520D02*
Y27887D01*
X21240Y27530D02*
Y27887D01*
X41389Y25912D02*
Y26279D01*
X40892Y25921D02*
Y26279D01*
X40339Y27392D02*
Y27759D01*
X39842Y27401D02*
Y27759D01*
X46549Y33029D02*
Y33396D01*
X47045Y33029D02*
Y33386D01*
X39281Y18018D02*
X39648D01*
X39291Y18515D02*
X39648D01*
X29162Y47101D02*
X29241Y47022D01*
X29319Y47101D01*
X28846D02*
X28925Y47021D01*
X29004Y47101D01*
X28526D02*
X28566Y47032D01*
X28646D01*
X28686Y47101D01*
Y46506D02*
X28646Y46575D01*
X28566D01*
X28526Y46506D01*
X29004D02*
X28925Y46585D01*
X28846Y46506D01*
X29319D02*
X29241Y46584D01*
X29162Y46506D01*
X29319Y47903D02*
X29241Y47982D01*
X29162Y47903D01*
X29004D02*
X28925Y47983D01*
X28846Y47903D01*
X28686D02*
X28646Y47973D01*
X28566D01*
X28526Y47903D01*
Y48499D02*
X28566Y48429D01*
X28646D01*
X28686Y48499D01*
X28846D02*
X28925Y48419D01*
X29004Y48499D01*
X29162D02*
X29241Y48420D01*
X29319Y48499D01*
X29162Y50054D02*
X29241Y49975D01*
X29319Y50054D01*
X28846D02*
X28925Y49974D01*
X29004Y50054D01*
X28526D02*
X28566Y49984D01*
X28646D01*
X28686Y50054D01*
Y49458D02*
X28646Y49528D01*
X28566D01*
X28526Y49458D01*
X29004D02*
X28925Y49538D01*
X28846Y49458D01*
X29319D02*
X29241Y49537D01*
X29162Y49458D01*
X21565Y58854D02*
X21486Y58932D01*
X21407Y58854D01*
X21250D02*
X21171Y58933D01*
X21091Y58854D01*
X20931D02*
X20891Y58923D01*
X20811D01*
X20771Y58854D01*
Y59449D02*
X20811Y59380D01*
X20891D01*
X20931Y59449D01*
X21091D02*
X21171Y59369D01*
X21250Y59449D01*
X21407D02*
X21486Y59370D01*
X21565Y59449D01*
X33381Y43738D02*
X33736D01*
X31291Y42733D02*
X31646D01*
X32421D02*
X32776D01*
X33221Y48853D02*
Y49208D01*
X33451Y42763D02*
X33806D01*
X34611D02*
X34966D01*
X34986Y47783D02*
Y48138D01*
X33781Y48368D02*
X34136D01*
X34621Y44348D02*
X34976D01*
X23766Y43383D02*
Y43738D01*
X21501Y44488D02*
X21856D01*
X24611Y43483D02*
X24966D01*
X22771Y48448D02*
X23126D01*
X27631Y45838D02*
X27986D01*
X29231Y45583D02*
X29586D01*
X25311Y47533D02*
X25666D01*
X24151Y48378D02*
X24506D01*
X25021Y44418D02*
X25376D01*
X19661Y48378D02*
X20016D01*
X20101Y44408D02*
X20456D01*
X18601Y42863D02*
X18956D01*
X16991Y44508D02*
X17346D01*
X20371Y42713D02*
X20726D01*
X19061Y48843D02*
Y49198D01*
X22071Y42998D02*
X22426D01*
X24201Y42683D02*
X24556D01*
X20866Y47743D02*
Y48098D01*
X42101Y51423D02*
Y51778D01*
X46101Y49543D02*
X46456D01*
X45031Y48983D02*
X45386D01*
X46101Y49258D02*
X46456D01*
X48716Y41723D02*
Y42078D01*
X48441Y42903D02*
Y43258D01*
X42998Y62821D02*
X43299D01*
X43008Y62301D02*
X43299D01*
X42936Y63273D02*
Y63628D01*
X46259Y62551D02*
Y62841D01*
X46778Y62551D02*
Y62851D01*
X42971Y61733D02*
X43326D01*
X47631Y40843D02*
X47986D01*
X43601Y51633D02*
X43956D01*
X40751Y43378D02*
X41106D01*
X17668Y52501D02*
X17968D01*
X17668Y53020D02*
X17959D01*
X15201Y48628D02*
X15556D01*
X15961Y44728D02*
X16316D01*
X15236Y43773D02*
Y44128D01*
X12591Y44888D02*
X12946D01*
X15531Y43633D02*
Y43988D01*
X14461Y49033D02*
Y49388D01*
X16504Y43038D02*
X16858D01*
X17511D02*
X17866D01*
X31341Y50713D02*
X31696D01*
X16376Y48083D02*
Y48438D01*
X17636Y52208D02*
X17991D01*
X29319Y47101D02*
X29536D01*
X29004D02*
X29162D01*
X28686D02*
X28846D01*
X28306D02*
X28526D01*
X29536Y46506D02*
Y47101D01*
X28306Y46506D02*
Y47101D01*
Y46506D02*
X28526D01*
X28686D02*
X28846D01*
X29004D02*
X29162D01*
X29319D02*
X29536D01*
X29319Y47903D02*
X29536D01*
X29004D02*
X29162D01*
X28686D02*
X28846D01*
X28306D02*
X28526D01*
X28306D02*
Y48499D01*
X29536Y47903D02*
Y48499D01*
X28306D02*
X28526D01*
X28686D02*
X28846D01*
X29004D02*
X29162D01*
X29319D02*
X29536D01*
X29319Y50054D02*
X29536D01*
X29004D02*
X29162D01*
X28686D02*
X28846D01*
X28306D02*
X28526D01*
X29536Y49458D02*
Y50054D01*
X28306Y49458D02*
Y50054D01*
Y49458D02*
X28526D01*
X28686D02*
X28846D01*
X29004D02*
X29162D01*
X29319D02*
X29536D01*
X21565Y58854D02*
X21781D01*
X21250D02*
X21407D01*
X20931D02*
X21091D01*
X20551D02*
X20771D01*
X20551D02*
Y59449D01*
X21781Y58854D02*
Y59449D01*
X20551D02*
X20771D01*
X20931D02*
X21091D01*
X21250D02*
X21407D01*
X21565D02*
X21781D01*
X17281Y57183D02*
Y57538D01*
X17556Y56133D02*
Y56488D01*
X12838Y59861D02*
X13205D01*
X12838Y59365D02*
X13196D01*
X12838Y59061D02*
X13205D01*
X12838Y58565D02*
X13196D01*
X16343Y59974D02*
X16660D01*
X16343Y59502D02*
Y59974D01*
Y59502D02*
X16660D01*
Y59974D01*
X15409Y61088D02*
Y61561D01*
X15726D01*
Y61088D02*
Y61561D01*
X15409Y61088D02*
X15726D01*
X41582Y55103D02*
X44141D01*
X41582Y52345D02*
X44141D01*
X21246Y56976D02*
Y57343D01*
X21742Y56976D02*
Y57333D01*
X21736Y55512D02*
Y55879D01*
X21240Y55522D02*
Y55879D01*
X41389Y53904D02*
Y54271D01*
X40892Y53913D02*
Y54271D01*
X40339Y55384D02*
Y55751D01*
X39842Y55393D02*
Y55751D01*
X46549Y61021D02*
Y61388D01*
X47045Y61021D02*
Y61378D01*
X39281Y46011D02*
X39648D01*
X39291Y46507D02*
X39648D01*
X29162Y75093D02*
X29241Y75014D01*
X29319Y75093D01*
X28846D02*
X28925Y75014D01*
X29004Y75093D01*
X28526D02*
X28566Y75024D01*
X28646D01*
X28686Y75093D01*
Y74498D02*
X28646Y74567D01*
X28566D01*
X28526Y74498D01*
X29004D02*
X28925Y74577D01*
X28846Y74498D01*
X29319D02*
X29241Y74576D01*
X29162Y74498D01*
X29319Y75895D02*
X29241Y75974D01*
X29162Y75895D01*
X29004D02*
X28925Y75975D01*
X28846Y75895D01*
X28686D02*
X28646Y75965D01*
X28566D01*
X28526Y75895D01*
Y76491D02*
X28566Y76421D01*
X28646D01*
X28686Y76491D01*
X28846D02*
X28925Y76411D01*
X29004Y76491D01*
X29162D02*
X29241Y76412D01*
X29319Y76491D01*
X29162Y78046D02*
X29241Y77967D01*
X29319Y78046D01*
X28846D02*
X28925Y77966D01*
X29004Y78046D01*
X28526D02*
X28566Y77976D01*
X28646D01*
X28686Y78046D01*
Y77450D02*
X28646Y77520D01*
X28566D01*
X28526Y77450D01*
X29004D02*
X28925Y77530D01*
X28846Y77450D01*
X29319D02*
X29241Y77529D01*
X29162Y77450D01*
X21565Y86846D02*
X21486Y86924D01*
X21407Y86846D01*
X21250D02*
X21171Y86925D01*
X21091Y86846D01*
X20931D02*
X20891Y86915D01*
X20811D01*
X20771Y86846D01*
Y87441D02*
X20811Y87372D01*
X20891D01*
X20931Y87441D01*
X21091D02*
X21171Y87362D01*
X21250Y87441D01*
X21407D02*
X21486Y87362D01*
X21565Y87441D01*
X33381Y71731D02*
X33736D01*
X31291Y70725D02*
X31646D01*
X32421D02*
X32776D01*
X33221Y76846D02*
Y77200D01*
X33451Y70755D02*
X33806D01*
X34611D02*
X34966D01*
X34986Y75776D02*
Y76130D01*
X33781Y76361D02*
X34136D01*
X34621Y72341D02*
X34976D01*
X23766Y71376D02*
Y71730D01*
X21501Y72481D02*
X21856D01*
X24611Y71475D02*
X24966D01*
X22771Y76441D02*
X23126D01*
X27631Y73831D02*
X27986D01*
X29231Y73575D02*
X29586D01*
X25311Y75525D02*
X25666D01*
X24151Y76371D02*
X24506D01*
X25021Y72411D02*
X25376D01*
X19661Y76371D02*
X20016D01*
X20101Y72401D02*
X20456D01*
X18601Y70855D02*
X18956D01*
X16991Y72501D02*
X17346D01*
X20371Y70705D02*
X20726D01*
X19061Y76836D02*
Y77190D01*
X22071Y70991D02*
X22426D01*
X24201Y70675D02*
X24556D01*
X20866Y75736D02*
Y76090D01*
X42101Y79416D02*
Y79770D01*
X46101Y77535D02*
X46456D01*
X45031Y76975D02*
X45386D01*
X46101Y77251D02*
X46456D01*
X48716Y69716D02*
Y70070D01*
X48441Y70896D02*
Y71250D01*
X42998Y90813D02*
X43299D01*
X43008Y90293D02*
X43299D01*
X42936Y91266D02*
Y91620D01*
X46259Y90543D02*
Y90833D01*
X46778Y90543D02*
Y90843D01*
X42971Y89725D02*
X43326D01*
X47631Y68835D02*
X47986D01*
X43601Y79625D02*
X43956D01*
X40751Y71371D02*
X41106D01*
X17668Y80493D02*
X17968D01*
X17668Y81013D02*
X17959D01*
X15201Y76621D02*
X15556D01*
X15961Y72721D02*
X16316D01*
X15236Y71766D02*
Y72120D01*
X12591Y72881D02*
X12946D01*
X15531Y71626D02*
Y71980D01*
X14461Y77026D02*
Y77380D01*
X16504Y71031D02*
X16858D01*
X17511D02*
X17866D01*
X31341Y78705D02*
X31696D01*
X16376Y76076D02*
Y76430D01*
X17636Y80201D02*
X17991D01*
X29319Y75093D02*
X29536D01*
X29004D02*
X29162D01*
X28686D02*
X28846D01*
X28306D02*
X28526D01*
X29536Y74498D02*
Y75093D01*
X28306Y74498D02*
Y75093D01*
Y74498D02*
X28526D01*
X28686D02*
X28846D01*
X29004D02*
X29162D01*
X29319D02*
X29536D01*
X29319Y75895D02*
X29536D01*
X29004D02*
X29162D01*
X28686D02*
X28846D01*
X28306D02*
X28526D01*
X28306D02*
Y76491D01*
X29536Y75895D02*
Y76491D01*
X28306D02*
X28526D01*
X28686D02*
X28846D01*
X29004D02*
X29162D01*
X29319D02*
X29536D01*
X29319Y78046D02*
X29536D01*
X29004D02*
X29162D01*
X28686D02*
X28846D01*
X28306D02*
X28526D01*
X29536Y77450D02*
Y78046D01*
X28306Y77450D02*
Y78046D01*
Y77450D02*
X28526D01*
X28686D02*
X28846D01*
X29004D02*
X29162D01*
X29319D02*
X29536D01*
X21565Y86846D02*
X21781D01*
X21250D02*
X21407D01*
X20931D02*
X21091D01*
X20551D02*
X20771D01*
X20551D02*
Y87441D01*
X21781Y86846D02*
Y87441D01*
X20551D02*
X20771D01*
X20931D02*
X21091D01*
X21250D02*
X21407D01*
X21565D02*
X21781D01*
X17281Y85176D02*
Y85530D01*
X17556Y84126D02*
Y84480D01*
X12838Y87853D02*
X13205D01*
X12838Y87357D02*
X13196D01*
X12838Y87053D02*
X13205D01*
X12838Y86557D02*
X13196D01*
X16343Y87966D02*
X16660D01*
X16343Y87494D02*
Y87966D01*
Y87494D02*
X16660D01*
Y87966D01*
X15409Y89080D02*
Y89553D01*
X15726D01*
Y89080D02*
Y89553D01*
X15409Y89080D02*
X15726D01*
X41582Y83095D02*
X44141D01*
X41582Y80337D02*
X44141D01*
X21246Y84968D02*
Y85335D01*
X21742Y84968D02*
Y85325D01*
X21736Y83504D02*
Y83871D01*
X21240Y83514D02*
Y83871D01*
X41389Y81896D02*
Y82263D01*
X40892Y81906D02*
Y82263D01*
X40339Y83376D02*
Y83743D01*
X39842Y83386D02*
Y83743D01*
X46549Y89013D02*
Y89380D01*
X47045Y89013D02*
Y89370D01*
X39281Y74003D02*
X39648D01*
X39291Y74499D02*
X39648D01*
G54D154*
X40976Y37619D02*
D03*
X40359Y14444D02*
D03*
X40350Y13246D02*
D03*
X40901Y23598D02*
D03*
X40976Y65611D02*
D03*
X40359Y42437D02*
D03*
X40350Y41238D02*
D03*
X40901Y51590D02*
D03*
X40976Y93603D02*
D03*
X40359Y70429D02*
D03*
X40350Y69231D02*
D03*
X40901Y79582D02*
D03*
G54D155*
X46678Y31096D02*
D03*
Y59088D02*
D03*
Y87080D02*
D03*
G54D283*
X41719Y23969D02*
X42218D01*
X41968Y23719D02*
Y24218D01*
X40968Y26718D02*
Y27218D01*
X40718Y26969D02*
X41219D01*
X39718Y28969D02*
X40219D01*
X39969Y28719D02*
Y29218D01*
X30968Y14719D02*
Y15218D01*
X30719Y14969D02*
X31219D01*
X32719D02*
X33219D01*
X32968Y14719D02*
Y15218D01*
X31969Y14719D02*
Y15218D01*
X31718Y14969D02*
X32218D01*
X33719D02*
X34218D01*
X33969Y14719D02*
Y15218D01*
X26718Y14969D02*
X27218D01*
X26969Y14719D02*
Y15218D01*
X28969Y14719D02*
Y15218D01*
X28719Y14969D02*
X29218D01*
X27719D02*
X28219D01*
X27968Y14719D02*
Y15218D01*
X29969Y14719D02*
Y15218D01*
X29718Y14969D02*
X30219D01*
X18719D02*
X19218D01*
X18968Y14719D02*
Y15218D01*
X22968Y14719D02*
Y15218D01*
X22719Y14969D02*
X23219D01*
X21718D02*
X22218D01*
X21969Y14719D02*
Y15218D01*
X23969Y14719D02*
Y15218D01*
X23719Y14969D02*
X24218D01*
X12718Y15969D02*
X13218D01*
X12968Y15718D02*
Y16219D01*
X33969Y23719D02*
Y24218D01*
X33719Y23969D02*
X34218D01*
X33969Y28719D02*
Y29218D01*
X33719Y28969D02*
X34218D01*
X33719Y25968D02*
X34218D01*
X33969Y25719D02*
Y26219D01*
X41968Y24718D02*
Y25219D01*
X41719Y24969D02*
X42218D01*
X49718Y28969D02*
X50219D01*
X49969Y28719D02*
Y29218D01*
X37968Y19719D02*
Y20219D01*
X37719Y19969D02*
X38219D01*
X49718Y30968D02*
X50219D01*
X49969Y30719D02*
Y31219D01*
X19969Y24718D02*
Y25219D01*
X19719Y24969D02*
X20219D01*
X19719Y26969D02*
X20219D01*
X19969Y26718D02*
Y27218D01*
Y27719D02*
Y28219D01*
X19719Y27968D02*
X20219D01*
X22719Y25968D02*
X23219D01*
X22968Y25719D02*
Y26219D01*
X23969Y24718D02*
Y25219D01*
X23719Y24969D02*
X24218D01*
X22719D02*
X23219D01*
X22968Y24718D02*
Y25219D01*
X35719Y33969D02*
X36219D01*
X35968Y33719D02*
Y34218D01*
X16718Y14969D02*
X17219D01*
X16968Y14719D02*
Y15218D01*
X15969Y14719D02*
Y15218D01*
X15718Y14969D02*
X16219D01*
X17718D02*
X18218D01*
X17968Y14719D02*
Y15218D01*
X26718Y19969D02*
X27218D01*
X26969Y19719D02*
Y20219D01*
X28969Y18719D02*
Y19218D01*
X28719Y18968D02*
X29218D01*
X30719Y19969D02*
X31219D01*
X30968Y19719D02*
Y20219D01*
X23969Y30719D02*
Y31219D01*
X23719Y30968D02*
X24218D01*
X16718Y27968D02*
X17219D01*
X16968Y27719D02*
Y28219D01*
X15969Y28719D02*
Y29218D01*
X15718Y28969D02*
X16219D01*
X25968Y31718D02*
Y32218D01*
X25719Y31969D02*
X26219D01*
X19719Y35968D02*
X20219D01*
X19969Y35719D02*
Y36219D01*
X41719Y51961D02*
X42218D01*
X41968Y51711D02*
Y52211D01*
X40968Y54711D02*
Y55211D01*
X40718Y54961D02*
X41219D01*
X39718Y56961D02*
X40219D01*
X39969Y56711D02*
Y57211D01*
X30968Y42711D02*
Y43211D01*
X30719Y42961D02*
X31219D01*
X32719D02*
X33219D01*
X32968Y42711D02*
Y43211D01*
X31969Y42711D02*
Y43211D01*
X31718Y42961D02*
X32218D01*
X33719D02*
X34218D01*
X33969Y42711D02*
Y43211D01*
X26718Y42961D02*
X27218D01*
X26969Y42711D02*
Y43211D01*
X28969Y42711D02*
Y43211D01*
X28719Y42961D02*
X29218D01*
X27719D02*
X28219D01*
X27968Y42711D02*
Y43211D01*
X29969Y42711D02*
Y43211D01*
X29718Y42961D02*
X30219D01*
X18719D02*
X19218D01*
X18968Y42711D02*
Y43211D01*
X22968Y42711D02*
Y43211D01*
X22719Y42961D02*
X23219D01*
X21718D02*
X22218D01*
X21969Y42711D02*
Y43211D01*
X23969Y42711D02*
Y43211D01*
X23719Y42961D02*
X24218D01*
X12718Y43961D02*
X13218D01*
X12968Y43711D02*
Y44211D01*
X33969Y51711D02*
Y52211D01*
X33719Y51961D02*
X34218D01*
X33969Y56711D02*
Y57211D01*
X33719Y56961D02*
X34218D01*
X33719Y53961D02*
X34218D01*
X33969Y53711D02*
Y54211D01*
X41968Y52711D02*
Y53211D01*
X41719Y52961D02*
X42218D01*
X49718Y56961D02*
X50219D01*
X49969Y56711D02*
Y57211D01*
X37968Y47711D02*
Y48211D01*
X37719Y47961D02*
X38219D01*
X49718Y58961D02*
X50219D01*
X49969Y58711D02*
Y59211D01*
X19969Y52711D02*
Y53211D01*
X19719Y52961D02*
X20219D01*
X19719Y54961D02*
X20219D01*
X19969Y54711D02*
Y55211D01*
Y55711D02*
Y56211D01*
X19719Y55961D02*
X20219D01*
X22719Y53961D02*
X23219D01*
X22968Y53711D02*
Y54211D01*
X23969Y52711D02*
Y53211D01*
X23719Y52961D02*
X24218D01*
X22719D02*
X23219D01*
X22968Y52711D02*
Y53211D01*
X35719Y61961D02*
X36219D01*
X35968Y61711D02*
Y62211D01*
X16718Y42961D02*
X17219D01*
X16968Y42711D02*
Y43211D01*
X15969Y42711D02*
Y43211D01*
X15718Y42961D02*
X16219D01*
X17718D02*
X18218D01*
X17968Y42711D02*
Y43211D01*
X26718Y47961D02*
X27218D01*
X26969Y47711D02*
Y48211D01*
X28969Y46711D02*
Y47211D01*
X28719Y46961D02*
X29218D01*
X30719Y47961D02*
X31219D01*
X30968Y47711D02*
Y48211D01*
X23969Y58711D02*
Y59211D01*
X23719Y58961D02*
X24218D01*
X16718Y55961D02*
X17219D01*
X16968Y55711D02*
Y56211D01*
X15969Y56711D02*
Y57211D01*
X15718Y56961D02*
X16219D01*
X25968Y59711D02*
Y60211D01*
X25719Y59961D02*
X26219D01*
X19719Y63961D02*
X20219D01*
X19969Y63711D02*
Y64211D01*
X41719Y79953D02*
X42218D01*
X41968Y79703D02*
Y80203D01*
X40968Y82703D02*
Y83203D01*
X40718Y82953D02*
X41219D01*
X39718Y84953D02*
X40219D01*
X39969Y84703D02*
Y85203D01*
X30968Y70703D02*
Y71203D01*
X30719Y70953D02*
X31219D01*
X32719D02*
X33219D01*
X32968Y70703D02*
Y71203D01*
X31969Y70703D02*
Y71203D01*
X31718Y70953D02*
X32218D01*
X33719D02*
X34218D01*
X33969Y70703D02*
Y71203D01*
X26718Y70953D02*
X27218D01*
X26969Y70703D02*
Y71203D01*
X28969Y70703D02*
Y71203D01*
X28719Y70953D02*
X29218D01*
X27719D02*
X28219D01*
X27968Y70703D02*
Y71203D01*
X29969Y70703D02*
Y71203D01*
X29718Y70953D02*
X30219D01*
X18719D02*
X19218D01*
X18968Y70703D02*
Y71203D01*
X22968Y70703D02*
Y71203D01*
X22719Y70953D02*
X23219D01*
X21718D02*
X22218D01*
X21969Y70703D02*
Y71203D01*
X23969Y70703D02*
Y71203D01*
X23719Y70953D02*
X24218D01*
X12718Y71953D02*
X13218D01*
X12968Y71703D02*
Y72203D01*
X33969Y79703D02*
Y80203D01*
X33719Y79953D02*
X34218D01*
X33969Y84703D02*
Y85203D01*
X33719Y84953D02*
X34218D01*
X33719Y81953D02*
X34218D01*
X33969Y81703D02*
Y82203D01*
X41968Y80703D02*
Y81203D01*
X41719Y80953D02*
X42218D01*
X49718Y84953D02*
X50219D01*
X49969Y84703D02*
Y85203D01*
X37968Y75703D02*
Y76203D01*
X37719Y75953D02*
X38219D01*
X49718Y86953D02*
X50219D01*
X49969Y86703D02*
Y87203D01*
X19969Y80703D02*
Y81203D01*
X19719Y80953D02*
X20219D01*
X19719Y82953D02*
X20219D01*
X19969Y82703D02*
Y83203D01*
Y83703D02*
Y84203D01*
X19719Y83953D02*
X20219D01*
X22719Y81953D02*
X23219D01*
X22968Y81703D02*
Y82203D01*
X23969Y80703D02*
Y81203D01*
X23719Y80953D02*
X24218D01*
X22719D02*
X23219D01*
X22968Y80703D02*
Y81203D01*
X35719Y89953D02*
X36219D01*
X35968Y89703D02*
Y90203D01*
X16718Y70953D02*
X17219D01*
X16968Y70703D02*
Y71203D01*
X15969Y70703D02*
Y71203D01*
X15718Y70953D02*
X16219D01*
X17718D02*
X18218D01*
X17968Y70703D02*
Y71203D01*
X26718Y75953D02*
X27218D01*
X26969Y75703D02*
Y76203D01*
X28969Y74703D02*
Y75203D01*
X28719Y74953D02*
X29218D01*
X30719Y75953D02*
X31219D01*
X30968Y75703D02*
Y76203D01*
X23969Y86703D02*
Y87203D01*
X23719Y86953D02*
X24218D01*
X16718Y83953D02*
X17219D01*
X16968Y83703D02*
Y84203D01*
X15969Y84703D02*
Y85203D01*
X15718Y84953D02*
X16219D01*
X25968Y87703D02*
Y88203D01*
X25719Y87953D02*
X26219D01*
X19719Y91953D02*
X20219D01*
X19969Y91703D02*
Y92203D01*
G54D284*
X33381Y15471D02*
X33736D01*
X31291Y15016D02*
X31646D01*
X32421D02*
X32776D01*
X33496Y20861D02*
Y21216D01*
X33451Y15046D02*
X33806D01*
X34611D02*
X34966D01*
X34711Y19791D02*
Y20146D01*
X33781Y20101D02*
X34136D01*
X34621Y16081D02*
X34976D01*
X23491Y15391D02*
Y15746D01*
X21501Y16221D02*
X21856D01*
X24611Y15766D02*
X24966D01*
X22771Y20181D02*
X23126D01*
X27631Y17571D02*
X27986D01*
X29231Y17866D02*
X29586D01*
X25311Y19816D02*
X25666D01*
X24151Y20111D02*
X24506D01*
X25021Y16151D02*
X25376D01*
X19661Y20111D02*
X20016D01*
X20101Y16141D02*
X20456D01*
X18601Y15146D02*
X18956D01*
X16991Y16241D02*
X17346D01*
X20371Y14996D02*
X20726D01*
X19336Y20851D02*
Y21206D01*
X22071Y14731D02*
X22426D01*
X24201Y14966D02*
X24556D01*
X20591Y19751D02*
Y20106D01*
X42376Y23431D02*
Y23786D01*
X46101Y21826D02*
X46456D01*
X45031Y21266D02*
X45386D01*
X46101Y20991D02*
X46456D01*
X48441Y13731D02*
Y14086D01*
X48716Y14911D02*
Y15266D01*
X42661Y35281D02*
Y35636D01*
X42971Y34016D02*
X43326D01*
X47631Y13126D02*
X47986D01*
X43601Y23916D02*
X43956D01*
X40751Y15111D02*
X41106D01*
X15201Y20361D02*
X15556D01*
X15961Y16461D02*
X16316D01*
X14961Y15781D02*
Y16136D01*
X12591Y16621D02*
X12946D01*
X15806Y15641D02*
Y15996D01*
X14736Y21041D02*
Y21396D01*
X16504Y14771D02*
X16858D01*
X17511D02*
X17866D01*
X31341Y22996D02*
X31696D01*
X16101Y20091D02*
Y20446D01*
X31645Y15984D02*
X32405D01*
X31702Y15393D02*
X32462D01*
X32393Y20485D02*
Y21245D01*
X32984Y20542D02*
Y21302D01*
X21995Y15974D02*
X22755D01*
X22052Y15383D02*
X22812D01*
X23015Y21284D02*
X23775D01*
X23072Y20693D02*
X23832D01*
X17795Y16014D02*
X18555D01*
X17852Y15423D02*
X18612D01*
X18223Y20485D02*
Y21245D01*
X18814Y20542D02*
Y21302D01*
X13455Y16374D02*
X14215D01*
X13512Y15783D02*
X14272D01*
X13623Y20905D02*
Y21665D01*
X14214Y20962D02*
Y21722D01*
X17636Y23941D02*
X17991D01*
X17556Y29191D02*
Y29546D01*
X17281Y28141D02*
Y28496D01*
X33381Y43463D02*
X33736D01*
X31291Y43008D02*
X31646D01*
X32421D02*
X32776D01*
X33496Y48853D02*
Y49208D01*
X33451Y43038D02*
X33806D01*
X34611D02*
X34966D01*
X34711Y47783D02*
Y48138D01*
X33781Y48093D02*
X34136D01*
X34621Y44073D02*
X34976D01*
X23491Y43383D02*
Y43738D01*
X21501Y44213D02*
X21856D01*
X24611Y43758D02*
X24966D01*
X22771Y48173D02*
X23126D01*
X27631Y45563D02*
X27986D01*
X29231Y45858D02*
X29586D01*
X25311Y47808D02*
X25666D01*
X24151Y48103D02*
X24506D01*
X25021Y44143D02*
X25376D01*
X19661Y48103D02*
X20016D01*
X20101Y44133D02*
X20456D01*
X18601Y43138D02*
X18956D01*
X16991Y44233D02*
X17346D01*
X20371Y42988D02*
X20726D01*
X19336Y48843D02*
Y49198D01*
X22071Y42723D02*
X22426D01*
X24201Y42958D02*
X24556D01*
X20591Y47743D02*
Y48098D01*
X42376Y51423D02*
Y51778D01*
X46101Y49818D02*
X46456D01*
X45031Y49258D02*
X45386D01*
X46101Y48983D02*
X46456D01*
X48441Y41723D02*
Y42078D01*
X48716Y42903D02*
Y43258D01*
X42661Y63273D02*
Y63628D01*
X42971Y62008D02*
X43326D01*
X47631Y41118D02*
X47986D01*
X43601Y51908D02*
X43956D01*
X40751Y43103D02*
X41106D01*
X15201Y48353D02*
X15556D01*
X15961Y44453D02*
X16316D01*
X14961Y43773D02*
Y44128D01*
X12591Y44613D02*
X12946D01*
X15806Y43633D02*
Y43988D01*
X14736Y49033D02*
Y49388D01*
X16504Y42763D02*
X16858D01*
X17511D02*
X17866D01*
X31341Y50988D02*
X31696D01*
X16101Y48083D02*
Y48438D01*
X31645Y43976D02*
X32405D01*
X31702Y43385D02*
X32462D01*
X32393Y48477D02*
Y49237D01*
X32984Y48534D02*
Y49294D01*
X21995Y43966D02*
X22755D01*
X22052Y43375D02*
X22812D01*
X23015Y49276D02*
X23775D01*
X23072Y48685D02*
X23832D01*
X17795Y44006D02*
X18555D01*
X17852Y43415D02*
X18612D01*
X18223Y48477D02*
Y49237D01*
X18814Y48534D02*
Y49294D01*
X13455Y44366D02*
X14215D01*
X13512Y43775D02*
X14272D01*
X13623Y48897D02*
Y49657D01*
X14214Y48954D02*
Y49714D01*
X17636Y51933D02*
X17991D01*
X17556Y57183D02*
Y57538D01*
X17281Y56133D02*
Y56488D01*
X33381Y71455D02*
X33736D01*
X31291Y71001D02*
X31646D01*
X32421D02*
X32776D01*
X33496Y76846D02*
Y77200D01*
X33451Y71031D02*
X33806D01*
X34611D02*
X34966D01*
X34711Y75776D02*
Y76130D01*
X33781Y76085D02*
X34136D01*
X34621Y72065D02*
X34976D01*
X23491Y71376D02*
Y71730D01*
X21501Y72205D02*
X21856D01*
X24611Y71751D02*
X24966D01*
X22771Y76165D02*
X23126D01*
X27631Y73555D02*
X27986D01*
X29231Y73851D02*
X29586D01*
X25311Y75801D02*
X25666D01*
X24151Y76095D02*
X24506D01*
X25021Y72135D02*
X25376D01*
X19661Y76095D02*
X20016D01*
X20101Y72125D02*
X20456D01*
X18601Y71131D02*
X18956D01*
X16991Y72225D02*
X17346D01*
X20371Y70981D02*
X20726D01*
X19336Y76836D02*
Y77190D01*
X22071Y70715D02*
X22426D01*
X24201Y70951D02*
X24556D01*
X20591Y75736D02*
Y76090D01*
X42376Y79416D02*
Y79770D01*
X46101Y77811D02*
X46456D01*
X45031Y77251D02*
X45386D01*
X46101Y76975D02*
X46456D01*
X48441Y69716D02*
Y70070D01*
X48716Y70896D02*
Y71250D01*
X42661Y91266D02*
Y91620D01*
X42971Y90001D02*
X43326D01*
X47631Y69111D02*
X47986D01*
X43601Y79901D02*
X43956D01*
X40751Y71095D02*
X41106D01*
X15201Y76345D02*
X15556D01*
X15961Y72445D02*
X16316D01*
X14961Y71766D02*
Y72120D01*
X12591Y72605D02*
X12946D01*
X15806Y71626D02*
Y71980D01*
X14736Y77026D02*
Y77380D01*
X16504Y70755D02*
X16858D01*
X17511D02*
X17866D01*
X31341Y78981D02*
X31696D01*
X16101Y76076D02*
Y76430D01*
X31645Y71968D02*
X32405D01*
X31702Y71377D02*
X32462D01*
X32393Y76469D02*
Y77229D01*
X32984Y76526D02*
Y77286D01*
X21995Y71958D02*
X22755D01*
X22052Y71367D02*
X22812D01*
X23015Y77268D02*
X23775D01*
X23072Y76677D02*
X23832D01*
X17795Y71998D02*
X18555D01*
X17852Y71407D02*
X18612D01*
X18223Y76469D02*
Y77229D01*
X18814Y76526D02*
Y77286D01*
X13455Y72358D02*
X14215D01*
X13512Y71767D02*
X14272D01*
X13623Y76889D02*
Y77649D01*
X14214Y76946D02*
Y77706D01*
X17636Y79925D02*
X17991D01*
X17556Y85176D02*
Y85530D01*
X17281Y84126D02*
Y84480D01*
G54D285*
X41888Y28089D02*
D03*
X18242Y33561D02*
D03*
X19780Y35951D02*
D03*
Y36361D02*
D03*
X19462Y35531D02*
D03*
X41568Y27659D02*
D03*
X46548Y38268D02*
D03*
X46229Y39009D02*
D03*
X41148Y24448D02*
D03*
X33069Y24169D02*
D03*
X32798Y27348D02*
D03*
X40148Y25329D02*
D03*
X39829Y25738D02*
D03*
X25689Y31828D02*
D03*
X23590Y32751D02*
D03*
X46349Y35679D02*
D03*
X41160Y31841D02*
D03*
X34008Y29148D02*
D03*
X17959Y29069D02*
D03*
Y28658D02*
D03*
X43489Y28019D02*
D03*
X42699D02*
D03*
X40769Y18359D02*
D03*
Y18779D02*
D03*
X39338Y18838D02*
D03*
X33239Y25498D02*
D03*
X14119Y30808D02*
D03*
X34008Y28728D02*
D03*
X40230Y31841D02*
D03*
X40842Y31411D02*
D03*
X39912D02*
D03*
X27021Y32641D02*
D03*
X24512Y31511D02*
D03*
X24048Y31518D02*
D03*
X24042Y32741D02*
D03*
X33199Y32109D02*
D03*
X14122Y31618D02*
D03*
X32059Y24784D02*
D03*
X32279Y26924D02*
D03*
Y26514D02*
D03*
X41888Y56081D02*
D03*
X18242Y61553D02*
D03*
X19780Y63943D02*
D03*
Y64353D02*
D03*
X19462Y63523D02*
D03*
X41568Y55651D02*
D03*
X46548Y66261D02*
D03*
X46229Y67001D02*
D03*
X41148Y52441D02*
D03*
X33069Y52161D02*
D03*
X32798Y55341D02*
D03*
X40148Y53321D02*
D03*
X39829Y53731D02*
D03*
X25689Y59821D02*
D03*
X23590Y60743D02*
D03*
X46349Y63671D02*
D03*
X41160Y59833D02*
D03*
X34008Y57141D02*
D03*
X17959Y57061D02*
D03*
Y56651D02*
D03*
X43489Y56011D02*
D03*
X42699D02*
D03*
X40769Y46351D02*
D03*
Y46771D02*
D03*
X39338Y46831D02*
D03*
X33239Y53491D02*
D03*
X14119Y58801D02*
D03*
X34008Y56721D02*
D03*
X40230Y59833D02*
D03*
X40842Y59403D02*
D03*
X39912D02*
D03*
X27021Y60633D02*
D03*
X24512Y59503D02*
D03*
X24048Y59511D02*
D03*
X24042Y60733D02*
D03*
X33199Y60101D02*
D03*
X14122Y59611D02*
D03*
X32059Y52776D02*
D03*
X32279Y54916D02*
D03*
Y54506D02*
D03*
X41888Y84073D02*
D03*
X18242Y89545D02*
D03*
X19780Y91935D02*
D03*
Y92345D02*
D03*
X19462Y91515D02*
D03*
X41568Y83643D02*
D03*
X46548Y94253D02*
D03*
X46229Y94993D02*
D03*
X41148Y80433D02*
D03*
X33069Y80153D02*
D03*
X32798Y83333D02*
D03*
X40148Y81313D02*
D03*
X39829Y81723D02*
D03*
X25689Y87813D02*
D03*
X23590Y88735D02*
D03*
X46349Y91663D02*
D03*
X41160Y87825D02*
D03*
X34008Y85133D02*
D03*
X17959Y85053D02*
D03*
Y84643D02*
D03*
X43489Y84003D02*
D03*
X42699D02*
D03*
X40769Y74343D02*
D03*
Y74763D02*
D03*
X39338Y74823D02*
D03*
X33239Y81483D02*
D03*
X14119Y86793D02*
D03*
X34008Y84713D02*
D03*
X40230Y87825D02*
D03*
X40842Y87395D02*
D03*
X39912D02*
D03*
X27021Y88625D02*
D03*
X24512Y87495D02*
D03*
X24048Y87503D02*
D03*
X24042Y88725D02*
D03*
X33199Y88093D02*
D03*
X14122Y87603D02*
D03*
X32059Y80768D02*
D03*
X32279Y82908D02*
D03*
Y82498D02*
D03*
G54D286*
X41563Y28089D02*
D03*
X40823Y24878D02*
D03*
X34653Y17868D02*
D03*
X33844Y19769D02*
D03*
X34943Y19198D02*
D03*
X25094Y17909D02*
D03*
X24214Y19778D02*
D03*
X25294Y19198D02*
D03*
X20473Y17909D02*
D03*
X19713Y19778D02*
D03*
X20777Y19188D02*
D03*
X45584Y36728D02*
D03*
X32803Y27729D02*
D03*
X28013Y19473D02*
D03*
X28152Y21107D02*
D03*
X28790Y19473D02*
D03*
X28900Y21107D02*
D03*
X29898Y19463D02*
D03*
X30008Y21097D02*
D03*
X32443Y29588D02*
D03*
X33503Y27719D02*
D03*
X32606Y28661D02*
D03*
X23213Y26721D02*
D03*
X19440Y27686D02*
D03*
X19583Y27039D02*
D03*
X17953Y29499D02*
D03*
X23103Y28634D02*
D03*
X17953Y28259D02*
D03*
X17584Y25368D02*
D03*
X28160Y23386D02*
D03*
X32448Y29075D02*
D03*
X15993Y18269D02*
D03*
X15134Y20029D02*
D03*
X16323Y19548D02*
D03*
X36574Y21688D02*
D03*
X27083Y39269D02*
D03*
X40623Y39049D02*
D03*
X17953Y27619D02*
D03*
X18566Y33561D02*
D03*
X19456Y35951D02*
D03*
Y36361D02*
D03*
X19786Y35531D02*
D03*
X41892Y27659D02*
D03*
X46223Y38268D02*
D03*
X46554Y39009D02*
D03*
X40823Y24448D02*
D03*
X33393Y24169D02*
D03*
X32473Y27348D02*
D03*
X39824Y25329D02*
D03*
X40153Y25738D02*
D03*
X26014Y31828D02*
D03*
X23266Y32751D02*
D03*
X27130Y23449D02*
D03*
X23103Y29218D02*
D03*
X34504Y32129D02*
D03*
X26553Y32239D02*
D03*
X24036Y32341D02*
D03*
X24053Y31918D02*
D03*
X24836Y31921D02*
D03*
X26556Y32651D02*
D03*
X27046Y31921D02*
D03*
X22826Y32741D02*
D03*
X46673Y35679D02*
D03*
X40836Y31841D02*
D03*
X33684Y29148D02*
D03*
X18283Y29069D02*
D03*
Y28658D02*
D03*
X43814Y28019D02*
D03*
X43024D02*
D03*
X41094Y18359D02*
D03*
Y18779D02*
D03*
X39014Y18838D02*
D03*
X33563Y25498D02*
D03*
X14444Y30808D02*
D03*
X33684Y28728D02*
D03*
X39906Y31841D02*
D03*
X41166Y31411D02*
D03*
X40236D02*
D03*
X27345Y32641D02*
D03*
X24836Y31511D02*
D03*
X23723Y31518D02*
D03*
X24366Y32741D02*
D03*
X33523Y32109D02*
D03*
X14446Y31618D02*
D03*
X32384Y24784D02*
D03*
X32604Y26924D02*
D03*
Y26514D02*
D03*
X41563Y56081D02*
D03*
X40823Y52871D02*
D03*
X34653Y45861D02*
D03*
X33844Y47761D02*
D03*
X34943Y47191D02*
D03*
X25094Y45901D02*
D03*
X24214Y47771D02*
D03*
X25294Y47191D02*
D03*
X20473Y45901D02*
D03*
X19713Y47771D02*
D03*
X20777Y47181D02*
D03*
X45584Y64721D02*
D03*
X32803Y55721D02*
D03*
X28013Y47465D02*
D03*
X28152Y49099D02*
D03*
X28790Y47465D02*
D03*
X28900Y49099D02*
D03*
X29898Y47455D02*
D03*
X30008Y49089D02*
D03*
X32443Y57581D02*
D03*
X33503Y55711D02*
D03*
X32606Y56654D02*
D03*
X23213Y54713D02*
D03*
X19440Y55679D02*
D03*
X19583Y55031D02*
D03*
X17953Y57491D02*
D03*
X23103Y56626D02*
D03*
X17953Y56251D02*
D03*
X17584Y53361D02*
D03*
X28160Y51379D02*
D03*
X32448Y57067D02*
D03*
X15993Y46261D02*
D03*
X15134Y48021D02*
D03*
X16323Y47541D02*
D03*
X36574Y49681D02*
D03*
X27083Y67261D02*
D03*
X40623Y67041D02*
D03*
X17953Y55611D02*
D03*
X18566Y61553D02*
D03*
X19456Y63943D02*
D03*
Y64353D02*
D03*
X19786Y63523D02*
D03*
X41892Y55651D02*
D03*
X46223Y66261D02*
D03*
X46554Y67001D02*
D03*
X40823Y52441D02*
D03*
X33393Y52161D02*
D03*
X32473Y55341D02*
D03*
X39824Y53321D02*
D03*
X40153Y53731D02*
D03*
X26014Y59821D02*
D03*
X23266Y60743D02*
D03*
X27130Y51441D02*
D03*
X23103Y57211D02*
D03*
X34504Y60121D02*
D03*
X26553Y60231D02*
D03*
X24036Y60333D02*
D03*
X24053Y59911D02*
D03*
X24836Y59913D02*
D03*
X26556Y60643D02*
D03*
X27046Y59913D02*
D03*
X22826Y60733D02*
D03*
X46673Y63671D02*
D03*
X40836Y59833D02*
D03*
X33684Y57141D02*
D03*
X18283Y57061D02*
D03*
Y56651D02*
D03*
X43814Y56011D02*
D03*
X43024D02*
D03*
X41094Y46351D02*
D03*
Y46771D02*
D03*
X39014Y46831D02*
D03*
X33563Y53491D02*
D03*
X14444Y58801D02*
D03*
X33684Y56721D02*
D03*
X39906Y59833D02*
D03*
X41166Y59403D02*
D03*
X40236D02*
D03*
X27345Y60633D02*
D03*
X24836Y59503D02*
D03*
X23723Y59511D02*
D03*
X24366Y60733D02*
D03*
X33523Y60101D02*
D03*
X14446Y59611D02*
D03*
X32384Y52776D02*
D03*
X32604Y54916D02*
D03*
Y54506D02*
D03*
X41563Y84073D02*
D03*
X40823Y80863D02*
D03*
X34653Y73853D02*
D03*
X33844Y75753D02*
D03*
X34943Y75183D02*
D03*
X25094Y73893D02*
D03*
X24214Y75763D02*
D03*
X25294Y75183D02*
D03*
X20473Y73893D02*
D03*
X19713Y75763D02*
D03*
X20777Y75173D02*
D03*
X45584Y92713D02*
D03*
X32803Y83713D02*
D03*
X28013Y75457D02*
D03*
X28152Y77091D02*
D03*
X28790Y75457D02*
D03*
X28900Y77091D02*
D03*
X29898Y75447D02*
D03*
X30008Y77081D02*
D03*
X32443Y85573D02*
D03*
X33503Y83703D02*
D03*
X32606Y84646D02*
D03*
X23213Y82705D02*
D03*
X19440Y83671D02*
D03*
X19583Y83023D02*
D03*
X17953Y85483D02*
D03*
X23103Y84618D02*
D03*
X17953Y84243D02*
D03*
X17584Y81353D02*
D03*
X28160Y79371D02*
D03*
X32448Y85059D02*
D03*
X15993Y74253D02*
D03*
X15134Y76013D02*
D03*
X16323Y75533D02*
D03*
X36574Y77673D02*
D03*
X27083Y95253D02*
D03*
X40623Y95033D02*
D03*
X17953Y83603D02*
D03*
X18566Y89545D02*
D03*
X19456Y91935D02*
D03*
Y92345D02*
D03*
X19786Y91515D02*
D03*
X41892Y83643D02*
D03*
X46223Y94253D02*
D03*
X46554Y94993D02*
D03*
X40823Y80433D02*
D03*
X33393Y80153D02*
D03*
X32473Y83333D02*
D03*
X39824Y81313D02*
D03*
X40153Y81723D02*
D03*
X26014Y87813D02*
D03*
X23266Y88735D02*
D03*
X27130Y79433D02*
D03*
X23103Y85203D02*
D03*
X34504Y88113D02*
D03*
X26553Y88223D02*
D03*
X24036Y88325D02*
D03*
X24053Y87903D02*
D03*
X24836Y87905D02*
D03*
X26556Y88635D02*
D03*
X27046Y87905D02*
D03*
X22826Y88725D02*
D03*
X46673Y91663D02*
D03*
X40836Y87825D02*
D03*
X33684Y85133D02*
D03*
X18283Y85053D02*
D03*
Y84643D02*
D03*
X43814Y84003D02*
D03*
X43024D02*
D03*
X41094Y74343D02*
D03*
Y74763D02*
D03*
X39014Y74823D02*
D03*
X33563Y81483D02*
D03*
X14444Y86793D02*
D03*
X33684Y84713D02*
D03*
X39906Y87825D02*
D03*
X41166Y87395D02*
D03*
X40236D02*
D03*
X27345Y88625D02*
D03*
X24836Y87495D02*
D03*
X23723Y87503D02*
D03*
X24366Y88725D02*
D03*
X33523Y88093D02*
D03*
X14446Y87603D02*
D03*
X32384Y80768D02*
D03*
X32604Y82908D02*
D03*
Y82498D02*
D03*
G54D287*
X42481Y29232D02*
D03*
X42981D02*
D03*
X42481Y57225D02*
D03*
X42981D02*
D03*
X42481Y85217D02*
D03*
X42981D02*
D03*
G54D288*
X42481Y29267D02*
D03*
X42981D02*
D03*
X42481Y57259D02*
D03*
X42981D02*
D03*
X42481Y85251D02*
D03*
X42981D02*
D03*
G54D289*
X43486Y29232D02*
D03*
X43986D02*
D03*
X43486Y57225D02*
D03*
X43986D02*
D03*
X43486Y85217D02*
D03*
X43986D02*
D03*
G54D290*
X43486Y29267D02*
D03*
X43986D02*
D03*
X43486Y57259D02*
D03*
X43986D02*
D03*
X43486Y85251D02*
D03*
X43986D02*
D03*
G54D291*
X40806Y17641D02*
D03*
Y17141D02*
D03*
Y45633D02*
D03*
Y45133D02*
D03*
Y73625D02*
D03*
Y73125D02*
D03*
G54D292*
X40840Y17641D02*
D03*
Y17141D02*
D03*
Y45633D02*
D03*
Y45133D02*
D03*
Y73625D02*
D03*
Y73125D02*
D03*
G54D293*
X40806Y16636D02*
D03*
Y16136D02*
D03*
Y44628D02*
D03*
Y44128D02*
D03*
Y72620D02*
D03*
Y72120D02*
D03*
G54D294*
X40840Y16636D02*
D03*
Y16136D02*
D03*
Y44628D02*
D03*
Y44128D02*
D03*
Y72620D02*
D03*
Y72120D02*
D03*
G54D295*
X40289Y33379D02*
D03*
X31639Y17443D02*
D03*
X34788Y18384D02*
D03*
X21999Y17464D02*
D03*
X25138Y18384D02*
D03*
X17488Y17354D02*
D03*
X20638Y18384D02*
D03*
X16314Y30434D02*
D03*
X20295Y25741D02*
D03*
X23474Y25800D02*
D03*
X23484Y24377D02*
D03*
X20305Y24348D02*
D03*
X28798Y31313D02*
D03*
X22649Y27524D02*
D03*
X17698Y26384D02*
D03*
X14739Y33184D02*
D03*
X31969Y25716D02*
D03*
X24299Y28414D02*
D03*
X16178Y18743D02*
D03*
X13029Y17694D02*
D03*
X19021Y35606D02*
D03*
X19421Y24156D02*
D03*
X39889Y33379D02*
D03*
X39821Y39026D02*
D03*
X40221D02*
D03*
X33198Y26304D02*
D03*
X40294Y32862D02*
D03*
X25384Y32683D02*
D03*
X29599Y31274D02*
D03*
X30178Y31284D02*
D03*
X30749D02*
D03*
X23241Y31986D02*
D03*
X27088Y31484D02*
D03*
X24974Y32683D02*
D03*
X21811Y32146D02*
D03*
X21401D02*
D03*
X35268Y18714D02*
D03*
X25619D02*
D03*
X21219Y17914D02*
D03*
X45978Y37173D02*
D03*
X45579Y37504D02*
D03*
X46358Y36453D02*
D03*
X33238Y28774D02*
D03*
X33038Y23414D02*
D03*
X33609Y26304D02*
D03*
X26609Y31484D02*
D03*
X16914Y30104D02*
D03*
X39539Y27134D02*
D03*
X40638Y25603D02*
D03*
X46276Y33111D02*
D03*
X15998Y31925D02*
D03*
X15149Y33184D02*
D03*
X16759Y18103D02*
D03*
X39884Y32534D02*
D03*
X21001Y32476D02*
D03*
X22431Y32316D02*
D03*
X22841D02*
D03*
X28051Y21566D02*
D03*
X40289Y61371D02*
D03*
X31639Y45436D02*
D03*
X34788Y46376D02*
D03*
X21999Y45456D02*
D03*
X25138Y46376D02*
D03*
X17488Y45346D02*
D03*
X20638Y46376D02*
D03*
X16314Y58426D02*
D03*
X20295Y53733D02*
D03*
X23474Y53792D02*
D03*
X23484Y52369D02*
D03*
X20305Y52340D02*
D03*
X28798Y59306D02*
D03*
X22649Y55516D02*
D03*
X17698Y54376D02*
D03*
X14739Y61176D02*
D03*
X31969Y53708D02*
D03*
X24299Y56406D02*
D03*
X16178Y46736D02*
D03*
X13029Y45686D02*
D03*
X19021Y63598D02*
D03*
X19421Y52148D02*
D03*
X39889Y61371D02*
D03*
X39821Y67018D02*
D03*
X40221D02*
D03*
X33198Y54296D02*
D03*
X40294Y60855D02*
D03*
X25384Y60676D02*
D03*
X29599Y59266D02*
D03*
X30178Y59276D02*
D03*
X30749D02*
D03*
X23241Y59978D02*
D03*
X27088Y59476D02*
D03*
X24974Y60676D02*
D03*
X21811Y60138D02*
D03*
X21401D02*
D03*
X35268Y46706D02*
D03*
X25619D02*
D03*
X21219Y45906D02*
D03*
X45978Y65166D02*
D03*
X45579Y65496D02*
D03*
X46358Y64446D02*
D03*
X33238Y56766D02*
D03*
X33038Y51406D02*
D03*
X33609Y54296D02*
D03*
X26609Y59476D02*
D03*
X16914Y58096D02*
D03*
X39539Y55126D02*
D03*
X40638Y53596D02*
D03*
X46276Y61103D02*
D03*
X15998Y59917D02*
D03*
X15149Y61176D02*
D03*
X16759Y46096D02*
D03*
X39884Y60526D02*
D03*
X21001Y60468D02*
D03*
X22431Y60308D02*
D03*
X22841D02*
D03*
X28051Y49558D02*
D03*
X40289Y89363D02*
D03*
X31639Y73428D02*
D03*
X34788Y74368D02*
D03*
X21999Y73448D02*
D03*
X25138Y74368D02*
D03*
X17488Y73338D02*
D03*
X20638Y74368D02*
D03*
X16314Y86418D02*
D03*
X20295Y81725D02*
D03*
X23474Y81784D02*
D03*
X23484Y80361D02*
D03*
X20305Y80332D02*
D03*
X28798Y87298D02*
D03*
X22649Y83508D02*
D03*
X17698Y82368D02*
D03*
X14739Y89168D02*
D03*
X31969Y81700D02*
D03*
X24299Y84398D02*
D03*
X16178Y74728D02*
D03*
X13029Y73678D02*
D03*
X19021Y91590D02*
D03*
X19421Y80140D02*
D03*
X39889Y89363D02*
D03*
X39821Y95010D02*
D03*
X40221D02*
D03*
X33198Y82288D02*
D03*
X40294Y88847D02*
D03*
X25384Y88668D02*
D03*
X29599Y87258D02*
D03*
X30178Y87268D02*
D03*
X30749D02*
D03*
X23241Y87970D02*
D03*
X27088Y87468D02*
D03*
X24974Y88668D02*
D03*
X21811Y88130D02*
D03*
X21401D02*
D03*
X35268Y74698D02*
D03*
X25619D02*
D03*
X21219Y73898D02*
D03*
X45978Y93158D02*
D03*
X45579Y93488D02*
D03*
X46358Y92438D02*
D03*
X33238Y84758D02*
D03*
X33038Y79398D02*
D03*
X33609Y82288D02*
D03*
X26609Y87468D02*
D03*
X16914Y86088D02*
D03*
X39539Y83118D02*
D03*
X40638Y81588D02*
D03*
X46276Y89095D02*
D03*
X15998Y87909D02*
D03*
X15149Y89168D02*
D03*
X16759Y74088D02*
D03*
X39884Y88518D02*
D03*
X21001Y88460D02*
D03*
X22431Y88300D02*
D03*
X22841D02*
D03*
X28051Y77550D02*
D03*
G54D296*
X40289Y33702D02*
D03*
X31639Y17120D02*
D03*
X34788Y18707D02*
D03*
X21999Y17140D02*
D03*
X25138Y18707D02*
D03*
X17488Y17030D02*
D03*
X20638Y18707D02*
D03*
X16314Y30110D02*
D03*
X20295Y26064D02*
D03*
X23474Y26123D02*
D03*
X23484Y24053D02*
D03*
X20305Y24024D02*
D03*
X28798Y30990D02*
D03*
X22649Y27847D02*
D03*
X17698Y26060D02*
D03*
X14739Y33507D02*
D03*
X31969Y25392D02*
D03*
X24299Y28737D02*
D03*
X16178Y19067D02*
D03*
X13029Y17370D02*
D03*
X29599Y31597D02*
D03*
X30178Y31607D02*
D03*
X30749D02*
D03*
X23241Y32310D02*
D03*
X27088Y31160D02*
D03*
X24974Y32360D02*
D03*
X21811Y32470D02*
D03*
X21401D02*
D03*
X40289Y61695D02*
D03*
X31639Y45112D02*
D03*
X34788Y46700D02*
D03*
X21999Y45132D02*
D03*
X25138Y46700D02*
D03*
X17488Y45022D02*
D03*
X20638Y46700D02*
D03*
X16314Y58102D02*
D03*
X20295Y54057D02*
D03*
X23474Y54116D02*
D03*
X23484Y52045D02*
D03*
X20305Y52016D02*
D03*
X28798Y58982D02*
D03*
X22649Y55840D02*
D03*
X17698Y54052D02*
D03*
X14739Y61500D02*
D03*
X31969Y53384D02*
D03*
X24299Y56730D02*
D03*
X16178Y47060D02*
D03*
X13029Y45362D02*
D03*
X29599Y59590D02*
D03*
X30178Y59600D02*
D03*
X30749D02*
D03*
X23241Y60302D02*
D03*
X27088Y59152D02*
D03*
X24974Y60352D02*
D03*
X21811Y60462D02*
D03*
X21401D02*
D03*
X40289Y89687D02*
D03*
X31639Y73104D02*
D03*
X34788Y74692D02*
D03*
X21999Y73124D02*
D03*
X25138Y74692D02*
D03*
X17488Y73014D02*
D03*
X20638Y74692D02*
D03*
X16314Y86094D02*
D03*
X20295Y82049D02*
D03*
X23474Y82108D02*
D03*
X23484Y80037D02*
D03*
X20305Y80009D02*
D03*
X28798Y86974D02*
D03*
X22649Y83832D02*
D03*
X17698Y82044D02*
D03*
X14739Y89492D02*
D03*
X31969Y81376D02*
D03*
X24299Y84722D02*
D03*
X16178Y75052D02*
D03*
X13029Y73354D02*
D03*
X29599Y87582D02*
D03*
X30178Y87592D02*
D03*
X30749D02*
D03*
X23241Y88294D02*
D03*
X27088Y87144D02*
D03*
X24974Y88344D02*
D03*
X21811Y88454D02*
D03*
X21401D02*
D03*
G54D297*
X41147Y24878D02*
D03*
X34977Y17868D02*
D03*
X34167Y19769D02*
D03*
X34620Y19198D02*
D03*
X25417Y17909D02*
D03*
X24537Y19778D02*
D03*
X24970Y19198D02*
D03*
X20797Y17909D02*
D03*
X20037Y19778D02*
D03*
X20453Y19188D02*
D03*
X45907Y36728D02*
D03*
X32480Y27729D02*
D03*
X28337Y19473D02*
D03*
X28476Y21107D02*
D03*
X29114Y19473D02*
D03*
X29224Y21107D02*
D03*
X29574Y19463D02*
D03*
X29684Y21097D02*
D03*
X32120Y29588D02*
D03*
X33827Y27719D02*
D03*
X32282Y28661D02*
D03*
X23537Y26721D02*
D03*
X19764Y27686D02*
D03*
X19260Y27039D02*
D03*
X18277Y29499D02*
D03*
X22780Y28634D02*
D03*
X18277Y28259D02*
D03*
X17260Y25368D02*
D03*
X27836Y23386D02*
D03*
X32125Y29075D02*
D03*
X16317Y18269D02*
D03*
X15457Y20029D02*
D03*
X16000Y19548D02*
D03*
X36250Y21688D02*
D03*
X27407Y39269D02*
D03*
X40947Y39049D02*
D03*
X18277Y27619D02*
D03*
X26807Y23449D02*
D03*
X22780Y29218D02*
D03*
X34180Y32129D02*
D03*
X26230Y32239D02*
D03*
X24360Y32341D02*
D03*
X23730Y31918D02*
D03*
X24512Y31921D02*
D03*
X26232Y32651D02*
D03*
X27370Y31921D02*
D03*
X22502Y32741D02*
D03*
X41147Y52871D02*
D03*
X34977Y45861D02*
D03*
X34167Y47761D02*
D03*
X34620Y47191D02*
D03*
X25417Y45901D02*
D03*
X24537Y47771D02*
D03*
X24970Y47191D02*
D03*
X20797Y45901D02*
D03*
X20037Y47771D02*
D03*
X20453Y47181D02*
D03*
X45907Y64721D02*
D03*
X32480Y55721D02*
D03*
X28337Y47465D02*
D03*
X28476Y49099D02*
D03*
X29114Y47465D02*
D03*
X29224Y49099D02*
D03*
X29574Y47455D02*
D03*
X29684Y49089D02*
D03*
X32120Y57581D02*
D03*
X33827Y55711D02*
D03*
X32282Y56654D02*
D03*
X23537Y54713D02*
D03*
X19764Y55679D02*
D03*
X19260Y55031D02*
D03*
X18277Y57491D02*
D03*
X22780Y56626D02*
D03*
X18277Y56251D02*
D03*
X17260Y53361D02*
D03*
X27836Y51379D02*
D03*
X32125Y57067D02*
D03*
X16317Y46261D02*
D03*
X15457Y48021D02*
D03*
X16000Y47541D02*
D03*
X36250Y49681D02*
D03*
X27407Y67261D02*
D03*
X40947Y67041D02*
D03*
X18277Y55611D02*
D03*
X26807Y51441D02*
D03*
X22780Y57211D02*
D03*
X34180Y60121D02*
D03*
X26230Y60231D02*
D03*
X24360Y60333D02*
D03*
X23730Y59911D02*
D03*
X24512Y59913D02*
D03*
X26232Y60643D02*
D03*
X27370Y59913D02*
D03*
X22502Y60733D02*
D03*
X41147Y80863D02*
D03*
X34977Y73853D02*
D03*
X34167Y75753D02*
D03*
X34620Y75183D02*
D03*
X25417Y73893D02*
D03*
X24537Y75763D02*
D03*
X24970Y75183D02*
D03*
X20797Y73893D02*
D03*
X20037Y75763D02*
D03*
X20453Y75173D02*
D03*
X45907Y92713D02*
D03*
X32480Y83713D02*
D03*
X28337Y75457D02*
D03*
X28476Y77091D02*
D03*
X29114Y75457D02*
D03*
X29224Y77091D02*
D03*
X29574Y75447D02*
D03*
X29684Y77081D02*
D03*
X32120Y85573D02*
D03*
X33827Y83703D02*
D03*
X32282Y84646D02*
D03*
X23537Y82705D02*
D03*
X19764Y83671D02*
D03*
X19260Y83023D02*
D03*
X18277Y85483D02*
D03*
X22780Y84618D02*
D03*
X18277Y84243D02*
D03*
X17260Y81353D02*
D03*
X27836Y79371D02*
D03*
X32125Y85059D02*
D03*
X16317Y74253D02*
D03*
X15457Y76013D02*
D03*
X16000Y75533D02*
D03*
X36250Y77673D02*
D03*
X27407Y95253D02*
D03*
X40947Y95033D02*
D03*
X18277Y83603D02*
D03*
X26807Y79433D02*
D03*
X22780Y85203D02*
D03*
X34180Y88113D02*
D03*
X26230Y88223D02*
D03*
X24360Y88325D02*
D03*
X23730Y87903D02*
D03*
X24512Y87905D02*
D03*
X26232Y88635D02*
D03*
X27370Y87905D02*
D03*
X22502Y88725D02*
D03*
G54D298*
X33312Y15609D02*
D03*
X33804D02*
D03*
X31223Y14878D02*
D03*
X31715D02*
D03*
X32845D02*
D03*
X32353D02*
D03*
X33875Y14908D02*
D03*
X33383D02*
D03*
X34543D02*
D03*
X35035D02*
D03*
X34204Y20239D02*
D03*
X33712D02*
D03*
X34552Y16219D02*
D03*
X35044D02*
D03*
X21432Y16359D02*
D03*
X21924D02*
D03*
X24543Y15628D02*
D03*
X25035D02*
D03*
X22702Y20319D02*
D03*
X23194D02*
D03*
X28054Y17709D02*
D03*
X27562D02*
D03*
X29655Y17728D02*
D03*
X29163D02*
D03*
X25243Y19678D02*
D03*
X25735D02*
D03*
X24082Y20249D02*
D03*
X24574D02*
D03*
X25444Y16289D02*
D03*
X24952D02*
D03*
X19592Y20249D02*
D03*
X20084D02*
D03*
X20524Y16279D02*
D03*
X20032D02*
D03*
X19025Y15008D02*
D03*
X18533D02*
D03*
X17414Y16379D02*
D03*
X16922D02*
D03*
X20795Y14858D02*
D03*
X20303D02*
D03*
X22002Y14869D02*
D03*
X22494D02*
D03*
X24133Y14828D02*
D03*
X24625D02*
D03*
X46525Y21688D02*
D03*
X46033D02*
D03*
X44963Y21128D02*
D03*
X45455D02*
D03*
X46032Y21129D02*
D03*
X46524D02*
D03*
X43395Y33878D02*
D03*
X42903D02*
D03*
X47563Y12988D02*
D03*
X48055D02*
D03*
X44025Y23778D02*
D03*
X43533D02*
D03*
X41174Y15249D02*
D03*
X40682D02*
D03*
X15132Y20499D02*
D03*
X15624D02*
D03*
X16384Y16599D02*
D03*
X15892D02*
D03*
X13014Y16759D02*
D03*
X12522D02*
D03*
X16434Y14909D02*
D03*
X16927D02*
D03*
X17934D02*
D03*
X17442D02*
D03*
X31765Y22858D02*
D03*
X31273D02*
D03*
X18060Y24078D02*
D03*
X17567Y24078D02*
D03*
X33312Y43601D02*
D03*
X33804D02*
D03*
X31223Y42871D02*
D03*
X31715D02*
D03*
X32845D02*
D03*
X32353D02*
D03*
X33875Y42901D02*
D03*
X33383D02*
D03*
X34543D02*
D03*
X35035D02*
D03*
X34204Y48231D02*
D03*
X33712D02*
D03*
X34552Y44211D02*
D03*
X35044D02*
D03*
X21432Y44351D02*
D03*
X21924D02*
D03*
X24543Y43621D02*
D03*
X25035D02*
D03*
X22702Y48311D02*
D03*
X23194D02*
D03*
X28054Y45701D02*
D03*
X27562D02*
D03*
X29655Y45721D02*
D03*
X29163D02*
D03*
X25243Y47671D02*
D03*
X25735D02*
D03*
X24082Y48241D02*
D03*
X24574D02*
D03*
X25444Y44281D02*
D03*
X24952D02*
D03*
X19592Y48241D02*
D03*
X20084D02*
D03*
X20524Y44271D02*
D03*
X20032D02*
D03*
X19025Y43001D02*
D03*
X18533D02*
D03*
X17414Y44371D02*
D03*
X16922D02*
D03*
X20795Y42851D02*
D03*
X20303D02*
D03*
X22002Y42861D02*
D03*
X22494D02*
D03*
X24133Y42821D02*
D03*
X24625D02*
D03*
X46525Y49681D02*
D03*
X46033D02*
D03*
X44963Y49121D02*
D03*
X45455D02*
D03*
X46032Y49121D02*
D03*
X46524D02*
D03*
X43395Y61871D02*
D03*
X42903D02*
D03*
X47563Y40981D02*
D03*
X48055D02*
D03*
X44025Y51771D02*
D03*
X43533D02*
D03*
X41174Y43241D02*
D03*
X40682D02*
D03*
X15132Y48491D02*
D03*
X15624D02*
D03*
X16384Y44591D02*
D03*
X15892D02*
D03*
X13014Y44751D02*
D03*
X12522D02*
D03*
X16434Y42901D02*
D03*
X16927D02*
D03*
X17934D02*
D03*
X17442D02*
D03*
X31765Y50851D02*
D03*
X31273D02*
D03*
X18060Y52071D02*
D03*
X17567Y52071D02*
D03*
X33312Y71593D02*
D03*
X33804D02*
D03*
X31223Y70863D02*
D03*
X31715D02*
D03*
X32845D02*
D03*
X32353D02*
D03*
X33875Y70893D02*
D03*
X33383D02*
D03*
X34543D02*
D03*
X35035D02*
D03*
X34204Y76223D02*
D03*
X33712D02*
D03*
X34552Y72203D02*
D03*
X35044D02*
D03*
X21432Y72343D02*
D03*
X21924D02*
D03*
X24543Y71613D02*
D03*
X25035D02*
D03*
X22702Y76303D02*
D03*
X23194D02*
D03*
X28054Y73693D02*
D03*
X27562D02*
D03*
X29655Y73713D02*
D03*
X29163D02*
D03*
X25243Y75663D02*
D03*
X25735D02*
D03*
X24082Y76233D02*
D03*
X24574D02*
D03*
X25444Y72273D02*
D03*
X24952D02*
D03*
X19592Y76233D02*
D03*
X20084D02*
D03*
X20524Y72263D02*
D03*
X20032D02*
D03*
X19025Y70993D02*
D03*
X18533D02*
D03*
X17414Y72363D02*
D03*
X16922D02*
D03*
X20795Y70843D02*
D03*
X20303D02*
D03*
X22002Y70853D02*
D03*
X22494D02*
D03*
X24133Y70813D02*
D03*
X24625D02*
D03*
X46525Y77673D02*
D03*
X46033D02*
D03*
X44963Y77113D02*
D03*
X45455D02*
D03*
X46032Y77113D02*
D03*
X46524D02*
D03*
X43395Y89863D02*
D03*
X42903D02*
D03*
X47563Y68973D02*
D03*
X48055D02*
D03*
X44025Y79763D02*
D03*
X43533D02*
D03*
X41174Y71233D02*
D03*
X40682D02*
D03*
X15132Y76483D02*
D03*
X15624D02*
D03*
X16384Y72583D02*
D03*
X15892D02*
D03*
X13014Y72743D02*
D03*
X12522D02*
D03*
X16434Y70893D02*
D03*
X16927D02*
D03*
X17934D02*
D03*
X17442D02*
D03*
X31765Y78843D02*
D03*
X31273D02*
D03*
X18060Y80063D02*
D03*
X17567Y80063D02*
D03*
G54D299*
X33358Y21284D02*
D03*
X33358Y20792D02*
D03*
X34849Y20215D02*
D03*
X34849Y19723D02*
D03*
X23629Y15323D02*
D03*
X23629Y15815D02*
D03*
X19198Y21274D02*
D03*
X19198Y20782D02*
D03*
X20729Y20175D02*
D03*
X20729Y19683D02*
D03*
X42238Y23854D02*
D03*
X42238Y23362D02*
D03*
X48579Y13663D02*
D03*
X48579Y14155D02*
D03*
X48578Y14842D02*
D03*
X48578Y15334D02*
D03*
X42799Y35213D02*
D03*
X42799Y35705D02*
D03*
X15099Y16205D02*
D03*
X15099Y15713D02*
D03*
X15668Y15572D02*
D03*
X15668Y16064D02*
D03*
X14598Y21464D02*
D03*
X14598Y20972D02*
D03*
X16239Y20023D02*
D03*
X16239Y20515D02*
D03*
X17419Y29122D02*
D03*
X17419Y29615D02*
D03*
X17418Y28072D02*
D03*
X17418Y28565D02*
D03*
X33358Y49276D02*
D03*
X33358Y48784D02*
D03*
X34849Y48207D02*
D03*
X34849Y47715D02*
D03*
X23629Y43315D02*
D03*
X23629Y43807D02*
D03*
X19198Y49266D02*
D03*
X19198Y48774D02*
D03*
X20729Y48167D02*
D03*
X20729Y47675D02*
D03*
X42238Y51846D02*
D03*
X42238Y51354D02*
D03*
X48579Y41655D02*
D03*
X48579Y42147D02*
D03*
X48578Y42834D02*
D03*
X48578Y43326D02*
D03*
X42799Y63205D02*
D03*
X42799Y63697D02*
D03*
X15099Y44197D02*
D03*
X15099Y43705D02*
D03*
X15668Y43564D02*
D03*
X15668Y44056D02*
D03*
X14598Y49456D02*
D03*
X14598Y48964D02*
D03*
X16239Y48015D02*
D03*
X16239Y48507D02*
D03*
X17419Y57115D02*
D03*
X17419Y57607D02*
D03*
X17418Y56065D02*
D03*
X17418Y56557D02*
D03*
X33358Y77269D02*
D03*
X33358Y76776D02*
D03*
X34849Y76199D02*
D03*
X34849Y75707D02*
D03*
X23629Y71307D02*
D03*
X23629Y71799D02*
D03*
X19198Y77259D02*
D03*
X19198Y76766D02*
D03*
X20729Y76159D02*
D03*
X20729Y75667D02*
D03*
X42238Y79839D02*
D03*
X42238Y79346D02*
D03*
X48579Y69647D02*
D03*
X48579Y70139D02*
D03*
X48578Y70826D02*
D03*
X48578Y71318D02*
D03*
X42799Y91197D02*
D03*
X42799Y91689D02*
D03*
X15099Y72189D02*
D03*
X15099Y71697D02*
D03*
X15668Y71556D02*
D03*
X15668Y72049D02*
D03*
X14598Y77449D02*
D03*
X14598Y76956D02*
D03*
X16239Y76007D02*
D03*
X16239Y76499D02*
D03*
X17419Y85107D02*
D03*
X17419Y85599D02*
D03*
X17418Y84057D02*
D03*
X17418Y84549D02*
D03*
G54D300*
X42866Y34571D02*
D03*
X18101Y24766D02*
D03*
X42866Y62563D02*
D03*
X18101Y52758D02*
D03*
X42866Y90555D02*
D03*
X18101Y80750D02*
D03*
G54D301*
X43439Y34571D02*
D03*
X17529Y24766D02*
D03*
X43439Y62563D02*
D03*
X17529Y52758D02*
D03*
X43439Y90555D02*
D03*
X17529Y80750D02*
D03*
G54D302*
X46521Y34418D02*
D03*
Y62411D02*
D03*
Y90403D02*
D03*
G54D303*
Y34991D02*
D03*
Y62983D02*
D03*
Y90975D02*
D03*
G54D304*
X19021Y35930D02*
D03*
X19421Y24480D02*
D03*
X39889Y33703D02*
D03*
X39821Y38702D02*
D03*
X40221D02*
D03*
X33198Y25979D02*
D03*
X40294Y32538D02*
D03*
X25384Y32359D02*
D03*
X35268Y18389D02*
D03*
X25619D02*
D03*
X21219Y17589D02*
D03*
X45978Y37498D02*
D03*
X45579Y37179D02*
D03*
X46358Y36129D02*
D03*
X33238Y29098D02*
D03*
X33038Y23738D02*
D03*
X33609Y25979D02*
D03*
X26609Y31808D02*
D03*
X16914Y30428D02*
D03*
X39539Y27458D02*
D03*
X40638Y25928D02*
D03*
X46276Y32787D02*
D03*
X15998Y31601D02*
D03*
X15149Y33508D02*
D03*
X16759Y17779D02*
D03*
X39884Y32858D02*
D03*
X21001Y32152D02*
D03*
X22431Y31992D02*
D03*
X22841D02*
D03*
X28051Y21890D02*
D03*
X19021Y63922D02*
D03*
X19421Y52472D02*
D03*
X39889Y61695D02*
D03*
X39821Y66694D02*
D03*
X40221D02*
D03*
X33198Y53972D02*
D03*
X40294Y60531D02*
D03*
X25384Y60352D02*
D03*
X35268Y46382D02*
D03*
X25619D02*
D03*
X21219Y45582D02*
D03*
X45978Y65490D02*
D03*
X45579Y65172D02*
D03*
X46358Y64122D02*
D03*
X33238Y57090D02*
D03*
X33038Y51730D02*
D03*
X33609Y53972D02*
D03*
X26609Y59800D02*
D03*
X16914Y58420D02*
D03*
X39539Y55450D02*
D03*
X40638Y53920D02*
D03*
X46276Y60779D02*
D03*
X15998Y59593D02*
D03*
X15149Y61500D02*
D03*
X16759Y45772D02*
D03*
X39884Y60850D02*
D03*
X21001Y60144D02*
D03*
X22431Y59984D02*
D03*
X22841D02*
D03*
X28051Y49882D02*
D03*
X19021Y91914D02*
D03*
X19421Y80464D02*
D03*
X39889Y89687D02*
D03*
X39821Y94686D02*
D03*
X40221D02*
D03*
X33198Y81964D02*
D03*
X40294Y88523D02*
D03*
X25384Y88344D02*
D03*
X35268Y74374D02*
D03*
X25619D02*
D03*
X21219Y73574D02*
D03*
X45978Y93482D02*
D03*
X45579Y93164D02*
D03*
X46358Y92114D02*
D03*
X33238Y85082D02*
D03*
X33038Y79722D02*
D03*
X33609Y81964D02*
D03*
X26609Y87792D02*
D03*
X16914Y86412D02*
D03*
X39539Y83442D02*
D03*
X40638Y81912D02*
D03*
X46276Y88771D02*
D03*
X15998Y87585D02*
D03*
X15149Y89492D02*
D03*
X16759Y73764D02*
D03*
X39884Y88842D02*
D03*
X21001Y88136D02*
D03*
X22431Y87976D02*
D03*
X22841D02*
D03*
X28051Y77874D02*
D03*
G54D305*
X32524Y15688D02*
D03*
X31594D02*
D03*
X22874Y15678D02*
D03*
X21944D02*
D03*
X23883Y20989D02*
D03*
X22953D02*
D03*
X18674Y15718D02*
D03*
X17744D02*
D03*
X14334Y16078D02*
D03*
X13404D02*
D03*
X32524Y43681D02*
D03*
X31594D02*
D03*
X22874Y43671D02*
D03*
X21944D02*
D03*
X23883Y48981D02*
D03*
X22953D02*
D03*
X18674Y43711D02*
D03*
X17744D02*
D03*
X14334Y44071D02*
D03*
X13404D02*
D03*
X32524Y71673D02*
D03*
X31594D02*
D03*
X22874Y71663D02*
D03*
X21944D02*
D03*
X23883Y76973D02*
D03*
X22953D02*
D03*
X18674Y71703D02*
D03*
X17744D02*
D03*
X14334Y72063D02*
D03*
X13404D02*
D03*
G54D306*
X32688Y21353D02*
D03*
X32688Y20423D02*
D03*
X18518Y21353D02*
D03*
X18518Y20423D02*
D03*
X13918Y21773D02*
D03*
X13918Y20843D02*
D03*
X32688Y49345D02*
D03*
X32688Y48415D02*
D03*
X18518Y49345D02*
D03*
X18518Y48415D02*
D03*
X13918Y49765D02*
D03*
X13918Y48835D02*
D03*
X32688Y77338D02*
D03*
X32688Y76407D02*
D03*
X18518Y77338D02*
D03*
X18518Y76407D02*
D03*
X13918Y77758D02*
D03*
X13918Y76827D02*
D03*
G54D307*
X19946Y37788D02*
D03*
X16736D02*
D03*
X17746Y35384D02*
D03*
X19946Y65780D02*
D03*
X16736D02*
D03*
X17746Y63376D02*
D03*
X19946Y93772D02*
D03*
X16736D02*
D03*
X17746Y91368D02*
D03*
G54D308*
X20951Y37788D02*
D03*
X17741D02*
D03*
X16741Y35384D02*
D03*
X20951Y65780D02*
D03*
X17741D02*
D03*
X16741Y63376D02*
D03*
X20951Y93772D02*
D03*
X17741D02*
D03*
X16741Y91368D02*
D03*
G54D309*
X37895Y25042D02*
D03*
X37905Y29182D02*
D03*
X37895Y53034D02*
D03*
X37905Y57174D02*
D03*
X37895Y81026D02*
D03*
X37905Y85166D02*
D03*
G54D310*
X37895Y24039D02*
D03*
X37905Y28179D02*
D03*
X35476Y30185D02*
D03*
Y23965D02*
D03*
X48122Y38228D02*
D03*
X35476Y27075D02*
D03*
X37895Y52031D02*
D03*
X37905Y56171D02*
D03*
X35476Y58177D02*
D03*
Y51957D02*
D03*
X48122Y66221D02*
D03*
X35476Y55067D02*
D03*
X37895Y80023D02*
D03*
X37905Y84163D02*
D03*
X35476Y86169D02*
D03*
Y79949D02*
D03*
X48122Y94213D02*
D03*
X35476Y83059D02*
D03*
G54D311*
X37895Y26044D02*
D03*
X37905Y30183D02*
D03*
X35476Y29180D02*
D03*
Y22960D02*
D03*
X48122Y37223D02*
D03*
X35476Y26070D02*
D03*
X37895Y54036D02*
D03*
X37905Y58176D02*
D03*
X35476Y57172D02*
D03*
Y50952D02*
D03*
X48122Y65216D02*
D03*
X35476Y54062D02*
D03*
X37895Y82028D02*
D03*
X37905Y86168D02*
D03*
X35476Y85164D02*
D03*
Y78944D02*
D03*
X48122Y93208D02*
D03*
X35476Y82054D02*
D03*
G54D312*
X20900Y25944D02*
D03*
X20900Y25694D02*
D03*
X20900Y25444D02*
D03*
X20900Y25194D02*
D03*
X20900Y24939D02*
D03*
X20900Y24689D02*
D03*
Y24439D02*
D03*
Y24189D02*
D03*
X20900Y53936D02*
D03*
X20900Y53686D02*
D03*
X20900Y53436D02*
D03*
X20900Y53186D02*
D03*
X20900Y52931D02*
D03*
X20900Y52681D02*
D03*
Y52431D02*
D03*
Y52181D02*
D03*
X20900Y81928D02*
D03*
X20900Y81678D02*
D03*
X20900Y81428D02*
D03*
X20900Y81178D02*
D03*
X20900Y80923D02*
D03*
X20900Y80673D02*
D03*
Y80423D02*
D03*
Y80173D02*
D03*
G54D313*
X22885Y24189D02*
D03*
X22885Y24439D02*
D03*
Y24689D02*
D03*
Y24939D02*
D03*
Y25194D02*
D03*
Y25444D02*
D03*
X22885Y25694D02*
D03*
Y25944D02*
D03*
X22885Y52181D02*
D03*
X22885Y52431D02*
D03*
Y52681D02*
D03*
Y52931D02*
D03*
Y53186D02*
D03*
Y53436D02*
D03*
X22885Y53686D02*
D03*
Y53936D02*
D03*
X22885Y80173D02*
D03*
X22885Y80423D02*
D03*
Y80673D02*
D03*
Y80923D02*
D03*
Y81178D02*
D03*
Y81428D02*
D03*
X22885Y81678D02*
D03*
Y81928D02*
D03*
G54D314*
X44483Y31133D02*
D03*
X45473D02*
D03*
X44514Y31154D02*
D03*
X45444D02*
D03*
X44543Y31174D02*
D03*
X45413D02*
D03*
X45403Y31184D02*
D03*
X44573Y31193D02*
D03*
X44714D02*
D03*
X45244D02*
D03*
X45374Y31203D02*
D03*
X44683Y31214D02*
D03*
X45233D02*
D03*
X45273D02*
D03*
X44664Y31223D02*
D03*
X45293D02*
D03*
X45343D02*
D03*
X44633Y31233D02*
D03*
X44734D02*
D03*
X45314D02*
D03*
X45223Y31244D02*
D03*
X45213Y31263D02*
D03*
X45634D02*
D03*
X44334Y31274D02*
D03*
X44753Y31284D02*
D03*
X45613Y31293D02*
D03*
X44353Y31304D02*
D03*
X44763D02*
D03*
X45603D02*
D03*
X45194Y31314D02*
D03*
X44373Y31333D02*
D03*
X44774D02*
D03*
X45184D02*
D03*
X45584D02*
D03*
X44784Y31353D02*
D03*
X45574D02*
D03*
X44394Y31363D02*
D03*
X45564D02*
D03*
X44404Y31374D02*
D03*
X44794D02*
D03*
X45163Y31384D02*
D03*
X44413Y31393D02*
D03*
X45543D02*
D03*
X44423Y31404D02*
D03*
X44804D02*
D03*
X45153Y31414D02*
D03*
X45524Y31423D02*
D03*
X44443Y31433D02*
D03*
X45143D02*
D03*
X44443Y31444D02*
D03*
X44823Y31453D02*
D03*
X45524Y31463D02*
D03*
X44433Y31474D02*
D03*
X44833D02*
D03*
X45124Y31484D02*
D03*
X44423Y31493D02*
D03*
X45114Y31504D02*
D03*
X45543Y31514D02*
D03*
X44413Y31523D02*
D03*
X44854D02*
D03*
X44404Y31544D02*
D03*
X45564Y31563D02*
D03*
X45574Y31583D02*
D03*
X44384Y31593D02*
D03*
X45584Y31614D02*
D03*
X44373Y31623D02*
D03*
X45693Y31653D02*
D03*
X44163Y31674D02*
D03*
X45813Y31683D02*
D03*
Y31693D02*
D03*
Y31704D02*
D03*
Y31714D02*
D03*
Y31723D02*
D03*
Y31734D02*
D03*
X44254Y31893D02*
D03*
X45603Y31913D02*
D03*
X45584Y31923D02*
D03*
X44384Y31944D02*
D03*
X45574Y31953D02*
D03*
X44394Y31964D02*
D03*
X45564Y31974D02*
D03*
X45553Y31994D02*
D03*
X44413Y32013D02*
D03*
X45543Y32023D02*
D03*
X44423Y32034D02*
D03*
X45533Y32043D02*
D03*
X45524Y32064D02*
D03*
X44443Y32083D02*
D03*
X44454Y32104D02*
D03*
X45514Y32113D02*
D03*
X44423Y32143D02*
D03*
X45533D02*
D03*
X45543Y32153D02*
D03*
X44404Y32174D02*
D03*
X45564Y32183D02*
D03*
X44384Y32204D02*
D03*
X45584Y32213D02*
D03*
X44363Y32234D02*
D03*
X45603Y32243D02*
D03*
X44344Y32264D02*
D03*
X44334Y32273D02*
D03*
X45623D02*
D03*
X45634Y32283D02*
D03*
X44654Y32304D02*
D03*
X44664D02*
D03*
X45634D02*
D03*
X44633Y32313D02*
D03*
X44683D02*
D03*
X45273D02*
D03*
X45324D02*
D03*
X45623D02*
D03*
X44623Y32324D02*
D03*
X44714D02*
D03*
X45254D02*
D03*
X45613D02*
D03*
X44734Y32334D02*
D03*
X45223D02*
D03*
X45353D02*
D03*
X45603D02*
D03*
X44594Y32343D02*
D03*
X44763D02*
D03*
X45594D02*
D03*
X44784Y32353D02*
D03*
X45174D02*
D03*
X45384D02*
D03*
X45584D02*
D03*
X44563Y32364D02*
D03*
X45153D02*
D03*
X45574D02*
D03*
X44833Y32373D02*
D03*
X45124D02*
D03*
X45413D02*
D03*
X45564D02*
D03*
X44534Y32383D02*
D03*
X45423D02*
D03*
X45553D02*
D03*
X45543Y32394D02*
D03*
X44503Y32404D02*
D03*
X44844D02*
D03*
X45454D02*
D03*
X45533D02*
D03*
X44844Y32413D02*
D03*
X45114D02*
D03*
X45473D02*
D03*
X45524D02*
D03*
X44474Y32424D02*
D03*
X45114D02*
D03*
X45483D02*
D03*
X45514D02*
D03*
X45504Y32434D02*
D03*
X44854Y32453D02*
D03*
Y32464D02*
D03*
X45104Y32473D02*
D03*
X44864Y32503D02*
D03*
Y32513D02*
D03*
X45093Y32524D02*
D03*
X44873Y32564D02*
D03*
X45083Y32583D02*
D03*
X44483Y59126D02*
D03*
X45473D02*
D03*
X44514Y59146D02*
D03*
X45444D02*
D03*
X44543Y59166D02*
D03*
X45413D02*
D03*
X45403Y59176D02*
D03*
X44573Y59186D02*
D03*
X44714D02*
D03*
X45244D02*
D03*
X45374Y59196D02*
D03*
X44683Y59206D02*
D03*
X45233D02*
D03*
X45273D02*
D03*
X44664Y59216D02*
D03*
X45293D02*
D03*
X45343D02*
D03*
X44633Y59226D02*
D03*
X44734D02*
D03*
X45314D02*
D03*
X45223Y59236D02*
D03*
X45213Y59256D02*
D03*
X45634D02*
D03*
X44334Y59266D02*
D03*
X44753Y59276D02*
D03*
X45613Y59286D02*
D03*
X44353Y59296D02*
D03*
X44763D02*
D03*
X45603D02*
D03*
X45194Y59306D02*
D03*
X44373Y59326D02*
D03*
X44774D02*
D03*
X45184D02*
D03*
X45584D02*
D03*
X44784Y59346D02*
D03*
X45574D02*
D03*
X44394Y59356D02*
D03*
X45564D02*
D03*
X44404Y59366D02*
D03*
X44794D02*
D03*
X45163Y59376D02*
D03*
X44413Y59386D02*
D03*
X45543D02*
D03*
X44423Y59396D02*
D03*
X44804D02*
D03*
X45153Y59406D02*
D03*
X45524Y59416D02*
D03*
X44443Y59426D02*
D03*
X45143D02*
D03*
X44443Y59436D02*
D03*
X44823Y59446D02*
D03*
X45524Y59456D02*
D03*
X44433Y59466D02*
D03*
X44833D02*
D03*
X45124Y59476D02*
D03*
X44423Y59486D02*
D03*
X45114Y59496D02*
D03*
X45543Y59506D02*
D03*
X44413Y59516D02*
D03*
X44854D02*
D03*
X44404Y59536D02*
D03*
X45564Y59556D02*
D03*
X45574Y59576D02*
D03*
X44384Y59586D02*
D03*
X45584Y59606D02*
D03*
X44373Y59616D02*
D03*
X45693Y59646D02*
D03*
X44163Y59666D02*
D03*
X45813Y59676D02*
D03*
Y59686D02*
D03*
Y59696D02*
D03*
Y59706D02*
D03*
Y59716D02*
D03*
Y59726D02*
D03*
X44254Y59886D02*
D03*
X45603Y59906D02*
D03*
X45584Y59916D02*
D03*
X44384Y59936D02*
D03*
X45574Y59946D02*
D03*
X44394Y59956D02*
D03*
X45564Y59966D02*
D03*
X45553Y59986D02*
D03*
X44413Y60006D02*
D03*
X45543Y60016D02*
D03*
X44423Y60026D02*
D03*
X45533Y60036D02*
D03*
X45524Y60056D02*
D03*
X44443Y60076D02*
D03*
X44454Y60096D02*
D03*
X45514Y60106D02*
D03*
X44423Y60136D02*
D03*
X45533D02*
D03*
X45543Y60146D02*
D03*
X44404Y60166D02*
D03*
X45564Y60176D02*
D03*
X44384Y60196D02*
D03*
X45584Y60206D02*
D03*
X44363Y60226D02*
D03*
X45603Y60236D02*
D03*
X44344Y60256D02*
D03*
X44334Y60266D02*
D03*
X45623D02*
D03*
X45634Y60276D02*
D03*
X44654Y60296D02*
D03*
X44664D02*
D03*
X45634D02*
D03*
X44633Y60306D02*
D03*
X44683D02*
D03*
X45273D02*
D03*
X45324D02*
D03*
X45623D02*
D03*
X44623Y60316D02*
D03*
X44714D02*
D03*
X45254D02*
D03*
X45613D02*
D03*
X44734Y60326D02*
D03*
X45223D02*
D03*
X45353D02*
D03*
X45603D02*
D03*
X44594Y60336D02*
D03*
X44763D02*
D03*
X45594D02*
D03*
X44784Y60346D02*
D03*
X45174D02*
D03*
X45384D02*
D03*
X45584D02*
D03*
X44563Y60356D02*
D03*
X45153D02*
D03*
X45574D02*
D03*
X44833Y60366D02*
D03*
X45124D02*
D03*
X45413D02*
D03*
X45564D02*
D03*
X44534Y60376D02*
D03*
X45423D02*
D03*
X45553D02*
D03*
X45543Y60386D02*
D03*
X44503Y60396D02*
D03*
X44844D02*
D03*
X45454D02*
D03*
X45533D02*
D03*
X44844Y60406D02*
D03*
X45114D02*
D03*
X45473D02*
D03*
X45524D02*
D03*
X44474Y60416D02*
D03*
X45114D02*
D03*
X45483D02*
D03*
X45514D02*
D03*
X45504Y60426D02*
D03*
X44854Y60446D02*
D03*
Y60456D02*
D03*
X45104Y60466D02*
D03*
X44864Y60496D02*
D03*
Y60506D02*
D03*
X45093Y60516D02*
D03*
X44873Y60556D02*
D03*
X45083Y60576D02*
D03*
X44483Y87118D02*
D03*
X45473D02*
D03*
X44514Y87138D02*
D03*
X45444D02*
D03*
X44543Y87158D02*
D03*
X45413D02*
D03*
X45403Y87168D02*
D03*
X44573Y87178D02*
D03*
X44714D02*
D03*
X45244D02*
D03*
X45374Y87188D02*
D03*
X44683Y87198D02*
D03*
X45233D02*
D03*
X45273D02*
D03*
X44664Y87208D02*
D03*
X45293D02*
D03*
X45343D02*
D03*
X44633Y87218D02*
D03*
X44734D02*
D03*
X45314D02*
D03*
X45223Y87228D02*
D03*
X45213Y87248D02*
D03*
X45634D02*
D03*
X44334Y87258D02*
D03*
X44753Y87268D02*
D03*
X45613Y87278D02*
D03*
X44353Y87288D02*
D03*
X44763D02*
D03*
X45603D02*
D03*
X45194Y87298D02*
D03*
X44373Y87318D02*
D03*
X44774D02*
D03*
X45184D02*
D03*
X45584D02*
D03*
X44784Y87338D02*
D03*
X45574D02*
D03*
X44394Y87348D02*
D03*
X45564D02*
D03*
X44404Y87358D02*
D03*
X44794D02*
D03*
X45163Y87368D02*
D03*
X44413Y87378D02*
D03*
X45543D02*
D03*
X44423Y87388D02*
D03*
X44804D02*
D03*
X45153Y87398D02*
D03*
X45524Y87408D02*
D03*
X44443Y87418D02*
D03*
X45143D02*
D03*
X44443Y87428D02*
D03*
X44823Y87438D02*
D03*
X45524Y87448D02*
D03*
X44433Y87458D02*
D03*
X44833D02*
D03*
X45124Y87468D02*
D03*
X44423Y87478D02*
D03*
X45114Y87488D02*
D03*
X45543Y87498D02*
D03*
X44413Y87508D02*
D03*
X44854D02*
D03*
X44404Y87528D02*
D03*
X45564Y87548D02*
D03*
X45574Y87568D02*
D03*
X44384Y87578D02*
D03*
X45584Y87598D02*
D03*
X44373Y87608D02*
D03*
X45693Y87638D02*
D03*
X44163Y87658D02*
D03*
X45813Y87668D02*
D03*
Y87678D02*
D03*
Y87688D02*
D03*
Y87698D02*
D03*
Y87708D02*
D03*
Y87718D02*
D03*
X44254Y87878D02*
D03*
X45603Y87898D02*
D03*
X45584Y87908D02*
D03*
X44384Y87928D02*
D03*
X45574Y87938D02*
D03*
X44394Y87948D02*
D03*
X45564Y87958D02*
D03*
X45553Y87978D02*
D03*
X44413Y87998D02*
D03*
X45543Y88008D02*
D03*
X44423Y88018D02*
D03*
X45533Y88028D02*
D03*
X45524Y88048D02*
D03*
X44443Y88068D02*
D03*
X44454Y88088D02*
D03*
X45514Y88098D02*
D03*
X44423Y88128D02*
D03*
X45533D02*
D03*
X45543Y88138D02*
D03*
X44404Y88158D02*
D03*
X45564Y88168D02*
D03*
X44384Y88188D02*
D03*
X45584Y88198D02*
D03*
X44363Y88218D02*
D03*
X45603Y88228D02*
D03*
X44344Y88248D02*
D03*
X44334Y88258D02*
D03*
X45623D02*
D03*
X45634Y88268D02*
D03*
X44654Y88288D02*
D03*
X44664D02*
D03*
X45634D02*
D03*
X44633Y88298D02*
D03*
X44683D02*
D03*
X45273D02*
D03*
X45324D02*
D03*
X45623D02*
D03*
X44623Y88308D02*
D03*
X44714D02*
D03*
X45254D02*
D03*
X45613D02*
D03*
X44734Y88318D02*
D03*
X45223D02*
D03*
X45353D02*
D03*
X45603D02*
D03*
X44594Y88328D02*
D03*
X44763D02*
D03*
X45594D02*
D03*
X44784Y88338D02*
D03*
X45174D02*
D03*
X45384D02*
D03*
X45584D02*
D03*
X44563Y88348D02*
D03*
X45153D02*
D03*
X45574D02*
D03*
X44833Y88358D02*
D03*
X45124D02*
D03*
X45413D02*
D03*
X45564D02*
D03*
X44534Y88368D02*
D03*
X45423D02*
D03*
X45553D02*
D03*
X45543Y88378D02*
D03*
X44503Y88388D02*
D03*
X44844D02*
D03*
X45454D02*
D03*
X45533D02*
D03*
X44844Y88398D02*
D03*
X45114D02*
D03*
X45473D02*
D03*
X45524D02*
D03*
X44474Y88408D02*
D03*
X45114D02*
D03*
X45483D02*
D03*
X45514D02*
D03*
X45504Y88418D02*
D03*
X44854Y88438D02*
D03*
Y88448D02*
D03*
X45104Y88458D02*
D03*
X44864Y88488D02*
D03*
Y88498D02*
D03*
X45093Y88508D02*
D03*
X44873Y88548D02*
D03*
X45083Y88568D02*
D03*
G54D315*
X44318Y31644D02*
D03*
X45638D02*
D03*
X44268Y31653D02*
D03*
X44219Y31663D02*
D03*
X45749D02*
D03*
X45799Y31674D02*
D03*
X45809Y31874D02*
D03*
X44198Y31883D02*
D03*
X45759D02*
D03*
X45708Y31893D02*
D03*
X44309Y31904D02*
D03*
X45658D02*
D03*
X44359Y31913D02*
D03*
X44318Y59636D02*
D03*
X45638D02*
D03*
X44268Y59646D02*
D03*
X44219Y59656D02*
D03*
X45749D02*
D03*
X45799Y59666D02*
D03*
X45809Y59866D02*
D03*
X44198Y59876D02*
D03*
X45759D02*
D03*
X45708Y59886D02*
D03*
X44309Y59896D02*
D03*
X45658D02*
D03*
X44359Y59906D02*
D03*
X44318Y87628D02*
D03*
X45638D02*
D03*
X44268Y87638D02*
D03*
X44219Y87648D02*
D03*
X45749D02*
D03*
X45799Y87658D02*
D03*
X45809Y87858D02*
D03*
X44198Y87868D02*
D03*
X45759D02*
D03*
X45708Y87878D02*
D03*
X44309Y87888D02*
D03*
X45658D02*
D03*
X44359Y87898D02*
D03*
G54D316*
X44143Y31683D02*
D03*
Y31693D02*
D03*
Y31704D02*
D03*
Y31714D02*
D03*
Y31723D02*
D03*
Y31734D02*
D03*
Y31744D02*
D03*
Y31753D02*
D03*
Y31764D02*
D03*
Y31774D02*
D03*
Y31783D02*
D03*
Y31793D02*
D03*
Y31804D02*
D03*
Y31813D02*
D03*
Y31823D02*
D03*
Y31834D02*
D03*
Y31844D02*
D03*
Y31853D02*
D03*
Y31864D02*
D03*
Y59676D02*
D03*
Y59686D02*
D03*
Y59696D02*
D03*
Y59706D02*
D03*
Y59716D02*
D03*
Y59726D02*
D03*
Y59736D02*
D03*
Y59746D02*
D03*
Y59756D02*
D03*
Y59766D02*
D03*
Y59776D02*
D03*
Y59786D02*
D03*
Y59796D02*
D03*
Y59806D02*
D03*
Y59816D02*
D03*
Y59826D02*
D03*
Y59836D02*
D03*
Y59846D02*
D03*
Y59856D02*
D03*
Y87668D02*
D03*
Y87678D02*
D03*
Y87688D02*
D03*
Y87698D02*
D03*
Y87708D02*
D03*
Y87718D02*
D03*
Y87728D02*
D03*
Y87738D02*
D03*
Y87748D02*
D03*
Y87758D02*
D03*
Y87768D02*
D03*
Y87778D02*
D03*
Y87788D02*
D03*
Y87798D02*
D03*
Y87808D02*
D03*
Y87818D02*
D03*
Y87828D02*
D03*
Y87838D02*
D03*
Y87848D02*
D03*
G54D317*
X44148Y31874D02*
D03*
Y59866D02*
D03*
Y87858D02*
D03*
G54D318*
X19294Y31614D02*
D03*
Y32614D02*
D03*
X18294Y31614D02*
D03*
Y32614D02*
D03*
X17294D02*
D03*
Y31614D02*
D03*
X19294Y59606D02*
D03*
Y60606D02*
D03*
X18294Y59606D02*
D03*
Y60606D02*
D03*
X17294D02*
D03*
Y59606D02*
D03*
X19294Y87598D02*
D03*
Y88598D02*
D03*
X18294Y87598D02*
D03*
Y88598D02*
D03*
X17294D02*
D03*
Y87598D02*
D03*
G54D319*
X30507Y30190D02*
D03*
X30307D02*
D03*
X30107D02*
D03*
X29917D02*
D03*
X29717D02*
D03*
X29517D02*
D03*
X29327D02*
D03*
X29127D02*
D03*
X28927D02*
D03*
X28537D02*
D03*
X28337D02*
D03*
X30507Y58182D02*
D03*
X30307D02*
D03*
X30107D02*
D03*
X29917D02*
D03*
X29717D02*
D03*
X29517D02*
D03*
X29327D02*
D03*
X29127D02*
D03*
X28927D02*
D03*
X28537D02*
D03*
X28337D02*
D03*
X30507Y86174D02*
D03*
X30307D02*
D03*
X30107D02*
D03*
X29917D02*
D03*
X29717D02*
D03*
X29517D02*
D03*
X29327D02*
D03*
X29127D02*
D03*
X28927D02*
D03*
X28537D02*
D03*
X28337D02*
D03*
G54D320*
X28732Y30190D02*
D03*
Y58182D02*
D03*
Y86174D02*
D03*
G54D321*
X28137Y30190D02*
D03*
Y58182D02*
D03*
Y86174D02*
D03*
G54D322*
X27940Y30190D02*
D03*
X27546D02*
D03*
X27152D02*
D03*
X26758D02*
D03*
X26365D02*
D03*
X25971D02*
D03*
X27940Y58182D02*
D03*
X27546D02*
D03*
X27152D02*
D03*
X26758D02*
D03*
X26365D02*
D03*
X25971D02*
D03*
X27940Y86174D02*
D03*
X27546D02*
D03*
X27152D02*
D03*
X26758D02*
D03*
X26365D02*
D03*
X25971D02*
D03*
G54D323*
X27743Y30190D02*
D03*
X26955D02*
D03*
X27743Y58182D02*
D03*
X26955D02*
D03*
X27743Y86175D02*
D03*
X26955D02*
D03*
G54D324*
X27349Y30190D02*
D03*
X26168D02*
D03*
X25774Y30190D02*
D03*
X27349Y58182D02*
D03*
X26168D02*
D03*
X25774Y58182D02*
D03*
X27349Y86174D02*
D03*
X26168D02*
D03*
X25774Y86175D02*
D03*
G54D325*
X26562Y30190D02*
D03*
Y58182D02*
D03*
Y86174D02*
D03*
G54D326*
X25115Y29531D02*
D03*
Y28350D02*
D03*
Y57523D02*
D03*
Y56342D02*
D03*
Y85515D02*
D03*
Y84334D02*
D03*
G54D327*
Y29334D02*
D03*
Y28940D02*
D03*
Y28546D02*
D03*
Y28153D02*
D03*
Y27759D02*
D03*
Y27365D02*
D03*
Y57326D02*
D03*
Y56932D02*
D03*
Y56539D02*
D03*
Y56145D02*
D03*
Y55751D02*
D03*
Y55357D02*
D03*
Y85318D02*
D03*
Y84924D02*
D03*
Y84531D02*
D03*
Y84137D02*
D03*
Y83743D02*
D03*
Y83350D02*
D03*
G54D328*
X25115Y29137D02*
D03*
X25115Y28743D02*
D03*
X25115Y27956D02*
D03*
X25115Y27562D02*
D03*
X25115Y57129D02*
D03*
X25115Y56735D02*
D03*
X25115Y55948D02*
D03*
X25115Y55554D02*
D03*
X25115Y85121D02*
D03*
X25115Y84728D02*
D03*
X25115Y83940D02*
D03*
X25115Y83547D02*
D03*
G54D329*
Y27168D02*
D03*
Y55160D02*
D03*
Y83152D02*
D03*
G54D330*
X25115Y26969D02*
D03*
Y26769D02*
D03*
Y26379D02*
D03*
Y26179D02*
D03*
Y25979D02*
D03*
Y25789D02*
D03*
Y25589D02*
D03*
Y25389D02*
D03*
Y25199D02*
D03*
Y24999D02*
D03*
Y24799D02*
D03*
Y54961D02*
D03*
Y54761D02*
D03*
Y54371D02*
D03*
Y54171D02*
D03*
Y53971D02*
D03*
Y53781D02*
D03*
Y53581D02*
D03*
Y53381D02*
D03*
Y53191D02*
D03*
Y52991D02*
D03*
Y52791D02*
D03*
Y82953D02*
D03*
Y82753D02*
D03*
Y82363D02*
D03*
Y82163D02*
D03*
Y81963D02*
D03*
Y81773D02*
D03*
Y81573D02*
D03*
Y81373D02*
D03*
Y81183D02*
D03*
Y80983D02*
D03*
Y80783D02*
D03*
G54D331*
Y26574D02*
D03*
Y54566D02*
D03*
Y82558D02*
D03*
G54D332*
X25774Y24144D02*
D03*
X26168D02*
D03*
X26562D02*
D03*
X26955D02*
D03*
X27349D02*
D03*
X27743D02*
D03*
X25774Y52136D02*
D03*
X26168D02*
D03*
X26562D02*
D03*
X26955D02*
D03*
X27349D02*
D03*
X27743D02*
D03*
X25774Y80128D02*
D03*
X26168D02*
D03*
X26562D02*
D03*
X26955D02*
D03*
X27349D02*
D03*
X27743D02*
D03*
G54D333*
X25971Y24144D02*
D03*
X26365D02*
D03*
X27152D02*
D03*
X27546D02*
D03*
X25971Y52136D02*
D03*
X26365D02*
D03*
X27152D02*
D03*
X27546D02*
D03*
X25971Y80128D02*
D03*
X26365D02*
D03*
X27152D02*
D03*
X27546D02*
D03*
G54D334*
X26758Y24143D02*
D03*
X27940D02*
D03*
X26758Y52135D02*
D03*
X27940D02*
D03*
X26758Y80128D02*
D03*
X27940D02*
D03*
G54D335*
X28137Y24143D02*
D03*
Y52135D02*
D03*
Y80128D02*
D03*
G54D336*
X28336Y24144D02*
D03*
X28536D02*
D03*
X28926D02*
D03*
X29126D02*
D03*
X29326D02*
D03*
X29516D02*
D03*
X29716D02*
D03*
X29916D02*
D03*
X30106D02*
D03*
X30306D02*
D03*
X30506D02*
D03*
X28336Y52136D02*
D03*
X28536D02*
D03*
X28926D02*
D03*
X29126D02*
D03*
X29326D02*
D03*
X29516D02*
D03*
X29716D02*
D03*
X29916D02*
D03*
X30106D02*
D03*
X30306D02*
D03*
X30506D02*
D03*
X28336Y80128D02*
D03*
X28536D02*
D03*
X28926D02*
D03*
X29126D02*
D03*
X29326D02*
D03*
X29516D02*
D03*
X29716D02*
D03*
X29916D02*
D03*
X30106D02*
D03*
X30306D02*
D03*
X30506D02*
D03*
G54D337*
X28731Y24144D02*
D03*
Y52136D02*
D03*
Y80128D02*
D03*
G54D338*
X31161Y24799D02*
D03*
Y24999D02*
D03*
Y25199D02*
D03*
Y25389D02*
D03*
Y25589D02*
D03*
Y25789D02*
D03*
Y25979D02*
D03*
Y26179D02*
D03*
Y26379D02*
D03*
Y26769D02*
D03*
Y26969D02*
D03*
Y52791D02*
D03*
Y52991D02*
D03*
Y53191D02*
D03*
Y53381D02*
D03*
Y53581D02*
D03*
Y53781D02*
D03*
Y53971D02*
D03*
Y54171D02*
D03*
Y54371D02*
D03*
Y54761D02*
D03*
Y54961D02*
D03*
Y80783D02*
D03*
Y80983D02*
D03*
Y81183D02*
D03*
Y81373D02*
D03*
Y81573D02*
D03*
Y81773D02*
D03*
Y81963D02*
D03*
Y82163D02*
D03*
Y82363D02*
D03*
Y82753D02*
D03*
Y82953D02*
D03*
G54D339*
Y26574D02*
D03*
Y54566D02*
D03*
Y82558D02*
D03*
G54D340*
Y27168D02*
D03*
Y55160D02*
D03*
Y83152D02*
D03*
G54D341*
Y27365D02*
D03*
Y27759D02*
D03*
Y28546D02*
D03*
Y29334D02*
D03*
Y55357D02*
D03*
Y55751D02*
D03*
Y56538D02*
D03*
Y57326D02*
D03*
Y83349D02*
D03*
Y83743D02*
D03*
Y84530D02*
D03*
Y85318D02*
D03*
G54D342*
Y27562D02*
D03*
Y27956D02*
D03*
Y28350D02*
D03*
Y28743D02*
D03*
Y29137D02*
D03*
Y29531D02*
D03*
Y55554D02*
D03*
Y55948D02*
D03*
Y56342D02*
D03*
Y56735D02*
D03*
Y57129D02*
D03*
Y57523D02*
D03*
Y83546D02*
D03*
Y83940D02*
D03*
Y84334D02*
D03*
Y84728D02*
D03*
Y85121D02*
D03*
Y85515D02*
D03*
G54D343*
X31162Y28153D02*
D03*
Y28940D02*
D03*
Y56145D02*
D03*
Y56932D02*
D03*
Y84137D02*
D03*
Y84924D02*
D03*
G54D344*
X41249Y28760D02*
D03*
X40749D02*
D03*
X41249Y56752D02*
D03*
X40749D02*
D03*
X41249Y84744D02*
D03*
X40749D02*
D03*
G54D345*
X40244Y28760D02*
D03*
X39744D02*
D03*
X40244Y56752D02*
D03*
X39744D02*
D03*
X40244Y84744D02*
D03*
X39744D02*
D03*
G54D346*
Y30774D02*
D03*
X40244D02*
D03*
X39744Y58766D02*
D03*
X40244D02*
D03*
X39744Y86758D02*
D03*
X40244D02*
D03*
G54D347*
X40749Y30774D02*
D03*
X41249D02*
D03*
X40749Y58766D02*
D03*
X41249D02*
D03*
X40749Y86758D02*
D03*
X41249D02*
D03*
G54D348*
X13314Y31621D02*
D03*
Y30821D02*
D03*
X39173Y18266D02*
D03*
X13314Y59613D02*
D03*
Y58813D02*
D03*
X39173Y46258D02*
D03*
X13314Y87605D02*
D03*
Y86805D02*
D03*
X39173Y74250D02*
D03*
G54D349*
X12718Y31621D02*
D03*
Y30821D02*
D03*
X39769Y18266D02*
D03*
X12718Y59613D02*
D03*
Y58813D02*
D03*
X39769Y46258D02*
D03*
X12718Y87605D02*
D03*
Y86805D02*
D03*
X39769Y74250D02*
D03*
G54D350*
X40149Y37621D02*
D03*
X41185Y14442D02*
D03*
X41176Y13244D02*
D03*
X41728Y23596D02*
D03*
X40149Y65613D02*
D03*
X41185Y42435D02*
D03*
X41176Y41236D02*
D03*
X41728Y51588D02*
D03*
X40149Y93605D02*
D03*
X41185Y70427D02*
D03*
X41176Y69229D02*
D03*
X41728Y79580D02*
D03*
G54D351*
X42193Y37616D02*
D03*
X39141Y14447D02*
D03*
X39132Y13249D02*
D03*
X39683Y23601D02*
D03*
X42193Y65608D02*
D03*
X39141Y42439D02*
D03*
X39132Y41241D02*
D03*
X39683Y51593D02*
D03*
X42193Y93600D02*
D03*
X39141Y70432D02*
D03*
X39132Y69233D02*
D03*
X39683Y79585D02*
D03*
G54D352*
X16501Y31925D02*
D03*
X15567Y33153D02*
D03*
X16501Y59917D02*
D03*
X15567Y61145D02*
D03*
X16501Y87909D02*
D03*
X15567Y89138D02*
D03*
G54D353*
X16502Y31490D02*
D03*
X15567Y33589D02*
D03*
X16502Y59482D02*
D03*
X15567Y61581D02*
D03*
X16502Y87474D02*
D03*
X15567Y89573D02*
D03*
G54D354*
X16502Y32004D02*
D03*
X15567Y33075D02*
D03*
X16502Y59996D02*
D03*
X15567Y61067D02*
D03*
X16502Y87988D02*
D03*
X15567Y89059D02*
D03*
G54D355*
X46676Y30269D02*
D03*
Y58261D02*
D03*
Y86253D02*
D03*
G54D356*
X46681Y32314D02*
D03*
Y60306D02*
D03*
Y88298D02*
D03*
G54D357*
X42862Y26995D02*
D03*
Y24473D02*
D03*
Y54987D02*
D03*
Y52465D02*
D03*
Y82979D02*
D03*
Y80457D02*
D03*
G54D358*
X15612Y30797D02*
D03*
Y58789D02*
D03*
Y86782D02*
D03*
G54D359*
X21494Y29459D02*
D03*
X21488Y27411D02*
D03*
X41141Y25803D02*
D03*
X40091Y27283D02*
D03*
X46796Y33504D02*
D03*
X21494Y57451D02*
D03*
X21488Y55404D02*
D03*
X41141Y53795D02*
D03*
X40091Y55275D02*
D03*
X46796Y61496D02*
D03*
X21494Y85443D02*
D03*
X21488Y83396D02*
D03*
X41141Y81787D02*
D03*
X40091Y83267D02*
D03*
X46796Y89488D02*
D03*
G54D360*
X21494Y28863D02*
D03*
X21488Y28007D02*
D03*
X41141Y26398D02*
D03*
X40091Y27878D02*
D03*
X46796Y32909D02*
D03*
X21494Y56856D02*
D03*
X21488Y55999D02*
D03*
X41141Y54391D02*
D03*
X40091Y55871D02*
D03*
X46796Y60901D02*
D03*
X21494Y84848D02*
D03*
X21488Y83991D02*
D03*
X41141Y82383D02*
D03*
X40091Y83863D02*
D03*
X46796Y88893D02*
D03*
M02*
