G04 Layer_Color=16711935*
%FSLAX24Y24*%
%MOIN*%
G70*
G01*
G75*
%ADD12C,0.0100*%
%ADD116C,0.0300*%
%ADD123C,0.0840*%
G04:AMPARAMS|DCode=209|XSize=118.7mil|YSize=118.7mil|CornerRadius=59.4mil|HoleSize=0mil|Usage=FLASHONLY|Rotation=90.000|XOffset=0mil|YOffset=0mil|HoleType=Round|Shape=RoundedRectangle|*
%AMROUNDEDRECTD209*
21,1,0.1187,0.0000,0,0,90.0*
21,1,0.0000,0.1187,0,0,90.0*
1,1,0.1187,0.0000,0.0000*
1,1,0.1187,0.0000,0.0000*
1,1,0.1187,0.0000,0.0000*
1,1,0.1187,0.0000,0.0000*
%
%ADD209ROUNDEDRECTD209*%
G04:AMPARAMS|DCode=255|XSize=54mil|YSize=54mil|CornerRadius=27mil|HoleSize=0mil|Usage=FLASHONLY|Rotation=270.000|XOffset=0mil|YOffset=0mil|HoleType=Round|Shape=RoundedRectangle|*
%AMROUNDEDRECTD255*
21,1,0.0540,0.0000,0,0,270.0*
21,1,0.0000,0.0540,0,0,270.0*
1,1,0.0540,0.0000,0.0000*
1,1,0.0540,0.0000,0.0000*
1,1,0.0540,0.0000,0.0000*
1,1,0.0540,0.0000,0.0000*
%
%ADD255ROUNDEDRECTD255*%
%ADD260R,0.0631X0.0631*%
%ADD261C,0.0631*%
%ADD262O,0.0640X0.1240*%
%ADD263R,0.0640X0.1240*%
%ADD264R,0.0631X0.0631*%
%ADD265O,0.1340X0.1400*%
%ADD266O,0.1240X0.0640*%
%ADD267O,0.0865X0.1690*%
G04:AMPARAMS|DCode=268|XSize=137mil|YSize=87mil|CornerRadius=0mil|HoleSize=0mil|Usage=FLASHONLY|Rotation=270.000|XOffset=0mil|YOffset=0mil|HoleType=Round|Shape=Octagon|*
%AMOCTAGOND268*
4,1,8,-0.0217,-0.0685,0.0217,-0.0685,0.0435,-0.0467,0.0435,0.0467,0.0217,0.0685,-0.0217,0.0685,-0.0435,0.0467,-0.0435,-0.0467,-0.0217,-0.0685,0.0*
%
%ADD268OCTAGOND268*%

%ADD269P,0.0714X8X22.5*%
%ADD270C,0.1345*%
%ADD271C,0.0580*%
%ADD272C,0.1040*%
%ADD273P,0.0801X8X292.5*%
%ADD274R,0.1240X0.0640*%
%ADD275C,0.0544*%
%ADD276C,0.0260*%
%ADD277C,0.0420*%
%ADD278R,0.0704X0.0354*%
%ADD279R,0.0354X0.0704*%
G04:AMPARAMS|DCode=280|XSize=54mil|YSize=54mil|CornerRadius=27mil|HoleSize=0mil|Usage=FLASHONLY|Rotation=0.000|XOffset=0mil|YOffset=0mil|HoleType=Round|Shape=RoundedRectangle|*
%AMROUNDEDRECTD280*
21,1,0.0540,0.0000,0,0,0.0*
21,1,0.0000,0.0540,0,0,0.0*
1,1,0.0540,0.0000,0.0000*
1,1,0.0540,0.0000,0.0000*
1,1,0.0540,0.0000,0.0000*
1,1,0.0540,0.0000,0.0000*
%
%ADD280ROUNDEDRECTD280*%
G04:AMPARAMS|DCode=281|XSize=50mil|YSize=67mil|CornerRadius=13.5mil|HoleSize=0mil|Usage=FLASHONLY|Rotation=270.000|XOffset=0mil|YOffset=0mil|HoleType=Round|Shape=RoundedRectangle|*
%AMROUNDEDRECTD281*
21,1,0.0500,0.0400,0,0,270.0*
21,1,0.0230,0.0670,0,0,270.0*
1,1,0.0270,-0.0200,-0.0115*
1,1,0.0270,-0.0200,0.0115*
1,1,0.0270,0.0200,0.0115*
1,1,0.0270,0.0200,-0.0115*
%
%ADD281ROUNDEDRECTD281*%
G04:AMPARAMS|DCode=282|XSize=50mil|YSize=67mil|CornerRadius=13.5mil|HoleSize=0mil|Usage=FLASHONLY|Rotation=180.000|XOffset=0mil|YOffset=0mil|HoleType=Round|Shape=RoundedRectangle|*
%AMROUNDEDRECTD282*
21,1,0.0500,0.0400,0,0,180.0*
21,1,0.0230,0.0670,0,0,180.0*
1,1,0.0270,-0.0115,0.0200*
1,1,0.0270,0.0115,0.0200*
1,1,0.0270,0.0115,-0.0200*
1,1,0.0270,-0.0115,-0.0200*
%
%ADD282ROUNDEDRECTD282*%
G36*
X46289Y83939D02*
X45379D01*
Y85329D01*
X46289D01*
Y83939D01*
D02*
G37*
G36*
Y78639D02*
X45379D01*
Y80029D01*
X46289D01*
Y78639D01*
D02*
G37*
G36*
X43338Y73813D02*
X42428D01*
Y75203D01*
X43338D01*
Y73813D01*
D02*
G37*
G36*
X46239Y73809D02*
X45329D01*
Y75199D01*
X46239D01*
Y73809D01*
D02*
G37*
G36*
X43338Y68513D02*
X42428D01*
Y69903D01*
X43338D01*
Y68513D01*
D02*
G37*
G36*
X46239Y68509D02*
X45329D01*
Y69899D01*
X46239D01*
Y68509D01*
D02*
G37*
G36*
X46289Y55947D02*
X45379D01*
Y57337D01*
X46289D01*
Y55947D01*
D02*
G37*
G36*
Y50647D02*
X45379D01*
Y52037D01*
X46289D01*
Y50647D01*
D02*
G37*
G36*
X43338Y45821D02*
X42428D01*
Y47211D01*
X43338D01*
Y45821D01*
D02*
G37*
G36*
X46239Y45817D02*
X45329D01*
Y47207D01*
X46239D01*
Y45817D01*
D02*
G37*
G36*
X43338Y40521D02*
X42428D01*
Y41911D01*
X43338D01*
Y40521D01*
D02*
G37*
G36*
X46239Y40517D02*
X45329D01*
Y41907D01*
X46239D01*
Y40517D01*
D02*
G37*
G36*
X46289Y27955D02*
X45379D01*
Y29345D01*
X46289D01*
Y27955D01*
D02*
G37*
G36*
Y22655D02*
X45379D01*
Y24045D01*
X46289D01*
Y22655D01*
D02*
G37*
G36*
X43338Y17829D02*
X42428D01*
Y19218D01*
X43338D01*
Y17829D01*
D02*
G37*
G36*
X46239Y17825D02*
X45329D01*
Y19215D01*
X46239D01*
Y17825D01*
D02*
G37*
G36*
X43338Y12529D02*
X42428D01*
Y13918D01*
X43338D01*
Y12529D01*
D02*
G37*
G36*
X46239Y12525D02*
X45329D01*
Y13915D01*
X46239D01*
Y12525D01*
D02*
G37*
G54D12*
X46000Y103200D02*
Y102600D01*
X46300D01*
X46400Y102700D01*
Y102800D01*
X46300Y102900D01*
X46000D01*
X46300D01*
X46400Y103000D01*
Y103100D01*
X46300Y103200D01*
X46000D01*
X46700Y102600D02*
X46900D01*
X47000Y102700D01*
Y102900D01*
X46900Y103000D01*
X46700D01*
X46600Y102900D01*
Y102700D01*
X46700Y102600D01*
X47300Y103100D02*
Y103000D01*
X47200D01*
X47400D01*
X47300D01*
Y102700D01*
X47400Y102600D01*
X47799Y103100D02*
Y103000D01*
X47699D01*
X47899D01*
X47799D01*
Y102700D01*
X47899Y102600D01*
X48299D02*
X48499D01*
X48599Y102700D01*
Y102900D01*
X48499Y103000D01*
X48299D01*
X48199Y102900D01*
Y102700D01*
X48299Y102600D01*
X48799D02*
Y103000D01*
X48899D01*
X48999Y102900D01*
Y102600D01*
Y102900D01*
X49099Y103000D01*
X49199Y102900D01*
Y102600D01*
X50399Y103100D02*
X50299Y103200D01*
X50099D01*
X49999Y103100D01*
Y103000D01*
X50099Y102900D01*
X50299D01*
X50399Y102800D01*
Y102700D01*
X50299Y102600D01*
X50099D01*
X49999Y102700D01*
X50698Y102600D02*
X50898D01*
X50998Y102700D01*
Y102900D01*
X50898Y103000D01*
X50698D01*
X50599Y102900D01*
Y102700D01*
X50698Y102600D01*
X51198D02*
X51398D01*
X51298D01*
Y103200D01*
X51198D01*
X52098D02*
Y102600D01*
X51798D01*
X51698Y102700D01*
Y102900D01*
X51798Y103000D01*
X52098D01*
X52598Y102600D02*
X52398D01*
X52298Y102700D01*
Y102900D01*
X52398Y103000D01*
X52598D01*
X52698Y102900D01*
Y102800D01*
X52298D01*
X52898Y103000D02*
Y102600D01*
Y102800D01*
X52998Y102900D01*
X53098Y103000D01*
X53198D01*
X53498Y102600D02*
Y103000D01*
X53598D01*
X53698Y102900D01*
Y102600D01*
Y102900D01*
X53797Y103000D01*
X53897Y102900D01*
Y102600D01*
X54197Y103000D02*
X54397D01*
X54497Y102900D01*
Y102600D01*
X54197D01*
X54097Y102700D01*
X54197Y102800D01*
X54497D01*
X54697Y102600D02*
X54997D01*
X55097Y102700D01*
X54997Y102800D01*
X54797D01*
X54697Y102900D01*
X54797Y103000D01*
X55097D01*
X55297Y102600D02*
Y103200D01*
Y102800D02*
X55597Y103000D01*
X55297Y102800D02*
X55597Y102600D01*
X46400Y104400D02*
X46000D01*
Y103800D01*
X46400D01*
X46000Y104100D02*
X46200D01*
X46600Y103800D02*
X46800D01*
X46700D01*
Y104200D01*
X46600D01*
X47100Y103800D02*
Y104200D01*
X47400D01*
X47500Y104100D01*
Y103800D01*
X47699D02*
X47999D01*
X48099Y103900D01*
X47999Y104000D01*
X47799D01*
X47699Y104100D01*
X47799Y104200D01*
X48099D01*
X48299D02*
Y103900D01*
X48399Y103800D01*
X48699D01*
Y103700D01*
X48599Y103600D01*
X48499D01*
X48699Y103800D02*
Y104200D01*
X49499Y104300D02*
X49599Y104400D01*
X49799D01*
X49899Y104300D01*
Y103900D01*
X49799Y103800D01*
X49599D01*
X49499Y103900D01*
Y104300D01*
X50099Y103800D02*
Y103900D01*
X50199D01*
Y103800D01*
X50099D01*
X50599Y104300D02*
X50698Y104400D01*
X50898D01*
X50998Y104300D01*
Y104200D01*
X50898Y104100D01*
X50798D01*
X50898D01*
X50998Y104000D01*
Y103900D01*
X50898Y103800D01*
X50698D01*
X50599Y103900D01*
X51298Y104200D02*
X51498D01*
X51598Y104100D01*
Y103800D01*
X51298D01*
X51198Y103900D01*
X51298Y104000D01*
X51598D01*
G54D116*
X43630Y30096D02*
D03*
X44030D02*
D03*
Y30496D02*
D03*
X43630D02*
D03*
Y30896D02*
D03*
X44030D02*
D03*
Y31296D02*
D03*
X43630D02*
D03*
X42830D02*
D03*
X42430D02*
D03*
Y30896D02*
D03*
X42830D02*
D03*
Y30496D02*
D03*
X42430D02*
D03*
Y30096D02*
D03*
X42830D02*
D03*
X43230D02*
D03*
Y30496D02*
D03*
Y31296D02*
D03*
Y30896D02*
D03*
X39177Y16885D02*
D03*
X38777D02*
D03*
X39577D02*
D03*
X39977D02*
D03*
Y16485D02*
D03*
Y16085D02*
D03*
X39577D02*
D03*
Y16485D02*
D03*
X39177D02*
D03*
Y16085D02*
D03*
X38777D02*
D03*
Y16485D02*
D03*
Y17285D02*
D03*
Y17685D02*
D03*
X39177D02*
D03*
Y17285D02*
D03*
X39577D02*
D03*
Y17685D02*
D03*
X39977D02*
D03*
Y17285D02*
D03*
X19769Y29069D02*
D03*
Y29443D02*
D03*
X19392Y29446D02*
D03*
X19396Y29069D02*
D03*
X19394Y28685D02*
D03*
X19769Y28694D02*
D03*
X20143D02*
D03*
Y29069D02*
D03*
Y29443D02*
D03*
X14012Y19019D02*
D03*
X14878Y17719D02*
D03*
X14445D02*
D03*
X14012D02*
D03*
X14878Y18153D02*
D03*
X14445D02*
D03*
X14012D02*
D03*
X14878Y18586D02*
D03*
X14445D02*
D03*
X14012D02*
D03*
X14878Y19019D02*
D03*
X14445D02*
D03*
X18918Y18659D02*
D03*
X19352D02*
D03*
X18485Y18226D02*
D03*
X18918D02*
D03*
X19352D02*
D03*
X18485Y17793D02*
D03*
X18918D02*
D03*
X19352D02*
D03*
X18485Y17359D02*
D03*
X18918D02*
D03*
X19352D02*
D03*
X18485Y18659D02*
D03*
X22985D02*
D03*
X23852Y17359D02*
D03*
X23419D02*
D03*
X22985D02*
D03*
X23852Y17793D02*
D03*
X23419D02*
D03*
X22985D02*
D03*
X23852Y18226D02*
D03*
X23419D02*
D03*
X22985D02*
D03*
X23852Y18659D02*
D03*
X23419D02*
D03*
X33059D02*
D03*
X33492D02*
D03*
X32625Y18226D02*
D03*
X33059D02*
D03*
X33492D02*
D03*
X32625Y17793D02*
D03*
X33059D02*
D03*
X33492D02*
D03*
X32625Y17359D02*
D03*
X33059D02*
D03*
X33492D02*
D03*
X32625Y18659D02*
D03*
X43630Y58088D02*
D03*
X44030D02*
D03*
Y58488D02*
D03*
X43630D02*
D03*
Y58888D02*
D03*
X44030D02*
D03*
Y59288D02*
D03*
X43630D02*
D03*
X42830D02*
D03*
X42430D02*
D03*
Y58888D02*
D03*
X42830D02*
D03*
Y58488D02*
D03*
X42430D02*
D03*
Y58088D02*
D03*
X42830D02*
D03*
X43230D02*
D03*
Y58488D02*
D03*
Y59288D02*
D03*
Y58888D02*
D03*
X39177Y44877D02*
D03*
X38777D02*
D03*
X39577D02*
D03*
X39977D02*
D03*
Y44477D02*
D03*
Y44077D02*
D03*
X39577D02*
D03*
Y44477D02*
D03*
X39177D02*
D03*
Y44077D02*
D03*
X38777D02*
D03*
Y44477D02*
D03*
Y45277D02*
D03*
Y45677D02*
D03*
X39177D02*
D03*
Y45277D02*
D03*
X39577D02*
D03*
Y45677D02*
D03*
X39977D02*
D03*
Y45277D02*
D03*
X19769Y57061D02*
D03*
Y57435D02*
D03*
X19392Y57438D02*
D03*
X19396Y57061D02*
D03*
X19394Y56677D02*
D03*
X19769Y56687D02*
D03*
X20143D02*
D03*
Y57061D02*
D03*
Y57435D02*
D03*
X14012Y47011D02*
D03*
X14878Y45712D02*
D03*
X14445D02*
D03*
X14012D02*
D03*
X14878Y46145D02*
D03*
X14445D02*
D03*
X14012D02*
D03*
X14878Y46578D02*
D03*
X14445D02*
D03*
X14012D02*
D03*
X14878Y47011D02*
D03*
X14445D02*
D03*
X18918Y46651D02*
D03*
X19352D02*
D03*
X18485Y46218D02*
D03*
X18918D02*
D03*
X19352D02*
D03*
X18485Y45785D02*
D03*
X18918D02*
D03*
X19352D02*
D03*
X18485Y45352D02*
D03*
X18918D02*
D03*
X19352D02*
D03*
X18485Y46651D02*
D03*
X22985D02*
D03*
X23852Y45352D02*
D03*
X23419D02*
D03*
X22985D02*
D03*
X23852Y45785D02*
D03*
X23419D02*
D03*
X22985D02*
D03*
X23852Y46218D02*
D03*
X23419D02*
D03*
X22985D02*
D03*
X23852Y46651D02*
D03*
X23419D02*
D03*
X33059D02*
D03*
X33492D02*
D03*
X32625Y46218D02*
D03*
X33059D02*
D03*
X33492D02*
D03*
X32625Y45785D02*
D03*
X33059D02*
D03*
X33492D02*
D03*
X32625Y45352D02*
D03*
X33059D02*
D03*
X33492D02*
D03*
X32625Y46651D02*
D03*
X43630Y86080D02*
D03*
X44030D02*
D03*
Y86480D02*
D03*
X43630D02*
D03*
Y86880D02*
D03*
X44030D02*
D03*
Y87280D02*
D03*
X43630D02*
D03*
X42830D02*
D03*
X42430D02*
D03*
Y86880D02*
D03*
X42830D02*
D03*
Y86480D02*
D03*
X42430D02*
D03*
Y86080D02*
D03*
X42830D02*
D03*
X43230D02*
D03*
Y86480D02*
D03*
Y87280D02*
D03*
Y86880D02*
D03*
X39177Y72870D02*
D03*
X38777D02*
D03*
X39577D02*
D03*
X39977D02*
D03*
Y72470D02*
D03*
Y72070D02*
D03*
X39577D02*
D03*
Y72470D02*
D03*
X39177D02*
D03*
Y72070D02*
D03*
X38777D02*
D03*
Y72470D02*
D03*
Y73270D02*
D03*
Y73670D02*
D03*
X39177D02*
D03*
Y73270D02*
D03*
X39577D02*
D03*
Y73670D02*
D03*
X39977D02*
D03*
Y73270D02*
D03*
X19769Y85053D02*
D03*
Y85427D02*
D03*
X19392Y85430D02*
D03*
X19396Y85053D02*
D03*
X19394Y84669D02*
D03*
X19769Y84679D02*
D03*
X20143D02*
D03*
Y85053D02*
D03*
Y85427D02*
D03*
X14012Y75003D02*
D03*
X14878Y73704D02*
D03*
X14445D02*
D03*
X14012D02*
D03*
X14878Y74137D02*
D03*
X14445D02*
D03*
X14012D02*
D03*
X14878Y74570D02*
D03*
X14445D02*
D03*
X14012D02*
D03*
X14878Y75003D02*
D03*
X14445D02*
D03*
X18918Y74643D02*
D03*
X19352D02*
D03*
X18485Y74210D02*
D03*
X18918D02*
D03*
X19352D02*
D03*
X18485Y73777D02*
D03*
X18918D02*
D03*
X19352D02*
D03*
X18485Y73344D02*
D03*
X18918D02*
D03*
X19352D02*
D03*
X18485Y74643D02*
D03*
X22985D02*
D03*
X23852Y73344D02*
D03*
X23419D02*
D03*
X22985D02*
D03*
X23852Y73777D02*
D03*
X23419D02*
D03*
X22985D02*
D03*
X23852Y74210D02*
D03*
X23419D02*
D03*
X22985D02*
D03*
X23852Y74643D02*
D03*
X23419D02*
D03*
X33059D02*
D03*
X33492D02*
D03*
X32625Y74210D02*
D03*
X33059D02*
D03*
X33492D02*
D03*
X32625Y73777D02*
D03*
X33059D02*
D03*
X33492D02*
D03*
X32625Y73344D02*
D03*
X33059D02*
D03*
X33492D02*
D03*
X32625Y74643D02*
D03*
G54D123*
X52175Y16024D02*
D03*
Y44016D02*
D03*
Y72008D02*
D03*
G54D209*
X51800Y96998D02*
D03*
Y10600D02*
D03*
X13061Y10561D02*
D03*
G54D255*
X41968Y23969D02*
D03*
X40968Y26969D02*
D03*
X39969Y28969D02*
D03*
X30968Y14969D02*
D03*
X32968D02*
D03*
X31969D02*
D03*
X33969D02*
D03*
X26969D02*
D03*
X28969D02*
D03*
X27968D02*
D03*
X29969D02*
D03*
X18968D02*
D03*
X22968D02*
D03*
X21969D02*
D03*
X23969D02*
D03*
X12968Y15969D02*
D03*
X39938Y13649D02*
D03*
X33969Y23969D02*
D03*
X35968Y33969D02*
D03*
X16968Y14969D02*
D03*
X15969D02*
D03*
X17968D02*
D03*
X26969Y19969D02*
D03*
X28969Y18968D02*
D03*
X30968Y19969D02*
D03*
X23969Y30968D02*
D03*
X16968Y27968D02*
D03*
X15969Y28969D02*
D03*
X25968Y31969D02*
D03*
X19969Y35968D02*
D03*
X41968Y51961D02*
D03*
X40968Y54961D02*
D03*
X39969Y56961D02*
D03*
X30968Y42961D02*
D03*
X32968D02*
D03*
X31969D02*
D03*
X33969D02*
D03*
X26969D02*
D03*
X28969D02*
D03*
X27968D02*
D03*
X29969D02*
D03*
X18968D02*
D03*
X22968D02*
D03*
X21969D02*
D03*
X23969D02*
D03*
X12968Y43961D02*
D03*
X39938Y41641D02*
D03*
X33969Y51961D02*
D03*
X35968Y61961D02*
D03*
X16968Y42961D02*
D03*
X15969D02*
D03*
X17968D02*
D03*
X26969Y47961D02*
D03*
X28969Y46961D02*
D03*
X30968Y47961D02*
D03*
X23969Y58961D02*
D03*
X16968Y55961D02*
D03*
X15969Y56961D02*
D03*
X25968Y59961D02*
D03*
X19969Y63961D02*
D03*
X41968Y79953D02*
D03*
X40968Y82953D02*
D03*
X39969Y84953D02*
D03*
X30968Y70953D02*
D03*
X32968D02*
D03*
X31969D02*
D03*
X33969D02*
D03*
X26969D02*
D03*
X28969D02*
D03*
X27968D02*
D03*
X29969D02*
D03*
X18968D02*
D03*
X22968D02*
D03*
X21969D02*
D03*
X23969D02*
D03*
X12968Y71953D02*
D03*
X39938Y69633D02*
D03*
X33969Y79953D02*
D03*
X35968Y89953D02*
D03*
X16968Y70953D02*
D03*
X15969D02*
D03*
X17968D02*
D03*
X26969Y75953D02*
D03*
X28969Y74953D02*
D03*
X30968Y75953D02*
D03*
X23969Y86953D02*
D03*
X16968Y83953D02*
D03*
X15969Y84953D02*
D03*
X25968Y87953D02*
D03*
X19969Y91953D02*
D03*
G54D260*
X37135Y37726D02*
D03*
Y65718D02*
D03*
Y93710D02*
D03*
G54D261*
X38135Y37726D02*
D03*
X37135Y36726D02*
D03*
X38135D02*
D03*
X37135Y35726D02*
D03*
X38135D02*
D03*
X37135Y34726D02*
D03*
X38135D02*
D03*
X37135Y33726D02*
D03*
X38135D02*
D03*
X33709Y34659D02*
D03*
Y33658D02*
D03*
X32708Y34659D02*
D03*
Y33658D02*
D03*
X31709Y34659D02*
D03*
Y33658D02*
D03*
X30708Y34659D02*
D03*
Y33658D02*
D03*
X29708Y34659D02*
D03*
X33709Y38409D02*
D03*
Y37408D02*
D03*
X32708Y38409D02*
D03*
Y37408D02*
D03*
X31709Y38409D02*
D03*
Y37408D02*
D03*
X30708Y38409D02*
D03*
Y37408D02*
D03*
X29708Y38409D02*
D03*
X38135Y65718D02*
D03*
X37135Y64718D02*
D03*
X38135D02*
D03*
X37135Y63718D02*
D03*
X38135D02*
D03*
X37135Y62718D02*
D03*
X38135D02*
D03*
X37135Y61718D02*
D03*
X38135D02*
D03*
X33709Y62651D02*
D03*
Y61651D02*
D03*
X32708Y62651D02*
D03*
Y61651D02*
D03*
X31709Y62651D02*
D03*
Y61651D02*
D03*
X30708Y62651D02*
D03*
Y61651D02*
D03*
X29708Y62651D02*
D03*
X33709Y66401D02*
D03*
Y65401D02*
D03*
X32708Y66401D02*
D03*
Y65401D02*
D03*
X31709Y66401D02*
D03*
Y65401D02*
D03*
X30708Y66401D02*
D03*
Y65401D02*
D03*
X29708Y66401D02*
D03*
X38135Y93710D02*
D03*
X37135Y92710D02*
D03*
X38135D02*
D03*
X37135Y91710D02*
D03*
X38135D02*
D03*
X37135Y90710D02*
D03*
X38135D02*
D03*
X37135Y89710D02*
D03*
X38135D02*
D03*
X33709Y90643D02*
D03*
Y89643D02*
D03*
X32708Y90643D02*
D03*
Y89643D02*
D03*
X31709Y90643D02*
D03*
Y89643D02*
D03*
X30708Y90643D02*
D03*
Y89643D02*
D03*
X29708Y90643D02*
D03*
X33709Y94393D02*
D03*
Y93393D02*
D03*
X32708Y94393D02*
D03*
Y93393D02*
D03*
X31709Y94393D02*
D03*
Y93393D02*
D03*
X30708Y94393D02*
D03*
Y93393D02*
D03*
X29708Y94393D02*
D03*
G54D262*
X16610Y13386D02*
D03*
X17610D02*
D03*
X18610D02*
D03*
X23728D02*
D03*
X22728D02*
D03*
X21728D02*
D03*
X26846Y16142D02*
D03*
X27846D02*
D03*
X28846D02*
D03*
Y13386D02*
D03*
X27846D02*
D03*
X26846D02*
D03*
X31969Y13390D02*
D03*
X32968D02*
D03*
X33969D02*
D03*
X25131Y37795D02*
D03*
X24131D02*
D03*
X23131D02*
D03*
X19951Y37791D02*
D03*
X16741D02*
D03*
X17741Y35381D02*
D03*
X16610Y41378D02*
D03*
X17610D02*
D03*
X18610D02*
D03*
X23728D02*
D03*
X22728D02*
D03*
X21728D02*
D03*
X26846Y44134D02*
D03*
X27846D02*
D03*
X28846D02*
D03*
Y41378D02*
D03*
X27846D02*
D03*
X26846D02*
D03*
X31969Y41382D02*
D03*
X32968D02*
D03*
X33969D02*
D03*
X25131Y65787D02*
D03*
X24131D02*
D03*
X23131D02*
D03*
X19951Y65783D02*
D03*
X16741D02*
D03*
X17741Y63373D02*
D03*
X16610Y69370D02*
D03*
X17610D02*
D03*
X18610D02*
D03*
X23728D02*
D03*
X22728D02*
D03*
X21728D02*
D03*
X26846Y72126D02*
D03*
X27846D02*
D03*
X28846D02*
D03*
Y69370D02*
D03*
X27846D02*
D03*
X26846D02*
D03*
X31969Y69374D02*
D03*
X32968D02*
D03*
X33969D02*
D03*
X25131Y93780D02*
D03*
X24131D02*
D03*
X23131D02*
D03*
X19951Y93775D02*
D03*
X16741D02*
D03*
X17741Y91365D02*
D03*
G54D263*
X19610Y13386D02*
D03*
X24728D02*
D03*
X29846Y16142D02*
D03*
Y13386D02*
D03*
X34969Y13390D02*
D03*
X26131Y37795D02*
D03*
X20951Y37791D02*
D03*
X17741D02*
D03*
X16741Y35381D02*
D03*
X19610Y41378D02*
D03*
X24728D02*
D03*
X29846Y44134D02*
D03*
Y41378D02*
D03*
X34969Y41382D02*
D03*
X26131Y65787D02*
D03*
X20951Y65783D02*
D03*
X17741D02*
D03*
X16741Y63373D02*
D03*
X19610Y69370D02*
D03*
X24728D02*
D03*
X29846Y72126D02*
D03*
Y69370D02*
D03*
X34969Y69374D02*
D03*
X26131Y93780D02*
D03*
X20951Y93775D02*
D03*
X17741D02*
D03*
X16741Y91365D02*
D03*
G54D264*
X29708Y33658D02*
D03*
Y37408D02*
D03*
Y61651D02*
D03*
Y65401D02*
D03*
Y89643D02*
D03*
Y93393D02*
D03*
G54D265*
X48338Y33914D02*
D03*
Y30663D02*
D03*
Y27413D02*
D03*
Y24163D02*
D03*
Y20914D02*
D03*
Y17664D02*
D03*
Y61906D02*
D03*
Y58656D02*
D03*
Y55406D02*
D03*
Y52156D02*
D03*
Y48906D02*
D03*
Y45656D02*
D03*
Y89898D02*
D03*
Y86648D02*
D03*
Y83398D02*
D03*
Y80148D02*
D03*
Y76898D02*
D03*
Y73648D02*
D03*
G54D266*
X37898Y26038D02*
D03*
Y25038D02*
D03*
Y24039D02*
D03*
X37908Y30178D02*
D03*
Y29179D02*
D03*
Y28179D02*
D03*
X35472Y29185D02*
D03*
Y30185D02*
D03*
Y22965D02*
D03*
Y23965D02*
D03*
X48119Y37229D02*
D03*
X35472Y26075D02*
D03*
Y27075D02*
D03*
X37898Y54031D02*
D03*
Y53031D02*
D03*
Y52031D02*
D03*
X37908Y58171D02*
D03*
Y57171D02*
D03*
Y56171D02*
D03*
X35472Y57177D02*
D03*
Y58177D02*
D03*
Y50957D02*
D03*
Y51957D02*
D03*
X48119Y65221D02*
D03*
X35472Y54067D02*
D03*
Y55067D02*
D03*
X37898Y82023D02*
D03*
Y81023D02*
D03*
Y80023D02*
D03*
X37908Y86163D02*
D03*
Y85163D02*
D03*
Y84163D02*
D03*
X35472Y85169D02*
D03*
Y86169D02*
D03*
Y78949D02*
D03*
Y79949D02*
D03*
X48119Y93213D02*
D03*
X35472Y82059D02*
D03*
Y83059D02*
D03*
G54D267*
X40079Y21398D02*
D03*
X38078D02*
D03*
X40079Y49391D02*
D03*
X38078D02*
D03*
X40079Y77383D02*
D03*
X38078D02*
D03*
G54D268*
X46459Y13218D02*
D03*
X45118D02*
D03*
Y18519D02*
D03*
X46459D02*
D03*
X43558Y18522D02*
D03*
X42218D02*
D03*
Y13222D02*
D03*
X43558D02*
D03*
X45168Y28649D02*
D03*
X46508D02*
D03*
Y23349D02*
D03*
X45168D02*
D03*
X46459Y41211D02*
D03*
X45118D02*
D03*
Y46511D02*
D03*
X46459D02*
D03*
X43558Y46515D02*
D03*
X42218D02*
D03*
Y41215D02*
D03*
X43558D02*
D03*
X45168Y56641D02*
D03*
X46508D02*
D03*
Y51341D02*
D03*
X45168D02*
D03*
X46459Y69203D02*
D03*
X45118D02*
D03*
Y74503D02*
D03*
X46459D02*
D03*
X43558Y74507D02*
D03*
X42218D02*
D03*
Y69207D02*
D03*
X43558D02*
D03*
X45168Y84633D02*
D03*
X46508D02*
D03*
Y79333D02*
D03*
X45168D02*
D03*
G54D269*
X19294Y32614D02*
D03*
Y31614D02*
D03*
X18294Y32614D02*
D03*
Y31614D02*
D03*
X17294Y32614D02*
D03*
Y31614D02*
D03*
X19294Y60606D02*
D03*
Y59606D02*
D03*
X18294Y60606D02*
D03*
Y59606D02*
D03*
X17294Y60606D02*
D03*
Y59606D02*
D03*
X19294Y88598D02*
D03*
Y87598D02*
D03*
X18294Y88598D02*
D03*
Y87598D02*
D03*
X17294Y88598D02*
D03*
Y87598D02*
D03*
G54D270*
X14567Y24795D02*
D03*
Y29528D02*
D03*
Y52787D02*
D03*
Y57520D02*
D03*
Y80780D02*
D03*
Y85512D02*
D03*
G54D271*
X15637Y26665D02*
D03*
Y27657D02*
D03*
X16427D02*
D03*
Y26665D02*
D03*
X15637Y54657D02*
D03*
Y55650D02*
D03*
X16427D02*
D03*
Y54657D02*
D03*
X15637Y82650D02*
D03*
Y83642D02*
D03*
X16427D02*
D03*
Y82650D02*
D03*
G54D272*
X13876Y32478D02*
D03*
Y35238D02*
D03*
Y60470D02*
D03*
Y63230D02*
D03*
Y88463D02*
D03*
Y91223D02*
D03*
G54D273*
X12896Y32968D02*
D03*
Y34748D02*
D03*
Y60960D02*
D03*
Y62740D02*
D03*
Y88953D02*
D03*
Y90733D02*
D03*
G54D274*
X48119Y38228D02*
D03*
Y66221D02*
D03*
Y94213D02*
D03*
G54D275*
X20661Y34291D02*
D03*
Y35291D02*
D03*
X21661Y34291D02*
D03*
Y35291D02*
D03*
X22661Y34291D02*
D03*
Y35291D02*
D03*
X23661Y34291D02*
D03*
Y35291D02*
D03*
X24661Y34291D02*
D03*
Y35291D02*
D03*
X25661Y34291D02*
D03*
Y35291D02*
D03*
X26661Y34291D02*
D03*
Y35291D02*
D03*
X20661Y62283D02*
D03*
Y63283D02*
D03*
X21661Y62283D02*
D03*
Y63283D02*
D03*
X22661Y62283D02*
D03*
Y63283D02*
D03*
X23661Y62283D02*
D03*
Y63283D02*
D03*
X24661Y62283D02*
D03*
Y63283D02*
D03*
X25661Y62283D02*
D03*
Y63283D02*
D03*
X26661Y62283D02*
D03*
Y63283D02*
D03*
X20661Y90275D02*
D03*
Y91275D02*
D03*
X21661Y90275D02*
D03*
Y91275D02*
D03*
X22661Y90275D02*
D03*
Y91275D02*
D03*
X23661Y90275D02*
D03*
Y91275D02*
D03*
X24661Y90275D02*
D03*
Y91275D02*
D03*
X25661Y90275D02*
D03*
Y91275D02*
D03*
X26661Y90275D02*
D03*
Y91275D02*
D03*
G54D276*
X44422Y35341D02*
D03*
X44815D02*
D03*
X45209D02*
D03*
Y35734D02*
D03*
Y36128D02*
D03*
X44815D02*
D03*
X44422D02*
D03*
Y35734D02*
D03*
X44815D02*
D03*
X44422Y63333D02*
D03*
X44815D02*
D03*
X45209D02*
D03*
Y63726D02*
D03*
Y64120D02*
D03*
X44815D02*
D03*
X44422D02*
D03*
Y63726D02*
D03*
X44815D02*
D03*
X44422Y91325D02*
D03*
X44815D02*
D03*
X45209D02*
D03*
Y91719D02*
D03*
Y92112D02*
D03*
X44815D02*
D03*
X44422D02*
D03*
Y91719D02*
D03*
X44815D02*
D03*
G54D277*
X39185Y37737D02*
X39162Y37829D01*
X39098Y37901D01*
X39009Y37935D01*
X38914Y37924D01*
X38835Y37869D01*
X38791Y37784D01*
Y37689D01*
X38835Y37604D01*
X38914Y37550D01*
X39009Y37538D01*
X39098Y37572D01*
X39162Y37644D01*
X39185Y37737D01*
Y36735D02*
X39162Y36827D01*
X39098Y36899D01*
X39009Y36933D01*
X38914Y36922D01*
X38835Y36867D01*
X38791Y36782D01*
Y36687D01*
X38835Y36602D01*
X38914Y36548D01*
X39009Y36536D01*
X39098Y36570D01*
X39162Y36642D01*
X39185Y36735D01*
Y35733D02*
X39162Y35825D01*
X39098Y35897D01*
X39009Y35931D01*
X38914Y35920D01*
X38835Y35865D01*
X38791Y35780D01*
Y35685D01*
X38835Y35600D01*
X38914Y35546D01*
X39009Y35534D01*
X39098Y35568D01*
X39162Y35640D01*
X39185Y35733D01*
X39188Y34731D02*
X39166Y34823D01*
X39102Y34895D01*
X39013Y34929D01*
X38918Y34918D01*
X38839Y34863D01*
X38794Y34778D01*
Y34683D01*
X38839Y34598D01*
X38918Y34544D01*
X39013Y34532D01*
X39102Y34566D01*
X39166Y34638D01*
X39188Y34731D01*
Y33728D02*
X39166Y33821D01*
X39102Y33893D01*
X39013Y33927D01*
X38918Y33916D01*
X38839Y33861D01*
X38794Y33776D01*
Y33681D01*
X38839Y33596D01*
X38918Y33542D01*
X39013Y33530D01*
X39102Y33564D01*
X39166Y33636D01*
X39188Y33728D01*
X39185Y65729D02*
X39162Y65822D01*
X39098Y65893D01*
X39009Y65927D01*
X38914Y65916D01*
X38835Y65861D01*
X38791Y65777D01*
Y65681D01*
X38835Y65596D01*
X38914Y65542D01*
X39009Y65530D01*
X39098Y65564D01*
X39162Y65636D01*
X39185Y65729D01*
Y64727D02*
X39162Y64820D01*
X39098Y64891D01*
X39009Y64925D01*
X38914Y64914D01*
X38835Y64859D01*
X38791Y64775D01*
Y64679D01*
X38835Y64594D01*
X38914Y64540D01*
X39009Y64528D01*
X39098Y64562D01*
X39162Y64634D01*
X39185Y64727D01*
Y63725D02*
X39162Y63818D01*
X39098Y63889D01*
X39009Y63923D01*
X38914Y63912D01*
X38835Y63857D01*
X38791Y63773D01*
Y63677D01*
X38835Y63592D01*
X38914Y63538D01*
X39009Y63526D01*
X39098Y63560D01*
X39162Y63632D01*
X39185Y63725D01*
X39188Y62723D02*
X39166Y62816D01*
X39102Y62887D01*
X39013Y62921D01*
X38918Y62910D01*
X38839Y62855D01*
X38794Y62771D01*
Y62675D01*
X38839Y62590D01*
X38918Y62536D01*
X39013Y62524D01*
X39102Y62558D01*
X39166Y62630D01*
X39188Y62723D01*
Y61721D02*
X39166Y61814D01*
X39102Y61885D01*
X39013Y61919D01*
X38918Y61908D01*
X38839Y61853D01*
X38794Y61768D01*
Y61673D01*
X38839Y61588D01*
X38918Y61534D01*
X39013Y61522D01*
X39102Y61556D01*
X39166Y61628D01*
X39188Y61721D01*
X39185Y93721D02*
X39162Y93814D01*
X39098Y93885D01*
X39009Y93919D01*
X38914Y93908D01*
X38835Y93853D01*
X38791Y93769D01*
Y93673D01*
X38835Y93588D01*
X38914Y93534D01*
X39009Y93522D01*
X39098Y93556D01*
X39162Y93628D01*
X39185Y93721D01*
Y92719D02*
X39162Y92812D01*
X39098Y92883D01*
X39009Y92917D01*
X38914Y92906D01*
X38835Y92851D01*
X38791Y92767D01*
Y92671D01*
X38835Y92586D01*
X38914Y92532D01*
X39009Y92520D01*
X39098Y92554D01*
X39162Y92626D01*
X39185Y92719D01*
Y91717D02*
X39162Y91810D01*
X39098Y91881D01*
X39009Y91915D01*
X38914Y91904D01*
X38835Y91849D01*
X38791Y91765D01*
Y91669D01*
X38835Y91584D01*
X38914Y91530D01*
X39009Y91518D01*
X39098Y91552D01*
X39162Y91624D01*
X39185Y91717D01*
X39188Y90715D02*
X39166Y90808D01*
X39102Y90879D01*
X39013Y90913D01*
X38918Y90902D01*
X38839Y90847D01*
X38794Y90763D01*
Y90667D01*
X38839Y90582D01*
X38918Y90528D01*
X39013Y90516D01*
X39102Y90550D01*
X39166Y90622D01*
X39188Y90715D01*
Y89713D02*
X39166Y89806D01*
X39102Y89877D01*
X39013Y89911D01*
X38918Y89900D01*
X38839Y89845D01*
X38794Y89761D01*
Y89665D01*
X38839Y89580D01*
X38918Y89526D01*
X39013Y89514D01*
X39102Y89548D01*
X39166Y89620D01*
X39188Y89713D01*
G54D278*
X20593Y30472D02*
D03*
Y58465D02*
D03*
Y86457D02*
D03*
G54D279*
X51888Y20916D02*
D03*
Y48908D02*
D03*
Y76901D02*
D03*
G54D280*
X46968Y15969D02*
D03*
X44969D02*
D03*
X42969D02*
D03*
X26969Y38969D02*
D03*
X14969Y26969D02*
D03*
X15969Y25968D02*
D03*
X18968Y30968D02*
D03*
X15969Y31969D02*
D03*
X17968Y30968D02*
D03*
X18968Y29969D02*
D03*
X21978Y36969D02*
D03*
X18968Y35968D02*
D03*
X24969Y30968D02*
D03*
X29969Y32968D02*
D03*
X22968Y30968D02*
D03*
X33969Y28969D02*
D03*
Y25968D02*
D03*
X41968Y24969D02*
D03*
X49969Y28969D02*
D03*
X37968Y19969D02*
D03*
X49969Y30968D02*
D03*
X19969Y24969D02*
D03*
Y26969D02*
D03*
Y27968D02*
D03*
X22968Y25968D02*
D03*
X23969Y24969D02*
D03*
X22968D02*
D03*
X46968Y43961D02*
D03*
X44969D02*
D03*
X42969D02*
D03*
X26969Y66961D02*
D03*
X14969Y54961D02*
D03*
X15969Y53961D02*
D03*
X18968Y58961D02*
D03*
X15969Y59961D02*
D03*
X17968Y58961D02*
D03*
X18968Y57961D02*
D03*
X21978Y64961D02*
D03*
X18968Y63961D02*
D03*
X24969Y58961D02*
D03*
X29969Y60961D02*
D03*
X22968Y58961D02*
D03*
X33969Y56961D02*
D03*
Y53961D02*
D03*
X41968Y52961D02*
D03*
X49969Y56961D02*
D03*
X37968Y47961D02*
D03*
X49969Y58961D02*
D03*
X19969Y52961D02*
D03*
Y54961D02*
D03*
Y55961D02*
D03*
X22968Y53961D02*
D03*
X23969Y52961D02*
D03*
X22968D02*
D03*
X46968Y71953D02*
D03*
X44969D02*
D03*
X42969D02*
D03*
X26969Y94953D02*
D03*
X14969Y82953D02*
D03*
X15969Y81953D02*
D03*
X18968Y86953D02*
D03*
X15969Y87953D02*
D03*
X17968Y86953D02*
D03*
X18968Y85953D02*
D03*
X21978Y92953D02*
D03*
X18968Y91953D02*
D03*
X24969Y86953D02*
D03*
X29969Y88953D02*
D03*
X22968Y86953D02*
D03*
X33969Y84953D02*
D03*
Y81953D02*
D03*
X41968Y80953D02*
D03*
X49969Y84953D02*
D03*
X37968Y75953D02*
D03*
X49969Y86953D02*
D03*
X19969Y80953D02*
D03*
Y82953D02*
D03*
Y83953D02*
D03*
X22968Y81953D02*
D03*
X23969Y80953D02*
D03*
X22968D02*
D03*
G54D281*
X20600Y30163D02*
D03*
Y30763D02*
D03*
Y58155D02*
D03*
Y58755D02*
D03*
Y86147D02*
D03*
Y86747D02*
D03*
G54D282*
X51578Y20909D02*
D03*
X52179D02*
D03*
X51578Y48901D02*
D03*
X52179D02*
D03*
X51578Y76893D02*
D03*
X52179D02*
D03*
M02*
