M48
;Layer_Color=9474304
;FILE_FORMAT=2:4
INCH,TZ
;TYPE=PLATED
T1F00S00C0.0150
T2F00S00C0.0200
T3F00S00C0.0250
T4F00S00C0.0280
T5F00S00C0.0300
T6F00S00C0.0354
T7F00S00C0.0380
T8F00S00C0.0400
T9F00S00C0.0550
T10F00S00C0.0590
T11F00S00C0.0630
T12F00S00C0.0870
;TYPE=NON_PLATED
T13F00S00C0.1181
%
T01
X13080Y13080
X12780Y13780
X13080Y14480
X13780Y14780
X14480Y14480
X14780Y13780
X14480Y13080
X13780Y12780
X15948Y14148
X16338Y14548
X16839Y14519
X17478Y14539
X18719Y14418
X19218Y14448
X20348Y14569
X20698Y14559
X21878Y14439
X22778Y14448
X23438
X31198Y14129
X31539Y14448
X31918Y14439
X32518Y14448
X33379
X33958
X34339
X35856Y13819
X46486Y15285
X47303
X48632Y15039
X49488Y15266
X50481Y14480
X50181Y13780
X50481Y13080
X51181Y12780
X51881Y13080
X52181Y13780
X51881Y14480
X51181Y14780
X49331Y17638
X47717Y16968
X47628Y16457
X47480Y18110
X47859Y19339
X48488
X48579Y21268
X48998Y21409
X49419Y22208
X50591Y22205
X50994
X51467
X51742Y23179
X51181Y23307
X50630
X50118Y22756
X50187Y20945
Y20551
Y20157
Y19764
X50591
Y20157
Y20551
Y20965
X50994Y20984
X51398Y20965
X51801Y20965
Y19764
X51398
X50994
X47779Y21268
X47329Y21469
X47049Y21728
X47392Y24026
X47323Y25138
X47933Y24843
X49291Y24872
X49203Y23976
X48632Y25827
X49468Y26369
X49291Y26890
X49311Y27549
X50305Y28219
X50879
X51453
X52028
X52047Y29646
X51535
X51024
X50512
X48386Y30492
X47785Y29262
X47969Y26878
X50069Y25827
X50935Y25197
X50994Y26565
X52372Y23720
X44498Y25197
X44449Y25896
X44291Y27402
X44528Y27638
X45000
X44764Y27402
X44016Y27638
X43780Y27402
X43346Y27638
Y28031
Y28425
X42992Y28228
Y27835
X42756Y28967
X43728Y28984
Y29384
Y29784
Y30184
X44128
Y29784
Y29384
Y28984
X44528
X44928
X45328
Y29384
X44928
Y29784
X45328
Y30184
X44928
X44528
Y29784
Y29384
X46417Y28346
X41496Y29252
X41467Y30256
X39498Y30758
X39094
X36417Y30906
X36988Y30000
X37028Y28051
X33668Y28719
X32913Y28661
X32756Y29075
Y29567
X33209Y29656
X32992Y30118
X32757Y30983
X34213Y30768
X34370Y30157
X32913Y27756
Y26890
X33307Y27008
X33969Y26369
X33465Y24882
X33619Y23768
X33632Y21486
X33346Y21181
X32369Y21219
X31569Y21119
X31869Y20768
X31569Y20268
Y19719
X32244Y19034
Y18660
X32618
Y18288
X32241Y18283
X33002Y18286
X32992Y18660
Y19034
X32618
X34124Y18957
X33858Y19882
X34055Y20866
X34734Y21211
X35768Y21168
X35468Y20519
X36068Y20468
X35468Y19118
X35236Y18425
Y18179
X35187Y17362
Y17003
Y16644
X34818Y16368
X34449Y16929
X34567Y17480
X36368Y17473
Y17126
Y16779
Y17820
Y18167
X36068Y18469
X33543Y16378
X33189
X32087
X31732
X31469Y21969
X32599Y22339
X32362Y25364
X31969Y25069
X42549Y22805
X42923Y22392
Y22037
Y21683
X43343Y22392
X43763
X44183Y22392
Y22037
Y21683
X43179Y19862
X41909Y20600
X41319Y20965
X40404Y20226
X46024Y18583
X46638Y18168
X46132Y17146
Y16437
X30906Y17520
X30630Y17874
X30354
X29843Y18346
X30246Y19400
X30919Y20268
Y21119
X30751Y21651
X29469Y21969
X28622Y21850
Y21457
X28771Y20483
X29144Y20719
X28583Y20000
X28780Y19488
X28661Y18740
X28583Y18071
X26718Y18528
X26198Y18799
X25945Y18032
X25468Y17148
X25119Y16818
X25048Y16338
X24606Y16339
X24291
X23110Y16378
X22795
X22047Y16339
Y17126
X22008Y17559
X21063
Y17126
Y16339
X20197
X19882
X18819Y16378
X18425
X17618Y16339
Y17126
X17598Y17559
X17283Y18189
X16978
Y18484
X17283Y18494
X16242Y19024
X16142Y19882
X16102Y21260
X16818Y21198
X17399Y21498
X17469Y22018
X17278Y22369
X16457Y21969
X15913
X16644Y23819
X17520Y24547
X17766Y25108
X17687Y27283
X18573Y27500
X18720Y27923
X17923Y28179
X16968Y28398
X16688Y29118
X17776Y30118
X19439Y30728
X20079Y31142
X20143Y29443
X19769
Y29069
X19396
X19392Y29446
X19394Y28685
X19769Y28694
X20143
Y29069
X21093Y29173
X21093Y27728
X20259Y27678
X19938Y27438
X19547Y27431
X20278Y26558
X19990Y26102
X20000Y25709
X20368Y25268
X20010Y24380
Y23996
X19222Y24045
X19489Y22408
X19498Y21609
X19018Y21219
X18319Y21119
X17768
Y20419
X18319
Y19769
X18669Y20719
X19991Y21153
X20512Y21142
X21063
X22269Y21119
X22819
X23419Y21168
X23068Y20719
X22819Y20368
X22269
X22719Y19769
X22333Y19026
X23364Y19103
Y18729
X23738
Y18357
X23360Y18352
X24122Y18355
X24112Y18729
Y19103
X23738
X25118Y19026
X25000Y19882
X25167Y21152
X25551Y21142
X26319Y21119
X26871Y21556
X26870Y20522
X26850Y20000
X26860Y19488
X27608Y19419
Y20512
X27648Y23041
X28337Y23356
X29409Y22933
X30041Y22549
X29252Y24724
X28780Y25039
X28182Y24931
X27657Y25039
X27678Y24539
X26565Y24823
X26132Y25089
X26457Y25502
X26014Y25797
X26565Y26201
X26417Y26801
X26722Y27303
X26388Y27677
X25896Y27776
X26024Y28307
X26457Y28583
X26713Y28091
X26084Y28968
X25921Y29328
X25551Y29331
X25512Y28622
X25768Y27165
X24415Y27677
X24283Y26655
X23740Y26575
X23722Y26182
X23680Y25779
X23368Y25438
X23468Y24778
X23780Y24449
X23763Y24072
X24569Y23849
X23977Y23239
X25138Y23061
X25552Y23042
X25433Y21942
X24889Y21888
X24548Y21139
X23519Y21969
X22719Y21718
X21569Y21869
X21369Y22218
X20368Y21969
X20669Y19882
X20699Y19026
X19726Y19103
Y18729
X19352
Y18357
X18974Y18352
X18978Y18729
Y19103
X19352
X19735Y18355
X21417Y18465
X21693
X16604Y17569
X16535Y17126
Y16339
X15787Y16417
X25708Y15789
X26673Y23356
X24283Y25631
X22800Y26531
X22598Y26880
X22283Y27047
X22220Y28207
X22421Y29045
X22910Y28898
X23583
X23858Y29213
X24232Y29242
X24409Y29646
X25335Y30207
X22726
X21446Y30440
X28220Y29490
X29055Y29449
X29330Y29795
X29331Y26299
X29331Y25787
X30482Y25925
X30217Y26476
X30669Y26604
X15268Y22269
X15472Y21211
X14669Y21168
X14168Y20719
X13569Y20919
X13068
Y20368
X13569
X13819Y19769
X13297Y19024
X12795Y18701
X12677Y18465
X13159Y17559
X13178Y17048
X13976Y16417
X14301
X15453Y16427
X15226Y18355
X15217Y18729
X14843
Y18357
X14465Y18352
X14468Y18729
Y19103
X14843
X15217
X13469Y21718
X12569Y21969
X12746Y23839
X13494Y29911
X13528Y15898
X13780Y36795
X13080Y37095
X12780Y37795
X13080Y38495
X13780Y38795
X14480Y38495
X14780Y37795
X14480Y37095
Y41072
X14780Y41772
X14480Y42472
X13780Y42772
X13080Y42472
X12780Y41772
X13080Y41072
X13780Y40772
X13528Y43891
X13976Y44409
X14301
X15453Y44419
X15226Y46347
X15217Y46721
X14843
Y46349
X14465Y46344
X14468Y46721
X12795Y46693
X12677Y46457
X13159Y45551
X13178Y45041
X15787Y44409
X16535Y44331
Y45118
X16604Y45561
X16978Y46181
Y46476
X17283Y46486
Y46181
X17598Y45551
X17618Y45118
Y44331
X18425Y44370
X18819
X19882Y44331
X20197
X21063
Y45118
Y45551
X22008
X22047Y45118
Y44331
X22795Y44370
X23110
X24291Y44331
X24606
X25048Y44331
X25119Y44811
X25468Y45141
X25945Y46024
X26198Y46791
X26718Y46521
X28661Y46732
X28583Y46063
X29843Y46339
X30354Y45866
X30630
X30906Y45512
X31198Y42121
X25708Y43781
X23438Y42441
X22778
X21878Y42431
X20698Y42551
X20348Y42561
X19218Y42441
X18719Y42411
X17478Y42531
X16839Y42511
X16338Y42541
X15948Y42141
X18974Y46344
X18978Y46721
X19352
Y46349
X19735Y46347
X19726Y46721
X21417Y46457
X21693
X23360Y46344
X23364Y46721
X23738
Y46349
X24122Y46347
X24112Y46721
X24970Y33031
X26752Y33593
X27157Y33565
X30069Y33406
X29086Y31685
X29094Y31299
X22248Y33249
X20748Y32333
X20344Y31417
X20472Y34409
X19268Y35719
X16850Y32559
X16437Y32569
X16349Y31339
X34577Y32628
Y33091
X34154Y35768
X33858Y35474
X34852Y36772
X38398Y36089
Y34629
X38068Y33768
X39173Y32874
X39537Y32205
X40079
Y31506
X39094Y31280
X39154Y31841
X41467Y31378
X42126Y32047
X42339Y33349
X44223
X44188Y34548
X44309Y35341
X43915
X43522
Y35734
Y36128
X43915
X44309
Y35734
X43915
X44639Y36449
X45718Y37069
X45854Y37585
X46519Y37678
X46149Y38898
X45349Y38249
X44764Y38261
X44264Y38898
X42379
X40493
X38609
X38398Y37548
X42789Y36618
X46519Y36084
Y34488
X46108Y33349
X45258Y34009
X45256Y32047
X43691
X46821
X40454Y33349
X35906Y31299
X35856Y41811
X34339Y42441
X33958
X33379
X32518
X31918Y42431
X31539Y42441
X31732Y44370
X32087
X33189
X33543
X34818Y44361
X35187Y44636
Y44995
Y45354
X34567Y45472
X34449Y44921
X35236Y46171
Y46417
X36068Y46461
X36368Y46159
Y45812
Y45465
Y45118
Y44771
X33002Y46278
X32992Y46652
X32618
Y46280
X32241Y46275
X32244Y46652
X46024Y46575
X46638Y46161
X46132Y45138
Y44429
X46486Y43278
X47303
X47628Y44449
X47717Y44961
X47480Y46102
X49331Y45630
X49488Y43258
X48632Y43032
X50481Y42472
X50181Y41772
X50481Y41072
X51181Y40772
X51881Y41072
X52181Y41772
X51881Y42472
X51181Y42772
Y38795
X51881Y38495
X52181Y37795
X51881Y37095
X51181Y36795
X50481Y37095
X50181Y37795
X50481Y38495
X48910Y35774
X48510
X48110
Y35374
Y34974
Y34574
X47710
X47310
Y34974
X47710
Y35374
X47310
Y35774
X47710
X48510Y35374
X48910
Y34974
X48510
Y34574
X48910
X48346Y33307
X47874
X47362
X46890Y33386
Y33701
Y34016
X46968Y32874
X48386Y32047
X48488Y47331
X47859
X47779Y49261
X47329Y49461
X47049Y49721
X48579Y49261
X48998Y49401
X49419Y50201
X50591Y50197
X50994
X51467
X51742Y51171
X51181Y51299
X50630
X50118Y50748
X50187Y48937
Y48543
Y48150
Y47756
X50591
Y48150
Y48543
Y48957
X50994Y48976
X51398Y48957
X51801Y48957
Y47756
X51398
X50994
X52372Y51713
X50935Y53189
X50994Y54557
X50069Y53819
X49468Y54361
X49291Y54882
X49311Y55541
X50305Y56211
X50879
X51453
X52028
X52047Y57638
X51535
X51024
X50512
X48386Y58484
X48386Y60039
X48346Y61299
X47874
X47362
X46890Y61378
Y61693
Y62008
X46968Y60866
X47785Y57254
X47969Y54871
X48632Y53819
X49291Y52864
X49203Y51968
X47392Y52018
X47323Y53130
X47933Y52835
X44498Y53189
X44449Y53888
X44291Y55394
X44528Y55630
X45000
X44764Y55394
X44016Y55630
X43780Y55394
X43346Y55630
Y56024
Y56417
X42992Y56220
Y55827
X42756Y56959
X43728Y56976
Y57376
Y57776
Y58176
X44128
Y57776
Y57376
Y56976
X44528
X44928
X45328
Y57376
X44928
Y57776
X45328
Y58176
X44928
X44528
Y57776
Y57376
X46417Y56339
X46821Y60039
X45256
X43691
X42126
X41467Y59370
Y58248
X41496Y57244
X39498Y58750
X39094
Y59272
X39154Y59833
X39537Y60197
X40079
Y59498
X40454Y61341
X39173Y60866
X38068Y61761
X34577Y61083
Y60620
X34213Y58760
X34370Y58150
X32992Y58110
X33209Y57648
X32756Y57559
Y57067
X32913Y56654
X33668Y56711
X32913Y55748
Y54882
X33307Y55000
X33969Y54361
X33465Y52874
X33619Y51761
X33632Y49478
X33346Y49173
X32369Y49211
X31569Y49111
X31869Y48761
X31569Y48261
Y47711
X32244Y47026
X32618
X32992
X34124Y46949
X33858Y47874
X34055Y48858
X34734Y49203
X35768Y49161
X35468Y48511
X36068Y48461
X35468Y47111
X40404Y48218
X41319Y48957
X41909Y48593
X43179Y47854
X42923Y49675
Y50030
Y50384
X43343Y50384
X43763
X44183Y50384
Y50030
Y49675
X42549Y50797
X32599Y50331
X31469Y49961
X31969Y53061
X32362Y53356
X32757Y58975
X35906Y59291
X36417Y58898
X36988Y57992
X37028Y56043
X42339Y61341
X44223
X45258Y62001
X46108Y61341
X46519Y62481
X30069Y61398
X29086Y59677
X29094Y59291
X29330Y57787
X29055Y57441
X28220Y57482
X25921Y57321
X25551Y57323
X25512Y56614
X26024Y56299
X25896Y55768
X26388Y55669
X26722Y55295
X26713Y56083
X26457Y56575
X26084Y56960
X25335Y58199
X24409Y57638
X24232Y57234
X23858Y57205
X23583Y56890
X22910
X22421Y57037
X22220Y56199
X22283Y55039
X22598Y54872
X22800Y54523
X23740Y54567
X23722Y54174
X23680Y53771
X23368Y53431
X23468Y52771
X23780Y52441
X23763Y52064
X24569Y51841
X23977Y51231
X25138Y51053
X25552Y51034
X25433Y49934
X24889Y49881
X25167Y49144
X25551Y49134
X26319Y49111
X26871Y49548
X26870Y48514
X26850Y47992
X26860Y47480
X27608Y47411
Y48504
X28771Y48475
X29144Y48711
X28622Y49449
Y49843
X29469Y49961
X29409Y50925
X30041Y50541
X30751Y49643
X30919Y49111
Y48261
X30246Y47392
X28780Y47480
X28583Y47992
X28337Y51348
X27648Y51033
X26673Y51348
X26565Y52815
X26132Y53081
X26457Y53494
X26014Y53789
X26565Y54193
X26417Y54793
X25768Y55157
X24415Y55669
X24283Y54647
Y53623
X27657Y53032
X27678Y52531
X28182Y52923
X28780Y53032
X29252Y52717
X29331Y53779
X29331Y54291
X30217Y54468
X30669Y54596
X30482Y53917
X19990Y54094
X20000Y53701
X20368Y53261
X20010Y52372
Y51988
X19222Y52037
X19489Y50401
X19498Y49601
X19018Y49211
X18319Y49111
X17768
Y48411
X18319
Y47761
X18669Y48711
X19991Y49145
X20512Y49134
X21063
X22269Y49111
X22819
X23419Y49161
X23068Y48711
X22819Y48361
X22269
X22719Y47761
X22333Y47018
X23364Y47095
X23738
X24112
X25118Y47018
X25000Y47874
X24548Y49131
X23519Y49961
X22719Y49711
X21569Y49861
X21369Y50211
X20368Y49961
X20669Y47874
X20699Y47018
X19726Y47095
X19352
X18978
X16242Y47016
X16142Y47874
X16102Y49252
X16818Y49191
X17399Y49491
X17469Y50011
X17278Y50361
X16457Y49961
X15913
X16644Y51811
X17520Y52539
X17766Y53100
X17687Y55276
X18573Y55492
X18720Y55915
X17923Y56171
X16968Y56391
X16688Y57111
X17776Y58110
X19439Y58721
X20079Y59134
X20344Y59409
X20748Y60325
X20472Y62402
X22248Y61241
X24970Y61023
X26752Y61585
X27157Y61557
X22726Y58199
X21446Y58432
X21093Y57165
X20143Y57061
X19769
X19396
X19392Y57438
X19769Y57435
X20143
Y56687
X19769
X19394Y56677
X19547Y55423
X19938Y55431
X20259Y55671
X21093Y55720
X20278Y54551
X16349Y59331
X16437Y60561
X16850Y60551
X13494Y57904
X12746Y51831
X12569Y49961
X13469Y49711
X13569Y48911
X13068
Y48361
X13569
X13819Y47761
X13297Y47016
X14468Y47095
X14843
X15217
X15472Y49203
X14669Y49161
X14168Y48711
X15268Y50261
X14480Y65087
X14780Y65787
X14480Y66487
X13780Y66787
X13080Y66487
X12780Y65787
X13080Y65087
X13780Y64787
Y68764
X13080Y69064
X12780Y69764
X13080Y70464
X13780Y70764
X14480Y70464
X14780Y69764
X14480Y69064
X14301Y72402
X13976
X13528Y71883
X13178Y73033
X13159Y73543
X12677Y74449
X12795Y74685
X13297Y75008
X14468Y75087
Y74713
X14843
Y74341
X14465Y74336
X15226Y74339
X15217Y74713
Y75087
X14843
X13819Y75753
X13569Y76353
X13068
Y76903
X13569
X14168Y76703
X14669Y77153
X15472Y77195
X13469Y77703
X12569Y77953
X15453Y72411
X15787Y72402
X16535Y72323
Y73110
X16604Y73553
X16978Y74173
Y74468
X17283Y74478
Y74173
X17598Y73543
X17618Y73110
Y72323
X18425Y72362
X18819
X19882Y72323
X20197
X21063
Y73110
Y73543
X22008
X22047Y73110
Y72323
X22795Y72362
X23110
X24291Y72323
X24606
X25048Y72323
X25119Y72803
X25468Y73133
X25945Y74016
X26198Y74783
X26718Y74513
X26860Y75472
X26850Y75984
X26870Y76506
X27608Y76496
Y75404
X28780Y75472
X28583Y75984
X28771Y76467
X29144Y76703
X28622Y77441
Y77835
X29469Y77953
X30751Y77636
X30919Y77103
Y76253
X30246Y75384
X29843Y74331
X30354Y73858
X30630
X30906Y73504
X28583Y74055
X28661Y74724
X25118Y75010
X25000Y75866
X25167Y77136
X25551Y77126
X26319Y77103
X26871Y77540
X25433Y77926
X24889Y77873
X24548Y77123
X23419Y77153
X22819Y77103
X22269
Y76353
X22819
X23068Y76703
X22719Y75753
X22333Y75010
X23364Y75087
Y74713
X23738
Y74341
X23360Y74336
X24122Y74339
X24112Y74713
Y75087
X23738
X21693Y74449
X21417
X20699Y75010
X20669Y75866
X20512Y77126
X19991Y77137
X19498Y77593
X19018Y77203
X18319Y77103
X17768
Y76403
X18319
Y75753
X18669Y76703
X18978Y75087
Y74713
X19352
Y74341
X18974Y74336
X19735Y74339
X19726Y74713
Y75087
X19352
X16242Y75008
X16142Y75866
X16102Y77244
X16818Y77183
X17399Y77483
X17469Y78003
X16457Y77953
X15913
X20368
X21569Y77853
X21063Y77126
X22719Y77703
X23519Y77953
X23438Y70433
X22778
X21878Y70423
X20698Y70543
X20348Y70553
X19218Y70433
X18719Y70403
X17478Y70523
X16839Y70503
X16338Y70533
X15948Y70133
X19268Y63711
X25708Y71773
X31198Y70113
X31539Y70433
X31918Y70423
X32518Y70433
X33379
X33958
X34339
X35856Y69803
X36368Y72763
Y73110
Y73457
Y73804
Y74151
X36068Y74453
X35236Y74409
Y74163
X35187Y73346
Y72987
Y72628
X34818Y72353
X34449Y72913
X34567Y73465
X34124Y74941
X33858Y75866
X34055Y76850
X33346Y77165
X33632Y77470
X34734Y77195
X35768Y77153
X35468Y76503
X36068Y76453
X35468Y75103
X32992Y75018
Y74644
X32618
Y74272
X32241Y74267
X32244Y74644
Y75018
X32618
X33002Y74270
X33189Y72362
X33543
X32087
X31732
X31569Y75703
Y76253
X31869Y76753
X31569Y77103
X32369Y77203
X31469Y77953
X40404Y76211
X41319Y76949
X41909Y76585
X43179Y75846
X42923Y77667
Y78022
X44183
Y77667
X46024Y74567
X46638Y74153
X46132Y73130
Y72421
X46486Y71270
X46149Y66891
X45349Y66241
X44764Y66253
X44264Y66891
X42379
X40493
X38609
X38398Y65541
Y64081
Y62621
X34154Y63760
X33858Y63466
X34852Y64764
X42789Y64611
X43522Y64120
X43915
X44309
Y63726
Y63333
X43915
X43522
Y63726
X43915
X44639Y64441
X45718Y65061
X45854Y65577
X46519Y65671
Y64076
X44188Y62541
X47310Y62567
X47710
X48110
Y62967
Y63367
Y63767
X47710
Y63367
Y62967
X47310
Y63367
Y63767
X48510
X48910
Y63367
X48510
Y62967
X48910
Y62567
X48510
X50481Y65087
X50181Y65787
X50481Y66487
X51181Y66787
X51881Y66487
X52181Y65787
X51881Y65087
X51181Y64787
Y68764
X50481Y69064
X50181Y69764
X50481Y70464
X51181Y70764
X51881Y70464
X52181Y69764
X51881Y69064
X49488Y71250
X48632Y71024
X47303Y71270
X47628Y72441
X47717Y72953
X47480Y74094
X47859Y75323
X48488
X48579Y77253
X48998Y77393
X47779Y77253
X47329Y77453
X47049Y77713
X50187Y76929
Y76535
Y76142
Y75748
X50591
Y76142
Y76535
Y76949
X50994Y76968
X51398Y76949
X51801Y76949
Y75748
X51398
X50994
X49331Y73622
X49419Y78193
X50591Y78189
X50994
X51467
X51742Y79163
X51181Y79291
X50630
X50118Y78740
X49203Y79961
X49291Y80856
X47933Y80827
X47323Y81122
X47392Y80010
X48632Y81811
X49468Y82353
X49291Y82874
X49311Y83533
X50305Y84203
X50879
X51453
X52028
X52047Y85630
X51535
X51024
X50512
X48386Y86476
X48386Y88032
X48346Y89291
X47874
X47362
X46890Y89370
Y89685
Y90000
X47310Y90559
X47710
X48110
Y90959
Y91359
Y91759
X47710
Y91359
Y90959
X47310
Y91359
Y91759
X48510
X48910
Y91359
X48510
Y90959
X48910
Y90559
X48510
X46968Y88858
X47785Y85246
X47969Y82863
X50069Y81811
X50935Y81181
X50994Y82549
X52372Y79705
X51881Y93080
X51181Y92780
X50481Y93080
X46519Y93663
X45854Y93569
X45718Y93053
X44639Y92433
X44309Y92112
Y91719
Y91325
X43915
X43522
Y91719
Y92112
X43915
Y91719
X44188Y90533
X44223Y89333
X45258Y89993
X46108Y89333
X46519Y90473
Y92068
X42789Y92603
X42339Y89333
X42126Y88032
X41467Y87362
Y86240
X41496Y85236
X42756Y84951
X42992Y84213
Y83819
X43346Y84016
Y83622
X44016
X43780Y83386
X44291
X44528Y83622
X45000
X44764Y83386
X44928Y84968
X45328
Y85368
X44928
Y85768
X45328
Y86168
X44928
X44528
X44128
X43728
Y85768
X44128
Y85368
X43728
Y84968
X44128
X44528
Y85368
Y85768
X43346Y84409
X46417Y84331
X46821Y88032
X45256
X43691
X40079Y88189
X39537
X39154Y87825
X39094Y87264
Y86742
X39498
X40079Y87490
X40454Y89333
X39173Y88858
X38068Y89753
X38398Y90613
Y92073
Y93533
X34852Y92756
X34154Y91752
X33858Y91458
X34577Y89075
Y88612
X34213Y86752
X34370Y86142
X32992Y86102
X33209Y85640
X32756Y85551
Y85059
X32913Y84646
X33668Y84703
X32913Y83740
Y82874
X33307Y82992
X33969Y82353
X33465Y80866
X33619Y79753
X32599Y78323
X32362Y81348
X31969Y81053
X32757Y86967
X35906Y87283
X36417Y86890
X36988Y85984
X37028Y84035
X44449Y81880
X44498Y81181
X44183Y78376
X43763Y78376
X43343
X42923Y78376
X42549Y78789
X30041Y78533
X29409Y78917
X28337Y79341
X27648Y79026
X26673Y79341
X25552Y79027
X25138Y79045
X23977Y79223
X23763Y80056
X23780Y80433
X23468Y80763
X23368Y81423
X23680Y81763
X23722Y82167
X23740Y82559
X24283Y82639
Y81615
X26014Y81782
X26457Y81486
X26132Y81073
X26565Y80807
X27657Y81024
X27678Y80523
X28182Y80915
X28780Y81024
X29252Y80709
X29331Y81772
X29331Y82283
X30217Y82461
X30669Y82589
X30482Y81909
X26565Y82185
X26417Y82785
X26722Y83287
X26388Y83661
X25896Y83760
X26024Y84291
X26457Y84567
X26713Y84075
X26084Y84952
X25921Y85313
X25551Y85315
X25512Y84606
X25768Y83150
X24415Y83661
X24232Y85226
X23858Y85197
X23583Y84882
X22910
X22421Y85030
X22220Y84191
X22283Y83032
X22598Y82864
X22800Y82515
X20278Y82543
X19990Y82087
X20000Y81693
X20368Y81253
X20010Y80364
Y79980
X19222Y80030
X19489Y78393
X21369Y78203
X17278Y78353
X16644Y79803
X17520Y80532
X17766Y81093
X17687Y83268
X18573Y83484
X18720Y83907
X17923Y84163
X16968Y84383
X16688Y85103
X17776Y86102
X19439Y86713
X20079Y87126
X20344Y87402
X20748Y88317
X20472Y90394
X19268Y91703
X22248Y89233
X24970Y89015
X26752Y89577
X27157Y89549
X30069Y89390
X29086Y87669
X29094Y87283
X29330Y85779
X29055Y85433
X28220Y85474
X25335Y86191
X24409Y85630
X22726Y86191
X21446Y86424
X21093Y85157
X20143Y85053
X19769
X19396
X19392Y85430
X19769Y85427
X20143
Y84679
X19769
X19394Y84669
X19547Y83415
X19938Y83423
X20259Y83663
X21093Y83712
X24569Y79833
X16349Y87323
X16437Y88553
X16850Y88543
X13494Y85896
X12746Y79823
X15268Y78253
X14480Y93080
X13780Y92780
X13080Y93080
X12780Y93780
X13080Y94480
X13780Y94780
X14480Y94480
X14780Y93780
X38609Y94883
X40493
X42379
X44264
X44764Y94245
X45349Y94233
X46149Y94883
X50481Y94480
X50181Y93780
X52181
X51881Y94480
X51181Y94780
T02
X43099Y34569
Y62561
Y90553
T03
X41280Y31998
Y59990
Y87982
T04
X15610Y31398
X44429Y34128
X48543Y38780
X44429Y62121
X15610Y59390
X48543Y66772
X44429Y90113
X15610Y87382
X48543Y94764
T05
X37598Y14843
X38100Y15315
X38642Y15886
X41859Y34092
X43795Y36964
X43798Y38108
X38100Y43307
X37598Y42835
X38642Y43878
X41859Y62084
X43795Y64957
X43798Y66101
X38100Y71299
X37598Y70827
X38642Y71870
X41859Y90076
X43795Y92949
X43798Y94093
T06
X29465Y33754
Y34754
X30465
Y33754
X30484Y37425
X29484
Y38425
X30484
X31484
Y37425
X32484
Y38425
X33484
Y37425
X33465Y34754
X32465
X31465
Y33754
X32465
X33465
X35915Y35026
X36915
Y36026
X35915
Y37026
X36915
Y38026
X35915
Y39026
X36915
X33465Y61746
X32465
X31465
X30465
X29465
Y62746
X30465
X30484Y65417
X29484
Y66417
X30484
X31484
Y65417
X32484
Y66417
X33484
Y65417
X33465Y62746
X32465
X31465
X35915Y63018
X36915
Y64018
X35915
Y65018
X36915
Y66018
X35915
Y67018
X36915
Y91010
X35915
Y92010
X36915
Y93010
X35915
X33484Y93409
X32484
X31484
X31465Y90738
Y89738
X32465
Y90738
X33465
Y89738
X30465
X29465
Y90738
X30465
X30484Y93409
X29484
Y94409
X30484
X31484
X32484
X33484
X35915Y94010
X36915
Y95010
X35915
T07
X15637Y26665
X16427
Y27657
X15637
X17664Y31644
Y32644
X18664
Y31644
X19664
Y32644
X23390
Y31644
X24390
Y32644
X25390
Y31644
Y59636
X24390
X23390
Y60636
X24390
X25390
X19664
X18664
X17664
Y59636
X18664
X19664
X16427Y55650
X15637
Y54657
X16427
Y82650
X15637
Y83642
X16427
X17664Y87628
Y88628
X18664
Y87628
X19664
Y88628
X23390
Y87628
X24390
Y88628
X25390
Y87628
T08
X16610Y13386
X17610
X18610
X19610
X21728
X22728
X23728
X24728
X26846
X27846
X28846
X29846
X31965
X32965
X33965
X34965
X50453Y16820
Y18220
X52175Y16024
X42608Y25018
Y26418
X40028Y27598
X39028
X38976Y29882
X39976
X35472Y30185
Y29185
Y27075
Y26075
Y23965
Y22965
X38445Y22913
X40413
X29846Y16142
X28846
X27846
X26846
X12896Y32968
Y34748
X16323Y35433
X17323
X18323
X20457
X21457
X22457
X24591
X25591
X26591
Y37795
X25591
X24591
X22457
X21457
X20457
X18323
X17323
X16323
X16610Y41378
X17610
X18610
X19610
X21728
X22728
X23728
X24728
X26846
X27846
X28846
X29846
Y44134
X28846
X27846
X26846
X31965Y41378
X32965
X33965
X34965
X36496Y33335
Y32335
X50453Y44812
Y46212
X52175Y44016
X42608Y53011
Y54411
X40028Y55591
X39028
X38976Y57874
X39976
X35472Y58177
Y57177
Y55067
Y54067
Y51957
Y50957
X38445Y50906
X40413
X36496Y60327
Y61327
X12896Y60960
Y62740
X16323Y63425
X17323
X18323
X20457
X21457
X22457
X24591
X25591
X26591
Y65787
X25591
X24591
X22457
X21457
X20457
X18323
X17323
X16323
X16610Y69370
X17610
X18610
X19610
X21728
X22728
X23728
X24728
X26846
X27846
X28846
X29846
Y72126
X28846
X27846
X26846
X31965Y69370
X32965
X33965
X34965
X50453Y72804
Y74204
X52175Y72008
X42608Y81003
Y82403
X40028Y83583
X39028
X38976Y85866
X39976
X35472Y86169
Y85169
Y83059
Y82059
Y79949
Y78949
X38445Y78898
X40413
X36496Y88319
Y89319
X26591Y91417
X25591
X24591
X22457
X21457
X20457
X18323
X17323
X16323
X12896Y90733
Y88953
X16323Y93780
X17323
X18323
X20457
X21457
X22457
X24591
X25591
X26591
T09
X51178Y28969
Y30968
X46789Y17077
X44789
X42789
X40789
Y45069
X42789
X44789
X46789
X51178Y34969
Y32968
Y56961
Y58961
Y60961
X46789Y73061
X44789
X42789
X40789
X51178Y62961
Y84953
Y86953
Y88953
Y90953
T10
X13876Y32478
Y35238
Y60470
Y63230
Y88463
Y91223
T11
X37243Y13659
X38583
X47952Y20519
X49292
Y25819
X47952
X46389Y25809
X45048
Y20509
X46389
X38583Y18959
X37243
Y41651
X38583
X47952Y48511
X49292
Y53811
X47952
X46389Y53802
X45048
Y48502
X46389
X38583Y46951
X37243
Y69643
X38583
Y74943
X37243
X45048Y76494
X46389
X47952Y76504
X49292
Y81804
X47952
X46389Y81794
X45048
T12
X14567Y24795
Y29528
Y52787
Y57520
Y80780
Y85512
T13
X10600Y10600
X13780Y13780
X51181
X54380Y10600
X13780Y37795
Y41772
X51181
Y37795
X13780Y65787
Y69764
X51181
Y65787
X13780Y93780
X10600Y96959
X51181Y93780
X54380Y96959
M30
