M48
;Layer_Color=9474304
;FILE_FORMAT=2:4
INCH
;TYPE=PLATED
T1F00S00C0.0150
T2F00S00C0.0200
T3F00S00C0.0250
T4F00S00C0.0280
T5F00S00C0.0300
T6F00S00C0.0354
T7F00S00C0.0380
T8F00S00C0.0400
T9F00S00C0.0550
T10F00S00C0.0590
T11F00S00C0.0630
T12F00S00C0.0870
;TYPE=NON_PLATED
T13F00S00C0.1181
%
T01
X013080Y013080
X012780Y013780
X013080Y014480
X013780Y014780
X014480Y014480
X014780Y013780
X014480Y013080
X013780Y012780
X015948Y014148
X016338Y014548
X016839Y014519
X017478Y014539
X018719Y014418
X019218Y014448
X020348Y014569
X020698Y014559
X021878Y014439
X022778Y014448
X023438
X031198Y014129
X031539Y014448
X031918Y014439
X032518Y014448
X033379
X033958
X034339
X035856Y013819
X046486Y015285
X047303
X048632Y015039
X049488Y015266
X050481Y014480
X050181Y013780
X050481Y013080
X051181Y012780
X051881Y013080
X052181Y013780
X051881Y014480
X051181Y014780
X054457Y014480
X054157Y013780
X054457Y013080
X055157Y012780
X055857Y013080
X056157Y013780
X055857Y014480
X055157Y014780
X057716Y014548
X058216Y014519
X058856Y014539
X060096Y014418
X060596Y014448
X061726Y014569
X062076Y014559
X057326Y014148
X063256Y014439
X064156Y014448
X064816
X072576Y014129
X072916Y014448
X073296Y014439
X073896Y014448
X074756
X075336
X075716
X077234Y013819
X087864Y015285
X088681
X090010Y015039
X090866Y015266
X091859Y014480
X091559Y013780
X091859Y013080
X092559Y012780
X093259Y013080
X093559Y013780
X093259Y014480
X092559Y014780
X093750Y023720
X093120Y023179
X092559Y023307
X092008
X091496Y022756
X091968Y022205
X092372
X092844
X092776Y020965
X093179Y020965
X092372Y020984
X091968Y020965
Y020551
Y020157
Y019764
X092372
X092776
X093179
X091565
Y020157
Y020551
Y020945
X090376Y021409
X089956Y021268
X089156
X088706Y021469
X088426Y021728
X088770Y024026
X088701Y025138
X089311Y024843
X090669Y024872
X090581Y023976
X090796Y022208
X089866Y019339
X089236
X088858Y018110
X088016Y018168
X087402Y018583
X087510Y017146
Y016437
X089006Y016457
X089094Y016968
X090709Y017638
X084557Y019862
X083287Y020600
X082697Y020965
X081782Y020226
X084301Y021683
Y022037
Y022392
X084721Y022392
X085141
X085561Y022392
Y022037
Y021683
X083927Y022805
X085876Y025197
X085827Y025896
X085669Y027402
X085906Y027638
X086378
X086142Y027402
X085394Y027638
X085157Y027402
X084724Y027638
Y028031
Y028425
X084370Y028228
Y027835
X084134Y028967
X085106Y028984
Y029384
Y029784
Y030184
X085506
Y029784
Y029384
Y028984
X085906
X086306
X086706
Y029384
X086306
Y029784
X086706
Y030184
X086306
X085906
Y029784
Y029384
X087795Y028346
X089163Y029262
X089764Y030492
X091890Y029646
X092402
X092913
X093425
X093406Y028219
X092831
X092257
X091683
X090689Y027549
X090669Y026890
X090846Y026369
X091447Y025827
X090010
X089346Y026878
X092372Y026565
X092313Y025197
X082874Y029252
X082844Y030256
X080876Y030758
X080472
X078366Y030000
X078406Y028051
X077795Y030906
X075591Y030768
X075748Y030157
X074370Y030118
X074587Y029656
X074134Y029567
Y029075
X074291Y028661
X075046Y028719
X074291Y027756
Y026890
X074685Y027008
X075346Y026369
X074843Y024882
X074996Y023768
X075010Y021486
X074724Y021181
X073746Y021219
X072946Y021119
X073246Y020768
X072946Y020268
Y019719
X072296Y020268
Y021119
X072129Y021651
X072846Y021969
X073976Y022339
X071419Y022549
X070787Y022933
X070846Y021969
X070000Y021850
Y021457
X070149Y020483
X070522Y020719
X069961Y020000
X070157Y019488
X070039Y018740
X069961Y018071
X071220Y018346
X071732Y017874
X072008
X072283Y017520
X073110Y016378
X073465
X074567
X074921
X076196Y016368
X076565Y016644
Y017003
Y017362
X075945Y017480
X075827Y016929
X076614Y018179
Y018425
X077446Y018469
X077746Y018167
Y017820
Y017473
Y017126
Y016779
X076846Y019118
Y020519
X077446Y020468
X077146Y021168
X076112Y021211
X075433Y020866
X075236Y019882
X075502Y018957
X074370Y019034
Y018660
X073996
Y018288
X073618Y018283
X073622Y018660
Y019034
X073996
X074380Y018286
X071624Y019400
X068986Y019419
X068238Y019488
X068228Y020000
X068248Y020522
X068986Y020512
X068249Y021556
X067696Y021119
X066929Y021142
X066545Y021152
X065926Y021139
X066266Y021888
X066811Y021942
X066930Y023042
X066516Y023061
X065355Y023239
X065141Y024072
X065157Y024449
X064846Y024778
X064746Y025438
X065058Y025779
X065099Y026182
X065118Y026575
X065661Y026655
Y025631
X067392Y025797
X067835Y025502
X067510Y025089
X067943Y024823
X069035Y025039
X069056Y024539
X069560Y024931
X070157Y025039
X070630Y024724
X070709Y025787
X070709Y026299
X071594Y026476
X072047Y026604
X071860Y025925
X073346Y025069
X073740Y025364
X074135Y030983
X070708Y029795
X070433Y029449
X069598Y029490
X067299Y029328
X066929Y029331
X066890Y028622
X067402Y028307
X067274Y027776
X067766Y027677
X068100Y027303
X068091Y028091
X067835Y028583
X067462Y028968
X066713Y030207
X065787Y029646
X065610Y029242
X065236Y029213
X064961Y028898
X064288
X063799Y029045
X063597Y028207
X063661Y027047
X063976Y026880
X064178Y026531
X065793Y027677
X067146Y027165
X067795Y026801
X067943Y026201
X068051Y023356
X069026Y023041
X069715Y023356
X065946Y023849
X064896Y021969
X064796Y021168
X064196Y021119
X063646
Y020368
X064196
X064446Y020719
X064096Y019769
X063711Y019026
X064742Y019103
Y018729
X065116
Y018357
X064738Y018352
X065500Y018355
X065490Y018729
Y019103
X065116
X066496Y019026
X066378Y019882
X067576Y018799
X068096Y018528
X067323Y018032
X066846Y017148
X066496Y016818
X066426Y016338
X065984Y016339
X065669
X064488Y016378
X064173
X063425Y016339
Y017126
X063386Y017559
X063071Y018465
X062795
X062946Y021869
X062746Y022218
X064096Y021718
X064104Y030207
X062823Y030440
X067086Y015789
X062441Y016339
Y017126
Y017559
X062077Y019026
X062047Y019882
X061890Y021142
X061369Y021153
X060876Y021609
X060866Y022408
X061746Y021969
X062441Y021142
X060396Y021219
X059696Y021119
X059146
Y020419
X059696
Y019769
X060046Y020719
X060356Y019103
Y018729
X060730
Y018357
X060352Y018352
X061113Y018355
X061104Y018729
Y019103
X060730
X058661Y018494
Y018189
X058356
Y018484
X057620Y019024
X057520Y019882
X057480Y021260
X056850Y021211
X056046Y021168
X055546Y020719
X054946Y020919
X054446
Y020368
X054946
X055196Y019769
X054675Y019024
X054173Y018701
X054055Y018465
X054537Y017559
X054556Y017048
X055354Y016417
X055679
X056831Y016427
X057165Y016417
X057913Y016339
Y017126
X057982Y017569
X058976Y017559
X058996Y017126
Y016339
X059803Y016378
X060197
X061260Y016339
X061575
X056604Y018355
X056594Y018729
X056220
Y018357
X055843Y018352
X055846Y018729
Y019103
X056220
X056594
X056646Y022269
X057291Y021969
X057835
X058846Y022018
X058656Y022369
X058776Y021498
X058196Y021198
X058022Y023819
X058898Y024547
X059144Y025108
X059065Y027283
X059951Y027500
X060098Y027923
X059301Y028179
X058346Y028398
X058066Y029118
X059154Y030118
X060816Y030728
X061457Y031142
X061520Y029443
X061146
Y029069
X060774
X060770Y029446
X060772Y028685
X061146Y028694
X061520
Y029069
X062470Y029173
X062471Y027728
X061636Y027678
X061316Y027438
X060925Y027431
X061656Y026558
X061368Y026102
X061378Y025709
X061746Y025268
X061388Y024380
Y023996
X060600Y024045
X054124Y023839
X052372Y023720
X051742Y023179
X051181Y023307
X050630
X050118Y022756
X050591Y022205
X050994
X051467
X051398Y020965
X051801Y020965
X050994Y020984
X050591Y020965
Y020551
Y020157
Y019764
X050994
X051398
X051801
X050187
Y020157
Y020551
Y020945
X048998Y021409
X048579Y021268
X047779
X047329Y021469
X047049Y021728
X047392Y024026
X047323Y025138
X047933Y024843
X049291Y024872
X049203Y023976
X049419Y022208
X048488Y019339
X047859
X047480Y018110
X047717Y016968
X047628Y016457
X049331Y017638
X054906Y015898
X054846Y021718
X053946Y021969
X050935Y025197
X050994Y026565
X050069Y025827
X049468Y026369
X049291Y026890
X049311Y027549
X050305Y028219
X050879
X051453
X052028
X052047Y029646
X051535
X051024
X050512
X048386Y030492
X047785Y029262
X047969Y026878
X048632Y025827
X054872Y029911
X045328Y029784
Y029384
Y028984
X044928
Y029384
Y029784
Y030184
X045328
X044528
X044128
X043728
Y029784
X044128
Y029384
X043728
Y028984
X044128
X044528
Y029384
Y029784
Y027638
X044291Y027402
X044764
X045000Y027638
X044016
X043780Y027402
X043346Y027638
Y028031
Y028425
X042992Y028228
Y027835
X042756Y028967
X041496Y029252
X041467Y030256
X039498Y030758
X039094
X036417Y030906
X036988Y030000
X037028Y028051
X033668Y028719
X032913Y028661
X032756Y029075
Y029567
X033209Y029656
X032992Y030118
X032757Y030983
X034213Y030768
X034370Y030157
X032913Y027756
Y026890
X033307Y027008
X033969Y026369
X033465Y024882
X033619Y023768
X033632Y021486
X033346Y021181
X032369Y021219
X031569Y021119
X031869Y020768
X031569Y020268
Y019719
X032244Y019034
Y018660
X032618
Y018288
X032241Y018283
X033002Y018286
X032992Y018660
Y019034
X032618
X034124Y018957
X033858Y019882
X034055Y020866
X034734Y021211
X035768Y021168
X035468Y020519
X036068Y020468
X035468Y019118
X035236Y018425
Y018179
X035187Y017362
Y017003
Y016644
X034818Y016368
X034449Y016929
X034567Y017480
X036368Y017473
Y017126
Y016779
Y017820
Y018167
X036068Y018469
X033543Y016378
X033189
X032087
X031732
X031469Y021969
X032599Y022339
X032362Y025364
X031969Y025069
X044498Y025197
X044449Y025896
X044183Y022392
Y022037
Y021683
X043763Y022392
X043343
X042923Y022392
Y022037
Y021683
X042549Y022805
X041909Y020600
X041319Y020965
X040404Y020226
X043179Y019862
X046024Y018583
X046638Y018168
X046132Y017146
Y016437
X046417Y028346
X030669Y026604
X030217Y026476
X030482Y025925
X029331Y025787
X029331Y026299
X029252Y024724
X028780Y025039
X028182Y024931
X027657Y025039
X027678Y024539
X026565Y024823
X026132Y025089
X026457Y025502
X026014Y025797
X026565Y026201
X026417Y026801
X026722Y027303
X026388Y027677
X025896Y027776
X026024Y028307
X026457Y028583
X026713Y028091
X026084Y028968
X025921Y029328
X025551Y029331
X025512Y028622
X025768Y027165
X024415Y027677
X024283Y026655
X023740Y026575
X023722Y026182
X023680Y025779
X023368Y025438
X023468Y024778
X023780Y024449
X023763Y024072
X024569Y023849
X023977Y023239
X025138Y023061
X025552Y023042
X025433Y021942
X024889Y021888
X025167Y021152
X025551Y021142
X026319Y021119
X026871Y021556
X026870Y020522
X026850Y020000
X026860Y019488
X027608Y019419
Y020512
X028771Y020483
X029144Y020719
X028622Y021457
Y021850
X029469Y021969
X029409Y022933
X030041Y022549
X030751Y021651
X030919Y021119
Y020268
X030246Y019400
X029843Y018346
X030354Y017874
X030630
X030906Y017520
X028583Y018071
X028661Y018740
X028780Y019488
X028583Y020000
X026718Y018528
X026198Y018799
X025945Y018032
X025468Y017148
X025119Y016818
X025048Y016338
X024606Y016339
X024291
X023110Y016378
X022795
X022047Y016339
Y017126
X022008Y017559
X021063
Y017126
Y016339
X020197
X019882
X018819Y016378
X018425
X017618Y016339
Y017126
X017598Y017559
X017283Y018189
X016978
Y018484
X017283Y018494
X016242Y019024
X016142Y019882
X016102Y021260
X016818Y021198
X017399Y021498
X017469Y022018
X017278Y022369
X016457Y021969
X015913
X016644Y023819
X017520Y024547
X017766Y025108
X017687Y027283
X018573Y027500
X018720Y027923
X017923Y028179
X016968Y028398
X016688Y029118
X017776Y030118
X019439Y030728
X020079Y031142
X020143Y029443
X019769
Y029069
X019396
X019392Y029446
X019394Y028685
X019769Y028694
X020143
Y029069
X021093Y029173
X021093Y027728
X020259Y027678
X019938Y027438
X019547Y027431
X020278Y026558
X019990Y026102
X020000Y025709
X020368Y025268
X020010Y024380
Y023996
X019222Y024045
X019489Y022408
X019498Y021609
X019018Y021219
X018319Y021119
X017768
Y020419
X018319
Y019769
X018669Y020719
X019991Y021153
X020512Y021142
X021063
X022269Y021119
X022819
X023419Y021168
X023068Y020719
X022819Y020368
X022269
X022719Y019769
X022333Y019026
X023364Y019103
Y018729
X023738
Y018357
X023360Y018352
X024122Y018355
X024112Y018729
Y019103
X023738
X025118Y019026
X025000Y019882
X024548Y021139
X023519Y021969
X022719Y021718
X021569Y021869
X021369Y022218
X020368Y021969
X020669Y019882
X020699Y019026
X019726Y019103
Y018729
X019352
Y018357
X018974Y018352
X018978Y018729
Y019103
X019352
X019735Y018355
X021417Y018465
X021693
X016604Y017569
X016535Y017126
Y016339
X015787Y016417
X025708Y015789
X026673Y023356
X027648Y023041
X028337Y023356
X028220Y029490
X029055Y029449
X029330Y029795
X025335Y030207
X024409Y029646
X024232Y029242
X023858Y029213
X023583Y028898
X022910
X022421Y029045
X022220Y028207
X022283Y027047
X022598Y026880
X022800Y026531
X024283Y025631
X022726Y030207
X021446Y030440
X013494Y029911
X012746Y023839
X012569Y021969
X013469Y021718
X013569Y020919
X013068
Y020368
X013569
X013819Y019769
X013297Y019024
X012795Y018701
X012677Y018465
X013159Y017559
X013178Y017048
X013976Y016417
X014301
X015453Y016427
X015226Y018355
X015217Y018729
X014843
Y018357
X014465Y018352
X014468Y018729
Y019103
X014843
X015217
X015472Y021211
X014669Y021168
X014168Y020719
X015268Y022269
X013528Y015898
X013780Y036795
X013080Y037095
X012780Y037795
X013080Y038495
X013780Y038795
X014480Y038495
X014780Y037795
X014480Y037095
Y041072
X014780Y041772
X014480Y042472
X013780Y042772
X013080Y042472
X012780Y041772
X013080Y041072
X013780Y040772
X013528Y043891
X013976Y044409
X014301
X015453Y044419
X015226Y046347
X015217Y046721
X014843
Y046349
X014465Y046344
X014468Y046721
X012795Y046693
X012677Y046457
X013159Y045551
X013178Y045041
X015787Y044409
X016535Y044331
Y045118
X016604Y045561
X016978Y046181
Y046476
X017283Y046486
Y046181
X017598Y045551
X017618Y045118
Y044331
X018425Y044370
X018819
X019882Y044331
X020197
X021063
Y045118
Y045551
X022008
X022047Y045118
Y044331
X022795Y044370
X023110
X024291Y044331
X024606
X025048Y044331
X025119Y044811
X025468Y045141
X025945Y046024
X026198Y046791
X026718Y046521
X028661Y046732
X028583Y046063
X029843Y046339
X030354Y045866
X030630
X030906Y045512
X031198Y042121
X025708Y043781
X023438Y042441
X022778
X021878Y042431
X020698Y042551
X020348Y042561
X019218Y042441
X018719Y042411
X017478Y042531
X016839Y042511
X016338Y042541
X015948Y042141
X018974Y046344
X018978Y046721
X019352
Y046349
X019735Y046347
X019726Y046721
X021417Y046457
X021693
X023360Y046344
X023364Y046721
X023738
Y046349
X024122Y046347
X024112Y046721
X024970Y033031
X026752Y033593
X027157Y033565
X030069Y033406
X029086Y031685
X029094Y031299
X022248Y033249
X020748Y032333
X020344Y031417
X020472Y034409
X019268Y035719
X016850Y032559
X016437Y032569
X016349Y031339
X034577Y032628
Y033091
X034154Y035768
X033858Y035474
X034852Y036772
X038398Y036089
Y034629
X038068Y033768
X039173Y032874
X039537Y032205
X040079
Y031506
X039094Y031280
X039154Y031841
X041467Y031378
X042126Y032047
X042339Y033349
X044223
X044188Y034548
X044309Y035341
X043915
X043522
Y035734
Y036128
X043915
X044309
Y035734
X043915
X044639Y036449
X045718Y037069
X045854Y037585
X046519Y037678
X046149Y038898
X045349Y038249
X044764Y038261
X044264Y038898
X042379
X040493
X038609
X038398Y037548
X042789Y036618
X046519Y036084
Y034488
X046108Y033349
X045258Y034009
X045256Y032047
X043691
X046821
X040454Y033349
X035906Y031299
X035856Y041811
X034339Y042441
X033958
X033379
X032518
X031918Y042431
X031539Y042441
X031732Y044370
X032087
X033189
X033543
X034818Y044361
X035187Y044636
Y044995
Y045354
X034567Y045472
X034449Y044921
X035236Y046171
Y046417
X036068Y046461
X036368Y046159
Y045812
Y045465
Y045118
Y044771
X033002Y046278
X032992Y046652
X032618
Y046280
X032241Y046275
X032244Y046652
X046024Y046575
X046638Y046161
X046132Y045138
Y044429
X046486Y043278
X047303
X047628Y044449
X047717Y044961
X047480Y046102
X049331Y045630
X049488Y043258
X048632Y043032
X050481Y042472
X050181Y041772
X050481Y041072
X051181Y040772
X051881Y041072
X052181Y041772
X051881Y042472
X051181Y042772
X054457Y042472
X054157Y041772
X054457Y041072
X055157Y040772
X055857Y041072
X056157Y041772
X055857Y042472
X055157Y042772
X054906Y043891
X055354Y044409
X055679
X056831Y044419
X057165Y044409
X057913Y044331
Y045118
X057982Y045561
X058356Y046181
Y046476
X058661Y046486
Y046181
X058976Y045551
X058996Y045118
Y044331
X059803Y044370
X060197
X061260Y044331
X061575
X062441
Y045118
Y045551
X061113Y046347
X061104Y046721
X060730
Y046349
X060352Y046344
X060356Y046721
X056594
X056220
Y046349
X055843Y046344
X055846Y046721
X056604Y046347
X054055Y046457
X054173Y046693
X054537Y045551
X054556Y045041
X057716Y042541
X058216Y042511
X058856Y042531
X060096Y042411
X060596Y042441
X061726Y042561
X062076Y042551
X057326Y042141
X055857Y038495
X056157Y037795
X055857Y037095
X055157Y036795
X054457Y037095
X054157Y037795
X054457Y038495
X055157Y038795
X051881Y038495
X052181Y037795
X051881Y037095
X051181Y036795
X050481Y037095
X050181Y037795
X050481Y038495
X051181Y038795
X048910Y035774
X048510
X048110
Y035374
Y034974
Y034574
X047710
X047310
Y034974
X047710
Y035374
X047310
Y035774
X047710
X048510Y035374
X048910
Y034974
X048510
Y034574
X048910
X048346Y033307
X047874
X047362
X046890Y033386
Y033701
Y034016
X046968Y032874
X048386Y032047
X057815Y032569
X058228Y032559
X057726Y031339
X061722Y031417
X062126Y032333
X061850Y034409
X060646Y035719
X063626Y033249
X066348Y033031
X068130Y033593
X068535Y033565
X071447Y033406
X070464Y031685
X070472Y031299
X077283
X075955Y032628
Y033091
X075532Y035768
X075236Y035474
X076230Y036772
X077234Y041811
X075716Y042441
X075336
X074756
X073896
X073296Y042431
X072916Y042441
X072576Y042121
X073110Y044370
X073465
X074567
X074921
X076196Y044361
X076565Y044636
Y044995
Y045354
X075945Y045472
X075827Y044921
X076614Y046171
Y046417
X077446Y046461
X077746Y046159
Y045812
Y045465
Y045118
Y044771
X074380Y046278
X074370Y046652
X073996
Y046280
X073618Y046275
X073622Y046652
X072008Y045866
X071732
X072283Y045512
X071220Y046339
X069961Y046063
X070039Y046732
X068096Y046521
X067576Y046791
X067323Y046024
X066846Y045141
X066496Y044811
X066426Y044331
X065984Y044331
X065669
X064488Y044370
X064173
X063425Y044331
Y045118
X063386Y045551
X063071Y046457
X062795
X064738Y046344
X064742Y046721
X065116
Y046349
X065500Y046347
X065490Y046721
X067086Y043781
X064816Y042441
X064156
X063256Y042431
X079986Y038898
X079776Y037548
Y036089
Y034629
X079446Y033768
X080551Y032874
X080915Y032205
X081457
Y031506
X080472Y031280
X080532Y031841
X082844Y031378
X083504Y032047
X083716Y033349
X085601
X085566Y034548
X085687Y035341
X085293
X084900
Y035734
Y036128
X085293
X085687
Y035734
X085293
X086016Y036449
X087096Y037069
X087232Y037585
X087896Y037678
X087526Y038898
X086726Y038249
X086142Y038261
X085641Y038898
X083756
X081871
X084166Y036618
X087896Y036084
X088688Y035774
Y035374
Y034974
Y034574
X089088
X089488
Y034974
Y035374
Y035774
X089088
Y035374
Y034974
X089888
Y035374
Y035774
X090288
Y035374
Y034974
Y034574
X089888
X089724Y033307
X089252
X088740
X088268Y033386
Y033701
Y034016
X087896Y034488
X087486Y033349
X088346Y032874
X088199Y032047
X089764
X086634
X085069
X086636Y034009
X081831Y033349
X091859Y037095
X091559Y037795
X091859Y038495
X092559Y038795
X093259Y038495
X093559Y037795
X093259Y037095
X092559Y036795
Y040772
X091859Y041072
X091559Y041772
X091859Y042472
X092559Y042772
X093259Y042472
X093559Y041772
X093259Y041072
X090866Y043258
X090010Y043032
X088681Y043278
X087864
X087510Y044429
Y045138
X088016Y046161
X088858Y046102
X089094Y044961
X089006Y044449
X090709Y045630
X087402Y046575
X093750Y051713
X093120Y051171
X092559Y051299
X092008
X091496Y050748
X091968Y050197
X092372
X092844
X092776Y048957
X093179Y048957
X092372Y048976
X091968Y048957
Y048543
Y048150
Y047756
X092372
X092776
X093179
X091565
Y048150
Y048543
Y048937
X090376Y049401
X089956Y049261
X089156
X088706Y049461
X088426Y049721
X088770Y052018
X088701Y053130
X089311Y052835
X090669Y052864
X090581Y051968
X090796Y050201
X089866Y047331
X089236
X084557Y047854
X083287Y048593
X082697Y048957
X081782Y048218
X084301Y049675
Y050030
Y050384
X084721Y050384
X085141
X085561Y050384
Y050030
Y049675
X083927Y050797
X085876Y053189
X085827Y053888
X085669Y055394
X085906Y055630
X086378
X086142Y055394
X085394Y055630
X085157Y055394
X084724Y055630
Y056024
Y056417
X084370Y056220
Y055827
X084134Y056959
X085106Y056976
Y057376
Y057776
Y058176
X085506
Y057776
Y057376
Y056976
X085906
X086306
X086706
Y057376
X086306
Y057776
X086706
Y058176
X086306
X085906
Y057776
Y057376
X087795Y056339
X089163Y057254
X089764Y058484
X089764Y060039
X089724Y061299
X089252
X088740
X088268Y061378
Y061693
Y062008
X087896Y062481
X087486Y061341
X088346Y060866
X088199Y060039
X086634
X085069
X083504
X082844Y059370
Y058248
X082874Y057244
X080876Y058750
X080472
Y059272
X080532Y059833
X080915Y060197
X081457
Y059498
X081831Y061341
X080551Y060866
X079446Y061761
X083716Y061341
X085601
X086636Y062001
X091890Y057638
X092402
X092913
X093425
X093406Y056211
X092831
X092257
X091683
X090689Y055541
X090669Y054882
X090846Y054361
X091447Y053819
X090010
X089346Y054871
X092372Y054557
X092313Y053189
X078406Y056043
X078366Y057992
X077795Y058898
X077283Y059291
X075591Y058760
X075748Y058150
X074370Y058110
X074587Y057648
X074134Y057559
Y057067
X074291Y056654
X075046Y056711
X074291Y055748
Y054882
X074685Y055000
X075346Y054361
X074843Y052874
X074996Y051761
X075010Y049478
X074724Y049173
X073746Y049211
X072946Y049111
X073246Y048761
X072946Y048261
Y047711
X072296Y048261
Y049111
X072129Y049643
X072846Y049961
X073976Y050331
X071419Y050541
X070787Y050925
X070846Y049961
X070000Y049843
Y049449
X070149Y048475
X070522Y048711
X069961Y047992
X070157Y047480
X068986Y047411
X068238Y047480
X068228Y047992
X068248Y048514
X068986Y048504
X068249Y049548
X067696Y049111
X066929Y049134
X066545Y049144
X065926Y049131
X066266Y049881
X066811Y049934
X066930Y051034
X066516Y051053
X065355Y051231
X065141Y052064
X065157Y052441
X064846Y052771
X064746Y053431
X065058Y053771
X065099Y054174
X065118Y054567
X065661Y054647
Y053623
X067392Y053789
X067835Y053494
X067510Y053081
X067943Y052815
X069035Y053032
X069056Y052531
X069560Y052923
X070157Y053032
X070630Y052717
X070709Y053779
X070709Y054291
X071594Y054468
X072047Y054596
X071860Y053917
X073346Y053061
X073740Y053356
X074135Y058975
X075955Y060620
Y061083
X071447Y061398
X070464Y059677
X070472Y059291
X070708Y057787
X070433Y057441
X069598Y057482
X067299Y057321
X066929Y057323
X066890Y056614
X067402Y056299
X067274Y055768
X067766Y055669
X068100Y055295
X068091Y056083
X067835Y056575
X067462Y056960
X066713Y058199
X065787Y057638
X065610Y057234
X065236Y057205
X064961Y056890
X064288
X063799Y057037
X063597Y056199
X063661Y055039
X063976Y054872
X064178Y054523
X065793Y055669
X067146Y055157
X067795Y054793
X067943Y054193
X068051Y051348
X069026Y051033
X069715Y051348
X065946Y051841
X064896Y049961
X064796Y049161
X064196Y049111
X063646
Y048361
X064196
X064446Y048711
X064096Y047761
X063711Y047018
X064742Y047095
X065116
X065490
X066496Y047018
X066378Y047874
X064096Y049711
X062946Y049861
X062746Y050211
X062823Y058432
X064104Y058199
X063626Y061241
X066348Y061023
X068130Y061585
X068535Y061557
X071624Y047392
X073622Y047026
X073996
X074370
X075502Y046949
X075236Y047874
X075433Y048858
X076112Y049203
X077146Y049161
X076846Y048511
X077446Y048461
X076846Y047111
X062077Y047018
X062047Y047874
X061890Y049134
X061369Y049145
X060876Y049601
X060866Y050401
X061746Y049961
X062441Y049134
X060396Y049211
X059696Y049111
X059146
Y048411
X059696
Y047761
X060046Y048711
X060356Y047095
X060730
X061104
X057620Y047016
X057520Y047874
X057480Y049252
X056850Y049203
X056046Y049161
X055546Y048711
X054946Y048911
X054446
Y048361
X054946
X055196Y047761
X054675Y047016
X055846Y047095
X056220
X056594
X056646Y050261
X057291Y049961
X057835
X058846Y050011
X058656Y050361
X058776Y049491
X058196Y049191
X058022Y051811
X058898Y052539
X059144Y053100
X059065Y055276
X059951Y055492
X060098Y055915
X059301Y056171
X058346Y056391
X058066Y057111
X059154Y058110
X060816Y058721
X061457Y059134
X061722Y059409
X062126Y060325
X061850Y062402
X061520Y057435
X061146
Y057061
X060774
X060770Y057438
X060772Y056677
X061146Y056687
X061520
Y057061
X062470Y057165
X062471Y055720
X061636Y055671
X061316Y055431
X060925Y055423
X061656Y054551
X061368Y054094
X061378Y053701
X061746Y053261
X061388Y052372
Y051988
X060600Y052037
X054124Y051831
X052372Y051713
X051742Y051171
X051181Y051299
X050630
X050118Y050748
X050591Y050197
X050994
X051467
X051398Y048957
X051801Y048957
X050994Y048976
X050591Y048957
Y048543
Y048150
Y047756
X050994
X051398
X051801
X050187
Y048150
Y048543
Y048937
X048998Y049401
X048579Y049261
X047779
X047329Y049461
X047049Y049721
X047392Y052018
X047323Y053130
X047933Y052835
X049291Y052864
X049203Y051968
X049419Y050201
X048488Y047331
X047859
X048632Y053819
X049468Y054361
X049291Y054882
X049311Y055541
X050305Y056211
X050879
X051453
X052028
X052047Y057638
X051535
X051024
X050512
X048386Y058484
X048386Y060039
X048346Y061299
X047874
X047362
X046890Y061378
Y061693
Y062008
X046968Y060866
X047785Y057254
X047969Y054871
X050069Y053819
X050935Y053189
X050994Y054557
X054872Y057904
X057726Y059331
X057815Y060561
X058228Y060551
X054846Y049711
X053946Y049961
X044183Y050030
Y049675
Y050384
X043763Y050384
X043343
X042923Y050384
Y050030
Y049675
X042549Y050797
X041909Y048593
X041319Y048957
X040404Y048218
X043179Y047854
X044498Y053189
X044449Y053888
X044291Y055394
X044528Y055630
X045000
X044764Y055394
X044016Y055630
X043780Y055394
X043346Y055630
Y056024
Y056417
X042992Y056220
Y055827
X042756Y056959
X043728Y056976
Y057376
Y057776
Y058176
X044128
Y057776
Y057376
Y056976
X044528
X044928
X045328
Y057376
X044928
Y057776
X045328
Y058176
X044928
X044528
Y057776
Y057376
X046417Y056339
X046821Y060039
X045256
X043691
X042126
X041467Y059370
Y058248
X041496Y057244
X039498Y058750
X039094
Y059272
X039154Y059833
X039537Y060197
X040079
Y059498
X040454Y061341
X039173Y060866
X038068Y061761
X034577Y061083
Y060620
X034213Y058760
X034370Y058150
X032992Y058110
X033209Y057648
X032756Y057559
Y057067
X032913Y056654
X033668Y056711
X032913Y055748
Y054882
X033307Y055000
X033969Y054361
X033465Y052874
X033619Y051761
X033632Y049478
X033346Y049173
X032369Y049211
X031569Y049111
X031869Y048761
X031569Y048261
Y047711
X032244Y047026
X032618
X032992
X034124Y046949
X033858Y047874
X034055Y048858
X034734Y049203
X035768Y049161
X035468Y048511
X036068Y048461
X035468Y047111
X032599Y050331
X031469Y049961
X031969Y053061
X032362Y053356
X032757Y058975
X035906Y059291
X036417Y058898
X036988Y057992
X037028Y056043
X042339Y061341
X044223
X045258Y062001
X046108Y061341
X046519Y062481
X030069Y061398
X029086Y059677
X029094Y059291
X029330Y057787
X029055Y057441
X028220Y057482
X025921Y057321
X025551Y057323
X025512Y056614
X026024Y056299
X025896Y055768
X026388Y055669
X026722Y055295
X026713Y056083
X026457Y056575
X026084Y056960
X025335Y058199
X024409Y057638
X024232Y057234
X023858Y057205
X023583Y056890
X022910
X022421Y057037
X022220Y056199
X022283Y055039
X022598Y054872
X022800Y054523
X023740Y054567
X023722Y054174
X023680Y053771
X023368Y053431
X023468Y052771
X023780Y052441
X023763Y052064
X024569Y051841
X023977Y051231
X025138Y051053
X025552Y051034
X025433Y049934
X024889Y049881
X025167Y049144
X025551Y049134
X026319Y049111
X026871Y049548
X026870Y048514
X026850Y047992
X026860Y047480
X027608Y047411
Y048504
X028771Y048475
X029144Y048711
X028622Y049449
Y049843
X029469Y049961
X029409Y050925
X030041Y050541
X030751Y049643
X030919Y049111
Y048261
X030246Y047392
X028780Y047480
X028583Y047992
X028337Y051348
X027648Y051033
X026673Y051348
X026565Y052815
X026132Y053081
X026457Y053494
X026014Y053789
X026565Y054193
X026417Y054793
X025768Y055157
X024415Y055669
X024283Y054647
Y053623
X027657Y053032
X027678Y052531
X028182Y052923
X028780Y053032
X029252Y052717
X029331Y053779
X029331Y054291
X030217Y054468
X030669Y054596
X030482Y053917
X019990Y054094
X020000Y053701
X020368Y053261
X020010Y052372
Y051988
X019222Y052037
X019489Y050401
X019498Y049601
X019018Y049211
X018319Y049111
X017768
Y048411
X018319
Y047761
X018669Y048711
X019991Y049145
X020512Y049134
X021063
X022269Y049111
X022819
X023419Y049161
X023068Y048711
X022819Y048361
X022269
X022719Y047761
X022333Y047018
X023364Y047095
X023738
X024112
X025118Y047018
X025000Y047874
X024548Y049131
X023519Y049961
X022719Y049711
X021569Y049861
X021369Y050211
X020368Y049961
X020669Y047874
X020699Y047018
X019726Y047095
X019352
X018978
X016242Y047016
X016142Y047874
X016102Y049252
X016818Y049191
X017399Y049491
X017469Y050011
X017278Y050361
X016457Y049961
X015913
X016644Y051811
X017520Y052539
X017766Y053100
X017687Y055276
X018573Y055492
X018720Y055915
X017923Y056171
X016968Y056391
X016688Y057111
X017776Y058110
X019439Y058721
X020079Y059134
X020344Y059409
X020748Y060325
X020472Y062402
X022248Y061241
X024970Y061023
X026752Y061585
X027157Y061557
X022726Y058199
X021446Y058432
X021093Y057165
X020143Y057061
X019769
X019396
X019392Y057438
X019769Y057435
X020143
Y056687
X019769
X019394Y056677
X019547Y055423
X019938Y055431
X020259Y055671
X021093Y055720
X020278Y054551
X016349Y059331
X016437Y060561
X016850Y060551
X013494Y057904
X012746Y051831
X012569Y049961
X013469Y049711
X013569Y048911
X013068
Y048361
X013569
X013819Y047761
X013297Y047016
X014468Y047095
X014843
X015217
X015472Y049203
X014669Y049161
X014168Y048711
X015268Y050261
X014480Y065087
X014780Y065787
X014480Y066487
X013780Y066787
X013080Y066487
X012780Y065787
X013080Y065087
X013780Y064787
Y068764
X013080Y069064
X012780Y069764
X013080Y070464
X013780Y070764
X014480Y070464
X014780Y069764
X014480Y069064
X014301Y072402
X013976
X013528Y071883
X013178Y073033
X013159Y073543
X012677Y074449
X012795Y074685
X013297Y075008
X014468Y075087
Y074713
X014843
Y074341
X014465Y074336
X015226Y074339
X015217Y074713
Y075087
X014843
X013819Y075753
X013569Y076353
X013068
Y076903
X013569
X014168Y076703
X014669Y077153
X015472Y077195
X013469Y077703
X012569Y077953
X015453Y072411
X015787Y072402
X016535Y072323
Y073110
X016604Y073553
X016978Y074173
Y074468
X017283Y074478
Y074173
X017598Y073543
X017618Y073110
Y072323
X018425Y072362
X018819
X019882Y072323
X020197
X021063
Y073110
Y073543
X022008
X022047Y073110
Y072323
X022795Y072362
X023110
X024291Y072323
X024606
X025048Y072323
X025119Y072803
X025468Y073133
X025945Y074016
X026198Y074783
X026718Y074513
X026860Y075472
X026850Y075984
X026870Y076506
X027608Y076496
Y075404
X028780Y075472
X028583Y075984
X028771Y076467
X029144Y076703
X028622Y077441
Y077835
X029469Y077953
X030751Y077636
X030919Y077103
Y076253
X030246Y075384
X029843Y074331
X030354Y073858
X030630
X030906Y073504
X028583Y074055
X028661Y074724
X025118Y075010
X025000Y075866
X025167Y077136
X025551Y077126
X026319Y077103
X026871Y077540
X025433Y077926
X024889Y077873
X024548Y077123
X023419Y077153
X022819Y077103
X022269
Y076353
X022819
X023068Y076703
X022719Y075753
X022333Y075010
X023364Y075087
Y074713
X023738
Y074341
X023360Y074336
X024122Y074339
X024112Y074713
Y075087
X023738
X021693Y074449
X021417
X020699Y075010
X020669Y075866
X020512Y077126
X019991Y077137
X019498Y077593
X019018Y077203
X018319Y077103
X017768
Y076403
X018319
Y075753
X018669Y076703
X018978Y075087
Y074713
X019352
Y074341
X018974Y074336
X019735Y074339
X019726Y074713
Y075087
X019352
X016242Y075008
X016142Y075866
X016102Y077244
X016818Y077183
X017399Y077483
X017469Y078003
X016457Y077953
X015913
X020368
X021569Y077853
X021063Y077126
X022719Y077703
X023519Y077953
X023438Y070433
X022778
X021878Y070423
X020698Y070543
X020348Y070553
X019218Y070433
X018719Y070403
X017478Y070523
X016839Y070503
X016338Y070533
X015948Y070133
X019268Y063711
X025708Y071773
X031198Y070113
X031539Y070433
X031918Y070423
X032518Y070433
X033379
X033958
X034339
X035856Y069803
X036368Y072763
Y073110
Y073457
Y073804
Y074151
X036068Y074453
X035236Y074409
Y074163
X035187Y073346
Y072987
Y072628
X034818Y072353
X034449Y072913
X034567Y073465
X034124Y074941
X033858Y075866
X034055Y076850
X033346Y077165
X033632Y077470
X034734Y077195
X035768Y077153
X035468Y076503
X036068Y076453
X035468Y075103
X032992Y075018
Y074644
X032618
Y074272
X032241Y074267
X032244Y074644
Y075018
X032618
X033002Y074270
X033189Y072362
X033543
X032087
X031732
X031569Y075703
Y076253
X031869Y076753
X031569Y077103
X032369Y077203
X031469Y077953
X040404Y076211
X041319Y076949
X041909Y076585
X043179Y075846
X042923Y077667
Y078022
X044183
Y077667
X046024Y074567
X046638Y074153
X046132Y073130
Y072421
X046486Y071270
X046149Y066891
X045349Y066241
X044764Y066253
X044264Y066891
X042379
X040493
X038609
X038398Y065541
Y064081
Y062621
X034154Y063760
X033858Y063466
X034852Y064764
X042789Y064611
X043522Y064120
X043915
X044309
Y063726
Y063333
X043915
X043522
Y063726
X043915
X044639Y064441
X045718Y065061
X045854Y065577
X046519Y065671
Y064076
X044188Y062541
X047310Y062567
X047710
X048110
Y062967
Y063367
Y063767
X047710
Y063367
Y062967
X047310
Y063367
Y063767
X048510
X048910
Y063367
X048510
Y062967
X048910
Y062567
X048510
X050481Y065087
X050181Y065787
X050481Y066487
X051181Y066787
X051881Y066487
X052181Y065787
X051881Y065087
X051181Y064787
X054457Y065087
X054157Y065787
X054457Y066487
X055157Y066787
X055857Y066487
X056157Y065787
X055857Y065087
X055157Y064787
Y068764
X054457Y069064
X054157Y069764
X054457Y070464
X055157Y070764
X055857Y070464
X056157Y069764
X055857Y069064
X057326Y070133
X057716Y070533
X058216Y070503
X058856Y070523
X060096Y070403
X060596Y070433
X061726Y070553
X062076Y070543
X062441Y072323
Y073110
Y073543
X062077Y075010
X062047Y075866
X061890Y077126
X061369Y077137
X060876Y077593
X060396Y077203
X059696Y077103
X059146
Y076403
X059696
Y075753
X060046Y076703
X060356Y075087
Y074713
X060730
Y074341
X060352Y074336
X061113Y074339
X061104Y074713
Y075087
X060730
X058661Y074478
Y074173
X058356
Y074468
X057620Y075008
X057520Y075866
X057480Y077244
X056850Y077195
X056046Y077153
X055546Y076703
X054946Y076903
X054446
Y076353
X054946
X055196Y075753
X054675Y075008
X054173Y074685
X054055Y074449
X054537Y073543
X054556Y073033
X055354Y072402
X055679
X056831Y072411
X057165Y072402
X057913Y072323
Y073110
X057982Y073553
X058976Y073543
X058996Y073110
Y072323
X059803Y072362
X060197
X061260Y072323
X061575
X062441Y077126
X061746Y077953
X058846Y078003
X058776Y077483
X058196Y077183
X057835Y077953
X057291
X054846Y077703
X053946Y077953
X051801Y076949
X051398Y076949
X050994Y076968
X050591Y076949
Y076535
Y076142
Y075748
X050994
X051398
X051801
X050187
Y076142
Y076535
Y076929
X048998Y077393
X048579Y077253
X047779
X047329Y077453
X047049Y077713
X047859Y075323
X048488
X047480Y074094
X047717Y072953
X047628Y072441
X047303Y071270
X048632Y071024
X049488Y071250
X050481Y070464
X050181Y069764
X050481Y069064
X051181Y068764
X051881Y069064
X052181Y069764
X051881Y070464
X051181Y070764
X049331Y073622
X055843Y074336
X055846Y074713
X056220
Y074341
X056604Y074339
X056594Y074713
Y075087
X056220
X055846
X054906Y071883
X060646Y063711
X063256Y070423
X064156Y070433
X064816
X064488Y072362
X064173
X063425Y072323
Y073110
X063386Y073543
X063071Y074449
X062795
X063711Y075010
X064742Y075087
Y074713
X065116
Y074341
X064738Y074336
X065500Y074339
X065490Y074713
Y075087
X065116
X066496Y075010
X066378Y075866
X066545Y077136
X066929Y077126
X067696Y077103
X068249Y077540
X068248Y076506
X068228Y075984
X068238Y075472
X068986Y075404
Y076496
X070149Y076467
X070522Y076703
X070000Y077441
Y077835
X070846Y077953
X072129Y077636
X072296Y077103
X072946
X073246Y076753
X072946Y076253
Y075703
X072296Y076253
X071624Y075384
X071220Y074331
X071732Y073858
X072008
X072283Y073504
X073110Y072362
X073465
X074567
X074921
X076196Y072353
X076565Y072628
Y072987
Y073346
X075945Y073465
X075827Y072913
X076614Y074163
Y074409
X077446Y074453
X077746Y074151
Y073804
Y073457
Y073110
Y072763
X076846Y075103
Y076503
X077446Y076453
X077146Y077153
X076112Y077195
X075433Y076850
X074724Y077165
X075010Y077470
X073746Y077203
X072846Y077953
X073622Y075018
Y074644
X073996
Y074272
X073618Y074267
X074380Y074270
X074370Y074644
Y075018
X073996
X075502Y074941
X075236Y075866
X069961Y075984
X070157Y075472
X070039Y074724
X069961Y074055
X068096Y074513
X067576Y074783
X067323Y074016
X066846Y073133
X066496Y072803
X066426Y072323
X065984Y072323
X065669
X067086Y071773
X066811Y077926
X066266Y077873
X065926Y077123
X064796Y077153
X064196Y077103
X063646
Y076353
X064196
X064446Y076703
X064096Y075753
Y077703
X064896Y077953
X062946Y077853
X072576Y070113
X072916Y070433
X073296Y070423
X073896Y070433
X074756
X075336
X075716
X077234Y069803
X076230Y064764
X075532Y063760
X075236Y063466
X079776Y064081
Y062621
Y065541
X079986Y066891
X081871
X083756
X085641
X086142Y066253
X086726Y066241
X087232Y065577
X087096Y065061
X087896Y065671
X087526Y066891
X087896Y064076
X088688Y063767
Y063367
Y062967
Y062567
X089088
X089488
Y062967
Y063367
Y063767
X089088
Y063367
Y062967
X089888
Y063367
Y063767
X090288
Y063367
Y062967
Y062567
X089888
X085566Y062541
X085687Y063333
X085293
X084900
Y063726
Y064120
X085293
X085687
Y063726
X085293
X086016Y064441
X084166Y064611
X091859Y065087
X091559Y065787
X091859Y066487
X092559Y066787
X093259Y066487
X093559Y065787
X093259Y065087
X092559Y064787
Y068764
X091859Y069064
X091559Y069764
X091859Y070464
X092559Y070764
X093259Y070464
X093559Y069764
X093259Y069064
X090866Y071250
X090010Y071024
X088681Y071270
X087864
X087510Y072421
Y073130
X088016Y074153
X088858Y074094
X089094Y072953
X089006Y072441
X090709Y073622
X089866Y075323
X089236
X089156Y077253
X088706Y077453
X088426Y077713
X089956Y077253
X090376Y077393
X091565Y076929
Y076535
Y076142
Y075748
X091968
Y076142
Y076535
Y076949
X092372Y076968
X092776Y076949
X093179Y076949
Y075748
X092776
X092372
X087402Y074567
X084557Y075846
X083287Y076585
X082697Y076949
X081782Y076211
X084301Y077667
Y078022
X085561
Y077667
X093750Y079705
X093120Y079163
X092559Y079291
X092008
X091496Y078740
X091968Y078189
X092372
X092844
X090796Y078193
X090581Y079961
X090669Y080856
X089311Y080827
X088701Y081122
X088770Y080010
X090010Y081811
X090846Y082353
X090669Y082874
X090689Y083533
X091683Y084203
X092257
X092831
X093406
X093425Y085630
X092913
X092402
X091890
X089764Y086476
X089764Y088032
X089724Y089291
X089252
X088740
X088268Y089370
Y089685
Y090000
X087896Y090473
X088688Y090559
X089088
X089488
Y090959
Y091359
Y091759
X089088
Y091359
Y090959
X088688
Y091359
Y091759
X087896Y092068
Y093663
X087232Y093569
X087096Y093053
X086016Y092433
X085687Y092112
Y091719
Y091325
X085293
X084900
Y091719
Y092112
X085293
Y091719
X085566Y090533
X085601Y089333
X086636Y089993
X087486Y089333
X088346Y088858
X088199Y088032
X086634
X085069
X083504
X082844Y087362
Y086240
X082874Y085236
X084134Y084951
X084370Y084213
Y083819
X084724Y084016
Y083622
X085394
X085157Y083386
X085669
X085906Y083622
X086378
X086142Y083386
X086306Y084968
X086706
Y085368
X086306
Y085768
X086706
Y086168
X086306
X085906
X085506
X085106
Y085768
X085506
Y085368
X085106
Y084968
X085506
X085906
Y085368
Y085768
X084724Y084409
X087795Y084331
X089163Y085246
X089346Y082863
X091447Y081811
X092313Y081181
X092372Y082549
X085827Y081880
X085876Y081181
X085561Y078376
X085141Y078376
X084721
X084301Y078376
X083927Y078789
X083716Y089333
X081831
X081457Y088189
X080915
X080532Y087825
X080472Y087264
Y086742
X080876
X081457Y087490
X080551Y088858
X079446Y089753
X079776Y090613
Y092073
Y093533
X084166Y092603
X089888Y091759
X090288
Y091359
X089888
Y090959
X090288
Y090559
X089888
X091859Y093080
X092559Y092780
X093259Y093080
X078366Y085984
X078406Y084035
X077795Y086890
X077283Y087283
X075591Y086752
X075748Y086142
X074370Y086102
X074587Y085640
X074134Y085551
Y085059
X074291Y084646
X075046Y084703
X074291Y083740
Y082874
X074685Y082992
X075346Y082353
X074843Y080866
X074996Y079753
X073976Y078323
X071419Y078533
X070787Y078917
X069715Y079341
X069026Y079026
X068051Y079341
X066930Y079027
X066516Y079045
X065355Y079223
X065141Y080056
X065157Y080433
X064846Y080763
X064746Y081423
X065058Y081763
X065099Y082167
X065118Y082559
X065661Y082639
Y081615
X067392Y081782
X067835Y081486
X067510Y081073
X067943Y080807
X069035Y081024
X069056Y080523
X069560Y080915
X070157Y081024
X070630Y080709
X070709Y081772
X070709Y082283
X071594Y082461
X072047Y082589
X071860Y081909
X073346Y081053
X073740Y081348
X074135Y086967
X075955Y088612
Y089075
X075532Y091752
X075236Y091458
X076230Y092756
X071447Y089390
X070464Y087669
X070472Y087283
X070708Y085779
X070433Y085433
X069598Y085474
X067299Y085313
X066929Y085315
X066890Y084606
X067402Y084291
X067274Y083760
X067766Y083661
X068100Y083287
X068091Y084075
X067835Y084567
X067462Y084952
X066713Y086191
X065787Y085630
X065610Y085226
X065236Y085197
X064961Y084882
X064288
X063799Y085030
X063597Y084191
X063661Y083032
X063976Y082864
X064178Y082515
X065793Y083661
X067146Y083150
X067795Y082785
X067943Y082185
X065946Y079833
X062746Y078203
X062823Y086424
X064104Y086191
X063626Y089233
X066348Y089015
X068130Y089577
X068535Y089549
X061850Y090394
X062126Y088317
X061722Y087402
X061457Y087126
X060816Y086713
X060770Y085430
X061146Y085427
Y085053
X060774
X060772Y084669
X061146Y084679
X061520
Y085053
Y085427
X062470Y085157
X062471Y083712
X061636Y083663
X061316Y083423
X060925Y083415
X059951Y083484
X060098Y083907
X059301Y084163
X059065Y083268
X058346Y084383
X058066Y085103
X059154Y086102
X057726Y087323
X057815Y088553
X058228Y088543
X060646Y091703
X055857Y093080
X055157Y092780
X054457Y093080
X051881
X051181Y092780
X050481Y093080
X048910Y091759
X048510
X048110
Y091359
Y090959
Y090559
X047710
X047310
Y090959
X047710
Y091359
X047310
Y091759
X047710
X048510Y091359
X048910
Y090959
X048510
Y090559
X048910
X048346Y089291
X047874
X047362
X046890Y089370
Y089685
Y090000
X046968Y088858
X048386Y088032
X048386Y086476
X047785Y085246
X047969Y082863
X049291Y082874
X049311Y083533
X049468Y082353
X050069Y081811
X048632
X049291Y080856
X049203Y079961
X047392Y080010
X047323Y081122
X047933Y080827
X050935Y081181
X050994Y082549
X050879Y084203
X050305
X051453
X052028
X052047Y085630
X051535
X051024
X050512
X054872Y085896
X054124Y079823
X052372Y079705
X051742Y079163
X051181Y079291
X050630
X050118Y078740
X050591Y078189
X050994
X051467
X049419Y078193
X056646Y078253
X058656Y078353
X058022Y079803
X058898Y080532
X059144Y081093
X060600Y080030
X061388Y079980
Y080364
X061746Y081253
X061378Y081693
X061368Y082087
X061656Y082543
X060866Y078393
X044183Y078376
X043763Y078376
X043343
X042923Y078376
X042549Y078789
X044498Y081181
X044449Y081880
X044291Y083386
X044528Y083622
X045000
X044764Y083386
X044016Y083622
X043780Y083386
X043346Y083622
Y084016
Y084409
X042992Y084213
Y083819
X042756Y084951
X043728Y084968
Y085368
Y085768
Y086168
X044128
Y085768
Y085368
Y084968
X044528
X044928
X045328
Y085368
X044928
Y085768
X045328
Y086168
X044928
X044528
Y085768
Y085368
X046417Y084331
X046821Y088032
X045256
X043691
X042126
X041467Y087362
Y086240
X041496Y085236
X039498Y086742
X039094
Y087264
X039154Y087825
X039537Y088189
X040079
Y087490
X040454Y089333
X039173Y088858
X038068Y089753
X038398Y090613
Y092073
Y093533
X034852Y092756
X034154Y091752
X033858Y091458
X034577Y089075
Y088612
X034213Y086752
X034370Y086142
X032992Y086102
X033209Y085640
X032756Y085551
Y085059
X032913Y084646
X033668Y084703
X032913Y083740
Y082874
X033307Y082992
X033969Y082353
X033465Y080866
X033619Y079753
X032599Y078323
X032362Y081348
X031969Y081053
X032757Y086967
X035906Y087283
X036417Y086890
X036988Y085984
X037028Y084035
X042339Y089333
X044223
X044188Y090533
X044309Y091325
X043915
X043522
Y091719
Y092112
X043915
X044309
Y091719
X043915
X044639Y092433
X045718Y093053
X045854Y093569
X046519Y093663
Y092068
Y090473
X046108Y089333
X045258Y089993
X042789Y092603
X030069Y089390
X029086Y087669
X029094Y087283
X029330Y085779
X029055Y085433
X028220Y085474
X025921Y085313
X025551Y085315
X025512Y084606
X026024Y084291
X025896Y083760
X026388Y083661
X026722Y083287
X026713Y084075
X026457Y084567
X026084Y084952
X025335Y086191
X024409Y085630
X024232Y085226
X023858Y085197
X023583Y084882
X022910
X022421Y085030
X022220Y084191
X022283Y083032
X022598Y082864
X022800Y082515
X023740Y082559
X023722Y082167
X023680Y081763
X023368Y081423
X023468Y080763
X023780Y080433
X023763Y080056
X024569Y079833
X023977Y079223
X025138Y079045
X025552Y079027
X026673Y079341
X027648Y079026
X028337Y079341
X029409Y078917
X030041Y078533
X029252Y080709
X028780Y081024
X028182Y080915
X027657Y081024
X027678Y080523
X026565Y080807
X026132Y081073
X026457Y081486
X026014Y081782
X026565Y082185
X026417Y082785
X025768Y083150
X024415Y083661
X024283Y082639
Y081615
X020368Y081253
X020000Y081693
X019990Y082087
X020278Y082543
X020259Y083663
X019938Y083423
X019547Y083415
X018573Y083484
X018720Y083907
X017923Y084163
X017687Y083268
X016968Y084383
X016688Y085103
X017776Y086102
X019439Y086713
X020079Y087126
X020344Y087402
X020748Y088317
X020472Y090394
X019268Y091703
X022248Y089233
X024970Y089015
X026752Y089577
X027157Y089549
X022726Y086191
X021446Y086424
X021093Y085157
X020143Y085053
X019769
X019396
X019392Y085430
X019769Y085427
X020143
Y084679
X019769
X019394Y084669
X021093Y083712
X020010Y080364
Y079980
X019222Y080030
X019489Y078393
X021369Y078203
X017278Y078353
X016644Y079803
X017520Y080532
X017766Y081093
X016349Y087323
X016437Y088553
X016850Y088543
X029331Y082283
X029331Y081772
X030482Y081909
X030217Y082461
X030669Y082589
X015268Y078253
X012746Y079823
X013494Y085896
X013780Y092780
X013080Y093080
X014480
X014780Y093780
X014480Y094480
X013780Y094780
X013080Y094480
X012780Y093780
X038609Y094883
X040493
X042379
X044264
X044764Y094245
X045349Y094233
X046149Y094883
X050481Y094480
X050181Y093780
X052181
X051881Y094480
X051181Y094780
X054457Y094480
X054157Y093780
X056157
X055857Y094480
X055157Y094780
X079986Y094883
X081871
X083756
X085641
X086142Y094245
X086726Y094233
X087526Y094883
X091859Y094480
X091559Y093780
X093559
X093259Y094480
X092559Y094780
T02
X043099Y034569
X084476
X043099Y062561
X084476
Y090553
X043099
T03
X041280Y031998
X082657
Y059990
X041280
X082657Y087982
X041280
T04
X015610Y031398
X044429Y034128
X048543Y038780
X056988Y031398
X085806Y034128
X089921Y038780
X085806Y062121
X056988Y059390
X044429Y062121
X015610Y059390
X048543Y066772
X089921
X085806Y090113
X056988Y087382
X044429Y090113
X015610Y087382
X048543Y094764
X089921
T05
X037598Y014843
X038100Y015315
X078976Y014843
X079478Y015315
X080020Y015886
X038642
X041859Y034092
X043795Y036964
X043798Y038108
X038100Y043307
X037598Y042835
X038642Y043878
X080020
X079478Y043307
X078976Y042835
X085176Y038108
X085173Y036964
X083237Y034092
Y062084
X041859
X043795Y064957
X043798Y066101
X038100Y071299
X037598Y070827
X038642Y071870
X080020
X079478Y071299
X078976Y070827
X085176Y066101
X085173Y064957
X083237Y090076
X085173Y092949
X043795
X041859Y090076
X043798Y094093
X085176
T06
X029465Y033754
Y034754
X030465
Y033754
X030484Y037425
X029484
Y038425
X030484
X031484
Y037425
X032484
Y038425
X033484
Y037425
X033465Y034754
X032465
X031465
Y033754
X032465
X033465
X035915Y035026
X036915
Y036026
X035915
Y037026
X036915
Y038026
X035915
Y039026
X036915
X070862Y038425
Y037425
X071862
Y038425
X072862
Y037425
X073862
Y038425
X074862
Y037425
X074843Y034754
X073843
X072843
X071843
X070843
Y033754
X071843
X072843
X073843
X074843
X077293Y035026
Y036026
Y037026
Y038026
Y039026
X078293
Y038026
Y037026
Y036026
Y035026
X074843Y061746
X073843
X072843
X071843
X070843
X033465
X032465
X031465
X030465
X029465
Y062746
X030465
X030484Y065417
X029484
Y066417
X030484
X031484
Y065417
X032484
Y066417
X033484
Y065417
X033465Y062746
X032465
X031465
X035915Y063018
X036915
Y064018
X035915
Y065018
X036915
Y066018
X035915
Y067018
X036915
X070862Y066417
Y065417
X071862
Y066417
X072862
Y065417
X073862
Y066417
X074862
Y065417
X074843Y062746
X073843
X072843
X071843
X070843
X077293Y063018
Y064018
Y065018
Y066018
Y067018
X078293
Y066018
Y065018
Y064018
Y063018
Y091010
Y092010
Y093010
X077293
Y092010
Y091010
X074843Y090738
X073843
X072843
X071843
X070843
Y089738
X071843
X072843
X073843
X074843
X074862Y093409
X073862
X072862
X071862
X070862
X036915Y093010
Y092010
Y091010
X035915
Y092010
Y093010
X033484Y093409
X032484
X031484
X031465Y090738
Y089738
X032465
Y090738
X033465
Y089738
X030465
X029465
Y090738
X030465
X030484Y093409
X029484
Y094409
X030484
X031484
X032484
X033484
X035915Y094010
X036915
Y095010
X035915
X070862Y094409
X071862
X072862
X073862
X074862
X077293Y094010
Y095010
X078293
Y094010
T07
X057015Y026665
X057805
Y027657
X057015
X016427
X015637
Y026665
X016427
X017664Y031644
Y032644
X018664
Y031644
X019664
Y032644
X023390
Y031644
X024390
Y032644
X025390
Y031644
X059042
Y032644
X060042
Y031644
X061042
Y032644
X064768
Y031644
X065768
Y032644
X066768
Y031644
Y059636
X065768
X064768
Y060636
X065768
X066768
X061042
X060042
X059042
Y059636
X060042
X061042
X057805Y055650
X057015
Y054657
X057805
X025390Y059636
X024390
X023390
Y060636
X024390
X025390
X019664
X018664
X017664
Y059636
X018664
X019664
X016427Y055650
X015637
Y054657
X016427
X064768Y087628
Y088628
X065768
Y087628
X066768
Y088628
X061042
X060042
X059042
Y087628
X060042
X061042
X057805Y083642
X057015
Y082650
X057805
X025390Y087628
X024390
X023390
Y088628
X024390
X025390
X019664
X018664
X017664
Y087628
X018664
X019664
X016427Y083642
X015637
Y082650
X016427
T08
X016610Y013386
X017610
X018610
X019610
X021728
X022728
X023728
X024728
X026846
X027846
X028846
X029846
X031965
X032965
X033965
X034965
X057988
X058988
X059988
X060988
X063106
X064106
X065106
X066106
X068224
X069224
X070224
X071224
X073343
X074343
X075343
X076343
X079823Y022913
X081791
X083986Y025018
Y026418
X081406Y027598
X080406
X080354Y029882
X081354
X091831Y018220
Y016820
X093553Y016024
X071224Y016142
X070224
X069224
X068224
X076850Y022965
Y023965
Y026075
Y027075
Y029185
Y030185
X050453Y018220
Y016820
X052175Y016024
X042608Y025018
Y026418
X040028Y027598
X039028
X038976Y029882
X039976
X035472Y030185
Y029185
Y027075
Y026075
Y023965
Y022965
X038445Y022913
X040413
X029846Y016142
X028846
X027846
X026846
X012896Y032968
Y034748
X016323Y035433
X017323
X018323
X020457
X021457
X022457
X024591
X025591
X026591
Y037795
X025591
X024591
X022457
X021457
X020457
X018323
X017323
X016323
X016610Y041378
X017610
X018610
X019610
X021728
X022728
X023728
X024728
X026846
X027846
X028846
X029846
Y044134
X028846
X027846
X026846
X031965Y041378
X032965
X033965
X034965
X036496Y033335
Y032335
X054274Y032968
Y034748
X057701Y035433
X058701
X059701
X061835
Y037795
X059701
X058701
X057701
X057988Y041378
X058988
X059988
X060988
X052175Y044016
X050453Y044812
Y046212
X063106Y041378
X064106
X065106
X066106
X068224
X069224
X070224
X071224
X073343
X074343
X075343
X076343
X071224Y044134
X070224
X069224
X068224
X067969Y037795
X066968
X065968
X063835
X062835
Y035433
X063835
X065968
X066968
X067969
X077874Y033335
Y032335
X091831Y044812
Y046212
X093553Y044016
X083986Y053011
Y054411
X081406Y055591
X080406
X080354Y057874
X081354
X081791Y050906
X079823
X076850Y050957
Y051957
Y054067
Y055067
Y057177
Y058177
X077874Y060327
Y061327
X054274Y060960
X039976Y057874
X038976
X039028Y055591
X040028
X042608Y054411
Y053011
X040413Y050906
X038445
X035472Y050957
Y051957
Y054067
Y055067
Y057177
Y058177
X036496Y060327
Y061327
X012896Y060960
Y062740
X016323Y063425
X017323
X018323
X020457
X021457
X022457
X024591
X025591
X026591
Y065787
X025591
X024591
X022457
X021457
X020457
X018323
X017323
X016323
X016610Y069370
X017610
X018610
X019610
X021728
X022728
X023728
X024728
X026846
X027846
X028846
X029846
Y072126
X028846
X027846
X026846
X031965Y069370
X032965
X033965
X034965
X050453Y072804
Y074204
X052175Y072008
X057988Y069370
X058988
X059988
X060988
X061835Y065787
X059701
X058701
X057701
Y063425
X058701
X059701
X061835
X054274Y062740
X062835Y063425
X063835
X065968
X066968
X067969
Y065787
X066968
X065968
X063835
X062835
X063106Y069370
X064106
X065106
X066106
X068224
X069224
X070224
X071224
X073343
X074343
X075343
X076343
X071224Y072126
X070224
X069224
X068224
X091831Y072804
Y074204
X093553Y072008
X083986Y081003
Y082403
X081406Y083583
X080406
X080354Y085866
X081354
X081791Y078898
X079823
X076850Y078949
Y079949
Y082059
Y083059
Y085169
Y086169
X077874Y088319
Y089319
X067969Y091417
X066968
X065968
X063835
X062835
X061835
X059701
X058701
X057701
X054274Y090733
Y088953
X039976Y085866
X038976
X039028Y083583
X040028
X042608Y082403
Y081003
X040413Y078898
X038445
X035472Y078949
Y079949
Y082059
Y083059
Y085169
Y086169
X036496Y088319
Y089319
X026591Y091417
X025591
X024591
X022457
X021457
X020457
X018323
X017323
X016323
X012896Y090733
Y088953
X016323Y093780
X017323
X018323
X020457
X021457
X022457
X024591
X025591
X026591
X057701
X058701
X059701
X061835
X062835
X063835
X065968
X066968
X067969
T09
X082167Y017077
X084167
X086167
X088167
X092556Y028969
Y030968
X051178
Y028969
X046789Y017077
X044789
X042789
X040789
Y045069
X042789
X044789
X046789
X051178Y034969
Y032968
X092556
Y034969
X088167Y045069
X086167
X084167
X082167
X092556Y056961
Y058961
Y060961
X051178
Y058961
Y056961
X046789Y073061
X044789
X042789
X040789
X051178Y062961
X082167Y073061
X084167
X086167
X088167
X092556Y062961
Y084953
Y086953
Y088953
Y090953
X051178
Y088953
Y086953
Y084953
T10
X013876Y032478
Y035238
X055254
Y032478
Y060470
X013876
Y063230
X055254
Y088463
Y091223
X013876
Y088463
T11
X037243Y013659
X038583
X078621
X079961
Y018959
X078621
X086426Y020509
X087766
X089330Y020519
X090670
Y025819
X089330
X087766Y025809
X086426
X049292Y025819
X047952
Y020519
X049292
X046389Y020509
X045048
Y025809
X046389
X038583Y018959
X037243
Y041651
X038583
X078621
X079961
Y046951
X078621
X086426Y048502
X087766
X089330Y048511
X090670
Y053811
X089330
X087766Y053802
X086426
X049292Y053811
X047952
Y048511
X049292
X046389Y048502
X045048
Y053802
X046389
X038583Y046951
X037243
Y069643
X038583
Y074943
X037243
X045048Y076494
X046389
X047952Y076504
X049292
X078621Y074943
X079961
Y069643
X078621
X086426Y076494
X087766
X089330Y076504
X090670
Y081804
X089330
X087766Y081794
X086426
X049292Y081804
X047952
X046389Y081794
X045048
T12
X055945Y024795
Y029528
X014567
Y024795
X055945Y052787
Y057520
X014567
Y052787
X055945Y080780
Y085512
X014567
Y080780
T13
X010600Y010600
X013780Y013780
X051181
X055157
X092559
X095778Y010600
X013780Y037795
Y041772
X051181
X055157
Y037795
X051181
X092559
Y041772
X013780Y065787
Y069764
X051181
X055157
Y065787
X051181
X092559
Y069764
X013780Y093780
X010600Y096959
X051181Y093780
X055157
X092559
X095778Y096959
M30
