G04 Layer_Color=16711935*
%FSLAX24Y24*%
%MOIN*%
G70*
G01*
G75*
%ADD12C,0.0100*%
%ADD67C,0.0060*%
%ADD154C,0.0050*%
G54D12*
X33051Y20376D02*
Y23906D01*
X36815D01*
Y20376D02*
Y23906D01*
X33051Y20376D02*
X36815D01*
X32406Y25970D02*
X34768D01*
Y27545D01*
X32406D02*
X34768D01*
X32406Y25970D02*
Y27545D01*
X33051Y48376D02*
Y51906D01*
X36815D01*
Y48376D02*
Y51906D01*
X33051Y48376D02*
X36815D01*
X32406Y53970D02*
X34768D01*
Y55545D01*
X32406D02*
X34768D01*
X32406Y53970D02*
Y55545D01*
X33051Y76376D02*
Y79906D01*
X36815D01*
Y76376D02*
Y79906D01*
X33051Y76376D02*
X36815D01*
X32406Y81970D02*
X34768D01*
Y83545D01*
X32406D02*
X34768D01*
X32406Y81970D02*
Y83545D01*
X150Y103600D02*
X-250D01*
Y103000D01*
X150D01*
X-250Y103300D02*
X-50D01*
X350Y103000D02*
X550D01*
X450D01*
Y103400D01*
X350D01*
X850Y103000D02*
Y103400D01*
X1150D01*
X1250Y103300D01*
Y103000D01*
X1449D02*
X1749D01*
X1849Y103100D01*
X1749Y103200D01*
X1549D01*
X1449Y103300D01*
X1549Y103400D01*
X1849D01*
X2049D02*
Y103100D01*
X2149Y103000D01*
X2449D01*
Y102900D01*
X2349Y102800D01*
X2249D01*
X2449Y103000D02*
Y103400D01*
X3249Y103500D02*
X3349Y103600D01*
X3549D01*
X3649Y103500D01*
Y103100D01*
X3549Y103000D01*
X3349D01*
X3249Y103100D01*
Y103500D01*
X3849Y103000D02*
Y103100D01*
X3949D01*
Y103000D01*
X3849D01*
X4748Y103600D02*
X4349D01*
Y103300D01*
X4548Y103400D01*
X4648D01*
X4748Y103300D01*
Y103100D01*
X4648Y103000D01*
X4448D01*
X4349Y103100D01*
X5048Y103400D02*
X5248D01*
X5348Y103300D01*
Y103000D01*
X5048D01*
X4948Y103100D01*
X5048Y103200D01*
X5348D01*
X-250Y102350D02*
Y101850D01*
X-150Y101750D01*
X50D01*
X150Y101850D01*
Y102350D01*
X350D02*
Y101750D01*
X750D01*
X1549D02*
Y102350D01*
X1749Y102150D01*
X1949Y102350D01*
Y101750D01*
X2249Y102150D02*
X2449D01*
X2549Y102050D01*
Y101750D01*
X2249D01*
X2149Y101850D01*
X2249Y101950D01*
X2549D01*
X2749Y102150D02*
Y101750D01*
Y101950D01*
X2849Y102050D01*
X2949Y102150D01*
X3049D01*
X3349Y101750D02*
Y102350D01*
Y101950D02*
X3649Y102150D01*
X3349Y101950D02*
X3649Y101750D01*
X3949D02*
X4149D01*
X4049D01*
Y102150D01*
X3949D01*
X4448Y101750D02*
Y102150D01*
X4748D01*
X4848Y102050D01*
Y101750D01*
X5248Y101550D02*
X5348D01*
X5448Y101650D01*
Y102150D01*
X5148D01*
X5048Y102050D01*
Y101850D01*
X5148Y101750D01*
X5448D01*
X5648D02*
X5948D01*
X6048Y101850D01*
X5948Y101950D01*
X5748D01*
X5648Y102050D01*
X5748Y102150D01*
X6048D01*
G54D67*
X36269Y21278D02*
Y20878D01*
X36069D01*
X36002Y20944D01*
Y21011D01*
X36069Y21078D01*
X36269D01*
X36069D01*
X36002Y21144D01*
Y21211D01*
X36069Y21278D01*
X36269D01*
X35803Y20878D02*
X35669D01*
X35603Y20944D01*
Y21078D01*
X35669Y21144D01*
X35803D01*
X35869Y21078D01*
Y20944D01*
X35803Y20878D01*
X35403Y21211D02*
Y21144D01*
X35469D01*
X35336D01*
X35403D01*
Y20944D01*
X35336Y20878D01*
X34470Y21211D02*
X34536Y21278D01*
X34670D01*
X34736Y21211D01*
Y21144D01*
X34670Y21078D01*
X34536D01*
X34470Y21011D01*
Y20944D01*
X34536Y20878D01*
X34670D01*
X34736Y20944D01*
X34336Y20878D02*
X34203D01*
X34270D01*
Y21144D01*
X34336D01*
X34003Y20878D02*
X33870D01*
X33936D01*
Y21278D01*
X34003D01*
X33670Y20878D02*
Y21278D01*
Y21011D02*
X33470Y21144D01*
X33670Y21011D02*
X33470Y20878D01*
X34409Y26434D02*
Y26114D01*
X34249D01*
X34196Y26167D01*
Y26221D01*
X34249Y26274D01*
X34409D01*
X34249D01*
X34196Y26327D01*
Y26381D01*
X34249Y26434D01*
X34409D01*
X34036Y26114D02*
X33929D01*
X33876Y26167D01*
Y26274D01*
X33929Y26327D01*
X34036D01*
X34089Y26274D01*
Y26167D01*
X34036Y26114D01*
X33716Y26381D02*
Y26327D01*
X33769D01*
X33662D01*
X33716D01*
Y26167D01*
X33662Y26114D01*
X32969Y26381D02*
X33023Y26434D01*
X33129D01*
X33183Y26381D01*
Y26327D01*
X33129Y26274D01*
X33023D01*
X32969Y26221D01*
Y26167D01*
X33023Y26114D01*
X33129D01*
X33183Y26167D01*
X32863Y26114D02*
X32756D01*
X32809D01*
Y26327D01*
X32863D01*
X32596Y26114D02*
X32489D01*
X32543D01*
Y26434D01*
X32596D01*
X32329Y26114D02*
Y26434D01*
Y26221D02*
X32170Y26327D01*
X32329Y26221D02*
X32170Y26114D01*
X36269Y49278D02*
Y48878D01*
X36069D01*
X36002Y48944D01*
Y49011D01*
X36069Y49078D01*
X36269D01*
X36069D01*
X36002Y49144D01*
Y49211D01*
X36069Y49278D01*
X36269D01*
X35803Y48878D02*
X35669D01*
X35603Y48944D01*
Y49078D01*
X35669Y49144D01*
X35803D01*
X35869Y49078D01*
Y48944D01*
X35803Y48878D01*
X35403Y49211D02*
Y49144D01*
X35469D01*
X35336D01*
X35403D01*
Y48944D01*
X35336Y48878D01*
X34470Y49211D02*
X34536Y49278D01*
X34670D01*
X34736Y49211D01*
Y49144D01*
X34670Y49078D01*
X34536D01*
X34470Y49011D01*
Y48944D01*
X34536Y48878D01*
X34670D01*
X34736Y48944D01*
X34336Y48878D02*
X34203D01*
X34270D01*
Y49144D01*
X34336D01*
X34003Y48878D02*
X33870D01*
X33936D01*
Y49278D01*
X34003D01*
X33670Y48878D02*
Y49278D01*
Y49011D02*
X33470Y49144D01*
X33670Y49011D02*
X33470Y48878D01*
X34409Y54434D02*
Y54114D01*
X34249D01*
X34196Y54167D01*
Y54221D01*
X34249Y54274D01*
X34409D01*
X34249D01*
X34196Y54327D01*
Y54381D01*
X34249Y54434D01*
X34409D01*
X34036Y54114D02*
X33929D01*
X33876Y54167D01*
Y54274D01*
X33929Y54327D01*
X34036D01*
X34089Y54274D01*
Y54167D01*
X34036Y54114D01*
X33716Y54381D02*
Y54327D01*
X33769D01*
X33662D01*
X33716D01*
Y54167D01*
X33662Y54114D01*
X32969Y54381D02*
X33023Y54434D01*
X33129D01*
X33183Y54381D01*
Y54327D01*
X33129Y54274D01*
X33023D01*
X32969Y54221D01*
Y54167D01*
X33023Y54114D01*
X33129D01*
X33183Y54167D01*
X32863Y54114D02*
X32756D01*
X32809D01*
Y54327D01*
X32863D01*
X32596Y54114D02*
X32489D01*
X32543D01*
Y54434D01*
X32596D01*
X32329Y54114D02*
Y54434D01*
Y54221D02*
X32170Y54327D01*
X32329Y54221D02*
X32170Y54114D01*
X36269Y77278D02*
Y76878D01*
X36069D01*
X36002Y76944D01*
Y77011D01*
X36069Y77078D01*
X36269D01*
X36069D01*
X36002Y77144D01*
Y77211D01*
X36069Y77278D01*
X36269D01*
X35803Y76878D02*
X35669D01*
X35603Y76944D01*
Y77078D01*
X35669Y77144D01*
X35803D01*
X35869Y77078D01*
Y76944D01*
X35803Y76878D01*
X35403Y77211D02*
Y77144D01*
X35469D01*
X35336D01*
X35403D01*
Y76944D01*
X35336Y76878D01*
X34470Y77211D02*
X34536Y77278D01*
X34670D01*
X34736Y77211D01*
Y77144D01*
X34670Y77078D01*
X34536D01*
X34470Y77011D01*
Y76944D01*
X34536Y76878D01*
X34670D01*
X34736Y76944D01*
X34336Y76878D02*
X34203D01*
X34270D01*
Y77144D01*
X34336D01*
X34003Y76878D02*
X33870D01*
X33936D01*
Y77278D01*
X34003D01*
X33670Y76878D02*
Y77278D01*
Y77011D02*
X33470Y77144D01*
X33670Y77011D02*
X33470Y76878D01*
X34409Y82434D02*
Y82114D01*
X34249D01*
X34196Y82167D01*
Y82221D01*
X34249Y82274D01*
X34409D01*
X34249D01*
X34196Y82327D01*
Y82381D01*
X34249Y82434D01*
X34409D01*
X34036Y82114D02*
X33929D01*
X33876Y82167D01*
Y82274D01*
X33929Y82327D01*
X34036D01*
X34089Y82274D01*
Y82167D01*
X34036Y82114D01*
X33716Y82381D02*
Y82327D01*
X33769D01*
X33662D01*
X33716D01*
Y82167D01*
X33662Y82114D01*
X32969Y82381D02*
X33023Y82434D01*
X33129D01*
X33183Y82381D01*
Y82327D01*
X33129Y82274D01*
X33023D01*
X32969Y82221D01*
Y82167D01*
X33023Y82114D01*
X33129D01*
X33183Y82167D01*
X32863Y82114D02*
X32756D01*
X32809D01*
Y82327D01*
X32863D01*
X32596Y82114D02*
X32489D01*
X32543D01*
Y82434D01*
X32596D01*
X32329Y82114D02*
Y82434D01*
Y82221D02*
X32170Y82327D01*
X32329Y82221D02*
X32170Y82114D01*
G54D154*
X34519Y22290D02*
Y22040D01*
X34469Y21990D01*
X34369D01*
X34319Y22040D01*
Y22290D01*
X34219D02*
Y21990D01*
X34019D01*
X34519Y50290D02*
Y50040D01*
X34469Y49990D01*
X34369D01*
X34319Y50040D01*
Y50290D01*
X34219D02*
Y49990D01*
X34019D01*
X34519Y78290D02*
Y78040D01*
X34469Y77990D01*
X34369D01*
X34319Y78040D01*
Y78290D01*
X34219D02*
Y77990D01*
X34019D01*
M02*
