G04 Generated on UCAM*
%FSLAX25Y25*%
%MOIN*%
%IPPOS*%
%ADD10C,0.00800*%
%ADD11C,0.01800*%
%ADD12C,0.15610*%
%ADD13C,0.08500*%
%ADD14C,0.07240*%
%AMTHERS4*1,1-$6,$1,0,0*1,$6,$2,0,0*21,$6,$1,$3,0,0,$4+$5*21,$6,$3,$1,0,0,$4+$5*%
%ADD15THERS4,0.09800X0.08200X0.02200X45.00X0.00X0*%
%ADD16C,0.06200*%
%ADD17C,0.03700*%
%ADD18C,0.14010*%
%ADD19C,0.08100*%
%ADD20C,0.06000*%
%ADD21THERS4,0.09600X0.08000X0.02200X45.00X0.00X0*%
%ADD22C,0.10900*%
%ADD23C,0.07700*%
%ADD24C,0.08200*%
%ADD25THERS4,0.11800X0.10200X0.02200X45.00X0.00X0*%
%ADD26C,0.05740*%
%ADD27THERS4,0.09340X0.07740X0.02200X45.00X0.00X0*%
%ADD28C,0.03200*%
%ADD29C,0.03000*%
%ADD30C,0.09000*%
%SRX1Y1I0.00000J0.00000*%
%LN25543_layer2*%
%LPD*%
G36*
X91730Y91730D02*
X553710D01*
Y983860*
X91730*
Y91730*
G37*
%LPC*%
D10*
X118110Y233960D02*
X120460Y236310D01*
X167680Y332680D02*
X194890D01*
X198690Y328890*
X198690Y316830D02*
Y328890D01*
X198690Y316830D02*
X219290D01*
X120460Y236310D02*
X222510D01*
X224410Y238210*
Y263310*
X219290Y268430D02*
X224410Y263310D01*
X219290Y268430D02*
Y316830D01*
X155210Y320210D02*
X167680Y332680D01*
X155210Y303680D02*
Y320210D01*
X118110Y303680D02*
X155210D01*
X118110Y513880D02*
X120460Y516230D01*
X167680Y612610D02*
X194890D01*
X198690Y608810*
X198690Y596750D02*
Y608810D01*
X198690Y596750D02*
X219290D01*
X120460Y516230D02*
X222510D01*
X224410Y518130*
Y543230*
X219290Y548350D02*
X224410Y543230D01*
X219290Y548350D02*
Y596750D01*
X155210Y600130D02*
X167680Y612610D01*
X155210Y583610D02*
Y600130D01*
X118110Y583610D02*
X155210D01*
X118110Y793800D02*
X120460Y796150D01*
X167680Y892530D02*
X194890D01*
X198690Y888730*
X198690Y876670D02*
Y888730D01*
X198690Y876670D02*
X219290D01*
X120460Y796150D02*
X222510D01*
X224410Y798050*
Y823150*
X219290Y828270D02*
X224410Y823150D01*
X219290Y828270D02*
Y876670D01*
X155210Y880050D02*
X167680Y892530D01*
X155210Y863530D02*
Y880050D01*
X118110Y863530D02*
X155210D01*
D11*
X92720Y92720D02*
Y982870D01*
X552720*
X552720Y92720D02*
Y982870D01*
X92720Y92720D02*
X552720D01*
X118110Y118110D02*
X531500D01*
Y397640*
X118110Y397640D02*
X531500D01*
X118110Y118110D02*
Y397640D01*
X118110Y398030D02*
X531500D01*
Y677560*
X118110Y677560D02*
X531500D01*
X118110Y398030D02*
Y677560D01*
X118110Y677950D02*
X531500D01*
Y957480*
X118110Y957480D02*
X531500D01*
X118110Y677950D02*
Y957480D01*
D12*
X106000Y106000D03*
X543800D03*
Y969590D03*
X106000D03*
D13*
X464590Y132180D03*
X451180D03*
Y185190D03*
X464590D03*
X451680Y233490D03*
X465080D03*
Y286490D03*
X451680D03*
X435580Y132220D03*
X422180D03*
Y185220D03*
X435580D03*
X464590Y412110D03*
X451180D03*
Y465110D03*
X464590D03*
X451680Y513410D03*
X465080D03*
Y566410D03*
X451680D03*
X435580Y412150D03*
X422180D03*
Y465150D03*
X435580D03*
X464590Y692030D03*
X451180D03*
Y745030D03*
X464590D03*
X451680Y793330D03*
X465080D03*
Y846330D03*
X451680D03*
X435580Y692070D03*
X422180D03*
Y745070D03*
X435580D03*
D14*
X266610Y352910D03*
Y342910D03*
X256610Y352910D03*
Y342910D03*
X246610Y352910D03*
Y342910D03*
X236610Y352910D03*
Y342910D03*
X226610Y352910D03*
Y342910D03*
X216610Y352910D03*
Y342910D03*
X206610Y352910D03*
Y342910D03*
X266610Y632830D03*
Y622830D03*
X256610Y632830D03*
Y622830D03*
X246610Y632830D03*
Y622830D03*
X236610Y632830D03*
Y622830D03*
X226610Y632830D03*
Y622830D03*
X216610Y632830D03*
Y622830D03*
X206610Y632830D03*
Y622830D03*
X266610Y912750D03*
Y902750D03*
X256610Y912750D03*
Y902750D03*
X246610Y912750D03*
Y902750D03*
X236610Y912750D03*
Y902750D03*
X226610Y912750D03*
Y902750D03*
X216610Y912750D03*
Y902750D03*
X206610Y912750D03*
Y902750D03*
D15*
X167410Y353810D03*
X354720Y270750D03*
X481190Y382280D03*
X128960Y329680D03*
X354720Y239650D03*
Y301850D03*
X177410Y377910D03*
X209510D03*
X241310Y377950D03*
X167410Y633730D03*
X354720Y550670D03*
X481190Y662210D03*
X128960Y609600D03*
X354720Y519570D03*
Y581770D03*
X177410Y657830D03*
X209510D03*
X241310Y657870D03*
X167410Y913650D03*
X354720Y830590D03*
X481190Y942130D03*
X128960Y889530D03*
X354720Y799490D03*
Y861690D03*
X177410Y937750D03*
X209510D03*
X241310Y937800D03*
D16*
X177410Y353810D03*
X354720Y260750D03*
X481190Y372290D03*
X521750Y160240D03*
X128960Y347480D03*
X354720Y229650D03*
Y291850D03*
X379080Y281790D03*
Y291790D03*
Y301780D03*
X378980Y240390D03*
Y250380D03*
Y260380D03*
X167410Y377910D03*
X199510D03*
X231310Y377950D03*
X251310D03*
X261310D03*
X349690Y129950D03*
X339690D03*
X329690D03*
X319690D03*
X268470Y129910D03*
X278470D03*
X288470D03*
X298470D03*
Y157470D03*
X288470D03*
X278470D03*
X268470D03*
X217290Y129910D03*
X227290D03*
X237290D03*
X247290D03*
X196110D03*
X186110D03*
X176110D03*
X166110D03*
X177410Y633730D03*
X354720Y540670D03*
X481190Y652210D03*
X521750Y440160D03*
X128960Y627400D03*
X354720Y509570D03*
Y571770D03*
X379080Y561710D03*
Y571710D03*
Y581710D03*
X378980Y520310D03*
Y530310D03*
Y540310D03*
X167410Y657830D03*
X199510D03*
X231310Y657870D03*
X251310D03*
X261310D03*
X349690Y409870D03*
X339690D03*
X329690D03*
X319690D03*
X268470Y409830D03*
X278470D03*
X288470D03*
X298470D03*
Y437390D03*
X288470D03*
X278470D03*
X268470D03*
X217290Y409830D03*
X227290D03*
X237290D03*
X247290D03*
X196110D03*
X186110D03*
X176110D03*
X166110D03*
X177410Y913650D03*
X354720Y820590D03*
X481190Y932130D03*
X521750Y720080D03*
X128960Y907330D03*
X354720Y789490D03*
Y851690D03*
X379080Y841630D03*
Y851630D03*
Y861630D03*
X378980Y800230D03*
Y810230D03*
Y820230D03*
X167410Y937750D03*
X199510D03*
X231310Y937800D03*
X251310D03*
X261310D03*
X349690Y689790D03*
X339690D03*
X329690D03*
X319690D03*
X268470Y689750D03*
X278470D03*
X288470D03*
X298470D03*
Y717310D03*
X288470D03*
X278470D03*
X268470D03*
X217290Y689750D03*
X227290D03*
X237290D03*
X247290D03*
X196110D03*
X186110D03*
X176110D03*
X166110D03*
D17*
X130800Y130800D03*
X144800D03*
Y144800D03*
X130800D03*
X127800Y137800D03*
X147800D03*
X137800Y147800D03*
Y127800D03*
X130800Y370950D03*
X144800D03*
Y384950D03*
X130800D03*
X127800Y377950D03*
X147800D03*
X137800Y387950D03*
Y367950D03*
X504810Y370950D03*
X518810D03*
Y384950D03*
X504810D03*
X501810Y377950D03*
X521810D03*
X511810Y387950D03*
Y367950D03*
X504810Y130800D03*
X518810D03*
Y144800D03*
X504810D03*
X501810Y137800D03*
X521810D03*
X511810Y147800D03*
Y127800D03*
X453780Y340180D03*
X457590D03*
X472810Y135910D03*
X451080Y141590D03*
X464590Y140290D03*
X481190Y140790D03*
X475380Y140680D03*
X451280Y165880D03*
X454790Y155680D03*
X451590Y175380D03*
X464280Y174990D03*
X457990Y185190D03*
X457780Y192680D03*
X445490Y132180D03*
X396010Y301710D03*
X455780Y378080D03*
X389510Y292010D03*
X393710Y293110D03*
X409410Y341510D03*
X415310D03*
X421310D03*
X431690Y327380D03*
X439590Y325990D03*
X429690Y319690D03*
X378480Y194180D03*
X378780Y189580D03*
X393580Y211190D03*
X394480Y202080D03*
X403710Y341510D03*
X322310Y304410D03*
X331980Y304590D03*
X290710Y310310D03*
X238190Y243990D03*
X151490Y338190D03*
X463680Y369480D03*
X394880Y244290D03*
X415990Y241580D03*
X374990Y194590D03*
Y189580D03*
X469680Y314690D03*
X449690Y299690D03*
Y309680D03*
X459680D03*
X458580Y319580D03*
X459290Y329680D03*
X446480Y325590D03*
X449690Y317790D03*
X439690Y319690D03*
X419680D03*
X422490Y141590D03*
X428780Y132280D03*
X491790Y154790D03*
X478390Y145780D03*
Y157890D03*
X492890Y176580D03*
X475090Y172190D03*
X483690Y167090D03*
X483480Y186190D03*
X497280Y181590D03*
X480590Y197890D03*
X470590Y203480D03*
X471080Y197780D03*
X471480Y207280D03*
X435890Y195390D03*
X440780Y193680D03*
X444680Y197490D03*
X443690Y203480D03*
X444790Y209490D03*
X435480Y175490D03*
X428280Y176990D03*
X422490Y195480D03*
X428990Y185390D03*
X481790Y223180D03*
X460590Y249690D03*
X499280Y235980D03*
X483380Y231590D03*
X474180Y241390D03*
X483480Y250590D03*
X492580Y241690D03*
X497080Y246880D03*
X497280Y224890D03*
X464980Y222990D03*
X473390Y233590D03*
X464980Y243580D03*
X454090D03*
X458280Y233280D03*
X451780Y223180D03*
X444480Y233380D03*
X491380Y297780D03*
X475190Y297690D03*
X490080Y284890D03*
X499690Y295580D03*
X499780Y303380D03*
X493090Y306380D03*
X483480Y316280D03*
Y297180D03*
X472380Y286490D03*
X458480Y293580D03*
X458380Y286390D03*
X465190Y274590D03*
X451680Y274480D03*
X446080Y277080D03*
X444580Y286390D03*
X399690Y341480D03*
X153680Y324480D03*
X332380Y220780D03*
X275290Y234380D03*
X197900Y274060D03*
X194390Y307280D03*
X159890Y311980D03*
X200790Y311420D03*
X174380Y271590D03*
X242990Y290690D03*
X203440Y314170D03*
X214460Y304400D03*
X200100Y243800D03*
X164900Y324190D03*
X210930Y291730D03*
X199900Y261020D03*
X169680Y283980D03*
X166880Y291180D03*
X418280Y307280D03*
X415390Y128090D03*
Y136580D03*
X406090Y126490D03*
X410890D03*
X415390Y132280D03*
X380590Y147080D03*
X371390D03*
X380590Y152290D03*
X371390D03*
Y157560D03*
X380590Y157590D03*
X483380Y329290D03*
X474390Y339090D03*
X378780Y184390D03*
X374990Y184480D03*
X359190Y216880D03*
X237880Y261580D03*
X319690Y251290D03*
X423480Y345780D03*
X335280Y232080D03*
X323210Y244510D03*
X343480Y295880D03*
X392180Y274990D03*
X336580Y282890D03*
X339980Y246090D03*
X338880Y254980D03*
X343780Y267580D03*
X397990Y260890D03*
X403780D03*
X183090Y279590D03*
X169680Y249380D03*
Y246180D03*
X169590Y253590D03*
X156100Y313580D03*
X153880Y316180D03*
X322880Y232980D03*
X245110Y366010D03*
X248110D03*
X483380Y348890D03*
X418180Y300080D03*
X418380Y314390D03*
X208110Y366010D03*
X205110D03*
X433090Y163190D03*
X130800Y410720D03*
X144800D03*
Y424720D03*
X130800D03*
X127800Y417720D03*
X147800D03*
X137800Y427720D03*
Y407720D03*
X130800Y650870D03*
X144800D03*
Y664870D03*
X130800D03*
X127800Y657870D03*
X147800D03*
X137800Y667870D03*
Y647870D03*
X504810Y650870D03*
X518810D03*
Y664870D03*
X504810D03*
X501810Y657870D03*
X521810D03*
X511810Y667870D03*
Y647870D03*
X504810Y410720D03*
X518810D03*
Y424720D03*
X504810D03*
X501810Y417720D03*
X521810D03*
X511810Y427720D03*
Y407720D03*
X453780Y620110D03*
X457590D03*
X472810Y415830D03*
X451080Y421510D03*
X464590Y420210D03*
X481190Y420710D03*
X475380Y420610D03*
X451280Y445810D03*
X454790Y435610D03*
X451590Y455310D03*
X464280Y454910D03*
X457990Y465110D03*
X457780Y472610D03*
X445490Y412110D03*
X396010Y581630D03*
X455780Y658010D03*
X389510Y571930D03*
X393710Y573030D03*
X409410Y621430D03*
X415310D03*
X421310D03*
X431690Y607310D03*
X439590Y605910D03*
X429690Y599610D03*
X378480Y474110D03*
X378780Y469510D03*
X393580Y491110D03*
X394480Y482010D03*
X403710Y621430D03*
X322310Y584330D03*
X331980Y584510D03*
X290710Y590230D03*
X238190Y523910D03*
X151490Y618110D03*
X463680Y649410D03*
X394880Y524210D03*
X415990Y521510D03*
X374990Y474510D03*
Y469510D03*
X469680Y594610D03*
X449690Y579610D03*
Y589610D03*
X459680D03*
X458580Y599510D03*
X459290Y609610D03*
X446480Y605510D03*
X449690Y597710D03*
X439690Y599610D03*
X419680D03*
X422490Y421510D03*
X428780Y412210D03*
X491790Y434710D03*
X478390Y425710D03*
Y437810D03*
X492890Y456510D03*
X475090Y452110D03*
X483690Y447010D03*
X483480Y466110D03*
X497280Y461510D03*
X480590Y477810D03*
X470590Y483410D03*
X471080Y477710D03*
X471480Y487210D03*
X435890Y475310D03*
X440780Y473610D03*
X444680Y477410D03*
X443690Y483410D03*
X444790Y489410D03*
X435480Y455410D03*
X428280Y456910D03*
X422490Y475410D03*
X428990Y465310D03*
X481790Y503110D03*
X460590Y529610D03*
X499280Y515910D03*
X483380Y511510D03*
X474180Y521310D03*
X483480Y530510D03*
X492580Y521610D03*
X497080Y526810D03*
X497280Y504810D03*
X464980Y502910D03*
X473390Y513510D03*
X464980Y523510D03*
X454090D03*
X458280Y513210D03*
X451780Y503110D03*
X444480Y513310D03*
X491380Y577710D03*
X475190Y577610D03*
X490080Y564810D03*
X499690Y575510D03*
X499780Y583310D03*
X493090Y586310D03*
X483480Y596210D03*
Y577110D03*
X472380Y566410D03*
X458480Y573510D03*
X458380Y566310D03*
X465190Y554510D03*
X451680Y554410D03*
X446080Y557010D03*
X444580Y566310D03*
X399690Y621410D03*
X153680Y604410D03*
X332380Y500710D03*
X275290Y514310D03*
X197900Y553980D03*
X194390Y587210D03*
X159890Y591910D03*
X200790Y591340D03*
X174380Y551510D03*
X242990Y570610D03*
X203440Y594090D03*
X214460Y584320D03*
X200100Y523720D03*
X164900Y604110D03*
X210930Y571650D03*
X199900Y540940D03*
X169680Y563910D03*
X166880Y571110D03*
X418280Y587210D03*
X415390Y408010D03*
Y416510D03*
X406090Y406410D03*
X410890D03*
X415390Y412210D03*
X380590Y427010D03*
X371390D03*
X380590Y432210D03*
X371390D03*
Y437480D03*
X380590Y437510D03*
X483380Y609210D03*
X474390Y619010D03*
X378780Y464310D03*
X374990Y464410D03*
X359190Y496810D03*
X237880Y541510D03*
X319690Y531210D03*
X423480Y625710D03*
X335280Y512010D03*
X323210Y524430D03*
X343480Y575810D03*
X392180Y554910D03*
X336580Y562810D03*
X339980Y526010D03*
X338880Y534910D03*
X343780Y547510D03*
X397990Y540810D03*
X403780D03*
X183090Y559510D03*
X169680Y529310D03*
Y526110D03*
X169590Y533510D03*
X156100Y593510D03*
X153880Y596110D03*
X322880Y512910D03*
X245110Y645930D03*
X248110D03*
X483380Y628810D03*
X418180Y580010D03*
X418380Y594310D03*
X208110Y645930D03*
X205110D03*
X433090Y443110D03*
X130800Y690640D03*
X144800D03*
Y704640D03*
X130800D03*
X127800Y697640D03*
X147800D03*
X137800Y707640D03*
Y687640D03*
X130800Y930800D03*
X144800D03*
Y944800D03*
X130800D03*
X127800Y937800D03*
X147800D03*
X137800Y947800D03*
Y927800D03*
X504810Y930800D03*
X518810D03*
Y944800D03*
X504810D03*
X501810Y937800D03*
X521810D03*
X511810Y947800D03*
Y927800D03*
X504810Y690640D03*
X518810D03*
Y704640D03*
X504810D03*
X501810Y697640D03*
X521810D03*
X511810Y707640D03*
Y687640D03*
X453780Y900030D03*
X457590D03*
X472810Y695750D03*
X451080Y701430D03*
X464590Y700130D03*
X481190Y700630D03*
X475380Y700530D03*
X451280Y725730D03*
X454790Y715530D03*
X451590Y735230D03*
X464280Y734830D03*
X457990Y745030D03*
X457780Y752530D03*
X445490Y692030D03*
X396010Y861550D03*
X455780Y937930D03*
X389510Y851850D03*
X393710Y852950D03*
X409410Y901350D03*
X415310D03*
X421310D03*
X431690Y887230D03*
X439590Y885830D03*
X429690Y879530D03*
X378480Y754030D03*
X378780Y749430D03*
X393580Y771030D03*
X394480Y761930D03*
X403710Y901350D03*
X322310Y864250D03*
X331980Y864430D03*
X290710Y870150D03*
X238190Y803830D03*
X151490Y898030D03*
X463680Y929330D03*
X394880Y804130D03*
X415990Y801430D03*
X374990Y754430D03*
Y749430D03*
X469680Y874530D03*
X449690Y859530D03*
Y869530D03*
X459680D03*
X458580Y879430D03*
X459290Y889530D03*
X446480Y885430D03*
X449690Y877630D03*
X439690Y879530D03*
X419680D03*
X422490Y701430D03*
X428780Y692130D03*
X491790Y714630D03*
X478390Y705630D03*
Y717730D03*
X492890Y736430D03*
X475090Y732030D03*
X483690Y726930D03*
X483480Y746030D03*
X497280Y741430D03*
X480590Y757730D03*
X470590Y763330D03*
X471080Y757630D03*
X471480Y767130D03*
X435890Y755230D03*
X440780Y753530D03*
X444680Y757330D03*
X443690Y763330D03*
X444790Y769330D03*
X435480Y735330D03*
X428280Y736830D03*
X422490Y755330D03*
X428990Y745230D03*
X481790Y783030D03*
X460590Y809530D03*
X499280Y795830D03*
X483380Y791430D03*
X474180Y801230D03*
X483480Y810430D03*
X492580Y801530D03*
X497080Y806730D03*
X497280Y784730D03*
X464980Y782830D03*
X473390Y793430D03*
X464980Y803430D03*
X454090D03*
X458280Y793130D03*
X451780Y783030D03*
X444480Y793230D03*
X491380Y857630D03*
X475190Y857530D03*
X490080Y844730D03*
X499690Y855430D03*
X499780Y863230D03*
X493090Y866230D03*
X483480Y876130D03*
Y857030D03*
X472380Y846330D03*
X458480Y853430D03*
X458380Y846230D03*
X465190Y834430D03*
X451680Y834330D03*
X446080Y836930D03*
X444580Y846230D03*
X399690Y901330D03*
X153680Y884330D03*
X332380Y780630D03*
X275290Y794230D03*
X197900Y833900D03*
X194390Y867130D03*
X159890Y871830D03*
X200790Y871260D03*
X174380Y831430D03*
X242990Y850530D03*
X203440Y874020D03*
X214460Y864240D03*
X200100Y803640D03*
X164900Y884030D03*
X210930Y851570D03*
X199900Y820870D03*
X169680Y843830D03*
X166880Y851030D03*
X418280Y867130D03*
X415390Y687930D03*
Y696430D03*
X406090Y686330D03*
X410890D03*
X415390Y692130D03*
X380590Y706930D03*
X371390D03*
X380590Y712130D03*
X371390D03*
Y717400D03*
X380590Y717430D03*
X483380Y889130D03*
X474390Y898930D03*
X378780Y744230D03*
X374990Y744330D03*
X359190Y776730D03*
X237880Y821430D03*
X319690Y811130D03*
X423480Y905630D03*
X335280Y791930D03*
X323210Y804350D03*
X343480Y855730D03*
X392180Y834830D03*
X336580Y842730D03*
X339980Y805930D03*
X338880Y814830D03*
X343780Y827430D03*
X397990Y820730D03*
X403780D03*
X183090Y839430D03*
X169680Y809230D03*
Y806030D03*
X169590Y813430D03*
X156100Y873430D03*
X153880Y876030D03*
X322880Y792830D03*
X245110Y925850D03*
X248110D03*
X483380Y908730D03*
X418180Y859930D03*
X418380Y874230D03*
X208110Y925850D03*
X205110D03*
X433090Y723030D03*
D18*
X137800Y137800D03*
Y377950D03*
X511810D03*
Y137800D03*
X137800Y417720D03*
Y657870D03*
X511810D03*
Y417720D03*
X137800Y697640D03*
Y937800D03*
X511810D03*
Y697640D03*
D19*
X138760Y352380D03*
Y324780D03*
Y632300D03*
Y604700D03*
Y912230D03*
Y884630D03*
D20*
X164270Y266650D03*
Y276570D03*
X156370D03*
X172940Y316140D03*
Y326140D03*
X182940Y316140D03*
Y326140D03*
X192940Y316140D03*
X164270Y546570D03*
Y556500D03*
X156370D03*
X172940Y596060D03*
Y606060D03*
X182940Y596060D03*
Y606060D03*
X192940Y596060D03*
X164270Y826500D03*
Y836420D03*
X156370D03*
X172940Y875980D03*
Y885980D03*
X182940Y875980D03*
Y885980D03*
X192940Y875980D03*
D21*
X156370Y266650D03*
X192940Y326140D03*
X156370Y546570D03*
X192940Y606060D03*
X156370Y826500D03*
X192940Y885980D03*
D22*
X145670Y295280D03*
Y247950D03*
Y575200D03*
Y527870D03*
Y855120D03*
Y807800D03*
D23*
X380780Y213980D03*
X400790D03*
X380780Y493910D03*
X400790D03*
X380780Y773830D03*
X400790D03*
D24*
X483380Y176640D03*
Y241630D03*
Y306630D03*
Y339140D03*
Y456560D03*
Y521560D03*
Y586560D03*
Y619060D03*
Y736480D03*
Y801480D03*
Y866480D03*
Y898980D03*
D25*
Y209140D03*
Y274130D03*
Y489060D03*
Y554060D03*
Y768980D03*
Y833980D03*
D26*
X297080Y374080D03*
X307080D03*
Y384090D03*
X317090Y374080D03*
Y384090D03*
X327080Y374080D03*
Y384090D03*
X337090Y374080D03*
Y384090D03*
X297080Y336580D03*
X307080D03*
Y346590D03*
X317090Y336580D03*
Y346590D03*
X327080Y336580D03*
Y346590D03*
X337090Y336580D03*
Y346590D03*
X381350Y337260D03*
X371350D03*
X381350Y347260D03*
Y357260D03*
X371350D03*
Y367260D03*
X381350Y377260D03*
X371350D03*
X297080Y654010D03*
X307080D03*
Y664010D03*
X317090Y654010D03*
Y664010D03*
X327080Y654010D03*
Y664010D03*
X337090Y654010D03*
Y664010D03*
X297080Y616510D03*
X307080D03*
Y626510D03*
X317090Y616510D03*
Y626510D03*
X327080Y616510D03*
Y626510D03*
X337090Y616510D03*
Y626510D03*
X381350Y617180D03*
X371350D03*
X381350Y627180D03*
Y637180D03*
X371350D03*
Y647180D03*
X381350Y657180D03*
X371350D03*
X297080Y933930D03*
X307080D03*
Y943930D03*
X317090Y933930D03*
Y943930D03*
X327080Y933930D03*
Y943930D03*
X337090Y933930D03*
Y943930D03*
X297080Y896430D03*
X307080D03*
Y906430D03*
X317090Y896430D03*
Y906430D03*
X327080Y896430D03*
Y906430D03*
X337090Y896430D03*
Y906430D03*
X381350Y897100D03*
X371350D03*
X381350Y907100D03*
Y917100D03*
X371350D03*
Y927100D03*
X381350Y937100D03*
X371350D03*
D27*
X297080Y384090D03*
Y346590D03*
X371350Y347260D03*
X381350Y367260D03*
X297080Y664010D03*
Y626510D03*
X371350Y627180D03*
X381350Y647180D03*
X297080Y943930D03*
Y906430D03*
X371350Y907100D03*
X381350Y927100D03*
D28*
X261710Y338710D03*
X261810Y346510D03*
X262910Y389710D03*
X417510Y263710D03*
X206190Y204890D03*
X199710Y343910D03*
X343480Y355080D03*
X354680Y323480D03*
X348690Y321390D03*
X259280Y325290D03*
X298570Y312500D03*
X304100Y312600D03*
X309970D03*
X252310Y149110D03*
X249610D03*
X234580Y149490D03*
X210910Y148210D03*
Y150810D03*
X209510Y160010D03*
X193010Y143310D03*
X193110Y145910D03*
X180510Y144090D03*
Y146480D03*
X173210Y146010D03*
Y148610D03*
X163610D03*
Y146010D03*
X155310Y149410D03*
X152530D03*
X458980Y382680D03*
X179210Y335660D03*
X364280Y219880D03*
X396590Y188380D03*
X406110Y325310D03*
X404210Y321810D03*
X399310Y321610D03*
X381610Y319110D03*
X277010Y207910D03*
X327190Y262390D03*
X273610Y267510D03*
X262680Y247180D03*
X249610Y298810D03*
X191310Y364110D03*
X194910Y344310D03*
X201310Y254010D03*
X195110Y249010D03*
X198710Y303110D03*
X252590Y222390D03*
X249590D03*
X244690Y232590D03*
X147080Y223290D03*
Y220690D03*
X201990Y217580D03*
X198780D03*
X192090Y202080D03*
X276010Y325910D03*
X242110Y330310D03*
X237210Y322210D03*
X310280Y316390D03*
X246690Y328190D03*
X246710Y322010D03*
X298710Y316310D03*
X304080Y316280D03*
X261280Y211880D03*
X181390Y198190D03*
X165990Y202990D03*
X337680Y208490D03*
X197190Y162280D03*
X246390Y164880D03*
X225990Y163380D03*
X223480D03*
X180590Y163290D03*
X177490Y163380D03*
X160610Y162010D03*
X166010D03*
X154680Y164380D03*
X151380Y165990D03*
X286190Y177790D03*
X288490D03*
X303480Y210980D03*
X352890Y158190D03*
X350290D03*
X336090Y152990D03*
X313980Y151490D03*
X337190Y160890D03*
X211780Y220150D03*
X210190Y223080D03*
X251910Y206280D03*
X212680Y204980D03*
X221090Y198190D03*
X226080Y199080D03*
X268690Y187190D03*
X161410Y207710D03*
X284380Y223180D03*
X317790Y217180D03*
X307890Y221880D03*
X314580D03*
X319180Y222080D03*
X297430Y202800D03*
X280100D03*
X348590Y205680D03*
X355780Y201290D03*
X340580Y162380D03*
X322290Y199080D03*
X246390Y162380D03*
X126790Y229890D03*
X293990Y223180D03*
X297590Y223480D03*
X300890Y226680D03*
X296390Y231590D03*
X171190Y175080D03*
Y172190D03*
Y169280D03*
X190790Y204080D03*
X216480Y170590D03*
X157280Y169280D03*
X150990Y208890D03*
X124380Y179790D03*
X197190Y164880D03*
X127880Y163380D03*
X125690D03*
X135280Y200180D03*
X144890Y205290D03*
X147080D03*
X333590Y152990D03*
X316580Y151490D03*
X298210Y190200D03*
X311980Y141290D03*
X135280Y202380D03*
X237090Y202080D03*
X235790Y204080D03*
X226080Y196480D03*
X327890Y224780D03*
X337580Y206080D03*
X257590Y200480D03*
X254290Y206280D03*
X250780Y232190D03*
X239390Y220390D03*
X212090Y172490D03*
X212580Y167790D03*
X310980Y217090D03*
X217480Y216480D03*
X221290Y216390D03*
X213690Y216480D03*
X181390Y195480D03*
X176610Y211610D03*
X151790Y211190D03*
X245780Y237280D03*
X158780Y229190D03*
X164290Y227590D03*
X174110Y213110D03*
X171210Y214210D03*
X186780Y224780D03*
X196280Y207890D03*
X205490Y213090D03*
X191290Y218780D03*
X170980Y208380D03*
X178880Y202190D03*
X141980Y225690D03*
X139380Y227890D03*
X130890Y227190D03*
X156480Y213690D03*
X280290Y222180D03*
X337190Y163080D03*
X322290Y196480D03*
X332680Y201990D03*
X333490Y204290D03*
X472380Y321390D03*
X273690Y174280D03*
X290790Y223180D03*
X278910Y326710D03*
X317880Y309010D03*
X348590Y329290D03*
X269480Y252590D03*
Y246290D03*
X277380Y249380D03*
X287440Y251340D03*
X287410Y246310D03*
X242690Y257640D03*
X259070Y269690D03*
X262170Y275180D03*
X259090Y284090D03*
X303660Y261880D03*
X319090Y243690D03*
X317990Y271590D03*
X306760Y261880D03*
X241510Y264710D03*
X262880Y262790D03*
X262170Y269690D03*
X255970D03*
X259070Y275180D03*
Y279680D03*
X255970D03*
X255980Y284090D03*
X262190Y293390D03*
X259070D03*
X255970D03*
X265580Y232680D03*
X300560Y261880D03*
X243280Y249990D03*
X235490Y247390D03*
X231310Y289310D03*
X226310Y298210D03*
X233680Y254380D03*
X243090Y253190D03*
X204410Y254110D03*
X202780Y265580D03*
X202590Y276780D03*
X210930Y277280D03*
X322880Y224780D03*
X339090Y229890D03*
X394290Y257490D03*
X409680Y274290D03*
X196280Y205490D03*
X341990Y164880D03*
X154790Y168390D03*
X234610Y146910D03*
X340880Y341480D03*
X290810Y333210D03*
X261610Y351410D03*
X151410Y328910D03*
X191810Y338010D03*
X262980Y315880D03*
X300510Y367010D03*
X320880Y278890D03*
X321090Y271590D03*
X348590Y325990D03*
X336810Y355110D03*
X340210D03*
X233790Y308980D03*
X147490Y308080D03*
X295710Y250810D03*
X399770Y172850D03*
Y176850D03*
X395770D03*
Y172850D03*
X391770D03*
Y176850D03*
X387770D03*
Y172850D03*
Y164850D03*
Y160850D03*
X391770D03*
Y164850D03*
X395770D03*
Y160850D03*
X399770D03*
Y164850D03*
Y168850D03*
X395770D03*
X387770D03*
X391770D03*
X432300Y308960D03*
Y312960D03*
Y304960D03*
Y300960D03*
X428300D03*
X424300D03*
Y304960D03*
X428300D03*
Y308960D03*
X424300D03*
Y312960D03*
X428300D03*
X436300D03*
X440300D03*
Y308960D03*
X436300D03*
Y304960D03*
X440300D03*
Y300960D03*
X436300D03*
X274110Y249310D03*
X326080Y315090D03*
X295690Y253780D03*
X294180Y295180D03*
X288490Y234380D03*
X265980Y262790D03*
X362790Y336580D03*
X468690Y390090D03*
X405990Y393390D03*
X318090Y281380D03*
X346990Y309380D03*
X276290Y174280D03*
X241580Y334790D03*
X263580Y279680D03*
X251680Y321390D03*
X252590Y316990D03*
X241690Y355080D03*
X211680Y339790D03*
X211580Y350290D03*
Y332380D03*
X240080Y298990D03*
X434880Y233890D03*
X432290Y275380D03*
X307280Y272780D03*
X236390Y314980D03*
X247180Y314090D03*
X245480Y310680D03*
X469680Y163880D03*
X525890Y209090D03*
X499690Y314090D03*
X201290Y362790D03*
X182690Y359680D03*
X219780Y374290D03*
X209980Y273590D03*
X233610Y392010D03*
X261710Y618630D03*
X261810Y626430D03*
X262910Y669630D03*
X417510Y543630D03*
X206190Y484810D03*
X199710Y623830D03*
X343480Y635010D03*
X354680Y603410D03*
X348690Y601310D03*
X259280Y605210D03*
X298570Y592420D03*
X304100Y592520D03*
X309970D03*
X252310Y429030D03*
X249610D03*
X234580Y429410D03*
X210910Y428130D03*
Y430730D03*
X209510Y439930D03*
X193010Y423230D03*
X193110Y425830D03*
X180510Y424010D03*
Y426410D03*
X173210Y425930D03*
Y428530D03*
X163610D03*
Y425930D03*
X155310Y429330D03*
X152530D03*
X458980Y662610D03*
X179210Y615580D03*
X364280Y499810D03*
X396590Y468310D03*
X406110Y605230D03*
X404210Y601730D03*
X399310Y601530D03*
X381610Y599030D03*
X277010Y487830D03*
X327190Y542310D03*
X273610Y547430D03*
X262680Y527110D03*
X249610Y578730D03*
X191310Y644030D03*
X194910Y624230D03*
X201310Y533930D03*
X195110Y528930D03*
X198710Y583030D03*
X252590Y502310D03*
X249590D03*
X244690Y512510D03*
X147080Y503210D03*
Y500610D03*
X201990Y497510D03*
X198780D03*
X192090Y482010D03*
X276010Y605830D03*
X242110Y610230D03*
X237210Y602130D03*
X310280Y596310D03*
X246690Y608110D03*
X246710Y601930D03*
X298710Y596230D03*
X304080Y596210D03*
X261280Y491810D03*
X181390Y478110D03*
X165990Y482910D03*
X337680Y488410D03*
X197190Y442210D03*
X246390Y444810D03*
X225990Y443310D03*
X223480D03*
X180590Y443210D03*
X177490Y443310D03*
X160610Y441930D03*
X166010D03*
X154680Y444310D03*
X151380Y445910D03*
X286190Y457710D03*
X288490D03*
X303480Y490910D03*
X352890Y438110D03*
X350290D03*
X336090Y432910D03*
X313980Y431410D03*
X337190Y440810D03*
X211780Y500070D03*
X210190Y503010D03*
X251910Y486210D03*
X212680Y484910D03*
X221090Y478110D03*
X226080Y479010D03*
X268690Y467110D03*
X161410Y487630D03*
X284380Y503110D03*
X317790Y497110D03*
X307890Y501810D03*
X314580D03*
X319180Y502010D03*
X297430Y482720D03*
X280100D03*
X348590Y485610D03*
X355780Y481210D03*
X340580Y442310D03*
X322290Y479010D03*
X246390Y442310D03*
X126790Y509810D03*
X293990Y503110D03*
X297590Y503410D03*
X300890Y506610D03*
X296390Y511510D03*
X171190Y455010D03*
Y452110D03*
Y449210D03*
X190790Y484010D03*
X216480Y450510D03*
X157280Y449210D03*
X150990Y488810D03*
X124380Y459710D03*
X197190Y444810D03*
X127880Y443310D03*
X125690D03*
X135280Y480110D03*
X144890Y485210D03*
X147080D03*
X333590Y432910D03*
X316580Y431410D03*
X298210Y470120D03*
X311980Y421210D03*
X135280Y482310D03*
X237090Y482010D03*
X235790Y484010D03*
X226080Y476410D03*
X327890Y504710D03*
X337580Y486010D03*
X257590Y480410D03*
X254290Y486210D03*
X250780Y512110D03*
X239390Y500310D03*
X212090Y452410D03*
X212580Y447710D03*
X310980Y497010D03*
X217480Y496410D03*
X221290Y496310D03*
X213690Y496410D03*
X181390Y475410D03*
X176610Y491530D03*
X151790Y491110D03*
X245780Y517210D03*
X158780Y509110D03*
X164290Y507510D03*
X174110Y493030D03*
X171210Y494130D03*
X186780Y504710D03*
X196280Y487810D03*
X205490Y493010D03*
X191290Y498710D03*
X170980Y488310D03*
X178880Y482110D03*
X141980Y505610D03*
X139380Y507810D03*
X130890Y507110D03*
X156480Y493610D03*
X280290Y502110D03*
X337190Y443010D03*
X322290Y476410D03*
X332680Y481910D03*
X333490Y484210D03*
X472380Y601310D03*
X273690Y454210D03*
X290790Y503110D03*
X278910Y606630D03*
X317880Y588930D03*
X348590Y609210D03*
X269480Y532510D03*
Y526210D03*
X277380Y529310D03*
X287440Y531260D03*
X287410Y526230D03*
X242690Y537560D03*
X259070Y549610D03*
X262170Y555110D03*
X259090Y564010D03*
X303660Y541810D03*
X319090Y523610D03*
X317990Y551510D03*
X306760Y541810D03*
X241510Y544630D03*
X262880Y542710D03*
X262170Y549610D03*
X255970D03*
X259070Y555110D03*
Y559610D03*
X255970D03*
X255980Y564010D03*
X262190Y573310D03*
X259070D03*
X255970D03*
X265580Y512610D03*
X300560Y541810D03*
X243280Y529910D03*
X235490Y527310D03*
X231310Y569230D03*
X226310Y578130D03*
X233680Y534310D03*
X243090Y533110D03*
X204410Y534030D03*
X202780Y545510D03*
X202590Y556710D03*
X210930Y557200D03*
X322880Y504710D03*
X339090Y509810D03*
X394290Y537410D03*
X409680Y554210D03*
X196280Y485410D03*
X341990Y444810D03*
X154790Y448310D03*
X234610Y426830D03*
X340880Y621410D03*
X290810Y613130D03*
X261610Y631330D03*
X151410Y608830D03*
X191810Y617930D03*
X262980Y595810D03*
X300510Y646930D03*
X320880Y558810D03*
X321090Y551510D03*
X348590Y605910D03*
X336810Y635030D03*
X340210D03*
X233790Y588910D03*
X147490Y588010D03*
X295710Y530730D03*
X399770Y452770D03*
Y456770D03*
X395770D03*
Y452770D03*
X391770D03*
Y456770D03*
X387770D03*
Y452770D03*
Y444770D03*
Y440770D03*
X391770D03*
Y444770D03*
X395770D03*
Y440770D03*
X399770D03*
Y444770D03*
Y448770D03*
X395770D03*
X387770D03*
X391770D03*
X432300Y588880D03*
Y592880D03*
Y584880D03*
Y580880D03*
X428300D03*
X424300D03*
Y584880D03*
X428300D03*
Y588880D03*
X424300D03*
Y592880D03*
X428300D03*
X436300D03*
X440300D03*
Y588880D03*
X436300D03*
Y584880D03*
X440300D03*
Y580880D03*
X436300D03*
X274110Y529230D03*
X326080Y595010D03*
X295690Y533710D03*
X294180Y575110D03*
X288490Y514310D03*
X265980Y542710D03*
X362790Y616510D03*
X468690Y670010D03*
X405990Y673310D03*
X318090Y561310D03*
X346990Y589310D03*
X276290Y454210D03*
X241580Y614710D03*
X263580Y559610D03*
X251680Y601310D03*
X252590Y596910D03*
X241690Y635010D03*
X211680Y619710D03*
X211580Y630210D03*
Y612310D03*
X240080Y578910D03*
X434880Y513810D03*
X432290Y555310D03*
X307280Y552710D03*
X236390Y594910D03*
X247180Y594010D03*
X245480Y590610D03*
X469680Y443810D03*
X525890Y489010D03*
X499690Y594010D03*
X201290Y642710D03*
X182690Y639610D03*
X219780Y654210D03*
X209980Y553510D03*
X233610Y671930D03*
X261710Y898550D03*
X261810Y906350D03*
X262910Y949550D03*
X417510Y823550D03*
X206190Y764730D03*
X199710Y903750D03*
X343480Y914930D03*
X354680Y883330D03*
X348690Y881230D03*
X259280Y885130D03*
X298570Y872340D03*
X304100Y872440D03*
X309970D03*
X252310Y708950D03*
X249610D03*
X234580Y709330D03*
X210910Y708050D03*
Y710650D03*
X209510Y719850D03*
X193010Y703150D03*
X193110Y705750D03*
X180510Y703930D03*
Y706330D03*
X173210Y705850D03*
Y708450D03*
X163610D03*
Y705850D03*
X155310Y709250D03*
X152530D03*
X458980Y942530D03*
X179210Y895500D03*
X364280Y779730D03*
X396590Y748230D03*
X406110Y885150D03*
X404210Y881650D03*
X399310Y881450D03*
X381610Y878950D03*
X277010Y767750D03*
X327190Y822230D03*
X273610Y827350D03*
X262680Y807030D03*
X249610Y858650D03*
X191310Y923950D03*
X194910Y904150D03*
X201310Y813850D03*
X195110Y808850D03*
X198710Y862950D03*
X252590Y782230D03*
X249590D03*
X244690Y792430D03*
X147080Y783130D03*
Y780530D03*
X201990Y777430D03*
X198780D03*
X192090Y761930D03*
X276010Y885750D03*
X242110Y890150D03*
X237210Y882050D03*
X310280Y876230D03*
X246690Y888030D03*
X246710Y881850D03*
X298710Y876150D03*
X304080Y876130D03*
X261280Y771730D03*
X181390Y758030D03*
X165990Y762830D03*
X337680Y768330D03*
X197190Y722130D03*
X246390Y724730D03*
X225990Y723230D03*
X223480D03*
X180590Y723130D03*
X177490Y723230D03*
X160610Y721850D03*
X166010D03*
X154680Y724230D03*
X151380Y725830D03*
X286190Y737630D03*
X288490D03*
X303480Y770830D03*
X352890Y718030D03*
X350290D03*
X336090Y712830D03*
X313980Y711330D03*
X337190Y720730D03*
X211780Y780000D03*
X210190Y782930D03*
X251910Y766130D03*
X212680Y764830D03*
X221090Y758030D03*
X226080Y758930D03*
X268690Y747030D03*
X161410Y767550D03*
X284380Y783030D03*
X317790Y777030D03*
X307890Y781730D03*
X314580D03*
X319180Y781930D03*
X297430Y762640D03*
X280100D03*
X348590Y765530D03*
X355780Y761130D03*
X340580Y722230D03*
X322290Y758930D03*
X246390Y722230D03*
X126790Y789730D03*
X293990Y783030D03*
X297590Y783330D03*
X300890Y786530D03*
X296390Y791430D03*
X171190Y734930D03*
Y732030D03*
Y729130D03*
X190790Y763930D03*
X216480Y730430D03*
X157280Y729130D03*
X150990Y768730D03*
X124380Y739630D03*
X197190Y724730D03*
X127880Y723230D03*
X125690D03*
X135280Y760030D03*
X144890Y765130D03*
X147080D03*
X333590Y712830D03*
X316580Y711330D03*
X298210Y750040D03*
X311980Y701130D03*
X135280Y762230D03*
X237090Y761930D03*
X235790Y763930D03*
X226080Y756330D03*
X327890Y784630D03*
X337580Y765930D03*
X257590Y760330D03*
X254290Y766130D03*
X250780Y792030D03*
X239390Y780230D03*
X212090Y732330D03*
X212580Y727630D03*
X310980Y776930D03*
X217480Y776330D03*
X221290Y776230D03*
X213690Y776330D03*
X181390Y755330D03*
X176610Y771450D03*
X151790Y771030D03*
X245780Y797130D03*
X158780Y789030D03*
X164290Y787430D03*
X174110Y772950D03*
X171210Y774050D03*
X186780Y784630D03*
X196280Y767730D03*
X205490Y772930D03*
X191290Y778630D03*
X170980Y768230D03*
X178880Y762030D03*
X141980Y785530D03*
X139380Y787730D03*
X130890Y787030D03*
X156480Y773530D03*
X280290Y782030D03*
X337190Y722930D03*
X322290Y756330D03*
X332680Y761830D03*
X333490Y764130D03*
X472380Y881230D03*
X273690Y734130D03*
X290790Y783030D03*
X278910Y886550D03*
X317880Y868850D03*
X348590Y889130D03*
X269480Y812430D03*
Y806130D03*
X277380Y809230D03*
X287440Y811180D03*
X287410Y806150D03*
X242690Y817480D03*
X259070Y829530D03*
X262170Y835030D03*
X259090Y843930D03*
X303660Y821730D03*
X319090Y803530D03*
X317990Y831430D03*
X306760Y821730D03*
X241510Y824550D03*
X262880Y822630D03*
X262170Y829530D03*
X255970D03*
X259070Y835030D03*
Y839530D03*
X255970D03*
X255980Y843930D03*
X262190Y853230D03*
X259070D03*
X255970D03*
X265580Y792530D03*
X300560Y821730D03*
X243280Y809830D03*
X235490Y807230D03*
X231310Y849150D03*
X226310Y858050D03*
X233680Y814230D03*
X243090Y813030D03*
X204410Y813950D03*
X202780Y825430D03*
X202590Y836630D03*
X210930Y837120D03*
X322880Y784630D03*
X339090Y789730D03*
X394290Y817330D03*
X409680Y834130D03*
X196280Y765330D03*
X341990Y724730D03*
X154790Y728230D03*
X234610Y706750D03*
X340880Y901330D03*
X290810Y893050D03*
X261610Y911250D03*
X151410Y888750D03*
X191810Y897850D03*
X262980Y875730D03*
X300510Y926850D03*
X320880Y838730D03*
X321090Y831430D03*
X348590Y885830D03*
X336810Y914950D03*
X340210D03*
X233790Y868830D03*
X147490Y867930D03*
X295710Y810650D03*
X399770Y732700D03*
Y736700D03*
X395770D03*
Y732700D03*
X391770D03*
Y736700D03*
X387770D03*
Y732700D03*
Y724700D03*
Y720700D03*
X391770D03*
Y724700D03*
X395770D03*
Y720700D03*
X399770D03*
Y724700D03*
Y728700D03*
X395770D03*
X387770D03*
X391770D03*
X432300Y868800D03*
Y872800D03*
Y864800D03*
Y860800D03*
X428300D03*
X424300D03*
Y864800D03*
X428300D03*
Y868800D03*
X424300D03*
Y872800D03*
X428300D03*
X436300D03*
X440300D03*
Y868800D03*
X436300D03*
Y864800D03*
X440300D03*
Y860800D03*
X436300D03*
X274110Y809150D03*
X326080Y874930D03*
X295690Y813630D03*
X294180Y855030D03*
X288490Y794230D03*
X265980Y822630D03*
X362790Y896430D03*
X468690Y949930D03*
X405990Y953230D03*
X318090Y841230D03*
X346990Y869230D03*
X276290Y734130D03*
X241580Y894630D03*
X263580Y839530D03*
X251680Y881230D03*
X252590Y876830D03*
X241690Y914930D03*
X211680Y899630D03*
X211580Y910130D03*
Y892230D03*
X240080Y858830D03*
X434880Y793730D03*
X432290Y835230D03*
X307280Y832630D03*
X236390Y874830D03*
X247180Y873930D03*
X245480Y870530D03*
X469680Y723730D03*
X525890Y768930D03*
X499690Y873930D03*
X201290Y922630D03*
X182690Y919530D03*
X219780Y934130D03*
X209980Y833430D03*
X233610Y951850D03*
D29*
X92720Y397230D02*
X552720D01*
X92720Y117120D02*
X552720D01*
X93010Y957870D02*
X552720D01*
X117720Y93110D02*
Y982870D01*
X531690Y92720D02*
Y982870D01*
X92720Y677160D02*
X552720D01*
D30*
X542573Y940573D03*
Y135056D03*
X106158Y940573D03*
Y135056D03*
%LPD*%
M02*