G04 Layer_Physical_Order=2*
G04 Layer_Color=32768*
%FSLAX24Y24*%
%MOIN*%
G70*
G01*
G75*
%ADD12C,0.0100*%
%ADD15C,0.0200*%
%ADD119C,0.1581*%
%ADD120C,0.0870*%
%ADD121C,0.0744*%
G04:AMPARAMS|DCode=122|XSize=100mil|YSize=100mil|CornerRadius=0mil|HoleSize=0mil|Usage=FLASHONLY|Rotation=0.000|XOffset=0mil|YOffset=0mil|HoleType=Round|Shape=Relief|Width=20mil|Gap=10mil|Entries=4|*
%AMTHD122*
7,0,0,0.1000,0.0800,0.0200,45*
%
%ADD122THD122*%
%ADD123C,0.0640*%
%ADD124C,0.0390*%
%ADD125C,0.1421*%
%ADD126C,0.0830*%
%ADD127C,0.0620*%
G04:AMPARAMS|DCode=128|XSize=98mil|YSize=98mil|CornerRadius=0mil|HoleSize=0mil|Usage=FLASHONLY|Rotation=0.000|XOffset=0mil|YOffset=0mil|HoleType=Round|Shape=Relief|Width=20mil|Gap=10mil|Entries=4|*
%AMTHD128*
7,0,0,0.0980,0.0780,0.0200,45*
%
%ADD128THD128*%
%ADD129C,0.1110*%
%ADD130C,0.0790*%
%ADD131C,0.0840*%
G04:AMPARAMS|DCode=132|XSize=120mil|YSize=120mil|CornerRadius=0mil|HoleSize=0mil|Usage=FLASHONLY|Rotation=0.000|XOffset=0mil|YOffset=0mil|HoleType=Round|Shape=Relief|Width=20mil|Gap=10mil|Entries=4|*
%AMTHD132*
7,0,0,0.1200,0.1000,0.0200,45*
%
%ADD132THD132*%
%ADD133C,0.0594*%
G04:AMPARAMS|DCode=134|XSize=95.433mil|YSize=95.433mil|CornerRadius=0mil|HoleSize=0mil|Usage=FLASHONLY|Rotation=0.000|XOffset=0mil|YOffset=0mil|HoleType=Round|Shape=Relief|Width=20mil|Gap=10mil|Entries=4|*
%AMTHD134*
7,0,0,0.0954,0.0754,0.0200,45*
%
%ADD134THD134*%
%ADD135C,0.0340*%
G54D12*
X16000Y104400D02*
X15600D01*
Y103800D01*
X16000D01*
X15600Y104100D02*
X15800D01*
X16200Y103800D02*
X16400D01*
X16300D01*
Y104200D01*
X16200D01*
X16700Y103800D02*
Y104200D01*
X17000D01*
X17100Y104100D01*
Y103800D01*
X17299D02*
X17599D01*
X17699Y103900D01*
X17599Y104000D01*
X17399D01*
X17299Y104100D01*
X17399Y104200D01*
X17699D01*
X17899D02*
Y103900D01*
X17999Y103800D01*
X18299D01*
Y103700D01*
X18199Y103600D01*
X18099D01*
X18299Y103800D02*
Y104200D01*
X19099Y104300D02*
X19199Y104400D01*
X19399D01*
X19499Y104300D01*
Y103900D01*
X19399Y103800D01*
X19199D01*
X19099Y103900D01*
Y104300D01*
X19699Y103800D02*
Y103900D01*
X19799D01*
Y103800D01*
X19699D01*
X20199Y104300D02*
X20298Y104400D01*
X20498D01*
X20598Y104300D01*
Y104200D01*
X20498Y104100D01*
X20398D01*
X20498D01*
X20598Y104000D01*
Y103900D01*
X20498Y103800D01*
X20298D01*
X20199Y103900D01*
X20898Y104200D02*
X21098D01*
X21198Y104100D01*
Y103800D01*
X20898D01*
X20798Y103900D01*
X20898Y104000D01*
X21198D01*
X16000Y103100D02*
X15900Y103200D01*
X15700D01*
X15600Y103100D01*
Y102700D01*
X15700Y102600D01*
X15900D01*
X16000Y102700D01*
Y102900D01*
X15800D01*
X16200Y102600D02*
Y103200D01*
X16600Y102600D01*
Y103200D01*
X16800D02*
Y102600D01*
X17100D01*
X17199Y102700D01*
Y103100D01*
X17100Y103200D01*
X16800D01*
X17999Y102600D02*
Y103200D01*
X18299D01*
X18399Y103100D01*
Y102900D01*
X18299Y102800D01*
X17999D01*
X18599Y102600D02*
X18799D01*
X18699D01*
Y103200D01*
X18599D01*
X19199Y103000D02*
X19399D01*
X19499Y102900D01*
Y102600D01*
X19199D01*
X19099Y102700D01*
X19199Y102800D01*
X19499D01*
X19699Y102600D02*
Y103000D01*
X19999D01*
X20099Y102900D01*
Y102600D01*
X20598D02*
X20398D01*
X20298Y102700D01*
Y102900D01*
X20398Y103000D01*
X20598D01*
X20698Y102900D01*
Y102800D01*
X20298D01*
X15600Y102000D02*
Y101400D01*
X16000D01*
X16300Y101800D02*
X16500D01*
X16600Y101700D01*
Y101400D01*
X16300D01*
X16200Y101500D01*
X16300Y101600D01*
X16600D01*
X16800Y101800D02*
Y101500D01*
X16900Y101400D01*
X17199D01*
Y101300D01*
X17100Y101200D01*
X17000D01*
X17199Y101400D02*
Y101800D01*
X17699Y101400D02*
X17499D01*
X17399Y101500D01*
Y101700D01*
X17499Y101800D01*
X17699D01*
X17799Y101700D01*
Y101600D01*
X17399D01*
X17999Y101800D02*
Y101400D01*
Y101600D01*
X18099Y101700D01*
X18199Y101800D01*
X18299D01*
X19599Y101400D02*
X19199D01*
X19599Y101800D01*
Y101900D01*
X19499Y102000D01*
X19299D01*
X19199Y101900D01*
X11811Y23396D02*
X12046Y23631D01*
X16768Y33268D02*
X19489D01*
X19869Y32889D01*
Y31683D02*
Y32889D01*
Y31683D02*
X21929D01*
X12046Y23631D02*
X22251D01*
X22441Y23821D01*
Y26331D01*
X21929Y26843D02*
X22441Y26331D01*
X21929Y26843D02*
Y31683D01*
X15521Y32021D02*
X16768Y33268D01*
X15521Y30368D02*
Y32021D01*
X11811Y30368D02*
X15521D01*
X11811Y51388D02*
X12046Y51623D01*
X16768Y61261D02*
X19489D01*
X19869Y60881D01*
Y59675D02*
Y60881D01*
Y59675D02*
X21929D01*
X12046Y51623D02*
X22251D01*
X22441Y51813D01*
Y54323D01*
X21929Y54835D02*
X22441Y54323D01*
X21929Y54835D02*
Y59675D01*
X15521Y60013D02*
X16768Y61261D01*
X15521Y58361D02*
Y60013D01*
X11811Y58361D02*
X15521D01*
X11811Y79380D02*
X12046Y79615D01*
X16768Y89253D02*
X19489D01*
X19869Y88873D01*
Y87667D02*
Y88873D01*
Y87667D02*
X21929D01*
X12046Y79615D02*
X22251D01*
X22441Y79805D01*
Y82315D01*
X21929Y82827D02*
X22441Y82315D01*
X21929Y82827D02*
Y87667D01*
X15521Y88005D02*
X16768Y89253D01*
X15521Y86353D02*
Y88005D01*
X11811Y86353D02*
X15521D01*
G54D15*
X9272Y9272D02*
Y98287D01*
X55272D01*
Y9272D02*
Y98287D01*
X9272Y9272D02*
X55272D01*
X11811Y11811D02*
X53150D01*
Y39764D01*
X11811D02*
X53150D01*
X11811Y11811D02*
Y39764D01*
Y39803D02*
X53150D01*
Y67756D01*
X11811D02*
X53150D01*
X11811Y39803D02*
Y67756D01*
Y67795D02*
X53150D01*
Y95748D01*
X11811D02*
X53150D01*
X11811Y67795D02*
Y95748D01*
G54D119*
X10600Y10600D02*
D03*
X54380D02*
D03*
Y96959D02*
D03*
X10600D02*
D03*
G54D120*
X46459Y13218D02*
D03*
X45118D02*
D03*
Y18519D02*
D03*
X46459D02*
D03*
X45168Y23349D02*
D03*
X46508D02*
D03*
Y28649D02*
D03*
X45168D02*
D03*
X43558Y13222D02*
D03*
X42218D02*
D03*
Y18522D02*
D03*
X43558D02*
D03*
X46459Y41211D02*
D03*
X45118D02*
D03*
Y46511D02*
D03*
X46459D02*
D03*
X45168Y51341D02*
D03*
X46508D02*
D03*
Y56641D02*
D03*
X45168D02*
D03*
X43558Y41215D02*
D03*
X42218D02*
D03*
Y46515D02*
D03*
X43558D02*
D03*
X46459Y69203D02*
D03*
X45118D02*
D03*
Y74503D02*
D03*
X46459D02*
D03*
X45168Y79333D02*
D03*
X46508D02*
D03*
Y84633D02*
D03*
X45168D02*
D03*
X43558Y69207D02*
D03*
X42218D02*
D03*
Y74507D02*
D03*
X43558D02*
D03*
G54D121*
X26661Y35291D02*
D03*
Y34291D02*
D03*
X25661Y35291D02*
D03*
Y34291D02*
D03*
X24661Y35291D02*
D03*
Y34291D02*
D03*
X23661Y35291D02*
D03*
Y34291D02*
D03*
X22661Y35291D02*
D03*
Y34291D02*
D03*
X21661Y35291D02*
D03*
Y34291D02*
D03*
X20661Y35291D02*
D03*
Y34291D02*
D03*
X26661Y63283D02*
D03*
Y62283D02*
D03*
X25661Y63283D02*
D03*
Y62283D02*
D03*
X24661Y63283D02*
D03*
Y62283D02*
D03*
X23661Y63283D02*
D03*
Y62283D02*
D03*
X22661Y63283D02*
D03*
Y62283D02*
D03*
X21661Y63283D02*
D03*
Y62283D02*
D03*
X20661Y63283D02*
D03*
Y62283D02*
D03*
X26661Y91275D02*
D03*
Y90275D02*
D03*
X25661Y91275D02*
D03*
Y90275D02*
D03*
X24661Y91275D02*
D03*
Y90275D02*
D03*
X23661Y91275D02*
D03*
Y90275D02*
D03*
X22661Y91275D02*
D03*
Y90275D02*
D03*
X21661Y91275D02*
D03*
Y90275D02*
D03*
X20661Y91275D02*
D03*
Y90275D02*
D03*
G54D122*
X16741Y35381D02*
D03*
X35472Y27075D02*
D03*
X48119Y38228D02*
D03*
X12896Y32968D02*
D03*
X35472Y23965D02*
D03*
Y30185D02*
D03*
X17741Y37791D02*
D03*
X20951D02*
D03*
X24131Y37795D02*
D03*
X16741Y63373D02*
D03*
X35472Y55067D02*
D03*
X48119Y66221D02*
D03*
X12896Y60960D02*
D03*
X35472Y51957D02*
D03*
Y58177D02*
D03*
X17741Y65783D02*
D03*
X20951D02*
D03*
X24131Y65787D02*
D03*
X16741Y91365D02*
D03*
X35472Y83059D02*
D03*
X48119Y94213D02*
D03*
X12896Y88953D02*
D03*
X35472Y79949D02*
D03*
Y86169D02*
D03*
X17741Y93775D02*
D03*
X20951D02*
D03*
X24131Y93780D02*
D03*
G54D123*
X17741Y35381D02*
D03*
X35472Y26075D02*
D03*
X48119Y37229D02*
D03*
X52175Y16024D02*
D03*
X12896Y34748D02*
D03*
X35472Y22965D02*
D03*
Y29185D02*
D03*
X37908Y28179D02*
D03*
Y29179D02*
D03*
Y30178D02*
D03*
X37898Y24039D02*
D03*
Y25038D02*
D03*
Y26038D02*
D03*
X16741Y37791D02*
D03*
X19951D02*
D03*
X23131Y37795D02*
D03*
X25131D02*
D03*
X26131D02*
D03*
X34969Y12995D02*
D03*
X33969D02*
D03*
X32969D02*
D03*
X31969D02*
D03*
X26847Y12991D02*
D03*
X27847D02*
D03*
X28847D02*
D03*
X29847D02*
D03*
Y15747D02*
D03*
X28847D02*
D03*
X27847D02*
D03*
X26847D02*
D03*
X21729Y12991D02*
D03*
X22729D02*
D03*
X23729D02*
D03*
X24729D02*
D03*
X19611D02*
D03*
X18611D02*
D03*
X17611D02*
D03*
X16611D02*
D03*
X17741Y63373D02*
D03*
X35472Y54067D02*
D03*
X48119Y65221D02*
D03*
X52175Y44016D02*
D03*
X12896Y62740D02*
D03*
X35472Y50957D02*
D03*
Y57177D02*
D03*
X37908Y56171D02*
D03*
Y57171D02*
D03*
Y58171D02*
D03*
X37898Y52031D02*
D03*
Y53031D02*
D03*
Y54031D02*
D03*
X16741Y65783D02*
D03*
X19951D02*
D03*
X23131Y65787D02*
D03*
X25131D02*
D03*
X26131D02*
D03*
X34969Y40987D02*
D03*
X33969D02*
D03*
X32969D02*
D03*
X31969D02*
D03*
X26847Y40983D02*
D03*
X27847D02*
D03*
X28847D02*
D03*
X29847D02*
D03*
Y43739D02*
D03*
X28847D02*
D03*
X27847D02*
D03*
X26847D02*
D03*
X21729Y40983D02*
D03*
X22729D02*
D03*
X23729D02*
D03*
X24729D02*
D03*
X19611D02*
D03*
X18611D02*
D03*
X17611D02*
D03*
X16611D02*
D03*
X17741Y91365D02*
D03*
X35472Y82059D02*
D03*
X48119Y93213D02*
D03*
X52175Y72008D02*
D03*
X12896Y90733D02*
D03*
X35472Y78949D02*
D03*
Y85169D02*
D03*
X37908Y84163D02*
D03*
Y85163D02*
D03*
Y86163D02*
D03*
X37898Y80023D02*
D03*
Y81023D02*
D03*
Y82023D02*
D03*
X16741Y93775D02*
D03*
X19951D02*
D03*
X23131Y93780D02*
D03*
X25131D02*
D03*
X26131D02*
D03*
X34969Y68979D02*
D03*
X33969D02*
D03*
X32969D02*
D03*
X31969D02*
D03*
X26847Y68975D02*
D03*
X27847D02*
D03*
X28847D02*
D03*
X29847D02*
D03*
Y71731D02*
D03*
X28847D02*
D03*
X27847D02*
D03*
X26847D02*
D03*
X21729Y68975D02*
D03*
X22729D02*
D03*
X23729D02*
D03*
X24729D02*
D03*
X19611D02*
D03*
X18611D02*
D03*
X17611D02*
D03*
X16611D02*
D03*
G54D124*
X13080Y13080D02*
D03*
X14480D02*
D03*
Y14480D02*
D03*
X13080D02*
D03*
X12780Y13780D02*
D03*
X14780D02*
D03*
X13780Y14780D02*
D03*
Y12780D02*
D03*
X13080Y37095D02*
D03*
X14480D02*
D03*
Y38495D02*
D03*
X13080D02*
D03*
X12780Y37795D02*
D03*
X14780D02*
D03*
X13780Y38795D02*
D03*
Y36795D02*
D03*
X50481Y37095D02*
D03*
X51881D02*
D03*
Y38495D02*
D03*
X50481D02*
D03*
X50181Y37795D02*
D03*
X52181D02*
D03*
X51181Y38795D02*
D03*
Y36795D02*
D03*
X50481Y13080D02*
D03*
X51881D02*
D03*
Y14480D02*
D03*
X50481D02*
D03*
X50181Y13780D02*
D03*
X52181D02*
D03*
X51181Y14780D02*
D03*
Y12780D02*
D03*
X45378Y34018D02*
D03*
X45759D02*
D03*
X47281Y13591D02*
D03*
X45108Y14159D02*
D03*
X46459Y14029D02*
D03*
X48119Y14079D02*
D03*
X47538Y14068D02*
D03*
X45128Y16588D02*
D03*
X45479Y15568D02*
D03*
X45159Y17538D02*
D03*
X46428Y17499D02*
D03*
X45799Y18519D02*
D03*
X45778Y19268D02*
D03*
X44549Y13218D02*
D03*
X39601Y30171D02*
D03*
X45578Y37808D02*
D03*
X38951Y29201D02*
D03*
X39371Y29311D02*
D03*
X40941Y34151D02*
D03*
X41531D02*
D03*
X42131D02*
D03*
X43169Y32738D02*
D03*
X43959Y32599D02*
D03*
X42969Y31969D02*
D03*
X37848Y19418D02*
D03*
X37878Y18958D02*
D03*
X39358Y21119D02*
D03*
X39448Y20208D02*
D03*
X40371Y34151D02*
D03*
X32231Y30441D02*
D03*
X33198Y30459D02*
D03*
X29071Y31031D02*
D03*
X23819Y24399D02*
D03*
X15149Y33819D02*
D03*
X46368Y36948D02*
D03*
X39488Y24429D02*
D03*
X41599Y24158D02*
D03*
X37499Y19459D02*
D03*
Y18958D02*
D03*
X46968Y31469D02*
D03*
X44969Y29969D02*
D03*
Y30968D02*
D03*
X45968D02*
D03*
X45858Y31958D02*
D03*
X45929Y32968D02*
D03*
X44648Y32559D02*
D03*
X44969Y31779D02*
D03*
X43969Y31969D02*
D03*
X41968D02*
D03*
X42249Y14159D02*
D03*
X42878Y13228D02*
D03*
X49179Y15479D02*
D03*
X47839Y14578D02*
D03*
X47839Y15789D02*
D03*
X49289Y17658D02*
D03*
X47509Y17219D02*
D03*
X48369Y16709D02*
D03*
X48348Y18619D02*
D03*
X49728Y18159D02*
D03*
X48059Y19789D02*
D03*
X47059Y20348D02*
D03*
X47108Y19778D02*
D03*
X47148Y20728D02*
D03*
X43589Y19539D02*
D03*
X44078Y19368D02*
D03*
X44468Y19749D02*
D03*
X44369Y20348D02*
D03*
X44479Y20949D02*
D03*
X43548Y17549D02*
D03*
X42828Y17699D02*
D03*
X42249Y19548D02*
D03*
X42899Y18539D02*
D03*
X48179Y22318D02*
D03*
X46059Y24969D02*
D03*
X49928Y23598D02*
D03*
X48338Y23159D02*
D03*
X47418Y24139D02*
D03*
X48348Y25059D02*
D03*
X49258Y24169D02*
D03*
X49708Y24688D02*
D03*
X49728Y22489D02*
D03*
X46498Y22299D02*
D03*
X47339Y23359D02*
D03*
X46498Y24358D02*
D03*
X45409D02*
D03*
X45828Y23328D02*
D03*
X45178Y22318D02*
D03*
X44448Y23338D02*
D03*
X49138Y29778D02*
D03*
X47519Y29769D02*
D03*
X49008Y28489D02*
D03*
X49969Y29558D02*
D03*
X49978Y30338D02*
D03*
X49309Y30638D02*
D03*
X48348Y31628D02*
D03*
Y29718D02*
D03*
X47238Y28649D02*
D03*
X45848Y29358D02*
D03*
X45838Y28639D02*
D03*
X46519Y27459D02*
D03*
X45168Y27448D02*
D03*
X44608Y27708D02*
D03*
X44458Y28639D02*
D03*
X39969Y34148D02*
D03*
X15368Y32448D02*
D03*
X33238Y22078D02*
D03*
X27529Y23438D02*
D03*
X19790Y27406D02*
D03*
X19439Y30728D02*
D03*
X15989Y31198D02*
D03*
X20079Y31142D02*
D03*
X17438Y27159D02*
D03*
X24299Y29069D02*
D03*
X20344Y31417D02*
D03*
X21446Y30440D02*
D03*
X20010Y24380D02*
D03*
X16490Y32419D02*
D03*
X21093Y29173D02*
D03*
X19990Y26102D02*
D03*
X16968Y28398D02*
D03*
X16688Y29118D02*
D03*
X41828Y30728D02*
D03*
X41539Y12809D02*
D03*
Y13658D02*
D03*
X40609Y12649D02*
D03*
X41089D02*
D03*
X41539Y13228D02*
D03*
X38059Y14708D02*
D03*
X37139D02*
D03*
X38059Y15229D02*
D03*
X37139D02*
D03*
Y15756D02*
D03*
X38059Y15759D02*
D03*
X48338Y32929D02*
D03*
X47439Y33909D02*
D03*
X37878Y18439D02*
D03*
X37499Y18448D02*
D03*
X35919Y21688D02*
D03*
X23788Y26158D02*
D03*
X31969Y25129D02*
D03*
X42348Y34578D02*
D03*
X33528Y23208D02*
D03*
X32321Y24451D02*
D03*
X34348Y29588D02*
D03*
X39218Y27499D02*
D03*
X33658Y28289D02*
D03*
X33998Y24609D02*
D03*
X33888Y25498D02*
D03*
X34378Y26758D02*
D03*
X39799Y26089D02*
D03*
X40378D02*
D03*
X18309Y27959D02*
D03*
X16968Y24938D02*
D03*
Y24618D02*
D03*
X16959Y25359D02*
D03*
X15610Y31358D02*
D03*
X15388Y31618D02*
D03*
X32288Y23298D02*
D03*
X24511Y36601D02*
D03*
X24811D02*
D03*
X48338Y34889D02*
D03*
X41818Y30008D02*
D03*
X41838Y31439D02*
D03*
X20811Y36601D02*
D03*
X20511D02*
D03*
X43309Y16319D02*
D03*
X13080Y41072D02*
D03*
X14480D02*
D03*
Y42472D02*
D03*
X13080D02*
D03*
X12780Y41772D02*
D03*
X14780D02*
D03*
X13780Y42772D02*
D03*
Y40772D02*
D03*
X13080Y65087D02*
D03*
X14480D02*
D03*
Y66487D02*
D03*
X13080D02*
D03*
X12780Y65787D02*
D03*
X14780D02*
D03*
X13780Y66787D02*
D03*
Y64787D02*
D03*
X50481Y65087D02*
D03*
X51881D02*
D03*
Y66487D02*
D03*
X50481D02*
D03*
X50181Y65787D02*
D03*
X52181D02*
D03*
X51181Y66787D02*
D03*
Y64787D02*
D03*
X50481Y41072D02*
D03*
X51881D02*
D03*
Y42472D02*
D03*
X50481D02*
D03*
X50181Y41772D02*
D03*
X52181D02*
D03*
X51181Y42772D02*
D03*
Y40772D02*
D03*
X45378Y62011D02*
D03*
X45759D02*
D03*
X47281Y41583D02*
D03*
X45108Y42151D02*
D03*
X46459Y42021D02*
D03*
X48119Y42071D02*
D03*
X47538Y42061D02*
D03*
X45128Y44581D02*
D03*
X45479Y43561D02*
D03*
X45159Y45531D02*
D03*
X46428Y45491D02*
D03*
X45799Y46511D02*
D03*
X45778Y47261D02*
D03*
X44549Y41211D02*
D03*
X39601Y58163D02*
D03*
X45578Y65801D02*
D03*
X38951Y57193D02*
D03*
X39371Y57303D02*
D03*
X40941Y62143D02*
D03*
X41531D02*
D03*
X42131D02*
D03*
X43169Y60731D02*
D03*
X43959Y60591D02*
D03*
X42969Y59961D02*
D03*
X37848Y47411D02*
D03*
X37878Y46951D02*
D03*
X39358Y49111D02*
D03*
X39448Y48201D02*
D03*
X40371Y62143D02*
D03*
X32231Y58433D02*
D03*
X33198Y58451D02*
D03*
X29071Y59023D02*
D03*
X23819Y52391D02*
D03*
X15149Y61811D02*
D03*
X46368Y64941D02*
D03*
X39488Y52421D02*
D03*
X41599Y52151D02*
D03*
X37499Y47451D02*
D03*
Y46951D02*
D03*
X46968Y59461D02*
D03*
X44969Y57961D02*
D03*
Y58961D02*
D03*
X45968D02*
D03*
X45858Y59951D02*
D03*
X45929Y60961D02*
D03*
X44648Y60551D02*
D03*
X44969Y59771D02*
D03*
X43969Y59961D02*
D03*
X41968D02*
D03*
X42249Y42151D02*
D03*
X42878Y41221D02*
D03*
X49179Y43471D02*
D03*
X47839Y42571D02*
D03*
X47839Y43781D02*
D03*
X49289Y45651D02*
D03*
X47509Y45211D02*
D03*
X48369Y44701D02*
D03*
X48348Y46611D02*
D03*
X49728Y46151D02*
D03*
X48059Y47781D02*
D03*
X47059Y48341D02*
D03*
X47108Y47771D02*
D03*
X47148Y48721D02*
D03*
X43589Y47531D02*
D03*
X44078Y47361D02*
D03*
X44468Y47741D02*
D03*
X44369Y48341D02*
D03*
X44479Y48941D02*
D03*
X43548Y45541D02*
D03*
X42828Y45691D02*
D03*
X42249Y47541D02*
D03*
X42899Y46531D02*
D03*
X48179Y50311D02*
D03*
X46059Y52961D02*
D03*
X49928Y51591D02*
D03*
X48338Y51151D02*
D03*
X47418Y52131D02*
D03*
X48348Y53051D02*
D03*
X49258Y52161D02*
D03*
X49708Y52681D02*
D03*
X49728Y50481D02*
D03*
X46498Y50291D02*
D03*
X47339Y51351D02*
D03*
X46498Y52351D02*
D03*
X45409D02*
D03*
X45828Y51321D02*
D03*
X45178Y50311D02*
D03*
X44448Y51331D02*
D03*
X49138Y57771D02*
D03*
X47519Y57761D02*
D03*
X49008Y56481D02*
D03*
X49969Y57551D02*
D03*
X49978Y58331D02*
D03*
X49309Y58631D02*
D03*
X48348Y59621D02*
D03*
Y57711D02*
D03*
X47238Y56641D02*
D03*
X45848Y57351D02*
D03*
X45838Y56631D02*
D03*
X46519Y55451D02*
D03*
X45168Y55441D02*
D03*
X44608Y55701D02*
D03*
X44458Y56631D02*
D03*
X39969Y62141D02*
D03*
X15368Y60441D02*
D03*
X33238Y50071D02*
D03*
X27529Y51431D02*
D03*
X19790Y55398D02*
D03*
X19439Y58721D02*
D03*
X15989Y59191D02*
D03*
X20079Y59134D02*
D03*
X17438Y55151D02*
D03*
X24299Y57061D02*
D03*
X20344Y59409D02*
D03*
X21446Y58432D02*
D03*
X20010Y52372D02*
D03*
X16490Y60411D02*
D03*
X21093Y57165D02*
D03*
X19990Y54094D02*
D03*
X16968Y56391D02*
D03*
X16688Y57111D02*
D03*
X41828Y58721D02*
D03*
X41539Y40801D02*
D03*
Y41651D02*
D03*
X40609Y40641D02*
D03*
X41089D02*
D03*
X41539Y41221D02*
D03*
X38059Y42701D02*
D03*
X37139D02*
D03*
X38059Y43221D02*
D03*
X37139D02*
D03*
Y43748D02*
D03*
X38059Y43751D02*
D03*
X48338Y60921D02*
D03*
X47439Y61901D02*
D03*
X37878Y46431D02*
D03*
X37499Y46441D02*
D03*
X35919Y49681D02*
D03*
X23788Y54151D02*
D03*
X31969Y53121D02*
D03*
X42348Y62571D02*
D03*
X33528Y51201D02*
D03*
X32321Y52443D02*
D03*
X34348Y57581D02*
D03*
X39218Y55491D02*
D03*
X33658Y56281D02*
D03*
X33998Y52601D02*
D03*
X33888Y53491D02*
D03*
X34378Y54751D02*
D03*
X39799Y54081D02*
D03*
X40378D02*
D03*
X18309Y55951D02*
D03*
X16968Y52931D02*
D03*
Y52611D02*
D03*
X16959Y53351D02*
D03*
X15610Y59351D02*
D03*
X15388Y59611D02*
D03*
X32288Y51291D02*
D03*
X24511Y64593D02*
D03*
X24811D02*
D03*
X48338Y62881D02*
D03*
X41818Y58001D02*
D03*
X41838Y59431D02*
D03*
X20811Y64593D02*
D03*
X20511D02*
D03*
X43309Y44311D02*
D03*
X13080Y69064D02*
D03*
X14480D02*
D03*
Y70464D02*
D03*
X13080D02*
D03*
X12780Y69764D02*
D03*
X14780D02*
D03*
X13780Y70764D02*
D03*
Y68764D02*
D03*
X13080Y93080D02*
D03*
X14480D02*
D03*
Y94480D02*
D03*
X13080D02*
D03*
X12780Y93780D02*
D03*
X14780D02*
D03*
X13780Y94780D02*
D03*
Y92780D02*
D03*
X50481Y93080D02*
D03*
X51881D02*
D03*
Y94480D02*
D03*
X50481D02*
D03*
X50181Y93780D02*
D03*
X52181D02*
D03*
X51181Y94780D02*
D03*
Y92780D02*
D03*
X50481Y69064D02*
D03*
X51881D02*
D03*
Y70464D02*
D03*
X50481D02*
D03*
X50181Y69764D02*
D03*
X52181D02*
D03*
X51181Y70764D02*
D03*
Y68764D02*
D03*
X45378Y90003D02*
D03*
X45759D02*
D03*
X47281Y69575D02*
D03*
X45108Y70143D02*
D03*
X46459Y70013D02*
D03*
X48119Y70063D02*
D03*
X47538Y70053D02*
D03*
X45128Y72573D02*
D03*
X45479Y71553D02*
D03*
X45159Y73523D02*
D03*
X46428Y73483D02*
D03*
X45799Y74503D02*
D03*
X45778Y75253D02*
D03*
X44549Y69203D02*
D03*
X39601Y86155D02*
D03*
X45578Y93793D02*
D03*
X38951Y85185D02*
D03*
X39371Y85295D02*
D03*
X40941Y90135D02*
D03*
X41531D02*
D03*
X42131D02*
D03*
X43169Y88723D02*
D03*
X43959Y88583D02*
D03*
X42969Y87953D02*
D03*
X37848Y75403D02*
D03*
X37878Y74943D02*
D03*
X39358Y77103D02*
D03*
X39448Y76193D02*
D03*
X40371Y90135D02*
D03*
X32231Y86425D02*
D03*
X33198Y86443D02*
D03*
X29071Y87015D02*
D03*
X23819Y80383D02*
D03*
X15149Y89803D02*
D03*
X46368Y92933D02*
D03*
X39488Y80413D02*
D03*
X41599Y80143D02*
D03*
X37499Y75443D02*
D03*
Y74943D02*
D03*
X46968Y87453D02*
D03*
X44969Y85953D02*
D03*
Y86953D02*
D03*
X45968D02*
D03*
X45858Y87943D02*
D03*
X45929Y88953D02*
D03*
X44648Y88543D02*
D03*
X44969Y87763D02*
D03*
X43969Y87953D02*
D03*
X41968D02*
D03*
X42249Y70143D02*
D03*
X42878Y69213D02*
D03*
X49179Y71463D02*
D03*
X47839Y70563D02*
D03*
X47839Y71773D02*
D03*
X49289Y73643D02*
D03*
X47509Y73203D02*
D03*
X48369Y72693D02*
D03*
X48348Y74603D02*
D03*
X49728Y74143D02*
D03*
X48059Y75773D02*
D03*
X47059Y76333D02*
D03*
X47108Y75763D02*
D03*
X47148Y76713D02*
D03*
X43589Y75523D02*
D03*
X44078Y75353D02*
D03*
X44468Y75733D02*
D03*
X44369Y76333D02*
D03*
X44479Y76933D02*
D03*
X43548Y73533D02*
D03*
X42828Y73683D02*
D03*
X42249Y75533D02*
D03*
X42899Y74523D02*
D03*
X48179Y78303D02*
D03*
X46059Y80953D02*
D03*
X49928Y79583D02*
D03*
X48338Y79143D02*
D03*
X47418Y80123D02*
D03*
X48348Y81043D02*
D03*
X49258Y80153D02*
D03*
X49708Y80673D02*
D03*
X49728Y78473D02*
D03*
X46498Y78283D02*
D03*
X47339Y79343D02*
D03*
X46498Y80343D02*
D03*
X45409D02*
D03*
X45828Y79313D02*
D03*
X45178Y78303D02*
D03*
X44448Y79323D02*
D03*
X49138Y85763D02*
D03*
X47519Y85753D02*
D03*
X49008Y84473D02*
D03*
X49969Y85543D02*
D03*
X49978Y86323D02*
D03*
X49309Y86623D02*
D03*
X48348Y87613D02*
D03*
Y85703D02*
D03*
X47238Y84633D02*
D03*
X45848Y85343D02*
D03*
X45838Y84623D02*
D03*
X46519Y83443D02*
D03*
X45168Y83433D02*
D03*
X44608Y83693D02*
D03*
X44458Y84623D02*
D03*
X39969Y90133D02*
D03*
X15368Y88433D02*
D03*
X33238Y78063D02*
D03*
X27529Y79423D02*
D03*
X19790Y83390D02*
D03*
X19439Y86713D02*
D03*
X15989Y87183D02*
D03*
X20079Y87126D02*
D03*
X17438Y83143D02*
D03*
X24299Y85053D02*
D03*
X20344Y87402D02*
D03*
X21446Y86424D02*
D03*
X20010Y80364D02*
D03*
X16490Y88403D02*
D03*
X21093Y85157D02*
D03*
X19990Y82087D02*
D03*
X16968Y84383D02*
D03*
X16688Y85103D02*
D03*
X41828Y86713D02*
D03*
X41539Y68793D02*
D03*
Y69643D02*
D03*
X40609Y68633D02*
D03*
X41089D02*
D03*
X41539Y69213D02*
D03*
X38059Y70693D02*
D03*
X37139D02*
D03*
X38059Y71213D02*
D03*
X37139D02*
D03*
Y71740D02*
D03*
X38059Y71743D02*
D03*
X48338Y88913D02*
D03*
X47439Y89893D02*
D03*
X37878Y74423D02*
D03*
X37499Y74433D02*
D03*
X35919Y77673D02*
D03*
X23788Y82143D02*
D03*
X31969Y81113D02*
D03*
X42348Y90563D02*
D03*
X33528Y79193D02*
D03*
X32321Y80435D02*
D03*
X34348Y85573D02*
D03*
X39218Y83483D02*
D03*
X33658Y84273D02*
D03*
X33998Y80593D02*
D03*
X33888Y81483D02*
D03*
X34378Y82743D02*
D03*
X39799Y82073D02*
D03*
X40378D02*
D03*
X18309Y83943D02*
D03*
X16968Y80923D02*
D03*
Y80603D02*
D03*
X16959Y81343D02*
D03*
X15610Y87343D02*
D03*
X15388Y87603D02*
D03*
X32288Y79283D02*
D03*
X24511Y92585D02*
D03*
X24811D02*
D03*
X48338Y90873D02*
D03*
X41818Y85993D02*
D03*
X41838Y87423D02*
D03*
X20811Y92585D02*
D03*
X20511D02*
D03*
X43309Y72303D02*
D03*
G54D125*
X13780Y13780D02*
D03*
Y37795D02*
D03*
X51181D02*
D03*
Y13780D02*
D03*
X13780Y41772D02*
D03*
Y65787D02*
D03*
X51181D02*
D03*
Y41772D02*
D03*
X13780Y69764D02*
D03*
Y93780D02*
D03*
X51181D02*
D03*
Y69764D02*
D03*
G54D126*
X13876Y35238D02*
D03*
Y32478D02*
D03*
Y63230D02*
D03*
Y60470D02*
D03*
Y91223D02*
D03*
Y88463D02*
D03*
G54D127*
X16427Y26665D02*
D03*
Y27657D02*
D03*
X15637D02*
D03*
X17294Y31614D02*
D03*
Y32614D02*
D03*
X18294Y31614D02*
D03*
Y32614D02*
D03*
X19294Y31614D02*
D03*
X16427Y54657D02*
D03*
Y55650D02*
D03*
X15637D02*
D03*
X17294Y59606D02*
D03*
Y60606D02*
D03*
X18294Y59606D02*
D03*
Y60606D02*
D03*
X19294Y59606D02*
D03*
X16427Y82650D02*
D03*
Y83642D02*
D03*
X15637D02*
D03*
X17294Y87598D02*
D03*
Y88598D02*
D03*
X18294Y87598D02*
D03*
Y88598D02*
D03*
X19294Y87598D02*
D03*
G54D128*
X15637Y26665D02*
D03*
X19294Y32614D02*
D03*
X15637Y54657D02*
D03*
X19294Y60606D02*
D03*
X15637Y82650D02*
D03*
X19294Y88598D02*
D03*
G54D129*
X14567Y29528D02*
D03*
Y24795D02*
D03*
Y57520D02*
D03*
Y52787D02*
D03*
Y85512D02*
D03*
Y80780D02*
D03*
G54D130*
X38078Y21398D02*
D03*
X40079D02*
D03*
X38078Y49391D02*
D03*
X40079D02*
D03*
X38078Y77383D02*
D03*
X40079D02*
D03*
G54D131*
X48338Y17664D02*
D03*
Y24163D02*
D03*
Y30663D02*
D03*
Y33914D02*
D03*
Y45656D02*
D03*
Y52156D02*
D03*
Y58656D02*
D03*
Y61906D02*
D03*
Y73648D02*
D03*
Y80148D02*
D03*
Y86648D02*
D03*
Y89898D02*
D03*
G54D132*
Y20914D02*
D03*
Y27413D02*
D03*
Y48906D02*
D03*
Y55406D02*
D03*
Y76898D02*
D03*
Y83398D02*
D03*
G54D133*
X29708Y37408D02*
D03*
X30708D02*
D03*
Y38409D02*
D03*
X31709Y37408D02*
D03*
Y38409D02*
D03*
X32708Y37408D02*
D03*
Y38409D02*
D03*
X33709Y37408D02*
D03*
Y38409D02*
D03*
X29708Y33658D02*
D03*
X30708D02*
D03*
Y34659D02*
D03*
X31709Y33658D02*
D03*
Y34659D02*
D03*
X32708Y33658D02*
D03*
Y34659D02*
D03*
X33709Y33658D02*
D03*
Y34659D02*
D03*
X38135Y33726D02*
D03*
X37135D02*
D03*
X38135Y34726D02*
D03*
Y35726D02*
D03*
X37135D02*
D03*
Y36726D02*
D03*
X38135Y37726D02*
D03*
X37135D02*
D03*
X29708Y65401D02*
D03*
X30708D02*
D03*
Y66401D02*
D03*
X31709Y65401D02*
D03*
Y66401D02*
D03*
X32708Y65401D02*
D03*
Y66401D02*
D03*
X33709Y65401D02*
D03*
Y66401D02*
D03*
X29708Y61651D02*
D03*
X30708D02*
D03*
Y62651D02*
D03*
X31709Y61651D02*
D03*
Y62651D02*
D03*
X32708Y61651D02*
D03*
Y62651D02*
D03*
X33709Y61651D02*
D03*
Y62651D02*
D03*
X38135Y61718D02*
D03*
X37135D02*
D03*
X38135Y62718D02*
D03*
Y63718D02*
D03*
X37135D02*
D03*
Y64718D02*
D03*
X38135Y65718D02*
D03*
X37135D02*
D03*
X29708Y93393D02*
D03*
X30708D02*
D03*
Y94393D02*
D03*
X31709Y93393D02*
D03*
Y94393D02*
D03*
X32708Y93393D02*
D03*
Y94393D02*
D03*
X33709Y93393D02*
D03*
Y94393D02*
D03*
X29708Y89643D02*
D03*
X30708D02*
D03*
Y90643D02*
D03*
X31709Y89643D02*
D03*
Y90643D02*
D03*
X32708Y89643D02*
D03*
Y90643D02*
D03*
X33709Y89643D02*
D03*
Y90643D02*
D03*
X38135Y89710D02*
D03*
X37135D02*
D03*
X38135Y90710D02*
D03*
Y91710D02*
D03*
X37135D02*
D03*
Y92710D02*
D03*
X38135Y93710D02*
D03*
X37135D02*
D03*
G54D134*
X29708Y38409D02*
D03*
Y34659D02*
D03*
X37135Y34726D02*
D03*
X38135Y36726D02*
D03*
X29708Y66401D02*
D03*
Y62651D02*
D03*
X37135Y62718D02*
D03*
X38135Y64718D02*
D03*
X29708Y94393D02*
D03*
Y90643D02*
D03*
X37135Y90710D02*
D03*
X38135Y92710D02*
D03*
G54D135*
X26171Y33871D02*
D03*
X26181Y34651D02*
D03*
X26291Y38971D02*
D03*
X41751Y26371D02*
D03*
X20619Y20489D02*
D03*
X19971Y34391D02*
D03*
X34348Y35508D02*
D03*
X35468Y32348D02*
D03*
X34869Y32139D02*
D03*
X25928Y32529D02*
D03*
X29857Y31250D02*
D03*
X30410Y31260D02*
D03*
X30997D02*
D03*
X25231Y14911D02*
D03*
X24961D02*
D03*
X23458Y14949D02*
D03*
X21091Y14821D02*
D03*
Y15081D02*
D03*
X20951Y16001D02*
D03*
X19301Y14331D02*
D03*
X19311Y14591D02*
D03*
X18051Y14409D02*
D03*
Y14648D02*
D03*
X17321Y14601D02*
D03*
Y14861D02*
D03*
X16361D02*
D03*
Y14601D02*
D03*
X15531Y14941D02*
D03*
X15253D02*
D03*
X45898Y38268D02*
D03*
X17921Y33566D02*
D03*
X36428Y21988D02*
D03*
X39659Y18838D02*
D03*
X40611Y32531D02*
D03*
X40421Y32181D02*
D03*
X39931Y32161D02*
D03*
X38161Y31911D02*
D03*
X27701Y20791D02*
D03*
X32719Y26239D02*
D03*
X27361Y26751D02*
D03*
X26268Y24718D02*
D03*
X24961Y29881D02*
D03*
X19131Y36411D02*
D03*
X19491Y34431D02*
D03*
X20131Y25401D02*
D03*
X19511Y24901D02*
D03*
X19871Y30311D02*
D03*
X25259Y22239D02*
D03*
X24959D02*
D03*
X24469Y23259D02*
D03*
X14708Y22329D02*
D03*
Y22069D02*
D03*
X20199Y21758D02*
D03*
X19878D02*
D03*
X19209Y20208D02*
D03*
X27601Y32591D02*
D03*
X24211Y33031D02*
D03*
X23721Y32221D02*
D03*
X31028Y31639D02*
D03*
X24669Y32819D02*
D03*
X24671Y32201D02*
D03*
X29871Y31631D02*
D03*
X30408Y31628D02*
D03*
X26128Y21188D02*
D03*
X18139Y19819D02*
D03*
X16599Y20299D02*
D03*
X33768Y20849D02*
D03*
X19719Y16228D02*
D03*
X24639Y16488D02*
D03*
X22599Y16338D02*
D03*
X22348D02*
D03*
X18059Y16329D02*
D03*
X17749Y16338D02*
D03*
X16061Y16201D02*
D03*
X16601D02*
D03*
X15468Y16438D02*
D03*
X15138Y16599D02*
D03*
X28619Y17779D02*
D03*
X28849D02*
D03*
X30348Y21098D02*
D03*
X35289Y15819D02*
D03*
X35029D02*
D03*
X33609Y15299D02*
D03*
X31398Y15149D02*
D03*
X33719Y16089D02*
D03*
X21178Y22015D02*
D03*
X21019Y22308D02*
D03*
X25191Y20628D02*
D03*
X21268Y20498D02*
D03*
X22109Y19819D02*
D03*
X22608Y19908D02*
D03*
X26869Y18719D02*
D03*
X16141Y20771D02*
D03*
X28438Y22318D02*
D03*
X31779Y21718D02*
D03*
X30789Y22188D02*
D03*
X31458D02*
D03*
X31918Y22208D02*
D03*
X29743Y20280D02*
D03*
X28010Y20280D02*
D03*
X34859Y20568D02*
D03*
X35578Y20129D02*
D03*
X34058Y16238D02*
D03*
X32229Y19908D02*
D03*
X24639Y16238D02*
D03*
X12679Y22989D02*
D03*
X29399Y22318D02*
D03*
X29759Y22348D02*
D03*
X30089Y22668D02*
D03*
X29639Y23159D02*
D03*
X17119Y17508D02*
D03*
Y17219D02*
D03*
Y16928D02*
D03*
X19079Y20408D02*
D03*
X21648Y17059D02*
D03*
X15728Y16928D02*
D03*
X15099Y20889D02*
D03*
X12438Y17979D02*
D03*
X19719Y16488D02*
D03*
X12788Y16338D02*
D03*
X12569D02*
D03*
X13528Y20018D02*
D03*
X14489Y20529D02*
D03*
X14708D02*
D03*
X33359Y15299D02*
D03*
X31658Y15149D02*
D03*
X29821Y19020D02*
D03*
X31198Y14129D02*
D03*
X13528Y20238D02*
D03*
X23709Y20208D02*
D03*
X23579Y20408D02*
D03*
X22608Y19648D02*
D03*
X32789Y22478D02*
D03*
X33758Y20608D02*
D03*
X25759Y20048D02*
D03*
X25429Y20628D02*
D03*
X25078Y23219D02*
D03*
X23939Y22039D02*
D03*
X21209Y17249D02*
D03*
X21258Y16779D02*
D03*
X31098Y21709D02*
D03*
X21748Y21648D02*
D03*
X22129Y21639D02*
D03*
X21369Y21648D02*
D03*
X18139Y19548D02*
D03*
X17661Y21161D02*
D03*
X15179Y21119D02*
D03*
X24578Y23728D02*
D03*
X15878Y22919D02*
D03*
X16429Y22759D02*
D03*
X17411Y21311D02*
D03*
X17121Y21421D02*
D03*
X18678Y22478D02*
D03*
X19628Y20789D02*
D03*
X20549Y21309D02*
D03*
X19129Y21878D02*
D03*
X17098Y20838D02*
D03*
X17888Y20219D02*
D03*
X14198Y22569D02*
D03*
X13938Y22789D02*
D03*
X13089Y22719D02*
D03*
X15648Y21369D02*
D03*
X28029Y22218D02*
D03*
X33719Y16308D02*
D03*
X32229Y19648D02*
D03*
X33268Y20199D02*
D03*
X33349Y20429D02*
D03*
X47238Y32139D02*
D03*
X27369Y17428D02*
D03*
X29079Y22318D02*
D03*
X27891Y32671D02*
D03*
X31788Y30901D02*
D03*
X34859Y32929D02*
D03*
X26948Y25259D02*
D03*
Y24629D02*
D03*
X27738Y24938D02*
D03*
X28744Y25134D02*
D03*
X28741Y24631D02*
D03*
X24269Y25764D02*
D03*
X25907Y26969D02*
D03*
X26217Y27518D02*
D03*
X25909Y28409D02*
D03*
X30366Y26188D02*
D03*
X31909Y24369D02*
D03*
X31799Y27159D02*
D03*
X30676Y26188D02*
D03*
X24151Y26471D02*
D03*
X26288Y26279D02*
D03*
X26217Y26969D02*
D03*
X25597D02*
D03*
X25907Y27518D02*
D03*
Y27968D02*
D03*
X25597D02*
D03*
X25598Y28409D02*
D03*
X26219Y29339D02*
D03*
X25907D02*
D03*
X25597D02*
D03*
X26558Y23268D02*
D03*
X30056Y26188D02*
D03*
X24328Y24999D02*
D03*
X23549Y24739D02*
D03*
X23131Y28931D02*
D03*
X22631Y29821D02*
D03*
X23368Y25438D02*
D03*
X24309Y25319D02*
D03*
X20441Y25411D02*
D03*
X20278Y26558D02*
D03*
X20259Y27678D02*
D03*
X21093Y27728D02*
D03*
X32288Y22478D02*
D03*
X33909Y22989D02*
D03*
X39429Y25749D02*
D03*
X40968Y27429D02*
D03*
X19628Y20549D02*
D03*
X34199Y16488D02*
D03*
X15479Y16839D02*
D03*
X23461Y14691D02*
D03*
X34088Y34148D02*
D03*
X29081Y33321D02*
D03*
X26161Y35141D02*
D03*
X15141Y32891D02*
D03*
X19181Y33801D02*
D03*
X26298Y31588D02*
D03*
X30051Y36701D02*
D03*
X32088Y27889D02*
D03*
X32109Y27159D02*
D03*
X34859Y32599D02*
D03*
X33681Y35511D02*
D03*
X34021D02*
D03*
X23379Y30898D02*
D03*
X14749Y30808D02*
D03*
X29571Y25081D02*
D03*
X39977Y17285D02*
D03*
Y17685D02*
D03*
X39577D02*
D03*
Y17285D02*
D03*
X39177D02*
D03*
Y17685D02*
D03*
X38777D02*
D03*
Y17285D02*
D03*
Y16485D02*
D03*
Y16085D02*
D03*
X39177D02*
D03*
Y16485D02*
D03*
X39577D02*
D03*
Y16085D02*
D03*
X39977D02*
D03*
Y16485D02*
D03*
Y16885D02*
D03*
X39577D02*
D03*
X38777D02*
D03*
X39177D02*
D03*
X43230Y30896D02*
D03*
Y31296D02*
D03*
Y30496D02*
D03*
Y30096D02*
D03*
X42830D02*
D03*
X42430D02*
D03*
Y30496D02*
D03*
X42830D02*
D03*
Y30896D02*
D03*
X42430D02*
D03*
Y31296D02*
D03*
X42830D02*
D03*
X43630D02*
D03*
X44030D02*
D03*
Y30896D02*
D03*
X43630D02*
D03*
Y30496D02*
D03*
X44030D02*
D03*
Y30096D02*
D03*
X43630D02*
D03*
X27411Y24931D02*
D03*
X32608Y31509D02*
D03*
X29569Y25378D02*
D03*
X29418Y29518D02*
D03*
X28849Y23438D02*
D03*
X26598Y26279D02*
D03*
X36279Y33658D02*
D03*
X46869Y39009D02*
D03*
X40599Y39339D02*
D03*
X31809Y28138D02*
D03*
X34699Y30938D02*
D03*
X27629Y17428D02*
D03*
X24158Y33479D02*
D03*
X26358Y27968D02*
D03*
X25168Y32139D02*
D03*
X25259Y31699D02*
D03*
X24169Y35508D02*
D03*
X21168Y33979D02*
D03*
X21158Y35029D02*
D03*
Y33238D02*
D03*
X24008Y29899D02*
D03*
X43488Y23389D02*
D03*
X43229Y27538D02*
D03*
X30728Y27278D02*
D03*
X23639Y31498D02*
D03*
X24718Y31409D02*
D03*
X24548Y31068D02*
D03*
X46968Y16388D02*
D03*
X52589Y20909D02*
D03*
X49969Y31409D02*
D03*
X20129Y36279D02*
D03*
X18269Y35968D02*
D03*
X21978Y37429D02*
D03*
X20998Y27359D02*
D03*
X23361Y39201D02*
D03*
X26171Y61863D02*
D03*
X26181Y62643D02*
D03*
X26291Y66963D02*
D03*
X41751Y54363D02*
D03*
X20619Y48481D02*
D03*
X19971Y62383D02*
D03*
X34348Y63501D02*
D03*
X35468Y60341D02*
D03*
X34869Y60131D02*
D03*
X25928Y60521D02*
D03*
X29857Y59242D02*
D03*
X30410Y59252D02*
D03*
X30997D02*
D03*
X25231Y42903D02*
D03*
X24961D02*
D03*
X23458Y42941D02*
D03*
X21091Y42813D02*
D03*
Y43073D02*
D03*
X20951Y43993D02*
D03*
X19301Y42323D02*
D03*
X19311Y42583D02*
D03*
X18051Y42401D02*
D03*
Y42641D02*
D03*
X17321Y42593D02*
D03*
Y42853D02*
D03*
X16361D02*
D03*
Y42593D02*
D03*
X15531Y42933D02*
D03*
X15253D02*
D03*
X45898Y66261D02*
D03*
X17921Y61558D02*
D03*
X36428Y49981D02*
D03*
X39659Y46831D02*
D03*
X40611Y60523D02*
D03*
X40421Y60173D02*
D03*
X39931Y60153D02*
D03*
X38161Y59903D02*
D03*
X27701Y48783D02*
D03*
X32719Y54231D02*
D03*
X27361Y54743D02*
D03*
X26268Y52711D02*
D03*
X24961Y57873D02*
D03*
X19131Y64403D02*
D03*
X19491Y62423D02*
D03*
X20131Y53393D02*
D03*
X19511Y52893D02*
D03*
X19871Y58303D02*
D03*
X25259Y50231D02*
D03*
X24959D02*
D03*
X24469Y51251D02*
D03*
X14708Y50321D02*
D03*
Y50061D02*
D03*
X20199Y49751D02*
D03*
X19878D02*
D03*
X19209Y48201D02*
D03*
X27601Y60583D02*
D03*
X24211Y61023D02*
D03*
X23721Y60213D02*
D03*
X31028Y59631D02*
D03*
X24669Y60811D02*
D03*
X24671Y60193D02*
D03*
X29871Y59623D02*
D03*
X30408Y59621D02*
D03*
X26128Y49181D02*
D03*
X18139Y47811D02*
D03*
X16599Y48291D02*
D03*
X33768Y48841D02*
D03*
X19719Y44221D02*
D03*
X24639Y44481D02*
D03*
X22599Y44331D02*
D03*
X22348D02*
D03*
X18059Y44321D02*
D03*
X17749Y44331D02*
D03*
X16061Y44193D02*
D03*
X16601D02*
D03*
X15468Y44431D02*
D03*
X15138Y44591D02*
D03*
X28619Y45771D02*
D03*
X28849D02*
D03*
X30348Y49091D02*
D03*
X35289Y43811D02*
D03*
X35029D02*
D03*
X33609Y43291D02*
D03*
X31398Y43141D02*
D03*
X33719Y44081D02*
D03*
X21178Y50007D02*
D03*
X21019Y50301D02*
D03*
X25191Y48621D02*
D03*
X21268Y48491D02*
D03*
X22109Y47811D02*
D03*
X22608Y47901D02*
D03*
X26869Y46711D02*
D03*
X16141Y48763D02*
D03*
X28438Y50311D02*
D03*
X31779Y49711D02*
D03*
X30789Y50181D02*
D03*
X31458D02*
D03*
X31918Y50201D02*
D03*
X29743Y48272D02*
D03*
X28010Y48272D02*
D03*
X34859Y48561D02*
D03*
X35578Y48121D02*
D03*
X34058Y44231D02*
D03*
X32229Y47901D02*
D03*
X24639Y44231D02*
D03*
X12679Y50981D02*
D03*
X29399Y50311D02*
D03*
X29759Y50341D02*
D03*
X30089Y50661D02*
D03*
X29639Y51151D02*
D03*
X17119Y45501D02*
D03*
Y45211D02*
D03*
Y44921D02*
D03*
X19079Y48401D02*
D03*
X21648Y45051D02*
D03*
X15728Y44921D02*
D03*
X15099Y48881D02*
D03*
X12438Y45971D02*
D03*
X19719Y44481D02*
D03*
X12788Y44331D02*
D03*
X12569D02*
D03*
X13528Y48011D02*
D03*
X14489Y48521D02*
D03*
X14708D02*
D03*
X33359Y43291D02*
D03*
X31658Y43141D02*
D03*
X29821Y47012D02*
D03*
X31198Y42121D02*
D03*
X13528Y48231D02*
D03*
X23709Y48201D02*
D03*
X23579Y48401D02*
D03*
X22608Y47641D02*
D03*
X32789Y50471D02*
D03*
X33758Y48601D02*
D03*
X25759Y48041D02*
D03*
X25429Y48621D02*
D03*
X25078Y51211D02*
D03*
X23939Y50031D02*
D03*
X21209Y45241D02*
D03*
X21258Y44771D02*
D03*
X31098Y49701D02*
D03*
X21748Y49641D02*
D03*
X22129Y49631D02*
D03*
X21369Y49641D02*
D03*
X18139Y47541D02*
D03*
X17661Y49153D02*
D03*
X15179Y49111D02*
D03*
X24578Y51721D02*
D03*
X15878Y50911D02*
D03*
X16429Y50751D02*
D03*
X17411Y49303D02*
D03*
X17121Y49413D02*
D03*
X18678Y50471D02*
D03*
X19628Y48781D02*
D03*
X20549Y49301D02*
D03*
X19129Y49871D02*
D03*
X17098Y48831D02*
D03*
X17888Y48211D02*
D03*
X14198Y50561D02*
D03*
X13938Y50781D02*
D03*
X13089Y50711D02*
D03*
X15648Y49361D02*
D03*
X28029Y50211D02*
D03*
X33719Y44301D02*
D03*
X32229Y47641D02*
D03*
X33268Y48191D02*
D03*
X33349Y48421D02*
D03*
X47238Y60131D02*
D03*
X27369Y45421D02*
D03*
X29079Y50311D02*
D03*
X27891Y60663D02*
D03*
X31788Y58893D02*
D03*
X34859Y60921D02*
D03*
X26948Y53251D02*
D03*
Y52621D02*
D03*
X27738Y52931D02*
D03*
X28744Y53126D02*
D03*
X28741Y52623D02*
D03*
X24269Y53756D02*
D03*
X25907Y54961D02*
D03*
X26217Y55511D02*
D03*
X25909Y56401D02*
D03*
X30366Y54181D02*
D03*
X31909Y52361D02*
D03*
X31799Y55151D02*
D03*
X30676Y54181D02*
D03*
X24151Y54463D02*
D03*
X26288Y54271D02*
D03*
X26217Y54961D02*
D03*
X25597D02*
D03*
X25907Y55511D02*
D03*
Y55961D02*
D03*
X25597D02*
D03*
X25598Y56401D02*
D03*
X26219Y57331D02*
D03*
X25907D02*
D03*
X25597D02*
D03*
X26558Y51261D02*
D03*
X30056Y54181D02*
D03*
X24328Y52991D02*
D03*
X23549Y52731D02*
D03*
X23131Y56923D02*
D03*
X22631Y57813D02*
D03*
X23368Y53431D02*
D03*
X24309Y53311D02*
D03*
X20441Y53403D02*
D03*
X20278Y54551D02*
D03*
X20259Y55671D02*
D03*
X21093Y55720D02*
D03*
X32288Y50471D02*
D03*
X33909Y50981D02*
D03*
X39429Y53741D02*
D03*
X40968Y55421D02*
D03*
X19628Y48541D02*
D03*
X34199Y44481D02*
D03*
X15479Y44831D02*
D03*
X23461Y42683D02*
D03*
X34088Y62141D02*
D03*
X29081Y61313D02*
D03*
X26161Y63133D02*
D03*
X15141Y60883D02*
D03*
X19181Y61793D02*
D03*
X26298Y59581D02*
D03*
X30051Y64693D02*
D03*
X32088Y55881D02*
D03*
X32109Y55151D02*
D03*
X34859Y60591D02*
D03*
X33681Y63503D02*
D03*
X34021D02*
D03*
X23379Y58891D02*
D03*
X14749Y58801D02*
D03*
X29571Y53073D02*
D03*
X39977Y45277D02*
D03*
Y45677D02*
D03*
X39577D02*
D03*
Y45277D02*
D03*
X39177D02*
D03*
Y45677D02*
D03*
X38777D02*
D03*
Y45277D02*
D03*
Y44477D02*
D03*
Y44077D02*
D03*
X39177D02*
D03*
Y44477D02*
D03*
X39577D02*
D03*
Y44077D02*
D03*
X39977D02*
D03*
Y44477D02*
D03*
Y44877D02*
D03*
X39577D02*
D03*
X38777D02*
D03*
X39177D02*
D03*
X43230Y58888D02*
D03*
Y59288D02*
D03*
Y58488D02*
D03*
Y58088D02*
D03*
X42830D02*
D03*
X42430D02*
D03*
Y58488D02*
D03*
X42830D02*
D03*
Y58888D02*
D03*
X42430D02*
D03*
Y59288D02*
D03*
X42830D02*
D03*
X43630D02*
D03*
X44030D02*
D03*
Y58888D02*
D03*
X43630D02*
D03*
Y58488D02*
D03*
X44030D02*
D03*
Y58088D02*
D03*
X43630D02*
D03*
X27411Y52923D02*
D03*
X32608Y59501D02*
D03*
X29569Y53371D02*
D03*
X29418Y57511D02*
D03*
X28849Y51431D02*
D03*
X26598Y54271D02*
D03*
X36279Y61651D02*
D03*
X46869Y67001D02*
D03*
X40599Y67331D02*
D03*
X31809Y56131D02*
D03*
X34699Y58931D02*
D03*
X27629Y45421D02*
D03*
X24158Y61471D02*
D03*
X26358Y55961D02*
D03*
X25168Y60131D02*
D03*
X25259Y59691D02*
D03*
X24169Y63501D02*
D03*
X21168Y61971D02*
D03*
X21158Y63021D02*
D03*
Y61231D02*
D03*
X24008Y57891D02*
D03*
X43488Y51381D02*
D03*
X43229Y55531D02*
D03*
X30728Y55271D02*
D03*
X23639Y59491D02*
D03*
X24718Y59401D02*
D03*
X24548Y59061D02*
D03*
X46968Y44381D02*
D03*
X52589Y48901D02*
D03*
X49969Y59401D02*
D03*
X20129Y64271D02*
D03*
X18269Y63961D02*
D03*
X21978Y65421D02*
D03*
X20998Y55351D02*
D03*
X23361Y67193D02*
D03*
X26171Y89855D02*
D03*
X26181Y90635D02*
D03*
X26291Y94955D02*
D03*
X41751Y82355D02*
D03*
X20619Y76473D02*
D03*
X19971Y90375D02*
D03*
X34348Y91493D02*
D03*
X35468Y88333D02*
D03*
X34869Y88123D02*
D03*
X25928Y88513D02*
D03*
X29857Y87234D02*
D03*
X30410Y87244D02*
D03*
X30997D02*
D03*
X25231Y70895D02*
D03*
X24961D02*
D03*
X23458Y70933D02*
D03*
X21091Y70805D02*
D03*
Y71065D02*
D03*
X20951Y71985D02*
D03*
X19301Y70315D02*
D03*
X19311Y70575D02*
D03*
X18051Y70393D02*
D03*
Y70633D02*
D03*
X17321Y70585D02*
D03*
Y70845D02*
D03*
X16361D02*
D03*
Y70585D02*
D03*
X15531Y70925D02*
D03*
X15253D02*
D03*
X45898Y94253D02*
D03*
X17921Y89550D02*
D03*
X36428Y77973D02*
D03*
X39659Y74823D02*
D03*
X40611Y88515D02*
D03*
X40421Y88165D02*
D03*
X39931Y88145D02*
D03*
X38161Y87895D02*
D03*
X27701Y76775D02*
D03*
X32719Y82223D02*
D03*
X27361Y82735D02*
D03*
X26268Y80703D02*
D03*
X24961Y85865D02*
D03*
X19131Y92395D02*
D03*
X19491Y90415D02*
D03*
X20131Y81385D02*
D03*
X19511Y80885D02*
D03*
X19871Y86295D02*
D03*
X25259Y78223D02*
D03*
X24959D02*
D03*
X24469Y79243D02*
D03*
X14708Y78313D02*
D03*
Y78053D02*
D03*
X20199Y77743D02*
D03*
X19878D02*
D03*
X19209Y76193D02*
D03*
X27601Y88575D02*
D03*
X24211Y89015D02*
D03*
X23721Y88205D02*
D03*
X31028Y87623D02*
D03*
X24669Y88803D02*
D03*
X24671Y88185D02*
D03*
X29871Y87615D02*
D03*
X30408Y87613D02*
D03*
X26128Y77173D02*
D03*
X18139Y75803D02*
D03*
X16599Y76283D02*
D03*
X33768Y76833D02*
D03*
X19719Y72213D02*
D03*
X24639Y72473D02*
D03*
X22599Y72323D02*
D03*
X22348D02*
D03*
X18059Y72313D02*
D03*
X17749Y72323D02*
D03*
X16061Y72185D02*
D03*
X16601D02*
D03*
X15468Y72423D02*
D03*
X15138Y72583D02*
D03*
X28619Y73763D02*
D03*
X28849D02*
D03*
X30348Y77083D02*
D03*
X35289Y71803D02*
D03*
X35029D02*
D03*
X33609Y71283D02*
D03*
X31398Y71133D02*
D03*
X33719Y72073D02*
D03*
X21178Y78000D02*
D03*
X21019Y78293D02*
D03*
X25191Y76613D02*
D03*
X21268Y76483D02*
D03*
X22109Y75803D02*
D03*
X22608Y75893D02*
D03*
X26869Y74703D02*
D03*
X16141Y76755D02*
D03*
X28438Y78303D02*
D03*
X31779Y77703D02*
D03*
X30789Y78173D02*
D03*
X31458D02*
D03*
X31918Y78193D02*
D03*
X29743Y76264D02*
D03*
X28010Y76264D02*
D03*
X34859Y76553D02*
D03*
X35578Y76113D02*
D03*
X34058Y72223D02*
D03*
X32229Y75893D02*
D03*
X24639Y72223D02*
D03*
X12679Y78973D02*
D03*
X29399Y78303D02*
D03*
X29759Y78333D02*
D03*
X30089Y78653D02*
D03*
X29639Y79143D02*
D03*
X17119Y73493D02*
D03*
Y73203D02*
D03*
Y72913D02*
D03*
X19079Y76393D02*
D03*
X21648Y73043D02*
D03*
X15728Y72913D02*
D03*
X15099Y76873D02*
D03*
X12438Y73963D02*
D03*
X19719Y72473D02*
D03*
X12788Y72323D02*
D03*
X12569D02*
D03*
X13528Y76003D02*
D03*
X14489Y76513D02*
D03*
X14708D02*
D03*
X33359Y71283D02*
D03*
X31658Y71133D02*
D03*
X29821Y75004D02*
D03*
X31198Y70113D02*
D03*
X13528Y76223D02*
D03*
X23709Y76193D02*
D03*
X23579Y76393D02*
D03*
X22608Y75633D02*
D03*
X32789Y78463D02*
D03*
X33758Y76593D02*
D03*
X25759Y76033D02*
D03*
X25429Y76613D02*
D03*
X25078Y79203D02*
D03*
X23939Y78023D02*
D03*
X21209Y73233D02*
D03*
X21258Y72763D02*
D03*
X31098Y77693D02*
D03*
X21748Y77633D02*
D03*
X22129Y77623D02*
D03*
X21369Y77633D02*
D03*
X18139Y75533D02*
D03*
X17661Y77145D02*
D03*
X15179Y77103D02*
D03*
X24578Y79713D02*
D03*
X15878Y78903D02*
D03*
X16429Y78743D02*
D03*
X17411Y77295D02*
D03*
X17121Y77405D02*
D03*
X18678Y78463D02*
D03*
X19628Y76773D02*
D03*
X20549Y77293D02*
D03*
X19129Y77863D02*
D03*
X17098Y76823D02*
D03*
X17888Y76203D02*
D03*
X14198Y78553D02*
D03*
X13938Y78773D02*
D03*
X13089Y78703D02*
D03*
X15648Y77353D02*
D03*
X28029Y78203D02*
D03*
X33719Y72293D02*
D03*
X32229Y75633D02*
D03*
X33268Y76183D02*
D03*
X33349Y76413D02*
D03*
X47238Y88123D02*
D03*
X27369Y73413D02*
D03*
X29079Y78303D02*
D03*
X27891Y88655D02*
D03*
X31788Y86885D02*
D03*
X34859Y88913D02*
D03*
X26948Y81243D02*
D03*
Y80613D02*
D03*
X27738Y80923D02*
D03*
X28744Y81118D02*
D03*
X28741Y80615D02*
D03*
X24269Y81748D02*
D03*
X25907Y82953D02*
D03*
X26217Y83503D02*
D03*
X25909Y84393D02*
D03*
X30366Y82173D02*
D03*
X31909Y80353D02*
D03*
X31799Y83143D02*
D03*
X30676Y82173D02*
D03*
X24151Y82455D02*
D03*
X26288Y82263D02*
D03*
X26217Y82953D02*
D03*
X25597D02*
D03*
X25907Y83503D02*
D03*
Y83953D02*
D03*
X25597D02*
D03*
X25598Y84393D02*
D03*
X26219Y85323D02*
D03*
X25907D02*
D03*
X25597D02*
D03*
X26558Y79253D02*
D03*
X30056Y82173D02*
D03*
X24328Y80983D02*
D03*
X23549Y80723D02*
D03*
X23131Y84915D02*
D03*
X22631Y85805D02*
D03*
X23368Y81423D02*
D03*
X24309Y81303D02*
D03*
X20441Y81395D02*
D03*
X20278Y82543D02*
D03*
X20259Y83663D02*
D03*
X21093Y83712D02*
D03*
X32288Y78463D02*
D03*
X33909Y78973D02*
D03*
X39429Y81733D02*
D03*
X40968Y83413D02*
D03*
X19628Y76533D02*
D03*
X34199Y72473D02*
D03*
X15479Y72823D02*
D03*
X23461Y70675D02*
D03*
X34088Y90133D02*
D03*
X29081Y89305D02*
D03*
X26161Y91125D02*
D03*
X15141Y88875D02*
D03*
X19181Y89785D02*
D03*
X26298Y87573D02*
D03*
X30051Y92685D02*
D03*
X32088Y83873D02*
D03*
X32109Y83143D02*
D03*
X34859Y88583D02*
D03*
X33681Y91495D02*
D03*
X34021D02*
D03*
X23379Y86883D02*
D03*
X14749Y86793D02*
D03*
X29571Y81065D02*
D03*
X39977Y73270D02*
D03*
Y73670D02*
D03*
X39577D02*
D03*
Y73270D02*
D03*
X39177D02*
D03*
Y73670D02*
D03*
X38777D02*
D03*
Y73270D02*
D03*
Y72470D02*
D03*
Y72070D02*
D03*
X39177D02*
D03*
Y72470D02*
D03*
X39577D02*
D03*
Y72070D02*
D03*
X39977D02*
D03*
Y72470D02*
D03*
Y72870D02*
D03*
X39577D02*
D03*
X38777D02*
D03*
X39177D02*
D03*
X43230Y86880D02*
D03*
Y87280D02*
D03*
Y86480D02*
D03*
Y86080D02*
D03*
X42830D02*
D03*
X42430D02*
D03*
Y86480D02*
D03*
X42830D02*
D03*
Y86880D02*
D03*
X42430D02*
D03*
Y87280D02*
D03*
X42830D02*
D03*
X43630D02*
D03*
X44030D02*
D03*
Y86880D02*
D03*
X43630D02*
D03*
Y86480D02*
D03*
X44030D02*
D03*
Y86080D02*
D03*
X43630D02*
D03*
X27411Y80915D02*
D03*
X32608Y87493D02*
D03*
X29569Y81363D02*
D03*
X29418Y85503D02*
D03*
X28849Y79423D02*
D03*
X26598Y82263D02*
D03*
X36279Y89643D02*
D03*
X46869Y94993D02*
D03*
X40599Y95323D02*
D03*
X31809Y84123D02*
D03*
X34699Y86923D02*
D03*
X27629Y73413D02*
D03*
X24158Y89463D02*
D03*
X26358Y83953D02*
D03*
X25168Y88123D02*
D03*
X25259Y87683D02*
D03*
X24169Y91493D02*
D03*
X21168Y89963D02*
D03*
X21158Y91013D02*
D03*
Y89223D02*
D03*
X24008Y85883D02*
D03*
X43488Y79373D02*
D03*
X43229Y83523D02*
D03*
X30728Y83263D02*
D03*
X23639Y87483D02*
D03*
X24718Y87393D02*
D03*
X24548Y87053D02*
D03*
X46968Y72373D02*
D03*
X52589Y76893D02*
D03*
X49969Y87393D02*
D03*
X20129Y92263D02*
D03*
X18269Y91953D02*
D03*
X21978Y93413D02*
D03*
X20998Y83343D02*
D03*
X23361Y95185D02*
D03*
M02*
