G04 Layer_Color=32896*
%FSLAX24Y24*%
%MOIN*%
G70*
G01*
G75*
%ADD10C,0.0070*%
%ADD12C,0.0100*%
%ADD14C,0.0080*%
%ADD147C,0.0050*%
%ADD148C,0.0060*%
G54D10*
X52144Y21851D02*
X52278D01*
X52211D01*
Y21518D01*
X52278Y21451D01*
X52344D01*
X52411Y21518D01*
X52011Y21451D02*
Y21851D01*
X51811D01*
X51745Y21784D01*
Y21651D01*
X51811Y21584D01*
X52011D01*
X51345Y21451D02*
X51611D01*
X51345Y21718D01*
Y21784D01*
X51411Y21851D01*
X51545D01*
X51611Y21784D01*
X52144Y49843D02*
X52278D01*
X52211D01*
Y49510D01*
X52278Y49443D01*
X52344D01*
X52411Y49510D01*
X52011Y49443D02*
Y49843D01*
X51811D01*
X51745Y49776D01*
Y49643D01*
X51811Y49576D01*
X52011D01*
X51345Y49443D02*
X51611D01*
X51345Y49710D01*
Y49776D01*
X51411Y49843D01*
X51545D01*
X51611Y49776D01*
X52144Y77835D02*
X52278D01*
X52211D01*
Y77502D01*
X52278Y77435D01*
X52344D01*
X52411Y77502D01*
X52011Y77435D02*
Y77835D01*
X51811D01*
X51745Y77769D01*
Y77635D01*
X51811Y77569D01*
X52011D01*
X51345Y77435D02*
X51611D01*
X51345Y77702D01*
Y77769D01*
X51411Y77835D01*
X51545D01*
X51611Y77769D01*
G54D12*
X18600Y107200D02*
X18200D01*
Y106600D01*
X18600D01*
X18200Y106900D02*
X18400D01*
X18800Y106600D02*
X19000D01*
X18900D01*
Y107000D01*
X18800D01*
X19300Y106600D02*
Y107000D01*
X19600D01*
X19700Y106900D01*
Y106600D01*
X19899D02*
X20199D01*
X20299Y106700D01*
X20199Y106800D01*
X19999D01*
X19899Y106900D01*
X19999Y107000D01*
X20299D01*
X20499D02*
Y106700D01*
X20599Y106600D01*
X20899D01*
Y106500D01*
X20799Y106400D01*
X20699D01*
X20899Y106600D02*
Y107000D01*
X21699Y107100D02*
X21799Y107200D01*
X21999D01*
X22099Y107100D01*
Y106700D01*
X21999Y106600D01*
X21799D01*
X21699Y106700D01*
Y107100D01*
X22299Y106600D02*
Y106700D01*
X22399D01*
Y106600D01*
X22299D01*
X22799Y107100D02*
X22898Y107200D01*
X23098D01*
X23198Y107100D01*
Y107000D01*
X23098Y106900D01*
X22998D01*
X23098D01*
X23198Y106800D01*
Y106700D01*
X23098Y106600D01*
X22898D01*
X22799Y106700D01*
X23498Y107000D02*
X23698D01*
X23798Y106900D01*
Y106600D01*
X23498D01*
X23398Y106700D01*
X23498Y106800D01*
X23798D01*
X18200Y106000D02*
Y105400D01*
X18500D01*
X18600Y105500D01*
Y105600D01*
X18500Y105700D01*
X18200D01*
X18500D01*
X18600Y105800D01*
Y105900D01*
X18500Y106000D01*
X18200D01*
X18900Y105400D02*
X19100D01*
X19200Y105500D01*
Y105700D01*
X19100Y105800D01*
X18900D01*
X18800Y105700D01*
Y105500D01*
X18900Y105400D01*
X19500Y105900D02*
Y105800D01*
X19400D01*
X19600D01*
X19500D01*
Y105500D01*
X19600Y105400D01*
X19999Y105900D02*
Y105800D01*
X19899D01*
X20099D01*
X19999D01*
Y105500D01*
X20099Y105400D01*
X20499D02*
X20699D01*
X20799Y105500D01*
Y105700D01*
X20699Y105800D01*
X20499D01*
X20399Y105700D01*
Y105500D01*
X20499Y105400D01*
X20999D02*
Y105800D01*
X21099D01*
X21199Y105700D01*
Y105400D01*
Y105700D01*
X21299Y105800D01*
X21399Y105700D01*
Y105400D01*
X22599Y105900D02*
X22499Y106000D01*
X22299D01*
X22199Y105900D01*
Y105800D01*
X22299Y105700D01*
X22499D01*
X22599Y105600D01*
Y105500D01*
X22499Y105400D01*
X22299D01*
X22199Y105500D01*
X22799Y105400D02*
X22998D01*
X22898D01*
Y105800D01*
X22799D01*
X23298Y105400D02*
X23498D01*
X23398D01*
Y106000D01*
X23298D01*
X23798Y105400D02*
Y106000D01*
Y105600D02*
X24098Y105800D01*
X23798Y105600D02*
X24098Y105400D01*
X24398D02*
X24698D01*
X24798Y105500D01*
X24698Y105600D01*
X24498D01*
X24398Y105700D01*
X24498Y105800D01*
X24798D01*
X25398D02*
X25098D01*
X24998Y105700D01*
Y105500D01*
X25098Y105400D01*
X25398D01*
X25598Y105800D02*
Y105400D01*
Y105600D01*
X25698Y105700D01*
X25798Y105800D01*
X25898D01*
X26497Y105400D02*
X26297D01*
X26197Y105500D01*
Y105700D01*
X26297Y105800D01*
X26497D01*
X26597Y105700D01*
Y105600D01*
X26197D01*
X27097Y105400D02*
X26897D01*
X26797Y105500D01*
Y105700D01*
X26897Y105800D01*
X27097D01*
X27197Y105700D01*
Y105600D01*
X26797D01*
X27397Y105400D02*
Y105800D01*
X27697D01*
X27797Y105700D01*
Y105400D01*
G54D14*
X17131Y30601D02*
X17601Y31001D01*
X18651Y30401D02*
X18821Y30631D01*
X17131Y58593D02*
X17601Y58993D01*
X18651Y58393D02*
X18821Y58623D01*
X17131Y86585D02*
X17601Y86985D01*
X18651Y86385D02*
X18821Y86615D01*
G54D147*
X31358Y21528D02*
X31192D01*
X31275D01*
Y21279D01*
X31109D02*
Y21528D01*
X30984D01*
X30942Y21487D01*
Y21403D01*
X30984Y21362D01*
X31109D01*
X30859Y21487D02*
X30817Y21528D01*
X30734D01*
X30692Y21487D01*
Y21445D01*
X30734Y21403D01*
X30692Y21362D01*
Y21320D01*
X30734Y21279D01*
X30817D01*
X30859Y21320D01*
Y21362D01*
X30817Y21403D01*
X30859Y21445D01*
Y21487D01*
X30817Y21403D02*
X30734D01*
X21514Y31871D02*
X21598D01*
X21556D01*
Y31663D01*
X21598Y31621D01*
X21639D01*
X21681Y31663D01*
X21431Y31621D02*
Y31871D01*
X21306D01*
X21264Y31829D01*
Y31746D01*
X21306Y31704D01*
X21431D01*
X21181Y31621D02*
X21098D01*
X21140D01*
Y31871D01*
X21181Y31829D01*
X22061Y35921D02*
X21894D01*
Y35879D01*
X22061Y35713D01*
Y35671D01*
X21894D01*
X21811Y35796D02*
X21644D01*
X21561Y35921D02*
X21395D01*
X21478D01*
Y35671D01*
X21311Y35921D02*
Y35671D01*
Y35796D01*
X21145D01*
Y35921D01*
Y35671D01*
X20895Y35921D02*
X21061D01*
Y35671D01*
X20895D01*
X21061Y35796D02*
X20978D01*
X20811Y35671D02*
Y35921D01*
X20686D01*
X20645Y35879D01*
Y35796D01*
X20686Y35754D01*
X20811D01*
X20728D02*
X20645Y35671D01*
X20562D02*
Y35921D01*
X20478Y35838D01*
X20395Y35921D01*
Y35671D01*
X31358Y49521D02*
X31192D01*
X31275D01*
Y49271D01*
X31109D02*
Y49521D01*
X30984D01*
X30942Y49479D01*
Y49396D01*
X30984Y49354D01*
X31109D01*
X30859Y49479D02*
X30817Y49521D01*
X30734D01*
X30692Y49479D01*
Y49437D01*
X30734Y49396D01*
X30692Y49354D01*
Y49312D01*
X30734Y49271D01*
X30817D01*
X30859Y49312D01*
Y49354D01*
X30817Y49396D01*
X30859Y49437D01*
Y49479D01*
X30817Y49396D02*
X30734D01*
X21514Y59863D02*
X21598D01*
X21556D01*
Y59655D01*
X21598Y59613D01*
X21639D01*
X21681Y59655D01*
X21431Y59613D02*
Y59863D01*
X21306D01*
X21264Y59821D01*
Y59738D01*
X21306Y59696D01*
X21431D01*
X21181Y59613D02*
X21098D01*
X21140D01*
Y59863D01*
X21181Y59821D01*
X22061Y63913D02*
X21894D01*
Y63871D01*
X22061Y63705D01*
Y63663D01*
X21894D01*
X21811Y63788D02*
X21644D01*
X21561Y63913D02*
X21395D01*
X21478D01*
Y63663D01*
X21311Y63913D02*
Y63663D01*
Y63788D01*
X21145D01*
Y63913D01*
Y63663D01*
X20895Y63913D02*
X21061D01*
Y63663D01*
X20895D01*
X21061Y63788D02*
X20978D01*
X20811Y63663D02*
Y63913D01*
X20686D01*
X20645Y63871D01*
Y63788D01*
X20686Y63746D01*
X20811D01*
X20728D02*
X20645Y63663D01*
X20562D02*
Y63913D01*
X20478Y63830D01*
X20395Y63913D01*
Y63663D01*
X31358Y77513D02*
X31192D01*
X31275D01*
Y77263D01*
X31109D02*
Y77513D01*
X30984D01*
X30942Y77471D01*
Y77388D01*
X30984Y77346D01*
X31109D01*
X30859Y77471D02*
X30817Y77513D01*
X30734D01*
X30692Y77471D01*
Y77429D01*
X30734Y77388D01*
X30692Y77346D01*
Y77304D01*
X30734Y77263D01*
X30817D01*
X30859Y77304D01*
Y77346D01*
X30817Y77388D01*
X30859Y77429D01*
Y77471D01*
X30817Y77388D02*
X30734D01*
X21514Y87855D02*
X21598D01*
X21556D01*
Y87647D01*
X21598Y87605D01*
X21639D01*
X21681Y87647D01*
X21431Y87605D02*
Y87855D01*
X21306D01*
X21264Y87814D01*
Y87730D01*
X21306Y87689D01*
X21431D01*
X21181Y87605D02*
X21098D01*
X21140D01*
Y87855D01*
X21181Y87814D01*
X22061Y91905D02*
X21894D01*
Y91864D01*
X22061Y91697D01*
Y91655D01*
X21894D01*
X21811Y91780D02*
X21644D01*
X21561Y91905D02*
X21395D01*
X21478D01*
Y91655D01*
X21311Y91905D02*
Y91655D01*
Y91780D01*
X21145D01*
Y91905D01*
Y91655D01*
X20895Y91905D02*
X21061D01*
Y91655D01*
X20895D01*
X21061Y91780D02*
X20978D01*
X20811Y91655D02*
Y91905D01*
X20686D01*
X20645Y91864D01*
Y91780D01*
X20686Y91739D01*
X20811D01*
X20728D02*
X20645Y91655D01*
X20562D02*
Y91905D01*
X20478Y91822D01*
X20395Y91905D01*
Y91655D01*
G54D148*
X51329Y21309D02*
X51258Y21279D01*
X51228Y21209D01*
X52529D02*
X52499Y21279D01*
X52428Y21309D01*
Y20508D02*
X52499Y20538D01*
X52529Y20608D01*
X51228D02*
X51258Y20538D01*
X51329Y20508D01*
X20200Y29913D02*
X20230Y29842D01*
X20300Y29813D01*
Y31113D02*
X20230Y31083D01*
X20200Y31013D01*
X21000D02*
X20971Y31083D01*
X20900Y31113D01*
Y29813D02*
X20971Y29842D01*
X21000Y29913D01*
X51329Y20508D02*
X52428D01*
X51228Y20608D02*
Y21209D01*
X52529Y20608D02*
Y21209D01*
X51329Y21309D02*
X52428D01*
X21000Y29913D02*
Y31013D01*
X20300Y29813D02*
X20900D01*
X20300Y31113D02*
X20900D01*
X20200Y29913D02*
Y31013D01*
X43601Y24131D02*
X43368D01*
X43484D01*
Y23781D01*
X43251D02*
Y24131D01*
X43076D01*
X43018Y24073D01*
Y23956D01*
X43076Y23898D01*
X43251D01*
X42901Y24073D02*
X42843Y24131D01*
X42726D01*
X42668Y24073D01*
Y24014D01*
X42726Y23956D01*
X42785D01*
X42726D01*
X42668Y23898D01*
Y23839D01*
X42726Y23781D01*
X42843D01*
X42901Y23839D01*
X42551Y24073D02*
X42493Y24131D01*
X42376D01*
X42318Y24073D01*
Y24014D01*
X42376Y23956D01*
X42435D01*
X42376D01*
X42318Y23898D01*
Y23839D01*
X42376Y23781D01*
X42493D01*
X42551Y23839D01*
X40751Y27661D02*
X40518D01*
X40634D01*
Y27311D01*
X40401D02*
Y27661D01*
X40226D01*
X40168Y27603D01*
Y27486D01*
X40226Y27428D01*
X40401D01*
X39818Y27311D02*
X40051D01*
X39818Y27544D01*
Y27603D01*
X39876Y27661D01*
X39993D01*
X40051Y27603D01*
X39701D02*
X39643Y27661D01*
X39526D01*
X39468Y27603D01*
Y27544D01*
X39526Y27486D01*
X39585D01*
X39526D01*
X39468Y27428D01*
Y27369D01*
X39526Y27311D01*
X39643D01*
X39701Y27369D01*
X40141Y30101D02*
X39908D01*
X40024D01*
Y29751D01*
X39791D02*
Y30101D01*
X39616D01*
X39558Y30043D01*
Y29926D01*
X39616Y29868D01*
X39791D01*
X39208Y29751D02*
X39441D01*
X39208Y29984D01*
Y30043D01*
X39266Y30101D01*
X39383D01*
X39441Y30043D01*
X38858Y29751D02*
X39091D01*
X38858Y29984D01*
Y30043D01*
X38916Y30101D01*
X39033D01*
X39091Y30043D01*
X31081Y13401D02*
Y13634D01*
Y13518D01*
X30731D01*
Y13751D02*
X31081D01*
Y13926D01*
X31023Y13984D01*
X30906D01*
X30848Y13926D01*
Y13751D01*
X31081Y14334D02*
Y14101D01*
X30906D01*
X30964Y14217D01*
Y14276D01*
X30906Y14334D01*
X30789D01*
X30731Y14276D01*
Y14159D01*
X30789Y14101D01*
X30731Y14684D02*
Y14451D01*
X30964Y14684D01*
X31023D01*
X31081Y14626D01*
Y14509D01*
X31023Y14451D01*
X33521Y15301D02*
Y15534D01*
Y15418D01*
X33171D01*
Y15651D02*
X33521D01*
Y15826D01*
X33463Y15884D01*
X33346D01*
X33288Y15826D01*
Y15651D01*
X33171Y16001D02*
Y16117D01*
Y16059D01*
X33521D01*
X33463Y16001D01*
X33229Y16292D02*
X33171Y16351D01*
Y16467D01*
X33229Y16526D01*
X33463D01*
X33521Y16467D01*
Y16351D01*
X33463Y16292D01*
X33404D01*
X33346Y16351D01*
Y16526D01*
X32511Y15281D02*
Y15514D01*
Y15398D01*
X32161D01*
Y15631D02*
X32511D01*
Y15806D01*
X32453Y15864D01*
X32336D01*
X32278Y15806D01*
Y15631D01*
X32161Y15981D02*
Y16097D01*
Y16039D01*
X32511D01*
X32453Y15981D01*
Y16272D02*
X32511Y16331D01*
Y16447D01*
X32453Y16506D01*
X32219D01*
X32161Y16447D01*
Y16331D01*
X32219Y16272D01*
X32453D01*
X35161Y14731D02*
Y14964D01*
Y14848D01*
X34811D01*
Y15081D02*
X35161D01*
Y15256D01*
X35103Y15314D01*
X34986D01*
X34928Y15256D01*
Y15081D01*
X34869Y15431D02*
X34811Y15489D01*
Y15606D01*
X34869Y15664D01*
X35103D01*
X35161Y15606D01*
Y15489D01*
X35103Y15431D01*
X35044D01*
X34986Y15489D01*
Y15664D01*
X26791Y14701D02*
X26558D01*
X26674D01*
Y14351D01*
X26441D02*
Y14701D01*
X26266D01*
X26208Y14643D01*
Y14526D01*
X26266Y14468D01*
X26441D01*
X25858Y14701D02*
X26091D01*
Y14526D01*
X25975Y14584D01*
X25916D01*
X25858Y14526D01*
Y14409D01*
X25916Y14351D01*
X26033D01*
X26091Y14409D01*
X25741Y14351D02*
X25625D01*
X25683D01*
Y14701D01*
X25741Y14643D01*
X29306Y14344D02*
X29104Y14461D01*
X29205Y14402D01*
X29030Y14099D01*
X28828Y14216D02*
X29003Y14519D01*
X28851Y14606D01*
X28772Y14585D01*
X28713Y14484D01*
X28735Y14404D01*
X28886Y14317D01*
X28700Y14694D02*
X28498Y14811D01*
X28469Y14760D01*
X28554Y14441D01*
X28525Y14391D01*
X28386Y14304D02*
X28184Y14421D01*
X28285Y14362D01*
X28110Y14059D01*
X27908Y14176D02*
X28083Y14479D01*
X27931Y14566D01*
X27852Y14545D01*
X27793Y14444D01*
X27815Y14364D01*
X27966Y14277D01*
X27578Y14771D02*
X27650Y14662D01*
X27692Y14502D01*
X27634Y14401D01*
X27555Y14380D01*
X27453Y14438D01*
X27432Y14518D01*
X27461Y14569D01*
X27541Y14590D01*
X27692Y14502D01*
X30326Y14344D02*
X30124Y14461D01*
X30225Y14402D01*
X30050Y14099D01*
X29848Y14216D02*
X30023Y14519D01*
X29871Y14606D01*
X29792Y14585D01*
X29733Y14484D01*
X29755Y14404D01*
X29906Y14317D01*
X29518Y14811D02*
X29720Y14694D01*
X29632Y14542D01*
X29561Y14651D01*
X29510Y14680D01*
X29430Y14659D01*
X29372Y14558D01*
X29393Y14478D01*
X29495Y14420D01*
X29574Y14441D01*
X19721Y14661D02*
Y14894D01*
Y14778D01*
X19371D01*
Y15011D02*
X19721D01*
Y15186D01*
X19663Y15244D01*
X19546D01*
X19488Y15186D01*
Y15011D01*
X19721Y15594D02*
Y15361D01*
X19546D01*
X19604Y15477D01*
Y15536D01*
X19546Y15594D01*
X19429D01*
X19371Y15536D01*
Y15419D01*
X19429Y15361D01*
X19663Y15711D02*
X19721Y15769D01*
Y15886D01*
X19663Y15944D01*
X19604D01*
X19546Y15886D01*
Y15827D01*
Y15886D01*
X19488Y15944D01*
X19429D01*
X19371Y15886D01*
Y15769D01*
X19429Y15711D01*
X23511Y15311D02*
Y15544D01*
Y15428D01*
X23161D01*
Y15661D02*
X23511D01*
Y15836D01*
X23453Y15894D01*
X23336D01*
X23278Y15836D01*
Y15661D01*
X23511Y16244D02*
Y16011D01*
X23336D01*
X23394Y16127D01*
Y16186D01*
X23336Y16244D01*
X23219D01*
X23161Y16186D01*
Y16069D01*
X23219Y16011D01*
X23453Y16361D02*
X23511Y16419D01*
Y16536D01*
X23453Y16594D01*
X23219D01*
X23161Y16536D01*
Y16419D01*
X23219Y16361D01*
X23453D01*
X22361Y15271D02*
Y15504D01*
Y15388D01*
X22011D01*
Y15621D02*
X22361D01*
Y15796D01*
X22303Y15854D01*
X22186D01*
X22128Y15796D01*
Y15621D01*
X22011Y16146D02*
X22361D01*
X22186Y15971D01*
Y16204D01*
X25141Y14661D02*
Y14894D01*
Y14778D01*
X24791D01*
Y15011D02*
X25141D01*
Y15186D01*
X25083Y15244D01*
X24966D01*
X24908Y15186D01*
Y15011D01*
X24791Y15594D02*
Y15361D01*
X25024Y15594D01*
X25083D01*
X25141Y15536D01*
Y15419D01*
X25083Y15361D01*
X13661Y15811D02*
Y16044D01*
Y15928D01*
X13311D01*
Y16161D02*
X13661D01*
Y16336D01*
X13603Y16394D01*
X13486D01*
X13428Y16336D01*
Y16161D01*
X13311Y16511D02*
Y16627D01*
Y16569D01*
X13661D01*
X13603Y16511D01*
X41141Y13241D02*
Y13474D01*
Y13358D01*
X40791D01*
Y13591D02*
X41141D01*
Y13766D01*
X41083Y13824D01*
X40966D01*
X40908Y13766D01*
Y13591D01*
X41141Y14174D02*
X41083Y14057D01*
X40966Y13941D01*
X40849D01*
X40791Y13999D01*
Y14116D01*
X40849Y14174D01*
X40908D01*
X40966Y14116D01*
Y13941D01*
X40849Y14291D02*
X40791Y14349D01*
Y14466D01*
X40849Y14524D01*
X41083D01*
X41141Y14466D01*
Y14349D01*
X41083Y14291D01*
X41024D01*
X40966Y14349D01*
Y14524D01*
X47651Y13721D02*
Y13954D01*
Y13838D01*
X47301D01*
Y14071D02*
X47651D01*
Y14246D01*
X47593Y14304D01*
X47476D01*
X47418Y14246D01*
Y14071D01*
X47651Y14654D02*
X47593Y14537D01*
X47476Y14421D01*
X47359D01*
X47301Y14479D01*
Y14596D01*
X47359Y14654D01*
X47418D01*
X47476Y14596D01*
Y14421D01*
X47593Y14771D02*
X47651Y14829D01*
Y14946D01*
X47593Y15004D01*
X47534D01*
X47476Y14946D01*
X47418Y15004D01*
X47359D01*
X47301Y14946D01*
Y14829D01*
X47359Y14771D01*
X47418D01*
X47476Y14829D01*
X47534Y14771D01*
X47593D01*
X47476Y14829D02*
Y14946D01*
X45191Y14411D02*
Y14644D01*
Y14528D01*
X44841D01*
Y14761D02*
X45191D01*
Y14936D01*
X45133Y14994D01*
X45016D01*
X44958Y14936D01*
Y14761D01*
X45191Y15344D02*
X45133Y15227D01*
X45016Y15111D01*
X44899D01*
X44841Y15169D01*
Y15286D01*
X44899Y15344D01*
X44958D01*
X45016Y15286D01*
Y15111D01*
X45191Y15461D02*
Y15694D01*
X45133D01*
X44899Y15461D01*
X44841D01*
X43561Y14321D02*
Y14554D01*
Y14438D01*
X43211D01*
Y14671D02*
X43561D01*
Y14846D01*
X43503Y14904D01*
X43386D01*
X43328Y14846D01*
Y14671D01*
X43561Y15254D02*
X43503Y15137D01*
X43386Y15021D01*
X43269D01*
X43211Y15079D01*
Y15196D01*
X43269Y15254D01*
X43328D01*
X43386Y15196D01*
Y15021D01*
X43561Y15604D02*
X43503Y15487D01*
X43386Y15371D01*
X43269D01*
X43211Y15429D01*
Y15546D01*
X43269Y15604D01*
X43328D01*
X43386Y15546D01*
Y15371D01*
X28591Y39421D02*
X28358D01*
X28474D01*
Y39071D01*
X28241D02*
Y39421D01*
X28066D01*
X28008Y39363D01*
Y39246D01*
X28066Y39188D01*
X28241D01*
X27716Y39071D02*
Y39421D01*
X27891Y39246D01*
X27658D01*
X27541Y39363D02*
X27483Y39421D01*
X27366D01*
X27308Y39363D01*
Y39304D01*
X27366Y39246D01*
X27308Y39188D01*
Y39129D01*
X27366Y39071D01*
X27483D01*
X27541Y39129D01*
Y39188D01*
X27483Y39246D01*
X27541Y39304D01*
Y39363D01*
X27483Y39246D02*
X27366D01*
X14591Y27191D02*
X14358D01*
X14474D01*
Y26841D01*
X14241D02*
Y27191D01*
X14066D01*
X14008Y27133D01*
Y27016D01*
X14066Y26958D01*
X14241D01*
X13716Y26841D02*
Y27191D01*
X13891Y27016D01*
X13658D01*
X13541Y27191D02*
X13308D01*
Y27133D01*
X13541Y26899D01*
Y26841D01*
X16521Y24221D02*
Y24454D01*
Y24338D01*
X16171D01*
Y24571D02*
X16521D01*
Y24746D01*
X16463Y24804D01*
X16346D01*
X16288Y24746D01*
Y24571D01*
X16171Y25096D02*
X16521D01*
X16346Y24921D01*
Y25154D01*
X16521Y25504D02*
X16463Y25387D01*
X16346Y25271D01*
X16229D01*
X16171Y25329D01*
Y25446D01*
X16229Y25504D01*
X16288D01*
X16346Y25446D01*
Y25271D01*
X18651Y30641D02*
X18418D01*
X18534D01*
Y30291D01*
X18301D02*
Y30641D01*
X18126D01*
X18068Y30583D01*
Y30466D01*
X18126Y30408D01*
X18301D01*
X17776Y30291D02*
Y30641D01*
X17951Y30466D01*
X17718D01*
X17368Y30641D02*
X17601D01*
Y30466D01*
X17485Y30524D01*
X17426D01*
X17368Y30466D01*
Y30349D01*
X17426Y30291D01*
X17543D01*
X17601Y30349D01*
X16231Y32261D02*
Y32494D01*
Y32378D01*
X15881D01*
Y32611D02*
X16231D01*
Y32786D01*
X16173Y32844D01*
X16056D01*
X15998Y32786D01*
Y32611D01*
X15881Y33136D02*
X16231D01*
X16056Y32961D01*
Y33194D01*
X15881Y33486D02*
X16231D01*
X16056Y33311D01*
Y33544D01*
X17001Y30561D02*
X16768D01*
X16884D01*
Y30211D01*
X16651D02*
Y30561D01*
X16476D01*
X16418Y30503D01*
Y30386D01*
X16476Y30328D01*
X16651D01*
X16126Y30211D02*
Y30561D01*
X16301Y30386D01*
X16068D01*
X15951Y30503D02*
X15893Y30561D01*
X15776D01*
X15718Y30503D01*
Y30444D01*
X15776Y30386D01*
X15835D01*
X15776D01*
X15718Y30328D01*
Y30269D01*
X15776Y30211D01*
X15893D01*
X15951Y30269D01*
X19151Y28331D02*
Y28564D01*
Y28448D01*
X18801D01*
Y28681D02*
X19151D01*
Y28856D01*
X19093Y28914D01*
X18976D01*
X18918Y28856D01*
Y28681D01*
X18801Y29206D02*
X19151D01*
X18976Y29031D01*
Y29264D01*
X18801Y29614D02*
Y29381D01*
X19034Y29614D01*
X19093D01*
X19151Y29556D01*
Y29439D01*
X19093Y29381D01*
X23561Y36821D02*
X23328D01*
X23444D01*
Y36471D01*
X23211D02*
Y36821D01*
X23036D01*
X22978Y36763D01*
Y36646D01*
X23036Y36588D01*
X23211D01*
X22686Y36471D02*
Y36821D01*
X22861Y36646D01*
X22628D01*
X22511Y36763D02*
X22453Y36821D01*
X22336D01*
X22278Y36763D01*
Y36529D01*
X22336Y36471D01*
X22453D01*
X22511Y36529D01*
Y36763D01*
X19411Y34261D02*
Y34494D01*
Y34378D01*
X19061D01*
Y34611D02*
X19411D01*
Y34786D01*
X19353Y34844D01*
X19236D01*
X19178Y34786D01*
Y34611D01*
X19353Y34961D02*
X19411Y35019D01*
Y35136D01*
X19353Y35194D01*
X19294D01*
X19236Y35136D01*
Y35077D01*
Y35136D01*
X19178Y35194D01*
X19119D01*
X19061Y35136D01*
Y35019D01*
X19119Y34961D01*
X19353Y35311D02*
X19411Y35369D01*
Y35486D01*
X19353Y35544D01*
X19294D01*
X19236Y35486D01*
X19178Y35544D01*
X19119D01*
X19061Y35486D01*
Y35369D01*
X19119Y35311D01*
X19178D01*
X19236Y35369D01*
X19294Y35311D01*
X19353D01*
X19236Y35369D02*
Y35486D01*
X25411Y29351D02*
Y29584D01*
Y29468D01*
X25061D01*
Y29701D02*
X25411D01*
Y29876D01*
X25353Y29934D01*
X25236D01*
X25178Y29876D01*
Y29701D01*
X25353Y30051D02*
X25411Y30109D01*
Y30226D01*
X25353Y30284D01*
X25294D01*
X25236Y30226D01*
Y30167D01*
Y30226D01*
X25178Y30284D01*
X25119D01*
X25061Y30226D01*
Y30109D01*
X25119Y30051D01*
X25411Y30401D02*
Y30634D01*
X25353D01*
X25119Y30401D01*
X25061D01*
X30571Y32641D02*
X30338D01*
X30454D01*
Y32291D01*
X30221D02*
Y32641D01*
X30046D01*
X29988Y32583D01*
Y32466D01*
X30046Y32408D01*
X30221D01*
X29871Y32583D02*
X29813Y32641D01*
X29696D01*
X29638Y32583D01*
Y32524D01*
X29696Y32466D01*
X29755D01*
X29696D01*
X29638Y32408D01*
Y32349D01*
X29696Y32291D01*
X29813D01*
X29871Y32349D01*
X29288Y32641D02*
X29405Y32583D01*
X29521Y32466D01*
Y32349D01*
X29463Y32291D01*
X29346D01*
X29288Y32349D01*
Y32408D01*
X29346Y32466D01*
X29521D01*
X23101Y31301D02*
Y31534D01*
Y31418D01*
X22751D01*
Y31651D02*
X23101D01*
Y31826D01*
X23043Y31884D01*
X22926D01*
X22868Y31826D01*
Y31651D01*
X23043Y32001D02*
X23101Y32059D01*
Y32176D01*
X23043Y32234D01*
X22984D01*
X22926Y32176D01*
Y32117D01*
Y32176D01*
X22868Y32234D01*
X22809D01*
X22751Y32176D01*
Y32059D01*
X22809Y32001D01*
X22751Y32526D02*
X23101D01*
X22926Y32351D01*
Y32584D01*
X33621Y24401D02*
X33388D01*
X33504D01*
Y24051D01*
X33271D02*
Y24401D01*
X33096D01*
X33038Y24343D01*
Y24226D01*
X33096Y24168D01*
X33271D01*
X32921Y24051D02*
X32805D01*
X32863D01*
Y24401D01*
X32921Y24343D01*
X32396Y24401D02*
X32630D01*
Y24226D01*
X32513Y24284D01*
X32455D01*
X32396Y24226D01*
Y24109D01*
X32455Y24051D01*
X32571D01*
X32630Y24109D01*
X35161Y28641D02*
X34928D01*
X35044D01*
Y28291D01*
X34811D02*
Y28641D01*
X34636D01*
X34578Y28583D01*
Y28466D01*
X34636Y28408D01*
X34811D01*
X34228Y28291D02*
X34461D01*
X34228Y28524D01*
Y28583D01*
X34286Y28641D01*
X34403D01*
X34461Y28583D01*
X34111D02*
X34053Y28641D01*
X33936D01*
X33878Y28583D01*
Y28349D01*
X33936Y28291D01*
X34053D01*
X34111Y28349D01*
Y28583D01*
X33751Y26621D02*
X33518D01*
X33634D01*
Y26271D01*
X33401D02*
Y26621D01*
X33226D01*
X33168Y26563D01*
Y26446D01*
X33226Y26388D01*
X33401D01*
X32818Y26271D02*
X33051D01*
X32818Y26504D01*
Y26563D01*
X32876Y26621D01*
X32993D01*
X33051Y26563D01*
X32701Y26271D02*
X32585D01*
X32643D01*
Y26621D01*
X32701Y26563D01*
X43281Y25171D02*
X43048D01*
X43164D01*
Y24821D01*
X42931D02*
Y25171D01*
X42756D01*
X42698Y25113D01*
Y24996D01*
X42756Y24938D01*
X42931D01*
X42581Y25113D02*
X42523Y25171D01*
X42406D01*
X42348Y25113D01*
Y25054D01*
X42406Y24996D01*
X42465D01*
X42406D01*
X42348Y24938D01*
Y24879D01*
X42406Y24821D01*
X42523D01*
X42581Y24879D01*
X51631Y29611D02*
X51398D01*
X51514D01*
Y29261D01*
X51281D02*
Y29611D01*
X51106D01*
X51048Y29553D01*
Y29436D01*
X51106Y29378D01*
X51281D01*
X50931Y29261D02*
X50815D01*
X50873D01*
Y29611D01*
X50931Y29553D01*
X50406Y29611D02*
X50523Y29553D01*
X50640Y29436D01*
Y29319D01*
X50581Y29261D01*
X50465D01*
X50406Y29319D01*
Y29378D01*
X50465Y29436D01*
X50640D01*
X39661Y20681D02*
X39428D01*
X39544D01*
Y20331D01*
X39311D02*
Y20681D01*
X39136D01*
X39078Y20623D01*
Y20506D01*
X39136Y20448D01*
X39311D01*
X38961Y20331D02*
X38845D01*
X38903D01*
Y20681D01*
X38961Y20623D01*
X38670Y20681D02*
X38436D01*
Y20623D01*
X38670Y20389D01*
Y20331D01*
X51711Y31631D02*
X51478D01*
X51594D01*
Y31281D01*
X51361D02*
Y31631D01*
X51186D01*
X51128Y31573D01*
Y31456D01*
X51186Y31398D01*
X51361D01*
X51011Y31281D02*
X50895D01*
X50953D01*
Y31631D01*
X51011Y31573D01*
X50720D02*
X50661Y31631D01*
X50545D01*
X50486Y31573D01*
Y31514D01*
X50545Y31456D01*
X50486Y31398D01*
Y31339D01*
X50545Y31281D01*
X50661D01*
X50720Y31339D01*
Y31398D01*
X50661Y31456D01*
X50720Y31514D01*
Y31573D01*
X50661Y31456D02*
X50545D01*
X21631Y25091D02*
X21398D01*
X21514D01*
Y24741D01*
X21281D02*
Y25091D01*
X21106D01*
X21048Y25033D01*
Y24916D01*
X21106Y24858D01*
X21281D01*
X20698Y24741D02*
X20931D01*
X20698Y24974D01*
Y25033D01*
X20756Y25091D01*
X20873D01*
X20931Y25033D01*
X20406Y24741D02*
Y25091D01*
X20581Y24916D01*
X20348D01*
X21641Y27451D02*
X21408D01*
X21524D01*
Y27101D01*
X21291D02*
Y27451D01*
X21116D01*
X21058Y27393D01*
Y27276D01*
X21116Y27218D01*
X21291D01*
X20708Y27101D02*
X20941D01*
X20708Y27334D01*
Y27393D01*
X20766Y27451D01*
X20883D01*
X20941Y27393D01*
X20358Y27451D02*
X20591D01*
Y27276D01*
X20475Y27334D01*
X20416D01*
X20358Y27276D01*
Y27159D01*
X20416Y27101D01*
X20533D01*
X20591Y27159D01*
X21591Y28851D02*
X21358D01*
X21474D01*
Y28501D01*
X21241D02*
Y28851D01*
X21066D01*
X21008Y28793D01*
Y28676D01*
X21066Y28618D01*
X21241D01*
X20658Y28501D02*
X20891D01*
X20658Y28734D01*
Y28793D01*
X20716Y28851D01*
X20833D01*
X20891Y28793D01*
X20308Y28851D02*
X20425Y28793D01*
X20541Y28676D01*
Y28559D01*
X20483Y28501D01*
X20366D01*
X20308Y28559D01*
Y28618D01*
X20366Y28676D01*
X20541D01*
X23751Y26371D02*
Y26604D01*
Y26488D01*
X23401D01*
Y26721D02*
X23751D01*
Y26896D01*
X23693Y26954D01*
X23576D01*
X23518Y26896D01*
Y26721D01*
X23401Y27304D02*
Y27071D01*
X23634Y27304D01*
X23693D01*
X23751Y27246D01*
Y27129D01*
X23693Y27071D01*
X23459Y27421D02*
X23401Y27479D01*
Y27596D01*
X23459Y27654D01*
X23693D01*
X23751Y27596D01*
Y27479D01*
X23693Y27421D01*
X23634D01*
X23576Y27479D01*
Y27654D01*
X24861Y24041D02*
Y24274D01*
Y24158D01*
X24511D01*
Y24391D02*
X24861D01*
Y24566D01*
X24803Y24624D01*
X24686D01*
X24628Y24566D01*
Y24391D01*
X24803Y24741D02*
X24861Y24799D01*
Y24916D01*
X24803Y24974D01*
X24744D01*
X24686Y24916D01*
Y24857D01*
Y24916D01*
X24628Y24974D01*
X24569D01*
X24511Y24916D01*
Y24799D01*
X24569Y24741D01*
X24803Y25091D02*
X24861Y25149D01*
Y25266D01*
X24803Y25324D01*
X24569D01*
X24511Y25266D01*
Y25149D01*
X24569Y25091D01*
X24803D01*
X22851Y23551D02*
Y23784D01*
Y23668D01*
X22501D01*
Y23901D02*
X22851D01*
Y24076D01*
X22793Y24134D01*
X22676D01*
X22618Y24076D01*
Y23901D01*
X22793Y24251D02*
X22851Y24309D01*
Y24426D01*
X22793Y24484D01*
X22734D01*
X22676Y24426D01*
Y24367D01*
Y24426D01*
X22618Y24484D01*
X22559D01*
X22501Y24426D01*
Y24309D01*
X22559Y24251D01*
X22501Y24601D02*
Y24717D01*
Y24659D01*
X22851D01*
X22793Y24601D01*
X36461Y34711D02*
X36228D01*
X36344D01*
Y34361D01*
X36111D02*
Y34711D01*
X35936D01*
X35878Y34653D01*
Y34536D01*
X35936Y34478D01*
X36111D01*
X35761Y34653D02*
X35703Y34711D01*
X35586D01*
X35528Y34653D01*
Y34594D01*
X35586Y34536D01*
X35645D01*
X35586D01*
X35528Y34478D01*
Y34419D01*
X35586Y34361D01*
X35703D01*
X35761Y34419D01*
X35178Y34361D02*
X35411D01*
X35178Y34594D01*
Y34653D01*
X35236Y34711D01*
X35353D01*
X35411Y34653D01*
X16888Y15288D02*
Y15522D01*
Y15405D01*
X16538D01*
Y15638D02*
X16888D01*
Y15813D01*
X16830Y15872D01*
X16713D01*
X16655Y15813D01*
Y15638D01*
X16888Y15988D02*
Y16222D01*
X16830D01*
X16597Y15988D01*
X16538D01*
X16888Y16571D02*
Y16338D01*
X16713D01*
X16772Y16455D01*
Y16513D01*
X16713Y16571D01*
X16597D01*
X16538Y16513D01*
Y16396D01*
X16597Y16338D01*
X15801Y16151D02*
X15568D01*
X15684D01*
Y15801D01*
X15451D02*
Y16151D01*
X15276D01*
X15218Y16093D01*
Y15976D01*
X15276Y15918D01*
X15451D01*
X15101Y16151D02*
X14868D01*
Y16093D01*
X15101Y15859D01*
Y15801D01*
X14576D02*
Y16151D01*
X14751Y15976D01*
X14518D01*
X18581Y15191D02*
Y15424D01*
Y15308D01*
X18231D01*
Y15541D02*
X18581D01*
Y15716D01*
X18523Y15774D01*
X18406D01*
X18348Y15716D01*
Y15541D01*
X18581Y15891D02*
Y16124D01*
X18523D01*
X18289Y15891D01*
X18231D01*
X18523Y16241D02*
X18581Y16299D01*
Y16416D01*
X18523Y16474D01*
X18464D01*
X18406Y16416D01*
Y16357D01*
Y16416D01*
X18348Y16474D01*
X18289D01*
X18231Y16416D01*
Y16299D01*
X18289Y16241D01*
X27621Y20291D02*
Y20524D01*
Y20408D01*
X27271D01*
Y20641D02*
X27621D01*
Y20816D01*
X27563Y20874D01*
X27446D01*
X27388Y20816D01*
Y20641D01*
X27271Y20991D02*
Y21107D01*
Y21049D01*
X27621D01*
X27563Y20991D01*
X27271Y21516D02*
Y21282D01*
X27504Y21516D01*
X27563D01*
X27621Y21457D01*
Y21341D01*
X27563Y21282D01*
X28611Y18261D02*
Y18494D01*
Y18378D01*
X28261D01*
Y18611D02*
X28611D01*
Y18786D01*
X28553Y18844D01*
X28436D01*
X28378Y18786D01*
Y18611D01*
X28261Y18961D02*
Y19077D01*
Y19019D01*
X28611D01*
X28553Y18961D01*
Y19252D02*
X28611Y19311D01*
Y19427D01*
X28553Y19486D01*
X28494D01*
X28436Y19427D01*
Y19369D01*
Y19427D01*
X28378Y19486D01*
X28319D01*
X28261Y19427D01*
Y19311D01*
X28319Y19252D01*
X31681Y19001D02*
Y19234D01*
Y19118D01*
X31331D01*
Y19351D02*
X31681D01*
Y19526D01*
X31623Y19584D01*
X31506D01*
X31448Y19526D01*
Y19351D01*
X31331Y19701D02*
Y19817D01*
Y19759D01*
X31681D01*
X31623Y19701D01*
X31331Y20167D02*
X31681D01*
X31506Y19992D01*
Y20226D01*
X18421Y27731D02*
X18188D01*
X18304D01*
Y27381D01*
X18071D02*
Y27731D01*
X17896D01*
X17838Y27673D01*
Y27556D01*
X17896Y27498D01*
X18071D01*
X17488Y27381D02*
X17721D01*
X17488Y27614D01*
Y27673D01*
X17546Y27731D01*
X17663D01*
X17721Y27673D01*
X17371D02*
X17313Y27731D01*
X17196D01*
X17138Y27673D01*
Y27614D01*
X17196Y27556D01*
X17138Y27498D01*
Y27439D01*
X17196Y27381D01*
X17313D01*
X17371Y27439D01*
Y27498D01*
X17313Y27556D01*
X17371Y27614D01*
Y27673D01*
X17313Y27556D02*
X17196D01*
X16181Y28631D02*
X15948D01*
X16064D01*
Y28281D01*
X15831D02*
Y28631D01*
X15656D01*
X15598Y28573D01*
Y28456D01*
X15656Y28398D01*
X15831D01*
X15481Y28573D02*
X15423Y28631D01*
X15306D01*
X15248Y28573D01*
Y28514D01*
X15306Y28456D01*
X15365D01*
X15306D01*
X15248Y28398D01*
Y28339D01*
X15306Y28281D01*
X15423D01*
X15481Y28339D01*
X14898Y28631D02*
X15131D01*
Y28456D01*
X15015Y28514D01*
X14956D01*
X14898Y28456D01*
Y28339D01*
X14956Y28281D01*
X15073D01*
X15131Y28339D01*
X21611Y36361D02*
X21378D01*
X21494D01*
Y36011D01*
X21261D02*
Y36361D01*
X21086D01*
X21028Y36303D01*
Y36186D01*
X21086Y36128D01*
X21261D01*
X20678Y36361D02*
X20911D01*
Y36186D01*
X20795Y36244D01*
X20736D01*
X20678Y36186D01*
Y36069D01*
X20736Y36011D01*
X20853D01*
X20911Y36069D01*
X20386Y36011D02*
Y36361D01*
X20561Y36186D01*
X20328D01*
X27401Y32681D02*
X27168D01*
X27284D01*
Y32331D01*
X27051D02*
Y32681D01*
X26876D01*
X26818Y32623D01*
Y32506D01*
X26876Y32448D01*
X27051D01*
X26468Y32681D02*
X26701D01*
Y32506D01*
X26585Y32564D01*
X26526D01*
X26468Y32506D01*
Y32389D01*
X26526Y32331D01*
X26643D01*
X26701Y32389D01*
X26118Y32681D02*
X26351D01*
Y32506D01*
X26235Y32564D01*
X26176D01*
X26118Y32506D01*
Y32389D01*
X26176Y32331D01*
X26293D01*
X26351Y32389D01*
X18671Y13841D02*
Y14074D01*
Y13958D01*
X18321D01*
Y14191D02*
X18671D01*
Y14366D01*
X18613Y14424D01*
X18496D01*
X18438Y14366D01*
Y14191D01*
X18613Y14541D02*
X18671Y14599D01*
Y14716D01*
X18613Y14774D01*
X18554D01*
X18496Y14716D01*
Y14657D01*
Y14716D01*
X18438Y14774D01*
X18379D01*
X18321Y14716D01*
Y14599D01*
X18379Y14541D01*
Y14891D02*
X18321Y14949D01*
Y15066D01*
X18379Y15124D01*
X18613D01*
X18671Y15066D01*
Y14949D01*
X18613Y14891D01*
X18554D01*
X18496Y14949D01*
Y15124D01*
X21421Y14001D02*
X21188D01*
X21304D01*
Y13651D01*
X21071D02*
Y14001D01*
X20896D01*
X20838Y13943D01*
Y13826D01*
X20896Y13768D01*
X21071D01*
X20546Y13651D02*
Y14001D01*
X20721Y13826D01*
X20488D01*
X20371Y13651D02*
X20255D01*
X20313D01*
Y14001D01*
X20371Y13943D01*
X16751Y14081D02*
X16518D01*
X16634D01*
Y13731D01*
X16401D02*
Y14081D01*
X16226D01*
X16168Y14023D01*
Y13906D01*
X16226Y13848D01*
X16401D01*
X15876Y13731D02*
Y14081D01*
X16051Y13906D01*
X15818D01*
X15701Y13789D02*
X15643Y13731D01*
X15526D01*
X15468Y13789D01*
Y14023D01*
X15526Y14081D01*
X15643D01*
X15701Y14023D01*
Y13964D01*
X15643Y13906D01*
X15468D01*
X17681Y13761D02*
Y13994D01*
Y13878D01*
X17331D01*
Y14111D02*
X17681D01*
Y14286D01*
X17623Y14344D01*
X17506D01*
X17448Y14286D01*
Y14111D01*
X17681Y14694D02*
Y14461D01*
X17506D01*
X17564Y14577D01*
Y14636D01*
X17506Y14694D01*
X17389D01*
X17331Y14636D01*
Y14519D01*
X17389Y14461D01*
X17681Y15044D02*
X17623Y14927D01*
X17506Y14811D01*
X17389D01*
X17331Y14869D01*
Y14986D01*
X17389Y15044D01*
X17448D01*
X17506Y14986D01*
Y14811D01*
X26561Y14111D02*
X26328D01*
X26444D01*
Y13761D01*
X26211D02*
Y14111D01*
X26036D01*
X25978Y14053D01*
Y13936D01*
X26036Y13878D01*
X26211D01*
X25628Y14111D02*
X25861D01*
Y13936D01*
X25745Y13994D01*
X25686D01*
X25628Y13936D01*
Y13819D01*
X25686Y13761D01*
X25803D01*
X25861Y13819D01*
X25511Y14111D02*
X25278D01*
Y14053D01*
X25511Y13819D01*
Y13761D01*
X21891Y14571D02*
X21658D01*
X21774D01*
Y14221D01*
X21541D02*
Y14571D01*
X21366D01*
X21308Y14513D01*
Y14396D01*
X21366Y14338D01*
X21541D01*
X20958Y14571D02*
X21191D01*
Y14396D01*
X21075Y14454D01*
X21016D01*
X20958Y14396D01*
Y14279D01*
X21016Y14221D01*
X21133D01*
X21191Y14279D01*
X20841Y14513D02*
X20783Y14571D01*
X20666D01*
X20608Y14513D01*
Y14454D01*
X20666Y14396D01*
X20608Y14338D01*
Y14279D01*
X20666Y14221D01*
X20783D01*
X20841Y14279D01*
Y14338D01*
X20783Y14396D01*
X20841Y14454D01*
Y14513D01*
X20783Y14396D02*
X20666D01*
X35631Y14381D02*
X35398D01*
X35514D01*
Y14031D01*
X35281D02*
Y14381D01*
X35106D01*
X35048Y14323D01*
Y14206D01*
X35106Y14148D01*
X35281D01*
X34698Y14381D02*
X34931D01*
Y14206D01*
X34815Y14264D01*
X34756D01*
X34698Y14206D01*
Y14089D01*
X34756Y14031D01*
X34873D01*
X34931Y14089D01*
X34581D02*
X34523Y14031D01*
X34406D01*
X34348Y14089D01*
Y14323D01*
X34406Y14381D01*
X34523D01*
X34581Y14323D01*
Y14264D01*
X34523Y14206D01*
X34348D01*
X32681Y14171D02*
X32448D01*
X32564D01*
Y13821D01*
X32331D02*
Y14171D01*
X32156D01*
X32098Y14113D01*
Y13996D01*
X32156Y13938D01*
X32331D01*
X31748Y14171D02*
X31865Y14113D01*
X31981Y13996D01*
Y13879D01*
X31923Y13821D01*
X31806D01*
X31748Y13879D01*
Y13938D01*
X31806Y13996D01*
X31981D01*
X31631Y14113D02*
X31573Y14171D01*
X31456D01*
X31398Y14113D01*
Y13879D01*
X31456Y13821D01*
X31573D01*
X31631Y13879D01*
Y14113D01*
X24551Y28651D02*
X24784D01*
Y28826D01*
X24726Y28884D01*
X24551D01*
Y29001D02*
X24901D01*
Y29176D01*
X24843Y29234D01*
X24726D01*
X24668Y29176D01*
Y29001D01*
Y29118D02*
X24551Y29234D01*
X24901Y29584D02*
Y29351D01*
X24551D01*
Y29584D01*
X24726Y29351D02*
Y29467D01*
X24843Y29934D02*
X24901Y29876D01*
Y29759D01*
X24843Y29701D01*
X24784D01*
X24726Y29759D01*
Y29876D01*
X24668Y29934D01*
X24609D01*
X24551Y29876D01*
Y29759D01*
X24609Y29701D01*
X24901Y30284D02*
Y30051D01*
X24551D01*
Y30284D01*
X24726Y30051D02*
Y30167D01*
X24901Y30400D02*
Y30634D01*
Y30517D01*
X24551D01*
X15431Y32671D02*
X15781D01*
Y32846D01*
X15723Y32904D01*
X15606D01*
X15548Y32846D01*
Y32671D01*
Y32788D02*
X15431Y32904D01*
X15781Y33254D02*
Y33021D01*
X15431D01*
Y33254D01*
X15606Y33021D02*
Y33138D01*
X15723Y33604D02*
X15781Y33546D01*
Y33429D01*
X15723Y33371D01*
X15664D01*
X15606Y33429D01*
Y33546D01*
X15548Y33604D01*
X15489D01*
X15431Y33546D01*
Y33429D01*
X15489Y33371D01*
X15781Y33954D02*
Y33721D01*
X15431D01*
Y33954D01*
X15606Y33721D02*
Y33837D01*
X15781Y34071D02*
Y34304D01*
Y34187D01*
X15431D01*
Y34654D02*
Y34420D01*
X15664Y34654D01*
X15723D01*
X15781Y34595D01*
Y34479D01*
X15723Y34420D01*
X22078Y30591D02*
X22311D01*
Y30241D01*
X22078D01*
X22311Y30416D02*
X22194D01*
X21961Y30241D02*
Y30591D01*
X21728Y30241D01*
Y30591D01*
X22401Y31071D02*
Y30721D01*
X22226D01*
X22168Y30779D01*
Y30838D01*
X22226Y30896D01*
X22401D01*
X22226D01*
X22168Y30954D01*
Y31013D01*
X22226Y31071D01*
X22401D01*
X21876D02*
X21993D01*
X22051Y31013D01*
Y30779D01*
X21993Y30721D01*
X21876D01*
X21818Y30779D01*
Y31013D01*
X21876Y31071D01*
X21526D02*
X21643D01*
X21701Y31013D01*
Y30779D01*
X21643Y30721D01*
X21526D01*
X21468Y30779D01*
Y31013D01*
X21526Y31071D01*
X21351D02*
X21118D01*
X21235D01*
Y30721D01*
X22061Y31531D02*
Y31239D01*
X22003Y31181D01*
X21886D01*
X21828Y31239D01*
Y31531D01*
X21478Y31473D02*
X21536Y31531D01*
X21653D01*
X21711Y31473D01*
Y31414D01*
X21653Y31356D01*
X21536D01*
X21478Y31298D01*
Y31239D01*
X21536Y31181D01*
X21653D01*
X21711Y31239D01*
X21361Y31531D02*
Y31181D01*
X21186D01*
X21128Y31239D01*
Y31298D01*
X21186Y31356D01*
X21361D01*
X21186D01*
X21128Y31414D01*
Y31473D01*
X21186Y31531D01*
X21361D01*
X21891Y26611D02*
Y26931D01*
X21731D01*
X21678Y26878D01*
Y26771D01*
X21731Y26718D01*
X21891D01*
X21784D02*
X21678Y26611D01*
X21571Y26931D02*
X21358Y26611D01*
Y26931D02*
X21571Y26611D01*
X21251Y26878D02*
X21198Y26931D01*
X21091D01*
X21038Y26878D01*
Y26664D01*
X21091Y26611D01*
X21198D01*
X21251Y26664D01*
Y26878D01*
X20931Y26771D02*
X20718D01*
X20611Y26931D02*
X20505D01*
X20558D01*
Y26611D01*
X20611D01*
X20505D01*
X22931Y26331D02*
X23281D01*
Y26506D01*
X23223Y26564D01*
X23106D01*
X23048Y26506D01*
Y26331D01*
Y26448D02*
X22931Y26564D01*
X23223Y26914D02*
X23281Y26856D01*
Y26739D01*
X23223Y26681D01*
X23164D01*
X23106Y26739D01*
Y26856D01*
X23048Y26914D01*
X22989D01*
X22931Y26856D01*
Y26739D01*
X22989Y26681D01*
X23281Y27031D02*
Y27264D01*
Y27147D01*
X22931D01*
X23106Y27381D02*
Y27614D01*
X23281Y27731D02*
Y27847D01*
Y27789D01*
X22931D01*
Y27731D01*
Y27847D01*
X23281Y28197D02*
Y28080D01*
X23223Y28022D01*
X22989D01*
X22931Y28080D01*
Y28197D01*
X22989Y28255D01*
X23223D01*
X23281Y28197D01*
X24051Y23781D02*
X24401D01*
Y23956D01*
X24343Y24014D01*
X24226D01*
X24168Y23956D01*
Y23781D01*
Y23898D02*
X24051Y24014D01*
X24401Y24131D02*
X24051Y24364D01*
X24401D02*
X24051Y24131D01*
X24343Y24481D02*
X24401Y24539D01*
Y24656D01*
X24343Y24714D01*
X24109D01*
X24051Y24656D01*
Y24539D01*
X24109Y24481D01*
X24343D01*
X27108Y20319D02*
X26788Y20532D01*
X27108D02*
X26788Y20319D01*
X27108Y20638D02*
X27055D01*
X26948Y20745D01*
X27055Y20852D01*
X27108D01*
X26948Y20745D02*
X26788D01*
Y20958D02*
X27108D01*
Y21118D01*
X27055Y21172D01*
X26948D01*
X26895Y21118D01*
Y20958D01*
Y21065D02*
X26788Y21172D01*
X27108Y21491D02*
Y21278D01*
X26788D01*
Y21491D01*
X26948Y21278D02*
Y21385D01*
X27108Y21811D02*
Y21598D01*
X26948D01*
Y21705D01*
Y21598D01*
X26788D01*
X28101Y18351D02*
Y18564D01*
X28048D01*
X27834Y18351D01*
X27781D01*
Y18564D01*
Y18671D02*
X28101D01*
Y18831D01*
X28048Y18884D01*
X27941D01*
X27888Y18831D01*
Y18671D01*
Y18778D02*
X27781Y18884D01*
X28101Y19204D02*
Y18991D01*
X27781D01*
Y19204D01*
X27941Y18991D02*
Y19097D01*
X28101Y19524D02*
Y19311D01*
X27941D01*
Y19417D01*
Y19311D01*
X27781D01*
X31161Y18664D02*
Y18451D01*
X30841D01*
Y18664D01*
X31001Y18451D02*
Y18558D01*
X30841Y18771D02*
X31161D01*
Y18931D01*
X31108Y18984D01*
X31001D01*
X30948Y18931D01*
Y18771D01*
Y18878D02*
X30841Y18984D01*
X31161Y19304D02*
Y19091D01*
X30841D01*
Y19304D01*
X31001Y19091D02*
Y19197D01*
X31161Y19624D02*
Y19411D01*
X31001D01*
Y19517D01*
Y19411D01*
X30841D01*
X15841Y15721D02*
X15628Y15401D01*
Y15721D02*
X15841Y15401D01*
X15308D02*
X15521D01*
X15308Y15614D01*
Y15668D01*
X15361Y15721D01*
X15468D01*
X15521Y15668D01*
X15201Y15721D02*
Y15401D01*
X15041D01*
X14988Y15454D01*
Y15508D01*
X15041Y15561D01*
X15201D01*
X15041D01*
X14988Y15614D01*
Y15668D01*
X15041Y15721D01*
X15201D01*
X19241Y15321D02*
X19188D01*
X19081Y15428D01*
X19188Y15534D01*
X19241D01*
X19081Y15428D02*
X18921D01*
Y15641D02*
Y15748D01*
Y15694D01*
X19241D01*
X19188Y15641D01*
X19241Y15907D02*
X18921D01*
Y16067D01*
X18974Y16121D01*
X19028D01*
X19081Y16067D01*
Y15907D01*
Y16067D01*
X19134Y16121D01*
X19188D01*
X19241Y16067D01*
Y15907D01*
X23031Y15361D02*
X22978D01*
X22871Y15468D01*
X22978Y15574D01*
X23031D01*
X22871Y15468D02*
X22711D01*
Y15681D02*
Y15788D01*
Y15734D01*
X23031D01*
X22978Y15681D01*
X22711Y15948D02*
X22924D01*
X23031Y16054D01*
X22924Y16161D01*
X22711D01*
X22871D01*
Y15948D01*
X24671Y14741D02*
X24618D01*
X24511Y14848D01*
X24618Y14954D01*
X24671D01*
X24511Y14848D02*
X24351D01*
Y15274D02*
Y15061D01*
X24564Y15274D01*
X24618D01*
X24671Y15221D01*
Y15114D01*
X24618Y15061D01*
X24351Y15381D02*
X24564D01*
X24671Y15487D01*
X24564Y15594D01*
X24351D01*
X24511D01*
Y15381D01*
X21901Y15351D02*
X21848D01*
X21741Y15458D01*
X21848Y15564D01*
X21901D01*
X21741Y15458D02*
X21581D01*
Y15884D02*
Y15671D01*
X21794Y15884D01*
X21848D01*
X21901Y15831D01*
Y15724D01*
X21848Y15671D01*
X21901Y15991D02*
X21581D01*
Y16151D01*
X21634Y16204D01*
X21688D01*
X21741Y16151D01*
Y15991D01*
Y16151D01*
X21794Y16204D01*
X21848D01*
X21901Y16151D01*
Y15991D01*
X26998Y16868D02*
Y17082D01*
X26945D01*
X26732Y16868D01*
X26679D01*
Y17082D01*
Y17188D02*
Y17295D01*
Y17242D01*
X26998D01*
X26945Y17188D01*
X26998Y17455D02*
X26679D01*
Y17615D01*
X26732Y17668D01*
X26785D01*
X26838Y17615D01*
Y17455D01*
Y17615D01*
X26892Y17668D01*
X26945D01*
X26998Y17615D01*
Y17455D01*
X29111Y16831D02*
Y17044D01*
X29058D01*
X28844Y16831D01*
X28791D01*
Y17044D01*
Y17151D02*
Y17258D01*
Y17204D01*
X29111D01*
X29058Y17151D01*
X28791Y17418D02*
X29004D01*
X29111Y17524D01*
X29004Y17631D01*
X28791D01*
X28951D01*
Y17418D01*
X30018Y16848D02*
Y17062D01*
X29965D01*
X29752Y16848D01*
X29699D01*
Y17062D01*
Y17382D02*
Y17168D01*
X29912Y17382D01*
X29965D01*
X30018Y17328D01*
Y17222D01*
X29965Y17168D01*
X29699Y17488D02*
X29912D01*
X30018Y17595D01*
X29912Y17702D01*
X29699D01*
X29858D01*
Y17488D01*
X28008Y16868D02*
Y17082D01*
X27955D01*
X27742Y16868D01*
X27689D01*
Y17082D01*
Y17402D02*
Y17188D01*
X27902Y17402D01*
X27955D01*
X28008Y17348D01*
Y17242D01*
X27955Y17188D01*
X28008Y17508D02*
X27689D01*
Y17668D01*
X27742Y17722D01*
X27795D01*
X27848Y17668D01*
Y17508D01*
Y17668D01*
X27902Y17722D01*
X27955D01*
X28008Y17668D01*
Y17508D01*
X31901Y15584D02*
Y15371D01*
X31581D01*
Y15584D01*
X31741Y15371D02*
Y15478D01*
X31581Y15904D02*
Y15691D01*
X31794Y15904D01*
X31848D01*
X31901Y15851D01*
Y15744D01*
X31848Y15691D01*
X31901Y16011D02*
X31581D01*
Y16171D01*
X31634Y16224D01*
X31688D01*
X31741Y16171D01*
Y16011D01*
Y16171D01*
X31794Y16224D01*
X31848D01*
X31901Y16171D01*
Y16011D01*
X34698Y15002D02*
Y14789D01*
X34378D01*
Y15002D01*
X34538Y14789D02*
Y14895D01*
X34378Y15322D02*
Y15108D01*
X34592Y15322D01*
X34645D01*
X34698Y15268D01*
Y15162D01*
X34645Y15108D01*
X34378Y15428D02*
X34592D01*
X34698Y15535D01*
X34592Y15642D01*
X34378D01*
X34538D01*
Y15428D01*
X33041Y15624D02*
Y15411D01*
X32721D01*
Y15624D01*
X32881Y15411D02*
Y15518D01*
X32721Y15731D02*
Y15838D01*
Y15784D01*
X33041D01*
X32988Y15731D01*
X32721Y15998D02*
X32934D01*
X33041Y16104D01*
X32934Y16211D01*
X32721D01*
X32881D01*
Y15998D01*
X30891Y15574D02*
Y15361D01*
X30571D01*
Y15574D01*
X30731Y15361D02*
Y15468D01*
X30571Y15681D02*
Y15788D01*
Y15734D01*
X30891D01*
X30838Y15681D01*
X30891Y15948D02*
X30571D01*
Y16107D01*
X30624Y16161D01*
X30678D01*
X30731Y16107D01*
Y15948D01*
Y16107D01*
X30784Y16161D01*
X30838D01*
X30891Y16107D01*
Y15948D01*
X52225Y20368D02*
X52439D01*
Y20208D01*
X52332D01*
X52439D01*
Y20048D01*
X51905Y20315D02*
X51959Y20368D01*
X52065D01*
X52119Y20315D01*
Y20102D01*
X52065Y20048D01*
X51959D01*
X51905Y20102D01*
Y20208D01*
X52012D01*
X51799Y20048D02*
Y20368D01*
X51585Y20048D01*
Y20368D01*
X51479D02*
Y20048D01*
X51319D01*
X51266Y20102D01*
Y20315D01*
X51319Y20368D01*
X51479D01*
X40625Y13482D02*
X40678Y13428D01*
Y13322D01*
X40625Y13269D01*
X40412D01*
X40359Y13322D01*
Y13428D01*
X40412Y13482D01*
X40518D01*
Y13375D01*
X40359Y13588D02*
X40678D01*
X40359Y13802D01*
X40678D01*
Y13908D02*
X40359D01*
Y14068D01*
X40412Y14122D01*
X40625D01*
X40678Y14068D01*
Y13908D01*
X42738Y13819D02*
X43058D01*
Y13978D01*
X43005Y14032D01*
X42898D01*
X42845Y13978D01*
Y13819D01*
X43058Y14138D02*
X42738D01*
X42845Y14245D01*
X42738Y14352D01*
X43058D01*
X42738Y14458D02*
X43058D01*
Y14618D01*
X43005Y14672D01*
X42898D01*
X42845Y14618D01*
Y14458D01*
Y14565D02*
X42738Y14672D01*
X42898Y14778D02*
Y14991D01*
X43058Y15098D02*
Y15205D01*
Y15151D01*
X42738D01*
Y15098D01*
Y15205D01*
Y15365D02*
X43058D01*
X42738Y15578D01*
X43058D01*
X44638Y15034D02*
X44691Y14981D01*
Y14874D01*
X44638Y14821D01*
X44424D01*
X44371Y14874D01*
Y14981D01*
X44424Y15034D01*
X44531D01*
Y14928D01*
X44371Y15141D02*
X44691D01*
X44371Y15354D01*
X44691D01*
Y15461D02*
X44371D01*
Y15621D01*
X44424Y15674D01*
X44638D01*
X44691Y15621D01*
Y15461D01*
X47188Y13879D02*
X46869D01*
Y14038D01*
X46922Y14092D01*
X46975D01*
X47028Y14038D01*
Y13879D01*
Y14038D01*
X47082Y14092D01*
X47135D01*
X47188Y14038D01*
Y13879D01*
Y14412D02*
Y14198D01*
X46869D01*
Y14412D01*
X47028Y14198D02*
Y14305D01*
X47188Y14518D02*
X46869D01*
Y14678D01*
X46922Y14732D01*
X47135D01*
X47188Y14678D01*
Y14518D01*
X47028Y14838D02*
Y15051D01*
X47188Y15158D02*
Y15265D01*
Y15211D01*
X46869D01*
Y15158D01*
Y15265D01*
Y15425D02*
X47188D01*
X46869Y15638D01*
X47188D01*
X43431Y24321D02*
X43324D01*
X43378D01*
Y24641D01*
X43431Y24588D01*
X42951Y24321D02*
X43164D01*
X42951Y24534D01*
Y24588D01*
X43004Y24641D01*
X43111D01*
X43164Y24588D01*
X42845Y24641D02*
Y24428D01*
X42738Y24321D01*
X42631Y24428D01*
Y24641D01*
X42311Y24321D02*
X42525D01*
X42311Y24534D01*
Y24588D01*
X42365Y24641D01*
X42471D01*
X42525Y24588D01*
X40365Y27138D02*
X40578D01*
Y26978D01*
X40472D01*
X40578D01*
Y26818D01*
X40259D02*
Y27032D01*
X40152Y27138D01*
X40045Y27032D01*
Y26818D01*
Y26978D01*
X40259D01*
X39939Y26818D02*
Y27138D01*
X39725Y26818D01*
Y27138D01*
X39619Y27085D02*
X39565Y27138D01*
X39459D01*
X39406Y27085D01*
Y26872D01*
X39459Y26818D01*
X39565D01*
X39619Y26872D01*
Y27085D01*
X39508Y29611D02*
X39721D01*
Y29451D01*
X39614D01*
X39721D01*
Y29291D01*
X39401D02*
Y29504D01*
X39295Y29611D01*
X39188Y29504D01*
Y29291D01*
Y29451D01*
X39401D01*
X39081Y29291D02*
Y29611D01*
X38868Y29291D01*
Y29611D01*
X38761Y29291D02*
X38655D01*
X38708D01*
Y29611D01*
X38761Y29558D01*
X33431Y28271D02*
X33218D01*
X33324D01*
Y27951D01*
X33111Y28271D02*
Y27951D01*
Y28111D01*
X32898D01*
Y28271D01*
Y27951D01*
X32578Y28271D02*
X32791D01*
Y27951D01*
X32578D01*
X32791Y28111D02*
X32685D01*
X32471Y27951D02*
Y28271D01*
X32311D01*
X32258Y28218D01*
Y28111D01*
X32311Y28058D01*
X32471D01*
X32365D02*
X32258Y27951D01*
X32151D02*
Y28271D01*
X32045Y28164D01*
X31938Y28271D01*
Y27951D01*
X31832Y28271D02*
X31725D01*
X31778D01*
Y27951D01*
X31832D01*
X31725D01*
X31352Y28218D02*
X31405Y28271D01*
X31512D01*
X31565Y28218D01*
Y28164D01*
X31512Y28111D01*
X31405D01*
X31352Y28058D01*
Y28004D01*
X31405Y27951D01*
X31512D01*
X31565Y28004D01*
X31245Y28271D02*
X31032D01*
X31138D01*
Y27951D01*
X30765Y28271D02*
X30872D01*
X30925Y28218D01*
Y28004D01*
X30872Y27951D01*
X30765D01*
X30712Y28004D01*
Y28218D01*
X30765Y28271D01*
X30605Y27951D02*
Y28271D01*
X30445D01*
X30392Y28218D01*
Y28111D01*
X30445Y28058D01*
X30605D01*
X30499D02*
X30392Y27951D01*
X29965Y28218D02*
X29912Y28271D01*
X29806D01*
X29752Y28218D01*
Y28004D01*
X29806Y27951D01*
X29912D01*
X29965Y28004D01*
Y28218D01*
X33661Y25831D02*
X33448D01*
X33554D01*
Y25511D01*
X33341Y25831D02*
Y25511D01*
Y25671D01*
X33128D01*
Y25831D01*
Y25511D01*
X32808Y25831D02*
X33021D01*
Y25511D01*
X32808D01*
X33021Y25671D02*
X32915D01*
X32701Y25511D02*
Y25831D01*
X32541D01*
X32488Y25778D01*
Y25671D01*
X32541Y25618D01*
X32701D01*
X32595D02*
X32488Y25511D01*
X32381D02*
Y25831D01*
X32275Y25724D01*
X32168Y25831D01*
Y25511D01*
X32062Y25831D02*
X31955D01*
X32008D01*
Y25511D01*
X32062D01*
X31955D01*
X31582Y25778D02*
X31635Y25831D01*
X31742D01*
X31795Y25778D01*
Y25724D01*
X31742Y25671D01*
X31635D01*
X31582Y25618D01*
Y25564D01*
X31635Y25511D01*
X31742D01*
X31795Y25564D01*
X31475Y25831D02*
X31262D01*
X31368D01*
Y25511D01*
X30995Y25831D02*
X31102D01*
X31155Y25778D01*
Y25564D01*
X31102Y25511D01*
X30995D01*
X30942Y25564D01*
Y25778D01*
X30995Y25831D01*
X30835Y25511D02*
Y25831D01*
X30675D01*
X30622Y25778D01*
Y25671D01*
X30675Y25618D01*
X30835D01*
X30729D02*
X30622Y25511D01*
X30195D02*
X30089D01*
X30142D01*
Y25831D01*
X30195Y25778D01*
X33611Y23871D02*
X33398D01*
X33504D01*
Y23551D01*
X33291Y23871D02*
Y23551D01*
Y23711D01*
X33078D01*
Y23871D01*
Y23551D01*
X32758Y23871D02*
X32971D01*
Y23551D01*
X32758D01*
X32971Y23711D02*
X32865D01*
X32651Y23551D02*
Y23871D01*
X32491D01*
X32438Y23818D01*
Y23711D01*
X32491Y23658D01*
X32651D01*
X32545D02*
X32438Y23551D01*
X32331D02*
Y23871D01*
X32225Y23764D01*
X32118Y23871D01*
Y23551D01*
X32012Y23871D02*
X31905D01*
X31958D01*
Y23551D01*
X32012D01*
X31905D01*
X31532Y23818D02*
X31585Y23871D01*
X31692D01*
X31745Y23818D01*
Y23764D01*
X31692Y23711D01*
X31585D01*
X31532Y23658D01*
Y23604D01*
X31585Y23551D01*
X31692D01*
X31745Y23604D01*
X31425Y23871D02*
X31212D01*
X31318D01*
Y23551D01*
X30945Y23871D02*
X31052D01*
X31105Y23818D01*
Y23604D01*
X31052Y23551D01*
X30945D01*
X30892Y23604D01*
Y23818D01*
X30945Y23871D01*
X30785Y23551D02*
Y23871D01*
X30625D01*
X30572Y23818D01*
Y23711D01*
X30625Y23658D01*
X30785D01*
X30679D02*
X30572Y23551D01*
X29932D02*
X30145D01*
X29932Y23764D01*
Y23818D01*
X29986Y23871D01*
X30092D01*
X30145Y23818D01*
X22361Y23871D02*
Y24084D01*
Y23978D01*
X22041D01*
X22361Y24191D02*
X22041Y24404D01*
X22361D02*
X22041Y24191D01*
X22308Y24511D02*
X22361Y24564D01*
Y24671D01*
X22308Y24724D01*
X22094D01*
X22041Y24671D01*
Y24564D01*
X22094Y24511D01*
X22308D01*
X21161Y24621D02*
Y24301D01*
X21001D01*
X20948Y24354D01*
Y24568D01*
X21001Y24621D01*
X21161D01*
X20841D02*
X20628D01*
X20735D01*
Y24301D01*
X20521D02*
Y24621D01*
X20361D01*
X20308Y24568D01*
Y24461D01*
X20361Y24408D01*
X20521D01*
X20415D02*
X20308Y24301D01*
X21721Y28351D02*
X21508D01*
X21614D01*
Y28031D01*
X21401Y28351D02*
X21188Y28031D01*
Y28351D02*
X21401Y28031D01*
X21081Y28298D02*
X21028Y28351D01*
X20921D01*
X20868Y28298D01*
Y28084D01*
X20921Y28031D01*
X21028D01*
X21081Y28084D01*
Y28298D01*
X20761Y28191D02*
X20548D01*
X20441Y28351D02*
X20335D01*
X20388D01*
Y28031D01*
X20441D01*
X20335D01*
X18371Y28221D02*
X18691D01*
X18584Y28328D01*
X18691Y28434D01*
X18371D01*
X18691Y28701D02*
Y28594D01*
X18638Y28541D01*
X18424D01*
X18371Y28594D01*
Y28701D01*
X18424Y28754D01*
X18638D01*
X18691Y28701D01*
X18638Y29074D02*
X18691Y29021D01*
Y28914D01*
X18638Y28861D01*
X18584D01*
X18531Y28914D01*
Y29021D01*
X18478Y29074D01*
X18424D01*
X18371Y29021D01*
Y28914D01*
X18424Y28861D01*
X18691Y29181D02*
Y29287D01*
Y29234D01*
X18371D01*
Y29181D01*
Y29287D01*
Y29661D02*
Y29447D01*
X18584Y29661D01*
X18638D01*
X18691Y29607D01*
Y29501D01*
X18638Y29447D01*
X18328Y30178D02*
X18381Y30231D01*
X18488D01*
X18541Y30178D01*
Y30124D01*
X18488Y30071D01*
X18381D01*
X18328Y30018D01*
Y29964D01*
X18381Y29911D01*
X18488D01*
X18541Y29964D01*
X18008Y30178D02*
X18061Y30231D01*
X18168D01*
X18221Y30178D01*
Y29964D01*
X18168Y29911D01*
X18061D01*
X18008Y29964D01*
X17901Y30231D02*
Y29911D01*
Y30018D01*
X17688Y30231D01*
X17848Y30071D01*
X17688Y29911D01*
X17368D02*
X17581D01*
X17368Y30124D01*
Y30178D01*
X17421Y30231D01*
X17528D01*
X17581Y30178D01*
X16941Y29821D02*
Y30141D01*
X16834Y30034D01*
X16728Y30141D01*
Y29821D01*
X16621Y30141D02*
X16514D01*
X16568D01*
Y29821D01*
X16621D01*
X16514D01*
X16141Y30088D02*
X16195Y30141D01*
X16301D01*
X16355Y30088D01*
Y30034D01*
X16301Y29981D01*
X16195D01*
X16141Y29928D01*
Y29874D01*
X16195Y29821D01*
X16301D01*
X16355Y29874D01*
X15875Y30141D02*
X15981D01*
X16035Y30088D01*
Y29874D01*
X15981Y29821D01*
X15875D01*
X15821Y29874D01*
Y30088D01*
X15875Y30141D01*
X15501Y29821D02*
X15715D01*
X15501Y30034D01*
Y30088D01*
X15555Y30141D01*
X15661D01*
X15715Y30088D01*
X18931Y34371D02*
X18611Y34584D01*
X18931D02*
X18611Y34371D01*
Y34691D02*
X18931D01*
X18824Y34798D01*
X18931Y34904D01*
X18611D01*
X18931Y35011D02*
Y35117D01*
Y35064D01*
X18611D01*
Y35011D01*
Y35117D01*
Y35277D02*
X18931D01*
X18611Y35491D01*
X18931D01*
X23501Y36371D02*
Y36318D01*
X23394Y36211D01*
X23288Y36318D01*
Y36371D01*
X23394Y36211D02*
Y36051D01*
X23181D02*
Y36371D01*
X23075Y36264D01*
X22968Y36371D01*
Y36051D01*
X22861Y36371D02*
X22755D01*
X22808D01*
Y36051D01*
X22861D01*
X22755D01*
X22595D02*
Y36371D01*
X22381Y36051D01*
Y36371D01*
X28551Y38921D02*
X28338D01*
Y38868D01*
X28551Y38654D01*
Y38601D01*
X28338D01*
X28231D02*
Y38921D01*
X28124Y38814D01*
X28018Y38921D01*
Y38601D01*
X27911Y38921D02*
X27805D01*
X27858D01*
Y38601D01*
X27911D01*
X27805D01*
X27645D02*
Y38921D01*
X27431Y38601D01*
Y38921D01*
X22311Y31381D02*
X22631D01*
X22524Y31488D01*
X22631Y31594D01*
X22311D01*
X22631Y31701D02*
Y31808D01*
Y31754D01*
X22311D01*
Y31701D01*
Y31808D01*
X22578Y32181D02*
X22631Y32127D01*
Y32021D01*
X22578Y31967D01*
X22524D01*
X22471Y32021D01*
Y32127D01*
X22418Y32181D01*
X22364D01*
X22311Y32127D01*
Y32021D01*
X22364Y31967D01*
X22631Y32447D02*
Y32341D01*
X22578Y32287D01*
X22364D01*
X22311Y32341D01*
Y32447D01*
X22364Y32501D01*
X22578D01*
X22631Y32447D01*
X27128Y32128D02*
X27181Y32181D01*
X27288D01*
X27341Y32128D01*
Y32074D01*
X27288Y32021D01*
X27181D01*
X27128Y31968D01*
Y31914D01*
X27181Y31861D01*
X27288D01*
X27341Y31914D01*
X26808Y32128D02*
X26861Y32181D01*
X26968D01*
X27021Y32128D01*
Y31914D01*
X26968Y31861D01*
X26861D01*
X26808Y31914D01*
X26701Y32181D02*
Y31861D01*
Y31968D01*
X26488Y32181D01*
X26648Y32021D01*
X26488Y31861D01*
X30521Y31831D02*
Y32151D01*
X30414Y32044D01*
X30308Y32151D01*
Y31831D01*
X30041Y32151D02*
X30148D01*
X30201Y32098D01*
Y31884D01*
X30148Y31831D01*
X30041D01*
X29988Y31884D01*
Y32098D01*
X30041Y32151D01*
X29668Y32098D02*
X29721Y32151D01*
X29828D01*
X29881Y32098D01*
Y32044D01*
X29828Y31991D01*
X29721D01*
X29668Y31938D01*
Y31884D01*
X29721Y31831D01*
X29828D01*
X29881Y31884D01*
X29561Y32151D02*
X29455D01*
X29508D01*
Y31831D01*
X29561D01*
X29455D01*
X35298Y34181D02*
X35511D01*
Y34021D01*
X35404Y34074D01*
X35351D01*
X35298Y34021D01*
Y33914D01*
X35351Y33861D01*
X35458D01*
X35511Y33914D01*
X35191Y34181D02*
Y33968D01*
X35085Y33861D01*
X34978Y33968D01*
Y34181D01*
X15621Y29071D02*
Y28751D01*
X15461D01*
X15408Y28804D01*
Y29018D01*
X15461Y29071D01*
X15621D01*
X15301Y28911D02*
X15088D01*
X15194Y29018D02*
Y28804D01*
X18321Y27261D02*
Y26941D01*
X18161D01*
X18108Y26994D01*
Y27208D01*
X18161Y27261D01*
X18321D01*
X18001Y27101D02*
X17788D01*
X14378Y26668D02*
X14431Y26721D01*
X14538D01*
X14591Y26668D01*
Y26454D01*
X14538Y26401D01*
X14431D01*
X14378Y26454D01*
Y26561D01*
X14484D01*
X14271Y26401D02*
Y26721D01*
X14058Y26401D01*
Y26721D01*
X13951D02*
Y26401D01*
X13791D01*
X13738Y26454D01*
Y26668D01*
X13791Y26721D01*
X13951D01*
X13631Y26401D02*
X13525D01*
X13578D01*
Y26721D01*
X13631Y26668D01*
X16001Y23741D02*
X15734D01*
X15681Y23794D01*
Y23901D01*
X15734Y23954D01*
X16001D01*
X15948Y24274D02*
X16001Y24221D01*
Y24114D01*
X15948Y24061D01*
X15894D01*
X15841Y24114D01*
Y24221D01*
X15788Y24274D01*
X15734D01*
X15681Y24221D01*
Y24114D01*
X15734Y24061D01*
X16001Y24381D02*
X15681D01*
Y24541D01*
X15734Y24594D01*
X15788D01*
X15841Y24541D01*
Y24381D01*
Y24541D01*
X15894Y24594D01*
X15948D01*
X16001Y24541D01*
Y24381D01*
Y24701D02*
X15788D01*
X15681Y24807D01*
X15788Y24914D01*
X16001D01*
X15948Y25234D02*
X16001Y25181D01*
Y25074D01*
X15948Y25021D01*
X15734D01*
X15681Y25074D01*
Y25181D01*
X15734Y25234D01*
X15948Y25554D02*
X16001Y25500D01*
Y25394D01*
X15948Y25341D01*
X15734D01*
X15681Y25394D01*
Y25500D01*
X15734Y25554D01*
X51498Y29108D02*
Y28788D01*
X51339D01*
X51285Y28842D01*
Y28895D01*
X51339Y28948D01*
X51498D01*
X51339D01*
X51285Y29002D01*
Y29055D01*
X51339Y29108D01*
X51498D01*
X50965D02*
X51179D01*
Y28788D01*
X50965D01*
X51179Y28948D02*
X51072D01*
X50859Y29108D02*
Y28788D01*
X50699D01*
X50645Y28842D01*
Y29055D01*
X50699Y29108D01*
X50859D01*
X50539Y28948D02*
X50326D01*
X50432Y29055D02*
Y28842D01*
X51508Y31118D02*
Y30798D01*
X51349D01*
X51295Y30852D01*
Y30905D01*
X51349Y30958D01*
X51508D01*
X51349D01*
X51295Y31012D01*
Y31065D01*
X51349Y31118D01*
X51508D01*
X50975D02*
X51189D01*
Y30798D01*
X50975D01*
X51189Y30958D02*
X51082D01*
X50869Y31118D02*
Y30798D01*
X50709D01*
X50655Y30852D01*
Y31065D01*
X50709Y31118D01*
X50869D01*
X50549Y30958D02*
X50336D01*
X51355Y33138D02*
X51568D01*
Y32819D01*
X51355D01*
X51568Y32978D02*
X51462D01*
X51249Y33138D02*
X51035Y32819D01*
Y33138D02*
X51249Y32819D01*
X50929Y33138D02*
X50715D01*
X50822D01*
Y32819D01*
X50609Y32978D02*
X50396D01*
X50502Y33085D02*
Y32872D01*
X51385Y35138D02*
X51599D01*
Y34818D01*
X51385D01*
X51599Y34978D02*
X51492D01*
X51279Y35138D02*
X51065Y34818D01*
Y35138D02*
X51279Y34818D01*
X50959Y35138D02*
X50745D01*
X50852D01*
Y34818D01*
X50639Y34978D02*
X50426D01*
X17951Y15321D02*
X17631Y15534D01*
X17951D02*
X17631Y15321D01*
Y15854D02*
Y15641D01*
X17844Y15854D01*
X17898D01*
X17951Y15801D01*
Y15694D01*
X17898Y15641D01*
X17631Y15961D02*
X17844D01*
X17951Y16067D01*
X17844Y16174D01*
X17631D01*
X17791D01*
Y15961D01*
X16421Y15371D02*
X16101Y15584D01*
X16421D02*
X16101Y15371D01*
Y15691D02*
Y15798D01*
Y15744D01*
X16421D01*
X16368Y15691D01*
X16101Y15957D02*
X16314D01*
X16421Y16064D01*
X16314Y16171D01*
X16101D01*
X16261D01*
Y15957D01*
X13191Y16461D02*
X12871Y16674D01*
X13191D02*
X12871Y16461D01*
Y16781D02*
Y16888D01*
Y16834D01*
X13191D01*
X13138Y16781D01*
X13191Y17047D02*
X12871D01*
Y17207D01*
X12924Y17261D01*
X12978D01*
X13031Y17207D01*
Y17047D01*
Y17207D01*
X13084Y17261D01*
X13138D01*
X13191Y17207D01*
Y17047D01*
X51329Y49301D02*
X51258Y49271D01*
X51228Y49201D01*
X52529D02*
X52499Y49271D01*
X52428Y49301D01*
Y48501D02*
X52499Y48530D01*
X52529Y48601D01*
X51228D02*
X51258Y48530D01*
X51329Y48501D01*
X20200Y57905D02*
X20230Y57834D01*
X20300Y57805D01*
Y59105D02*
X20230Y59075D01*
X20200Y59005D01*
X21000D02*
X20971Y59075D01*
X20900Y59105D01*
Y57805D02*
X20971Y57834D01*
X21000Y57905D01*
X51329Y48501D02*
X52428D01*
X51228Y48601D02*
Y49201D01*
X52529Y48601D02*
Y49201D01*
X51329Y49301D02*
X52428D01*
X21000Y57905D02*
Y59005D01*
X20300Y57805D02*
X20900D01*
X20300Y59105D02*
X20900D01*
X20200Y57905D02*
Y59005D01*
X43601Y52123D02*
X43368D01*
X43484D01*
Y51773D01*
X43251D02*
Y52123D01*
X43076D01*
X43018Y52065D01*
Y51948D01*
X43076Y51890D01*
X43251D01*
X42901Y52065D02*
X42843Y52123D01*
X42726D01*
X42668Y52065D01*
Y52006D01*
X42726Y51948D01*
X42785D01*
X42726D01*
X42668Y51890D01*
Y51831D01*
X42726Y51773D01*
X42843D01*
X42901Y51831D01*
X42551Y52065D02*
X42493Y52123D01*
X42376D01*
X42318Y52065D01*
Y52006D01*
X42376Y51948D01*
X42435D01*
X42376D01*
X42318Y51890D01*
Y51831D01*
X42376Y51773D01*
X42493D01*
X42551Y51831D01*
X40751Y55653D02*
X40518D01*
X40634D01*
Y55303D01*
X40401D02*
Y55653D01*
X40226D01*
X40168Y55595D01*
Y55478D01*
X40226Y55420D01*
X40401D01*
X39818Y55303D02*
X40051D01*
X39818Y55536D01*
Y55595D01*
X39876Y55653D01*
X39993D01*
X40051Y55595D01*
X39701D02*
X39643Y55653D01*
X39526D01*
X39468Y55595D01*
Y55536D01*
X39526Y55478D01*
X39585D01*
X39526D01*
X39468Y55420D01*
Y55361D01*
X39526Y55303D01*
X39643D01*
X39701Y55361D01*
X40141Y58093D02*
X39908D01*
X40024D01*
Y57743D01*
X39791D02*
Y58093D01*
X39616D01*
X39558Y58035D01*
Y57918D01*
X39616Y57860D01*
X39791D01*
X39208Y57743D02*
X39441D01*
X39208Y57976D01*
Y58035D01*
X39266Y58093D01*
X39383D01*
X39441Y58035D01*
X38858Y57743D02*
X39091D01*
X38858Y57976D01*
Y58035D01*
X38916Y58093D01*
X39033D01*
X39091Y58035D01*
X31081Y41393D02*
Y41626D01*
Y41510D01*
X30731D01*
Y41743D02*
X31081D01*
Y41918D01*
X31023Y41976D01*
X30906D01*
X30848Y41918D01*
Y41743D01*
X31081Y42326D02*
Y42093D01*
X30906D01*
X30964Y42210D01*
Y42268D01*
X30906Y42326D01*
X30789D01*
X30731Y42268D01*
Y42151D01*
X30789Y42093D01*
X30731Y42676D02*
Y42443D01*
X30964Y42676D01*
X31023D01*
X31081Y42618D01*
Y42501D01*
X31023Y42443D01*
X33521Y43293D02*
Y43526D01*
Y43410D01*
X33171D01*
Y43643D02*
X33521D01*
Y43818D01*
X33463Y43876D01*
X33346D01*
X33288Y43818D01*
Y43643D01*
X33171Y43993D02*
Y44110D01*
Y44051D01*
X33521D01*
X33463Y43993D01*
X33229Y44285D02*
X33171Y44343D01*
Y44459D01*
X33229Y44518D01*
X33463D01*
X33521Y44459D01*
Y44343D01*
X33463Y44285D01*
X33404D01*
X33346Y44343D01*
Y44518D01*
X32511Y43273D02*
Y43506D01*
Y43390D01*
X32161D01*
Y43623D02*
X32511D01*
Y43798D01*
X32453Y43856D01*
X32336D01*
X32278Y43798D01*
Y43623D01*
X32161Y43973D02*
Y44090D01*
Y44031D01*
X32511D01*
X32453Y43973D01*
Y44264D02*
X32511Y44323D01*
Y44439D01*
X32453Y44498D01*
X32219D01*
X32161Y44439D01*
Y44323D01*
X32219Y44264D01*
X32453D01*
X35161Y42723D02*
Y42956D01*
Y42840D01*
X34811D01*
Y43073D02*
X35161D01*
Y43248D01*
X35103Y43306D01*
X34986D01*
X34928Y43248D01*
Y43073D01*
X34869Y43423D02*
X34811Y43481D01*
Y43598D01*
X34869Y43656D01*
X35103D01*
X35161Y43598D01*
Y43481D01*
X35103Y43423D01*
X35044D01*
X34986Y43481D01*
Y43656D01*
X26791Y42693D02*
X26558D01*
X26674D01*
Y42343D01*
X26441D02*
Y42693D01*
X26266D01*
X26208Y42635D01*
Y42518D01*
X26266Y42460D01*
X26441D01*
X25858Y42693D02*
X26091D01*
Y42518D01*
X25975Y42576D01*
X25916D01*
X25858Y42518D01*
Y42401D01*
X25916Y42343D01*
X26033D01*
X26091Y42401D01*
X25741Y42343D02*
X25625D01*
X25683D01*
Y42693D01*
X25741Y42635D01*
X29306Y42336D02*
X29104Y42453D01*
X29205Y42394D01*
X29030Y42091D01*
X28828Y42208D02*
X29003Y42511D01*
X28851Y42599D01*
X28772Y42577D01*
X28713Y42476D01*
X28735Y42397D01*
X28886Y42309D01*
X28700Y42686D02*
X28498Y42803D01*
X28469Y42752D01*
X28554Y42434D01*
X28525Y42383D01*
X28386Y42296D02*
X28184Y42413D01*
X28285Y42354D01*
X28110Y42051D01*
X27908Y42168D02*
X28083Y42471D01*
X27931Y42559D01*
X27852Y42537D01*
X27793Y42436D01*
X27815Y42357D01*
X27966Y42269D01*
X27578Y42763D02*
X27650Y42654D01*
X27692Y42495D01*
X27634Y42394D01*
X27555Y42372D01*
X27453Y42431D01*
X27432Y42510D01*
X27461Y42561D01*
X27541Y42582D01*
X27692Y42495D01*
X30326Y42336D02*
X30124Y42453D01*
X30225Y42394D01*
X30050Y42091D01*
X29848Y42208D02*
X30023Y42511D01*
X29871Y42599D01*
X29792Y42577D01*
X29733Y42476D01*
X29755Y42397D01*
X29906Y42309D01*
X29518Y42803D02*
X29720Y42686D01*
X29632Y42535D01*
X29561Y42643D01*
X29510Y42673D01*
X29430Y42651D01*
X29372Y42550D01*
X29393Y42471D01*
X29495Y42412D01*
X29574Y42434D01*
X19721Y42653D02*
Y42886D01*
Y42770D01*
X19371D01*
Y43003D02*
X19721D01*
Y43178D01*
X19663Y43236D01*
X19546D01*
X19488Y43178D01*
Y43003D01*
X19721Y43586D02*
Y43353D01*
X19546D01*
X19604Y43470D01*
Y43528D01*
X19546Y43586D01*
X19429D01*
X19371Y43528D01*
Y43411D01*
X19429Y43353D01*
X19663Y43703D02*
X19721Y43761D01*
Y43878D01*
X19663Y43936D01*
X19604D01*
X19546Y43878D01*
Y43819D01*
Y43878D01*
X19488Y43936D01*
X19429D01*
X19371Y43878D01*
Y43761D01*
X19429Y43703D01*
X23511Y43303D02*
Y43536D01*
Y43420D01*
X23161D01*
Y43653D02*
X23511D01*
Y43828D01*
X23453Y43886D01*
X23336D01*
X23278Y43828D01*
Y43653D01*
X23511Y44236D02*
Y44003D01*
X23336D01*
X23394Y44120D01*
Y44178D01*
X23336Y44236D01*
X23219D01*
X23161Y44178D01*
Y44061D01*
X23219Y44003D01*
X23453Y44353D02*
X23511Y44411D01*
Y44528D01*
X23453Y44586D01*
X23219D01*
X23161Y44528D01*
Y44411D01*
X23219Y44353D01*
X23453D01*
X22361Y43263D02*
Y43496D01*
Y43380D01*
X22011D01*
Y43613D02*
X22361D01*
Y43788D01*
X22303Y43846D01*
X22186D01*
X22128Y43788D01*
Y43613D01*
X22011Y44138D02*
X22361D01*
X22186Y43963D01*
Y44196D01*
X25141Y42653D02*
Y42886D01*
Y42770D01*
X24791D01*
Y43003D02*
X25141D01*
Y43178D01*
X25083Y43236D01*
X24966D01*
X24908Y43178D01*
Y43003D01*
X24791Y43586D02*
Y43353D01*
X25024Y43586D01*
X25083D01*
X25141Y43528D01*
Y43411D01*
X25083Y43353D01*
X13661Y43803D02*
Y44036D01*
Y43920D01*
X13311D01*
Y44153D02*
X13661D01*
Y44328D01*
X13603Y44386D01*
X13486D01*
X13428Y44328D01*
Y44153D01*
X13311Y44503D02*
Y44620D01*
Y44561D01*
X13661D01*
X13603Y44503D01*
X41141Y41233D02*
Y41466D01*
Y41350D01*
X40791D01*
Y41583D02*
X41141D01*
Y41758D01*
X41083Y41816D01*
X40966D01*
X40908Y41758D01*
Y41583D01*
X41141Y42166D02*
X41083Y42050D01*
X40966Y41933D01*
X40849D01*
X40791Y41991D01*
Y42108D01*
X40849Y42166D01*
X40908D01*
X40966Y42108D01*
Y41933D01*
X40849Y42283D02*
X40791Y42341D01*
Y42458D01*
X40849Y42516D01*
X41083D01*
X41141Y42458D01*
Y42341D01*
X41083Y42283D01*
X41024D01*
X40966Y42341D01*
Y42516D01*
X47651Y41713D02*
Y41946D01*
Y41830D01*
X47301D01*
Y42063D02*
X47651D01*
Y42238D01*
X47593Y42296D01*
X47476D01*
X47418Y42238D01*
Y42063D01*
X47651Y42646D02*
X47593Y42530D01*
X47476Y42413D01*
X47359D01*
X47301Y42471D01*
Y42588D01*
X47359Y42646D01*
X47418D01*
X47476Y42588D01*
Y42413D01*
X47593Y42763D02*
X47651Y42821D01*
Y42938D01*
X47593Y42996D01*
X47534D01*
X47476Y42938D01*
X47418Y42996D01*
X47359D01*
X47301Y42938D01*
Y42821D01*
X47359Y42763D01*
X47418D01*
X47476Y42821D01*
X47534Y42763D01*
X47593D01*
X47476Y42821D02*
Y42938D01*
X45191Y42403D02*
Y42636D01*
Y42520D01*
X44841D01*
Y42753D02*
X45191D01*
Y42928D01*
X45133Y42986D01*
X45016D01*
X44958Y42928D01*
Y42753D01*
X45191Y43336D02*
X45133Y43220D01*
X45016Y43103D01*
X44899D01*
X44841Y43161D01*
Y43278D01*
X44899Y43336D01*
X44958D01*
X45016Y43278D01*
Y43103D01*
X45191Y43453D02*
Y43686D01*
X45133D01*
X44899Y43453D01*
X44841D01*
X43561Y42313D02*
Y42546D01*
Y42430D01*
X43211D01*
Y42663D02*
X43561D01*
Y42838D01*
X43503Y42896D01*
X43386D01*
X43328Y42838D01*
Y42663D01*
X43561Y43246D02*
X43503Y43130D01*
X43386Y43013D01*
X43269D01*
X43211Y43071D01*
Y43188D01*
X43269Y43246D01*
X43328D01*
X43386Y43188D01*
Y43013D01*
X43561Y43596D02*
X43503Y43479D01*
X43386Y43363D01*
X43269D01*
X43211Y43421D01*
Y43538D01*
X43269Y43596D01*
X43328D01*
X43386Y43538D01*
Y43363D01*
X28591Y67413D02*
X28358D01*
X28474D01*
Y67063D01*
X28241D02*
Y67413D01*
X28066D01*
X28008Y67355D01*
Y67238D01*
X28066Y67180D01*
X28241D01*
X27716Y67063D02*
Y67413D01*
X27891Y67238D01*
X27658D01*
X27541Y67355D02*
X27483Y67413D01*
X27366D01*
X27308Y67355D01*
Y67296D01*
X27366Y67238D01*
X27308Y67180D01*
Y67121D01*
X27366Y67063D01*
X27483D01*
X27541Y67121D01*
Y67180D01*
X27483Y67238D01*
X27541Y67296D01*
Y67355D01*
X27483Y67238D02*
X27366D01*
X14591Y55183D02*
X14358D01*
X14474D01*
Y54833D01*
X14241D02*
Y55183D01*
X14066D01*
X14008Y55125D01*
Y55008D01*
X14066Y54950D01*
X14241D01*
X13716Y54833D02*
Y55183D01*
X13891Y55008D01*
X13658D01*
X13541Y55183D02*
X13308D01*
Y55125D01*
X13541Y54891D01*
Y54833D01*
X16521Y52213D02*
Y52446D01*
Y52330D01*
X16171D01*
Y52563D02*
X16521D01*
Y52738D01*
X16463Y52796D01*
X16346D01*
X16288Y52738D01*
Y52563D01*
X16171Y53088D02*
X16521D01*
X16346Y52913D01*
Y53146D01*
X16521Y53496D02*
X16463Y53379D01*
X16346Y53263D01*
X16229D01*
X16171Y53321D01*
Y53438D01*
X16229Y53496D01*
X16288D01*
X16346Y53438D01*
Y53263D01*
X18651Y58633D02*
X18418D01*
X18534D01*
Y58283D01*
X18301D02*
Y58633D01*
X18126D01*
X18068Y58575D01*
Y58458D01*
X18126Y58400D01*
X18301D01*
X17776Y58283D02*
Y58633D01*
X17951Y58458D01*
X17718D01*
X17368Y58633D02*
X17601D01*
Y58458D01*
X17485Y58516D01*
X17426D01*
X17368Y58458D01*
Y58341D01*
X17426Y58283D01*
X17543D01*
X17601Y58341D01*
X16231Y60253D02*
Y60486D01*
Y60370D01*
X15881D01*
Y60603D02*
X16231D01*
Y60778D01*
X16173Y60836D01*
X16056D01*
X15998Y60778D01*
Y60603D01*
X15881Y61128D02*
X16231D01*
X16056Y60953D01*
Y61186D01*
X15881Y61478D02*
X16231D01*
X16056Y61303D01*
Y61536D01*
X17001Y58553D02*
X16768D01*
X16884D01*
Y58203D01*
X16651D02*
Y58553D01*
X16476D01*
X16418Y58495D01*
Y58378D01*
X16476Y58320D01*
X16651D01*
X16126Y58203D02*
Y58553D01*
X16301Y58378D01*
X16068D01*
X15951Y58495D02*
X15893Y58553D01*
X15776D01*
X15718Y58495D01*
Y58436D01*
X15776Y58378D01*
X15835D01*
X15776D01*
X15718Y58320D01*
Y58261D01*
X15776Y58203D01*
X15893D01*
X15951Y58261D01*
X19151Y56323D02*
Y56556D01*
Y56440D01*
X18801D01*
Y56673D02*
X19151D01*
Y56848D01*
X19093Y56906D01*
X18976D01*
X18918Y56848D01*
Y56673D01*
X18801Y57198D02*
X19151D01*
X18976Y57023D01*
Y57256D01*
X18801Y57606D02*
Y57373D01*
X19034Y57606D01*
X19093D01*
X19151Y57548D01*
Y57431D01*
X19093Y57373D01*
X23561Y64813D02*
X23328D01*
X23444D01*
Y64463D01*
X23211D02*
Y64813D01*
X23036D01*
X22978Y64755D01*
Y64638D01*
X23036Y64580D01*
X23211D01*
X22686Y64463D02*
Y64813D01*
X22861Y64638D01*
X22628D01*
X22511Y64755D02*
X22453Y64813D01*
X22336D01*
X22278Y64755D01*
Y64521D01*
X22336Y64463D01*
X22453D01*
X22511Y64521D01*
Y64755D01*
X19411Y62253D02*
Y62486D01*
Y62370D01*
X19061D01*
Y62603D02*
X19411D01*
Y62778D01*
X19353Y62836D01*
X19236D01*
X19178Y62778D01*
Y62603D01*
X19353Y62953D02*
X19411Y63011D01*
Y63128D01*
X19353Y63186D01*
X19294D01*
X19236Y63128D01*
Y63070D01*
Y63128D01*
X19178Y63186D01*
X19119D01*
X19061Y63128D01*
Y63011D01*
X19119Y62953D01*
X19353Y63303D02*
X19411Y63361D01*
Y63478D01*
X19353Y63536D01*
X19294D01*
X19236Y63478D01*
X19178Y63536D01*
X19119D01*
X19061Y63478D01*
Y63361D01*
X19119Y63303D01*
X19178D01*
X19236Y63361D01*
X19294Y63303D01*
X19353D01*
X19236Y63361D02*
Y63478D01*
X25411Y57343D02*
Y57576D01*
Y57460D01*
X25061D01*
Y57693D02*
X25411D01*
Y57868D01*
X25353Y57926D01*
X25236D01*
X25178Y57868D01*
Y57693D01*
X25353Y58043D02*
X25411Y58101D01*
Y58218D01*
X25353Y58276D01*
X25294D01*
X25236Y58218D01*
Y58160D01*
Y58218D01*
X25178Y58276D01*
X25119D01*
X25061Y58218D01*
Y58101D01*
X25119Y58043D01*
X25411Y58393D02*
Y58626D01*
X25353D01*
X25119Y58393D01*
X25061D01*
X30571Y60633D02*
X30338D01*
X30454D01*
Y60283D01*
X30221D02*
Y60633D01*
X30046D01*
X29988Y60575D01*
Y60458D01*
X30046Y60400D01*
X30221D01*
X29871Y60575D02*
X29813Y60633D01*
X29696D01*
X29638Y60575D01*
Y60516D01*
X29696Y60458D01*
X29755D01*
X29696D01*
X29638Y60400D01*
Y60341D01*
X29696Y60283D01*
X29813D01*
X29871Y60341D01*
X29288Y60633D02*
X29405Y60575D01*
X29521Y60458D01*
Y60341D01*
X29463Y60283D01*
X29346D01*
X29288Y60341D01*
Y60400D01*
X29346Y60458D01*
X29521D01*
X23101Y59293D02*
Y59526D01*
Y59410D01*
X22751D01*
Y59643D02*
X23101D01*
Y59818D01*
X23043Y59876D01*
X22926D01*
X22868Y59818D01*
Y59643D01*
X23043Y59993D02*
X23101Y60051D01*
Y60168D01*
X23043Y60226D01*
X22984D01*
X22926Y60168D01*
Y60110D01*
Y60168D01*
X22868Y60226D01*
X22809D01*
X22751Y60168D01*
Y60051D01*
X22809Y59993D01*
X22751Y60518D02*
X23101D01*
X22926Y60343D01*
Y60576D01*
X33621Y52393D02*
X33388D01*
X33504D01*
Y52043D01*
X33271D02*
Y52393D01*
X33096D01*
X33038Y52335D01*
Y52218D01*
X33096Y52160D01*
X33271D01*
X32921Y52043D02*
X32805D01*
X32863D01*
Y52393D01*
X32921Y52335D01*
X32396Y52393D02*
X32630D01*
Y52218D01*
X32513Y52276D01*
X32455D01*
X32396Y52218D01*
Y52101D01*
X32455Y52043D01*
X32571D01*
X32630Y52101D01*
X35161Y56633D02*
X34928D01*
X35044D01*
Y56283D01*
X34811D02*
Y56633D01*
X34636D01*
X34578Y56575D01*
Y56458D01*
X34636Y56400D01*
X34811D01*
X34228Y56283D02*
X34461D01*
X34228Y56516D01*
Y56575D01*
X34286Y56633D01*
X34403D01*
X34461Y56575D01*
X34111D02*
X34053Y56633D01*
X33936D01*
X33878Y56575D01*
Y56341D01*
X33936Y56283D01*
X34053D01*
X34111Y56341D01*
Y56575D01*
X33751Y54613D02*
X33518D01*
X33634D01*
Y54263D01*
X33401D02*
Y54613D01*
X33226D01*
X33168Y54555D01*
Y54438D01*
X33226Y54380D01*
X33401D01*
X32818Y54263D02*
X33051D01*
X32818Y54496D01*
Y54555D01*
X32876Y54613D01*
X32993D01*
X33051Y54555D01*
X32701Y54263D02*
X32585D01*
X32643D01*
Y54613D01*
X32701Y54555D01*
X43281Y53163D02*
X43048D01*
X43164D01*
Y52813D01*
X42931D02*
Y53163D01*
X42756D01*
X42698Y53105D01*
Y52988D01*
X42756Y52930D01*
X42931D01*
X42581Y53105D02*
X42523Y53163D01*
X42406D01*
X42348Y53105D01*
Y53046D01*
X42406Y52988D01*
X42465D01*
X42406D01*
X42348Y52930D01*
Y52871D01*
X42406Y52813D01*
X42523D01*
X42581Y52871D01*
X51631Y57603D02*
X51398D01*
X51514D01*
Y57253D01*
X51281D02*
Y57603D01*
X51106D01*
X51048Y57545D01*
Y57428D01*
X51106Y57370D01*
X51281D01*
X50931Y57253D02*
X50815D01*
X50873D01*
Y57603D01*
X50931Y57545D01*
X50406Y57603D02*
X50523Y57545D01*
X50640Y57428D01*
Y57311D01*
X50581Y57253D01*
X50465D01*
X50406Y57311D01*
Y57370D01*
X50465Y57428D01*
X50640D01*
X39661Y48673D02*
X39428D01*
X39544D01*
Y48323D01*
X39311D02*
Y48673D01*
X39136D01*
X39078Y48615D01*
Y48498D01*
X39136Y48440D01*
X39311D01*
X38961Y48323D02*
X38845D01*
X38903D01*
Y48673D01*
X38961Y48615D01*
X38670Y48673D02*
X38436D01*
Y48615D01*
X38670Y48381D01*
Y48323D01*
X51711Y59623D02*
X51478D01*
X51594D01*
Y59273D01*
X51361D02*
Y59623D01*
X51186D01*
X51128Y59565D01*
Y59448D01*
X51186Y59390D01*
X51361D01*
X51011Y59273D02*
X50895D01*
X50953D01*
Y59623D01*
X51011Y59565D01*
X50720D02*
X50661Y59623D01*
X50545D01*
X50486Y59565D01*
Y59506D01*
X50545Y59448D01*
X50486Y59390D01*
Y59331D01*
X50545Y59273D01*
X50661D01*
X50720Y59331D01*
Y59390D01*
X50661Y59448D01*
X50720Y59506D01*
Y59565D01*
X50661Y59448D02*
X50545D01*
X21631Y53083D02*
X21398D01*
X21514D01*
Y52733D01*
X21281D02*
Y53083D01*
X21106D01*
X21048Y53025D01*
Y52908D01*
X21106Y52850D01*
X21281D01*
X20698Y52733D02*
X20931D01*
X20698Y52966D01*
Y53025D01*
X20756Y53083D01*
X20873D01*
X20931Y53025D01*
X20406Y52733D02*
Y53083D01*
X20581Y52908D01*
X20348D01*
X21641Y55443D02*
X21408D01*
X21524D01*
Y55093D01*
X21291D02*
Y55443D01*
X21116D01*
X21058Y55385D01*
Y55268D01*
X21116Y55210D01*
X21291D01*
X20708Y55093D02*
X20941D01*
X20708Y55326D01*
Y55385D01*
X20766Y55443D01*
X20883D01*
X20941Y55385D01*
X20358Y55443D02*
X20591D01*
Y55268D01*
X20475Y55326D01*
X20416D01*
X20358Y55268D01*
Y55151D01*
X20416Y55093D01*
X20533D01*
X20591Y55151D01*
X21591Y56843D02*
X21358D01*
X21474D01*
Y56493D01*
X21241D02*
Y56843D01*
X21066D01*
X21008Y56785D01*
Y56668D01*
X21066Y56610D01*
X21241D01*
X20658Y56493D02*
X20891D01*
X20658Y56726D01*
Y56785D01*
X20716Y56843D01*
X20833D01*
X20891Y56785D01*
X20308Y56843D02*
X20425Y56785D01*
X20541Y56668D01*
Y56551D01*
X20483Y56493D01*
X20366D01*
X20308Y56551D01*
Y56610D01*
X20366Y56668D01*
X20541D01*
X23751Y54363D02*
Y54596D01*
Y54480D01*
X23401D01*
Y54713D02*
X23751D01*
Y54888D01*
X23693Y54946D01*
X23576D01*
X23518Y54888D01*
Y54713D01*
X23401Y55296D02*
Y55063D01*
X23634Y55296D01*
X23693D01*
X23751Y55238D01*
Y55121D01*
X23693Y55063D01*
X23459Y55413D02*
X23401Y55471D01*
Y55588D01*
X23459Y55646D01*
X23693D01*
X23751Y55588D01*
Y55471D01*
X23693Y55413D01*
X23634D01*
X23576Y55471D01*
Y55646D01*
X24861Y52033D02*
Y52266D01*
Y52150D01*
X24511D01*
Y52383D02*
X24861D01*
Y52558D01*
X24803Y52616D01*
X24686D01*
X24628Y52558D01*
Y52383D01*
X24803Y52733D02*
X24861Y52791D01*
Y52908D01*
X24803Y52966D01*
X24744D01*
X24686Y52908D01*
Y52850D01*
Y52908D01*
X24628Y52966D01*
X24569D01*
X24511Y52908D01*
Y52791D01*
X24569Y52733D01*
X24803Y53083D02*
X24861Y53141D01*
Y53258D01*
X24803Y53316D01*
X24569D01*
X24511Y53258D01*
Y53141D01*
X24569Y53083D01*
X24803D01*
X22851Y51543D02*
Y51776D01*
Y51660D01*
X22501D01*
Y51893D02*
X22851D01*
Y52068D01*
X22793Y52126D01*
X22676D01*
X22618Y52068D01*
Y51893D01*
X22793Y52243D02*
X22851Y52301D01*
Y52418D01*
X22793Y52476D01*
X22734D01*
X22676Y52418D01*
Y52360D01*
Y52418D01*
X22618Y52476D01*
X22559D01*
X22501Y52418D01*
Y52301D01*
X22559Y52243D01*
X22501Y52593D02*
Y52709D01*
Y52651D01*
X22851D01*
X22793Y52593D01*
X36461Y62703D02*
X36228D01*
X36344D01*
Y62353D01*
X36111D02*
Y62703D01*
X35936D01*
X35878Y62645D01*
Y62528D01*
X35936Y62470D01*
X36111D01*
X35761Y62645D02*
X35703Y62703D01*
X35586D01*
X35528Y62645D01*
Y62586D01*
X35586Y62528D01*
X35645D01*
X35586D01*
X35528Y62470D01*
Y62411D01*
X35586Y62353D01*
X35703D01*
X35761Y62411D01*
X35178Y62353D02*
X35411D01*
X35178Y62586D01*
Y62645D01*
X35236Y62703D01*
X35353D01*
X35411Y62645D01*
X16888Y43281D02*
Y43514D01*
Y43397D01*
X16538D01*
Y43631D02*
X16888D01*
Y43805D01*
X16830Y43864D01*
X16713D01*
X16655Y43805D01*
Y43631D01*
X16888Y43980D02*
Y44214D01*
X16830D01*
X16597Y43980D01*
X16538D01*
X16888Y44564D02*
Y44330D01*
X16713D01*
X16772Y44447D01*
Y44505D01*
X16713Y44564D01*
X16597D01*
X16538Y44505D01*
Y44389D01*
X16597Y44330D01*
X15801Y44143D02*
X15568D01*
X15684D01*
Y43793D01*
X15451D02*
Y44143D01*
X15276D01*
X15218Y44085D01*
Y43968D01*
X15276Y43910D01*
X15451D01*
X15101Y44143D02*
X14868D01*
Y44085D01*
X15101Y43851D01*
Y43793D01*
X14576D02*
Y44143D01*
X14751Y43968D01*
X14518D01*
X18581Y43183D02*
Y43416D01*
Y43300D01*
X18231D01*
Y43533D02*
X18581D01*
Y43708D01*
X18523Y43766D01*
X18406D01*
X18348Y43708D01*
Y43533D01*
X18581Y43883D02*
Y44116D01*
X18523D01*
X18289Y43883D01*
X18231D01*
X18523Y44233D02*
X18581Y44291D01*
Y44408D01*
X18523Y44466D01*
X18464D01*
X18406Y44408D01*
Y44349D01*
Y44408D01*
X18348Y44466D01*
X18289D01*
X18231Y44408D01*
Y44291D01*
X18289Y44233D01*
X27621Y48283D02*
Y48516D01*
Y48400D01*
X27271D01*
Y48633D02*
X27621D01*
Y48808D01*
X27563Y48866D01*
X27446D01*
X27388Y48808D01*
Y48633D01*
X27271Y48983D02*
Y49100D01*
Y49041D01*
X27621D01*
X27563Y48983D01*
X27271Y49508D02*
Y49275D01*
X27504Y49508D01*
X27563D01*
X27621Y49449D01*
Y49333D01*
X27563Y49275D01*
X28611Y46253D02*
Y46486D01*
Y46370D01*
X28261D01*
Y46603D02*
X28611D01*
Y46778D01*
X28553Y46836D01*
X28436D01*
X28378Y46778D01*
Y46603D01*
X28261Y46953D02*
Y47070D01*
Y47011D01*
X28611D01*
X28553Y46953D01*
Y47245D02*
X28611Y47303D01*
Y47419D01*
X28553Y47478D01*
X28494D01*
X28436Y47419D01*
Y47361D01*
Y47419D01*
X28378Y47478D01*
X28319D01*
X28261Y47419D01*
Y47303D01*
X28319Y47245D01*
X31681Y46993D02*
Y47226D01*
Y47110D01*
X31331D01*
Y47343D02*
X31681D01*
Y47518D01*
X31623Y47576D01*
X31506D01*
X31448Y47518D01*
Y47343D01*
X31331Y47693D02*
Y47810D01*
Y47751D01*
X31681D01*
X31623Y47693D01*
X31331Y48159D02*
X31681D01*
X31506Y47984D01*
Y48218D01*
X18421Y55723D02*
X18188D01*
X18304D01*
Y55373D01*
X18071D02*
Y55723D01*
X17896D01*
X17838Y55665D01*
Y55548D01*
X17896Y55490D01*
X18071D01*
X17488Y55373D02*
X17721D01*
X17488Y55606D01*
Y55665D01*
X17546Y55723D01*
X17663D01*
X17721Y55665D01*
X17371D02*
X17313Y55723D01*
X17196D01*
X17138Y55665D01*
Y55606D01*
X17196Y55548D01*
X17138Y55490D01*
Y55431D01*
X17196Y55373D01*
X17313D01*
X17371Y55431D01*
Y55490D01*
X17313Y55548D01*
X17371Y55606D01*
Y55665D01*
X17313Y55548D02*
X17196D01*
X16181Y56623D02*
X15948D01*
X16064D01*
Y56273D01*
X15831D02*
Y56623D01*
X15656D01*
X15598Y56565D01*
Y56448D01*
X15656Y56390D01*
X15831D01*
X15481Y56565D02*
X15423Y56623D01*
X15306D01*
X15248Y56565D01*
Y56506D01*
X15306Y56448D01*
X15365D01*
X15306D01*
X15248Y56390D01*
Y56331D01*
X15306Y56273D01*
X15423D01*
X15481Y56331D01*
X14898Y56623D02*
X15131D01*
Y56448D01*
X15015Y56506D01*
X14956D01*
X14898Y56448D01*
Y56331D01*
X14956Y56273D01*
X15073D01*
X15131Y56331D01*
X21611Y64353D02*
X21378D01*
X21494D01*
Y64003D01*
X21261D02*
Y64353D01*
X21086D01*
X21028Y64295D01*
Y64178D01*
X21086Y64120D01*
X21261D01*
X20678Y64353D02*
X20911D01*
Y64178D01*
X20795Y64236D01*
X20736D01*
X20678Y64178D01*
Y64061D01*
X20736Y64003D01*
X20853D01*
X20911Y64061D01*
X20386Y64003D02*
Y64353D01*
X20561Y64178D01*
X20328D01*
X27401Y60673D02*
X27168D01*
X27284D01*
Y60323D01*
X27051D02*
Y60673D01*
X26876D01*
X26818Y60615D01*
Y60498D01*
X26876Y60440D01*
X27051D01*
X26468Y60673D02*
X26701D01*
Y60498D01*
X26585Y60556D01*
X26526D01*
X26468Y60498D01*
Y60381D01*
X26526Y60323D01*
X26643D01*
X26701Y60381D01*
X26118Y60673D02*
X26351D01*
Y60498D01*
X26235Y60556D01*
X26176D01*
X26118Y60498D01*
Y60381D01*
X26176Y60323D01*
X26293D01*
X26351Y60381D01*
X18671Y41833D02*
Y42066D01*
Y41950D01*
X18321D01*
Y42183D02*
X18671D01*
Y42358D01*
X18613Y42416D01*
X18496D01*
X18438Y42358D01*
Y42183D01*
X18613Y42533D02*
X18671Y42591D01*
Y42708D01*
X18613Y42766D01*
X18554D01*
X18496Y42708D01*
Y42650D01*
Y42708D01*
X18438Y42766D01*
X18379D01*
X18321Y42708D01*
Y42591D01*
X18379Y42533D01*
Y42883D02*
X18321Y42941D01*
Y43058D01*
X18379Y43116D01*
X18613D01*
X18671Y43058D01*
Y42941D01*
X18613Y42883D01*
X18554D01*
X18496Y42941D01*
Y43116D01*
X21421Y41993D02*
X21188D01*
X21304D01*
Y41643D01*
X21071D02*
Y41993D01*
X20896D01*
X20838Y41935D01*
Y41818D01*
X20896Y41760D01*
X21071D01*
X20546Y41643D02*
Y41993D01*
X20721Y41818D01*
X20488D01*
X20371Y41643D02*
X20255D01*
X20313D01*
Y41993D01*
X20371Y41935D01*
X16751Y42073D02*
X16518D01*
X16634D01*
Y41723D01*
X16401D02*
Y42073D01*
X16226D01*
X16168Y42015D01*
Y41898D01*
X16226Y41840D01*
X16401D01*
X15876Y41723D02*
Y42073D01*
X16051Y41898D01*
X15818D01*
X15701Y41781D02*
X15643Y41723D01*
X15526D01*
X15468Y41781D01*
Y42015D01*
X15526Y42073D01*
X15643D01*
X15701Y42015D01*
Y41956D01*
X15643Y41898D01*
X15468D01*
X17681Y41753D02*
Y41986D01*
Y41870D01*
X17331D01*
Y42103D02*
X17681D01*
Y42278D01*
X17623Y42336D01*
X17506D01*
X17448Y42278D01*
Y42103D01*
X17681Y42686D02*
Y42453D01*
X17506D01*
X17564Y42570D01*
Y42628D01*
X17506Y42686D01*
X17389D01*
X17331Y42628D01*
Y42511D01*
X17389Y42453D01*
X17681Y43036D02*
X17623Y42919D01*
X17506Y42803D01*
X17389D01*
X17331Y42861D01*
Y42978D01*
X17389Y43036D01*
X17448D01*
X17506Y42978D01*
Y42803D01*
X26561Y42103D02*
X26328D01*
X26444D01*
Y41753D01*
X26211D02*
Y42103D01*
X26036D01*
X25978Y42045D01*
Y41928D01*
X26036Y41870D01*
X26211D01*
X25628Y42103D02*
X25861D01*
Y41928D01*
X25745Y41986D01*
X25686D01*
X25628Y41928D01*
Y41811D01*
X25686Y41753D01*
X25803D01*
X25861Y41811D01*
X25511Y42103D02*
X25278D01*
Y42045D01*
X25511Y41811D01*
Y41753D01*
X21891Y42563D02*
X21658D01*
X21774D01*
Y42213D01*
X21541D02*
Y42563D01*
X21366D01*
X21308Y42505D01*
Y42388D01*
X21366Y42330D01*
X21541D01*
X20958Y42563D02*
X21191D01*
Y42388D01*
X21075Y42446D01*
X21016D01*
X20958Y42388D01*
Y42271D01*
X21016Y42213D01*
X21133D01*
X21191Y42271D01*
X20841Y42505D02*
X20783Y42563D01*
X20666D01*
X20608Y42505D01*
Y42446D01*
X20666Y42388D01*
X20608Y42330D01*
Y42271D01*
X20666Y42213D01*
X20783D01*
X20841Y42271D01*
Y42330D01*
X20783Y42388D01*
X20841Y42446D01*
Y42505D01*
X20783Y42388D02*
X20666D01*
X35631Y42373D02*
X35398D01*
X35514D01*
Y42023D01*
X35281D02*
Y42373D01*
X35106D01*
X35048Y42315D01*
Y42198D01*
X35106Y42140D01*
X35281D01*
X34698Y42373D02*
X34931D01*
Y42198D01*
X34815Y42256D01*
X34756D01*
X34698Y42198D01*
Y42081D01*
X34756Y42023D01*
X34873D01*
X34931Y42081D01*
X34581D02*
X34523Y42023D01*
X34406D01*
X34348Y42081D01*
Y42315D01*
X34406Y42373D01*
X34523D01*
X34581Y42315D01*
Y42256D01*
X34523Y42198D01*
X34348D01*
X32681Y42163D02*
X32448D01*
X32564D01*
Y41813D01*
X32331D02*
Y42163D01*
X32156D01*
X32098Y42105D01*
Y41988D01*
X32156Y41930D01*
X32331D01*
X31748Y42163D02*
X31865Y42105D01*
X31981Y41988D01*
Y41871D01*
X31923Y41813D01*
X31806D01*
X31748Y41871D01*
Y41930D01*
X31806Y41988D01*
X31981D01*
X31631Y42105D02*
X31573Y42163D01*
X31456D01*
X31398Y42105D01*
Y41871D01*
X31456Y41813D01*
X31573D01*
X31631Y41871D01*
Y42105D01*
X24551Y56643D02*
X24784D01*
Y56818D01*
X24726Y56876D01*
X24551D01*
Y56993D02*
X24901D01*
Y57168D01*
X24843Y57226D01*
X24726D01*
X24668Y57168D01*
Y56993D01*
Y57110D02*
X24551Y57226D01*
X24901Y57576D02*
Y57343D01*
X24551D01*
Y57576D01*
X24726Y57343D02*
Y57460D01*
X24843Y57926D02*
X24901Y57868D01*
Y57751D01*
X24843Y57693D01*
X24784D01*
X24726Y57751D01*
Y57868D01*
X24668Y57926D01*
X24609D01*
X24551Y57868D01*
Y57751D01*
X24609Y57693D01*
X24901Y58276D02*
Y58043D01*
X24551D01*
Y58276D01*
X24726Y58043D02*
Y58159D01*
X24901Y58393D02*
Y58626D01*
Y58509D01*
X24551D01*
X15431Y60663D02*
X15781D01*
Y60838D01*
X15723Y60896D01*
X15606D01*
X15548Y60838D01*
Y60663D01*
Y60780D02*
X15431Y60896D01*
X15781Y61246D02*
Y61013D01*
X15431D01*
Y61246D01*
X15606Y61013D02*
Y61130D01*
X15723Y61596D02*
X15781Y61538D01*
Y61421D01*
X15723Y61363D01*
X15664D01*
X15606Y61421D01*
Y61538D01*
X15548Y61596D01*
X15489D01*
X15431Y61538D01*
Y61421D01*
X15489Y61363D01*
X15781Y61946D02*
Y61713D01*
X15431D01*
Y61946D01*
X15606Y61713D02*
Y61829D01*
X15781Y62063D02*
Y62296D01*
Y62179D01*
X15431D01*
Y62646D02*
Y62413D01*
X15664Y62646D01*
X15723D01*
X15781Y62588D01*
Y62471D01*
X15723Y62413D01*
X22078Y58583D02*
X22311D01*
Y58233D01*
X22078D01*
X22311Y58408D02*
X22194D01*
X21961Y58233D02*
Y58583D01*
X21728Y58233D01*
Y58583D01*
X22401Y59063D02*
Y58713D01*
X22226D01*
X22168Y58771D01*
Y58830D01*
X22226Y58888D01*
X22401D01*
X22226D01*
X22168Y58946D01*
Y59005D01*
X22226Y59063D01*
X22401D01*
X21876D02*
X21993D01*
X22051Y59005D01*
Y58771D01*
X21993Y58713D01*
X21876D01*
X21818Y58771D01*
Y59005D01*
X21876Y59063D01*
X21526D02*
X21643D01*
X21701Y59005D01*
Y58771D01*
X21643Y58713D01*
X21526D01*
X21468Y58771D01*
Y59005D01*
X21526Y59063D01*
X21351D02*
X21118D01*
X21235D01*
Y58713D01*
X22061Y59523D02*
Y59231D01*
X22003Y59173D01*
X21886D01*
X21828Y59231D01*
Y59523D01*
X21478Y59465D02*
X21536Y59523D01*
X21653D01*
X21711Y59465D01*
Y59406D01*
X21653Y59348D01*
X21536D01*
X21478Y59290D01*
Y59231D01*
X21536Y59173D01*
X21653D01*
X21711Y59231D01*
X21361Y59523D02*
Y59173D01*
X21186D01*
X21128Y59231D01*
Y59290D01*
X21186Y59348D01*
X21361D01*
X21186D01*
X21128Y59406D01*
Y59465D01*
X21186Y59523D01*
X21361D01*
X21891Y54603D02*
Y54923D01*
X21731D01*
X21678Y54870D01*
Y54763D01*
X21731Y54710D01*
X21891D01*
X21784D02*
X21678Y54603D01*
X21571Y54923D02*
X21358Y54603D01*
Y54923D02*
X21571Y54603D01*
X21251Y54870D02*
X21198Y54923D01*
X21091D01*
X21038Y54870D01*
Y54656D01*
X21091Y54603D01*
X21198D01*
X21251Y54656D01*
Y54870D01*
X20931Y54763D02*
X20718D01*
X20611Y54923D02*
X20505D01*
X20558D01*
Y54603D01*
X20611D01*
X20505D01*
X22931Y54323D02*
X23281D01*
Y54498D01*
X23223Y54556D01*
X23106D01*
X23048Y54498D01*
Y54323D01*
Y54440D02*
X22931Y54556D01*
X23223Y54906D02*
X23281Y54848D01*
Y54731D01*
X23223Y54673D01*
X23164D01*
X23106Y54731D01*
Y54848D01*
X23048Y54906D01*
X22989D01*
X22931Y54848D01*
Y54731D01*
X22989Y54673D01*
X23281Y55023D02*
Y55256D01*
Y55140D01*
X22931D01*
X23106Y55373D02*
Y55606D01*
X23281Y55723D02*
Y55839D01*
Y55781D01*
X22931D01*
Y55723D01*
Y55839D01*
X23281Y56189D02*
Y56073D01*
X23223Y56014D01*
X22989D01*
X22931Y56073D01*
Y56189D01*
X22989Y56248D01*
X23223D01*
X23281Y56189D01*
X24051Y51773D02*
X24401D01*
Y51948D01*
X24343Y52006D01*
X24226D01*
X24168Y51948D01*
Y51773D01*
Y51890D02*
X24051Y52006D01*
X24401Y52123D02*
X24051Y52356D01*
X24401D02*
X24051Y52123D01*
X24343Y52473D02*
X24401Y52531D01*
Y52648D01*
X24343Y52706D01*
X24109D01*
X24051Y52648D01*
Y52531D01*
X24109Y52473D01*
X24343D01*
X27108Y48311D02*
X26788Y48524D01*
X27108D02*
X26788Y48311D01*
X27108Y48631D02*
X27055D01*
X26948Y48737D01*
X27055Y48844D01*
X27108D01*
X26948Y48737D02*
X26788D01*
Y48950D02*
X27108D01*
Y49110D01*
X27055Y49164D01*
X26948D01*
X26895Y49110D01*
Y48950D01*
Y49057D02*
X26788Y49164D01*
X27108Y49484D02*
Y49270D01*
X26788D01*
Y49484D01*
X26948Y49270D02*
Y49377D01*
X27108Y49803D02*
Y49590D01*
X26948D01*
Y49697D01*
Y49590D01*
X26788D01*
X28101Y46343D02*
Y46556D01*
X28048D01*
X27834Y46343D01*
X27781D01*
Y46556D01*
Y46663D02*
X28101D01*
Y46823D01*
X28048Y46876D01*
X27941D01*
X27888Y46823D01*
Y46663D01*
Y46770D02*
X27781Y46876D01*
X28101Y47196D02*
Y46983D01*
X27781D01*
Y47196D01*
X27941Y46983D02*
Y47090D01*
X28101Y47516D02*
Y47303D01*
X27941D01*
Y47409D01*
Y47303D01*
X27781D01*
X31161Y46656D02*
Y46443D01*
X30841D01*
Y46656D01*
X31001Y46443D02*
Y46550D01*
X30841Y46763D02*
X31161D01*
Y46923D01*
X31108Y46976D01*
X31001D01*
X30948Y46923D01*
Y46763D01*
Y46870D02*
X30841Y46976D01*
X31161Y47296D02*
Y47083D01*
X30841D01*
Y47296D01*
X31001Y47083D02*
Y47190D01*
X31161Y47616D02*
Y47403D01*
X31001D01*
Y47509D01*
Y47403D01*
X30841D01*
X15841Y43713D02*
X15628Y43393D01*
Y43713D02*
X15841Y43393D01*
X15308D02*
X15521D01*
X15308Y43606D01*
Y43660D01*
X15361Y43713D01*
X15468D01*
X15521Y43660D01*
X15201Y43713D02*
Y43393D01*
X15041D01*
X14988Y43446D01*
Y43500D01*
X15041Y43553D01*
X15201D01*
X15041D01*
X14988Y43606D01*
Y43660D01*
X15041Y43713D01*
X15201D01*
X19241Y43313D02*
X19188D01*
X19081Y43420D01*
X19188Y43526D01*
X19241D01*
X19081Y43420D02*
X18921D01*
Y43633D02*
Y43740D01*
Y43686D01*
X19241D01*
X19188Y43633D01*
X19241Y43900D02*
X18921D01*
Y44060D01*
X18974Y44113D01*
X19028D01*
X19081Y44060D01*
Y43900D01*
Y44060D01*
X19134Y44113D01*
X19188D01*
X19241Y44060D01*
Y43900D01*
X23031Y43353D02*
X22978D01*
X22871Y43460D01*
X22978Y43566D01*
X23031D01*
X22871Y43460D02*
X22711D01*
Y43673D02*
Y43780D01*
Y43726D01*
X23031D01*
X22978Y43673D01*
X22711Y43940D02*
X22924D01*
X23031Y44046D01*
X22924Y44153D01*
X22711D01*
X22871D01*
Y43940D01*
X24671Y42733D02*
X24618D01*
X24511Y42840D01*
X24618Y42946D01*
X24671D01*
X24511Y42840D02*
X24351D01*
Y43266D02*
Y43053D01*
X24564Y43266D01*
X24618D01*
X24671Y43213D01*
Y43106D01*
X24618Y43053D01*
X24351Y43373D02*
X24564D01*
X24671Y43480D01*
X24564Y43586D01*
X24351D01*
X24511D01*
Y43373D01*
X21901Y43343D02*
X21848D01*
X21741Y43450D01*
X21848Y43556D01*
X21901D01*
X21741Y43450D02*
X21581D01*
Y43876D02*
Y43663D01*
X21794Y43876D01*
X21848D01*
X21901Y43823D01*
Y43716D01*
X21848Y43663D01*
X21901Y43983D02*
X21581D01*
Y44143D01*
X21634Y44196D01*
X21688D01*
X21741Y44143D01*
Y43983D01*
Y44143D01*
X21794Y44196D01*
X21848D01*
X21901Y44143D01*
Y43983D01*
X26998Y44861D02*
Y45074D01*
X26945D01*
X26732Y44861D01*
X26679D01*
Y45074D01*
Y45181D02*
Y45287D01*
Y45234D01*
X26998D01*
X26945Y45181D01*
X26998Y45447D02*
X26679D01*
Y45607D01*
X26732Y45660D01*
X26785D01*
X26838Y45607D01*
Y45447D01*
Y45607D01*
X26892Y45660D01*
X26945D01*
X26998Y45607D01*
Y45447D01*
X29111Y44823D02*
Y45036D01*
X29058D01*
X28844Y44823D01*
X28791D01*
Y45036D01*
Y45143D02*
Y45250D01*
Y45196D01*
X29111D01*
X29058Y45143D01*
X28791Y45410D02*
X29004D01*
X29111Y45516D01*
X29004Y45623D01*
X28791D01*
X28951D01*
Y45410D01*
X30018Y44841D02*
Y45054D01*
X29965D01*
X29752Y44841D01*
X29699D01*
Y45054D01*
Y45374D02*
Y45161D01*
X29912Y45374D01*
X29965D01*
X30018Y45320D01*
Y45214D01*
X29965Y45161D01*
X29699Y45480D02*
X29912D01*
X30018Y45587D01*
X29912Y45694D01*
X29699D01*
X29858D01*
Y45480D01*
X28008Y44861D02*
Y45074D01*
X27955D01*
X27742Y44861D01*
X27689D01*
Y45074D01*
Y45394D02*
Y45181D01*
X27902Y45394D01*
X27955D01*
X28008Y45340D01*
Y45234D01*
X27955Y45181D01*
X28008Y45500D02*
X27689D01*
Y45660D01*
X27742Y45714D01*
X27795D01*
X27848Y45660D01*
Y45500D01*
Y45660D01*
X27902Y45714D01*
X27955D01*
X28008Y45660D01*
Y45500D01*
X31901Y43576D02*
Y43363D01*
X31581D01*
Y43576D01*
X31741Y43363D02*
Y43470D01*
X31581Y43896D02*
Y43683D01*
X31794Y43896D01*
X31848D01*
X31901Y43843D01*
Y43736D01*
X31848Y43683D01*
X31901Y44003D02*
X31581D01*
Y44163D01*
X31634Y44216D01*
X31688D01*
X31741Y44163D01*
Y44003D01*
Y44163D01*
X31794Y44216D01*
X31848D01*
X31901Y44163D01*
Y44003D01*
X34698Y42994D02*
Y42781D01*
X34378D01*
Y42994D01*
X34538Y42781D02*
Y42887D01*
X34378Y43314D02*
Y43101D01*
X34592Y43314D01*
X34645D01*
X34698Y43260D01*
Y43154D01*
X34645Y43101D01*
X34378Y43420D02*
X34592D01*
X34698Y43527D01*
X34592Y43634D01*
X34378D01*
X34538D01*
Y43420D01*
X33041Y43616D02*
Y43403D01*
X32721D01*
Y43616D01*
X32881Y43403D02*
Y43510D01*
X32721Y43723D02*
Y43830D01*
Y43776D01*
X33041D01*
X32988Y43723D01*
X32721Y43990D02*
X32934D01*
X33041Y44096D01*
X32934Y44203D01*
X32721D01*
X32881D01*
Y43990D01*
X30891Y43566D02*
Y43353D01*
X30571D01*
Y43566D01*
X30731Y43353D02*
Y43460D01*
X30571Y43673D02*
Y43780D01*
Y43726D01*
X30891D01*
X30838Y43673D01*
X30891Y43940D02*
X30571D01*
Y44100D01*
X30624Y44153D01*
X30678D01*
X30731Y44100D01*
Y43940D01*
Y44100D01*
X30784Y44153D01*
X30838D01*
X30891Y44100D01*
Y43940D01*
X52225Y48361D02*
X52439D01*
Y48201D01*
X52332D01*
X52439D01*
Y48041D01*
X51905Y48307D02*
X51959Y48361D01*
X52065D01*
X52119Y48307D01*
Y48094D01*
X52065Y48041D01*
X51959D01*
X51905Y48094D01*
Y48201D01*
X52012D01*
X51799Y48041D02*
Y48361D01*
X51585Y48041D01*
Y48361D01*
X51479D02*
Y48041D01*
X51319D01*
X51266Y48094D01*
Y48307D01*
X51319Y48361D01*
X51479D01*
X40625Y41474D02*
X40678Y41421D01*
Y41314D01*
X40625Y41261D01*
X40412D01*
X40359Y41314D01*
Y41421D01*
X40412Y41474D01*
X40518D01*
Y41367D01*
X40359Y41581D02*
X40678D01*
X40359Y41794D01*
X40678D01*
Y41900D02*
X40359D01*
Y42060D01*
X40412Y42114D01*
X40625D01*
X40678Y42060D01*
Y41900D01*
X42738Y41811D02*
X43058D01*
Y41971D01*
X43005Y42024D01*
X42898D01*
X42845Y41971D01*
Y41811D01*
X43058Y42131D02*
X42738D01*
X42845Y42237D01*
X42738Y42344D01*
X43058D01*
X42738Y42450D02*
X43058D01*
Y42610D01*
X43005Y42664D01*
X42898D01*
X42845Y42610D01*
Y42450D01*
Y42557D02*
X42738Y42664D01*
X42898Y42770D02*
Y42984D01*
X43058Y43090D02*
Y43197D01*
Y43144D01*
X42738D01*
Y43090D01*
Y43197D01*
Y43357D02*
X43058D01*
X42738Y43570D01*
X43058D01*
X44638Y43026D02*
X44691Y42973D01*
Y42866D01*
X44638Y42813D01*
X44424D01*
X44371Y42866D01*
Y42973D01*
X44424Y43026D01*
X44531D01*
Y42920D01*
X44371Y43133D02*
X44691D01*
X44371Y43346D01*
X44691D01*
Y43453D02*
X44371D01*
Y43613D01*
X44424Y43666D01*
X44638D01*
X44691Y43613D01*
Y43453D01*
X47188Y41871D02*
X46869D01*
Y42031D01*
X46922Y42084D01*
X46975D01*
X47028Y42031D01*
Y41871D01*
Y42031D01*
X47082Y42084D01*
X47135D01*
X47188Y42031D01*
Y41871D01*
Y42404D02*
Y42191D01*
X46869D01*
Y42404D01*
X47028Y42191D02*
Y42297D01*
X47188Y42510D02*
X46869D01*
Y42670D01*
X46922Y42724D01*
X47135D01*
X47188Y42670D01*
Y42510D01*
X47028Y42830D02*
Y43044D01*
X47188Y43150D02*
Y43257D01*
Y43204D01*
X46869D01*
Y43150D01*
Y43257D01*
Y43417D02*
X47188D01*
X46869Y43630D01*
X47188D01*
X43431Y52313D02*
X43324D01*
X43378D01*
Y52633D01*
X43431Y52580D01*
X42951Y52313D02*
X43164D01*
X42951Y52526D01*
Y52580D01*
X43004Y52633D01*
X43111D01*
X43164Y52580D01*
X42845Y52633D02*
Y52420D01*
X42738Y52313D01*
X42631Y52420D01*
Y52633D01*
X42311Y52313D02*
X42525D01*
X42311Y52526D01*
Y52580D01*
X42365Y52633D01*
X42471D01*
X42525Y52580D01*
X40365Y55131D02*
X40578D01*
Y54971D01*
X40472D01*
X40578D01*
Y54811D01*
X40259D02*
Y55024D01*
X40152Y55131D01*
X40045Y55024D01*
Y54811D01*
Y54971D01*
X40259D01*
X39939Y54811D02*
Y55131D01*
X39725Y54811D01*
Y55131D01*
X39619Y55077D02*
X39565Y55131D01*
X39459D01*
X39406Y55077D01*
Y54864D01*
X39459Y54811D01*
X39565D01*
X39619Y54864D01*
Y55077D01*
X39508Y57603D02*
X39721D01*
Y57443D01*
X39614D01*
X39721D01*
Y57283D01*
X39401D02*
Y57496D01*
X39295Y57603D01*
X39188Y57496D01*
Y57283D01*
Y57443D01*
X39401D01*
X39081Y57283D02*
Y57603D01*
X38868Y57283D01*
Y57603D01*
X38761Y57283D02*
X38655D01*
X38708D01*
Y57603D01*
X38761Y57550D01*
X33431Y56263D02*
X33218D01*
X33324D01*
Y55943D01*
X33111Y56263D02*
Y55943D01*
Y56103D01*
X32898D01*
Y56263D01*
Y55943D01*
X32578Y56263D02*
X32791D01*
Y55943D01*
X32578D01*
X32791Y56103D02*
X32685D01*
X32471Y55943D02*
Y56263D01*
X32311D01*
X32258Y56210D01*
Y56103D01*
X32311Y56050D01*
X32471D01*
X32365D02*
X32258Y55943D01*
X32151D02*
Y56263D01*
X32045Y56156D01*
X31938Y56263D01*
Y55943D01*
X31832Y56263D02*
X31725D01*
X31778D01*
Y55943D01*
X31832D01*
X31725D01*
X31352Y56210D02*
X31405Y56263D01*
X31512D01*
X31565Y56210D01*
Y56156D01*
X31512Y56103D01*
X31405D01*
X31352Y56050D01*
Y55996D01*
X31405Y55943D01*
X31512D01*
X31565Y55996D01*
X31245Y56263D02*
X31032D01*
X31138D01*
Y55943D01*
X30765Y56263D02*
X30872D01*
X30925Y56210D01*
Y55996D01*
X30872Y55943D01*
X30765D01*
X30712Y55996D01*
Y56210D01*
X30765Y56263D01*
X30605Y55943D02*
Y56263D01*
X30445D01*
X30392Y56210D01*
Y56103D01*
X30445Y56050D01*
X30605D01*
X30499D02*
X30392Y55943D01*
X29965Y56210D02*
X29912Y56263D01*
X29806D01*
X29752Y56210D01*
Y55996D01*
X29806Y55943D01*
X29912D01*
X29965Y55996D01*
Y56210D01*
X33661Y53823D02*
X33448D01*
X33554D01*
Y53503D01*
X33341Y53823D02*
Y53503D01*
Y53663D01*
X33128D01*
Y53823D01*
Y53503D01*
X32808Y53823D02*
X33021D01*
Y53503D01*
X32808D01*
X33021Y53663D02*
X32915D01*
X32701Y53503D02*
Y53823D01*
X32541D01*
X32488Y53770D01*
Y53663D01*
X32541Y53610D01*
X32701D01*
X32595D02*
X32488Y53503D01*
X32381D02*
Y53823D01*
X32275Y53716D01*
X32168Y53823D01*
Y53503D01*
X32062Y53823D02*
X31955D01*
X32008D01*
Y53503D01*
X32062D01*
X31955D01*
X31582Y53770D02*
X31635Y53823D01*
X31742D01*
X31795Y53770D01*
Y53716D01*
X31742Y53663D01*
X31635D01*
X31582Y53610D01*
Y53556D01*
X31635Y53503D01*
X31742D01*
X31795Y53556D01*
X31475Y53823D02*
X31262D01*
X31368D01*
Y53503D01*
X30995Y53823D02*
X31102D01*
X31155Y53770D01*
Y53556D01*
X31102Y53503D01*
X30995D01*
X30942Y53556D01*
Y53770D01*
X30995Y53823D01*
X30835Y53503D02*
Y53823D01*
X30675D01*
X30622Y53770D01*
Y53663D01*
X30675Y53610D01*
X30835D01*
X30729D02*
X30622Y53503D01*
X30195D02*
X30089D01*
X30142D01*
Y53823D01*
X30195Y53770D01*
X33611Y51863D02*
X33398D01*
X33504D01*
Y51543D01*
X33291Y51863D02*
Y51543D01*
Y51703D01*
X33078D01*
Y51863D01*
Y51543D01*
X32758Y51863D02*
X32971D01*
Y51543D01*
X32758D01*
X32971Y51703D02*
X32865D01*
X32651Y51543D02*
Y51863D01*
X32491D01*
X32438Y51810D01*
Y51703D01*
X32491Y51650D01*
X32651D01*
X32545D02*
X32438Y51543D01*
X32331D02*
Y51863D01*
X32225Y51756D01*
X32118Y51863D01*
Y51543D01*
X32012Y51863D02*
X31905D01*
X31958D01*
Y51543D01*
X32012D01*
X31905D01*
X31532Y51810D02*
X31585Y51863D01*
X31692D01*
X31745Y51810D01*
Y51756D01*
X31692Y51703D01*
X31585D01*
X31532Y51650D01*
Y51596D01*
X31585Y51543D01*
X31692D01*
X31745Y51596D01*
X31425Y51863D02*
X31212D01*
X31318D01*
Y51543D01*
X30945Y51863D02*
X31052D01*
X31105Y51810D01*
Y51596D01*
X31052Y51543D01*
X30945D01*
X30892Y51596D01*
Y51810D01*
X30945Y51863D01*
X30785Y51543D02*
Y51863D01*
X30625D01*
X30572Y51810D01*
Y51703D01*
X30625Y51650D01*
X30785D01*
X30679D02*
X30572Y51543D01*
X29932D02*
X30145D01*
X29932Y51756D01*
Y51810D01*
X29986Y51863D01*
X30092D01*
X30145Y51810D01*
X22361Y51863D02*
Y52076D01*
Y51970D01*
X22041D01*
X22361Y52183D02*
X22041Y52396D01*
X22361D02*
X22041Y52183D01*
X22308Y52503D02*
X22361Y52556D01*
Y52663D01*
X22308Y52716D01*
X22094D01*
X22041Y52663D01*
Y52556D01*
X22094Y52503D01*
X22308D01*
X21161Y52613D02*
Y52293D01*
X21001D01*
X20948Y52346D01*
Y52560D01*
X21001Y52613D01*
X21161D01*
X20841D02*
X20628D01*
X20735D01*
Y52293D01*
X20521D02*
Y52613D01*
X20361D01*
X20308Y52560D01*
Y52453D01*
X20361Y52400D01*
X20521D01*
X20415D02*
X20308Y52293D01*
X21721Y56343D02*
X21508D01*
X21614D01*
Y56023D01*
X21401Y56343D02*
X21188Y56023D01*
Y56343D02*
X21401Y56023D01*
X21081Y56290D02*
X21028Y56343D01*
X20921D01*
X20868Y56290D01*
Y56076D01*
X20921Y56023D01*
X21028D01*
X21081Y56076D01*
Y56290D01*
X20761Y56183D02*
X20548D01*
X20441Y56343D02*
X20335D01*
X20388D01*
Y56023D01*
X20441D01*
X20335D01*
X18371Y56213D02*
X18691D01*
X18584Y56320D01*
X18691Y56426D01*
X18371D01*
X18691Y56693D02*
Y56586D01*
X18638Y56533D01*
X18424D01*
X18371Y56586D01*
Y56693D01*
X18424Y56746D01*
X18638D01*
X18691Y56693D01*
X18638Y57066D02*
X18691Y57013D01*
Y56906D01*
X18638Y56853D01*
X18584D01*
X18531Y56906D01*
Y57013D01*
X18478Y57066D01*
X18424D01*
X18371Y57013D01*
Y56906D01*
X18424Y56853D01*
X18691Y57173D02*
Y57279D01*
Y57226D01*
X18371D01*
Y57173D01*
Y57279D01*
Y57653D02*
Y57439D01*
X18584Y57653D01*
X18638D01*
X18691Y57599D01*
Y57493D01*
X18638Y57439D01*
X18328Y58170D02*
X18381Y58223D01*
X18488D01*
X18541Y58170D01*
Y58116D01*
X18488Y58063D01*
X18381D01*
X18328Y58010D01*
Y57956D01*
X18381Y57903D01*
X18488D01*
X18541Y57956D01*
X18008Y58170D02*
X18061Y58223D01*
X18168D01*
X18221Y58170D01*
Y57956D01*
X18168Y57903D01*
X18061D01*
X18008Y57956D01*
X17901Y58223D02*
Y57903D01*
Y58010D01*
X17688Y58223D01*
X17848Y58063D01*
X17688Y57903D01*
X17368D02*
X17581D01*
X17368Y58116D01*
Y58170D01*
X17421Y58223D01*
X17528D01*
X17581Y58170D01*
X16941Y57813D02*
Y58133D01*
X16834Y58026D01*
X16728Y58133D01*
Y57813D01*
X16621Y58133D02*
X16514D01*
X16568D01*
Y57813D01*
X16621D01*
X16514D01*
X16141Y58080D02*
X16195Y58133D01*
X16301D01*
X16355Y58080D01*
Y58026D01*
X16301Y57973D01*
X16195D01*
X16141Y57920D01*
Y57866D01*
X16195Y57813D01*
X16301D01*
X16355Y57866D01*
X15875Y58133D02*
X15981D01*
X16035Y58080D01*
Y57866D01*
X15981Y57813D01*
X15875D01*
X15821Y57866D01*
Y58080D01*
X15875Y58133D01*
X15501Y57813D02*
X15715D01*
X15501Y58026D01*
Y58080D01*
X15555Y58133D01*
X15661D01*
X15715Y58080D01*
X18931Y62363D02*
X18611Y62576D01*
X18931D02*
X18611Y62363D01*
Y62683D02*
X18931D01*
X18824Y62790D01*
X18931Y62896D01*
X18611D01*
X18931Y63003D02*
Y63110D01*
Y63056D01*
X18611D01*
Y63003D01*
Y63110D01*
Y63270D02*
X18931D01*
X18611Y63483D01*
X18931D01*
X23501Y64363D02*
Y64310D01*
X23394Y64203D01*
X23288Y64310D01*
Y64363D01*
X23394Y64203D02*
Y64043D01*
X23181D02*
Y64363D01*
X23075Y64256D01*
X22968Y64363D01*
Y64043D01*
X22861Y64363D02*
X22755D01*
X22808D01*
Y64043D01*
X22861D01*
X22755D01*
X22595D02*
Y64363D01*
X22381Y64043D01*
Y64363D01*
X28551Y66913D02*
X28338D01*
Y66860D01*
X28551Y66646D01*
Y66593D01*
X28338D01*
X28231D02*
Y66913D01*
X28124Y66806D01*
X28018Y66913D01*
Y66593D01*
X27911Y66913D02*
X27805D01*
X27858D01*
Y66593D01*
X27911D01*
X27805D01*
X27645D02*
Y66913D01*
X27431Y66593D01*
Y66913D01*
X22311Y59373D02*
X22631D01*
X22524Y59480D01*
X22631Y59586D01*
X22311D01*
X22631Y59693D02*
Y59800D01*
Y59746D01*
X22311D01*
Y59693D01*
Y59800D01*
X22578Y60173D02*
X22631Y60120D01*
Y60013D01*
X22578Y59960D01*
X22524D01*
X22471Y60013D01*
Y60120D01*
X22418Y60173D01*
X22364D01*
X22311Y60120D01*
Y60013D01*
X22364Y59960D01*
X22631Y60439D02*
Y60333D01*
X22578Y60280D01*
X22364D01*
X22311Y60333D01*
Y60439D01*
X22364Y60493D01*
X22578D01*
X22631Y60439D01*
X27128Y60120D02*
X27181Y60173D01*
X27288D01*
X27341Y60120D01*
Y60066D01*
X27288Y60013D01*
X27181D01*
X27128Y59960D01*
Y59906D01*
X27181Y59853D01*
X27288D01*
X27341Y59906D01*
X26808Y60120D02*
X26861Y60173D01*
X26968D01*
X27021Y60120D01*
Y59906D01*
X26968Y59853D01*
X26861D01*
X26808Y59906D01*
X26701Y60173D02*
Y59853D01*
Y59960D01*
X26488Y60173D01*
X26648Y60013D01*
X26488Y59853D01*
X30521Y59823D02*
Y60143D01*
X30414Y60036D01*
X30308Y60143D01*
Y59823D01*
X30041Y60143D02*
X30148D01*
X30201Y60090D01*
Y59876D01*
X30148Y59823D01*
X30041D01*
X29988Y59876D01*
Y60090D01*
X30041Y60143D01*
X29668Y60090D02*
X29721Y60143D01*
X29828D01*
X29881Y60090D01*
Y60036D01*
X29828Y59983D01*
X29721D01*
X29668Y59930D01*
Y59876D01*
X29721Y59823D01*
X29828D01*
X29881Y59876D01*
X29561Y60143D02*
X29455D01*
X29508D01*
Y59823D01*
X29561D01*
X29455D01*
X35298Y62173D02*
X35511D01*
Y62013D01*
X35404Y62066D01*
X35351D01*
X35298Y62013D01*
Y61906D01*
X35351Y61853D01*
X35458D01*
X35511Y61906D01*
X35191Y62173D02*
Y61960D01*
X35085Y61853D01*
X34978Y61960D01*
Y62173D01*
X15621Y57063D02*
Y56743D01*
X15461D01*
X15408Y56796D01*
Y57010D01*
X15461Y57063D01*
X15621D01*
X15301Y56903D02*
X15088D01*
X15194Y57010D02*
Y56796D01*
X18321Y55253D02*
Y54933D01*
X18161D01*
X18108Y54986D01*
Y55200D01*
X18161Y55253D01*
X18321D01*
X18001Y55093D02*
X17788D01*
X14378Y54660D02*
X14431Y54713D01*
X14538D01*
X14591Y54660D01*
Y54446D01*
X14538Y54393D01*
X14431D01*
X14378Y54446D01*
Y54553D01*
X14484D01*
X14271Y54393D02*
Y54713D01*
X14058Y54393D01*
Y54713D01*
X13951D02*
Y54393D01*
X13791D01*
X13738Y54446D01*
Y54660D01*
X13791Y54713D01*
X13951D01*
X13631Y54393D02*
X13525D01*
X13578D01*
Y54713D01*
X13631Y54660D01*
X16001Y51733D02*
X15734D01*
X15681Y51786D01*
Y51893D01*
X15734Y51946D01*
X16001D01*
X15948Y52266D02*
X16001Y52213D01*
Y52106D01*
X15948Y52053D01*
X15894D01*
X15841Y52106D01*
Y52213D01*
X15788Y52266D01*
X15734D01*
X15681Y52213D01*
Y52106D01*
X15734Y52053D01*
X16001Y52373D02*
X15681D01*
Y52533D01*
X15734Y52586D01*
X15788D01*
X15841Y52533D01*
Y52373D01*
Y52533D01*
X15894Y52586D01*
X15948D01*
X16001Y52533D01*
Y52373D01*
Y52693D02*
X15788D01*
X15681Y52799D01*
X15788Y52906D01*
X16001D01*
X15948Y53226D02*
X16001Y53173D01*
Y53066D01*
X15948Y53013D01*
X15734D01*
X15681Y53066D01*
Y53173D01*
X15734Y53226D01*
X15948Y53546D02*
X16001Y53493D01*
Y53386D01*
X15948Y53333D01*
X15734D01*
X15681Y53386D01*
Y53493D01*
X15734Y53546D01*
X51498Y57101D02*
Y56781D01*
X51339D01*
X51285Y56834D01*
Y56887D01*
X51339Y56941D01*
X51498D01*
X51339D01*
X51285Y56994D01*
Y57047D01*
X51339Y57101D01*
X51498D01*
X50965D02*
X51179D01*
Y56781D01*
X50965D01*
X51179Y56941D02*
X51072D01*
X50859Y57101D02*
Y56781D01*
X50699D01*
X50645Y56834D01*
Y57047D01*
X50699Y57101D01*
X50859D01*
X50539Y56941D02*
X50326D01*
X50432Y57047D02*
Y56834D01*
X51508Y59111D02*
Y58791D01*
X51349D01*
X51295Y58844D01*
Y58897D01*
X51349Y58951D01*
X51508D01*
X51349D01*
X51295Y59004D01*
Y59057D01*
X51349Y59111D01*
X51508D01*
X50975D02*
X51189D01*
Y58791D01*
X50975D01*
X51189Y58951D02*
X51082D01*
X50869Y59111D02*
Y58791D01*
X50709D01*
X50655Y58844D01*
Y59057D01*
X50709Y59111D01*
X50869D01*
X50549Y58951D02*
X50336D01*
X51355Y61131D02*
X51568D01*
Y60811D01*
X51355D01*
X51568Y60971D02*
X51462D01*
X51249Y61131D02*
X51035Y60811D01*
Y61131D02*
X51249Y60811D01*
X50929Y61131D02*
X50715D01*
X50822D01*
Y60811D01*
X50609Y60971D02*
X50396D01*
X50502Y61077D02*
Y60864D01*
X51385Y63131D02*
X51599D01*
Y62811D01*
X51385D01*
X51599Y62971D02*
X51492D01*
X51279Y63131D02*
X51065Y62811D01*
Y63131D02*
X51279Y62811D01*
X50959Y63131D02*
X50745D01*
X50852D01*
Y62811D01*
X50639Y62971D02*
X50426D01*
X17951Y43313D02*
X17631Y43526D01*
X17951D02*
X17631Y43313D01*
Y43846D02*
Y43633D01*
X17844Y43846D01*
X17898D01*
X17951Y43793D01*
Y43686D01*
X17898Y43633D01*
X17631Y43953D02*
X17844D01*
X17951Y44060D01*
X17844Y44166D01*
X17631D01*
X17791D01*
Y43953D01*
X16421Y43363D02*
X16101Y43576D01*
X16421D02*
X16101Y43363D01*
Y43683D02*
Y43790D01*
Y43736D01*
X16421D01*
X16368Y43683D01*
X16101Y43950D02*
X16314D01*
X16421Y44056D01*
X16314Y44163D01*
X16101D01*
X16261D01*
Y43950D01*
X13191Y44453D02*
X12871Y44666D01*
X13191D02*
X12871Y44453D01*
Y44773D02*
Y44880D01*
Y44826D01*
X13191D01*
X13138Y44773D01*
X13191Y45040D02*
X12871D01*
Y45200D01*
X12924Y45253D01*
X12978D01*
X13031Y45200D01*
Y45040D01*
Y45200D01*
X13084Y45253D01*
X13138D01*
X13191Y45200D01*
Y45040D01*
X51329Y77293D02*
X51258Y77263D01*
X51228Y77193D01*
X52529D02*
X52499Y77263D01*
X52428Y77293D01*
Y76493D02*
X52499Y76522D01*
X52529Y76593D01*
X51228D02*
X51258Y76522D01*
X51329Y76493D01*
X20200Y85897D02*
X20230Y85826D01*
X20300Y85797D01*
Y87097D02*
X20230Y87068D01*
X20200Y86997D01*
X21000D02*
X20971Y87068D01*
X20900Y87097D01*
Y85797D02*
X20971Y85826D01*
X21000Y85897D01*
X51329Y76493D02*
X52428D01*
X51228Y76593D02*
Y77193D01*
X52529Y76593D02*
Y77193D01*
X51329Y77293D02*
X52428D01*
X21000Y85897D02*
Y86997D01*
X20300Y85797D02*
X20900D01*
X20300Y87097D02*
X20900D01*
X20200Y85897D02*
Y86997D01*
X43601Y80115D02*
X43368D01*
X43484D01*
Y79765D01*
X43251D02*
Y80115D01*
X43076D01*
X43018Y80057D01*
Y79940D01*
X43076Y79882D01*
X43251D01*
X42901Y80057D02*
X42843Y80115D01*
X42726D01*
X42668Y80057D01*
Y79999D01*
X42726Y79940D01*
X42785D01*
X42726D01*
X42668Y79882D01*
Y79824D01*
X42726Y79765D01*
X42843D01*
X42901Y79824D01*
X42551Y80057D02*
X42493Y80115D01*
X42376D01*
X42318Y80057D01*
Y79999D01*
X42376Y79940D01*
X42435D01*
X42376D01*
X42318Y79882D01*
Y79824D01*
X42376Y79765D01*
X42493D01*
X42551Y79824D01*
X40751Y83645D02*
X40518D01*
X40634D01*
Y83295D01*
X40401D02*
Y83645D01*
X40226D01*
X40168Y83587D01*
Y83470D01*
X40226Y83412D01*
X40401D01*
X39818Y83295D02*
X40051D01*
X39818Y83529D01*
Y83587D01*
X39876Y83645D01*
X39993D01*
X40051Y83587D01*
X39701D02*
X39643Y83645D01*
X39526D01*
X39468Y83587D01*
Y83529D01*
X39526Y83470D01*
X39585D01*
X39526D01*
X39468Y83412D01*
Y83354D01*
X39526Y83295D01*
X39643D01*
X39701Y83354D01*
X40141Y86085D02*
X39908D01*
X40024D01*
Y85735D01*
X39791D02*
Y86085D01*
X39616D01*
X39558Y86027D01*
Y85910D01*
X39616Y85852D01*
X39791D01*
X39208Y85735D02*
X39441D01*
X39208Y85969D01*
Y86027D01*
X39266Y86085D01*
X39383D01*
X39441Y86027D01*
X38858Y85735D02*
X39091D01*
X38858Y85969D01*
Y86027D01*
X38916Y86085D01*
X39033D01*
X39091Y86027D01*
X31081Y69385D02*
Y69619D01*
Y69502D01*
X30731D01*
Y69735D02*
X31081D01*
Y69910D01*
X31023Y69968D01*
X30906D01*
X30848Y69910D01*
Y69735D01*
X31081Y70318D02*
Y70085D01*
X30906D01*
X30964Y70202D01*
Y70260D01*
X30906Y70318D01*
X30789D01*
X30731Y70260D01*
Y70143D01*
X30789Y70085D01*
X30731Y70668D02*
Y70435D01*
X30964Y70668D01*
X31023D01*
X31081Y70610D01*
Y70493D01*
X31023Y70435D01*
X33521Y71285D02*
Y71519D01*
Y71402D01*
X33171D01*
Y71635D02*
X33521D01*
Y71810D01*
X33463Y71868D01*
X33346D01*
X33288Y71810D01*
Y71635D01*
X33171Y71985D02*
Y72102D01*
Y72043D01*
X33521D01*
X33463Y71985D01*
X33229Y72277D02*
X33171Y72335D01*
Y72452D01*
X33229Y72510D01*
X33463D01*
X33521Y72452D01*
Y72335D01*
X33463Y72277D01*
X33404D01*
X33346Y72335D01*
Y72510D01*
X32511Y71265D02*
Y71499D01*
Y71382D01*
X32161D01*
Y71615D02*
X32511D01*
Y71790D01*
X32453Y71848D01*
X32336D01*
X32278Y71790D01*
Y71615D01*
X32161Y71965D02*
Y72082D01*
Y72023D01*
X32511D01*
X32453Y71965D01*
Y72257D02*
X32511Y72315D01*
Y72432D01*
X32453Y72490D01*
X32219D01*
X32161Y72432D01*
Y72315D01*
X32219Y72257D01*
X32453D01*
X35161Y70715D02*
Y70949D01*
Y70832D01*
X34811D01*
Y71065D02*
X35161D01*
Y71240D01*
X35103Y71298D01*
X34986D01*
X34928Y71240D01*
Y71065D01*
X34869Y71415D02*
X34811Y71473D01*
Y71590D01*
X34869Y71648D01*
X35103D01*
X35161Y71590D01*
Y71473D01*
X35103Y71415D01*
X35044D01*
X34986Y71473D01*
Y71648D01*
X26791Y70685D02*
X26558D01*
X26674D01*
Y70335D01*
X26441D02*
Y70685D01*
X26266D01*
X26208Y70627D01*
Y70510D01*
X26266Y70452D01*
X26441D01*
X25858Y70685D02*
X26091D01*
Y70510D01*
X25975Y70569D01*
X25916D01*
X25858Y70510D01*
Y70394D01*
X25916Y70335D01*
X26033D01*
X26091Y70394D01*
X25741Y70335D02*
X25625D01*
X25683D01*
Y70685D01*
X25741Y70627D01*
X29306Y70328D02*
X29104Y70445D01*
X29205Y70387D01*
X29030Y70084D01*
X28828Y70200D02*
X29003Y70503D01*
X28851Y70591D01*
X28772Y70569D01*
X28713Y70468D01*
X28735Y70389D01*
X28886Y70301D01*
X28700Y70678D02*
X28498Y70795D01*
X28469Y70744D01*
X28554Y70426D01*
X28525Y70375D01*
X28386Y70288D02*
X28184Y70405D01*
X28285Y70347D01*
X28110Y70044D01*
X27908Y70160D02*
X28083Y70463D01*
X27931Y70551D01*
X27852Y70529D01*
X27793Y70428D01*
X27815Y70349D01*
X27966Y70261D01*
X27578Y70755D02*
X27650Y70646D01*
X27692Y70487D01*
X27634Y70386D01*
X27555Y70364D01*
X27453Y70423D01*
X27432Y70502D01*
X27461Y70553D01*
X27541Y70574D01*
X27692Y70487D01*
X30326Y70328D02*
X30124Y70445D01*
X30225Y70387D01*
X30050Y70084D01*
X29848Y70200D02*
X30023Y70503D01*
X29871Y70591D01*
X29792Y70569D01*
X29733Y70468D01*
X29755Y70389D01*
X29906Y70301D01*
X29518Y70795D02*
X29720Y70678D01*
X29632Y70527D01*
X29561Y70635D01*
X29510Y70665D01*
X29430Y70643D01*
X29372Y70542D01*
X29393Y70463D01*
X29495Y70404D01*
X29574Y70426D01*
X19721Y70645D02*
Y70879D01*
Y70762D01*
X19371D01*
Y70995D02*
X19721D01*
Y71170D01*
X19663Y71228D01*
X19546D01*
X19488Y71170D01*
Y70995D01*
X19721Y71578D02*
Y71345D01*
X19546D01*
X19604Y71462D01*
Y71520D01*
X19546Y71578D01*
X19429D01*
X19371Y71520D01*
Y71403D01*
X19429Y71345D01*
X19663Y71695D02*
X19721Y71753D01*
Y71870D01*
X19663Y71928D01*
X19604D01*
X19546Y71870D01*
Y71812D01*
Y71870D01*
X19488Y71928D01*
X19429D01*
X19371Y71870D01*
Y71753D01*
X19429Y71695D01*
X23511Y71295D02*
Y71529D01*
Y71412D01*
X23161D01*
Y71645D02*
X23511D01*
Y71820D01*
X23453Y71878D01*
X23336D01*
X23278Y71820D01*
Y71645D01*
X23511Y72228D02*
Y71995D01*
X23336D01*
X23394Y72112D01*
Y72170D01*
X23336Y72228D01*
X23219D01*
X23161Y72170D01*
Y72053D01*
X23219Y71995D01*
X23453Y72345D02*
X23511Y72403D01*
Y72520D01*
X23453Y72578D01*
X23219D01*
X23161Y72520D01*
Y72403D01*
X23219Y72345D01*
X23453D01*
X22361Y71255D02*
Y71489D01*
Y71372D01*
X22011D01*
Y71605D02*
X22361D01*
Y71780D01*
X22303Y71838D01*
X22186D01*
X22128Y71780D01*
Y71605D01*
X22011Y72130D02*
X22361D01*
X22186Y71955D01*
Y72188D01*
X25141Y70645D02*
Y70879D01*
Y70762D01*
X24791D01*
Y70995D02*
X25141D01*
Y71170D01*
X25083Y71228D01*
X24966D01*
X24908Y71170D01*
Y70995D01*
X24791Y71578D02*
Y71345D01*
X25024Y71578D01*
X25083D01*
X25141Y71520D01*
Y71403D01*
X25083Y71345D01*
X13661Y71795D02*
Y72029D01*
Y71912D01*
X13311D01*
Y72145D02*
X13661D01*
Y72320D01*
X13603Y72378D01*
X13486D01*
X13428Y72320D01*
Y72145D01*
X13311Y72495D02*
Y72612D01*
Y72553D01*
X13661D01*
X13603Y72495D01*
X41141Y69225D02*
Y69459D01*
Y69342D01*
X40791D01*
Y69575D02*
X41141D01*
Y69750D01*
X41083Y69808D01*
X40966D01*
X40908Y69750D01*
Y69575D01*
X41141Y70158D02*
X41083Y70042D01*
X40966Y69925D01*
X40849D01*
X40791Y69983D01*
Y70100D01*
X40849Y70158D01*
X40908D01*
X40966Y70100D01*
Y69925D01*
X40849Y70275D02*
X40791Y70333D01*
Y70450D01*
X40849Y70508D01*
X41083D01*
X41141Y70450D01*
Y70333D01*
X41083Y70275D01*
X41024D01*
X40966Y70333D01*
Y70508D01*
X47651Y69705D02*
Y69939D01*
Y69822D01*
X47301D01*
Y70055D02*
X47651D01*
Y70230D01*
X47593Y70288D01*
X47476D01*
X47418Y70230D01*
Y70055D01*
X47651Y70638D02*
X47593Y70522D01*
X47476Y70405D01*
X47359D01*
X47301Y70463D01*
Y70580D01*
X47359Y70638D01*
X47418D01*
X47476Y70580D01*
Y70405D01*
X47593Y70755D02*
X47651Y70813D01*
Y70930D01*
X47593Y70988D01*
X47534D01*
X47476Y70930D01*
X47418Y70988D01*
X47359D01*
X47301Y70930D01*
Y70813D01*
X47359Y70755D01*
X47418D01*
X47476Y70813D01*
X47534Y70755D01*
X47593D01*
X47476Y70813D02*
Y70930D01*
X45191Y70395D02*
Y70629D01*
Y70512D01*
X44841D01*
Y70745D02*
X45191D01*
Y70920D01*
X45133Y70978D01*
X45016D01*
X44958Y70920D01*
Y70745D01*
X45191Y71328D02*
X45133Y71212D01*
X45016Y71095D01*
X44899D01*
X44841Y71153D01*
Y71270D01*
X44899Y71328D01*
X44958D01*
X45016Y71270D01*
Y71095D01*
X45191Y71445D02*
Y71678D01*
X45133D01*
X44899Y71445D01*
X44841D01*
X43561Y70305D02*
Y70539D01*
Y70422D01*
X43211D01*
Y70655D02*
X43561D01*
Y70830D01*
X43503Y70888D01*
X43386D01*
X43328Y70830D01*
Y70655D01*
X43561Y71238D02*
X43503Y71122D01*
X43386Y71005D01*
X43269D01*
X43211Y71063D01*
Y71180D01*
X43269Y71238D01*
X43328D01*
X43386Y71180D01*
Y71005D01*
X43561Y71588D02*
X43503Y71472D01*
X43386Y71355D01*
X43269D01*
X43211Y71413D01*
Y71530D01*
X43269Y71588D01*
X43328D01*
X43386Y71530D01*
Y71355D01*
X28591Y95405D02*
X28358D01*
X28474D01*
Y95055D01*
X28241D02*
Y95405D01*
X28066D01*
X28008Y95347D01*
Y95230D01*
X28066Y95172D01*
X28241D01*
X27716Y95055D02*
Y95405D01*
X27891Y95230D01*
X27658D01*
X27541Y95347D02*
X27483Y95405D01*
X27366D01*
X27308Y95347D01*
Y95289D01*
X27366Y95230D01*
X27308Y95172D01*
Y95114D01*
X27366Y95055D01*
X27483D01*
X27541Y95114D01*
Y95172D01*
X27483Y95230D01*
X27541Y95289D01*
Y95347D01*
X27483Y95230D02*
X27366D01*
X14591Y83175D02*
X14358D01*
X14474D01*
Y82825D01*
X14241D02*
Y83175D01*
X14066D01*
X14008Y83117D01*
Y83000D01*
X14066Y82942D01*
X14241D01*
X13716Y82825D02*
Y83175D01*
X13891Y83000D01*
X13658D01*
X13541Y83175D02*
X13308D01*
Y83117D01*
X13541Y82884D01*
Y82825D01*
X16521Y80205D02*
Y80439D01*
Y80322D01*
X16171D01*
Y80555D02*
X16521D01*
Y80730D01*
X16463Y80788D01*
X16346D01*
X16288Y80730D01*
Y80555D01*
X16171Y81080D02*
X16521D01*
X16346Y80905D01*
Y81138D01*
X16521Y81488D02*
X16463Y81372D01*
X16346Y81255D01*
X16229D01*
X16171Y81313D01*
Y81430D01*
X16229Y81488D01*
X16288D01*
X16346Y81430D01*
Y81255D01*
X18651Y86625D02*
X18418D01*
X18534D01*
Y86275D01*
X18301D02*
Y86625D01*
X18126D01*
X18068Y86567D01*
Y86450D01*
X18126Y86392D01*
X18301D01*
X17776Y86275D02*
Y86625D01*
X17951Y86450D01*
X17718D01*
X17368Y86625D02*
X17601D01*
Y86450D01*
X17485Y86509D01*
X17426D01*
X17368Y86450D01*
Y86334D01*
X17426Y86275D01*
X17543D01*
X17601Y86334D01*
X16231Y88245D02*
Y88479D01*
Y88362D01*
X15881D01*
Y88595D02*
X16231D01*
Y88770D01*
X16173Y88828D01*
X16056D01*
X15998Y88770D01*
Y88595D01*
X15881Y89120D02*
X16231D01*
X16056Y88945D01*
Y89178D01*
X15881Y89470D02*
X16231D01*
X16056Y89295D01*
Y89528D01*
X17001Y86545D02*
X16768D01*
X16884D01*
Y86195D01*
X16651D02*
Y86545D01*
X16476D01*
X16418Y86487D01*
Y86370D01*
X16476Y86312D01*
X16651D01*
X16126Y86195D02*
Y86545D01*
X16301Y86370D01*
X16068D01*
X15951Y86487D02*
X15893Y86545D01*
X15776D01*
X15718Y86487D01*
Y86429D01*
X15776Y86370D01*
X15835D01*
X15776D01*
X15718Y86312D01*
Y86254D01*
X15776Y86195D01*
X15893D01*
X15951Y86254D01*
X19151Y84315D02*
Y84549D01*
Y84432D01*
X18801D01*
Y84665D02*
X19151D01*
Y84840D01*
X19093Y84898D01*
X18976D01*
X18918Y84840D01*
Y84665D01*
X18801Y85190D02*
X19151D01*
X18976Y85015D01*
Y85248D01*
X18801Y85598D02*
Y85365D01*
X19034Y85598D01*
X19093D01*
X19151Y85540D01*
Y85423D01*
X19093Y85365D01*
X23561Y92805D02*
X23328D01*
X23444D01*
Y92455D01*
X23211D02*
Y92805D01*
X23036D01*
X22978Y92747D01*
Y92630D01*
X23036Y92572D01*
X23211D01*
X22686Y92455D02*
Y92805D01*
X22861Y92630D01*
X22628D01*
X22511Y92747D02*
X22453Y92805D01*
X22336D01*
X22278Y92747D01*
Y92514D01*
X22336Y92455D01*
X22453D01*
X22511Y92514D01*
Y92747D01*
X19411Y90245D02*
Y90479D01*
Y90362D01*
X19061D01*
Y90595D02*
X19411D01*
Y90770D01*
X19353Y90828D01*
X19236D01*
X19178Y90770D01*
Y90595D01*
X19353Y90945D02*
X19411Y91003D01*
Y91120D01*
X19353Y91178D01*
X19294D01*
X19236Y91120D01*
Y91062D01*
Y91120D01*
X19178Y91178D01*
X19119D01*
X19061Y91120D01*
Y91003D01*
X19119Y90945D01*
X19353Y91295D02*
X19411Y91353D01*
Y91470D01*
X19353Y91528D01*
X19294D01*
X19236Y91470D01*
X19178Y91528D01*
X19119D01*
X19061Y91470D01*
Y91353D01*
X19119Y91295D01*
X19178D01*
X19236Y91353D01*
X19294Y91295D01*
X19353D01*
X19236Y91353D02*
Y91470D01*
X25411Y85335D02*
Y85569D01*
Y85452D01*
X25061D01*
Y85685D02*
X25411D01*
Y85860D01*
X25353Y85918D01*
X25236D01*
X25178Y85860D01*
Y85685D01*
X25353Y86035D02*
X25411Y86093D01*
Y86210D01*
X25353Y86268D01*
X25294D01*
X25236Y86210D01*
Y86152D01*
Y86210D01*
X25178Y86268D01*
X25119D01*
X25061Y86210D01*
Y86093D01*
X25119Y86035D01*
X25411Y86385D02*
Y86618D01*
X25353D01*
X25119Y86385D01*
X25061D01*
X30571Y88625D02*
X30338D01*
X30454D01*
Y88275D01*
X30221D02*
Y88625D01*
X30046D01*
X29988Y88567D01*
Y88450D01*
X30046Y88392D01*
X30221D01*
X29871Y88567D02*
X29813Y88625D01*
X29696D01*
X29638Y88567D01*
Y88509D01*
X29696Y88450D01*
X29755D01*
X29696D01*
X29638Y88392D01*
Y88334D01*
X29696Y88275D01*
X29813D01*
X29871Y88334D01*
X29288Y88625D02*
X29405Y88567D01*
X29521Y88450D01*
Y88334D01*
X29463Y88275D01*
X29346D01*
X29288Y88334D01*
Y88392D01*
X29346Y88450D01*
X29521D01*
X23101Y87285D02*
Y87519D01*
Y87402D01*
X22751D01*
Y87635D02*
X23101D01*
Y87810D01*
X23043Y87868D01*
X22926D01*
X22868Y87810D01*
Y87635D01*
X23043Y87985D02*
X23101Y88043D01*
Y88160D01*
X23043Y88218D01*
X22984D01*
X22926Y88160D01*
Y88102D01*
Y88160D01*
X22868Y88218D01*
X22809D01*
X22751Y88160D01*
Y88043D01*
X22809Y87985D01*
X22751Y88510D02*
X23101D01*
X22926Y88335D01*
Y88568D01*
X33621Y80385D02*
X33388D01*
X33504D01*
Y80035D01*
X33271D02*
Y80385D01*
X33096D01*
X33038Y80327D01*
Y80210D01*
X33096Y80152D01*
X33271D01*
X32921Y80035D02*
X32805D01*
X32863D01*
Y80385D01*
X32921Y80327D01*
X32396Y80385D02*
X32630D01*
Y80210D01*
X32513Y80269D01*
X32455D01*
X32396Y80210D01*
Y80094D01*
X32455Y80035D01*
X32571D01*
X32630Y80094D01*
X35161Y84625D02*
X34928D01*
X35044D01*
Y84275D01*
X34811D02*
Y84625D01*
X34636D01*
X34578Y84567D01*
Y84450D01*
X34636Y84392D01*
X34811D01*
X34228Y84275D02*
X34461D01*
X34228Y84509D01*
Y84567D01*
X34286Y84625D01*
X34403D01*
X34461Y84567D01*
X34111D02*
X34053Y84625D01*
X33936D01*
X33878Y84567D01*
Y84334D01*
X33936Y84275D01*
X34053D01*
X34111Y84334D01*
Y84567D01*
X33751Y82605D02*
X33518D01*
X33634D01*
Y82255D01*
X33401D02*
Y82605D01*
X33226D01*
X33168Y82547D01*
Y82430D01*
X33226Y82372D01*
X33401D01*
X32818Y82255D02*
X33051D01*
X32818Y82489D01*
Y82547D01*
X32876Y82605D01*
X32993D01*
X33051Y82547D01*
X32701Y82255D02*
X32585D01*
X32643D01*
Y82605D01*
X32701Y82547D01*
X43281Y81155D02*
X43048D01*
X43164D01*
Y80805D01*
X42931D02*
Y81155D01*
X42756D01*
X42698Y81097D01*
Y80980D01*
X42756Y80922D01*
X42931D01*
X42581Y81097D02*
X42523Y81155D01*
X42406D01*
X42348Y81097D01*
Y81039D01*
X42406Y80980D01*
X42465D01*
X42406D01*
X42348Y80922D01*
Y80864D01*
X42406Y80805D01*
X42523D01*
X42581Y80864D01*
X51631Y85595D02*
X51398D01*
X51514D01*
Y85245D01*
X51281D02*
Y85595D01*
X51106D01*
X51048Y85537D01*
Y85420D01*
X51106Y85362D01*
X51281D01*
X50931Y85245D02*
X50815D01*
X50873D01*
Y85595D01*
X50931Y85537D01*
X50406Y85595D02*
X50523Y85537D01*
X50640Y85420D01*
Y85304D01*
X50581Y85245D01*
X50465D01*
X50406Y85304D01*
Y85362D01*
X50465Y85420D01*
X50640D01*
X39661Y76665D02*
X39428D01*
X39544D01*
Y76315D01*
X39311D02*
Y76665D01*
X39136D01*
X39078Y76607D01*
Y76490D01*
X39136Y76432D01*
X39311D01*
X38961Y76315D02*
X38845D01*
X38903D01*
Y76665D01*
X38961Y76607D01*
X38670Y76665D02*
X38436D01*
Y76607D01*
X38670Y76374D01*
Y76315D01*
X51711Y87615D02*
X51478D01*
X51594D01*
Y87265D01*
X51361D02*
Y87615D01*
X51186D01*
X51128Y87557D01*
Y87440D01*
X51186Y87382D01*
X51361D01*
X51011Y87265D02*
X50895D01*
X50953D01*
Y87615D01*
X51011Y87557D01*
X50720D02*
X50661Y87615D01*
X50545D01*
X50486Y87557D01*
Y87499D01*
X50545Y87440D01*
X50486Y87382D01*
Y87324D01*
X50545Y87265D01*
X50661D01*
X50720Y87324D01*
Y87382D01*
X50661Y87440D01*
X50720Y87499D01*
Y87557D01*
X50661Y87440D02*
X50545D01*
X21631Y81075D02*
X21398D01*
X21514D01*
Y80725D01*
X21281D02*
Y81075D01*
X21106D01*
X21048Y81017D01*
Y80900D01*
X21106Y80842D01*
X21281D01*
X20698Y80725D02*
X20931D01*
X20698Y80959D01*
Y81017D01*
X20756Y81075D01*
X20873D01*
X20931Y81017D01*
X20406Y80725D02*
Y81075D01*
X20581Y80900D01*
X20348D01*
X21641Y83435D02*
X21408D01*
X21524D01*
Y83085D01*
X21291D02*
Y83435D01*
X21116D01*
X21058Y83377D01*
Y83260D01*
X21116Y83202D01*
X21291D01*
X20708Y83085D02*
X20941D01*
X20708Y83319D01*
Y83377D01*
X20766Y83435D01*
X20883D01*
X20941Y83377D01*
X20358Y83435D02*
X20591D01*
Y83260D01*
X20475Y83319D01*
X20416D01*
X20358Y83260D01*
Y83144D01*
X20416Y83085D01*
X20533D01*
X20591Y83144D01*
X21591Y84835D02*
X21358D01*
X21474D01*
Y84485D01*
X21241D02*
Y84835D01*
X21066D01*
X21008Y84777D01*
Y84660D01*
X21066Y84602D01*
X21241D01*
X20658Y84485D02*
X20891D01*
X20658Y84719D01*
Y84777D01*
X20716Y84835D01*
X20833D01*
X20891Y84777D01*
X20308Y84835D02*
X20425Y84777D01*
X20541Y84660D01*
Y84544D01*
X20483Y84485D01*
X20366D01*
X20308Y84544D01*
Y84602D01*
X20366Y84660D01*
X20541D01*
X23751Y82355D02*
Y82589D01*
Y82472D01*
X23401D01*
Y82705D02*
X23751D01*
Y82880D01*
X23693Y82938D01*
X23576D01*
X23518Y82880D01*
Y82705D01*
X23401Y83288D02*
Y83055D01*
X23634Y83288D01*
X23693D01*
X23751Y83230D01*
Y83113D01*
X23693Y83055D01*
X23459Y83405D02*
X23401Y83463D01*
Y83580D01*
X23459Y83638D01*
X23693D01*
X23751Y83580D01*
Y83463D01*
X23693Y83405D01*
X23634D01*
X23576Y83463D01*
Y83638D01*
X24861Y80025D02*
Y80259D01*
Y80142D01*
X24511D01*
Y80375D02*
X24861D01*
Y80550D01*
X24803Y80608D01*
X24686D01*
X24628Y80550D01*
Y80375D01*
X24803Y80725D02*
X24861Y80783D01*
Y80900D01*
X24803Y80958D01*
X24744D01*
X24686Y80900D01*
Y80842D01*
Y80900D01*
X24628Y80958D01*
X24569D01*
X24511Y80900D01*
Y80783D01*
X24569Y80725D01*
X24803Y81075D02*
X24861Y81133D01*
Y81250D01*
X24803Y81308D01*
X24569D01*
X24511Y81250D01*
Y81133D01*
X24569Y81075D01*
X24803D01*
X22851Y79535D02*
Y79769D01*
Y79652D01*
X22501D01*
Y79885D02*
X22851D01*
Y80060D01*
X22793Y80118D01*
X22676D01*
X22618Y80060D01*
Y79885D01*
X22793Y80235D02*
X22851Y80293D01*
Y80410D01*
X22793Y80468D01*
X22734D01*
X22676Y80410D01*
Y80352D01*
Y80410D01*
X22618Y80468D01*
X22559D01*
X22501Y80410D01*
Y80293D01*
X22559Y80235D01*
X22501Y80585D02*
Y80702D01*
Y80643D01*
X22851D01*
X22793Y80585D01*
X36461Y90695D02*
X36228D01*
X36344D01*
Y90345D01*
X36111D02*
Y90695D01*
X35936D01*
X35878Y90637D01*
Y90520D01*
X35936Y90462D01*
X36111D01*
X35761Y90637D02*
X35703Y90695D01*
X35586D01*
X35528Y90637D01*
Y90579D01*
X35586Y90520D01*
X35645D01*
X35586D01*
X35528Y90462D01*
Y90404D01*
X35586Y90345D01*
X35703D01*
X35761Y90404D01*
X35178Y90345D02*
X35411D01*
X35178Y90579D01*
Y90637D01*
X35236Y90695D01*
X35353D01*
X35411Y90637D01*
X16888Y71273D02*
Y71506D01*
Y71389D01*
X16538D01*
Y71623D02*
X16888D01*
Y71798D01*
X16830Y71856D01*
X16713D01*
X16655Y71798D01*
Y71623D01*
X16888Y71973D02*
Y72206D01*
X16830D01*
X16597Y71973D01*
X16538D01*
X16888Y72556D02*
Y72322D01*
X16713D01*
X16772Y72439D01*
Y72497D01*
X16713Y72556D01*
X16597D01*
X16538Y72497D01*
Y72381D01*
X16597Y72322D01*
X15801Y72135D02*
X15568D01*
X15684D01*
Y71785D01*
X15451D02*
Y72135D01*
X15276D01*
X15218Y72077D01*
Y71960D01*
X15276Y71902D01*
X15451D01*
X15101Y72135D02*
X14868D01*
Y72077D01*
X15101Y71844D01*
Y71785D01*
X14576D02*
Y72135D01*
X14751Y71960D01*
X14518D01*
X18581Y71175D02*
Y71409D01*
Y71292D01*
X18231D01*
Y71525D02*
X18581D01*
Y71700D01*
X18523Y71758D01*
X18406D01*
X18348Y71700D01*
Y71525D01*
X18581Y71875D02*
Y72108D01*
X18523D01*
X18289Y71875D01*
X18231D01*
X18523Y72225D02*
X18581Y72283D01*
Y72400D01*
X18523Y72458D01*
X18464D01*
X18406Y72400D01*
Y72342D01*
Y72400D01*
X18348Y72458D01*
X18289D01*
X18231Y72400D01*
Y72283D01*
X18289Y72225D01*
X27621Y76275D02*
Y76509D01*
Y76392D01*
X27271D01*
Y76625D02*
X27621D01*
Y76800D01*
X27563Y76858D01*
X27446D01*
X27388Y76800D01*
Y76625D01*
X27271Y76975D02*
Y77092D01*
Y77033D01*
X27621D01*
X27563Y76975D01*
X27271Y77500D02*
Y77267D01*
X27504Y77500D01*
X27563D01*
X27621Y77442D01*
Y77325D01*
X27563Y77267D01*
X28611Y74245D02*
Y74479D01*
Y74362D01*
X28261D01*
Y74595D02*
X28611D01*
Y74770D01*
X28553Y74828D01*
X28436D01*
X28378Y74770D01*
Y74595D01*
X28261Y74945D02*
Y75062D01*
Y75003D01*
X28611D01*
X28553Y74945D01*
Y75237D02*
X28611Y75295D01*
Y75412D01*
X28553Y75470D01*
X28494D01*
X28436Y75412D01*
Y75353D01*
Y75412D01*
X28378Y75470D01*
X28319D01*
X28261Y75412D01*
Y75295D01*
X28319Y75237D01*
X31681Y74985D02*
Y75219D01*
Y75102D01*
X31331D01*
Y75335D02*
X31681D01*
Y75510D01*
X31623Y75568D01*
X31506D01*
X31448Y75510D01*
Y75335D01*
X31331Y75685D02*
Y75802D01*
Y75743D01*
X31681D01*
X31623Y75685D01*
X31331Y76152D02*
X31681D01*
X31506Y75977D01*
Y76210D01*
X18421Y83715D02*
X18188D01*
X18304D01*
Y83365D01*
X18071D02*
Y83715D01*
X17896D01*
X17838Y83657D01*
Y83540D01*
X17896Y83482D01*
X18071D01*
X17488Y83365D02*
X17721D01*
X17488Y83599D01*
Y83657D01*
X17546Y83715D01*
X17663D01*
X17721Y83657D01*
X17371D02*
X17313Y83715D01*
X17196D01*
X17138Y83657D01*
Y83599D01*
X17196Y83540D01*
X17138Y83482D01*
Y83424D01*
X17196Y83365D01*
X17313D01*
X17371Y83424D01*
Y83482D01*
X17313Y83540D01*
X17371Y83599D01*
Y83657D01*
X17313Y83540D02*
X17196D01*
X16181Y84615D02*
X15948D01*
X16064D01*
Y84265D01*
X15831D02*
Y84615D01*
X15656D01*
X15598Y84557D01*
Y84440D01*
X15656Y84382D01*
X15831D01*
X15481Y84557D02*
X15423Y84615D01*
X15306D01*
X15248Y84557D01*
Y84499D01*
X15306Y84440D01*
X15365D01*
X15306D01*
X15248Y84382D01*
Y84324D01*
X15306Y84265D01*
X15423D01*
X15481Y84324D01*
X14898Y84615D02*
X15131D01*
Y84440D01*
X15015Y84499D01*
X14956D01*
X14898Y84440D01*
Y84324D01*
X14956Y84265D01*
X15073D01*
X15131Y84324D01*
X21611Y92345D02*
X21378D01*
X21494D01*
Y91995D01*
X21261D02*
Y92345D01*
X21086D01*
X21028Y92287D01*
Y92170D01*
X21086Y92112D01*
X21261D01*
X20678Y92345D02*
X20911D01*
Y92170D01*
X20795Y92229D01*
X20736D01*
X20678Y92170D01*
Y92054D01*
X20736Y91995D01*
X20853D01*
X20911Y92054D01*
X20386Y91995D02*
Y92345D01*
X20561Y92170D01*
X20328D01*
X27401Y88665D02*
X27168D01*
X27284D01*
Y88315D01*
X27051D02*
Y88665D01*
X26876D01*
X26818Y88607D01*
Y88490D01*
X26876Y88432D01*
X27051D01*
X26468Y88665D02*
X26701D01*
Y88490D01*
X26585Y88549D01*
X26526D01*
X26468Y88490D01*
Y88374D01*
X26526Y88315D01*
X26643D01*
X26701Y88374D01*
X26118Y88665D02*
X26351D01*
Y88490D01*
X26235Y88549D01*
X26176D01*
X26118Y88490D01*
Y88374D01*
X26176Y88315D01*
X26293D01*
X26351Y88374D01*
X18671Y69825D02*
Y70059D01*
Y69942D01*
X18321D01*
Y70175D02*
X18671D01*
Y70350D01*
X18613Y70408D01*
X18496D01*
X18438Y70350D01*
Y70175D01*
X18613Y70525D02*
X18671Y70583D01*
Y70700D01*
X18613Y70758D01*
X18554D01*
X18496Y70700D01*
Y70642D01*
Y70700D01*
X18438Y70758D01*
X18379D01*
X18321Y70700D01*
Y70583D01*
X18379Y70525D01*
Y70875D02*
X18321Y70933D01*
Y71050D01*
X18379Y71108D01*
X18613D01*
X18671Y71050D01*
Y70933D01*
X18613Y70875D01*
X18554D01*
X18496Y70933D01*
Y71108D01*
X21421Y69985D02*
X21188D01*
X21304D01*
Y69635D01*
X21071D02*
Y69985D01*
X20896D01*
X20838Y69927D01*
Y69810D01*
X20896Y69752D01*
X21071D01*
X20546Y69635D02*
Y69985D01*
X20721Y69810D01*
X20488D01*
X20371Y69635D02*
X20255D01*
X20313D01*
Y69985D01*
X20371Y69927D01*
X16751Y70065D02*
X16518D01*
X16634D01*
Y69715D01*
X16401D02*
Y70065D01*
X16226D01*
X16168Y70007D01*
Y69890D01*
X16226Y69832D01*
X16401D01*
X15876Y69715D02*
Y70065D01*
X16051Y69890D01*
X15818D01*
X15701Y69774D02*
X15643Y69715D01*
X15526D01*
X15468Y69774D01*
Y70007D01*
X15526Y70065D01*
X15643D01*
X15701Y70007D01*
Y69949D01*
X15643Y69890D01*
X15468D01*
X17681Y69745D02*
Y69979D01*
Y69862D01*
X17331D01*
Y70095D02*
X17681D01*
Y70270D01*
X17623Y70328D01*
X17506D01*
X17448Y70270D01*
Y70095D01*
X17681Y70678D02*
Y70445D01*
X17506D01*
X17564Y70562D01*
Y70620D01*
X17506Y70678D01*
X17389D01*
X17331Y70620D01*
Y70503D01*
X17389Y70445D01*
X17681Y71028D02*
X17623Y70912D01*
X17506Y70795D01*
X17389D01*
X17331Y70853D01*
Y70970D01*
X17389Y71028D01*
X17448D01*
X17506Y70970D01*
Y70795D01*
X26561Y70095D02*
X26328D01*
X26444D01*
Y69745D01*
X26211D02*
Y70095D01*
X26036D01*
X25978Y70037D01*
Y69920D01*
X26036Y69862D01*
X26211D01*
X25628Y70095D02*
X25861D01*
Y69920D01*
X25745Y69979D01*
X25686D01*
X25628Y69920D01*
Y69804D01*
X25686Y69745D01*
X25803D01*
X25861Y69804D01*
X25511Y70095D02*
X25278D01*
Y70037D01*
X25511Y69804D01*
Y69745D01*
X21891Y70555D02*
X21658D01*
X21774D01*
Y70205D01*
X21541D02*
Y70555D01*
X21366D01*
X21308Y70497D01*
Y70380D01*
X21366Y70322D01*
X21541D01*
X20958Y70555D02*
X21191D01*
Y70380D01*
X21075Y70439D01*
X21016D01*
X20958Y70380D01*
Y70264D01*
X21016Y70205D01*
X21133D01*
X21191Y70264D01*
X20841Y70497D02*
X20783Y70555D01*
X20666D01*
X20608Y70497D01*
Y70439D01*
X20666Y70380D01*
X20608Y70322D01*
Y70264D01*
X20666Y70205D01*
X20783D01*
X20841Y70264D01*
Y70322D01*
X20783Y70380D01*
X20841Y70439D01*
Y70497D01*
X20783Y70380D02*
X20666D01*
X35631Y70365D02*
X35398D01*
X35514D01*
Y70015D01*
X35281D02*
Y70365D01*
X35106D01*
X35048Y70307D01*
Y70190D01*
X35106Y70132D01*
X35281D01*
X34698Y70365D02*
X34931D01*
Y70190D01*
X34815Y70249D01*
X34756D01*
X34698Y70190D01*
Y70074D01*
X34756Y70015D01*
X34873D01*
X34931Y70074D01*
X34581D02*
X34523Y70015D01*
X34406D01*
X34348Y70074D01*
Y70307D01*
X34406Y70365D01*
X34523D01*
X34581Y70307D01*
Y70249D01*
X34523Y70190D01*
X34348D01*
X32681Y70155D02*
X32448D01*
X32564D01*
Y69805D01*
X32331D02*
Y70155D01*
X32156D01*
X32098Y70097D01*
Y69980D01*
X32156Y69922D01*
X32331D01*
X31748Y70155D02*
X31865Y70097D01*
X31981Y69980D01*
Y69864D01*
X31923Y69805D01*
X31806D01*
X31748Y69864D01*
Y69922D01*
X31806Y69980D01*
X31981D01*
X31631Y70097D02*
X31573Y70155D01*
X31456D01*
X31398Y70097D01*
Y69864D01*
X31456Y69805D01*
X31573D01*
X31631Y69864D01*
Y70097D01*
X24551Y84635D02*
X24784D01*
Y84810D01*
X24726Y84869D01*
X24551D01*
Y84985D02*
X24901D01*
Y85160D01*
X24843Y85218D01*
X24726D01*
X24668Y85160D01*
Y84985D01*
Y85102D02*
X24551Y85218D01*
X24901Y85568D02*
Y85335D01*
X24551D01*
Y85568D01*
X24726Y85335D02*
Y85452D01*
X24843Y85918D02*
X24901Y85860D01*
Y85743D01*
X24843Y85685D01*
X24784D01*
X24726Y85743D01*
Y85860D01*
X24668Y85918D01*
X24609D01*
X24551Y85860D01*
Y85743D01*
X24609Y85685D01*
X24901Y86268D02*
Y86035D01*
X24551D01*
Y86268D01*
X24726Y86035D02*
Y86151D01*
X24901Y86385D02*
Y86618D01*
Y86501D01*
X24551D01*
X15431Y88655D02*
X15781D01*
Y88830D01*
X15723Y88889D01*
X15606D01*
X15548Y88830D01*
Y88655D01*
Y88772D02*
X15431Y88889D01*
X15781Y89238D02*
Y89005D01*
X15431D01*
Y89238D01*
X15606Y89005D02*
Y89122D01*
X15723Y89588D02*
X15781Y89530D01*
Y89413D01*
X15723Y89355D01*
X15664D01*
X15606Y89413D01*
Y89530D01*
X15548Y89588D01*
X15489D01*
X15431Y89530D01*
Y89413D01*
X15489Y89355D01*
X15781Y89938D02*
Y89705D01*
X15431D01*
Y89938D01*
X15606Y89705D02*
Y89822D01*
X15781Y90055D02*
Y90288D01*
Y90171D01*
X15431D01*
Y90638D02*
Y90405D01*
X15664Y90638D01*
X15723D01*
X15781Y90580D01*
Y90463D01*
X15723Y90405D01*
X22078Y86575D02*
X22311D01*
Y86225D01*
X22078D01*
X22311Y86400D02*
X22194D01*
X21961Y86225D02*
Y86575D01*
X21728Y86225D01*
Y86575D01*
X22401Y87055D02*
Y86705D01*
X22226D01*
X22168Y86764D01*
Y86822D01*
X22226Y86880D01*
X22401D01*
X22226D01*
X22168Y86939D01*
Y86997D01*
X22226Y87055D01*
X22401D01*
X21876D02*
X21993D01*
X22051Y86997D01*
Y86764D01*
X21993Y86705D01*
X21876D01*
X21818Y86764D01*
Y86997D01*
X21876Y87055D01*
X21526D02*
X21643D01*
X21701Y86997D01*
Y86764D01*
X21643Y86705D01*
X21526D01*
X21468Y86764D01*
Y86997D01*
X21526Y87055D01*
X21351D02*
X21118D01*
X21235D01*
Y86705D01*
X22061Y87515D02*
Y87224D01*
X22003Y87165D01*
X21886D01*
X21828Y87224D01*
Y87515D01*
X21478Y87457D02*
X21536Y87515D01*
X21653D01*
X21711Y87457D01*
Y87399D01*
X21653Y87340D01*
X21536D01*
X21478Y87282D01*
Y87224D01*
X21536Y87165D01*
X21653D01*
X21711Y87224D01*
X21361Y87515D02*
Y87165D01*
X21186D01*
X21128Y87224D01*
Y87282D01*
X21186Y87340D01*
X21361D01*
X21186D01*
X21128Y87399D01*
Y87457D01*
X21186Y87515D01*
X21361D01*
X21891Y82595D02*
Y82915D01*
X21731D01*
X21678Y82862D01*
Y82755D01*
X21731Y82702D01*
X21891D01*
X21784D02*
X21678Y82595D01*
X21571Y82915D02*
X21358Y82595D01*
Y82915D02*
X21571Y82595D01*
X21251Y82862D02*
X21198Y82915D01*
X21091D01*
X21038Y82862D01*
Y82649D01*
X21091Y82595D01*
X21198D01*
X21251Y82649D01*
Y82862D01*
X20931Y82755D02*
X20718D01*
X20611Y82915D02*
X20505D01*
X20558D01*
Y82595D01*
X20611D01*
X20505D01*
X22931Y82315D02*
X23281D01*
Y82490D01*
X23223Y82549D01*
X23106D01*
X23048Y82490D01*
Y82315D01*
Y82432D02*
X22931Y82549D01*
X23223Y82898D02*
X23281Y82840D01*
Y82723D01*
X23223Y82665D01*
X23164D01*
X23106Y82723D01*
Y82840D01*
X23048Y82898D01*
X22989D01*
X22931Y82840D01*
Y82723D01*
X22989Y82665D01*
X23281Y83015D02*
Y83248D01*
Y83132D01*
X22931D01*
X23106Y83365D02*
Y83598D01*
X23281Y83715D02*
Y83831D01*
Y83773D01*
X22931D01*
Y83715D01*
Y83831D01*
X23281Y84181D02*
Y84065D01*
X23223Y84006D01*
X22989D01*
X22931Y84065D01*
Y84181D01*
X22989Y84240D01*
X23223D01*
X23281Y84181D01*
X24051Y79765D02*
X24401D01*
Y79940D01*
X24343Y79999D01*
X24226D01*
X24168Y79940D01*
Y79765D01*
Y79882D02*
X24051Y79999D01*
X24401Y80115D02*
X24051Y80348D01*
X24401D02*
X24051Y80115D01*
X24343Y80465D02*
X24401Y80523D01*
Y80640D01*
X24343Y80698D01*
X24109D01*
X24051Y80640D01*
Y80523D01*
X24109Y80465D01*
X24343D01*
X27108Y76303D02*
X26788Y76516D01*
X27108D02*
X26788Y76303D01*
X27108Y76623D02*
X27055D01*
X26948Y76729D01*
X27055Y76836D01*
X27108D01*
X26948Y76729D02*
X26788D01*
Y76943D02*
X27108D01*
Y77102D01*
X27055Y77156D01*
X26948D01*
X26895Y77102D01*
Y76943D01*
Y77049D02*
X26788Y77156D01*
X27108Y77476D02*
Y77262D01*
X26788D01*
Y77476D01*
X26948Y77262D02*
Y77369D01*
X27108Y77796D02*
Y77582D01*
X26948D01*
Y77689D01*
Y77582D01*
X26788D01*
X28101Y74335D02*
Y74549D01*
X28048D01*
X27834Y74335D01*
X27781D01*
Y74549D01*
Y74655D02*
X28101D01*
Y74815D01*
X28048Y74868D01*
X27941D01*
X27888Y74815D01*
Y74655D01*
Y74762D02*
X27781Y74868D01*
X28101Y75188D02*
Y74975D01*
X27781D01*
Y75188D01*
X27941Y74975D02*
Y75082D01*
X28101Y75508D02*
Y75295D01*
X27941D01*
Y75402D01*
Y75295D01*
X27781D01*
X31161Y74649D02*
Y74435D01*
X30841D01*
Y74649D01*
X31001Y74435D02*
Y74542D01*
X30841Y74755D02*
X31161D01*
Y74915D01*
X31108Y74968D01*
X31001D01*
X30948Y74915D01*
Y74755D01*
Y74862D02*
X30841Y74968D01*
X31161Y75288D02*
Y75075D01*
X30841D01*
Y75288D01*
X31001Y75075D02*
Y75182D01*
X31161Y75608D02*
Y75395D01*
X31001D01*
Y75502D01*
Y75395D01*
X30841D01*
X15841Y71705D02*
X15628Y71385D01*
Y71705D02*
X15841Y71385D01*
X15308D02*
X15521D01*
X15308Y71599D01*
Y71652D01*
X15361Y71705D01*
X15468D01*
X15521Y71652D01*
X15201Y71705D02*
Y71385D01*
X15041D01*
X14988Y71439D01*
Y71492D01*
X15041Y71545D01*
X15201D01*
X15041D01*
X14988Y71599D01*
Y71652D01*
X15041Y71705D01*
X15201D01*
X19241Y71305D02*
X19188D01*
X19081Y71412D01*
X19188Y71519D01*
X19241D01*
X19081Y71412D02*
X18921D01*
Y71625D02*
Y71732D01*
Y71678D01*
X19241D01*
X19188Y71625D01*
X19241Y71892D02*
X18921D01*
Y72052D01*
X18974Y72105D01*
X19028D01*
X19081Y72052D01*
Y71892D01*
Y72052D01*
X19134Y72105D01*
X19188D01*
X19241Y72052D01*
Y71892D01*
X23031Y71345D02*
X22978D01*
X22871Y71452D01*
X22978Y71559D01*
X23031D01*
X22871Y71452D02*
X22711D01*
Y71665D02*
Y71772D01*
Y71718D01*
X23031D01*
X22978Y71665D01*
X22711Y71932D02*
X22924D01*
X23031Y72038D01*
X22924Y72145D01*
X22711D01*
X22871D01*
Y71932D01*
X24671Y70725D02*
X24618D01*
X24511Y70832D01*
X24618Y70939D01*
X24671D01*
X24511Y70832D02*
X24351D01*
Y71258D02*
Y71045D01*
X24564Y71258D01*
X24618D01*
X24671Y71205D01*
Y71098D01*
X24618Y71045D01*
X24351Y71365D02*
X24564D01*
X24671Y71472D01*
X24564Y71578D01*
X24351D01*
X24511D01*
Y71365D01*
X21901Y71335D02*
X21848D01*
X21741Y71442D01*
X21848Y71549D01*
X21901D01*
X21741Y71442D02*
X21581D01*
Y71868D02*
Y71655D01*
X21794Y71868D01*
X21848D01*
X21901Y71815D01*
Y71708D01*
X21848Y71655D01*
X21901Y71975D02*
X21581D01*
Y72135D01*
X21634Y72188D01*
X21688D01*
X21741Y72135D01*
Y71975D01*
Y72135D01*
X21794Y72188D01*
X21848D01*
X21901Y72135D01*
Y71975D01*
X26998Y72853D02*
Y73066D01*
X26945D01*
X26732Y72853D01*
X26679D01*
Y73066D01*
Y73173D02*
Y73279D01*
Y73226D01*
X26998D01*
X26945Y73173D01*
X26998Y73439D02*
X26679D01*
Y73599D01*
X26732Y73653D01*
X26785D01*
X26838Y73599D01*
Y73439D01*
Y73599D01*
X26892Y73653D01*
X26945D01*
X26998Y73599D01*
Y73439D01*
X29111Y72815D02*
Y73029D01*
X29058D01*
X28844Y72815D01*
X28791D01*
Y73029D01*
Y73135D02*
Y73242D01*
Y73188D01*
X29111D01*
X29058Y73135D01*
X28791Y73402D02*
X29004D01*
X29111Y73508D01*
X29004Y73615D01*
X28791D01*
X28951D01*
Y73402D01*
X30018Y72833D02*
Y73046D01*
X29965D01*
X29752Y72833D01*
X29699D01*
Y73046D01*
Y73366D02*
Y73153D01*
X29912Y73366D01*
X29965D01*
X30018Y73313D01*
Y73206D01*
X29965Y73153D01*
X29699Y73473D02*
X29912D01*
X30018Y73579D01*
X29912Y73686D01*
X29699D01*
X29858D01*
Y73473D01*
X28008Y72853D02*
Y73066D01*
X27955D01*
X27742Y72853D01*
X27689D01*
Y73066D01*
Y73386D02*
Y73173D01*
X27902Y73386D01*
X27955D01*
X28008Y73333D01*
Y73226D01*
X27955Y73173D01*
X28008Y73493D02*
X27689D01*
Y73653D01*
X27742Y73706D01*
X27795D01*
X27848Y73653D01*
Y73493D01*
Y73653D01*
X27902Y73706D01*
X27955D01*
X28008Y73653D01*
Y73493D01*
X31901Y71569D02*
Y71355D01*
X31581D01*
Y71569D01*
X31741Y71355D02*
Y71462D01*
X31581Y71888D02*
Y71675D01*
X31794Y71888D01*
X31848D01*
X31901Y71835D01*
Y71728D01*
X31848Y71675D01*
X31901Y71995D02*
X31581D01*
Y72155D01*
X31634Y72208D01*
X31688D01*
X31741Y72155D01*
Y71995D01*
Y72155D01*
X31794Y72208D01*
X31848D01*
X31901Y72155D01*
Y71995D01*
X34698Y70986D02*
Y70773D01*
X34378D01*
Y70986D01*
X34538Y70773D02*
Y70879D01*
X34378Y71306D02*
Y71093D01*
X34592Y71306D01*
X34645D01*
X34698Y71253D01*
Y71146D01*
X34645Y71093D01*
X34378Y71413D02*
X34592D01*
X34698Y71519D01*
X34592Y71626D01*
X34378D01*
X34538D01*
Y71413D01*
X33041Y71609D02*
Y71395D01*
X32721D01*
Y71609D01*
X32881Y71395D02*
Y71502D01*
X32721Y71715D02*
Y71822D01*
Y71768D01*
X33041D01*
X32988Y71715D01*
X32721Y71982D02*
X32934D01*
X33041Y72088D01*
X32934Y72195D01*
X32721D01*
X32881D01*
Y71982D01*
X30891Y71559D02*
Y71345D01*
X30571D01*
Y71559D01*
X30731Y71345D02*
Y71452D01*
X30571Y71665D02*
Y71772D01*
Y71718D01*
X30891D01*
X30838Y71665D01*
X30891Y71932D02*
X30571D01*
Y72092D01*
X30624Y72145D01*
X30678D01*
X30731Y72092D01*
Y71932D01*
Y72092D01*
X30784Y72145D01*
X30838D01*
X30891Y72092D01*
Y71932D01*
X52225Y76353D02*
X52439D01*
Y76193D01*
X52332D01*
X52439D01*
Y76033D01*
X51905Y76299D02*
X51959Y76353D01*
X52065D01*
X52119Y76299D01*
Y76086D01*
X52065Y76033D01*
X51959D01*
X51905Y76086D01*
Y76193D01*
X52012D01*
X51799Y76033D02*
Y76353D01*
X51585Y76033D01*
Y76353D01*
X51479D02*
Y76033D01*
X51319D01*
X51266Y76086D01*
Y76299D01*
X51319Y76353D01*
X51479D01*
X40625Y69466D02*
X40678Y69413D01*
Y69306D01*
X40625Y69253D01*
X40412D01*
X40359Y69306D01*
Y69413D01*
X40412Y69466D01*
X40518D01*
Y69359D01*
X40359Y69573D02*
X40678D01*
X40359Y69786D01*
X40678D01*
Y69893D02*
X40359D01*
Y70052D01*
X40412Y70106D01*
X40625D01*
X40678Y70052D01*
Y69893D01*
X42738Y69803D02*
X43058D01*
Y69963D01*
X43005Y70016D01*
X42898D01*
X42845Y69963D01*
Y69803D01*
X43058Y70123D02*
X42738D01*
X42845Y70229D01*
X42738Y70336D01*
X43058D01*
X42738Y70443D02*
X43058D01*
Y70602D01*
X43005Y70656D01*
X42898D01*
X42845Y70602D01*
Y70443D01*
Y70549D02*
X42738Y70656D01*
X42898Y70762D02*
Y70976D01*
X43058Y71082D02*
Y71189D01*
Y71136D01*
X42738D01*
Y71082D01*
Y71189D01*
Y71349D02*
X43058D01*
X42738Y71562D01*
X43058D01*
X44638Y71019D02*
X44691Y70965D01*
Y70859D01*
X44638Y70805D01*
X44424D01*
X44371Y70859D01*
Y70965D01*
X44424Y71019D01*
X44531D01*
Y70912D01*
X44371Y71125D02*
X44691D01*
X44371Y71338D01*
X44691D01*
Y71445D02*
X44371D01*
Y71605D01*
X44424Y71658D01*
X44638D01*
X44691Y71605D01*
Y71445D01*
X47188Y69863D02*
X46869D01*
Y70023D01*
X46922Y70076D01*
X46975D01*
X47028Y70023D01*
Y69863D01*
Y70023D01*
X47082Y70076D01*
X47135D01*
X47188Y70023D01*
Y69863D01*
Y70396D02*
Y70183D01*
X46869D01*
Y70396D01*
X47028Y70183D02*
Y70289D01*
X47188Y70503D02*
X46869D01*
Y70662D01*
X46922Y70716D01*
X47135D01*
X47188Y70662D01*
Y70503D01*
X47028Y70822D02*
Y71036D01*
X47188Y71142D02*
Y71249D01*
Y71196D01*
X46869D01*
Y71142D01*
Y71249D01*
Y71409D02*
X47188D01*
X46869Y71622D01*
X47188D01*
X43431Y80305D02*
X43324D01*
X43378D01*
Y80625D01*
X43431Y80572D01*
X42951Y80305D02*
X43164D01*
X42951Y80519D01*
Y80572D01*
X43004Y80625D01*
X43111D01*
X43164Y80572D01*
X42845Y80625D02*
Y80412D01*
X42738Y80305D01*
X42631Y80412D01*
Y80625D01*
X42311Y80305D02*
X42525D01*
X42311Y80519D01*
Y80572D01*
X42365Y80625D01*
X42471D01*
X42525Y80572D01*
X40365Y83123D02*
X40578D01*
Y82963D01*
X40472D01*
X40578D01*
Y82803D01*
X40259D02*
Y83016D01*
X40152Y83123D01*
X40045Y83016D01*
Y82803D01*
Y82963D01*
X40259D01*
X39939Y82803D02*
Y83123D01*
X39725Y82803D01*
Y83123D01*
X39619Y83069D02*
X39565Y83123D01*
X39459D01*
X39406Y83069D01*
Y82856D01*
X39459Y82803D01*
X39565D01*
X39619Y82856D01*
Y83069D01*
X39508Y85595D02*
X39721D01*
Y85435D01*
X39614D01*
X39721D01*
Y85275D01*
X39401D02*
Y85489D01*
X39295Y85595D01*
X39188Y85489D01*
Y85275D01*
Y85435D01*
X39401D01*
X39081Y85275D02*
Y85595D01*
X38868Y85275D01*
Y85595D01*
X38761Y85275D02*
X38655D01*
X38708D01*
Y85595D01*
X38761Y85542D01*
X33431Y84255D02*
X33218D01*
X33324D01*
Y83935D01*
X33111Y84255D02*
Y83935D01*
Y84095D01*
X32898D01*
Y84255D01*
Y83935D01*
X32578Y84255D02*
X32791D01*
Y83935D01*
X32578D01*
X32791Y84095D02*
X32685D01*
X32471Y83935D02*
Y84255D01*
X32311D01*
X32258Y84202D01*
Y84095D01*
X32311Y84042D01*
X32471D01*
X32365D02*
X32258Y83935D01*
X32151D02*
Y84255D01*
X32045Y84149D01*
X31938Y84255D01*
Y83935D01*
X31832Y84255D02*
X31725D01*
X31778D01*
Y83935D01*
X31832D01*
X31725D01*
X31352Y84202D02*
X31405Y84255D01*
X31512D01*
X31565Y84202D01*
Y84149D01*
X31512Y84095D01*
X31405D01*
X31352Y84042D01*
Y83989D01*
X31405Y83935D01*
X31512D01*
X31565Y83989D01*
X31245Y84255D02*
X31032D01*
X31138D01*
Y83935D01*
X30765Y84255D02*
X30872D01*
X30925Y84202D01*
Y83989D01*
X30872Y83935D01*
X30765D01*
X30712Y83989D01*
Y84202D01*
X30765Y84255D01*
X30605Y83935D02*
Y84255D01*
X30445D01*
X30392Y84202D01*
Y84095D01*
X30445Y84042D01*
X30605D01*
X30499D02*
X30392Y83935D01*
X29965Y84202D02*
X29912Y84255D01*
X29806D01*
X29752Y84202D01*
Y83989D01*
X29806Y83935D01*
X29912D01*
X29965Y83989D01*
Y84202D01*
X33661Y81815D02*
X33448D01*
X33554D01*
Y81495D01*
X33341Y81815D02*
Y81495D01*
Y81655D01*
X33128D01*
Y81815D01*
Y81495D01*
X32808Y81815D02*
X33021D01*
Y81495D01*
X32808D01*
X33021Y81655D02*
X32915D01*
X32701Y81495D02*
Y81815D01*
X32541D01*
X32488Y81762D01*
Y81655D01*
X32541Y81602D01*
X32701D01*
X32595D02*
X32488Y81495D01*
X32381D02*
Y81815D01*
X32275Y81709D01*
X32168Y81815D01*
Y81495D01*
X32062Y81815D02*
X31955D01*
X32008D01*
Y81495D01*
X32062D01*
X31955D01*
X31582Y81762D02*
X31635Y81815D01*
X31742D01*
X31795Y81762D01*
Y81709D01*
X31742Y81655D01*
X31635D01*
X31582Y81602D01*
Y81549D01*
X31635Y81495D01*
X31742D01*
X31795Y81549D01*
X31475Y81815D02*
X31262D01*
X31368D01*
Y81495D01*
X30995Y81815D02*
X31102D01*
X31155Y81762D01*
Y81549D01*
X31102Y81495D01*
X30995D01*
X30942Y81549D01*
Y81762D01*
X30995Y81815D01*
X30835Y81495D02*
Y81815D01*
X30675D01*
X30622Y81762D01*
Y81655D01*
X30675Y81602D01*
X30835D01*
X30729D02*
X30622Y81495D01*
X30195D02*
X30089D01*
X30142D01*
Y81815D01*
X30195Y81762D01*
X33611Y79855D02*
X33398D01*
X33504D01*
Y79535D01*
X33291Y79855D02*
Y79535D01*
Y79695D01*
X33078D01*
Y79855D01*
Y79535D01*
X32758Y79855D02*
X32971D01*
Y79535D01*
X32758D01*
X32971Y79695D02*
X32865D01*
X32651Y79535D02*
Y79855D01*
X32491D01*
X32438Y79802D01*
Y79695D01*
X32491Y79642D01*
X32651D01*
X32545D02*
X32438Y79535D01*
X32331D02*
Y79855D01*
X32225Y79749D01*
X32118Y79855D01*
Y79535D01*
X32012Y79855D02*
X31905D01*
X31958D01*
Y79535D01*
X32012D01*
X31905D01*
X31532Y79802D02*
X31585Y79855D01*
X31692D01*
X31745Y79802D01*
Y79749D01*
X31692Y79695D01*
X31585D01*
X31532Y79642D01*
Y79589D01*
X31585Y79535D01*
X31692D01*
X31745Y79589D01*
X31425Y79855D02*
X31212D01*
X31318D01*
Y79535D01*
X30945Y79855D02*
X31052D01*
X31105Y79802D01*
Y79589D01*
X31052Y79535D01*
X30945D01*
X30892Y79589D01*
Y79802D01*
X30945Y79855D01*
X30785Y79535D02*
Y79855D01*
X30625D01*
X30572Y79802D01*
Y79695D01*
X30625Y79642D01*
X30785D01*
X30679D02*
X30572Y79535D01*
X29932D02*
X30145D01*
X29932Y79749D01*
Y79802D01*
X29986Y79855D01*
X30092D01*
X30145Y79802D01*
X22361Y79855D02*
Y80069D01*
Y79962D01*
X22041D01*
X22361Y80175D02*
X22041Y80388D01*
X22361D02*
X22041Y80175D01*
X22308Y80495D02*
X22361Y80548D01*
Y80655D01*
X22308Y80708D01*
X22094D01*
X22041Y80655D01*
Y80548D01*
X22094Y80495D01*
X22308D01*
X21161Y80605D02*
Y80285D01*
X21001D01*
X20948Y80339D01*
Y80552D01*
X21001Y80605D01*
X21161D01*
X20841D02*
X20628D01*
X20735D01*
Y80285D01*
X20521D02*
Y80605D01*
X20361D01*
X20308Y80552D01*
Y80445D01*
X20361Y80392D01*
X20521D01*
X20415D02*
X20308Y80285D01*
X21721Y84335D02*
X21508D01*
X21614D01*
Y84015D01*
X21401Y84335D02*
X21188Y84015D01*
Y84335D02*
X21401Y84015D01*
X21081Y84282D02*
X21028Y84335D01*
X20921D01*
X20868Y84282D01*
Y84069D01*
X20921Y84015D01*
X21028D01*
X21081Y84069D01*
Y84282D01*
X20761Y84175D02*
X20548D01*
X20441Y84335D02*
X20335D01*
X20388D01*
Y84015D01*
X20441D01*
X20335D01*
X18371Y84205D02*
X18691D01*
X18584Y84312D01*
X18691Y84419D01*
X18371D01*
X18691Y84685D02*
Y84578D01*
X18638Y84525D01*
X18424D01*
X18371Y84578D01*
Y84685D01*
X18424Y84738D01*
X18638D01*
X18691Y84685D01*
X18638Y85058D02*
X18691Y85005D01*
Y84898D01*
X18638Y84845D01*
X18584D01*
X18531Y84898D01*
Y85005D01*
X18478Y85058D01*
X18424D01*
X18371Y85005D01*
Y84898D01*
X18424Y84845D01*
X18691Y85165D02*
Y85272D01*
Y85218D01*
X18371D01*
Y85165D01*
Y85272D01*
Y85645D02*
Y85432D01*
X18584Y85645D01*
X18638D01*
X18691Y85591D01*
Y85485D01*
X18638Y85432D01*
X18328Y86162D02*
X18381Y86215D01*
X18488D01*
X18541Y86162D01*
Y86109D01*
X18488Y86055D01*
X18381D01*
X18328Y86002D01*
Y85949D01*
X18381Y85895D01*
X18488D01*
X18541Y85949D01*
X18008Y86162D02*
X18061Y86215D01*
X18168D01*
X18221Y86162D01*
Y85949D01*
X18168Y85895D01*
X18061D01*
X18008Y85949D01*
X17901Y86215D02*
Y85895D01*
Y86002D01*
X17688Y86215D01*
X17848Y86055D01*
X17688Y85895D01*
X17368D02*
X17581D01*
X17368Y86109D01*
Y86162D01*
X17421Y86215D01*
X17528D01*
X17581Y86162D01*
X16941Y85805D02*
Y86125D01*
X16834Y86019D01*
X16728Y86125D01*
Y85805D01*
X16621Y86125D02*
X16514D01*
X16568D01*
Y85805D01*
X16621D01*
X16514D01*
X16141Y86072D02*
X16195Y86125D01*
X16301D01*
X16355Y86072D01*
Y86019D01*
X16301Y85965D01*
X16195D01*
X16141Y85912D01*
Y85859D01*
X16195Y85805D01*
X16301D01*
X16355Y85859D01*
X15875Y86125D02*
X15981D01*
X16035Y86072D01*
Y85859D01*
X15981Y85805D01*
X15875D01*
X15821Y85859D01*
Y86072D01*
X15875Y86125D01*
X15501Y85805D02*
X15715D01*
X15501Y86019D01*
Y86072D01*
X15555Y86125D01*
X15661D01*
X15715Y86072D01*
X18931Y90355D02*
X18611Y90569D01*
X18931D02*
X18611Y90355D01*
Y90675D02*
X18931D01*
X18824Y90782D01*
X18931Y90888D01*
X18611D01*
X18931Y90995D02*
Y91102D01*
Y91048D01*
X18611D01*
Y90995D01*
Y91102D01*
Y91262D02*
X18931D01*
X18611Y91475D01*
X18931D01*
X23501Y92355D02*
Y92302D01*
X23394Y92195D01*
X23288Y92302D01*
Y92355D01*
X23394Y92195D02*
Y92035D01*
X23181D02*
Y92355D01*
X23075Y92249D01*
X22968Y92355D01*
Y92035D01*
X22861Y92355D02*
X22755D01*
X22808D01*
Y92035D01*
X22861D01*
X22755D01*
X22595D02*
Y92355D01*
X22381Y92035D01*
Y92355D01*
X28551Y94905D02*
X28338D01*
Y94852D01*
X28551Y94639D01*
Y94585D01*
X28338D01*
X28231D02*
Y94905D01*
X28124Y94799D01*
X28018Y94905D01*
Y94585D01*
X27911Y94905D02*
X27805D01*
X27858D01*
Y94585D01*
X27911D01*
X27805D01*
X27645D02*
Y94905D01*
X27431Y94585D01*
Y94905D01*
X22311Y87365D02*
X22631D01*
X22524Y87472D01*
X22631Y87579D01*
X22311D01*
X22631Y87685D02*
Y87792D01*
Y87738D01*
X22311D01*
Y87685D01*
Y87792D01*
X22578Y88165D02*
X22631Y88112D01*
Y88005D01*
X22578Y87952D01*
X22524D01*
X22471Y88005D01*
Y88112D01*
X22418Y88165D01*
X22364D01*
X22311Y88112D01*
Y88005D01*
X22364Y87952D01*
X22631Y88432D02*
Y88325D01*
X22578Y88272D01*
X22364D01*
X22311Y88325D01*
Y88432D01*
X22364Y88485D01*
X22578D01*
X22631Y88432D01*
X27128Y88112D02*
X27181Y88165D01*
X27288D01*
X27341Y88112D01*
Y88059D01*
X27288Y88005D01*
X27181D01*
X27128Y87952D01*
Y87899D01*
X27181Y87845D01*
X27288D01*
X27341Y87899D01*
X26808Y88112D02*
X26861Y88165D01*
X26968D01*
X27021Y88112D01*
Y87899D01*
X26968Y87845D01*
X26861D01*
X26808Y87899D01*
X26701Y88165D02*
Y87845D01*
Y87952D01*
X26488Y88165D01*
X26648Y88005D01*
X26488Y87845D01*
X30521Y87815D02*
Y88135D01*
X30414Y88029D01*
X30308Y88135D01*
Y87815D01*
X30041Y88135D02*
X30148D01*
X30201Y88082D01*
Y87869D01*
X30148Y87815D01*
X30041D01*
X29988Y87869D01*
Y88082D01*
X30041Y88135D01*
X29668Y88082D02*
X29721Y88135D01*
X29828D01*
X29881Y88082D01*
Y88029D01*
X29828Y87975D01*
X29721D01*
X29668Y87922D01*
Y87869D01*
X29721Y87815D01*
X29828D01*
X29881Y87869D01*
X29561Y88135D02*
X29455D01*
X29508D01*
Y87815D01*
X29561D01*
X29455D01*
X35298Y90165D02*
X35511D01*
Y90005D01*
X35404Y90059D01*
X35351D01*
X35298Y90005D01*
Y89899D01*
X35351Y89845D01*
X35458D01*
X35511Y89899D01*
X35191Y90165D02*
Y89952D01*
X35085Y89845D01*
X34978Y89952D01*
Y90165D01*
X15621Y85055D02*
Y84735D01*
X15461D01*
X15408Y84789D01*
Y85002D01*
X15461Y85055D01*
X15621D01*
X15301Y84895D02*
X15088D01*
X15194Y85002D02*
Y84789D01*
X18321Y83245D02*
Y82925D01*
X18161D01*
X18108Y82979D01*
Y83192D01*
X18161Y83245D01*
X18321D01*
X18001Y83085D02*
X17788D01*
X14378Y82652D02*
X14431Y82705D01*
X14538D01*
X14591Y82652D01*
Y82439D01*
X14538Y82385D01*
X14431D01*
X14378Y82439D01*
Y82545D01*
X14484D01*
X14271Y82385D02*
Y82705D01*
X14058Y82385D01*
Y82705D01*
X13951D02*
Y82385D01*
X13791D01*
X13738Y82439D01*
Y82652D01*
X13791Y82705D01*
X13951D01*
X13631Y82385D02*
X13525D01*
X13578D01*
Y82705D01*
X13631Y82652D01*
X16001Y79725D02*
X15734D01*
X15681Y79779D01*
Y79885D01*
X15734Y79939D01*
X16001D01*
X15948Y80258D02*
X16001Y80205D01*
Y80098D01*
X15948Y80045D01*
X15894D01*
X15841Y80098D01*
Y80205D01*
X15788Y80258D01*
X15734D01*
X15681Y80205D01*
Y80098D01*
X15734Y80045D01*
X16001Y80365D02*
X15681D01*
Y80525D01*
X15734Y80578D01*
X15788D01*
X15841Y80525D01*
Y80365D01*
Y80525D01*
X15894Y80578D01*
X15948D01*
X16001Y80525D01*
Y80365D01*
Y80685D02*
X15788D01*
X15681Y80792D01*
X15788Y80898D01*
X16001D01*
X15948Y81218D02*
X16001Y81165D01*
Y81058D01*
X15948Y81005D01*
X15734D01*
X15681Y81058D01*
Y81165D01*
X15734Y81218D01*
X15948Y81538D02*
X16001Y81485D01*
Y81378D01*
X15948Y81325D01*
X15734D01*
X15681Y81378D01*
Y81485D01*
X15734Y81538D01*
X51498Y85093D02*
Y84773D01*
X51339D01*
X51285Y84826D01*
Y84879D01*
X51339Y84933D01*
X51498D01*
X51339D01*
X51285Y84986D01*
Y85039D01*
X51339Y85093D01*
X51498D01*
X50965D02*
X51179D01*
Y84773D01*
X50965D01*
X51179Y84933D02*
X51072D01*
X50859Y85093D02*
Y84773D01*
X50699D01*
X50645Y84826D01*
Y85039D01*
X50699Y85093D01*
X50859D01*
X50539Y84933D02*
X50326D01*
X50432Y85039D02*
Y84826D01*
X51508Y87103D02*
Y86783D01*
X51349D01*
X51295Y86836D01*
Y86889D01*
X51349Y86943D01*
X51508D01*
X51349D01*
X51295Y86996D01*
Y87049D01*
X51349Y87103D01*
X51508D01*
X50975D02*
X51189D01*
Y86783D01*
X50975D01*
X51189Y86943D02*
X51082D01*
X50869Y87103D02*
Y86783D01*
X50709D01*
X50655Y86836D01*
Y87049D01*
X50709Y87103D01*
X50869D01*
X50549Y86943D02*
X50336D01*
X51355Y89123D02*
X51568D01*
Y88803D01*
X51355D01*
X51568Y88963D02*
X51462D01*
X51249Y89123D02*
X51035Y88803D01*
Y89123D02*
X51249Y88803D01*
X50929Y89123D02*
X50715D01*
X50822D01*
Y88803D01*
X50609Y88963D02*
X50396D01*
X50502Y89069D02*
Y88856D01*
X51385Y91123D02*
X51599D01*
Y90803D01*
X51385D01*
X51599Y90963D02*
X51492D01*
X51279Y91123D02*
X51065Y90803D01*
Y91123D02*
X51279Y90803D01*
X50959Y91123D02*
X50745D01*
X50852D01*
Y90803D01*
X50639Y90963D02*
X50426D01*
X17951Y71305D02*
X17631Y71519D01*
X17951D02*
X17631Y71305D01*
Y71838D02*
Y71625D01*
X17844Y71838D01*
X17898D01*
X17951Y71785D01*
Y71678D01*
X17898Y71625D01*
X17631Y71945D02*
X17844D01*
X17951Y72052D01*
X17844Y72158D01*
X17631D01*
X17791D01*
Y71945D01*
X16421Y71355D02*
X16101Y71569D01*
X16421D02*
X16101Y71355D01*
Y71675D02*
Y71782D01*
Y71728D01*
X16421D01*
X16368Y71675D01*
X16101Y71942D02*
X16314D01*
X16421Y72048D01*
X16314Y72155D01*
X16101D01*
X16261D01*
Y71942D01*
X13191Y72445D02*
X12871Y72659D01*
X13191D02*
X12871Y72445D01*
Y72765D02*
Y72872D01*
Y72818D01*
X13191D01*
X13138Y72765D01*
X13191Y73032D02*
X12871D01*
Y73192D01*
X12924Y73245D01*
X12978D01*
X13031Y73192D01*
Y73032D01*
Y73192D01*
X13084Y73245D01*
X13138D01*
X13191Y73192D01*
Y73032D01*
M02*
