G04 Layer_Color=8388736*
%FSLAX24Y24*%
%MOIN*%
G70*
G01*
G75*
%ADD12C,0.0100*%
%ADD40C,0.0600*%
%ADD117C,0.0300*%
%ADD131C,0.0840*%
%ADD211C,0.0631*%
%ADD212R,0.0460X0.0130*%
%ADD213R,0.0530X0.0170*%
G04:AMPARAMS|DCode=214|XSize=118.7mil|YSize=118.7mil|CornerRadius=59.4mil|HoleSize=0mil|Usage=FLASHONLY|Rotation=90.000|XOffset=0mil|YOffset=0mil|HoleType=Round|Shape=RoundedRectangle|*
%AMROUNDEDRECTD214*
21,1,0.1187,0.0000,0,0,90.0*
21,1,0.0000,0.1187,0,0,90.0*
1,1,0.1187,0.0000,0.0000*
1,1,0.1187,0.0000,0.0000*
1,1,0.1187,0.0000,0.0000*
1,1,0.1187,0.0000,0.0000*
%
%ADD214ROUNDEDRECTD214*%
%ADD215R,0.0830X0.0830*%
G04:AMPARAMS|DCode=216|XSize=33.1mil|YSize=43.4mil|CornerRadius=7.8mil|HoleSize=0mil|Usage=FLASHONLY|Rotation=90.000|XOffset=0mil|YOffset=0mil|HoleType=Round|Shape=RoundedRectangle|*
%AMROUNDEDRECTD216*
21,1,0.0331,0.0277,0,0,90.0*
21,1,0.0175,0.0434,0,0,90.0*
1,1,0.0157,0.0139,0.0087*
1,1,0.0157,0.0139,-0.0087*
1,1,0.0157,-0.0139,-0.0087*
1,1,0.0157,-0.0139,0.0087*
%
%ADD216ROUNDEDRECTD216*%
%ADD217R,0.0749X0.0583*%
G04:AMPARAMS|DCode=218|XSize=33.1mil|YSize=43.4mil|CornerRadius=7.8mil|HoleSize=0mil|Usage=FLASHONLY|Rotation=0.000|XOffset=0mil|YOffset=0mil|HoleType=Round|Shape=RoundedRectangle|*
%AMROUNDEDRECTD218*
21,1,0.0331,0.0277,0,0,0.0*
21,1,0.0175,0.0434,0,0,0.0*
1,1,0.0157,0.0087,-0.0139*
1,1,0.0157,-0.0087,-0.0139*
1,1,0.0157,-0.0087,0.0139*
1,1,0.0157,0.0087,0.0139*
%
%ADD218ROUNDEDRECTD218*%
G04:AMPARAMS|DCode=219|XSize=26mil|YSize=28mil|CornerRadius=6.4mil|HoleSize=0mil|Usage=FLASHONLY|Rotation=0.000|XOffset=0mil|YOffset=0mil|HoleType=Round|Shape=RoundedRectangle|*
%AMROUNDEDRECTD219*
21,1,0.0260,0.0152,0,0,0.0*
21,1,0.0132,0.0280,0,0,0.0*
1,1,0.0128,0.0066,-0.0076*
1,1,0.0128,-0.0066,-0.0076*
1,1,0.0128,-0.0066,0.0076*
1,1,0.0128,0.0066,0.0076*
%
%ADD219ROUNDEDRECTD219*%
G04:AMPARAMS|DCode=220|XSize=26mil|YSize=28mil|CornerRadius=6.4mil|HoleSize=0mil|Usage=FLASHONLY|Rotation=270.000|XOffset=0mil|YOffset=0mil|HoleType=Round|Shape=RoundedRectangle|*
%AMROUNDEDRECTD220*
21,1,0.0260,0.0152,0,0,270.0*
21,1,0.0132,0.0280,0,0,270.0*
1,1,0.0128,-0.0076,-0.0066*
1,1,0.0128,-0.0076,0.0066*
1,1,0.0128,0.0076,0.0066*
1,1,0.0128,0.0076,-0.0066*
%
%ADD220ROUNDEDRECTD220*%
%ADD221R,0.0304X0.0386*%
%ADD222R,0.0386X0.0304*%
%ADD223R,0.0631X0.0957*%
%ADD224R,0.1457X0.1654*%
%ADD225O,0.0138X0.0375*%
%ADD226O,0.0375X0.0138*%
G04:AMPARAMS|DCode=227|XSize=54mil|YSize=54mil|CornerRadius=27mil|HoleSize=0mil|Usage=FLASHONLY|Rotation=270.000|XOffset=0mil|YOffset=0mil|HoleType=Round|Shape=RoundedRectangle|*
%AMROUNDEDRECTD227*
21,1,0.0540,0.0000,0,0,270.0*
21,1,0.0000,0.0540,0,0,270.0*
1,1,0.0540,0.0000,0.0000*
1,1,0.0540,0.0000,0.0000*
1,1,0.0540,0.0000,0.0000*
1,1,0.0540,0.0000,0.0000*
%
%ADD227ROUNDEDRECTD227*%
%ADD228R,0.0520X0.0520*%
%ADD229R,0.0520X0.0520*%
%ADD230R,0.2048X0.0822*%
%ADD231R,0.0460X0.0560*%
%ADD232R,0.0276X0.0355*%
%ADD233R,0.0280X0.0280*%
%ADD234R,0.1300X0.0670*%
%ADD235R,0.0830X0.0830*%
%ADD236R,0.0240X0.0320*%
%ADD237R,0.0560X0.0460*%
%ADD238R,0.0583X0.0749*%
G04:AMPARAMS|DCode=239|XSize=80mil|YSize=80mil|CornerRadius=40mil|HoleSize=0mil|Usage=FLASHONLY|Rotation=0.000|XOffset=0mil|YOffset=0mil|HoleType=Round|Shape=RoundedRectangle|*
%AMROUNDEDRECTD239*
21,1,0.0800,0.0000,0,0,0.0*
21,1,0.0000,0.0800,0,0,0.0*
1,1,0.0800,0.0000,0.0000*
1,1,0.0800,0.0000,0.0000*
1,1,0.0800,0.0000,0.0000*
1,1,0.0800,0.0000,0.0000*
%
%ADD239ROUNDEDRECTD239*%
%ADD240R,0.0280X0.0640*%
%ADD241R,0.0680X0.0200*%
%ADD242R,0.0200X0.0680*%
%ADD243R,0.0540X0.0190*%
%ADD244R,0.1410X0.1410*%
G04:AMPARAMS|DCode=245|XSize=15mil|YSize=35.4mil|CornerRadius=6.4mil|HoleSize=0mil|Usage=FLASHONLY|Rotation=270.000|XOffset=0mil|YOffset=0mil|HoleType=Round|Shape=RoundedRectangle|*
%AMROUNDEDRECTD245*
21,1,0.0150,0.0227,0,0,270.0*
21,1,0.0022,0.0354,0,0,270.0*
1,1,0.0128,-0.0113,-0.0011*
1,1,0.0128,-0.0113,0.0011*
1,1,0.0128,0.0113,0.0011*
1,1,0.0128,0.0113,-0.0011*
%
%ADD245ROUNDEDRECTD245*%
G04:AMPARAMS|DCode=246|XSize=15mil|YSize=35.4mil|CornerRadius=6.4mil|HoleSize=0mil|Usage=FLASHONLY|Rotation=180.000|XOffset=0mil|YOffset=0mil|HoleType=Round|Shape=RoundedRectangle|*
%AMROUNDEDRECTD246*
21,1,0.0150,0.0227,0,0,180.0*
21,1,0.0022,0.0354,0,0,180.0*
1,1,0.0128,-0.0011,0.0113*
1,1,0.0128,0.0011,0.0113*
1,1,0.0128,0.0011,-0.0113*
1,1,0.0128,-0.0011,-0.0113*
%
%ADD246ROUNDEDRECTD246*%
%ADD247R,0.0394X0.1339*%
%ADD248R,0.0240X0.0300*%
G04:AMPARAMS|DCode=249|XSize=67mil|YSize=75mil|CornerRadius=17.7mil|HoleSize=0mil|Usage=FLASHONLY|Rotation=90.000|XOffset=0mil|YOffset=0mil|HoleType=Round|Shape=RoundedRectangle|*
%AMROUNDEDRECTD249*
21,1,0.0670,0.0395,0,0,90.0*
21,1,0.0315,0.0750,0,0,90.0*
1,1,0.0355,0.0198,0.0158*
1,1,0.0355,0.0198,-0.0158*
1,1,0.0355,-0.0198,-0.0158*
1,1,0.0355,-0.0198,0.0158*
%
%ADD249ROUNDEDRECTD249*%
G04:AMPARAMS|DCode=250|XSize=67mil|YSize=75mil|CornerRadius=17.7mil|HoleSize=0mil|Usage=FLASHONLY|Rotation=180.000|XOffset=0mil|YOffset=0mil|HoleType=Round|Shape=RoundedRectangle|*
%AMROUNDEDRECTD250*
21,1,0.0670,0.0395,0,0,180.0*
21,1,0.0315,0.0750,0,0,180.0*
1,1,0.0355,-0.0158,0.0198*
1,1,0.0355,0.0158,0.0198*
1,1,0.0355,0.0158,-0.0198*
1,1,0.0355,-0.0158,-0.0198*
%
%ADD250ROUNDEDRECTD250*%
%ADD251R,0.0257X0.0237*%
%ADD252R,0.1379X0.0591*%
G04:AMPARAMS|DCode=253|XSize=56mil|YSize=64mil|CornerRadius=15mil|HoleSize=0mil|Usage=FLASHONLY|Rotation=180.000|XOffset=0mil|YOffset=0mil|HoleType=Round|Shape=RoundedRectangle|*
%AMROUNDEDRECTD253*
21,1,0.0560,0.0340,0,0,180.0*
21,1,0.0260,0.0640,0,0,180.0*
1,1,0.0300,-0.0130,0.0170*
1,1,0.0300,0.0130,0.0170*
1,1,0.0300,0.0130,-0.0170*
1,1,0.0300,-0.0130,-0.0170*
%
%ADD253ROUNDEDRECTD253*%
%ADD254R,0.0473X0.0709*%
G04:AMPARAMS|DCode=255|XSize=56mil|YSize=64mil|CornerRadius=15mil|HoleSize=0mil|Usage=FLASHONLY|Rotation=270.000|XOffset=0mil|YOffset=0mil|HoleType=Round|Shape=RoundedRectangle|*
%AMROUNDEDRECTD255*
21,1,0.0560,0.0340,0,0,270.0*
21,1,0.0260,0.0640,0,0,270.0*
1,1,0.0300,-0.0170,-0.0130*
1,1,0.0300,-0.0170,0.0130*
1,1,0.0300,0.0170,0.0130*
1,1,0.0300,0.0170,-0.0130*
%
%ADD255ROUNDEDRECTD255*%
%ADD256R,0.0591X0.1379*%
%ADD257R,0.0355X0.0158*%
%ADD258R,0.0600X0.0320*%
%ADD259R,0.1740X0.2010*%
%ADD260R,0.2010X0.1740*%
%ADD261R,0.0320X0.0600*%
G04:AMPARAMS|DCode=262|XSize=109mil|YSize=109mil|CornerRadius=28.3mil|HoleSize=0mil|Usage=FLASHONLY|Rotation=180.000|XOffset=0mil|YOffset=0mil|HoleType=Round|Shape=RoundedRectangle|*
%AMROUNDEDRECTD262*
21,1,0.1090,0.0525,0,0,180.0*
21,1,0.0525,0.1090,0,0,180.0*
1,1,0.0565,-0.0262,0.0262*
1,1,0.0565,0.0262,0.0262*
1,1,0.0565,0.0262,-0.0262*
1,1,0.0565,-0.0262,-0.0262*
%
%ADD262ROUNDEDRECTD262*%
%ADD263R,0.0482X0.0198*%
G04:AMPARAMS|DCode=264|XSize=137mil|YSize=87mil|CornerRadius=0mil|HoleSize=0mil|Usage=FLASHONLY|Rotation=270.000|XOffset=0mil|YOffset=0mil|HoleType=Round|Shape=Octagon|*
%AMOCTAGOND264*
4,1,8,-0.0217,-0.0685,0.0217,-0.0685,0.0435,-0.0467,0.0435,0.0467,0.0217,0.0685,-0.0217,0.0685,-0.0435,0.0467,-0.0435,-0.0467,-0.0217,-0.0685,0.0*
%
%ADD264OCTAGOND264*%

%ADD265C,0.0544*%
%ADD266R,0.0640X0.1240*%
%ADD267O,0.0640X0.1240*%
%ADD268O,0.1240X0.0640*%
%ADD269R,0.1240X0.0640*%
%ADD270P,0.0801X8X292.5*%
%ADD271C,0.1040*%
%ADD272C,0.0580*%
%ADD273C,0.1345*%
%ADD274P,0.0714X8X22.5*%
%ADD275O,0.0865X0.1690*%
%ADD276O,0.1340X0.1400*%
%ADD277R,0.0631X0.0631*%
%ADD278C,0.0631*%
%ADD279R,0.0631X0.0631*%
%ADD280C,0.0260*%
G54D12*
X28150Y109850D02*
X27750D01*
Y109250D01*
X28150D01*
X27750Y109550D02*
X27950D01*
X28350Y109250D02*
X28550D01*
X28450D01*
Y109650D01*
X28350D01*
X28850Y109250D02*
Y109650D01*
X29150D01*
X29250Y109550D01*
Y109250D01*
X29449D02*
X29749D01*
X29849Y109350D01*
X29749Y109450D01*
X29549D01*
X29449Y109550D01*
X29549Y109650D01*
X29849D01*
X30049D02*
Y109350D01*
X30149Y109250D01*
X30449D01*
Y109150D01*
X30349Y109050D01*
X30249D01*
X30449Y109250D02*
Y109650D01*
X31249Y109750D02*
X31349Y109850D01*
X31549D01*
X31649Y109750D01*
Y109350D01*
X31549Y109250D01*
X31349D01*
X31249Y109350D01*
Y109750D01*
X31849Y109250D02*
Y109350D01*
X31949D01*
Y109250D01*
X31849D01*
X32349Y109750D02*
X32448Y109850D01*
X32648D01*
X32748Y109750D01*
Y109650D01*
X32648Y109550D01*
X32548D01*
X32648D01*
X32748Y109450D01*
Y109350D01*
X32648Y109250D01*
X32448D01*
X32349Y109350D01*
X33048Y109650D02*
X33248D01*
X33348Y109550D01*
Y109250D01*
X33048D01*
X32948Y109350D01*
X33048Y109450D01*
X33348D01*
X27750Y108600D02*
X28150D01*
X27950D01*
Y108000D01*
X28450D02*
X28650D01*
X28750Y108100D01*
Y108300D01*
X28650Y108400D01*
X28450D01*
X28350Y108300D01*
Y108100D01*
X28450Y108000D01*
X28950Y107800D02*
Y108400D01*
X29250D01*
X29349Y108300D01*
Y108100D01*
X29250Y108000D01*
X28950D01*
X30549Y108500D02*
X30449Y108600D01*
X30249D01*
X30149Y108500D01*
Y108400D01*
X30249Y108300D01*
X30449D01*
X30549Y108200D01*
Y108100D01*
X30449Y108000D01*
X30249D01*
X30149Y108100D01*
X30849Y108000D02*
X31049D01*
X31149Y108100D01*
Y108300D01*
X31049Y108400D01*
X30849D01*
X30749Y108300D01*
Y108100D01*
X30849Y108000D01*
X31349D02*
X31549D01*
X31449D01*
Y108600D01*
X31349D01*
X32249D02*
Y108000D01*
X31949D01*
X31849Y108100D01*
Y108300D01*
X31949Y108400D01*
X32249D01*
X32748Y108000D02*
X32548D01*
X32448Y108100D01*
Y108300D01*
X32548Y108400D01*
X32748D01*
X32848Y108300D01*
Y108200D01*
X32448D01*
X33048Y108400D02*
Y108000D01*
Y108200D01*
X33148Y108300D01*
X33248Y108400D01*
X33348D01*
X33648Y108000D02*
Y108400D01*
X33748D01*
X33848Y108300D01*
Y108000D01*
Y108300D01*
X33948Y108400D01*
X34048Y108300D01*
Y108000D01*
X34348Y108400D02*
X34548D01*
X34648Y108300D01*
Y108000D01*
X34348D01*
X34248Y108100D01*
X34348Y108200D01*
X34648D01*
X34848Y108000D02*
X35148D01*
X35248Y108100D01*
X35148Y108200D01*
X34948D01*
X34848Y108300D01*
X34948Y108400D01*
X35248D01*
X35448Y108000D02*
Y108600D01*
Y108200D02*
X35747Y108400D01*
X35448Y108200D02*
X35747Y108000D01*
G54D40*
X14173Y12835D02*
D03*
X13386D02*
D03*
X12835Y13386D02*
D03*
Y14173D02*
D03*
X13386Y14724D02*
D03*
X14173D02*
D03*
X14724Y14173D02*
D03*
Y13386D02*
D03*
X14173Y36850D02*
D03*
X13386D02*
D03*
X12835Y37402D02*
D03*
Y38189D02*
D03*
X13386Y38740D02*
D03*
X14173D02*
D03*
X14724Y38189D02*
D03*
Y37402D02*
D03*
X51575Y36850D02*
D03*
X50787D02*
D03*
X50236Y37402D02*
D03*
Y38189D02*
D03*
X50787Y38740D02*
D03*
X51575D02*
D03*
X52126Y38189D02*
D03*
Y37402D02*
D03*
X51575Y12835D02*
D03*
X50787D02*
D03*
X50236Y13386D02*
D03*
Y14173D02*
D03*
X50787Y14724D02*
D03*
X51575D02*
D03*
X52126Y14173D02*
D03*
Y13386D02*
D03*
X14173Y40827D02*
D03*
X13386D02*
D03*
X12835Y41378D02*
D03*
Y42165D02*
D03*
X13386Y42717D02*
D03*
X14173D02*
D03*
X14724Y42165D02*
D03*
Y41378D02*
D03*
X14173Y64843D02*
D03*
X13386D02*
D03*
X12835Y65394D02*
D03*
Y66181D02*
D03*
X13386Y66732D02*
D03*
X14173D02*
D03*
X14724Y66181D02*
D03*
Y65394D02*
D03*
X51575Y64843D02*
D03*
X50787D02*
D03*
X50236Y65394D02*
D03*
Y66181D02*
D03*
X50787Y66732D02*
D03*
X51575D02*
D03*
X52126Y66181D02*
D03*
Y65394D02*
D03*
X51575Y40827D02*
D03*
X50787D02*
D03*
X50236Y41378D02*
D03*
Y42165D02*
D03*
X50787Y42717D02*
D03*
X51575D02*
D03*
X52126Y42165D02*
D03*
Y41378D02*
D03*
X14173Y68819D02*
D03*
X13386D02*
D03*
X12835Y69370D02*
D03*
Y70157D02*
D03*
X13386Y70709D02*
D03*
X14173D02*
D03*
X14724Y70157D02*
D03*
Y69370D02*
D03*
X14173Y92835D02*
D03*
X13386D02*
D03*
X12835Y93386D02*
D03*
Y94173D02*
D03*
X13386Y94724D02*
D03*
X14173D02*
D03*
X14724Y94173D02*
D03*
Y93386D02*
D03*
X51575Y92835D02*
D03*
X50787D02*
D03*
X50236Y93386D02*
D03*
Y94173D02*
D03*
X50787Y94724D02*
D03*
X51575D02*
D03*
X52126Y94173D02*
D03*
Y93386D02*
D03*
X51575Y68819D02*
D03*
X50787D02*
D03*
X50236Y69370D02*
D03*
Y70157D02*
D03*
X50787Y70709D02*
D03*
X51575D02*
D03*
X52126Y70157D02*
D03*
Y69370D02*
D03*
G54D117*
X32625Y18659D02*
D03*
X33492Y17359D02*
D03*
X33059D02*
D03*
X32625D02*
D03*
X33492Y17793D02*
D03*
X33059D02*
D03*
X32625D02*
D03*
X33492Y18226D02*
D03*
X33059D02*
D03*
X32625D02*
D03*
X33492Y18659D02*
D03*
X33059D02*
D03*
X23419D02*
D03*
X23852D02*
D03*
X22985Y18226D02*
D03*
X23419D02*
D03*
X23852D02*
D03*
X22985Y17793D02*
D03*
X23419D02*
D03*
X23852D02*
D03*
X22985Y17359D02*
D03*
X23419D02*
D03*
X23852D02*
D03*
X22985Y18659D02*
D03*
X18485D02*
D03*
X19352Y17359D02*
D03*
X18918D02*
D03*
X18485D02*
D03*
X19352Y17793D02*
D03*
X18918D02*
D03*
X18485D02*
D03*
X19352Y18226D02*
D03*
X18918D02*
D03*
X18485D02*
D03*
X19352Y18659D02*
D03*
X18918D02*
D03*
X14445Y19019D02*
D03*
X14878D02*
D03*
X14012Y18586D02*
D03*
X14445D02*
D03*
X14878D02*
D03*
X14012Y18153D02*
D03*
X14445D02*
D03*
X14878D02*
D03*
X14012Y17719D02*
D03*
X14445D02*
D03*
X14878D02*
D03*
X14012Y19019D02*
D03*
X20143Y29443D02*
D03*
Y29069D02*
D03*
Y28694D02*
D03*
X19769D02*
D03*
X19394Y28685D02*
D03*
X19396Y29069D02*
D03*
X19392Y29446D02*
D03*
X19769Y29443D02*
D03*
Y29069D02*
D03*
X39977Y17285D02*
D03*
Y17685D02*
D03*
X39577D02*
D03*
Y17285D02*
D03*
X39177D02*
D03*
Y17685D02*
D03*
X38777D02*
D03*
Y17285D02*
D03*
Y16485D02*
D03*
Y16085D02*
D03*
X39177D02*
D03*
Y16485D02*
D03*
X39577D02*
D03*
Y16085D02*
D03*
X39977D02*
D03*
Y16485D02*
D03*
Y16885D02*
D03*
X39577D02*
D03*
X38777D02*
D03*
X39177D02*
D03*
X43230Y30896D02*
D03*
Y31296D02*
D03*
Y30496D02*
D03*
Y30096D02*
D03*
X42830D02*
D03*
X42430D02*
D03*
Y30496D02*
D03*
X42830D02*
D03*
Y30896D02*
D03*
X42430D02*
D03*
Y31296D02*
D03*
X42830D02*
D03*
X43630D02*
D03*
X44030D02*
D03*
Y30896D02*
D03*
X43630D02*
D03*
Y30496D02*
D03*
X44030D02*
D03*
Y30096D02*
D03*
X43630D02*
D03*
X32625Y46651D02*
D03*
X33492Y45352D02*
D03*
X33059D02*
D03*
X32625D02*
D03*
X33492Y45785D02*
D03*
X33059D02*
D03*
X32625D02*
D03*
X33492Y46218D02*
D03*
X33059D02*
D03*
X32625D02*
D03*
X33492Y46651D02*
D03*
X33059D02*
D03*
X23419D02*
D03*
X23852D02*
D03*
X22985Y46218D02*
D03*
X23419D02*
D03*
X23852D02*
D03*
X22985Y45785D02*
D03*
X23419D02*
D03*
X23852D02*
D03*
X22985Y45352D02*
D03*
X23419D02*
D03*
X23852D02*
D03*
X22985Y46651D02*
D03*
X18485D02*
D03*
X19352Y45352D02*
D03*
X18918D02*
D03*
X18485D02*
D03*
X19352Y45785D02*
D03*
X18918D02*
D03*
X18485D02*
D03*
X19352Y46218D02*
D03*
X18918D02*
D03*
X18485D02*
D03*
X19352Y46651D02*
D03*
X18918D02*
D03*
X14445Y47011D02*
D03*
X14878D02*
D03*
X14012Y46578D02*
D03*
X14445D02*
D03*
X14878D02*
D03*
X14012Y46145D02*
D03*
X14445D02*
D03*
X14878D02*
D03*
X14012Y45712D02*
D03*
X14445D02*
D03*
X14878D02*
D03*
X14012Y47011D02*
D03*
X20143Y57435D02*
D03*
Y57061D02*
D03*
Y56687D02*
D03*
X19769D02*
D03*
X19394Y56677D02*
D03*
X19396Y57061D02*
D03*
X19392Y57438D02*
D03*
X19769Y57435D02*
D03*
Y57061D02*
D03*
X39977Y45277D02*
D03*
Y45677D02*
D03*
X39577D02*
D03*
Y45277D02*
D03*
X39177D02*
D03*
Y45677D02*
D03*
X38777D02*
D03*
Y45277D02*
D03*
Y44477D02*
D03*
Y44077D02*
D03*
X39177D02*
D03*
Y44477D02*
D03*
X39577D02*
D03*
Y44077D02*
D03*
X39977D02*
D03*
Y44477D02*
D03*
Y44877D02*
D03*
X39577D02*
D03*
X38777D02*
D03*
X39177D02*
D03*
X43230Y58888D02*
D03*
Y59288D02*
D03*
Y58488D02*
D03*
Y58088D02*
D03*
X42830D02*
D03*
X42430D02*
D03*
Y58488D02*
D03*
X42830D02*
D03*
Y58888D02*
D03*
X42430D02*
D03*
Y59288D02*
D03*
X42830D02*
D03*
X43630D02*
D03*
X44030D02*
D03*
Y58888D02*
D03*
X43630D02*
D03*
Y58488D02*
D03*
X44030D02*
D03*
Y58088D02*
D03*
X43630D02*
D03*
X32625Y74643D02*
D03*
X33492Y73344D02*
D03*
X33059D02*
D03*
X32625D02*
D03*
X33492Y73777D02*
D03*
X33059D02*
D03*
X32625D02*
D03*
X33492Y74210D02*
D03*
X33059D02*
D03*
X32625D02*
D03*
X33492Y74643D02*
D03*
X33059D02*
D03*
X23419D02*
D03*
X23852D02*
D03*
X22985Y74210D02*
D03*
X23419D02*
D03*
X23852D02*
D03*
X22985Y73777D02*
D03*
X23419D02*
D03*
X23852D02*
D03*
X22985Y73344D02*
D03*
X23419D02*
D03*
X23852D02*
D03*
X22985Y74643D02*
D03*
X18485D02*
D03*
X19352Y73344D02*
D03*
X18918D02*
D03*
X18485D02*
D03*
X19352Y73777D02*
D03*
X18918D02*
D03*
X18485D02*
D03*
X19352Y74210D02*
D03*
X18918D02*
D03*
X18485D02*
D03*
X19352Y74643D02*
D03*
X18918D02*
D03*
X14445Y75003D02*
D03*
X14878D02*
D03*
X14012Y74570D02*
D03*
X14445D02*
D03*
X14878D02*
D03*
X14012Y74137D02*
D03*
X14445D02*
D03*
X14878D02*
D03*
X14012Y73704D02*
D03*
X14445D02*
D03*
X14878D02*
D03*
X14012Y75003D02*
D03*
X20143Y85427D02*
D03*
Y85053D02*
D03*
Y84679D02*
D03*
X19769D02*
D03*
X19394Y84669D02*
D03*
X19396Y85053D02*
D03*
X19392Y85430D02*
D03*
X19769Y85427D02*
D03*
Y85053D02*
D03*
X39977Y73270D02*
D03*
Y73670D02*
D03*
X39577D02*
D03*
Y73270D02*
D03*
X39177D02*
D03*
Y73670D02*
D03*
X38777D02*
D03*
Y73270D02*
D03*
Y72470D02*
D03*
Y72070D02*
D03*
X39177D02*
D03*
Y72470D02*
D03*
X39577D02*
D03*
Y72070D02*
D03*
X39977D02*
D03*
Y72470D02*
D03*
Y72870D02*
D03*
X39577D02*
D03*
X38777D02*
D03*
X39177D02*
D03*
X43230Y86880D02*
D03*
Y87280D02*
D03*
Y86480D02*
D03*
Y86080D02*
D03*
X42830D02*
D03*
X42430D02*
D03*
Y86480D02*
D03*
X42830D02*
D03*
Y86880D02*
D03*
X42430D02*
D03*
Y87280D02*
D03*
X42830D02*
D03*
X43630D02*
D03*
X44030D02*
D03*
Y86880D02*
D03*
X43630D02*
D03*
Y86480D02*
D03*
X44030D02*
D03*
Y86080D02*
D03*
X43630D02*
D03*
G54D131*
X52175Y16024D02*
D03*
Y44016D02*
D03*
Y72008D02*
D03*
G54D211*
X38135Y37726D02*
D03*
Y36726D02*
D03*
Y35726D02*
D03*
Y34726D02*
D03*
Y33726D02*
D03*
Y65718D02*
D03*
Y64718D02*
D03*
Y63718D02*
D03*
Y62718D02*
D03*
Y61718D02*
D03*
Y93710D02*
D03*
Y92710D02*
D03*
Y91710D02*
D03*
Y90710D02*
D03*
Y89710D02*
D03*
G54D212*
X22910Y25944D02*
D03*
X22910Y25694D02*
D03*
X22910Y25444D02*
D03*
X22910Y25194D02*
D03*
X22910Y24944D02*
D03*
X22910Y24694D02*
D03*
Y24444D02*
D03*
X22910Y24194D02*
D03*
X20870D02*
D03*
X20870Y24444D02*
D03*
Y24694D02*
D03*
X20870Y24944D02*
D03*
X20870Y25194D02*
D03*
Y25444D02*
D03*
X20870Y25694D02*
D03*
X20870Y25944D02*
D03*
X22910Y53936D02*
D03*
X22910Y53686D02*
D03*
X22910Y53436D02*
D03*
X22910Y53186D02*
D03*
X22910Y52936D02*
D03*
X22910Y52686D02*
D03*
Y52436D02*
D03*
X22910Y52186D02*
D03*
X20870D02*
D03*
X20870Y52436D02*
D03*
Y52686D02*
D03*
X20870Y52936D02*
D03*
X20870Y53186D02*
D03*
Y53436D02*
D03*
X20870Y53686D02*
D03*
X20870Y53936D02*
D03*
X22910Y81928D02*
D03*
X22910Y81678D02*
D03*
X22910Y81428D02*
D03*
X22910Y81178D02*
D03*
X22910Y80928D02*
D03*
X22910Y80678D02*
D03*
Y80428D02*
D03*
X22910Y80178D02*
D03*
X20870D02*
D03*
X20870Y80428D02*
D03*
Y80678D02*
D03*
X20870Y80928D02*
D03*
X20870Y81178D02*
D03*
Y81428D02*
D03*
X20870Y81678D02*
D03*
X20870Y81928D02*
D03*
G54D213*
X22915Y25944D02*
D03*
X22915Y25694D02*
D03*
X22915Y25444D02*
D03*
X22915Y25194D02*
D03*
X22915Y24944D02*
D03*
X22915Y24694D02*
D03*
X22915Y24444D02*
D03*
X22915Y24194D02*
D03*
X20865Y24194D02*
D03*
X20865Y24444D02*
D03*
Y24694D02*
D03*
X20865Y24944D02*
D03*
X20865Y25194D02*
D03*
Y25444D02*
D03*
X20865Y25694D02*
D03*
Y25944D02*
D03*
X22915Y53936D02*
D03*
X22915Y53686D02*
D03*
X22915Y53436D02*
D03*
X22915Y53186D02*
D03*
X22915Y52936D02*
D03*
X22915Y52686D02*
D03*
X22915Y52436D02*
D03*
X22915Y52186D02*
D03*
X20865Y52186D02*
D03*
X20865Y52436D02*
D03*
Y52686D02*
D03*
X20865Y52936D02*
D03*
X20865Y53186D02*
D03*
Y53436D02*
D03*
X20865Y53686D02*
D03*
Y53936D02*
D03*
X22915Y81928D02*
D03*
X22915Y81678D02*
D03*
X22915Y81428D02*
D03*
X22915Y81178D02*
D03*
X22915Y80928D02*
D03*
X22915Y80678D02*
D03*
X22915Y80428D02*
D03*
X22915Y80178D02*
D03*
X20865Y80178D02*
D03*
X20865Y80428D02*
D03*
Y80678D02*
D03*
X20865Y80928D02*
D03*
X20865Y81178D02*
D03*
Y81428D02*
D03*
X20865Y81678D02*
D03*
Y81928D02*
D03*
G54D214*
X13061Y10561D02*
D03*
X51800Y10600D02*
D03*
Y96998D02*
D03*
G54D215*
X39367Y13247D02*
D03*
X40944D02*
D03*
X41496Y23598D02*
D03*
X39918D02*
D03*
X40953Y14445D02*
D03*
X39376D02*
D03*
X40381Y37619D02*
D03*
X41958D02*
D03*
X39367Y41239D02*
D03*
X40944D02*
D03*
X41496Y51591D02*
D03*
X39918D02*
D03*
X40953Y42437D02*
D03*
X39376D02*
D03*
X40381Y65611D02*
D03*
X41958D02*
D03*
X39367Y69231D02*
D03*
X40944D02*
D03*
X41496Y79583D02*
D03*
X39918D02*
D03*
X40953Y70430D02*
D03*
X39376D02*
D03*
X40381Y93603D02*
D03*
X41958D02*
D03*
G54D216*
X48579Y13641D02*
D03*
Y14176D02*
D03*
Y14821D02*
D03*
Y15356D02*
D03*
X17418Y28586D02*
D03*
Y28051D02*
D03*
X17419Y29636D02*
D03*
Y29101D02*
D03*
X16238Y20536D02*
D03*
Y20001D02*
D03*
X16824Y15411D02*
D03*
Y15946D02*
D03*
X16244Y15948D02*
D03*
Y15413D02*
D03*
X14598Y20951D02*
D03*
Y21486D02*
D03*
X15668Y16086D02*
D03*
Y15551D02*
D03*
X15099Y15691D02*
D03*
Y16226D02*
D03*
X42799Y35726D02*
D03*
Y35191D02*
D03*
X42238Y23341D02*
D03*
Y23876D02*
D03*
X20728Y19661D02*
D03*
Y20196D02*
D03*
X20681Y15739D02*
D03*
Y15203D02*
D03*
X19198Y20761D02*
D03*
Y21296D02*
D03*
X19601Y15739D02*
D03*
Y15203D02*
D03*
X27629Y18316D02*
D03*
Y17781D02*
D03*
X23631Y15899D02*
D03*
Y15363D02*
D03*
X34848Y19701D02*
D03*
Y20236D02*
D03*
X35708Y15281D02*
D03*
Y15816D02*
D03*
X34588Y15143D02*
D03*
Y15678D02*
D03*
X33359Y20771D02*
D03*
Y21306D02*
D03*
X48579Y41633D02*
D03*
Y42168D02*
D03*
Y42813D02*
D03*
Y43348D02*
D03*
X17418Y56578D02*
D03*
Y56043D02*
D03*
X17419Y57628D02*
D03*
Y57093D02*
D03*
X16238Y48528D02*
D03*
Y47993D02*
D03*
X16824Y43403D02*
D03*
Y43938D02*
D03*
X16244Y43941D02*
D03*
Y43405D02*
D03*
X14598Y48943D02*
D03*
Y49478D02*
D03*
X15668Y44078D02*
D03*
Y43543D02*
D03*
X15099Y43683D02*
D03*
Y44218D02*
D03*
X42799Y63718D02*
D03*
Y63183D02*
D03*
X42238Y51333D02*
D03*
Y51868D02*
D03*
X20728Y47653D02*
D03*
Y48188D02*
D03*
X20681Y43731D02*
D03*
Y43195D02*
D03*
X19198Y48753D02*
D03*
Y49288D02*
D03*
X19601Y43731D02*
D03*
Y43195D02*
D03*
X27629Y46308D02*
D03*
Y45773D02*
D03*
X23631Y43891D02*
D03*
Y43355D02*
D03*
X34848Y47693D02*
D03*
Y48228D02*
D03*
X35708Y43273D02*
D03*
Y43808D02*
D03*
X34588Y43135D02*
D03*
Y43671D02*
D03*
X33359Y48763D02*
D03*
Y49298D02*
D03*
X48579Y69625D02*
D03*
Y70160D02*
D03*
Y70805D02*
D03*
Y71340D02*
D03*
X17418Y84571D02*
D03*
Y84035D02*
D03*
X17419Y85620D02*
D03*
Y85085D02*
D03*
X16238Y76520D02*
D03*
Y75985D02*
D03*
X16824Y71395D02*
D03*
Y71930D02*
D03*
X16244Y71933D02*
D03*
Y71397D02*
D03*
X14598Y76935D02*
D03*
Y77470D02*
D03*
X15668Y72070D02*
D03*
Y71535D02*
D03*
X15099Y71675D02*
D03*
Y72210D02*
D03*
X42799Y91710D02*
D03*
Y91175D02*
D03*
X42238Y79325D02*
D03*
Y79860D02*
D03*
X20728Y75645D02*
D03*
Y76180D02*
D03*
X20681Y71723D02*
D03*
Y71188D02*
D03*
X19198Y76745D02*
D03*
Y77280D02*
D03*
X19601Y71723D02*
D03*
Y71188D02*
D03*
X27629Y74300D02*
D03*
Y73765D02*
D03*
X23631Y71883D02*
D03*
Y71348D02*
D03*
X34848Y75685D02*
D03*
Y76220D02*
D03*
X35708Y71265D02*
D03*
Y71800D02*
D03*
X34588Y71127D02*
D03*
Y71663D02*
D03*
X33359Y76755D02*
D03*
Y77290D02*
D03*
G54D217*
X47839Y15210D02*
D03*
Y13587D02*
D03*
Y43202D02*
D03*
Y41580D02*
D03*
Y71194D02*
D03*
Y69572D02*
D03*
G54D218*
X47541Y12989D02*
D03*
X48076D02*
D03*
X17546Y24078D02*
D03*
X18081D02*
D03*
X31251Y22859D02*
D03*
X31786D02*
D03*
X12501Y16759D02*
D03*
X13036D02*
D03*
X15871Y16599D02*
D03*
X16406D02*
D03*
X15646Y20498D02*
D03*
X15111D02*
D03*
X40661Y15249D02*
D03*
X41196D02*
D03*
X43511Y23779D02*
D03*
X44046D02*
D03*
X42881Y33879D02*
D03*
X43416D02*
D03*
X46546Y21128D02*
D03*
X46011D02*
D03*
X45476D02*
D03*
X44941D02*
D03*
X46011Y21688D02*
D03*
X46546D02*
D03*
X24366Y14828D02*
D03*
X23831D02*
D03*
X16903Y16501D02*
D03*
X17439D02*
D03*
X18511Y15008D02*
D03*
X19046D02*
D03*
X20011Y16279D02*
D03*
X20546D02*
D03*
X20106Y20248D02*
D03*
X19571D02*
D03*
X24931Y16288D02*
D03*
X25466D02*
D03*
X24596Y20248D02*
D03*
X24061D02*
D03*
X25756Y19678D02*
D03*
X25221D02*
D03*
X29431Y17779D02*
D03*
X29966D02*
D03*
X23216Y20319D02*
D03*
X22681D02*
D03*
X25056Y15628D02*
D03*
X24521D02*
D03*
X21946Y16358D02*
D03*
X21411D02*
D03*
X35066Y16219D02*
D03*
X34531D02*
D03*
X33691Y20238D02*
D03*
X34226D02*
D03*
X32331Y14878D02*
D03*
X32866D02*
D03*
X30601Y17239D02*
D03*
X31136D02*
D03*
X33826Y15698D02*
D03*
X33291D02*
D03*
X47541Y40981D02*
D03*
X48076D02*
D03*
X17546Y52071D02*
D03*
X18081D02*
D03*
X31251Y50851D02*
D03*
X31786D02*
D03*
X12501Y44751D02*
D03*
X13036D02*
D03*
X15871Y44591D02*
D03*
X16406D02*
D03*
X15646Y48491D02*
D03*
X15111D02*
D03*
X40661Y43241D02*
D03*
X41196D02*
D03*
X43511Y51771D02*
D03*
X44046D02*
D03*
X42881Y61871D02*
D03*
X43416D02*
D03*
X46546Y49121D02*
D03*
X46011D02*
D03*
X45476D02*
D03*
X44941D02*
D03*
X46011Y49681D02*
D03*
X46546D02*
D03*
X24366Y42821D02*
D03*
X23831D02*
D03*
X16903Y44493D02*
D03*
X17439D02*
D03*
X18511Y43001D02*
D03*
X19046D02*
D03*
X20011Y44271D02*
D03*
X20546D02*
D03*
X20106Y48241D02*
D03*
X19571D02*
D03*
X24931Y44281D02*
D03*
X25466D02*
D03*
X24596Y48241D02*
D03*
X24061D02*
D03*
X25756Y47671D02*
D03*
X25221D02*
D03*
X29431Y45771D02*
D03*
X29966D02*
D03*
X23216Y48311D02*
D03*
X22681D02*
D03*
X25056Y43621D02*
D03*
X24521D02*
D03*
X21946Y44351D02*
D03*
X21411D02*
D03*
X35066Y44211D02*
D03*
X34531D02*
D03*
X33691Y48231D02*
D03*
X34226D02*
D03*
X32331Y42871D02*
D03*
X32866D02*
D03*
X30601Y45231D02*
D03*
X31136D02*
D03*
X33826Y43691D02*
D03*
X33291D02*
D03*
X47541Y68973D02*
D03*
X48076D02*
D03*
X17546Y80063D02*
D03*
X18081D02*
D03*
X31251Y78843D02*
D03*
X31786D02*
D03*
X12501Y72743D02*
D03*
X13036D02*
D03*
X15871Y72583D02*
D03*
X16406D02*
D03*
X15646Y76483D02*
D03*
X15111D02*
D03*
X40661Y71233D02*
D03*
X41196D02*
D03*
X43511Y79763D02*
D03*
X44046D02*
D03*
X42881Y89863D02*
D03*
X43416D02*
D03*
X46546Y77113D02*
D03*
X46011D02*
D03*
X45476D02*
D03*
X44941D02*
D03*
X46011Y77673D02*
D03*
X46546D02*
D03*
X24366Y70813D02*
D03*
X23831D02*
D03*
X16903Y72485D02*
D03*
X17439D02*
D03*
X18511Y70993D02*
D03*
X19046D02*
D03*
X20011Y72263D02*
D03*
X20546D02*
D03*
X20106Y76233D02*
D03*
X19571D02*
D03*
X24931Y72273D02*
D03*
X25466D02*
D03*
X24596Y76233D02*
D03*
X24061D02*
D03*
X25756Y75663D02*
D03*
X25221D02*
D03*
X29431Y73763D02*
D03*
X29966D02*
D03*
X23216Y76303D02*
D03*
X22681D02*
D03*
X25056Y71613D02*
D03*
X24521D02*
D03*
X21946Y72343D02*
D03*
X21411D02*
D03*
X35066Y72203D02*
D03*
X34531D02*
D03*
X33691Y76223D02*
D03*
X34226D02*
D03*
X32331Y70863D02*
D03*
X32866D02*
D03*
X30601Y73223D02*
D03*
X31136D02*
D03*
X33826Y71683D02*
D03*
X33291D02*
D03*
G54D219*
X35090Y32118D02*
D03*
X35468D02*
D03*
X34150Y32129D02*
D03*
X34529D02*
D03*
X24000Y32729D02*
D03*
X24378D02*
D03*
X24480Y31918D02*
D03*
X24859D02*
D03*
X27000Y32608D02*
D03*
X27378D02*
D03*
X31857Y24049D02*
D03*
X31479D02*
D03*
X26777Y23449D02*
D03*
X27155D02*
D03*
X23130Y29218D02*
D03*
X23509D02*
D03*
X25780Y32229D02*
D03*
X26158D02*
D03*
X32310Y26344D02*
D03*
X32689D02*
D03*
X32310Y26734D02*
D03*
X32689D02*
D03*
X32030Y24784D02*
D03*
X32408D02*
D03*
X14092Y31618D02*
D03*
X14471D02*
D03*
X33170Y32109D02*
D03*
X33549D02*
D03*
X40261Y31411D02*
D03*
X39882D02*
D03*
X40812D02*
D03*
X41191D02*
D03*
X39881Y31841D02*
D03*
X40260D02*
D03*
X33658Y28728D02*
D03*
X34037D02*
D03*
X14090Y30808D02*
D03*
X14468D02*
D03*
X33589Y25498D02*
D03*
X33210D02*
D03*
X39367Y18838D02*
D03*
X38988D02*
D03*
X41118Y18779D02*
D03*
X40740D02*
D03*
X31380Y31658D02*
D03*
X31758D02*
D03*
X43049Y28019D02*
D03*
X42670D02*
D03*
X32087Y30008D02*
D03*
X31709D02*
D03*
X17930Y28658D02*
D03*
X18309D02*
D03*
Y29069D02*
D03*
X17930D02*
D03*
X34037Y29148D02*
D03*
X33658D02*
D03*
X41190Y31841D02*
D03*
X40811D02*
D03*
X46698Y35679D02*
D03*
X46320D02*
D03*
X22474Y32741D02*
D03*
X22851D02*
D03*
X26087Y31839D02*
D03*
X25708D02*
D03*
X39800Y25738D02*
D03*
X40178D02*
D03*
X40177Y25329D02*
D03*
X39799D02*
D03*
X32887Y27638D02*
D03*
X32508D02*
D03*
X33419Y24169D02*
D03*
X33040D02*
D03*
X41177Y24448D02*
D03*
X40799D02*
D03*
X46200Y39009D02*
D03*
X46578D02*
D03*
X46577Y38268D02*
D03*
X46199D02*
D03*
X19432Y35531D02*
D03*
X19811D02*
D03*
X19810Y36361D02*
D03*
X19431D02*
D03*
X19810Y35951D02*
D03*
X19431D02*
D03*
X18212Y33561D02*
D03*
X18591D02*
D03*
X18305Y27619D02*
D03*
X17929D02*
D03*
X40975Y39049D02*
D03*
X40599D02*
D03*
X27058Y39228D02*
D03*
X27436D02*
D03*
X36221Y21688D02*
D03*
X36598D02*
D03*
X16349Y19548D02*
D03*
X15971D02*
D03*
X15486Y20029D02*
D03*
X15108D02*
D03*
X15969Y18269D02*
D03*
X16345D02*
D03*
X32096Y29075D02*
D03*
X32473D02*
D03*
X28185Y23386D02*
D03*
X27808D02*
D03*
X17608Y25368D02*
D03*
X17232D02*
D03*
X18305Y28259D02*
D03*
X17929D02*
D03*
X23128Y28634D02*
D03*
X22752D02*
D03*
X18305Y29499D02*
D03*
X17929D02*
D03*
X19231Y27039D02*
D03*
X19609D02*
D03*
X19415Y27686D02*
D03*
X19792D02*
D03*
X23565Y26721D02*
D03*
X23188D02*
D03*
X32254Y28661D02*
D03*
X32631D02*
D03*
X32092Y29588D02*
D03*
X32469D02*
D03*
X30033Y21097D02*
D03*
X29656D02*
D03*
X29546Y19463D02*
D03*
X29923D02*
D03*
X28875Y21107D02*
D03*
X29252D02*
D03*
X29142Y19473D02*
D03*
X28765D02*
D03*
X28127Y21107D02*
D03*
X28504D02*
D03*
X28365Y19473D02*
D03*
X27988D02*
D03*
X32889Y28019D02*
D03*
X32511D02*
D03*
X45936Y36728D02*
D03*
X45559D02*
D03*
X20802Y19188D02*
D03*
X20425D02*
D03*
X20066Y19778D02*
D03*
X19689D02*
D03*
X20449Y17909D02*
D03*
X20826D02*
D03*
X24941Y19198D02*
D03*
X25319D02*
D03*
X24565Y19778D02*
D03*
X24188D02*
D03*
X25445Y17909D02*
D03*
X25069D02*
D03*
X34969Y19198D02*
D03*
X34592D02*
D03*
X34195Y19769D02*
D03*
X33819D02*
D03*
X34629Y17868D02*
D03*
X35006D02*
D03*
X40799Y24878D02*
D03*
X41175D02*
D03*
X41809Y27459D02*
D03*
X41430D02*
D03*
X23349Y29899D02*
D03*
X23727D02*
D03*
X24288D02*
D03*
X24667D02*
D03*
X32938Y27139D02*
D03*
X32560D02*
D03*
X23698Y31929D02*
D03*
X24077D02*
D03*
X41809Y27848D02*
D03*
X41430D02*
D03*
X35090Y60111D02*
D03*
X35468D02*
D03*
X34150Y60121D02*
D03*
X34529D02*
D03*
X24000Y60721D02*
D03*
X24378D02*
D03*
X24480Y59911D02*
D03*
X24859D02*
D03*
X27000Y60601D02*
D03*
X27378D02*
D03*
X31857Y52041D02*
D03*
X31479D02*
D03*
X26777Y51441D02*
D03*
X27155D02*
D03*
X23130Y57211D02*
D03*
X23509D02*
D03*
X25780Y60221D02*
D03*
X26158D02*
D03*
X32310Y54336D02*
D03*
X32689D02*
D03*
X32310Y54726D02*
D03*
X32689D02*
D03*
X32030Y52776D02*
D03*
X32408D02*
D03*
X14092Y59611D02*
D03*
X14471D02*
D03*
X33170Y60101D02*
D03*
X33549D02*
D03*
X40261Y59403D02*
D03*
X39882D02*
D03*
X40812D02*
D03*
X41191D02*
D03*
X39881Y59833D02*
D03*
X40260D02*
D03*
X33658Y56721D02*
D03*
X34037D02*
D03*
X14090Y58801D02*
D03*
X14468D02*
D03*
X33589Y53491D02*
D03*
X33210D02*
D03*
X39367Y46831D02*
D03*
X38988D02*
D03*
X41118Y46771D02*
D03*
X40740D02*
D03*
X31380Y59651D02*
D03*
X31758D02*
D03*
X43049Y56011D02*
D03*
X42670D02*
D03*
X32087Y58001D02*
D03*
X31709D02*
D03*
X17930Y56651D02*
D03*
X18309D02*
D03*
Y57061D02*
D03*
X17930D02*
D03*
X34037Y57141D02*
D03*
X33658D02*
D03*
X41190Y59833D02*
D03*
X40811D02*
D03*
X46698Y63671D02*
D03*
X46320D02*
D03*
X22474Y60733D02*
D03*
X22851D02*
D03*
X26087Y59831D02*
D03*
X25708D02*
D03*
X39800Y53731D02*
D03*
X40178D02*
D03*
X40177Y53321D02*
D03*
X39799D02*
D03*
X32887Y55631D02*
D03*
X32508D02*
D03*
X33419Y52161D02*
D03*
X33040D02*
D03*
X41177Y52441D02*
D03*
X40799D02*
D03*
X46200Y67001D02*
D03*
X46578D02*
D03*
X46577Y66261D02*
D03*
X46199D02*
D03*
X19432Y63523D02*
D03*
X19811D02*
D03*
X19810Y64353D02*
D03*
X19431D02*
D03*
X19810Y63943D02*
D03*
X19431D02*
D03*
X18212Y61553D02*
D03*
X18591D02*
D03*
X18305Y55611D02*
D03*
X17929D02*
D03*
X40975Y67041D02*
D03*
X40599D02*
D03*
X27058Y67221D02*
D03*
X27436D02*
D03*
X36221Y49681D02*
D03*
X36598D02*
D03*
X16349Y47541D02*
D03*
X15971D02*
D03*
X15486Y48021D02*
D03*
X15108D02*
D03*
X15969Y46261D02*
D03*
X16345D02*
D03*
X32096Y57067D02*
D03*
X32473D02*
D03*
X28185Y51379D02*
D03*
X27808D02*
D03*
X17608Y53361D02*
D03*
X17232D02*
D03*
X18305Y56251D02*
D03*
X17929D02*
D03*
X23128Y56626D02*
D03*
X22752D02*
D03*
X18305Y57491D02*
D03*
X17929D02*
D03*
X19231Y55031D02*
D03*
X19609D02*
D03*
X19415Y55679D02*
D03*
X19792D02*
D03*
X23565Y54713D02*
D03*
X23188D02*
D03*
X32254Y56654D02*
D03*
X32631D02*
D03*
X32092Y57581D02*
D03*
X32469D02*
D03*
X30033Y49089D02*
D03*
X29656D02*
D03*
X29546Y47455D02*
D03*
X29923D02*
D03*
X28875Y49099D02*
D03*
X29252D02*
D03*
X29142Y47465D02*
D03*
X28765D02*
D03*
X28127Y49099D02*
D03*
X28504D02*
D03*
X28365Y47465D02*
D03*
X27988D02*
D03*
X32889Y56011D02*
D03*
X32511D02*
D03*
X45936Y64721D02*
D03*
X45559D02*
D03*
X20802Y47181D02*
D03*
X20425D02*
D03*
X20066Y47771D02*
D03*
X19689D02*
D03*
X20449Y45901D02*
D03*
X20826D02*
D03*
X24941Y47191D02*
D03*
X25319D02*
D03*
X24565Y47771D02*
D03*
X24188D02*
D03*
X25445Y45901D02*
D03*
X25069D02*
D03*
X34969Y47191D02*
D03*
X34592D02*
D03*
X34195Y47761D02*
D03*
X33819D02*
D03*
X34629Y45861D02*
D03*
X35006D02*
D03*
X40799Y52871D02*
D03*
X41175D02*
D03*
X41809Y55451D02*
D03*
X41430D02*
D03*
X23349Y57891D02*
D03*
X23727D02*
D03*
X24288D02*
D03*
X24667D02*
D03*
X32938Y55131D02*
D03*
X32560D02*
D03*
X23698Y59921D02*
D03*
X24077D02*
D03*
X41809Y55841D02*
D03*
X41430D02*
D03*
X35090Y88103D02*
D03*
X35468D02*
D03*
X34150Y88113D02*
D03*
X34529D02*
D03*
X24000Y88713D02*
D03*
X24378D02*
D03*
X24480Y87903D02*
D03*
X24859D02*
D03*
X27000Y88593D02*
D03*
X27378D02*
D03*
X31857Y80033D02*
D03*
X31479D02*
D03*
X26777Y79433D02*
D03*
X27155D02*
D03*
X23130Y85203D02*
D03*
X23509D02*
D03*
X25780Y88213D02*
D03*
X26158D02*
D03*
X32310Y82328D02*
D03*
X32689D02*
D03*
X32310Y82718D02*
D03*
X32689D02*
D03*
X32030Y80768D02*
D03*
X32408D02*
D03*
X14092Y87603D02*
D03*
X14471D02*
D03*
X33170Y88093D02*
D03*
X33549D02*
D03*
X40261Y87395D02*
D03*
X39882D02*
D03*
X40812D02*
D03*
X41191D02*
D03*
X39881Y87825D02*
D03*
X40260D02*
D03*
X33658Y84713D02*
D03*
X34037D02*
D03*
X14090Y86793D02*
D03*
X14468D02*
D03*
X33589Y81483D02*
D03*
X33210D02*
D03*
X39367Y74823D02*
D03*
X38988D02*
D03*
X41118Y74763D02*
D03*
X40740D02*
D03*
X31380Y87643D02*
D03*
X31758D02*
D03*
X43049Y84003D02*
D03*
X42670D02*
D03*
X32087Y85993D02*
D03*
X31709D02*
D03*
X17930Y84643D02*
D03*
X18309D02*
D03*
Y85053D02*
D03*
X17930D02*
D03*
X34037Y85133D02*
D03*
X33658D02*
D03*
X41190Y87825D02*
D03*
X40811D02*
D03*
X46698Y91663D02*
D03*
X46320D02*
D03*
X22474Y88725D02*
D03*
X22851D02*
D03*
X26087Y87823D02*
D03*
X25708D02*
D03*
X39800Y81723D02*
D03*
X40178D02*
D03*
X40177Y81313D02*
D03*
X39799D02*
D03*
X32887Y83623D02*
D03*
X32508D02*
D03*
X33419Y80153D02*
D03*
X33040D02*
D03*
X41177Y80433D02*
D03*
X40799D02*
D03*
X46200Y94993D02*
D03*
X46578D02*
D03*
X46577Y94253D02*
D03*
X46199D02*
D03*
X19432Y91515D02*
D03*
X19811D02*
D03*
X19810Y92345D02*
D03*
X19431D02*
D03*
X19810Y91935D02*
D03*
X19431D02*
D03*
X18212Y89545D02*
D03*
X18591D02*
D03*
X18305Y83603D02*
D03*
X17929D02*
D03*
X40975Y95033D02*
D03*
X40599D02*
D03*
X27058Y95213D02*
D03*
X27436D02*
D03*
X36221Y77673D02*
D03*
X36598D02*
D03*
X16349Y75533D02*
D03*
X15971D02*
D03*
X15486Y76013D02*
D03*
X15108D02*
D03*
X15969Y74253D02*
D03*
X16345D02*
D03*
X32096Y85059D02*
D03*
X32473D02*
D03*
X28185Y79371D02*
D03*
X27808D02*
D03*
X17608Y81353D02*
D03*
X17232D02*
D03*
X18305Y84243D02*
D03*
X17929D02*
D03*
X23128Y84618D02*
D03*
X22752D02*
D03*
X18305Y85483D02*
D03*
X17929D02*
D03*
X19231Y83023D02*
D03*
X19609D02*
D03*
X19415Y83671D02*
D03*
X19792D02*
D03*
X23565Y82705D02*
D03*
X23188D02*
D03*
X32254Y84646D02*
D03*
X32631D02*
D03*
X32092Y85573D02*
D03*
X32469D02*
D03*
X30033Y77081D02*
D03*
X29656D02*
D03*
X29546Y75447D02*
D03*
X29923D02*
D03*
X28875Y77091D02*
D03*
X29252D02*
D03*
X29142Y75457D02*
D03*
X28765D02*
D03*
X28127Y77091D02*
D03*
X28504D02*
D03*
X28365Y75457D02*
D03*
X27988D02*
D03*
X32889Y84003D02*
D03*
X32511D02*
D03*
X45936Y92713D02*
D03*
X45559D02*
D03*
X20802Y75173D02*
D03*
X20425D02*
D03*
X20066Y75763D02*
D03*
X19689D02*
D03*
X20449Y73893D02*
D03*
X20826D02*
D03*
X24941Y75183D02*
D03*
X25319D02*
D03*
X24565Y75763D02*
D03*
X24188D02*
D03*
X25445Y73893D02*
D03*
X25069D02*
D03*
X34969Y75183D02*
D03*
X34592D02*
D03*
X34195Y75753D02*
D03*
X33819D02*
D03*
X34629Y73853D02*
D03*
X35006D02*
D03*
X40799Y80863D02*
D03*
X41175D02*
D03*
X41809Y83443D02*
D03*
X41430D02*
D03*
X23349Y85883D02*
D03*
X23727D02*
D03*
X24288D02*
D03*
X24667D02*
D03*
X32938Y83123D02*
D03*
X32560D02*
D03*
X23698Y87913D02*
D03*
X24077D02*
D03*
X41809Y83833D02*
D03*
X41430D02*
D03*
G54D220*
X27088Y31507D02*
D03*
Y31128D02*
D03*
X24974Y32400D02*
D03*
Y32778D02*
D03*
X29599Y31250D02*
D03*
Y31628D02*
D03*
X30178Y31260D02*
D03*
Y31639D02*
D03*
X30749Y31260D02*
D03*
Y31639D02*
D03*
X23249Y32369D02*
D03*
Y32747D02*
D03*
X28051Y21920D02*
D03*
Y21541D02*
D03*
X22841Y31962D02*
D03*
Y32341D02*
D03*
X22431D02*
D03*
Y31962D02*
D03*
X21001Y32122D02*
D03*
Y32501D02*
D03*
X39884Y32887D02*
D03*
Y32508D02*
D03*
X16759Y17750D02*
D03*
Y18128D02*
D03*
X15149Y33159D02*
D03*
Y33537D02*
D03*
X15998Y31950D02*
D03*
Y31571D02*
D03*
X46276Y33136D02*
D03*
Y32757D02*
D03*
X40638Y25957D02*
D03*
Y25578D02*
D03*
X39539Y27109D02*
D03*
Y27487D02*
D03*
X16914Y30458D02*
D03*
Y30079D02*
D03*
X26609Y31458D02*
D03*
Y31837D02*
D03*
X33609Y26328D02*
D03*
Y25950D02*
D03*
X33038Y23767D02*
D03*
Y23389D02*
D03*
X33238Y28749D02*
D03*
Y29127D02*
D03*
X46358Y36479D02*
D03*
Y36100D02*
D03*
X45578Y37529D02*
D03*
Y37150D02*
D03*
X45978Y37148D02*
D03*
Y37527D02*
D03*
X21219Y17560D02*
D03*
Y17938D02*
D03*
X25619Y18738D02*
D03*
Y18360D02*
D03*
X35268D02*
D03*
Y18738D02*
D03*
X21401Y32498D02*
D03*
Y32121D02*
D03*
X21811Y32498D02*
D03*
Y32121D02*
D03*
X23249Y31969D02*
D03*
Y31590D02*
D03*
X25384Y32778D02*
D03*
Y32400D02*
D03*
X40294Y32887D02*
D03*
Y32508D02*
D03*
X33198Y26328D02*
D03*
Y25950D02*
D03*
X40221Y39051D02*
D03*
Y38672D02*
D03*
X39821Y39051D02*
D03*
Y38672D02*
D03*
X39889Y33354D02*
D03*
Y33733D02*
D03*
X19421Y24131D02*
D03*
Y24510D02*
D03*
X19021Y35960D02*
D03*
Y35581D02*
D03*
X13029Y17718D02*
D03*
Y17342D02*
D03*
X16178Y19095D02*
D03*
Y18719D02*
D03*
X24299Y28389D02*
D03*
Y28765D02*
D03*
X31888Y25384D02*
D03*
Y25761D02*
D03*
X14739Y33535D02*
D03*
Y33159D02*
D03*
X17699Y26409D02*
D03*
Y26031D02*
D03*
X22648Y27499D02*
D03*
Y27875D02*
D03*
X28798Y31339D02*
D03*
Y30961D02*
D03*
X20305Y23996D02*
D03*
Y24373D02*
D03*
X23484Y24402D02*
D03*
Y24025D02*
D03*
X23474Y26152D02*
D03*
Y25775D02*
D03*
X20295Y25716D02*
D03*
Y26093D02*
D03*
X16314Y30082D02*
D03*
Y30459D02*
D03*
X20638Y18736D02*
D03*
Y18359D02*
D03*
X17488Y17378D02*
D03*
Y17002D02*
D03*
X25138Y18359D02*
D03*
Y18736D02*
D03*
X21999Y17488D02*
D03*
Y17112D02*
D03*
X34788Y18736D02*
D03*
Y18359D02*
D03*
X31639Y17469D02*
D03*
Y17091D02*
D03*
X40289Y33731D02*
D03*
Y33354D02*
D03*
X43701Y27591D02*
D03*
Y27970D02*
D03*
X44111Y27591D02*
D03*
Y27970D02*
D03*
X27088Y59500D02*
D03*
Y59121D02*
D03*
X24974Y60392D02*
D03*
Y60771D02*
D03*
X29599Y59242D02*
D03*
Y59621D02*
D03*
X30178Y59252D02*
D03*
Y59631D02*
D03*
X30749Y59252D02*
D03*
Y59631D02*
D03*
X23249Y60361D02*
D03*
Y60740D02*
D03*
X28051Y49912D02*
D03*
Y49533D02*
D03*
X22841Y59954D02*
D03*
Y60333D02*
D03*
X22431D02*
D03*
Y59954D02*
D03*
X21001Y60114D02*
D03*
Y60493D02*
D03*
X39884Y60880D02*
D03*
Y60501D02*
D03*
X16759Y45742D02*
D03*
Y46121D02*
D03*
X15149Y61151D02*
D03*
Y61530D02*
D03*
X15998Y59942D02*
D03*
Y59563D02*
D03*
X46276Y61128D02*
D03*
Y60749D02*
D03*
X40638Y53950D02*
D03*
Y53571D02*
D03*
X39539Y55101D02*
D03*
Y55480D02*
D03*
X16914Y58450D02*
D03*
Y58071D02*
D03*
X26609Y59451D02*
D03*
Y59830D02*
D03*
X33609Y54321D02*
D03*
Y53942D02*
D03*
X33038Y51760D02*
D03*
Y51381D02*
D03*
X33238Y56741D02*
D03*
Y57120D02*
D03*
X46358Y64471D02*
D03*
Y64092D02*
D03*
X45578Y65521D02*
D03*
Y65142D02*
D03*
X45978Y65141D02*
D03*
Y65520D02*
D03*
X21219Y45552D02*
D03*
Y45931D02*
D03*
X25619Y46731D02*
D03*
Y46352D02*
D03*
X35268D02*
D03*
Y46731D02*
D03*
X21401Y60490D02*
D03*
Y60113D02*
D03*
X21811Y60490D02*
D03*
Y60113D02*
D03*
X23249Y59961D02*
D03*
Y59582D02*
D03*
X25384Y60771D02*
D03*
Y60392D02*
D03*
X40294Y60880D02*
D03*
Y60501D02*
D03*
X33198Y54321D02*
D03*
Y53942D02*
D03*
X40221Y67043D02*
D03*
Y66664D02*
D03*
X39821Y67043D02*
D03*
Y66664D02*
D03*
X39889Y61346D02*
D03*
Y61725D02*
D03*
X19421Y52123D02*
D03*
Y52502D02*
D03*
X19021Y63952D02*
D03*
Y63573D02*
D03*
X13029Y45711D02*
D03*
Y45334D02*
D03*
X16178Y47088D02*
D03*
Y46711D02*
D03*
X24299Y56381D02*
D03*
Y56758D02*
D03*
X31888Y53376D02*
D03*
Y53753D02*
D03*
X14739Y61528D02*
D03*
Y61151D02*
D03*
X17699Y54401D02*
D03*
Y54024D02*
D03*
X22648Y55491D02*
D03*
Y55868D02*
D03*
X28798Y59331D02*
D03*
Y58954D02*
D03*
X20305Y51988D02*
D03*
Y52365D02*
D03*
X23484Y52394D02*
D03*
Y52017D02*
D03*
X23474Y54144D02*
D03*
Y53767D02*
D03*
X20295Y53708D02*
D03*
Y54085D02*
D03*
X16314Y58074D02*
D03*
Y58451D02*
D03*
X20638Y46728D02*
D03*
Y46351D02*
D03*
X17488Y45371D02*
D03*
Y44994D02*
D03*
X25138Y46351D02*
D03*
Y46728D02*
D03*
X21999Y45481D02*
D03*
Y45104D02*
D03*
X34788Y46728D02*
D03*
Y46351D02*
D03*
X31639Y45461D02*
D03*
Y45084D02*
D03*
X40289Y61723D02*
D03*
Y61346D02*
D03*
X43701Y55583D02*
D03*
Y55962D02*
D03*
X44111Y55583D02*
D03*
Y55962D02*
D03*
X27088Y87492D02*
D03*
Y87113D02*
D03*
X24974Y88384D02*
D03*
Y88763D02*
D03*
X29599Y87234D02*
D03*
Y87613D02*
D03*
X30178Y87244D02*
D03*
Y87623D02*
D03*
X30749Y87244D02*
D03*
Y87623D02*
D03*
X23249Y88353D02*
D03*
Y88732D02*
D03*
X28051Y77904D02*
D03*
Y77525D02*
D03*
X22841Y87946D02*
D03*
Y88325D02*
D03*
X22431D02*
D03*
Y87946D02*
D03*
X21001Y88106D02*
D03*
Y88485D02*
D03*
X39884Y88872D02*
D03*
Y88493D02*
D03*
X16759Y73734D02*
D03*
Y74113D02*
D03*
X15149Y89143D02*
D03*
Y89522D02*
D03*
X15998Y87934D02*
D03*
Y87555D02*
D03*
X46276Y89120D02*
D03*
Y88741D02*
D03*
X40638Y81942D02*
D03*
Y81563D02*
D03*
X39539Y83093D02*
D03*
Y83472D02*
D03*
X16914Y86442D02*
D03*
Y86063D02*
D03*
X26609Y87443D02*
D03*
Y87822D02*
D03*
X33609Y82313D02*
D03*
Y81934D02*
D03*
X33038Y79752D02*
D03*
Y79373D02*
D03*
X33238Y84733D02*
D03*
Y85112D02*
D03*
X46358Y92463D02*
D03*
Y92084D02*
D03*
X45578Y93513D02*
D03*
Y93134D02*
D03*
X45978Y93133D02*
D03*
Y93512D02*
D03*
X21219Y73544D02*
D03*
Y73923D02*
D03*
X25619Y74723D02*
D03*
Y74344D02*
D03*
X35268D02*
D03*
Y74723D02*
D03*
X21401Y88482D02*
D03*
Y88105D02*
D03*
X21811Y88482D02*
D03*
Y88105D02*
D03*
X23249Y87953D02*
D03*
Y87574D02*
D03*
X25384Y88763D02*
D03*
Y88384D02*
D03*
X40294Y88872D02*
D03*
Y88493D02*
D03*
X33198Y82313D02*
D03*
Y81934D02*
D03*
X40221Y95035D02*
D03*
Y94656D02*
D03*
X39821Y95035D02*
D03*
Y94656D02*
D03*
X39889Y89338D02*
D03*
Y89717D02*
D03*
X19421Y80115D02*
D03*
Y80494D02*
D03*
X19021Y91944D02*
D03*
Y91565D02*
D03*
X13029Y73703D02*
D03*
Y73326D02*
D03*
X16178Y75080D02*
D03*
Y74703D02*
D03*
X24299Y84373D02*
D03*
Y84750D02*
D03*
X31888Y81368D02*
D03*
Y81745D02*
D03*
X14739Y89520D02*
D03*
Y89143D02*
D03*
X17699Y82393D02*
D03*
Y82016D02*
D03*
X22648Y83483D02*
D03*
Y83860D02*
D03*
X28798Y87323D02*
D03*
Y86946D02*
D03*
X20305Y79980D02*
D03*
Y80357D02*
D03*
X23484Y80386D02*
D03*
Y80009D02*
D03*
X23474Y82136D02*
D03*
Y81759D02*
D03*
X20295Y81700D02*
D03*
Y82077D02*
D03*
X16314Y86066D02*
D03*
Y86443D02*
D03*
X20638Y74720D02*
D03*
Y74343D02*
D03*
X17488Y73363D02*
D03*
Y72986D02*
D03*
X25138Y74343D02*
D03*
Y74720D02*
D03*
X21999Y73473D02*
D03*
Y73096D02*
D03*
X34788Y74720D02*
D03*
Y74343D02*
D03*
X31639Y73453D02*
D03*
Y73076D02*
D03*
X40289Y89715D02*
D03*
Y89338D02*
D03*
X43701Y83575D02*
D03*
Y83954D02*
D03*
X44111Y83575D02*
D03*
Y83954D02*
D03*
G54D221*
X25473Y14511D02*
D03*
X24949D02*
D03*
X21943Y14951D02*
D03*
X21419D02*
D03*
X20133Y14461D02*
D03*
X19609D02*
D03*
X18973Y14471D02*
D03*
X18449D02*
D03*
X18300Y27159D02*
D03*
X17777D02*
D03*
X32990Y30029D02*
D03*
X32467D02*
D03*
X31117Y16368D02*
D03*
X31640D02*
D03*
X22599Y14951D02*
D03*
X23123D02*
D03*
X23907Y31379D02*
D03*
X24430D02*
D03*
X27060Y17189D02*
D03*
X26537D02*
D03*
X28430D02*
D03*
X27907D02*
D03*
X29520D02*
D03*
X28997D02*
D03*
X33870Y14839D02*
D03*
X33347D02*
D03*
X25473Y42503D02*
D03*
X24949D02*
D03*
X21943Y42943D02*
D03*
X21419D02*
D03*
X20133Y42453D02*
D03*
X19609D02*
D03*
X18973Y42463D02*
D03*
X18449D02*
D03*
X18300Y55151D02*
D03*
X17777D02*
D03*
X32990Y58021D02*
D03*
X32467D02*
D03*
X31117Y44361D02*
D03*
X31640D02*
D03*
X22599Y42943D02*
D03*
X23123D02*
D03*
X23907Y59371D02*
D03*
X24430D02*
D03*
X27060Y45181D02*
D03*
X26537D02*
D03*
X28430D02*
D03*
X27907D02*
D03*
X29520D02*
D03*
X28997D02*
D03*
X33870Y42831D02*
D03*
X33347D02*
D03*
X25473Y70495D02*
D03*
X24949D02*
D03*
X21943Y70935D02*
D03*
X21419D02*
D03*
X20133Y70445D02*
D03*
X19609D02*
D03*
X18973Y70455D02*
D03*
X18449D02*
D03*
X18300Y83143D02*
D03*
X17777D02*
D03*
X32990Y86013D02*
D03*
X32467D02*
D03*
X31117Y72353D02*
D03*
X31640D02*
D03*
X22599Y70935D02*
D03*
X23123D02*
D03*
X23907Y87363D02*
D03*
X24430D02*
D03*
X27060Y73173D02*
D03*
X26537D02*
D03*
X28430D02*
D03*
X27907D02*
D03*
X29520D02*
D03*
X28997D02*
D03*
X33870Y70823D02*
D03*
X33347D02*
D03*
G54D222*
X20141Y15279D02*
D03*
Y15803D02*
D03*
X17691Y14447D02*
D03*
Y14971D02*
D03*
X15911Y14449D02*
D03*
Y14973D02*
D03*
X32299Y24140D02*
D03*
Y23617D02*
D03*
X16741Y14449D02*
D03*
Y14973D02*
D03*
X31739Y14387D02*
D03*
Y14910D02*
D03*
X35148Y14997D02*
D03*
Y15520D02*
D03*
X20141Y43271D02*
D03*
Y43795D02*
D03*
X17691Y42440D02*
D03*
Y42963D02*
D03*
X15911Y42441D02*
D03*
Y42965D02*
D03*
X32299Y52132D02*
D03*
Y51609D02*
D03*
X16741Y42441D02*
D03*
Y42965D02*
D03*
X31739Y42379D02*
D03*
Y42902D02*
D03*
X35148Y42989D02*
D03*
Y43512D02*
D03*
X20141Y71263D02*
D03*
Y71787D02*
D03*
X17691Y70432D02*
D03*
Y70955D02*
D03*
X15911Y70433D02*
D03*
Y70957D02*
D03*
X32299Y80125D02*
D03*
Y79601D02*
D03*
X16741Y70433D02*
D03*
Y70957D02*
D03*
X31739Y70371D02*
D03*
Y70895D02*
D03*
X35148Y70981D02*
D03*
Y71505D02*
D03*
G54D223*
X20661Y33596D02*
D03*
Y35986D02*
D03*
X21661Y33596D02*
D03*
Y35986D02*
D03*
X22661Y33596D02*
D03*
Y35986D02*
D03*
X23661Y33596D02*
D03*
Y35986D02*
D03*
X24661Y33596D02*
D03*
Y35986D02*
D03*
X25661Y33596D02*
D03*
Y35986D02*
D03*
X26661Y33596D02*
D03*
Y35986D02*
D03*
X20661Y61588D02*
D03*
Y63978D02*
D03*
X21661Y61588D02*
D03*
Y63978D02*
D03*
X22661Y61588D02*
D03*
Y63978D02*
D03*
X23661Y61588D02*
D03*
Y63978D02*
D03*
X24661Y61588D02*
D03*
Y63978D02*
D03*
X25661Y61588D02*
D03*
Y63978D02*
D03*
X26661Y61588D02*
D03*
Y63978D02*
D03*
X20661Y89580D02*
D03*
Y91970D02*
D03*
X21661Y89580D02*
D03*
Y91970D02*
D03*
X22661Y89580D02*
D03*
Y91970D02*
D03*
X23661Y89580D02*
D03*
Y91970D02*
D03*
X24661Y89580D02*
D03*
Y91970D02*
D03*
X25661Y89580D02*
D03*
Y91970D02*
D03*
X26661Y89580D02*
D03*
Y91970D02*
D03*
G54D224*
X33059Y18009D02*
D03*
X23419D02*
D03*
X18918D02*
D03*
X14445Y18369D02*
D03*
X33059Y46001D02*
D03*
X23419D02*
D03*
X18918D02*
D03*
X14445Y46361D02*
D03*
X33059Y73993D02*
D03*
X23419D02*
D03*
X18918D02*
D03*
X14445Y74353D02*
D03*
G54D225*
X32370Y19161D02*
D03*
X32566D02*
D03*
X32763D02*
D03*
X32960D02*
D03*
X33157D02*
D03*
X33354D02*
D03*
X33551D02*
D03*
X33747D02*
D03*
Y16857D02*
D03*
X33551D02*
D03*
X33354D02*
D03*
X33157D02*
D03*
X32960D02*
D03*
X32763D02*
D03*
X32566D02*
D03*
X32370D02*
D03*
X22730D02*
D03*
X22926D02*
D03*
X23123D02*
D03*
X23320D02*
D03*
X23517D02*
D03*
X23714D02*
D03*
X23911D02*
D03*
X24107D02*
D03*
Y19161D02*
D03*
X23911D02*
D03*
X23714D02*
D03*
X23517D02*
D03*
X23320D02*
D03*
X23123D02*
D03*
X22926D02*
D03*
X22730D02*
D03*
X18230D02*
D03*
X18426D02*
D03*
X18623D02*
D03*
X18820D02*
D03*
X19017D02*
D03*
X19214D02*
D03*
X19411D02*
D03*
X19607D02*
D03*
Y16857D02*
D03*
X19411D02*
D03*
X19214D02*
D03*
X19017D02*
D03*
X18820D02*
D03*
X18623D02*
D03*
X18426D02*
D03*
X18230D02*
D03*
X13756Y17217D02*
D03*
X13953D02*
D03*
X14149D02*
D03*
X14346D02*
D03*
X14543D02*
D03*
X14740D02*
D03*
X14937D02*
D03*
X15134D02*
D03*
Y19521D02*
D03*
X14937D02*
D03*
X14740D02*
D03*
X14543D02*
D03*
X14346D02*
D03*
X14149D02*
D03*
X13953D02*
D03*
X13756D02*
D03*
X32370Y47153D02*
D03*
X32566D02*
D03*
X32763D02*
D03*
X32960D02*
D03*
X33157D02*
D03*
X33354D02*
D03*
X33551D02*
D03*
X33747D02*
D03*
Y44850D02*
D03*
X33551D02*
D03*
X33354D02*
D03*
X33157D02*
D03*
X32960D02*
D03*
X32763D02*
D03*
X32566D02*
D03*
X32370D02*
D03*
X22730D02*
D03*
X22926D02*
D03*
X23123D02*
D03*
X23320D02*
D03*
X23517D02*
D03*
X23714D02*
D03*
X23911D02*
D03*
X24107D02*
D03*
Y47153D02*
D03*
X23911D02*
D03*
X23714D02*
D03*
X23517D02*
D03*
X23320D02*
D03*
X23123D02*
D03*
X22926D02*
D03*
X22730D02*
D03*
X18230D02*
D03*
X18426D02*
D03*
X18623D02*
D03*
X18820D02*
D03*
X19017D02*
D03*
X19214D02*
D03*
X19411D02*
D03*
X19607D02*
D03*
Y44850D02*
D03*
X19411D02*
D03*
X19214D02*
D03*
X19017D02*
D03*
X18820D02*
D03*
X18623D02*
D03*
X18426D02*
D03*
X18230D02*
D03*
X13756Y45210D02*
D03*
X13953D02*
D03*
X14149D02*
D03*
X14346D02*
D03*
X14543D02*
D03*
X14740D02*
D03*
X14937D02*
D03*
X15134D02*
D03*
Y47513D02*
D03*
X14937D02*
D03*
X14740D02*
D03*
X14543D02*
D03*
X14346D02*
D03*
X14149D02*
D03*
X13953D02*
D03*
X13756D02*
D03*
X32370Y75145D02*
D03*
X32566D02*
D03*
X32763D02*
D03*
X32960D02*
D03*
X33157D02*
D03*
X33354D02*
D03*
X33551D02*
D03*
X33747D02*
D03*
Y72842D02*
D03*
X33551D02*
D03*
X33354D02*
D03*
X33157D02*
D03*
X32960D02*
D03*
X32763D02*
D03*
X32566D02*
D03*
X32370D02*
D03*
X22730D02*
D03*
X22926D02*
D03*
X23123D02*
D03*
X23320D02*
D03*
X23517D02*
D03*
X23714D02*
D03*
X23911D02*
D03*
X24107D02*
D03*
Y75145D02*
D03*
X23911D02*
D03*
X23714D02*
D03*
X23517D02*
D03*
X23320D02*
D03*
X23123D02*
D03*
X22926D02*
D03*
X22730D02*
D03*
X18230D02*
D03*
X18426D02*
D03*
X18623D02*
D03*
X18820D02*
D03*
X19017D02*
D03*
X19214D02*
D03*
X19411D02*
D03*
X19607D02*
D03*
Y72842D02*
D03*
X19411D02*
D03*
X19214D02*
D03*
X19017D02*
D03*
X18820D02*
D03*
X18623D02*
D03*
X18426D02*
D03*
X18230D02*
D03*
X13756Y73202D02*
D03*
X13953D02*
D03*
X14149D02*
D03*
X14346D02*
D03*
X14543D02*
D03*
X14740D02*
D03*
X14937D02*
D03*
X15134D02*
D03*
Y75505D02*
D03*
X14937D02*
D03*
X14740D02*
D03*
X14543D02*
D03*
X14346D02*
D03*
X14149D02*
D03*
X13953D02*
D03*
X13756D02*
D03*
G54D226*
X34013Y18895D02*
D03*
Y18698D02*
D03*
Y18501D02*
D03*
Y18304D02*
D03*
Y18107D02*
D03*
Y17911D02*
D03*
Y17714D02*
D03*
Y17517D02*
D03*
Y17320D02*
D03*
Y17123D02*
D03*
X32104D02*
D03*
Y17320D02*
D03*
Y17517D02*
D03*
Y17714D02*
D03*
Y17911D02*
D03*
Y18107D02*
D03*
Y18304D02*
D03*
Y18501D02*
D03*
Y18698D02*
D03*
Y18895D02*
D03*
X22464D02*
D03*
Y18698D02*
D03*
Y18501D02*
D03*
Y18304D02*
D03*
Y18107D02*
D03*
Y17911D02*
D03*
Y17714D02*
D03*
Y17517D02*
D03*
Y17320D02*
D03*
Y17123D02*
D03*
X24373D02*
D03*
Y17320D02*
D03*
Y17517D02*
D03*
Y17714D02*
D03*
Y17911D02*
D03*
Y18107D02*
D03*
Y18304D02*
D03*
Y18501D02*
D03*
Y18698D02*
D03*
Y18895D02*
D03*
X19873D02*
D03*
Y18698D02*
D03*
Y18501D02*
D03*
Y18304D02*
D03*
Y18107D02*
D03*
Y17911D02*
D03*
Y17714D02*
D03*
Y17517D02*
D03*
Y17320D02*
D03*
Y17123D02*
D03*
X17964D02*
D03*
Y17320D02*
D03*
Y17517D02*
D03*
Y17714D02*
D03*
Y17911D02*
D03*
Y18107D02*
D03*
Y18304D02*
D03*
Y18501D02*
D03*
Y18698D02*
D03*
Y18895D02*
D03*
X13490Y19255D02*
D03*
Y19058D02*
D03*
Y18861D02*
D03*
Y18664D02*
D03*
Y18467D02*
D03*
Y18271D02*
D03*
Y18074D02*
D03*
Y17877D02*
D03*
Y17680D02*
D03*
Y17483D02*
D03*
X15399D02*
D03*
Y17680D02*
D03*
Y17877D02*
D03*
Y18074D02*
D03*
Y18271D02*
D03*
Y18467D02*
D03*
Y18664D02*
D03*
Y18861D02*
D03*
Y19058D02*
D03*
Y19255D02*
D03*
X34013Y46887D02*
D03*
Y46690D02*
D03*
Y46493D02*
D03*
Y46296D02*
D03*
Y46100D02*
D03*
Y45903D02*
D03*
Y45706D02*
D03*
Y45509D02*
D03*
Y45312D02*
D03*
Y45115D02*
D03*
X32104D02*
D03*
Y45312D02*
D03*
Y45509D02*
D03*
Y45706D02*
D03*
Y45903D02*
D03*
Y46100D02*
D03*
Y46296D02*
D03*
Y46493D02*
D03*
Y46690D02*
D03*
Y46887D02*
D03*
X22464D02*
D03*
Y46690D02*
D03*
Y46493D02*
D03*
Y46296D02*
D03*
Y46100D02*
D03*
Y45903D02*
D03*
Y45706D02*
D03*
Y45509D02*
D03*
Y45312D02*
D03*
Y45115D02*
D03*
X24373D02*
D03*
Y45312D02*
D03*
Y45509D02*
D03*
Y45706D02*
D03*
Y45903D02*
D03*
Y46100D02*
D03*
Y46296D02*
D03*
Y46493D02*
D03*
Y46690D02*
D03*
Y46887D02*
D03*
X19873D02*
D03*
Y46690D02*
D03*
Y46493D02*
D03*
Y46296D02*
D03*
Y46100D02*
D03*
Y45903D02*
D03*
Y45706D02*
D03*
Y45509D02*
D03*
Y45312D02*
D03*
Y45115D02*
D03*
X17964D02*
D03*
Y45312D02*
D03*
Y45509D02*
D03*
Y45706D02*
D03*
Y45903D02*
D03*
Y46100D02*
D03*
Y46296D02*
D03*
Y46493D02*
D03*
Y46690D02*
D03*
Y46887D02*
D03*
X13490Y47247D02*
D03*
Y47050D02*
D03*
Y46853D02*
D03*
Y46656D02*
D03*
Y46460D02*
D03*
Y46263D02*
D03*
Y46066D02*
D03*
Y45869D02*
D03*
Y45672D02*
D03*
Y45475D02*
D03*
X15399D02*
D03*
Y45672D02*
D03*
Y45869D02*
D03*
Y46066D02*
D03*
Y46263D02*
D03*
Y46460D02*
D03*
Y46656D02*
D03*
Y46853D02*
D03*
Y47050D02*
D03*
Y47247D02*
D03*
X34013Y74879D02*
D03*
Y74682D02*
D03*
Y74485D02*
D03*
Y74289D02*
D03*
Y74092D02*
D03*
Y73895D02*
D03*
Y73698D02*
D03*
Y73501D02*
D03*
Y73304D02*
D03*
Y73107D02*
D03*
X32104D02*
D03*
Y73304D02*
D03*
Y73501D02*
D03*
Y73698D02*
D03*
Y73895D02*
D03*
Y74092D02*
D03*
Y74289D02*
D03*
Y74485D02*
D03*
Y74682D02*
D03*
Y74879D02*
D03*
X22464D02*
D03*
Y74682D02*
D03*
Y74485D02*
D03*
Y74289D02*
D03*
Y74092D02*
D03*
Y73895D02*
D03*
Y73698D02*
D03*
Y73501D02*
D03*
Y73304D02*
D03*
Y73107D02*
D03*
X24373D02*
D03*
Y73304D02*
D03*
Y73501D02*
D03*
Y73698D02*
D03*
Y73895D02*
D03*
Y74092D02*
D03*
Y74289D02*
D03*
Y74485D02*
D03*
Y74682D02*
D03*
Y74879D02*
D03*
X19873D02*
D03*
Y74682D02*
D03*
Y74485D02*
D03*
Y74289D02*
D03*
Y74092D02*
D03*
Y73895D02*
D03*
Y73698D02*
D03*
Y73501D02*
D03*
Y73304D02*
D03*
Y73107D02*
D03*
X17964D02*
D03*
Y73304D02*
D03*
Y73501D02*
D03*
Y73698D02*
D03*
Y73895D02*
D03*
Y74092D02*
D03*
Y74289D02*
D03*
Y74485D02*
D03*
Y74682D02*
D03*
Y74879D02*
D03*
X13490Y75239D02*
D03*
Y75042D02*
D03*
Y74845D02*
D03*
Y74649D02*
D03*
Y74452D02*
D03*
Y74255D02*
D03*
Y74058D02*
D03*
Y73861D02*
D03*
Y73664D02*
D03*
Y73467D02*
D03*
X15399D02*
D03*
Y73664D02*
D03*
Y73861D02*
D03*
Y74058D02*
D03*
Y74255D02*
D03*
Y74452D02*
D03*
Y74649D02*
D03*
Y74845D02*
D03*
Y75042D02*
D03*
Y75239D02*
D03*
G54D227*
X24258Y24569D02*
D03*
X27676Y20123D02*
D03*
X30478Y18678D02*
D03*
X30408Y20048D02*
D03*
X24258Y52561D02*
D03*
X27676Y48115D02*
D03*
X30478Y46671D02*
D03*
X30408Y48041D02*
D03*
X24258Y80553D02*
D03*
X27676Y76107D02*
D03*
X30478Y74663D02*
D03*
X30408Y76033D02*
D03*
G54D228*
X39889Y18269D02*
D03*
X39055D02*
D03*
X12599Y30819D02*
D03*
X13432D02*
D03*
X12599Y31618D02*
D03*
X13432D02*
D03*
X39889Y46261D02*
D03*
X39055D02*
D03*
X12599Y58811D02*
D03*
X13432D02*
D03*
X12599Y59611D02*
D03*
X13432D02*
D03*
X39889Y74253D02*
D03*
X39055D02*
D03*
X12599Y86803D02*
D03*
X13432D02*
D03*
X12599Y87603D02*
D03*
X13432D02*
D03*
G54D229*
X46799Y32789D02*
D03*
Y33622D02*
D03*
X40089Y27998D02*
D03*
Y27165D02*
D03*
X41139Y26518D02*
D03*
Y25685D02*
D03*
X21486Y28127D02*
D03*
Y27293D02*
D03*
X21496Y28743D02*
D03*
Y29577D02*
D03*
X46799Y60781D02*
D03*
Y61614D02*
D03*
X40089Y55991D02*
D03*
Y55157D02*
D03*
X41139Y54511D02*
D03*
Y53677D02*
D03*
X21486Y56119D02*
D03*
Y55285D02*
D03*
X21496Y56736D02*
D03*
Y57569D02*
D03*
X46799Y88773D02*
D03*
Y89606D02*
D03*
X40089Y83983D02*
D03*
Y83149D02*
D03*
X41139Y82503D02*
D03*
Y81669D02*
D03*
X21486Y84111D02*
D03*
Y83278D02*
D03*
X21496Y84728D02*
D03*
Y85561D02*
D03*
G54D230*
X40889Y36306D02*
D03*
Y34731D02*
D03*
Y64298D02*
D03*
Y62723D02*
D03*
Y92290D02*
D03*
Y90715D02*
D03*
G54D231*
X23844Y27216D02*
D03*
Y28128D02*
D03*
X23110D02*
D03*
Y27216D02*
D03*
X23844Y55208D02*
D03*
Y56121D02*
D03*
X23110D02*
D03*
Y55208D02*
D03*
X23844Y83200D02*
D03*
Y84113D02*
D03*
X23110D02*
D03*
Y83200D02*
D03*
G54D232*
X19816Y34731D02*
D03*
X19146D02*
D03*
X19696Y34141D02*
D03*
X19026D02*
D03*
X41426Y33371D02*
D03*
X40756D02*
D03*
X40473Y24889D02*
D03*
X39804D02*
D03*
X40473Y24429D02*
D03*
X39804D02*
D03*
X41426Y32881D02*
D03*
X40756D02*
D03*
X33693Y25069D02*
D03*
X33024D02*
D03*
X33698Y24609D02*
D03*
X33029D02*
D03*
X33424Y26769D02*
D03*
X34093D02*
D03*
X34073Y29578D02*
D03*
X33404D02*
D03*
X34073Y30038D02*
D03*
X33404D02*
D03*
X33424Y27229D02*
D03*
X34093D02*
D03*
X19816Y62723D02*
D03*
X19146D02*
D03*
X19696Y62133D02*
D03*
X19026D02*
D03*
X41426Y61363D02*
D03*
X40756D02*
D03*
X40473Y52881D02*
D03*
X39804D02*
D03*
X40473Y52421D02*
D03*
X39804D02*
D03*
X41426Y60873D02*
D03*
X40756D02*
D03*
X33693Y53061D02*
D03*
X33024D02*
D03*
X33698Y52601D02*
D03*
X33029D02*
D03*
X33424Y54761D02*
D03*
X34093D02*
D03*
X34073Y57571D02*
D03*
X33404D02*
D03*
X34073Y58031D02*
D03*
X33404D02*
D03*
X33424Y55221D02*
D03*
X34093D02*
D03*
X19816Y90715D02*
D03*
X19146D02*
D03*
X19696Y90125D02*
D03*
X19026D02*
D03*
X41426Y89355D02*
D03*
X40756D02*
D03*
X40473Y80873D02*
D03*
X39804D02*
D03*
X40473Y80413D02*
D03*
X39804D02*
D03*
X41426Y88865D02*
D03*
X40756D02*
D03*
X33693Y81053D02*
D03*
X33024D02*
D03*
X33698Y80593D02*
D03*
X33029D02*
D03*
X33424Y82753D02*
D03*
X34093D02*
D03*
X34073Y85563D02*
D03*
X33404D02*
D03*
X34073Y86023D02*
D03*
X33404D02*
D03*
X33424Y83213D02*
D03*
X34093D02*
D03*
G54D233*
X15610Y30121D02*
D03*
Y30994D02*
D03*
Y58113D02*
D03*
Y58986D02*
D03*
Y86105D02*
D03*
Y86978D02*
D03*
G54D234*
X42862Y24549D02*
D03*
Y26920D02*
D03*
Y52541D02*
D03*
Y54913D02*
D03*
Y80534D02*
D03*
Y82905D02*
D03*
G54D235*
X46679Y30501D02*
D03*
Y32078D02*
D03*
Y58493D02*
D03*
Y60071D02*
D03*
Y86485D02*
D03*
Y88063D02*
D03*
G54D236*
X15568Y33053D02*
D03*
Y33604D02*
D03*
X16500Y31474D02*
D03*
Y32025D02*
D03*
X15568Y61045D02*
D03*
Y61596D02*
D03*
X16500Y59466D02*
D03*
Y60017D02*
D03*
X15568Y89037D02*
D03*
Y89588D02*
D03*
X16500Y87458D02*
D03*
Y88010D02*
D03*
G54D237*
X18196Y25854D02*
D03*
X19109D02*
D03*
Y26589D02*
D03*
X18196D02*
D03*
Y53846D02*
D03*
X19109D02*
D03*
Y54581D02*
D03*
X18196D02*
D03*
Y81839D02*
D03*
X19109D02*
D03*
Y82573D02*
D03*
X18196D02*
D03*
G54D238*
X44917Y20348D02*
D03*
X46540D02*
D03*
X44917Y48341D02*
D03*
X46540D02*
D03*
X44917Y76333D02*
D03*
X46540D02*
D03*
G54D239*
X12451Y39094D02*
D03*
X52480Y12451D02*
D03*
X12451Y12490D02*
D03*
Y67087D02*
D03*
X52480Y40443D02*
D03*
X12451Y40482D02*
D03*
Y95079D02*
D03*
X52480Y68435D02*
D03*
X12451Y68474D02*
D03*
G54D240*
X40749Y30853D02*
D03*
Y28680D02*
D03*
X41249Y30853D02*
D03*
X40249D02*
D03*
X39749D02*
D03*
X41249Y28680D02*
D03*
X40249D02*
D03*
X39749D02*
D03*
X40749Y58845D02*
D03*
Y56672D02*
D03*
X41249Y58845D02*
D03*
X40249D02*
D03*
X39749D02*
D03*
X41249Y56672D02*
D03*
X40249D02*
D03*
X39749D02*
D03*
X40749Y86837D02*
D03*
Y84664D02*
D03*
X41249Y86837D02*
D03*
X40249D02*
D03*
X39749D02*
D03*
X41249Y84664D02*
D03*
X40249D02*
D03*
X39749D02*
D03*
G54D241*
X31286Y29531D02*
D03*
Y29334D02*
D03*
Y29137D02*
D03*
Y28940D02*
D03*
Y28743D02*
D03*
Y28546D02*
D03*
Y28350D02*
D03*
Y28153D02*
D03*
Y27956D02*
D03*
Y27759D02*
D03*
Y27562D02*
D03*
Y27365D02*
D03*
Y27169D02*
D03*
Y26969D02*
D03*
Y26769D02*
D03*
Y26569D02*
D03*
Y26379D02*
D03*
Y26179D02*
D03*
Y25979D02*
D03*
Y25789D02*
D03*
Y25589D02*
D03*
Y25389D02*
D03*
Y25199D02*
D03*
Y24999D02*
D03*
Y24799D02*
D03*
X24987D02*
D03*
Y24999D02*
D03*
Y25199D02*
D03*
Y25389D02*
D03*
Y25589D02*
D03*
Y25789D02*
D03*
Y25979D02*
D03*
Y26179D02*
D03*
Y26379D02*
D03*
Y26569D02*
D03*
Y26769D02*
D03*
Y26969D02*
D03*
Y27169D02*
D03*
Y27365D02*
D03*
Y27562D02*
D03*
Y27759D02*
D03*
Y27956D02*
D03*
Y28153D02*
D03*
Y28350D02*
D03*
Y28546D02*
D03*
Y28743D02*
D03*
Y28940D02*
D03*
Y29137D02*
D03*
Y29334D02*
D03*
Y29531D02*
D03*
X31286Y57523D02*
D03*
Y57326D02*
D03*
Y57129D02*
D03*
Y56932D02*
D03*
Y56735D02*
D03*
Y56539D02*
D03*
Y56342D02*
D03*
Y56145D02*
D03*
Y55948D02*
D03*
Y55751D02*
D03*
Y55554D02*
D03*
Y55357D02*
D03*
Y55161D02*
D03*
Y54961D02*
D03*
Y54761D02*
D03*
Y54561D02*
D03*
Y54371D02*
D03*
Y54171D02*
D03*
Y53971D02*
D03*
Y53781D02*
D03*
Y53581D02*
D03*
Y53381D02*
D03*
Y53191D02*
D03*
Y52991D02*
D03*
Y52791D02*
D03*
X24987D02*
D03*
Y52991D02*
D03*
Y53191D02*
D03*
Y53381D02*
D03*
Y53581D02*
D03*
Y53781D02*
D03*
Y53971D02*
D03*
Y54171D02*
D03*
Y54371D02*
D03*
Y54561D02*
D03*
Y54761D02*
D03*
Y54961D02*
D03*
Y55161D02*
D03*
Y55357D02*
D03*
Y55554D02*
D03*
Y55751D02*
D03*
Y55948D02*
D03*
Y56145D02*
D03*
Y56342D02*
D03*
Y56539D02*
D03*
Y56735D02*
D03*
Y56932D02*
D03*
Y57129D02*
D03*
Y57326D02*
D03*
Y57523D02*
D03*
X31286Y85515D02*
D03*
Y85318D02*
D03*
Y85121D02*
D03*
Y84924D02*
D03*
Y84728D02*
D03*
Y84531D02*
D03*
Y84334D02*
D03*
Y84137D02*
D03*
Y83940D02*
D03*
Y83743D02*
D03*
Y83546D02*
D03*
Y83350D02*
D03*
Y83153D02*
D03*
Y82953D02*
D03*
Y82753D02*
D03*
Y82553D02*
D03*
Y82363D02*
D03*
Y82163D02*
D03*
Y81963D02*
D03*
Y81773D02*
D03*
Y81573D02*
D03*
Y81373D02*
D03*
Y81183D02*
D03*
Y80983D02*
D03*
Y80783D02*
D03*
X24987D02*
D03*
Y80983D02*
D03*
Y81183D02*
D03*
Y81373D02*
D03*
Y81573D02*
D03*
Y81773D02*
D03*
Y81963D02*
D03*
Y82163D02*
D03*
Y82363D02*
D03*
Y82553D02*
D03*
Y82753D02*
D03*
Y82953D02*
D03*
Y83153D02*
D03*
Y83350D02*
D03*
Y83546D02*
D03*
Y83743D02*
D03*
Y83940D02*
D03*
Y84137D02*
D03*
Y84334D02*
D03*
Y84531D02*
D03*
Y84728D02*
D03*
Y84924D02*
D03*
Y85121D02*
D03*
Y85318D02*
D03*
Y85515D02*
D03*
G54D242*
X30506Y24018D02*
D03*
X30306D02*
D03*
X30106D02*
D03*
X29916D02*
D03*
X29716D02*
D03*
X29516D02*
D03*
X29326D02*
D03*
X29126D02*
D03*
X28926D02*
D03*
X28736D02*
D03*
X28536D02*
D03*
X28336D02*
D03*
X28136D02*
D03*
X27940D02*
D03*
X27743D02*
D03*
X27546D02*
D03*
X27349D02*
D03*
X27152D02*
D03*
X26955D02*
D03*
X26758D02*
D03*
X26562D02*
D03*
X26365D02*
D03*
X26168D02*
D03*
X25971D02*
D03*
X25774D02*
D03*
Y30318D02*
D03*
X25971D02*
D03*
X26168D02*
D03*
X26365D02*
D03*
X26562D02*
D03*
X26758D02*
D03*
X26955D02*
D03*
X27152D02*
D03*
X27349D02*
D03*
X27546D02*
D03*
X27743D02*
D03*
X27940D02*
D03*
X28136D02*
D03*
X28336D02*
D03*
X28536D02*
D03*
X28736D02*
D03*
X28926D02*
D03*
X29126D02*
D03*
X29326D02*
D03*
X29516D02*
D03*
X29716D02*
D03*
X29916D02*
D03*
X30106D02*
D03*
X30306D02*
D03*
X30506D02*
D03*
Y52011D02*
D03*
X30306D02*
D03*
X30106D02*
D03*
X29916D02*
D03*
X29716D02*
D03*
X29516D02*
D03*
X29326D02*
D03*
X29126D02*
D03*
X28926D02*
D03*
X28736D02*
D03*
X28536D02*
D03*
X28336D02*
D03*
X28136D02*
D03*
X27940D02*
D03*
X27743D02*
D03*
X27546D02*
D03*
X27349D02*
D03*
X27152D02*
D03*
X26955D02*
D03*
X26758D02*
D03*
X26562D02*
D03*
X26365D02*
D03*
X26168D02*
D03*
X25971D02*
D03*
X25774D02*
D03*
Y58310D02*
D03*
X25971D02*
D03*
X26168D02*
D03*
X26365D02*
D03*
X26562D02*
D03*
X26758D02*
D03*
X26955D02*
D03*
X27152D02*
D03*
X27349D02*
D03*
X27546D02*
D03*
X27743D02*
D03*
X27940D02*
D03*
X28136D02*
D03*
X28336D02*
D03*
X28536D02*
D03*
X28736D02*
D03*
X28926D02*
D03*
X29126D02*
D03*
X29326D02*
D03*
X29516D02*
D03*
X29716D02*
D03*
X29916D02*
D03*
X30106D02*
D03*
X30306D02*
D03*
X30506D02*
D03*
Y80003D02*
D03*
X30306D02*
D03*
X30106D02*
D03*
X29916D02*
D03*
X29716D02*
D03*
X29516D02*
D03*
X29326D02*
D03*
X29126D02*
D03*
X28926D02*
D03*
X28736D02*
D03*
X28536D02*
D03*
X28336D02*
D03*
X28136D02*
D03*
X27940D02*
D03*
X27743D02*
D03*
X27546D02*
D03*
X27349D02*
D03*
X27152D02*
D03*
X26955D02*
D03*
X26758D02*
D03*
X26562D02*
D03*
X26365D02*
D03*
X26168D02*
D03*
X25971D02*
D03*
X25774D02*
D03*
Y86302D02*
D03*
X25971D02*
D03*
X26168D02*
D03*
X26365D02*
D03*
X26562D02*
D03*
X26758D02*
D03*
X26955D02*
D03*
X27152D02*
D03*
X27349D02*
D03*
X27546D02*
D03*
X27743D02*
D03*
X27940D02*
D03*
X28136D02*
D03*
X28336D02*
D03*
X28536D02*
D03*
X28736D02*
D03*
X28926D02*
D03*
X29126D02*
D03*
X29326D02*
D03*
X29516D02*
D03*
X29716D02*
D03*
X29916D02*
D03*
X30106D02*
D03*
X30306D02*
D03*
X30506D02*
D03*
G54D243*
X22920Y25944D02*
D03*
Y25694D02*
D03*
X20866Y24189D02*
D03*
X22920Y24439D02*
D03*
X20866D02*
D03*
Y24939D02*
D03*
X22920Y24189D02*
D03*
X20866Y24689D02*
D03*
X22920D02*
D03*
X22920Y24939D02*
D03*
X22920Y25444D02*
D03*
X20866Y25194D02*
D03*
Y25444D02*
D03*
Y25944D02*
D03*
X22920Y25194D02*
D03*
X20866Y25694D02*
D03*
X22920Y53936D02*
D03*
Y53686D02*
D03*
X20866Y52181D02*
D03*
X22920Y52431D02*
D03*
X20866D02*
D03*
Y52931D02*
D03*
X22920Y52181D02*
D03*
X20866Y52681D02*
D03*
X22920D02*
D03*
X22920Y52931D02*
D03*
X22920Y53436D02*
D03*
X20866Y53186D02*
D03*
Y53436D02*
D03*
Y53936D02*
D03*
X22920Y53186D02*
D03*
X20866Y53686D02*
D03*
X22920Y81928D02*
D03*
Y81678D02*
D03*
X20866Y80173D02*
D03*
X22920Y80423D02*
D03*
X20866D02*
D03*
Y80923D02*
D03*
X22920Y80173D02*
D03*
X20866Y80673D02*
D03*
X22920D02*
D03*
X22920Y80923D02*
D03*
X22920Y81428D02*
D03*
X20866Y81178D02*
D03*
Y81428D02*
D03*
Y81928D02*
D03*
X22920Y81178D02*
D03*
X20866Y81678D02*
D03*
G54D244*
X19769Y29069D02*
D03*
Y57061D02*
D03*
Y85053D02*
D03*
G54D245*
X18819Y28380D02*
D03*
Y28576D02*
D03*
Y28773D02*
D03*
Y28970D02*
D03*
Y29169D02*
D03*
Y29369D02*
D03*
Y29569D02*
D03*
Y29759D02*
D03*
X20713D02*
D03*
Y29569D02*
D03*
Y29369D02*
D03*
Y29169D02*
D03*
Y28970D02*
D03*
Y28773D02*
D03*
Y28576D02*
D03*
Y28380D02*
D03*
X18819Y56372D02*
D03*
Y56569D02*
D03*
Y56765D02*
D03*
Y56962D02*
D03*
Y57161D02*
D03*
Y57361D02*
D03*
Y57561D02*
D03*
Y57751D02*
D03*
X20713D02*
D03*
Y57561D02*
D03*
Y57361D02*
D03*
Y57161D02*
D03*
Y56962D02*
D03*
Y56765D02*
D03*
Y56569D02*
D03*
Y56372D02*
D03*
X18819Y84364D02*
D03*
Y84561D02*
D03*
Y84757D02*
D03*
Y84954D02*
D03*
Y85153D02*
D03*
Y85353D02*
D03*
Y85553D02*
D03*
Y85743D02*
D03*
X20713D02*
D03*
Y85553D02*
D03*
Y85353D02*
D03*
Y85153D02*
D03*
Y84954D02*
D03*
Y84757D02*
D03*
Y84561D02*
D03*
Y84364D02*
D03*
G54D246*
X19079Y30018D02*
D03*
X19268D02*
D03*
X19468D02*
D03*
X19669D02*
D03*
X19867D02*
D03*
X20064D02*
D03*
X20261D02*
D03*
X20457D02*
D03*
Y28124D02*
D03*
X20261D02*
D03*
X20064D02*
D03*
X19867D02*
D03*
X19669D02*
D03*
X19468D02*
D03*
X19268D02*
D03*
X19079D02*
D03*
Y58011D02*
D03*
X19268D02*
D03*
X19468D02*
D03*
X19669D02*
D03*
X19867D02*
D03*
X20064D02*
D03*
X20261D02*
D03*
X20457D02*
D03*
Y56116D02*
D03*
X20261D02*
D03*
X20064D02*
D03*
X19867D02*
D03*
X19669D02*
D03*
X19468D02*
D03*
X19268D02*
D03*
X19079D02*
D03*
Y86003D02*
D03*
X19268D02*
D03*
X19468D02*
D03*
X19669D02*
D03*
X19867D02*
D03*
X20064D02*
D03*
X20261D02*
D03*
X20457D02*
D03*
Y84108D02*
D03*
X20261D02*
D03*
X20064D02*
D03*
X19867D02*
D03*
X19669D02*
D03*
X19468D02*
D03*
X19268D02*
D03*
X19079D02*
D03*
G54D247*
X45080Y37619D02*
D03*
X42757D02*
D03*
X45080Y65611D02*
D03*
X42757D02*
D03*
X45080Y93603D02*
D03*
X42757D02*
D03*
G54D248*
X21644Y30891D02*
D03*
X21329D02*
D03*
X21011D02*
D03*
X20691D02*
D03*
Y31427D02*
D03*
X21011D02*
D03*
X21329D02*
D03*
X21644D02*
D03*
X29398Y22032D02*
D03*
X29083D02*
D03*
X28766D02*
D03*
X28446D02*
D03*
Y21496D02*
D03*
X28766D02*
D03*
X29083D02*
D03*
X29398D02*
D03*
Y19941D02*
D03*
X29083D02*
D03*
X28766D02*
D03*
X28446D02*
D03*
Y20477D02*
D03*
X28766D02*
D03*
X29083D02*
D03*
X29398D02*
D03*
Y19079D02*
D03*
X29083D02*
D03*
X28766D02*
D03*
X28446D02*
D03*
Y18543D02*
D03*
X28766D02*
D03*
X29083D02*
D03*
X29398D02*
D03*
X21644Y58884D02*
D03*
X21329D02*
D03*
X21011D02*
D03*
X20691D02*
D03*
Y59419D02*
D03*
X21011D02*
D03*
X21329D02*
D03*
X21644D02*
D03*
X29398Y50024D02*
D03*
X29083D02*
D03*
X28766D02*
D03*
X28446D02*
D03*
Y49488D02*
D03*
X28766D02*
D03*
X29083D02*
D03*
X29398D02*
D03*
Y47933D02*
D03*
X29083D02*
D03*
X28766D02*
D03*
X28446D02*
D03*
Y48469D02*
D03*
X28766D02*
D03*
X29083D02*
D03*
X29398D02*
D03*
Y47071D02*
D03*
X29083D02*
D03*
X28766D02*
D03*
X28446D02*
D03*
Y46536D02*
D03*
X28766D02*
D03*
X29083D02*
D03*
X29398D02*
D03*
X21644Y86876D02*
D03*
X21329D02*
D03*
X21011D02*
D03*
X20691D02*
D03*
Y87411D02*
D03*
X21011D02*
D03*
X21329D02*
D03*
X21644D02*
D03*
X29398Y78016D02*
D03*
X29083D02*
D03*
X28766D02*
D03*
X28446D02*
D03*
Y77480D02*
D03*
X28766D02*
D03*
X29083D02*
D03*
X29398D02*
D03*
Y75925D02*
D03*
X29083D02*
D03*
X28766D02*
D03*
X28446D02*
D03*
Y76461D02*
D03*
X28766D02*
D03*
X29083D02*
D03*
X29398D02*
D03*
Y75063D02*
D03*
X29083D02*
D03*
X28766D02*
D03*
X28446D02*
D03*
Y74528D02*
D03*
X28766D02*
D03*
X29083D02*
D03*
X29398D02*
D03*
G54D249*
X13918Y21869D02*
D03*
Y20749D02*
D03*
X18519Y21449D02*
D03*
Y20329D02*
D03*
X32671Y20311D02*
D03*
Y21431D02*
D03*
X13918Y49861D02*
D03*
Y48741D02*
D03*
X18519Y49441D02*
D03*
Y48321D02*
D03*
X32671Y48303D02*
D03*
Y49423D02*
D03*
X13918Y77853D02*
D03*
Y76733D02*
D03*
X18519Y77433D02*
D03*
Y76313D02*
D03*
X32671Y76295D02*
D03*
Y77415D02*
D03*
G54D250*
X14428Y16078D02*
D03*
X13309D02*
D03*
X22951Y15681D02*
D03*
X21831D02*
D03*
X17721Y15771D02*
D03*
X18841D02*
D03*
X23981Y21001D02*
D03*
X22861D02*
D03*
X32618Y15689D02*
D03*
X31498D02*
D03*
X14428Y44071D02*
D03*
X13309D02*
D03*
X22951Y43673D02*
D03*
X21831D02*
D03*
X17721Y43763D02*
D03*
X18841D02*
D03*
X23981Y48993D02*
D03*
X22861D02*
D03*
X32618Y43681D02*
D03*
X31498D02*
D03*
X14428Y72063D02*
D03*
X13309D02*
D03*
X22951Y71665D02*
D03*
X21831D02*
D03*
X17721Y71755D02*
D03*
X18841D02*
D03*
X23981Y76985D02*
D03*
X22861D02*
D03*
X32618Y71673D02*
D03*
X31498D02*
D03*
G54D251*
X46566Y38639D02*
D03*
X46192D02*
D03*
X31861Y30468D02*
D03*
X31487D02*
D03*
X19808Y35151D02*
D03*
X19434D02*
D03*
X42642Y27538D02*
D03*
X43016D02*
D03*
X24002Y30979D02*
D03*
X24376D02*
D03*
X41846Y28208D02*
D03*
X41472D02*
D03*
X33531Y27768D02*
D03*
X33906D02*
D03*
X17536Y33604D02*
D03*
X17162D02*
D03*
X23116Y39194D02*
D03*
X22741D02*
D03*
X46566Y66631D02*
D03*
X46192D02*
D03*
X31861Y58461D02*
D03*
X31487D02*
D03*
X19808Y63143D02*
D03*
X19434D02*
D03*
X42642Y55531D02*
D03*
X43016D02*
D03*
X24002Y58971D02*
D03*
X24376D02*
D03*
X41846Y56201D02*
D03*
X41472D02*
D03*
X33531Y55761D02*
D03*
X33906D02*
D03*
X17536Y61596D02*
D03*
X17162D02*
D03*
X23116Y67186D02*
D03*
X22741D02*
D03*
X46566Y94623D02*
D03*
X46192D02*
D03*
X31861Y86453D02*
D03*
X31487D02*
D03*
X19808Y91135D02*
D03*
X19434D02*
D03*
X42642Y83523D02*
D03*
X43016D02*
D03*
X24002Y86963D02*
D03*
X24376D02*
D03*
X41846Y84193D02*
D03*
X41472D02*
D03*
X33531Y83753D02*
D03*
X33906D02*
D03*
X17536Y89588D02*
D03*
X17162D02*
D03*
X23116Y95178D02*
D03*
X22741D02*
D03*
G54D252*
X17522Y22178D02*
D03*
X15475D02*
D03*
X22042Y22129D02*
D03*
X19995D02*
D03*
X26858Y21858D02*
D03*
X24811D02*
D03*
X17522Y50171D02*
D03*
X15475D02*
D03*
X22042Y50121D02*
D03*
X19995D02*
D03*
X26858Y49851D02*
D03*
X24811D02*
D03*
X17522Y78163D02*
D03*
X15475D02*
D03*
X22042Y78113D02*
D03*
X19995D02*
D03*
X26858Y77843D02*
D03*
X24811D02*
D03*
G54D253*
X17438Y24769D02*
D03*
X18193D02*
D03*
X43528Y34569D02*
D03*
X42774D02*
D03*
X17438Y52761D02*
D03*
X18193D02*
D03*
X43528Y62561D02*
D03*
X42774D02*
D03*
X17438Y80753D02*
D03*
X18193D02*
D03*
X43528Y90553D02*
D03*
X42774D02*
D03*
G54D254*
X44697Y34558D02*
D03*
X45740D02*
D03*
X44697Y62551D02*
D03*
X45740D02*
D03*
X44697Y90543D02*
D03*
X45740D02*
D03*
G54D255*
X46519Y35083D02*
D03*
Y34328D02*
D03*
Y63075D02*
D03*
Y62321D02*
D03*
Y91067D02*
D03*
Y90313D02*
D03*
G54D256*
X42919Y20805D02*
D03*
Y22852D02*
D03*
X37009Y16905D02*
D03*
Y18952D02*
D03*
X37599Y13185D02*
D03*
Y15232D02*
D03*
X42919Y48797D02*
D03*
Y50844D02*
D03*
X37009Y44897D02*
D03*
Y46944D02*
D03*
X37599Y41177D02*
D03*
Y43224D02*
D03*
X42919Y76789D02*
D03*
Y78836D02*
D03*
X37009Y72889D02*
D03*
Y74936D02*
D03*
X37599Y69169D02*
D03*
Y71216D02*
D03*
G54D257*
X33591Y30776D02*
D03*
Y30973D02*
D03*
Y31169D02*
D03*
Y31366D02*
D03*
X32331Y30776D02*
D03*
Y30973D02*
D03*
Y31169D02*
D03*
Y31366D02*
D03*
X33591Y58768D02*
D03*
Y58965D02*
D03*
Y59162D02*
D03*
Y59358D02*
D03*
X32331Y58768D02*
D03*
Y58965D02*
D03*
Y59162D02*
D03*
Y59358D02*
D03*
X33591Y86760D02*
D03*
Y86957D02*
D03*
Y87154D02*
D03*
Y87351D02*
D03*
X32331Y86760D02*
D03*
Y86957D02*
D03*
Y87154D02*
D03*
Y87351D02*
D03*
G54D258*
X40831Y16135D02*
D03*
Y16635D02*
D03*
Y17135D02*
D03*
Y17635D02*
D03*
Y44127D02*
D03*
Y44627D02*
D03*
Y45127D02*
D03*
Y45627D02*
D03*
Y72120D02*
D03*
Y72620D02*
D03*
Y73120D02*
D03*
Y73620D02*
D03*
G54D259*
X39387Y16885D02*
D03*
Y44877D02*
D03*
Y72870D02*
D03*
G54D260*
X43230Y30686D02*
D03*
Y58678D02*
D03*
Y86670D02*
D03*
G54D261*
X43980Y29242D02*
D03*
X43480D02*
D03*
X42980D02*
D03*
X42480D02*
D03*
X43980Y57234D02*
D03*
X43480D02*
D03*
X42980D02*
D03*
X42480D02*
D03*
X43980Y85227D02*
D03*
X43480D02*
D03*
X42980D02*
D03*
X42480D02*
D03*
G54D262*
X44815Y35734D02*
D03*
Y63726D02*
D03*
Y91719D02*
D03*
G54D263*
X45760Y35341D02*
D03*
Y35537D02*
D03*
Y35734D02*
D03*
Y35931D02*
D03*
Y36128D02*
D03*
X43870Y35341D02*
D03*
Y35537D02*
D03*
Y35734D02*
D03*
Y35931D02*
D03*
Y36128D02*
D03*
X45760Y63333D02*
D03*
Y63530D02*
D03*
Y63726D02*
D03*
Y63923D02*
D03*
Y64120D02*
D03*
X43870Y63333D02*
D03*
Y63530D02*
D03*
Y63726D02*
D03*
Y63923D02*
D03*
Y64120D02*
D03*
X45760Y91325D02*
D03*
Y91522D02*
D03*
Y91719D02*
D03*
Y91915D02*
D03*
Y92112D02*
D03*
X43870Y91325D02*
D03*
Y91522D02*
D03*
Y91719D02*
D03*
Y91915D02*
D03*
Y92112D02*
D03*
G54D264*
X46459Y13218D02*
D03*
X45118D02*
D03*
Y18519D02*
D03*
X46459D02*
D03*
X45168Y23349D02*
D03*
X46508D02*
D03*
Y28649D02*
D03*
X45168D02*
D03*
X43558Y13222D02*
D03*
X42218D02*
D03*
Y18522D02*
D03*
X43558D02*
D03*
X46459Y41211D02*
D03*
X45118D02*
D03*
Y46511D02*
D03*
X46459D02*
D03*
X45168Y51341D02*
D03*
X46508D02*
D03*
Y56641D02*
D03*
X45168D02*
D03*
X43558Y41215D02*
D03*
X42218D02*
D03*
Y46515D02*
D03*
X43558D02*
D03*
X46459Y69203D02*
D03*
X45118D02*
D03*
Y74503D02*
D03*
X46459D02*
D03*
X45168Y79333D02*
D03*
X46508D02*
D03*
Y84633D02*
D03*
X45168D02*
D03*
X43558Y69207D02*
D03*
X42218D02*
D03*
Y74507D02*
D03*
X43558D02*
D03*
G54D265*
X26661Y35291D02*
D03*
Y34291D02*
D03*
X25661Y35291D02*
D03*
Y34291D02*
D03*
X24661Y35291D02*
D03*
Y34291D02*
D03*
X23661Y35291D02*
D03*
Y34291D02*
D03*
X22661Y35291D02*
D03*
Y34291D02*
D03*
X21661Y35291D02*
D03*
Y34291D02*
D03*
X20661Y35291D02*
D03*
Y34291D02*
D03*
X26661Y63283D02*
D03*
Y62283D02*
D03*
X25661Y63283D02*
D03*
Y62283D02*
D03*
X24661Y63283D02*
D03*
Y62283D02*
D03*
X23661Y63283D02*
D03*
Y62283D02*
D03*
X22661Y63283D02*
D03*
Y62283D02*
D03*
X21661Y63283D02*
D03*
Y62283D02*
D03*
X20661Y63283D02*
D03*
Y62283D02*
D03*
X26661Y91275D02*
D03*
Y90275D02*
D03*
X25661Y91275D02*
D03*
Y90275D02*
D03*
X24661Y91275D02*
D03*
Y90275D02*
D03*
X23661Y91275D02*
D03*
Y90275D02*
D03*
X22661Y91275D02*
D03*
Y90275D02*
D03*
X21661Y91275D02*
D03*
Y90275D02*
D03*
X20661Y91275D02*
D03*
Y90275D02*
D03*
G54D266*
X16741Y35381D02*
D03*
X17741Y37791D02*
D03*
X20951D02*
D03*
X26131Y37795D02*
D03*
X34969Y12995D02*
D03*
X29847Y12991D02*
D03*
Y15747D02*
D03*
X24729Y12991D02*
D03*
X19611D02*
D03*
X16741Y63373D02*
D03*
X17741Y65783D02*
D03*
X20951D02*
D03*
X26131Y65787D02*
D03*
X34969Y40987D02*
D03*
X29847Y40983D02*
D03*
Y43739D02*
D03*
X24729Y40983D02*
D03*
X19611D02*
D03*
X16741Y91365D02*
D03*
X17741Y93775D02*
D03*
X20951D02*
D03*
X26131Y93780D02*
D03*
X34969Y68979D02*
D03*
X29847Y68975D02*
D03*
Y71731D02*
D03*
X24729Y68975D02*
D03*
X19611D02*
D03*
G54D267*
X17741Y35381D02*
D03*
X16741Y37791D02*
D03*
X19951D02*
D03*
X23131Y37795D02*
D03*
X24131D02*
D03*
X25131D02*
D03*
X33969Y12995D02*
D03*
X32969D02*
D03*
X31969D02*
D03*
X26847Y12991D02*
D03*
X27847D02*
D03*
X28847D02*
D03*
Y15747D02*
D03*
X27847D02*
D03*
X26847D02*
D03*
X21729Y12991D02*
D03*
X22729D02*
D03*
X23729D02*
D03*
X18611D02*
D03*
X17611D02*
D03*
X16611D02*
D03*
X17741Y63373D02*
D03*
X16741Y65783D02*
D03*
X19951D02*
D03*
X23131Y65787D02*
D03*
X24131D02*
D03*
X25131D02*
D03*
X33969Y40987D02*
D03*
X32969D02*
D03*
X31969D02*
D03*
X26847Y40983D02*
D03*
X27847D02*
D03*
X28847D02*
D03*
Y43739D02*
D03*
X27847D02*
D03*
X26847D02*
D03*
X21729Y40983D02*
D03*
X22729D02*
D03*
X23729D02*
D03*
X18611D02*
D03*
X17611D02*
D03*
X16611D02*
D03*
X17741Y91365D02*
D03*
X16741Y93775D02*
D03*
X19951D02*
D03*
X23131Y93780D02*
D03*
X24131D02*
D03*
X25131D02*
D03*
X33969Y68979D02*
D03*
X32969D02*
D03*
X31969D02*
D03*
X26847Y68975D02*
D03*
X27847D02*
D03*
X28847D02*
D03*
Y71731D02*
D03*
X27847D02*
D03*
X26847D02*
D03*
X21729Y68975D02*
D03*
X22729D02*
D03*
X23729D02*
D03*
X18611D02*
D03*
X17611D02*
D03*
X16611D02*
D03*
G54D268*
X35472Y27075D02*
D03*
Y26075D02*
D03*
X48119Y37229D02*
D03*
X35472Y23965D02*
D03*
Y22965D02*
D03*
Y30185D02*
D03*
Y29185D02*
D03*
X37908Y28179D02*
D03*
Y29179D02*
D03*
Y30178D02*
D03*
X37898Y24039D02*
D03*
Y25038D02*
D03*
Y26038D02*
D03*
X35472Y55067D02*
D03*
Y54067D02*
D03*
X48119Y65221D02*
D03*
X35472Y51957D02*
D03*
Y50957D02*
D03*
Y58177D02*
D03*
Y57177D02*
D03*
X37908Y56171D02*
D03*
Y57171D02*
D03*
Y58171D02*
D03*
X37898Y52031D02*
D03*
Y53031D02*
D03*
Y54031D02*
D03*
X35472Y83059D02*
D03*
Y82059D02*
D03*
X48119Y93213D02*
D03*
X35472Y79949D02*
D03*
Y78949D02*
D03*
Y86169D02*
D03*
Y85169D02*
D03*
X37908Y84163D02*
D03*
Y85163D02*
D03*
Y86163D02*
D03*
X37898Y80023D02*
D03*
Y81023D02*
D03*
Y82023D02*
D03*
G54D269*
X48119Y38228D02*
D03*
Y66221D02*
D03*
Y94213D02*
D03*
G54D270*
X12896Y34748D02*
D03*
Y32968D02*
D03*
Y62740D02*
D03*
Y60960D02*
D03*
Y90733D02*
D03*
Y88953D02*
D03*
G54D271*
X13876Y35238D02*
D03*
Y32478D02*
D03*
Y63230D02*
D03*
Y60470D02*
D03*
Y91223D02*
D03*
Y88463D02*
D03*
G54D272*
X16427Y26665D02*
D03*
Y27657D02*
D03*
X15637D02*
D03*
Y26665D02*
D03*
X16427Y54657D02*
D03*
Y55650D02*
D03*
X15637D02*
D03*
Y54657D02*
D03*
X16427Y82650D02*
D03*
Y83642D02*
D03*
X15637D02*
D03*
Y82650D02*
D03*
G54D273*
X14567Y29528D02*
D03*
Y24795D02*
D03*
Y57520D02*
D03*
Y52787D02*
D03*
Y85512D02*
D03*
Y80780D02*
D03*
G54D274*
X17294Y31614D02*
D03*
Y32614D02*
D03*
X18294Y31614D02*
D03*
Y32614D02*
D03*
X19294Y31614D02*
D03*
Y32614D02*
D03*
X17294Y59606D02*
D03*
Y60606D02*
D03*
X18294Y59606D02*
D03*
Y60606D02*
D03*
X19294Y59606D02*
D03*
Y60606D02*
D03*
X17294Y87598D02*
D03*
Y88598D02*
D03*
X18294Y87598D02*
D03*
Y88598D02*
D03*
X19294Y87598D02*
D03*
Y88598D02*
D03*
G54D275*
X38078Y21398D02*
D03*
X40079D02*
D03*
X38078Y49391D02*
D03*
X40079D02*
D03*
X38078Y77383D02*
D03*
X40079D02*
D03*
G54D276*
X48338Y17664D02*
D03*
Y20914D02*
D03*
Y24163D02*
D03*
Y27413D02*
D03*
Y30663D02*
D03*
Y33914D02*
D03*
Y45656D02*
D03*
Y48906D02*
D03*
Y52156D02*
D03*
Y55406D02*
D03*
Y58656D02*
D03*
Y61906D02*
D03*
Y73648D02*
D03*
Y76898D02*
D03*
Y80148D02*
D03*
Y83398D02*
D03*
Y86648D02*
D03*
Y89898D02*
D03*
G54D277*
X29708Y37408D02*
D03*
Y33658D02*
D03*
Y65401D02*
D03*
Y61651D02*
D03*
Y93393D02*
D03*
Y89643D02*
D03*
G54D278*
Y38409D02*
D03*
X30708Y37408D02*
D03*
Y38409D02*
D03*
X31709Y37408D02*
D03*
Y38409D02*
D03*
X32708Y37408D02*
D03*
Y38409D02*
D03*
X33709Y37408D02*
D03*
Y38409D02*
D03*
X29708Y34659D02*
D03*
X30708Y33658D02*
D03*
Y34659D02*
D03*
X31709Y33658D02*
D03*
Y34659D02*
D03*
X32708Y33658D02*
D03*
Y34659D02*
D03*
X33709Y33658D02*
D03*
Y34659D02*
D03*
X37135Y33726D02*
D03*
Y34726D02*
D03*
Y35726D02*
D03*
Y36726D02*
D03*
X29708Y66401D02*
D03*
X30708Y65401D02*
D03*
Y66401D02*
D03*
X31709Y65401D02*
D03*
Y66401D02*
D03*
X32708Y65401D02*
D03*
Y66401D02*
D03*
X33709Y65401D02*
D03*
Y66401D02*
D03*
X29708Y62651D02*
D03*
X30708Y61651D02*
D03*
Y62651D02*
D03*
X31709Y61651D02*
D03*
Y62651D02*
D03*
X32708Y61651D02*
D03*
Y62651D02*
D03*
X33709Y61651D02*
D03*
Y62651D02*
D03*
X37135Y61718D02*
D03*
Y62718D02*
D03*
Y63718D02*
D03*
Y64718D02*
D03*
X29708Y94393D02*
D03*
X30708Y93393D02*
D03*
Y94393D02*
D03*
X31709Y93393D02*
D03*
Y94393D02*
D03*
X32708Y93393D02*
D03*
Y94393D02*
D03*
X33709Y93393D02*
D03*
Y94393D02*
D03*
X29708Y90643D02*
D03*
X30708Y89643D02*
D03*
Y90643D02*
D03*
X31709Y89643D02*
D03*
Y90643D02*
D03*
X32708Y89643D02*
D03*
Y90643D02*
D03*
X33709Y89643D02*
D03*
Y90643D02*
D03*
X37135Y89710D02*
D03*
Y90710D02*
D03*
Y91710D02*
D03*
Y92710D02*
D03*
G54D279*
Y37726D02*
D03*
Y65718D02*
D03*
Y93710D02*
D03*
G54D280*
X44815Y35734D02*
D03*
X44422D02*
D03*
Y36128D02*
D03*
X44815D02*
D03*
X45209D02*
D03*
Y35734D02*
D03*
Y35341D02*
D03*
X44815D02*
D03*
X44422D02*
D03*
X44815Y63726D02*
D03*
X44422D02*
D03*
Y64120D02*
D03*
X44815D02*
D03*
X45209D02*
D03*
Y63726D02*
D03*
Y63333D02*
D03*
X44815D02*
D03*
X44422D02*
D03*
X44815Y91719D02*
D03*
X44422D02*
D03*
Y92112D02*
D03*
X44815D02*
D03*
X45209D02*
D03*
Y91719D02*
D03*
Y91325D02*
D03*
X44815D02*
D03*
X44422D02*
D03*
M02*
