M48
;Layer_Color=9474304
;FILE_FORMAT=4:4
METRIC,TZ
;TYPE=PLATED
T1F00S00C0.2540
T2F00S00C0.3810
T3F00S00C0.9000
T4F00S00C0.9652
T5F00S00C1.0160
T6F00S00C1.3970
T7F00S00C1.4986
T8F00S00C1.5240
T9F00S00C1.6002
T10F00S00C2.2098
;TYPE=NON_PLATED
T11F00S00C1.2800
T12F00S00C3.0000
%
T01
X8890Y7620
X74168Y7874
X91948Y32258
X92202Y55880
X105918Y45212
X106426Y21082
X118554Y69024
X131000
X144970Y68770
X136334Y100012
X132016Y107124
X134810Y129984
Y137350
Y144716
X141478Y126238
X123888Y125666
X99504Y129984
X93154Y127698
X92900Y117538
X84518Y121602
X90360Y137350
X96964
X95948Y87312
X88138Y85090
X81470Y92138
X56134Y93980
X42354Y95948
X34734
X24892Y94996
X24828Y114998
X19240
Y134302
X19304Y143256
X42354Y137350
Y131508
X52324Y114554
X8382Y76454
X159194Y91630
X158686Y114744
X150812Y114998
X156146Y122364
Y127952
X169530Y140930
X180530
X191530
X203898Y128460
X209486
X200850Y118808
Y112204
X203962Y103886
X221932Y104838
X215392Y87884
X236410Y91376
X243268
X246316Y77660
X235902Y77406
X236982Y51308
X220980Y58674
X212852Y42926
X215138Y23622
X239014Y24384
X289306Y20066
X281114Y64380
X276724Y68770
X295338Y66992
X301688
X317500Y64770
X326326Y67246
X343154Y71628
X342582Y96710
X350520Y98044
X347154Y105092
X339344Y124968
X324294Y127952
X318294
X325818Y118808
Y112458
X329438Y135636
X305830Y140930
X294830
X283830
X270192Y128460
Y122618
X267652Y114998
X274002
X261620Y124968
X247078Y123888
X239966Y126174
X238696Y138112
X249872Y133286
X255714Y66738
X204978Y70104
X166052Y67754
X160274Y20320
X344424Y21336
X344170Y46482
X367538Y46736
X370078Y21590
X420116Y20828
X473202Y21844
X497840Y22098
X497586Y41656
X492442Y58864
X501078Y66992
X510730Y66738
X521652Y69278
Y62674
X534352Y67754
X513842Y93472
Y106680
X515048Y127952
X508444
X502158Y127762
X488886Y101790
Y95440
X473710Y116586
X466090Y137160
X442722Y130810
X427926Y138620
X415290Y134874
X394716Y121412
X364998Y129794
X367538Y90170
X373380Y71882
X395986Y71628
X473710Y72898
X473964Y49784
X528686Y140930
X539686
X309562Y92646
X568642Y93916
X565086Y112458
X568642Y118808
X569912Y127952
X563150
X556450Y114236
Y108648
X550686Y140930
X598614Y114490
Y78676
X612076Y90614
X624840Y66802
X625348Y35814
X604012Y21336
X603250Y52070
X581977Y64071
X576516Y69024
X562546Y66992
X547814
X553656Y61150
X550418Y21336
X684926Y108566
X695086
X705246
X715406
Y118726
Y128886
X705246
X695086
X684926
Y118726
X695086
X705246
Y139046
X695086
X684926
X715406
X834898Y136906
X826516Y86360
X863092Y60452
X933894Y68516
X941514Y76644
X973582Y127762
X1020064Y86614
X1036574Y70358
X1029970Y154432
X1028192Y213360
X1029462Y297434
X1030224Y345440
X1030478Y397510
X991870Y384302
X968248Y379730
X967232Y417576
X994664Y441960
X977646Y501142
X975360Y522478
X955802Y525018
X994664Y538480
X956564Y348996
X979678Y319532
X979170Y270002
X973328Y182372
X861314Y204724
X855980Y250698
X707326Y178498
X705246Y149206
X695086
X684926
X715406
X572452Y158963
X577278Y175831
X550686Y173930
Y162930
Y151930
X545020Y213042
X547052Y218884
X557466Y223456
X557720Y229552
X570674
Y223202
X585406Y222440
X603694Y211264
X612838Y231838
X625284Y258508
X590296Y255778
X551370Y249110
X561276Y283908
X566674Y297688
X626618Y295148
X625094Y338074
X616204
X578358Y355346
X580644Y370078
X572262Y405638
X615696Y421386
X625348Y421640
X619252Y492252
X607822Y484886
X581342Y485838
X563880Y485648
X544964Y496196
X583628Y516572
X585470Y527812
Y536194
X612394Y542798
X612140Y526034
X669290Y510540
X693166Y487680
X714248Y516890
X726694Y517398
X731520Y526288
X777718Y494924
X787878
Y484764
X777718
Y474604
X787878
Y464444
X777718
X798038
X808198
X818358
Y474604
X808198
Y484764
X818358
Y494924
X808198
X798038
Y484764
Y474604
X740600Y396684
X701484Y354012
X899858Y516318
X528256Y500316
X507428Y484886
X489140Y493966
Y503618
X472376Y503364
Y493966
X458724Y493776
Y503428
X453072Y455104
X447230Y449770
X453390Y429260
Y414274
X415798Y414528
X394970
Y446278
X413194Y446214
X373824Y445198
X365950
X358032
X350158
X350202Y425640
X358076
X358032Y410400
X350158
X366014Y410464
X365906Y398970
X358032
Y385000
X350158
X365906
X367728Y367474
X375602
X385572Y367792
X394970Y379476
X415226Y366458
X430086Y338392
X430022Y325628
X451104Y337058
X451040Y344614
X468884Y342646
X459232Y329184
X463432Y365188
X471306
X479180
X458724Y377444
X507746Y393700
X515620
X515112Y405130
X509968Y412178
X528828Y366014
X510286Y309880
X510730Y264096
X499046Y263588
X482028
X489902Y251396
X507174Y251650
X517334Y243776
X532574Y256984
X532828Y270954
X520128
X483298Y284162
X464248Y275780
X455866Y267652
X446722Y266890
X438594
X422338
X411924Y264350
X396430Y265620
X389572
X374586Y291020
X336994Y289750
X321500Y290766
X324294Y302704
X317944Y334962
X317436Y343090
X316420Y354394
X313436Y372364
X307594Y379476
X293560Y346138
X298132Y328358
X246888Y319532
Y343408
X247396Y370586
X215074Y374586
X214566Y403034
X235774Y404282
X260858Y398018
X261620Y424434
X277812Y435038
X287528Y434848
X289052Y459486
X274828Y457454
X293814Y484822
X290322Y504698
X302514Y518414
X326644Y517906
X326834Y526224
X326580Y533590
X314960Y538988
X280860Y539432
X257302Y536702
X249936
X237236Y532892
X221488Y510032
X204724Y469900
X202120Y447840
Y438340
X192670
X192548Y447931
X211620Y447840
Y438340
Y428840
X202120
X192620Y428590
X195580Y332486
X211328Y345186
X219202Y345440
X241046Y299212
X233870Y266636
X237917Y259188
X242760Y249872
X252412
X262064Y249618
X280606Y259016
X285686Y263842
X308038Y259778
X333946Y264858
X341566
X339858Y223964
X345884
X333438Y219646
X335470Y214312
X354266Y209232
X366204Y216598
X363664Y238188
X403606Y228092
X414274
X411464Y215112
X411714Y202112
X430714Y200362
Y228112
X460247Y227385
X455464Y215112
X460464Y202112
X457464Y183112
X457644Y171132
X446532Y159258
X432752Y151574
X426910
X399478Y158686
X382460Y175450
X362648Y176720
X332422Y175831
X328104Y159194
X305830Y162930
Y173930
X294830
X283830
Y162930
X294830
Y151930
X283830
X305830
X302196Y213296
X298894Y218376
X293814Y224980
X320230Y229044
X274256Y205676
Y199072
X268668Y192976
X270700Y187134
X261556Y203390
X240220Y220662
X223710Y220408
X211010Y221932
Y228028
X198564
Y221932
X184594Y218376
X187896Y213296
X154368Y213550
X160718Y203390
Y196532
X154464Y192214
X156496Y186626
X169530Y173930
X180530
Y162930
X169530
Y151930
X180530
X191530
Y162930
Y173930
X218122Y175831
X213550Y159194
X221932Y241236
X213042Y252666
X204914
X197548Y250380
X191198
X185864Y255714
X165290Y261556
Y268160
X174434Y270954
X157670Y253682
X148590Y237490
X367220Y327850
X366204Y345884
X372618Y354330
X384492Y341566
Y333438
Y325564
X396240Y333248
X404558Y333438
X432752Y294322
X452818Y288226
X470852Y235902
X476186Y190436
X475932Y161988
X486664Y148082
X528686Y151930
X539686
Y162930
Y173930
X528686
Y162930
X515168Y187014
X514032Y192976
X518604Y199072
Y205676
X373888Y398780
X334010Y458978
X341820Y501078
X339280Y513524
X357060Y523176
X364236Y535178
X367982Y502602
X402590Y512826
X401066Y527812
X408432Y529844
X84582Y535432
X78486Y496062
X74612Y482536
X7366Y494284
X18288Y290576
X22034Y283908
X32448Y277050
X54038Y278828
X60642Y273240
X73596Y267144
Y260540
X72834Y252920
X85534Y236410
X83502Y230568
X97472Y229044
Y235394
Y242760
X109982Y227584
X121602Y215582
X134302Y229298
X134874Y244094
X142240Y241300
X117284Y278066
X103314Y282130
X41084Y257492
Y250380
X43624Y214058
Y208470
X40830Y201358
X42862Y195770
X55896Y183074
Y172074
X66896
Y183074
X77896
Y172074
Y161074
Y150074
X66896
X55896
Y161074
X66896
X99273Y168107
X104838Y185102
X73596Y221424
X68008
X15938Y156654
X5588Y559308
X48260Y558038
X47498Y572770
X86614Y575310
X71882Y622808
X33782Y612140
X6858Y604012
X8128Y652018
X65786Y700532
X114808Y697484
X113538Y630682
X128206Y553402
X155194Y552576
X187198Y558546
X195072Y574548
X207264Y573532
X209296Y587248
X237744Y564896
X313690
Y602488
X364490Y592582
Y576580
X364744Y566166
X438658Y546354
X446278Y622554
X463296Y632206
X489458
X490474Y643890
X518160Y629666
X538734Y618236
X475488Y607568
X420116Y626110
X418084Y644906
X431546Y660908
X439674Y685292
X380746Y679704
X326136Y697738
X270002Y696976
X268732Y675386
X226822Y691642
X183134Y697738
X194310Y668274
X185928Y624840
X517906Y685546
X569468Y672084
Y653796
X591566Y651764
X616458Y655066
X604520Y635254
X584898Y619442
X584454Y601218
X572262Y602234
X564134Y601980
X555498
X555244Y633222
X565848Y567372
X621474Y554926
X616458Y591058
X773430Y591820
X828310Y597650
X838310
X848310
Y607650
Y617650
X838310
X828310
Y607650
X838310
X812546Y646938
X818896Y676148
X775208Y676910
X743458Y674370
X740600Y699452
X731202Y699198
X865822Y672020
X875284Y652780
X889190Y681418
X890460Y690816
X914146Y606298
X939546Y598170
X743966Y548132
X966724Y575310
X994664Y571246
X1030224Y571500
X1029716Y615188
X1032256Y694944
T02
X32220Y32220
X50000Y24600
X67780Y32220
X75400Y50000
X67780Y67780
X50000Y75400
X32220Y67780
X24600Y50000
X643318Y48196
Y34988
Y22034
X666686
Y35242
Y48196
Y73596
Y86804
Y100266
X643318Y100196
Y86804
Y73596
X685990Y67246
X711708Y71243
Y60577
X712914Y30924
X712406Y22034
X731456Y21272
X743648
X755078Y25336
Y36004
Y46926
X773112Y59626
X789114Y36004
X831532Y35750
X845756Y59626
X880046Y56324
X907478Y57340
X922210Y57594
X915098Y70294
X915098Y101028
X928560Y124396
X906716Y137350
X879284Y144462
X847026Y145478
X846264Y121348
X830262Y105854
X855154Y95440
X883602Y90106
X900938Y45212
X928814Y29908
X800036Y114490
X804608Y132524
X806132Y145732
X749236Y135064
Y122364
Y109664
X725106Y87312
X685760Y34264
X651700Y116268
Y129476
Y142430
X628332
Y129476
Y116268
X668210Y135318
X949134Y93154
X982220Y67780
X1000000Y75400
X1017780Y67780
X1025400Y50000
X1017780Y32220
X1000000Y24600
X982220Y32220
X974600Y50000
X951928Y148526
X963104Y161226
X952436Y231584
X963104Y271208
X968184Y299402
X951166Y313880
X962596Y327088
X950912Y396176
X944816Y423608
X948118Y456374
X952436Y478218
X969454Y470598
X969200Y450786
X1020508Y445452
X1020000Y522414
X927798Y536384
X928052Y503364
X893000Y499300
X867600Y486600
X842200
Y507174
X864806Y511746
X866584Y537400
X834072Y526986
X816546Y528002
X816800Y512000
X791400
X796480Y531558
X766000Y512000
X762698Y498538
X762444Y480504
X762190Y462216
X768038Y450254
Y440254
Y430254
X779038Y424254
X785038Y430254
X798038
X792038Y424254
X804038
X810038Y430254
X819594Y418274
X829246Y427418
X833056Y403796
X847280Y397192
X881570Y397446
X904684Y396430
X899858Y427672
X906970Y456120
X928052Y454850
X864552Y445706
X864298Y427418
X842200Y461200
X801474Y396526
X788774
X775820
X775906Y371030
X788606
X801560
X725614Y362648
X710882
X703516Y332168
X703008Y320484
X739076Y340296
X756602Y313626
X772858Y283654
X778446Y241490
Y228536
Y215328
X801814
Y228536
Y241490
X829754Y232092
X826960Y216852
X829500Y201612
X819594Y191960
X807148Y196278
X773112Y196532
X789622Y170878
X787844Y149542
X744410Y158178
X662114Y168338
X652462Y168592
Y181546
X662114
X661352Y193230
X652462Y194246
X633412Y216344
X629602Y243014
X612330Y250888
X635444Y278574
X551624Y289496
X544258Y260794
X563562Y325056
Y336740
X560768Y347662
X566356Y379666
X566610Y391350
X554926Y418528
X572452Y451548
Y462978
X705866Y466344
X722312Y470852
X741870Y468058
X728224Y443598
X700024Y444500
X689356Y441706
X696150Y398462
X699706Y236410
X701992Y213296
X625030Y151574
X863282Y170370
X862774Y189420
X867600Y225742
X856170
X897572Y226504
X895286Y216852
X896556Y202374
X920686Y202628
X928052Y172910
Y253428
X923734Y266890
X927798Y288226
X902398Y293306
X904430Y313118
X881062Y318706
X869886Y334200
X853376Y318706
X864044Y292544
X828992Y292798
X818832Y293676
X847534Y266890
X881062Y266382
X889952Y251142
X904176Y234378
X928052Y336486
X927798Y372808
X542226Y404050
X535432Y427990
X532574Y438594
X532066Y451548
X535940Y462788
X518668Y473202
X485648Y469646
X438404Y488188
Y497840
X317182Y438340
X316166Y414464
X304228Y425640
Y364426
X303974Y352996
X304990Y319722
X286780Y307452
X208250Y309500
Y319250
X208000Y353000
X207750Y363000
X197548Y377126
X192976Y396176
X202660Y396110
X165036Y410146
X155384
X155638Y456882
X193738Y480504
X210000Y491000
X216750Y498000
X244716Y473179
X235750Y441000
X276794Y379702
X174180Y333184
Y325056
X155130Y344360
X399224Y294322
X423100
X520128Y291782
X520954Y321056
X520636Y344360
X508444Y359600
X141414Y370776
X142938Y389826
X131000Y421322
X123888Y439610
X129730Y481266
X114490
X106108Y492442
X96500Y496506
X90868Y503110
X90360Y524192
X118856Y523444
X66738Y542226
X42750Y459750
X20002Y322262
X131000Y325310
Y333438
X130746Y344106
X84772Y558990
X67780Y642220
X50000Y634600
X32220Y642220
X24600Y660000
X32220Y677780
X50000Y685400
X67780Y677780
X75400Y660000
X322580Y629666
X330200
X388620Y621792
Y606298
X374840Y697420
X683958Y570166
X711708Y567436
X725424
X739902
X754888
X770128
X775652Y578294
X785304Y547052
X823277
X825690Y571182
Y579564
Y587946
X816038Y583882
Y572452
X852614Y564070
X862266
X872426Y563816
X866838Y547306
X904938Y561276
X927798Y586168
X877760Y638492
X867854Y660844
X857694Y660336
X854392Y669734
X835850Y667956
Y658558
Y649160
X856678Y625792
X809688Y630110
X982220Y642220
X1000000Y634600
X1017780Y642220
X1025400Y660000
X1017780Y677780
X1000000Y685400
X982220Y677780
X974600Y660000
T03
X454596Y554926
X479996
X505396
X530796
Y580326
X505396
X479996
X454596
Y650176
X479996
X505396
X530796
Y675576
X505396
X479996
X454596
X556196
Y650176
Y580326
Y554926
X643238Y556630
Y582030
Y607430
Y632830
Y658230
X668638
Y632830
Y607430
Y582030
Y556630
T04
X164662Y502998
X190062
Y528398
X164662
X139262
Y502998
X117244Y402500
X97178
Y377300
X117244
T05
X121900Y40000
X147300
X172700
X198100
X251900
X277300
X302700
X328100
X381900
X407300
X432700
X458100
X512000Y40100
X537400
X458100Y110000
X432700
X407300
X381900
X562800Y40100
X588200
X1025250Y107000
X662622Y310578
Y335978
Y361378
X662876Y415734
Y441134
Y466534
X601000Y466700
Y441300
Y387700
Y362300
Y308700
Y283300
X27554Y537394
Y582606
X125222Y598678
Y659892
X150622
X206756
X232156
X287516Y660000
X312916
X338316
X363716
X150622Y598678
X922210Y645604
Y671004
T06
X667194Y243522
X717994
T07
X52446Y524948
Y595052
T08
X927798Y148653
Y231203
Y313753
Y396303
Y478853
Y561403
T09
X772338Y35850
X806374
X846010Y35750
X880046
Y170370
X846010
X806374Y170470
X772338
X847280Y293052
X881316
Y427672
X847280
T10
X70000Y329802
Y450000
T11
X224790Y570992
Y596392
X250190
Y570992
X275590
Y596392
X300990
Y570992
X326390
Y596392
X351790
Y570992
X377190
Y596392
T12
X50000Y50000
X1000000
X50000Y660000
X1000000
M30
