*
%FSLAX24Y24*%
%MOIN*%
G04 A1 - i274x.roundedrectd11.d11 *
%AMA1outline*
1,1,0.000000,0.000000,-0.039350*
1,1,0.000000,0.000000,0.039350*
20,1,0.000000,0.000000,-0.039350,0.000000,0.039350,0.0*
1,1,0.000000,0.039350,0.000000*
1,1,0.000000,-0.039350,0.000000*
20,1,0.000000,0.039350,0.000000,-0.039350,0.000000,0.0*
1,1,0.078700,0.000000,0.000000*
1,1,0.078700,0.000000,0.000000*
1,1,0.078700,0.000000,0.000000*
1,1,0.078700,0.000000,0.000000*
%
%ADD10C,0.010000*%
%ADD11C,0.008000*%
%ADD12A1outline*%
%IPPOS*%
%LNoutline.gbr*%
%LPD*%
G75*
G54D10*
X009272Y009272D02*
X097106D01*
Y098287D01*
X009272D02*
X097106D01*
X009272Y009272D02*
Y098287D01*
G54D11*
X011811Y039764D02*
X053150D01*
X011811Y011811D02*
X053150D01*
X011811D02*
Y039764D01*
X053150Y011811D02*
Y039764D01*
X053189D02*
X094528D01*
X053189Y011811D02*
X094528D01*
X053189D02*
Y039764D01*
X094528Y011811D02*
Y039764D01*
X011811Y067756D02*
X053150D01*
X011811Y039803D02*
X053150D01*
X011811D02*
Y067756D01*
X053150Y039803D02*
Y067756D01*
X053189D02*
X094528D01*
X053189Y039803D02*
X094528D01*
X053189D02*
Y067756D01*
X094528Y039803D02*
Y067756D01*
X011811Y095748D02*
X053150D01*
X011811Y067795D02*
X053150D01*
X011811D02*
Y095748D01*
X053150Y067795D02*
Y095748D01*
X053189D02*
X094528D01*
X053189Y067795D02*
X094528D01*
X053189D02*
Y095748D01*
X094528Y067795D02*
Y095748D01*
G54D12*
X013061Y096959D03*
X093356D03*
Y010561D03*
X013061D03*
M02*
