M48
;Layer_Color=9474304
;FILE_FORMAT=2:4
INCH,TZ
;TYPE=PLATED
T1F00S00C0.0079
T2F00S00C0.0100
T3F00S00C0.0150
T4F00S00C0.0200
T5F00S00C0.0250
T6F00S00C0.0280
T7F00S00C0.0300
T8F00S00C0.0354
T9F00S00C0.0380
T10F00S00C0.0400
T11F00S00C0.0550
T12F00S00C0.0590
T13F00S00C0.0630
T14F00S00C0.0760
T15F00S00C0.0870
;TYPE=NON_PLATED
T16F00S00C0.1181
%
T01
X16517Y15391
X16950
X17383
X21017
X21450
X21883
X30657
X31090
X31523
Y15824
Y16257
Y16690
X31090
X30657
Y16257
X31090
Y15824
X30657
X21883
X21450
X21017
Y16257
Y16690
X21450
Y16257
X21883
Y16690
X17383
Y16257
X16950
Y16690
X16517
Y16257
Y15824
X16950
X17383
X12909Y15751
Y16184
Y16617
Y17050
X12476
Y16617
X12043
Y17050
Y16184
X12476
Y15751
X12043
T02
X10600Y14370
X10820
X10600Y15170
X11430Y15230
X11810Y14320
Y14010
X13050Y13470
X13620Y13280
X13500Y14470
X13510Y14850
X13750Y15000
X13400Y15240
X13170Y14650
X14800Y14830
X15150Y15100
Y15540
X15040Y14060
X15210Y13780
X15000Y12560
X14510
X15550Y12550
X16380Y12510
X16110Y13450
X16090Y14360
X15780Y14370
X15904Y14870
X17874Y14880
X18190Y14660
X17740Y14380
X17870Y13870
X18550Y13910
X19150Y13440
X19420
X19540Y12900
X19130Y12890
X19290Y14810
X19690Y14830
X20430Y14844
X20380Y14370
X20630
X22550Y14404
X22800Y14680
X22374Y14880
X22030Y13490
X23330Y13650
X23510Y13980
X23410Y15580
X26495Y15475
X26690Y15300
X29330Y15140
X30070Y14844
X29090Y13850
Y13600
X30380Y12640
X30550Y12480
X30880Y12510
X22690Y12490
X19240Y15280
X32014Y14880
X32381Y14621
X32190Y14404
X31750Y14340
Y14120
X32300Y13540
X32755Y12365
X33410Y12940
X33940Y13410
X33410Y14260
X31640Y12250
X46830Y10910
X46950Y12540
X47250Y12860
X38340Y17820
X36990
X36780Y20800
X37360Y21390
X38590Y21410
X39050Y20790
X34120Y19060
X33610Y18160
X32890Y18600
X32310Y18630
X32120Y18770
X31800Y18880
X31790Y18640
X31380Y18460
X31300Y18230
X31550Y19650
X32570Y16765
X32380Y16101
X32810Y30000
X40090Y30760
X39590Y28060
X43880
X45140Y30170
X44950Y31010
X28983Y29630
X28413
X27830Y29620
X27880Y29040
X28450
X29040Y29050
X25323Y30010
X24630
X25750Y30740
X25810Y30990
X22120Y31210
X20450Y30980
Y30410
X19030Y30220
X18930Y30750
X19050Y20340
X19209Y20047
X19400Y19680
X19780Y19470
X20160Y19670
X20910Y20140
X21160
X21970Y20070
X21600Y18910
X21410Y18700
X21610Y18440
X21740Y18240
X22450Y18910
X22890Y18560
X23020Y18350
X23223Y18660
X23650
X23790Y18080
X24260Y18370
X24160Y19220
X24120Y16800
X24900Y16750
X25570Y16090
X26650Y15810
X26880
X28580Y16220
X28590Y17340
X30130Y17280
X30119Y17729
X30260Y17870
X30100Y18640
X30210Y19440
X29810Y19750
X29950Y20240
X29490Y20220
X28820
X29130Y19740
X28380Y19130
X28120Y20700
X27790Y20380
X27440
X27115
X26480
X26060Y20250
X27670Y21190
X28870Y21030
X30220Y21020
X30480Y20710
X30990
X30810Y19960
X23360Y21140
X22450Y21240
X22610Y21760
X22930Y16765
X22740Y16101
X20490Y17280
X20520Y17650
X20640Y17870
X20150Y18050
X19250Y18730
X18670Y18600
X18152Y18650
X18170Y18890
X17770Y18880
X17660Y18670
X17110Y18440
X17240Y18240
X15940Y18330
X16170Y17850
X16010Y17670
X15990Y17280
X15680Y19190
X16380Y20210
X16390Y20450
X16710Y20510
X17110Y19840
X17410Y19660
X17650Y19650
X18290Y19370
X18430Y16765
X18240Y16101
X13751Y16461
X13970Y17140
X14630Y18330
X15000Y18720
X15040Y19413
X15360Y19340
X13850Y19380
X13640Y19110
X13560Y18880
X13130Y18920
X13210Y19150
X12740Y18560
X12520
X11560Y18270
Y18050
X11530Y17700
X11480Y19780
X12630Y19810
X12450Y20090
X12230Y20600
X11970Y20820
X11120Y20750
X10710Y21020
X13810Y20950
X14460Y20790
X14180Y18870
X10470Y16010
X16823Y32153
X17200Y32170
X17683Y32157
X19450
X20240
X20990Y31990
Y31600
X21620Y32280
X22930Y32240
X23510Y31970
Y31580
X23180
X22650Y31350
X24020Y31330
X24120Y32240
X24590Y32210
X24920Y32160
X25050Y31410
X25420
X25758Y31378
T03
X11111Y11111
X10811Y11811
X11111Y12511
X11811Y12811
X12511Y12511
X12811Y11811
X12511Y11111
X11811Y10811
X19910Y12470
X20810Y12480
X21470
X29230Y12160
X29570Y12480
X29950Y12470
X31410Y12480
X31990
X32540Y12560
X35160Y12787
Y13387
X35170Y13887
X34970Y14360
Y14960
X34980Y15460
X34320Y15520
X35910Y15480
X35920Y14950
X35910Y14370
X36100Y13907
X36110Y13377
X36100Y12797
Y11860
X36110Y11330
X36100Y10750
X35160Y10740
Y11340
X35170Y11840
X37360Y11990
Y11520
Y11010
X37930
X38470
X38950
X39480Y11254
X40910Y11260
X40280Y12190
X41590
X42130Y12880
X42530Y14010
X43160Y14620
X43190Y15570
X44460Y15530
X45540Y15250
X46400Y14740
X46210Y13820
X46210Y12610
X46210Y12150
X46830Y11600
X45500
X44490Y12060
X43840Y11250
X42580
X43140Y12190
X43510Y13600
X44630Y13390
X45560Y13230
X41340Y14350
X41580Y15580
X40250Y15570
X39660Y14160
X38688Y14219
Y14573
X39044Y14627
X38268Y14573
X37848
X37428Y14573
Y14219
Y13864
X37440Y13390
Y13090
X37450Y12730
X37780Y12490
X38890Y12450
X38550Y13090
X38550Y13391
X38688Y13864
X36570Y15560
X47550Y13510
X49500Y13500
X49213Y12811
X49913Y12511
X50213Y11811
X49913Y11111
X49213Y10811
X48513Y11111
X48213Y11811
X48513Y12511
X49500Y15000
Y16500
Y18000
Y19500
Y21000
Y22500
Y24000
Y25500
X48000Y24000
X47740Y22720
X47290Y22200
X47960Y21630
X47760Y20520
X48000Y19500
Y18000
X47760Y16190
X47320Y15690
X47040Y26520
X47170Y27810
X47340Y28670
X48010Y28370
X48000Y27590
Y30000
X46380Y29660
X45000Y29500
X44000Y29000
X43000
Y28000
X42061Y28128
X41661
Y28528
X42061
Y28928
X41661
Y29328
X42061
X42000Y30000
X43000
X44000
Y31000
X43000
X42000
X41000
Y30000
X40861Y29328
X40461
Y28928
X40861
Y28528
X40461
Y28128
X40861
X41261
Y28528
Y28928
Y29328
X39498Y29409
X40000Y30000
X38110Y30236
X37569
X37185Y29872
X37126Y29311
Y28789
X37530
X38110Y29537
X37205Y30906
X34449Y28937
X33937Y29331
X32244Y28799
X32402Y28189
X31700Y26750
X31339Y25039
X32000Y24400
X31496Y22913
X31650Y21800
X31270Y20110
X34780Y18360
X34330Y17460
Y16610
X34890Y16130
X37660Y16370
X39060Y16020
X39610Y17450
X40280Y17580
X40480Y18260
Y18860
X40490Y19360
X40940Y19740
X41420Y19380
X41430Y18850
X42510Y18980
X42400Y18380
X42500Y17780
X42110Y17400
X41620Y17570
X40930Y16570
X43830Y16550
X43810Y17300
X44000Y18730
X43550
X45180Y18760
X45090Y18380
X45140Y17810
X46090Y17820
X46380Y16650
X46210Y20350
X46370Y21190
X45370Y21390
X45450Y22170
X44530Y22390
X44090Y23000
X43440Y22390
X43860Y21360
X42480Y21370
X42080Y21405
X42000Y21000
Y19500
X43210Y20350
X44530Y20330
X44880Y19730
X46370Y23150
X44550Y25490
X43200Y25480
X42640Y25740
X41810Y25600
X41258Y25617
X40684
X40110
X39880Y24950
X40090Y24190
X40602
X41114
X41625
X41870Y24960
X41734Y26782
X41498Y26545
X41025
X41261Y26782
X40750
X40513Y26545
X40080Y26782
Y27175
Y27569
X39726Y27372
Y26978
X42490Y26670
X43870
X43880Y27390
X45550Y27800
X46380Y27750
X45270Y26680
X39000Y24000
X39362Y21808
X38470Y20930
X38500Y20270
X38189Y19829
X37789
X37389
X36989
Y19429
Y19029
X37389
X37789
X38189
Y18629
Y18229
X37789
Y18629
X37389
Y18229
X36989
Y18629
X37389Y19429
X37789
X38189
X37650Y20290
X37660Y20930
X36880Y20290
X36730Y17350
X39456Y18281
X39710Y18530
Y19020
X39456Y18793
Y19266
X36000Y24000
X35059Y26083
X35020Y28031
X32470Y30660
X32090
X30789Y29014
X31024Y28150
X31240Y27687
X30787Y27598
Y27106
X30945Y26693
X30945Y25787
Y24921
X30394Y23396
X30400Y22820
X30000Y23100
X28514Y23957
X28248Y24508
X28701Y24636
X27362Y24331
X27362Y23819
X27283Y22756
X26811Y23071
X26214Y22963
X25689Y23071
X25710Y22570
X24596Y22854
X24163Y23120
X24488Y23533
X24045Y23829
X24596Y24232
X24449Y24833
X24754Y25335
X24419Y25709
X23927Y25807
X24055Y26339
X24488Y26614
X24744Y26122
X24115Y26999
X23953Y27360
X23583Y27362
X23543Y26653
X23799Y25197
X22447Y25709
X22314Y24686
X21772Y24606
X21753Y24214
X21712Y23810
X21400Y23470
X21500Y22810
X21811Y22480
X21794Y22103
X22314Y23663
X20832Y24562
X20630Y24911
X20315Y25079
X20251Y26238
X20453Y27077
X20942Y26929
X21614
X21890Y27244
X22264Y27274
X22441Y27677
X23366Y28238
X20758
X20350Y28660
X19477Y28472
X19124Y27205
X18174Y27100
X17800
X17428
X17423Y27478
X17800Y27474
X18174
Y26726
X17800
X17426Y26716
X17579Y25463
X17970Y25470
X18290Y25710
X19125Y25759
X18310Y24590
X18022Y24134
X18032Y23740
X18400Y23300
X18041Y22411
Y22028
X17254Y22077
X15797Y23140
X15718Y25315
X16604Y25531
X16752Y25955
X15955Y26211
X15807Y28150
X17470Y28760
X18110Y29173
X18376Y29449
X19640Y31070
X27117Y29446
X27106Y29061
X27361Y27826
X27087Y27480
X26251Y27521
X29830Y29590
X26368Y21478
X25380Y21480
X24790
X25150Y20440
X25470
X26062Y18833
X26042Y18312
X26052Y17800
X26800Y17731
Y18823
X27962Y18795
X27774Y18311
X27971Y17800
X27853Y17052
X27860Y16580
X15551Y22579
X14675Y21850
X10778Y21870
X11526Y27943
X14720Y27150
X15000Y26430
X14380Y29370
X14468Y30600
X14882Y30591
X13400Y30480
X12500Y32000
X14483Y32013
X10500Y31500
X11111Y35127
X10811Y35827
X11111Y36527
X11811Y36827
X12511Y36527
X12811Y35827
X12511Y35127
X11811Y34827
X13500Y37000
X17300Y33750
X27630Y34060
X27680Y34510
X27180Y31260
X31820Y34060
X32150Y34310
X32884Y34803
X36640Y34120
Y32660
X36100Y31366
X37500Y31500
X38485Y31380
X40760
X42255
X42220Y32580
X42341Y33372
X41947
X41553
Y33766
Y34159
X41947
X42341
Y33766
X41947
X42670Y34480
X43750Y35100
X43886Y35616
X44550Y35710
X44180Y36930
X43380Y36280
X42796Y36292
X42295Y36930
X40410
X38525
X36640
Y35580
X40820Y34650
X44550Y34115
X45000Y33000
X44550Y32520
X45000Y31500
X44140Y31380
X43500Y31500
X43290Y32040
X46500Y33000
Y34500
Y36000
X48213Y35827
X48513Y35127
X49213Y34827
X49913Y35127
X50213Y35827
X49913Y36527
X49213Y36827
X48513Y36527
X48000Y34500
X49500Y33000
X48000Y31500
T04
X36000Y16730
X36020Y17700
Y18200
X41130Y32600
T05
X39311Y30030
T06
X13642Y29429
X42460Y32160
T07
X39890Y32123
X41826Y34996
X41830Y36140
T08
X27740Y31690
Y32690
X28740
Y31690
X29740
Y32690
X30740
Y31690
Y35440
X29740
X28740
X27740
Y36440
X28740
X29740
X30740
X31740
Y35440
Y32690
Y31690
X34397Y33057
X35397
Y34057
X34397
Y35057
X35397
Y36057
X34397
Y37057
X35397
T09
X15695Y29676
Y30676
X16695
Y29676
X17695
Y30676
X21421
Y29676
X22421
Y30676
X23421
Y29676
X14458Y25689
X13668
Y24697
X14458
T10
X14642Y11417
X15642
X16642
X17642
X19760
X20760
X21760
X22760
X24878
X25878
X26878
X27878
X30000Y11421
X31000
X27878Y14173
X26878
X25878
X24878
X32000Y11421
X33000
X50207Y14055
X33504Y20996
Y21996
Y24106
Y25106
Y27217
Y28217
X34990Y30370
X37008Y27913
X38008
X38059Y25630
X37059
X10927Y31000
Y32780
X14354Y33465
X15354
Y35827
X14354
X16354
X18488
X19488
X20488
X22622
X23622
X24622
Y33465
X23622
X22622
X20488
X19488
X18488
X16354
X34990Y31370
T11
X36057Y22717
X38057
T12
X11907Y30510
Y33270
T13
X40250Y11254
X41590
X43150Y11250
X44490
Y16550
X43150
X41590Y16554
X40250
X43200Y21380
X44540
Y26680
X43200
T14
X46370Y15695
Y18945
Y22195
Y25445
Y28695
Y31945
T15
X12598Y22827
Y27559
T16
X11811Y11811
X49213
X11811Y35827
X49213
M30
