G04 Layer_Physical_Order=4*
G04 Layer_Color=16711680*
%FSLAX24Y24*%
%MOIN*%
G70*
G01*
G75*
%ADD10C,0.0650*%
%ADD11C,0.0080*%
G04:AMPARAMS|DCode=16|XSize=50mil|YSize=50mil|CornerRadius=25mil|HoleSize=0mil|Usage=FLASHONLY|Rotation=90.000|XOffset=0mil|YOffset=0mil|HoleType=Round|Shape=RoundedRectangle|*
%AMROUNDEDRECTD16*
21,1,0.0500,0.0000,0,0,90.0*
21,1,0.0000,0.0500,0,0,90.0*
1,1,0.0500,0.0000,0.0000*
1,1,0.0500,0.0000,0.0000*
1,1,0.0500,0.0000,0.0000*
1,1,0.0500,0.0000,0.0000*
%
%ADD16ROUNDEDRECTD16*%
%ADD29C,0.0600*%
%ADD57C,0.0100*%
%ADD58C,0.0070*%
%ADD59C,0.0120*%
%ADD60C,0.0240*%
%ADD61C,0.0400*%
%ADD62C,0.0250*%
%ADD63C,0.0200*%
%ADD64C,0.0160*%
%ADD66C,0.0500*%
%ADD68C,0.0700*%
%ADD70C,0.0300*%
%ADD73R,0.0591X0.0591*%
%ADD74C,0.0591*%
G04:AMPARAMS|DCode=75|XSize=133mil|YSize=83mil|CornerRadius=0mil|HoleSize=0mil|Usage=FLASHONLY|Rotation=90.000|XOffset=0mil|YOffset=0mil|HoleType=Round|Shape=Octagon|*
%AMOCTAGOND75*
4,1,8,0.0208,0.0665,-0.0208,0.0665,-0.0415,0.0458,-0.0415,-0.0458,-0.0208,-0.0665,0.0208,-0.0665,0.0415,-0.0458,0.0415,0.0458,0.0208,0.0665,0.0*
%
%ADD75OCTAGOND75*%

%ADD76O,0.0825X0.1650*%
%ADD77O,0.0600X0.1200*%
%ADD78P,0.0758X8X292.5*%
%ADD79C,0.1000*%
%ADD80C,0.1305*%
%ADD81C,0.0540*%
%ADD82P,0.0671X8X22.5*%
%ADD83O,0.1200X0.0600*%
%ADD84O,0.1024X0.0591*%
%ADD85R,0.0591X0.0591*%
%ADD86O,0.1300X0.1360*%
%ADD87C,0.0800*%
%ADD88C,0.0300*%
%ADD89C,0.0250*%
%ADD90C,0.0320*%
%ADD91C,0.0500*%
%ADD92C,0.0450*%
%ADD93C,0.0400*%
%ADD111C,0.0600*%
G04:AMPARAMS|DCode=116|XSize=50mil|YSize=50mil|CornerRadius=25mil|HoleSize=0mil|Usage=FLASHONLY|Rotation=180.000|XOffset=0mil|YOffset=0mil|HoleType=Round|Shape=RoundedRectangle|*
%AMROUNDEDRECTD116*
21,1,0.0500,0.0000,0,0,180.0*
21,1,0.0000,0.0500,0,0,180.0*
1,1,0.0500,0.0000,0.0000*
1,1,0.0500,0.0000,0.0000*
1,1,0.0500,0.0000,0.0000*
1,1,0.0500,0.0000,0.0000*
%
%ADD116ROUNDEDRECTD116*%
G04:AMPARAMS|DCode=117|XSize=46mil|YSize=63mil|CornerRadius=11.5mil|HoleSize=0mil|Usage=FLASHONLY|Rotation=180.000|XOffset=0mil|YOffset=0mil|HoleType=Round|Shape=RoundedRectangle|*
%AMROUNDEDRECTD117*
21,1,0.0460,0.0400,0,0,180.0*
21,1,0.0230,0.0630,0,0,180.0*
1,1,0.0230,-0.0115,0.0200*
1,1,0.0230,0.0115,0.0200*
1,1,0.0230,0.0115,-0.0200*
1,1,0.0230,-0.0115,-0.0200*
%
%ADD117ROUNDEDRECTD117*%
G04:AMPARAMS|DCode=118|XSize=46mil|YSize=63mil|CornerRadius=11.5mil|HoleSize=0mil|Usage=FLASHONLY|Rotation=270.000|XOffset=0mil|YOffset=0mil|HoleType=Round|Shape=RoundedRectangle|*
%AMROUNDEDRECTD118*
21,1,0.0460,0.0400,0,0,270.0*
21,1,0.0230,0.0630,0,0,270.0*
1,1,0.0230,-0.0200,-0.0115*
1,1,0.0230,-0.0200,0.0115*
1,1,0.0230,0.0200,0.0115*
1,1,0.0230,0.0200,-0.0115*
%
%ADD118ROUNDEDRECTD118*%
G36*
X43230Y19400D02*
Y19170D01*
Y18830D01*
X43300Y18760D01*
X43300Y17950D01*
X42960Y17610D01*
X42800Y17610D01*
X42290Y17100D01*
Y15970D01*
X42210Y15890D01*
X41750Y15430D01*
X39960Y15430D01*
X39430Y15960D01*
X39430Y17500D01*
X39690Y17760D01*
X40680Y17760D01*
X42490Y19570D01*
X43060Y19570D01*
X43230Y19400D01*
D02*
G37*
G36*
X27648Y34728D02*
X27594Y34717D01*
X27521Y34669D01*
X27473Y34596D01*
X27463Y34549D01*
X27456Y34510D01*
X27456Y34504D01*
X27455Y34472D01*
X27414Y34464D01*
X27379Y34441D01*
X24564Y31626D01*
X24541Y31591D01*
X24533Y31550D01*
Y31072D01*
X24453Y31050D01*
X24441Y31067D01*
X24441Y31067D01*
X24212Y31296D01*
X24219Y31330D01*
X24204Y31406D01*
X24161Y31471D01*
X24132Y31490D01*
Y31761D01*
X24434Y32063D01*
X24434Y32063D01*
X24459Y32100D01*
X24467Y32143D01*
X24467Y32143D01*
Y32369D01*
X24561Y32463D01*
X24925D01*
X24925Y32463D01*
X24968Y32471D01*
X25004Y32496D01*
X27316Y34808D01*
X27640D01*
X27648Y34728D01*
D02*
G37*
G36*
X16954Y18558D02*
X16926Y18516D01*
X16911Y18440D01*
X16926Y18364D01*
X16969Y18299D01*
X16972Y18298D01*
X17055Y18173D01*
X17056Y18164D01*
X17099Y18099D01*
X17108Y18094D01*
X17093Y18044D01*
X16233D01*
X16212Y18094D01*
X16726Y18608D01*
X16927D01*
X16954Y18558D01*
D02*
G37*
G36*
X24322Y32948D02*
X24358Y32901D01*
X24361Y32899D01*
X24367Y32840D01*
X24360Y32799D01*
X24041Y32479D01*
X24016Y32443D01*
X24008Y32400D01*
X24008Y32400D01*
Y32400D01*
X23979Y32381D01*
X23936Y32316D01*
X23921Y32240D01*
X23931Y32190D01*
X23691Y31949D01*
X23666Y31913D01*
X23658Y31870D01*
X23658Y31870D01*
Y31365D01*
X23584Y31335D01*
X23504Y31414D01*
X23468Y31439D01*
X23468Y31439D01*
X23379Y31528D01*
X23379Y31528D01*
X23371Y31540D01*
X23379Y31580D01*
X23364Y31656D01*
X23321Y31721D01*
X23292Y31740D01*
Y31954D01*
X24209Y32871D01*
X24209Y32871D01*
X24234Y32907D01*
X24237Y32927D01*
X24300Y32949D01*
X24322Y32948D01*
D02*
G37*
G36*
X18351Y18896D02*
X18387Y18871D01*
X18430Y18863D01*
X18430Y18863D01*
X18599D01*
X18618Y18839D01*
X18599Y18785D01*
X18594Y18784D01*
X18529Y18741D01*
X18486Y18676D01*
X18471Y18600D01*
X18486Y18524D01*
X18529Y18459D01*
X18594Y18416D01*
X18670Y18401D01*
X18746Y18416D01*
X18811Y18459D01*
X18854Y18524D01*
X18860Y18558D01*
X18915Y18574D01*
X19318Y18171D01*
Y17394D01*
X19272Y17385D01*
X19268Y17386D01*
X19227Y17447D01*
X18227Y18447D01*
X18164Y18489D01*
X18090Y18504D01*
X17844D01*
X17817Y18554D01*
X17844Y18594D01*
X17859Y18670D01*
X17855Y18691D01*
X17889Y18725D01*
X17911Y18739D01*
X17954Y18804D01*
X17969Y18880D01*
X17954Y18956D01*
X17945Y18969D01*
X17969Y19013D01*
X18234D01*
X18351Y18896D01*
D02*
G37*
G36*
X15631Y18180D02*
X15018Y17567D01*
X14972Y17586D01*
Y17780D01*
X14964Y17823D01*
X14939Y17859D01*
X14903Y17884D01*
X14881Y17888D01*
X14674Y18095D01*
X14688Y18143D01*
X14706Y18146D01*
X14771Y18189D01*
X14783Y18208D01*
X15550D01*
X15597Y18217D01*
X15599Y18219D01*
X15631Y18180D01*
D02*
G37*
G36*
X47530Y32590D02*
Y31570D01*
Y30880D01*
X46960Y30310D01*
X46220D01*
X45270Y29360D01*
Y28150D01*
X44960Y27840D01*
X42880Y27840D01*
X42080Y27040D01*
X40970D01*
X40170Y27840D01*
X39580D01*
X39340Y28080D01*
Y29460D01*
X39339Y29617D01*
X39600Y29878D01*
Y29964D01*
X39609Y30030D01*
X39600Y30095D01*
Y30770D01*
X39980Y31150D01*
X44940D01*
X45082Y31292D01*
X45086Y31293D01*
X45159Y31341D01*
X45207Y31414D01*
X45208Y31418D01*
X45220Y31430D01*
Y31478D01*
X45224Y31500D01*
X45220Y31522D01*
Y32440D01*
X45210Y32480D01*
X45880Y33150D01*
X46970D01*
X47530Y32590D01*
D02*
G37*
G36*
X15543Y12863D02*
X15606Y12821D01*
X15680Y12806D01*
X15745D01*
X15772Y12772D01*
X15839Y12720D01*
X15916Y12688D01*
X16000Y12677D01*
X16043Y12683D01*
X16186Y12540D01*
Y12536D01*
X16181Y12510D01*
X16188Y12478D01*
X16146Y12429D01*
X15414D01*
X15194Y12649D01*
Y12745D01*
X15228Y12772D01*
X15280Y12839D01*
X15312Y12916D01*
X15323Y13000D01*
X15321Y13014D01*
X15368Y13038D01*
X15543Y12863D01*
D02*
G37*
G36*
X14683Y13043D02*
X14677Y13000D01*
X14688Y12916D01*
X14720Y12839D01*
X14772Y12772D01*
X14806Y12745D01*
Y12586D01*
X14801Y12560D01*
X14816Y12484D01*
X14827Y12468D01*
X14804Y12424D01*
X14460D01*
X14194Y12690D01*
Y12745D01*
X14228Y12772D01*
X14280Y12839D01*
X14312Y12916D01*
X14323Y13000D01*
X14312Y13084D01*
X14280Y13161D01*
X14228Y13228D01*
X14194Y13255D01*
Y13462D01*
X14242Y13484D01*
X14683Y13043D01*
D02*
G37*
G36*
X12935Y19200D02*
X12959Y19156D01*
X12951Y19144D01*
X12936Y19070D01*
Y18946D01*
X12931Y18920D01*
X12946Y18844D01*
X12973Y18804D01*
X12946Y18754D01*
X12766D01*
X12740Y18759D01*
X12714Y18754D01*
X12546D01*
X12520Y18759D01*
X12444Y18744D01*
X12379Y18701D01*
X12336Y18636D01*
X12321Y18560D01*
X12335Y18489D01*
X12333Y18475D01*
X12313Y18439D01*
X11658D01*
X11636Y18454D01*
X11560Y18469D01*
X11484Y18454D01*
X11419Y18411D01*
X11376Y18346D01*
X11361Y18270D01*
X11366Y18244D01*
Y18076D01*
X11361Y18050D01*
X11376Y17974D01*
X11419Y17909D01*
X11484Y17866D01*
X11560Y17851D01*
X11636Y17866D01*
X11701Y17909D01*
X11744Y17974D01*
X11759Y18050D01*
X11760Y18051D01*
X12870D01*
X12896Y18056D01*
X13480D01*
X14091Y17445D01*
Y17090D01*
X13953Y16952D01*
X13911Y16889D01*
X13896Y16815D01*
Y15197D01*
X13846Y15170D01*
X13826Y15184D01*
X13750Y15199D01*
X13674Y15184D01*
X13609Y15141D01*
X13566Y15076D01*
X13559Y15039D01*
X13510Y15049D01*
X13434Y15034D01*
X13369Y14991D01*
X13326Y14926D01*
X13318Y14882D01*
X13275Y14857D01*
X13263Y14855D01*
X13195Y14869D01*
X13121Y14854D01*
X13058Y14812D01*
X13055Y14808D01*
X13029Y14791D01*
X12986Y14726D01*
X12971Y14650D01*
X12986Y14574D01*
X13029Y14509D01*
X13094Y14466D01*
X13139Y14457D01*
X13376Y14220D01*
Y13910D01*
X13391Y13836D01*
X13433Y13773D01*
X13806Y13400D01*
Y13255D01*
X13772Y13228D01*
X13720Y13161D01*
X13688Y13084D01*
X13677Y13000D01*
X13688Y12916D01*
X13720Y12839D01*
X13772Y12772D01*
X13806Y12745D01*
Y12610D01*
X13809Y12596D01*
X13763Y12571D01*
X12517Y13817D01*
X12454Y13859D01*
X12380Y13874D01*
X11140D01*
X11057Y13957D01*
X11063Y14000D01*
X11052Y14084D01*
X11020Y14161D01*
X10968Y14228D01*
X10963Y14232D01*
X11004Y14294D01*
X11019Y14370D01*
X11004Y14446D01*
X10961Y14511D01*
X10896Y14554D01*
X10820Y14569D01*
X10794Y14564D01*
X10626D01*
X10600Y14569D01*
X10524Y14554D01*
X10517Y14549D01*
X10472Y14572D01*
Y15812D01*
X10546Y15826D01*
X10611Y15869D01*
X10654Y15934D01*
X10669Y16010D01*
X10654Y16086D01*
X10611Y16151D01*
X10546Y16194D01*
X10482Y16206D01*
Y17979D01*
X11691Y19188D01*
X12605D01*
X12652Y19197D01*
X12656Y19200D01*
X12935D01*
D02*
G37*
G36*
X46847Y29980D02*
X47704Y29123D01*
X47688Y29084D01*
X47677Y29000D01*
X47688Y28916D01*
X47720Y28839D01*
X47772Y28772D01*
X47839Y28720D01*
X47916Y28688D01*
X48000Y28677D01*
X48084Y28688D01*
X48161Y28720D01*
X48211Y28759D01*
X48450Y28520D01*
X48450Y27550D01*
X48250Y27350D01*
Y27000D01*
X48000D01*
Y26750D01*
X47650D01*
X47150Y26250D01*
X45850Y26250D01*
X45490Y25890D01*
X44870Y25270D01*
X42730Y25270D01*
X42330Y25670D01*
Y27070D01*
X42770Y27510D01*
X42960Y27700D01*
X45160D01*
X45470Y28010D01*
Y29190D01*
X45890Y29610D01*
X46260Y29980D01*
X46847Y29980D01*
D02*
G37*
G36*
X13768Y19200D02*
X13774Y19196D01*
X13850Y19181D01*
X13926Y19196D01*
X13932Y19200D01*
X14081D01*
X14165Y19117D01*
X14148Y19062D01*
X14104Y19054D01*
X14039Y19011D01*
X13996Y18946D01*
X13981Y18870D01*
X13996Y18794D01*
X14039Y18729D01*
X14104Y18686D01*
X14180Y18671D01*
X14256Y18686D01*
X14292Y18710D01*
X14342Y18689D01*
X14347Y18655D01*
X14291Y18599D01*
X14266Y18563D01*
X14258Y18520D01*
X14258Y18520D01*
Y18331D01*
X14212Y18312D01*
X13827Y18697D01*
X13764Y18739D01*
X13690Y18754D01*
X13314D01*
X13287Y18804D01*
X13314Y18844D01*
X13329Y18920D01*
X13324Y18946D01*
Y18990D01*
X13329Y18995D01*
X13351Y19009D01*
X13394Y19074D01*
X13409Y19150D01*
X13407Y19161D01*
X13438Y19200D01*
X13768D01*
D02*
G37*
G36*
X11292D02*
X11311Y19154D01*
X10519Y18362D01*
X10472Y18381D01*
Y19055D01*
X10617Y19200D01*
X11292D01*
D02*
G37*
G36*
X24564Y30324D02*
X24788Y30101D01*
Y29264D01*
X24796Y29223D01*
X24819Y29188D01*
X24902Y29106D01*
Y26366D01*
X24844Y26335D01*
X24822Y26331D01*
X24744Y26346D01*
X24658Y26329D01*
X24585Y26281D01*
X24551Y26229D01*
X24335D01*
X24274Y26309D01*
X24279Y26339D01*
X24265Y26410D01*
X24321Y26449D01*
X24332Y26454D01*
X24402Y26407D01*
X24488Y26390D01*
X24574Y26407D01*
X24647Y26456D01*
X24695Y26528D01*
X24713Y26614D01*
X24695Y26700D01*
X24647Y26773D01*
X24574Y26821D01*
X24488Y26838D01*
X24402Y26821D01*
X24330Y26773D01*
X24320Y26759D01*
X24300Y26762D01*
X24283Y26814D01*
X24278Y26846D01*
X24323Y26914D01*
X24340Y26999D01*
X24329Y27054D01*
X24441Y27167D01*
X24441Y27167D01*
X24466Y27203D01*
X24474Y27246D01*
Y30316D01*
X24554Y30339D01*
X24564Y30324D01*
D02*
G37*
G36*
X29118Y29397D02*
Y29280D01*
X29118Y29280D01*
X29126Y29237D01*
X29151Y29201D01*
X29238Y29114D01*
Y28966D01*
X29151Y28879D01*
X29126Y28843D01*
X29118Y28800D01*
X29118Y28800D01*
Y20261D01*
X29011D01*
X29004Y20296D01*
X28961Y20361D01*
X28896Y20404D01*
X28820Y20419D01*
X28744Y20404D01*
X28730Y20394D01*
X28652Y20439D01*
Y21474D01*
X29003Y21824D01*
X29003Y21824D01*
X29027Y21861D01*
X29036Y21904D01*
X29036Y21904D01*
Y24413D01*
X29036Y24413D01*
X29027Y24456D01*
X29003Y24492D01*
X29003Y24492D01*
X28914Y24581D01*
X28925Y24636D01*
X28908Y24722D01*
X28859Y24794D01*
X28787Y24843D01*
X28701Y24860D01*
X28615Y24843D01*
X28542Y24794D01*
X28494Y24722D01*
X28487Y24690D01*
X28407Y24666D01*
X28334Y24715D01*
X28248Y24732D01*
X28162Y24715D01*
X28089Y24666D01*
X28062Y24626D01*
X27982Y24650D01*
Y27734D01*
X28862Y28614D01*
X28887Y28650D01*
X28895Y28693D01*
X28895Y28693D01*
Y29384D01*
X28949Y29438D01*
X28983Y29431D01*
X29038Y29442D01*
X29118Y29397D01*
D02*
G37*
G36*
X27341Y32690D02*
X27355Y32587D01*
X27395Y32491D01*
X27458Y32408D01*
X27541Y32345D01*
X27637Y32305D01*
X27690Y32298D01*
Y32690D01*
X27790D01*
Y32298D01*
X27843Y32305D01*
X27939Y32345D01*
X28022Y32408D01*
X28085Y32491D01*
X28103Y32533D01*
X28183Y32517D01*
Y32140D01*
X28191Y32099D01*
X28214Y32064D01*
X28416Y31863D01*
X28384Y31785D01*
X28372Y31690D01*
X28384Y31595D01*
X28421Y31506D01*
X28479Y31429D01*
X28556Y31371D01*
X28645Y31334D01*
X28740Y31322D01*
X28835Y31334D01*
X28924Y31371D01*
X28995Y31426D01*
X29021Y31423D01*
X29081Y31404D01*
X29087Y31377D01*
X27751Y30041D01*
X27726Y30005D01*
X27718Y29962D01*
X27718Y29962D01*
Y29780D01*
X27689Y29761D01*
X27646Y29696D01*
X27631Y29620D01*
X27646Y29544D01*
X27689Y29479D01*
X27694Y29476D01*
X27700Y29389D01*
X27405Y29094D01*
X27318Y29120D01*
X27313Y29147D01*
X27265Y29219D01*
X27192Y29268D01*
X27106Y29285D01*
X27020Y29268D01*
X26947Y29219D01*
X26899Y29147D01*
X26882Y29061D01*
X26899Y28975D01*
X26947Y28902D01*
X27020Y28853D01*
X27046Y28848D01*
X27073Y28761D01*
X26579Y28268D01*
X26555Y28231D01*
X26546Y28188D01*
X26546Y28188D01*
Y27577D01*
X26466Y27569D01*
X26459Y27607D01*
X26410Y27680D01*
X26337Y27728D01*
X26251Y27745D01*
X26176Y27730D01*
X26136Y27744D01*
X26096Y27765D01*
Y28967D01*
X26639Y29511D01*
X26639Y29511D01*
X26664Y29547D01*
X26672Y29590D01*
X26672Y29590D01*
Y29770D01*
X26752Y29797D01*
X26772Y29772D01*
X26839Y29720D01*
X26916Y29688D01*
X27000Y29677D01*
X27084Y29688D01*
X27161Y29720D01*
X27228Y29772D01*
X27280Y29839D01*
X27312Y29916D01*
X27323Y30000D01*
X27312Y30084D01*
X27280Y30161D01*
X27228Y30228D01*
X27161Y30280D01*
X27112Y30300D01*
Y30968D01*
X27180Y31036D01*
X27266Y31053D01*
X27339Y31101D01*
X27387Y31174D01*
X27404Y31260D01*
X27404Y31263D01*
X27454Y31325D01*
X28105D01*
Y32055D01*
X27375D01*
Y31802D01*
X27130D01*
X27130Y31802D01*
X27087Y31794D01*
X27051Y31769D01*
X27051Y31769D01*
X26481Y31199D01*
X26456Y31163D01*
X26448Y31120D01*
X26448Y31120D01*
Y29636D01*
X26278Y29467D01*
X26204Y29497D01*
Y31044D01*
X26196Y31087D01*
X26171Y31123D01*
X26171Y31123D01*
X25950Y31344D01*
X25957Y31378D01*
X25950Y31411D01*
X27265Y32727D01*
X27341Y32690D01*
D02*
G37*
G36*
X29422Y31504D02*
X29479Y31429D01*
X29556Y31371D01*
X29645Y31334D01*
X29740Y31322D01*
X29835Y31334D01*
X29852Y31341D01*
X29898Y31273D01*
X28447Y29822D01*
X28413Y29829D01*
X28337Y29814D01*
X28272Y29771D01*
X28229Y29706D01*
X28214Y29630D01*
X28221Y29596D01*
X28136Y29511D01*
X28111Y29475D01*
X28103Y29432D01*
X28103Y29432D01*
Y28981D01*
X27974Y28852D01*
X27810D01*
X27810Y28852D01*
X27767Y28844D01*
X27731Y28819D01*
X26844Y27933D01*
X26770Y27964D01*
Y28142D01*
X27909Y29281D01*
X27909Y29281D01*
X27934Y29317D01*
X27942Y29360D01*
Y29460D01*
X27971Y29479D01*
X28014Y29544D01*
X28029Y29620D01*
X28014Y29696D01*
X27971Y29761D01*
X27942Y29780D01*
Y29915D01*
X29309Y31282D01*
X29334Y31319D01*
X29342Y31362D01*
X29342Y31362D01*
Y31487D01*
X29417Y31505D01*
X29422Y31504D01*
D02*
G37*
G36*
X28829Y29775D02*
X28832Y29754D01*
X28799Y29706D01*
X28784Y29630D01*
X28791Y29596D01*
X28704Y29509D01*
X28679Y29473D01*
X28671Y29430D01*
X28671Y29430D01*
Y28739D01*
X27791Y27859D01*
X27766Y27823D01*
X27758Y27780D01*
X27758Y27780D01*
Y23389D01*
X27338Y22969D01*
X27283Y22980D01*
X27198Y22963D01*
X27125Y22915D01*
X27076Y22842D01*
X27059Y22756D01*
X27076Y22670D01*
X27125Y22597D01*
X27198Y22549D01*
X27283Y22532D01*
X27369Y22549D01*
X27442Y22597D01*
X27491Y22670D01*
X27508Y22756D01*
X27497Y22811D01*
X27949Y23263D01*
X27949Y23263D01*
X27974Y23300D01*
X27982Y23342D01*
X27982Y23342D01*
Y24366D01*
X28062Y24390D01*
X28089Y24349D01*
X28162Y24301D01*
X28248Y24284D01*
X28334Y24301D01*
X28361Y24319D01*
X28438Y24241D01*
X28413Y24154D01*
X28355Y24115D01*
X28307Y24043D01*
X28289Y23957D01*
X28307Y23871D01*
X28355Y23798D01*
X28402Y23767D01*
Y22084D01*
X27701Y21383D01*
X27670Y21389D01*
X27594Y21374D01*
X27529Y21331D01*
X27494Y21278D01*
X27438Y21260D01*
X27403Y21256D01*
X26799Y21859D01*
X26763Y21884D01*
X26720Y21892D01*
X26720Y21892D01*
X25090D01*
X25090Y21892D01*
X25047Y21884D01*
X25011Y21859D01*
X24845Y21693D01*
X24790Y21704D01*
X24704Y21687D01*
X24631Y21639D01*
X24583Y21566D01*
X24566Y21480D01*
X24572Y21446D01*
X24516Y21362D01*
X24514Y21361D01*
X24474Y21355D01*
X23889Y21940D01*
Y22994D01*
X23969Y23015D01*
X24005Y22961D01*
X24078Y22913D01*
X24163Y22896D01*
X24249Y22913D01*
X24310Y22954D01*
X24355Y22937D01*
X24384Y22914D01*
X24372Y22854D01*
X24389Y22768D01*
X24438Y22696D01*
X24511Y22647D01*
X24596Y22630D01*
X24682Y22647D01*
X24755Y22696D01*
X24804Y22768D01*
X24821Y22854D01*
X24810Y22909D01*
X24829Y22928D01*
X24829Y22928D01*
X24853Y22964D01*
X24861Y23007D01*
X24861Y23007D01*
Y23108D01*
X26172Y24419D01*
X26246Y24388D01*
Y23787D01*
X25744Y23284D01*
X25689Y23295D01*
X25603Y23278D01*
X25530Y23229D01*
X25482Y23157D01*
X25465Y23071D01*
X25482Y22985D01*
X25530Y22912D01*
X25603Y22864D01*
X25626Y22859D01*
Y22778D01*
X25624Y22777D01*
X25551Y22729D01*
X25503Y22656D01*
X25486Y22570D01*
X25503Y22484D01*
X25551Y22411D01*
X25624Y22363D01*
X25710Y22346D01*
X25796Y22363D01*
X25869Y22411D01*
X25917Y22484D01*
X25934Y22570D01*
X25923Y22625D01*
X26033Y22734D01*
X26033Y22734D01*
X26128Y22755D01*
X26214Y22738D01*
X26300Y22755D01*
X26372Y22804D01*
X26421Y22877D01*
X26438Y22963D01*
X26427Y23017D01*
X26511Y23102D01*
X26565Y23080D01*
X26588Y23065D01*
X26604Y22985D01*
X26652Y22912D01*
X26725Y22864D01*
X26811Y22847D01*
X26897Y22864D01*
X26970Y22912D01*
X27018Y22985D01*
X27035Y23071D01*
X27018Y23157D01*
X26970Y23229D01*
X26933Y23254D01*
Y23493D01*
X26933Y23493D01*
X26924Y23536D01*
X26919Y23544D01*
X26920Y23554D01*
Y24020D01*
X26993Y24035D01*
X27000Y24033D01*
X27023Y24000D01*
X27149Y23874D01*
X27138Y23819D01*
X27155Y23733D01*
X27204Y23660D01*
X27276Y23612D01*
X27362Y23595D01*
X27448Y23612D01*
X27521Y23660D01*
X27569Y23733D01*
X27586Y23819D01*
X27569Y23905D01*
X27521Y23977D01*
X27448Y24026D01*
X27408Y24034D01*
Y24116D01*
X27448Y24123D01*
X27521Y24172D01*
X27569Y24245D01*
X27587Y24331D01*
X27569Y24417D01*
X27521Y24489D01*
X27474Y24520D01*
Y27637D01*
X27520Y27668D01*
X27569Y27740D01*
X27586Y27826D01*
X27569Y27912D01*
X27520Y27985D01*
X27447Y28033D01*
X27387Y28045D01*
X27356Y28115D01*
X27356Y28127D01*
X27856Y28628D01*
X28020D01*
X28020Y28628D01*
X28063Y28636D01*
X28099Y28661D01*
X28294Y28856D01*
X28294Y28856D01*
X28319Y28892D01*
X28327Y28935D01*
X28327Y28935D01*
Y29384D01*
X28386Y29437D01*
X28413Y29431D01*
X28489Y29446D01*
X28554Y29489D01*
X28597Y29554D01*
X28612Y29630D01*
X28605Y29664D01*
X28745Y29804D01*
X28745Y29804D01*
X28829Y29775D01*
D02*
G37*
G36*
X23729Y29309D02*
Y28760D01*
X23421Y28452D01*
X23366Y28463D01*
X23280Y28445D01*
X23208Y28397D01*
X23159Y28324D01*
X23142Y28238D01*
X23159Y28152D01*
X23208Y28080D01*
X23280Y28031D01*
X23366Y28014D01*
X23452Y28031D01*
X23525Y28080D01*
X23573Y28152D01*
X23590Y28238D01*
X23580Y28293D01*
X23870Y28583D01*
X23950Y28550D01*
Y27888D01*
X23637Y27576D01*
X23583Y27586D01*
X23497Y27569D01*
X23424Y27521D01*
X23375Y27448D01*
X23358Y27362D01*
X23375Y27276D01*
X23424Y27204D01*
X23497Y27155D01*
X23583Y27138D01*
X23668Y27155D01*
X23741Y27204D01*
X23823Y27182D01*
X23867Y27153D01*
X23881Y27150D01*
X23908Y27085D01*
X23891Y26999D01*
X23908Y26914D01*
X23957Y26841D01*
X24008Y26806D01*
X23984Y26726D01*
X23932D01*
X23932Y26726D01*
X23889Y26718D01*
X23853Y26693D01*
X23843Y26684D01*
X23756Y26710D01*
X23751Y26739D01*
X23702Y26812D01*
X23629Y26861D01*
X23543Y26878D01*
X23457Y26861D01*
X23385Y26812D01*
X23336Y26739D01*
X23319Y26653D01*
X23323Y26632D01*
X23262Y26570D01*
X23238Y26534D01*
X23229Y26491D01*
X23229Y26491D01*
Y26282D01*
X22495Y25548D01*
X22470Y25511D01*
X22462Y25468D01*
X22462Y25468D01*
Y24941D01*
X22382Y24897D01*
X22314Y24911D01*
X22299Y24923D01*
Y26706D01*
X22717Y27124D01*
X22717Y27124D01*
X22741Y27160D01*
X22750Y27203D01*
Y27480D01*
X22750Y27480D01*
X22741Y27523D01*
X22717Y27560D01*
X22654Y27622D01*
X22665Y27677D01*
X22648Y27763D01*
X22600Y27836D01*
X22553Y27867D01*
Y28394D01*
X22867Y28709D01*
X22916Y28688D01*
X23000Y28677D01*
X23084Y28688D01*
X23161Y28720D01*
X23228Y28772D01*
X23280Y28839D01*
X23312Y28916D01*
X23323Y29000D01*
X23312Y29084D01*
X23280Y29161D01*
X23267Y29178D01*
X23384Y29296D01*
X23611D01*
X23655Y29340D01*
X23729Y29309D01*
D02*
G37*
G36*
X25617Y31237D02*
X25682Y31194D01*
X25758Y31179D01*
X25791Y31186D01*
X25980Y30997D01*
Y29419D01*
X25922Y29361D01*
X25842Y29394D01*
Y30180D01*
X25834Y30223D01*
X25809Y30259D01*
X25809Y30259D01*
X25532Y30536D01*
Y31195D01*
X25604Y31239D01*
X25617Y31237D01*
D02*
G37*
G36*
X18270Y29705D02*
X18276D01*
X18289Y29658D01*
X18288Y29655D01*
X18217Y29607D01*
X18169Y29535D01*
X18152Y29449D01*
X18155Y29431D01*
X18120Y29396D01*
X18110Y29398D01*
X18045Y29385D01*
X18020Y29431D01*
X18075Y29486D01*
Y29866D01*
X17885Y30056D01*
X17505D01*
X17315Y29866D01*
Y29486D01*
X17505Y29296D01*
X17867D01*
X17883Y29280D01*
X17902Y29252D01*
X17886Y29173D01*
X17903Y29087D01*
X17952Y29015D01*
X18024Y28966D01*
X18110Y28949D01*
X18165Y28960D01*
X18243Y28882D01*
Y28679D01*
X18258Y28607D01*
X18299Y28546D01*
X18331Y28524D01*
Y28464D01*
X18299Y28442D01*
X18258Y28381D01*
X18243Y28309D01*
Y28079D01*
X18258Y28007D01*
X18299Y27946D01*
X18360Y27905D01*
X18432Y27890D01*
X18520D01*
Y25852D01*
X18470Y25837D01*
X18449Y25869D01*
X18376Y25917D01*
X18313Y25930D01*
X18323Y26000D01*
X18312Y26084D01*
X18280Y26161D01*
X18228Y26228D01*
X18161Y26280D01*
X18084Y26312D01*
X18000Y26323D01*
X17916Y26312D01*
X17839Y26280D01*
X17772Y26228D01*
X17720Y26161D01*
X17688Y26084D01*
X17677Y26000D01*
X17688Y25916D01*
X17720Y25839D01*
X17772Y25772D01*
X17839Y25720D01*
X17851Y25715D01*
X17857Y25659D01*
X17811Y25629D01*
X17763Y25556D01*
X17746Y25470D01*
X17763Y25384D01*
X17811Y25311D01*
X17806Y25255D01*
X17772Y25228D01*
X17720Y25161D01*
X17688Y25084D01*
X17677Y25000D01*
X17688Y24916D01*
X17720Y24839D01*
X17772Y24772D01*
X17839Y24720D01*
X17916Y24688D01*
X18000Y24677D01*
X18060Y24685D01*
X18096Y24643D01*
X18086Y24590D01*
X18103Y24504D01*
X18151Y24431D01*
X18224Y24383D01*
X18256Y24376D01*
X18290Y24319D01*
X18288Y24310D01*
X18288Y24310D01*
Y24180D01*
X18238Y24175D01*
X18229Y24220D01*
X18180Y24292D01*
X18107Y24341D01*
X18022Y24358D01*
X17936Y24341D01*
X17863Y24292D01*
X17814Y24220D01*
X17797Y24134D01*
X17814Y24048D01*
X17863Y23975D01*
X17936Y23927D01*
X18022Y23910D01*
X18107Y23927D01*
X18180Y23975D01*
X18229Y24048D01*
X18238Y24093D01*
X18288Y24088D01*
Y23490D01*
X18241Y23459D01*
X18193Y23386D01*
X18181Y23325D01*
X18133Y23294D01*
X18127Y23294D01*
X18084Y23312D01*
X18000Y23323D01*
X17916Y23312D01*
X17839Y23280D01*
X17772Y23228D01*
X17720Y23161D01*
X17688Y23084D01*
X17677Y23000D01*
X17688Y22916D01*
X17720Y22839D01*
X17772Y22772D01*
X17839Y22720D01*
X17916Y22688D01*
X17965Y22682D01*
X18002Y22649D01*
X18004Y22630D01*
X17958Y22619D01*
X17955Y22619D01*
X17883Y22570D01*
X17834Y22497D01*
X17817Y22411D01*
X17834Y22326D01*
X17883Y22253D01*
X17955Y22204D01*
X18041Y22187D01*
X18127Y22204D01*
X18200Y22253D01*
X18249Y22326D01*
X18266Y22411D01*
X18249Y22497D01*
X18200Y22570D01*
X18127Y22619D01*
X18054Y22633D01*
X18052Y22634D01*
X18052Y22651D01*
X18052D01*
X18052Y22651D01*
X18083Y22688D01*
X18084Y22688D01*
X18161Y22720D01*
X18228Y22772D01*
X18280Y22839D01*
X18312Y22916D01*
X18323Y23000D01*
X18317Y23041D01*
X18362Y23083D01*
X18400Y23076D01*
X18486Y23093D01*
X18559Y23141D01*
X18607Y23214D01*
X18624Y23300D01*
X18607Y23386D01*
X18559Y23459D01*
X18512Y23490D01*
Y24264D01*
X18711Y24463D01*
X18736Y24499D01*
X18744Y24542D01*
X18744Y24542D01*
Y27853D01*
X18794Y27873D01*
X19012Y27656D01*
Y27394D01*
X18965Y27363D01*
X18917Y27291D01*
X18900Y27205D01*
X18917Y27119D01*
X18965Y27046D01*
X19038Y26997D01*
X19124Y26980D01*
X19210Y26997D01*
X19283Y27046D01*
X19315Y27094D01*
X19365Y27079D01*
Y26158D01*
X19180Y25973D01*
X19125Y25983D01*
X19039Y25966D01*
X18966Y25918D01*
X18918Y25845D01*
X18901Y25759D01*
X18918Y25673D01*
X18966Y25601D01*
X19039Y25552D01*
X19125Y25535D01*
X19211Y25552D01*
X19284Y25601D01*
X19332Y25673D01*
X19349Y25759D01*
X19338Y25814D01*
X19556Y26032D01*
X19556Y26032D01*
X19581Y26068D01*
X19589Y26111D01*
X19589Y26111D01*
Y28282D01*
X19636Y28313D01*
X19684Y28386D01*
X19701Y28472D01*
X19684Y28557D01*
X19636Y28630D01*
X19563Y28679D01*
X19477Y28696D01*
X19391Y28679D01*
X19318Y28630D01*
X19270Y28557D01*
X19253Y28472D01*
X19270Y28386D01*
X19318Y28313D01*
X19365Y28282D01*
Y27330D01*
X19315Y27315D01*
X19283Y27363D01*
X19236Y27394D01*
Y27702D01*
X19228Y27745D01*
X19203Y27781D01*
X19203Y27781D01*
X18995Y27990D01*
X19006Y28007D01*
X19021Y28079D01*
Y28309D01*
X19006Y28381D01*
X18965Y28442D01*
X18933Y28464D01*
Y28524D01*
X18965Y28546D01*
X19006Y28607D01*
X19021Y28679D01*
Y28909D01*
X19006Y28981D01*
X18965Y29042D01*
X18904Y29083D01*
X18832Y29098D01*
X18432D01*
X18360Y29083D01*
X18359Y29083D01*
X18324Y29118D01*
X18335Y29173D01*
X18331Y29191D01*
X18366Y29226D01*
X18376Y29225D01*
X18462Y29242D01*
X18535Y29290D01*
X18583Y29363D01*
X18600Y29449D01*
X18583Y29535D01*
X18535Y29607D01*
X18464Y29655D01*
X18463Y29658D01*
X18476Y29705D01*
X19902D01*
Y25108D01*
X19331Y24537D01*
Y21998D01*
X18805Y21472D01*
X11050D01*
X11050Y21472D01*
X11022Y21467D01*
X10226D01*
Y28346D01*
X13563D01*
Y29079D01*
X13601Y29112D01*
X13642Y29106D01*
X13725Y29117D01*
X13803Y29150D01*
X13870Y29201D01*
X13921Y29268D01*
X13953Y29346D01*
X13964Y29429D01*
X13953Y29513D01*
X13921Y29591D01*
X13874Y29652D01*
X13876Y29655D01*
X13916Y29688D01*
X14000Y29677D01*
X14084Y29688D01*
X14133Y29709D01*
X14240Y29601D01*
X14234Y29537D01*
X14221Y29529D01*
X14173Y29456D01*
X14156Y29370D01*
X14173Y29284D01*
X14221Y29211D01*
X14294Y29163D01*
X14380Y29146D01*
X14466Y29163D01*
X14539Y29211D01*
X14587Y29284D01*
X14604Y29370D01*
X14587Y29456D01*
X14539Y29529D01*
X14492Y29560D01*
Y29620D01*
X14492Y29620D01*
X14484Y29663D01*
X14459Y29699D01*
X14459Y29699D01*
X14291Y29867D01*
X14312Y29916D01*
X14323Y30000D01*
X14312Y30084D01*
X14280Y30161D01*
X14228Y30228D01*
X14161Y30280D01*
X14084Y30312D01*
X14000Y30323D01*
X13961Y30318D01*
X13938Y30365D01*
X14823Y31250D01*
X18270D01*
Y29705D01*
D02*
G37*
G36*
X10891Y31524D02*
X10861Y31450D01*
X10702D01*
X10477Y31225D01*
Y31050D01*
X10927D01*
Y31000D01*
X10977D01*
Y30550D01*
X11152D01*
X11274Y30672D01*
X11349Y30633D01*
X11332Y30510D01*
X11352Y30361D01*
X11409Y30222D01*
X11501Y30103D01*
X11620Y30012D01*
X11759Y29954D01*
X11907Y29935D01*
X12056Y29954D01*
X12195Y30012D01*
X12314Y30103D01*
X12385Y30196D01*
X12467Y30206D01*
X12484Y30202D01*
X13328Y29357D01*
X13330Y29346D01*
X13362Y29268D01*
X13414Y29201D01*
X13452Y29172D01*
X13480Y29150D01*
X13497Y29106D01*
X13495Y29095D01*
X13492Y29083D01*
X13492Y29081D01*
X13492Y29079D01*
Y28418D01*
X10559D01*
X10059Y28917D01*
Y32243D01*
X10139Y32276D01*
X10891Y31524D01*
D02*
G37*
G36*
X42955Y17539D02*
X42965Y17526D01*
X42993Y17464D01*
X42950Y17420D01*
X42934Y17397D01*
X42929Y17370D01*
Y17315D01*
X42908Y17285D01*
X42665Y17042D01*
Y16057D01*
X42908Y15815D01*
X42929Y15785D01*
Y14540D01*
X42934Y14513D01*
X42950Y14490D01*
X43008Y14432D01*
X43006Y14411D01*
X42976Y14350D01*
X42909Y14341D01*
X42823Y14306D01*
X42750Y14250D01*
X42694Y14177D01*
X42659Y14091D01*
X42654Y14050D01*
X43000D01*
Y14000D01*
X43050D01*
Y13654D01*
X43091Y13659D01*
X43177Y13694D01*
X43209Y13719D01*
X43289Y13679D01*
Y13615D01*
X43286Y13600D01*
X43289Y13585D01*
Y13530D01*
X43294Y13503D01*
X43310Y13480D01*
X44184Y12605D01*
X44153Y12531D01*
X42680Y12531D01*
X42653Y12526D01*
X42630Y12510D01*
X42441Y12322D01*
X42361Y12355D01*
Y13000D01*
X42356Y13027D01*
X42340Y13050D01*
X41408Y13983D01*
X41408Y13983D01*
X41407Y13984D01*
X41396Y13991D01*
X41385Y13998D01*
X41384Y13998D01*
X41383Y13999D01*
X41371Y14001D01*
X41367Y14002D01*
X41323Y14072D01*
X41332Y14098D01*
X41378Y14133D01*
X41426Y14143D01*
X41499Y14191D01*
X41547Y14264D01*
X41564Y14350D01*
X41547Y14436D01*
X41499Y14509D01*
X41426Y14557D01*
X41340Y14574D01*
X41254Y14557D01*
X41181Y14509D01*
X41133Y14436D01*
X41122Y14382D01*
X41114Y14367D01*
X41072Y14354D01*
X41022Y14374D01*
X40998Y14385D01*
X40991Y14396D01*
X40984Y14407D01*
X40983Y14408D01*
X40983Y14408D01*
X40106Y15285D01*
X40137Y15359D01*
X40185D01*
X40250Y15346D01*
X40315Y15359D01*
X41565Y15359D01*
X41580Y15356D01*
X41595Y15359D01*
X41750D01*
X41777Y15364D01*
X41800Y15380D01*
X42260Y15840D01*
X42340Y15920D01*
X42356Y15943D01*
X42361Y15970D01*
Y17070D01*
X42830Y17539D01*
X42955Y17539D01*
D02*
G37*
G36*
X40070Y21080D02*
Y20400D01*
X39470Y19800D01*
X39140Y19470D01*
Y17550D01*
X38850Y17260D01*
X37130D01*
X36903Y17487D01*
X36889Y17509D01*
X36867Y17523D01*
X36762Y17628D01*
X36774Y17690D01*
X36757Y17776D01*
X36709Y17849D01*
X36636Y17897D01*
X36614Y17902D01*
Y18005D01*
X36630Y20870D01*
X37310Y21550D01*
X39600D01*
X40070Y21080D01*
D02*
G37*
G36*
X47688Y30916D02*
X47720Y30839D01*
X47772Y30772D01*
X47839Y30720D01*
X47916Y30688D01*
X48000Y30677D01*
X48084Y30688D01*
X48123Y30704D01*
X48528Y30299D01*
Y28656D01*
X48448Y28623D01*
X48262Y28809D01*
X48261Y28814D01*
X48280Y28839D01*
X48312Y28916D01*
X48323Y29000D01*
X48312Y29084D01*
X48280Y29161D01*
X48228Y29228D01*
X48161Y29280D01*
X48084Y29312D01*
X48000Y29323D01*
X47916Y29312D01*
X47877Y29296D01*
X47006Y30167D01*
X47002Y30181D01*
X47010Y30260D01*
X47580Y30830D01*
X47596Y30853D01*
X47601Y30880D01*
Y30963D01*
X47681Y30969D01*
X47688Y30916D01*
D02*
G37*
G36*
X23057Y29881D02*
X23041Y29866D01*
Y29486D01*
X23149Y29378D01*
X23083Y29312D01*
X23000Y29323D01*
X22916Y29312D01*
X22839Y29280D01*
X22772Y29228D01*
X22720Y29161D01*
X22688Y29084D01*
X22677Y29000D01*
X22688Y28916D01*
X22709Y28867D01*
X22362Y28520D01*
X22337Y28484D01*
X22329Y28441D01*
X22329Y28441D01*
Y27867D01*
X22282Y27836D01*
X22234Y27763D01*
X22217Y27677D01*
X22234Y27591D01*
X22244Y27576D01*
X22207Y27487D01*
X22178Y27481D01*
X22105Y27432D01*
X22057Y27359D01*
X22039Y27274D01*
X22057Y27188D01*
X22105Y27115D01*
X22178Y27066D01*
X22221Y27058D01*
X22247Y26971D01*
X22107Y26831D01*
X22083Y26795D01*
X22074Y26752D01*
X22074Y26752D01*
Y24821D01*
X22074Y24821D01*
X22083Y24778D01*
X22102Y24749D01*
X22090Y24686D01*
X22107Y24600D01*
X22155Y24528D01*
X22228Y24479D01*
X22314Y24462D01*
X22382Y24475D01*
X22462Y24432D01*
Y24337D01*
X21682Y23557D01*
X21591Y23579D01*
X21559Y23629D01*
X21486Y23677D01*
X21400Y23694D01*
X21369Y23688D01*
X21268Y23823D01*
X21280Y23839D01*
X21312Y23916D01*
X21323Y24000D01*
X21312Y24084D01*
X21280Y24161D01*
X21228Y24228D01*
X21161Y24280D01*
X21084Y24312D01*
X21000Y24323D01*
X20916Y24312D01*
X20839Y24280D01*
X20772Y24228D01*
X20720Y24161D01*
X20688Y24084D01*
X20677Y24000D01*
X20688Y23916D01*
X20720Y23839D01*
X20772Y23772D01*
X20839Y23720D01*
X20916Y23688D01*
X21000Y23677D01*
X21084Y23688D01*
X21097Y23694D01*
X21197Y23562D01*
X21193Y23556D01*
X21176Y23470D01*
X21193Y23384D01*
X21231Y23327D01*
X21172Y23272D01*
X21161Y23280D01*
X21084Y23312D01*
X21000Y23323D01*
X20916Y23312D01*
X20839Y23280D01*
X20772Y23228D01*
X20720Y23161D01*
X20688Y23084D01*
X20677Y23000D01*
X20688Y22916D01*
X20720Y22839D01*
X20772Y22772D01*
X20839Y22720D01*
X20916Y22688D01*
X21000Y22677D01*
X21084Y22688D01*
X21161Y22720D01*
X21205Y22754D01*
X21276Y22736D01*
X21293Y22724D01*
X21293Y22724D01*
X21341Y22651D01*
X21414Y22603D01*
X21500Y22586D01*
X21532Y22592D01*
X21595Y22523D01*
X21587Y22480D01*
X21604Y22394D01*
X21652Y22322D01*
X21725Y22273D01*
X21811Y22256D01*
X21897Y22273D01*
X21970Y22322D01*
X22018Y22394D01*
X22035Y22480D01*
X22018Y22566D01*
X21996Y22600D01*
X21996Y22606D01*
X22037Y22682D01*
X22084Y22688D01*
X22161Y22720D01*
X22228Y22772D01*
X22280Y22839D01*
X22312Y22916D01*
X22323Y23000D01*
X22312Y23084D01*
X22280Y23161D01*
X22228Y23228D01*
X22227Y23229D01*
X22327Y23441D01*
X22400Y23455D01*
X22473Y23504D01*
X22521Y23577D01*
X22538Y23663D01*
X22527Y23717D01*
X22688Y23878D01*
X22762Y23847D01*
Y22862D01*
X21553Y21654D01*
X19192D01*
X19161Y21727D01*
X19381Y21948D01*
X19397Y21971D01*
X19402Y21998D01*
Y24508D01*
X19952Y25058D01*
X19968Y25081D01*
X19973Y25108D01*
Y29625D01*
X20053Y29658D01*
X20138Y29574D01*
Y28760D01*
X20138Y28760D01*
X20142Y28741D01*
X20126Y28660D01*
X20143Y28574D01*
X20191Y28501D01*
X20264Y28453D01*
X20350Y28436D01*
X20436Y28453D01*
X20509Y28501D01*
X20557Y28574D01*
X20574Y28660D01*
X20557Y28746D01*
X20509Y28819D01*
X20436Y28867D01*
X20362Y28882D01*
Y29620D01*
X20362Y29620D01*
X20354Y29663D01*
X20329Y29699D01*
X20329Y29699D01*
X20048Y29980D01*
X20051Y29997D01*
X20084Y30058D01*
X21120D01*
X21154Y29978D01*
X21041Y29866D01*
Y29490D01*
X20921Y29369D01*
X20896Y29333D01*
X20890Y29301D01*
X20839Y29280D01*
X20772Y29228D01*
X20720Y29161D01*
X20688Y29084D01*
X20677Y29000D01*
X20688Y28916D01*
X20720Y28839D01*
X20772Y28772D01*
X20839Y28720D01*
X20916Y28688D01*
X21000Y28677D01*
X21084Y28688D01*
X21161Y28720D01*
X21228Y28772D01*
X21280Y28839D01*
X21312Y28916D01*
X21323Y29000D01*
X21312Y29084D01*
X21280Y29161D01*
X21238Y29216D01*
X21251Y29263D01*
X21272Y29296D01*
X21611D01*
X21801Y29486D01*
Y29866D01*
X21689Y29978D01*
X21722Y30058D01*
X22120D01*
X22154Y29978D01*
X22041Y29866D01*
Y29520D01*
X21921Y29399D01*
X21896Y29363D01*
X21888Y29320D01*
X21888Y29320D01*
Y29300D01*
X21839Y29280D01*
X21772Y29228D01*
X21720Y29161D01*
X21688Y29084D01*
X21677Y29000D01*
X21688Y28916D01*
X21720Y28839D01*
X21772Y28772D01*
X21839Y28720D01*
X21916Y28688D01*
X22000Y28677D01*
X22084Y28688D01*
X22161Y28720D01*
X22228Y28772D01*
X22280Y28839D01*
X22312Y28916D01*
X22323Y29000D01*
X22312Y29084D01*
X22280Y29161D01*
X22238Y29216D01*
X22251Y29263D01*
X22272Y29296D01*
X22611D01*
X22801Y29486D01*
Y29866D01*
X22689Y29978D01*
X22722Y30058D01*
X22880D01*
X23057Y29881D01*
D02*
G37*
G36*
X31883Y30574D02*
X31884Y30572D01*
X31931Y30501D01*
X32004Y30453D01*
X32090Y30436D01*
X32176Y30453D01*
X32225Y30486D01*
X32280Y30496D01*
X32335Y30486D01*
X32384Y30453D01*
X32470Y30436D01*
X32556Y30453D01*
X32616Y30493D01*
X33724Y29386D01*
X33713Y29331D01*
X33730Y29245D01*
X33778Y29172D01*
X33851Y29123D01*
X33937Y29106D01*
X34023Y29123D01*
X34096Y29172D01*
X34144Y29245D01*
X34156Y29303D01*
X34231Y29334D01*
X34237Y29334D01*
X34337Y29235D01*
Y29127D01*
X34290Y29096D01*
X34242Y29023D01*
X34225Y28937D01*
X34238Y28869D01*
X34194Y28789D01*
X32477D01*
X32468Y28799D01*
X32451Y28885D01*
X32403Y28958D01*
X32330Y29006D01*
X32244Y29024D01*
X32158Y29006D01*
X32085Y28958D01*
X32037Y28885D01*
X32020Y28799D01*
X32037Y28713D01*
X32085Y28641D01*
X32158Y28592D01*
X32244Y28575D01*
X32303Y28587D01*
X32323Y28573D01*
X32366Y28565D01*
X32366Y28565D01*
X32880D01*
X32906Y28485D01*
X32855Y28418D01*
X32814Y28321D01*
X32807Y28267D01*
X34201D01*
X34194Y28321D01*
X34153Y28418D01*
X34102Y28485D01*
X34128Y28565D01*
X36206D01*
Y28521D01*
X36221Y28447D01*
X36263Y28384D01*
X36646Y28001D01*
X36635Y27913D01*
X36647Y27817D01*
X36685Y27727D01*
X36686Y27725D01*
Y25930D01*
Y25330D01*
Y24031D01*
X36699Y23934D01*
X36736Y23844D01*
X36795Y23767D01*
X37570Y22992D01*
Y22673D01*
X37280D01*
X37183Y22660D01*
X37093Y22623D01*
X37016Y22564D01*
X36601Y22149D01*
X36553Y22168D01*
X36529Y22190D01*
X36544Y22304D01*
Y23129D01*
X36527Y23255D01*
X36479Y23372D01*
X36401Y23473D01*
X36300Y23551D01*
X36183Y23599D01*
X36057Y23616D01*
X35931Y23599D01*
X35814Y23551D01*
X35713Y23473D01*
X35636Y23372D01*
X35587Y23255D01*
X35570Y23129D01*
Y22304D01*
X35587Y22178D01*
X35636Y22061D01*
X35713Y21960D01*
X35814Y21883D01*
X35931Y21834D01*
X36057Y21817D01*
X36172Y21832D01*
X36193Y21808D01*
X36212Y21760D01*
X35736Y21284D01*
X35677Y21207D01*
X35640Y21117D01*
X35627Y21020D01*
Y19596D01*
X35553Y19565D01*
X34857Y20261D01*
X32617D01*
X30952Y21926D01*
Y23570D01*
X30952Y23570D01*
X30944Y23613D01*
X30919Y23649D01*
X30919Y23649D01*
X29942Y24626D01*
Y29400D01*
X29989Y29431D01*
X30037Y29504D01*
X30054Y29590D01*
X30037Y29676D01*
X29989Y29749D01*
X29916Y29797D01*
X29902Y29800D01*
X29875Y29887D01*
X30186Y30198D01*
X31350D01*
X31350Y30198D01*
X31393Y30206D01*
X31429Y30231D01*
X31796Y30598D01*
X31883Y30574D01*
D02*
G37*
G36*
X45540Y18620D02*
X46050Y18110D01*
X46980Y18110D01*
X47900Y17190D01*
Y14730D01*
Y13670D01*
X47460Y13230D01*
X46490D01*
X46490Y12890D01*
X46210Y12610D01*
X45650Y12610D01*
X45390Y12870D01*
X45390Y15680D01*
X45580Y15870D01*
X45628Y15848D01*
X45625Y15815D01*
X46250D01*
Y16467D01*
X46223Y16464D01*
X46082Y16421D01*
X45951Y16352D01*
X45837Y16258D01*
X45743Y16144D01*
X45700Y16063D01*
X45650Y16075D01*
X45650Y16980D01*
X44520Y18110D01*
Y18960D01*
X44690Y19130D01*
X45030D01*
X45540Y18620D01*
D02*
G37*
G36*
X26243Y20459D02*
X26192Y20396D01*
X26136Y20434D01*
X26060Y20449D01*
X25984Y20434D01*
X25919Y20391D01*
X25876Y20326D01*
X25863Y20261D01*
X25197D01*
X24924Y20534D01*
X24955Y20608D01*
X26094D01*
X26243Y20459D01*
D02*
G37*
G36*
X30728Y23524D02*
Y21880D01*
X30728Y21880D01*
X30736Y21837D01*
X30761Y21801D01*
X32226Y20335D01*
X32196Y20261D01*
X31443D01*
Y20860D01*
X31431Y20919D01*
X31398Y20968D01*
X31238Y21128D01*
X31189Y21161D01*
X31130Y21173D01*
X30342D01*
X30296Y21204D01*
X30220Y21219D01*
X30144Y21204D01*
X30142Y21203D01*
X30062Y21245D01*
Y22390D01*
X30054Y22433D01*
X30029Y22469D01*
X30029Y22469D01*
X29672Y22826D01*
Y24474D01*
X29746Y24499D01*
X29752Y24499D01*
X30728Y23524D01*
D02*
G37*
G36*
X26949Y21392D02*
X26916Y21312D01*
X25629D01*
X25586Y21392D01*
X25587Y21394D01*
X25604Y21480D01*
X25587Y21566D01*
X25573Y21588D01*
X25615Y21668D01*
X26674D01*
X26949Y21392D01*
D02*
G37*
G36*
X36115Y16972D02*
X36175Y16947D01*
X36206Y16924D01*
X36216Y16919D01*
X36226Y16913D01*
X36229Y16913D01*
X36231Y16912D01*
X36242Y16911D01*
X36254Y16909D01*
X36256Y16910D01*
X36259Y16910D01*
X36270Y16913D01*
X36281Y16916D01*
X36331Y16941D01*
X36340Y16948D01*
X36350Y16955D01*
X36386Y16924D01*
X37120Y16190D01*
X37533D01*
X37574Y16163D01*
X37660Y16146D01*
X37746Y16163D01*
X37787Y16190D01*
X39100D01*
X39378Y15912D01*
X39380Y15910D01*
X39910Y15380D01*
X39912Y15378D01*
X40932Y14358D01*
X40910Y14309D01*
X40839Y14280D01*
X40772Y14228D01*
X40720Y14161D01*
X40688Y14084D01*
X40677Y14000D01*
X40688Y13916D01*
X40720Y13839D01*
X40772Y13772D01*
X40839Y13720D01*
X40916Y13688D01*
X41000Y13677D01*
X41084Y13688D01*
X41161Y13720D01*
X41228Y13772D01*
X41280Y13839D01*
X41309Y13910D01*
X41358Y13932D01*
X42290Y13000D01*
Y11510D01*
Y11190D01*
X42155Y11055D01*
X42105Y11075D01*
Y11134D01*
X41590D01*
X41075D01*
Y11020D01*
X40765D01*
Y11134D01*
X40250D01*
X39735D01*
Y11066D01*
X39685Y11045D01*
X39480Y11250D01*
X39480Y14500D01*
X39219Y14761D01*
X39203Y14785D01*
X39179Y14801D01*
X39100Y14880D01*
X37000Y14880D01*
X36371Y15509D01*
X36371Y16455D01*
X36368Y16466D01*
X36367Y16478D01*
X36366Y16480D01*
X36365Y16482D01*
X36359Y16492D01*
X36353Y16502D01*
X36351Y16503D01*
X36350Y16505D01*
X36340Y16512D01*
X36331Y16519D01*
X36281Y16544D01*
X36270Y16547D01*
X36259Y16550D01*
X36256Y16550D01*
X36254Y16551D01*
X36242Y16549D01*
X36231Y16548D01*
X36229Y16547D01*
X36226Y16547D01*
X36216Y16541D01*
X36206Y16536D01*
X36175Y16513D01*
X36115Y16488D01*
X36050Y16479D01*
X35985Y16488D01*
X35925Y16513D01*
X35873Y16553D01*
X35833Y16605D01*
X35808Y16665D01*
X35799Y16730D01*
X35808Y16795D01*
X35833Y16855D01*
X35873Y16907D01*
X35925Y16947D01*
X35985Y16972D01*
X36050Y16981D01*
X36115Y16972D01*
D02*
G37*
G36*
X44300Y12460D02*
X44699Y12061D01*
X44680Y12015D01*
X44610D01*
Y11250D01*
X44490D01*
Y11130D01*
X43975D01*
Y11007D01*
X43700Y11005D01*
X43665Y11040D01*
Y11130D01*
X43150D01*
X42635D01*
Y11000D01*
X42570D01*
X42430Y11140D01*
Y12210D01*
X42680Y12460D01*
X44300Y12460D01*
D02*
G37*
G36*
X48190Y22520D02*
X48190Y20700D01*
X47590Y20100D01*
X45610Y20100D01*
X45420Y19910D01*
X45025D01*
X44970Y19947D01*
X44880Y19965D01*
X44790Y19947D01*
X44735Y19910D01*
X42900Y19910D01*
X42310Y20500D01*
X42310Y20940D01*
Y22620D01*
X42910Y23220D01*
X47490D01*
X48190Y22520D01*
D02*
G37*
G36*
X34160Y19200D02*
X35398Y17962D01*
Y17540D01*
X35398Y17540D01*
X35406Y17497D01*
X35431Y17461D01*
X35741Y17151D01*
X35741Y17151D01*
X35777Y17126D01*
X35820Y17118D01*
X36242D01*
X36299Y17061D01*
Y17005D01*
X36249Y16980D01*
X36211Y17010D01*
X36134Y17042D01*
X36050Y17053D01*
X35966Y17042D01*
X35889Y17010D01*
X35822Y16958D01*
X35770Y16891D01*
X35738Y16814D01*
X35727Y16730D01*
X35738Y16646D01*
X35770Y16569D01*
X35822Y16502D01*
X35889Y16450D01*
X35966Y16418D01*
X36050Y16407D01*
X36134Y16418D01*
X36211Y16450D01*
X36249Y16480D01*
X36299Y16455D01*
X36299Y14088D01*
X36249Y14072D01*
X36186Y14114D01*
X36100Y14132D01*
X36014Y14114D01*
X35941Y14066D01*
X35893Y13993D01*
X35876Y13907D01*
X35893Y13821D01*
X35941Y13749D01*
X36014Y13700D01*
X36100Y13683D01*
X36186Y13700D01*
X36249Y13742D01*
X36299Y13726D01*
Y13573D01*
X36249Y13549D01*
X36196Y13584D01*
X36110Y13602D01*
X36024Y13584D01*
X35951Y13536D01*
X35903Y13463D01*
X35886Y13377D01*
X35903Y13291D01*
X35951Y13219D01*
X36024Y13170D01*
X36110Y13153D01*
X36196Y13170D01*
X36249Y13206D01*
X36299Y13181D01*
Y12978D01*
X36249Y12962D01*
X36186Y13004D01*
X36100Y13022D01*
X36014Y13004D01*
X35941Y12956D01*
X35893Y12883D01*
X35876Y12797D01*
X35893Y12711D01*
X35941Y12639D01*
X36014Y12590D01*
X36100Y12573D01*
X36186Y12590D01*
X36249Y12632D01*
X36299Y12616D01*
X36299Y10869D01*
X35952Y10522D01*
X13486D01*
X13008Y10999D01*
X13102Y11153D01*
X13189Y11363D01*
X13242Y11584D01*
X13260Y11811D01*
X13242Y12038D01*
X13189Y12259D01*
X13102Y12469D01*
X12984Y12663D01*
X12836Y12836D01*
X12663Y12984D01*
X12469Y13102D01*
X12259Y13189D01*
X12038Y13242D01*
X11811Y13260D01*
X11584Y13242D01*
X11363Y13189D01*
X11153Y13102D01*
X10959Y12984D01*
X10786Y12836D01*
X10639Y12663D01*
X10548Y12515D01*
X10480Y12499D01*
X10472Y12504D01*
Y13748D01*
X10522Y13764D01*
X10579Y13720D01*
X10656Y13688D01*
X10740Y13677D01*
X10783Y13683D01*
X10923Y13543D01*
X10986Y13501D01*
X11060Y13486D01*
X12300D01*
X14013Y11773D01*
X14076Y11731D01*
X14150Y11716D01*
X14160D01*
X14269Y11608D01*
Y11117D01*
X14281Y11021D01*
X14319Y10931D01*
X14378Y10853D01*
X14455Y10794D01*
X14545Y10757D01*
X14642Y10744D01*
X14738Y10757D01*
X14828Y10794D01*
X14906Y10853D01*
X14965Y10931D01*
X15002Y11021D01*
X15015Y11117D01*
Y11717D01*
X15007Y11778D01*
X15054Y11802D01*
X15269Y11588D01*
Y11117D01*
X15281Y11021D01*
X15319Y10931D01*
X15378Y10853D01*
X15455Y10794D01*
X15545Y10757D01*
X15642Y10744D01*
X15738Y10757D01*
X15828Y10794D01*
X15906Y10853D01*
X15965Y10931D01*
X16002Y11021D01*
X16015Y11117D01*
Y11717D01*
X16002Y11814D01*
X15965Y11904D01*
X15906Y11981D01*
X15892Y11991D01*
X15909Y12041D01*
X16105D01*
X16296Y11850D01*
X16281Y11814D01*
X16269Y11717D01*
Y11117D01*
X16281Y11021D01*
X16319Y10931D01*
X16378Y10853D01*
X16455Y10794D01*
X16545Y10757D01*
X16642Y10744D01*
X16738Y10757D01*
X16828Y10794D01*
X16906Y10853D01*
X16965Y10931D01*
X17002Y11021D01*
X17015Y11117D01*
Y11717D01*
X17002Y11814D01*
X16989Y11847D01*
X17031Y11875D01*
X17269Y11638D01*
Y11117D01*
X17281Y11021D01*
X17319Y10931D01*
X17378Y10853D01*
X17455Y10794D01*
X17545Y10757D01*
X17642Y10744D01*
X17738Y10757D01*
X17828Y10794D01*
X17906Y10853D01*
X17965Y10931D01*
X18002Y11021D01*
X18015Y11117D01*
Y11692D01*
X18065Y11713D01*
X18498Y11280D01*
X18561Y11238D01*
X18635Y11224D01*
X19387D01*
Y11117D01*
X19399Y11021D01*
X19437Y10931D01*
X19496Y10853D01*
X19573Y10794D01*
X19663Y10757D01*
X19760Y10744D01*
X19856Y10757D01*
X19946Y10794D01*
X20024Y10853D01*
X20083Y10931D01*
X20120Y11021D01*
X20133Y11117D01*
Y11717D01*
X20120Y11814D01*
X20083Y11904D01*
X20024Y11981D01*
X19946Y12041D01*
X19856Y12078D01*
X19760Y12091D01*
X19663Y12078D01*
X19573Y12041D01*
X19496Y11981D01*
X19437Y11904D01*
X19399Y11814D01*
X19387Y11717D01*
Y11611D01*
X18715D01*
X17322Y13004D01*
X17312Y13084D01*
X17280Y13161D01*
X17228Y13228D01*
X17161Y13280D01*
X17084Y13312D01*
X17000Y13323D01*
X16983Y13321D01*
X16284Y14020D01*
Y14334D01*
X16289Y14360D01*
X16274Y14436D01*
X16231Y14501D01*
X16166Y14544D01*
X16160Y14545D01*
X16154Y14549D01*
X16080Y14564D01*
X15806D01*
X15780Y14569D01*
X15704Y14554D01*
X15639Y14511D01*
X15596Y14446D01*
X15581Y14370D01*
X15596Y14294D01*
X15639Y14229D01*
X15704Y14186D01*
X15780Y14171D01*
X15806Y14176D01*
X15896D01*
Y13940D01*
X15911Y13866D01*
X15953Y13803D01*
X16686Y13070D01*
X16677Y13000D01*
X16688Y12916D01*
X16720Y12839D01*
X16772Y12772D01*
X16839Y12720D01*
X16916Y12688D01*
X17000Y12677D01*
X17084Y12688D01*
X17088Y12690D01*
X17639Y12139D01*
X17620Y12088D01*
X17545Y12078D01*
X17455Y12041D01*
X17432Y12022D01*
X17107Y12347D01*
X17044Y12389D01*
X16970Y12404D01*
X16760D01*
X16574Y12590D01*
Y12620D01*
X16559Y12694D01*
X16517Y12757D01*
X16317Y12957D01*
X16323Y13000D01*
X16312Y13084D01*
X16280Y13161D01*
X16228Y13228D01*
X16161Y13280D01*
X16084Y13312D01*
X16000Y13323D01*
X15916Y13312D01*
X15839Y13280D01*
X15772Y13228D01*
X15729Y13225D01*
X15357Y13597D01*
X15294Y13639D01*
X15220Y13654D01*
X15120D01*
X14604Y14170D01*
Y14683D01*
X14654Y14698D01*
X14659Y14689D01*
X14724Y14646D01*
X14800Y14631D01*
X14876Y14646D01*
X14941Y14689D01*
X14984Y14754D01*
X14999Y14830D01*
X14984Y14906D01*
X14941Y14971D01*
X14912Y14990D01*
Y15040D01*
X14962Y15045D01*
X14966Y15024D01*
X15009Y14959D01*
X15074Y14916D01*
X15150Y14901D01*
X15226Y14916D01*
X15291Y14959D01*
X15334Y15024D01*
X15349Y15100D01*
X15334Y15176D01*
X15291Y15241D01*
X15226Y15284D01*
X15172Y15295D01*
Y15342D01*
X15173Y15346D01*
X15226Y15356D01*
X15291Y15399D01*
X15334Y15464D01*
X15349Y15540D01*
X15334Y15616D01*
X15291Y15681D01*
X15262Y15700D01*
Y16435D01*
X15284Y16467D01*
X15292Y16510D01*
Y17174D01*
X15765Y17646D01*
X15819Y17630D01*
X15826Y17594D01*
X15869Y17529D01*
X15934Y17486D01*
X16010Y17471D01*
X16086Y17486D01*
X16151Y17529D01*
X16170Y17558D01*
X16257Y17656D01*
X17990D01*
X18581Y17065D01*
Y16715D01*
X18438Y16572D01*
X18396Y16509D01*
X18381Y16435D01*
Y14815D01*
X18331Y14800D01*
X18331Y14801D01*
X18266Y14844D01*
X18190Y14859D01*
X18114Y14844D01*
X18049Y14801D01*
X18006Y14736D01*
X17991Y14660D01*
X18006Y14584D01*
X18049Y14519D01*
X18114Y14476D01*
X18190Y14461D01*
X18266Y14476D01*
X18331Y14519D01*
X18331Y14520D01*
X18381Y14505D01*
Y14435D01*
X18396Y14361D01*
X18438Y14298D01*
X19093Y13643D01*
X19156Y13601D01*
X19230Y13586D01*
X19850D01*
X20072Y13364D01*
X20049Y13316D01*
X20000Y13323D01*
X19916Y13312D01*
X19839Y13280D01*
X19772Y13228D01*
X19720Y13161D01*
X19688Y13084D01*
X19677Y13000D01*
X19688Y12916D01*
X19720Y12839D01*
X19772Y12772D01*
X19828Y12729D01*
X19825Y12687D01*
X19820Y12674D01*
X19751Y12629D01*
X19703Y12556D01*
X19686Y12470D01*
X19703Y12384D01*
X19751Y12311D01*
X19824Y12263D01*
X19910Y12246D01*
X19996Y12263D01*
X20069Y12311D01*
X20117Y12384D01*
X20134Y12470D01*
X20117Y12556D01*
X20112Y12563D01*
Y12700D01*
X20161Y12720D01*
X20228Y12772D01*
X20280Y12839D01*
X20312Y12916D01*
X20323Y13000D01*
X20316Y13049D01*
X20364Y13072D01*
X20573Y12863D01*
X20636Y12821D01*
X20710Y12806D01*
X20745D01*
X20772Y12772D01*
X20797Y12753D01*
X20784Y12699D01*
X20724Y12687D01*
X20651Y12639D01*
X20603Y12566D01*
X20586Y12480D01*
X20603Y12394D01*
X20651Y12321D01*
X20724Y12273D01*
X20810Y12256D01*
X20896Y12273D01*
X20969Y12321D01*
X21017Y12394D01*
X21034Y12480D01*
X21023Y12535D01*
X21079Y12591D01*
X21079Y12591D01*
X21104Y12627D01*
X21112Y12670D01*
X21112Y12670D01*
Y12700D01*
X21161Y12720D01*
X21228Y12772D01*
X21280Y12839D01*
X21312Y12916D01*
X21323Y13000D01*
X21312Y13084D01*
X21280Y13161D01*
X21228Y13228D01*
X21205Y13246D01*
X21222Y13296D01*
X21430D01*
X21683Y13043D01*
X21677Y13000D01*
X21688Y12916D01*
X21709Y12867D01*
X21533Y12692D01*
X21470Y12704D01*
X21384Y12687D01*
X21311Y12639D01*
X21263Y12566D01*
X21246Y12480D01*
X21263Y12394D01*
X21311Y12321D01*
X21384Y12273D01*
X21470Y12256D01*
X21556Y12273D01*
X21629Y12321D01*
X21677Y12394D01*
X21694Y12480D01*
X21685Y12526D01*
X21867Y12709D01*
X21916Y12688D01*
X22000Y12677D01*
X22084Y12688D01*
X22161Y12720D01*
X22228Y12772D01*
X22280Y12839D01*
X22312Y12916D01*
X22323Y13000D01*
X22312Y13084D01*
X22280Y13161D01*
X22228Y13228D01*
X22161Y13280D01*
X22084Y13312D01*
X22000Y13323D01*
X21957Y13317D01*
X21658Y13616D01*
X21673Y13666D01*
X22200D01*
X23003Y12863D01*
X23066Y12821D01*
X23140Y12806D01*
X24745D01*
X24772Y12772D01*
X24839Y12720D01*
X24916Y12688D01*
X25000Y12677D01*
X25084Y12688D01*
X25161Y12720D01*
X25228Y12772D01*
X25280Y12839D01*
X25312Y12916D01*
X25323Y13000D01*
X25312Y13084D01*
X25280Y13161D01*
X25228Y13228D01*
X25194Y13255D01*
Y13330D01*
X25179Y13404D01*
X25137Y13467D01*
X25091Y13513D01*
X25094Y13573D01*
X25142Y13609D01*
X25201Y13687D01*
X25238Y13777D01*
X25251Y13873D01*
Y14473D01*
X25238Y14570D01*
X25201Y14660D01*
X25142Y14737D01*
X25065Y14796D01*
X24975Y14834D01*
X24878Y14846D01*
X24781Y14834D01*
X24691Y14796D01*
X24614Y14737D01*
X24555Y14660D01*
X24517Y14570D01*
X24505Y14473D01*
Y13873D01*
X24517Y13777D01*
X24555Y13687D01*
X24614Y13609D01*
X24684Y13556D01*
Y13452D01*
X24699Y13378D01*
X24741Y13315D01*
X24777Y13279D01*
X24773Y13229D01*
X24772Y13228D01*
X24745Y13194D01*
X23220D01*
X22417Y13997D01*
X22354Y14039D01*
X22280Y14054D01*
X21220D01*
X20785Y14489D01*
X20771Y14511D01*
X20706Y14554D01*
X20630Y14569D01*
X20604Y14564D01*
X20410D01*
X20408Y14563D01*
X20380Y14569D01*
X20304Y14554D01*
X20239Y14511D01*
X20196Y14446D01*
X20181Y14370D01*
X20189Y14331D01*
X20184Y14323D01*
X20146Y14293D01*
X20090Y14304D01*
X19510D01*
X19245Y14569D01*
X19269Y14615D01*
X19290Y14611D01*
X19366Y14626D01*
X19431Y14669D01*
X19467Y14723D01*
X19506Y14730D01*
X19524Y14728D01*
X19549Y14689D01*
X19614Y14646D01*
X19690Y14631D01*
X19766Y14646D01*
X19831Y14689D01*
X19874Y14754D01*
X19889Y14830D01*
X19874Y14906D01*
X19852Y14938D01*
Y17594D01*
X20116Y17858D01*
X20150Y17851D01*
X20226Y17866D01*
X20291Y17909D01*
X20334Y17974D01*
X20349Y18050D01*
X20334Y18126D01*
X20291Y18191D01*
X20226Y18234D01*
X20150Y18249D01*
X20074Y18234D01*
X20009Y18191D01*
X19966Y18126D01*
X19951Y18050D01*
X19958Y18016D01*
X19738Y17797D01*
X19692Y17816D01*
Y18400D01*
X19684Y18443D01*
X19659Y18479D01*
X19659Y18479D01*
X19468Y18671D01*
X19468Y18684D01*
X19476Y18696D01*
X19514Y18724D01*
X19520Y18723D01*
X21195D01*
X21236Y18731D01*
X21270Y18754D01*
X21549Y19033D01*
X22606D01*
X22744Y18894D01*
X22779Y18871D01*
X22820Y18863D01*
X23085D01*
X23101Y18813D01*
X23082Y18801D01*
X23039Y18736D01*
X23024Y18660D01*
X23039Y18584D01*
X23082Y18519D01*
X23147Y18476D01*
X23223Y18461D01*
X23299Y18476D01*
X23363Y18519D01*
X23406Y18584D01*
X23411Y18606D01*
X23462D01*
X23466Y18584D01*
X23509Y18519D01*
X23574Y18476D01*
X23650Y18461D01*
X23726Y18476D01*
X23791Y18519D01*
X23834Y18584D01*
X23849Y18660D01*
X23834Y18736D01*
X23791Y18801D01*
X23772Y18813D01*
X23787Y18863D01*
X25311D01*
X25825Y18349D01*
X25818Y18312D01*
X25835Y18226D01*
X25883Y18153D01*
X25956Y18104D01*
X26042Y18087D01*
X26128Y18104D01*
X26200Y18153D01*
X26249Y18226D01*
X26266Y18312D01*
X26249Y18397D01*
X26200Y18470D01*
X26128Y18519D01*
X26042Y18536D01*
X25957Y18519D01*
X25439Y19037D01*
X25447Y19070D01*
X25458Y19087D01*
X25615D01*
X25616Y19087D01*
X25619Y19071D01*
X25652Y19022D01*
X25701Y18989D01*
X25760Y18977D01*
X25934D01*
X25950Y18980D01*
X26173D01*
X26189Y18977D01*
X28258D01*
X28304Y18946D01*
X28380Y18931D01*
X28406Y18936D01*
X28431Y18890D01*
X28000Y18460D01*
X27936Y18466D01*
X27933Y18470D01*
X27860Y18519D01*
X27774Y18536D01*
X27688Y18519D01*
X27616Y18470D01*
X27567Y18397D01*
X27550Y18311D01*
X27567Y18226D01*
X27616Y18153D01*
X27688Y18104D01*
X27774Y18087D01*
X27860Y18104D01*
X27933Y18153D01*
X27964Y18199D01*
X28010D01*
X28010Y18199D01*
X28053Y18208D01*
X28090Y18232D01*
X28685Y18828D01*
X30650D01*
X30650Y18828D01*
X30693Y18836D01*
X30729Y18861D01*
X31026Y19158D01*
X32624D01*
X32942Y18839D01*
X32917Y18793D01*
X32890Y18799D01*
X32814Y18784D01*
X32749Y18741D01*
X32706Y18676D01*
X32691Y18600D01*
X32706Y18524D01*
X32749Y18459D01*
X32814Y18416D01*
X32890Y18401D01*
X32966Y18416D01*
X33031Y18459D01*
X33074Y18524D01*
X33089Y18600D01*
X33083Y18627D01*
X33129Y18652D01*
X33470Y18311D01*
X33469Y18301D01*
X33426Y18236D01*
X33411Y18160D01*
X33426Y18084D01*
X33469Y18019D01*
X33534Y17976D01*
X33610Y17961D01*
X33686Y17976D01*
X33751Y18019D01*
X33794Y18084D01*
X33809Y18160D01*
X33794Y18236D01*
X33751Y18301D01*
X33722Y18320D01*
Y18330D01*
X33722Y18330D01*
X33714Y18373D01*
X33689Y18409D01*
X33689Y18409D01*
X32945Y19154D01*
X32964Y19200D01*
X34160D01*
D02*
G37*
G36*
X44260Y17490D02*
X44389Y17361D01*
X44370Y17315D01*
X44233D01*
X43975Y17057D01*
Y16670D01*
X44490D01*
Y16550D01*
X44610D01*
Y15785D01*
X44630D01*
Y13390D01*
X45680Y12340D01*
X46640D01*
X46970Y12010D01*
Y11700D01*
X46690Y11420D01*
X45470D01*
X44450Y12440D01*
X43360Y13530D01*
X43360Y14180D01*
X43000Y14540D01*
Y15785D01*
X43030D01*
Y16550D01*
Y17315D01*
X43000D01*
Y17370D01*
X43120Y17490D01*
X44260Y17490D01*
D02*
G37*
G36*
X36950Y14830D02*
X36973Y14814D01*
X37000Y14809D01*
X39070Y14809D01*
X39128Y14751D01*
X39134Y14747D01*
X39139Y14742D01*
X39151Y14734D01*
X39159Y14722D01*
X39164Y14717D01*
X39168Y14711D01*
X39409Y14470D01*
X39409Y11464D01*
X39394Y11461D01*
X39321Y11413D01*
X39273Y11340D01*
X39256Y11254D01*
X39273Y11168D01*
X39321Y11095D01*
X39394Y11047D01*
X39480Y11030D01*
X39566Y11047D01*
X39576Y11053D01*
X39634Y10995D01*
X39657Y10980D01*
X39685Y10974D01*
X39747Y10937D01*
X39765Y10915D01*
Y10761D01*
X39930Y10596D01*
X39900Y10522D01*
X37116D01*
X36430Y11208D01*
Y15245D01*
X36504Y15275D01*
X36950Y14830D01*
D02*
G37*
G36*
X49433Y37339D02*
X49397Y37262D01*
X49213Y37276D01*
X48986Y37258D01*
X48765Y37205D01*
X48555Y37118D01*
X48361Y36999D01*
X48188Y36852D01*
X48040Y36679D01*
X47921Y36485D01*
X47834Y36275D01*
X47781Y36053D01*
X47763Y35827D01*
X47781Y35600D01*
X47834Y35379D01*
X47921Y35169D01*
X48040Y34975D01*
X48188Y34802D01*
X48361Y34654D01*
X48555Y34535D01*
X48765Y34448D01*
X48986Y34395D01*
X49213Y34378D01*
X49439Y34395D01*
X49660Y34448D01*
X49871Y34535D01*
X50024Y34630D01*
X50551Y34103D01*
Y19278D01*
X50471Y19254D01*
X50458Y19273D01*
X50397Y19314D01*
X50325Y19329D01*
X50095D01*
X50023Y19314D01*
X49982Y19287D01*
X49902Y19289D01*
X49880Y19295D01*
X49809Y19343D01*
X49725Y19359D01*
X49495D01*
X49411Y19343D01*
X49340Y19295D01*
X49292Y19224D01*
X49276Y19140D01*
Y18740D01*
X49292Y18656D01*
X49340Y18585D01*
X49411Y18537D01*
X49495Y18521D01*
X49725D01*
X49809Y18537D01*
X49880Y18585D01*
X49902Y18591D01*
X49982Y18593D01*
X50023Y18566D01*
X50095Y18551D01*
X50325D01*
X50397Y18566D01*
X50458Y18607D01*
X50471Y18626D01*
X50551Y18602D01*
Y14484D01*
X50471Y14445D01*
X50444Y14466D01*
X50329Y14513D01*
X50207Y14529D01*
X50084Y14513D01*
X49970Y14466D01*
X49871Y14390D01*
X49796Y14292D01*
X49749Y14178D01*
X49733Y14055D01*
X49749Y13932D01*
X49796Y13818D01*
X49871Y13720D01*
X49970Y13645D01*
X50084Y13597D01*
X50207Y13581D01*
X50329Y13597D01*
X50444Y13645D01*
X50471Y13666D01*
X50551Y13626D01*
Y13535D01*
X50024Y13008D01*
X49871Y13102D01*
X49660Y13189D01*
X49439Y13242D01*
X49213Y13260D01*
X48986Y13242D01*
X48765Y13189D01*
X48555Y13102D01*
X48361Y12984D01*
X48188Y12836D01*
X48040Y12663D01*
X47921Y12469D01*
X47834Y12259D01*
X47781Y12038D01*
X47763Y11811D01*
X47781Y11584D01*
X47834Y11363D01*
X47921Y11153D01*
X48016Y10999D01*
X47538Y10522D01*
X44844D01*
X44813Y10596D01*
X44975Y10757D01*
Y11701D01*
X45055Y11734D01*
X45329Y11460D01*
X45341Y11441D01*
X45360Y11429D01*
X45420Y11370D01*
X45443Y11354D01*
X45470Y11349D01*
X46690D01*
X46717Y11354D01*
X46740Y11370D01*
X46760Y11390D01*
X46830Y11376D01*
X46916Y11393D01*
X46989Y11441D01*
X47037Y11514D01*
X47054Y11600D01*
X47038Y11683D01*
X47041Y11700D01*
Y12010D01*
X47036Y12037D01*
X47020Y12060D01*
X46690Y12390D01*
X46667Y12406D01*
X46640Y12411D01*
X46438D01*
X46395Y12491D01*
X46417Y12524D01*
X46434Y12610D01*
X46417Y12696D01*
X46409Y12708D01*
X46540Y12840D01*
X46556Y12863D01*
X46561Y12890D01*
X46561Y13159D01*
X47460D01*
X47487Y13164D01*
X47510Y13180D01*
X47633Y13302D01*
X47636Y13303D01*
X47709Y13351D01*
X47757Y13424D01*
X47758Y13427D01*
X47950Y13620D01*
X47966Y13643D01*
X47971Y13670D01*
Y14730D01*
Y16125D01*
X47984Y16190D01*
X47971Y16255D01*
Y17190D01*
X47966Y17217D01*
X47950Y17240D01*
X47030Y18160D01*
X47007Y18176D01*
X46980Y18181D01*
X46758D01*
X46738Y18261D01*
X46789Y18288D01*
X46903Y18382D01*
X46997Y18496D01*
X47032Y18563D01*
X47066Y18627D01*
X47087Y18695D01*
X46370D01*
Y18895D01*
D01*
X45618D01*
X45631Y18768D01*
X45647Y18713D01*
X45603Y18687D01*
X45589Y18701D01*
X45571Y18690D01*
X45080Y19180D01*
X45057Y19196D01*
X45030Y19201D01*
X44690D01*
X44663Y19196D01*
X44640Y19180D01*
X44513Y19053D01*
X44433Y19087D01*
Y19839D01*
X44735D01*
X44742Y19840D01*
X44749D01*
X44756Y19843D01*
X44763Y19844D01*
X44769Y19848D01*
X44775Y19851D01*
X44818Y19879D01*
X44880Y19892D01*
X44942Y19879D01*
X44985Y19851D01*
X44991Y19848D01*
X44997Y19844D01*
X45004Y19843D01*
X45011Y19840D01*
X45018D01*
X45025Y19839D01*
X45420D01*
X45447Y19844D01*
X45470Y19860D01*
X45639Y20028D01*
X47590Y20029D01*
X47605Y20032D01*
X47617Y20034D01*
X47617Y20034D01*
X47617Y20034D01*
X47628Y20041D01*
X47641Y20050D01*
X48240Y20650D01*
X48256Y20673D01*
X48261Y20700D01*
X48261Y22520D01*
X48256Y22547D01*
X48240Y22570D01*
X47540Y23270D01*
X47517Y23286D01*
X47490Y23291D01*
X46475D01*
X46466Y23297D01*
X46380Y23314D01*
X46294Y23297D01*
X46285Y23291D01*
X42910D01*
X42883Y23286D01*
X42860Y23270D01*
X42260Y22670D01*
X42244Y22647D01*
X42239Y22620D01*
Y20940D01*
X42239Y20500D01*
X42244Y20473D01*
X42260Y20450D01*
X42850Y19860D01*
X42873Y19844D01*
X42900Y19839D01*
X44167Y19839D01*
Y17950D01*
X44178Y17899D01*
X44206Y17856D01*
X44698Y17365D01*
X44664Y17285D01*
X44521D01*
X44501Y17300D01*
X44460Y17361D01*
X44455Y17389D01*
X44439Y17412D01*
X44310Y17540D01*
X44287Y17556D01*
X44260Y17561D01*
X43125Y17561D01*
X43115Y17574D01*
X43087Y17636D01*
X43350Y17900D01*
X43366Y17923D01*
X43371Y17950D01*
X43371Y18760D01*
X43366Y18787D01*
X43350Y18810D01*
X43301Y18860D01*
Y19170D01*
Y19400D01*
X43296Y19427D01*
X43280Y19450D01*
X43110Y19620D01*
X43087Y19636D01*
X43060Y19641D01*
X42490Y19641D01*
X42463Y19636D01*
X42440Y19620D01*
X40650Y17831D01*
X39690Y17831D01*
X39663Y17826D01*
X39640Y17810D01*
X39380Y17550D01*
X39364Y17527D01*
X39359Y17500D01*
X39359Y16137D01*
X39285Y16106D01*
X39231Y16160D01*
X39219Y16179D01*
X39200Y16191D01*
X39150Y16240D01*
X39127Y16256D01*
X39100Y16261D01*
X37787D01*
X37780Y16260D01*
X37773D01*
X37766Y16257D01*
X37759Y16256D01*
X37753Y16252D01*
X37747Y16249D01*
X37718Y16230D01*
X37660Y16218D01*
X37602Y16230D01*
X37573Y16249D01*
X37567Y16252D01*
X37561Y16256D01*
X37554Y16257D01*
X37547Y16260D01*
X37540D01*
X37533Y16261D01*
X37150D01*
X36437Y16974D01*
X36434Y16976D01*
X36432Y16978D01*
X36430Y16980D01*
Y17164D01*
X36478Y17210D01*
X36565Y17201D01*
X36571Y17191D01*
X36644Y17143D01*
X36730Y17126D01*
X36816Y17143D01*
X36889Y17191D01*
X36927Y17249D01*
X37015Y17274D01*
X37080Y17210D01*
X37103Y17194D01*
X37130Y17189D01*
X38850D01*
X38877Y17194D01*
X38900Y17210D01*
X39190Y17500D01*
X39206Y17523D01*
X39211Y17550D01*
Y19440D01*
X39520Y19750D01*
X40120Y20350D01*
X40136Y20373D01*
X40141Y20400D01*
Y20988D01*
X42601Y23448D01*
X47100D01*
X47147Y23457D01*
X47187Y23483D01*
X49447Y25743D01*
X49473Y25783D01*
X49482Y25830D01*
Y31640D01*
X49473Y31687D01*
X49447Y31727D01*
X48296Y32877D01*
X48312Y32916D01*
X48323Y33000D01*
X48312Y33084D01*
X48280Y33161D01*
X48228Y33228D01*
X48161Y33280D01*
X48084Y33312D01*
X48000Y33323D01*
X47916Y33312D01*
X47839Y33280D01*
X47772Y33228D01*
X47720Y33161D01*
X47688Y33084D01*
X47677Y33000D01*
X47688Y32916D01*
X47720Y32839D01*
X47772Y32772D01*
X47839Y32720D01*
X47916Y32688D01*
X48000Y32677D01*
X48084Y32688D01*
X48123Y32704D01*
X49238Y31589D01*
Y25881D01*
X47049Y23692D01*
X42550D01*
X42503Y23683D01*
X42463Y23657D01*
X40029Y21222D01*
X39650Y21600D01*
X39627Y21616D01*
X39600Y21621D01*
X37310D01*
X37283Y21616D01*
X37260Y21600D01*
X36580Y20920D01*
X36572Y20909D01*
X36564Y20898D01*
X36564Y20897D01*
X36564Y20897D01*
X36561Y20884D01*
X36559Y20870D01*
X36543Y18005D01*
X36543Y18005D01*
X36543Y18005D01*
Y17902D01*
X36544Y17895D01*
Y17888D01*
X36547Y17881D01*
X36548Y17874D01*
X36552Y17868D01*
X36555Y17862D01*
X36560Y17857D01*
X36564Y17851D01*
X36570Y17847D01*
X36575Y17842D01*
X36581Y17840D01*
X36587Y17836D01*
X36594Y17834D01*
X36600Y17832D01*
X36608Y17830D01*
X36657Y17797D01*
X36690Y17748D01*
X36702Y17690D01*
X36692Y17642D01*
Y17635D01*
X36691Y17628D01*
X36692Y17621D01*
Y17614D01*
X36648Y17562D01*
X36634Y17550D01*
X36571Y17509D01*
X36540Y17462D01*
X36430D01*
X36430Y17462D01*
Y18688D01*
X36373Y18745D01*
Y20865D01*
X37435Y21927D01*
X37756D01*
X37814Y21883D01*
X37931Y21834D01*
X38057Y21817D01*
X38183Y21834D01*
X38300Y21883D01*
X38401Y21960D01*
X38479Y22061D01*
X38527Y22178D01*
X38544Y22304D01*
Y22594D01*
X39233D01*
X39704Y22123D01*
X39688Y22084D01*
X39677Y22000D01*
X39688Y21916D01*
X39720Y21839D01*
X39772Y21772D01*
X39839Y21720D01*
X39916Y21688D01*
X40000Y21677D01*
X40084Y21688D01*
X40161Y21720D01*
X40228Y21772D01*
X40280Y21839D01*
X40312Y21916D01*
X40323Y22000D01*
X40312Y22084D01*
X40296Y22123D01*
X42071Y23898D01*
X46840D01*
X46887Y23907D01*
X46927Y23933D01*
X48737Y25743D01*
X48763Y25783D01*
X48772Y25830D01*
Y30350D01*
X48763Y30397D01*
X48737Y30437D01*
X48296Y30877D01*
X48312Y30916D01*
X48323Y31000D01*
X48312Y31084D01*
X48280Y31161D01*
X48228Y31228D01*
X48161Y31280D01*
X48084Y31312D01*
X48000Y31323D01*
X47916Y31312D01*
X47839Y31280D01*
X47772Y31228D01*
X47720Y31161D01*
X47688Y31084D01*
X47681Y31031D01*
X47601Y31037D01*
Y31570D01*
Y32590D01*
X47596Y32617D01*
X47580Y32640D01*
X47020Y33200D01*
X46997Y33216D01*
X46970Y33221D01*
X45880D01*
X45853Y33216D01*
X45830Y33200D01*
X45160Y32530D01*
X45155Y32523D01*
X45149Y32517D01*
X45147Y32512D01*
X45144Y32507D01*
X45142Y32499D01*
X45139Y32490D01*
X45140Y32485D01*
X45139Y32480D01*
X45140Y32471D01*
X45141Y32463D01*
X45149Y32431D01*
Y31522D01*
X45150Y31515D01*
Y31508D01*
X45152Y31500D01*
X45150Y31492D01*
Y31485D01*
X45149Y31478D01*
Y31458D01*
X45146Y31451D01*
X45142Y31445D01*
X45142Y31445D01*
X45107Y31393D01*
X45055Y31358D01*
X45055Y31358D01*
X45049Y31354D01*
X45042Y31351D01*
X45037Y31346D01*
X45032Y31342D01*
X44910Y31221D01*
X44015D01*
X44000Y31224D01*
X43985Y31221D01*
X43015D01*
X43000Y31224D01*
X42985Y31221D01*
X42015D01*
X42000Y31224D01*
X41985Y31221D01*
X41015D01*
X41000Y31224D01*
X40985Y31221D01*
X39980D01*
X39953Y31216D01*
X39930Y31200D01*
X39550Y30820D01*
X39534Y30797D01*
X39529Y30770D01*
Y30335D01*
X39489Y30307D01*
X39449Y30292D01*
X39388Y30317D01*
X39311Y30327D01*
X39234Y30317D01*
X39162Y30287D01*
X39101Y30240D01*
X39053Y30178D01*
X39038Y30142D01*
X37815Y28919D01*
X37772Y28863D01*
X37745Y28797D01*
X37736Y28726D01*
Y28166D01*
X37685Y28100D01*
X37647Y28010D01*
X37635Y27913D01*
X37647Y27817D01*
X37685Y27727D01*
X37744Y27650D01*
X37821Y27590D01*
X37893Y27561D01*
Y27302D01*
X37839Y27280D01*
X37772Y27228D01*
X37720Y27161D01*
X37688Y27084D01*
X37677Y27000D01*
X37688Y26916D01*
X37720Y26839D01*
X37772Y26772D01*
X37839Y26720D01*
X37916Y26688D01*
X38000Y26677D01*
X38084Y26688D01*
X38161Y26720D01*
X38228Y26772D01*
X38280Y26839D01*
X38312Y26916D01*
X38323Y27000D01*
X38312Y27084D01*
X38280Y27161D01*
X38228Y27228D01*
X38161Y27280D01*
X38107Y27302D01*
Y27554D01*
X38194Y27590D01*
X38272Y27650D01*
X38331Y27727D01*
X38368Y27817D01*
X38381Y27913D01*
X38368Y28010D01*
X38331Y28100D01*
X38280Y28166D01*
Y28614D01*
X39194Y29528D01*
X39268Y29497D01*
X39269Y29460D01*
Y28080D01*
X39274Y28053D01*
X39290Y28030D01*
X39530Y27790D01*
X39553Y27774D01*
X39580Y27769D01*
X40140D01*
X40920Y26990D01*
X40943Y26974D01*
X40970Y26969D01*
X42080D01*
X42107Y26974D01*
X42130Y26990D01*
X42179Y27038D01*
X42259Y27005D01*
Y25670D01*
X42264Y25643D01*
X42280Y25620D01*
X42680Y25220D01*
X42703Y25204D01*
X42730Y25199D01*
X44870Y25199D01*
X44897Y25204D01*
X44920Y25220D01*
X45540Y25840D01*
X45851Y26150D01*
X45878Y26145D01*
X45900Y26059D01*
X45837Y26008D01*
X45743Y25894D01*
X45674Y25763D01*
X45653Y25695D01*
X46370D01*
X47087D01*
X47066Y25763D01*
X46997Y25894D01*
X46903Y26008D01*
X46792Y26099D01*
X46792Y26108D01*
X46823Y26179D01*
X47150Y26179D01*
X47177Y26184D01*
X47200Y26200D01*
X47680Y26679D01*
X47989D01*
X48000Y26677D01*
X48084Y26688D01*
X48161Y26720D01*
X48228Y26772D01*
X48280Y26839D01*
X48312Y26916D01*
X48323Y27000D01*
X48321Y27011D01*
Y27320D01*
X48448Y27447D01*
X48528Y27414D01*
Y25881D01*
X46789Y24142D01*
X42020D01*
X41973Y24133D01*
X41933Y24107D01*
X40123Y22296D01*
X40084Y22312D01*
X40000Y22323D01*
X39916Y22312D01*
X39877Y22296D01*
X39370Y22803D01*
X39330Y22830D01*
X39283Y22839D01*
X38544D01*
Y23129D01*
X38527Y23255D01*
X38479Y23372D01*
X38401Y23473D01*
X38300Y23551D01*
X38183Y23599D01*
X38057Y23616D01*
X38008Y23609D01*
X37432Y24186D01*
Y25630D01*
Y27862D01*
X37420Y27959D01*
X37382Y28049D01*
X37323Y28126D01*
X37294Y28148D01*
X37272Y28177D01*
X37194Y28237D01*
X37104Y28274D01*
X37008Y28287D01*
X36920Y28275D01*
X36594Y28602D01*
Y28718D01*
Y29538D01*
X37792Y30736D01*
X38630D01*
X38704Y30751D01*
X38767Y30793D01*
X39330Y31356D01*
X40320D01*
X40394Y31371D01*
X40457Y31413D01*
X41010Y31966D01*
X42205D01*
X42232Y31932D01*
X42299Y31880D01*
X42376Y31848D01*
X42460Y31837D01*
X42544Y31848D01*
X42621Y31880D01*
X42688Y31932D01*
X42740Y31999D01*
X42772Y32076D01*
X42783Y32160D01*
X42772Y32244D01*
X42740Y32321D01*
X42688Y32388D01*
X42621Y32440D01*
X42544Y32472D01*
X42460Y32483D01*
X42376Y32472D01*
X42299Y32440D01*
X42232Y32388D01*
X42205Y32354D01*
X40930D01*
X40856Y32339D01*
X40793Y32297D01*
X40240Y31744D01*
X39250D01*
X39176Y31729D01*
X39113Y31687D01*
X38666Y31240D01*
X38550Y31124D01*
X37712D01*
X37637Y31109D01*
X37575Y31067D01*
X36263Y29755D01*
X36221Y29693D01*
X36206Y29618D01*
Y28789D01*
X34704D01*
X34660Y28869D01*
X34673Y28937D01*
X34656Y29023D01*
X34607Y29096D01*
X34561Y29127D01*
Y29281D01*
X34561Y29281D01*
X34552Y29324D01*
X34528Y29361D01*
X34528Y29361D01*
X32890Y30999D01*
X32853Y31024D01*
X32810Y31032D01*
X32810Y31032D01*
X32350D01*
X32350Y31032D01*
X32342Y31031D01*
X32303Y31104D01*
X32469Y31271D01*
X32469Y31271D01*
X32494Y31307D01*
X32502Y31350D01*
X32502Y31350D01*
Y32680D01*
X32502Y32680D01*
X32494Y32723D01*
X32469Y32759D01*
X32469Y32759D01*
X32355Y32874D01*
X32375Y32929D01*
X32392Y32950D01*
X34046D01*
X34078Y32873D01*
X34136Y32797D01*
X34213Y32738D01*
X34301Y32701D01*
X34397Y32689D01*
X34492Y32701D01*
X34581Y32738D01*
X34657Y32797D01*
X34716Y32873D01*
X34753Y32962D01*
X34765Y33057D01*
X34753Y33152D01*
X34716Y33241D01*
X34657Y33318D01*
X34651Y33323D01*
X34678Y33403D01*
X34830D01*
X34871Y33411D01*
X34905Y33434D01*
X35211Y33739D01*
X35213Y33738D01*
X35301Y33701D01*
X35397Y33689D01*
X35830D01*
X35925Y33701D01*
X36014Y33738D01*
X36043Y33760D01*
X36123Y33721D01*
Y33535D01*
X35979Y33391D01*
X35925Y33413D01*
X35830Y33426D01*
X35397D01*
X35301Y33413D01*
X35213Y33376D01*
X35136Y33318D01*
X35078Y33241D01*
X35041Y33152D01*
X35028Y33057D01*
X35041Y32962D01*
X35078Y32873D01*
X35136Y32797D01*
X35213Y32738D01*
X35301Y32701D01*
X35397Y32689D01*
X35830D01*
X35925Y32701D01*
X36014Y32738D01*
X36058Y32772D01*
X36090Y32797D01*
X36149Y32873D01*
X36186Y32962D01*
X36198Y33057D01*
X36186Y33152D01*
X36149Y33241D01*
X36142Y33251D01*
X36306Y33414D01*
X36329Y33449D01*
X36337Y33490D01*
Y35300D01*
X36337Y35300D01*
X36329Y35341D01*
X36306Y35376D01*
X36306Y35376D01*
X36096Y35586D01*
X36061Y35609D01*
X36020Y35617D01*
X36010D01*
X35994Y35697D01*
X36029Y35712D01*
X36047Y35726D01*
X36112Y35775D01*
X36175Y35858D01*
X36215Y35954D01*
X36222Y36007D01*
X35613D01*
X35005D01*
X35012Y35954D01*
X35052Y35858D01*
X35115Y35775D01*
X35198Y35712D01*
X35233Y35697D01*
X35217Y35617D01*
X35120D01*
X35120Y35617D01*
X35079Y35609D01*
X35044Y35586D01*
X34844Y35386D01*
X34821Y35351D01*
X34813Y35310D01*
Y35216D01*
X34733Y35200D01*
X34716Y35241D01*
X34657Y35318D01*
X34581Y35376D01*
X34492Y35413D01*
X34397Y35426D01*
X34301Y35413D01*
X34213Y35376D01*
X34136Y35318D01*
X34078Y35241D01*
X34041Y35152D01*
X34028Y35057D01*
X34041Y34962D01*
X34078Y34873D01*
X34136Y34797D01*
X34213Y34738D01*
X34245Y34724D01*
X34229Y34644D01*
X33647D01*
X33412Y34879D01*
X33378Y34902D01*
X33337Y34910D01*
X33077D01*
X33042Y34962D01*
X32970Y35010D01*
X32884Y35027D01*
X32798Y35010D01*
X32725Y34962D01*
X32677Y34889D01*
X32660Y34803D01*
X32677Y34717D01*
X32725Y34645D01*
X32798Y34596D01*
X32884Y34579D01*
X32970Y34596D01*
X33042Y34645D01*
X33077Y34696D01*
X33292D01*
X33527Y34462D01*
X33527Y34462D01*
X33561Y34438D01*
X33602Y34430D01*
X34103D01*
X34130Y34350D01*
X34115Y34339D01*
X34052Y34256D01*
X34012Y34160D01*
X34005Y34107D01*
X34397D01*
Y34007D01*
X34005D01*
X34012Y33954D01*
X34052Y33858D01*
X34068Y33837D01*
X34028Y33757D01*
X32885D01*
X32367Y34274D01*
X32374Y34310D01*
X32357Y34396D01*
X32309Y34469D01*
X32236Y34517D01*
X32150Y34534D01*
X32064Y34517D01*
X31991Y34469D01*
X31943Y34396D01*
X31931Y34338D01*
X31920Y34308D01*
X31850Y34278D01*
X31820Y34284D01*
X31734Y34267D01*
X31661Y34219D01*
X31613Y34146D01*
X31596Y34060D01*
X31613Y33974D01*
X31661Y33901D01*
X31734Y33853D01*
X31820Y33836D01*
X31881Y33848D01*
X32295Y33434D01*
X32329Y33411D01*
X32370Y33403D01*
X32370Y33403D01*
X34116D01*
X34143Y33323D01*
X34136Y33318D01*
X34078Y33241D01*
X34046Y33164D01*
X32427D01*
X32146Y33446D01*
X32111Y33469D01*
X32070Y33477D01*
X28630D01*
X28630Y33477D01*
X28589Y33469D01*
X28554Y33446D01*
X28554Y33446D01*
X28214Y33106D01*
X28191Y33071D01*
X28183Y33030D01*
Y32863D01*
X28103Y32847D01*
X28085Y32889D01*
X28022Y32972D01*
X27939Y33035D01*
X27843Y33075D01*
X27740Y33089D01*
X27703Y33165D01*
X28896Y34358D01*
X30230D01*
X30230Y34358D01*
X30273Y34366D01*
X30309Y34391D01*
X30819Y34901D01*
X30844Y34937D01*
X30852Y34980D01*
X30852Y34980D01*
Y35091D01*
X30924Y35121D01*
X31001Y35179D01*
X31059Y35256D01*
X31096Y35345D01*
X31108Y35440D01*
X31096Y35535D01*
X31059Y35624D01*
X31001Y35701D01*
X30924Y35759D01*
X30835Y35796D01*
X30740Y35808D01*
X30645Y35796D01*
X30556Y35759D01*
X30512Y35726D01*
X30432Y35765D01*
Y35974D01*
X30573Y36114D01*
X30645Y36084D01*
X30740Y36072D01*
X30835Y36084D01*
X30924Y36121D01*
X31001Y36179D01*
X31059Y36256D01*
X31096Y36345D01*
X31108Y36440D01*
X31096Y36535D01*
X31059Y36624D01*
X31001Y36701D01*
X30924Y36759D01*
X30835Y36796D01*
X30740Y36808D01*
X30645Y36796D01*
X30556Y36759D01*
X30479Y36701D01*
X30421Y36624D01*
X30384Y36535D01*
X30372Y36440D01*
X30384Y36345D01*
X30414Y36273D01*
X30293Y36152D01*
X30240Y36100D01*
X30187Y36152D01*
X30066Y36273D01*
X30096Y36345D01*
X30108Y36440D01*
X30096Y36535D01*
X30059Y36624D01*
X30001Y36701D01*
X29924Y36759D01*
X29835Y36796D01*
X29740Y36808D01*
X29645Y36796D01*
X29556Y36759D01*
X29479Y36701D01*
X29421Y36624D01*
X29384Y36535D01*
X29372Y36440D01*
X29384Y36345D01*
X29421Y36256D01*
X29479Y36179D01*
X29556Y36121D01*
X29645Y36084D01*
X29740Y36072D01*
X29835Y36084D01*
X29907Y36114D01*
X30048Y35974D01*
Y35765D01*
X29968Y35726D01*
X29924Y35759D01*
X29835Y35796D01*
X29740Y35808D01*
X29645Y35796D01*
X29556Y35759D01*
X29479Y35701D01*
X29421Y35624D01*
X29384Y35535D01*
X29372Y35440D01*
X29384Y35345D01*
X29414Y35273D01*
X29174Y35032D01*
X28919D01*
X28903Y35112D01*
X28924Y35121D01*
X29001Y35179D01*
X29059Y35256D01*
X29096Y35345D01*
X29108Y35440D01*
X29096Y35535D01*
X29059Y35624D01*
X29001Y35701D01*
X28924Y35759D01*
X28835Y35796D01*
X28740Y35808D01*
X28645Y35796D01*
X28573Y35766D01*
X28309Y36029D01*
X28273Y36054D01*
X28230Y36062D01*
X28230Y36062D01*
X28028D01*
X28001Y36142D01*
X28022Y36158D01*
X28085Y36241D01*
X28125Y36337D01*
X28132Y36390D01*
X27740D01*
Y36490D01*
X28132D01*
X28125Y36543D01*
X28085Y36639D01*
X28062Y36670D01*
X28101Y36750D01*
X28279D01*
X28416Y36613D01*
X28384Y36535D01*
X28372Y36440D01*
X28384Y36345D01*
X28421Y36256D01*
X28479Y36179D01*
X28556Y36121D01*
X28645Y36084D01*
X28740Y36072D01*
X28835Y36084D01*
X28924Y36121D01*
X29001Y36179D01*
X29059Y36256D01*
X29096Y36345D01*
X29108Y36440D01*
X29096Y36535D01*
X29059Y36624D01*
X29001Y36701D01*
X28924Y36759D01*
X28835Y36796D01*
X28740Y36808D01*
X28645Y36796D01*
X28567Y36764D01*
X28399Y36933D01*
X28364Y36956D01*
X28323Y36964D01*
X27533D01*
X27507Y36969D01*
X27464Y36961D01*
X27428Y36936D01*
X24864Y34372D01*
X24310D01*
X24267Y34364D01*
X24231Y34339D01*
X24231Y34339D01*
X24051Y34159D01*
X24026Y34123D01*
X24018Y34080D01*
X24018Y34080D01*
Y34037D01*
X23938Y34010D01*
X23907Y34050D01*
X23824Y34114D01*
X23726Y34154D01*
X23672Y34161D01*
Y33465D01*
Y32768D01*
X23677Y32768D01*
X23714Y32693D01*
X23101Y32079D01*
X23076Y32043D01*
X23068Y32000D01*
X23068Y32000D01*
Y31740D01*
X23039Y31721D01*
X22996Y31656D01*
X22981Y31580D01*
X22996Y31504D01*
X23039Y31439D01*
X23104Y31396D01*
X23180Y31381D01*
X23203Y31386D01*
X23333Y31256D01*
X23333Y31256D01*
X23370Y31231D01*
X23370Y31231D01*
X23442Y31160D01*
X23411Y31086D01*
X23216D01*
X23071Y30940D01*
X22968Y30951D01*
X22729Y31189D01*
X22693Y31214D01*
X22650Y31222D01*
X22650Y31222D01*
X22566D01*
X22487Y31301D01*
Y31360D01*
X22487Y31360D01*
X22479Y31403D01*
X22454Y31439D01*
X22454Y31439D01*
X22334Y31559D01*
X22298Y31584D01*
X22255Y31592D01*
X22255Y31592D01*
X21520D01*
X21520Y31592D01*
X21477Y31584D01*
X21441Y31559D01*
X21441Y31559D01*
X20484Y30602D01*
X20450Y30609D01*
X20374Y30594D01*
X20309Y30551D01*
X20266Y30486D01*
X20251Y30410D01*
X20261Y30362D01*
X20212Y30282D01*
X20106D01*
X19640Y30748D01*
X19667Y30829D01*
X19687Y30833D01*
X19726Y30832D01*
X19772Y30772D01*
X19839Y30720D01*
X19916Y30688D01*
X20000Y30677D01*
X20084Y30688D01*
X20161Y30720D01*
X20228Y30772D01*
X20245Y30794D01*
X20298Y30831D01*
X20354Y30810D01*
X20374Y30796D01*
X20450Y30781D01*
X20526Y30796D01*
X20591Y30839D01*
X20634Y30904D01*
X20649Y30980D01*
X20634Y31056D01*
X20591Y31121D01*
X20562Y31140D01*
Y31784D01*
X20946Y32168D01*
X21460D01*
X21479Y32139D01*
X21544Y32096D01*
X21620Y32081D01*
X21696Y32096D01*
X21761Y32139D01*
X21804Y32204D01*
X21819Y32280D01*
X21804Y32356D01*
X21761Y32421D01*
X21696Y32464D01*
X21620Y32479D01*
X21544Y32464D01*
X21479Y32421D01*
X21460Y32392D01*
X20900D01*
X20900Y32392D01*
X20857Y32384D01*
X20821Y32359D01*
X20821Y32359D01*
X20371Y31909D01*
X20346Y31873D01*
X20338Y31830D01*
X20338Y31830D01*
Y31217D01*
X20258Y31190D01*
X20228Y31228D01*
X20161Y31280D01*
X20084Y31312D01*
X20000Y31323D01*
X19916Y31312D01*
X19839Y31280D01*
X19786Y31239D01*
X19782Y31240D01*
X19726Y31277D01*
X19640Y31294D01*
X19554Y31277D01*
X19481Y31229D01*
X19433Y31156D01*
X19418Y31083D01*
X19377Y31060D01*
X19338Y31051D01*
X18579Y31809D01*
X18543Y31834D01*
X18500Y31842D01*
X18500Y31842D01*
X12024D01*
X11322Y32544D01*
X11347Y32570D01*
Y32932D01*
X11427Y32959D01*
X11501Y32863D01*
X11620Y32772D01*
X11759Y32714D01*
X11907Y32695D01*
X12056Y32714D01*
X12195Y32772D01*
X12314Y32863D01*
X12405Y32982D01*
X12463Y33121D01*
X12482Y33270D01*
X12463Y33419D01*
X12405Y33557D01*
X12314Y33676D01*
X12195Y33768D01*
X12180Y33774D01*
Y33949D01*
X12170Y34019D01*
X12143Y34085D01*
X12100Y34142D01*
X12044Y34197D01*
Y34397D01*
X12259Y34448D01*
X12469Y34535D01*
X12663Y34654D01*
X12836Y34802D01*
X12984Y34975D01*
X13102Y35169D01*
X13189Y35379D01*
X13242Y35600D01*
X13260Y35827D01*
X13242Y36053D01*
X13189Y36275D01*
X13102Y36485D01*
X12984Y36679D01*
X12836Y36852D01*
X12663Y36999D01*
X12469Y37118D01*
X12259Y37205D01*
X12038Y37258D01*
X11811Y37276D01*
X11648Y37263D01*
X11612Y37341D01*
X11673Y37402D01*
X24986D01*
X24991Y37322D01*
X24916Y37312D01*
X24839Y37280D01*
X24772Y37228D01*
X24720Y37161D01*
X24688Y37084D01*
X24677Y37000D01*
X24688Y36916D01*
X24709Y36867D01*
X24543Y36701D01*
X24518Y36665D01*
X24510Y36622D01*
X24510Y36622D01*
Y36481D01*
X24435Y36450D01*
X24358Y36391D01*
X24299Y36313D01*
X24262Y36223D01*
X24249Y36127D01*
Y35527D01*
X24262Y35430D01*
X24299Y35340D01*
X24358Y35263D01*
X24435Y35204D01*
X24525Y35166D01*
X24622Y35154D01*
X24719Y35166D01*
X24809Y35204D01*
X24886Y35263D01*
X24945Y35340D01*
X24983Y35430D01*
X24995Y35527D01*
Y36127D01*
X24983Y36223D01*
X24945Y36313D01*
X24886Y36391D01*
X24809Y36450D01*
X24734Y36481D01*
Y36576D01*
X24867Y36709D01*
X24916Y36688D01*
X25000Y36677D01*
X25084Y36688D01*
X25161Y36720D01*
X25228Y36772D01*
X25280Y36839D01*
X25312Y36916D01*
X25323Y37000D01*
X25312Y37084D01*
X25280Y37161D01*
X25228Y37228D01*
X25161Y37280D01*
X25084Y37312D01*
X25009Y37322D01*
X25014Y37402D01*
X34032D01*
Y36692D01*
X34762D01*
Y37402D01*
X35114D01*
X35142Y37322D01*
X35136Y37318D01*
X35078Y37241D01*
X35041Y37152D01*
X35028Y37057D01*
X35041Y36962D01*
X35078Y36873D01*
X35136Y36797D01*
X35213Y36738D01*
X35301Y36701D01*
X35397Y36689D01*
X35830D01*
X35925Y36701D01*
X36014Y36738D01*
X36090Y36797D01*
X36149Y36873D01*
X36186Y36962D01*
X36198Y37057D01*
X36186Y37152D01*
X36149Y37241D01*
X36090Y37318D01*
X36085Y37322D01*
X36112Y37402D01*
X49370D01*
X49433Y37339D01*
D02*
G37*
%LPC*%
G36*
X41847Y17319D02*
X41710D01*
Y16674D01*
X42105D01*
Y17061D01*
X41847Y17319D01*
D02*
G37*
G36*
X40507D02*
X40370D01*
Y16674D01*
X40765D01*
Y17061D01*
X40507Y17319D01*
D02*
G37*
G36*
X40130Y16434D02*
X39735D01*
Y16046D01*
X39992Y15789D01*
X40130D01*
Y16434D01*
D02*
G37*
G36*
X40765D02*
X40370D01*
Y15789D01*
X40507D01*
X40765Y16046D01*
Y16434D01*
D02*
G37*
G36*
X41470D02*
X41075D01*
Y16046D01*
X41332Y15789D01*
X41470D01*
Y16434D01*
D02*
G37*
G36*
X40130Y17319D02*
X39992D01*
X39735Y17061D01*
Y16674D01*
X40130D01*
Y17319D01*
D02*
G37*
G36*
X41470D02*
X41332D01*
X41075Y17061D01*
Y16674D01*
X41470D01*
Y17319D01*
D02*
G37*
G36*
X42105Y16434D02*
X41710D01*
Y15789D01*
X41847D01*
X42105Y16046D01*
Y16434D01*
D02*
G37*
G36*
X46620Y32683D02*
Y32195D01*
X47087D01*
X47066Y32263D01*
X46997Y32394D01*
X46903Y32508D01*
X46789Y32602D01*
X46658Y32671D01*
X46620Y32683D01*
D02*
G37*
G36*
X46120D02*
X46082Y32671D01*
X45951Y32602D01*
X45837Y32508D01*
X45743Y32394D01*
X45674Y32263D01*
X45653Y32195D01*
X46120D01*
Y32683D01*
D02*
G37*
G36*
Y31695D02*
X45653D01*
X45674Y31627D01*
X45743Y31496D01*
X45837Y31382D01*
X45951Y31288D01*
X46082Y31219D01*
X46120Y31207D01*
Y31695D01*
D02*
G37*
G36*
X47087D02*
X46620D01*
Y31207D01*
X46658Y31219D01*
X46789Y31288D01*
X46903Y31382D01*
X46997Y31496D01*
X47066Y31627D01*
X47087Y31695D01*
D02*
G37*
G36*
X42950Y26430D02*
X42685D01*
Y26172D01*
X42943Y25915D01*
X42950D01*
Y26430D01*
D02*
G37*
G36*
X43715D02*
X43450D01*
Y25915D01*
X43457D01*
X43715Y26172D01*
Y26430D01*
D02*
G37*
G36*
X44290D02*
X44025D01*
Y26172D01*
X44282Y25915D01*
X44290D01*
Y26430D01*
D02*
G37*
G36*
X46120Y29433D02*
X46082Y29421D01*
X45951Y29352D01*
X45837Y29258D01*
X45743Y29144D01*
X45674Y29013D01*
X45653Y28945D01*
X46120D01*
Y29433D01*
D02*
G37*
G36*
X46620D02*
Y28945D01*
X47087D01*
X47066Y29013D01*
X46997Y29144D01*
X46903Y29258D01*
X46789Y29352D01*
X46658Y29421D01*
X46620Y29433D01*
D02*
G37*
G36*
X42950Y27445D02*
X42943D01*
X42685Y27188D01*
Y26930D01*
X42950D01*
Y27445D01*
D02*
G37*
G36*
X44290D02*
X44282D01*
X44025Y27188D01*
Y26930D01*
X44290D01*
Y27445D01*
D02*
G37*
G36*
X43457D02*
X43450D01*
Y26930D01*
X43715D01*
Y27188D01*
X43457Y27445D01*
D02*
G37*
G36*
X45055Y26430D02*
X44790D01*
Y25915D01*
X44798D01*
X45055Y26172D01*
Y26430D01*
D02*
G37*
G36*
X46120Y28445D02*
X45653D01*
X45674Y28377D01*
X45743Y28246D01*
X45837Y28132D01*
X45951Y28038D01*
X46082Y27969D01*
X46120Y27957D01*
Y28445D01*
D02*
G37*
G36*
X47087D02*
X46620D01*
Y27957D01*
X46658Y27969D01*
X46789Y28038D01*
X46903Y28132D01*
X46997Y28246D01*
X47066Y28377D01*
X47087Y28445D01*
D02*
G37*
G36*
X44798Y27445D02*
X44790D01*
Y26930D01*
X45055D01*
Y27188D01*
X44798Y27445D01*
D02*
G37*
G36*
X12598Y23553D02*
X12457Y23539D01*
X12321Y23498D01*
X12195Y23430D01*
X12085Y23340D01*
X11995Y23230D01*
X11928Y23105D01*
X11886Y22968D01*
X11872Y22827D01*
X11886Y22685D01*
X11928Y22549D01*
X11995Y22424D01*
X12085Y22313D01*
X12195Y22223D01*
X12321Y22156D01*
X12457Y22115D01*
X12598Y22101D01*
X12740Y22115D01*
X12876Y22156D01*
X13002Y22223D01*
X13112Y22313D01*
X13202Y22424D01*
X13269Y22549D01*
X13310Y22685D01*
X13324Y22827D01*
X13310Y22968D01*
X13269Y23105D01*
X13202Y23230D01*
X13112Y23340D01*
X13002Y23430D01*
X12876Y23498D01*
X12740Y23539D01*
X12598Y23553D01*
D02*
G37*
G36*
X17645Y31086D02*
X17490D01*
X17285Y30881D01*
Y30726D01*
X17645D01*
Y31086D01*
D02*
G37*
G36*
X14882Y30815D02*
X14796Y30798D01*
X14723Y30749D01*
X14675Y30676D01*
X14658Y30591D01*
X14675Y30505D01*
X14723Y30432D01*
X14796Y30383D01*
X14882Y30366D01*
X14968Y30383D01*
X15041Y30432D01*
X15089Y30505D01*
X15106Y30591D01*
X15089Y30676D01*
X15041Y30749D01*
X14968Y30798D01*
X14882Y30815D01*
D02*
G37*
G36*
X17900Y31086D02*
X17745D01*
Y30726D01*
X18105D01*
Y30881D01*
X17900Y31086D01*
D02*
G37*
G36*
X16885Y31056D02*
X16505D01*
X16315Y30866D01*
Y30486D01*
X16505Y30296D01*
X16885D01*
X17075Y30486D01*
Y30866D01*
X16885Y31056D01*
D02*
G37*
G36*
X16604Y25756D02*
X16518Y25739D01*
X16446Y25690D01*
X16397Y25617D01*
X16380Y25531D01*
X16397Y25446D01*
X16446Y25373D01*
X16518Y25324D01*
X16604Y25307D01*
X16690Y25324D01*
X16763Y25373D01*
X16812Y25446D01*
X16829Y25531D01*
X16812Y25617D01*
X16763Y25690D01*
X16690Y25739D01*
X16604Y25756D01*
D02*
G37*
G36*
X15551Y22803D02*
X15465Y22786D01*
X15393Y22737D01*
X15344Y22665D01*
X15327Y22579D01*
X15344Y22493D01*
X15393Y22420D01*
X15465Y22372D01*
X15551Y22354D01*
X15637Y22372D01*
X15710Y22420D01*
X15758Y22493D01*
X15775Y22579D01*
X15758Y22665D01*
X15710Y22737D01*
X15637Y22786D01*
X15551Y22803D01*
D02*
G37*
G36*
X14035Y24647D02*
X13718D01*
Y24330D01*
X13765Y24336D01*
X13855Y24374D01*
X13932Y24433D01*
X13992Y24510D01*
X14029Y24600D01*
X14035Y24647D01*
D02*
G37*
G36*
X12598Y28285D02*
X12457Y28271D01*
X12321Y28230D01*
X12195Y28163D01*
X12085Y28072D01*
X11995Y27962D01*
X11928Y27837D01*
X11886Y27701D01*
X11872Y27559D01*
X11886Y27417D01*
X11928Y27281D01*
X11995Y27156D01*
X12085Y27046D01*
X12195Y26955D01*
X12321Y26888D01*
X12457Y26847D01*
X12598Y26833D01*
X12740Y26847D01*
X12876Y26888D01*
X12901Y26901D01*
X12931Y26861D01*
X12800Y26730D01*
Y25590D01*
X12988Y25402D01*
X12970Y25349D01*
X12909Y25341D01*
X12823Y25306D01*
X12750Y25250D01*
X12694Y25177D01*
X12659Y25091D01*
X12654Y25050D01*
X13000D01*
Y25000D01*
X13050D01*
Y24654D01*
X13091Y24659D01*
X13177Y24694D01*
X13250Y24750D01*
X13252Y24754D01*
X13269Y24747D01*
X13668D01*
X14035D01*
X14029Y24790D01*
X14031Y24804D01*
X14055Y24840D01*
X14105D01*
X14132Y24798D01*
X14127Y24786D01*
X14115Y24697D01*
X14127Y24608D01*
X14143Y24571D01*
X13951Y24379D01*
X13926Y24343D01*
X13920Y24312D01*
X13916Y24312D01*
X13839Y24280D01*
X13772Y24228D01*
X13720Y24161D01*
X13688Y24084D01*
X13677Y24000D01*
X13688Y23916D01*
X13720Y23839D01*
X13772Y23772D01*
X13839Y23720D01*
X13916Y23688D01*
X14000Y23677D01*
X14084Y23688D01*
X14161Y23720D01*
X14228Y23772D01*
X14280Y23839D01*
X14312Y23916D01*
X14323Y24000D01*
X14312Y24084D01*
X14280Y24161D01*
X14228Y24228D01*
X14195Y24254D01*
X14192Y24303D01*
X14288Y24399D01*
X14370Y24366D01*
X14458Y24354D01*
X14547Y24366D01*
X14630Y24400D01*
X14701Y24454D01*
X14755Y24525D01*
X14790Y24608D01*
X14801Y24697D01*
X14790Y24786D01*
X14784Y24798D01*
X14812Y24840D01*
X14930D01*
X15720Y25630D01*
Y27060D01*
X15020Y27760D01*
X13830D01*
X13297Y27227D01*
X13256Y27257D01*
X13269Y27281D01*
X13310Y27417D01*
X13324Y27559D01*
X13310Y27701D01*
X13269Y27837D01*
X13202Y27962D01*
X13112Y28072D01*
X13002Y28163D01*
X12876Y28230D01*
X12740Y28271D01*
X12598Y28285D01*
D02*
G37*
G36*
X12950Y24950D02*
X12654D01*
X12659Y24909D01*
X12694Y24823D01*
X12750Y24750D01*
X12823Y24694D01*
X12909Y24659D01*
X12950Y24654D01*
Y24950D01*
D02*
G37*
G36*
X13618Y24647D02*
X13302D01*
X13308Y24600D01*
X13345Y24510D01*
X13405Y24433D01*
X13482Y24374D01*
X13572Y24336D01*
X13618Y24330D01*
Y24647D01*
D02*
G37*
G36*
X15885Y30056D02*
X15505D01*
X15315Y29866D01*
Y29486D01*
X15505Y29296D01*
X15777D01*
X15794Y29246D01*
X15772Y29228D01*
X15720Y29161D01*
X15688Y29084D01*
X15677Y29000D01*
X15688Y28916D01*
X15720Y28839D01*
X15772Y28772D01*
X15839Y28720D01*
X15916Y28688D01*
X16000Y28677D01*
X16084Y28688D01*
X16161Y28720D01*
X16228Y28772D01*
X16280Y28839D01*
X16312Y28916D01*
X16323Y29000D01*
X16312Y29084D01*
X16280Y29161D01*
X16228Y29228D01*
X16161Y29280D01*
X16122Y29296D01*
Y29371D01*
X16113Y29418D01*
X16087Y29457D01*
X16067Y29477D01*
X16075Y29486D01*
Y29866D01*
X15885Y30056D01*
D02*
G37*
G36*
X16885D02*
X16505D01*
X16315Y29866D01*
Y29486D01*
X16505Y29296D01*
X16777D01*
X16794Y29246D01*
X16772Y29228D01*
X16720Y29161D01*
X16688Y29084D01*
X16677Y29000D01*
X16688Y28916D01*
X16720Y28839D01*
X16772Y28772D01*
X16839Y28720D01*
X16916Y28688D01*
X17000Y28677D01*
X17084Y28688D01*
X17161Y28720D01*
X17197Y28748D01*
X17252Y28727D01*
X17263Y28674D01*
X17311Y28601D01*
X17348Y28577D01*
Y28521D01*
X17123Y28296D01*
X17084Y28312D01*
X17000Y28323D01*
X16916Y28312D01*
X16839Y28280D01*
X16772Y28228D01*
X16720Y28161D01*
X16688Y28084D01*
X16677Y28000D01*
X16688Y27916D01*
X16720Y27839D01*
X16772Y27772D01*
X16839Y27720D01*
X16916Y27688D01*
X17000Y27677D01*
X17084Y27688D01*
X17161Y27720D01*
X17228Y27772D01*
X17280Y27839D01*
X17312Y27916D01*
X17323Y28000D01*
X17312Y28084D01*
X17296Y28123D01*
X17557Y28383D01*
X17583Y28423D01*
X17592Y28470D01*
Y28577D01*
X17629Y28601D01*
X17677Y28674D01*
X17694Y28760D01*
X17677Y28846D01*
X17629Y28919D01*
X17556Y28967D01*
X17470Y28984D01*
X17384Y28967D01*
X17362Y28953D01*
X17320Y28979D01*
X17323Y29000D01*
X17312Y29084D01*
X17280Y29161D01*
X17228Y29228D01*
X17161Y29280D01*
X17122Y29296D01*
Y29371D01*
X17113Y29418D01*
X17087Y29457D01*
X17067Y29477D01*
X17075Y29486D01*
Y29866D01*
X16885Y30056D01*
D02*
G37*
G36*
X18105Y30626D02*
X17745D01*
Y30266D01*
X17900D01*
X18105Y30471D01*
Y30626D01*
D02*
G37*
G36*
X15885Y31056D02*
X15505D01*
X15315Y30866D01*
Y30486D01*
X15505Y30296D01*
X15885D01*
X16075Y30486D01*
Y30866D01*
X15885Y31056D01*
D02*
G37*
G36*
X17645Y30626D02*
X17285D01*
Y30471D01*
X17490Y30266D01*
X17645D01*
Y30626D01*
D02*
G37*
G36*
X10877Y30950D02*
X10477D01*
Y30775D01*
X10702Y30550D01*
X10877D01*
Y30950D01*
D02*
G37*
G36*
X42950Y13950D02*
X42654D01*
X42659Y13909D01*
X42694Y13823D01*
X42750Y13750D01*
X42823Y13694D01*
X42909Y13659D01*
X42950Y13654D01*
Y13950D01*
D02*
G37*
G36*
X21753Y24438D02*
X21667Y24421D01*
X21594Y24372D01*
X21546Y24300D01*
X21529Y24214D01*
X21546Y24128D01*
X21594Y24055D01*
X21667Y24007D01*
X21753Y23989D01*
X21839Y24007D01*
X21912Y24055D01*
X21960Y24128D01*
X21977Y24214D01*
X21960Y24300D01*
X21912Y24372D01*
X21839Y24421D01*
X21753Y24438D01*
D02*
G37*
G36*
X20758Y28463D02*
X20672Y28445D01*
X20599Y28397D01*
X20551Y28324D01*
X20534Y28238D01*
X20551Y28152D01*
X20599Y28080D01*
X20672Y28031D01*
X20758Y28014D01*
X20844Y28031D01*
X20916Y28080D01*
X20965Y28152D01*
X20982Y28238D01*
X20965Y28324D01*
X20916Y28397D01*
X20844Y28445D01*
X20758Y28463D01*
D02*
G37*
G36*
X33454Y21946D02*
X32807D01*
X32814Y21892D01*
X32855Y21794D01*
X32919Y21711D01*
X33002Y21647D01*
X33100Y21606D01*
X33204Y21593D01*
X33454D01*
Y21946D01*
D02*
G37*
G36*
X34201D02*
X33554D01*
Y21593D01*
X33804D01*
X33908Y21606D01*
X34006Y21647D01*
X34089Y21711D01*
X34153Y21794D01*
X34194Y21892D01*
X34201Y21946D01*
D02*
G37*
G36*
X33454Y22400D02*
X33204D01*
X33100Y22386D01*
X33002Y22345D01*
X32919Y22281D01*
X32855Y22198D01*
X32814Y22100D01*
X32807Y22046D01*
X33454D01*
Y22400D01*
D02*
G37*
G36*
X33804D02*
X33554D01*
Y22046D01*
X34201D01*
X34194Y22100D01*
X34153Y22198D01*
X34089Y22281D01*
X34006Y22345D01*
X33908Y22386D01*
X33804Y22400D01*
D02*
G37*
G36*
X32000Y22323D02*
X31916Y22312D01*
X31839Y22280D01*
X31772Y22228D01*
X31720Y22161D01*
X31688Y22084D01*
X31650Y22024D01*
X31564Y22007D01*
X31491Y21959D01*
X31443Y21886D01*
X31426Y21800D01*
X31443Y21714D01*
X31491Y21641D01*
X31564Y21593D01*
X31650Y21576D01*
X31736Y21593D01*
X31809Y21641D01*
X31853Y21708D01*
X31858Y21713D01*
X31916Y21688D01*
X32000Y21677D01*
X32084Y21688D01*
X32161Y21720D01*
X32228Y21772D01*
X32280Y21839D01*
X32312Y21916D01*
X32323Y22000D01*
X32312Y22084D01*
X32280Y22161D01*
X32228Y22228D01*
X32161Y22280D01*
X32084Y22312D01*
X32000Y22323D01*
D02*
G37*
G36*
X33804Y21369D02*
X33204D01*
X33107Y21357D01*
X33017Y21319D01*
X32940Y21260D01*
X32881Y21183D01*
X32843Y21093D01*
X32831Y20996D01*
X32843Y20899D01*
X32881Y20809D01*
X32940Y20732D01*
X33017Y20673D01*
X33107Y20636D01*
X33204Y20623D01*
X33804D01*
X33901Y20636D01*
X33991Y20673D01*
X34068Y20732D01*
X34127Y20809D01*
X34164Y20899D01*
X34177Y20996D01*
X34164Y21093D01*
X34127Y21183D01*
X34068Y21260D01*
X33991Y21319D01*
X33901Y21357D01*
X33804Y21369D01*
D02*
G37*
G36*
X33454Y25510D02*
X33204D01*
X33100Y25496D01*
X33002Y25456D01*
X32919Y25392D01*
X32855Y25308D01*
X32814Y25211D01*
X32807Y25156D01*
X33454D01*
Y25510D01*
D02*
G37*
G36*
Y25056D02*
X32807D01*
X32814Y25002D01*
X32855Y24905D01*
X32919Y24821D01*
X33002Y24757D01*
X33100Y24717D01*
X33204Y24703D01*
X33454D01*
Y25056D01*
D02*
G37*
G36*
X34201D02*
X33554D01*
Y24703D01*
X33804D01*
X33908Y24717D01*
X34006Y24757D01*
X34089Y24821D01*
X34153Y24905D01*
X34194Y25002D01*
X34201Y25056D01*
D02*
G37*
G36*
X33804Y25510D02*
X33554D01*
Y25156D01*
X34201D01*
X34194Y25211D01*
X34153Y25308D01*
X34089Y25392D01*
X34006Y25456D01*
X33908Y25496D01*
X33804Y25510D01*
D02*
G37*
G36*
X35059Y26317D02*
X34969Y26299D01*
X34893Y26249D01*
X34842Y26172D01*
X34825Y26083D01*
X34842Y25993D01*
X34893Y25917D01*
X34969Y25866D01*
X35059Y25848D01*
X35149Y25866D01*
X35225Y25917D01*
X35276Y25993D01*
X35294Y26083D01*
X35276Y26172D01*
X35225Y26249D01*
X35149Y26299D01*
X35059Y26317D01*
D02*
G37*
G36*
X31496Y23138D02*
X31410Y23121D01*
X31337Y23072D01*
X31289Y22999D01*
X31272Y22913D01*
X31289Y22828D01*
X31337Y22755D01*
X31410Y22706D01*
X31496Y22689D01*
X31582Y22706D01*
X31655Y22755D01*
X31703Y22828D01*
X31720Y22913D01*
X31703Y22999D01*
X31655Y23072D01*
X31582Y23121D01*
X31496Y23138D01*
D02*
G37*
G36*
X32000Y24624D02*
X31914Y24607D01*
X31841Y24559D01*
X31793Y24486D01*
X31776Y24400D01*
X31793Y24314D01*
X31824Y24268D01*
X31772Y24228D01*
X31720Y24161D01*
X31688Y24084D01*
X31677Y24000D01*
X31688Y23916D01*
X31720Y23839D01*
X31772Y23772D01*
X31839Y23720D01*
X31916Y23688D01*
X32000Y23677D01*
X32084Y23688D01*
X32161Y23720D01*
X32228Y23772D01*
X32280Y23839D01*
X32312Y23916D01*
X32323Y24000D01*
X32312Y24084D01*
X32280Y24161D01*
X32228Y24228D01*
X32176Y24268D01*
X32207Y24314D01*
X32224Y24400D01*
X32207Y24486D01*
X32159Y24559D01*
X32086Y24607D01*
X32000Y24624D01*
D02*
G37*
G36*
X33804Y24479D02*
X33204D01*
X33107Y24467D01*
X33017Y24429D01*
X32940Y24370D01*
X32881Y24293D01*
X32843Y24203D01*
X32831Y24106D01*
X32843Y24010D01*
X32881Y23920D01*
X32940Y23842D01*
X33017Y23783D01*
X33107Y23746D01*
X33204Y23733D01*
X33804D01*
X33901Y23746D01*
X33991Y23783D01*
X34068Y23842D01*
X34127Y23920D01*
X34164Y24010D01*
X34177Y24106D01*
X34164Y24203D01*
X34127Y24293D01*
X34068Y24370D01*
X33991Y24429D01*
X33901Y24467D01*
X33804Y24479D01*
D02*
G37*
G36*
X30789Y29239D02*
X30703Y29221D01*
X30630Y29173D01*
X30582Y29100D01*
X30565Y29014D01*
X30582Y28928D01*
X30630Y28856D01*
X30703Y28807D01*
X30789Y28790D01*
X30875Y28807D01*
X30948Y28856D01*
X30996Y28928D01*
X31013Y29014D01*
X30996Y29100D01*
X30948Y29173D01*
X30875Y29221D01*
X30789Y29239D01*
D02*
G37*
G36*
X32402Y28413D02*
X32316Y28396D01*
X32243Y28348D01*
X32194Y28275D01*
X32177Y28189D01*
X32194Y28103D01*
X32243Y28030D01*
X32316Y27982D01*
X32402Y27965D01*
X32487Y27982D01*
X32560Y28030D01*
X32609Y28103D01*
X32626Y28189D01*
X32609Y28275D01*
X32560Y28348D01*
X32487Y28396D01*
X32402Y28413D01*
D02*
G37*
G36*
X31240Y27911D02*
X31154Y27894D01*
X31082Y27846D01*
X31033Y27773D01*
X31016Y27687D01*
X31033Y27601D01*
X31082Y27528D01*
X31128Y27497D01*
Y27461D01*
X31128Y27461D01*
X31137Y27418D01*
X31161Y27381D01*
X31226Y27316D01*
Y25229D01*
X31180Y25198D01*
X31131Y25125D01*
X31114Y25039D01*
X31131Y24954D01*
X31180Y24881D01*
X31253Y24832D01*
X31339Y24815D01*
X31424Y24832D01*
X31497Y24881D01*
X31546Y24954D01*
X31563Y25039D01*
X31546Y25125D01*
X31497Y25198D01*
X31451Y25229D01*
Y26583D01*
X31531Y26607D01*
X31541Y26591D01*
X31614Y26543D01*
X31700Y26526D01*
X31786Y26543D01*
X31859Y26591D01*
X31907Y26664D01*
X31911Y26686D01*
X31916Y26688D01*
X32000Y26677D01*
X32084Y26688D01*
X32161Y26720D01*
X32228Y26772D01*
X32280Y26839D01*
X32312Y26916D01*
X32323Y27000D01*
X32312Y27084D01*
X32280Y27161D01*
X32228Y27228D01*
X32161Y27280D01*
X32084Y27312D01*
X32000Y27323D01*
X31916Y27312D01*
X31839Y27280D01*
X31772Y27228D01*
X31720Y27161D01*
X31688Y27084D01*
X31677Y27000D01*
X31680Y26976D01*
X31674Y26969D01*
X31614Y26957D01*
X31541Y26909D01*
X31531Y26893D01*
X31451Y26917D01*
Y27362D01*
X31442Y27405D01*
X31418Y27442D01*
X31418Y27442D01*
X31393Y27467D01*
X31399Y27528D01*
X31447Y27601D01*
X31464Y27687D01*
X31447Y27773D01*
X31399Y27846D01*
X31326Y27894D01*
X31240Y27911D01*
D02*
G37*
G36*
X33804Y27590D02*
X33204D01*
X33107Y27577D01*
X33017Y27540D01*
X32940Y27480D01*
X32881Y27403D01*
X32843Y27313D01*
X32831Y27217D01*
X32843Y27120D01*
X32881Y27030D01*
X32940Y26953D01*
X33017Y26893D01*
X33107Y26856D01*
X33204Y26843D01*
X33804D01*
X33901Y26856D01*
X33991Y26893D01*
X34068Y26953D01*
X34127Y27030D01*
X34164Y27120D01*
X34177Y27217D01*
X34164Y27313D01*
X34127Y27403D01*
X34068Y27480D01*
X33991Y27540D01*
X33901Y27577D01*
X33804Y27590D01*
D02*
G37*
G36*
X34201Y28167D02*
X33554D01*
Y27813D01*
X33804D01*
X33908Y27827D01*
X34006Y27867D01*
X34089Y27931D01*
X34153Y28015D01*
X34194Y28112D01*
X34201Y28167D01*
D02*
G37*
G36*
X33454D02*
X32807D01*
X32814Y28112D01*
X32855Y28015D01*
X32919Y27931D01*
X33002Y27867D01*
X33100Y27827D01*
X33204Y27813D01*
X33454D01*
Y28167D01*
D02*
G37*
G36*
X47115Y15575D02*
X46490D01*
Y14923D01*
X46517Y14926D01*
X46658Y14969D01*
X46789Y15038D01*
X46903Y15132D01*
X46997Y15246D01*
X47066Y15377D01*
X47109Y15518D01*
X47115Y15575D01*
D02*
G37*
G36*
X46490Y16467D02*
Y15815D01*
X47115D01*
X47109Y15872D01*
X47066Y16013D01*
X46997Y16144D01*
X46903Y16258D01*
X46789Y16352D01*
X46658Y16421D01*
X46517Y16464D01*
X46490Y16467D01*
D02*
G37*
G36*
X46250Y15575D02*
X45625D01*
X45631Y15518D01*
X45674Y15377D01*
X45743Y15246D01*
X45837Y15132D01*
X45951Y15038D01*
X46082Y14969D01*
X46223Y14926D01*
X46250Y14923D01*
Y15575D01*
D02*
G37*
G36*
X30000Y23325D02*
X29914Y23308D01*
X29841Y23259D01*
X29793Y23186D01*
X29776Y23100D01*
X29793Y23015D01*
X29841Y22942D01*
X29914Y22893D01*
X30000Y22876D01*
X30086Y22893D01*
X30112Y22911D01*
X30184Y22863D01*
X30176Y22820D01*
X30193Y22734D01*
X30241Y22661D01*
X30314Y22613D01*
X30400Y22596D01*
X30486Y22613D01*
X30559Y22661D01*
X30607Y22734D01*
X30624Y22820D01*
X30607Y22906D01*
X30559Y22979D01*
X30486Y23027D01*
X30400Y23044D01*
X30314Y23027D01*
X30288Y23010D01*
X30216Y23058D01*
X30224Y23100D01*
X30207Y23186D01*
X30159Y23259D01*
X30086Y23308D01*
X30000Y23325D01*
D02*
G37*
G36*
X40130Y12019D02*
X39992D01*
X39735Y11761D01*
Y11374D01*
X40130D01*
Y12019D01*
D02*
G37*
G36*
X41847D02*
X41710D01*
Y11374D01*
X42105D01*
Y11761D01*
X41847Y12019D01*
D02*
G37*
G36*
X41470D02*
X41332D01*
X41075Y11761D01*
Y11374D01*
X41470D01*
Y12019D01*
D02*
G37*
G36*
X40507D02*
X40370D01*
Y11374D01*
X40765D01*
Y11761D01*
X40507Y12019D01*
D02*
G37*
G36*
X44370Y12015D02*
X44233D01*
X43975Y11758D01*
Y11370D01*
X44370D01*
Y12015D01*
D02*
G37*
G36*
X43408D02*
X43270D01*
Y11370D01*
X43665D01*
Y11758D01*
X43408Y12015D01*
D02*
G37*
G36*
X43030D02*
X42892D01*
X42635Y11758D01*
Y11370D01*
X43030D01*
Y12015D01*
D02*
G37*
G36*
X47087Y21945D02*
X46620D01*
Y21457D01*
X46658Y21469D01*
X46789Y21538D01*
X46903Y21632D01*
X46997Y21746D01*
X47066Y21877D01*
X47087Y21945D01*
D02*
G37*
G36*
X42950Y22145D02*
X42943D01*
X42685Y21888D01*
Y21630D01*
X42950D01*
Y22145D01*
D02*
G37*
G36*
X44290D02*
X44282D01*
X44025Y21888D01*
Y21630D01*
X44290D01*
Y22145D01*
D02*
G37*
G36*
X43457D02*
X43450D01*
Y21630D01*
X43715D01*
Y21888D01*
X43457Y22145D01*
D02*
G37*
G36*
X44798D02*
X44790D01*
Y21630D01*
X45055D01*
Y21888D01*
X44798Y22145D01*
D02*
G37*
G36*
X42950Y21130D02*
X42685D01*
Y20872D01*
X42943Y20615D01*
X42950D01*
Y21130D01*
D02*
G37*
G36*
X43715D02*
X43450D01*
Y20615D01*
X43457D01*
X43715Y20872D01*
Y21130D01*
D02*
G37*
G36*
X46120Y21945D02*
X45653D01*
X45674Y21877D01*
X45743Y21746D01*
X45837Y21632D01*
X45951Y21538D01*
X46082Y21469D01*
X46120Y21457D01*
Y21945D01*
D02*
G37*
G36*
X44290Y21130D02*
X44025D01*
Y20872D01*
X44282Y20615D01*
X44290D01*
Y21130D01*
D02*
G37*
G36*
X45055D02*
X44790D01*
Y20615D01*
X44798D01*
X45055Y20872D01*
Y21130D01*
D02*
G37*
G36*
X46120Y22933D02*
X46082Y22921D01*
X45951Y22852D01*
X45837Y22758D01*
X45743Y22644D01*
X45674Y22513D01*
X45653Y22445D01*
X46120D01*
Y22933D01*
D02*
G37*
G36*
X46620D02*
Y22445D01*
X47087D01*
X47066Y22513D01*
X46997Y22644D01*
X46903Y22758D01*
X46789Y22852D01*
X46658Y22921D01*
X46620Y22933D01*
D02*
G37*
G36*
X27853Y17276D02*
X27767Y17259D01*
X27694Y17210D01*
X27646Y17137D01*
X27629Y17052D01*
X27640Y16997D01*
X27505Y16862D01*
X25060D01*
X25041Y16891D01*
X24976Y16934D01*
X24900Y16949D01*
X24824Y16934D01*
X24759Y16891D01*
X24716Y16826D01*
X24701Y16750D01*
X24716Y16674D01*
X24759Y16609D01*
X24824Y16566D01*
X24900Y16551D01*
X24976Y16566D01*
X25041Y16609D01*
X25060Y16638D01*
X27551D01*
X27551Y16638D01*
X27594Y16646D01*
X27631Y16671D01*
X27798Y16838D01*
X27853Y16827D01*
X27939Y16844D01*
X28012Y16893D01*
X28060Y16966D01*
X28077Y17052D01*
X28060Y17137D01*
X28012Y17210D01*
X27939Y17259D01*
X27853Y17276D01*
D02*
G37*
G36*
X23790Y18279D02*
X23714Y18264D01*
X23649Y18221D01*
X23606Y18156D01*
X23591Y18080D01*
X23606Y18004D01*
X23649Y17939D01*
X23714Y17896D01*
X23790Y17881D01*
X23866Y17896D01*
X23931Y17939D01*
X23974Y18004D01*
X23989Y18080D01*
X23974Y18156D01*
X23931Y18221D01*
X23866Y18264D01*
X23790Y18279D01*
D02*
G37*
G36*
X21610Y18639D02*
X21534Y18624D01*
X21469Y18581D01*
X21426Y18516D01*
X21411Y18440D01*
X21426Y18364D01*
X21469Y18299D01*
X21494Y18283D01*
X21510Y18267D01*
X21519Y18263D01*
X21544Y18226D01*
X21556Y18164D01*
X21567Y18148D01*
X21544Y18104D01*
X20780D01*
X20706Y18089D01*
X20668Y18063D01*
X20640Y18069D01*
X20564Y18054D01*
X20499Y18011D01*
X20456Y17946D01*
X20441Y17870D01*
X20445Y17849D01*
X20401Y17805D01*
X20379Y17791D01*
X20336Y17726D01*
X20321Y17650D01*
X20336Y17574D01*
X20379Y17509D01*
X20444Y17466D01*
X20520Y17451D01*
X20596Y17466D01*
X20661Y17509D01*
X20675Y17531D01*
X20860Y17716D01*
X22430D01*
X23081Y17065D01*
Y16515D01*
X23096Y16441D01*
X23138Y16378D01*
X24188Y15328D01*
X24251Y15286D01*
X24325Y15271D01*
X25829D01*
X25854Y15276D01*
X26420D01*
X26563Y15133D01*
X26626Y15091D01*
X26700Y15076D01*
X26774Y15091D01*
X26837Y15133D01*
X26879Y15196D01*
X26894Y15270D01*
X26888Y15297D01*
X26889Y15300D01*
X26874Y15376D01*
X26831Y15441D01*
X26766Y15484D01*
X26759Y15485D01*
X26684Y15560D01*
X26703Y15606D01*
X26870D01*
X26944Y15621D01*
X26950Y15625D01*
X26956Y15626D01*
X27021Y15669D01*
X27064Y15734D01*
X27079Y15810D01*
X27064Y15886D01*
X27021Y15951D01*
X26956Y15994D01*
X26880Y16009D01*
X26804Y15994D01*
X26726D01*
X26650Y16009D01*
X26574Y15994D01*
X25725D01*
X25651Y15979D01*
X25636Y15969D01*
X24605D01*
X23784Y16790D01*
Y17310D01*
X23769Y17384D01*
X23727Y17447D01*
X22727Y18447D01*
X22664Y18489D01*
X22590Y18504D01*
X21824D01*
X21797Y18498D01*
X21794Y18516D01*
X21751Y18581D01*
X21686Y18624D01*
X21610Y18639D01*
D02*
G37*
G36*
X31800Y19079D02*
X31724Y19064D01*
X31659Y19021D01*
X31649Y19011D01*
X31606Y18946D01*
X31591Y18870D01*
Y18820D01*
X31601Y18770D01*
Y18690D01*
X31591Y18640D01*
X31601Y18590D01*
X31600Y18585D01*
X31566Y18545D01*
X31563Y18543D01*
X31558Y18544D01*
X31521Y18601D01*
X31456Y18644D01*
X31380Y18659D01*
X31304Y18644D01*
X31239Y18601D01*
X31196Y18536D01*
X31181Y18460D01*
X31186Y18434D01*
Y18390D01*
X31181Y18385D01*
X31159Y18371D01*
X31116Y18306D01*
X31101Y18230D01*
X31116Y18154D01*
X31120Y18148D01*
X31097Y18104D01*
X30300D01*
X30226Y18089D01*
X30163Y18047D01*
X30141Y18025D01*
X30119Y18011D01*
X30105Y17989D01*
X30001Y17885D01*
X29979Y17870D01*
X29936Y17806D01*
X29921Y17729D01*
X29936Y17653D01*
X29979Y17589D01*
X30043Y17546D01*
X30119Y17531D01*
X30196Y17546D01*
X30260Y17589D01*
X30275Y17611D01*
X30379Y17715D01*
X30381Y17716D01*
X32070D01*
X32721Y17065D01*
Y16715D01*
X32578Y16572D01*
X32536Y16509D01*
X32521Y16435D01*
Y14821D01*
X32471Y14795D01*
X32457Y14804D01*
X32381Y14819D01*
X32304Y14804D01*
X32240Y14761D01*
X32197Y14697D01*
X32182Y14621D01*
X32186Y14602D01*
X32114Y14587D01*
X32049Y14544D01*
X32006Y14480D01*
X31991Y14404D01*
X32006Y14328D01*
X32049Y14263D01*
X32114Y14220D01*
X32130Y14217D01*
X32145Y14169D01*
X31941Y13965D01*
X31937Y13969D01*
X31902Y13997D01*
X31906Y14002D01*
X31934Y14044D01*
X31949Y14120D01*
X31944Y14146D01*
Y14314D01*
X31949Y14340D01*
X31934Y14416D01*
X31891Y14481D01*
X31826Y14524D01*
X31750Y14539D01*
X31674Y14524D01*
X31609Y14481D01*
X31566Y14416D01*
X31551Y14340D01*
X31556Y14314D01*
Y14200D01*
X31070Y13714D01*
X30520D01*
X30446Y13699D01*
X30383Y13657D01*
X30043Y13317D01*
X30000Y13323D01*
X29916Y13312D01*
X29839Y13280D01*
X29772Y13228D01*
X29720Y13161D01*
X29688Y13084D01*
X29677Y13000D01*
X29688Y12916D01*
X29720Y12839D01*
X29772Y12772D01*
X29839Y12720D01*
X29916Y12688D01*
X30000Y12677D01*
X30070Y12686D01*
X30205Y12551D01*
X30239Y12499D01*
X30291Y12465D01*
X30395Y12361D01*
X30409Y12339D01*
X30474Y12296D01*
X30550Y12281D01*
X30626Y12296D01*
X30691Y12339D01*
X30734Y12404D01*
X30749Y12480D01*
X30734Y12556D01*
X30691Y12621D01*
X30669Y12635D01*
X30321Y12983D01*
X30323Y13000D01*
X30317Y13043D01*
X30600Y13326D01*
X30800D01*
X30807Y13317D01*
X30799Y13249D01*
X30772Y13228D01*
X30720Y13161D01*
X30688Y13084D01*
X30677Y13000D01*
X30688Y12916D01*
X30720Y12839D01*
X30772Y12772D01*
X30839Y12720D01*
X30916Y12688D01*
X30930Y12687D01*
X31198Y12418D01*
X31203Y12394D01*
X31251Y12321D01*
X31324Y12273D01*
X31348Y12268D01*
X31485Y12131D01*
X31499Y12109D01*
X31564Y12066D01*
X31640Y12051D01*
X31716Y12066D01*
X31781Y12109D01*
X31824Y12174D01*
X31839Y12250D01*
X31824Y12326D01*
X31781Y12391D01*
X31759Y12405D01*
X31622Y12542D01*
X31617Y12566D01*
X31569Y12639D01*
X31496Y12687D01*
X31472Y12692D01*
X31363Y12801D01*
X31368Y12850D01*
X31387Y12863D01*
X31653Y13129D01*
X31695Y13101D01*
X31688Y13084D01*
X31677Y13000D01*
X31688Y12916D01*
X31720Y12839D01*
X31772Y12772D01*
X31839Y12720D01*
X31916Y12688D01*
X32000Y12677D01*
X32084Y12688D01*
X32161Y12720D01*
X32228Y12772D01*
X32256Y12808D01*
X32306Y12791D01*
Y12620D01*
X32317Y12566D01*
X32316Y12560D01*
X32333Y12474D01*
X32381Y12401D01*
X32454Y12353D01*
X32503Y12343D01*
X32600Y12246D01*
X32614Y12224D01*
X32679Y12181D01*
X32755Y12166D01*
X32831Y12181D01*
X32896Y12224D01*
X32939Y12289D01*
X32954Y12365D01*
X32939Y12441D01*
X32896Y12506D01*
X32874Y12520D01*
X32745Y12649D01*
X32699Y12719D01*
X32694Y12722D01*
Y13200D01*
X33197Y13703D01*
X33239Y13766D01*
X33254Y13840D01*
Y16240D01*
X33367Y16353D01*
X33409Y16416D01*
X33424Y16490D01*
Y17310D01*
X33409Y17384D01*
X33367Y17447D01*
X32367Y18447D01*
X32304Y18489D01*
X32230Y18504D01*
X31997D01*
X31970Y18554D01*
X31984Y18574D01*
X31999Y18650D01*
Y18880D01*
X31984Y18956D01*
X31941Y19021D01*
X31876Y19064D01*
X31800Y19079D01*
D02*
G37*
G36*
X30130Y17387D02*
X30089Y17379D01*
X30054Y17356D01*
X30031Y17321D01*
X30023Y17280D01*
X30031Y17239D01*
X30054Y17204D01*
X30064Y17194D01*
X30099Y17171D01*
X30140Y17163D01*
X30181Y17171D01*
X30216Y17194D01*
X30239Y17229D01*
X30247Y17270D01*
X30239Y17311D01*
X30216Y17346D01*
X30206Y17356D01*
X30171Y17379D01*
X30130Y17387D01*
D02*
G37*
G36*
X20490D02*
X20449Y17379D01*
X20414Y17356D01*
X20391Y17321D01*
X20383Y17280D01*
X20391Y17239D01*
X20414Y17204D01*
X20424Y17194D01*
X20459Y17171D01*
X20500Y17163D01*
X20541Y17171D01*
X20576Y17194D01*
X20599Y17229D01*
X20607Y17270D01*
X20599Y17311D01*
X20576Y17346D01*
X20566Y17356D01*
X20531Y17379D01*
X20490Y17387D01*
D02*
G37*
G36*
X15990D02*
X15949Y17379D01*
X15914Y17356D01*
X15891Y17321D01*
X15883Y17280D01*
X15891Y17239D01*
X15914Y17204D01*
X15924Y17194D01*
X15959Y17171D01*
X16000Y17163D01*
X16041Y17171D01*
X16076Y17194D01*
X16099Y17229D01*
X16107Y17270D01*
X16099Y17311D01*
X16076Y17346D01*
X16066Y17356D01*
X16031Y17379D01*
X15990Y17387D01*
D02*
G37*
G36*
X29000Y13323D02*
X28916Y13312D01*
X28839Y13280D01*
X28772Y13228D01*
X28720Y13161D01*
X28688Y13084D01*
X28677Y13000D01*
X28688Y12916D01*
X28720Y12839D01*
X28772Y12772D01*
X28839Y12720D01*
X28888Y12700D01*
Y12390D01*
X28888Y12390D01*
X28896Y12347D01*
X28921Y12311D01*
X29017Y12215D01*
X29006Y12160D01*
X29023Y12074D01*
X29071Y12001D01*
X29144Y11953D01*
X29230Y11936D01*
X29316Y11953D01*
X29389Y12001D01*
X29437Y12074D01*
X29454Y12160D01*
X29437Y12246D01*
X29389Y12319D01*
X29316Y12367D01*
X29230Y12384D01*
X29175Y12373D01*
X29112Y12436D01*
Y12700D01*
X29161Y12720D01*
X29228Y12772D01*
X29280Y12839D01*
X29312Y12916D01*
X29323Y13000D01*
X29312Y13084D01*
X29280Y13161D01*
X29228Y13228D01*
X29161Y13280D01*
X29084Y13312D01*
X29000Y13323D01*
D02*
G37*
G36*
X24878Y12091D02*
X24781Y12078D01*
X24691Y12041D01*
X24614Y11981D01*
X24555Y11904D01*
X24517Y11814D01*
X24505Y11717D01*
Y11117D01*
X24517Y11021D01*
X24555Y10931D01*
X24614Y10853D01*
X24691Y10794D01*
X24781Y10757D01*
X24878Y10744D01*
X24975Y10757D01*
X25065Y10794D01*
X25142Y10853D01*
X25201Y10931D01*
X25238Y11021D01*
X25251Y11117D01*
Y11717D01*
X25238Y11814D01*
X25201Y11904D01*
X25142Y11981D01*
X25065Y12041D01*
X24975Y12078D01*
X24878Y12091D01*
D02*
G37*
G36*
X25878D02*
X25781Y12078D01*
X25691Y12041D01*
X25614Y11981D01*
X25555Y11904D01*
X25517Y11814D01*
X25505Y11717D01*
Y11117D01*
X25517Y11021D01*
X25555Y10931D01*
X25614Y10853D01*
X25691Y10794D01*
X25781Y10757D01*
X25878Y10744D01*
X25975Y10757D01*
X26065Y10794D01*
X26142Y10853D01*
X26201Y10931D01*
X26238Y11021D01*
X26251Y11117D01*
Y11717D01*
X26238Y11814D01*
X26201Y11904D01*
X26142Y11981D01*
X26065Y12041D01*
X25975Y12078D01*
X25878Y12091D01*
D02*
G37*
G36*
X22760D02*
X22663Y12078D01*
X22573Y12041D01*
X22496Y11981D01*
X22437Y11904D01*
X22399Y11814D01*
X22387Y11717D01*
Y11117D01*
X22399Y11021D01*
X22437Y10931D01*
X22496Y10853D01*
X22573Y10794D01*
X22663Y10757D01*
X22760Y10744D01*
X22856Y10757D01*
X22946Y10794D01*
X23024Y10853D01*
X23083Y10931D01*
X23120Y11021D01*
X23133Y11117D01*
Y11717D01*
X23120Y11814D01*
X23083Y11904D01*
X23024Y11981D01*
X22946Y12041D01*
X22856Y12078D01*
X22760Y12091D01*
D02*
G37*
G36*
X20760D02*
X20663Y12078D01*
X20573Y12041D01*
X20496Y11981D01*
X20437Y11904D01*
X20399Y11814D01*
X20387Y11717D01*
Y11117D01*
X20399Y11021D01*
X20437Y10931D01*
X20496Y10853D01*
X20573Y10794D01*
X20663Y10757D01*
X20760Y10744D01*
X20856Y10757D01*
X20946Y10794D01*
X21024Y10853D01*
X21083Y10931D01*
X21120Y11021D01*
X21133Y11117D01*
Y11717D01*
X21120Y11814D01*
X21083Y11904D01*
X21024Y11981D01*
X20946Y12041D01*
X20856Y12078D01*
X20760Y12091D01*
D02*
G37*
G36*
X21760D02*
X21663Y12078D01*
X21573Y12041D01*
X21496Y11981D01*
X21437Y11904D01*
X21399Y11814D01*
X21387Y11717D01*
Y11117D01*
X21399Y11021D01*
X21437Y10931D01*
X21496Y10853D01*
X21573Y10794D01*
X21663Y10757D01*
X21760Y10744D01*
X21856Y10757D01*
X21946Y10794D01*
X22024Y10853D01*
X22083Y10931D01*
X22120Y11021D01*
X22133Y11117D01*
Y11717D01*
X22120Y11814D01*
X22083Y11904D01*
X22024Y11981D01*
X21946Y12041D01*
X21856Y12078D01*
X21760Y12091D01*
D02*
G37*
G36*
X26878D02*
X26781Y12078D01*
X26691Y12041D01*
X26614Y11981D01*
X26555Y11904D01*
X26517Y11814D01*
X26505Y11717D01*
Y11117D01*
X26517Y11021D01*
X26555Y10931D01*
X26614Y10853D01*
X26691Y10794D01*
X26781Y10757D01*
X26878Y10744D01*
X26975Y10757D01*
X27065Y10794D01*
X27142Y10853D01*
X27201Y10931D01*
X27238Y11021D01*
X27251Y11117D01*
Y11717D01*
X27238Y11814D01*
X27201Y11904D01*
X27142Y11981D01*
X27065Y12041D01*
X26975Y12078D01*
X26878Y12091D01*
D02*
G37*
G36*
X32000Y12094D02*
X31903Y12082D01*
X31813Y12044D01*
X31736Y11985D01*
X31677Y11908D01*
X31640Y11818D01*
X31627Y11721D01*
Y11121D01*
X31640Y11025D01*
X31677Y10935D01*
X31736Y10857D01*
X31813Y10798D01*
X31903Y10761D01*
X32000Y10748D01*
X32097Y10761D01*
X32187Y10798D01*
X32264Y10857D01*
X32323Y10935D01*
X32360Y11025D01*
X32373Y11121D01*
Y11721D01*
X32360Y11818D01*
X32323Y11908D01*
X32264Y11985D01*
X32187Y12044D01*
X32097Y12082D01*
X32000Y12094D01*
D02*
G37*
G36*
X33000D02*
X32903Y12082D01*
X32813Y12044D01*
X32736Y11985D01*
X32677Y11908D01*
X32640Y11818D01*
X32627Y11721D01*
Y11121D01*
X32640Y11025D01*
X32677Y10935D01*
X32736Y10857D01*
X32813Y10798D01*
X32903Y10761D01*
X33000Y10748D01*
X33097Y10761D01*
X33187Y10798D01*
X33264Y10857D01*
X33323Y10935D01*
X33360Y11025D01*
X33373Y11121D01*
Y11721D01*
X33360Y11818D01*
X33323Y11908D01*
X33264Y11985D01*
X33187Y12044D01*
X33097Y12082D01*
X33000Y12094D01*
D02*
G37*
G36*
X31000D02*
X30903Y12082D01*
X30813Y12044D01*
X30736Y11985D01*
X30677Y11908D01*
X30640Y11818D01*
X30627Y11721D01*
Y11121D01*
X30640Y11025D01*
X30677Y10935D01*
X30736Y10857D01*
X30813Y10798D01*
X30903Y10761D01*
X31000Y10748D01*
X31097Y10761D01*
X31187Y10798D01*
X31264Y10857D01*
X31323Y10935D01*
X31360Y11025D01*
X31373Y11121D01*
Y11721D01*
X31360Y11818D01*
X31323Y11908D01*
X31264Y11985D01*
X31187Y12044D01*
X31097Y12082D01*
X31000Y12094D01*
D02*
G37*
G36*
X27878Y12091D02*
X27781Y12078D01*
X27691Y12041D01*
X27614Y11981D01*
X27555Y11904D01*
X27517Y11814D01*
X27505Y11717D01*
Y11117D01*
X27517Y11021D01*
X27555Y10931D01*
X27614Y10853D01*
X27691Y10794D01*
X27781Y10757D01*
X27878Y10744D01*
X27975Y10757D01*
X28065Y10794D01*
X28142Y10853D01*
X28201Y10931D01*
X28238Y11021D01*
X28251Y11117D01*
Y11717D01*
X28238Y11814D01*
X28201Y11904D01*
X28142Y11981D01*
X28065Y12041D01*
X27975Y12078D01*
X27878Y12091D01*
D02*
G37*
G36*
X30000Y12094D02*
X29903Y12082D01*
X29813Y12044D01*
X29736Y11985D01*
X29677Y11908D01*
X29640Y11818D01*
X29627Y11721D01*
Y11121D01*
X29640Y11025D01*
X29677Y10935D01*
X29736Y10857D01*
X29813Y10798D01*
X29903Y10761D01*
X30000Y10748D01*
X30097Y10761D01*
X30187Y10798D01*
X30264Y10857D01*
X30323Y10935D01*
X30360Y11025D01*
X30373Y11121D01*
Y11721D01*
X30360Y11818D01*
X30323Y11908D01*
X30264Y11985D01*
X30187Y12044D01*
X30097Y12082D01*
X30000Y12094D01*
D02*
G37*
G36*
X27878Y14846D02*
X27781Y14834D01*
X27691Y14796D01*
X27614Y14737D01*
X27555Y14660D01*
X27517Y14570D01*
X27505Y14473D01*
Y13873D01*
X27517Y13777D01*
X27555Y13687D01*
X27614Y13609D01*
X27691Y13550D01*
X27758Y13522D01*
Y13430D01*
X27758Y13430D01*
X27766Y13387D01*
X27791Y13351D01*
X27819Y13322D01*
X27812Y13259D01*
X27772Y13228D01*
X27720Y13161D01*
X27688Y13084D01*
X27677Y13000D01*
X27688Y12916D01*
X27720Y12839D01*
X27772Y12772D01*
X27839Y12720D01*
X27916Y12688D01*
X28000Y12677D01*
X28084Y12688D01*
X28161Y12720D01*
X28228Y12772D01*
X28280Y12839D01*
X28312Y12916D01*
X28323Y13000D01*
X28312Y13084D01*
X28280Y13161D01*
X28228Y13228D01*
X28161Y13280D01*
X28112Y13300D01*
Y13300D01*
X28112Y13300D01*
X28104Y13343D01*
X28079Y13379D01*
X28079Y13379D01*
X27989Y13470D01*
X27995Y13521D01*
X28065Y13550D01*
X28142Y13609D01*
X28201Y13687D01*
X28238Y13777D01*
X28251Y13873D01*
Y14473D01*
X28238Y14570D01*
X28201Y14660D01*
X28142Y14737D01*
X28065Y14796D01*
X27975Y14834D01*
X27878Y14846D01*
D02*
G37*
G36*
X26878D02*
X26781Y14834D01*
X26691Y14796D01*
X26614Y14737D01*
X26555Y14660D01*
X26517Y14570D01*
X26505Y14473D01*
Y13873D01*
X26517Y13777D01*
X26555Y13687D01*
X26614Y13609D01*
X26691Y13550D01*
X26766Y13519D01*
Y13432D01*
X26766Y13432D01*
X26774Y13389D01*
X26799Y13353D01*
X26827Y13324D01*
X26817Y13263D01*
X26772Y13228D01*
X26720Y13161D01*
X26688Y13084D01*
X26677Y13000D01*
X26688Y12916D01*
X26720Y12839D01*
X26772Y12772D01*
X26839Y12720D01*
X26916Y12688D01*
X27000Y12677D01*
X27084Y12688D01*
X27161Y12720D01*
X27228Y12772D01*
X27280Y12839D01*
X27312Y12916D01*
X27323Y13000D01*
X27312Y13084D01*
X27280Y13161D01*
X27228Y13228D01*
X27161Y13280D01*
X27112Y13300D01*
Y13310D01*
X27112Y13310D01*
X27104Y13353D01*
X27079Y13389D01*
X27079Y13389D01*
X26996Y13473D01*
X27001Y13524D01*
X27065Y13550D01*
X27142Y13609D01*
X27201Y13687D01*
X27238Y13777D01*
X27251Y13873D01*
Y14473D01*
X27238Y14570D01*
X27201Y14660D01*
X27142Y14737D01*
X27065Y14796D01*
X26975Y14834D01*
X26878Y14846D01*
D02*
G37*
G36*
X35160Y13012D02*
X35074Y12994D01*
X35001Y12946D01*
X34953Y12873D01*
X34936Y12787D01*
X34953Y12701D01*
X35001Y12629D01*
X35074Y12580D01*
X35160Y12563D01*
X35246Y12580D01*
X35319Y12629D01*
X35367Y12701D01*
X35384Y12787D01*
X35367Y12873D01*
X35319Y12946D01*
X35246Y12994D01*
X35160Y13012D01*
D02*
G37*
G36*
X25878Y14846D02*
X25781Y14834D01*
X25691Y14796D01*
X25614Y14737D01*
X25555Y14660D01*
X25517Y14570D01*
X25505Y14473D01*
Y13873D01*
X25517Y13777D01*
X25555Y13687D01*
X25614Y13609D01*
X25691Y13550D01*
X25766Y13519D01*
Y13442D01*
X25766Y13442D01*
X25774Y13399D01*
X25799Y13363D01*
X25835Y13326D01*
X25823Y13268D01*
X25772Y13228D01*
X25720Y13161D01*
X25688Y13084D01*
X25677Y13000D01*
X25688Y12916D01*
X25720Y12839D01*
X25772Y12772D01*
X25839Y12720D01*
X25916Y12688D01*
X26000Y12677D01*
X26084Y12688D01*
X26161Y12720D01*
X26228Y12772D01*
X26280Y12839D01*
X26312Y12916D01*
X26323Y13000D01*
X26312Y13084D01*
X26280Y13161D01*
X26228Y13228D01*
X26161Y13280D01*
X26112Y13300D01*
Y13320D01*
X26112Y13320D01*
X26104Y13363D01*
X26079Y13399D01*
X26079Y13399D01*
X26006Y13473D01*
X26013Y13529D01*
X26065Y13550D01*
X26142Y13609D01*
X26201Y13687D01*
X26238Y13777D01*
X26251Y13873D01*
Y14473D01*
X26238Y14570D01*
X26201Y14660D01*
X26142Y14737D01*
X26065Y14796D01*
X25975Y14834D01*
X25878Y14846D01*
D02*
G37*
G36*
X17740Y14579D02*
X17664Y14564D01*
X17599Y14521D01*
X17556Y14456D01*
X17541Y14380D01*
X17556Y14304D01*
X17599Y14239D01*
X17664Y14196D01*
X17740Y14181D01*
X17816Y14196D01*
X17881Y14239D01*
X17924Y14304D01*
X17939Y14380D01*
X17924Y14456D01*
X17881Y14521D01*
X17816Y14564D01*
X17740Y14579D01*
D02*
G37*
G36*
X22800Y14879D02*
X22724Y14864D01*
X22659Y14821D01*
X22616Y14756D01*
X22601Y14680D01*
X22609Y14642D01*
X22566Y14599D01*
X22550Y14603D01*
X22474Y14587D01*
X22409Y14544D01*
X22366Y14480D01*
X22351Y14404D01*
X22366Y14328D01*
X22409Y14263D01*
X22474Y14220D01*
X22550Y14205D01*
X22626Y14220D01*
X22691Y14263D01*
X22734Y14328D01*
X22749Y14404D01*
X22741Y14442D01*
X22784Y14484D01*
X22800Y14481D01*
X22876Y14496D01*
X22941Y14539D01*
X22984Y14604D01*
X22999Y14680D01*
X22984Y14756D01*
X22941Y14821D01*
X22876Y14864D01*
X22800Y14879D01*
D02*
G37*
G36*
X35170Y14112D02*
X35084Y14094D01*
X35011Y14046D01*
X34963Y13973D01*
X34946Y13887D01*
X34963Y13801D01*
X35011Y13729D01*
X35084Y13680D01*
X35170Y13663D01*
X35256Y13680D01*
X35329Y13729D01*
X35377Y13801D01*
X35394Y13887D01*
X35377Y13973D01*
X35329Y14046D01*
X35256Y14094D01*
X35170Y14112D01*
D02*
G37*
G36*
X35160Y13612D02*
X35074Y13594D01*
X35001Y13546D01*
X34953Y13473D01*
X34936Y13387D01*
X34953Y13301D01*
X35001Y13229D01*
X35074Y13180D01*
X35160Y13163D01*
X35246Y13180D01*
X35319Y13229D01*
X35367Y13301D01*
X35384Y13387D01*
X35367Y13473D01*
X35319Y13546D01*
X35246Y13594D01*
X35160Y13612D01*
D02*
G37*
%LPD*%
G36*
X32866Y14247D02*
Y13920D01*
X32363Y13417D01*
X32321Y13354D01*
X32306Y13280D01*
Y13209D01*
X32256Y13192D01*
X32228Y13228D01*
X32161Y13280D01*
X32084Y13312D01*
X32000Y13323D01*
X31916Y13312D01*
X31899Y13305D01*
X31871Y13347D01*
X32778Y14254D01*
X32789Y14256D01*
X32816Y14274D01*
X32866Y14247D01*
D02*
G37*
%LPC*%
G36*
X44370Y16430D02*
X43975D01*
Y16042D01*
X44233Y15785D01*
X44370D01*
Y16430D01*
D02*
G37*
G36*
X43665D02*
X43270D01*
Y15785D01*
X43408D01*
X43665Y16042D01*
Y16430D01*
D02*
G37*
G36*
X43408Y17315D02*
X43270D01*
Y16670D01*
X43665D01*
Y17057D01*
X43408Y17315D01*
D02*
G37*
G36*
X37930Y11234D02*
X37844Y11217D01*
X37771Y11169D01*
X37723Y11096D01*
X37706Y11010D01*
X37723Y10924D01*
X37771Y10851D01*
X37844Y10803D01*
X37930Y10786D01*
X38016Y10803D01*
X38089Y10851D01*
X38137Y10924D01*
X38154Y11010D01*
X38137Y11096D01*
X38089Y11169D01*
X38016Y11217D01*
X37930Y11234D01*
D02*
G37*
G36*
X38950D02*
X38864Y11217D01*
X38791Y11169D01*
X38754Y11113D01*
X38727Y11107D01*
X38693D01*
X38666Y11113D01*
X38629Y11169D01*
X38556Y11217D01*
X38470Y11234D01*
X38384Y11217D01*
X38311Y11169D01*
X38263Y11096D01*
X38246Y11010D01*
X38263Y10924D01*
X38311Y10851D01*
X38384Y10803D01*
X38470Y10786D01*
X38556Y10803D01*
X38629Y10851D01*
X38666Y10907D01*
X38693Y10913D01*
X38727D01*
X38754Y10907D01*
X38791Y10851D01*
X38864Y10803D01*
X38950Y10786D01*
X39036Y10803D01*
X39109Y10851D01*
X39157Y10924D01*
X39174Y11010D01*
X39157Y11096D01*
X39109Y11169D01*
X39036Y11217D01*
X38950Y11234D01*
D02*
G37*
G36*
X38360Y12590D02*
X38064D01*
X38069Y12549D01*
X38104Y12463D01*
X38160Y12390D01*
X38233Y12334D01*
X38319Y12299D01*
X38360Y12294D01*
Y12590D01*
D02*
G37*
G36*
X37360Y12214D02*
X37274Y12197D01*
X37201Y12149D01*
X37153Y12076D01*
X37136Y11990D01*
X37153Y11904D01*
X37201Y11831D01*
X37249Y11799D01*
X37251Y11793D01*
Y11717D01*
X37249Y11711D01*
X37201Y11679D01*
X37153Y11606D01*
X37136Y11520D01*
X37153Y11434D01*
X37201Y11361D01*
X37274Y11313D01*
X37309Y11306D01*
Y11224D01*
X37274Y11217D01*
X37201Y11169D01*
X37153Y11096D01*
X37136Y11010D01*
X37153Y10924D01*
X37201Y10851D01*
X37274Y10803D01*
X37360Y10786D01*
X37446Y10803D01*
X37519Y10851D01*
X37567Y10924D01*
X37584Y11010D01*
X37567Y11096D01*
X37519Y11169D01*
X37446Y11217D01*
X37411Y11224D01*
Y11306D01*
X37446Y11313D01*
X37519Y11361D01*
X37567Y11434D01*
X37584Y11520D01*
X37567Y11606D01*
X37519Y11679D01*
X37471Y11711D01*
X37469Y11717D01*
Y11793D01*
X37471Y11799D01*
X37519Y11831D01*
X37567Y11904D01*
X37584Y11990D01*
X37567Y12076D01*
X37519Y12149D01*
X37446Y12197D01*
X37360Y12214D01*
D02*
G37*
G36*
X38756Y12590D02*
X38460D01*
Y12294D01*
X38501Y12299D01*
X38587Y12334D01*
X38660Y12390D01*
X38716Y12463D01*
X38751Y12549D01*
X38756Y12590D01*
D02*
G37*
G36*
X38360Y12986D02*
X38319Y12981D01*
X38233Y12946D01*
X38160Y12890D01*
X38104Y12817D01*
X38069Y12731D01*
X38064Y12690D01*
X38360D01*
Y12986D01*
D02*
G37*
G36*
X38460D02*
Y12690D01*
X38756D01*
X38751Y12731D01*
X38716Y12817D01*
X38660Y12890D01*
X38587Y12946D01*
X38501Y12981D01*
X38460Y12986D01*
D02*
G37*
G36*
X46120Y19683D02*
X46082Y19671D01*
X45951Y19602D01*
X45837Y19508D01*
X45743Y19394D01*
X45674Y19263D01*
X45631Y19122D01*
X45618Y18995D01*
X46120D01*
Y19683D01*
D02*
G37*
G36*
X46620D02*
Y19195D01*
X47087D01*
X47066Y19263D01*
X46997Y19394D01*
X46903Y19508D01*
X46789Y19602D01*
X46658Y19671D01*
X46620Y19683D01*
D02*
G37*
G36*
X14354Y34138D02*
X14258Y34125D01*
X14168Y34088D01*
X14090Y34028D01*
X14031Y33951D01*
X13994Y33861D01*
X13981Y33765D01*
Y33165D01*
X13994Y33068D01*
X14031Y32978D01*
X14090Y32901D01*
X14168Y32841D01*
X14258Y32804D01*
X14354Y32791D01*
X14451Y32804D01*
X14541Y32841D01*
X14618Y32901D01*
X14678Y32978D01*
X14715Y33068D01*
X14728Y33165D01*
Y33765D01*
X14715Y33861D01*
X14678Y33951D01*
X14618Y34028D01*
X14541Y34088D01*
X14451Y34125D01*
X14354Y34138D01*
D02*
G37*
G36*
X20488D02*
X20392Y34125D01*
X20302Y34088D01*
X20224Y34028D01*
X20165Y33951D01*
X20128Y33861D01*
X20115Y33765D01*
Y33165D01*
X20128Y33068D01*
X20165Y32978D01*
X20224Y32901D01*
X20302Y32841D01*
X20392Y32804D01*
X20488Y32791D01*
X20585Y32804D01*
X20675Y32841D01*
X20752Y32901D01*
X20811Y32978D01*
X20849Y33068D01*
X20861Y33165D01*
Y33765D01*
X20849Y33861D01*
X20811Y33951D01*
X20752Y34028D01*
X20675Y34088D01*
X20585Y34125D01*
X20488Y34138D01*
D02*
G37*
G36*
X15758Y33415D02*
X15404D01*
Y32768D01*
X15459Y32775D01*
X15556Y32815D01*
X15640Y32879D01*
X15704Y32963D01*
X15744Y33060D01*
X15758Y33165D01*
Y33415D01*
D02*
G37*
G36*
X19438Y33415D02*
X19085D01*
Y33165D01*
X19098Y33060D01*
X19139Y32963D01*
X19203Y32879D01*
X19286Y32815D01*
X19384Y32775D01*
X19438Y32768D01*
Y33415D01*
D02*
G37*
G36*
X19892D02*
X19538D01*
Y32768D01*
X19593Y32775D01*
X19690Y32815D01*
X19773Y32879D01*
X19838Y32963D01*
X19878Y33060D01*
X19892Y33165D01*
Y33415D01*
D02*
G37*
G36*
X22000Y34323D02*
X21916Y34312D01*
X21839Y34280D01*
X21772Y34228D01*
X21720Y34161D01*
X21688Y34084D01*
X21677Y34000D01*
X21688Y33916D01*
X21720Y33839D01*
X21772Y33772D01*
X21839Y33720D01*
X21916Y33688D01*
X22000Y33677D01*
X22084Y33688D01*
X22112Y33700D01*
X22249Y33564D01*
Y33165D01*
X22262Y33068D01*
X22299Y32978D01*
X22358Y32901D01*
X22435Y32841D01*
X22525Y32804D01*
X22622Y32791D01*
X22719Y32804D01*
X22809Y32841D01*
X22886Y32901D01*
X22945Y32978D01*
X22983Y33068D01*
X22995Y33165D01*
Y33765D01*
X22983Y33861D01*
X22945Y33951D01*
X22886Y34028D01*
X22809Y34088D01*
X22719Y34125D01*
X22622Y34138D01*
X22525Y34125D01*
X22435Y34088D01*
X22396Y34057D01*
X22321Y34081D01*
X22309Y34091D01*
X22280Y34161D01*
X22228Y34228D01*
X22161Y34280D01*
X22084Y34312D01*
X22000Y34323D01*
D02*
G37*
G36*
X19438Y34161D02*
X19384Y34154D01*
X19286Y34114D01*
X19203Y34050D01*
X19139Y33966D01*
X19098Y33869D01*
X19085Y33765D01*
Y33515D01*
X19438D01*
Y34161D01*
D02*
G37*
G36*
X19538D02*
Y33515D01*
X19892D01*
Y33765D01*
X19878Y33869D01*
X19838Y33966D01*
X19773Y34050D01*
X19690Y34114D01*
X19593Y34154D01*
X19538Y34161D01*
D02*
G37*
G36*
X15404Y34161D02*
Y33515D01*
X15758D01*
Y33765D01*
X15744Y33869D01*
X15704Y33966D01*
X15640Y34050D01*
X15556Y34114D01*
X15459Y34154D01*
X15404Y34161D01*
D02*
G37*
G36*
X23572Y34161D02*
X23518Y34154D01*
X23420Y34114D01*
X23337Y34050D01*
X23273Y33966D01*
X23232Y33869D01*
X23219Y33765D01*
Y33515D01*
X23572D01*
Y34161D01*
D02*
G37*
G36*
X15304D02*
X15250Y34154D01*
X15153Y34114D01*
X15069Y34050D01*
X15005Y33966D01*
X14965Y33869D01*
X14951Y33765D01*
Y33515D01*
X15304D01*
Y34161D01*
D02*
G37*
G36*
Y33415D02*
X14951D01*
Y33165D01*
X14965Y33060D01*
X15005Y32963D01*
X15069Y32879D01*
X15153Y32815D01*
X15250Y32775D01*
X15304Y32768D01*
Y33415D01*
D02*
G37*
G36*
X35290Y30773D02*
X35040D01*
Y30420D01*
X35687D01*
X35680Y30474D01*
X35639Y30572D01*
X35575Y30655D01*
X35492Y30719D01*
X35394Y30760D01*
X35290Y30773D01*
D02*
G37*
G36*
X34940D02*
X34690D01*
X34586Y30760D01*
X34488Y30719D01*
X34405Y30655D01*
X34341Y30572D01*
X34300Y30474D01*
X34293Y30420D01*
X34940D01*
Y30773D01*
D02*
G37*
G36*
X23572Y33415D02*
X23219D01*
Y33165D01*
X23232Y33060D01*
X23273Y32963D01*
X23337Y32879D01*
X23420Y32815D01*
X23518Y32775D01*
X23572Y32768D01*
Y33415D01*
D02*
G37*
G36*
X18000Y34323D02*
X17916Y34312D01*
X17839Y34280D01*
X17772Y34228D01*
X17720Y34161D01*
X17688Y34084D01*
X17677Y34000D01*
X17688Y33916D01*
X17709Y33867D01*
X17602Y33760D01*
X17517Y33788D01*
X17507Y33836D01*
X17459Y33909D01*
X17386Y33957D01*
X17362Y33962D01*
X17323Y34001D01*
X17312Y34084D01*
X17280Y34161D01*
X17228Y34228D01*
X17161Y34280D01*
X17084Y34312D01*
X17000Y34323D01*
X16916Y34312D01*
X16839Y34280D01*
X16772Y34228D01*
X16720Y34161D01*
X16688Y34084D01*
X16687Y34071D01*
X16660Y34055D01*
X16602Y34041D01*
X16541Y34088D01*
X16451Y34125D01*
X16354Y34138D01*
X16258Y34125D01*
X16168Y34088D01*
X16090Y34028D01*
X16031Y33951D01*
X15994Y33861D01*
X15981Y33765D01*
Y33165D01*
X15994Y33068D01*
X16031Y32978D01*
X16090Y32901D01*
X16168Y32841D01*
X16258Y32804D01*
X16354Y32791D01*
X16451Y32804D01*
X16541Y32841D01*
X16618Y32901D01*
X16678Y32978D01*
X16715Y33068D01*
X16728Y33165D01*
Y33705D01*
X16808Y33744D01*
X16839Y33720D01*
X16916Y33688D01*
X17000Y33677D01*
X17084Y33688D01*
X17093Y33664D01*
X17141Y33591D01*
X17214Y33543D01*
X17262Y33533D01*
X17290Y33448D01*
X17121Y33279D01*
X17096Y33243D01*
X17088Y33200D01*
X17088Y33200D01*
Y32330D01*
X17059Y32311D01*
X17016Y32246D01*
X17001Y32170D01*
X17016Y32094D01*
X17059Y32029D01*
X17124Y31986D01*
X17200Y31971D01*
X17276Y31986D01*
X17341Y32029D01*
X17384Y32094D01*
X17399Y32170D01*
X17384Y32246D01*
X17341Y32311D01*
X17312Y32330D01*
Y33154D01*
X17867Y33709D01*
X17916Y33688D01*
X18000Y33677D01*
X18035Y33682D01*
X18115Y33621D01*
Y33165D01*
X18128Y33068D01*
X18165Y32978D01*
X18224Y32901D01*
X18302Y32841D01*
X18392Y32804D01*
X18488Y32791D01*
X18585Y32804D01*
X18675Y32841D01*
X18752Y32901D01*
X18811Y32978D01*
X18849Y33068D01*
X18861Y33165D01*
Y33765D01*
X18849Y33861D01*
X18811Y33951D01*
X18752Y34028D01*
X18675Y34088D01*
X18585Y34125D01*
X18488Y34138D01*
X18392Y34125D01*
X18309Y34091D01*
X18280Y34161D01*
X18228Y34228D01*
X18161Y34280D01*
X18084Y34312D01*
X18000Y34323D01*
D02*
G37*
G36*
X19538Y36524D02*
Y35877D01*
X19892D01*
Y36127D01*
X19878Y36231D01*
X19838Y36328D01*
X19773Y36412D01*
X19690Y36476D01*
X19593Y36516D01*
X19538Y36524D01*
D02*
G37*
G36*
X15304D02*
X15250Y36516D01*
X15153Y36476D01*
X15069Y36412D01*
X15005Y36328D01*
X14965Y36231D01*
X14951Y36127D01*
Y35877D01*
X15304D01*
Y36524D01*
D02*
G37*
G36*
X19438Y36524D02*
X19384Y36516D01*
X19286Y36476D01*
X19203Y36412D01*
X19139Y36328D01*
X19098Y36231D01*
X19085Y36127D01*
Y35877D01*
X19438D01*
Y36524D01*
D02*
G37*
G36*
X22622Y36500D02*
X22525Y36487D01*
X22435Y36450D01*
X22358Y36391D01*
X22299Y36313D01*
X22262Y36223D01*
X22249Y36127D01*
Y35527D01*
X22262Y35430D01*
X22299Y35340D01*
X22358Y35263D01*
X22435Y35204D01*
X22525Y35166D01*
X22622Y35154D01*
X22719Y35166D01*
X22809Y35204D01*
X22886Y35263D01*
X22945Y35340D01*
X22983Y35430D01*
X22995Y35527D01*
Y36127D01*
X22983Y36223D01*
X22945Y36313D01*
X22886Y36391D01*
X22809Y36450D01*
X22719Y36487D01*
X22622Y36500D01*
D02*
G37*
G36*
X34397Y36426D02*
X34301Y36413D01*
X34213Y36376D01*
X34136Y36318D01*
X34078Y36241D01*
X34041Y36152D01*
X34028Y36057D01*
X34041Y35962D01*
X34078Y35873D01*
X34136Y35797D01*
X34213Y35738D01*
X34301Y35701D01*
X34397Y35689D01*
X34492Y35701D01*
X34581Y35738D01*
X34657Y35797D01*
X34716Y35873D01*
X34753Y35962D01*
X34765Y36057D01*
X34753Y36152D01*
X34716Y36241D01*
X34657Y36318D01*
X34581Y36376D01*
X34492Y36413D01*
X34397Y36426D01*
D02*
G37*
G36*
X15404Y36524D02*
Y35877D01*
X15758D01*
Y36127D01*
X15744Y36231D01*
X15704Y36328D01*
X15640Y36412D01*
X15556Y36476D01*
X15459Y36516D01*
X15404Y36524D01*
D02*
G37*
G36*
X35563Y36456D02*
X35397D01*
X35294Y36442D01*
X35198Y36402D01*
X35115Y36339D01*
X35052Y36256D01*
X35012Y36160D01*
X35005Y36107D01*
X35563D01*
Y36456D01*
D02*
G37*
G36*
X35830D02*
X35663D01*
Y36107D01*
X36222D01*
X36215Y36160D01*
X36175Y36256D01*
X36112Y36339D01*
X36029Y36402D01*
X35933Y36442D01*
X35830Y36456D01*
D02*
G37*
G36*
X31740Y36808D02*
X31645Y36796D01*
X31556Y36759D01*
X31479Y36701D01*
X31421Y36624D01*
X31384Y36535D01*
X31372Y36440D01*
X31384Y36345D01*
X31421Y36256D01*
X31479Y36179D01*
X31556Y36121D01*
X31645Y36084D01*
X31740Y36072D01*
X31835Y36084D01*
X31924Y36121D01*
X32001Y36179D01*
X32059Y36256D01*
X32096Y36345D01*
X32108Y36440D01*
X32096Y36535D01*
X32059Y36624D01*
X32001Y36701D01*
X31924Y36759D01*
X31835Y36796D01*
X31740Y36808D01*
D02*
G37*
G36*
X23572Y36524D02*
X23518Y36516D01*
X23420Y36476D01*
X23337Y36412D01*
X23273Y36328D01*
X23232Y36231D01*
X23219Y36127D01*
Y35877D01*
X23572D01*
Y36524D01*
D02*
G37*
G36*
X23672Y36524D02*
Y35877D01*
X24025D01*
Y36127D01*
X24012Y36231D01*
X23971Y36328D01*
X23907Y36412D01*
X23824Y36476D01*
X23726Y36516D01*
X23672Y36524D01*
D02*
G37*
G36*
X18488Y36500D02*
X18392Y36487D01*
X18302Y36450D01*
X18224Y36391D01*
X18165Y36313D01*
X18128Y36223D01*
X18115Y36127D01*
Y35527D01*
X18128Y35430D01*
X18165Y35340D01*
X18224Y35263D01*
X18302Y35204D01*
X18392Y35166D01*
X18488Y35154D01*
X18585Y35166D01*
X18675Y35204D01*
X18752Y35263D01*
X18811Y35340D01*
X18849Y35430D01*
X18861Y35527D01*
Y36127D01*
X18849Y36223D01*
X18811Y36313D01*
X18752Y36391D01*
X18675Y36450D01*
X18585Y36487D01*
X18488Y36500D01*
D02*
G37*
G36*
X23572Y35777D02*
X23219D01*
Y35527D01*
X23232Y35422D01*
X23273Y35325D01*
X23337Y35241D01*
X23420Y35177D01*
X23518Y35137D01*
X23572Y35130D01*
Y35777D01*
D02*
G37*
G36*
X19892Y35777D02*
X19538D01*
Y35130D01*
X19593Y35137D01*
X19690Y35177D01*
X19773Y35241D01*
X19838Y35325D01*
X19878Y35422D01*
X19892Y35527D01*
Y35777D01*
D02*
G37*
G36*
X31740Y35808D02*
X31645Y35796D01*
X31556Y35759D01*
X31479Y35701D01*
X31421Y35624D01*
X31384Y35535D01*
X31372Y35440D01*
X31384Y35345D01*
X31421Y35256D01*
X31479Y35179D01*
X31556Y35121D01*
X31645Y35084D01*
X31740Y35072D01*
X31835Y35084D01*
X31924Y35121D01*
X32001Y35179D01*
X32059Y35256D01*
X32096Y35345D01*
X32108Y35440D01*
X32096Y35535D01*
X32059Y35624D01*
X32001Y35701D01*
X31924Y35759D01*
X31835Y35796D01*
X31740Y35808D01*
D02*
G37*
G36*
X20488Y36500D02*
X20392Y36487D01*
X20302Y36450D01*
X20224Y36391D01*
X20165Y36313D01*
X20128Y36223D01*
X20115Y36127D01*
Y35527D01*
X20128Y35430D01*
X20165Y35340D01*
X20224Y35263D01*
X20302Y35204D01*
X20392Y35166D01*
X20488Y35154D01*
X20585Y35166D01*
X20654Y35195D01*
X20711Y35138D01*
X20688Y35084D01*
X20677Y35000D01*
X20688Y34916D01*
X20720Y34839D01*
X20772Y34772D01*
X20839Y34720D01*
X20916Y34688D01*
X21000Y34677D01*
X21084Y34688D01*
X21161Y34720D01*
X21228Y34772D01*
X21280Y34839D01*
X21312Y34916D01*
X21323Y35000D01*
X21312Y35084D01*
X21280Y35161D01*
X21228Y35228D01*
X21161Y35280D01*
X21084Y35312D01*
X21000Y35323D01*
X20916Y35312D01*
X20888Y35300D01*
X20822Y35366D01*
X20849Y35430D01*
X20861Y35527D01*
Y36127D01*
X20849Y36223D01*
X20811Y36313D01*
X20752Y36391D01*
X20675Y36450D01*
X20585Y36487D01*
X20488Y36500D01*
D02*
G37*
G36*
X42796Y36517D02*
X42710Y36500D01*
X42637Y36451D01*
X42588Y36378D01*
X42571Y36292D01*
X42577Y36262D01*
D01*
X41988Y35673D01*
X41314D01*
X41263Y35662D01*
X41220Y35634D01*
X39797Y34210D01*
X39768Y34167D01*
X39758Y34116D01*
Y32415D01*
X39729Y32403D01*
X39720Y32396D01*
X37503D01*
X37433Y32387D01*
X37367Y32359D01*
X37311Y32316D01*
X36633Y31638D01*
X35548D01*
X35477Y31693D01*
X35387Y31730D01*
X35290Y31743D01*
X35272D01*
Y31829D01*
X35280Y31839D01*
X35312Y31916D01*
X35323Y32000D01*
X35312Y32084D01*
X35280Y32161D01*
X35228Y32228D01*
X35161Y32280D01*
X35084Y32312D01*
X35000Y32323D01*
X34916Y32312D01*
X34839Y32280D01*
X34772Y32228D01*
X34720Y32161D01*
X34688Y32084D01*
X34677Y32000D01*
X34688Y31916D01*
X34720Y31839D01*
X34728Y31829D01*
Y31743D01*
X34690D01*
X34593Y31730D01*
X34503Y31693D01*
X34426Y31634D01*
X34367Y31557D01*
X34330Y31467D01*
X34317Y31370D01*
X34330Y31273D01*
X34367Y31183D01*
X34426Y31106D01*
X34503Y31047D01*
X34593Y31010D01*
X34690Y30997D01*
X35290D01*
X35387Y31010D01*
X35477Y31047D01*
X35538Y31094D01*
X36746D01*
X36817Y31103D01*
X36882Y31130D01*
X36939Y31174D01*
X37057Y31292D01*
X37616Y31851D01*
X39720D01*
X39729Y31844D01*
X39807Y31812D01*
X39890Y31801D01*
X39974Y31812D01*
X40052Y31844D01*
X40119Y31895D01*
X40170Y31962D01*
X40202Y32040D01*
X40213Y32123D01*
X40202Y32207D01*
X40170Y32285D01*
X40119Y32352D01*
X40052Y32403D01*
X40023Y32415D01*
Y34062D01*
X41369Y35407D01*
X42043D01*
X42094Y35418D01*
X42137Y35446D01*
X42765Y36074D01*
X42796Y36068D01*
X42826Y36074D01*
X43586Y35315D01*
X43591Y35259D01*
D01*
D01*
X43563Y35216D01*
X43543Y35186D01*
X43526Y35100D01*
X43543Y35014D01*
X43591Y34941D01*
X43664Y34893D01*
X43750Y34876D01*
X43836Y34893D01*
X43909Y34941D01*
X43957Y35014D01*
X43974Y35100D01*
X43957Y35186D01*
X43909Y35259D01*
X43883Y35276D01*
Y35338D01*
X43872Y35389D01*
X43844Y35432D01*
X43014Y36262D01*
D01*
X43020Y36292D01*
X43003Y36378D01*
X42954Y36451D01*
X42881Y36500D01*
X42796Y36517D01*
D02*
G37*
G36*
X15304Y35777D02*
X14951D01*
Y35527D01*
X14965Y35422D01*
X15005Y35325D01*
X15069Y35241D01*
X15153Y35177D01*
X15250Y35137D01*
X15304Y35130D01*
Y35777D01*
D02*
G37*
G36*
X14354Y36500D02*
X14258Y36487D01*
X14168Y36450D01*
X14090Y36391D01*
X14031Y36313D01*
X13994Y36223D01*
X13981Y36127D01*
Y35527D01*
X13994Y35430D01*
X14031Y35340D01*
X14090Y35263D01*
X14168Y35204D01*
X14258Y35166D01*
X14354Y35154D01*
X14451Y35166D01*
X14541Y35204D01*
X14618Y35263D01*
X14678Y35340D01*
X14715Y35430D01*
X14728Y35527D01*
Y36127D01*
X14715Y36223D01*
X14678Y36313D01*
X14618Y36391D01*
X14541Y36450D01*
X14451Y36487D01*
X14354Y36500D01*
D02*
G37*
G36*
X16354D02*
X16258Y36487D01*
X16168Y36450D01*
X16090Y36391D01*
X16031Y36313D01*
X15994Y36223D01*
X15981Y36127D01*
Y35527D01*
X15994Y35430D01*
X16031Y35340D01*
X16090Y35263D01*
X16168Y35204D01*
X16258Y35166D01*
X16354Y35154D01*
X16451Y35166D01*
X16541Y35204D01*
X16618Y35263D01*
X16678Y35340D01*
X16715Y35430D01*
X16728Y35527D01*
Y36127D01*
X16715Y36223D01*
X16678Y36313D01*
X16618Y36391D01*
X16541Y36450D01*
X16451Y36487D01*
X16354Y36500D01*
D02*
G37*
G36*
X24025Y35777D02*
X23672D01*
Y35130D01*
X23726Y35137D01*
X23824Y35177D01*
X23907Y35241D01*
X23971Y35325D01*
X24012Y35422D01*
X24025Y35527D01*
Y35777D01*
D02*
G37*
G36*
X15758Y35777D02*
X15404D01*
Y35130D01*
X15459Y35137D01*
X15556Y35177D01*
X15640Y35241D01*
X15704Y35325D01*
X15744Y35422D01*
X15758Y35527D01*
Y35777D01*
D02*
G37*
G36*
X19438Y35777D02*
X19085D01*
Y35527D01*
X19098Y35422D01*
X19139Y35325D01*
X19203Y35241D01*
X19286Y35177D01*
X19384Y35137D01*
X19438Y35130D01*
Y35777D01*
D02*
G37*
G36*
X46120Y25195D02*
X45653D01*
X45674Y25127D01*
X45743Y24996D01*
X45837Y24882D01*
X45951Y24788D01*
X46082Y24719D01*
X46120Y24707D01*
Y25195D01*
D02*
G37*
G36*
X47087D02*
X46620D01*
Y24707D01*
X46658Y24719D01*
X46789Y24788D01*
X46903Y24882D01*
X46997Y24996D01*
X47066Y25127D01*
X47071Y25143D01*
X47087Y25195D01*
D02*
G37*
G36*
X38059Y26303D02*
X37962Y26290D01*
X37872Y26253D01*
X37795Y26194D01*
X37736Y26117D01*
X37699Y26027D01*
X37686Y25930D01*
Y25330D01*
X37699Y25233D01*
X37736Y25143D01*
X37795Y25066D01*
X37872Y25007D01*
X37962Y24969D01*
X38059Y24957D01*
X38156Y24969D01*
X38246Y25007D01*
X38323Y25066D01*
X38382Y25143D01*
X38420Y25233D01*
X38429Y25303D01*
X38546D01*
X38711Y25138D01*
X38688Y25084D01*
X38677Y25000D01*
X38688Y24916D01*
X38720Y24839D01*
X38772Y24772D01*
X38839Y24720D01*
X38916Y24688D01*
X39000Y24677D01*
X39084Y24688D01*
X39161Y24720D01*
X39228Y24772D01*
X39280Y24839D01*
X39312Y24916D01*
X39323Y25000D01*
X39312Y25084D01*
X39280Y25161D01*
X39228Y25228D01*
X39161Y25280D01*
X39084Y25312D01*
X39000Y25323D01*
X38916Y25312D01*
X38862Y25289D01*
X38666Y25486D01*
X38631Y25509D01*
X38590Y25517D01*
X38432D01*
Y25930D01*
X38420Y26027D01*
X38382Y26117D01*
X38323Y26194D01*
X38246Y26253D01*
X38156Y26290D01*
X38059Y26303D01*
D02*
G37*
G36*
X34940Y30320D02*
X34293D01*
X34300Y30266D01*
X34341Y30168D01*
X34405Y30085D01*
X34488Y30021D01*
X34586Y29980D01*
X34690Y29967D01*
X34940D01*
Y30320D01*
D02*
G37*
G36*
X35687D02*
X35040D01*
Y29967D01*
X35290D01*
X35394Y29980D01*
X35492Y30021D01*
X35575Y30085D01*
X35639Y30168D01*
X35680Y30266D01*
X35687Y30320D01*
D02*
G37*
%LPD*%
D10*
X12861Y35827D02*
G03*
X11772Y34778I-1050J0D01*
G01*
X12861Y35827D02*
G03*
X11772Y34778I-1050J0D01*
G01*
X49955Y12553D02*
G03*
X48470Y11069I-742J-742D01*
G01*
X50263Y11811D02*
G03*
X49955Y12553I-1050J0D01*
G01*
X48470Y11069D02*
G03*
X50263Y11811I742J742D01*
G01*
X12861D02*
G03*
X11069Y12553I-1050J0D01*
G01*
X12553Y11069D02*
G03*
X12861Y11811I-742J742D01*
G01*
X11069Y12553D02*
G03*
X12553Y11069I742J-742D01*
G01*
X12861Y35827D02*
G03*
X11772Y34778I-1050J0D01*
G01*
X12861Y35827D02*
G03*
X11772Y34778I-1050J0D01*
G01*
D02*
G03*
X12861Y35827I39J1049D01*
G01*
X49984Y35115D02*
G03*
X50263Y35827I-772J712D01*
G01*
D02*
G03*
X49984Y35115I-1050J0D01*
G01*
X12861Y35827D02*
G03*
X11772Y34778I-1050J0D01*
G01*
X12861Y35827D02*
G03*
X11772Y34778I-1050J0D01*
G01*
X12861Y35827D02*
G03*
X11772Y34778I-1050J0D01*
G01*
D02*
G03*
X12861Y35827I39J1049D01*
G01*
D11*
X49610Y18940D02*
X50210D01*
X23543Y26693D02*
Y26702D01*
Y26653D02*
Y26693D01*
X23544Y26694D01*
X29496Y32785D02*
X29666Y32616D01*
X27496Y31690D02*
Y31785D01*
X36359Y28677D02*
X36400Y28718D01*
X32366Y28677D02*
X36359D01*
X35820Y17230D02*
X36310D01*
X30840Y21880D02*
X32580Y20140D01*
X35510Y17540D02*
X35820Y17230D01*
X36430Y17350D02*
X36730D01*
X36310Y17230D02*
X36430Y17350D01*
X28783Y28693D02*
Y29430D01*
X28983Y29630D01*
X32810Y30920D02*
X34449Y29281D01*
X32090Y30660D02*
X32350Y30920D01*
X32810D01*
X32470Y30660D02*
X32608D01*
X33937Y29331D01*
X31350Y30310D02*
X32390Y31350D01*
X27830Y29360D02*
Y29620D01*
X26658Y28188D02*
X27830Y29360D01*
X26658Y23616D02*
Y28188D01*
X28020Y28740D02*
X28215Y28935D01*
X27810Y28740D02*
X28020D01*
X28215Y28935D02*
Y29432D01*
X26808Y27738D02*
X27810Y28740D01*
X28215Y29432D02*
X28413Y29630D01*
X29230Y29280D02*
Y29900D01*
Y20130D02*
Y28800D01*
X29350Y28920D01*
Y29160D01*
X29230Y29280D02*
X29350Y29160D01*
X29510Y28860D02*
Y29310D01*
X29400Y29420D02*
X29510Y29310D01*
X29400Y29420D02*
Y29830D01*
X29670Y28800D02*
Y29370D01*
X29560Y29480D02*
X29670Y29370D01*
X29560Y29480D02*
Y29730D01*
X29400Y22570D02*
Y28750D01*
X29510Y28860D01*
X29560Y22780D02*
Y28690D01*
X29670Y28800D01*
X24355Y32415D02*
X24515Y32575D01*
X24020Y31330D02*
Y31808D01*
X24355Y32143D02*
Y32415D01*
X24020Y31808D02*
X24355Y32143D01*
X24120Y32400D02*
X24450Y32730D01*
X24120Y32220D02*
Y32240D01*
X23770Y31870D02*
X24120Y32220D01*
Y32240D02*
Y32400D01*
X24925Y32575D02*
X27270Y34920D01*
X24515Y32575D02*
X24925D01*
X27270Y34920D02*
X29220D01*
X24450Y32730D02*
X24820D01*
X27235Y35145D01*
Y35785D01*
X24910Y34260D02*
X27507Y36857D01*
X23180Y32000D02*
X24130Y32950D01*
X24310Y34260D02*
X24910D01*
X24130Y34080D02*
X24310Y34260D01*
X24130Y32950D02*
Y34080D01*
X11977Y31730D02*
X18500D01*
X10927Y32780D02*
X11977Y31730D01*
X17200Y32170D02*
Y33200D01*
X18000Y34000D01*
X18500Y31730D02*
X20060Y30170D01*
X21900D01*
X13400Y30480D02*
X14410Y31490D01*
X18190D01*
X18930Y30750D01*
X19280Y29970D02*
X19900D01*
X19030Y30220D02*
X19280Y29970D01*
X25758Y31378D02*
X26092Y31044D01*
Y29372D02*
Y31044D01*
X25820Y29100D02*
X26092Y29372D01*
X26560Y31120D02*
X27130Y31690D01*
X26560Y29590D02*
Y31120D01*
X25984Y29014D02*
X26560Y29590D01*
X24800Y31495D02*
X27365Y34060D01*
X24800Y30470D02*
Y31495D01*
Y30470D02*
X25060Y30210D01*
X25050Y30630D02*
X25570Y30110D01*
X25050Y30630D02*
Y31410D01*
X25420Y30490D02*
X25730Y30180D01*
X25420Y30490D02*
Y31410D01*
X25900Y31890D02*
X26058D01*
X25420Y31410D02*
X25900Y31890D01*
X25060Y29380D02*
Y30210D01*
X24212Y27779D02*
Y30788D01*
X23770Y31230D02*
X24212Y30788D01*
X23770Y31230D02*
Y31870D01*
X23425Y31335D02*
X24062Y30698D01*
X23413Y31335D02*
X23425D01*
X23275Y31473D02*
X23413Y31335D01*
X23275Y31473D02*
Y31485D01*
X23180Y31580D02*
X23275Y31485D01*
X24062Y27842D02*
Y30698D01*
X24020Y31330D02*
X24362Y30988D01*
Y27246D02*
Y30988D01*
X23880Y27447D02*
X24212Y27779D01*
X23583Y27362D02*
X24062Y27842D01*
X23880Y27433D02*
Y27447D01*
Y27433D02*
X23953Y27360D01*
X20900Y32280D02*
X21620D01*
X20450Y31830D02*
X20900Y32280D01*
X20450Y30980D02*
Y31830D01*
X22650Y31110D02*
X22920Y30840D01*
X22520Y31110D02*
X22650D01*
X22375Y31255D02*
X22520Y31110D01*
X22375Y31255D02*
Y31360D01*
X19640Y31070D02*
X19687D01*
X20450Y30410D02*
X21520Y31480D01*
X22255D01*
X22375Y31360D01*
X21900Y30170D02*
X22927D01*
X21900D02*
Y30990D01*
X25038Y31410D02*
X25050D01*
X27365Y34060D02*
X27630D01*
X25720Y32092D02*
X26048D01*
X27000Y31080D02*
X27180Y31260D01*
X27000Y30000D02*
Y31080D01*
X23180Y31580D02*
Y32000D01*
X22920Y30450D02*
Y30840D01*
X23841Y28713D02*
Y29980D01*
X22920Y30450D02*
X23220Y30150D01*
X23671D01*
X23841Y29980D01*
X21900Y30990D02*
X22120Y31210D01*
X22927Y30170D02*
X23421Y29676D01*
X27130Y31690D02*
X27496D01*
X25730Y29302D02*
Y30180D01*
X25608Y29180D02*
X25730Y29302D01*
X25570Y29412D02*
Y30110D01*
X25458Y29300D02*
X25570Y29412D01*
X25060Y29380D02*
X25170Y29270D01*
Y24402D02*
Y29270D01*
X24596Y23829D02*
X25170Y24402D01*
X25458Y24474D02*
Y29300D01*
X24518Y23533D02*
X25458Y24474D01*
X25608Y24256D02*
Y29180D01*
X25820Y27372D02*
Y29100D01*
Y27372D02*
X26208Y26984D01*
Y24614D02*
Y26984D01*
X24749Y23155D02*
X26208Y24614D01*
X25984Y27421D02*
Y29014D01*
X26058Y31890D02*
X28788Y34620D01*
X26048Y32092D02*
X28726Y34770D01*
X26808Y23554D02*
Y27738D01*
X27830Y29620D02*
Y29962D01*
X29230Y31362D01*
X29980Y30930D02*
X30650D01*
X28983Y29933D02*
X29980Y30930D01*
X28983Y29630D02*
Y29933D01*
X30240Y31457D02*
Y32190D01*
X28413Y29630D02*
X30240Y31457D01*
X27870Y27780D02*
X28783Y28693D01*
X29230Y29900D02*
X30040Y30710D01*
X29230Y20130D02*
X29375Y19985D01*
X29575D01*
X29400Y29830D02*
X30080Y30510D01*
X29400Y22570D02*
X29600Y22370D01*
X29560Y29730D02*
X30140Y30310D01*
X29560Y22780D02*
X29950Y22390D01*
X27870Y23342D02*
Y27780D01*
X30040Y30710D02*
X30760D01*
X30080Y30510D02*
X31260D01*
X30140Y30310D02*
X31350D01*
X27283Y22756D02*
X27870Y23342D01*
X25758Y31378D02*
X28850Y34470D01*
X19900Y29970D02*
X20250Y29620D01*
Y28760D02*
Y29620D01*
Y28760D02*
X20350Y28660D01*
X28230Y35950D02*
X28740Y35440D01*
X27400Y35950D02*
X28230D01*
X27235Y35785D02*
X27400Y35950D01*
X29220Y34920D02*
X29740Y35440D01*
X30320Y35100D02*
Y36020D01*
X29840Y34620D02*
X30320Y35100D01*
X28788Y34620D02*
X29840D01*
X28726Y34770D02*
X29740D01*
Y36440D02*
X30160Y36020D01*
Y35190D02*
Y36020D01*
X29740Y34770D02*
X30160Y35190D01*
X30320Y36020D02*
X30740Y36440D01*
X28850Y34470D02*
X30230D01*
X30740Y34980D02*
Y35440D01*
X30230Y34470D02*
X30740Y34980D01*
X29740Y31690D02*
Y32050D01*
X29240Y32550D02*
X29740Y32050D01*
X29240Y32550D02*
Y32900D01*
X31240Y31520D02*
Y32190D01*
X30650Y30930D02*
X31240Y31520D01*
X30760Y30710D02*
X31740Y31690D01*
X30740Y32690D02*
X31240Y32190D01*
X31960Y33110D02*
X32390Y32680D01*
X29240Y32900D02*
X29450Y33110D01*
X31960D01*
X31740Y32690D02*
X32180Y32250D01*
Y31430D02*
Y32250D01*
X31260Y30510D02*
X32180Y31430D01*
X32390Y31350D02*
Y32680D01*
X29740Y32690D02*
X30240Y32190D01*
X28740Y32678D02*
Y32690D01*
Y32678D02*
X29230Y32188D01*
Y31362D02*
Y32188D01*
X29830Y24580D02*
X30840Y23570D01*
X29830Y24580D02*
Y29590D01*
X15180Y16510D02*
Y17220D01*
X15150Y16480D02*
X15180Y16510D01*
X15150Y15540D02*
Y16480D01*
X15180Y17220D02*
X16680Y18720D01*
X14625Y18335D02*
X14630Y18330D01*
X20810Y12480D02*
X21000Y12670D01*
X30650Y18940D02*
X30980Y19270D01*
X28639Y18940D02*
X30650D01*
X28010Y18311D02*
X28639Y18940D01*
X32540Y12580D02*
Y12970D01*
Y12560D02*
Y12580D01*
X32500Y13000D02*
X32510D01*
X32000D02*
X32500D01*
X32510D02*
X32540Y12970D01*
X19209Y20047D02*
Y20058D01*
X19050Y20340D02*
X19320Y20610D01*
X29555Y19505D02*
X29560Y19500D01*
X18868Y18780D02*
X19430Y18218D01*
X18673Y18975D02*
X18868Y18780D01*
X18430Y18975D02*
X18673D01*
X19430Y15470D02*
Y18218D01*
X19580Y15052D02*
Y18400D01*
X19250Y18730D02*
X19580Y18400D01*
X19740Y17640D02*
X20150Y18050D01*
X19740Y14880D02*
Y17640D01*
X27551Y16750D02*
X27853Y17052D01*
X24900Y16750D02*
X27551D01*
X14370Y18240D02*
X14830Y17780D01*
X13850Y19380D02*
X14060D01*
X14370Y18240D02*
Y18520D01*
X14470Y18620D01*
Y18970D01*
X14060Y19380D02*
X14470Y18970D01*
X18280Y19125D02*
X18430Y18975D01*
X27440Y20380D02*
Y20387D01*
X29575Y19985D02*
X29810Y19750D01*
X29600Y20390D02*
Y22370D01*
X29490Y20280D02*
X29600Y20390D01*
X29490Y20220D02*
Y20280D01*
X27774Y18311D02*
X28010D01*
X33610Y18160D02*
Y18330D01*
X31650Y21800D02*
X31700D01*
X22874Y22816D02*
Y25289D01*
X23324Y21705D02*
Y24952D01*
X23474Y21772D02*
Y24852D01*
X23624Y21834D02*
Y24516D01*
X23777Y21894D02*
Y24288D01*
X28030Y20130D02*
X28370Y20470D01*
X27800Y20700D02*
X28120D01*
X28924Y21904D02*
Y24413D01*
X28774Y22014D02*
Y24064D01*
X27670Y21194D02*
X28514Y22037D01*
X27670Y21190D02*
Y21194D01*
X14890Y15400D02*
X15150Y15140D01*
X14890Y15400D02*
Y16480D01*
X15150Y15100D02*
Y15140D01*
X14730Y15160D02*
X14800Y15090D01*
Y14830D02*
Y15090D01*
X14730Y15160D02*
Y16550D01*
X14890Y16480D02*
X15020Y16610D01*
X18632Y24542D02*
Y28194D01*
X21000Y35000D02*
Y35030D01*
X20488Y35542D02*
X21000Y35030D01*
X20488Y35542D02*
Y35827D01*
X31900Y22000D02*
X32000D01*
X18488Y33465D02*
Y33622D01*
X24622Y36622D02*
X25000Y37000D01*
X31410Y12480D02*
Y12590D01*
X31000Y13000D02*
X31410Y12590D01*
X30550Y12480D02*
Y12483D01*
X27870Y14165D02*
X27878Y14173D01*
X27870Y13430D02*
Y14165D01*
Y13430D02*
X28000Y13300D01*
Y13000D02*
Y13300D01*
X26878Y13432D02*
Y14173D01*
Y13432D02*
X27000Y13310D01*
Y13000D02*
Y13310D01*
X25878Y13442D02*
Y14173D01*
Y13442D02*
X26000Y13320D01*
Y13000D02*
Y13320D01*
X21470Y12480D02*
X21480D01*
X22000Y13000D01*
X21000Y12670D02*
Y13000D01*
X24622Y35827D02*
Y36622D01*
X22000Y34000D02*
X22087D01*
X22441Y27677D02*
Y28441D01*
X23000Y29000D01*
X13365Y25000D02*
X13668Y24697D01*
X13000Y25000D02*
X13365D01*
X14380Y29370D02*
Y29620D01*
X14000Y30000D02*
X14380Y29620D01*
X18632Y28194D02*
Y28794D01*
X18110Y29173D02*
X18489Y28794D01*
X18632D01*
Y28194D02*
X19124Y27702D01*
Y27205D02*
Y27702D01*
X26358Y23740D02*
Y27046D01*
X25689Y23071D02*
X26358Y23740D01*
X25984Y27421D02*
X26358Y27046D01*
X24472Y23120D02*
X25608Y24256D01*
X26508Y23678D02*
Y27264D01*
X26506Y23676D02*
X26508Y23678D01*
X26251Y27521D02*
X26508Y27264D01*
X26656Y23614D02*
X26658Y23616D01*
X26806Y23551D02*
X26808Y23554D01*
X23174Y25165D02*
X23631Y25621D01*
X24045Y23829D02*
X24596D01*
X24488Y23533D02*
X24518D01*
X24163Y23120D02*
X24472D01*
X24749Y23007D02*
Y23155D01*
X26656Y23405D02*
Y23614D01*
X26806Y23508D02*
Y23551D01*
X26506Y23632D02*
Y23676D01*
X26214Y22963D02*
X26656Y23405D01*
X26821Y23081D02*
Y23493D01*
X26806Y23508D02*
X26821Y23493D01*
X25954Y23080D02*
X26506Y23632D01*
X24596Y22854D02*
X24749Y23007D01*
X26811Y23071D02*
X26821Y23081D01*
X25710Y22570D02*
X25954Y22814D01*
Y23080D01*
X27102Y24079D02*
Y27465D01*
X27087Y27480D02*
X27102Y27465D01*
Y24079D02*
X27362Y23819D01*
X27362Y23819D02*
X27362Y23819D01*
X27362Y24331D02*
Y27825D01*
X27361Y27826D02*
X27362Y27825D01*
X24016Y26339D02*
X24055D01*
X23898Y26220D02*
X24016Y26339D01*
X23932Y26614D02*
X24488D01*
X22724Y25406D02*
X23932Y26614D01*
X19477Y26111D02*
Y28472D01*
X19125Y25759D02*
X19477Y26111D01*
X28330Y24508D02*
X28774Y24064D01*
X18488Y33465D02*
X18504Y33449D01*
X22441Y27677D02*
X22638Y27480D01*
X22187Y26752D02*
X22638Y27203D01*
Y27480D01*
X23366Y28238D02*
X23841Y28713D01*
X23341Y26236D02*
Y26491D01*
X23544Y26694D02*
Y26703D01*
X22314Y24686D02*
X22322D01*
X28248Y24508D02*
X28330D01*
X28514Y22037D02*
Y23957D01*
X23543Y26702D02*
X23544Y26703D01*
X22187Y24821D02*
Y26752D01*
X22314Y23663D02*
X22724Y24073D01*
X28701Y24636D02*
X28924Y24413D01*
X22574Y25468D02*
X23341Y26236D01*
X22574Y24290D02*
Y25468D01*
X22724Y24073D02*
Y25406D01*
X31240Y27461D02*
Y27687D01*
Y27461D02*
X31339Y27362D01*
Y25039D02*
Y27362D01*
X31950Y27000D02*
X32000D01*
X21660Y23362D02*
Y23376D01*
X22574Y24290D01*
X21500Y22810D02*
Y23202D01*
X21660Y23362D01*
X18000Y23000D02*
X18400Y23300D01*
X15000Y26000D02*
Y26430D01*
X14458Y25689D02*
X15000Y26000D01*
X14000Y27000D02*
X14570D01*
X14720Y27150D01*
X13668Y26668D02*
X14000Y27000D01*
X13668Y25689D02*
Y26668D01*
X18400Y23300D02*
Y24310D01*
X18632Y24542D01*
X14000Y24000D02*
X14030Y24030D01*
Y24300D01*
X14427Y24697D01*
X14458D01*
X23000Y29000D02*
Y29070D01*
X23421Y29491D01*
Y29676D01*
X21000Y29000D02*
Y29290D01*
X21386Y29676D01*
X21421D01*
X22000Y29000D02*
Y29320D01*
X22356Y29676D01*
X22421D01*
X19910Y12470D02*
X20000Y12560D01*
Y13000D01*
X29000Y12390D02*
X29230Y12160D01*
X29000Y12390D02*
Y13000D01*
X24115Y26999D02*
X24362Y27246D01*
X30480Y20710D02*
X30990D01*
X32670Y19270D02*
X33610Y18330D01*
X30980Y19270D02*
X32670D01*
X29560Y19500D02*
X29810Y19750D01*
X23080Y21140D02*
X23360D01*
X19240Y15280D02*
X19430Y15470D01*
X19290Y14810D02*
X19340D01*
X19455Y14925D01*
Y14927D01*
X19580Y15052D01*
X19690Y14830D02*
X19740Y14880D01*
X23174Y21484D02*
Y25165D01*
X21980Y20770D02*
X22450Y21240D01*
X28960Y19740D02*
X29130D01*
X22300Y20610D02*
X23174Y21484D01*
X22390Y20450D02*
X23080Y21140D01*
X19200Y20068D02*
X19582Y20450D01*
X22390D01*
X19780Y19470D02*
Y19690D01*
X19995Y19905D01*
X20295D01*
X19320Y20610D02*
X22300D01*
X19200Y20068D02*
X19209Y20058D01*
X19400Y19680D02*
Y19700D01*
X14730Y16550D02*
X14860Y16680D01*
Y17780D01*
X14830D02*
X14860D01*
X21710Y21190D02*
X22280Y21760D01*
X22610D01*
X22830Y21510D02*
X23024Y21704D01*
X22320Y21510D02*
X22830D01*
X21730Y20920D02*
X22320Y21510D01*
X23024Y21704D02*
Y25069D01*
X13810Y20950D02*
X14050Y21190D01*
X14470Y20790D02*
X14600Y20920D01*
X14460Y20790D02*
X14470D01*
X15040Y19413D02*
X15237Y19610D01*
X14625Y18335D02*
Y19035D01*
X14863Y19413D02*
X15040D01*
X19400Y19700D02*
X19755Y20055D01*
X20385D01*
X18775Y19680D02*
X19400D01*
X17955Y20500D02*
X18775Y19680D01*
X14050Y21190D02*
X21710D01*
X14600Y20920D02*
X21730D01*
X17700Y20770D02*
X21980D01*
X17605Y19125D02*
X18280D01*
X17200Y18720D02*
X17605Y19125D01*
X16680Y18720D02*
X17200D01*
X15020Y16610D02*
Y17410D01*
X15940Y18330D01*
X17032Y20500D02*
X17955D01*
X13825Y19625D02*
X14035D01*
X14625Y19035D01*
X11120Y20750D02*
X11470Y21100D01*
X13175D01*
X14863Y19413D01*
X10710Y21020D02*
X11050Y21360D01*
X21419D01*
X22874Y22816D01*
X34449Y28937D02*
Y29281D01*
X32244Y28799D02*
X32366Y28677D01*
X26320Y20130D02*
X28030D01*
X20160Y19670D02*
X20325Y19505D01*
X29555D01*
X28880Y19660D02*
X28960Y19740D01*
X20295Y19905D02*
X20540Y19660D01*
X28880D01*
X28420Y19820D02*
X28820Y20220D01*
X20385Y20055D02*
X20620Y19820D01*
X28110Y19970D02*
X28540Y20400D01*
X21970Y20070D02*
X22070Y19970D01*
X20620Y19820D02*
X28420D01*
X22070Y19970D02*
X28110D01*
X26200Y20250D02*
X26320Y20130D01*
X26060Y20250D02*
X26200D01*
X24790Y21480D02*
X25090Y21780D01*
X26720D01*
X27800Y20700D01*
X23777Y21894D02*
X24470Y21200D01*
X26970D01*
X27790Y20380D01*
X23624Y21834D02*
X24418Y21040D01*
X26787D01*
X27440Y20387D01*
X23474Y21772D02*
X24366Y20880D01*
X26615D01*
X27115Y20380D01*
X23324Y21705D02*
X24310Y20720D01*
X26140D01*
X26480Y20380D01*
X15237Y19610D02*
X16142D01*
X17032Y20500D01*
X28370Y21610D02*
X28774Y22014D01*
X28540Y21520D02*
X28924Y21904D01*
X28370Y20470D02*
Y21610D01*
X28540Y20400D02*
Y21520D01*
X29950Y20240D02*
Y22390D01*
X30840Y21880D02*
Y23570D01*
X22187Y24821D02*
X22322Y24686D01*
X25038Y31410D02*
X25720Y32092D01*
X23341Y26491D02*
X23543Y26693D01*
X30116Y12917D02*
X30550Y12483D01*
X32580Y20140D02*
X34610D01*
X35510Y19240D01*
Y17540D02*
Y19240D01*
D16*
X32000Y13000D02*
D03*
X31000D02*
D03*
X30000D02*
D03*
X29000D02*
D03*
X28000D02*
D03*
X27000D02*
D03*
X26000D02*
D03*
X25000D02*
D03*
X22000D02*
D03*
X21000D02*
D03*
X20000D02*
D03*
X14000D02*
D03*
X15000D02*
D03*
X16000D02*
D03*
X17000D02*
D03*
X35000Y32000D02*
D03*
X32000Y22000D02*
D03*
X10740Y14000D02*
D03*
D29*
X37008Y27913D02*
D03*
X38008D02*
D03*
D57*
X47100Y23570D02*
X49360Y25830D01*
Y31640D01*
X48000Y33000D02*
X49360Y31640D01*
X12920Y19625D02*
X13825D01*
X10360Y18030D02*
X11640Y19310D01*
X12605D02*
X12920Y19625D01*
X11640Y19310D02*
X12605D01*
X14630Y18330D02*
X15550D01*
X10360Y16120D02*
X10470Y16010D01*
X17470Y28470D02*
Y28760D01*
X17000Y28000D02*
X17470Y28470D01*
X15695Y29676D02*
X16000Y29371D01*
Y29000D02*
Y29371D01*
X16695Y29676D02*
X17000Y29371D01*
Y29000D02*
Y29371D01*
X18000Y25000D02*
X18300Y24600D01*
X18310Y24590D01*
X10360Y16120D02*
Y18030D01*
X17070Y18920D02*
X17520Y19370D01*
X16520Y18920D02*
X17070D01*
X17520Y19370D02*
X18290D01*
X16180Y18580D02*
X16520Y18920D01*
X15550Y18330D02*
X15800Y18580D01*
X16180D01*
X48000Y31000D02*
X48650Y30350D01*
X46720Y27000D02*
X48000D01*
X46370Y27350D02*
X46720Y27000D01*
X46370Y30630D02*
X48000Y29000D01*
X39750Y20770D02*
X42550Y23570D01*
X47100D01*
X38057Y22717D02*
X39283D01*
X39808Y22192D01*
X40000Y22000D02*
X42020Y24020D01*
X46840D01*
X48650Y25830D01*
Y30350D01*
X46370Y30630D02*
Y30960D01*
Y31945D01*
X38079Y19829D02*
X39019Y20770D01*
X39750D01*
X45390Y21215D02*
X45580Y21405D01*
D58*
X23474Y24872D02*
X23799Y25197D01*
X23624Y24661D02*
X24298Y25335D01*
X28290Y32140D02*
X28740Y31690D01*
X28290Y32140D02*
Y33030D01*
X28630Y33370D01*
X32070D01*
X32383Y33057D01*
X34397D01*
X24640Y31550D02*
X27455Y34365D01*
X24640Y30400D02*
Y31550D01*
Y30400D02*
X24895Y30145D01*
Y29264D02*
Y30145D01*
X27455Y34365D02*
X27535D01*
X25009Y24645D02*
Y29150D01*
X24895Y29264D02*
X25009Y29150D01*
X27535Y34365D02*
X27680Y34510D01*
X27507Y36857D02*
X28323D01*
X36230Y33490D02*
Y35300D01*
X36020Y35510D02*
X36230Y35300D01*
X35120Y35510D02*
X36020D01*
X33602Y34537D02*
X34557D01*
X34920Y35310D02*
X35120Y35510D01*
X35397Y33057D02*
X35797D01*
X34557Y34537D02*
X34920Y34900D01*
Y35310D01*
X35797Y33057D02*
X36230Y33490D01*
X32840Y33650D02*
X34680D01*
X35377Y35057D02*
X35397D01*
X34910Y34590D02*
X35377Y35057D01*
X34910Y33880D02*
Y34590D01*
X34680Y33650D02*
X34910Y33880D01*
X34830Y33510D02*
X35370Y34050D01*
X32370Y33510D02*
X34830D01*
X28323Y36857D02*
X28740Y36440D01*
X22820Y18970D02*
X25355D01*
X22650Y19140D02*
X22820Y18970D01*
X21505Y19140D02*
X22650D01*
X25355Y18970D02*
X26014Y18312D01*
X26042D01*
X21195Y18830D02*
X21505Y19140D01*
X19520Y18830D02*
X21195D01*
X19370Y18980D02*
X19520Y18830D01*
X19068Y18980D02*
X19370D01*
X18868Y18780D02*
X19068Y18980D01*
X18800Y19450D02*
X19495D01*
X17920Y20330D02*
X18800Y19450D01*
X19495D02*
X19515Y19470D01*
X19930Y19230D02*
X20160Y19460D01*
X19670Y19230D02*
X19930D01*
X19590Y19310D02*
X19670Y19230D01*
X18680Y19310D02*
X19590D01*
X19515Y19470D02*
X19780D01*
X30130Y17280D02*
X30140Y17270D01*
X20490Y17280D02*
X20500Y17270D01*
X15990Y17280D02*
X16000Y17270D01*
X31820Y34060D02*
X32370Y33510D01*
X32180Y34310D02*
X32840Y33650D01*
X32150Y34310D02*
X32180D01*
X18000Y26000D02*
X18290Y25710D01*
X38590Y25410D02*
X39000Y25000D01*
X38279Y25410D02*
X38590D01*
X24199Y26122D02*
X24744D01*
X23777Y24442D02*
X24167Y24833D01*
X24449D01*
X23777Y24288D02*
Y24442D01*
X24298Y25335D02*
X24754D01*
X23624Y24516D02*
Y24661D01*
X23474Y24852D02*
Y24872D01*
X24192Y25481D02*
X24419Y25709D01*
X23324Y25110D02*
X23696Y25481D01*
X23324Y24952D02*
Y25110D01*
X23631Y25621D02*
X23741D01*
X23743Y26220D02*
X23898D01*
X22874Y25289D02*
Y25351D01*
X23743Y26220D01*
X21000Y24000D02*
X21400Y23470D01*
X21000Y23000D02*
X21500Y22810D01*
X22000Y23000D02*
X22314Y23663D01*
X38059Y25630D02*
X38279Y25410D01*
X38000Y27000D02*
Y27906D01*
X38008Y27913D01*
X24596Y24232D02*
X25009Y24645D01*
X32884Y34803D02*
X33337D01*
X33602Y34537D01*
X23696Y25481D02*
X24192D01*
X23741Y25621D02*
X23927Y25807D01*
X23024Y25069D02*
Y25268D01*
X23824Y26068D02*
X24146D01*
X24199Y26122D01*
X23024Y25268D02*
X23824Y26068D01*
X20160Y19460D02*
Y19670D01*
X14900Y19170D02*
X15190D01*
X13420Y20650D02*
X14900Y19170D01*
X15190D02*
X15360Y19340D01*
X15470Y19450D01*
X15450Y18960D02*
X15680Y19190D01*
X16930Y20770D02*
X17700D01*
X16710Y20550D02*
X16930Y20770D01*
X17810Y20180D02*
X18680Y19310D01*
X16710Y20510D02*
Y20550D01*
X17070Y20330D02*
X17920D01*
X17120Y20180D02*
X17810D01*
X16150Y18880D02*
X17110Y19840D01*
X16190Y19450D02*
X17070Y20330D01*
X16130Y19190D02*
X17120Y20180D01*
X14910Y18960D02*
X15450D01*
X15630Y18720D02*
X15790Y18880D01*
X15000Y18720D02*
X15630D01*
X15790Y18880D02*
X16150D01*
X13270Y20600D02*
X14910Y18960D01*
X13418Y20650D02*
X13420D01*
X13238Y20830D02*
X13418Y20650D01*
X11970Y20820D02*
X11980Y20830D01*
X12230Y20600D02*
X13270D01*
X11980Y20830D02*
X13238D01*
X15470Y19450D02*
X16190D01*
X15680Y19190D02*
X16130D01*
X35370Y34050D02*
X35450D01*
D59*
X41000Y14000D02*
X41345Y14345D01*
X44300Y17950D02*
Y20100D01*
X45000Y14000D02*
Y15710D01*
X45210Y15920D01*
Y17040D01*
X44300Y17950D02*
X45210Y17040D01*
X44300Y20100D02*
X44530Y20330D01*
X24910Y32150D02*
X24920Y32160D01*
X24160Y19220D02*
X25670D01*
X23060D02*
X24160D01*
X25670D02*
X25760Y19130D01*
X22975Y19305D02*
X23060Y19220D01*
X20305Y19305D02*
X22975D01*
X31790Y18640D02*
Y18820D01*
X20050Y19050D02*
X20305Y19305D01*
X19600Y19050D02*
X20050D01*
X19505Y19145D02*
X19600Y19050D01*
X18500Y19145D02*
X19505D01*
X18290Y19320D02*
X18315Y19295D01*
X18350D01*
X18500Y19145D01*
X42796Y36292D02*
X43750Y35338D01*
Y35100D02*
Y35338D01*
X42043Y35540D02*
X42796Y36292D01*
X41314Y35540D02*
X42043D01*
X39890Y34116D02*
X41314Y35540D01*
X39890Y32123D02*
Y34116D01*
D60*
X21610Y18440D02*
X21618Y18428D01*
X21610Y18440D02*
X21617Y18430D01*
X11560Y18050D02*
Y18270D01*
X16010Y17670D02*
X16170Y17850D01*
X17110Y18440D02*
X17242Y18241D01*
X17247Y18233D01*
X20410Y14370D02*
X20630D01*
X31750Y14120D02*
Y14340D01*
X16090Y13940D02*
Y14360D01*
Y13940D02*
X17015Y13015D01*
X37028Y25630D02*
Y27894D01*
X31380Y18310D02*
X32230D01*
X37008Y27913D02*
X37028Y27894D01*
X36400Y28521D02*
X37008Y27913D01*
X36400Y28521D02*
Y28718D01*
Y29618D02*
X37712Y30930D01*
X36400Y28718D02*
Y29618D01*
X40320Y31550D02*
X40930Y32160D01*
X39250Y31550D02*
X40320D01*
X38630Y30930D02*
X39250Y31550D01*
X17050Y34000D02*
X17300Y33750D01*
X17000Y34000D02*
X17050D01*
X19640Y31070D02*
X20000Y31000D01*
X16170Y17850D02*
X18070D01*
X17000Y13000D02*
X17052D01*
X20090Y14110D02*
X20710Y13490D01*
X19430Y14110D02*
X20090D01*
X18920Y14620D02*
X19430Y14110D01*
X19930Y13780D02*
X20710Y13000D01*
X19230Y13780D02*
X19930D01*
X18575Y14435D02*
X19230Y13780D01*
X17000Y13000D02*
X17015Y13015D01*
X20710Y13000D02*
X21000D01*
X21510Y13490D02*
X22000Y13000D01*
X20710Y13490D02*
X21510D01*
X24878Y13452D02*
X25000Y13330D01*
Y13000D02*
Y13330D01*
X22280Y13860D02*
X23140Y13000D01*
X25000D01*
X21140Y13860D02*
X22280D01*
X20630Y14370D02*
X21140Y13860D01*
X16080Y14370D02*
X16090Y14360D01*
X15780Y14370D02*
X16080D01*
X17052Y13000D02*
X18635Y11417D01*
X19760D01*
X17642D02*
Y11538D01*
X16970Y12210D02*
X17642Y11538D01*
X16680Y12210D02*
X16970D01*
X16380Y12510D02*
X16680Y12210D01*
X16000Y13000D02*
X16380Y12620D01*
Y12510D02*
Y12620D01*
X15220Y13460D02*
X15680Y13000D01*
X16000D01*
X15008Y12560D02*
X15333Y12235D01*
X16642Y11417D02*
Y11778D01*
X16185Y12235D02*
X16642Y11778D01*
X15333Y12235D02*
X16185D01*
X15000Y12560D02*
X15008D01*
X15000D02*
Y13000D01*
X14090Y13910D02*
X15000Y13000D01*
X14000Y12610D02*
X14380Y12230D01*
X14000Y12610D02*
Y13000D01*
X15642Y11417D02*
Y11488D01*
X14900Y12230D02*
X15642Y11488D01*
X14380Y12230D02*
X14900D01*
X12380Y13680D02*
X14150Y11910D01*
X14642Y11417D02*
Y11508D01*
X14240Y11910D02*
X14642Y11508D01*
X14150Y11910D02*
X14240D01*
X13570Y13910D02*
X14000Y13480D01*
X14090Y13910D02*
Y16815D01*
X14000Y13000D02*
Y13480D01*
X15040Y13460D02*
X15220D01*
X14410Y14090D02*
X15040Y13460D01*
X14410Y14090D02*
Y16690D01*
X13570Y13910D02*
Y14300D01*
X11060Y13680D02*
X12380D01*
X10740Y14000D02*
X11060Y13680D01*
X23275Y16515D02*
X24325Y15465D01*
X23590Y16710D02*
X24525Y15775D01*
X25700D01*
X24325Y15465D02*
X25829D01*
X25834Y15470D01*
X25700Y15775D02*
X25725Y15800D01*
X32500Y13000D02*
Y13280D01*
Y12620D02*
Y13000D01*
Y12620D02*
X32540Y12580D01*
X32230Y18310D02*
X33230Y17310D01*
X32500Y13280D02*
X33060Y13840D01*
X31410Y12480D02*
X31640Y12250D01*
X31000Y12890D02*
X31410Y12480D01*
X31000Y12890D02*
Y13000D01*
X32715Y14465D02*
Y16435D01*
Y14435D02*
Y14465D01*
X31250Y13000D02*
X32715Y14465D01*
X31000Y13000D02*
X31250D01*
X30000D02*
X30030D01*
X30000D02*
X30520Y13520D01*
X31150D01*
X31750Y14120D01*
X20780Y17910D02*
X22510D01*
X23275Y16515D02*
Y17145D01*
X23590Y16710D02*
Y17310D01*
X32915Y16635D02*
Y17145D01*
X32715Y16435D02*
X32915Y16635D01*
X33230Y16490D02*
Y17310D01*
X33060Y16320D02*
X33230Y16490D01*
X33060Y13840D02*
Y16320D01*
X32150Y17910D02*
X32915Y17145D01*
X21824Y18310D02*
X22590D01*
X22510Y17910D02*
X23275Y17145D01*
X22590Y18310D02*
X23590Y17310D01*
X14600Y16880D02*
Y17648D01*
X14410Y16690D02*
X14600Y16880D01*
X14285Y17963D02*
X14600Y17648D01*
X14285Y17963D02*
Y17965D01*
X14090Y16815D02*
X14285Y17010D01*
Y17525D01*
X13560Y18250D02*
X14285Y17525D01*
X12875Y18250D02*
X13560D01*
X12870Y18245D02*
X12875Y18250D01*
X11585Y18245D02*
X12870D01*
X11560Y18270D02*
X11585Y18245D01*
X13690Y18560D02*
X14285Y17965D01*
X18775Y16635D02*
Y17145D01*
X18575Y16435D02*
X18775Y16635D01*
X18575Y14435D02*
Y16435D01*
X19090Y16490D02*
Y17310D01*
X18920Y16320D02*
X19090Y16490D01*
X18920Y14620D02*
Y16320D01*
X18090Y18310D02*
X19090Y17310D01*
X17324Y18310D02*
X18090D01*
X10740Y14290D02*
X10820Y14370D01*
X10740Y14000D02*
Y14290D01*
X12740Y18560D02*
X13690D01*
X12520D02*
X12740D01*
X18110Y34000D02*
X18488Y33622D01*
X18000Y34000D02*
X18110D01*
X24878Y13452D02*
Y14173D01*
X22087Y34000D02*
X22622Y33465D01*
X18070Y17850D02*
X18775Y17145D01*
X40930Y32160D02*
X42460D01*
X37712Y30930D02*
X38630D01*
X17660Y18670D02*
Y18770D01*
X17770Y18880D01*
X13130Y18920D02*
Y19070D01*
X13210Y19150D01*
X31300Y18230D02*
X31380Y18310D01*
Y18460D01*
X30300Y17910D02*
X32150D01*
X30119Y17729D02*
X30260Y17870D01*
X30300Y17910D01*
X13195Y14675D02*
X13570Y14300D01*
X10600Y14370D02*
X10820D01*
X21747Y18233D02*
X21824Y18310D01*
X25725Y15800D02*
X26870D01*
X32540Y12580D02*
X32755Y12365D01*
X17247Y18233D02*
X17324Y18310D01*
X30030Y13000D02*
X30550Y12480D01*
X25834Y15470D02*
X26460D01*
X26500D01*
X20520Y17650D02*
X20780Y17910D01*
X26500Y15470D02*
X26700Y15270D01*
D61*
X49984Y35115D02*
Y35115D01*
Y35055D02*
Y35115D01*
X49955Y12553D02*
X50824Y13422D01*
X49913Y12511D02*
X49955Y12553D01*
X48470Y11069D02*
X48513Y11111D01*
X47651Y10249D02*
X48470Y11069D01*
X11772Y34778D02*
Y34787D01*
Y34085D02*
Y34778D01*
X12553Y11069D02*
X13373Y10249D01*
X12511Y11111D02*
X12553Y11069D01*
X11069Y12553D02*
X11111Y12511D01*
X34990Y31366D02*
X36100D01*
X38008Y28726D02*
X39311Y30030D01*
X38008Y27913D02*
Y28726D01*
X37028Y27894D02*
X37059Y27862D01*
X38057Y22407D02*
Y22717D01*
X37950Y22300D02*
X38057Y22407D01*
X35000Y31376D02*
Y32000D01*
X36100Y31366D02*
X36746D01*
X37503Y32123D01*
X39890D01*
X12561Y30510D02*
X13642Y29429D01*
X11907Y30510D02*
X12561D01*
X10307Y32493D02*
X11180Y31620D01*
X10307Y32493D02*
Y33067D01*
X10640Y33400D01*
X11180Y31620D02*
X11214D01*
X50824Y13422D02*
Y13976D01*
X50745Y14055D02*
X50824Y13976D01*
X50207Y14055D02*
X50745D01*
X49984Y35055D02*
X50824Y34216D01*
X11772Y34787D02*
X11811Y34827D01*
X11907Y30510D02*
Y30927D01*
X11214Y31620D02*
X11907Y30927D01*
X10640Y33400D02*
X11777D01*
X11907Y33270D01*
Y33949D01*
X11772Y34085D02*
X11907Y33949D01*
X13373Y10249D02*
X47651D01*
X11907Y30510D02*
Y30510D01*
X50824Y13976D02*
Y18950D01*
Y34216D01*
X40250Y11254D02*
X41590D01*
X34990Y31366D02*
X35000Y31376D01*
D62*
X20910Y20140D02*
X21160D01*
X31790Y18870D02*
X31800Y18880D01*
X31790Y18820D02*
Y18870D01*
X31800Y18650D02*
Y18880D01*
X31790Y18640D02*
X31800Y18650D01*
D63*
X21610Y18440D02*
X21742Y18241D01*
X21747Y18233D01*
X31700Y21800D02*
X31900Y22000D01*
X32000Y24000D02*
Y24400D01*
X31700Y26750D02*
X31950Y27000D01*
X42540Y14000D02*
X43000D01*
X42530Y14010D02*
X42540Y14000D01*
X50210Y18940D02*
X50814D01*
X50824Y18950D01*
D64*
X30520Y19130D02*
X31280Y19890D01*
X28380Y19130D02*
X30520D01*
X31280Y19890D02*
X31290Y19900D01*
X31270D02*
Y20110D01*
Y19900D02*
X31280Y19890D01*
X25760Y19130D02*
X25934D01*
X26189D02*
X28380D01*
X26186Y19133D02*
X26189Y19130D01*
X25937Y19133D02*
X26186D01*
X25934Y19130D02*
X25937Y19133D01*
X31130Y21020D02*
X31290Y20860D01*
X30220Y21020D02*
X31130D01*
X31290Y19900D02*
Y20860D01*
D66*
X43200Y21380D02*
X44515D01*
X44540Y21405D01*
X45580D01*
D68*
X45270Y26680D02*
X45700D01*
X44540D02*
X45270D01*
X45700D02*
X46370Y27350D01*
X43200Y26680D02*
X44540D01*
X46370Y27350D02*
Y28695D01*
D70*
X38410Y12640D02*
Y12950D01*
X38550Y13090D01*
X46370Y18945D02*
X49550D01*
D73*
X27740Y31690D02*
D03*
Y35440D02*
D03*
D74*
Y32690D02*
D03*
X28740Y31690D02*
D03*
Y32690D02*
D03*
X29740Y31690D02*
D03*
Y32690D02*
D03*
X30740Y31690D02*
D03*
Y32690D02*
D03*
X31740Y31690D02*
D03*
Y32690D02*
D03*
X27740Y36440D02*
D03*
X28740Y35440D02*
D03*
Y36440D02*
D03*
X29740Y35440D02*
D03*
Y36440D02*
D03*
X30740Y35440D02*
D03*
Y36440D02*
D03*
X31740Y35440D02*
D03*
Y36440D02*
D03*
X34397Y33057D02*
D03*
Y34057D02*
D03*
Y35057D02*
D03*
Y36057D02*
D03*
D75*
X43200Y21380D02*
D03*
X44540D02*
D03*
Y26680D02*
D03*
X43200D02*
D03*
X41590Y11254D02*
D03*
X40250D02*
D03*
Y16554D02*
D03*
X41590D02*
D03*
X44490Y16550D02*
D03*
X43150D02*
D03*
Y11250D02*
D03*
X44490D02*
D03*
D76*
X36057Y22717D02*
D03*
X38057D02*
D03*
D77*
X33000Y11421D02*
D03*
X32000D02*
D03*
X31000D02*
D03*
X30000D02*
D03*
X27878Y14173D02*
D03*
X26878D02*
D03*
X25878D02*
D03*
X24878D02*
D03*
X27878Y11417D02*
D03*
X26878D02*
D03*
X25878D02*
D03*
X24878D02*
D03*
X24622Y35827D02*
D03*
X23622D02*
D03*
X22622D02*
D03*
X18488D02*
D03*
X19488D02*
D03*
X20488D02*
D03*
X16354D02*
D03*
X15354D02*
D03*
X14354D02*
D03*
X37059Y25630D02*
D03*
X38059D02*
D03*
X22760Y11417D02*
D03*
X21760D02*
D03*
X20760D02*
D03*
X19760D02*
D03*
X20488Y33465D02*
D03*
X19488D02*
D03*
X18488D02*
D03*
X22622D02*
D03*
X23622D02*
D03*
X24622D02*
D03*
X16354D02*
D03*
X15354D02*
D03*
X14354D02*
D03*
X17642Y11417D02*
D03*
X16642D02*
D03*
X15642D02*
D03*
X14642D02*
D03*
D78*
X10927Y32780D02*
D03*
Y31000D02*
D03*
D79*
X11907Y33270D02*
D03*
Y30510D02*
D03*
D80*
X12598Y22827D02*
D03*
Y27559D02*
D03*
D81*
X13668Y24697D02*
D03*
Y25689D02*
D03*
X14458D02*
D03*
Y24697D02*
D03*
D82*
X21421Y29676D02*
D03*
Y30676D02*
D03*
X22421Y29676D02*
D03*
Y30676D02*
D03*
X23421Y29676D02*
D03*
Y30676D02*
D03*
X15695Y29676D02*
D03*
Y30676D02*
D03*
X16695Y29676D02*
D03*
Y30676D02*
D03*
X17695Y29676D02*
D03*
Y30676D02*
D03*
D83*
X33504Y27217D02*
D03*
Y28217D02*
D03*
Y24106D02*
D03*
Y25106D02*
D03*
X34990Y31370D02*
D03*
Y30370D02*
D03*
X33504Y20996D02*
D03*
Y21996D02*
D03*
D84*
X35613Y33057D02*
D03*
Y34057D02*
D03*
Y35057D02*
D03*
Y36057D02*
D03*
Y37057D02*
D03*
D85*
X34397D02*
D03*
D86*
X46370Y31945D02*
D03*
Y28695D02*
D03*
Y25445D02*
D03*
Y22195D02*
D03*
Y18945D02*
D03*
Y15695D02*
D03*
D87*
X50207Y14055D02*
D03*
D88*
X23799Y25197D02*
D03*
X37389Y19029D02*
D03*
X36989D02*
D03*
X37789D02*
D03*
X38189D02*
D03*
Y18629D02*
D03*
Y18229D02*
D03*
X37789D02*
D03*
Y18629D02*
D03*
X37389D02*
D03*
Y18229D02*
D03*
X36989D02*
D03*
Y18629D02*
D03*
Y19429D02*
D03*
Y19829D02*
D03*
X37389D02*
D03*
Y19429D02*
D03*
X37789D02*
D03*
Y19829D02*
D03*
X38189D02*
D03*
Y19429D02*
D03*
X17800Y27100D02*
D03*
Y27474D02*
D03*
X17423Y27478D02*
D03*
X17428Y27100D02*
D03*
X17426Y26716D02*
D03*
X17800Y26726D02*
D03*
X18174D02*
D03*
Y27100D02*
D03*
Y27474D02*
D03*
X41661Y28128D02*
D03*
X42061D02*
D03*
Y28528D02*
D03*
X41661D02*
D03*
Y28928D02*
D03*
X42061D02*
D03*
Y29328D02*
D03*
X41661D02*
D03*
X40861D02*
D03*
X40461D02*
D03*
Y28928D02*
D03*
X40861D02*
D03*
Y28528D02*
D03*
X40461D02*
D03*
Y28128D02*
D03*
X40861D02*
D03*
X41261D02*
D03*
Y28528D02*
D03*
Y29328D02*
D03*
Y28928D02*
D03*
X41553Y33372D02*
D03*
X41947D02*
D03*
X42341D02*
D03*
Y33766D02*
D03*
Y34159D02*
D03*
X41947D02*
D03*
X41553D02*
D03*
Y33766D02*
D03*
X41947D02*
D03*
X12500Y32000D02*
D03*
X13500Y37000D02*
D03*
X49500Y33000D02*
D03*
Y25500D02*
D03*
Y24000D02*
D03*
Y22500D02*
D03*
Y21000D02*
D03*
Y19500D02*
D03*
Y18000D02*
D03*
Y16500D02*
D03*
Y15000D02*
D03*
Y13500D02*
D03*
X48000Y34500D02*
D03*
Y31500D02*
D03*
Y30000D02*
D03*
Y24000D02*
D03*
Y19500D02*
D03*
Y18000D02*
D03*
X46500Y36000D02*
D03*
Y34500D02*
D03*
X45000Y31500D02*
D03*
X43500D02*
D03*
X42000Y21000D02*
D03*
Y19500D02*
D03*
X39000Y24000D02*
D03*
X37500Y31500D02*
D03*
X36000Y24000D02*
D03*
X10500Y31500D02*
D03*
X45000Y29500D02*
D03*
X43000Y28000D02*
D03*
Y29000D02*
D03*
X44000D02*
D03*
Y30000D02*
D03*
Y31000D02*
D03*
X43000D02*
D03*
Y30000D02*
D03*
X42000D02*
D03*
Y31000D02*
D03*
X41000D02*
D03*
Y30000D02*
D03*
X40000D02*
D03*
X38470Y20930D02*
D03*
X37660D02*
D03*
X37650Y20290D02*
D03*
X38500Y20270D02*
D03*
X36880Y20290D02*
D03*
X34780Y18360D02*
D03*
X34890Y16130D02*
D03*
X34320Y15520D02*
D03*
X34330Y16610D02*
D03*
Y17460D02*
D03*
X39660Y14160D02*
D03*
X39480Y11254D02*
D03*
X42130Y12880D02*
D03*
X41590Y12190D02*
D03*
X40280D02*
D03*
X40910Y11260D02*
D03*
X39060Y16020D02*
D03*
X36570Y15560D02*
D03*
X38688Y14573D02*
D03*
Y14219D02*
D03*
Y13864D02*
D03*
X38268Y14573D02*
D03*
X39044Y14627D02*
D03*
X42580Y11250D02*
D03*
X43140Y12190D02*
D03*
X44490Y12060D02*
D03*
X43840Y11250D02*
D03*
X45500Y11600D02*
D03*
X46210Y12150D02*
D03*
X46830Y11600D02*
D03*
X44630Y13390D02*
D03*
X43160Y14620D02*
D03*
X43510Y13600D02*
D03*
X43190Y15570D02*
D03*
X44460Y15530D02*
D03*
X43830Y16550D02*
D03*
X43810Y17300D02*
D03*
X47550Y13510D02*
D03*
X46210Y12610D02*
D03*
X45560Y13230D02*
D03*
X46210Y13820D02*
D03*
X47320Y15690D02*
D03*
X45540Y15250D02*
D03*
X46400Y14740D02*
D03*
X46380Y16650D02*
D03*
X47760Y16190D02*
D03*
X46090Y17820D02*
D03*
X45090Y18380D02*
D03*
X45140Y17810D02*
D03*
X45180Y18760D02*
D03*
X41340Y14350D02*
D03*
X41620Y17570D02*
D03*
X42110Y17400D02*
D03*
X42500Y17780D02*
D03*
X39610Y17450D02*
D03*
X42400Y18380D02*
D03*
X42510Y18980D02*
D03*
X41580Y15580D02*
D03*
X40250Y15570D02*
D03*
X40280Y17580D02*
D03*
X40930Y16570D02*
D03*
X40940Y19740D02*
D03*
X46210Y20350D02*
D03*
X44090Y23000D02*
D03*
X47960Y21630D02*
D03*
X46370Y21190D02*
D03*
X45450Y22170D02*
D03*
X46380Y23090D02*
D03*
X47290Y22200D02*
D03*
X47740Y22720D02*
D03*
X47760Y20520D02*
D03*
X44530Y20330D02*
D03*
X45370Y21390D02*
D03*
X44530Y22390D02*
D03*
X43440D02*
D03*
X43860Y21360D02*
D03*
X43210Y20350D02*
D03*
X42480Y21370D02*
D03*
X47170Y27810D02*
D03*
X45550Y27800D02*
D03*
X47040Y26520D02*
D03*
X48000Y27590D02*
D03*
X48010Y28370D02*
D03*
X47340Y28670D02*
D03*
X46380Y29660D02*
D03*
Y27750D02*
D03*
X45270Y26680D02*
D03*
X43880Y27390D02*
D03*
X43870Y26670D02*
D03*
X44550Y25490D02*
D03*
X43200Y25480D02*
D03*
X42640Y25740D02*
D03*
X42490Y26670D02*
D03*
X36100Y31366D02*
D03*
X32470Y30660D02*
D03*
X32090D02*
D03*
X14483Y32013D02*
D03*
X13400Y30480D02*
D03*
X19640Y31070D02*
D03*
X27106Y29061D02*
D03*
X27680Y34510D02*
D03*
X27630Y34060D02*
D03*
X20350Y28660D02*
D03*
X27180Y31260D02*
D03*
X29830Y29590D02*
D03*
X37450Y12730D02*
D03*
X37440Y13390D02*
D03*
X20810Y12480D02*
D03*
X31270Y20110D02*
D03*
X32540Y12560D02*
D03*
X27962Y18795D02*
D03*
X27774Y18311D02*
D03*
X26042Y18312D02*
D03*
X31650Y21800D02*
D03*
X27860Y16580D02*
D03*
X24790Y21480D02*
D03*
X25380D02*
D03*
X31820Y34060D02*
D03*
X32150Y34310D02*
D03*
X20942Y26929D02*
D03*
X20315Y25079D02*
D03*
X20832Y24562D02*
D03*
X17970Y25470D02*
D03*
X18290Y25710D02*
D03*
X38550Y13391D02*
D03*
X40760Y31380D02*
D03*
X42220Y32580D02*
D03*
X43290Y32040D02*
D03*
X40820Y34650D02*
D03*
X42670Y34480D02*
D03*
X43886Y35616D02*
D03*
X44140Y31380D02*
D03*
X42255D02*
D03*
X38485D02*
D03*
X31410Y12480D02*
D03*
X21470D02*
D03*
X17470Y28760D02*
D03*
X14380Y29370D02*
D03*
X17300Y33750D02*
D03*
X24596Y24232D02*
D03*
X30000Y23100D02*
D03*
X24449Y24833D02*
D03*
X26214Y22963D02*
D03*
X27087Y27480D02*
D03*
X26811Y23071D02*
D03*
X27283Y22756D02*
D03*
X27362Y23819D02*
D03*
X27362Y24331D02*
D03*
X27361Y27826D02*
D03*
X37848Y14573D02*
D03*
X37428Y14573D02*
D03*
Y14219D02*
D03*
Y13864D02*
D03*
X31496Y22913D02*
D03*
X43750Y35100D02*
D03*
X40750Y26782D02*
D03*
X39726Y26978D02*
D03*
Y27372D02*
D03*
X40080Y26782D02*
D03*
Y27569D02*
D03*
Y27175D02*
D03*
X40513Y26545D02*
D03*
X41025D02*
D03*
X41734Y26782D02*
D03*
X41498Y26545D02*
D03*
X41261Y26782D02*
D03*
X39456Y18793D02*
D03*
Y18281D02*
D03*
X38525Y36930D02*
D03*
X36640D02*
D03*
X40410D02*
D03*
X42295D02*
D03*
X44180D02*
D03*
X36640Y34120D02*
D03*
Y32660D02*
D03*
X44550Y34115D02*
D03*
X37205Y30906D02*
D03*
X36640Y35580D02*
D03*
X43380Y36280D02*
D03*
X42796Y36292D02*
D03*
X44550Y35710D02*
D03*
X28701Y24636D02*
D03*
X18110Y29173D02*
D03*
X20758Y28238D02*
D03*
X20453Y27077D02*
D03*
X15718Y25315D02*
D03*
X15955Y26211D02*
D03*
X17254Y22077D02*
D03*
X16604Y25531D02*
D03*
X15551Y22579D02*
D03*
X24488Y26614D02*
D03*
X24115Y26999D02*
D03*
X28514Y23957D02*
D03*
X32244Y28799D02*
D03*
X23366Y28238D02*
D03*
X28248Y24508D02*
D03*
X31240Y27687D02*
D03*
X22264Y27274D02*
D03*
X18376Y29449D02*
D03*
X26062Y18833D02*
D03*
X27853Y17052D02*
D03*
X21753Y24214D02*
D03*
X21614Y26929D02*
D03*
X31339Y25039D02*
D03*
X19125Y25759D02*
D03*
X19477Y28472D02*
D03*
X26052Y17800D02*
D03*
X18041Y22411D02*
D03*
Y22028D02*
D03*
X14882Y30591D02*
D03*
X15807Y28150D02*
D03*
X19124Y27205D02*
D03*
X32402Y28189D02*
D03*
X31024Y28150D02*
D03*
X30945Y25787D02*
D03*
X30787Y27598D02*
D03*
X26800Y17731D02*
D03*
X27971Y17800D02*
D03*
X26800Y18823D02*
D03*
X30945Y24921D02*
D03*
X22441Y27677D02*
D03*
X21811Y22480D02*
D03*
X20630Y24911D02*
D03*
X21890Y27244D02*
D03*
X20251Y26238D02*
D03*
X21500Y22810D02*
D03*
X26368Y21478D02*
D03*
X30789Y29014D02*
D03*
X30945Y26693D02*
D03*
X30787Y27106D02*
D03*
X27117Y29446D02*
D03*
X21712Y23810D02*
D03*
X24045Y23829D02*
D03*
X21772Y24606D02*
D03*
X24754Y25335D02*
D03*
X22447Y25709D02*
D03*
X22314Y23663D02*
D03*
X24163Y23120D02*
D03*
X22314Y24686D02*
D03*
X24488Y23533D02*
D03*
X23583Y27362D02*
D03*
X23543Y26653D02*
D03*
X24055Y26339D02*
D03*
X24596Y22854D02*
D03*
X25710Y22570D02*
D03*
X24744Y26122D02*
D03*
X26251Y27521D02*
D03*
X23953Y27360D02*
D03*
X25689Y23071D02*
D03*
X24419Y25709D02*
D03*
X33937Y29331D02*
D03*
X39880Y24950D02*
D03*
X41258Y25617D02*
D03*
X40090Y24190D02*
D03*
X40110Y25617D02*
D03*
X41114Y24190D02*
D03*
X41625D02*
D03*
X40602D02*
D03*
X40684Y25617D02*
D03*
X32000Y24400D02*
D03*
X31700Y26750D02*
D03*
X17579Y25463D02*
D03*
X18032Y23740D02*
D03*
X18022Y24134D02*
D03*
X18400Y23300D02*
D03*
X21400Y23470D02*
D03*
X18310Y24590D02*
D03*
X15000Y26430D02*
D03*
X14720Y27150D02*
D03*
X29570Y12480D02*
D03*
X29230Y12160D02*
D03*
X19910Y12470D02*
D03*
X29950D02*
D03*
X31990Y12480D02*
D03*
X34449Y28937D02*
D03*
X32884Y34803D02*
D03*
X39498Y29409D02*
D03*
X16752Y25955D02*
D03*
X14468Y30600D02*
D03*
X14675Y21850D02*
D03*
X10778Y21870D02*
D03*
X11526Y27943D02*
D03*
X23927Y25807D02*
D03*
X21794Y22103D02*
D03*
X36730Y17350D02*
D03*
X39456Y19266D02*
D03*
X42530Y14010D02*
D03*
X41420Y19380D02*
D03*
X40490Y19360D02*
D03*
X40480Y18860D02*
D03*
X41430Y18850D02*
D03*
X40480Y18260D02*
D03*
X41810Y25600D02*
D03*
X41870Y24960D02*
D03*
X38550Y13090D02*
D03*
X37440D02*
D03*
X37780Y12490D02*
D03*
X38890Y12450D02*
D03*
X36160Y10750D02*
D03*
X35090Y10740D02*
D03*
X36110Y11330D02*
D03*
X35160Y11340D02*
D03*
X35100Y11840D02*
D03*
X36160Y11860D02*
D03*
X35970Y14370D02*
D03*
X34900Y14350D02*
D03*
X35920Y14950D02*
D03*
X34970Y14960D02*
D03*
X34910Y15470D02*
D03*
X35970Y15480D02*
D03*
X38470Y11010D02*
D03*
X37360D02*
D03*
X38950D02*
D03*
X37360Y11990D02*
D03*
Y11520D02*
D03*
X37930Y11010D02*
D03*
X36100Y12797D02*
D03*
X35160Y12787D02*
D03*
X36110Y13377D02*
D03*
X35160Y13387D02*
D03*
X35170Y13887D02*
D03*
X36100Y13907D02*
D03*
X37660Y16370D02*
D03*
X42080Y21405D02*
D03*
X25470Y20440D02*
D03*
X25150D02*
D03*
X30400Y22820D02*
D03*
X30394Y23396D02*
D03*
X39710Y19020D02*
D03*
Y18530D02*
D03*
X44550Y32520D02*
D03*
X45000Y33000D02*
D03*
X46370Y30960D02*
D03*
X45470Y31940D02*
D03*
X46370Y32920D02*
D03*
X45460Y25450D02*
D03*
X46370Y24520D02*
D03*
X47280Y25440D02*
D03*
X47340Y18960D02*
D03*
X46380Y19820D02*
D03*
X45440Y19070D02*
D03*
X36550Y17690D02*
D03*
X36700Y16950D02*
D03*
X40530Y15150D02*
D03*
X50020Y27380D02*
D03*
X50000Y30410D02*
D03*
X21670Y36990D02*
D03*
X32930D02*
D03*
X35590Y29590D02*
D03*
X33950Y19720D02*
D03*
X34630Y19410D02*
D03*
X34860Y20810D02*
D03*
X34660Y23060D02*
D03*
X34670Y24600D02*
D03*
D89*
X30657Y16690D02*
D03*
X31523Y15391D02*
D03*
X31090D02*
D03*
X30657D02*
D03*
X31523Y15824D02*
D03*
X31090D02*
D03*
X30657D02*
D03*
X31523Y16257D02*
D03*
X31090D02*
D03*
X30657D02*
D03*
X31523Y16690D02*
D03*
X31090D02*
D03*
X21017D02*
D03*
X21883Y15391D02*
D03*
X21450D02*
D03*
X21017D02*
D03*
X21883Y15824D02*
D03*
X21450D02*
D03*
X21017D02*
D03*
X21883Y16257D02*
D03*
X21450D02*
D03*
X21017D02*
D03*
X21883Y16690D02*
D03*
X21450D02*
D03*
X16950D02*
D03*
X17383D02*
D03*
X16517Y16257D02*
D03*
X16950D02*
D03*
X17383D02*
D03*
X16517Y15824D02*
D03*
X16950D02*
D03*
X17383D02*
D03*
X16517Y15391D02*
D03*
X16950D02*
D03*
X17383D02*
D03*
X16517Y16690D02*
D03*
X12909Y17050D02*
D03*
Y16617D02*
D03*
X12476D02*
D03*
Y17050D02*
D03*
X12909Y16184D02*
D03*
X12476D02*
D03*
X12909Y15751D02*
D03*
X12476D02*
D03*
X12043Y16617D02*
D03*
Y17050D02*
D03*
Y15751D02*
D03*
Y16184D02*
D03*
X28983Y29630D02*
D03*
X32810Y30000D02*
D03*
X27880Y29040D02*
D03*
X28450D02*
D03*
X25750Y30740D02*
D03*
X25810Y30990D02*
D03*
X22930Y32240D02*
D03*
X24590Y32210D02*
D03*
X24120Y32240D02*
D03*
X18930Y30750D02*
D03*
X19030Y30220D02*
D03*
X24630Y30010D02*
D03*
X23510Y31580D02*
D03*
X24020Y31330D02*
D03*
X20450Y30980D02*
D03*
Y30410D02*
D03*
X17200Y32170D02*
D03*
X16823Y32153D02*
D03*
X17683Y32157D02*
D03*
X20240D02*
D03*
X19450D02*
D03*
X20990Y31600D02*
D03*
Y31990D02*
D03*
X22650Y31350D02*
D03*
X24920Y32160D02*
D03*
X25050Y31410D02*
D03*
X25420D02*
D03*
X23180Y31580D02*
D03*
X23510Y31970D02*
D03*
X21620Y32280D02*
D03*
X22120Y31210D02*
D03*
X25323Y30010D02*
D03*
X25758Y31378D02*
D03*
X27830Y29620D02*
D03*
X29040Y29050D02*
D03*
X28413Y29630D02*
D03*
X46830Y10910D02*
D03*
X47250Y12860D02*
D03*
X46950Y12540D02*
D03*
X10600Y15170D02*
D03*
X24160Y19220D02*
D03*
X16170Y17850D02*
D03*
X14630Y18330D02*
D03*
X31800Y18880D02*
D03*
X19420Y13440D02*
D03*
X19540Y12900D02*
D03*
X17740Y14380D02*
D03*
X22800Y14680D02*
D03*
X20630Y14370D02*
D03*
X20380D02*
D03*
X16090Y14360D02*
D03*
X15780Y14370D02*
D03*
X15000Y12560D02*
D03*
X13050Y13470D02*
D03*
X13620Y13280D02*
D03*
X16380Y12510D02*
D03*
X16110Y13450D02*
D03*
X15210Y13780D02*
D03*
X15040Y14060D02*
D03*
X14510Y12560D02*
D03*
X11810Y14320D02*
D03*
Y14010D02*
D03*
X13510Y14850D02*
D03*
X13500Y14470D02*
D03*
X13170Y14650D02*
D03*
X22030Y13490D02*
D03*
X18550Y13910D02*
D03*
X22690Y12490D02*
D03*
X19150Y13440D02*
D03*
X23330Y13650D02*
D03*
X23510Y13980D02*
D03*
X25570Y16090D02*
D03*
X26650Y15810D02*
D03*
X26880D02*
D03*
X31550Y19650D02*
D03*
X28380Y19130D02*
D03*
X30880Y12510D02*
D03*
X33410Y12940D02*
D03*
X32755Y12365D02*
D03*
X31640Y12250D02*
D03*
X30380Y12640D02*
D03*
X31750Y14120D02*
D03*
X19209Y20047D02*
D03*
X19050Y20340D02*
D03*
X20910Y20140D02*
D03*
X21160D02*
D03*
X23223Y18660D02*
D03*
X21410Y18700D02*
D03*
X19250Y18730D02*
D03*
X20150Y18050D02*
D03*
X20640Y17870D02*
D03*
X18670Y18600D02*
D03*
X24900Y16750D02*
D03*
X14180Y18870D02*
D03*
X17660Y18670D02*
D03*
X26480Y20380D02*
D03*
X29810Y19750D02*
D03*
X28820Y20220D02*
D03*
X29490D02*
D03*
X29950Y20240D02*
D03*
X32890Y18600D02*
D03*
X33610Y18160D02*
D03*
X32190Y14404D02*
D03*
X32014Y14880D02*
D03*
X30260Y17870D02*
D03*
X22374Y14880D02*
D03*
X22550Y14404D02*
D03*
X10710Y21020D02*
D03*
X27115Y20380D02*
D03*
X27440D02*
D03*
X27790D02*
D03*
X28120Y20700D02*
D03*
X30070Y14844D02*
D03*
X30130Y17280D02*
D03*
X32570Y16765D02*
D03*
X32380Y16101D02*
D03*
X22740D02*
D03*
X22930Y16765D02*
D03*
X27670Y21190D02*
D03*
X20490Y17280D02*
D03*
X15150Y15540D02*
D03*
Y15100D02*
D03*
X14800Y14830D02*
D03*
X13970Y17140D02*
D03*
X18430Y16765D02*
D03*
X17240Y18240D02*
D03*
X17110Y18440D02*
D03*
X18240Y16101D02*
D03*
X19690Y14830D02*
D03*
X20430Y14844D02*
D03*
X13750Y15000D02*
D03*
X18152Y18650D02*
D03*
X13130Y18920D02*
D03*
X13751Y16461D02*
D03*
X15990Y17280D02*
D03*
X10470Y16010D02*
D03*
X15550Y12550D02*
D03*
X17874Y14880D02*
D03*
X18190Y14660D02*
D03*
X15904Y14870D02*
D03*
X10820Y14370D02*
D03*
X10600D02*
D03*
X11560Y18050D02*
D03*
X12520Y18560D02*
D03*
X12740D02*
D03*
X30550Y12480D02*
D03*
X11430Y15230D02*
D03*
X11560Y18270D02*
D03*
X11530Y17700D02*
D03*
X13400Y15240D02*
D03*
X21740Y18240D02*
D03*
X21610Y18440D02*
D03*
X20520Y17650D02*
D03*
X30990Y20710D02*
D03*
X30480D02*
D03*
X31790Y18640D02*
D03*
X32120Y18770D02*
D03*
X23790Y18080D02*
D03*
X23020Y18350D02*
D03*
X22890Y18560D02*
D03*
X23650Y18660D02*
D03*
X23360Y21140D02*
D03*
X21600Y18910D02*
D03*
X22450D02*
D03*
X21970Y20070D02*
D03*
X19240Y15280D02*
D03*
X19290Y14810D02*
D03*
X22450Y21240D02*
D03*
X29130Y19740D02*
D03*
X19780Y19470D02*
D03*
X20160Y19670D02*
D03*
X19400Y19680D02*
D03*
X16010Y17670D02*
D03*
X15680Y19190D02*
D03*
X13210Y19150D02*
D03*
X13560Y18880D02*
D03*
X13640Y19110D02*
D03*
X22610Y21760D02*
D03*
X13810Y20950D02*
D03*
X14460Y20790D02*
D03*
X15360Y19340D02*
D03*
X15040Y19413D02*
D03*
X16710Y20510D02*
D03*
X18170Y18890D02*
D03*
X17770Y18880D02*
D03*
X18290Y19370D02*
D03*
X16380Y20210D02*
D03*
X16390Y20450D02*
D03*
X17650Y19650D02*
D03*
X17410Y19660D02*
D03*
X17110Y19840D02*
D03*
X15000Y18720D02*
D03*
X15940Y18330D02*
D03*
X12230Y20600D02*
D03*
X11970Y20820D02*
D03*
X11120Y20750D02*
D03*
X11480Y19780D02*
D03*
X12630Y19810D02*
D03*
X13850Y19380D02*
D03*
X12450Y20090D02*
D03*
X26060Y20250D02*
D03*
X19130Y12890D02*
D03*
X31750Y14340D02*
D03*
X32381Y14621D02*
D03*
X29090Y13600D02*
D03*
Y13850D02*
D03*
X30210Y19440D02*
D03*
X30810Y19960D02*
D03*
X30119Y17729D02*
D03*
X31300Y18230D02*
D03*
X31380Y18460D02*
D03*
X32310Y18630D02*
D03*
X28870Y21030D02*
D03*
X30220Y21020D02*
D03*
X28580Y16220D02*
D03*
X28590Y17340D02*
D03*
X29330Y15140D02*
D03*
X33410Y14260D02*
D03*
X23410Y15580D02*
D03*
X24120Y16800D02*
D03*
X17870Y13870D02*
D03*
X24260Y18370D02*
D03*
X30100Y18640D02*
D03*
X34120Y19060D02*
D03*
X32300Y13540D02*
D03*
X33940Y13410D02*
D03*
X39050Y20790D02*
D03*
X38590Y21410D02*
D03*
X37360Y21390D02*
D03*
X36780Y20800D02*
D03*
X36990Y17820D02*
D03*
X38340D02*
D03*
X43880Y28060D02*
D03*
X45140Y30170D02*
D03*
X40090Y30760D02*
D03*
X39590Y28060D02*
D03*
X44950Y31010D02*
D03*
X26690Y15300D02*
D03*
X26460Y15470D02*
D03*
D90*
X37530Y28789D02*
D03*
X37569Y30236D02*
D03*
X44000Y18730D02*
D03*
X43550D02*
D03*
X44880Y19730D02*
D03*
X39362Y21808D02*
D03*
X37126Y28789D02*
D03*
X37185Y29872D02*
D03*
X38110Y29537D02*
D03*
Y30236D02*
D03*
X37126Y29311D02*
D03*
X35020Y28031D02*
D03*
X35059Y26083D02*
D03*
X15797Y23140D02*
D03*
D91*
X36020Y18200D02*
D03*
X41830Y36140D02*
D03*
X41826Y34996D02*
D03*
X39890Y32123D02*
D03*
X13642Y29429D02*
D03*
X42460Y32160D02*
D03*
X36060Y17700D02*
D03*
X36050Y16730D02*
D03*
D92*
X39311Y30030D02*
D03*
D93*
X41130Y32600D02*
D03*
D111*
X37059Y24031D02*
Y25630D01*
Y24031D02*
X37925Y23165D01*
X37280Y22300D02*
X37950D01*
X36000Y21020D02*
X37280Y22300D01*
X37059Y25630D02*
Y27862D01*
X36000Y17700D02*
Y21020D01*
D116*
X21000Y23000D02*
D03*
X22000D02*
D03*
X21000Y24000D02*
D03*
X14000Y27000D02*
D03*
X15000Y26000D02*
D03*
X18000D02*
D03*
Y25000D02*
D03*
Y23000D02*
D03*
X39000Y25000D02*
D03*
X38000Y27000D02*
D03*
X48000Y29000D02*
D03*
Y33000D02*
D03*
Y27000D02*
D03*
Y31000D02*
D03*
X32000Y24000D02*
D03*
Y27000D02*
D03*
X40000Y22000D02*
D03*
X21000Y29000D02*
D03*
X22000D02*
D03*
X27000Y30000D02*
D03*
X23000Y29000D02*
D03*
X17000Y34000D02*
D03*
X18000D02*
D03*
X21000Y35000D02*
D03*
X22000Y34000D02*
D03*
X17000Y28000D02*
D03*
X16000Y29000D02*
D03*
X14000Y30000D02*
D03*
X17000Y29000D02*
D03*
X14000Y24000D02*
D03*
X13000Y25000D02*
D03*
X25000Y37000D02*
D03*
X20000Y31000D02*
D03*
X41000Y14000D02*
D03*
X43000D02*
D03*
X45000D02*
D03*
X38410Y12640D02*
D03*
D117*
X50210Y18940D02*
D03*
X49610D02*
D03*
D118*
X18632Y28794D02*
D03*
Y28194D02*
D03*
M02*
