G04 Layer_Physical_Order=1*
G04 Layer_Color=255*
%FSLAX24Y24*%
%MOIN*%
G70*
G01*
G75*
%ADD10C,0.0650*%
%ADD11C,0.0080*%
G04:AMPARAMS|DCode=12|XSize=22mil|YSize=24mil|CornerRadius=4.4mil|HoleSize=0mil|Usage=FLASHONLY|Rotation=90.000|XOffset=0mil|YOffset=0mil|HoleType=Round|Shape=RoundedRectangle|*
%AMROUNDEDRECTD12*
21,1,0.0220,0.0152,0,0,90.0*
21,1,0.0132,0.0240,0,0,90.0*
1,1,0.0088,0.0076,0.0066*
1,1,0.0088,0.0076,-0.0066*
1,1,0.0088,-0.0076,-0.0066*
1,1,0.0088,-0.0076,0.0066*
%
%ADD12ROUNDEDRECTD12*%
G04:AMPARAMS|DCode=13|XSize=22mil|YSize=24mil|CornerRadius=4.4mil|HoleSize=0mil|Usage=FLASHONLY|Rotation=0.000|XOffset=0mil|YOffset=0mil|HoleType=Round|Shape=RoundedRectangle|*
%AMROUNDEDRECTD13*
21,1,0.0220,0.0152,0,0,0.0*
21,1,0.0132,0.0240,0,0,0.0*
1,1,0.0088,0.0066,-0.0076*
1,1,0.0088,-0.0066,-0.0076*
1,1,0.0088,-0.0066,0.0076*
1,1,0.0088,0.0066,0.0076*
%
%ADD13ROUNDEDRECTD13*%
%ADD14R,0.0200X0.0260*%
%ADD15R,0.0551X0.1339*%
G04:AMPARAMS|DCode=16|XSize=50mil|YSize=50mil|CornerRadius=25mil|HoleSize=0mil|Usage=FLASHONLY|Rotation=90.000|XOffset=0mil|YOffset=0mil|HoleType=Round|Shape=RoundedRectangle|*
%AMROUNDEDRECTD16*
21,1,0.0500,0.0000,0,0,90.0*
21,1,0.0000,0.0500,0,0,90.0*
1,1,0.0500,0.0000,0.0000*
1,1,0.0500,0.0000,0.0000*
1,1,0.0500,0.0000,0.0000*
1,1,0.0500,0.0000,0.0000*
%
%ADD16ROUNDEDRECTD16*%
G04:AMPARAMS|DCode=17|XSize=29.1mil|YSize=39.4mil|CornerRadius=5.8mil|HoleSize=0mil|Usage=FLASHONLY|Rotation=0.000|XOffset=0mil|YOffset=0mil|HoleType=Round|Shape=RoundedRectangle|*
%AMROUNDEDRECTD17*
21,1,0.0291,0.0277,0,0,0.0*
21,1,0.0175,0.0394,0,0,0.0*
1,1,0.0117,0.0087,-0.0139*
1,1,0.0117,-0.0087,-0.0139*
1,1,0.0117,-0.0087,0.0139*
1,1,0.0117,0.0087,0.0139*
%
%ADD17ROUNDEDRECTD17*%
G04:AMPARAMS|DCode=18|XSize=63mil|YSize=71mil|CornerRadius=15.8mil|HoleSize=0mil|Usage=FLASHONLY|Rotation=90.000|XOffset=0mil|YOffset=0mil|HoleType=Round|Shape=RoundedRectangle|*
%AMROUNDEDRECTD18*
21,1,0.0630,0.0395,0,0,90.0*
21,1,0.0315,0.0710,0,0,90.0*
1,1,0.0315,0.0198,0.0158*
1,1,0.0315,0.0198,-0.0158*
1,1,0.0315,-0.0198,-0.0158*
1,1,0.0315,-0.0198,0.0158*
%
%ADD18ROUNDEDRECTD18*%
G04:AMPARAMS|DCode=19|XSize=29.1mil|YSize=39.4mil|CornerRadius=5.8mil|HoleSize=0mil|Usage=FLASHONLY|Rotation=270.000|XOffset=0mil|YOffset=0mil|HoleType=Round|Shape=RoundedRectangle|*
%AMROUNDEDRECTD19*
21,1,0.0291,0.0277,0,0,270.0*
21,1,0.0175,0.0394,0,0,270.0*
1,1,0.0117,-0.0139,-0.0087*
1,1,0.0117,-0.0139,0.0087*
1,1,0.0117,0.0139,0.0087*
1,1,0.0117,0.0139,-0.0087*
%
%ADD19ROUNDEDRECTD19*%
%ADD20R,0.0138X0.0236*%
G04:AMPARAMS|DCode=21|XSize=63mil|YSize=71mil|CornerRadius=15.8mil|HoleSize=0mil|Usage=FLASHONLY|Rotation=180.000|XOffset=0mil|YOffset=0mil|HoleType=Round|Shape=RoundedRectangle|*
%AMROUNDEDRECTD21*
21,1,0.0630,0.0395,0,0,180.0*
21,1,0.0315,0.0710,0,0,180.0*
1,1,0.0315,-0.0158,0.0198*
1,1,0.0315,0.0158,0.0198*
1,1,0.0315,0.0158,-0.0198*
1,1,0.0315,-0.0158,-0.0198*
%
%ADD21ROUNDEDRECTD21*%
%ADD22R,0.1417X0.1614*%
%ADD23O,0.0098X0.0335*%
%ADD24O,0.0335X0.0098*%
%ADD25R,0.1339X0.0551*%
%ADD26R,0.1700X0.1970*%
%ADD27R,0.0560X0.0280*%
G04:AMPARAMS|DCode=28|XSize=52mil|YSize=60mil|CornerRadius=13mil|HoleSize=0mil|Usage=FLASHONLY|Rotation=270.000|XOffset=0mil|YOffset=0mil|HoleType=Round|Shape=RoundedRectangle|*
%AMROUNDEDRECTD28*
21,1,0.0520,0.0340,0,0,270.0*
21,1,0.0260,0.0600,0,0,270.0*
1,1,0.0260,-0.0170,-0.0130*
1,1,0.0260,-0.0170,0.0130*
1,1,0.0260,0.0170,0.0130*
1,1,0.0260,0.0170,-0.0130*
%
%ADD28ROUNDEDRECTD28*%
%ADD29C,0.0600*%
%ADD30R,0.0354X0.1299*%
%ADD31R,0.0240X0.0240*%
%ADD32R,0.0600X0.0120*%
%ADD33R,0.0120X0.0600*%
%ADD34R,0.0480X0.0480*%
%ADD35R,0.0480X0.0480*%
G04:AMPARAMS|DCode=36|XSize=11mil|YSize=31.5mil|CornerRadius=4.4mil|HoleSize=0mil|Usage=FLASHONLY|Rotation=180.000|XOffset=0mil|YOffset=0mil|HoleType=Round|Shape=RoundedRectangle|*
%AMROUNDEDRECTD36*
21,1,0.0110,0.0227,0,0,180.0*
21,1,0.0022,0.0315,0,0,180.0*
1,1,0.0088,-0.0011,0.0113*
1,1,0.0088,0.0011,0.0113*
1,1,0.0088,0.0011,-0.0113*
1,1,0.0088,-0.0011,-0.0113*
%
%ADD36ROUNDEDRECTD36*%
G04:AMPARAMS|DCode=37|XSize=11mil|YSize=31.5mil|CornerRadius=4.4mil|HoleSize=0mil|Usage=FLASHONLY|Rotation=270.000|XOffset=0mil|YOffset=0mil|HoleType=Round|Shape=RoundedRectangle|*
%AMROUNDEDRECTD37*
21,1,0.0110,0.0227,0,0,270.0*
21,1,0.0022,0.0315,0,0,270.0*
1,1,0.0088,-0.0113,-0.0011*
1,1,0.0088,-0.0113,0.0011*
1,1,0.0088,0.0113,0.0011*
1,1,0.0088,0.0113,-0.0011*
%
%ADD37ROUNDEDRECTD37*%
%ADD38R,0.1370X0.1370*%
%ADD39R,0.0420X0.0520*%
%ADD40R,0.0280X0.0560*%
%ADD41R,0.1970X0.1700*%
G04:AMPARAMS|DCode=42|XSize=52mil|YSize=60mil|CornerRadius=13mil|HoleSize=0mil|Usage=FLASHONLY|Rotation=180.000|XOffset=0mil|YOffset=0mil|HoleType=Round|Shape=RoundedRectangle|*
%AMROUNDEDRECTD42*
21,1,0.0520,0.0340,0,0,180.0*
21,1,0.0260,0.0600,0,0,180.0*
1,1,0.0260,-0.0130,0.0170*
1,1,0.0260,0.0130,0.0170*
1,1,0.0260,0.0130,-0.0170*
1,1,0.0260,-0.0130,-0.0170*
%
%ADD42ROUNDEDRECTD42*%
%ADD43R,0.1260X0.0630*%
G04:AMPARAMS|DCode=44|XSize=40mil|YSize=40mil|CornerRadius=20mil|HoleSize=0mil|Usage=FLASHONLY|Rotation=0.000|XOffset=0mil|YOffset=0mil|HoleType=Round|Shape=RoundedRectangle|*
%AMROUNDEDRECTD44*
21,1,0.0400,0.0000,0,0,0.0*
21,1,0.0000,0.0400,0,0,0.0*
1,1,0.0400,0.0000,0.0000*
1,1,0.0400,0.0000,0.0000*
1,1,0.0400,0.0000,0.0000*
1,1,0.0400,0.0000,0.0000*
%
%ADD44ROUNDEDRECTD44*%
%ADD45R,0.0600X0.0240*%
%ADD46R,0.0790X0.0790*%
%ADD47R,0.0500X0.0150*%
%ADD48R,0.0280X0.0200*%
%ADD49R,0.0200X0.0280*%
%ADD50R,0.0543X0.0709*%
%ADD51R,0.0709X0.0543*%
%ADD52R,0.0433X0.0669*%
%ADD53R,0.0790X0.0790*%
%ADD54R,0.1673X0.0465*%
G04:AMPARAMS|DCode=55|XSize=105mil|YSize=105mil|CornerRadius=26.3mil|HoleSize=0mil|Usage=FLASHONLY|Rotation=180.000|XOffset=0mil|YOffset=0mil|HoleType=Round|Shape=RoundedRectangle|*
%AMROUNDEDRECTD55*
21,1,0.1050,0.0525,0,0,180.0*
21,1,0.0525,0.1050,0,0,180.0*
1,1,0.0525,-0.0263,0.0263*
1,1,0.0525,0.0263,0.0263*
1,1,0.0525,0.0263,-0.0263*
1,1,0.0525,-0.0263,-0.0263*
%
%ADD55ROUNDEDRECTD55*%
%ADD56R,0.0402X0.0118*%
%ADD57C,0.0120*%
%ADD58C,0.0200*%
%ADD59C,0.0070*%
%ADD60C,0.0300*%
%ADD61C,0.0240*%
%ADD62C,0.0160*%
%ADD63C,0.0100*%
%ADD64C,0.0400*%
%ADD65C,0.0360*%
%ADD66C,0.0500*%
%ADD67C,0.0700*%
%ADD68C,0.0140*%
%ADD69C,0.0320*%
%ADD70C,0.0250*%
%ADD71R,0.1299X0.1063*%
%ADD72R,0.1575X0.0984*%
%ADD73R,0.0591X0.0591*%
%ADD74C,0.0591*%
G04:AMPARAMS|DCode=75|XSize=133mil|YSize=83mil|CornerRadius=0mil|HoleSize=0mil|Usage=FLASHONLY|Rotation=90.000|XOffset=0mil|YOffset=0mil|HoleType=Round|Shape=Octagon|*
%AMOCTAGOND75*
4,1,8,0.0208,0.0665,-0.0208,0.0665,-0.0415,0.0458,-0.0415,-0.0458,-0.0208,-0.0665,0.0208,-0.0665,0.0415,-0.0458,0.0415,0.0458,0.0208,0.0665,0.0*
%
%ADD75OCTAGOND75*%

%ADD76O,0.0825X0.1650*%
%ADD77O,0.0600X0.1200*%
%ADD78P,0.0758X8X292.5*%
%ADD79C,0.1000*%
%ADD80C,0.1305*%
%ADD81C,0.0540*%
%ADD82P,0.0671X8X22.5*%
%ADD83O,0.1200X0.0600*%
%ADD84O,0.1024X0.0591*%
%ADD85R,0.0591X0.0591*%
%ADD86O,0.1300X0.1360*%
%ADD87C,0.0800*%
%ADD88C,0.0300*%
%ADD89C,0.0250*%
%ADD90C,0.0320*%
%ADD91C,0.0500*%
%ADD92C,0.0450*%
%ADD93C,0.0400*%
G36*
X30590Y17890D02*
Y17680D01*
X30594Y17660D01*
X30584Y17634D01*
X30570Y17610D01*
X30070D01*
X30040Y17640D01*
Y17810D01*
X30180Y17950D01*
X30530D01*
X30590Y17890D01*
D02*
G37*
G36*
X31512Y18447D02*
X31504Y18409D01*
Y18131D01*
X31514Y18081D01*
X31518Y18076D01*
Y17699D01*
X31369Y17550D01*
X31270D01*
Y17617D01*
X31275Y17622D01*
X31291Y17645D01*
X31296Y17672D01*
Y17925D01*
X31291Y17953D01*
X31275Y17976D01*
X31270Y17981D01*
Y17990D01*
X31134Y18126D01*
X31149Y18203D01*
Y18444D01*
X31289Y18584D01*
X31374D01*
X31512Y18447D01*
D02*
G37*
G36*
X21662Y18556D02*
X21668Y18552D01*
X21673Y18547D01*
X21682Y18541D01*
X21688Y18538D01*
X21694Y18534D01*
X21701Y18533D01*
X21708Y18530D01*
X21715D01*
X21722Y18529D01*
X21790D01*
X21878Y18440D01*
X21874Y18419D01*
Y18141D01*
X21880Y18112D01*
Y17701D01*
X21729Y17550D01*
X21630D01*
Y17617D01*
X21635Y17622D01*
X21651Y17645D01*
X21656Y17672D01*
Y17925D01*
X21651Y17953D01*
X21635Y17976D01*
X21630Y17981D01*
Y17990D01*
X21456Y18164D01*
X21466Y18211D01*
Y18489D01*
X21463Y18503D01*
X21474Y18514D01*
X21486Y18516D01*
X21551Y18559D01*
X21569Y18587D01*
X21626Y18592D01*
X21662Y18556D01*
D02*
G37*
G36*
X23037Y18593D02*
X23039Y18584D01*
X23082Y18519D01*
X23147Y18476D01*
X23150Y18476D01*
Y18310D01*
X22830Y17990D01*
Y17980D01*
Y17849D01*
X22817Y17837D01*
X22791Y17797D01*
X22790Y17795D01*
X22635Y17640D01*
X22480D01*
X22440Y17680D01*
Y18397D01*
X22553Y18510D01*
X22650D01*
X22800Y18660D01*
X22970D01*
X23037Y18593D01*
D02*
G37*
G36*
X12850Y19170D02*
Y18840D01*
X12810Y18800D01*
X12370D01*
X12300Y18730D01*
Y18610D01*
Y18460D01*
X12410Y18350D01*
X12520D01*
X12570Y18300D01*
Y18100D01*
Y17991D01*
X12504Y17926D01*
X12501Y17921D01*
X12340Y17760D01*
X12282Y17818D01*
X12280Y17830D01*
X12257Y17865D01*
X12089Y18033D01*
X12054Y18056D01*
X12047Y18057D01*
X12000Y18104D01*
Y18288D01*
Y18320D01*
Y18430D01*
X11970Y18460D01*
X11604D01*
X11599Y18461D01*
X11490Y18570D01*
Y19010D01*
X11680Y19200D01*
X12800D01*
X12810Y19210D01*
X12850Y19170D01*
D02*
G37*
G36*
X18295Y18845D02*
Y17845D01*
X18160Y17710D01*
X18030D01*
X17960Y17780D01*
Y18480D01*
X18030Y18550D01*
Y18568D01*
X18031Y18573D01*
X18034Y18580D01*
Y18587D01*
X18035Y18594D01*
X18034Y18601D01*
Y18608D01*
X18030Y18627D01*
Y18760D01*
X18150Y18880D01*
X18260D01*
X18295Y18845D01*
D02*
G37*
G36*
X39210Y21000D02*
X39210Y20601D01*
X38660Y20051D01*
Y19397D01*
X38659Y19390D01*
Y18170D01*
X38660Y18163D01*
Y17950D01*
X38410Y17700D01*
X36919Y17700D01*
X36614Y18005D01*
X36630Y20870D01*
X37310Y21550D01*
X38660D01*
X39210Y21000D01*
D02*
G37*
G36*
X17091Y18574D02*
X17244D01*
X17380Y18438D01*
Y18060D01*
Y17701D01*
X17229Y17550D01*
X17130D01*
Y17617D01*
X17135Y17622D01*
X17151Y17645D01*
X17156Y17672D01*
Y17925D01*
X17151Y17953D01*
X17135Y17976D01*
X17130Y17981D01*
Y17990D01*
X16969Y18151D01*
X16979Y18203D01*
Y18518D01*
X16979Y18519D01*
X17044Y18584D01*
X17091Y18574D01*
D02*
G37*
G36*
X17085Y17925D02*
Y17672D01*
X16978Y17566D01*
X16955Y17531D01*
X16947Y17490D01*
Y17467D01*
X16940Y17460D01*
X16738D01*
X16730Y17471D01*
X16521Y17680D01*
Y17911D01*
X16580Y17970D01*
X17040D01*
X17085Y17925D01*
D02*
G37*
G36*
X25293Y19400D02*
X25288Y19375D01*
Y18979D01*
X25054Y18746D01*
X25031Y18711D01*
X25023Y18670D01*
Y16955D01*
X24984Y16934D01*
X24973Y16934D01*
X24900Y16949D01*
X24824Y16934D01*
X24759Y16891D01*
X24716Y16826D01*
X24701Y16750D01*
X24716Y16674D01*
X24759Y16609D01*
X24788Y16590D01*
Y16516D01*
X23644Y15372D01*
X23340D01*
X23045Y15667D01*
X23050Y15679D01*
Y15940D01*
X23150D01*
Y15717D01*
X23166D01*
X23222Y15728D01*
X23270Y15760D01*
X23276Y15770D01*
X23329Y15782D01*
X23367Y15757D01*
X23411Y15748D01*
X23543D01*
X23587Y15757D01*
X23625Y15782D01*
X23650Y15820D01*
X23659Y15864D01*
Y15964D01*
X23729Y16034D01*
X23754Y16070D01*
X23762Y16113D01*
X23762Y16113D01*
Y16216D01*
X23770Y16218D01*
X23808Y16243D01*
X23833Y16281D01*
X23842Y16325D01*
Y16457D01*
X23833Y16501D01*
X23808Y16539D01*
X23788Y16553D01*
X23788Y16553D01*
Y16608D01*
X23788Y16608D01*
X23808Y16622D01*
X23833Y16660D01*
X23842Y16704D01*
Y16836D01*
X23837Y16864D01*
X24207Y17233D01*
X24233Y17273D01*
X24242Y17320D01*
Y18120D01*
X24233Y18167D01*
X24207Y18207D01*
X24043Y18370D01*
X24247Y18573D01*
X24273Y18613D01*
X24282Y18660D01*
Y19067D01*
X24301Y19079D01*
X24344Y19144D01*
X24359Y19220D01*
X24344Y19296D01*
X24301Y19361D01*
X24281Y19373D01*
X24271Y19441D01*
X24278Y19450D01*
X25263D01*
X25293Y19400D01*
D02*
G37*
G36*
X23634Y18198D02*
X23606Y18156D01*
X23591Y18080D01*
X23606Y18004D01*
X23635Y17961D01*
Y17959D01*
X23608Y17941D01*
X23579Y17899D01*
X23570Y17849D01*
Y17571D01*
X23579Y17521D01*
X23608Y17479D01*
X23650Y17451D01*
X23700Y17441D01*
X23875D01*
X23925Y17451D01*
X23948Y17466D01*
X23998Y17441D01*
Y17371D01*
X23579Y16952D01*
X23574D01*
X23530Y16943D01*
X23492Y16918D01*
X23467Y16880D01*
X23458Y16836D01*
Y16784D01*
X23443Y16774D01*
X23393Y16800D01*
Y16833D01*
X23382Y16889D01*
X23350Y16937D01*
X23325Y16954D01*
X23314Y17012D01*
X23315Y17013D01*
X23334Y17038D01*
X23416D01*
X23460Y17047D01*
X23498Y17072D01*
X23523Y17110D01*
X23532Y17154D01*
Y17306D01*
X23523Y17350D01*
X23498Y17388D01*
X23460Y17413D01*
X23432Y17419D01*
X23419Y17466D01*
X23420Y17471D01*
X23432Y17479D01*
X23461Y17521D01*
X23470Y17571D01*
Y17849D01*
X23461Y17899D01*
X23432Y17941D01*
X23390Y17969D01*
X23340Y17979D01*
X23248D01*
X23229Y18026D01*
X23451Y18248D01*
X23607D01*
X23634Y18198D01*
D02*
G37*
G36*
X21204Y17976D02*
X21201Y17970D01*
X21540D01*
X21585Y17925D01*
Y17672D01*
X21478Y17566D01*
X21455Y17531D01*
X21447Y17490D01*
Y17467D01*
X21440Y17460D01*
X21238D01*
X21230Y17471D01*
X21021Y17680D01*
Y17889D01*
Y17911D01*
Y17948D01*
X21009D01*
X21000Y17961D01*
X20890Y18070D01*
X20867Y18086D01*
X20840Y18091D01*
X20819D01*
X20740Y18170D01*
X20738D01*
X20712Y18213D01*
X20780Y18343D01*
X20830Y18350D01*
X21204Y17976D01*
D02*
G37*
G36*
X20950Y17910D02*
Y17680D01*
X20955Y17653D01*
X20960Y17646D01*
X20933Y17600D01*
X20640D01*
X20570Y17530D01*
X20420D01*
X20350Y17600D01*
Y17751D01*
X20484Y17886D01*
X20484Y17886D01*
X20509Y17922D01*
X20510Y17930D01*
X20600Y18020D01*
X20840D01*
X20950Y17910D01*
D02*
G37*
G36*
X16264Y17988D02*
X16352Y17971D01*
X16389D01*
X16450Y17910D01*
Y17680D01*
X16455Y17653D01*
X16460Y17646D01*
X16433Y17600D01*
X16140D01*
X16070Y17530D01*
X15920D01*
X15850Y17600D01*
Y17770D01*
X16100Y18020D01*
X16216D01*
X16264Y17988D01*
D02*
G37*
G36*
X31225Y17925D02*
Y17672D01*
X31118Y17566D01*
X31095Y17531D01*
X31087Y17490D01*
Y17467D01*
X31080Y17460D01*
X30878D01*
X30870Y17471D01*
X30661Y17680D01*
Y17911D01*
X30720Y17970D01*
X31180D01*
X31225Y17925D01*
D02*
G37*
G36*
X26181Y18014D02*
X26181Y18014D01*
X26217Y17989D01*
X26260Y17981D01*
X26307Y17980D01*
Y17773D01*
X26365D01*
Y17697D01*
X26330D01*
X26286Y17688D01*
X26248Y17663D01*
X26196Y17674D01*
X26189Y17684D01*
X26141Y17716D01*
X26085Y17727D01*
X26069D01*
Y17504D01*
Y17282D01*
X26085D01*
X26141Y17293D01*
X26189Y17325D01*
X26196Y17335D01*
X26248Y17346D01*
X26286Y17321D01*
X26307Y17311D01*
Y16911D01*
X27071D01*
X27131Y16851D01*
X27112Y16805D01*
X26847D01*
Y16575D01*
Y16345D01*
X27065D01*
Y16575D01*
X27165D01*
Y16345D01*
X27380D01*
Y16575D01*
X27430D01*
Y16625D01*
X27630D01*
Y16705D01*
X27656Y16743D01*
X27699Y16751D01*
X27735Y16775D01*
X27798Y16838D01*
X27853Y16827D01*
X27908Y16838D01*
X28108Y16638D01*
X28108Y16638D01*
X28145Y16613D01*
X28188Y16605D01*
X28188Y16605D01*
X28207D01*
X28230Y16549D01*
X28282Y16482D01*
X28349Y16430D01*
X28426Y16398D01*
X28510Y16387D01*
X28594Y16398D01*
X28671Y16430D01*
X28718Y16466D01*
X28768Y16441D01*
Y16148D01*
X28768Y16148D01*
X28776Y16105D01*
X28801Y16069D01*
X29429Y15441D01*
X29429Y15441D01*
X29465Y15416D01*
X29482Y15413D01*
X29487Y15390D01*
X29512Y15352D01*
X29500Y15299D01*
X29490Y15293D01*
X29458Y15245D01*
X29447Y15189D01*
Y15173D01*
X29670D01*
Y15123D01*
X29720D01*
Y14910D01*
X29746D01*
X29802Y14921D01*
X29850Y14953D01*
X29882Y15001D01*
X29890Y15041D01*
X29906Y15052D01*
X29927Y15060D01*
X29943Y15061D01*
X29971Y15042D01*
X30017Y15033D01*
X30234D01*
X30263Y15017D01*
X30279Y14987D01*
Y14771D01*
X30289Y14724D01*
X30315Y14685D01*
X30355Y14659D01*
X30401Y14649D01*
X30448Y14659D01*
X30463Y14669D01*
X30490Y14663D01*
X30522Y14642D01*
X30534Y14584D01*
X30488Y14538D01*
X30459Y14544D01*
X29000D01*
X28926Y14529D01*
X28863Y14487D01*
X28483Y14107D01*
X28441Y14044D01*
X28426Y13970D01*
Y13522D01*
X28441Y13448D01*
X28483Y13385D01*
X28542Y13326D01*
X28523Y13280D01*
X28072D01*
Y13556D01*
X28142Y13609D01*
X28201Y13687D01*
X28238Y13777D01*
X28251Y13873D01*
Y14473D01*
X28238Y14570D01*
X28201Y14660D01*
X28142Y14737D01*
X28072Y14791D01*
Y14907D01*
X28057Y14982D01*
X28015Y15044D01*
X27649Y15410D01*
X27658Y15430D01*
Y15710D01*
X27459D01*
Y15709D01*
X27409Y15683D01*
X27390Y15697D01*
Y15899D01*
X27381Y15949D01*
X27352Y15991D01*
X27310Y16019D01*
X27260Y16029D01*
X27085D01*
X27035Y16019D01*
X27011Y16004D01*
X26906D01*
X26880Y16009D01*
X26854Y16004D01*
X26680D01*
X26678Y16003D01*
X26650Y16009D01*
X26574Y15994D01*
X26509Y15951D01*
X26466Y15886D01*
X26460Y15855D01*
X26406Y15838D01*
X26367Y15877D01*
X26320Y15908D01*
X26316Y15929D01*
X26288Y15971D01*
X26245Y15999D01*
X26195Y16009D01*
X26020D01*
X25970Y15999D01*
X25928Y15971D01*
X25899Y15929D01*
X25890Y15879D01*
Y15601D01*
X25899Y15551D01*
X25928Y15509D01*
X25970Y15481D01*
X26020Y15471D01*
X26195D01*
X26220Y15476D01*
X26340Y15356D01*
X26354Y15334D01*
X26376Y15320D01*
X26684Y15012D01*
Y14791D01*
X26614Y14737D01*
X26555Y14660D01*
X26517Y14570D01*
X26505Y14473D01*
Y13873D01*
X26517Y13777D01*
X26555Y13687D01*
X26614Y13609D01*
X26684Y13556D01*
Y13280D01*
X26072D01*
Y13556D01*
X26142Y13609D01*
X26201Y13687D01*
X26238Y13777D01*
X26251Y13873D01*
Y14473D01*
X26238Y14570D01*
X26201Y14660D01*
X26142Y14737D01*
X26072Y14791D01*
Y14870D01*
X26057Y14944D01*
X26015Y15007D01*
X25922Y15100D01*
X25859Y15142D01*
X25785Y15157D01*
X24675D01*
X24601Y15142D01*
X24538Y15100D01*
X24023Y14585D01*
X23981Y14522D01*
X23966Y14448D01*
Y13870D01*
X23540Y13444D01*
X23369D01*
X23331Y13494D01*
X23336Y13521D01*
Y13610D01*
X22839D01*
Y13528D01*
X22834Y13517D01*
X22805Y13487D01*
X22770Y13521D01*
Y13799D01*
X22761Y13849D01*
X22746Y13870D01*
Y13968D01*
X22738Y14009D01*
X22776Y14059D01*
X22835D01*
X22875Y14051D01*
X23050D01*
X23100Y14061D01*
X23142Y14089D01*
X23171Y14131D01*
X23180Y14181D01*
Y14459D01*
X23171Y14504D01*
Y14580D01*
X23166Y14607D01*
X23150Y14630D01*
X22920Y14860D01*
X22897Y14876D01*
X22870Y14881D01*
X22600D01*
X22573Y14876D01*
X22550Y14860D01*
X22440Y14751D01*
X22333D01*
X22291Y14795D01*
Y14839D01*
X22139D01*
Y14939D01*
X22291D01*
Y14987D01*
X22291Y15007D01*
X22337Y15033D01*
X22523D01*
X22569Y15042D01*
X22609Y15069D01*
X22635Y15108D01*
X22644Y15155D01*
X22635Y15201D01*
X22625Y15216D01*
X22620Y15231D01*
X22638Y15263D01*
X22694Y15271D01*
X23094Y14871D01*
X23094Y14871D01*
X23131Y14846D01*
X23174Y14838D01*
X23174Y14838D01*
X23840D01*
X23840Y14838D01*
X23883Y14846D01*
X23919Y14871D01*
X25359Y16311D01*
X25359Y16311D01*
X25384Y16347D01*
X25392Y16390D01*
X25392Y16390D01*
Y17957D01*
X25442Y17974D01*
X25479Y17926D01*
X25546Y17874D01*
X25624Y17842D01*
X25707Y17831D01*
X25791Y17842D01*
X25869Y17874D01*
X25935Y17926D01*
X25987Y17993D01*
X26019Y18070D01*
X26019Y18071D01*
X26042Y18087D01*
X26097Y18098D01*
X26181Y18014D01*
D02*
G37*
G36*
X16947Y19733D02*
X16969Y19699D01*
X17003Y19677D01*
X17030Y19650D01*
X17066D01*
X17110Y19641D01*
X17154Y19650D01*
X17190D01*
X17217Y19677D01*
X17251Y19699D01*
X17273Y19733D01*
X17300Y19760D01*
X17708D01*
X17714Y19756D01*
X17756Y19714D01*
X17766Y19698D01*
X17773Y19667D01*
Y19633D01*
X17766Y19602D01*
X17739Y19561D01*
X17695Y19532D01*
X17693Y19531D01*
X17687Y19527D01*
X17680Y19524D01*
X17675Y19519D01*
X17670Y19516D01*
X17666Y19510D01*
X17661Y19505D01*
X17658Y19498D01*
X17654Y19492D01*
X17653Y19486D01*
X17650Y19479D01*
X17650Y19472D01*
X17649Y19465D01*
Y19450D01*
Y19168D01*
X17480Y18999D01*
X17421Y18999D01*
X17419Y19001D01*
X17369Y19010D01*
X17091D01*
X17041Y19001D01*
X17026Y18990D01*
X16999Y18972D01*
X16995Y18966D01*
X16982D01*
X16916Y18952D01*
X16860Y18915D01*
X16694Y18750D01*
X16352D01*
X16264Y18732D01*
X16217Y18701D01*
X16167Y18728D01*
Y19073D01*
Y19077D01*
Y19455D01*
X16159Y19496D01*
X16140Y19524D01*
Y19680D01*
X16280Y19820D01*
X16860D01*
X16947Y19733D01*
D02*
G37*
G36*
X28004Y18906D02*
X28020D01*
X28077Y18917D01*
X28124Y18949D01*
X28156Y18996D01*
X28160Y19018D01*
X28213Y19028D01*
X28239Y18989D01*
X28304Y18946D01*
X28380Y18931D01*
X28414Y18938D01*
X28768Y18584D01*
Y18261D01*
X28723Y18243D01*
X28718Y18244D01*
X28668Y18308D01*
X28601Y18360D01*
X28524Y18392D01*
X28440Y18403D01*
X28356Y18392D01*
X28307Y18371D01*
X28288Y18391D01*
X28251Y18415D01*
X28209Y18424D01*
X28208Y18424D01*
X27964D01*
X27933Y18470D01*
X27860Y18519D01*
X27774Y18536D01*
X27688Y18519D01*
X27650Y18493D01*
X27600Y18520D01*
Y18708D01*
X27542D01*
Y18895D01*
X27583Y18936D01*
X27643D01*
X27688Y18945D01*
X27726Y18970D01*
X27778Y18959D01*
X27785Y18949D01*
X27832Y18917D01*
X27888Y18906D01*
X27904D01*
Y19128D01*
X28004D01*
Y18906D01*
D02*
G37*
G36*
X23730Y19580D02*
Y18620D01*
X23670Y18560D01*
X23266D01*
X23048Y18778D01*
X22718D01*
Y19022D01*
X22670Y19070D01*
X22380Y19360D01*
Y19780D01*
X23430Y19880D01*
X23730Y19580D01*
D02*
G37*
G36*
X30770Y19063D02*
X30917D01*
X30985Y19072D01*
X31047Y19098D01*
X31084Y19126D01*
X31137Y19136D01*
X31190Y19101D01*
X31251Y19089D01*
X31340D01*
Y19338D01*
X31390D01*
Y19388D01*
X31690D01*
Y19425D01*
X31710Y19450D01*
X32027D01*
X32489Y18988D01*
X32471Y18970D01*
X32444Y18930D01*
X32435Y18883D01*
Y18635D01*
Y17803D01*
X32431Y17797D01*
X32430Y17795D01*
X32275Y17640D01*
X32140D01*
X32032Y17748D01*
Y17876D01*
X32023Y17920D01*
X31998Y17958D01*
X31974Y17975D01*
X31960Y17983D01*
X31921Y17991D01*
X31912Y18008D01*
X31904Y18042D01*
X31931Y18081D01*
X31940Y18131D01*
Y18409D01*
X31931Y18459D01*
X31924Y18468D01*
X31931Y18499D01*
X31974Y18564D01*
X31989Y18640D01*
Y18779D01*
Y18830D01*
X31999Y18880D01*
X31984Y18956D01*
X31941Y19021D01*
X31876Y19064D01*
X31800Y19079D01*
X31724Y19064D01*
X31659Y19021D01*
X31649Y19011D01*
X31586Y19006D01*
X31579Y19011D01*
X31529Y19020D01*
X31251D01*
X31201Y19011D01*
X31159Y18982D01*
X31131Y18940D01*
X31125Y18910D01*
X30957Y18742D01*
X30917Y18750D01*
X30522D01*
X30434Y18732D01*
X30358Y18682D01*
X30308Y18606D01*
X30291Y18518D01*
Y18203D01*
X30308Y18114D01*
X30311Y18110D01*
X30281Y18065D01*
X30260Y18069D01*
X30184Y18054D01*
X30119Y18011D01*
X30079Y17950D01*
X30040Y17911D01*
X30020Y17898D01*
X29970Y17924D01*
Y19402D01*
X30019Y19450D01*
X30263D01*
Y19323D01*
X30272Y19255D01*
X30298Y19193D01*
X30339Y19139D01*
X30393Y19098D01*
X30455Y19072D01*
X30522Y19063D01*
X30670D01*
Y19480D01*
X30770D01*
Y19063D01*
D02*
G37*
G36*
X22309Y19360D02*
X22314Y19333D01*
X22330Y19310D01*
X22520Y19119D01*
Y18870D01*
X22250Y18600D01*
X21722D01*
X21712Y18606D01*
X21633Y18685D01*
X21615Y18703D01*
X21597Y18667D01*
X21589Y18660D01*
X21564Y18658D01*
X21560Y18657D01*
X21555D01*
X21546Y18654D01*
X21537Y18651D01*
X21534Y18648D01*
X21530Y18647D01*
X21523Y18640D01*
X21515Y18634D01*
X21513Y18630D01*
X21510Y18627D01*
X21502Y18614D01*
X21450Y18601D01*
X21449Y18603D01*
X21397Y18638D01*
X21335Y18650D01*
X21266D01*
X21239Y18700D01*
X21262Y18734D01*
X21280Y18822D01*
Y19217D01*
X21262Y19306D01*
X21241Y19338D01*
X21268Y19388D01*
X21400D01*
X21400Y19388D01*
X21443Y19396D01*
X21479Y19421D01*
X21509Y19450D01*
X22309D01*
Y19360D01*
D02*
G37*
G36*
X26307Y19332D02*
X26274Y19302D01*
X26224Y19310D01*
X26219Y19318D01*
X26171Y19350D01*
X26115Y19361D01*
X26099D01*
Y19138D01*
Y18915D01*
X26115D01*
X26171Y18927D01*
X26219Y18958D01*
X26225Y18968D01*
X26278Y18980D01*
X26315Y18955D01*
X26360Y18946D01*
X26365D01*
Y18708D01*
X26307D01*
Y18361D01*
X26257Y18357D01*
X26249Y18397D01*
X26200Y18470D01*
X26128Y18519D01*
X26042Y18536D01*
X25956Y18519D01*
X25883Y18470D01*
X25861Y18437D01*
X25791Y18466D01*
X25707Y18477D01*
X25624Y18466D01*
X25546Y18434D01*
X25479Y18382D01*
X25442Y18334D01*
X25392Y18351D01*
Y18524D01*
X25619Y18751D01*
X25619Y18751D01*
X25644Y18787D01*
X25652Y18830D01*
X25652Y18830D01*
Y19234D01*
X25869Y19450D01*
X26307D01*
Y19332D01*
D02*
G37*
G36*
X12660Y19970D02*
X12820Y19810D01*
Y19680D01*
Y19560D01*
X12558Y19298D01*
X12368D01*
X12354Y19271D01*
X11680D01*
X11653Y19266D01*
X11630Y19250D01*
X11440Y19060D01*
X11424Y19037D01*
X11419Y19010D01*
Y18570D01*
X11424Y18543D01*
X11440Y18520D01*
X11463Y18497D01*
X11454Y18434D01*
X11419Y18411D01*
X11387Y18362D01*
X11337Y18377D01*
Y19450D01*
X11370D01*
X11370Y19910D01*
X11670Y20210D01*
X12420D01*
X12660Y19970D01*
D02*
G37*
G36*
X44890Y19290D02*
X47900Y16280D01*
X47900Y14730D01*
Y13670D01*
X47460Y13230D01*
X47287D01*
X47256Y13268D01*
X46950D01*
Y13388D01*
X46830D01*
Y13636D01*
X46811D01*
X46750Y13624D01*
X46714Y13601D01*
X46664Y13613D01*
Y13613D01*
X46330D01*
Y13241D01*
Y12869D01*
X46404D01*
X46423Y12823D01*
X46210Y12610D01*
X45650Y12610D01*
X45390Y12870D01*
Y16850D01*
X44570Y17670D01*
X44230D01*
X44080Y17820D01*
Y18511D01*
X44090Y18513D01*
X44149Y18553D01*
X44199Y18531D01*
Y18500D01*
X44571D01*
X44943D01*
Y18834D01*
X44760D01*
X44745Y18884D01*
X44779Y18907D01*
X44814Y18960D01*
X44826Y19021D01*
Y19040D01*
X44578D01*
Y19280D01*
X44826D01*
Y19290D01*
X44890D01*
D02*
G37*
G36*
X41660Y19430D02*
X41660Y18510D01*
X41100Y17950D01*
X40530Y17950D01*
X40430D01*
X40210Y18170D01*
Y18550D01*
Y19410D01*
X40370Y19570D01*
X40700Y19900D01*
X41190D01*
X41660Y19430D01*
D02*
G37*
G36*
X11929Y18320D02*
Y18104D01*
X11934Y18077D01*
X11950Y18053D01*
X11969Y18034D01*
Y17992D01*
X12015D01*
X12028Y17978D01*
X12033Y17970D01*
X12006Y17920D01*
X11952D01*
X11947Y17923D01*
X11906Y17931D01*
X11654D01*
X11613Y17923D01*
X11608Y17920D01*
X11500D01*
X11460Y17960D01*
Y18330D01*
X11480Y18350D01*
X11884D01*
X11929Y18320D01*
D02*
G37*
G36*
X12870Y18630D02*
Y18450D01*
X12820Y18400D01*
Y18343D01*
X12813Y18308D01*
Y18014D01*
X12699Y17900D01*
X12630D01*
Y17955D01*
X12636Y17964D01*
X12641Y17991D01*
Y18100D01*
Y18300D01*
X12636Y18327D01*
X12630Y18336D01*
Y18360D01*
X12550Y18440D01*
X12430D01*
X12400Y18470D01*
Y18670D01*
X12440Y18710D01*
X12790D01*
X12870Y18630D01*
D02*
G37*
G36*
X13820Y19110D02*
Y18680D01*
Y18160D01*
X13750Y18090D01*
X13610Y17950D01*
X13470D01*
X13410Y18010D01*
Y18180D01*
Y19060D01*
X13490Y19140D01*
X13580Y19230D01*
X13700D01*
X13820Y19110D01*
D02*
G37*
G36*
X39500Y19390D02*
X39850Y19040D01*
Y18470D01*
X39770Y18390D01*
X39520Y18140D01*
X38760D01*
X38730Y18170D01*
Y19390D01*
X38760Y19420D01*
X39470D01*
X39500Y19390D01*
D02*
G37*
G36*
X28126Y18149D02*
X28117Y18080D01*
X28128Y17996D01*
X28160Y17919D01*
X28212Y17852D01*
X28279Y17800D01*
X28356Y17768D01*
X28440Y17757D01*
X28524Y17768D01*
X28601Y17800D01*
X28668Y17852D01*
X28718Y17916D01*
X28723Y17917D01*
X28768Y17899D01*
Y16979D01*
X28718Y16954D01*
X28671Y16990D01*
X28594Y17022D01*
X28510Y17033D01*
X28426Y17022D01*
X28349Y16990D01*
X28282Y16938D01*
X28244Y16889D01*
X28185Y16879D01*
X28066Y16997D01*
X28077Y17052D01*
X28060Y17137D01*
X28012Y17210D01*
X27994Y17222D01*
X28010Y17272D01*
X28020D01*
X28077Y17283D01*
X28124Y17315D01*
X28156Y17362D01*
X28167Y17419D01*
Y17445D01*
X27954D01*
Y17495D01*
X27904D01*
Y17717D01*
X27888D01*
X27832Y17706D01*
X27785Y17674D01*
X27778Y17664D01*
X27726Y17653D01*
X27688Y17678D01*
X27643Y17687D01*
X27563D01*
X27542Y17708D01*
Y17773D01*
X27600D01*
Y17978D01*
X27719Y18098D01*
X27774Y18087D01*
X27860Y18104D01*
X27933Y18153D01*
X27964Y18199D01*
X28096D01*
X28126Y18149D01*
D02*
G37*
G36*
X18264Y19864D02*
X18160Y19760D01*
Y19518D01*
X18149Y19511D01*
X18106Y19446D01*
X18091Y19370D01*
X18106Y19294D01*
X18149Y19229D01*
X18160Y19222D01*
Y19140D01*
X18093Y19073D01*
X18029Y19031D01*
X18015Y19009D01*
X18015Y19008D01*
X17986Y18966D01*
X17970Y18950D01*
Y18933D01*
X17958Y18872D01*
Y18796D01*
Y18676D01*
X17953Y18650D01*
X17964Y18594D01*
X17960Y18590D01*
X17870Y18500D01*
Y18470D01*
Y18120D01*
X17800Y18050D01*
X17470D01*
X17451Y18069D01*
Y18438D01*
X17446Y18466D01*
X17430Y18489D01*
X17410Y18509D01*
Y18530D01*
X17530Y18650D01*
Y18949D01*
X17720Y19139D01*
Y19465D01*
X17726Y19466D01*
X17791Y19509D01*
X17834Y19574D01*
X17849Y19650D01*
X17834Y19726D01*
X17791Y19791D01*
X17726Y19834D01*
X17720Y19835D01*
Y19910D01*
X18245D01*
X18264Y19864D01*
D02*
G37*
G36*
X33508Y16227D02*
Y15506D01*
X33374Y15372D01*
X32980D01*
X32721Y15631D01*
X32743Y15680D01*
X32782Y15688D01*
X32830Y15720D01*
X32836Y15730D01*
X32889Y15742D01*
X32927Y15717D01*
X32971Y15708D01*
X33103D01*
X33147Y15717D01*
X33185Y15742D01*
X33210Y15780D01*
X33220Y15788D01*
X33263Y15796D01*
X33299Y15821D01*
X33379Y15901D01*
X33404Y15937D01*
X33412Y15980D01*
X33412Y15980D01*
Y16216D01*
X33420Y16218D01*
X33458Y16243D01*
X33508Y16227D01*
D02*
G37*
G36*
X12530Y14930D02*
X12652Y14808D01*
X12660Y14796D01*
Y14530D01*
X12790Y14400D01*
X13260D01*
X13310Y14350D01*
Y14140D01*
X13220Y14050D01*
X12970D01*
X12840Y13920D01*
Y13750D01*
X12760Y13670D01*
X12220D01*
X12110Y13780D01*
Y14811D01*
X12260Y14962D01*
X12260Y14962D01*
X12285Y14998D01*
X12286Y15006D01*
X12340Y15060D01*
X12400D01*
X12530Y14930D01*
D02*
G37*
G36*
X17004Y14570D02*
X17110Y14464D01*
Y14194D01*
X17129Y14175D01*
Y14172D01*
X17132D01*
X17264Y14040D01*
X17359D01*
Y13608D01*
X17359Y13605D01*
X17314Y13560D01*
Y13390D01*
X17234Y13310D01*
X16694D01*
X16584Y13420D01*
Y14470D01*
X16599Y14485D01*
X16635Y14509D01*
X16734Y14608D01*
X16734Y14608D01*
X16758Y14644D01*
X16814Y14700D01*
X16874D01*
X17004Y14570D01*
D02*
G37*
G36*
X25601Y14720D02*
X25555Y14660D01*
X25517Y14570D01*
X25505Y14473D01*
Y13873D01*
X25517Y13777D01*
X25555Y13687D01*
X25614Y13609D01*
X25684Y13556D01*
Y13280D01*
X25072D01*
Y13556D01*
X25142Y13609D01*
X25201Y13687D01*
X25238Y13777D01*
X25251Y13873D01*
Y14473D01*
X25238Y14570D01*
X25201Y14660D01*
X25155Y14720D01*
X25178Y14770D01*
X25578D01*
X25601Y14720D01*
D02*
G37*
G36*
X30279Y14110D02*
X30230Y14060D01*
X30214Y14037D01*
X30209Y14010D01*
Y13387D01*
X30214Y13359D01*
X30230Y13336D01*
X30236Y13330D01*
X30215Y13280D01*
X29877D01*
X29860Y13330D01*
X29871Y13339D01*
X29912Y13393D01*
X29938Y13455D01*
X29947Y13522D01*
Y13670D01*
X29630D01*
Y13390D01*
X29140D01*
X28970Y13560D01*
Y13900D01*
X29050Y13980D01*
X29620D01*
X29630Y13970D01*
Y13770D01*
X29947D01*
Y13917D01*
X29938Y13985D01*
X29912Y14047D01*
X29871Y14101D01*
X29864Y14106D01*
X29881Y14156D01*
X30260D01*
X30279Y14110D01*
D02*
G37*
G36*
X18684Y14781D02*
X18684Y14781D01*
X18721Y14756D01*
X18764Y14748D01*
X18764Y14748D01*
X19104D01*
X19106Y14734D01*
X19149Y14669D01*
X19183Y14647D01*
X19206Y14590D01*
X19194Y14529D01*
Y14440D01*
X19442D01*
Y14390D01*
X19492D01*
Y14150D01*
X19811D01*
X19840Y14131D01*
X19890Y14121D01*
X20065D01*
X20115Y14131D01*
X20144Y14150D01*
X20270D01*
X20320Y14100D01*
X20430Y13990D01*
Y13420D01*
X20310Y13300D01*
X19528D01*
X19520Y13280D01*
X18155D01*
X17746Y13689D01*
Y14018D01*
X17792Y14037D01*
X17801Y14028D01*
X17824Y14013D01*
X17851Y14008D01*
X18222D01*
X18249Y14013D01*
X18273Y14028D01*
X18318Y14074D01*
X18368Y14069D01*
X18376Y14057D01*
X18429Y14022D01*
X18490Y14010D01*
X18528D01*
Y14310D01*
Y14610D01*
X18499D01*
Y14753D01*
X18493Y14780D01*
X18478Y14803D01*
X18380Y14900D01*
X18357Y14916D01*
X18330Y14921D01*
X18107D01*
X18080Y14916D01*
X18056Y14900D01*
X18000Y14844D01*
X17996Y14839D01*
X17991Y14834D01*
X17963Y14791D01*
X17920Y14762D01*
X17920Y14762D01*
X17919Y14762D01*
X17912D01*
X17874Y14754D01*
X17840Y14761D01*
X17835Y14762D01*
X17791Y14792D01*
Y14839D01*
X17639D01*
Y14939D01*
X17791D01*
Y14987D01*
X17791Y15007D01*
X17837Y15033D01*
X18023D01*
X18069Y15042D01*
X18109Y15069D01*
X18135Y15108D01*
X18144Y15155D01*
X18135Y15201D01*
X18125Y15216D01*
X18120Y15231D01*
X18138Y15263D01*
X18194Y15271D01*
X18684Y14781D01*
D02*
G37*
G36*
X32771Y14490D02*
Y14061D01*
X32700Y13991D01*
X32425D01*
X32070Y14345D01*
Y14400D01*
Y14500D01*
X32267Y14697D01*
X32564D01*
X32771Y14490D01*
D02*
G37*
G36*
X13369Y14709D02*
X13434Y14666D01*
X13457Y14662D01*
X13513Y14606D01*
X13516Y14604D01*
X13634Y14486D01*
X13636Y14483D01*
X13780Y14340D01*
X13782Y14338D01*
X13810Y14310D01*
X13880D01*
X13959Y14231D01*
Y13980D01*
X13903Y13924D01*
X13490D01*
X13450Y13964D01*
Y14350D01*
X13260Y14540D01*
X12770D01*
X12731Y14579D01*
Y14710D01*
X13369D01*
X13369Y14709D01*
D02*
G37*
G36*
X24505Y14448D02*
Y13873D01*
X24517Y13777D01*
X24555Y13687D01*
X24614Y13609D01*
X24684Y13556D01*
Y13280D01*
X23989D01*
X23970Y13326D01*
X24297Y13653D01*
X24339Y13716D01*
X24354Y13790D01*
Y14368D01*
X24455Y14469D01*
X24505Y14448D01*
D02*
G37*
G36*
X36360Y18480D02*
Y17020D01*
X36820Y16560D01*
X37190Y16190D01*
X37533D01*
X37574Y16163D01*
X37660Y16146D01*
X37746Y16163D01*
X37787Y16190D01*
X39100D01*
X39520Y15770D01*
X42290Y13000D01*
Y11510D01*
Y11190D01*
X42155Y11055D01*
X42105Y11075D01*
Y11134D01*
X41590D01*
Y11254D01*
D01*
Y11134D01*
X41075D01*
Y11020D01*
X40765D01*
Y11134D01*
X40250D01*
X39735D01*
Y11066D01*
X39685Y11045D01*
X39480Y11250D01*
Y14910D01*
X39304Y15086D01*
X39304Y15087D01*
X39275Y15129D01*
X39233Y15158D01*
X39232Y15158D01*
X39201Y15189D01*
X39210Y15242D01*
X39245Y15248D01*
X39297Y15283D01*
X39332Y15336D01*
X39338Y15365D01*
X39044D01*
X38751D01*
X38757Y15336D01*
X38791Y15283D01*
X38841Y15250D01*
X38842Y15246D01*
X38822Y15200D01*
X36680D01*
X36230Y15650D01*
X35712Y16168D01*
X35731Y16214D01*
X35816D01*
Y16864D01*
X35440D01*
Y16984D01*
X35320D01*
Y17753D01*
X35160D01*
Y18470D01*
X35430Y18740D01*
X36100D01*
X36360Y18480D01*
D02*
G37*
G36*
X38700Y11820D02*
X39090D01*
X39220Y11690D01*
Y11030D01*
X39140Y10950D01*
X39060Y10870D01*
X37340D01*
X37220Y10990D01*
Y12000D01*
X37340Y12120D01*
X37350Y12130D01*
X38390D01*
X38700Y11820D01*
D02*
G37*
G36*
X36340Y11910D02*
Y10760D01*
X36010Y10430D01*
X35110D01*
X34890Y10650D01*
Y11030D01*
Y11890D01*
X35050Y12050D01*
X35130Y12130D01*
X36120D01*
X36340Y11910D01*
D02*
G37*
G36*
X44260Y17490D02*
X44389Y17361D01*
X44370Y17315D01*
X44233D01*
X43975Y17057D01*
Y16670D01*
X44490D01*
X45005D01*
Y16680D01*
X45051Y16699D01*
X45210Y16540D01*
Y16060D01*
X45100Y15950D01*
Y12920D01*
X45680Y12340D01*
X46640D01*
X46970Y12010D01*
Y11700D01*
X46714Y11444D01*
X46664Y11465D01*
Y11499D01*
X45756D01*
Y11420D01*
X45470D01*
X44450Y12440D01*
X43680D01*
X43000Y13120D01*
Y15300D01*
Y15785D01*
X43030D01*
Y16550D01*
Y17315D01*
X43000D01*
Y17370D01*
X43120Y17490D01*
X44260Y17490D01*
D02*
G37*
G36*
X22283Y13952D02*
X22318Y13928D01*
X22359Y13887D01*
Y13870D01*
X22344Y13849D01*
X22334Y13799D01*
Y13521D01*
X22344Y13471D01*
X22359Y13450D01*
Y13388D01*
X22370Y13330D01*
X22340Y13280D01*
X21960D01*
Y13282D01*
X21660D01*
Y13382D01*
X21960D01*
Y13420D01*
X21948Y13481D01*
X21913Y13534D01*
X21891Y13548D01*
X21890Y13552D01*
X21895Y13606D01*
X21899Y13609D01*
X21980Y13690D01*
X21995Y13713D01*
X22001Y13740D01*
Y13995D01*
X21995Y14023D01*
X21980Y14046D01*
X21963Y14062D01*
X21982Y14109D01*
X22126D01*
X22283Y13952D01*
D02*
G37*
G36*
X21469Y14608D02*
X21569Y14509D01*
X21569Y14509D01*
X21576Y14504D01*
X21630Y14450D01*
Y14180D01*
X21734Y14076D01*
X21849D01*
X21929Y13995D01*
Y13740D01*
X21849Y13659D01*
X21505D01*
X21414Y13569D01*
Y13490D01*
X21402Y13472D01*
X21210Y13280D01*
X20747D01*
X20640Y13387D01*
Y14010D01*
X20792Y14162D01*
X21061D01*
Y14392D01*
X21071Y14438D01*
X21106Y14474D01*
X21234Y14602D01*
X21234Y14602D01*
X21239Y14609D01*
X21240Y14610D01*
X21468D01*
X21469Y14608D01*
D02*
G37*
G36*
X31109D02*
X31209Y14509D01*
X31209Y14509D01*
X31216Y14504D01*
X31270Y14450D01*
Y14180D01*
X31374Y14076D01*
X31489D01*
X31569Y13995D01*
Y13799D01*
X31569Y13530D01*
X31319Y13280D01*
X30850Y13280D01*
X30387D01*
X30318Y13348D01*
X30280Y13387D01*
Y14010D01*
X30422Y14152D01*
X30681D01*
Y14191D01*
X30700Y14210D01*
Y14430D01*
X30867Y14597D01*
X30874Y14602D01*
X30879Y14609D01*
X30880Y14610D01*
X31108D01*
X31109Y14608D01*
D02*
G37*
G36*
X36250Y13910D02*
Y12800D01*
X36220Y12770D01*
X36110Y12660D01*
X35210D01*
Y12670D01*
X35020Y12860D01*
Y13910D01*
X35040Y13930D01*
X35144Y14034D01*
X35170Y14039D01*
X35220Y14029D01*
X35230D01*
X35240Y14028D01*
X35287Y14032D01*
X35873D01*
X35900Y14037D01*
X35905Y14040D01*
X36120D01*
X36250Y13910D01*
D02*
G37*
G36*
X10643Y15663D02*
X10683Y15637D01*
X10730Y15628D01*
X10864D01*
X10888Y15596D01*
X10880Y15543D01*
X10848Y15495D01*
X10837Y15439D01*
Y15423D01*
X11060D01*
Y15373D01*
X11110D01*
Y15160D01*
X11136D01*
X11192Y15171D01*
X11240Y15203D01*
X11272Y15251D01*
X11283Y15307D01*
Y15396D01*
X11285Y15398D01*
X11333Y15418D01*
X11357Y15402D01*
X11403Y15393D01*
X11620D01*
X11649Y15377D01*
X11666Y15347D01*
Y15131D01*
X11675Y15084D01*
X11701Y15045D01*
X11741Y15019D01*
X11787Y15009D01*
X11834Y15019D01*
X11849Y15029D01*
X11877Y15023D01*
X11902Y15006D01*
X11903Y14955D01*
X11883Y14934D01*
X11733D01*
X11706Y14929D01*
X11683Y14914D01*
X11630D01*
X11617Y14927D01*
X11554Y14969D01*
X11480Y14984D01*
X11273D01*
X11248Y15021D01*
X11205Y15049D01*
X11155Y15059D01*
X10980D01*
X10930Y15049D01*
X10888Y15021D01*
X10859Y14979D01*
X10850Y14929D01*
Y14867D01*
X10831Y14853D01*
X10781Y14877D01*
Y14929D01*
X10769Y14990D01*
X10734Y15043D01*
X10681Y15078D01*
X10620Y15090D01*
X10591D01*
Y15651D01*
X10637Y15670D01*
X10643Y15663D01*
D02*
G37*
G36*
X34965Y18385D02*
Y17868D01*
X35039D01*
Y15750D01*
X35930D01*
X36150Y15530D01*
Y14380D01*
X35873Y14103D01*
X35284D01*
X35284Y14103D01*
X35234Y14099D01*
X35170Y14112D01*
X35084Y14094D01*
X35018Y14050D01*
X34920D01*
X34839Y14131D01*
X33989Y13280D01*
X31485D01*
X31466Y13326D01*
X31575Y13435D01*
X31633Y13422D01*
X31656Y13387D01*
X31709Y13352D01*
X31770Y13340D01*
X31808D01*
Y13640D01*
X31858D01*
Y13690D01*
X32106D01*
Y13779D01*
X32094Y13840D01*
X32059Y13893D01*
X32007Y13928D01*
X31945Y13940D01*
X31915D01*
X31898Y13990D01*
X31934Y14044D01*
X31949Y14120D01*
X31941Y14157D01*
Y14303D01*
X31949Y14340D01*
X31941Y14377D01*
Y14400D01*
X31936Y14427D01*
X31958Y14446D01*
X31994Y14416D01*
X31991Y14404D01*
X31999Y14366D01*
Y14345D01*
X32004Y14318D01*
X32020Y14295D01*
X32046Y14269D01*
X32049Y14263D01*
X32055Y14259D01*
X32374Y13940D01*
X32398Y13925D01*
X32425Y13919D01*
X32700D01*
X32727Y13925D01*
X32750Y13940D01*
X32821Y14011D01*
X32824Y14015D01*
X32878Y14020D01*
X32882Y14019D01*
X32896Y13997D01*
X32949Y13962D01*
X33010Y13950D01*
X33048D01*
Y14250D01*
Y14550D01*
X33010D01*
X32949Y14538D01*
X32896Y14503D01*
X32890Y14494D01*
X32885Y14494D01*
X32839Y14507D01*
X32836Y14518D01*
X32821Y14541D01*
X32615Y14747D01*
X32592Y14763D01*
X32564Y14768D01*
X32511D01*
X32457Y14804D01*
X32381Y14819D01*
X32304Y14804D01*
X32243Y14763D01*
X32239Y14763D01*
X32216Y14747D01*
X32107Y14638D01*
X32069Y14676D01*
X32035Y14699D01*
X31994Y14707D01*
X31969D01*
X31928Y14757D01*
X31931Y14771D01*
Y14839D01*
X31779D01*
Y14939D01*
X31931D01*
Y14987D01*
X31931Y15007D01*
X31977Y15033D01*
X32163D01*
X32209Y15042D01*
X32249Y15069D01*
X32275Y15108D01*
X32284Y15155D01*
X32275Y15201D01*
X32265Y15216D01*
X32260Y15231D01*
X32278Y15263D01*
X32334Y15271D01*
X32744Y14861D01*
X32744Y14861D01*
X32781Y14836D01*
X32824Y14828D01*
X32824Y14828D01*
X33610D01*
X33610Y14828D01*
X33653Y14836D01*
X33689Y14861D01*
X34119Y15291D01*
X34119Y15291D01*
X34144Y15327D01*
X34152Y15370D01*
X34152Y15370D01*
Y18550D01*
X34144Y18593D01*
X34119Y18629D01*
X34119Y18629D01*
X33345Y19404D01*
X33364Y19450D01*
X33900D01*
X34965Y18385D01*
D02*
G37*
G36*
X18427Y14753D02*
Y14597D01*
X18300Y14470D01*
Y14340D01*
Y14157D01*
X18222Y14079D01*
X17851D01*
X17620Y14310D01*
X17520Y14410D01*
Y14600D01*
X17583Y14665D01*
X17592Y14659D01*
X17639Y14649D01*
X17685Y14659D01*
X17725Y14685D01*
X17729Y14692D01*
X17822D01*
X17874Y14681D01*
X17926Y14692D01*
X17948D01*
X17960Y14703D01*
X18014Y14739D01*
X18051Y14794D01*
X18107Y14850D01*
X18330D01*
X18427Y14753D01*
D02*
G37*
G36*
X20080Y14930D02*
X20106D01*
X20162Y14941D01*
X20210Y14973D01*
X20242Y15021D01*
X20247Y15046D01*
X20263Y15054D01*
X20301Y15062D01*
X20331Y15042D01*
X20377Y15033D01*
X20594D01*
X20623Y15017D01*
X20639Y14987D01*
Y14771D01*
X20649Y14724D01*
X20675Y14685D01*
X20715Y14659D01*
X20761Y14649D01*
X20808Y14659D01*
X20823Y14669D01*
X20850Y14663D01*
X20885Y14640D01*
X20889Y14634D01*
X20889Y14610D01*
X20879Y14594D01*
X20862Y14574D01*
X20671D01*
X20648Y14579D01*
X20646Y14580D01*
X20640Y14584D01*
X20633Y14585D01*
X20627Y14588D01*
X20620D01*
X20613Y14589D01*
X20179D01*
X20158Y14621D01*
X20115Y14649D01*
X20065Y14659D01*
X19890D01*
X19862Y14654D01*
X19856Y14661D01*
X19838Y14700D01*
X19874Y14754D01*
X19889Y14830D01*
X19875Y14899D01*
X19880Y14907D01*
X19891Y14921D01*
X19912Y14938D01*
X19954Y14930D01*
X19980D01*
Y15143D01*
X20080D01*
Y14930D01*
D02*
G37*
G36*
X26964Y15571D02*
X26992Y15529D01*
X27024Y15508D01*
X27065Y15446D01*
X27675Y14836D01*
X27673Y14782D01*
X27614Y14737D01*
X27555Y14660D01*
X27517Y14570D01*
X27505Y14473D01*
Y13873D01*
X27517Y13777D01*
X27555Y13687D01*
X27614Y13609D01*
X27684Y13556D01*
Y13280D01*
X27072D01*
Y13556D01*
X27142Y13609D01*
X27201Y13687D01*
X27238Y13777D01*
X27251Y13873D01*
Y14473D01*
X27238Y14570D01*
X27201Y14660D01*
X27142Y14737D01*
X27072Y14791D01*
Y15092D01*
X27057Y15166D01*
X27015Y15229D01*
X26875Y15369D01*
X26874Y15376D01*
X26831Y15441D01*
X26766Y15484D01*
X26759Y15485D01*
X26678Y15566D01*
X26678Y15572D01*
X26698Y15616D01*
X26854D01*
X26880Y15611D01*
X26906Y15616D01*
X26955D01*
X26964Y15571D01*
D02*
G37*
G36*
X42732Y19341D02*
X42724Y19299D01*
Y19280D01*
X42972D01*
Y19040D01*
X42724D01*
Y19021D01*
X42736Y18960D01*
X42771Y18907D01*
X42805Y18884D01*
X42790Y18834D01*
X42577D01*
Y18500D01*
X42949D01*
Y18260D01*
X42577D01*
Y17926D01*
X42770D01*
X42789Y17879D01*
X42290Y17380D01*
Y15970D01*
X42210Y15890D01*
X41760Y15440D01*
X40080Y15440D01*
X39430Y16090D01*
X39430Y17500D01*
X39690Y17760D01*
X41080D01*
X42686Y19366D01*
X42732Y19341D01*
D02*
G37*
G36*
X14050Y14981D02*
Y14390D01*
X13830D01*
X13686Y14534D01*
X13684Y14546D01*
X13641Y14611D01*
X13576Y14654D01*
X13564Y14656D01*
X13300Y14920D01*
Y14960D01*
Y15010D01*
X13343Y15053D01*
X13400Y15041D01*
X13476Y15056D01*
X13541Y15099D01*
X13568Y15141D01*
X13891D01*
X14050Y14981D01*
D02*
G37*
G36*
X12060Y14880D02*
Y14862D01*
X12060Y14862D01*
X12044Y14839D01*
X12039Y14811D01*
Y14579D01*
X12020Y14560D01*
X11780D01*
X11690Y14650D01*
Y14820D01*
X11733Y14863D01*
X11900D01*
X11941Y14871D01*
X11976Y14894D01*
X12001Y14920D01*
X12020D01*
X12060Y14880D01*
D02*
G37*
G36*
X17343Y14493D02*
X17367D01*
X17380Y14480D01*
Y14410D01*
X17590Y14200D01*
X17569Y14150D01*
X17255D01*
X17182Y14222D01*
X17181Y14223D01*
Y14464D01*
X17225Y14500D01*
X17308D01*
X17343Y14493D01*
D02*
G37*
G36*
X23100Y14580D02*
Y14340D01*
Y14270D01*
X22960Y14130D01*
X22664D01*
X22568Y14226D01*
X22556Y14234D01*
X22490Y14300D01*
X22200Y14590D01*
Y14630D01*
X22250Y14680D01*
X22470D01*
X22600Y14810D01*
X22870D01*
X23100Y14580D01*
D02*
G37*
G36*
X31870Y14400D02*
Y14150D01*
Y14100D01*
X31820Y14050D01*
X31690D01*
X31640Y14100D01*
X31540Y14200D01*
X31380D01*
X31350Y14230D01*
Y14480D01*
X31790D01*
X31870Y14400D01*
D02*
G37*
G36*
X16515Y14525D02*
Y14485D01*
X16512Y14470D01*
Y14206D01*
X16479Y14172D01*
X16078D01*
X15990Y14260D01*
Y14440D01*
X16020Y14470D01*
X16280D01*
X16313Y14503D01*
X16360D01*
X16401Y14511D01*
X16436Y14534D01*
X16461Y14560D01*
X16480Y14560D01*
X16515Y14525D01*
D02*
G37*
G36*
X14375Y14976D02*
X14356Y14930D01*
X14350D01*
X14289Y14918D01*
X14236Y14883D01*
X14201Y14830D01*
X14189Y14769D01*
Y14680D01*
X14438D01*
Y14630D01*
X14488D01*
Y14330D01*
X14525D01*
X14587Y14342D01*
X14634Y14374D01*
X14659Y14367D01*
X14684Y14354D01*
Y14271D01*
X14696Y14210D01*
X14731Y14157D01*
X14783Y14122D01*
X14845Y14110D01*
X14882D01*
Y14410D01*
X14932D01*
Y14460D01*
X15181D01*
Y14549D01*
X15169Y14610D01*
X15134Y14663D01*
X15081Y14698D01*
X15020Y14710D01*
X15007D01*
X14990Y14742D01*
X14985Y14760D01*
X14999Y14830D01*
X14984Y14906D01*
X14941Y14971D01*
X14876Y15014D01*
X14800Y15029D01*
X14724Y15014D01*
X14696Y14995D01*
X14674Y15016D01*
X14638Y15040D01*
X14626Y15043D01*
X14517Y15152D01*
X14536Y15198D01*
X14930D01*
X14963Y15160D01*
X14951Y15100D01*
X14966Y15024D01*
X15009Y14959D01*
X15074Y14916D01*
X15150Y14901D01*
X15226Y14916D01*
X15253Y14934D01*
X15308Y14911D01*
X15308Y14911D01*
X15340Y14863D01*
X15388Y14831D01*
X15444Y14820D01*
X15470D01*
Y15033D01*
X15570D01*
Y14820D01*
X15596D01*
X15652Y14831D01*
X15700Y14863D01*
X15732Y14911D01*
X15743Y14967D01*
Y15051D01*
X15783Y15066D01*
X15793Y15068D01*
X15831Y15042D01*
X15877Y15033D01*
X16094D01*
X16123Y15017D01*
X16139Y14987D01*
Y14771D01*
X16149Y14724D01*
X16175Y14685D01*
X16215Y14659D01*
X16261Y14649D01*
X16308Y14659D01*
X16323Y14669D01*
X16350Y14663D01*
X16374Y14648D01*
X16381Y14636D01*
X16384Y14623D01*
X16355Y14575D01*
X16353Y14574D01*
X16313D01*
X16286Y14569D01*
X16262Y14553D01*
X16250Y14541D01*
X16170D01*
X16166Y14544D01*
X16090Y14559D01*
X16064Y14554D01*
X15856D01*
X15780Y14569D01*
X15754Y14564D01*
X15683D01*
X15676Y14599D01*
X15648Y14641D01*
X15605Y14669D01*
X15555Y14679D01*
X15380D01*
X15330Y14669D01*
X15288Y14641D01*
X15259Y14599D01*
X15250Y14549D01*
Y14271D01*
X15259Y14221D01*
X15288Y14179D01*
X15306Y14167D01*
X15307Y14166D01*
X15314Y14130D01*
X16019D01*
X16028Y14121D01*
X16051Y14106D01*
X16078Y14101D01*
X16099D01*
X16103Y14097D01*
X16105Y14101D01*
X16418D01*
X16442Y14056D01*
X16428Y14036D01*
X16410Y13947D01*
Y13553D01*
X16428Y13464D01*
X16477Y13390D01*
X16473Y13366D01*
X16465Y13340D01*
X16455D01*
X16393Y13328D01*
X16341Y13293D01*
X16332Y13280D01*
X15997D01*
X15970Y13325D01*
X15971Y13330D01*
X15997Y13350D01*
X15363D01*
X15389Y13330D01*
X15390Y13325D01*
X15363Y13280D01*
X12020D01*
X11653Y13647D01*
X11659Y13712D01*
X11681Y13729D01*
X11722Y13783D01*
X11748Y13845D01*
X11757Y13913D01*
Y14060D01*
X11340D01*
Y14160D01*
X11757D01*
Y14308D01*
X11748Y14375D01*
X11722Y14437D01*
X11694Y14474D01*
X11730Y14510D01*
X11753Y14494D01*
X11780Y14489D01*
X12020D01*
X12039Y14473D01*
Y13780D01*
X12044Y13753D01*
X12060Y13730D01*
X12170Y13620D01*
X12193Y13604D01*
X12220Y13599D01*
X12760D01*
X12785Y13604D01*
X12788Y13604D01*
X12841Y13582D01*
X12842Y13573D01*
X12877Y13521D01*
X12930Y13486D01*
X12991Y13474D01*
X13080D01*
Y13722D01*
X13180D01*
Y13474D01*
X13269D01*
X13330Y13486D01*
X13350Y13499D01*
X13361Y13498D01*
X13404Y13475D01*
X13412Y13433D01*
X13447Y13381D01*
X13500Y13346D01*
X13561Y13334D01*
X13650D01*
Y13582D01*
X13700D01*
Y13632D01*
X14000D01*
Y13670D01*
X13988Y13731D01*
X13953Y13784D01*
X13921Y13805D01*
X13930Y13858D01*
X13953Y13873D01*
X14010Y13930D01*
X14025Y13953D01*
X14031Y13980D01*
Y14231D01*
X14025Y14258D01*
X14018Y14269D01*
X14037Y14319D01*
X14050D01*
X14077Y14324D01*
X14100Y14340D01*
X14116Y14363D01*
X14121Y14390D01*
Y14981D01*
X14116Y15008D01*
X14100Y15032D01*
X13941Y15191D01*
X13918Y15207D01*
X13891Y15212D01*
X13568D01*
X13561Y15211D01*
X13554D01*
X13548Y15208D01*
X13541Y15207D01*
X13535Y15203D01*
X13528Y15200D01*
X13523Y15195D01*
X13518Y15191D01*
X13514Y15185D01*
X13509Y15180D01*
X13489Y15151D01*
X13448Y15124D01*
X13400Y15114D01*
X13366Y15121D01*
X13356Y15123D01*
X13326Y15151D01*
X13320Y15162D01*
X13318Y15167D01*
X13317Y15169D01*
Y15199D01*
X13165D01*
Y15299D01*
X13317D01*
Y15347D01*
X13317Y15367D01*
X13363Y15393D01*
X13549D01*
X13596Y15402D01*
X13635Y15429D01*
X13661Y15468D01*
X13671Y15515D01*
X13661Y15561D01*
X13651Y15576D01*
X13646Y15591D01*
X13664Y15623D01*
X13720Y15631D01*
X14375Y14976D01*
D02*
G37*
G36*
X21001Y14494D02*
X21011Y14476D01*
X21009Y14472D01*
X21005Y14465D01*
X21004Y14459D01*
X21002Y14454D01*
X20991Y14408D01*
X20991Y14400D01*
X20990Y14392D01*
Y14233D01*
X20792D01*
X20765Y14228D01*
X20741Y14212D01*
X20719Y14190D01*
X20331D01*
X20320Y14200D01*
X20297Y14216D01*
X20270Y14221D01*
X20144D01*
X20137Y14220D01*
X20130D01*
X20124Y14217D01*
X20117Y14216D01*
X20111Y14212D01*
X20105Y14209D01*
X20087Y14198D01*
X20058Y14192D01*
X19897D01*
X19880Y14195D01*
Y14480D01*
X19918Y14518D01*
X20613D01*
X20623Y14511D01*
X20664Y14503D01*
X20874D01*
X20915Y14511D01*
X20925Y14518D01*
X20981D01*
X21001Y14494D01*
D02*
G37*
G36*
X21802Y14501D02*
X21843Y14493D01*
X22147D01*
X22220Y14420D01*
Y14180D01*
X21740D01*
X21701Y14219D01*
Y14450D01*
X21699Y14460D01*
X21725Y14502D01*
X21734Y14510D01*
X21789D01*
X21802Y14501D01*
D02*
G37*
G36*
X25660Y20490D02*
Y20350D01*
X25560Y20250D01*
Y19890D01*
X25521Y19859D01*
X25220Y19930D01*
X24980Y20170D01*
Y20530D01*
X25030Y20580D01*
X25570D01*
X25660Y20490D01*
D02*
G37*
G36*
X25930Y30750D02*
X25870Y30690D01*
X25782Y30602D01*
X24528D01*
X24500Y30630D01*
Y30820D01*
X24580Y30900D01*
X25610D01*
X25620Y30910D01*
X25740Y31030D01*
X25930D01*
Y30750D01*
D02*
G37*
G36*
X18531Y30991D02*
X18531Y30991D01*
X18567Y30966D01*
X18610Y30958D01*
X18648D01*
X18760Y30846D01*
X18746Y30826D01*
X18731Y30750D01*
X18746Y30674D01*
X18789Y30609D01*
X18854Y30566D01*
X18930Y30551D01*
X19006Y30566D01*
X19026Y30580D01*
X19135Y30471D01*
X19121Y30414D01*
X19098Y30405D01*
X19030Y30419D01*
X18954Y30404D01*
X18889Y30361D01*
X18846Y30296D01*
X18831Y30220D01*
X18846Y30144D01*
X18889Y30079D01*
X18954Y30036D01*
X19030Y30021D01*
X19098Y30035D01*
X19148Y30024D01*
Y30024D01*
X19525D01*
X19529Y30005D01*
X19553Y29968D01*
X19631Y29891D01*
X19631Y29891D01*
X19667Y29866D01*
X19710Y29858D01*
X19748D01*
X19780Y29826D01*
Y29659D01*
X18553D01*
Y29655D01*
X18503Y29629D01*
X18462Y29656D01*
X18376Y29673D01*
X18290Y29656D01*
X18217Y29607D01*
X18169Y29535D01*
X18152Y29449D01*
X18155Y29431D01*
X18120Y29396D01*
X18110Y29398D01*
X18045Y29385D01*
X18020Y29431D01*
X18075Y29486D01*
Y29866D01*
X17885Y30056D01*
X17505D01*
X17490Y30040D01*
X17377Y30152D01*
Y30313D01*
X17424Y30332D01*
X17490Y30266D01*
X17645D01*
Y30676D01*
Y31086D01*
X17490D01*
X17320Y30915D01*
X17249Y30915D01*
X16979Y31185D01*
X16957Y31200D01*
X16972Y31250D01*
X18271D01*
X18531Y30991D01*
D02*
G37*
G36*
X16434Y31200D02*
X16411Y31185D01*
X16411Y31185D01*
X16186Y30960D01*
X16162Y30923D01*
X16153Y30880D01*
X16153Y30880D01*
Y30659D01*
X16120Y30632D01*
X16075Y30652D01*
Y30866D01*
X15885Y31056D01*
X15505D01*
X15315Y30866D01*
Y30486D01*
X15414Y30386D01*
X15412Y30327D01*
X15409Y30321D01*
X15112Y30024D01*
X15062Y30045D01*
Y30407D01*
X15062Y30407D01*
X15062D01*
X15057Y30457D01*
X15089Y30505D01*
X15106Y30591D01*
X15089Y30676D01*
X15041Y30749D01*
X14968Y30798D01*
X14882Y30815D01*
X14796Y30798D01*
X14723Y30749D01*
X14675Y30676D01*
X14658Y30591D01*
X14675Y30505D01*
X14710Y30452D01*
X14722Y30407D01*
X14722Y30407D01*
X14722D01*
X14722Y30407D01*
Y30309D01*
X14655D01*
X14649Y30336D01*
X14621Y30379D01*
X14578Y30407D01*
X14528Y30417D01*
X14251D01*
X14201Y30407D01*
X14159Y30379D01*
X14130Y30336D01*
X14120Y30286D01*
Y30111D01*
X14130Y30061D01*
X14159Y30019D01*
X14201Y29991D01*
X14251Y29981D01*
X14528D01*
X14578Y29991D01*
X14621Y30019D01*
X14649Y30061D01*
X14654Y30085D01*
X14722D01*
Y29987D01*
X15004D01*
X15024Y29937D01*
X14943Y29856D01*
X14722D01*
Y29758D01*
X14658D01*
X14649Y29801D01*
X14621Y29843D01*
X14578Y29872D01*
X14528Y29882D01*
X14251D01*
X14201Y29872D01*
X14159Y29843D01*
X14130Y29801D01*
X14120Y29751D01*
Y29576D01*
X14130Y29526D01*
X14159Y29484D01*
X14181Y29468D01*
X14173Y29456D01*
X14156Y29370D01*
X14173Y29284D01*
X14221Y29211D01*
X14294Y29163D01*
X14380Y29146D01*
X14466Y29163D01*
X14539Y29211D01*
X14587Y29284D01*
X14604Y29370D01*
X14587Y29456D01*
X14585Y29459D01*
X14621Y29484D01*
X14649Y29526D01*
X14651Y29534D01*
X14722D01*
Y29436D01*
X14943D01*
X15767Y28612D01*
X15767Y28612D01*
X15804Y28587D01*
X15846Y28579D01*
X15846Y28579D01*
X16094D01*
X16330Y28343D01*
X16305Y28297D01*
X16276Y28303D01*
X16250D01*
Y28140D01*
X16423D01*
Y28156D01*
X16412Y28212D01*
X16394Y28239D01*
X16424Y28284D01*
X16438Y28281D01*
X16971D01*
X16998Y28254D01*
Y28217D01*
X16991Y28208D01*
X16983Y28163D01*
Y27964D01*
X16969Y27931D01*
X16935Y27917D01*
X16737D01*
X16692Y27908D01*
X16654Y27883D01*
X16629Y27846D01*
X16620Y27801D01*
Y27779D01*
X16629Y27734D01*
X16653Y27695D01*
X16629Y27656D01*
X16620Y27611D01*
Y27600D01*
X16434D01*
X16392Y27647D01*
Y27779D01*
X16383Y27823D01*
X16358Y27861D01*
X16370Y27914D01*
X16380Y27920D01*
X16412Y27968D01*
X16423Y28024D01*
Y28040D01*
X16200D01*
Y28090D01*
X16150D01*
Y28303D01*
X16124D01*
X16068Y28292D01*
X16023Y28262D01*
X15807D01*
X15764Y28253D01*
X15728Y28229D01*
X15703Y28193D01*
X15695Y28150D01*
X15703Y28107D01*
X15728Y28070D01*
X15764Y28046D01*
X15807Y28037D01*
X15977D01*
Y28024D01*
X15988Y27968D01*
X16020Y27920D01*
X16030Y27914D01*
X16042Y27861D01*
X16017Y27823D01*
X16008Y27779D01*
Y27647D01*
X15966Y27600D01*
X15719D01*
Y27755D01*
X15709Y27805D01*
X15681Y27848D01*
X15639Y27876D01*
X15589Y27886D01*
X15311D01*
X15261Y27876D01*
X15219Y27848D01*
X15191Y27805D01*
X15181Y27755D01*
Y27745D01*
X13297D01*
X13269Y27837D01*
X13221Y27928D01*
X13251Y27978D01*
X13452D01*
Y27963D01*
X13832D01*
Y27978D01*
X14179D01*
X14187Y27965D01*
X14225Y27940D01*
X14269Y27931D01*
X14421D01*
X14466Y27940D01*
X14503Y27965D01*
X14512Y27978D01*
X14777D01*
X14787Y27962D01*
X14825Y27937D01*
X14869Y27928D01*
X15021D01*
X15066Y27937D01*
X15103Y27962D01*
X15129Y28000D01*
X15138Y28044D01*
Y28176D01*
X15129Y28221D01*
X15103Y28258D01*
X15114Y28312D01*
X15125Y28319D01*
X15157Y28367D01*
X15168Y28423D01*
Y28439D01*
X14945D01*
X14722D01*
Y28423D01*
X14734Y28367D01*
X14765Y28319D01*
X14762Y28267D01*
X14742Y28243D01*
X14547D01*
X14527Y28269D01*
X14525Y28320D01*
X14557Y28368D01*
X14568Y28424D01*
Y28440D01*
X14345D01*
X14122D01*
Y28424D01*
X14134Y28368D01*
X14165Y28320D01*
X14164Y28269D01*
X14144Y28243D01*
X13832D01*
Y28343D01*
X13611D01*
X13563Y28346D01*
Y28836D01*
X13623D01*
X13642Y28832D01*
X13660Y28836D01*
X13832D01*
Y29007D01*
X13835Y29026D01*
Y29174D01*
X13870Y29201D01*
X13921Y29268D01*
X13953Y29346D01*
X13964Y29429D01*
X13953Y29513D01*
X13921Y29591D01*
X13870Y29657D01*
X13803Y29709D01*
X13725Y29741D01*
X13642Y29752D01*
X13590Y29794D01*
X13588Y29809D01*
X13918Y30139D01*
X13918Y30139D01*
X13942Y30176D01*
X13951Y30219D01*
Y30378D01*
X14823Y31250D01*
X16419D01*
X16434Y31200D01*
D02*
G37*
G36*
X16600Y24694D02*
Y24544D01*
X16910D01*
Y24494D01*
X16960D01*
Y24114D01*
X16970Y24088D01*
X16938Y24056D01*
X16914Y24019D01*
X16906Y23977D01*
X16906Y23977D01*
Y23911D01*
X16630D01*
Y23460D01*
X16535Y23366D01*
X16495Y23378D01*
X16485Y23384D01*
Y23531D01*
X16175D01*
Y23581D01*
X16125D01*
Y23941D01*
X15911D01*
Y24000D01*
X16075Y24164D01*
X16455D01*
Y24615D01*
X16553Y24713D01*
X16600Y24694D01*
D02*
G37*
G36*
X44650Y36670D02*
Y36492D01*
Y31610D01*
X44280Y31240D01*
X36520D01*
X36306Y31454D01*
X36290Y31478D01*
Y36760D01*
X36590Y37060D01*
X44260D01*
X44650Y36670D01*
D02*
G37*
G36*
X39450Y30120D02*
Y29860D01*
X39280Y29690D01*
X38400D01*
Y30430D01*
X39140D01*
X39450Y30120D01*
D02*
G37*
G36*
X45630Y31605D02*
Y29050D01*
X44210D01*
Y27990D01*
X43934Y27714D01*
X40336D01*
X40200Y27850D01*
X39600Y27850D01*
X39340Y28110D01*
X39340Y29580D01*
X39660Y29900D01*
Y30740D01*
X39990Y31070D01*
X45030Y31070D01*
X45584Y31624D01*
X45630Y31605D01*
D02*
G37*
G36*
X39080Y29420D02*
X39260Y29240D01*
Y28850D01*
X39090Y28680D01*
X38380D01*
Y29430D01*
X39070D01*
X39080Y29420D01*
D02*
G37*
G36*
X40160Y27720D02*
X40320Y27560D01*
X41650Y27560D01*
X41710Y27500D01*
Y27000D01*
X41860Y26850D01*
Y26600D01*
X41670Y26410D01*
X40440D01*
X40210Y26640D01*
X39850D01*
X39610Y26880D01*
Y27430D01*
X39900Y27720D01*
X40160Y27720D01*
D02*
G37*
G36*
X16968Y26273D02*
X16983Y26237D01*
Y26042D01*
X16991Y25997D01*
X16998Y25988D01*
Y25121D01*
X16863Y24986D01*
X16555D01*
X16555Y24986D01*
X16512Y24978D01*
X16476Y24953D01*
X16476Y24953D01*
X16347Y24824D01*
X15895D01*
Y24302D01*
X15742Y24149D01*
X15642D01*
X15598Y24140D01*
X15560Y24115D01*
X15535Y24077D01*
X15526Y24033D01*
Y23901D01*
X15535Y23856D01*
X15560Y23818D01*
X15549Y23766D01*
X15539Y23759D01*
X15507Y23712D01*
X15496Y23656D01*
Y23640D01*
X15718D01*
Y23590D01*
X15769D01*
Y23377D01*
X15795D01*
X15815Y23381D01*
X15865Y23342D01*
Y23221D01*
X15963D01*
X16000Y23171D01*
X15995Y23147D01*
Y23121D01*
X16208D01*
Y23071D01*
X16258D01*
Y22848D01*
X16274D01*
X16330Y22859D01*
X16377Y22891D01*
X16384Y22901D01*
X16436Y22913D01*
X16474Y22887D01*
X16519Y22879D01*
X16651D01*
X16695Y22887D01*
X16733Y22913D01*
X16758Y22950D01*
X16767Y22995D01*
Y23147D01*
X16758Y23191D01*
X16751Y23201D01*
X16778Y23251D01*
X17190D01*
Y23911D01*
X17182D01*
X17161Y23961D01*
X17376Y24176D01*
X17376Y24176D01*
X17400Y24212D01*
X17409Y24255D01*
Y25506D01*
X17447Y25538D01*
X17461Y25535D01*
X17477D01*
Y25758D01*
X17577D01*
Y25535D01*
X17593D01*
X17618Y25514D01*
Y25512D01*
X17797Y25333D01*
X17811Y25311D01*
X17833Y25297D01*
X17894Y25236D01*
X17470Y24813D01*
Y24614D01*
X17470Y24609D01*
X17470Y24609D01*
Y23316D01*
X17343Y23189D01*
Y22894D01*
X17156Y22707D01*
X15935D01*
X15394Y23248D01*
Y24577D01*
X15837Y25020D01*
X16486D01*
X16860Y25394D01*
Y26284D01*
X16935D01*
X16968Y26273D01*
D02*
G37*
G36*
X20709Y24291D02*
X21283D01*
X21314Y24253D01*
X21314Y24249D01*
Y24149D01*
X21310Y24146D01*
X21271Y24120D01*
Y24120D01*
X21271Y24120D01*
X20631D01*
Y23900D01*
X20601D01*
Y23775D01*
X20951D01*
Y23675D01*
X20601D01*
Y23550D01*
X20631D01*
Y23115D01*
X20631D01*
Y22825D01*
X20631D01*
Y22395D01*
X20601D01*
Y22270D01*
X20951D01*
Y22220D01*
X21001D01*
Y22045D01*
X21293D01*
Y22030D01*
X21304Y21974D01*
X21336Y21927D01*
X21384Y21895D01*
X21440Y21884D01*
X21466D01*
Y22096D01*
X21516D01*
Y22146D01*
X21739D01*
Y22162D01*
X21727Y22219D01*
X21725Y22222D01*
X21755Y22267D01*
X21811Y22256D01*
X21897Y22273D01*
X21970Y22322D01*
X22018Y22394D01*
X22035Y22480D01*
X22023Y22543D01*
X22060Y22585D01*
X22061Y22586D01*
X22066Y22585D01*
X22165D01*
Y22104D01*
X21384Y21322D01*
X19032D01*
X19016Y21339D01*
Y21496D01*
X19449Y21929D01*
Y24488D01*
X19921Y24961D01*
X20039D01*
X20709Y24291D01*
D02*
G37*
G36*
X38297Y30335D02*
Y28543D01*
X38179Y28425D01*
X37018D01*
X36876Y28567D01*
X36897Y28617D01*
X36905D01*
Y28997D01*
X36318D01*
X36240Y29075D01*
Y29617D01*
X36905D01*
Y29997D01*
X36240D01*
Y30443D01*
X38189D01*
X38297Y30335D01*
D02*
G37*
G36*
X13452Y28343D02*
Y28243D01*
X13060D01*
X13009Y28233D01*
X12966Y28204D01*
X12952Y28189D01*
X12876Y28230D01*
X12740Y28271D01*
X12598Y28285D01*
X12457Y28271D01*
X12321Y28230D01*
X12195Y28163D01*
X12085Y28072D01*
X11995Y27962D01*
X11928Y27837D01*
X11886Y27701D01*
X11872Y27559D01*
X11886Y27417D01*
X11928Y27281D01*
X11995Y27156D01*
X12085Y27046D01*
X12195Y26955D01*
X12321Y26888D01*
X12405Y26863D01*
Y23523D01*
X12321Y23498D01*
X12195Y23430D01*
X12085Y23340D01*
X11995Y23230D01*
X11928Y23105D01*
X11886Y22968D01*
X11872Y22827D01*
X11886Y22685D01*
X11928Y22549D01*
X11995Y22424D01*
X12085Y22313D01*
X12195Y22223D01*
X12321Y22156D01*
X12457Y22115D01*
X12598Y22101D01*
X12740Y22115D01*
X12876Y22156D01*
X13002Y22223D01*
X13112Y22313D01*
X13202Y22424D01*
X13269Y22549D01*
X13310Y22685D01*
X13324Y22827D01*
X13310Y22968D01*
X13269Y23105D01*
X13202Y23230D01*
X13112Y23340D01*
X13002Y23430D01*
X12876Y23498D01*
X12792Y23523D01*
Y26863D01*
X12876Y26888D01*
X12935Y26919D01*
X12977Y26894D01*
Y25523D01*
X12988Y25473D01*
X13016Y25430D01*
X13343Y25103D01*
X13386Y25074D01*
X13436Y25064D01*
X13461D01*
X13471Y25043D01*
X13474Y25014D01*
X13405Y24961D01*
X13345Y24883D01*
X13308Y24793D01*
X13302Y24747D01*
X13668D01*
X14035D01*
X14029Y24793D01*
X13992Y24883D01*
X13932Y24961D01*
X13863Y25014D01*
X13866Y25043D01*
X13876Y25064D01*
X14326D01*
X14336Y25014D01*
X14287Y24994D01*
X14216Y24939D01*
X14161Y24868D01*
X14127Y24786D01*
X14115Y24697D01*
X14127Y24608D01*
X14161Y24525D01*
X14216Y24454D01*
X14265Y24417D01*
Y23049D01*
X14279Y22975D01*
X14321Y22912D01*
X15333Y21900D01*
X15396Y21858D01*
X15470Y21844D01*
X15683D01*
X15724Y21782D01*
X15790Y21738D01*
X15868Y21723D01*
X16128D01*
X16206Y21738D01*
X16272Y21782D01*
X16316Y21848D01*
X16332Y21926D01*
Y22266D01*
X16316Y22344D01*
X16272Y22411D01*
X16206Y22455D01*
X16128Y22470D01*
X15898D01*
X15772Y22596D01*
X15758Y22665D01*
X15710Y22737D01*
X15637Y22786D01*
X15551Y22803D01*
X15465Y22786D01*
X15393Y22737D01*
X15344Y22665D01*
X15327Y22579D01*
X15340Y22512D01*
X15294Y22487D01*
X14652Y23129D01*
Y24417D01*
X14701Y24454D01*
X14755Y24525D01*
X14790Y24608D01*
X14801Y24697D01*
X14790Y24786D01*
X14755Y24868D01*
X14701Y24939D01*
X14630Y24994D01*
X14580Y25014D01*
X14590Y25064D01*
X14961D01*
X15011Y25074D01*
X15054Y25103D01*
X15544Y25592D01*
X15572Y25635D01*
X15583Y25686D01*
Y25864D01*
X15589D01*
X15639Y25874D01*
X15681Y25902D01*
X15697Y25927D01*
X15747Y25911D01*
Y25874D01*
X15758Y25818D01*
X15790Y25770D01*
X15814Y25754D01*
Y25696D01*
X15790Y25680D01*
X15758Y25632D01*
X15747Y25576D01*
Y25550D01*
X15960D01*
Y25500D01*
X16010D01*
Y25277D01*
X16026D01*
X16082Y25288D01*
X16130Y25320D01*
X16136Y25330D01*
X16189Y25342D01*
X16227Y25317D01*
X16271Y25308D01*
X16330D01*
X16337Y25306D01*
X16344Y25308D01*
X16403D01*
X16447Y25317D01*
X16479Y25338D01*
X16498D01*
X16518Y25324D01*
X16602Y25308D01*
X16616Y25288D01*
X16629Y25263D01*
X16457Y25091D01*
X15837D01*
X15809Y25086D01*
X15786Y25070D01*
X15343Y24627D01*
X15328Y24604D01*
X15322Y24577D01*
Y23248D01*
X15328Y23221D01*
X15343Y23198D01*
X15885Y22656D01*
X15908Y22641D01*
X15935Y22635D01*
X17156D01*
X17183Y22641D01*
X17206Y22656D01*
X17393Y22843D01*
X17408Y22866D01*
X17414Y22894D01*
Y23138D01*
X17449Y23169D01*
X17501Y23162D01*
X17502Y23160D01*
X17986Y22676D01*
X17970Y22622D01*
X17955Y22619D01*
X17883Y22570D01*
X17834Y22497D01*
X17817Y22411D01*
X17834Y22326D01*
X17883Y22253D01*
X17955Y22204D01*
X18035Y22188D01*
X18042Y22140D01*
X18041Y22140D01*
X17998Y22131D01*
X17962Y22107D01*
X17938Y22070D01*
X17929Y22028D01*
X17938Y21985D01*
X17962Y21948D01*
X17998Y21924D01*
X18041Y21915D01*
X18123D01*
X18125Y21905D01*
X18157Y21858D01*
X18204Y21826D01*
X18261Y21815D01*
X18287D01*
Y22028D01*
X18387D01*
Y21815D01*
X18413D01*
X18469Y21826D01*
X18516Y21858D01*
X18548Y21905D01*
X18559Y21962D01*
Y22045D01*
X18848D01*
Y22220D01*
X18898D01*
Y22270D01*
X19248D01*
Y22395D01*
X19218D01*
Y22575D01*
Y23050D01*
X19248D01*
Y23091D01*
X19286Y23108D01*
X19331Y23081D01*
Y21998D01*
X18799Y21467D01*
X10226D01*
Y28346D01*
X13403D01*
X13452Y28343D01*
D02*
G37*
G36*
X48201Y22531D02*
Y20581D01*
X47670Y20050D01*
X42782D01*
X42321Y20511D01*
X42321Y20951D01*
Y22199D01*
X42930D01*
X42957Y22204D01*
X42980Y22220D01*
X43992Y23231D01*
X47501D01*
X48201Y22531D01*
D02*
G37*
G36*
X21250Y20200D02*
Y20060D01*
X21080Y19890D01*
X20670D01*
X20661Y20404D01*
X20696Y20440D01*
X21010D01*
X21250Y20200D01*
D02*
G37*
G36*
X16490Y20500D02*
Y20070D01*
X16370Y19950D01*
X15980D01*
X15850Y20440D01*
X15980Y20570D01*
X16420D01*
X16490Y20500D01*
D02*
G37*
G36*
X48460Y29110D02*
Y27110D01*
X47770Y26420D01*
X47630Y26280D01*
X45590D01*
X45160Y25850D01*
Y24900D01*
Y24500D01*
X42930Y22270D01*
X40010D01*
X39870Y22410D01*
Y23320D01*
X40120Y23570D01*
X42140D01*
X42340Y23770D01*
Y27120D01*
X42720Y27500D01*
X43960D01*
X44350Y27890D01*
Y28360D01*
X44930Y28940D01*
X45599D01*
X45640Y28902D01*
X45631Y28872D01*
X45616Y28725D01*
Y28665D01*
X45631Y28518D01*
X45674Y28377D01*
X45743Y28246D01*
X45837Y28132D01*
X45951Y28038D01*
X46082Y27969D01*
X46120Y27957D01*
Y28695D01*
Y29433D01*
D01*
X46070Y29470D01*
X46070Y29870D01*
X46170Y29970D01*
X47600D01*
X48460Y29110D01*
D02*
G37*
G36*
X42120Y25620D02*
Y23950D01*
X41940Y23770D01*
X39760D01*
X39530Y24000D01*
Y25450D01*
X39850Y25770D01*
X41970D01*
X42120Y25620D01*
D02*
G37*
%LPC*%
G36*
X23585Y14620D02*
X23548D01*
Y14370D01*
X23746D01*
Y14459D01*
X23734Y14520D01*
X23699Y14573D01*
X23647Y14608D01*
X23585Y14620D01*
D02*
G37*
G36*
X23448D02*
X23410D01*
X23349Y14608D01*
X23296Y14573D01*
X23261Y14520D01*
X23249Y14459D01*
Y14370D01*
X23448D01*
Y14620D01*
D02*
G37*
G36*
X27956Y15710D02*
X27758D01*
Y15460D01*
X27795D01*
X27857Y15472D01*
X27909Y15507D01*
X27944Y15560D01*
X27956Y15621D01*
Y15710D01*
D02*
G37*
G36*
X25821Y15690D02*
X25622D01*
Y15440D01*
X25660D01*
X25721Y15452D01*
X25774Y15487D01*
X25809Y15540D01*
X25821Y15601D01*
Y15690D01*
D02*
G37*
G36*
X25522D02*
X25324D01*
Y15601D01*
X25336Y15540D01*
X25371Y15487D01*
X25423Y15452D01*
X25485Y15440D01*
X25522D01*
Y15690D01*
D02*
G37*
G36*
X29620Y15073D02*
X29447D01*
Y15057D01*
X29458Y15001D01*
X29490Y14953D01*
X29538Y14921D01*
X29594Y14910D01*
X29620D01*
Y15073D01*
D02*
G37*
G36*
X23746Y14270D02*
X23548D01*
Y14020D01*
X23585D01*
X23647Y14032D01*
X23699Y14067D01*
X23734Y14120D01*
X23746Y14181D01*
Y14270D01*
D02*
G37*
G36*
X23448D02*
X23249D01*
Y14181D01*
X23261Y14120D01*
X23296Y14067D01*
X23349Y14032D01*
X23410Y14020D01*
X23448D01*
Y14270D01*
D02*
G37*
G36*
X23175Y13960D02*
X23138D01*
Y13710D01*
X23336D01*
Y13799D01*
X23324Y13860D01*
X23289Y13913D01*
X23237Y13948D01*
X23175Y13960D01*
D02*
G37*
G36*
X23038D02*
X23000D01*
X22939Y13948D01*
X22886Y13913D01*
X22851Y13860D01*
X22839Y13799D01*
Y13710D01*
X23038D01*
Y13960D01*
D02*
G37*
G36*
X25969Y17727D02*
X25953D01*
X25897Y17716D01*
X25849Y17684D01*
X25818Y17637D01*
X25806Y17580D01*
Y17554D01*
X25969D01*
Y17727D01*
D02*
G37*
G36*
X25522Y16040D02*
X25485D01*
X25423Y16028D01*
X25371Y15993D01*
X25336Y15940D01*
X25324Y15879D01*
Y15790D01*
X25522D01*
Y16040D01*
D02*
G37*
G36*
X27795Y16060D02*
X27758D01*
Y15810D01*
X27956D01*
Y15899D01*
X27944Y15960D01*
X27909Y16013D01*
X27857Y16048D01*
X27795Y16060D01*
D02*
G37*
G36*
X27658D02*
X27620D01*
X27559Y16048D01*
X27506Y16013D01*
X27471Y15960D01*
X27459Y15899D01*
Y15810D01*
X27658D01*
Y16060D01*
D02*
G37*
G36*
X25660Y16040D02*
X25622D01*
Y15790D01*
X25821D01*
Y15879D01*
X25809Y15940D01*
X25774Y15993D01*
X25721Y16028D01*
X25660Y16040D01*
D02*
G37*
G36*
X25969Y17454D02*
X25806D01*
Y17428D01*
X25818Y17372D01*
X25849Y17325D01*
X25897Y17293D01*
X25953Y17282D01*
X25969D01*
Y17454D01*
D02*
G37*
G36*
X26747Y16805D02*
X26527D01*
Y16575D01*
Y16345D01*
X26747D01*
Y16575D01*
Y16805D01*
D02*
G37*
G36*
X26427Y16525D02*
X26277D01*
Y16345D01*
X26427D01*
Y16525D01*
D02*
G37*
G36*
X27630D02*
X27480D01*
Y16345D01*
X27630D01*
Y16525D01*
D02*
G37*
G36*
X26427Y16805D02*
X26277D01*
Y16625D01*
X26427D01*
Y16805D01*
D02*
G37*
G36*
X31690Y19288D02*
X31440D01*
Y19089D01*
X31529D01*
X31590Y19101D01*
X31643Y19136D01*
X31678Y19189D01*
X31690Y19250D01*
Y19288D01*
D02*
G37*
G36*
X25999Y19088D02*
X25836D01*
Y19062D01*
X25847Y19006D01*
X25879Y18958D01*
X25927Y18927D01*
X25983Y18915D01*
X25999D01*
Y19088D01*
D02*
G37*
G36*
Y19361D02*
X25983D01*
X25927Y19350D01*
X25879Y19318D01*
X25847Y19270D01*
X25836Y19214D01*
Y19188D01*
X25999D01*
Y19361D01*
D02*
G37*
G36*
X47115Y15575D02*
X46490D01*
Y14923D01*
X46517Y14926D01*
X46658Y14969D01*
X46789Y15038D01*
X46903Y15132D01*
X46997Y15246D01*
X47066Y15377D01*
X47109Y15518D01*
X47115Y15575D01*
D02*
G37*
G36*
X46250D02*
X45625D01*
X45631Y15518D01*
X45674Y15377D01*
X45743Y15246D01*
X45837Y15132D01*
X45951Y15038D01*
X46082Y14969D01*
X46223Y14926D01*
X46250Y14923D01*
Y15575D01*
D02*
G37*
G36*
X46090Y13121D02*
X45756D01*
Y12869D01*
X46090D01*
Y13121D01*
D02*
G37*
G36*
Y13613D02*
X45756D01*
Y13361D01*
X46090D01*
Y13613D01*
D02*
G37*
G36*
X47089Y13636D02*
X47070D01*
Y13508D01*
X47243D01*
X47238Y13537D01*
X47203Y13589D01*
X47150Y13624D01*
X47089Y13636D01*
D02*
G37*
G36*
X44943Y18260D02*
X44691D01*
Y17926D01*
X44943D01*
Y18260D01*
D02*
G37*
G36*
X44451D02*
X44199D01*
Y17926D01*
X44451D01*
Y18260D01*
D02*
G37*
G36*
X46250Y16467D02*
X46223Y16464D01*
X46082Y16421D01*
X45951Y16352D01*
X45837Y16258D01*
X45743Y16144D01*
X45674Y16013D01*
X45631Y15872D01*
X45625Y15815D01*
X46250D01*
Y16467D01*
D02*
G37*
G36*
X46490D02*
Y15815D01*
X47115D01*
X47109Y15872D01*
X47066Y16013D01*
X46997Y16144D01*
X46903Y16258D01*
X46789Y16352D01*
X46658Y16421D01*
X46517Y16464D01*
X46490Y16467D01*
D02*
G37*
G36*
X28020Y17717D02*
X28004D01*
Y17545D01*
X28167D01*
Y17571D01*
X28156Y17627D01*
X28124Y17674D01*
X28077Y17706D01*
X28020Y17717D01*
D02*
G37*
G36*
X18665Y14610D02*
X18628D01*
Y14360D01*
X18826D01*
Y14449D01*
X18814Y14510D01*
X18779Y14563D01*
X18727Y14598D01*
X18665Y14610D01*
D02*
G37*
G36*
X18826Y14260D02*
X18628D01*
Y14010D01*
X18665D01*
X18727Y14022D01*
X18779Y14057D01*
X18814Y14110D01*
X18826Y14171D01*
Y14260D01*
D02*
G37*
G36*
X19392Y14340D02*
X19194D01*
Y14251D01*
X19206Y14190D01*
X19241Y14137D01*
X19293Y14102D01*
X19355Y14090D01*
X19380D01*
X19392Y14102D01*
Y14340D01*
D02*
G37*
G36*
X40507Y12019D02*
X40370D01*
Y11374D01*
X40765D01*
Y11761D01*
X40507Y12019D01*
D02*
G37*
G36*
X41470D02*
X41332D01*
X41075Y11761D01*
Y11374D01*
X41470D01*
Y12019D01*
D02*
G37*
G36*
X40130D02*
X39992D01*
X39735Y11761D01*
Y11374D01*
X40130D01*
Y12019D01*
D02*
G37*
G36*
X41847D02*
X41710D01*
Y11374D01*
X42105D01*
Y11761D01*
X41847Y12019D01*
D02*
G37*
G36*
X38924Y15734D02*
X38906D01*
X38844Y15721D01*
X38791Y15686D01*
X38757Y15634D01*
X38751Y15605D01*
X38924D01*
Y15734D01*
D02*
G37*
G36*
X39183D02*
X39164D01*
Y15605D01*
X39338D01*
X39332Y15634D01*
X39297Y15686D01*
X39245Y15721D01*
X39183Y15734D01*
D02*
G37*
G36*
X35816Y17753D02*
X35560D01*
Y17104D01*
X35816D01*
Y17753D01*
D02*
G37*
G36*
X46664Y11991D02*
X46330D01*
Y11739D01*
X46664D01*
Y11991D01*
D02*
G37*
G36*
X46090D02*
X45756D01*
Y11739D01*
X46090D01*
Y11991D01*
D02*
G37*
G36*
X43665Y16430D02*
X43270D01*
Y15785D01*
X43408D01*
X43665Y16042D01*
Y16430D01*
D02*
G37*
G36*
X45005D02*
X44610D01*
Y15785D01*
X44748D01*
X45005Y16042D01*
Y16430D01*
D02*
G37*
G36*
X44370D02*
X43975D01*
Y16042D01*
X44233Y15785D01*
X44370D01*
Y16430D01*
D02*
G37*
G36*
X43408Y17315D02*
X43270D01*
Y16670D01*
X43665D01*
Y17057D01*
X43408Y17315D01*
D02*
G37*
G36*
X11010Y15323D02*
X10837D01*
Y15307D01*
X10848Y15251D01*
X10880Y15203D01*
X10928Y15171D01*
X10984Y15160D01*
X11010D01*
Y15323D01*
D02*
G37*
G36*
X33185Y14550D02*
X33148D01*
Y14300D01*
X33346D01*
Y14389D01*
X33334Y14450D01*
X33299Y14503D01*
X33247Y14538D01*
X33185Y14550D01*
D02*
G37*
G36*
X32106Y13590D02*
X31908D01*
Y13340D01*
X31945D01*
X32007Y13352D01*
X32059Y13387D01*
X32094Y13440D01*
X32106Y13501D01*
Y13590D01*
D02*
G37*
G36*
X33346Y14200D02*
X33148D01*
Y13950D01*
X33185D01*
X33247Y13962D01*
X33299Y13997D01*
X33334Y14050D01*
X33346Y14111D01*
Y14200D01*
D02*
G37*
G36*
X42105Y16434D02*
X41710D01*
Y15789D01*
X41847D01*
X42105Y16046D01*
Y16434D01*
D02*
G37*
G36*
X41470D02*
X41075D01*
Y16046D01*
X41332Y15789D01*
X41470D01*
Y16434D01*
D02*
G37*
G36*
X40765D02*
X40370D01*
Y15789D01*
X40507D01*
X40765Y16046D01*
Y16434D01*
D02*
G37*
G36*
X40130D02*
X39735D01*
Y16046D01*
X39992Y15789D01*
X40130D01*
Y16434D01*
D02*
G37*
G36*
X41847Y17319D02*
X41710D01*
Y16674D01*
X42105D01*
Y17061D01*
X41847Y17319D01*
D02*
G37*
G36*
X40507D02*
X40370D01*
Y16674D01*
X40765D01*
Y17061D01*
X40507Y17319D01*
D02*
G37*
G36*
X41470D02*
X41332D01*
X41075Y17061D01*
Y16674D01*
X41470D01*
Y17319D01*
D02*
G37*
G36*
X40130D02*
X39992D01*
X39735Y17061D01*
Y16674D01*
X40130D01*
Y17319D01*
D02*
G37*
G36*
X14388Y14580D02*
X14189D01*
Y14491D01*
X14201Y14430D01*
X14236Y14377D01*
X14289Y14342D01*
X14350Y14330D01*
X14388D01*
Y14580D01*
D02*
G37*
G36*
X15181Y14360D02*
X14982D01*
Y14110D01*
X15020D01*
X15081Y14122D01*
X15134Y14157D01*
X15169Y14210D01*
X15181Y14271D01*
Y14360D01*
D02*
G37*
G36*
X14000Y13532D02*
X13750D01*
Y13334D01*
X13839D01*
X13900Y13346D01*
X13953Y13381D01*
X13988Y13433D01*
X14000Y13495D01*
Y13532D01*
D02*
G37*
G36*
X18105Y30626D02*
X17745D01*
Y30266D01*
X17900D01*
X18105Y30471D01*
Y30626D01*
D02*
G37*
G36*
X17900Y31086D02*
X17745D01*
Y30726D01*
X18105D01*
Y30881D01*
X17900Y31086D01*
D02*
G37*
G36*
X14895Y28702D02*
X14869D01*
X14813Y28691D01*
X14765Y28659D01*
X14734Y28611D01*
X14722Y28555D01*
Y28539D01*
X14895D01*
Y28702D01*
D02*
G37*
G36*
X15021D02*
X14995D01*
Y28539D01*
X15168D01*
Y28555D01*
X15157Y28611D01*
X15125Y28659D01*
X15077Y28691D01*
X15021Y28702D01*
D02*
G37*
G36*
X14295Y28703D02*
X14269D01*
X14213Y28692D01*
X14165Y28660D01*
X14134Y28612D01*
X14122Y28556D01*
Y28540D01*
X14295D01*
Y28703D01*
D02*
G37*
G36*
X14421D02*
X14395D01*
Y28540D01*
X14568D01*
Y28556D01*
X14557Y28612D01*
X14525Y28660D01*
X14477Y28692D01*
X14421Y28703D01*
D02*
G37*
G36*
X16485Y23941D02*
X16225D01*
Y23631D01*
X16485D01*
Y23941D01*
D02*
G37*
G36*
X16860Y24444D02*
X16600D01*
Y24134D01*
X16860D01*
Y24444D01*
D02*
G37*
G36*
X42796Y36517D02*
X42710Y36500D01*
X42698Y36492D01*
X37048D01*
X37006Y36450D01*
Y31862D01*
X37048Y31820D01*
X39787D01*
X39807Y31812D01*
X39890Y31801D01*
X39974Y31812D01*
X39994Y31820D01*
X44050D01*
Y36492D01*
X42893D01*
X42881Y36500D01*
X42796Y36517D01*
D02*
G37*
%LPD*%
G36*
X42380Y35060D02*
X41880Y34560D01*
X41000D01*
X40720Y34280D01*
X40620D01*
Y34397D01*
X40621Y34404D01*
Y35310D01*
Y35781D01*
X40640Y35800D01*
X41130Y36290D01*
X42380D01*
Y35060D01*
D02*
G37*
G36*
X40550Y35800D02*
Y35310D01*
Y34404D01*
X40549Y34402D01*
X40539Y34351D01*
Y34047D01*
X40547Y34004D01*
X40529Y33975D01*
X40517Y33960D01*
X40128D01*
X40119Y33966D01*
X40069Y33976D01*
X40044D01*
X39790Y34230D01*
X38980Y35040D01*
X38810D01*
X38690Y35160D01*
Y36050D01*
X38930Y36290D01*
X40060D01*
X40550Y35800D01*
D02*
G37*
G36*
X38530Y35830D02*
Y35070D01*
X38690Y34910D01*
X38848D01*
X39910Y33848D01*
X40352D01*
X40580Y33620D01*
Y33540D01*
X40550Y33510D01*
X37680D01*
X37570Y33620D01*
X37110Y34080D01*
Y35210D01*
Y36030D01*
X37290Y36210D01*
X38150D01*
X38530Y35830D01*
D02*
G37*
%LPC*%
G36*
X15668Y23540D02*
X15496D01*
Y23524D01*
X15507Y23467D01*
X15539Y23420D01*
X15586Y23388D01*
X15642Y23377D01*
X15668D01*
Y23540D01*
D02*
G37*
G36*
X16158Y23021D02*
X15995D01*
Y22995D01*
X16006Y22939D01*
X16038Y22891D01*
X16085Y22859D01*
X16142Y22848D01*
X16158D01*
Y23021D01*
D02*
G37*
G36*
X20901Y22170D02*
X20601D01*
Y22045D01*
X20901D01*
Y22170D01*
D02*
G37*
G36*
X21739Y22046D02*
X21566D01*
Y21884D01*
X21592D01*
X21648Y21895D01*
X21696Y21927D01*
X21727Y21974D01*
X21739Y22030D01*
Y22046D01*
D02*
G37*
G36*
X19248Y22170D02*
X18948D01*
Y22045D01*
X19248D01*
Y22170D01*
D02*
G37*
G36*
X16702Y22501D02*
X16622D01*
X16532Y22483D01*
X16456Y22432D01*
X16405Y22356D01*
X16387Y22266D01*
Y22146D01*
X16702D01*
Y22501D01*
D02*
G37*
G36*
Y22046D02*
X16387D01*
Y21926D01*
X16405Y21837D01*
X16456Y21761D01*
X16532Y21710D01*
X16622Y21692D01*
X16702D01*
Y22046D01*
D02*
G37*
G36*
X16882Y22501D02*
X16802D01*
Y22096D01*
Y21692D01*
X16882D01*
X16972Y21710D01*
X17048Y21761D01*
X17099Y21837D01*
X17108Y21883D01*
X17254D01*
X17328Y21898D01*
X17391Y21940D01*
X17433Y22003D01*
X17448Y22077D01*
X17433Y22151D01*
X17391Y22214D01*
X17328Y22256D01*
X17254Y22270D01*
X17116D01*
X17099Y22356D01*
X17048Y22432D01*
X16972Y22483D01*
X16882Y22501D01*
D02*
G37*
G36*
X15910Y25450D02*
X15747D01*
Y25446D01*
X15728Y25427D01*
X15718D01*
X15676Y25419D01*
X15639Y25394D01*
X15615Y25358D01*
X15606Y25315D01*
X15615Y25272D01*
X15639Y25236D01*
X15676Y25211D01*
X15718Y25203D01*
X15775D01*
X15775Y25203D01*
X15818Y25211D01*
X15854Y25236D01*
X15896Y25277D01*
X15910D01*
Y25450D01*
D02*
G37*
G36*
X14035Y24647D02*
X13718D01*
Y24330D01*
X13765Y24336D01*
X13855Y24374D01*
X13932Y24433D01*
X13992Y24510D01*
X14029Y24600D01*
X14035Y24647D01*
D02*
G37*
G36*
X13618D02*
X13302D01*
X13308Y24600D01*
X13345Y24510D01*
X13405Y24433D01*
X13482Y24374D01*
X13572Y24336D01*
X13618Y24330D01*
Y24647D01*
D02*
G37*
G36*
X46120Y22933D02*
X46082Y22921D01*
X45951Y22852D01*
X45837Y22758D01*
X45743Y22644D01*
X45674Y22513D01*
X45653Y22445D01*
X46120D01*
Y22933D01*
D02*
G37*
G36*
X46620D02*
Y22445D01*
X47087D01*
X47066Y22513D01*
X46997Y22644D01*
X46903Y22758D01*
X46789Y22852D01*
X46658Y22921D01*
X46620Y22933D01*
D02*
G37*
G36*
X44798Y22145D02*
X44790D01*
Y21630D01*
X45055D01*
Y21888D01*
X44798Y22145D01*
D02*
G37*
G36*
X44290Y21130D02*
X44025D01*
Y20872D01*
X44282Y20615D01*
X44290D01*
Y21130D01*
D02*
G37*
G36*
X45055D02*
X44790D01*
Y20615D01*
X44798D01*
X45055Y20872D01*
Y21130D01*
D02*
G37*
G36*
X43715D02*
X43450D01*
Y20615D01*
X43457D01*
X43715Y20872D01*
Y21130D01*
D02*
G37*
G36*
X42950D02*
X42685D01*
Y20872D01*
X42943Y20615D01*
X42950D01*
Y21130D01*
D02*
G37*
G36*
X43457Y22145D02*
X43450D01*
Y21630D01*
X43715D01*
Y21888D01*
X43457Y22145D01*
D02*
G37*
G36*
X44290D02*
X44282D01*
X44025Y21888D01*
Y21630D01*
X44290D01*
Y22145D01*
D02*
G37*
G36*
X46120Y21945D02*
X45653D01*
X45674Y21877D01*
X45743Y21746D01*
X45837Y21632D01*
X45951Y21538D01*
X46082Y21469D01*
X46120Y21457D01*
Y21945D01*
D02*
G37*
G36*
X47087D02*
X46620D01*
Y21457D01*
X46658Y21469D01*
X46789Y21538D01*
X46903Y21632D01*
X46997Y21746D01*
X47066Y21877D01*
X47087Y21945D01*
D02*
G37*
G36*
X42950Y22145D02*
X42943D01*
X42685Y21888D01*
Y21630D01*
X42950D01*
Y22145D01*
D02*
G37*
G36*
X47087Y28445D02*
X46620D01*
Y27957D01*
X46658Y27969D01*
X46789Y28038D01*
X46903Y28132D01*
X46997Y28246D01*
X47066Y28377D01*
X47087Y28445D01*
D02*
G37*
G36*
X44290Y26430D02*
X44025D01*
Y26172D01*
X44282Y25915D01*
X44290D01*
Y26430D01*
D02*
G37*
G36*
X45055D02*
X44790D01*
Y25915D01*
X44798D01*
X45055Y26172D01*
Y26430D01*
D02*
G37*
G36*
X43715D02*
X43450D01*
Y25915D01*
X43457D01*
X43715Y26172D01*
Y26430D01*
D02*
G37*
G36*
X44290Y27445D02*
X44282D01*
X44025Y27188D01*
Y26930D01*
X44290D01*
Y27445D01*
D02*
G37*
G36*
X43457D02*
X43450D01*
Y26930D01*
X43715D01*
Y27188D01*
X43457Y27445D01*
D02*
G37*
G36*
X44798D02*
X44790D01*
Y26930D01*
X45055D01*
Y27188D01*
X44798Y27445D01*
D02*
G37*
G36*
X42950D02*
X42943D01*
X42685Y27188D01*
Y26930D01*
X42950D01*
Y27445D01*
D02*
G37*
G36*
X46620Y29433D02*
Y28945D01*
X47087D01*
X47066Y29013D01*
X46997Y29144D01*
X46903Y29258D01*
X46789Y29352D01*
X46658Y29421D01*
X46620Y29433D01*
D02*
G37*
G36*
X42950Y26430D02*
X42685D01*
Y26172D01*
X42943Y25915D01*
X42950D01*
Y26430D01*
D02*
G37*
%LPD*%
D10*
X50263Y11811D02*
G03*
X50263Y11811I-1050J0D01*
G01*
X12861D02*
G03*
X12861Y11811I-1050J0D01*
G01*
Y35827D02*
G03*
X12861Y35827I-1050J0D01*
G01*
X50263D02*
G03*
X50263Y35827I-1050J0D01*
G01*
D11*
X20992Y14518D02*
G03*
X20991Y14518I168J-168D01*
G01*
D02*
G03*
X20922Y14350I168J-168D01*
G01*
X20630Y14370D02*
G03*
X20678Y14350I48J48D01*
G01*
X30827Y26299D02*
X30945Y26417D01*
X30827Y25433D02*
X30945Y25551D01*
X30000Y23773D02*
X30394Y23379D01*
Y23346D02*
X30454Y23407D01*
X32621Y15860D02*
X32720D01*
X32045Y16139D02*
X32425D01*
X32380Y16101D02*
X32621Y15860D01*
X27769Y16579D02*
X27860Y16488D01*
X26049Y17504D02*
Y17813D01*
X21516Y22096D02*
X21801D01*
X21031Y25313D02*
Y25451D01*
X22405Y16139D02*
X22785D01*
X23080Y15860D02*
Y16000D01*
X17905Y16139D02*
X18285D01*
X13431Y16499D02*
X13811D01*
X14630Y16300D02*
X14810Y16120D01*
X43800Y33630D02*
X43880Y33710D01*
X38019Y16396D02*
X38352Y16730D01*
X21783Y14455D02*
X21792D01*
X17500Y26155D02*
Y26800D01*
X16850Y27200D02*
X17700D01*
X17972Y25463D02*
Y25689D01*
X23424Y25200D02*
X23681Y25457D01*
X23018Y25200D02*
X23424D01*
X23681Y25457D02*
X24167D01*
X23409Y25397D02*
X23633Y25621D01*
X23018Y25397D02*
X23409D01*
X23633Y25621D02*
X23741D01*
X20991Y14518D02*
X20992Y14518D01*
X30459Y14350D02*
X30795Y14686D01*
X20230Y30224D02*
X20416Y30410D01*
X20472Y27953D02*
X20976Y27449D01*
X15385Y18561D02*
Y19355D01*
X27630Y29417D02*
X27833Y29620D01*
X33620Y15460D02*
Y18170D01*
X23850Y31160D02*
X24290Y30720D01*
X20620Y31620D02*
Y32390D01*
X26856Y27790D02*
X27165Y27480D01*
X16354Y34719D02*
X18060Y33013D01*
X25184Y28350D02*
Y29494D01*
X23927Y28956D02*
X24199Y28684D01*
X21521Y28956D02*
X23927D01*
X24199Y28350D02*
Y28684D01*
X24003Y28350D02*
Y28668D01*
X23865Y28806D02*
X24003Y28668D01*
X21459Y28806D02*
X23865D01*
X24240Y29500D02*
X24310Y29430D01*
X23430Y15901D02*
Y15987D01*
X14720Y27150D02*
X15961D01*
X30308Y26332D02*
X30561Y26079D01*
X30285Y26309D02*
X30295Y26319D01*
X22254Y23971D02*
Y24065D01*
X21759Y23475D02*
X22254Y23971D01*
X20951Y23475D02*
X21405D01*
X17003Y28733D02*
X18304D01*
X27430Y19296D02*
X27607Y19119D01*
X27430Y18941D02*
X27607Y19119D01*
X22177Y22793D02*
X22313D01*
X30046Y27169D02*
X30128Y27087D01*
Y27598D02*
Y28390D01*
X30285Y25423D02*
Y25827D01*
X30276Y25433D02*
X30285Y25423D01*
X34685Y29331D02*
X35039Y28976D01*
X35030Y26783D02*
Y27451D01*
X30295Y26319D02*
X30308Y26332D01*
X18484Y25710D02*
Y26150D01*
Y25512D02*
Y25710D01*
X12072Y20590D02*
X12230D01*
X17292Y14360D02*
Y14455D01*
X20976Y27441D02*
Y27449D01*
X43650Y33222D02*
X43832D01*
X12799Y14815D02*
X12818D01*
X18874Y15957D02*
X19200Y15631D01*
X20992Y14518D02*
X21155Y14681D01*
X20678Y14350D02*
X20922D01*
X29508Y15520D02*
X29670D01*
X13100Y17980D02*
X13160Y18040D01*
X20441Y27089D02*
Y27441D01*
X13849Y16461D02*
X13995Y16315D01*
X29318Y24420D02*
X29390D01*
X12372Y18090D02*
X12378Y18084D01*
X24120Y32010D02*
X24150Y31980D01*
X31516Y35457D02*
X31636Y35336D01*
X16402Y14465D02*
X16434D01*
X47210Y28850D02*
Y34850D01*
X47100Y28740D02*
X47210Y28850D01*
X45290Y33025D02*
X46370Y31945D01*
X28780Y29427D02*
X28983Y29630D01*
X24987Y28350D02*
Y29053D01*
X24645Y29395D02*
X24987Y29053D01*
X24645Y29395D02*
X24880Y29630D01*
Y29960D01*
X26760Y30190D02*
X31993D01*
X32183Y30000D01*
X32915Y29765D02*
X33158Y30008D01*
X30250Y30040D02*
X30525Y29765D01*
X32915D01*
X33158Y30008D02*
Y34819D01*
X32193Y30383D02*
X32470Y30660D01*
X26713Y30383D02*
X32193D01*
X31963Y30533D02*
X32090Y30660D01*
X26613Y30533D02*
X31963D01*
X26840Y30040D02*
X30250D01*
X26906Y29870D02*
X30180D01*
X33020Y29610D02*
X33308Y29898D01*
X30440Y29610D02*
X33020D01*
X30180Y29870D02*
X30440Y29610D01*
X33389Y29450D02*
X34680Y28159D01*
X30090Y29450D02*
X33389D01*
X28990Y28350D02*
X30090Y29450D01*
X24120Y32010D02*
Y32240D01*
X24140Y31970D02*
X24150Y31980D01*
X16231Y34340D02*
X16354Y34217D01*
X14180Y34340D02*
X16231D01*
X13839Y33999D02*
X14180Y34340D01*
X13839Y30219D02*
Y33999D01*
X14354Y32575D02*
X14860Y32069D01*
Y31720D02*
Y32069D01*
X11463Y29650D02*
X12570D01*
X13400Y30480D01*
X12848Y29228D02*
X13839Y30219D01*
X12848Y28850D02*
Y29228D01*
X18930Y30750D02*
X19308D01*
X19318Y30760D01*
X19030Y30220D02*
X19313D01*
X19318Y30224D01*
X15110Y31470D02*
X18210D01*
X18610Y31070D02*
X19640D01*
X18210Y31470D02*
X18610Y31070D01*
X25316Y29494D02*
X26505Y30683D01*
X25184Y29494D02*
X25316D01*
X24280Y31270D02*
X24570Y31560D01*
X24280Y31099D02*
Y31270D01*
X23140Y31160D02*
X23850D01*
X21841Y30096D02*
Y31362D01*
X22080Y31601D01*
X21617Y31600D02*
X21797Y31780D01*
X21880D01*
X22080Y31980D01*
X22830Y32730D02*
X26890D01*
X22080Y31980D02*
X22830Y32730D01*
X24760Y31580D02*
X24865Y31685D01*
X24570Y31580D02*
X24760D01*
X24570Y31560D02*
Y31580D01*
X24240Y29869D02*
Y30250D01*
X24250Y30260D01*
X22841Y30096D02*
X23634D01*
X24240Y29490D01*
X25840Y30490D02*
X26333Y30983D01*
X24480Y30490D02*
X25840D01*
X24810Y31217D02*
X24850D01*
X24690Y31097D02*
X24810Y31217D01*
X25090Y31097D02*
X25403Y31410D01*
X25080Y31087D02*
X25090Y31097D01*
X25490Y31100D02*
X25758Y31368D01*
X25480Y31090D02*
X25490Y31100D01*
X24680Y31087D02*
X24690Y31097D01*
X24250Y30260D02*
X24480Y30490D01*
X24880Y29960D02*
X25220Y30300D01*
X24310Y29340D02*
Y29430D01*
Y29340D02*
X24790Y28860D01*
Y28350D02*
Y28860D01*
X24020Y31330D02*
X24065Y31420D01*
X24140Y31570D01*
X26890Y32730D02*
X27340Y32280D01*
X22210Y32870D02*
X22340D01*
X21620Y32280D02*
X22210Y32870D01*
X21001Y29475D02*
Y31239D01*
X20620Y31620D02*
X21001Y31239D01*
X20851Y29413D02*
Y31149D01*
X20350Y31650D02*
X20851Y31149D01*
X20077Y31650D02*
X20350D01*
X20701Y29351D02*
Y31069D01*
X20280Y31490D02*
X20701Y31069D01*
X19460Y31490D02*
X20280D01*
X20270Y30800D02*
X20450Y30980D01*
X20270Y30760D02*
Y30800D01*
X19640Y30767D02*
Y31070D01*
X19633Y30760D02*
X19640Y30767D01*
X18300Y31630D02*
X18590Y31340D01*
X19760D01*
X19950Y31150D01*
Y30760D02*
Y31150D01*
X19910Y29970D02*
X20401Y29479D01*
X19710Y29970D02*
X19910D01*
X19633Y30047D02*
X19710Y29970D01*
X19633Y30047D02*
Y30224D01*
X20401Y29227D02*
Y29479D01*
X19950Y30150D02*
X20551Y29549D01*
X19950Y30150D02*
Y30224D01*
X20551Y29289D02*
Y29549D01*
X20416Y30410D02*
X20450D01*
X19060Y31890D02*
X19460Y31490D01*
X19827Y31900D02*
X20077Y31650D01*
X18060Y31890D02*
X19060D01*
X19813Y31913D02*
X19827Y31900D01*
Y32193D02*
X19830Y32190D01*
X19010Y33010D02*
X19827Y32193D01*
Y31900D02*
Y32193D01*
X18060Y31890D02*
Y33013D01*
X17200Y31890D02*
Y32170D01*
X17460Y31630D02*
X18300D01*
X17200Y31890D02*
X17460Y31630D01*
X19010Y33010D02*
Y34050D01*
X20620Y32390D02*
X22733Y34503D01*
X24149D01*
X20488Y35528D02*
Y35827D01*
X19010Y34050D02*
X20488Y35528D01*
X24947Y31307D02*
X25050Y31410D01*
X24865Y31685D02*
X26755D01*
X24940Y31307D02*
X24947D01*
X24850Y31217D02*
X24940Y31307D01*
X25403Y31410D02*
X25420D01*
X26755Y31685D02*
X27180Y31260D01*
X22927Y31580D02*
X23180D01*
X22622Y33152D02*
Y33465D01*
X22340Y32870D02*
X22622Y33152D01*
X21620Y31993D02*
Y32280D01*
X21617Y31990D02*
X21620Y31993D01*
X29830Y29410D02*
Y29590D01*
X29200Y28780D02*
X29830Y29410D01*
X27440Y28780D02*
X29200D01*
X25774Y29444D02*
X26713Y30383D01*
X25774Y28350D02*
Y29444D01*
X25220Y30300D02*
X25910D01*
X26505Y30683D02*
X31483D01*
X25758Y31368D02*
Y31378D01*
X27340Y32280D02*
X31330D01*
X27106Y29061D02*
X27126D01*
X26880D02*
X27106D01*
X27750Y29610D02*
X27753D01*
X28413Y29630D02*
X28423Y29640D01*
X28210Y29427D02*
X28413Y29630D01*
X26443Y30833D02*
X29883D01*
X26333Y30983D02*
X29733D01*
X27358Y28698D02*
X27440Y28780D01*
X27358Y28350D02*
Y28698D01*
X22930Y30950D02*
X23140Y31160D01*
X22930Y30800D02*
Y30950D01*
X22806Y30676D02*
X22930Y30800D01*
X22421Y30676D02*
X22806D01*
X25910Y30300D02*
X26443Y30833D01*
X24593Y28350D02*
Y28824D01*
X24162Y29256D02*
X24593Y28824D01*
X14860Y31720D02*
X15110Y31470D01*
X20401Y29227D02*
X21272Y28356D01*
X27630Y34060D02*
X27652D01*
X20350Y28660D02*
X20756D01*
X21210Y28206D01*
X33158Y34819D02*
X34397Y36057D01*
X33308Y29898D02*
Y33969D01*
X34397Y35057D01*
X32606Y31806D02*
Y34574D01*
X31740Y35440D02*
X32606Y34574D01*
X27180Y31260D02*
X29310D01*
X29740Y31690D01*
X31330Y32280D02*
X31740Y32690D01*
X30480Y32120D02*
X31310D01*
X31740Y31690D01*
X30260Y31900D02*
X30480Y32120D01*
X30260Y31510D02*
Y31900D01*
X29733Y30983D02*
X30260Y31510D01*
X29883Y30833D02*
X30740Y31690D01*
X26368Y29332D02*
X26906Y29870D01*
X25380Y29300D02*
X26613Y30533D01*
X25380Y28350D02*
Y29300D01*
X25971Y29401D02*
X26760Y30190D01*
X25971Y28350D02*
Y29401D01*
X26148Y29348D02*
X26840Y30040D01*
X26148Y28370D02*
Y29348D01*
X26368Y28350D02*
Y29332D01*
X27774Y18311D02*
X28209D01*
X28440Y18080D01*
X28503Y16717D02*
X28510Y16710D01*
X28188Y16717D02*
X28503D01*
X18321Y16020D02*
X18460D01*
X18240Y16101D02*
X18321Y16020D01*
X15990Y17280D02*
X15995Y17275D01*
Y16926D02*
Y17275D01*
X15695Y16805D02*
Y18465D01*
X15531Y16669D02*
Y18495D01*
X15371Y16599D02*
Y18547D01*
X15211Y16539D02*
Y18599D01*
X15051Y16479D02*
Y18669D01*
X14891Y16419D02*
Y18470D01*
X14790Y18571D02*
X14891Y18470D01*
X14625Y18335D02*
X14630Y18330D01*
X15695Y16805D02*
X15770Y16730D01*
X15531Y16669D02*
X15667Y16533D01*
X15371Y16599D02*
X15634Y16336D01*
X15211Y16539D02*
X15611Y16139D01*
X15051Y16479D02*
X15588Y15942D01*
X14891Y16419D02*
X15565Y15745D01*
X23477Y15940D02*
X23650Y16113D01*
Y16391D01*
X23430Y15987D02*
X23477Y15940D01*
X23247Y16170D02*
X23430Y15987D01*
X23020Y16170D02*
X23247D01*
X23170Y16390D02*
X23270D01*
X22823Y16101D02*
X22877D01*
X23060Y16020D02*
X23080Y16000D01*
X22958Y16020D02*
X23060D01*
X22877Y16101D02*
X22958Y16020D01*
X22854Y16336D02*
X23020Y16170D01*
X33220Y15900D02*
X33300Y15980D01*
Y16391D01*
X33037Y15900D02*
X33220D01*
X32777Y16160D02*
X33037Y15900D01*
X32670Y16160D02*
X32777D01*
X32494Y16336D02*
X32670Y16160D01*
X32820Y16390D02*
X32920D01*
X31720Y20870D02*
X34040Y18550D01*
Y15370D02*
Y18550D01*
X33610Y14940D02*
X34040Y15370D01*
X32824Y14940D02*
X33610D01*
X32334Y15430D02*
X32824Y14940D01*
X18520Y16170D02*
X18627D01*
X18857Y15940D01*
X18354Y16336D02*
X18520Y16170D01*
X18189Y15865D02*
X18794Y15260D01*
X18194Y15430D02*
X18764Y14860D01*
X13874Y16696D02*
X14030Y16540D01*
X14137D01*
X14300Y16377D01*
X16800Y13750D02*
X17078Y13472D01*
X16658Y13892D02*
X16800Y13750D01*
X16658Y13892D02*
Y14360D01*
X17012D01*
X16402D02*
Y14465D01*
X16434D02*
X16479Y14510D01*
Y14524D01*
X16543Y14588D01*
X16555D01*
X16655Y14688D01*
Y14889D01*
X12562Y14212D02*
X12608Y14258D01*
X13130D01*
X12460Y14110D02*
X12562Y14212D01*
Y14720D01*
X12208D02*
X12562D01*
X28880Y16148D02*
X29508Y15520D01*
X30720Y18360D02*
X30778Y18302D01*
Y17750D02*
X31112D01*
X30992Y17192D02*
Y17630D01*
X31112Y17750D01*
X28380Y19130D02*
X28880Y18630D01*
Y16148D02*
Y18630D01*
X29030Y16210D02*
Y18830D01*
X27790Y20070D02*
X29030Y18830D01*
X32540Y12560D02*
Y12578D01*
X30795Y14681D02*
Y14686D01*
Y14889D01*
X19209Y19879D02*
Y20047D01*
X18965Y20255D02*
X19050Y20340D01*
X18815Y19165D02*
Y20485D01*
X18910Y20580D02*
X24360D01*
X18815Y20485D02*
X18910Y20580D01*
X18815Y19165D02*
X19250Y18730D01*
X19130Y19514D02*
X19635Y19009D01*
X19465Y18385D02*
X19635Y18555D01*
X18965Y19467D02*
X19485Y18947D01*
X19315Y18455D02*
X19485Y18625D01*
Y18947D01*
X19635Y18555D02*
Y19009D01*
X19465Y17551D02*
Y18385D01*
X19315Y17385D02*
Y18455D01*
X19615Y17613D02*
X19710Y17518D01*
Y16390D02*
Y17518D01*
X19940Y18420D02*
Y19310D01*
X19765Y18245D02*
X19940Y18420D01*
X19765Y17675D02*
Y18245D01*
Y17675D02*
X19870Y17570D01*
Y16470D02*
Y17570D01*
X20090Y18330D02*
Y19600D01*
X19915Y18155D02*
X20090Y18330D01*
X19915Y17775D02*
Y18155D01*
Y17775D02*
X20030Y17660D01*
Y16620D02*
Y17660D01*
X20400Y18242D02*
Y19290D01*
Y18242D02*
X20405Y18237D01*
Y17965D02*
Y18237D01*
X20199Y17759D02*
X20405Y17965D01*
X20199Y16791D02*
Y17759D01*
X19615Y17613D02*
Y18315D01*
X19790Y18490D02*
Y19067D01*
X19615Y18315D02*
X19790Y18490D01*
X20240Y18140D02*
Y19390D01*
X20150Y18050D02*
X20240Y18140D01*
X19465Y17551D02*
X19550Y17466D01*
X19315Y17385D02*
X19390Y17310D01*
X23690Y15260D02*
X24900Y16470D01*
Y16750D01*
X25280Y18570D02*
X25540Y18830D01*
X25280Y16390D02*
Y18570D01*
X23840Y14950D02*
X25280Y16390D01*
X25540Y18830D02*
Y19280D01*
X25679Y21468D02*
X25774Y21563D01*
X25971Y21553D02*
X26056Y21468D01*
X27682Y20615D02*
X28138Y21071D01*
X27613Y20765D02*
X27948Y21100D01*
X27395Y20915D02*
X27670Y21190D01*
X29810Y19700D02*
Y19750D01*
X29708Y19598D02*
X29810Y19700D01*
X29450Y19740D02*
X29950Y20240D01*
X29450Y19740D02*
X29558Y19632D01*
Y16422D02*
Y19632D01*
X29350Y16390D02*
Y19010D01*
X29190Y16300D02*
Y18930D01*
X28120Y20000D02*
X29190Y18930D01*
X28120Y20000D02*
Y20700D01*
X27790Y20070D02*
Y20380D01*
X28820Y20220D02*
X29490D01*
X29708Y16582D02*
Y19598D01*
X29858Y16772D02*
Y19448D01*
Y16772D02*
X29900Y16730D01*
X29708Y16582D02*
X29757Y16533D01*
X29558Y16422D02*
X29644Y16336D01*
X27954Y18803D02*
X27962Y18795D01*
X27435Y17973D02*
X27774Y18311D01*
X25884Y18154D02*
X26042Y18312D01*
X26260Y18093D01*
X30677Y20973D02*
X30745Y20905D01*
X31600Y20710D02*
X33870Y18440D01*
X30060Y20510D02*
X30260Y20710D01*
X28978Y20510D02*
X30060D01*
X33870Y15460D02*
Y18440D01*
X33520Y15110D02*
X33870Y15460D01*
X32874Y15110D02*
X33520D01*
X33610Y18160D02*
X33620Y18170D01*
X33420Y15260D02*
X33620Y15460D01*
X32934Y15260D02*
X33420D01*
X31494Y21644D02*
X31650Y21800D01*
X23174Y14950D02*
X23840D01*
X22694Y15430D02*
X23174Y14950D01*
X27434Y16579D02*
X27769D01*
X27860Y16488D02*
Y16580D01*
X24360Y20580D02*
X24695Y20915D01*
X24005Y21063D02*
X24132Y21190D01*
X23583Y21063D02*
X24005D01*
X24132Y21190D02*
X24139D01*
X24430Y20420D02*
X24775Y20765D01*
X27613D01*
X24695Y20915D02*
X27395D01*
X24585Y21065D02*
X27174D01*
X24485Y21215D02*
X27112D01*
X23294Y15260D02*
X23690D01*
X10400Y20710D02*
X10710Y21020D01*
X10400Y16440D02*
Y20710D01*
X11225Y17165D02*
Y19965D01*
X10900Y16840D02*
Y20180D01*
X11060Y17010D02*
Y20060D01*
X23478Y21170D02*
X23584Y21064D01*
X24530Y21581D02*
Y21588D01*
X24139Y21190D02*
X24530Y21581D01*
X24380Y21643D02*
Y22034D01*
X24077Y21340D02*
X24380Y21643D01*
Y22034D02*
X24396Y22050D01*
X24593Y21651D02*
Y22050D01*
X24530Y21588D02*
X24593Y21651D01*
X24790Y21480D02*
Y22050D01*
X24790Y22050D02*
X24790Y22050D01*
X25667Y21480D02*
X25679Y21468D01*
X25380Y21480D02*
X25667D01*
X27112Y21215D02*
X27548Y21651D01*
X27174Y21065D02*
X27748Y21639D01*
X27115Y20063D02*
Y20365D01*
X27430Y20370D02*
X27440Y20380D01*
X25971Y21553D02*
Y22050D01*
X25774Y21563D02*
Y22050D01*
X27670Y21190D02*
Y21194D01*
X27948Y21100D02*
Y22050D01*
X32810Y16390D02*
X32820D01*
X31290Y14588D02*
X31438Y14440D01*
Y14340D02*
Y14440D01*
X17283Y14455D02*
X17292D01*
X17150Y14588D02*
X17283Y14455D01*
X17148Y14588D02*
X17150D01*
X26768Y28350D02*
Y28949D01*
X29698Y15548D02*
X30135D01*
X29670Y15520D02*
X29698Y15548D01*
X29030Y16210D02*
X29495Y15745D01*
X30135D01*
X29757Y16533D02*
X30135D01*
X29900Y16730D02*
X30135D01*
X29644Y16336D02*
X30135D01*
X29190Y16300D02*
X29548Y15942D01*
X30135D01*
X29350Y16390D02*
X29601Y16139D01*
X30135D01*
X32045Y16336D02*
X32494D01*
X32329Y15865D02*
X32934Y15260D01*
X32380Y16101D02*
X32463D01*
X32045Y16336D02*
X32045Y16336D01*
X30822Y14360D02*
Y14408D01*
X30992Y14578D01*
X31582Y17192D02*
Y17388D01*
X32425Y16139D02*
X32463Y16101D01*
X30992Y14578D02*
Y14889D01*
X31288Y14588D02*
X31290D01*
X31188Y14688D02*
X31288Y14588D01*
X31188Y14688D02*
Y14889D01*
X30135Y16926D02*
Y17275D01*
X30130Y17280D02*
X30135Y17275D01*
X27430Y20063D02*
Y20370D01*
X26477Y20357D02*
X26480Y20360D01*
X26477Y20063D02*
Y20357D01*
X28138Y21071D02*
Y22050D01*
X20490Y17280D02*
X20495Y17275D01*
Y16926D02*
Y17275D01*
X21155Y14681D02*
Y14889D01*
X21548Y14688D02*
Y14889D01*
Y14688D02*
X21648Y14588D01*
X21650D01*
X21783Y14455D01*
X21352Y14578D02*
Y14889D01*
X22785Y16139D02*
X22823Y16101D01*
X21942Y17192D02*
Y17388D01*
X22654Y17500D02*
X22904Y17750D01*
X21182Y14408D02*
X21352Y14578D01*
X21792Y14360D02*
Y14455D01*
X21182Y14360D02*
Y14408D01*
X22405Y16336D02*
X22405Y16336D01*
X22740Y16101D02*
X22823D01*
X22689Y15865D02*
X23294Y15260D01*
X22405Y16336D02*
X22854D01*
X15770Y16730D02*
X15995D01*
X15667Y16533D02*
X15995D01*
X15634Y16336D02*
X15995D01*
X15611Y16139D02*
X15995D01*
X15588Y15942D02*
X15995D01*
X15565Y15745D02*
X15995D01*
X14916Y16120D02*
X15395Y15641D01*
X14810Y16120D02*
X14916D01*
X15395Y15535D02*
X15520Y15410D01*
X15395Y15535D02*
Y15641D01*
X13715Y16225D02*
X14400Y15540D01*
X15150D01*
X14980Y15310D02*
X15150Y15140D01*
X14420Y15310D02*
X14980D01*
X15150Y15100D02*
Y15140D01*
X13720Y15790D02*
X14573Y14937D01*
X14595D02*
X14702Y14830D01*
X14800D01*
X14573Y14937D02*
X14595D01*
X13654Y16696D02*
X13874D01*
X13653Y16696D02*
X13654Y16696D01*
X13431Y16696D02*
X13653D01*
X19961Y16139D02*
X20495D01*
X19710Y16390D02*
X19961Y16139D01*
X19908Y15942D02*
X20495D01*
X19550Y16300D02*
X19908Y15942D01*
X20004Y16336D02*
X20495D01*
X19870Y16470D02*
X20004Y16336D01*
X20260Y16730D02*
X20495D01*
X20199Y16791D02*
X20260Y16730D01*
X20117Y16533D02*
X20495D01*
X20030Y16620D02*
X20117Y16533D01*
X19855Y15745D02*
X20495D01*
X19390Y16210D02*
X19855Y15745D01*
X18670Y16390D02*
X19134D01*
X17905Y16336D02*
X18354D01*
X18764Y14860D02*
X19250D01*
X18240Y16101D02*
X18323D01*
X17905Y16336D02*
X17905Y16336D01*
X20030Y15520D02*
X20058Y15548D01*
X20495D01*
X13654Y16225D02*
X13715D01*
X16682Y14408D02*
X16852Y14578D01*
X18154Y17500D02*
X18404Y17750D01*
X17442Y17192D02*
Y17388D01*
X18285Y16139D02*
X18323Y16101D01*
X13577Y16302D02*
X13654Y16225D01*
X13431Y16302D02*
X13577D01*
X13751Y16461D02*
X13849D01*
X13811Y16499D02*
X13849Y16461D01*
X13431Y16696D02*
X13431Y16696D01*
X11950Y18780D02*
X12152Y18982D01*
X12630D01*
X11950Y18780D02*
X12108Y18622D01*
Y18180D02*
Y18622D01*
Y18180D02*
X12462D01*
X12378Y17552D02*
Y18084D01*
X12372Y18090D02*
X12462Y18180D01*
X11300Y17090D02*
X11522D01*
X11225Y17165D02*
X11300Y17090D01*
X11177Y16893D02*
X11522D01*
X11060Y17010D02*
X11177Y16893D01*
X11044Y16696D02*
X11522D01*
X10900Y16840D02*
X11044Y16696D01*
X10941Y16499D02*
X11522D01*
X10740Y16700D02*
X10941Y16499D01*
X10818Y16302D02*
X11522D01*
X10570Y16550D02*
X10818Y16302D01*
X10735Y16105D02*
X11522D01*
X10400Y16440D02*
X10735Y16105D01*
X11060Y15750D02*
X11218Y15908D01*
X11522D01*
X16852Y14578D02*
Y14889D01*
X17048Y14688D02*
X17148Y14588D01*
X17048Y14688D02*
Y14889D01*
X15658Y15548D02*
X15995D01*
X15520Y15410D02*
X15658Y15548D01*
X13640Y17820D02*
X13943Y18123D01*
X19104Y25738D02*
X19518Y25325D01*
X19002Y26608D02*
X19452Y26158D01*
X19528Y27608D02*
Y27953D01*
X45290Y35313D02*
Y35882D01*
Y35313D02*
X45290Y35313D01*
X17970Y25465D02*
Y25470D01*
X17297Y24255D02*
Y26152D01*
X17110Y25075D02*
Y26155D01*
X16909Y24874D02*
X17110Y25075D01*
X18060Y24832D02*
X18745Y25517D01*
X17582Y24609D02*
X18484Y25512D01*
X18745Y25517D02*
Y26411D01*
X35352Y28031D02*
X35382Y28002D01*
X35020Y28031D02*
X35352D01*
X35020D02*
X35020Y28032D01*
Y28502D01*
X36744Y25945D02*
X37059Y25630D01*
X35197Y25945D02*
X36744D01*
X35059Y26083D02*
X35197Y25945D01*
X38005Y26420D02*
X38059Y26366D01*
X35059Y25254D02*
X35366Y25561D01*
X35699D01*
X37545Y27451D02*
X38008Y27913D01*
X35863Y27451D02*
X37545D01*
X34680Y25114D02*
X34873Y24920D01*
X34680Y25114D02*
Y28159D01*
X35235Y28758D02*
X35433Y28560D01*
Y28551D02*
Y28560D01*
Y28551D02*
X35461Y28524D01*
X34628Y28758D02*
X35235D01*
X34449Y28937D02*
X34628Y28758D01*
X30561Y26079D02*
X31079D01*
X21897Y23073D02*
X22177Y22793D01*
X21341Y23073D02*
X21897D01*
X27430Y20063D02*
X27447D01*
X22667Y26775D02*
X23018D01*
X22598Y26844D02*
X22667Y26775D01*
X22598Y26844D02*
Y27520D01*
X22652Y26578D02*
X23018D01*
X22372Y26858D02*
X22652Y26578D01*
X22372Y26858D02*
Y26909D01*
X43800Y33253D02*
Y33630D01*
Y33253D02*
X43832Y33222D01*
X43449Y34089D02*
X43522D01*
X43126Y33766D02*
X43449Y34089D01*
X42892Y33766D02*
X43126D01*
X43067Y34760D02*
X43215Y34612D01*
Y34067D02*
Y34612D01*
X17641Y28563D02*
X18228D01*
X17578Y28500D02*
X17641Y28563D01*
X17362Y28500D02*
X17578D01*
X17299Y28563D02*
X17362Y28500D01*
X16808Y28563D02*
X17299D01*
X14380Y29618D02*
X14407Y29646D01*
X18489Y28050D02*
Y28302D01*
X18228Y28563D02*
X18489Y28302D01*
X18745Y27790D02*
Y28293D01*
X18304Y28733D02*
X18745Y28293D01*
X18351Y28903D02*
X19025Y28229D01*
Y27708D02*
Y28229D01*
X19043Y28438D02*
X19528Y27953D01*
X19043Y28438D02*
Y28923D01*
X24167Y25457D02*
X24419Y25709D01*
X19291Y23278D02*
Y23661D01*
X19239Y23225D02*
X19291Y23278D01*
X18898Y23225D02*
X19239D01*
X31579Y27523D02*
Y28549D01*
X31386Y28742D02*
X31579Y28549D01*
X31386Y28742D02*
Y28780D01*
X27577Y17495D02*
Y17514D01*
X27430Y17662D02*
X27577Y17514D01*
X27430Y17662D02*
Y17973D01*
Y18508D02*
Y18941D01*
X18495Y23975D02*
X18898D01*
X18346Y24124D02*
X18495Y23975D01*
X18327Y24124D02*
X18346D01*
X16604Y23276D02*
X16910Y23581D01*
X16604Y23091D02*
Y23276D01*
X16585Y23071D02*
X16604Y23091D01*
X22047Y26962D02*
Y27106D01*
X21909Y27244D02*
X22047Y27106D01*
X21890Y27244D02*
X21909D01*
X25207Y27057D02*
X27503D01*
X23041Y24823D02*
X23583D01*
X23018Y25594D02*
X23327D01*
X23997Y24089D02*
X24331D01*
X23018Y24210D02*
X23876D01*
X23997Y24089D01*
X23864Y24010D02*
X24045Y23829D01*
X23018Y24010D02*
X23864D01*
X23967Y23533D02*
X24488D01*
X23680Y23820D02*
X23967Y23533D01*
X23018Y23820D02*
X23680D01*
X23018Y23620D02*
X23663D01*
X24163Y23120D01*
X23018Y23230D02*
X23681D01*
X24592Y22858D02*
X24596Y22854D01*
X24053Y22858D02*
X24592D01*
X23681Y23230D02*
X24053Y22858D01*
X26168Y22050D02*
Y22917D01*
X26214Y22963D01*
X23638Y27790D02*
X26856D01*
X27087Y27480D02*
X27165D01*
X26368Y22628D02*
X26811Y23071D01*
X26568Y22434D02*
X26890Y22756D01*
X26568Y22050D02*
Y22434D01*
X26890Y22756D02*
X27283D01*
X27835Y23819D02*
X28824Y22830D01*
X27362Y23819D02*
X27835D01*
X27579Y24331D02*
X28879Y23030D01*
X27362Y24331D02*
X27579D01*
X23700Y27940D02*
X27248D01*
X27361Y27826D01*
X27158Y28120D02*
X27188Y28090D01*
X27158Y28120D02*
Y28350D01*
X23937Y26220D02*
X24055Y26339D01*
X23767Y26220D02*
X23937D01*
X23337Y25791D02*
X23767Y26220D01*
X19360Y28588D02*
X19477Y28472D01*
X19360Y28588D02*
Y28923D01*
X31494Y22915D02*
X31496Y22913D01*
X31494Y22911D02*
X31496Y22913D01*
X32411Y20996D02*
X33504D01*
X32030Y21378D02*
X32411Y20996D01*
X32360Y21708D02*
Y22229D01*
X32030Y21378D02*
X32360Y21708D01*
X32030Y22559D02*
X32360Y22229D01*
X31236Y21636D02*
Y24071D01*
Y21636D02*
X31494Y21378D01*
X31236Y24071D02*
X31339Y24173D01*
X28824Y22830D02*
X29318D01*
X28879Y23030D02*
X29318D01*
X29908Y24533D02*
Y24590D01*
X29698Y24800D02*
X29908Y24590D01*
X39043Y19779D02*
X39072Y19809D01*
X43110Y33963D02*
X43215Y34067D01*
X42892Y33963D02*
X43110D01*
X28356Y24439D02*
X28579Y24217D01*
X30016Y25244D02*
X30285Y24974D01*
X30016Y25244D02*
Y25811D01*
X28579Y24217D02*
X29311D01*
X30285Y24961D02*
Y24974D01*
X16354Y34719D02*
Y35827D01*
X24622Y34976D02*
Y35827D01*
X24149Y34503D02*
X24622Y34976D01*
X16354Y33465D02*
Y34217D01*
X10927Y29947D02*
Y31000D01*
X10630Y29650D02*
X10927Y29947D01*
X10630Y28850D02*
Y29650D01*
X16265Y29471D02*
X17003Y28733D01*
X20758Y28238D02*
X21024Y27972D01*
Y27953D02*
Y27972D01*
Y27953D02*
X21386D01*
X21504Y27835D01*
X21210Y28206D02*
X22542D01*
X21272Y28356D02*
X22605D01*
X21334Y28506D02*
X22667D01*
X20551Y29289D02*
X21334Y28506D01*
X21396Y28656D02*
X23346D01*
X20701Y29351D02*
X21396Y28656D01*
X20851Y29413D02*
X21459Y28806D01*
X21001Y29475D02*
X21521Y28956D01*
X21646Y27441D02*
X22039Y27835D01*
X20976Y27441D02*
X21646D01*
X20441Y27089D02*
X20453Y27077D01*
X15775Y25315D02*
X15960Y25500D01*
X15718Y25315D02*
X15775D01*
X15955Y25955D02*
X15960Y25950D01*
X16752Y22096D02*
X16772Y22077D01*
X15797Y23140D02*
X16175Y23518D01*
Y23581D01*
X15797Y23140D02*
Y23511D01*
X15718Y23590D02*
X15797Y23511D01*
Y23140D02*
X16139D01*
X16208Y23071D01*
X16136D02*
X16208D01*
X15718Y23967D02*
X16175Y24423D01*
Y24494D01*
X17018Y23977D02*
X17297Y24255D01*
X17018Y23809D02*
Y23977D01*
Y23809D02*
X17037Y23789D01*
X16175Y24494D02*
X16555Y24874D01*
X17579Y25463D02*
Y25706D01*
X17527Y25758D02*
X17579Y25706D01*
X17500Y25784D02*
Y26155D01*
Y25784D02*
X17527Y25758D01*
X18022Y24134D02*
X18317D01*
X17904Y25758D02*
X17972Y25689D01*
X18713Y29449D02*
X18723Y29459D01*
X18376Y29449D02*
X18713D01*
X18472Y29173D02*
X18723Y28923D01*
X18110Y29173D02*
X18472D01*
X26768Y28949D02*
X26811Y28992D01*
X23914Y26999D02*
X24115D01*
X25577Y22437D02*
X25710Y22570D01*
X25577Y22050D02*
Y22437D01*
X23018Y24600D02*
X23468D01*
X23018Y24800D02*
X23041Y24823D01*
X26811Y28992D02*
X26880Y29061D01*
X22542Y28206D02*
X23018Y27730D01*
X23652Y28350D02*
X23806D01*
X23346Y28656D02*
X23652Y28350D01*
X23018Y27562D02*
Y27730D01*
X22605Y28356D02*
X23175Y27785D01*
X23430D01*
X23237Y27935D02*
X23492D01*
X21766Y25367D02*
Y25410D01*
X22501Y26184D02*
X23018D01*
X22025Y26660D02*
X22501Y26184D01*
X21421Y29676D02*
X21841Y30096D01*
X28138Y27904D02*
Y28350D01*
X28338Y27891D02*
Y28350D01*
X23583Y21063D02*
X23584Y21064D01*
X26358Y21468D02*
X26368Y21478D01*
X26056Y21468D02*
X26358D01*
X22322Y23663D02*
X22323Y23661D01*
X26368Y22050D02*
Y22628D01*
X31921Y28780D02*
X31941Y28799D01*
X32244D01*
X31240Y27382D02*
X31339Y27283D01*
X31240Y27382D02*
Y27687D01*
X28927Y24410D02*
X29318D01*
X28701Y24636D02*
X28927Y24410D01*
X29738Y24491D02*
Y24520D01*
X30454Y23407D02*
X30454D01*
X22667Y28506D02*
X23237Y27935D01*
X23366Y28238D02*
X23402D01*
X29311Y24217D02*
X29318Y24210D01*
X29846Y25981D02*
X30016Y25811D01*
X29318Y24800D02*
X29698D01*
X29658Y24600D02*
X29738Y24520D01*
X29318Y24600D02*
X29658D01*
X30016Y26097D02*
X30285Y25827D01*
X22221Y29256D02*
X24162D01*
X24396Y28350D02*
Y28809D01*
X24100Y29106D02*
X24396Y28809D01*
X21991Y29106D02*
X24100D01*
X21421Y29676D02*
X21991Y29106D01*
X26797Y16575D02*
X27115D01*
X27430D02*
X27434Y16579D01*
X26357Y18093D02*
X26477Y17973D01*
X26260Y18093D02*
X26357D01*
X27656Y16855D02*
X27853Y17052D01*
X27286Y16855D02*
X27656D01*
X27430Y17973D02*
X27435D01*
X27115Y17026D02*
X27286Y16855D01*
X27115Y17026D02*
Y17111D01*
X22280Y26657D02*
X22556Y26381D01*
X22277Y26654D02*
X22280Y26657D01*
X22251Y26654D02*
X22277D01*
X21537Y24214D02*
X21753D01*
X21506Y24183D02*
X21537Y24214D01*
X21995Y26909D02*
X22251Y26654D01*
X21411Y26660D02*
X22025D01*
X19452Y26158D02*
X19518D01*
X18745Y26608D02*
X19002D01*
X31339Y25799D02*
Y25906D01*
X31119Y25579D02*
X31339Y25799D01*
X31119Y25305D02*
Y25579D01*
X31026Y25213D02*
X31119Y25305D01*
X31079Y26079D02*
X31339Y26339D01*
X21708Y23806D02*
X21712Y23810D01*
X21519Y22470D02*
X21801D01*
X21516Y22473D02*
X21519Y22470D01*
X19125Y25759D02*
Y25759D01*
X19104Y25738D02*
X19125Y25759D01*
X19498Y26805D02*
X19528Y26775D01*
X18745Y26805D02*
X19498D01*
X18100Y22720D02*
X18898D01*
X18095Y22970D02*
X18898D01*
X18032Y23740D02*
X18038Y23747D01*
X18327D01*
X18041Y22028D02*
X18337D01*
X21516Y22096D02*
X21516Y22096D01*
X20951Y22720D02*
X21370D01*
X20951Y22470D02*
X21513D01*
X18317Y24134D02*
X18327Y24124D01*
X18330Y22411D02*
X18337Y22405D01*
X18041Y22411D02*
X18330D01*
X18337Y22028D02*
X18337Y22028D01*
X21298Y23975D02*
X21506Y24183D01*
X20951Y23975D02*
X21298D01*
X21513Y22470D02*
X21516Y22473D01*
X21392Y22220D02*
X21516Y22096D01*
X20951Y22220D02*
X21392D01*
X18348Y23725D02*
X18898D01*
X18337Y22028D02*
X18529Y22220D01*
X18898D01*
X18337Y22405D02*
X18402Y22470D01*
X18898D01*
X14390Y30199D02*
X14392Y30197D01*
X14892D01*
X14882Y30207D02*
X14892Y30197D01*
X14882Y30207D02*
Y30591D01*
X17265Y30106D02*
Y30740D01*
Y30106D02*
X17695Y29676D01*
X16900Y31106D02*
X17265Y30740D01*
X16491Y31106D02*
X16900D01*
X16265Y30880D02*
X16491Y31106D01*
X16265Y30611D02*
Y30880D01*
X15900Y30246D02*
X16265Y30611D01*
X14892Y29646D02*
X15492Y30246D01*
X15900D01*
X14407Y29646D02*
X14892D01*
X17018Y28393D02*
X17110Y28301D01*
Y28050D02*
Y28301D01*
X15695Y29676D02*
X16808Y28563D01*
X16265Y29471D02*
Y30246D01*
X17700Y25961D02*
X17904Y25758D01*
X17700Y25961D02*
Y26155D01*
X17297Y26152D02*
X17300Y26155D01*
X17700Y27200D02*
X17800Y27100D01*
X17500Y26800D02*
X17800Y27100D01*
X19360Y29459D02*
X19675D01*
X19043D02*
X19360D01*
X18723D02*
X19043D01*
X18916Y27600D02*
X19025Y27708D01*
X18745Y27600D02*
X18916D01*
X16265Y30246D02*
X16695Y30676D01*
X19119Y27200D02*
X19124Y27205D01*
X18745Y27200D02*
X19119D01*
X18484Y26150D02*
X18489Y26155D01*
X18745Y26411D02*
X18748Y26415D01*
X30394Y23346D02*
Y23379D01*
X30945Y26417D02*
Y26693D01*
X30662D02*
X30945D01*
X30945Y25551D02*
Y25787D01*
X30662Y25827D02*
X30702Y25787D01*
X30945D01*
X30662Y24961D02*
X30702Y24921D01*
X30866Y24528D02*
X30945Y24606D01*
Y24921D01*
X31691Y25010D02*
X32008Y24693D01*
X31691Y25010D02*
Y25553D01*
X31339Y25906D02*
X31691Y25553D01*
X32638Y24244D02*
X32776Y24106D01*
X32638Y24244D02*
Y24598D01*
X32008Y23339D02*
X32776Y24106D01*
X33504D01*
X32008Y26409D02*
X32480Y26882D01*
X32008Y27646D02*
X32480Y27173D01*
Y26882D02*
Y27173D01*
X30315Y29035D02*
X30335Y29016D01*
X30787D01*
X32008Y28181D02*
X32016Y28189D01*
X32402D01*
X33480Y24130D02*
X33504Y24106D01*
X32008Y25228D02*
X32638Y24598D01*
X31024Y28150D02*
X31031Y28157D01*
X31339D01*
Y27283D02*
X31579Y27523D01*
X21031Y26280D02*
X21411Y26660D01*
X31543Y26339D02*
X31614Y26409D01*
Y26614D01*
X31543Y26339D02*
X32008Y25874D01*
X31339Y26339D02*
X31543D01*
X31339Y24724D02*
Y25039D01*
Y25354D01*
Y26890D02*
Y27283D01*
X29953Y23820D02*
X30000Y23773D01*
X29318Y23820D02*
X29953D01*
X31204Y24308D02*
X31339Y24173D01*
X30535Y24308D02*
X31204D01*
X30315Y24528D02*
X30535Y24308D01*
X30285Y24557D02*
X30315Y24528D01*
X30285Y24557D02*
Y24961D01*
Y25423D02*
X30496Y25213D01*
X31026D01*
X30285Y26309D02*
Y26693D01*
X26477Y16575D02*
X26797D01*
X27115D02*
X27430D01*
X30092Y28425D02*
X30128Y28390D01*
X29318Y27169D02*
X30046D01*
X30265Y27358D02*
X30505Y27598D01*
X29325Y27358D02*
X30265D01*
X30092Y27562D02*
X30128Y27598D01*
X29318Y27562D02*
X30092D01*
X29318Y27365D02*
X29325Y27358D01*
X26426Y17504D02*
X26477Y17453D01*
X26426Y17504D02*
X26477Y17556D01*
X27430Y17347D02*
X27577Y17495D01*
X27430Y17111D02*
Y17347D01*
X27115Y17445D02*
X27174Y17504D01*
X27115Y17111D02*
Y17445D01*
X26477Y17111D02*
Y17453D01*
X26042Y17819D02*
X26049Y17813D01*
X27954Y17783D02*
X27971Y17800D01*
X27954Y17495D02*
Y17783D01*
X26797Y19138D02*
X26797Y19139D01*
Y19528D01*
X27115Y17563D02*
X27174Y17504D01*
X27115Y17563D02*
Y17973D01*
X26477Y17556D02*
Y17973D01*
X27115Y19079D02*
X27174Y19138D01*
X27115Y18508D02*
Y19079D01*
X26426Y19138D02*
X26477Y19087D01*
Y18508D02*
Y19087D01*
X26797Y18821D02*
X26800Y18823D01*
X26797Y18508D02*
Y18821D01*
X26797Y18826D02*
X26800Y18823D01*
X26797Y18826D02*
Y19138D01*
X26426D02*
X26477Y19190D01*
Y19528D01*
X27115Y19197D02*
X27174Y19138D01*
X27115Y19197D02*
Y19528D01*
X27430Y19296D02*
Y19528D01*
X21766Y26185D02*
Y26280D01*
X21031Y25451D02*
X21766Y26185D01*
X20630Y24911D02*
Y25322D01*
X20561Y25391D02*
X20630Y25322D01*
X21070Y24911D02*
X21109Y24872D01*
X21486D02*
Y25088D01*
X21766Y25367D01*
X20561Y25768D02*
Y25809D01*
X21031Y26280D01*
X12312Y28850D02*
X12312Y28850D01*
X11463Y28850D02*
X12312D01*
X16200Y27632D02*
X16432Y27400D01*
X16850D01*
X16337Y25500D02*
Y25950D01*
Y26187D01*
X16561Y26411D01*
X16850D01*
X16340Y27150D02*
X16488Y27002D01*
X16850D01*
X16340Y26600D02*
X16545Y26805D01*
X16850D01*
X23018Y25000D02*
X23024Y24994D01*
X22215Y24383D02*
Y24577D01*
X22264Y27018D02*
Y27274D01*
Y27018D02*
X22372Y26909D01*
X22556Y26381D02*
X23018D01*
X30702Y24921D02*
X30945D01*
X22001Y30256D02*
X22421Y30676D01*
X22001Y29475D02*
Y30256D01*
X22421Y29676D02*
X22841Y30096D01*
X14354Y32575D02*
Y33465D01*
X22441Y27677D02*
X22598Y27520D01*
X22039Y27835D02*
X22283D01*
X22441Y27677D01*
X22001Y29475D02*
X22221Y29256D01*
X21764Y22433D02*
X21801Y22470D01*
X21615Y22433D02*
X21764D01*
X20951Y22970D02*
X21238D01*
X21341Y23073D01*
X22323Y23339D02*
Y23661D01*
X22313Y23329D02*
X22323Y23339D01*
X21995Y26909D02*
X22047Y26962D01*
X27954Y18803D02*
Y19128D01*
X29298Y23440D02*
X29318Y23420D01*
X30787Y29016D02*
X30789Y29014D01*
X32524Y27217D02*
X33504D01*
X32480Y27173D02*
X32524Y27217D01*
X16561Y26411D02*
Y26561D01*
X16608Y26608D01*
X16850D01*
X23543Y26653D02*
Y26702D01*
X23867Y26952D02*
X23914Y26999D01*
X23543Y26702D02*
X23580Y26739D01*
X23948Y27360D02*
X23953D01*
X28338Y21150D02*
Y22050D01*
X22314Y23663D02*
X22322D01*
X23018Y27365D02*
X23579D01*
X23583Y27362D01*
X23018Y27169D02*
X23409D01*
X21766Y25410D02*
X22343Y25987D01*
X23018D01*
Y25791D02*
X23337D01*
X23409Y27169D02*
X23475Y27102D01*
X23690D01*
X23948Y27360D01*
X26133Y27640D02*
X26251Y27521D01*
X23580Y26739D02*
X24223D01*
X24690Y27207D01*
X27441D02*
X28138Y27904D01*
X27503Y27057D02*
X28338Y27891D01*
X24690Y27207D02*
X27441D01*
X23430Y27785D02*
X23576Y27640D01*
X23402Y28238D02*
X23700Y27940D01*
X23492Y27935D02*
X23638Y27790D01*
X23576Y27640D02*
X26133D01*
X28338Y21150D02*
X28978Y20510D01*
X28701Y23957D02*
X28754Y24010D01*
X28514Y23957D02*
X28701D01*
X28754Y24010D02*
X29318D01*
X27548Y21651D02*
Y22050D01*
X27748Y21639D02*
Y22050D01*
X25055Y22605D02*
X25062Y22598D01*
X25055Y22605D02*
Y22824D01*
X25302Y23071D02*
X25551D01*
X25055Y22824D02*
X25302Y23071D01*
X25184Y22050D02*
Y22476D01*
X25062Y22598D02*
X25184Y22476D01*
X29318Y26578D02*
X29721D01*
X29846Y26454D01*
Y25981D02*
Y26454D01*
X29318Y26775D02*
X29737D01*
X30016Y26496D01*
Y26097D02*
Y26496D01*
X29318Y26972D02*
X29761D01*
X30039Y26693D01*
X30285D01*
X23468Y24600D02*
X23482Y24614D01*
X23018Y26972D02*
X23366D01*
X23386Y26952D01*
X23867D01*
X18898Y23725D02*
X19227D01*
X19291Y23661D01*
X16141Y28691D02*
X16438Y28393D01*
X15846Y28691D02*
X16141D01*
X16438Y28393D02*
X17018D01*
X14892Y29646D02*
X15846Y28691D01*
X15807Y28150D02*
X16182D01*
X16200Y28168D01*
X31494Y21378D02*
Y21644D01*
X32000Y24400D02*
X32008Y24408D01*
X31700Y26700D02*
Y26750D01*
X31614Y26614D02*
X31700Y26700D01*
X16555Y24874D02*
X16909D01*
X18575Y23475D02*
X18898D01*
X18400Y23300D02*
X18575Y23475D01*
X17582Y23239D02*
X18100Y22720D01*
X17752Y23313D02*
X18095Y22970D01*
X17582Y23239D02*
Y24609D01*
X17752Y23313D02*
Y24523D01*
X21470Y23770D02*
X21506Y23806D01*
X20951Y23725D02*
X20996Y23770D01*
X21470D01*
X21405Y23475D02*
X21759D01*
X17752Y24523D02*
X18060Y24832D01*
X17970Y25465D02*
X17972Y25463D01*
X15188Y26618D02*
X15450D01*
X15000Y26430D02*
X15188Y26618D01*
X17578Y29020D02*
X17694Y28903D01*
X18351D01*
X16695Y29676D02*
X16894D01*
X17550Y29020D01*
X17578D01*
X27853Y17052D02*
X28188Y16717D01*
X25707Y18154D02*
X25884D01*
X33937Y29331D02*
X34685D01*
X31483Y30683D02*
X32606Y31806D01*
X26148Y28370D02*
X26168Y28350D01*
X35699Y26394D02*
X35724Y26420D01*
X38005D01*
X11930Y14790D02*
X12181Y15041D01*
Y15249D01*
X12575Y15048D02*
Y15249D01*
Y15048D02*
X12674Y14948D01*
X12677D01*
X12741Y14884D01*
Y14873D02*
Y14884D01*
Y14873D02*
X12799Y14815D01*
X12818Y14720D02*
Y14815D01*
X12378Y14938D02*
Y15249D01*
X12208Y14768D02*
X12378Y14938D01*
X12208Y14720D02*
Y14768D01*
X12968Y17552D02*
Y17748D01*
X13100Y17880D01*
Y17980D01*
X23741Y25621D02*
X23927Y25807D01*
X13160Y18040D02*
X13380Y17820D01*
X13640D01*
X25965Y20615D02*
X27682D01*
X29858Y19448D02*
X30745Y20335D01*
Y20905D01*
X30827Y21233D02*
X31190Y20870D01*
X31720D01*
X30990Y20710D02*
X31600D01*
X30260D02*
X30480D01*
X32294Y17500D02*
X32544Y17750D01*
X23212Y21450D02*
X23400D01*
X23510Y21340D01*
X24077D01*
X23448Y21140D02*
X23478Y21170D01*
X23360Y21140D02*
X23448D01*
X20630Y24911D02*
X21031Y25313D01*
X20630Y24911D02*
X21070D01*
X21506Y23806D02*
X21708D01*
X18794Y15260D02*
X18814Y15280D01*
X19240D01*
X18804Y15040D02*
X19138D01*
X19143Y15045D01*
X19475D01*
X19690Y14830D01*
X19250Y14860D02*
X19290Y14820D01*
Y14810D02*
Y14820D01*
X24260Y20740D02*
X24585Y21065D01*
X24170Y20900D02*
X24485Y21215D01*
X23002Y21240D02*
X23212Y21450D01*
X22450Y21240D02*
X23002D01*
X21794Y22103D02*
X21801Y22096D01*
X19390Y16210D02*
Y17310D01*
X19550Y16300D02*
Y17466D01*
X28820Y19540D02*
X29350Y19010D01*
X28820Y19540D02*
Y20220D01*
X29130Y19740D02*
X29450D01*
X21950Y20420D02*
X24430D01*
X21400Y19500D02*
X21970Y20070D01*
X21190Y19660D02*
X21950Y20420D01*
X19130Y19514D02*
Y19800D01*
X19390Y19467D02*
X19790Y19067D01*
X19780Y19470D02*
X19940Y19310D01*
X20090Y19600D02*
X20160Y19670D01*
X20610Y19500D02*
X21400D01*
X20400Y19290D02*
X20610Y19500D01*
X20510Y19660D02*
X21190D01*
X20240Y19390D02*
X20510Y19660D01*
X18965Y19467D02*
Y20255D01*
X19130Y19800D02*
X19209Y19879D01*
X19390Y19467D02*
Y19670D01*
X19400Y19680D01*
X24003Y22050D02*
Y22467D01*
X23960Y22510D02*
X24003Y22467D01*
X24199Y22050D02*
Y22591D01*
X24090Y22700D02*
X24199Y22591D01*
X23510Y22700D02*
X24090D01*
X23280Y22470D02*
X23510Y22700D01*
X22690Y22470D02*
X23280D01*
X21430Y21210D02*
X22690Y22470D01*
X23600Y22510D02*
X23960D01*
X23400Y22310D02*
X23600Y22510D01*
X22810Y22310D02*
X23400D01*
X21550Y21050D02*
X22810Y22310D01*
X16910Y20740D02*
X24260D01*
X15650Y19580D02*
X15915Y19315D01*
X22920Y22050D02*
X23806D01*
X22630Y21760D02*
X22920Y22050D01*
X22610Y21760D02*
X22630D01*
X14455Y20775D02*
Y20785D01*
X14460Y20790D01*
X15040Y19320D02*
X15211Y19149D01*
X15360Y19340D02*
X15370D01*
X15040Y19320D02*
Y19413D01*
X14310Y21050D02*
X21550D01*
X14920Y20900D02*
X24170D01*
X15000Y18720D02*
X15051Y18669D01*
X15211Y18841D02*
Y19149D01*
X15680Y18690D02*
Y19190D01*
X15211Y18841D02*
X15235Y18817D01*
X15531Y18495D02*
X15535Y18498D01*
Y18545D01*
X15680Y18690D01*
X15371Y18547D02*
X15385Y18561D01*
X15211Y18599D02*
X15235Y18623D01*
Y18817D01*
X14625Y18335D02*
Y19015D01*
X14390Y19250D02*
X14625Y19015D01*
X15370Y19340D02*
X15385Y19355D01*
X15695Y18465D02*
X15915Y18685D01*
Y19315D01*
X12230Y20590D02*
Y20600D01*
X11868Y20590D02*
X11873Y20585D01*
X12067D01*
X12072Y20590D01*
X11890Y20740D02*
X11970Y20820D01*
X11225Y19965D02*
X11620Y20360D01*
X11060Y20060D02*
X11590Y20590D01*
X11868D01*
X10900Y20180D02*
X11460Y20740D01*
X11890D01*
X11620Y20360D02*
X12470D01*
X13060Y20950D01*
X13810D01*
X10570Y20532D02*
X11248Y21210D01*
X10570Y16550D02*
Y20532D01*
X11248Y21210D02*
X21430D01*
X10740Y20370D02*
X11120Y20750D01*
X10740Y16700D02*
Y20370D01*
X13943Y18123D02*
Y19096D01*
X14098Y19250D01*
X14390D01*
X36730Y17350D02*
X37132D01*
X36730D02*
X36730Y17350D01*
X38620Y24920D02*
X39460Y25760D01*
Y26180D01*
X39720Y26440D01*
X34873Y24920D02*
X38620D01*
X39720Y26440D02*
X40180D01*
X40458Y26162D01*
Y26100D02*
Y26162D01*
Y26100D02*
X41472D01*
X41472Y26100D01*
X42008D02*
Y27270D01*
X42011Y27274D01*
X45290Y36418D02*
X45642D01*
X47210Y34850D01*
X45290Y33025D02*
Y34480D01*
X38888Y16730D02*
Y17184D01*
X39053Y17350D01*
X38019Y15695D02*
Y16396D01*
X37668Y16378D02*
Y16750D01*
X37660Y16370D02*
X37668Y16378D01*
X37132Y16780D02*
Y17350D01*
X37668D02*
X37870Y17148D01*
Y17064D02*
Y17148D01*
Y17064D02*
X37934Y17000D01*
X38560D01*
X38660Y17100D01*
Y17650D01*
X38780Y17770D01*
X39043Y19779D02*
X39541D01*
X38780Y17770D02*
X39440D01*
X26060Y19800D02*
Y20250D01*
X25540Y19280D02*
X26060Y19800D01*
X14630Y16300D02*
Y16790D01*
Y18320D01*
X21352Y17192D02*
Y17758D01*
X21350Y17760D02*
X21352Y17758D01*
X16852Y17630D02*
X16982Y17760D01*
X16852Y17192D02*
Y17630D01*
X31630Y17660D02*
Y18170D01*
X28538Y28350D02*
X28990D01*
X29908Y24533D02*
X30827Y23614D01*
X29738Y24491D02*
X30677Y23552D01*
X30827Y21233D02*
Y23614D01*
X30677Y20973D02*
Y23552D01*
X39440Y17770D02*
X40020Y18350D01*
Y19300D01*
X39541Y19779D02*
X40020Y19300D01*
X18334Y23711D02*
X18348Y23725D01*
X15450Y26600D02*
X15961D01*
D12*
X25490Y30723D02*
D03*
Y31100D02*
D03*
X25090Y31097D02*
D03*
Y30720D02*
D03*
X24690Y31097D02*
D03*
Y30720D02*
D03*
X24280Y31099D02*
D03*
Y30720D02*
D03*
X24570Y31957D02*
D03*
Y31580D02*
D03*
X22080Y31601D02*
D03*
Y31980D02*
D03*
X25120Y29807D02*
D03*
Y29430D02*
D03*
X24630Y29767D02*
D03*
Y29390D02*
D03*
X24240Y29869D02*
D03*
Y29490D02*
D03*
X28780Y29427D02*
D03*
Y29050D02*
D03*
X28210Y29427D02*
D03*
Y29050D02*
D03*
X27630Y29417D02*
D03*
Y29040D02*
D03*
X33300Y16391D02*
D03*
Y16770D02*
D03*
X32820Y16767D02*
D03*
Y16390D02*
D03*
X29670Y15123D02*
D03*
Y15500D02*
D03*
X23170Y16767D02*
D03*
Y16390D02*
D03*
X23650Y16391D02*
D03*
Y16770D02*
D03*
X20030Y15143D02*
D03*
Y15520D02*
D03*
X19250Y15591D02*
D03*
Y15970D02*
D03*
X18670Y16390D02*
D03*
Y16767D02*
D03*
X14210Y17137D02*
D03*
Y16760D02*
D03*
X30000Y23396D02*
D03*
Y23773D02*
D03*
X22215Y24006D02*
D03*
Y24383D02*
D03*
X16200Y27713D02*
D03*
Y28090D02*
D03*
X15718Y23967D02*
D03*
Y23590D02*
D03*
X20561Y25768D02*
D03*
Y25391D02*
D03*
X26811Y28992D02*
D03*
Y29369D02*
D03*
X14945Y28489D02*
D03*
Y28110D02*
D03*
X18337Y22028D02*
D03*
Y22405D02*
D03*
X21516Y22096D02*
D03*
Y22473D02*
D03*
X21506Y24183D02*
D03*
Y23806D02*
D03*
X18327Y24124D02*
D03*
Y23747D02*
D03*
X14345Y28113D02*
D03*
Y28490D02*
D03*
X11060Y15373D02*
D03*
Y15750D02*
D03*
X15520Y15410D02*
D03*
Y15033D02*
D03*
X14780Y15781D02*
D03*
Y16160D02*
D03*
D13*
X25103Y31970D02*
D03*
X25480D02*
D03*
X23763Y31570D02*
D03*
X24140D02*
D03*
X23763Y31970D02*
D03*
X24140D02*
D03*
X22927Y31580D02*
D03*
X22550D02*
D03*
X22927Y31980D02*
D03*
X22550D02*
D03*
X21617Y31600D02*
D03*
X21240D02*
D03*
X21617Y31990D02*
D03*
X21240D02*
D03*
X20240Y31900D02*
D03*
X20617D02*
D03*
X19450D02*
D03*
X19827D02*
D03*
X17683Y31890D02*
D03*
X18060D02*
D03*
X16823D02*
D03*
X17200D02*
D03*
X14483Y31720D02*
D03*
X14860D02*
D03*
X24627Y30260D02*
D03*
X24250D02*
D03*
X32227Y17800D02*
D03*
X31850D02*
D03*
X32623Y17230D02*
D03*
X33000D02*
D03*
X33037Y15900D02*
D03*
X32660D02*
D03*
X22597Y17810D02*
D03*
X22220D02*
D03*
X22973Y17230D02*
D03*
X23350D02*
D03*
X23477Y15940D02*
D03*
X23100D02*
D03*
X18480D02*
D03*
X18857D02*
D03*
X18834Y17220D02*
D03*
X18457D02*
D03*
X17720Y17810D02*
D03*
X18097D02*
D03*
X13517Y18060D02*
D03*
X13140D02*
D03*
X14003Y17600D02*
D03*
X14380D02*
D03*
X30128Y27106D02*
D03*
X30505D02*
D03*
X22372Y26909D02*
D03*
X21995D02*
D03*
X25679Y21468D02*
D03*
X26056D02*
D03*
X20896Y27441D02*
D03*
X20519D02*
D03*
X16337Y25500D02*
D03*
X15960D02*
D03*
X16337Y25950D02*
D03*
X15960D02*
D03*
X16585Y23071D02*
D03*
X16208D02*
D03*
X17904Y25758D02*
D03*
X17527D02*
D03*
X21486Y24872D02*
D03*
X21109D02*
D03*
X30285Y26693D02*
D03*
X30662D02*
D03*
X30285Y25827D02*
D03*
X30662D02*
D03*
X15961Y26600D02*
D03*
X16340D02*
D03*
X15961Y27150D02*
D03*
X16340D02*
D03*
X30128Y27598D02*
D03*
X30505D02*
D03*
X27577Y19128D02*
D03*
X27954D02*
D03*
X27577Y17495D02*
D03*
X27954D02*
D03*
X27174Y19138D02*
D03*
X26797D02*
D03*
X27174Y17504D02*
D03*
X26797D02*
D03*
X26426Y19138D02*
D03*
X26049D02*
D03*
X26396Y17504D02*
D03*
X26019D02*
D03*
X30285Y24961D02*
D03*
X30662D02*
D03*
X43067Y34760D02*
D03*
X42690D02*
D03*
X43451Y33710D02*
D03*
X43830D02*
D03*
X32183Y30000D02*
D03*
X32560D02*
D03*
X14367Y16310D02*
D03*
X13990D02*
D03*
D14*
X19318Y30760D02*
D03*
X19633D02*
D03*
X19950D02*
D03*
X20270D02*
D03*
Y30224D02*
D03*
X19950D02*
D03*
X19633D02*
D03*
X19318D02*
D03*
X19675Y29459D02*
D03*
X19360D02*
D03*
X19043D02*
D03*
X18723D02*
D03*
Y28923D02*
D03*
X19043D02*
D03*
X19360D02*
D03*
X19675D02*
D03*
X27430Y20063D02*
D03*
X27115D02*
D03*
X26797D02*
D03*
X26477D02*
D03*
Y19528D02*
D03*
X26797D02*
D03*
X27115D02*
D03*
X27430D02*
D03*
Y18508D02*
D03*
X27115D02*
D03*
X26797D02*
D03*
X26477D02*
D03*
Y17973D02*
D03*
X26797D02*
D03*
X27115D02*
D03*
X27430D02*
D03*
Y17111D02*
D03*
X27115D02*
D03*
X26797D02*
D03*
X26477D02*
D03*
Y16575D02*
D03*
X26797D02*
D03*
X27115D02*
D03*
X27430D02*
D03*
D15*
X40950Y18836D02*
D03*
Y20884D02*
D03*
X35440Y14936D02*
D03*
Y16984D02*
D03*
X35630Y11316D02*
D03*
Y13364D02*
D03*
D16*
X29410Y21650D02*
D03*
X25707Y18154D02*
D03*
X28510Y16710D02*
D03*
X28440Y18080D02*
D03*
D17*
X29282Y20890D02*
D03*
X29818D02*
D03*
X32258Y18270D02*
D03*
X31722D02*
D03*
X33098Y14250D02*
D03*
X32562D02*
D03*
X31858Y13640D02*
D03*
X31322D02*
D03*
X31392Y12940D02*
D03*
X31928D02*
D03*
X30362Y12910D02*
D03*
X30898D02*
D03*
X32552Y12940D02*
D03*
X33088D02*
D03*
X29232Y12910D02*
D03*
X29768D02*
D03*
X26108Y15740D02*
D03*
X25572D02*
D03*
X27172Y15760D02*
D03*
X27708D02*
D03*
X22628Y18280D02*
D03*
X22092D02*
D03*
X21248Y18350D02*
D03*
X20712D02*
D03*
X23252Y17710D02*
D03*
X23788D02*
D03*
X23498Y14320D02*
D03*
X22962D02*
D03*
X22552Y13660D02*
D03*
X23088D02*
D03*
X22142Y12860D02*
D03*
X22678D02*
D03*
X20548Y12900D02*
D03*
X20012D02*
D03*
X19978Y14390D02*
D03*
X19442D02*
D03*
X18138Y18280D02*
D03*
X17602D02*
D03*
X18578Y14310D02*
D03*
X18042D02*
D03*
X18312Y12890D02*
D03*
X18848D02*
D03*
X16542Y13040D02*
D03*
X17078D02*
D03*
X15988Y12940D02*
D03*
X15452D02*
D03*
X13678Y18530D02*
D03*
X13142D02*
D03*
X14980Y12940D02*
D03*
X14445D02*
D03*
X11068Y14790D02*
D03*
X10532D02*
D03*
X12848Y28850D02*
D03*
X12312D02*
D03*
X32030Y23258D02*
D03*
X31494D02*
D03*
X38838Y16690D02*
D03*
X38302D02*
D03*
X37132Y17350D02*
D03*
X37668D02*
D03*
X37132Y16750D02*
D03*
X37668D02*
D03*
X22039Y27835D02*
D03*
X21504D02*
D03*
X41472Y26100D02*
D03*
X42008D02*
D03*
X40458Y26100D02*
D03*
X39922D02*
D03*
X41542Y21810D02*
D03*
X42078D02*
D03*
X35461Y28996D02*
D03*
X35996D02*
D03*
X31386Y28780D02*
D03*
X31921D02*
D03*
X32030Y22559D02*
D03*
X31494D02*
D03*
Y21378D02*
D03*
X32030D02*
D03*
X35461Y28524D02*
D03*
X35996D02*
D03*
X35917Y28002D02*
D03*
X35382D02*
D03*
X36376Y30925D02*
D03*
X36911D02*
D03*
X45982Y10910D02*
D03*
X46518D02*
D03*
X44578Y19160D02*
D03*
X44042D02*
D03*
X42972D02*
D03*
X43508D02*
D03*
X44042Y19720D02*
D03*
X44578D02*
D03*
X40288Y21810D02*
D03*
X39752D02*
D03*
X14438Y14630D02*
D03*
X13902D02*
D03*
X15468Y14410D02*
D03*
X14932D02*
D03*
D18*
X30720Y18360D02*
D03*
Y19480D02*
D03*
X16550Y18360D02*
D03*
Y19480D02*
D03*
X11950Y18780D02*
D03*
Y19900D02*
D03*
D19*
X31390Y19338D02*
D03*
Y18802D02*
D03*
X32880Y17732D02*
D03*
Y18268D02*
D03*
X17230Y19328D02*
D03*
Y18792D02*
D03*
X21660Y13332D02*
D03*
Y13868D02*
D03*
X18760Y17692D02*
D03*
Y18228D02*
D03*
X14270Y18032D02*
D03*
Y18568D02*
D03*
X12630Y19518D02*
D03*
Y18982D02*
D03*
X15450Y26082D02*
D03*
Y26618D02*
D03*
X15450Y27668D02*
D03*
Y27132D02*
D03*
X32008Y27646D02*
D03*
Y28181D02*
D03*
X14390Y29663D02*
D03*
Y30199D02*
D03*
X45290Y35882D02*
D03*
Y36418D02*
D03*
X39044Y15485D02*
D03*
Y14949D02*
D03*
X35069Y26882D02*
D03*
Y26346D02*
D03*
X35020Y29037D02*
D03*
Y28502D02*
D03*
X22205Y22803D02*
D03*
Y23339D02*
D03*
X32008Y25874D02*
D03*
Y26409D02*
D03*
Y24693D02*
D03*
Y25228D02*
D03*
X35059Y25254D02*
D03*
Y25789D02*
D03*
X38890Y11562D02*
D03*
Y12098D02*
D03*
X39930Y33222D02*
D03*
Y33758D02*
D03*
X43540Y34192D02*
D03*
Y34728D02*
D03*
X42805Y35969D02*
D03*
Y35434D02*
D03*
X43376D02*
D03*
Y35969D02*
D03*
X46950Y13388D02*
D03*
Y12852D02*
D03*
X13130Y13722D02*
D03*
Y14258D02*
D03*
X13700Y14118D02*
D03*
Y13582D02*
D03*
D20*
X31368Y17750D02*
D03*
X31112D02*
D03*
X30522D02*
D03*
X30778D02*
D03*
X31438Y14340D02*
D03*
X31182D02*
D03*
X30542D02*
D03*
X30798D02*
D03*
X21738Y17760D02*
D03*
X21482D02*
D03*
X20882D02*
D03*
X21138D02*
D03*
X21788Y14350D02*
D03*
X21532D02*
D03*
X20922D02*
D03*
X21178D02*
D03*
X17238Y17760D02*
D03*
X16982D02*
D03*
X16382D02*
D03*
X16638D02*
D03*
X17268Y14360D02*
D03*
X17012D02*
D03*
X16402D02*
D03*
X16658D02*
D03*
X12718Y18180D02*
D03*
X12462D02*
D03*
X11852D02*
D03*
X12108D02*
D03*
X11952Y14720D02*
D03*
X12208D02*
D03*
X12818D02*
D03*
X12562D02*
D03*
D21*
X30650Y13720D02*
D03*
X29530D02*
D03*
X21000Y13710D02*
D03*
X19880D02*
D03*
X16800Y13750D02*
D03*
X15680D02*
D03*
X20890Y19020D02*
D03*
X22010D02*
D03*
X12460Y14110D02*
D03*
X11340D02*
D03*
D22*
X31090Y16041D02*
D03*
X21450D02*
D03*
X16950D02*
D03*
X12476Y16401D02*
D03*
D23*
X30401Y17192D02*
D03*
X30598D02*
D03*
X30795D02*
D03*
X30992D02*
D03*
X31188D02*
D03*
X31385D02*
D03*
X31582D02*
D03*
X31779D02*
D03*
Y14889D02*
D03*
X31582D02*
D03*
X31385D02*
D03*
X31188D02*
D03*
X30992D02*
D03*
X30795D02*
D03*
X30598D02*
D03*
X30401D02*
D03*
X20761Y17192D02*
D03*
X20958D02*
D03*
X21155D02*
D03*
X21352D02*
D03*
X21548D02*
D03*
X21745D02*
D03*
X21942D02*
D03*
X22139D02*
D03*
Y14889D02*
D03*
X21942D02*
D03*
X21745D02*
D03*
X21548D02*
D03*
X21352D02*
D03*
X21155D02*
D03*
X20958D02*
D03*
X20761D02*
D03*
X16261D02*
D03*
X16458D02*
D03*
X16655D02*
D03*
X16852D02*
D03*
X17048D02*
D03*
X17245D02*
D03*
X17442D02*
D03*
X17639D02*
D03*
Y17192D02*
D03*
X17442D02*
D03*
X17245D02*
D03*
X17048D02*
D03*
X16852D02*
D03*
X16655D02*
D03*
X16458D02*
D03*
X16261D02*
D03*
X11787Y17552D02*
D03*
X11984D02*
D03*
X12181D02*
D03*
X12378D02*
D03*
X12575D02*
D03*
X12772D02*
D03*
X12968D02*
D03*
X13165D02*
D03*
Y15249D02*
D03*
X12968D02*
D03*
X12772D02*
D03*
X12575D02*
D03*
X12378D02*
D03*
X12181D02*
D03*
X11984D02*
D03*
X11787D02*
D03*
D24*
X32045Y16926D02*
D03*
Y16730D02*
D03*
Y16533D02*
D03*
Y16336D02*
D03*
Y16139D02*
D03*
Y15942D02*
D03*
Y15745D02*
D03*
Y15548D02*
D03*
Y15352D02*
D03*
Y15155D02*
D03*
X30135D02*
D03*
Y15352D02*
D03*
Y15548D02*
D03*
Y15745D02*
D03*
Y15942D02*
D03*
Y16139D02*
D03*
Y16336D02*
D03*
Y16533D02*
D03*
Y16730D02*
D03*
Y16926D02*
D03*
X22405D02*
D03*
Y16730D02*
D03*
Y16533D02*
D03*
Y16336D02*
D03*
Y16139D02*
D03*
Y15942D02*
D03*
Y15745D02*
D03*
Y15548D02*
D03*
Y15352D02*
D03*
Y15155D02*
D03*
X20495D02*
D03*
Y15352D02*
D03*
Y15548D02*
D03*
Y15745D02*
D03*
Y15942D02*
D03*
Y16139D02*
D03*
Y16336D02*
D03*
Y16533D02*
D03*
Y16730D02*
D03*
Y16926D02*
D03*
X15995D02*
D03*
Y16730D02*
D03*
Y16533D02*
D03*
Y16336D02*
D03*
Y16139D02*
D03*
Y15942D02*
D03*
Y15745D02*
D03*
Y15548D02*
D03*
Y15352D02*
D03*
Y15155D02*
D03*
X17905D02*
D03*
Y15352D02*
D03*
Y15548D02*
D03*
Y15745D02*
D03*
Y15942D02*
D03*
Y16139D02*
D03*
Y16336D02*
D03*
Y16533D02*
D03*
Y16730D02*
D03*
Y16926D02*
D03*
X13431Y17286D02*
D03*
Y17090D02*
D03*
Y16893D02*
D03*
Y16696D02*
D03*
Y16499D02*
D03*
Y16302D02*
D03*
Y16105D02*
D03*
Y15908D02*
D03*
Y15712D02*
D03*
Y15515D02*
D03*
X11522D02*
D03*
Y15712D02*
D03*
Y15908D02*
D03*
Y16105D02*
D03*
Y16302D02*
D03*
Y16499D02*
D03*
Y16696D02*
D03*
Y16893D02*
D03*
Y17090D02*
D03*
Y17286D02*
D03*
D25*
X20074Y20160D02*
D03*
X18026D02*
D03*
X24894Y19990D02*
D03*
X22846D02*
D03*
X15554Y20210D02*
D03*
X13506D02*
D03*
D26*
X37599Y19029D02*
D03*
D27*
X39043Y19779D02*
D03*
Y19279D02*
D03*
Y18779D02*
D03*
Y18279D02*
D03*
D28*
X30190Y22324D02*
D03*
Y21570D02*
D03*
X30315Y28281D02*
D03*
Y29035D02*
D03*
X43650Y32360D02*
D03*
Y33114D02*
D03*
D29*
X49606Y10866D02*
D03*
X48819D02*
D03*
X48268Y11417D02*
D03*
Y12205D02*
D03*
X48819Y12756D02*
D03*
X49606D02*
D03*
X50157Y12205D02*
D03*
Y11417D02*
D03*
X12205Y10866D02*
D03*
X11417D02*
D03*
X10866Y11417D02*
D03*
Y12205D02*
D03*
X11417Y12756D02*
D03*
X12205D02*
D03*
X12756Y12205D02*
D03*
Y11417D02*
D03*
X12205Y34882D02*
D03*
X11417D02*
D03*
X10866Y35433D02*
D03*
Y36220D02*
D03*
X11417Y36772D02*
D03*
X12205D02*
D03*
X12756Y36220D02*
D03*
Y35433D02*
D03*
X49606Y34882D02*
D03*
X48819D02*
D03*
X48268Y35433D02*
D03*
Y36220D02*
D03*
X48819Y36772D02*
D03*
X49606D02*
D03*
X50157Y36220D02*
D03*
Y35433D02*
D03*
X37008Y27913D02*
D03*
X38008D02*
D03*
D30*
X42211Y35650D02*
D03*
X39889D02*
D03*
D31*
X13642Y29026D02*
D03*
Y28153D02*
D03*
X31339Y27283D02*
D03*
Y28157D02*
D03*
D32*
X29318Y27562D02*
D03*
Y27365D02*
D03*
Y27169D02*
D03*
Y26972D02*
D03*
Y26775D02*
D03*
Y26578D02*
D03*
Y26381D02*
D03*
Y26184D02*
D03*
Y25987D02*
D03*
Y25791D02*
D03*
Y25594D02*
D03*
Y25397D02*
D03*
Y25200D02*
D03*
Y25000D02*
D03*
Y24800D02*
D03*
Y24600D02*
D03*
Y24410D02*
D03*
Y24210D02*
D03*
Y24010D02*
D03*
Y23820D02*
D03*
Y23620D02*
D03*
Y23420D02*
D03*
Y23230D02*
D03*
Y23030D02*
D03*
Y22830D02*
D03*
X23018D02*
D03*
Y23030D02*
D03*
Y23230D02*
D03*
Y23420D02*
D03*
Y23620D02*
D03*
Y23820D02*
D03*
Y24010D02*
D03*
Y24210D02*
D03*
Y24410D02*
D03*
Y24600D02*
D03*
Y24800D02*
D03*
Y25000D02*
D03*
Y25200D02*
D03*
Y25397D02*
D03*
Y25594D02*
D03*
Y25791D02*
D03*
Y25987D02*
D03*
Y26184D02*
D03*
Y26381D02*
D03*
Y26578D02*
D03*
Y26775D02*
D03*
Y26972D02*
D03*
Y27169D02*
D03*
Y27365D02*
D03*
Y27562D02*
D03*
D33*
X28538Y22050D02*
D03*
X28338D02*
D03*
X28138D02*
D03*
X27948D02*
D03*
X27748D02*
D03*
X27548D02*
D03*
X27358D02*
D03*
X27158D02*
D03*
X26958D02*
D03*
X26768D02*
D03*
X26568D02*
D03*
X26368D02*
D03*
X26168D02*
D03*
X25971D02*
D03*
X25774D02*
D03*
X25577D02*
D03*
X25380D02*
D03*
X25184D02*
D03*
X24987D02*
D03*
X24790D02*
D03*
X24593D02*
D03*
X24396D02*
D03*
X24199D02*
D03*
X24003D02*
D03*
X23806D02*
D03*
Y28350D02*
D03*
X24003D02*
D03*
X24199D02*
D03*
X24396D02*
D03*
X24593D02*
D03*
X24790D02*
D03*
X24987D02*
D03*
X25184D02*
D03*
X25380D02*
D03*
X25577D02*
D03*
X25774D02*
D03*
X25971D02*
D03*
X26168D02*
D03*
X26368D02*
D03*
X26568D02*
D03*
X26768D02*
D03*
X26958D02*
D03*
X27158D02*
D03*
X27358D02*
D03*
X27548D02*
D03*
X27748D02*
D03*
X27948D02*
D03*
X28138D02*
D03*
X28338D02*
D03*
X28538D02*
D03*
D34*
X10630Y28850D02*
D03*
X11463D02*
D03*
X10630Y29650D02*
D03*
X11463D02*
D03*
X38220Y17350D02*
D03*
X39053D02*
D03*
X35863Y27451D02*
D03*
X35030D02*
D03*
D35*
X19518Y26158D02*
D03*
Y25325D02*
D03*
X19528Y26775D02*
D03*
Y27608D02*
D03*
X45290Y34480D02*
D03*
Y35313D02*
D03*
X35699Y26394D02*
D03*
Y25561D02*
D03*
D36*
X17110Y26155D02*
D03*
X17300D02*
D03*
X17500D02*
D03*
X17700D02*
D03*
X17898D02*
D03*
X18095D02*
D03*
X18292D02*
D03*
X18489D02*
D03*
Y28050D02*
D03*
X18292D02*
D03*
X18095D02*
D03*
X17898D02*
D03*
X17700D02*
D03*
X17500D02*
D03*
X17300D02*
D03*
X17110D02*
D03*
D37*
X18745Y26411D02*
D03*
Y26608D02*
D03*
Y26805D02*
D03*
Y27002D02*
D03*
Y27200D02*
D03*
Y27400D02*
D03*
Y27600D02*
D03*
Y27790D02*
D03*
X16850D02*
D03*
Y27600D02*
D03*
Y27400D02*
D03*
Y27200D02*
D03*
Y27002D02*
D03*
Y26805D02*
D03*
Y26608D02*
D03*
Y26411D02*
D03*
D38*
X17800Y27100D02*
D03*
D39*
X16175Y24494D02*
D03*
Y23581D02*
D03*
X16910D02*
D03*
Y24494D02*
D03*
X21766Y25367D02*
D03*
Y26280D02*
D03*
X21031D02*
D03*
Y25367D02*
D03*
D40*
X40511Y27274D02*
D03*
X41011D02*
D03*
X41511D02*
D03*
X42011D02*
D03*
D41*
X41261Y28718D02*
D03*
D42*
X15998Y22096D02*
D03*
X16752D02*
D03*
X40660Y32600D02*
D03*
X39906D02*
D03*
D43*
X40893Y22581D02*
D03*
Y24952D02*
D03*
D44*
X10482Y10522D02*
D03*
Y37126D02*
D03*
X50512Y10482D02*
D03*
D45*
X38708Y28807D02*
D03*
Y29307D02*
D03*
Y30307D02*
D03*
X36535Y28807D02*
D03*
Y29307D02*
D03*
Y30307D02*
D03*
X38708Y29807D02*
D03*
X36535D02*
D03*
D46*
X35430Y18333D02*
D03*
Y19910D02*
D03*
X44710Y28533D02*
D03*
Y30110D02*
D03*
X38008Y11634D02*
D03*
Y13212D02*
D03*
X38019Y15695D02*
D03*
Y14118D02*
D03*
D47*
X20951Y23975D02*
D03*
Y23725D02*
D03*
X18898Y22220D02*
D03*
X20951Y22470D02*
D03*
X18898D02*
D03*
Y22970D02*
D03*
X20951Y22220D02*
D03*
X18898Y22720D02*
D03*
X20951D02*
D03*
X20951Y22970D02*
D03*
X20951Y23475D02*
D03*
X18898Y23225D02*
D03*
Y23475D02*
D03*
Y23975D02*
D03*
X20951Y23225D02*
D03*
X18898Y23725D02*
D03*
D48*
X30315Y26299D02*
D03*
X30866D02*
D03*
X30285Y25433D02*
D03*
X30837D02*
D03*
X21024Y27953D02*
D03*
X20472D02*
D03*
X30315Y24528D02*
D03*
X30866D02*
D03*
D49*
X31339Y26890D02*
D03*
Y26339D02*
D03*
Y25354D02*
D03*
Y25906D02*
D03*
X14892Y30197D02*
D03*
Y29646D02*
D03*
X31339Y24724D02*
D03*
Y24173D02*
D03*
D50*
X42949Y18380D02*
D03*
X44571D02*
D03*
D51*
X46210Y11619D02*
D03*
Y13241D02*
D03*
D52*
X41828Y32590D02*
D03*
X42872D02*
D03*
D53*
X37513Y35650D02*
D03*
X39090D02*
D03*
D54*
X38300Y34202D02*
D03*
Y32898D02*
D03*
D55*
X41947Y33766D02*
D03*
D56*
X41002Y34159D02*
D03*
Y33963D02*
D03*
Y33766D02*
D03*
Y33569D02*
D03*
Y33372D02*
D03*
X42892Y34159D02*
D03*
Y33963D02*
D03*
Y33766D02*
D03*
Y33569D02*
D03*
Y33372D02*
D03*
D57*
X40671Y34351D02*
X41316Y34996D01*
X22630Y31330D02*
Y31500D01*
X38230Y34337D02*
X39420D01*
X40189Y33569D01*
X37403Y35660D02*
X38230Y34833D01*
X12818Y14720D02*
X13230D01*
X13060Y28110D02*
X14945D01*
X12562Y27612D02*
X15395D01*
X39910Y33312D02*
X40092D01*
X43420Y17940D02*
Y18200D01*
X43280Y17800D02*
X43420Y17940D01*
X43020Y17800D02*
X43280D01*
X43420Y18200D02*
X43600Y18380D01*
X42480Y17260D02*
X43020Y17800D01*
X43600Y18380D02*
X44571D01*
X42480Y15500D02*
Y17260D01*
X41340Y14350D02*
Y14360D01*
X42480Y15500D01*
X32560Y30000D02*
X32810D01*
X27630Y29040D02*
X27880D01*
X28220D02*
X28450D01*
X28210Y29050D02*
X28220Y29040D01*
X24627Y30013D02*
X24630Y30010D01*
X24627Y30013D02*
Y30260D01*
X22927Y31980D02*
Y32237D01*
X22930Y32240D01*
X24590Y32121D02*
Y32210D01*
X24570Y32101D02*
X24590Y32121D01*
X24570Y31957D02*
Y32101D01*
X14483Y31720D02*
Y32013D01*
X24630Y29817D02*
Y30010D01*
X23510Y31580D02*
X23753D01*
X23763Y31570D01*
X16823Y31890D02*
Y32153D01*
X17683Y31890D02*
Y32157D01*
X20240Y31900D02*
Y32157D01*
X19450Y31900D02*
Y32157D01*
X20990Y31600D02*
X21240D01*
X20990Y31990D02*
X21240D01*
X22630Y31330D02*
X22650Y31350D01*
X22550Y31580D02*
X22630Y31500D01*
X27350Y31690D02*
X27740D01*
X27070Y31970D02*
X27350Y31690D01*
X25480Y31970D02*
X27070D01*
X24920Y32153D02*
X25103Y31970D01*
X24920Y32153D02*
Y32160D01*
X23510Y31970D02*
X23763D01*
X25120Y29807D02*
X25323Y30010D01*
X28780Y29050D02*
X29040D01*
X10532Y15102D02*
X10600Y15170D01*
X10532Y14790D02*
Y15102D01*
X13970Y17140D02*
X13973Y17137D01*
X23223Y18660D02*
X23650D01*
X22846Y19036D02*
X23223Y18660D01*
X22846Y19036D02*
Y19990D01*
X11770Y14720D02*
X11952D01*
X42670Y34740D02*
X42690Y34760D01*
X42670Y34480D02*
Y34740D01*
X43540Y35040D02*
X43600Y35100D01*
X43750D01*
X43540Y34728D02*
Y35040D01*
X43376Y35979D02*
X43380Y35983D01*
Y36280D01*
X42796Y36292D02*
X42805Y36282D01*
Y35969D02*
Y36282D01*
X40152Y33372D02*
X41002D01*
X40092Y33312D02*
X40152Y33372D01*
X38230Y34337D02*
Y34833D01*
X40189Y33569D02*
X41002D01*
X40291Y34158D02*
X40683Y33766D01*
X41002D01*
X40291Y34158D02*
Y34350D01*
X40671Y34047D02*
Y34351D01*
Y34047D02*
X40755Y33963D01*
X41002D01*
X41826Y34996D02*
X42010Y35180D01*
X41316Y34996D02*
X41826D01*
X42341Y34159D02*
X42892D01*
X30505Y27598D02*
X30787D01*
X30505Y27106D02*
X30787D01*
X41002Y33963D02*
X41100D01*
X43333Y33569D02*
X43423Y33659D01*
X42892Y33569D02*
X43333D01*
X43332Y33372D02*
X43423Y33280D01*
X42892Y33372D02*
X43332D01*
X26049Y18846D02*
X26062Y18833D01*
X26049Y18846D02*
Y19138D01*
X12598Y27514D02*
X13110Y27002D01*
X15450Y25686D02*
Y26082D01*
X14961Y25197D02*
X15450Y25686D01*
X13436Y25197D02*
X14961D01*
X13110Y25523D02*
X13436Y25197D01*
X12500Y27612D02*
X12562D01*
X13060Y28110D01*
X13110Y25523D02*
Y27002D01*
X31722Y18572D02*
X31790Y18640D01*
X31722Y18270D02*
Y18572D01*
X22846Y18906D02*
Y19036D01*
X22092Y18280D02*
X22135D01*
X22505Y18650D01*
X22590D01*
X22846Y18906D01*
X12500Y27612D02*
X12576Y27536D01*
D58*
X42078Y21402D02*
Y21810D01*
X46950Y12852D02*
X47258D01*
X15988Y13442D02*
X15997Y13450D01*
X44000Y18730D02*
Y19118D01*
X44042Y19160D01*
X43550Y18730D02*
Y19118D01*
X44578Y19720D02*
X44588Y19730D01*
X44880D01*
X46518Y10910D02*
X46830D01*
X45982Y11391D02*
X46210Y11619D01*
X45982Y10910D02*
Y11391D01*
X47250Y12860D02*
X47258Y12852D01*
X46950Y12540D02*
Y12852D01*
X46357Y13388D02*
X46950D01*
X46210Y13241D02*
X46357Y13388D01*
X42949Y18380D02*
X42972Y18403D01*
Y19160D01*
X39750Y21808D02*
X39752Y21810D01*
X43508Y19160D02*
X43550Y19118D01*
X44571Y18380D02*
Y19153D01*
X44578Y19160D01*
X18845Y12890D02*
X18848D01*
X16110Y13450D02*
X16132D01*
X16542Y13040D01*
X18838Y12898D02*
X18845Y12890D01*
X13050Y13470D02*
Y13642D01*
X13620Y13280D02*
Y13502D01*
X13050Y13642D02*
X13130Y13722D01*
X15452Y12648D02*
X15550Y12550D01*
X15452Y12648D02*
Y12940D01*
X14445Y12625D02*
X14510Y12560D01*
X14445Y12625D02*
Y12940D01*
X15997Y13450D02*
X16110D01*
X15680Y13750D02*
X15988Y13442D01*
X14932Y14168D02*
X15040Y14060D01*
X14932Y14168D02*
Y14410D01*
X15210Y13780D02*
X15650D01*
X15680Y13750D01*
X13620Y13502D02*
X13700Y13582D01*
X30778Y17750D02*
Y18302D01*
X39089Y29807D02*
X39311Y30030D01*
X38708Y29807D02*
X39089D01*
X39311Y30030D02*
Y30034D01*
X39038Y30307D02*
X39311Y30034D01*
X38708Y30307D02*
X39038D01*
X14380Y29370D02*
Y29618D01*
X31494Y22915D02*
Y23258D01*
Y22559D02*
Y22911D01*
X32008Y24408D02*
Y24693D01*
X39362Y21808D02*
X39750D01*
X42078Y21402D02*
X42080Y21405D01*
X39922Y25805D02*
Y26100D01*
Y25805D02*
X40110Y25617D01*
X21248Y18350D02*
Y18538D01*
X21410Y18700D01*
X16638Y17760D02*
Y18272D01*
X16550Y18360D02*
X16638Y18272D01*
X16550Y18360D02*
X16982Y18792D01*
X17230D01*
X18848Y12890D02*
X19130D01*
X21660Y13332D02*
X21892D01*
X22030Y13471D01*
Y13490D01*
X22678Y12502D02*
Y12860D01*
Y12502D02*
X22690Y12490D01*
X19540Y12900D02*
X20012D01*
X32570Y16765D02*
X32818D01*
X32820Y16767D01*
X31386Y18799D02*
X31390Y18802D01*
X30720Y18360D02*
X30820D01*
X31259Y18799D01*
X31386D01*
D59*
X26897Y29454D02*
X27126D01*
X29670Y15143D02*
X29853Y14960D01*
X18152Y18170D02*
Y18650D01*
X31630Y18170D02*
X31756D01*
X17740Y14380D02*
X18074D01*
X18184Y14270D01*
X13380Y14960D02*
X13710Y14630D01*
X14097Y16893D02*
X14230Y16760D01*
X18430Y16765D02*
X18641D01*
X22930D02*
X23141D01*
X21692Y17628D02*
Y18178D01*
X17192Y17628D02*
Y18178D01*
X31324Y18290D02*
X31354Y18260D01*
X31332Y17628D02*
Y18178D01*
X23602Y25000D02*
X23799Y25197D01*
X23345Y25594D02*
X23827Y26075D01*
X23327Y25594D02*
X23345D01*
X23827Y26075D02*
X24153D01*
X23786Y24823D02*
X24298Y25335D01*
X23583Y24823D02*
X23786D01*
X18484Y17600D02*
X18780D01*
X12680Y18560D02*
X12710Y18590D01*
X11540Y18230D02*
X11570Y18260D01*
X11530Y18240D02*
X11540Y18230D01*
X11550Y18050D02*
Y18220D01*
X11872Y18080D02*
Y18180D01*
X32183Y30000D02*
X32370Y30187D01*
Y30190D01*
X33008Y30828D02*
Y34679D01*
X32370Y30190D02*
X33008Y30828D01*
X22880Y32570D02*
X26780D01*
X22550Y32240D02*
X22880Y32570D01*
X22550Y31980D02*
Y32240D01*
X22320Y31750D02*
X22550Y31980D01*
X22120Y31210D02*
X22320Y31410D01*
Y31750D01*
X26780Y32570D02*
X27240Y32110D01*
X28320D01*
X31950Y34510D02*
X32150Y34310D01*
X27680Y34510D02*
X31950D01*
X27652Y34060D02*
X31820D01*
X32884Y34803D02*
Y35296D01*
X31740Y36440D02*
X32884Y35296D01*
X28320Y32110D02*
X28740Y31690D01*
X18113Y15731D02*
X18804Y15040D01*
X18087Y15731D02*
X18113D01*
X18194Y15430D02*
Y15450D01*
X18095Y15548D02*
X18194Y15450D01*
X17905Y15548D02*
X18095D01*
X18183Y15871D02*
X18189Y15865D01*
X18145Y15871D02*
X18183D01*
X18074Y15942D02*
X18145Y15871D01*
X18072Y15745D02*
X18087Y15731D01*
X17905Y15745D02*
X18072D01*
X18527Y16533D02*
X18670Y16390D01*
X14367Y16310D02*
X14525Y16152D01*
X14300Y16377D02*
X14367Y16310D01*
X14525Y16026D02*
X14750Y15801D01*
X14525Y16026D02*
Y16152D01*
X16458Y14708D02*
Y14889D01*
X16360Y14610D02*
X16458Y14708D01*
X16164Y14610D02*
X16360D01*
X20640Y17870D02*
X20680D01*
X25130Y18670D02*
X25395Y18935D01*
X25130Y16480D02*
Y18670D01*
X23760Y15110D02*
X25130Y16480D01*
X25395Y18935D02*
Y19375D01*
X23234Y15110D02*
X23760D01*
X32190Y14404D02*
X32324Y14270D01*
X20882Y17668D02*
Y17760D01*
Y17668D02*
X21155Y17395D01*
X22550Y14404D02*
X22684Y14270D01*
X22354Y14600D02*
X22550Y14404D01*
X23027Y16533D02*
X23170Y16390D01*
X30070Y14844D02*
X30304Y14610D01*
X29954Y14960D02*
X30070Y14844D01*
X26568Y28350D02*
Y29126D01*
X30522Y17750D02*
Y17760D01*
Y17668D02*
Y17750D01*
X30598Y14694D02*
Y14889D01*
X30514Y14610D02*
X30598Y14694D01*
X30304Y14610D02*
X30514D01*
X29853Y14960D02*
X29954D01*
X32045Y16533D02*
X32667D01*
X32334Y16870D02*
X32459Y16995D01*
X32670D01*
X32675Y16990D01*
X32744D01*
X32334Y16790D02*
Y16870D01*
X32273Y16730D02*
X32334Y16790D01*
Y17101D02*
X32453Y17220D01*
X32334Y17068D02*
Y17101D01*
X32192Y16926D02*
X32334Y17068D01*
X32045Y16926D02*
X32192D01*
X32216Y17192D02*
X32706Y17682D01*
X31779Y17192D02*
X32216D01*
X32453Y17220D02*
X32597D01*
X32706Y17682D02*
X32764D01*
X32045Y16730D02*
X32273D01*
X32744Y16990D02*
X32974Y17220D01*
X32253Y15731D02*
X32874Y15110D01*
X32227Y15731D02*
X32253D01*
X32212Y15745D02*
X32227Y15731D01*
X32045Y15745D02*
X32212D01*
X32323Y15871D02*
X32329Y15865D01*
X32285Y15871D02*
X32323D01*
X32214Y15942D02*
X32285Y15871D01*
X32045Y15942D02*
X32214D01*
X32334Y15430D02*
Y15450D01*
X31385Y17415D02*
X31630Y17660D01*
X31385Y17192D02*
Y17415D01*
X31194Y17490D02*
X31332Y17628D01*
X31194Y17197D02*
Y17490D01*
X31188Y17192D02*
X31194Y17197D01*
X32045Y15548D02*
X32235D01*
X32334Y15450D01*
X32324Y14270D02*
X32516D01*
X32005Y14889D02*
X32014Y14880D01*
X31779Y14889D02*
X32005D01*
X31385Y14698D02*
Y14889D01*
X30598Y17192D02*
Y17382D01*
X30516Y17464D02*
X30598Y17382D01*
X30314Y17464D02*
X30516D01*
X30795Y17192D02*
Y17395D01*
X30522Y17668D02*
X30795Y17395D01*
X30130Y17280D02*
X30314Y17464D01*
X31332Y18238D02*
X31354Y18260D01*
X31294D02*
X31324Y18290D01*
X32667Y16533D02*
X32810Y16390D01*
X21654Y18260D02*
X21684Y18290D01*
X21692Y18238D02*
X21714Y18260D01*
X21684Y18290D02*
X21714Y18260D01*
X20490Y17280D02*
X20674Y17464D01*
X21155Y17192D02*
Y17395D01*
X20674Y17464D02*
X20876D01*
X20958Y17382D01*
Y17192D02*
Y17382D01*
X21745Y14698D02*
X21843Y14600D01*
X21745Y14698D02*
Y14889D01*
X22139D02*
X22365D01*
X22374Y14880D01*
X21843Y14600D02*
X22354D01*
X22684Y14270D02*
X22876D01*
X22595Y15548D02*
X22694Y15450D01*
X22405Y15548D02*
X22595D01*
X21548Y17192D02*
X21554Y17197D01*
Y17490D01*
X21692Y17628D01*
X21990Y18044D02*
X22116Y18170D01*
X21745Y17192D02*
Y17415D01*
X21990Y17660D01*
Y18044D01*
X22694Y15430D02*
Y15450D01*
X22405Y15942D02*
X22574D01*
X22645Y15871D01*
X22683D01*
X22689Y15865D01*
X22405Y15745D02*
X22572D01*
X22587Y15731D01*
X22613D01*
X23234Y15110D01*
X23104Y16990D02*
X23334Y17220D01*
X22405Y16730D02*
X22633D01*
X23066Y17682D02*
X23124D01*
X22813Y17220D02*
X22957D01*
X22139Y17192D02*
X22576D01*
X23066Y17682D01*
X22405Y16926D02*
X22552D01*
X22694Y17068D01*
Y17101D01*
X22813Y17220D01*
X22633Y16730D02*
X22694Y16790D01*
Y16870D01*
X23035Y16990D02*
X23104D01*
X23030Y16995D02*
X23035Y16990D01*
X22819Y16995D02*
X23030D01*
X22694Y16870D02*
X22819Y16995D01*
X22405Y16533D02*
X23027D01*
X11872Y18080D02*
X11996Y17957D01*
X12013D02*
X12181Y17789D01*
X11996Y17957D02*
X12013D01*
X12181Y17552D02*
Y17789D01*
X13431Y16893D02*
X14097D01*
X13970Y17100D02*
Y17140D01*
X13951Y17082D02*
X13970Y17100D01*
X13720Y17230D02*
X13860Y17370D01*
X13720Y17428D02*
Y17461D01*
X13578Y17286D02*
X13720Y17428D01*
Y17150D02*
Y17230D01*
X13860Y17370D02*
X14150D01*
X13720Y17461D02*
X13839Y17580D01*
X13983D01*
X14150Y17370D02*
X14360Y17580D01*
X13660Y17090D02*
X13720Y17150D01*
X13431Y17090D02*
X13660D01*
X13650Y16080D02*
X14420Y15310D01*
X17905Y16533D02*
X18527D01*
X18194Y16870D02*
X18319Y16995D01*
X18530D01*
X18535Y16990D01*
X18604D01*
X18194Y16790D02*
Y16870D01*
X18133Y16730D02*
X18194Y16790D01*
Y17101D02*
X18313Y17220D01*
X18194Y17068D02*
Y17101D01*
X18052Y16926D02*
X18194Y17068D01*
X17905Y16926D02*
X18052D01*
X17639Y17192D02*
X18076D01*
X18313Y17220D02*
X18457D01*
X17905Y16730D02*
X18133D01*
X18604Y16990D02*
X18834Y17220D01*
X17905Y15942D02*
X18074D01*
X20314Y14960D02*
X20430Y14844D01*
X20664Y14610D01*
X20213Y14960D02*
X20314D01*
X20030Y15143D02*
X20213Y14960D01*
X20664Y14610D02*
X20874D01*
X20958Y14694D01*
Y14889D01*
X13720Y15790D02*
Y15810D01*
X13622Y15908D02*
X13720Y15810D01*
X16458Y17192D02*
Y17382D01*
X16376Y17464D02*
X16458Y17382D01*
X16174Y17464D02*
X16376D01*
X16655Y17192D02*
Y17395D01*
X16382Y17668D02*
X16655Y17395D01*
X17490Y17660D02*
Y18044D01*
X17245Y17415D02*
X17490Y17660D01*
X17245Y17192D02*
Y17415D01*
X17490Y18044D02*
X17616Y18170D01*
X17054Y17490D02*
X17192Y17628D01*
X17054Y17197D02*
Y17490D01*
X17048Y17192D02*
X17054Y17197D01*
X17184Y18290D02*
X17214Y18260D01*
X17192Y18238D02*
X17214Y18260D01*
X17154D02*
X17184Y18290D01*
X13456Y16080D02*
X13650D01*
X13431Y16105D02*
X13456Y16080D01*
X13431Y15908D02*
X13622D01*
X15990Y17280D02*
X16174Y17464D01*
X11060Y15373D02*
X11203Y15230D01*
X13678Y18530D02*
Y18878D01*
X11570Y18260D02*
X11650Y18180D01*
X11852D01*
X12718Y18538D02*
X12740Y18560D01*
X12718Y18180D02*
Y18538D01*
X17865Y14889D02*
X17874Y14880D01*
X17639Y14889D02*
X17865D01*
X17245Y14698D02*
Y14889D01*
Y14698D02*
X17343Y14600D01*
X15683Y14870D02*
X15904D01*
X15520Y15033D02*
X15683Y14870D01*
X15904D02*
X16164Y14610D01*
X11203Y15230D02*
X11430D01*
X12520Y18560D02*
X12680D01*
X12710Y18590D02*
X12740Y18560D01*
X13165Y17552D02*
X13602D01*
X12575D02*
X12580Y17557D01*
X37185Y30925D02*
X37205Y30906D01*
X36911Y30925D02*
X37185D01*
X36220Y28681D02*
X36346Y28807D01*
X36214Y28675D02*
X36220Y28681D01*
X36024Y28524D02*
X36181Y28681D01*
X35996Y28524D02*
X36024D01*
X36181Y28681D02*
X36220D01*
X36346Y28807D02*
X36535D01*
X36522Y29793D02*
X36535Y29807D01*
X36132Y29793D02*
X36522D01*
X35996Y29658D02*
X36132Y29793D01*
X35996Y28996D02*
Y29658D01*
X35419Y29037D02*
X35461Y28996D01*
X35020Y29037D02*
X35419D01*
X35461Y28459D02*
X35917Y28002D01*
X35461Y28459D02*
Y28524D01*
X42730Y35359D02*
X42805Y35434D01*
X42730Y35193D02*
Y35359D01*
X41951Y34414D02*
X42730Y35193D01*
X42805Y35434D02*
X43366D01*
X41448Y34414D02*
X41951D01*
X41298Y34265D02*
X41448Y34414D01*
X41298Y34228D02*
Y34265D01*
X41229Y34159D02*
X41298Y34228D01*
X41002Y34159D02*
X41229D01*
X30000Y23100D02*
Y23396D01*
X29776Y23620D02*
X30000Y23396D01*
X29318Y23620D02*
X29776D01*
X24931Y27057D02*
X25207D01*
X24488Y26614D02*
X24931Y27057D01*
X24199Y26122D02*
X24744D01*
X24153Y26075D02*
X24199Y26122D01*
X23503Y24635D02*
X24251D01*
X24449Y24833D01*
X23482Y24614D02*
X23503Y24635D01*
X24298Y25335D02*
X24754D01*
X23018Y25000D02*
X23602D01*
X24453Y24089D02*
X24596Y24232D01*
X24331Y24089D02*
X24453D01*
X27118Y29446D02*
X27126Y29454D01*
X26811Y29369D02*
X26897Y29454D01*
X27117Y29446D02*
X27118D01*
X18068Y24832D02*
X18310Y24590D01*
X32884Y34803D02*
X33008Y34679D01*
X26568Y29126D02*
X26811Y29369D01*
X11430Y15230D02*
X11690Y14970D01*
X11900D01*
X11984Y15054D01*
Y15249D01*
X11906Y17824D02*
X11984Y17746D01*
Y17552D02*
Y17746D01*
X11530Y17700D02*
X11654Y17824D01*
X11906D01*
X11522Y17286D02*
Y17692D01*
X11530Y17700D01*
X13431Y17286D02*
X13578D01*
X12772Y15058D02*
X12870Y14960D01*
X12772Y15058D02*
Y15249D01*
X13165D02*
X13391D01*
X13400Y15240D01*
X12870Y14960D02*
X13380D01*
X13710Y14630D02*
X13902D01*
X11540Y18230D02*
X11550Y18220D01*
X12580Y17557D02*
Y17850D01*
X12718Y17988D01*
Y18180D01*
X12920Y18308D02*
X13142Y18530D01*
X12772Y17552D02*
Y17822D01*
X12920Y17970D01*
Y18308D01*
X16382Y17668D02*
Y17760D01*
X13675Y18880D02*
X13678Y18878D01*
X13560Y18880D02*
X13675D01*
X14600Y19800D02*
Y20580D01*
X14920Y20900D01*
X14455Y19535D02*
Y20775D01*
X14281Y19801D02*
Y20589D01*
X14190Y20680D02*
X14281Y20589D01*
X14190Y20680D02*
Y20930D01*
X14310Y21050D01*
X15587Y19643D02*
X15650Y19580D01*
X14750Y19860D02*
Y20520D01*
Y19860D02*
X14827Y19783D01*
X14600Y19800D02*
X14757Y19643D01*
X15587D01*
X13860Y19380D02*
X14281Y19801D01*
X14750Y20520D02*
X14970Y20740D01*
X16910D01*
X16710Y20510D02*
X17110Y20110D01*
Y19840D02*
Y20110D01*
X15732Y19783D02*
X16060Y19455D01*
X14770Y18591D02*
X14790Y18571D01*
X14770Y18591D02*
Y19220D01*
X16060Y18450D02*
Y19455D01*
X15940Y18330D02*
X16060Y18450D01*
X14455Y19535D02*
X14770Y19220D01*
X13850Y19380D02*
X13860D01*
X25395Y19375D02*
X25820Y19800D01*
Y20470D01*
X25965Y20615D01*
X14600Y16760D02*
X14630Y16790D01*
X14210Y16760D02*
X14230D01*
X14600D01*
X14827Y19783D02*
X15732D01*
X17343Y14600D02*
X17520D01*
X17740Y14380D01*
X31385Y14698D02*
X31483Y14600D01*
X31994D01*
X32190Y14404D01*
X29410Y21650D02*
X30110D01*
X30190Y21570D01*
X18076Y17192D02*
X18484Y17600D01*
X13602Y17552D02*
X13990Y17940D01*
X14250D01*
D60*
X38008Y13212D02*
X38770Y12450D01*
X40950Y21810D02*
X41542D01*
X40288D02*
X40950D01*
X38890Y12098D02*
Y12450D01*
X38770D02*
X38890D01*
D61*
X21699Y24562D02*
X22447Y25309D01*
X20394Y25000D02*
X20832Y24562D01*
X13142Y18530D02*
Y19082D01*
X20548Y12739D02*
X21800Y11487D01*
X26880Y15810D02*
X27182D01*
X31996Y11417D02*
Y11894D01*
X10754Y14370D02*
X10820Y14436D01*
X17552Y13608D02*
X18911Y12250D01*
X19990D01*
X26495Y15475D02*
X26878Y15092D01*
X32549Y12569D02*
X32996Y12122D01*
Y11417D02*
Y12122D01*
X30362Y12668D02*
X30550Y12480D01*
X29230Y12183D02*
X29996Y11417D01*
X19840Y12400D02*
X19990Y12250D01*
X10820Y14370D02*
Y14436D01*
X32540Y12578D02*
X32549Y12569D01*
X37498Y30307D02*
X37569Y30236D01*
X36535Y30307D02*
X37498D01*
X36100Y31268D02*
Y31366D01*
Y31268D02*
X36349Y31019D01*
X44042Y19720D02*
Y20642D01*
X44540Y21140D01*
Y21380D01*
X15000Y12560D02*
Y12920D01*
X14980Y12940D02*
X15000Y12920D01*
X17552Y13608D02*
Y14099D01*
X17078Y13040D02*
Y13472D01*
X15780Y14370D02*
X15790Y14360D01*
X16090D01*
X15508Y14370D02*
X15780D01*
X15468Y14410D02*
X15508Y14370D01*
X15988Y12902D02*
X16380Y12510D01*
X15988Y12902D02*
Y12940D01*
X22204Y14305D02*
X22420Y14089D01*
X22431D01*
X22552Y13968D01*
Y13660D02*
Y13968D01*
X24160Y14448D02*
X24675Y14963D01*
X22552Y13388D02*
Y13660D01*
Y13388D02*
X22690Y13250D01*
X23620D01*
X24160Y13790D01*
Y14448D01*
X26230Y15740D02*
X26495Y15475D01*
X26108Y15740D02*
X26230D01*
X26680Y15810D02*
X26880D01*
X30910Y11850D02*
X30996D01*
X30550Y12210D02*
X30910Y11850D01*
X30550Y12210D02*
Y12480D01*
X32549Y12569D02*
X32552Y12572D01*
X32540Y12560D02*
X32549Y12569D01*
X32552Y12572D02*
Y12940D01*
X31392D02*
X31410Y12922D01*
Y12480D02*
Y12922D01*
X31640Y12250D02*
X31996Y11894D01*
X31410Y12480D02*
X31640Y12250D01*
X30362Y12668D02*
Y12910D01*
X29230Y12183D02*
Y12621D01*
X29232Y12623D01*
Y12910D01*
X28620Y13522D02*
Y13970D01*
Y13522D02*
X29232Y12910D01*
X28620Y13970D02*
X29000Y14350D01*
X30459D01*
X26878Y14173D02*
Y15092D01*
X10820Y14436D02*
X10892Y14508D01*
Y14614D01*
X11068Y14790D01*
X11480D01*
X11550Y14720D01*
X11770D01*
X20251Y25143D02*
X20315Y25079D01*
X20832Y24562D02*
X21699D01*
X39144Y28888D02*
Y29222D01*
X39063Y28807D02*
X39144Y28888D01*
X38708Y28807D02*
X39063D01*
X39059Y29307D02*
X39144Y29222D01*
X38708Y29307D02*
X39059D01*
X19990Y12250D02*
X20760Y11480D01*
X43326Y32790D02*
X43650Y33114D01*
X43072Y32790D02*
X43326D01*
X42872Y32590D02*
X43072Y32790D01*
X41828Y32590D02*
X41838Y32580D01*
X42220D01*
X43330Y32040D02*
X43650Y32360D01*
X43290Y32040D02*
X43330D01*
X40660Y32600D02*
X41130D01*
X42460Y32178D02*
X42872Y32590D01*
X25878Y11417D02*
Y14173D01*
X24878Y11417D02*
Y14173D01*
X29996Y11417D02*
X30000Y11421D01*
X15939Y22037D02*
X15998Y22096D01*
X16772Y22077D02*
X17254D01*
X12598Y27514D02*
Y27559D01*
Y22827D02*
Y27514D01*
X16337Y25500D02*
X16368Y25531D01*
X16604D01*
X15551Y22543D02*
Y22579D01*
Y22543D02*
X15998Y22096D01*
X22447Y25309D02*
Y25709D01*
X27878Y11417D02*
Y14173D01*
X26878Y11417D02*
Y14173D01*
X27878D02*
Y14907D01*
X27202Y15583D02*
X27878Y14907D01*
X25878Y14173D02*
Y14870D01*
X25785Y14963D02*
X25878Y14870D01*
X24675Y14963D02*
X25785D01*
X20760Y11417D02*
Y11480D01*
X20394Y25000D02*
Y25000D01*
X20482Y24911D01*
X20251Y25143D02*
Y26238D01*
X20942Y26929D01*
X13642Y29026D02*
Y29429D01*
X15470Y22037D02*
X15939D01*
X14458Y23049D02*
Y24697D01*
Y23049D02*
X15470Y22037D01*
X20315Y25079D02*
X20394Y25000D01*
X20942Y26929D02*
X21614D01*
X21654D01*
X20482Y24911D02*
X20630D01*
X13506Y19436D02*
Y20210D01*
X13220Y19150D02*
X13506Y19436D01*
X13210Y19150D02*
X13220D01*
X13142Y19082D02*
X13210Y19150D01*
X42460Y32160D02*
Y32178D01*
X20712Y18350D02*
Y18842D01*
X20890Y19020D01*
X17770Y18935D02*
X17966Y19132D01*
X17770Y18880D02*
Y18935D01*
X17966Y19132D02*
Y19960D01*
X17770Y18780D02*
Y18880D01*
X17660Y18670D02*
X17770Y18780D01*
X10600Y14370D02*
X10754D01*
X22142Y12702D02*
Y12860D01*
X21809Y12369D02*
X22142Y12702D01*
X21809Y12369D02*
X22760Y11417D01*
X21697Y12480D02*
X21809Y12369D01*
X21470Y12480D02*
X21697D01*
X20548Y12739D02*
Y12900D01*
X18152Y18650D02*
Y18872D01*
X18170Y18890D01*
X30720Y19480D02*
X30770D01*
X30810Y19520D01*
Y19960D01*
X30210Y19440D02*
X30680D01*
X30720Y19480D01*
X31390Y19338D02*
Y19518D01*
X31522Y19650D01*
X31550D01*
X30190Y22324D02*
Y22660D01*
X30350Y22820D01*
X30400D01*
X29010Y20890D02*
X29282D01*
X28870Y21030D02*
X29010Y20890D01*
D62*
X32884Y18208D02*
Y18510D01*
X18670Y18294D02*
X18750Y18214D01*
X39044Y14627D02*
Y14949D01*
X31584Y20110D02*
X32684Y19010D01*
X31270Y20110D02*
X31584D01*
X18670Y18294D02*
Y18600D01*
X14180Y18870D02*
Y18900D01*
Y18598D02*
Y18870D01*
X18744Y18208D02*
X18750Y18214D01*
X15955Y25955D02*
Y26211D01*
X23788Y17710D02*
Y18012D01*
X30190Y21050D02*
Y21570D01*
Y21050D02*
X30220Y21020D01*
D63*
X33274Y16744D02*
Y18770D01*
X23634Y16754D02*
Y16834D01*
X18417Y19010D02*
X18640D01*
X18396D02*
X18417D01*
X19200Y16010D02*
X19280D01*
X19770Y15520D01*
X18417Y17763D02*
Y19010D01*
X38220Y17350D02*
Y18298D01*
X37599Y19029D02*
X38330Y18298D01*
X22210Y17510D02*
Y17810D01*
X18330Y19076D02*
Y19370D01*
X17710Y17510D02*
Y17810D01*
X24160Y18660D02*
Y19220D01*
X23870Y18370D02*
X24160Y18660D01*
X14630Y18320D02*
Y18330D01*
X23270Y16390D02*
X23634Y16754D01*
X32920Y16390D02*
X33274Y16744D01*
X19770Y15520D02*
X20030D01*
X19134Y16390D02*
Y17256D01*
X16090Y14360D02*
X16402D01*
X30650Y13720D02*
X30730Y13640D01*
X31322D01*
X30650Y13720D02*
X30798Y13868D01*
Y14340D01*
X31182D01*
X18640Y19010D02*
X19005Y18645D01*
Y18629D02*
Y18645D01*
Y18629D02*
X19085Y18549D01*
Y17305D02*
Y18549D01*
X23634Y16834D02*
X24120Y17320D01*
X29818Y20890D02*
X30090D01*
X31850Y17800D02*
Y17810D01*
Y17510D02*
Y17800D01*
X31582Y17388D02*
X31694Y17500D01*
X31840D01*
X31850Y17510D01*
X32544Y17750D02*
X32557Y17763D01*
Y18883D01*
X32684Y19010D01*
X33034D01*
X33274Y18770D01*
X22200Y17500D02*
X22210Y17510D01*
X22200Y17500D02*
X22654D01*
X22054D02*
X22200D01*
X21942Y17388D02*
X22054Y17500D01*
X19134Y16076D02*
Y16390D01*
Y16076D02*
X19200Y16010D01*
X17442Y17388D02*
X17554Y17500D01*
X17700D01*
X18154D01*
X17700D02*
X17710Y17510D01*
X18404Y17750D02*
X18417Y17763D01*
X10470Y16010D02*
X10730Y15750D01*
X11060D01*
X11040Y15730D02*
X11060Y15750D01*
X18290Y25710D02*
X18484D01*
X21400Y23470D02*
X21405Y23475D01*
X21420Y23490D01*
X18060Y24832D02*
X18068D01*
X21138Y17760D02*
Y17932D01*
X20720Y18350D02*
X21138Y17932D01*
X20712Y18350D02*
X20720D01*
X31840Y17500D02*
X32294D01*
X23870Y18370D02*
X24120Y18120D01*
Y17320D02*
Y18120D01*
X23400Y18370D02*
X23870D01*
X22904Y17750D02*
X22987Y17833D01*
Y17957D01*
X23400Y18370D01*
X19085Y17305D02*
X19134Y17256D01*
X18330Y19076D02*
X18396Y19010D01*
X18290Y19370D02*
X18330D01*
X21138Y17760D02*
X21350D01*
X21482D01*
X31438Y14340D02*
X31750D01*
Y14120D02*
Y14340D01*
X30090Y20890D02*
X30220Y21020D01*
D64*
X40250Y11254D02*
Y14434D01*
X45520Y28740D02*
X47100D01*
X35430Y16984D02*
Y18333D01*
X39199Y15485D02*
X40250Y14434D01*
X39044Y15485D02*
X39199D01*
X38059Y25630D02*
Y26366D01*
X38708Y27015D01*
Y28807D01*
X38229Y15485D02*
X39044D01*
X38019Y15695D02*
X38229Y15485D01*
X35746Y16984D02*
X36000Y16730D01*
X35440Y16984D02*
X35746D01*
X35430D02*
X35440D01*
X37035Y15695D02*
X38019D01*
X36000Y16730D02*
X37035Y15695D01*
X44710Y28533D02*
X45313D01*
X45520Y28740D01*
D65*
X44630Y13390D02*
Y16410D01*
X44490Y12830D02*
X45701Y11619D01*
X44490Y16550D02*
X44630Y16410D01*
Y12970D02*
Y13390D01*
X44490Y12830D02*
X44630Y12970D01*
X45701Y11619D02*
X46210D01*
D66*
X46370Y16077D02*
Y17100D01*
Y14350D02*
Y15684D01*
X36608Y19910D02*
X37489Y19029D01*
X45090Y18380D02*
X46370Y17100D01*
X46210Y13820D02*
Y14190D01*
Y13241D02*
Y13820D01*
Y14190D02*
X46370Y14350D01*
X44571Y18380D02*
X45090D01*
X39090Y35650D02*
X39889D01*
X40039D01*
X40291Y35397D01*
Y34350D02*
Y35397D01*
X36057Y21473D02*
Y22717D01*
X35430Y19910D02*
Y20846D01*
X36057Y21473D01*
X35430Y19910D02*
X36608D01*
D67*
X43133Y28708D02*
X46370Y31945D01*
X41261Y28718D02*
X42061D01*
X41250Y28708D02*
X43133D01*
X40893Y22581D02*
X40950Y22524D01*
Y21810D02*
Y22524D01*
X43200Y25480D02*
Y26680D01*
Y24080D02*
Y25480D01*
Y26680D02*
Y26705D01*
X40950Y20884D02*
Y21810D01*
X40893Y22581D02*
X41701D01*
X43200Y24080D01*
D68*
X13230Y14720D02*
X13580Y14370D01*
X13973Y17137D02*
X14210D01*
X17292Y14360D02*
X17552Y14099D01*
X21792Y14360D02*
X22204D01*
X13580Y14180D02*
Y14370D01*
D69*
X41590Y16554D02*
Y17770D01*
X40250Y16554D02*
X41590D01*
X42400Y18380D02*
X42949D01*
X42200D02*
X42400D01*
X41590Y17770D02*
X42200Y18380D01*
X38463Y32600D02*
X39906D01*
X38300Y32763D02*
X38463Y32600D01*
D70*
X29595Y12480D02*
X29768Y12652D01*
X23330Y13650D02*
Y13660D01*
X23088D02*
X23330D01*
X23498Y13992D02*
X23510Y13980D01*
X23498Y13992D02*
Y14320D01*
X25570Y16090D02*
X25572Y16088D01*
Y15740D02*
Y16088D01*
X30880Y12892D02*
X30898Y12910D01*
X30880Y12510D02*
Y12892D01*
X33088Y12940D02*
X33410D01*
X31928Y12542D02*
X31990Y12480D01*
X31928Y12542D02*
Y12940D01*
X29570Y12480D02*
X29595D01*
X29768Y12652D02*
X29950Y12470D01*
X29768Y12652D02*
Y12910D01*
X20910Y20140D02*
X21160D01*
X20094D02*
X20910D01*
X20074Y20160D02*
X20094Y20140D01*
X31790Y18640D02*
Y18870D01*
X31800Y18880D01*
D71*
X38048Y12855D02*
D03*
D72*
X38058Y14239D02*
D03*
D73*
X27740Y31690D02*
D03*
Y35440D02*
D03*
D74*
Y32690D02*
D03*
X28740Y31690D02*
D03*
Y32690D02*
D03*
X29740Y31690D02*
D03*
Y32690D02*
D03*
X30740Y31690D02*
D03*
Y32690D02*
D03*
X31740Y31690D02*
D03*
Y32690D02*
D03*
X27740Y36440D02*
D03*
X28740Y35440D02*
D03*
Y36440D02*
D03*
X29740Y35440D02*
D03*
Y36440D02*
D03*
X30740Y35440D02*
D03*
Y36440D02*
D03*
X31740Y35440D02*
D03*
Y36440D02*
D03*
X34397Y33057D02*
D03*
Y34057D02*
D03*
Y35057D02*
D03*
Y36057D02*
D03*
D75*
X43200Y21380D02*
D03*
X44540D02*
D03*
Y26680D02*
D03*
X43200D02*
D03*
X41590Y11254D02*
D03*
X40250D02*
D03*
Y16554D02*
D03*
X41590D02*
D03*
X44490Y16550D02*
D03*
X43150D02*
D03*
Y11250D02*
D03*
X44490D02*
D03*
D76*
X36057Y22717D02*
D03*
X38057D02*
D03*
D77*
X33000Y11421D02*
D03*
X32000D02*
D03*
X31000D02*
D03*
X30000D02*
D03*
X27878Y14173D02*
D03*
X26878D02*
D03*
X25878D02*
D03*
X24878D02*
D03*
X27878Y11417D02*
D03*
X26878D02*
D03*
X25878D02*
D03*
X24878D02*
D03*
X24622Y35827D02*
D03*
X23622D02*
D03*
X22622D02*
D03*
X18488D02*
D03*
X19488D02*
D03*
X20488D02*
D03*
X16354D02*
D03*
X15354D02*
D03*
X14354D02*
D03*
X37059Y25630D02*
D03*
X38059D02*
D03*
X22760Y11417D02*
D03*
X21760D02*
D03*
X20760D02*
D03*
X19760D02*
D03*
X20488Y33465D02*
D03*
X19488D02*
D03*
X18488D02*
D03*
X22622D02*
D03*
X23622D02*
D03*
X24622D02*
D03*
X16354D02*
D03*
X15354D02*
D03*
X14354D02*
D03*
X17642Y11417D02*
D03*
X16642D02*
D03*
X15642D02*
D03*
X14642D02*
D03*
D78*
X10927Y32780D02*
D03*
Y31000D02*
D03*
D79*
X11907Y33270D02*
D03*
Y30510D02*
D03*
D80*
X12598Y22827D02*
D03*
Y27559D02*
D03*
D81*
X13668Y24697D02*
D03*
Y25689D02*
D03*
X14458D02*
D03*
Y24697D02*
D03*
D82*
X21421Y29676D02*
D03*
Y30676D02*
D03*
X22421Y29676D02*
D03*
Y30676D02*
D03*
X23421Y29676D02*
D03*
Y30676D02*
D03*
X15695Y29676D02*
D03*
Y30676D02*
D03*
X16695Y29676D02*
D03*
Y30676D02*
D03*
X17695Y29676D02*
D03*
Y30676D02*
D03*
D83*
X33504Y27217D02*
D03*
Y28217D02*
D03*
Y24106D02*
D03*
Y25106D02*
D03*
X34990Y31370D02*
D03*
Y30370D02*
D03*
X33504Y20996D02*
D03*
Y21996D02*
D03*
D84*
X35613Y33057D02*
D03*
Y34057D02*
D03*
Y35057D02*
D03*
Y36057D02*
D03*
Y37057D02*
D03*
D85*
X34397D02*
D03*
D86*
X46370Y31945D02*
D03*
Y28695D02*
D03*
Y25445D02*
D03*
Y22195D02*
D03*
Y18945D02*
D03*
Y15695D02*
D03*
D87*
X50207Y14055D02*
D03*
D88*
X23799Y25197D02*
D03*
X37389Y19029D02*
D03*
X36989D02*
D03*
X37789D02*
D03*
X38189D02*
D03*
Y18629D02*
D03*
Y18229D02*
D03*
X37789D02*
D03*
Y18629D02*
D03*
X37389D02*
D03*
Y18229D02*
D03*
X36989D02*
D03*
Y18629D02*
D03*
Y19429D02*
D03*
Y19829D02*
D03*
X37389D02*
D03*
Y19429D02*
D03*
X37789D02*
D03*
Y19829D02*
D03*
X38189D02*
D03*
Y19429D02*
D03*
X17800Y27100D02*
D03*
Y27474D02*
D03*
X17423Y27478D02*
D03*
X17428Y27100D02*
D03*
X17426Y26716D02*
D03*
X17800Y26726D02*
D03*
X18174D02*
D03*
Y27100D02*
D03*
Y27474D02*
D03*
X41661Y28128D02*
D03*
X42061D02*
D03*
Y28528D02*
D03*
X41661D02*
D03*
Y28928D02*
D03*
X42061D02*
D03*
Y29328D02*
D03*
X41661D02*
D03*
X40861D02*
D03*
X40461D02*
D03*
Y28928D02*
D03*
X40861D02*
D03*
Y28528D02*
D03*
X40461D02*
D03*
Y28128D02*
D03*
X40861D02*
D03*
X41261D02*
D03*
Y28528D02*
D03*
Y29328D02*
D03*
Y28928D02*
D03*
X41553Y33372D02*
D03*
X41947D02*
D03*
X42341D02*
D03*
Y33766D02*
D03*
Y34159D02*
D03*
X41947D02*
D03*
X41553D02*
D03*
Y33766D02*
D03*
X41947D02*
D03*
X12500Y32000D02*
D03*
X13500Y37000D02*
D03*
X49500Y33000D02*
D03*
Y25500D02*
D03*
Y24000D02*
D03*
Y22500D02*
D03*
Y21000D02*
D03*
Y19500D02*
D03*
Y18000D02*
D03*
Y16500D02*
D03*
Y15000D02*
D03*
Y13500D02*
D03*
X48000Y34500D02*
D03*
Y31500D02*
D03*
Y30000D02*
D03*
Y24000D02*
D03*
Y19500D02*
D03*
Y18000D02*
D03*
X46500Y36000D02*
D03*
Y34500D02*
D03*
Y33000D02*
D03*
X45000D02*
D03*
Y31500D02*
D03*
X43500D02*
D03*
X42000Y21000D02*
D03*
Y19500D02*
D03*
X39000Y24000D02*
D03*
X37500Y31500D02*
D03*
X36000Y24000D02*
D03*
X10500Y31500D02*
D03*
X45000Y29500D02*
D03*
X43000Y28000D02*
D03*
Y29000D02*
D03*
X44000D02*
D03*
Y30000D02*
D03*
Y31000D02*
D03*
X43000D02*
D03*
Y30000D02*
D03*
X42000D02*
D03*
Y31000D02*
D03*
X41000D02*
D03*
Y30000D02*
D03*
X40000D02*
D03*
X38470Y20930D02*
D03*
X37660D02*
D03*
X37650Y20290D02*
D03*
X38500Y20270D02*
D03*
X36880Y20290D02*
D03*
X34780Y18360D02*
D03*
X34890Y16130D02*
D03*
X34320Y15520D02*
D03*
X34330Y16610D02*
D03*
Y17460D02*
D03*
X39660Y14160D02*
D03*
X39480Y11254D02*
D03*
X42130Y12880D02*
D03*
X41590Y12190D02*
D03*
X40280D02*
D03*
X40910Y11260D02*
D03*
X39060Y16020D02*
D03*
X36570Y15560D02*
D03*
X38688Y14573D02*
D03*
Y14219D02*
D03*
Y13864D02*
D03*
X38268Y14573D02*
D03*
X39044Y14627D02*
D03*
X42580Y11250D02*
D03*
X43140Y12190D02*
D03*
X44490Y12060D02*
D03*
X43840Y11250D02*
D03*
X45500Y11600D02*
D03*
X46210Y12150D02*
D03*
X46830Y11600D02*
D03*
X44630Y13390D02*
D03*
X43160Y14620D02*
D03*
X43510Y13600D02*
D03*
X43190Y15570D02*
D03*
X44460Y15530D02*
D03*
X43830Y16550D02*
D03*
X43810Y17300D02*
D03*
X47550Y13510D02*
D03*
X46210Y12610D02*
D03*
X45560Y13230D02*
D03*
X46210Y13820D02*
D03*
X47320Y15690D02*
D03*
X45540Y15250D02*
D03*
X46400Y14740D02*
D03*
X46380Y16650D02*
D03*
X47760Y16190D02*
D03*
X46090Y17820D02*
D03*
X45090Y18380D02*
D03*
X45140Y17810D02*
D03*
X45180Y18760D02*
D03*
X41340Y14350D02*
D03*
X41620Y17570D02*
D03*
X42110Y17400D02*
D03*
X42500Y17780D02*
D03*
X39610Y17450D02*
D03*
X42400Y18380D02*
D03*
X42510Y18980D02*
D03*
X41580Y15580D02*
D03*
X40250Y15570D02*
D03*
X40280Y17580D02*
D03*
X40930Y16570D02*
D03*
X40940Y19740D02*
D03*
X46210Y20350D02*
D03*
X44090Y23000D02*
D03*
X47960Y21630D02*
D03*
X46370Y21190D02*
D03*
X45450Y22170D02*
D03*
X46370Y23150D02*
D03*
X47290Y22200D02*
D03*
X47740Y22720D02*
D03*
X47760Y20520D02*
D03*
X44530Y20330D02*
D03*
X45370Y21390D02*
D03*
X44530Y22390D02*
D03*
X43440D02*
D03*
X43860Y21360D02*
D03*
X43210Y20350D02*
D03*
X42480Y21370D02*
D03*
X47170Y27810D02*
D03*
X45550Y27800D02*
D03*
X47040Y26520D02*
D03*
X48000Y27590D02*
D03*
X48010Y28370D02*
D03*
X47340Y28670D02*
D03*
X46380Y29660D02*
D03*
Y27750D02*
D03*
X45270Y26680D02*
D03*
X43880Y27390D02*
D03*
X43870Y26670D02*
D03*
X44550Y25490D02*
D03*
X43200Y25480D02*
D03*
X42640Y25740D02*
D03*
X42490Y26670D02*
D03*
X36100Y31366D02*
D03*
X32470Y30660D02*
D03*
X32090D02*
D03*
X14483Y32013D02*
D03*
X13400Y30480D02*
D03*
X19640Y31070D02*
D03*
X27106Y29061D02*
D03*
X27680Y34510D02*
D03*
X27630Y34060D02*
D03*
X20350Y28660D02*
D03*
X27180Y31260D02*
D03*
X29830Y29590D02*
D03*
X37450Y12730D02*
D03*
X37440Y13390D02*
D03*
X20810Y12480D02*
D03*
X31270Y20110D02*
D03*
X32540Y12560D02*
D03*
X27962Y18795D02*
D03*
X27774Y18311D02*
D03*
X26042Y18312D02*
D03*
X31650Y21800D02*
D03*
X27860Y16580D02*
D03*
X24790Y21480D02*
D03*
X25380D02*
D03*
X31820Y34060D02*
D03*
X32150Y34310D02*
D03*
X20942Y26929D02*
D03*
X20315Y25079D02*
D03*
X20832Y24562D02*
D03*
X17970Y25470D02*
D03*
X18290Y25710D02*
D03*
X38550Y13391D02*
D03*
X40760Y31380D02*
D03*
X42220Y32580D02*
D03*
X43290Y32040D02*
D03*
X40820Y34650D02*
D03*
X42670Y34480D02*
D03*
X43886Y35616D02*
D03*
X44140Y31380D02*
D03*
X42255D02*
D03*
X38485D02*
D03*
X31410Y12480D02*
D03*
X21470D02*
D03*
X17470Y28760D02*
D03*
X14380Y29370D02*
D03*
X17300Y33750D02*
D03*
X24596Y24232D02*
D03*
X30000Y23100D02*
D03*
X24449Y24833D02*
D03*
X26214Y22963D02*
D03*
X27087Y27480D02*
D03*
X26811Y23071D02*
D03*
X27283Y22756D02*
D03*
X27362Y23819D02*
D03*
X27362Y24331D02*
D03*
X27361Y27826D02*
D03*
X37848Y14573D02*
D03*
X37428Y14573D02*
D03*
Y14219D02*
D03*
Y13864D02*
D03*
X31496Y22913D02*
D03*
X43750Y35100D02*
D03*
X40750Y26782D02*
D03*
X39726Y26978D02*
D03*
Y27372D02*
D03*
X40080Y26782D02*
D03*
Y27569D02*
D03*
Y27175D02*
D03*
X40513Y26545D02*
D03*
X41025D02*
D03*
X41734Y26782D02*
D03*
X41498Y26545D02*
D03*
X41261Y26782D02*
D03*
X39456Y18793D02*
D03*
Y18281D02*
D03*
X38525Y36930D02*
D03*
X36640D02*
D03*
X40410D02*
D03*
X42295D02*
D03*
X44180D02*
D03*
X44550Y32520D02*
D03*
X36640Y34120D02*
D03*
Y32660D02*
D03*
X44550Y34115D02*
D03*
X37205Y30906D02*
D03*
X36640Y35580D02*
D03*
X43380Y36280D02*
D03*
X42796Y36292D02*
D03*
X44550Y35710D02*
D03*
X28701Y24636D02*
D03*
X18110Y29173D02*
D03*
X20758Y28238D02*
D03*
X20453Y27077D02*
D03*
X15718Y25315D02*
D03*
X15955Y26211D02*
D03*
X17254Y22077D02*
D03*
X16604Y25531D02*
D03*
X15551Y22579D02*
D03*
X24488Y26614D02*
D03*
X24115Y26999D02*
D03*
X28514Y23957D02*
D03*
X32244Y28799D02*
D03*
X23366Y28238D02*
D03*
X28248Y24508D02*
D03*
X31240Y27687D02*
D03*
X22264Y27274D02*
D03*
X18376Y29449D02*
D03*
X26062Y18833D02*
D03*
X27853Y17052D02*
D03*
X21753Y24214D02*
D03*
X21614Y26929D02*
D03*
X31339Y25039D02*
D03*
X19125Y25759D02*
D03*
X19477Y28472D02*
D03*
X26052Y17800D02*
D03*
X18041Y22411D02*
D03*
Y22028D02*
D03*
X14882Y30591D02*
D03*
X15807Y28150D02*
D03*
X19124Y27205D02*
D03*
X32402Y28189D02*
D03*
X31024Y28150D02*
D03*
X30945Y25787D02*
D03*
X30787Y27598D02*
D03*
X26800Y17731D02*
D03*
X27971Y17800D02*
D03*
X26800Y18823D02*
D03*
X30945Y24921D02*
D03*
X22441Y27677D02*
D03*
X21811Y22480D02*
D03*
X20630Y24911D02*
D03*
X21890Y27244D02*
D03*
X20251Y26238D02*
D03*
X21500Y22810D02*
D03*
X26368Y21478D02*
D03*
X30789Y29014D02*
D03*
X30945Y26693D02*
D03*
X30787Y27106D02*
D03*
X27117Y29446D02*
D03*
X21712Y23810D02*
D03*
X24045Y23829D02*
D03*
X21772Y24606D02*
D03*
X24754Y25335D02*
D03*
X22447Y25709D02*
D03*
X22314Y23663D02*
D03*
X24163Y23120D02*
D03*
X22314Y24686D02*
D03*
X24488Y23533D02*
D03*
X23583Y27362D02*
D03*
X23543Y26653D02*
D03*
X24055Y26339D02*
D03*
X24596Y22854D02*
D03*
X25710Y22570D02*
D03*
X24744Y26122D02*
D03*
X26251Y27521D02*
D03*
X23953Y27360D02*
D03*
X25689Y23071D02*
D03*
X24419Y25709D02*
D03*
X33937Y29331D02*
D03*
X39880Y24950D02*
D03*
X41258Y25617D02*
D03*
X40090Y24190D02*
D03*
X40110Y25617D02*
D03*
X41114Y24190D02*
D03*
X41625D02*
D03*
X40602D02*
D03*
X40684Y25617D02*
D03*
X32000Y24400D02*
D03*
X31700Y26750D02*
D03*
X17579Y25463D02*
D03*
X18032Y23740D02*
D03*
X18022Y24134D02*
D03*
X18400Y23300D02*
D03*
X21400Y23470D02*
D03*
X18310Y24590D02*
D03*
X15000Y26430D02*
D03*
X14720Y27150D02*
D03*
X29570Y12480D02*
D03*
X29230Y12160D02*
D03*
X19910Y12470D02*
D03*
X29950D02*
D03*
X31990Y12480D02*
D03*
X34449Y28937D02*
D03*
X32884Y34803D02*
D03*
X39498Y29409D02*
D03*
X16752Y25955D02*
D03*
X14468Y30600D02*
D03*
X14675Y21850D02*
D03*
X10778Y21870D02*
D03*
X11526Y27943D02*
D03*
X23927Y25807D02*
D03*
X21794Y22103D02*
D03*
X36730Y17350D02*
D03*
X39456Y19266D02*
D03*
X42530Y14010D02*
D03*
X41420Y19380D02*
D03*
X40490Y19360D02*
D03*
X40480Y18860D02*
D03*
X41430Y18850D02*
D03*
X40480Y18260D02*
D03*
X41810Y25600D02*
D03*
X41870Y24960D02*
D03*
X38550Y13090D02*
D03*
X37440D02*
D03*
X37780Y12490D02*
D03*
X38890Y12450D02*
D03*
X36100Y10750D02*
D03*
X35160Y10740D02*
D03*
X36110Y11330D02*
D03*
X35160Y11340D02*
D03*
X35170Y11840D02*
D03*
X36100Y11860D02*
D03*
X35910Y14370D02*
D03*
X34970Y14360D02*
D03*
X35920Y14950D02*
D03*
X34970Y14960D02*
D03*
X34980Y15460D02*
D03*
X35910Y15480D02*
D03*
X38470Y11010D02*
D03*
X37360D02*
D03*
X38950D02*
D03*
X37360Y11990D02*
D03*
Y11520D02*
D03*
X37930Y11010D02*
D03*
X36100Y12797D02*
D03*
X35160Y12787D02*
D03*
X36110Y13377D02*
D03*
X35160Y13387D02*
D03*
X35170Y13887D02*
D03*
X36100Y13907D02*
D03*
X37660Y16370D02*
D03*
X42080Y21405D02*
D03*
X25470Y20440D02*
D03*
X25150D02*
D03*
X30400Y22820D02*
D03*
X30394Y23396D02*
D03*
X39710Y19020D02*
D03*
Y18530D02*
D03*
D89*
X30657Y16690D02*
D03*
X31523Y15391D02*
D03*
X31090D02*
D03*
X30657D02*
D03*
X31523Y15824D02*
D03*
X31090D02*
D03*
X30657D02*
D03*
X31523Y16257D02*
D03*
X31090D02*
D03*
X30657D02*
D03*
X31523Y16690D02*
D03*
X31090D02*
D03*
X21017D02*
D03*
X21883Y15391D02*
D03*
X21450D02*
D03*
X21017D02*
D03*
X21883Y15824D02*
D03*
X21450D02*
D03*
X21017D02*
D03*
X21883Y16257D02*
D03*
X21450D02*
D03*
X21017D02*
D03*
X21883Y16690D02*
D03*
X21450D02*
D03*
X16950D02*
D03*
X17383D02*
D03*
X16517Y16257D02*
D03*
X16950D02*
D03*
X17383D02*
D03*
X16517Y15824D02*
D03*
X16950D02*
D03*
X17383D02*
D03*
X16517Y15391D02*
D03*
X16950D02*
D03*
X17383D02*
D03*
X16517Y16690D02*
D03*
X12909Y17050D02*
D03*
Y16617D02*
D03*
X12476D02*
D03*
Y17050D02*
D03*
X12909Y16184D02*
D03*
X12476D02*
D03*
X12909Y15751D02*
D03*
X12476D02*
D03*
X12043Y16617D02*
D03*
Y17050D02*
D03*
Y15751D02*
D03*
Y16184D02*
D03*
X28983Y29630D02*
D03*
X32810Y30000D02*
D03*
X27880Y29040D02*
D03*
X28450D02*
D03*
X25750Y30740D02*
D03*
X25810Y30990D02*
D03*
X22930Y32240D02*
D03*
X24590Y32210D02*
D03*
X24120Y32240D02*
D03*
X18930Y30750D02*
D03*
X19030Y30220D02*
D03*
X24630Y30010D02*
D03*
X23510Y31580D02*
D03*
X24020Y31330D02*
D03*
X20450Y30980D02*
D03*
Y30410D02*
D03*
X17200Y32170D02*
D03*
X16823Y32153D02*
D03*
X17683Y32157D02*
D03*
X20240D02*
D03*
X19450D02*
D03*
X20990Y31600D02*
D03*
Y31990D02*
D03*
X22650Y31350D02*
D03*
X24920Y32160D02*
D03*
X25050Y31410D02*
D03*
X25420D02*
D03*
X23180Y31580D02*
D03*
X23510Y31970D02*
D03*
X21620Y32280D02*
D03*
X22120Y31210D02*
D03*
X25323Y30010D02*
D03*
X25758Y31378D02*
D03*
X27830Y29620D02*
D03*
X29040Y29050D02*
D03*
X28413Y29630D02*
D03*
X46830Y10910D02*
D03*
X47250Y12860D02*
D03*
X46950Y12540D02*
D03*
X10600Y15170D02*
D03*
X24160Y19220D02*
D03*
X16170Y17850D02*
D03*
X14630Y18330D02*
D03*
X31800Y18880D02*
D03*
X19420Y13440D02*
D03*
X19540Y12900D02*
D03*
X17740Y14380D02*
D03*
X22800Y14680D02*
D03*
X20630Y14370D02*
D03*
X20380D02*
D03*
X16090Y14360D02*
D03*
X15780Y14370D02*
D03*
X15000Y12560D02*
D03*
X13050Y13470D02*
D03*
X13620Y13280D02*
D03*
X16380Y12510D02*
D03*
X16110Y13450D02*
D03*
X15210Y13780D02*
D03*
X15040Y14060D02*
D03*
X14510Y12560D02*
D03*
X11810Y14320D02*
D03*
Y14010D02*
D03*
X13510Y14850D02*
D03*
X13500Y14470D02*
D03*
X13170Y14650D02*
D03*
X22030Y13490D02*
D03*
X18550Y13910D02*
D03*
X22690Y12490D02*
D03*
X19150Y13440D02*
D03*
X23330Y13650D02*
D03*
X23510Y13980D02*
D03*
X25570Y16090D02*
D03*
X26495Y15475D02*
D03*
X26690Y15300D02*
D03*
X26650Y15810D02*
D03*
X26880D02*
D03*
X31550Y19650D02*
D03*
X28380Y19130D02*
D03*
X30880Y12510D02*
D03*
X33410Y12940D02*
D03*
X32755Y12365D02*
D03*
X31640Y12250D02*
D03*
X30380Y12640D02*
D03*
X31750Y14120D02*
D03*
X19209Y20047D02*
D03*
X19050Y20340D02*
D03*
X20910Y20140D02*
D03*
X21160D02*
D03*
X23223Y18660D02*
D03*
X21410Y18700D02*
D03*
X19250Y18730D02*
D03*
X20150Y18050D02*
D03*
X20640Y17870D02*
D03*
X18670Y18600D02*
D03*
X24900Y16750D02*
D03*
X14180Y18870D02*
D03*
X17660Y18670D02*
D03*
X26480Y20380D02*
D03*
X29810Y19750D02*
D03*
X28820Y20220D02*
D03*
X29490D02*
D03*
X29950Y20240D02*
D03*
X32890Y18600D02*
D03*
X33610Y18160D02*
D03*
X32190Y14404D02*
D03*
X32014Y14880D02*
D03*
X30260Y17870D02*
D03*
X22374Y14880D02*
D03*
X22550Y14404D02*
D03*
X10710Y21020D02*
D03*
X27115Y20380D02*
D03*
X27440D02*
D03*
X27790D02*
D03*
X28120Y20700D02*
D03*
X30070Y14844D02*
D03*
X30130Y17280D02*
D03*
X32570Y16765D02*
D03*
X32380Y16101D02*
D03*
X22740D02*
D03*
X22930Y16765D02*
D03*
X27670Y21190D02*
D03*
X20490Y17280D02*
D03*
X15150Y15540D02*
D03*
Y15100D02*
D03*
X14800Y14830D02*
D03*
X13970Y17140D02*
D03*
X18430Y16765D02*
D03*
X17240Y18240D02*
D03*
X17110Y18440D02*
D03*
X18240Y16101D02*
D03*
X19690Y14830D02*
D03*
X20430Y14844D02*
D03*
X13750Y15000D02*
D03*
X18152Y18650D02*
D03*
X13130Y18920D02*
D03*
X13751Y16461D02*
D03*
X15990Y17280D02*
D03*
X10470Y16010D02*
D03*
X15550Y12550D02*
D03*
X17874Y14880D02*
D03*
X18190Y14660D02*
D03*
X15904Y14870D02*
D03*
X10820Y14370D02*
D03*
X10600D02*
D03*
X11560Y18050D02*
D03*
X12520Y18560D02*
D03*
X12740D02*
D03*
X30550Y12480D02*
D03*
X11430Y15230D02*
D03*
X11560Y18270D02*
D03*
X11530Y17700D02*
D03*
X13400Y15240D02*
D03*
X21740Y18240D02*
D03*
X21610Y18440D02*
D03*
X20520Y17650D02*
D03*
X30990Y20710D02*
D03*
X30480D02*
D03*
X31790Y18640D02*
D03*
X32120Y18770D02*
D03*
X23790Y18080D02*
D03*
X23020Y18350D02*
D03*
X22890Y18560D02*
D03*
X23650Y18660D02*
D03*
X23360Y21140D02*
D03*
X21600Y18910D02*
D03*
X22450D02*
D03*
X21970Y20070D02*
D03*
X19240Y15280D02*
D03*
X19290Y14810D02*
D03*
X22450Y21240D02*
D03*
X29130Y19740D02*
D03*
X19780Y19470D02*
D03*
X20160Y19670D02*
D03*
X19400Y19680D02*
D03*
X16010Y17670D02*
D03*
X15680Y19190D02*
D03*
X13210Y19150D02*
D03*
X13560Y18880D02*
D03*
X13640Y19110D02*
D03*
X22610Y21760D02*
D03*
X13810Y20950D02*
D03*
X14460Y20790D02*
D03*
X15360Y19340D02*
D03*
X15040Y19413D02*
D03*
X16710Y20510D02*
D03*
X18170Y18890D02*
D03*
X17770Y18880D02*
D03*
X18290Y19370D02*
D03*
X16380Y20210D02*
D03*
X16390Y20450D02*
D03*
X17650Y19650D02*
D03*
X17410Y19660D02*
D03*
X17110Y19840D02*
D03*
X15000Y18720D02*
D03*
X15940Y18330D02*
D03*
X12230Y20600D02*
D03*
X11970Y20820D02*
D03*
X11120Y20750D02*
D03*
X11480Y19780D02*
D03*
X12630Y19810D02*
D03*
X13850Y19380D02*
D03*
X12450Y20090D02*
D03*
X26060Y20250D02*
D03*
X19130Y12890D02*
D03*
X31750Y14340D02*
D03*
X32381Y14621D02*
D03*
X29090Y13600D02*
D03*
Y13850D02*
D03*
X30210Y19440D02*
D03*
X30810Y19960D02*
D03*
X30119Y17729D02*
D03*
X31300Y18230D02*
D03*
X31380Y18460D02*
D03*
X32310Y18630D02*
D03*
X28870Y21030D02*
D03*
X30220Y21020D02*
D03*
X28580Y16220D02*
D03*
X28590Y17340D02*
D03*
X29330Y15140D02*
D03*
X33410Y14260D02*
D03*
X23410Y15580D02*
D03*
X24120Y16800D02*
D03*
X17870Y13870D02*
D03*
X24260Y18370D02*
D03*
X30100Y18640D02*
D03*
X34120Y19060D02*
D03*
X32300Y13540D02*
D03*
X33940Y13410D02*
D03*
X39050Y20790D02*
D03*
X38590Y21410D02*
D03*
X37360Y21390D02*
D03*
X36780Y20800D02*
D03*
X36990Y17820D02*
D03*
X38340D02*
D03*
X43880Y28060D02*
D03*
X45140Y30170D02*
D03*
X40090Y30760D02*
D03*
X39590Y28060D02*
D03*
X44950Y31010D02*
D03*
D90*
X37530Y28789D02*
D03*
X37569Y30236D02*
D03*
X44000Y18730D02*
D03*
X43550D02*
D03*
X44880Y19730D02*
D03*
X39362Y21808D02*
D03*
X37126Y28789D02*
D03*
X37185Y29872D02*
D03*
X38110Y29537D02*
D03*
Y30236D02*
D03*
X37126Y29311D02*
D03*
X35020Y28031D02*
D03*
X35059Y26083D02*
D03*
X15797Y23140D02*
D03*
D91*
X36020Y18200D02*
D03*
Y17700D02*
D03*
X41830Y36140D02*
D03*
X41826Y34996D02*
D03*
X39890Y32123D02*
D03*
X13642Y29429D02*
D03*
X36000Y16730D02*
D03*
X42460Y32160D02*
D03*
D92*
X39311Y30030D02*
D03*
D93*
X41130Y32600D02*
D03*
M02*
