G04 Layer_Color=65535*
%FSLAX24Y24*%
%MOIN*%
G70*
G01*
G75*
%ADD10C,0.0080*%
%ADD59C,0.0070*%
%ADD69C,0.0100*%
%ADD119C,0.0050*%
%ADD120C,0.0039*%
%ADD121C,0.0098*%
%ADD122C,0.0000*%
%ADD123C,0.0060*%
%ADD124C,0.0079*%
%ADD125C,0.0040*%
%ADD126R,0.0295X0.0879*%
%ADD127R,0.0119X0.0120*%
%ADD128R,0.0060X0.0120*%
%ADD129R,0.0059X0.0120*%
%ADD130R,0.0879X0.0295*%
%ADD131R,0.0120X0.0119*%
%ADD132R,0.0120X0.0060*%
%ADD133R,0.0120X0.0059*%
%ADD134R,0.2450X0.0492*%
G36*
X37056Y23566D02*
Y23563D01*
Y23558D01*
X37056Y23553D01*
X37055Y23547D01*
X37054Y23540D01*
X37052Y23533D01*
X37050Y23525D01*
Y23524D01*
X37049Y23523D01*
X37047Y23519D01*
X37044Y23513D01*
X37040Y23504D01*
X37034Y23494D01*
X37027Y23483D01*
X37019Y23471D01*
X37009Y23459D01*
Y23458D01*
X37008Y23458D01*
X37004Y23453D01*
X36998Y23446D01*
X36989Y23437D01*
X36978Y23427D01*
X36964Y23414D01*
X36947Y23399D01*
X36929Y23384D01*
X36929Y23383D01*
X36926Y23381D01*
X36922Y23378D01*
X36916Y23372D01*
X36910Y23367D01*
X36902Y23360D01*
X36885Y23346D01*
X36867Y23328D01*
X36849Y23311D01*
X36840Y23303D01*
X36833Y23294D01*
X36826Y23286D01*
X36820Y23279D01*
Y23278D01*
X36818Y23277D01*
X36817Y23275D01*
X36815Y23272D01*
X36811Y23264D01*
X36805Y23254D01*
X36800Y23243D01*
X36796Y23231D01*
X36792Y23217D01*
X36791Y23204D01*
Y23204D01*
Y23203D01*
X36792Y23198D01*
X36792Y23192D01*
X36794Y23183D01*
X36798Y23173D01*
X36802Y23164D01*
X36808Y23153D01*
X36817Y23143D01*
X36819Y23142D01*
X36822Y23139D01*
X36828Y23136D01*
X36836Y23130D01*
X36845Y23126D01*
X36857Y23122D01*
X36870Y23119D01*
X36885Y23118D01*
X36890D01*
X36893Y23119D01*
X36901Y23120D01*
X36910Y23121D01*
X36922Y23125D01*
X36934Y23130D01*
X36945Y23136D01*
X36956Y23145D01*
X36957Y23147D01*
X36960Y23150D01*
X36964Y23156D01*
X36969Y23164D01*
X36974Y23175D01*
X36978Y23187D01*
X36981Y23201D01*
X36982Y23218D01*
X37045Y23211D01*
Y23210D01*
Y23208D01*
X37044Y23204D01*
X37043Y23200D01*
X37042Y23194D01*
X37041Y23187D01*
X37037Y23172D01*
X37031Y23155D01*
X37022Y23137D01*
X37011Y23120D01*
X37005Y23112D01*
X36997Y23105D01*
X36997Y23104D01*
X36995Y23103D01*
X36993Y23101D01*
X36990Y23099D01*
X36985Y23096D01*
X36980Y23093D01*
X36974Y23089D01*
X36967Y23086D01*
X36960Y23083D01*
X36951Y23079D01*
X36941Y23076D01*
X36932Y23074D01*
X36909Y23069D01*
X36897Y23068D01*
X36884Y23068D01*
X36877D01*
X36872Y23068D01*
X36866Y23069D01*
X36859Y23070D01*
X36851Y23071D01*
X36843Y23073D01*
X36825Y23077D01*
X36806Y23084D01*
X36796Y23089D01*
X36787Y23094D01*
X36779Y23101D01*
X36771Y23108D01*
X36770Y23108D01*
X36769Y23109D01*
X36767Y23111D01*
X36764Y23114D01*
X36761Y23119D01*
X36757Y23124D01*
X36749Y23135D01*
X36742Y23149D01*
X36735Y23166D01*
X36730Y23185D01*
X36729Y23195D01*
X36728Y23206D01*
Y23207D01*
Y23211D01*
X36729Y23217D01*
X36730Y23225D01*
X36731Y23234D01*
X36734Y23244D01*
X36737Y23254D01*
X36741Y23265D01*
X36742Y23266D01*
X36743Y23270D01*
X36746Y23275D01*
X36751Y23283D01*
X36756Y23292D01*
X36763Y23303D01*
X36772Y23313D01*
X36782Y23325D01*
X36783Y23327D01*
X36787Y23331D01*
X36794Y23338D01*
X36799Y23343D01*
X36804Y23348D01*
X36810Y23354D01*
X36817Y23361D01*
X36825Y23368D01*
X36833Y23376D01*
X36842Y23384D01*
X36853Y23393D01*
X36864Y23402D01*
X36876Y23413D01*
X36876Y23414D01*
X36878Y23415D01*
X36881Y23418D01*
X36885Y23421D01*
X36894Y23428D01*
X36905Y23438D01*
X36916Y23449D01*
X36929Y23459D01*
X36938Y23468D01*
X36942Y23472D01*
X36946Y23476D01*
X36947Y23477D01*
X36948Y23479D01*
X36951Y23482D01*
X36955Y23486D01*
X36963Y23496D01*
X36972Y23508D01*
X36727D01*
Y23567D01*
X37056D01*
Y23566D01*
D02*
G37*
G36*
X38785Y23178D02*
X38786Y23179D01*
X38789Y23182D01*
X38794Y23186D01*
X38801Y23191D01*
X38810Y23198D01*
X38819Y23204D01*
X38831Y23213D01*
X38844Y23220D01*
X38844D01*
X38845Y23221D01*
X38850Y23224D01*
X38856Y23228D01*
X38865Y23232D01*
X38875Y23238D01*
X38885Y23242D01*
X38897Y23247D01*
X38907Y23252D01*
Y23192D01*
X38906D01*
X38905Y23192D01*
X38902Y23190D01*
X38899Y23188D01*
X38894Y23186D01*
X38889Y23183D01*
X38877Y23176D01*
X38863Y23168D01*
X38848Y23158D01*
X38833Y23147D01*
X38819Y23135D01*
X38818Y23134D01*
X38817Y23133D01*
X38813Y23129D01*
X38806Y23122D01*
X38797Y23114D01*
X38788Y23103D01*
X38779Y23092D01*
X38771Y23080D01*
X38764Y23068D01*
X38724D01*
Y23567D01*
X38785D01*
Y23178D01*
D02*
G37*
D10*
X43260Y30050D02*
G03*
X43020Y30050I-120J245D01*
G01*
X42530Y30140D02*
G03*
X42610Y29960I596J157D01*
G01*
Y30620D02*
G03*
X42530Y30440I505J-332D01*
G01*
X42990Y30890D02*
G03*
X42820Y30820I142J-587D01*
G01*
X43460Y30820D02*
G03*
X43280Y30900I-346J-535D01*
G01*
X43760Y30440D02*
G03*
X43670Y30620I-561J-168D01*
G01*
Y29960D02*
G03*
X43750Y30160I-535J330D01*
G01*
X37077Y30699D02*
G03*
X37077Y30699I-79J0D01*
G01*
X42870Y29710D02*
X43020Y30050D01*
X42800Y29750D02*
X42870Y29710D01*
X42620Y29630D02*
X42800Y29750D01*
X42480Y29770D02*
X42620Y29630D01*
X42480Y29770D02*
X42600Y29950D01*
X42300Y30190D02*
X42520Y30150D01*
X42300Y30190D02*
Y30390D01*
X42530Y30430D01*
X42480Y30810D02*
X42610Y30620D01*
X42480Y30810D02*
X42620Y30950D01*
X42810Y30820D01*
X42990Y30890D02*
X43040Y31130D01*
X43230D01*
X43280Y30890D01*
X43460Y30820D02*
X43660Y30950D01*
X43800Y30810D01*
X43660Y30620D02*
X43800Y30810D01*
X43750Y30430D02*
X43970Y30390D01*
Y30190D02*
Y30390D01*
X43750Y30150D02*
X43970Y30190D01*
X43670Y29950D02*
X43800Y29770D01*
X43660Y29630D02*
X43800Y29770D01*
X43480Y29750D02*
X43660Y29630D01*
X43400Y29710D02*
X43480Y29750D01*
X43260Y30050D02*
X43400Y29710D01*
X37067Y28607D02*
X38368D01*
X36870D02*
X37067D01*
X36870Y30502D02*
X37067D01*
X38368D01*
X37067Y28607D02*
Y30502D01*
X40493Y23982D02*
X41287D01*
X40893Y23435D02*
X41287Y23982D01*
X40493D02*
X40893Y23435D01*
X38508Y27663D02*
Y28163D01*
X36758Y27413D02*
X37258D01*
X36508Y27663D02*
X36758Y27413D01*
X36508Y28163D02*
X36758Y28413D01*
X36508Y27663D02*
Y28163D01*
X37508Y27663D02*
X37758Y27413D01*
X38258D01*
X38508Y27663D01*
X38258Y28413D02*
X38508Y28163D01*
X37758Y28413D02*
X38258D01*
X37508Y28163D02*
X37758Y28413D01*
X37258Y27413D02*
X37508Y27663D01*
X37258Y28413D02*
X37508Y28163D01*
X36758Y28413D02*
X37258D01*
X42211Y27510D02*
Y27795D01*
X40316Y27510D02*
Y27795D01*
X38521Y18084D02*
X38806D01*
X38521Y19979D02*
X38806D01*
X29530Y20590D02*
X29863D01*
X29697D01*
Y20090D01*
X30030Y20590D02*
Y20090D01*
Y20340D01*
X30113Y20423D01*
X30280D01*
X30363Y20340D01*
Y20090D01*
X30780D02*
X30613D01*
X30530Y20173D01*
Y20340D01*
X30613Y20423D01*
X30780D01*
X30863Y20340D01*
Y20257D01*
X30530D01*
X31030Y20423D02*
Y20090D01*
Y20257D01*
X31113Y20340D01*
X31196Y20423D01*
X31279D01*
X31529Y20090D02*
Y20423D01*
X31613D01*
X31696Y20340D01*
Y20090D01*
Y20340D01*
X31779Y20423D01*
X31863Y20340D01*
Y20090D01*
X12520Y31073D02*
Y30740D01*
X13020D01*
Y31073D01*
X12770Y30740D02*
Y30907D01*
X13020Y31240D02*
X12687D01*
Y31490D01*
X12770Y31573D01*
X13020D01*
X12520Y32073D02*
X13020D01*
Y31823D01*
X12937Y31740D01*
X12770D01*
X12687Y31823D01*
Y32073D01*
X13020Y32240D02*
Y32489D01*
X12937Y32573D01*
X12853Y32489D01*
Y32323D01*
X12770Y32240D01*
X12687Y32323D01*
Y32573D01*
X12603Y32823D02*
X12687D01*
Y32739D01*
Y32906D01*
Y32823D01*
X12937D01*
X13020Y32906D01*
Y33239D02*
Y33406D01*
X12937Y33489D01*
X12770D01*
X12687Y33406D01*
Y33239D01*
X12770Y33156D01*
X12937D01*
X13020Y33239D01*
X13187Y33656D02*
X12687D01*
Y33906D01*
X12770Y33989D01*
X12937D01*
X13020Y33906D01*
Y33656D01*
Y34156D02*
Y34405D01*
X12937Y34489D01*
X12853Y34405D01*
Y34239D01*
X12770Y34156D01*
X12687Y34239D01*
Y34489D01*
X20190Y21450D02*
Y21950D01*
X20357Y21783D01*
X20523Y21950D01*
Y21450D01*
X20773D02*
X20940D01*
X21023Y21533D01*
Y21700D01*
X20940Y21783D01*
X20773D01*
X20690Y21700D01*
Y21533D01*
X20773Y21450D01*
X21273Y21867D02*
Y21783D01*
X21190D01*
X21356D01*
X21273D01*
Y21533D01*
X21356Y21450D01*
X21690D02*
X21856D01*
X21939Y21533D01*
Y21700D01*
X21856Y21783D01*
X21690D01*
X21606Y21700D01*
Y21533D01*
X21690Y21450D01*
X22106Y21783D02*
Y21450D01*
Y21617D01*
X22189Y21700D01*
X22273Y21783D01*
X22356D01*
X22606Y21450D02*
X22856D01*
X22939Y21533D01*
X22856Y21617D01*
X22689D01*
X22606Y21700D01*
X22689Y21783D01*
X22939D01*
X50850Y15410D02*
Y15743D01*
X50683Y15577D02*
X51017D01*
X50850Y18909D02*
Y19242D01*
X30571Y22311D02*
X30904D01*
X30737D01*
Y21811D01*
X31404D02*
X31071D01*
X31404Y22144D01*
Y22228D01*
X31321Y22311D01*
X31154D01*
X31071Y22228D01*
X30571Y23925D02*
X30904D01*
X30737D01*
Y23425D01*
X31071D02*
X31237D01*
X31154D01*
Y23925D01*
X31071Y23842D01*
X30571Y29831D02*
X30904D01*
X30737D01*
Y29331D01*
X31071Y29747D02*
X31154Y29831D01*
X31321D01*
X31404Y29747D01*
Y29414D01*
X31321Y29331D01*
X31154D01*
X31071Y29414D01*
Y29747D01*
X39037Y37360D02*
X38770D01*
Y36960D01*
X39037D01*
X38770Y37160D02*
X38903D01*
X39170Y37360D02*
X39303D01*
X39237D01*
Y36960D01*
X39170D01*
X39303D01*
X39503D02*
Y37360D01*
X39770Y36960D01*
Y37360D01*
X39903D02*
Y37293D01*
X40036Y37160D01*
X40170Y37293D01*
Y37360D01*
X40036Y37160D02*
Y36960D01*
X40703Y37293D02*
X40769Y37360D01*
X40903D01*
X40969Y37293D01*
Y37027D01*
X40903Y36960D01*
X40769D01*
X40703Y37027D01*
Y37293D01*
X41103Y36960D02*
Y37027D01*
X41169D01*
Y36960D01*
X41103D01*
X41436D02*
X41569D01*
X41502D01*
Y37360D01*
X41436Y37293D01*
X41836Y37227D02*
X41969D01*
X42036Y37160D01*
Y36960D01*
X41836D01*
X41769Y37027D01*
X41836Y37093D01*
X42036D01*
X51140Y15880D02*
X50640D01*
Y16130D01*
X50723Y16213D01*
X50890D01*
X50973Y16130D01*
Y15880D01*
X50640Y16380D02*
X51140D01*
X50973Y16546D01*
X51140Y16713D01*
X50640D01*
X51140Y16880D02*
X50640D01*
Y17130D01*
X50723Y17213D01*
X50890D01*
X50973Y17130D01*
Y16880D01*
Y17046D02*
X51140Y17213D01*
X50640Y17879D02*
Y18046D01*
Y17963D01*
X51140D01*
Y17879D01*
Y18046D01*
Y18296D02*
X50640D01*
X51140Y18629D01*
X50640D01*
X50600Y22370D02*
X51100D01*
Y22620D01*
X51017Y22703D01*
X50933D01*
X50850Y22620D01*
Y22370D01*
Y22620D01*
X50767Y22703D01*
X50683D01*
X50600Y22620D01*
Y22370D01*
Y23203D02*
Y22870D01*
X51100D01*
Y23203D01*
X50850Y22870D02*
Y23036D01*
X50600Y23370D02*
X51100D01*
Y23620D01*
X51017Y23703D01*
X50683D01*
X50600Y23620D01*
Y23370D01*
Y24369D02*
Y24536D01*
Y24453D01*
X51100D01*
Y24369D01*
Y24536D01*
Y24786D02*
X50600D01*
X51100Y25119D01*
X50600D01*
X39231Y27677D02*
X38898D01*
X39231Y28010D01*
Y28094D01*
X39148Y28177D01*
X38981D01*
X38898Y28094D01*
X39500Y28163D02*
Y27830D01*
X39750D01*
Y27997D01*
Y27830D01*
X40000D01*
X39667Y28413D02*
Y28580D01*
X39750Y28663D01*
X40000D01*
Y28413D01*
X39917Y28330D01*
X39833Y28413D01*
Y28663D01*
X40000Y28830D02*
X39667D01*
Y29080D01*
X39750Y29163D01*
X40000D01*
Y29330D02*
Y29579D01*
X39917Y29663D01*
X39833Y29579D01*
Y29413D01*
X39750Y29330D01*
X39667Y29413D01*
Y29663D01*
X36233Y36997D02*
Y37330D01*
X36567Y36997D01*
X36650D01*
X36733Y37080D01*
Y37247D01*
X36650Y37330D01*
X33182Y37271D02*
Y37104D01*
Y37188D01*
X33682D01*
X33599Y37271D01*
X39270Y26920D02*
X39437D01*
X39353D01*
Y27420D01*
X39270Y27337D01*
X50850Y21860D02*
Y22193D01*
X50683Y22027D02*
X51017D01*
X50850Y25359D02*
Y25692D01*
Y28260D02*
Y28593D01*
X50683Y28427D02*
X51017D01*
X50850Y32759D02*
Y33092D01*
X50600Y29120D02*
X51100D01*
Y29370D01*
X51017Y29453D01*
X50933D01*
X50850Y29370D01*
Y29120D01*
Y29370D01*
X50767Y29453D01*
X50683D01*
X50600Y29370D01*
Y29120D01*
Y29953D02*
Y29620D01*
X51100D01*
Y29953D01*
X50850Y29620D02*
Y29786D01*
X50600Y30120D02*
X51100D01*
Y30370D01*
X51017Y30453D01*
X50683D01*
X50600Y30370D01*
Y30120D01*
Y31369D02*
Y31203D01*
X50683Y31119D01*
X51017D01*
X51100Y31203D01*
Y31369D01*
X51017Y31453D01*
X50683D01*
X50600Y31369D01*
Y31619D02*
X51017D01*
X51100Y31702D01*
Y31869D01*
X51017Y31952D01*
X50600D01*
Y32119D02*
Y32452D01*
Y32286D01*
X51100D01*
X26720Y34040D02*
X26887D01*
X26803D01*
Y34540D01*
X26720Y34457D01*
D59*
X45667Y10410D02*
X45400D01*
Y10210D01*
X45533D01*
X45400D01*
Y10010D01*
X45800D02*
X45933D01*
X45867D01*
Y10410D01*
X45800Y10343D01*
X38987Y10390D02*
X38720D01*
Y10190D01*
X38853D01*
X38720D01*
Y9990D01*
X39386D02*
X39120D01*
X39386Y10257D01*
Y10323D01*
X39320Y10390D01*
X39187D01*
X39120Y10323D01*
X43367Y28460D02*
X43100D01*
Y28260D01*
X43233D01*
X43100D01*
Y28060D01*
X43500Y28393D02*
X43567Y28460D01*
X43700D01*
X43766Y28393D01*
Y28327D01*
X43700Y28260D01*
X43633D01*
X43700D01*
X43766Y28193D01*
Y28127D01*
X43700Y28060D01*
X43567D01*
X43500Y28127D01*
X44700Y37370D02*
Y37070D01*
X44760Y37010D01*
X44880D01*
X44940Y37070D01*
Y37370D01*
X45060Y37010D02*
X45180D01*
X45120D01*
Y37370D01*
X45060D01*
X45420Y37310D02*
Y37250D01*
X45360D01*
X45480D01*
X45420D01*
Y37070D01*
X45480Y37010D01*
X45660D02*
X45780D01*
X45720D01*
Y37250D01*
X45660D01*
X45960Y37010D02*
Y37370D01*
X46080Y37250D01*
X46200Y37370D01*
Y37010D01*
X46379Y37250D02*
X46499D01*
X46559Y37190D01*
Y37010D01*
X46379D01*
X46319Y37070D01*
X46379Y37130D01*
X46559D01*
X46919Y37250D02*
X46739D01*
X46679Y37190D01*
Y37070D01*
X46739Y37010D01*
X46919D01*
X47039Y37370D02*
Y37010D01*
Y37190D01*
X47099Y37250D01*
X47219D01*
X47279Y37190D01*
Y37010D01*
X47399D02*
X47519D01*
X47459D01*
Y37250D01*
X47399D01*
X47699Y37010D02*
Y37250D01*
X47879D01*
X47939Y37190D01*
Y37010D01*
X48239D02*
X48119D01*
X48059Y37070D01*
Y37190D01*
X48119Y37250D01*
X48239D01*
X48299Y37190D01*
Y37130D01*
X48059D01*
X35867Y20780D02*
X35600D01*
Y20380D01*
X35867D01*
X35600Y20580D02*
X35733D01*
X36000Y20780D02*
X36266Y20380D01*
Y20780D02*
X36000Y20380D01*
X36400Y20780D02*
X36666D01*
X36533D01*
Y20380D01*
X36800D02*
Y20780D01*
X37000D01*
X37066Y20713D01*
Y20580D01*
X37000Y20513D01*
X36800D01*
X36933D02*
X37066Y20380D01*
X37199Y20780D02*
Y20447D01*
X37266Y20380D01*
X37399D01*
X37466Y20447D01*
Y20780D01*
X37599D02*
Y20380D01*
X37799D01*
X37866Y20447D01*
Y20713D01*
X37799Y20780D01*
X37599D01*
X38266D02*
X37999D01*
Y20380D01*
X38266D01*
X37999Y20580D02*
X38133D01*
X38399Y20380D02*
Y20780D01*
X38599D01*
X38666Y20713D01*
Y20580D01*
X38599Y20513D01*
X38399D01*
X38532D02*
X38666Y20380D01*
X26890Y30170D02*
X26997D01*
X26943D01*
Y30490D01*
X26890Y30437D01*
D69*
X28638Y27562D02*
G03*
X28638Y27562I-100J0D01*
G01*
X16274Y17960D02*
G03*
X16274Y17960I-14J0D01*
G01*
X17337Y17480D02*
G03*
X17337Y17480I-37J0D01*
G01*
X11800Y18400D02*
G03*
X11800Y18400I-20J0D01*
G01*
X12816Y17895D02*
G03*
X12816Y17895I-20J0D01*
G01*
X12920Y14500D02*
G03*
X12920Y14500I-20J0D01*
G01*
X11840Y14940D02*
G03*
X11840Y14940I-20J0D01*
G01*
X16343Y14645D02*
G03*
X16343Y14645I-20J0D01*
G01*
X17366Y14075D02*
G03*
X17366Y14075I-20J0D01*
G01*
X20860Y14590D02*
G03*
X20860Y14590I-20J0D01*
G01*
X21880Y14140D02*
G03*
X21880Y14140I-20J0D01*
G01*
X30470Y14560D02*
G03*
X30470Y14560I-20J0D01*
G01*
X31536Y14055D02*
G03*
X31536Y14055I-20J0D01*
G01*
X31490Y17520D02*
G03*
X31490Y17520I-20J0D01*
G01*
X30440Y17970D02*
G03*
X30440Y17970I-20J0D01*
G01*
X21836Y17475D02*
G03*
X21836Y17475I-20J0D01*
G01*
X20823Y18045D02*
G03*
X20823Y18045I-20J0D01*
G01*
X13642Y12542D02*
X14762D01*
Y12917D01*
X17517Y12542D02*
X18642D01*
Y10287D02*
Y12542D01*
X13642Y10287D02*
X18642D01*
X13642D02*
Y12542D01*
X18193Y10837D02*
Y11988D01*
X14082Y10837D02*
X18193D01*
X14082D02*
Y11988D01*
X18193D01*
X14754Y12540D02*
X17509D01*
X14762Y12917D02*
X17517D01*
Y12542D02*
Y12917D01*
X45470Y13745D02*
Y33895D01*
X50470D01*
Y13745D02*
Y33895D01*
X45470Y13745D02*
X50470D01*
X37414Y35158D02*
X39190D01*
X37414Y36150D02*
X39190D01*
X32379Y19996D02*
Y20116D01*
X32004D02*
X32379D01*
X32004D02*
Y22871D01*
X32379D01*
Y22996D01*
X34634D01*
Y19996D02*
Y22996D01*
X32379Y19996D02*
X34634D01*
X16734Y32340D02*
X17354D01*
X16734Y31965D02*
Y32340D01*
X13979Y31965D02*
X16734D01*
X13979D02*
Y32340D01*
X13354D02*
X13979D01*
X13354D02*
Y34595D01*
X17354D01*
Y32340D02*
Y34595D01*
X13979Y32340D02*
X16734D01*
X22247D02*
X25002D01*
X25622D02*
Y34595D01*
X21622D02*
X25622D01*
X21622Y32340D02*
Y34595D01*
Y32340D02*
X22247D01*
Y31965D02*
Y32340D01*
Y31965D02*
X25002D01*
Y32340D01*
X25622D01*
X20868D02*
X21488D01*
X20868Y31965D02*
Y32340D01*
X18113Y31965D02*
X20868D01*
X18113D02*
Y32340D01*
X17488D02*
X18113D01*
X17488D02*
Y34595D01*
X21488D01*
Y32340D02*
Y34595D01*
X18113Y32340D02*
X20868D01*
X18760Y12542D02*
X19880D01*
Y12917D01*
X22635Y12542D02*
X23760D01*
Y10287D02*
Y12542D01*
X18760Y10287D02*
X23760D01*
X18760D02*
Y12542D01*
X23311Y10837D02*
Y11988D01*
X19200Y10837D02*
X23311D01*
X19200D02*
Y11988D01*
X23311D01*
X19872Y12540D02*
X22627D01*
X19880Y12917D02*
X22635D01*
Y12542D02*
Y12917D01*
X37527Y14018D02*
Y15794D01*
X38519Y14018D02*
Y15794D01*
X38500Y11536D02*
Y13312D01*
X37508Y11536D02*
Y13312D01*
X45202Y28434D02*
Y30210D01*
X44210Y28434D02*
Y30210D01*
X35922Y18234D02*
Y20010D01*
X34930Y18234D02*
Y20010D01*
X36059Y26755D02*
X36179D01*
Y27130D01*
X38934D01*
Y26755D02*
Y27130D01*
Y26755D02*
X39059D01*
Y24500D02*
Y26755D01*
X36059Y24500D02*
X39059D01*
X36059D02*
Y26755D01*
X36115Y32250D02*
Y32370D01*
Y32250D02*
X36490D01*
Y29495D02*
Y32250D01*
X36115Y29495D02*
X36490D01*
X36115Y29370D02*
Y29495D01*
X33860Y29370D02*
X36115D01*
X33860D02*
Y32370D01*
X36115D01*
X32379Y23106D02*
Y23226D01*
X32004D02*
X32379D01*
X32004D02*
Y25981D01*
X32379D01*
Y26106D01*
X34634D01*
Y23106D02*
Y26106D01*
X32379Y23106D02*
X34634D01*
X32379Y26217D02*
Y26337D01*
X32004D02*
X32379D01*
X32004D02*
Y29092D01*
X32379D01*
Y29217D01*
X34634D01*
Y26217D02*
Y29217D01*
X32379Y26217D02*
X34634D01*
X13974Y36952D02*
X16729D01*
X13354Y34697D02*
Y36952D01*
Y34697D02*
X17354D01*
Y36952D01*
X16729D02*
X17354D01*
X16729D02*
Y37327D01*
X13974D02*
X16729D01*
X13974Y36952D02*
Y37327D01*
X13354Y36952D02*
X13974D01*
X17488D02*
X18108D01*
Y37327D01*
X20863D01*
Y36952D02*
Y37327D01*
Y36952D02*
X21488D01*
Y34697D02*
Y36952D01*
X17488Y34697D02*
X21488D01*
X17488D02*
Y36952D01*
X18108D02*
X20863D01*
X22242D02*
X24997D01*
X21622Y34697D02*
Y36952D01*
Y34697D02*
X25622D01*
Y36952D01*
X24997D02*
X25622D01*
X24997D02*
Y37327D01*
X22242D02*
X24997D01*
X22242Y36952D02*
Y37327D01*
X21622Y36952D02*
X22242D01*
X28638Y27956D02*
X28928Y27661D01*
Y22540D02*
Y27661D01*
X28828Y22440D02*
X28928Y22540D01*
X23510Y22440D02*
X28828D01*
X23412Y22540D02*
X23510Y22440D01*
X23412Y22540D02*
Y27857D01*
X23510Y27956D01*
X28638D01*
X13349Y21194D02*
X13624Y21470D01*
Y21470D02*
X15711D01*
X13349Y20801D02*
Y21194D01*
X13624Y18950D02*
X15711D01*
X13349Y19226D02*
X13624Y18950D01*
X13349Y19226D02*
Y19619D01*
X15711Y18950D02*
Y19619D01*
Y20801D02*
Y21470D01*
X22689Y20974D02*
X22964Y21250D01*
Y21250D02*
X25051D01*
X22689Y20581D02*
Y20974D01*
X22964Y18730D02*
X25051D01*
X22689Y19006D02*
X22964Y18730D01*
X22689Y19006D02*
Y19399D01*
X25051Y18730D02*
Y19399D01*
Y20581D02*
Y21250D01*
X23878Y12542D02*
X24998D01*
Y12917D01*
X27753Y12542D02*
X28878D01*
Y10287D02*
Y12542D01*
X23878Y10287D02*
X28878D01*
X23878D02*
Y12542D01*
X28429Y10837D02*
Y11988D01*
X24318Y10837D02*
X28429D01*
X24318D02*
Y11988D01*
X28429D01*
X24991Y12540D02*
X27746D01*
X24998Y12917D02*
X27753D01*
Y12542D02*
Y12917D01*
X23878Y15298D02*
X24998D01*
Y15673D01*
X27753Y15298D02*
X28878D01*
Y13043D02*
Y15298D01*
X23878Y13043D02*
X28878D01*
X23878D02*
Y15298D01*
X28429Y13593D02*
Y14744D01*
X24318Y13593D02*
X28429D01*
X24318D02*
Y14744D01*
X28429D01*
X24991Y15295D02*
X27746D01*
X24998Y15673D02*
X27753D01*
Y15298D02*
Y15673D01*
X17869Y21144D02*
X18144Y21420D01*
Y21420D02*
X20231D01*
X17869Y20751D02*
Y21144D01*
X18144Y18900D02*
X20231D01*
X17869Y19176D02*
X18144Y18900D01*
X17869Y19176D02*
Y19569D01*
X20231Y18900D02*
Y19569D01*
Y20751D02*
Y21420D01*
X29000Y12546D02*
X30120D01*
Y12921D01*
X32875Y12546D02*
X34000D01*
Y10291D02*
Y12546D01*
X29000Y10291D02*
X34000D01*
X29000D02*
Y12546D01*
X33551Y10841D02*
Y11992D01*
X29440Y10841D02*
X33551D01*
X29440D02*
Y11992D01*
X33551D01*
X30113Y12544D02*
X32868D01*
X30120Y12921D02*
X32875D01*
Y12546D02*
Y12921D01*
X36614Y13521D02*
X36890Y13246D01*
X36890Y11159D02*
Y13246D01*
X36221Y13521D02*
X36614D01*
X34370Y11159D02*
Y13246D01*
X34370D02*
X34646Y13521D01*
X35039D01*
X34370Y11159D02*
X35039D01*
X36221D02*
X36890D01*
X36424Y17141D02*
X36700Y16866D01*
X36700Y14779D02*
Y16866D01*
X36031Y17141D02*
X36424D01*
X34180Y14779D02*
Y16866D01*
X34180D02*
X34456Y17141D01*
X34849D01*
X34180Y14779D02*
X34849D01*
X36031D02*
X36700D01*
X41934Y21041D02*
X42210Y20766D01*
X42210Y18679D02*
Y20766D01*
X41541Y21041D02*
X41934D01*
X39690Y18679D02*
Y20766D01*
X39690D02*
X39966Y21041D01*
X40359D01*
X39690Y18679D02*
X40359D01*
X41541D02*
X42210D01*
X34550Y20730D02*
X34450Y20830D01*
X34250D01*
X34150Y20730D01*
Y20330D01*
X34250Y20230D01*
X34450D01*
X34550Y20330D01*
X34750Y20230D02*
X34950D01*
X34850D01*
Y20830D01*
X34750Y20730D01*
X35250Y20830D02*
X35650D01*
Y20730D01*
X35250Y20330D01*
Y20230D01*
D119*
X11070Y34060D02*
G03*
X11070Y34060I-420J0D01*
G01*
X20901Y25190D02*
Y26450D01*
Y25190D02*
X21894D01*
Y26450D01*
X20901D02*
X21894D01*
X17040Y23411D02*
Y24671D01*
X16047D02*
X17040D01*
X16047Y23411D02*
Y24671D01*
Y23411D02*
X17040D01*
X16800Y28100D02*
X16918D01*
X18682D02*
X18800D01*
Y27982D02*
Y28100D01*
Y26100D02*
Y26218D01*
X16800Y26100D02*
X16918D01*
X18682D02*
X18800D01*
X16800Y27982D02*
Y28100D01*
Y26100D02*
Y26218D01*
X42445Y10000D02*
Y17800D01*
Y10000D02*
X45195D01*
Y17800D01*
X42445D02*
X45195D01*
X39545Y17804D02*
X42295D01*
Y10004D02*
Y17804D01*
X39545Y10004D02*
X42295D01*
X39545D02*
Y17804D01*
X45245Y20130D02*
Y27930D01*
X42495D02*
X45245D01*
X42495Y20130D02*
Y27930D01*
Y20130D02*
X45245D01*
X36533Y19214D02*
X36366D01*
X36325Y19173D01*
Y19089D01*
X36366Y19048D01*
X36533D01*
X36575Y19089D01*
Y19173D01*
X36491Y19131D02*
X36575Y19214D01*
Y19173D02*
X36533Y19214D01*
X36575Y19297D02*
Y19381D01*
Y19339D01*
X36325D01*
X36366Y19297D01*
X15432Y18317D02*
X15390Y18275D01*
Y18192D01*
X15432Y18150D01*
X15598D01*
X15640Y18192D01*
Y18275D01*
X15598Y18317D01*
Y18400D02*
X15640Y18442D01*
Y18525D01*
X15598Y18567D01*
X15432D01*
X15390Y18525D01*
Y18442D01*
X15432Y18400D01*
X15473D01*
X15515Y18442D01*
Y18567D01*
X15432Y18650D02*
X15390Y18691D01*
Y18775D01*
X15432Y18816D01*
X15598D01*
X15640Y18775D01*
Y18691D01*
X15598Y18650D01*
X15432D01*
X14757Y17678D02*
X14715Y17720D01*
X14632D01*
X14590Y17678D01*
Y17512D01*
X14632Y17470D01*
X14715D01*
X14757Y17512D01*
X14840D02*
X14882Y17470D01*
X14965D01*
X15007Y17512D01*
Y17678D01*
X14965Y17720D01*
X14882D01*
X14840Y17678D01*
Y17637D01*
X14882Y17595D01*
X15007D01*
X15090Y17470D02*
X15173D01*
X15131D01*
Y17720D01*
X15090Y17678D01*
X14727Y18388D02*
X14685Y18430D01*
X14602D01*
X14560Y18388D01*
Y18222D01*
X14602Y18180D01*
X14685D01*
X14727Y18222D01*
X14810D02*
X14852Y18180D01*
X14935D01*
X14977Y18222D01*
Y18388D01*
X14935Y18430D01*
X14852D01*
X14810Y18388D01*
Y18347D01*
X14852Y18305D01*
X14977D01*
X15226Y18180D02*
X15060D01*
X15226Y18347D01*
Y18388D01*
X15185Y18430D01*
X15101D01*
X15060Y18388D01*
X28637Y21388D02*
X28595Y21430D01*
X28512D01*
X28470Y21388D01*
Y21222D01*
X28512Y21180D01*
X28595D01*
X28637Y21222D01*
X28720D02*
X28762Y21180D01*
X28845D01*
X28887Y21222D01*
Y21388D01*
X28845Y21430D01*
X28762D01*
X28720Y21388D01*
Y21347D01*
X28762Y21305D01*
X28887D01*
X28970Y21388D02*
X29011Y21430D01*
X29095D01*
X29136Y21388D01*
Y21347D01*
X29095Y21305D01*
X29053D01*
X29095D01*
X29136Y21263D01*
Y21222D01*
X29095Y21180D01*
X29011D01*
X28970Y21222D01*
X10592Y15527D02*
X10550Y15485D01*
Y15402D01*
X10592Y15360D01*
X10758D01*
X10800Y15402D01*
Y15485D01*
X10758Y15527D01*
Y15610D02*
X10800Y15652D01*
Y15735D01*
X10758Y15777D01*
X10592D01*
X10550Y15735D01*
Y15652D01*
X10592Y15610D01*
X10633D01*
X10675Y15652D01*
Y15777D01*
X10800Y15985D02*
X10550D01*
X10675Y15860D01*
Y16026D01*
X14492Y16787D02*
X14450Y16745D01*
Y16662D01*
X14492Y16620D01*
X14658D01*
X14700Y16662D01*
Y16745D01*
X14658Y16787D01*
Y16870D02*
X14700Y16912D01*
Y16995D01*
X14658Y17037D01*
X14492D01*
X14450Y16995D01*
Y16912D01*
X14492Y16870D01*
X14533D01*
X14575Y16912D01*
Y17037D01*
X14450Y17286D02*
Y17120D01*
X14575D01*
X14533Y17203D01*
Y17245D01*
X14575Y17286D01*
X14658D01*
X14700Y17245D01*
Y17161D01*
X14658Y17120D01*
X13977Y16038D02*
X13935Y16080D01*
X13852D01*
X13810Y16038D01*
Y15872D01*
X13852Y15830D01*
X13935D01*
X13977Y15872D01*
X14060D02*
X14102Y15830D01*
X14185D01*
X14227Y15872D01*
Y16038D01*
X14185Y16080D01*
X14102D01*
X14060Y16038D01*
Y15997D01*
X14102Y15955D01*
X14227D01*
X14476Y16080D02*
X14393Y16038D01*
X14310Y15955D01*
Y15872D01*
X14351Y15830D01*
X14435D01*
X14476Y15872D01*
Y15913D01*
X14435Y15955D01*
X14310D01*
X14797Y13508D02*
X14755Y13550D01*
X14672D01*
X14630Y13508D01*
Y13342D01*
X14672Y13300D01*
X14755D01*
X14797Y13342D01*
X14880D02*
X14922Y13300D01*
X15005D01*
X15047Y13342D01*
Y13508D01*
X15005Y13550D01*
X14922D01*
X14880Y13508D01*
Y13467D01*
X14922Y13425D01*
X15047D01*
X15130Y13550D02*
X15296D01*
Y13508D01*
X15130Y13342D01*
Y13300D01*
X13687Y12988D02*
X13645Y13030D01*
X13562D01*
X13520Y12988D01*
Y12822D01*
X13562Y12780D01*
X13645D01*
X13687Y12822D01*
X13770D02*
X13812Y12780D01*
X13895D01*
X13937Y12822D01*
Y12988D01*
X13895Y13030D01*
X13812D01*
X13770Y12988D01*
Y12947D01*
X13812Y12905D01*
X13937D01*
X14020Y12988D02*
X14061Y13030D01*
X14145D01*
X14186Y12988D01*
Y12947D01*
X14145Y12905D01*
X14186Y12863D01*
Y12822D01*
X14145Y12780D01*
X14061D01*
X14020Y12822D01*
Y12863D01*
X14061Y12905D01*
X14020Y12947D01*
Y12988D01*
X14061Y12905D02*
X14145D01*
X12492Y20437D02*
X12450Y20395D01*
Y20312D01*
X12492Y20270D01*
X12658D01*
X12700Y20312D01*
Y20395D01*
X12658Y20437D01*
Y20520D02*
X12700Y20562D01*
Y20645D01*
X12658Y20687D01*
X12492D01*
X12450Y20645D01*
Y20562D01*
X12492Y20520D01*
X12533D01*
X12575Y20562D01*
Y20687D01*
X12658Y20770D02*
X12700Y20811D01*
Y20895D01*
X12658Y20936D01*
X12492D01*
X12450Y20895D01*
Y20811D01*
X12492Y20770D01*
X12533D01*
X12575Y20811D01*
Y20936D01*
X14052Y13587D02*
X14010Y13545D01*
Y13462D01*
X14052Y13420D01*
X14218D01*
X14260Y13462D01*
Y13545D01*
X14218Y13587D01*
X14260Y13670D02*
Y13753D01*
Y13712D01*
X14010D01*
X14052Y13670D01*
Y13878D02*
X14010Y13920D01*
Y14003D01*
X14052Y14045D01*
X14218D01*
X14260Y14003D01*
Y13920D01*
X14218Y13878D01*
X14052D01*
Y14128D02*
X14010Y14170D01*
Y14253D01*
X14052Y14295D01*
X14218D01*
X14260Y14253D01*
Y14170D01*
X14218Y14128D01*
X14052D01*
X10242Y13837D02*
X10200Y13795D01*
Y13712D01*
X10242Y13670D01*
X10408D01*
X10450Y13712D01*
Y13795D01*
X10408Y13837D01*
X10450Y13920D02*
Y14003D01*
Y13962D01*
X10200D01*
X10242Y13920D01*
Y14128D02*
X10200Y14170D01*
Y14253D01*
X10242Y14295D01*
X10408D01*
X10450Y14253D01*
Y14170D01*
X10408Y14128D01*
X10242D01*
X10450Y14378D02*
Y14461D01*
Y14420D01*
X10200D01*
X10242Y14378D01*
X13182Y12737D02*
X13140Y12695D01*
Y12612D01*
X13182Y12570D01*
X13348D01*
X13390Y12612D01*
Y12695D01*
X13348Y12737D01*
X13390Y12820D02*
Y12903D01*
Y12862D01*
X13140D01*
X13182Y12820D01*
Y13028D02*
X13140Y13070D01*
Y13153D01*
X13182Y13195D01*
X13348D01*
X13390Y13153D01*
Y13070D01*
X13348Y13028D01*
X13182D01*
X13390Y13445D02*
Y13278D01*
X13223Y13445D01*
X13182D01*
X13140Y13403D01*
Y13320D01*
X13182Y13278D01*
X12747Y21528D02*
X12705Y21570D01*
X12622D01*
X12580Y21528D01*
Y21362D01*
X12622Y21320D01*
X12705D01*
X12747Y21362D01*
X12997Y21320D02*
X12830D01*
X12997Y21487D01*
Y21528D01*
X12955Y21570D01*
X12872D01*
X12830Y21528D01*
X13205Y21320D02*
Y21570D01*
X13080Y21445D01*
X13246D01*
X13807Y15138D02*
X13765Y15180D01*
X13682D01*
X13640Y15138D01*
Y14972D01*
X13682Y14930D01*
X13765D01*
X13807Y14972D01*
X13890Y14930D02*
X13973D01*
X13932D01*
Y15180D01*
X13890Y15138D01*
X14098D02*
X14140Y15180D01*
X14223D01*
X14265Y15138D01*
Y14972D01*
X14223Y14930D01*
X14140D01*
X14098Y14972D01*
Y15138D01*
X14473Y14930D02*
Y15180D01*
X14348Y15055D01*
X14515D01*
X13012Y19007D02*
X12970Y18965D01*
Y18882D01*
X13012Y18840D01*
X13178D01*
X13220Y18882D01*
Y18965D01*
X13178Y19007D01*
X13220Y19090D02*
Y19173D01*
Y19132D01*
X12970D01*
X13012Y19090D01*
Y19298D02*
X12970Y19340D01*
Y19423D01*
X13012Y19465D01*
X13178D01*
X13220Y19423D01*
Y19340D01*
X13178Y19298D01*
X13012D01*
X12970Y19715D02*
Y19548D01*
X13095D01*
X13053Y19631D01*
Y19673D01*
X13095Y19715D01*
X13178D01*
X13220Y19673D01*
Y19590D01*
X13178Y19548D01*
X29840Y23240D02*
Y22990D01*
X30007D01*
X30257Y23240D02*
X30173Y23198D01*
X30090Y23115D01*
Y23032D01*
X30132Y22990D01*
X30215D01*
X30257Y23032D01*
Y23073D01*
X30215Y23115D01*
X30090D01*
X15290Y15730D02*
X15040D01*
Y15855D01*
X15082Y15897D01*
X15165D01*
X15207Y15855D01*
Y15730D01*
Y15813D02*
X15290Y15897D01*
Y15980D02*
Y16063D01*
Y16022D01*
X15040D01*
X15082Y15980D01*
X15290Y16355D02*
Y16188D01*
X15123Y16355D01*
X15082D01*
X15040Y16313D01*
Y16230D01*
X15082Y16188D01*
X11410Y18980D02*
X11160D01*
Y19105D01*
X11202Y19147D01*
X11285D01*
X11327Y19105D01*
Y18980D01*
Y19063D02*
X11410Y19147D01*
Y19230D02*
Y19313D01*
Y19272D01*
X11160D01*
X11202Y19230D01*
X11160Y19438D02*
Y19605D01*
X11202D01*
X11368Y19438D01*
X11410D01*
X10880Y13620D02*
X10630D01*
Y13745D01*
X10672Y13787D01*
X10755D01*
X10797Y13745D01*
Y13620D01*
Y13703D02*
X10880Y13787D01*
Y13870D02*
Y13953D01*
Y13912D01*
X10630D01*
X10672Y13870D01*
Y14078D02*
X10630Y14120D01*
Y14203D01*
X10672Y14245D01*
X10713D01*
X10755Y14203D01*
X10797Y14245D01*
X10838D01*
X10880Y14203D01*
Y14120D01*
X10838Y14078D01*
X10797D01*
X10755Y14120D01*
X10713Y14078D01*
X10672D01*
X10755Y14120D02*
Y14203D01*
X10770Y17370D02*
Y17162D01*
X10812Y17120D01*
X10895D01*
X10937Y17162D01*
Y17370D01*
X11145Y17120D02*
Y17370D01*
X11020Y17245D01*
X11187D01*
X12810Y10510D02*
X12977Y10260D01*
Y10510D02*
X12810Y10260D01*
X13060D02*
X13143D01*
X13102D01*
Y10510D01*
X13060Y10468D01*
X13435Y10510D02*
X13351Y10468D01*
X13268Y10385D01*
Y10302D01*
X13310Y10260D01*
X13393D01*
X13435Y10302D01*
Y10343D01*
X13393Y10385D01*
X13268D01*
X40650Y34550D02*
Y34800D01*
X40775D01*
X40817Y34758D01*
Y34675D01*
X40775Y34633D01*
X40650D01*
X40733D02*
X40817Y34550D01*
X40900D02*
X40983D01*
X40942D01*
Y34800D01*
X40900Y34758D01*
X41108D02*
X41150Y34800D01*
X41233D01*
X41275Y34758D01*
Y34717D01*
X41233Y34675D01*
X41191D01*
X41233D01*
X41275Y34633D01*
Y34592D01*
X41233Y34550D01*
X41150D01*
X41108Y34592D01*
X13610Y26930D02*
X13860D01*
Y27055D01*
X13818Y27097D01*
X13652D01*
X13610Y27055D01*
Y26930D01*
X13860Y27180D02*
Y27263D01*
Y27222D01*
X13610D01*
X13652Y27180D01*
X13610Y27555D02*
X13652Y27471D01*
X13735Y27388D01*
X13818D01*
X13860Y27430D01*
Y27513D01*
X13818Y27555D01*
X13777D01*
X13735Y27513D01*
Y27388D01*
X11742Y32187D02*
X11700Y32145D01*
Y32062D01*
X11742Y32020D01*
X11783D01*
X11825Y32062D01*
Y32145D01*
X11867Y32187D01*
X11908D01*
X11950Y32145D01*
Y32062D01*
X11908Y32020D01*
X11950Y32270D02*
Y32353D01*
Y32312D01*
X11700D01*
X11742Y32270D01*
X10698Y28037D02*
X10865Y27787D01*
Y28037D02*
X10698Y27787D01*
X11115D02*
X10948D01*
X11115Y27953D01*
Y27995D01*
X11073Y28037D01*
X10990D01*
X10948Y27995D01*
X23180Y28670D02*
Y28462D01*
X23222Y28420D01*
X23305D01*
X23347Y28462D01*
Y28670D01*
X23597Y28420D02*
X23430D01*
X23597Y28587D01*
Y28628D01*
X23555Y28670D01*
X23472D01*
X23430Y28628D01*
X21100Y29060D02*
X21267Y28810D01*
Y29060D02*
X21100Y28810D01*
X21350D02*
X21433D01*
X21392D01*
Y29060D01*
X21350Y29018D01*
X21558D02*
X21600Y29060D01*
X21683D01*
X21725Y29018D01*
Y28977D01*
X21683Y28935D01*
X21725Y28893D01*
Y28852D01*
X21683Y28810D01*
X21600D01*
X21558Y28852D01*
Y28893D01*
X21600Y28935D01*
X21558Y28977D01*
Y29018D01*
X21600Y28935D02*
X21683D01*
X10394Y28439D02*
Y28189D01*
X10560D01*
X10810Y28439D02*
X10644D01*
Y28189D01*
X10810D01*
X10644Y28314D02*
X10727D01*
X10894Y28439D02*
Y28189D01*
X11019D01*
X11060Y28231D01*
Y28397D01*
X11019Y28439D01*
X10894D01*
X11143D02*
X11310D01*
Y28397D01*
X11143Y28231D01*
Y28189D01*
X29607Y28348D02*
X29565Y28390D01*
X29482D01*
X29440Y28348D01*
Y28182D01*
X29482Y28140D01*
X29565D01*
X29607Y28182D01*
X29857Y28390D02*
X29773Y28348D01*
X29690Y28265D01*
Y28182D01*
X29732Y28140D01*
X29815D01*
X29857Y28182D01*
Y28223D01*
X29815Y28265D01*
X29690D01*
X21741Y27413D02*
X21700Y27455D01*
X21616D01*
X21575Y27413D01*
Y27246D01*
X21616Y27205D01*
X21700D01*
X21741Y27246D01*
X21825D02*
X21866Y27205D01*
X21950D01*
X21991Y27246D01*
Y27413D01*
X21950Y27455D01*
X21866D01*
X21825Y27413D01*
Y27371D01*
X21866Y27330D01*
X21991D01*
X30682Y21237D02*
X30640Y21195D01*
Y21112D01*
X30682Y21070D01*
X30848D01*
X30890Y21112D01*
Y21195D01*
X30848Y21237D01*
X30682Y21320D02*
X30640Y21362D01*
Y21445D01*
X30682Y21487D01*
X30723D01*
X30765Y21445D01*
X30807Y21487D01*
X30848D01*
X30890Y21445D01*
Y21362D01*
X30848Y21320D01*
X30807D01*
X30765Y21362D01*
X30723Y21320D01*
X30682D01*
X30765Y21362D02*
Y21445D01*
X26741Y21460D02*
X26700Y21501D01*
X26616D01*
X26575Y21460D01*
Y21293D01*
X26616Y21251D01*
X26700D01*
X26741Y21293D01*
X26825Y21501D02*
X26991D01*
Y21460D01*
X26825Y21293D01*
Y21251D01*
X20028Y27962D02*
X19986Y27920D01*
Y27837D01*
X20028Y27795D01*
X20195D01*
X20236Y27837D01*
Y27920D01*
X20195Y27962D01*
X20236Y28045D02*
Y28128D01*
Y28087D01*
X19986D01*
X20028Y28045D01*
X16111Y25090D02*
X16070Y25132D01*
X15987D01*
X15945Y25090D01*
Y24924D01*
X15987Y24882D01*
X16070D01*
X16111Y24924D01*
X16195Y24882D02*
X16278D01*
X16236D01*
Y25132D01*
X16195Y25090D01*
X16403Y24882D02*
X16486D01*
X16445D01*
Y25132D01*
X16403Y25090D01*
X13887Y26378D02*
X13845Y26420D01*
X13762D01*
X13720Y26378D01*
Y26212D01*
X13762Y26170D01*
X13845D01*
X13887Y26212D01*
X13970Y26170D02*
X14053D01*
X14012D01*
Y26420D01*
X13970Y26378D01*
X14345Y26420D02*
X14178D01*
Y26295D01*
X14261Y26337D01*
X14303D01*
X14345Y26295D01*
Y26212D01*
X14303Y26170D01*
X14220D01*
X14178Y26212D01*
X10197Y30211D02*
Y29961D01*
X10363D01*
X10613Y30211D02*
X10447D01*
Y29961D01*
X10613D01*
X10447Y30086D02*
X10530D01*
X10697Y30211D02*
Y29961D01*
X10822D01*
X10863Y30002D01*
Y30169D01*
X10822Y30211D01*
X10697D01*
X10947Y29961D02*
X11030D01*
X10988D01*
Y30211D01*
X10947Y30169D01*
X22233Y24930D02*
X22191Y24889D01*
Y24805D01*
X22233Y24764D01*
X22399D01*
X22441Y24805D01*
Y24889D01*
X22399Y24930D01*
X22441Y25014D02*
Y25097D01*
Y25055D01*
X22191D01*
X22233Y25014D01*
Y25222D02*
X22191Y25264D01*
Y25347D01*
X22233Y25389D01*
X22399D01*
X22441Y25347D01*
Y25264D01*
X22399Y25222D01*
X22233D01*
X16170Y28474D02*
X16128Y28432D01*
Y28349D01*
X16170Y28307D01*
X16336D01*
X16378Y28349D01*
Y28432D01*
X16336Y28474D01*
X16378Y28557D02*
Y28640D01*
Y28599D01*
X16128D01*
X16170Y28557D01*
X16128Y28932D02*
X16170Y28849D01*
X16253Y28765D01*
X16336D01*
X16378Y28807D01*
Y28890D01*
X16336Y28932D01*
X16295D01*
X16253Y28890D01*
Y28765D01*
X16890Y28636D02*
Y28427D01*
X16931Y28386D01*
X17015D01*
X17056Y28427D01*
Y28636D01*
X17140Y28386D02*
X17223D01*
X17181D01*
Y28636D01*
X17140Y28594D01*
X15235Y31486D02*
X15402Y31236D01*
Y31486D02*
X15235Y31236D01*
X15485D02*
X15568D01*
X15527D01*
Y31486D01*
X15485Y31444D01*
X15693Y31486D02*
X15860D01*
Y31444D01*
X15693Y31277D01*
Y31236D01*
X15512Y25039D02*
X15262D01*
Y25164D01*
X15304Y25206D01*
X15387D01*
X15429Y25164D01*
Y25039D01*
Y25123D02*
X15512Y25206D01*
X15262Y25289D02*
X15429D01*
X15512Y25373D01*
X15429Y25456D01*
X15262D01*
X15512Y25539D02*
Y25623D01*
Y25581D01*
X15262D01*
X15304Y25539D01*
X15730Y28020D02*
X15480D01*
Y28145D01*
X15522Y28187D01*
X15605D01*
X15647Y28145D01*
Y28020D01*
Y28103D02*
X15730Y28187D01*
X15480Y28270D02*
X15647D01*
X15730Y28353D01*
X15647Y28437D01*
X15480D01*
X15730Y28686D02*
Y28520D01*
X15563Y28686D01*
X15522D01*
X15480Y28645D01*
Y28561D01*
X15522Y28520D01*
X20000Y28840D02*
Y29090D01*
X20125D01*
X20167Y29048D01*
Y28965D01*
X20125Y28923D01*
X20000D01*
X20083D02*
X20167Y28840D01*
X20250D02*
Y29090D01*
X20417Y28840D01*
Y29090D01*
X20666D02*
X20500D01*
Y28965D01*
X20583Y29007D01*
X20625D01*
X20666Y28965D01*
Y28882D01*
X20625Y28840D01*
X20541D01*
X20500Y28882D01*
X15185Y23552D02*
X15144Y23511D01*
Y23427D01*
X15185Y23386D01*
X15352D01*
X15394Y23427D01*
Y23511D01*
X15352Y23552D01*
X15394Y23636D02*
Y23719D01*
Y23677D01*
X15144D01*
X15185Y23636D01*
Y23844D02*
X15144Y23886D01*
Y23969D01*
X15185Y24011D01*
X15227D01*
X15269Y23969D01*
Y23927D01*
Y23969D01*
X15310Y24011D01*
X15352D01*
X15394Y23969D01*
Y23886D01*
X15352Y23844D01*
X15317Y23118D02*
X15275Y23160D01*
X15192D01*
X15150Y23118D01*
Y22952D01*
X15192Y22910D01*
X15275D01*
X15317Y22952D01*
X15400Y22910D02*
X15483D01*
X15442D01*
Y23160D01*
X15400Y23118D01*
X15775Y22910D02*
X15608D01*
X15775Y23077D01*
Y23118D01*
X15733Y23160D01*
X15650D01*
X15608Y23118D01*
X17568Y25366D02*
X17527Y25407D01*
X17443D01*
X17402Y25366D01*
Y25199D01*
X17443Y25157D01*
X17527D01*
X17568Y25199D01*
X17651Y25157D02*
X17735D01*
X17693D01*
Y25407D01*
X17651Y25366D01*
X17985Y25157D02*
Y25407D01*
X17860Y25282D01*
X18026D01*
X17155Y23266D02*
Y23224D01*
X17238Y23141D01*
X17321Y23224D01*
Y23266D01*
X17238Y23141D02*
Y23016D01*
X17571D02*
X17405D01*
X17571Y23183D01*
Y23224D01*
X17530Y23266D01*
X17446D01*
X17405Y23224D01*
X25183Y34921D02*
X25433Y35088D01*
X25183D02*
X25433Y34921D01*
Y35338D02*
Y35171D01*
X25266Y35338D01*
X25225D01*
X25183Y35296D01*
Y35213D01*
X25225Y35171D01*
X25433Y35421D02*
Y35504D01*
Y35463D01*
X25183D01*
X25225Y35421D01*
X21049Y34882D02*
X21299Y35048D01*
X21049D02*
X21299Y34882D01*
Y35298D02*
Y35132D01*
X21133Y35298D01*
X21091D01*
X21049Y35257D01*
Y35173D01*
X21091Y35132D01*
X21299Y35548D02*
Y35382D01*
X21133Y35548D01*
X21091D01*
X21049Y35507D01*
Y35423D01*
X21091Y35382D01*
X16955Y34882D02*
X17205Y35048D01*
X16955D02*
X17205Y34882D01*
Y35298D02*
Y35132D01*
X17038Y35298D01*
X16996D01*
X16955Y35257D01*
Y35173D01*
X16996Y35132D01*
Y35382D02*
X16955Y35423D01*
Y35507D01*
X16996Y35548D01*
X17038D01*
X17080Y35507D01*
Y35465D01*
Y35507D01*
X17121Y35548D01*
X17163D01*
X17205Y35507D01*
Y35423D01*
X17163Y35382D01*
X42570Y29018D02*
Y29185D01*
X42528Y29226D01*
X42445D01*
X42403Y29185D01*
Y29018D01*
X42445Y28977D01*
X42528D01*
X42486Y29060D02*
X42570Y28977D01*
X42528D02*
X42570Y29018D01*
X42820Y29226D02*
X42653D01*
Y29101D01*
X42736Y29143D01*
X42778D01*
X42820Y29101D01*
Y29018D01*
X42778Y28977D01*
X42695D01*
X42653Y29018D01*
X34238Y28268D02*
X34488Y28434D01*
X34238D02*
X34488Y28268D01*
Y28684D02*
Y28518D01*
X34322Y28684D01*
X34280D01*
X34238Y28643D01*
Y28559D01*
X34280Y28518D01*
X34238Y28768D02*
Y28934D01*
X34280D01*
X34447Y28768D01*
X34488D01*
X34238Y24803D02*
X34488Y24970D01*
X34238D02*
X34488Y24803D01*
Y25220D02*
Y25053D01*
X34322Y25220D01*
X34280D01*
X34238Y25178D01*
Y25095D01*
X34280Y25053D01*
Y25303D02*
X34238Y25345D01*
Y25428D01*
X34280Y25470D01*
X34322D01*
X34363Y25428D01*
X34405Y25470D01*
X34447D01*
X34488Y25428D01*
Y25345D01*
X34447Y25303D01*
X34405D01*
X34363Y25345D01*
X34322Y25303D01*
X34280D01*
X34363Y25345D02*
Y25428D01*
X32717Y27520D02*
X32467D01*
Y27645D01*
X32508Y27686D01*
X32592D01*
X32633Y27645D01*
Y27520D01*
Y27603D02*
X32717Y27686D01*
X32508Y27770D02*
X32467Y27811D01*
Y27895D01*
X32508Y27936D01*
X32550D01*
X32592Y27895D01*
Y27853D01*
Y27895D01*
X32633Y27936D01*
X32675D01*
X32717Y27895D01*
Y27811D01*
X32675Y27770D01*
X32717Y28020D02*
Y28103D01*
Y28061D01*
X32467D01*
X32508Y28020D01*
X20167Y24815D02*
X20125Y24856D01*
X20042D01*
X20000Y24815D01*
Y24648D01*
X20042Y24606D01*
X20125D01*
X20167Y24648D01*
X20417Y24856D02*
X20250D01*
Y24731D01*
X20333Y24773D01*
X20375D01*
X20417Y24731D01*
Y24648D01*
X20375Y24606D01*
X20292D01*
X20250Y24648D01*
X20500Y24856D02*
X20666D01*
Y24815D01*
X20500Y24648D01*
Y24606D01*
X20028Y25285D02*
X19986Y25243D01*
Y25160D01*
X20028Y25118D01*
X20195D01*
X20236Y25160D01*
Y25243D01*
X20195Y25285D01*
X19986Y25535D02*
Y25368D01*
X20111D01*
X20070Y25451D01*
Y25493D01*
X20111Y25535D01*
X20195D01*
X20236Y25493D01*
Y25410D01*
X20195Y25368D01*
X20028Y25618D02*
X19986Y25660D01*
Y25743D01*
X20028Y25785D01*
X20070D01*
X20111Y25743D01*
X20153Y25785D01*
X20195D01*
X20236Y25743D01*
Y25660D01*
X20195Y25618D01*
X20153D01*
X20111Y25660D01*
X20070Y25618D01*
X20028D01*
X20111Y25660D02*
Y25743D01*
X29357Y27998D02*
X29315Y28040D01*
X29232D01*
X29190Y27998D01*
Y27832D01*
X29232Y27790D01*
X29315D01*
X29357Y27832D01*
X29607Y28040D02*
X29440D01*
Y27915D01*
X29523Y27957D01*
X29565D01*
X29607Y27915D01*
Y27832D01*
X29565Y27790D01*
X29482D01*
X29440Y27832D01*
X29690D02*
X29731Y27790D01*
X29815D01*
X29856Y27832D01*
Y27998D01*
X29815Y28040D01*
X29731D01*
X29690Y27998D01*
Y27957D01*
X29731Y27915D01*
X29856D01*
X12200Y28250D02*
Y28500D01*
X12325D01*
X12367Y28458D01*
Y28375D01*
X12325Y28333D01*
X12200D01*
X12283D02*
X12367Y28250D01*
X12450Y28458D02*
X12492Y28500D01*
X12575D01*
X12617Y28458D01*
Y28417D01*
X12575Y28375D01*
X12533D01*
X12575D01*
X12617Y28333D01*
Y28292D01*
X12575Y28250D01*
X12492D01*
X12450Y28292D01*
X12866Y28500D02*
X12700D01*
Y28375D01*
X12783Y28417D01*
X12825D01*
X12866Y28375D01*
Y28292D01*
X12825Y28250D01*
X12741D01*
X12700Y28292D01*
X32805Y22638D02*
Y22888D01*
X32930D01*
X32972Y22846D01*
Y22763D01*
X32930Y22721D01*
X32805D01*
X32888D02*
X32972Y22638D01*
X33055Y22846D02*
X33097Y22888D01*
X33180D01*
X33222Y22846D01*
Y22804D01*
X33180Y22763D01*
X33138D01*
X33180D01*
X33222Y22721D01*
Y22679D01*
X33180Y22638D01*
X33097D01*
X33055Y22679D01*
X33472Y22888D02*
X33388Y22846D01*
X33305Y22763D01*
Y22679D01*
X33347Y22638D01*
X33430D01*
X33472Y22679D01*
Y22721D01*
X33430Y22763D01*
X33305D01*
X29870Y25639D02*
X29829Y25597D01*
Y25514D01*
X29870Y25472D01*
X30037D01*
X30079Y25514D01*
Y25597D01*
X30037Y25639D01*
X29829Y25889D02*
Y25722D01*
X29954D01*
X29912Y25806D01*
Y25847D01*
X29954Y25889D01*
X30037D01*
X30079Y25847D01*
Y25764D01*
X30037Y25722D01*
X29829Y26139D02*
X29870Y26056D01*
X29954Y25972D01*
X30037D01*
X30079Y26014D01*
Y26097D01*
X30037Y26139D01*
X29995D01*
X29954Y26097D01*
Y25972D01*
X39180Y16120D02*
X39430D01*
Y16287D01*
X39180Y16537D02*
Y16370D01*
X39430D01*
Y16537D01*
X39305Y16370D02*
Y16453D01*
X39180Y16620D02*
X39430D01*
Y16745D01*
X39388Y16786D01*
X39222D01*
X39180Y16745D01*
Y16620D01*
X39430Y17036D02*
Y16870D01*
X39263Y17036D01*
X39222D01*
X39180Y16995D01*
Y16911D01*
X39222Y16870D01*
X38360Y16170D02*
Y16420D01*
X38485D01*
X38527Y16378D01*
Y16295D01*
X38485Y16253D01*
X38360D01*
X38443D02*
X38527Y16170D01*
X38735D02*
Y16420D01*
X38610Y16295D01*
X38777D01*
X38860Y16378D02*
X38901Y16420D01*
X38985D01*
X39026Y16378D01*
Y16212D01*
X38985Y16170D01*
X38901D01*
X38860Y16212D01*
Y16378D01*
X36180Y17400D02*
Y17650D01*
X36305D01*
X36347Y17608D01*
Y17525D01*
X36305Y17483D01*
X36180D01*
X36263D02*
X36347Y17400D01*
X36555D02*
Y17650D01*
X36430Y17525D01*
X36597D01*
X36846Y17400D02*
X36680D01*
X36846Y17567D01*
Y17608D01*
X36805Y17650D01*
X36721D01*
X36680Y17608D01*
X36860Y16170D02*
Y16420D01*
X36985D01*
X37027Y16378D01*
Y16295D01*
X36985Y16253D01*
X36860D01*
X36943D02*
X37027Y16170D01*
X37235D02*
Y16420D01*
X37110Y16295D01*
X37277D01*
X37360Y16378D02*
X37401Y16420D01*
X37485D01*
X37526Y16378D01*
Y16337D01*
X37485Y16295D01*
X37443D01*
X37485D01*
X37526Y16253D01*
Y16212D01*
X37485Y16170D01*
X37401D01*
X37360Y16212D01*
X21496Y28189D02*
Y28439D01*
X21621D01*
X21663Y28397D01*
Y28314D01*
X21621Y28272D01*
X21496D01*
X21579D02*
X21663Y28189D01*
X21871D02*
Y28439D01*
X21746Y28314D01*
X21913D01*
X22163Y28439D02*
X22079Y28397D01*
X21996Y28314D01*
Y28231D01*
X22038Y28189D01*
X22121D01*
X22163Y28231D01*
Y28272D01*
X22121Y28314D01*
X21996D01*
X14502Y30706D02*
X14252D01*
Y30831D01*
X14293Y30873D01*
X14377D01*
X14418Y30831D01*
Y30706D01*
Y30789D02*
X14502Y30873D01*
Y31081D02*
X14252D01*
X14377Y30956D01*
Y31123D01*
X14252Y31206D02*
Y31372D01*
X14293D01*
X14460Y31206D01*
X14502D01*
X41630Y26420D02*
Y26670D01*
X41755D01*
X41797Y26628D01*
Y26545D01*
X41755Y26503D01*
X41630D01*
X41713D02*
X41797Y26420D01*
X42047Y26670D02*
X41880D01*
Y26545D01*
X41963Y26587D01*
X42005D01*
X42047Y26545D01*
Y26462D01*
X42005Y26420D01*
X41922D01*
X41880Y26462D01*
X42296Y26670D02*
X42213Y26628D01*
X42130Y26545D01*
Y26462D01*
X42171Y26420D01*
X42255D01*
X42296Y26462D01*
Y26503D01*
X42255Y26545D01*
X42130D01*
X39540Y25890D02*
X39290D01*
Y26015D01*
X39332Y26057D01*
X39415D01*
X39457Y26015D01*
Y25890D01*
Y25973D02*
X39540Y26057D01*
X39290Y26307D02*
Y26140D01*
X39415D01*
X39373Y26223D01*
Y26265D01*
X39415Y26307D01*
X39498D01*
X39540Y26265D01*
Y26182D01*
X39498Y26140D01*
X39290Y26390D02*
Y26556D01*
X39332D01*
X39498Y26390D01*
X39540D01*
X45566Y33804D02*
Y34054D01*
X45399D01*
X45149Y33804D02*
X45316D01*
Y34054D01*
X45149D01*
X45316Y33929D02*
X45232D01*
X45066Y33804D02*
Y34054D01*
X44941D01*
X44899Y34012D01*
Y33845D01*
X44941Y33804D01*
X45066D01*
X44649D02*
X44733Y33845D01*
X44816Y33929D01*
Y34012D01*
X44774Y34054D01*
X44691D01*
X44649Y34012D01*
Y33970D01*
X44691Y33929D01*
X44816D01*
X45910Y35880D02*
X45660D01*
Y36005D01*
X45702Y36047D01*
X45785D01*
X45827Y36005D01*
Y35880D01*
Y35963D02*
X45910Y36047D01*
X45660Y36297D02*
Y36130D01*
X45785D01*
X45743Y36213D01*
Y36255D01*
X45785Y36297D01*
X45868D01*
X45910Y36255D01*
Y36172D01*
X45868Y36130D01*
X45702Y36380D02*
X45660Y36421D01*
Y36505D01*
X45702Y36546D01*
X45743D01*
X45785Y36505D01*
X45827Y36546D01*
X45868D01*
X45910Y36505D01*
Y36421D01*
X45868Y36380D01*
X45827D01*
X45785Y36421D01*
X45743Y36380D01*
X45702D01*
X45785Y36421D02*
Y36505D01*
X21102Y26943D02*
Y26901D01*
X21186Y26818D01*
X21269Y26901D01*
Y26943D01*
X21186Y26818D02*
Y26693D01*
X21352D02*
X21436D01*
X21394D01*
Y26943D01*
X21352Y26901D01*
X33218Y30264D02*
X33385Y30014D01*
Y30264D02*
X33218Y30014D01*
X33468D02*
X33552D01*
X33510D01*
Y30264D01*
X33468Y30222D01*
X14570Y26580D02*
Y26830D01*
X14695D01*
X14737Y26788D01*
Y26705D01*
X14695Y26663D01*
X14570D01*
X14653D02*
X14737Y26580D01*
X14820D02*
X14903D01*
X14862D01*
Y26830D01*
X14820Y26788D01*
X14540Y27040D02*
Y27290D01*
X14665D01*
X14707Y27248D01*
Y27165D01*
X14665Y27123D01*
X14540D01*
X14623D02*
X14707Y27040D01*
X14957D02*
X14790D01*
X14957Y27207D01*
Y27248D01*
X14915Y27290D01*
X14832D01*
X14790Y27248D01*
X16507Y22758D02*
X16465Y22800D01*
X16382D01*
X16340Y22758D01*
Y22592D01*
X16382Y22550D01*
X16465D01*
X16507Y22592D01*
X16757Y22550D02*
X16590D01*
X16757Y22717D01*
Y22758D01*
X16715Y22800D01*
X16632D01*
X16590Y22758D01*
X36150Y27550D02*
X36400Y27717D01*
X36150D02*
X36400Y27550D01*
X36192Y27800D02*
X36150Y27842D01*
Y27925D01*
X36192Y27967D01*
X36233D01*
X36275Y27925D01*
Y27883D01*
Y27925D01*
X36317Y27967D01*
X36358D01*
X36400Y27925D01*
Y27842D01*
X36358Y27800D01*
X36150Y28216D02*
Y28050D01*
X36275D01*
X36233Y28133D01*
Y28175D01*
X36275Y28216D01*
X36358D01*
X36400Y28175D01*
Y28091D01*
X36358Y28050D01*
X39260Y24460D02*
X39510D01*
Y24585D01*
X39468Y24627D01*
X39302D01*
X39260Y24585D01*
Y24460D01*
Y24710D02*
Y24877D01*
X39302D01*
X39468Y24710D01*
X39510D01*
X29357Y28698D02*
X29315Y28740D01*
X29232D01*
X29190Y28698D01*
Y28532D01*
X29232Y28490D01*
X29315D01*
X29357Y28532D01*
X29607Y28490D02*
X29440D01*
X29607Y28657D01*
Y28698D01*
X29565Y28740D01*
X29482D01*
X29440Y28698D01*
X29856Y28740D02*
X29773Y28698D01*
X29690Y28615D01*
Y28532D01*
X29731Y28490D01*
X29815D01*
X29856Y28532D01*
Y28573D01*
X29815Y28615D01*
X29690D01*
X26392Y28947D02*
X26350Y28905D01*
Y28822D01*
X26392Y28780D01*
X26558D01*
X26600Y28822D01*
Y28905D01*
X26558Y28947D01*
X26350Y29197D02*
Y29030D01*
X26475D01*
X26433Y29113D01*
Y29155D01*
X26475Y29197D01*
X26558D01*
X26600Y29155D01*
Y29072D01*
X26558Y29030D01*
X26600Y29446D02*
Y29280D01*
X26433Y29446D01*
X26392D01*
X26350Y29405D01*
Y29321D01*
X26392Y29280D01*
X39022Y13887D02*
X38980Y13845D01*
Y13762D01*
X39022Y13720D01*
X39188D01*
X39230Y13762D01*
Y13845D01*
X39188Y13887D01*
X38980Y14137D02*
X39022Y14053D01*
X39105Y13970D01*
X39188D01*
X39230Y14012D01*
Y14095D01*
X39188Y14137D01*
X39147D01*
X39105Y14095D01*
Y13970D01*
X39022Y14220D02*
X38980Y14261D01*
Y14345D01*
X39022Y14386D01*
X39188D01*
X39230Y14345D01*
Y14261D01*
X39188Y14220D01*
X39022D01*
X40797Y22048D02*
X40755Y22090D01*
X40672D01*
X40630Y22048D01*
Y21882D01*
X40672Y21840D01*
X40755D01*
X40797Y21882D01*
X41047Y22090D02*
X40963Y22048D01*
X40880Y21965D01*
Y21882D01*
X40922Y21840D01*
X41005D01*
X41047Y21882D01*
Y21923D01*
X41005Y21965D01*
X40880D01*
X41296Y21840D02*
X41130D01*
X41296Y22007D01*
Y22048D01*
X41255Y22090D01*
X41171D01*
X41130Y22048D01*
X39210Y25580D02*
X39377Y25330D01*
Y25580D02*
X39210Y25330D01*
X39460Y25372D02*
X39502Y25330D01*
X39585D01*
X39627Y25372D01*
Y25538D01*
X39585Y25580D01*
X39502D01*
X39460Y25538D01*
Y25497D01*
X39502Y25455D01*
X39627D01*
X38437Y30662D02*
Y30828D01*
X38395Y30870D01*
X38312D01*
X38270Y30828D01*
Y30662D01*
X38312Y30620D01*
X38395D01*
X38353Y30703D02*
X38437Y30620D01*
X38395D02*
X38437Y30662D01*
X38520Y30828D02*
X38562Y30870D01*
X38645D01*
X38687Y30828D01*
Y30787D01*
X38645Y30745D01*
X38687Y30703D01*
Y30662D01*
X38645Y30620D01*
X38562D01*
X38520Y30662D01*
Y30703D01*
X38562Y30745D01*
X38520Y30787D01*
Y30828D01*
X38562Y30745D02*
X38645D01*
X36350Y26640D02*
Y26390D01*
X36517D01*
X36767Y26640D02*
X36600D01*
Y26390D01*
X36767D01*
X36600Y26515D02*
X36683D01*
X36850Y26640D02*
Y26390D01*
X36975D01*
X37016Y26432D01*
Y26598D01*
X36975Y26640D01*
X36850D01*
X37100Y26598D02*
X37141Y26640D01*
X37225D01*
X37266Y26598D01*
Y26557D01*
X37225Y26515D01*
X37266Y26473D01*
Y26432D01*
X37225Y26390D01*
X37141D01*
X37100Y26432D01*
Y26473D01*
X37141Y26515D01*
X37100Y26557D01*
Y26598D01*
X37141Y26515D02*
X37225D01*
X35330Y26810D02*
Y27060D01*
X35455D01*
X35497Y27018D01*
Y26935D01*
X35455Y26893D01*
X35330D01*
X35413D02*
X35497Y26810D01*
X35747Y27060D02*
X35663Y27018D01*
X35580Y26935D01*
Y26852D01*
X35622Y26810D01*
X35705D01*
X35747Y26852D01*
Y26893D01*
X35705Y26935D01*
X35580D01*
X35830Y26852D02*
X35871Y26810D01*
X35955D01*
X35996Y26852D01*
Y27018D01*
X35955Y27060D01*
X35871D01*
X35830Y27018D01*
Y26977D01*
X35871Y26935D01*
X35996D01*
X35256Y30443D02*
Y30693D01*
X35381D01*
X35423Y30651D01*
Y30568D01*
X35381Y30526D01*
X35256D01*
X35339D02*
X35423Y30443D01*
X35506Y30485D02*
X35547Y30443D01*
X35631D01*
X35672Y30485D01*
Y30651D01*
X35631Y30693D01*
X35547D01*
X35506Y30651D01*
Y30610D01*
X35547Y30568D01*
X35672D01*
X34291Y29537D02*
Y29787D01*
X34416D01*
X34458Y29746D01*
Y29662D01*
X34416Y29621D01*
X34291D01*
X34375D02*
X34458Y29537D01*
X34541D02*
X34625D01*
X34583D01*
Y29787D01*
X34541Y29746D01*
X34916Y29787D02*
X34833Y29746D01*
X34750Y29662D01*
Y29579D01*
X34791Y29537D01*
X34874D01*
X34916Y29579D01*
Y29621D01*
X34874Y29662D01*
X34750D01*
X34530Y18620D02*
X34780D01*
Y18745D01*
X34738Y18787D01*
X34572D01*
X34530Y18745D01*
Y18620D01*
Y19037D02*
X34572Y18953D01*
X34655Y18870D01*
X34738D01*
X34780Y18912D01*
Y18995D01*
X34738Y19037D01*
X34697D01*
X34655Y18995D01*
Y18870D01*
X44440Y30890D02*
Y30640D01*
X44565D01*
X44607Y30682D01*
Y30848D01*
X44565Y30890D01*
X44440D01*
X44690Y30640D02*
X44773D01*
X44732D01*
Y30890D01*
X44690Y30848D01*
X44898D02*
X44940Y30890D01*
X45023D01*
X45065Y30848D01*
Y30682D01*
X45023Y30640D01*
X44940D01*
X44898Y30682D01*
Y30848D01*
X18799Y24463D02*
Y24254D01*
X18841Y24213D01*
X18924D01*
X18966Y24254D01*
Y24463D01*
X19049Y24213D02*
X19132D01*
X19091D01*
Y24463D01*
X19049Y24421D01*
X19257D02*
X19299Y24463D01*
X19382D01*
X19424Y24421D01*
Y24254D01*
X19382Y24213D01*
X19299D01*
X19257Y24254D01*
Y24421D01*
X14380Y28840D02*
Y29090D01*
X14505D01*
X14547Y29048D01*
Y28965D01*
X14505Y28923D01*
X14380D01*
X14463D02*
X14547Y28840D01*
X14630Y29090D02*
X14797D01*
Y29048D01*
X14630Y28882D01*
Y28840D01*
X15046D02*
X14880D01*
X15046Y29007D01*
Y29048D01*
X15005Y29090D01*
X14921D01*
X14880Y29048D01*
X17808Y21911D02*
X17767Y21870D01*
Y21786D01*
X17808Y21745D01*
X17975D01*
X18017Y21786D01*
Y21870D01*
X17975Y21911D01*
X17767Y22161D02*
X17808Y22078D01*
X17892Y21994D01*
X17975D01*
X18017Y22036D01*
Y22119D01*
X17975Y22161D01*
X17933D01*
X17892Y22119D01*
Y21994D01*
X17767Y22244D02*
Y22411D01*
X17808D01*
X17975Y22244D01*
X18017D01*
X21402Y22877D02*
X21360Y22835D01*
Y22752D01*
X21402Y22710D01*
X21568D01*
X21610Y22752D01*
Y22835D01*
X21568Y22877D01*
X21360Y23127D02*
X21402Y23043D01*
X21485Y22960D01*
X21568D01*
X21610Y23002D01*
Y23085D01*
X21568Y23127D01*
X21527D01*
X21485Y23085D01*
Y22960D01*
X21402Y23210D02*
X21360Y23251D01*
Y23335D01*
X21402Y23376D01*
X21443D01*
X21485Y23335D01*
X21527Y23376D01*
X21568D01*
X21610Y23335D01*
Y23251D01*
X21568Y23210D01*
X21527D01*
X21485Y23251D01*
X21443Y23210D01*
X21402D01*
X21485Y23251D02*
Y23335D01*
X20482Y24342D02*
X20440Y24384D01*
X20357D01*
X20315Y24342D01*
Y24176D01*
X20357Y24134D01*
X20440D01*
X20482Y24176D01*
X20731Y24384D02*
X20648Y24342D01*
X20565Y24259D01*
Y24176D01*
X20607Y24134D01*
X20690D01*
X20731Y24176D01*
Y24217D01*
X20690Y24259D01*
X20565D01*
X20815Y24176D02*
X20856Y24134D01*
X20940D01*
X20981Y24176D01*
Y24342D01*
X20940Y24384D01*
X20856D01*
X20815Y24342D01*
Y24300D01*
X20856Y24259D01*
X20981D01*
X17784Y23749D02*
X17742Y23708D01*
Y23624D01*
X17784Y23583D01*
X17950D01*
X17992Y23624D01*
Y23708D01*
X17950Y23749D01*
X17742Y23833D02*
Y23999D01*
X17784D01*
X17950Y23833D01*
X17992D01*
X17784Y24083D02*
X17742Y24124D01*
Y24207D01*
X17784Y24249D01*
X17950D01*
X17992Y24207D01*
Y24124D01*
X17950Y24083D01*
X17784D01*
X22110Y22240D02*
Y22490D01*
X22235D01*
X22277Y22448D01*
Y22365D01*
X22235Y22323D01*
X22110D01*
X22193D02*
X22277Y22240D01*
X22360Y22448D02*
X22402Y22490D01*
X22485D01*
X22527Y22448D01*
Y22407D01*
X22485Y22365D01*
X22443D01*
X22485D01*
X22527Y22323D01*
Y22282D01*
X22485Y22240D01*
X22402D01*
X22360Y22282D01*
X22735Y22240D02*
Y22490D01*
X22610Y22365D01*
X22776D01*
X30852Y28307D02*
X31102D01*
Y28432D01*
X31061Y28474D01*
X30894D01*
X30852Y28432D01*
Y28307D01*
X31102Y28557D02*
Y28640D01*
Y28599D01*
X30852D01*
X30894Y28557D01*
X31102Y28932D02*
Y28765D01*
X30936Y28932D01*
X30894D01*
X30852Y28890D01*
Y28807D01*
X30894Y28765D01*
X33110Y26667D02*
Y26417D01*
X33235D01*
X33277Y26459D01*
Y26626D01*
X33235Y26667D01*
X33110D01*
X33360Y26417D02*
X33443D01*
X33402D01*
Y26667D01*
X33360Y26626D01*
X33568D02*
X33610Y26667D01*
X33693D01*
X33735Y26626D01*
Y26584D01*
X33693Y26542D01*
X33652D01*
X33693D01*
X33735Y26501D01*
Y26459D01*
X33693Y26417D01*
X33610D01*
X33568Y26459D01*
X32283Y29370D02*
Y29620D01*
X32408D01*
X32450Y29578D01*
Y29495D01*
X32408Y29453D01*
X32283D01*
X32367D02*
X32450Y29370D01*
X32533Y29620D02*
X32700D01*
Y29578D01*
X32533Y29412D01*
Y29370D01*
X32783Y29578D02*
X32825Y29620D01*
X32908D01*
X32950Y29578D01*
Y29537D01*
X32908Y29495D01*
X32867D01*
X32908D01*
X32950Y29453D01*
Y29412D01*
X32908Y29370D01*
X32825D01*
X32783Y29412D01*
X33150Y27809D02*
Y27559D01*
X33275D01*
X33316Y27601D01*
Y27767D01*
X33275Y27809D01*
X33150D01*
X33400Y27559D02*
X33483D01*
X33441D01*
Y27809D01*
X33400Y27767D01*
X33608Y27559D02*
X33691D01*
X33649D01*
Y27809D01*
X33608Y27767D01*
X32756Y26417D02*
X32506D01*
Y26542D01*
X32548Y26584D01*
X32631D01*
X32673Y26542D01*
Y26417D01*
Y26501D02*
X32756Y26584D01*
X32548Y26667D02*
X32506Y26709D01*
Y26792D01*
X32548Y26834D01*
X32589D01*
X32631Y26792D01*
Y26751D01*
Y26792D01*
X32673Y26834D01*
X32714D01*
X32756Y26792D01*
Y26709D01*
X32714Y26667D01*
X32756Y27084D02*
Y26917D01*
X32589Y27084D01*
X32548D01*
X32506Y27042D01*
Y26959D01*
X32548Y26917D01*
X33346Y25840D02*
Y25591D01*
X33471D01*
X33513Y25632D01*
Y25799D01*
X33471Y25840D01*
X33346D01*
X33596Y25591D02*
X33680D01*
X33638D01*
Y25840D01*
X33596Y25799D01*
X33930Y25591D02*
Y25840D01*
X33805Y25716D01*
X33971D01*
X32476Y25128D02*
X32726D01*
Y25253D01*
X32685Y25295D01*
X32518D01*
X32476Y25253D01*
Y25128D01*
X32726Y25378D02*
Y25461D01*
Y25420D01*
X32476D01*
X32518Y25378D01*
X32476Y25753D02*
Y25586D01*
X32601D01*
X32560Y25669D01*
Y25711D01*
X32601Y25753D01*
X32685D01*
X32726Y25711D01*
Y25628D01*
X32685Y25586D01*
X32697Y24085D02*
X32447D01*
Y24210D01*
X32489Y24251D01*
X32572D01*
X32614Y24210D01*
Y24085D01*
Y24168D02*
X32697Y24251D01*
X32489Y24335D02*
X32447Y24376D01*
Y24460D01*
X32489Y24501D01*
X32530D01*
X32572Y24460D01*
Y24418D01*
Y24460D01*
X32614Y24501D01*
X32655D01*
X32697Y24460D01*
Y24376D01*
X32655Y24335D01*
X32447Y24584D02*
Y24751D01*
X32489D01*
X32655Y24584D01*
X32697D01*
X29610Y28900D02*
X29860D01*
Y29067D01*
Y29317D02*
Y29150D01*
X29693Y29317D01*
X29652D01*
X29610Y29275D01*
Y29192D01*
X29652Y29150D01*
X37060Y12250D02*
X37310D01*
Y12375D01*
X37268Y12417D01*
X37102D01*
X37060Y12375D01*
Y12250D01*
X37310Y12667D02*
Y12500D01*
X37143Y12667D01*
X37102D01*
X37060Y12625D01*
Y12542D01*
X37102Y12500D01*
X37100Y15010D02*
X37350D01*
Y15135D01*
X37308Y15177D01*
X37142D01*
X37100Y15135D01*
Y15010D01*
X37142Y15260D02*
X37100Y15302D01*
Y15385D01*
X37142Y15427D01*
X37183D01*
X37225Y15385D01*
X37267Y15427D01*
X37308D01*
X37350Y15385D01*
Y15302D01*
X37308Y15260D01*
X37267D01*
X37225Y15302D01*
X37183Y15260D01*
X37142D01*
X37225Y15302D02*
Y15385D01*
X14327Y27728D02*
X14285Y27770D01*
X14202D01*
X14160Y27728D01*
Y27562D01*
X14202Y27520D01*
X14285D01*
X14327Y27562D01*
X14577Y27770D02*
X14493Y27728D01*
X14410Y27645D01*
Y27562D01*
X14452Y27520D01*
X14535D01*
X14577Y27562D01*
Y27603D01*
X14535Y27645D01*
X14410D01*
X14660Y27728D02*
X14701Y27770D01*
X14785D01*
X14826Y27728D01*
Y27687D01*
X14785Y27645D01*
X14743D01*
X14785D01*
X14826Y27603D01*
Y27562D01*
X14785Y27520D01*
X14701D01*
X14660Y27562D01*
X20433Y28478D02*
Y28228D01*
X20558D01*
X20600Y28270D01*
Y28437D01*
X20558Y28478D01*
X20433D01*
X20683Y28437D02*
X20725Y28478D01*
X20808D01*
X20850Y28437D01*
Y28395D01*
X20808Y28353D01*
X20766D01*
X20808D01*
X20850Y28312D01*
Y28270D01*
X20808Y28228D01*
X20725D01*
X20683Y28270D01*
X14750Y30748D02*
X15000D01*
Y30873D01*
X14958Y30915D01*
X14792D01*
X14750Y30873D01*
Y30748D01*
X15000Y31123D02*
X14750D01*
X14875Y30998D01*
Y31165D01*
X18820Y10150D02*
X18987Y9900D01*
Y10150D02*
X18820Y9900D01*
X19070Y10108D02*
X19112Y10150D01*
X19195D01*
X19237Y10108D01*
Y10067D01*
X19195Y10025D01*
X19153D01*
X19195D01*
X19237Y9983D01*
Y9942D01*
X19195Y9900D01*
X19112D01*
X19070Y9942D01*
X26652Y20359D02*
Y20609D01*
X26777D01*
X26819Y20567D01*
Y20484D01*
X26777Y20442D01*
X26652D01*
X26735D02*
X26819Y20359D01*
X26902D02*
Y20609D01*
X27069Y20359D01*
Y20609D01*
X27152Y20359D02*
X27235D01*
X27194D01*
Y20609D01*
X27152Y20567D01*
X28607Y19608D02*
X28565Y19650D01*
X28482D01*
X28440Y19608D01*
Y19442D01*
X28482Y19400D01*
X28565D01*
X28607Y19442D01*
X28690Y19400D02*
X28773D01*
X28732D01*
Y19650D01*
X28690Y19608D01*
X28898Y19442D02*
X28940Y19400D01*
X29023D01*
X29065Y19442D01*
Y19608D01*
X29023Y19650D01*
X28940D01*
X28898Y19608D01*
Y19567D01*
X28940Y19525D01*
X29065D01*
X29137Y17658D02*
X29095Y17700D01*
X29012D01*
X28970Y17658D01*
Y17492D01*
X29012Y17450D01*
X29095D01*
X29137Y17492D01*
X29387Y17450D02*
X29220D01*
X29387Y17617D01*
Y17658D01*
X29345Y17700D01*
X29262D01*
X29220Y17658D01*
X29470D02*
X29511Y17700D01*
X29595D01*
X29636Y17658D01*
Y17492D01*
X29595Y17450D01*
X29511D01*
X29470Y17492D01*
Y17658D01*
X27676Y18430D02*
Y18680D01*
X27801D01*
X27842Y18638D01*
Y18555D01*
X27801Y18513D01*
X27676D01*
X27759D02*
X27842Y18430D01*
X27926D02*
Y18680D01*
X28092Y18430D01*
Y18680D01*
X28342Y18430D02*
X28176D01*
X28342Y18596D01*
Y18638D01*
X28301Y18680D01*
X28217D01*
X28176Y18638D01*
X25560Y16810D02*
Y17060D01*
X25685D01*
X25727Y17018D01*
Y16935D01*
X25685Y16893D01*
X25560D01*
X25643D02*
X25727Y16810D01*
X25810D02*
Y17060D01*
X25977Y16810D01*
Y17060D01*
X26060Y17018D02*
X26101Y17060D01*
X26185D01*
X26226Y17018D01*
Y16977D01*
X26185Y16935D01*
X26143D01*
X26185D01*
X26226Y16893D01*
Y16852D01*
X26185Y16810D01*
X26101D01*
X26060Y16852D01*
X27867Y19608D02*
X27825Y19650D01*
X27742D01*
X27700Y19608D01*
Y19442D01*
X27742Y19400D01*
X27825D01*
X27867Y19442D01*
X28117Y19400D02*
X27950D01*
X28117Y19567D01*
Y19608D01*
X28075Y19650D01*
X27992D01*
X27950Y19608D01*
X28200Y19400D02*
X28283D01*
X28241D01*
Y19650D01*
X28200Y19608D01*
X28347Y17658D02*
X28305Y17700D01*
X28222D01*
X28180Y17658D01*
Y17492D01*
X28222Y17450D01*
X28305D01*
X28347Y17492D01*
X28597Y17450D02*
X28430D01*
X28597Y17617D01*
Y17658D01*
X28555Y17700D01*
X28472D01*
X28430Y17658D01*
X28846Y17450D02*
X28680D01*
X28846Y17617D01*
Y17658D01*
X28805Y17700D01*
X28721D01*
X28680Y17658D01*
X25407Y19448D02*
X25365Y19490D01*
X25282D01*
X25240Y19448D01*
Y19282D01*
X25282Y19240D01*
X25365D01*
X25407Y19282D01*
X25615Y19240D02*
Y19490D01*
X25490Y19365D01*
X25657D01*
X25740Y19490D02*
X25906D01*
Y19448D01*
X25740Y19282D01*
Y19240D01*
X25297Y17568D02*
X25255Y17610D01*
X25172D01*
X25130Y17568D01*
Y17402D01*
X25172Y17360D01*
X25255D01*
X25297Y17402D01*
X25505Y17360D02*
Y17610D01*
X25380Y17485D01*
X25547D01*
X25630Y17568D02*
X25671Y17610D01*
X25755D01*
X25796Y17568D01*
Y17527D01*
X25755Y17485D01*
X25796Y17443D01*
Y17402D01*
X25755Y17360D01*
X25671D01*
X25630Y17402D01*
Y17443D01*
X25671Y17485D01*
X25630Y17527D01*
Y17568D01*
X25671Y17485D02*
X25755D01*
X29831Y24852D02*
X29789Y24810D01*
Y24727D01*
X29831Y24685D01*
X29998D01*
X30039Y24727D01*
Y24810D01*
X29998Y24852D01*
X30039Y25060D02*
X29789D01*
X29914Y24935D01*
Y25102D01*
X33110Y24699D02*
Y24449D01*
X33235D01*
X33277Y24490D01*
Y24657D01*
X33235Y24699D01*
X33110D01*
X33360Y24449D02*
X33443D01*
X33402D01*
Y24699D01*
X33360Y24657D01*
X29868Y23976D02*
X30118D01*
Y24101D01*
X30076Y24143D01*
X29910D01*
X29868Y24101D01*
Y23976D01*
Y24393D02*
Y24226D01*
X29993D01*
X29952Y24310D01*
Y24351D01*
X29993Y24393D01*
X30076D01*
X30118Y24351D01*
Y24268D01*
X30076Y24226D01*
X32766Y21949D02*
X32516D01*
Y22074D01*
X32557Y22115D01*
X32641D01*
X32682Y22074D01*
Y21949D01*
Y22032D02*
X32766Y22115D01*
X32516Y22365D02*
Y22199D01*
X32641D01*
X32599Y22282D01*
Y22324D01*
X32641Y22365D01*
X32724D01*
X32766Y22324D01*
Y22240D01*
X32724Y22199D01*
X32805Y20876D02*
X32555D01*
Y21001D01*
X32597Y21043D01*
X32680D01*
X32722Y21001D01*
Y20876D01*
Y20959D02*
X32805Y21043D01*
X32555Y21293D02*
X32597Y21209D01*
X32680Y21126D01*
X32763D01*
X32805Y21168D01*
Y21251D01*
X32763Y21293D01*
X32722D01*
X32680Y21251D01*
Y21126D01*
X21049Y33858D02*
X21299Y34025D01*
X21049D02*
X21299Y33858D01*
X21049Y34275D02*
Y34108D01*
X21174D01*
X21133Y34191D01*
Y34233D01*
X21174Y34275D01*
X21258D01*
X21299Y34233D01*
Y34150D01*
X21258Y34108D01*
X25183Y33858D02*
X25433Y34025D01*
X25183D02*
X25433Y33858D01*
X25183Y34108D02*
Y34275D01*
X25225D01*
X25391Y34108D01*
X25433D01*
X16915Y33701D02*
X17165Y33867D01*
X16915D02*
X17165Y33701D01*
Y33951D02*
Y34034D01*
Y33992D01*
X16915D01*
X16957Y33951D01*
X17165Y34159D02*
Y34242D01*
Y34201D01*
X16915D01*
X16957Y34159D01*
X34258Y22047D02*
X34508Y22214D01*
X34258D02*
X34508Y22047D01*
Y22297D02*
Y22380D01*
Y22339D01*
X34258D01*
X34300Y22297D01*
X34508Y22672D02*
Y22505D01*
X34341Y22672D01*
X34300D01*
X34258Y22630D01*
Y22547D01*
X34300Y22505D01*
X35030Y24970D02*
Y24720D01*
X35197D01*
X35447Y24970D02*
X35280D01*
Y24720D01*
X35447D01*
X35280Y24845D02*
X35363D01*
X35530Y24970D02*
Y24720D01*
X35655D01*
X35696Y24762D01*
Y24928D01*
X35655Y24970D01*
X35530D01*
X35780Y24928D02*
X35821Y24970D01*
X35905D01*
X35946Y24928D01*
Y24887D01*
X35905Y24845D01*
X35863D01*
X35905D01*
X35946Y24803D01*
Y24762D01*
X35905Y24720D01*
X35821D01*
X35780Y24762D01*
X34810Y24330D02*
Y24580D01*
X34935D01*
X34977Y24538D01*
Y24455D01*
X34935Y24413D01*
X34810D01*
X34893D02*
X34977Y24330D01*
X35060Y24580D02*
X35227D01*
Y24538D01*
X35060Y24372D01*
Y24330D01*
X35310Y24538D02*
X35351Y24580D01*
X35435D01*
X35476Y24538D01*
Y24372D01*
X35435Y24330D01*
X35351D01*
X35310Y24372D01*
Y24538D01*
X35551Y29537D02*
X35301D01*
Y29662D01*
X35343Y29704D01*
X35426D01*
X35468Y29662D01*
Y29537D01*
Y29621D02*
X35551Y29704D01*
X35301Y29787D02*
Y29954D01*
X35343D01*
X35510Y29787D01*
X35551D01*
Y30037D02*
Y30121D01*
Y30079D01*
X35301D01*
X35343Y30037D01*
X36330Y26770D02*
Y27020D01*
X36455D01*
X36497Y26978D01*
Y26895D01*
X36455Y26853D01*
X36330D01*
X36413D02*
X36497Y26770D01*
X36747D02*
X36580D01*
X36747Y26937D01*
Y26978D01*
X36705Y27020D01*
X36622D01*
X36580Y26978D01*
X36830Y26770D02*
X36913D01*
X36871D01*
Y27020D01*
X36830Y26978D01*
X39112Y12607D02*
X39070Y12565D01*
Y12482D01*
X39112Y12440D01*
X39278D01*
X39320Y12482D01*
Y12565D01*
X39278Y12607D01*
X39112Y12690D02*
X39070Y12732D01*
Y12815D01*
X39112Y12857D01*
X39153D01*
X39195Y12815D01*
Y12773D01*
Y12815D01*
X39237Y12857D01*
X39278D01*
X39320Y12815D01*
Y12732D01*
X39278Y12690D01*
X41917Y18220D02*
X41750D01*
Y18095D01*
X41833D01*
X41750D01*
Y17970D01*
X42000Y18220D02*
Y17970D01*
X42125D01*
X42167Y18012D01*
Y18053D01*
X42125Y18095D01*
X42000D01*
X42125D01*
X42167Y18137D01*
Y18178D01*
X42125Y18220D01*
X42000D01*
X42416Y17970D02*
X42250D01*
X42416Y18137D01*
Y18178D01*
X42375Y18220D01*
X42291D01*
X42250Y18178D01*
X46920Y11777D02*
Y11610D01*
X47045D01*
Y11693D01*
Y11610D01*
X47170D01*
X46920Y11860D02*
X47170D01*
Y11985D01*
X47128Y12027D01*
X47087D01*
X47045Y11985D01*
Y11860D01*
Y11985D01*
X47003Y12027D01*
X46962D01*
X46920Y11985D01*
Y11860D01*
X47170Y12110D02*
Y12193D01*
Y12151D01*
X46920D01*
X46962Y12110D01*
X37558Y30966D02*
X37517Y31008D01*
X37433D01*
X37392Y30966D01*
Y30800D01*
X37433Y30758D01*
X37517D01*
X37558Y30800D01*
X37808Y30758D02*
X37642D01*
X37808Y30924D01*
Y30966D01*
X37767Y31008D01*
X37683D01*
X37642Y30966D01*
X38058Y31008D02*
X37892D01*
Y30883D01*
X37975Y30924D01*
X38017D01*
X38058Y30883D01*
Y30800D01*
X38017Y30758D01*
X37933D01*
X37892Y30800D01*
X41292Y32217D02*
X41250Y32175D01*
Y32092D01*
X41292Y32050D01*
X41458D01*
X41500Y32092D01*
Y32175D01*
X41458Y32217D01*
X41292Y32300D02*
X41250Y32342D01*
Y32425D01*
X41292Y32467D01*
X41333D01*
X41375Y32425D01*
Y32383D01*
Y32425D01*
X41417Y32467D01*
X41458D01*
X41500Y32425D01*
Y32342D01*
X41458Y32300D01*
X41292Y32550D02*
X41250Y32591D01*
Y32675D01*
X41292Y32716D01*
X41458D01*
X41500Y32675D01*
Y32591D01*
X41458Y32550D01*
X41292D01*
X44713Y32214D02*
X44671Y32172D01*
Y32089D01*
X44713Y32047D01*
X44880D01*
X44921Y32089D01*
Y32172D01*
X44880Y32214D01*
X44713Y32297D02*
X44671Y32339D01*
Y32422D01*
X44713Y32464D01*
X44755D01*
X44796Y32422D01*
Y32380D01*
Y32422D01*
X44838Y32464D01*
X44880D01*
X44921Y32422D01*
Y32339D01*
X44880Y32297D01*
X44671Y32714D02*
Y32547D01*
X44796D01*
X44755Y32630D01*
Y32672D01*
X44796Y32714D01*
X44880D01*
X44921Y32672D01*
Y32589D01*
X44880Y32547D01*
X40392Y33267D02*
X40350Y33225D01*
Y33142D01*
X40392Y33100D01*
X40558D01*
X40600Y33142D01*
Y33225D01*
X40558Y33267D01*
X40600Y33475D02*
X40350D01*
X40475Y33350D01*
Y33517D01*
X40392Y33600D02*
X40350Y33641D01*
Y33725D01*
X40392Y33766D01*
X40558D01*
X40600Y33725D01*
Y33641D01*
X40558Y33600D01*
X40392D01*
X40417Y32108D02*
X40375Y32150D01*
X40292D01*
X40250Y32108D01*
Y31942D01*
X40292Y31900D01*
X40375D01*
X40417Y31942D01*
X40625Y31900D02*
Y32150D01*
X40500Y32025D01*
X40667D01*
X40916Y32150D02*
X40750D01*
Y32025D01*
X40833Y32067D01*
X40875D01*
X40916Y32025D01*
Y31942D01*
X40875Y31900D01*
X40791D01*
X40750Y31942D01*
X44697Y34808D02*
X44655Y34850D01*
X44572D01*
X44530Y34808D01*
Y34642D01*
X44572Y34600D01*
X44655D01*
X44697Y34642D01*
X44905Y34600D02*
Y34850D01*
X44780Y34725D01*
X44947D01*
X45030Y34642D02*
X45071Y34600D01*
X45155D01*
X45196Y34642D01*
Y34808D01*
X45155Y34850D01*
X45071D01*
X45030Y34808D01*
Y34767D01*
X45071Y34725D01*
X45196D01*
X39650Y34800D02*
Y34550D01*
X39775D01*
X39817Y34592D01*
Y34758D01*
X39775Y34800D01*
X39650D01*
X39900Y34592D02*
X39942Y34550D01*
X40025D01*
X40067Y34592D01*
Y34758D01*
X40025Y34800D01*
X39942D01*
X39900Y34758D01*
Y34717D01*
X39942Y34675D01*
X40067D01*
X39700Y34308D02*
Y34058D01*
X39867D01*
X39950D02*
X40033D01*
X39992D01*
Y34308D01*
X39950Y34266D01*
X44920Y33220D02*
X44670D01*
Y33345D01*
X44712Y33387D01*
X44795D01*
X44837Y33345D01*
Y33220D01*
Y33303D02*
X44920Y33387D01*
X44712Y33470D02*
X44670Y33512D01*
Y33595D01*
X44712Y33637D01*
X44753D01*
X44795Y33595D01*
Y33553D01*
Y33595D01*
X44837Y33637D01*
X44878D01*
X44920Y33595D01*
Y33512D01*
X44878Y33470D01*
X44630Y34130D02*
Y34380D01*
X44755D01*
X44797Y34338D01*
Y34255D01*
X44755Y34213D01*
X44630D01*
X44713D02*
X44797Y34130D01*
X44880D02*
X44963D01*
X44922D01*
Y34380D01*
X44880Y34338D01*
X45088Y34130D02*
X45171D01*
X45130D01*
Y34380D01*
X45088Y34338D01*
X43970Y35560D02*
X43720D01*
Y35685D01*
X43762Y35727D01*
X43845D01*
X43887Y35685D01*
Y35560D01*
Y35643D02*
X43970Y35727D01*
Y35977D02*
Y35810D01*
X43803Y35977D01*
X43762D01*
X43720Y35935D01*
Y35852D01*
X43762Y35810D01*
Y36060D02*
X43720Y36101D01*
Y36185D01*
X43762Y36226D01*
X43803D01*
X43845Y36185D01*
Y36143D01*
Y36185D01*
X43887Y36226D01*
X43928D01*
X43970Y36185D01*
Y36101D01*
X43928Y36060D01*
X44820Y35880D02*
X44570D01*
Y36005D01*
X44612Y36047D01*
X44695D01*
X44737Y36005D01*
Y35880D01*
Y35963D02*
X44820Y36047D01*
Y36297D02*
Y36130D01*
X44653Y36297D01*
X44612D01*
X44570Y36255D01*
Y36172D01*
X44612Y36130D01*
X44820Y36505D02*
X44570D01*
X44695Y36380D01*
Y36546D01*
X41650Y34830D02*
Y34622D01*
X41692Y34580D01*
X41775D01*
X41817Y34622D01*
Y34830D01*
X41900Y34788D02*
X41942Y34830D01*
X42025D01*
X42067Y34788D01*
Y34747D01*
X42025Y34705D01*
X41983D01*
X42025D01*
X42067Y34663D01*
Y34622D01*
X42025Y34580D01*
X41942D01*
X41900Y34622D01*
X36380Y34420D02*
X36130D01*
Y34545D01*
X36172Y34587D01*
X36255D01*
X36297Y34545D01*
Y34420D01*
X36172Y34670D02*
X36130Y34712D01*
Y34795D01*
X36172Y34837D01*
X36213D01*
X36255Y34795D01*
Y34753D01*
Y34795D01*
X36297Y34837D01*
X36338D01*
X36380Y34795D01*
Y34712D01*
X36338Y34670D01*
X47372Y12827D02*
X47330Y12785D01*
Y12702D01*
X47372Y12660D01*
X47538D01*
X47580Y12702D01*
Y12785D01*
X47538Y12827D01*
X47372Y12910D02*
X47330Y12952D01*
Y13035D01*
X47372Y13077D01*
X47413D01*
X47455Y13035D01*
X47497Y13077D01*
X47538D01*
X47580Y13035D01*
Y12952D01*
X47538Y12910D01*
X47497D01*
X47455Y12952D01*
X47413Y12910D01*
X47372D01*
X47455Y12952D02*
Y13035D01*
X47580Y13285D02*
X47330D01*
X47455Y13160D01*
Y13326D01*
X46527Y10538D02*
X46485Y10580D01*
X46402D01*
X46360Y10538D01*
Y10372D01*
X46402Y10330D01*
X46485D01*
X46527Y10372D01*
X46610Y10538D02*
X46652Y10580D01*
X46735D01*
X46777Y10538D01*
Y10497D01*
X46735Y10455D01*
X46777Y10413D01*
Y10372D01*
X46735Y10330D01*
X46652D01*
X46610Y10372D01*
Y10413D01*
X46652Y10455D01*
X46610Y10497D01*
Y10538D01*
X46652Y10455D02*
X46735D01*
X47026Y10580D02*
X46860D01*
Y10455D01*
X46943Y10497D01*
X46985D01*
X47026Y10455D01*
Y10372D01*
X46985Y10330D01*
X46901D01*
X46860Y10372D01*
X45012Y19087D02*
X44970Y19045D01*
Y18962D01*
X45012Y18920D01*
X45178D01*
X45220Y18962D01*
Y19045D01*
X45178Y19087D01*
X45012Y19170D02*
X44970Y19212D01*
Y19295D01*
X45012Y19337D01*
X45053D01*
X45095Y19295D01*
X45137Y19337D01*
X45178D01*
X45220Y19295D01*
Y19212D01*
X45178Y19170D01*
X45137D01*
X45095Y19212D01*
X45053Y19170D01*
X45012D01*
X45095Y19212D02*
Y19295D01*
X44970Y19586D02*
X45012Y19503D01*
X45095Y19420D01*
X45178D01*
X45220Y19461D01*
Y19545D01*
X45178Y19586D01*
X45137D01*
X45095Y19545D01*
Y19420D01*
X42647Y19668D02*
X42605Y19710D01*
X42522D01*
X42480Y19668D01*
Y19502D01*
X42522Y19460D01*
X42605D01*
X42647Y19502D01*
X42730Y19668D02*
X42772Y19710D01*
X42855D01*
X42897Y19668D01*
Y19627D01*
X42855Y19585D01*
X42897Y19543D01*
Y19502D01*
X42855Y19460D01*
X42772D01*
X42730Y19502D01*
Y19543D01*
X42772Y19585D01*
X42730Y19627D01*
Y19668D01*
X42772Y19585D02*
X42855D01*
X42980Y19710D02*
X43146D01*
Y19668D01*
X42980Y19502D01*
Y19460D01*
X43317Y19988D02*
X43275Y20030D01*
X43192D01*
X43150Y19988D01*
Y19822D01*
X43192Y19780D01*
X43275D01*
X43317Y19822D01*
X43400Y19988D02*
X43442Y20030D01*
X43525D01*
X43567Y19988D01*
Y19947D01*
X43525Y19905D01*
X43567Y19863D01*
Y19822D01*
X43525Y19780D01*
X43442D01*
X43400Y19822D01*
Y19863D01*
X43442Y19905D01*
X43400Y19947D01*
Y19988D01*
X43442Y19905D02*
X43525D01*
X43650Y19988D02*
X43691Y20030D01*
X43775D01*
X43816Y19988D01*
Y19947D01*
X43775Y19905D01*
X43816Y19863D01*
Y19822D01*
X43775Y19780D01*
X43691D01*
X43650Y19822D01*
Y19863D01*
X43691Y19905D01*
X43650Y19947D01*
Y19988D01*
X43691Y19905D02*
X43775D01*
X39577Y21408D02*
X39535Y21450D01*
X39452D01*
X39410Y21408D01*
Y21242D01*
X39452Y21200D01*
X39535D01*
X39577Y21242D01*
X39660Y21408D02*
X39702Y21450D01*
X39785D01*
X39827Y21408D01*
Y21367D01*
X39785Y21325D01*
X39827Y21283D01*
Y21242D01*
X39785Y21200D01*
X39702D01*
X39660Y21242D01*
Y21283D01*
X39702Y21325D01*
X39660Y21367D01*
Y21408D01*
X39702Y21325D02*
X39785D01*
X39910Y21242D02*
X39951Y21200D01*
X40035D01*
X40076Y21242D01*
Y21408D01*
X40035Y21450D01*
X39951D01*
X39910Y21408D01*
Y21367D01*
X39951Y21325D01*
X40076D01*
X45637Y34450D02*
X45553D01*
X45595D01*
Y34242D01*
X45553Y34200D01*
X45512D01*
X45470Y34242D01*
X45720Y34200D02*
X45803D01*
X45762D01*
Y34450D01*
X45720Y34408D01*
X34790Y20810D02*
X34957Y20560D01*
Y20810D02*
X34790Y20560D01*
X35040D02*
X35123D01*
X35082D01*
Y20810D01*
X35040Y20768D01*
X35248D02*
X35290Y20810D01*
X35373D01*
X35415Y20768D01*
Y20727D01*
X35373Y20685D01*
X35331D01*
X35373D01*
X35415Y20643D01*
Y20602D01*
X35373Y20560D01*
X35290D01*
X35248Y20602D01*
X39057Y20508D02*
X39015Y20550D01*
X38932D01*
X38890Y20508D01*
Y20342D01*
X38932Y20300D01*
X39015D01*
X39057Y20342D01*
X39307Y20300D02*
X39140D01*
X39307Y20467D01*
Y20508D01*
X39265Y20550D01*
X39182D01*
X39140Y20508D01*
X39390Y20550D02*
X39556D01*
Y20508D01*
X39390Y20342D01*
Y20300D01*
X34027Y14598D02*
X33985Y14640D01*
X33902D01*
X33860Y14598D01*
Y14432D01*
X33902Y14390D01*
X33985D01*
X34027Y14432D01*
X34110Y14390D02*
X34193D01*
X34152D01*
Y14640D01*
X34110Y14598D01*
X34318D02*
X34360Y14640D01*
X34443D01*
X34485Y14598D01*
Y14432D01*
X34443Y14390D01*
X34360D01*
X34318Y14432D01*
Y14598D01*
X34568D02*
X34610Y14640D01*
X34693D01*
X34735Y14598D01*
Y14557D01*
X34693Y14515D01*
X34651D01*
X34693D01*
X34735Y14473D01*
Y14432D01*
X34693Y14390D01*
X34610D01*
X34568Y14432D01*
X19902Y18137D02*
X19860Y18095D01*
Y18012D01*
X19902Y17970D01*
X20068D01*
X20110Y18012D01*
Y18095D01*
X20068Y18137D01*
X20110Y18387D02*
Y18220D01*
X19943Y18387D01*
X19902D01*
X19860Y18345D01*
Y18262D01*
X19902Y18220D01*
Y18470D02*
X19860Y18511D01*
Y18595D01*
X19902Y18636D01*
X19943D01*
X19985Y18595D01*
X20027Y18636D01*
X20068D01*
X20110Y18595D01*
Y18511D01*
X20068Y18470D01*
X20027D01*
X19985Y18511D01*
X19943Y18470D01*
X19902D01*
X19985Y18511D02*
Y18595D01*
X19267Y17368D02*
X19225Y17410D01*
X19142D01*
X19100Y17368D01*
Y17202D01*
X19142Y17160D01*
X19225D01*
X19267Y17202D01*
X19517Y17160D02*
X19350D01*
X19517Y17327D01*
Y17368D01*
X19475Y17410D01*
X19392D01*
X19350Y17368D01*
X19600Y17202D02*
X19641Y17160D01*
X19725D01*
X19766Y17202D01*
Y17368D01*
X19725Y17410D01*
X19641D01*
X19600Y17368D01*
Y17327D01*
X19641Y17285D01*
X19766D01*
X18992Y16487D02*
X18950Y16445D01*
Y16362D01*
X18992Y16320D01*
X19158D01*
X19200Y16362D01*
Y16445D01*
X19158Y16487D01*
X18950Y16737D02*
Y16570D01*
X19075D01*
X19033Y16653D01*
Y16695D01*
X19075Y16737D01*
X19158D01*
X19200Y16695D01*
Y16612D01*
X19158Y16570D01*
X19200Y16820D02*
Y16903D01*
Y16861D01*
X18950D01*
X18992Y16820D01*
X15482Y15807D02*
X15440Y15765D01*
Y15682D01*
X15482Y15640D01*
X15648D01*
X15690Y15682D01*
Y15765D01*
X15648Y15807D01*
X15440Y16057D02*
Y15890D01*
X15565D01*
X15523Y15973D01*
Y16015D01*
X15565Y16057D01*
X15648D01*
X15690Y16015D01*
Y15932D01*
X15648Y15890D01*
X15482Y16140D02*
X15440Y16181D01*
Y16265D01*
X15482Y16306D01*
X15523D01*
X15565Y16265D01*
Y16223D01*
Y16265D01*
X15607Y16306D01*
X15648D01*
X15690Y16265D01*
Y16181D01*
X15648Y16140D01*
X19257Y18128D02*
X19215Y18170D01*
X19132D01*
X19090Y18128D01*
Y17962D01*
X19132Y17920D01*
X19215D01*
X19257Y17962D01*
X19507Y18170D02*
X19340D01*
Y18045D01*
X19423Y18087D01*
X19465D01*
X19507Y18045D01*
Y17962D01*
X19465Y17920D01*
X19382D01*
X19340Y17962D01*
X19715Y17920D02*
Y18170D01*
X19590Y18045D01*
X19756D01*
X18397Y15668D02*
X18355Y15710D01*
X18272D01*
X18230Y15668D01*
Y15502D01*
X18272Y15460D01*
X18355D01*
X18397Y15502D01*
X18647Y15710D02*
X18563Y15668D01*
X18480Y15585D01*
Y15502D01*
X18522Y15460D01*
X18605D01*
X18647Y15502D01*
Y15543D01*
X18605Y15585D01*
X18480D01*
X18730Y15460D02*
X18813D01*
X18771D01*
Y15710D01*
X18730Y15668D01*
X23127Y12908D02*
X23085Y12950D01*
X23002D01*
X22960Y12908D01*
Y12742D01*
X23002Y12700D01*
X23085D01*
X23127Y12742D01*
X23377Y12950D02*
X23293Y12908D01*
X23210Y12825D01*
Y12742D01*
X23252Y12700D01*
X23335D01*
X23377Y12742D01*
Y12783D01*
X23335Y12825D01*
X23210D01*
X23626Y12950D02*
X23460D01*
Y12825D01*
X23543Y12867D01*
X23585D01*
X23626Y12825D01*
Y12742D01*
X23585Y12700D01*
X23501D01*
X23460Y12742D01*
X19277Y13208D02*
X19235Y13250D01*
X19152D01*
X19110Y13208D01*
Y13042D01*
X19152Y13000D01*
X19235D01*
X19277Y13042D01*
X19527Y13250D02*
X19443Y13208D01*
X19360Y13125D01*
Y13042D01*
X19402Y13000D01*
X19485D01*
X19527Y13042D01*
Y13083D01*
X19485Y13125D01*
X19360D01*
X19776Y13250D02*
X19693Y13208D01*
X19610Y13125D01*
Y13042D01*
X19651Y13000D01*
X19735D01*
X19776Y13042D01*
Y13083D01*
X19735Y13125D01*
X19610D01*
X16992Y20147D02*
X16950Y20105D01*
Y20022D01*
X16992Y19980D01*
X17158D01*
X17200Y20022D01*
Y20105D01*
X17158Y20147D01*
X16950Y20230D02*
Y20397D01*
X16992D01*
X17158Y20230D01*
X17200D01*
Y20480D02*
Y20563D01*
Y20521D01*
X16950D01*
X16992Y20480D01*
X18077Y13388D02*
X18035Y13430D01*
X17952D01*
X17910Y13388D01*
Y13222D01*
X17952Y13180D01*
X18035D01*
X18077Y13222D01*
X18160Y13180D02*
X18243D01*
X18202D01*
Y13430D01*
X18160Y13388D01*
X18368D02*
X18410Y13430D01*
X18493D01*
X18535Y13388D01*
Y13222D01*
X18493Y13180D01*
X18410D01*
X18368Y13222D01*
Y13388D01*
X18785Y13430D02*
X18701Y13388D01*
X18618Y13305D01*
Y13222D01*
X18660Y13180D01*
X18743D01*
X18785Y13222D01*
Y13263D01*
X18743Y13305D01*
X18618D01*
X15112Y14877D02*
X15070Y14835D01*
Y14752D01*
X15112Y14710D01*
X15278D01*
X15320Y14752D01*
Y14835D01*
X15278Y14877D01*
X15320Y14960D02*
Y15043D01*
Y15002D01*
X15070D01*
X15112Y14960D01*
Y15168D02*
X15070Y15210D01*
Y15293D01*
X15112Y15335D01*
X15278D01*
X15320Y15293D01*
Y15210D01*
X15278Y15168D01*
X15112D01*
X15070Y15418D02*
Y15585D01*
X15112D01*
X15278Y15418D01*
X15320D01*
X17392Y13227D02*
X17350Y13185D01*
Y13102D01*
X17392Y13060D01*
X17558D01*
X17600Y13102D01*
Y13185D01*
X17558Y13227D01*
X17600Y13310D02*
Y13393D01*
Y13352D01*
X17350D01*
X17392Y13310D01*
Y13518D02*
X17350Y13560D01*
Y13643D01*
X17392Y13685D01*
X17558D01*
X17600Y13643D01*
Y13560D01*
X17558Y13518D01*
X17392D01*
Y13768D02*
X17350Y13810D01*
Y13893D01*
X17392Y13935D01*
X17433D01*
X17475Y13893D01*
X17517Y13935D01*
X17558D01*
X17600Y13893D01*
Y13810D01*
X17558Y13768D01*
X17517D01*
X17475Y13810D01*
X17433Y13768D01*
X17392D01*
X17475Y13810D02*
Y13893D01*
X16997Y21108D02*
X16955Y21150D01*
X16872D01*
X16830Y21108D01*
Y20942D01*
X16872Y20900D01*
X16955D01*
X16997Y20942D01*
X17080Y20900D02*
X17163D01*
X17122D01*
Y21150D01*
X17080Y21108D01*
X17288D02*
X17330Y21150D01*
X17413D01*
X17455Y21108D01*
Y20942D01*
X17413Y20900D01*
X17330D01*
X17288Y20942D01*
Y21108D01*
X17538Y20942D02*
X17580Y20900D01*
X17663D01*
X17705Y20942D01*
Y21108D01*
X17663Y21150D01*
X17580D01*
X17538Y21108D01*
Y21067D01*
X17580Y21025D01*
X17705D01*
X17957Y13968D02*
X17915Y14010D01*
X17832D01*
X17790Y13968D01*
Y13802D01*
X17832Y13760D01*
X17915D01*
X17957Y13802D01*
X18040Y13760D02*
X18123D01*
X18082D01*
Y14010D01*
X18040Y13968D01*
X18248Y13760D02*
X18331D01*
X18290D01*
Y14010D01*
X18248Y13968D01*
X18456D02*
X18498Y14010D01*
X18581D01*
X18623Y13968D01*
Y13802D01*
X18581Y13760D01*
X18498D01*
X18456Y13802D01*
Y13968D01*
X17542Y18837D02*
X17500Y18795D01*
Y18712D01*
X17542Y18670D01*
X17708D01*
X17750Y18712D01*
Y18795D01*
X17708Y18837D01*
X17750Y18920D02*
Y19003D01*
Y18962D01*
X17500D01*
X17542Y18920D01*
X17750Y19128D02*
Y19211D01*
Y19170D01*
X17500D01*
X17542Y19128D01*
X17750Y19336D02*
Y19420D01*
Y19378D01*
X17500D01*
X17542Y19336D01*
X19040Y14970D02*
X18790D01*
Y15095D01*
X18832Y15137D01*
X18915D01*
X18957Y15095D01*
Y14970D01*
Y15053D02*
X19040Y15137D01*
Y15345D02*
X18790D01*
X18915Y15220D01*
Y15387D01*
X16130Y18690D02*
X15880D01*
Y18815D01*
X15922Y18857D01*
X16005D01*
X16047Y18815D01*
Y18690D01*
Y18773D02*
X16130Y18857D01*
X15880Y18940D02*
Y19107D01*
X15922D01*
X16088Y18940D01*
X16130D01*
X14510Y13740D02*
Y13990D01*
X14635D01*
X14677Y13948D01*
Y13865D01*
X14635Y13823D01*
X14510D01*
X14593D02*
X14677Y13740D01*
X14927D02*
X14760D01*
X14927Y13907D01*
Y13948D01*
X14885Y13990D01*
X14802D01*
X14760Y13948D01*
X15176Y13740D02*
X15010D01*
X15176Y13907D01*
Y13948D01*
X15135Y13990D01*
X15051D01*
X15010Y13948D01*
X15220Y17020D02*
Y16812D01*
X15262Y16770D01*
X15345D01*
X15387Y16812D01*
Y17020D01*
X15637D02*
X15470D01*
Y16895D01*
X15553Y16937D01*
X15595D01*
X15637Y16895D01*
Y16812D01*
X15595Y16770D01*
X15512D01*
X15470Y16812D01*
X10020Y18290D02*
Y18040D01*
X10145D01*
X10187Y18082D01*
Y18248D01*
X10145Y18290D01*
X10020D01*
X10270Y18040D02*
X10353D01*
X10312D01*
Y18290D01*
X10270Y18248D01*
X10478Y18290D02*
X10645D01*
Y18248D01*
X10478Y18082D01*
Y18040D01*
X10840Y18300D02*
Y18050D01*
X10965D01*
X11007Y18092D01*
Y18258D01*
X10965Y18300D01*
X10840D01*
X11090Y18050D02*
X11173D01*
X11132D01*
Y18300D01*
X11090Y18258D01*
X11298D02*
X11340Y18300D01*
X11423D01*
X11465Y18258D01*
Y18217D01*
X11423Y18175D01*
X11465Y18133D01*
Y18092D01*
X11423Y18050D01*
X11340D01*
X11298Y18092D01*
Y18133D01*
X11340Y18175D01*
X11298Y18217D01*
Y18258D01*
X11340Y18175D02*
X11423D01*
X11990Y13620D02*
Y13370D01*
X12115D01*
X12157Y13412D01*
Y13578D01*
X12115Y13620D01*
X11990D01*
X12240Y13370D02*
X12323D01*
X12282D01*
Y13620D01*
X12240Y13578D01*
X12448Y13412D02*
X12490Y13370D01*
X12573D01*
X12615Y13412D01*
Y13578D01*
X12573Y13620D01*
X12490D01*
X12448Y13578D01*
Y13537D01*
X12490Y13495D01*
X12615D01*
X11130Y13610D02*
Y13360D01*
X11255D01*
X11297Y13402D01*
Y13568D01*
X11255Y13610D01*
X11130D01*
X11547Y13360D02*
X11380D01*
X11547Y13527D01*
Y13568D01*
X11505Y13610D01*
X11422D01*
X11380Y13568D01*
X11630D02*
X11671Y13610D01*
X11755D01*
X11796Y13568D01*
Y13402D01*
X11755Y13360D01*
X11671D01*
X11630Y13402D01*
Y13568D01*
X15480Y18080D02*
Y17830D01*
X15605D01*
X15647Y17872D01*
Y18038D01*
X15605Y18080D01*
X15480D01*
X15897Y17830D02*
X15730D01*
X15897Y17997D01*
Y18038D01*
X15855Y18080D01*
X15772D01*
X15730Y18038D01*
X15980Y17830D02*
X16063D01*
X16021D01*
Y18080D01*
X15980Y18038D01*
X14690Y18080D02*
Y17830D01*
X14815D01*
X14857Y17872D01*
Y18038D01*
X14815Y18080D01*
X14690D01*
X15107Y17830D02*
X14940D01*
X15107Y17997D01*
Y18038D01*
X15065Y18080D01*
X14982D01*
X14940Y18038D01*
X15356Y17830D02*
X15190D01*
X15356Y17997D01*
Y18038D01*
X15315Y18080D01*
X15231D01*
X15190Y18038D01*
X16620Y12400D02*
Y12150D01*
X16745D01*
X16787Y12192D01*
Y12358D01*
X16745Y12400D01*
X16620D01*
X17037Y12150D02*
X16870D01*
X17037Y12317D01*
Y12358D01*
X16995Y12400D01*
X16912D01*
X16870Y12358D01*
X17120D02*
X17161Y12400D01*
X17245D01*
X17286Y12358D01*
Y12317D01*
X17245Y12275D01*
X17203D01*
X17245D01*
X17286Y12233D01*
Y12192D01*
X17245Y12150D01*
X17161D01*
X17120Y12192D01*
X15490Y12400D02*
Y12150D01*
X15615D01*
X15657Y12192D01*
Y12358D01*
X15615Y12400D01*
X15490D01*
X15907Y12150D02*
X15740D01*
X15907Y12317D01*
Y12358D01*
X15865Y12400D01*
X15782D01*
X15740Y12358D01*
X16115Y12150D02*
Y12400D01*
X15990Y12275D01*
X16156D01*
X22257Y20878D02*
X22215Y20920D01*
X22132D01*
X22090Y20878D01*
Y20712D01*
X22132Y20670D01*
X22215D01*
X22257Y20712D01*
X22507Y20920D02*
X22340D01*
Y20795D01*
X22423Y20837D01*
X22465D01*
X22507Y20795D01*
Y20712D01*
X22465Y20670D01*
X22382D01*
X22340Y20712D01*
X23167Y14838D02*
X23125Y14880D01*
X23042D01*
X23000Y14838D01*
Y14672D01*
X23042Y14630D01*
X23125D01*
X23167Y14672D01*
X23417Y14630D02*
X23250D01*
X23417Y14797D01*
Y14838D01*
X23375Y14880D01*
X23292D01*
X23250Y14838D01*
X23500D02*
X23541Y14880D01*
X23625D01*
X23666Y14838D01*
Y14797D01*
X23625Y14755D01*
X23583D01*
X23625D01*
X23666Y14713D01*
Y14672D01*
X23625Y14630D01*
X23541D01*
X23500Y14672D01*
X23187Y18558D02*
X23145Y18600D01*
X23062D01*
X23020Y18558D01*
Y18392D01*
X23062Y18350D01*
X23145D01*
X23187Y18392D01*
X23270Y18558D02*
X23312Y18600D01*
X23395D01*
X23437Y18558D01*
Y18517D01*
X23395Y18475D01*
X23353D01*
X23395D01*
X23437Y18433D01*
Y18392D01*
X23395Y18350D01*
X23312D01*
X23270Y18392D01*
X23686Y18350D02*
X23520D01*
X23686Y18517D01*
Y18558D01*
X23645Y18600D01*
X23561D01*
X23520Y18558D01*
X24267Y17778D02*
X24225Y17820D01*
X24142D01*
X24100Y17778D01*
Y17612D01*
X24142Y17570D01*
X24225D01*
X24267Y17612D01*
X24350Y17778D02*
X24392Y17820D01*
X24475D01*
X24517Y17778D01*
Y17737D01*
X24475Y17695D01*
X24433D01*
X24475D01*
X24517Y17653D01*
Y17612D01*
X24475Y17570D01*
X24392D01*
X24350Y17612D01*
X24600Y17778D02*
X24641Y17820D01*
X24725D01*
X24766Y17778D01*
Y17737D01*
X24725Y17695D01*
X24683D01*
X24725D01*
X24766Y17653D01*
Y17612D01*
X24725Y17570D01*
X24641D01*
X24600Y17612D01*
X23757Y17298D02*
X23715Y17340D01*
X23632D01*
X23590Y17298D01*
Y17132D01*
X23632Y17090D01*
X23715D01*
X23757Y17132D01*
X23840Y17298D02*
X23882Y17340D01*
X23965D01*
X24007Y17298D01*
Y17257D01*
X23965Y17215D01*
X23923D01*
X23965D01*
X24007Y17173D01*
Y17132D01*
X23965Y17090D01*
X23882D01*
X23840Y17132D01*
X24215Y17090D02*
Y17340D01*
X24090Y17215D01*
X24256D01*
X24032Y16387D02*
X23990Y16345D01*
Y16262D01*
X24032Y16220D01*
X24198D01*
X24240Y16262D01*
Y16345D01*
X24198Y16387D01*
X23990Y16637D02*
Y16470D01*
X24115D01*
X24073Y16553D01*
Y16595D01*
X24115Y16637D01*
X24198D01*
X24240Y16595D01*
Y16512D01*
X24198Y16470D01*
X24032Y16720D02*
X23990Y16761D01*
Y16845D01*
X24032Y16886D01*
X24198D01*
X24240Y16845D01*
Y16761D01*
X24198Y16720D01*
X24032D01*
X23067Y18198D02*
X23025Y18240D01*
X22942D01*
X22900Y18198D01*
Y18032D01*
X22942Y17990D01*
X23025D01*
X23067Y18032D01*
X23317Y18240D02*
X23150D01*
Y18115D01*
X23233Y18157D01*
X23275D01*
X23317Y18115D01*
Y18032D01*
X23275Y17990D01*
X23192D01*
X23150Y18032D01*
X23566Y18240D02*
X23400D01*
Y18115D01*
X23483Y18157D01*
X23525D01*
X23566Y18115D01*
Y18032D01*
X23525Y17990D01*
X23441D01*
X23400Y18032D01*
X19942Y15927D02*
X19900Y15885D01*
Y15802D01*
X19942Y15760D01*
X20108D01*
X20150Y15802D01*
Y15885D01*
X20108Y15927D01*
X19900Y16177D02*
X19942Y16093D01*
X20025Y16010D01*
X20108D01*
X20150Y16052D01*
Y16135D01*
X20108Y16177D01*
X20067D01*
X20025Y16135D01*
Y16010D01*
X20150Y16385D02*
X19900D01*
X20025Y16260D01*
Y16426D01*
X23107Y15658D02*
X23065Y15700D01*
X22982D01*
X22940Y15658D01*
Y15492D01*
X22982Y15450D01*
X23065D01*
X23107Y15492D01*
X23190Y15700D02*
X23357D01*
Y15658D01*
X23190Y15492D01*
Y15450D01*
X23606D02*
X23440D01*
X23606Y15617D01*
Y15658D01*
X23565Y15700D01*
X23481D01*
X23440Y15658D01*
X27267Y16298D02*
X27225Y16340D01*
X27142D01*
X27100Y16298D01*
Y16132D01*
X27142Y16090D01*
X27225D01*
X27267Y16132D01*
X27350Y16340D02*
X27517D01*
Y16298D01*
X27350Y16132D01*
Y16090D01*
X27766Y16340D02*
X27600D01*
Y16215D01*
X27683Y16257D01*
X27725D01*
X27766Y16215D01*
Y16132D01*
X27725Y16090D01*
X27641D01*
X27600Y16132D01*
X25547Y16388D02*
X25505Y16430D01*
X25422D01*
X25380Y16388D01*
Y16222D01*
X25422Y16180D01*
X25505D01*
X25547Y16222D01*
X25630Y16180D02*
X25713D01*
X25672D01*
Y16430D01*
X25630Y16388D01*
X25838Y16180D02*
X25921D01*
X25880D01*
Y16430D01*
X25838Y16388D01*
X26213Y16180D02*
X26046D01*
X26213Y16347D01*
Y16388D01*
X26171Y16430D01*
X26088D01*
X26046Y16388D01*
X20262Y18127D02*
X20220Y18085D01*
Y18002D01*
X20262Y17960D01*
X20428D01*
X20470Y18002D01*
Y18085D01*
X20428Y18127D01*
X20470Y18210D02*
Y18293D01*
Y18252D01*
X20220D01*
X20262Y18210D01*
X20470Y18418D02*
Y18501D01*
Y18460D01*
X20220D01*
X20262Y18418D01*
Y18626D02*
X20220Y18668D01*
Y18751D01*
X20262Y18793D01*
X20303D01*
X20345Y18751D01*
Y18710D01*
Y18751D01*
X20387Y18793D01*
X20428D01*
X20470Y18751D01*
Y18668D01*
X20428Y18626D01*
X23067Y13328D02*
X23025Y13370D01*
X22942D01*
X22900Y13328D01*
Y13162D01*
X22942Y13120D01*
X23025D01*
X23067Y13162D01*
X23150Y13120D02*
X23233D01*
X23192D01*
Y13370D01*
X23150Y13328D01*
X23358Y13120D02*
X23441D01*
X23400D01*
Y13370D01*
X23358Y13328D01*
X23691Y13120D02*
Y13370D01*
X23566Y13245D01*
X23733D01*
X18922Y14147D02*
X18880Y14105D01*
Y14022D01*
X18922Y13980D01*
X19088D01*
X19130Y14022D01*
Y14105D01*
X19088Y14147D01*
X19130Y14230D02*
Y14313D01*
Y14272D01*
X18880D01*
X18922Y14230D01*
X19130Y14438D02*
Y14521D01*
Y14480D01*
X18880D01*
X18922Y14438D01*
X18880Y14813D02*
Y14646D01*
X19005D01*
X18963Y14730D01*
Y14771D01*
X19005Y14813D01*
X19088D01*
X19130Y14771D01*
Y14688D01*
X19088Y14646D01*
X22042Y13357D02*
X22000Y13315D01*
Y13232D01*
X22042Y13190D01*
X22208D01*
X22250Y13232D01*
Y13315D01*
X22208Y13357D01*
X22250Y13440D02*
Y13523D01*
Y13482D01*
X22000D01*
X22042Y13440D01*
X22250Y13648D02*
Y13731D01*
Y13690D01*
X22000D01*
X22042Y13648D01*
X22000Y14023D02*
X22042Y13940D01*
X22125Y13856D01*
X22208D01*
X22250Y13898D01*
Y13981D01*
X22208Y14023D01*
X22167D01*
X22125Y13981D01*
Y13856D01*
X19180Y17820D02*
Y17570D01*
X19305D01*
X19347Y17612D01*
Y17778D01*
X19305Y17820D01*
X19180D01*
X19597Y17570D02*
X19430D01*
X19597Y17737D01*
Y17778D01*
X19555Y17820D01*
X19472D01*
X19430Y17778D01*
X19846Y17820D02*
X19680D01*
Y17695D01*
X19763Y17737D01*
X19805D01*
X19846Y17695D01*
Y17612D01*
X19805Y17570D01*
X19721D01*
X19680Y17612D01*
X20030Y17830D02*
Y17580D01*
X20155D01*
X20197Y17622D01*
Y17788D01*
X20155Y17830D01*
X20030D01*
X20447Y17580D02*
X20280D01*
X20447Y17747D01*
Y17788D01*
X20405Y17830D01*
X20322D01*
X20280Y17788D01*
X20696Y17830D02*
X20613Y17788D01*
X20530Y17705D01*
Y17622D01*
X20571Y17580D01*
X20655D01*
X20696Y17622D01*
Y17663D01*
X20655Y17705D01*
X20530D01*
X21750Y12410D02*
Y12160D01*
X21875D01*
X21917Y12202D01*
Y12368D01*
X21875Y12410D01*
X21750D01*
X22167Y12160D02*
X22000D01*
X22167Y12327D01*
Y12368D01*
X22125Y12410D01*
X22042D01*
X22000Y12368D01*
X22250Y12410D02*
X22416D01*
Y12368D01*
X22250Y12202D01*
Y12160D01*
X20040Y12420D02*
Y12170D01*
X20165D01*
X20207Y12212D01*
Y12378D01*
X20165Y12420D01*
X20040D01*
X20457Y12170D02*
X20290D01*
X20457Y12337D01*
Y12378D01*
X20415Y12420D01*
X20332D01*
X20290Y12378D01*
X20540D02*
X20581Y12420D01*
X20665D01*
X20706Y12378D01*
Y12337D01*
X20665Y12295D01*
X20706Y12253D01*
Y12212D01*
X20665Y12170D01*
X20581D01*
X20540Y12212D01*
Y12253D01*
X20581Y12295D01*
X20540Y12337D01*
Y12378D01*
X20581Y12295D02*
X20665D01*
X24600Y16220D02*
X24350D01*
Y16345D01*
X24392Y16387D01*
X24475D01*
X24517Y16345D01*
Y16220D01*
Y16303D02*
X24600Y16387D01*
X24392Y16470D02*
X24350Y16512D01*
Y16595D01*
X24392Y16637D01*
X24433D01*
X24475Y16595D01*
X24517Y16637D01*
X24558D01*
X24600Y16595D01*
Y16512D01*
X24558Y16470D01*
X24517D01*
X24475Y16512D01*
X24433Y16470D01*
X24392D01*
X24475Y16512D02*
Y16595D01*
X20550Y19670D02*
Y19920D01*
X20675D01*
X20717Y19878D01*
Y19795D01*
X20675Y19753D01*
X20550D01*
X20633D02*
X20717Y19670D01*
X20800D02*
X20883D01*
X20842D01*
Y19920D01*
X20800Y19878D01*
X21008D02*
X21050Y19920D01*
X21133D01*
X21175Y19878D01*
Y19712D01*
X21133Y19670D01*
X21050D01*
X21008Y19712D01*
Y19878D01*
X19480Y13360D02*
X19230D01*
Y13485D01*
X19272Y13527D01*
X19355D01*
X19397Y13485D01*
Y13360D01*
Y13443D02*
X19480Y13527D01*
Y13777D02*
Y13610D01*
X19313Y13777D01*
X19272D01*
X19230Y13735D01*
Y13652D01*
X19272Y13610D01*
X19230Y14026D02*
Y13860D01*
X19355D01*
X19313Y13943D01*
Y13985D01*
X19355Y14026D01*
X19438D01*
X19480Y13985D01*
Y13901D01*
X19438Y13860D01*
X19780Y17040D02*
Y16832D01*
X19822Y16790D01*
X19905D01*
X19947Y16832D01*
Y17040D01*
X20197D02*
X20113Y16998D01*
X20030Y16915D01*
Y16832D01*
X20072Y16790D01*
X20155D01*
X20197Y16832D01*
Y16873D01*
X20155Y16915D01*
X20030D01*
X23850Y10160D02*
X24017Y9910D01*
Y10160D02*
X23850Y9910D01*
X24225D02*
Y10160D01*
X24100Y10035D01*
X24267D01*
X23940Y15710D02*
X24107Y15460D01*
Y15710D02*
X23940Y15460D01*
X24190Y15668D02*
X24232Y15710D01*
X24315D01*
X24357Y15668D01*
Y15627D01*
X24315Y15585D01*
X24357Y15543D01*
Y15502D01*
X24315Y15460D01*
X24232D01*
X24190Y15502D01*
Y15543D01*
X24232Y15585D01*
X24190Y15627D01*
Y15668D01*
X24232Y15585D02*
X24315D01*
X29020Y22210D02*
X29187D01*
X29103D01*
Y21960D01*
X29270D02*
Y22210D01*
X29395D01*
X29437Y22168D01*
Y22085D01*
X29395Y22043D01*
X29270D01*
X29520Y22168D02*
X29561Y22210D01*
X29645D01*
X29686Y22168D01*
Y22127D01*
X29645Y22085D01*
X29686Y22043D01*
Y22002D01*
X29645Y21960D01*
X29561D01*
X29520Y22002D01*
Y22043D01*
X29561Y22085D01*
X29520Y22127D01*
Y22168D01*
X29561Y22085D02*
X29645D01*
X34167Y13878D02*
X34125Y13920D01*
X34042D01*
X34000Y13878D01*
Y13712D01*
X34042Y13670D01*
X34125D01*
X34167Y13712D01*
X34250Y13670D02*
X34333D01*
X34292D01*
Y13920D01*
X34250Y13878D01*
X34458D02*
X34500Y13920D01*
X34583D01*
X34625Y13878D01*
Y13837D01*
X34583Y13795D01*
X34625Y13753D01*
Y13712D01*
X34583Y13670D01*
X34500D01*
X34458Y13712D01*
Y13753D01*
X34500Y13795D01*
X34458Y13837D01*
Y13878D01*
X34500Y13795D02*
X34583D01*
X32827Y14778D02*
X32785Y14820D01*
X32702D01*
X32660Y14778D01*
Y14612D01*
X32702Y14570D01*
X32785D01*
X32827Y14612D01*
X32910Y14778D02*
X32952Y14820D01*
X33035D01*
X33077Y14778D01*
Y14737D01*
X33035Y14695D01*
X32993D01*
X33035D01*
X33077Y14653D01*
Y14612D01*
X33035Y14570D01*
X32952D01*
X32910Y14612D01*
X33160Y14570D02*
X33243D01*
X33201D01*
Y14820D01*
X33160Y14778D01*
X32407Y19398D02*
X32365Y19440D01*
X32282D01*
X32240Y19398D01*
Y19232D01*
X32282Y19190D01*
X32365D01*
X32407Y19232D01*
X32490Y19398D02*
X32532Y19440D01*
X32615D01*
X32657Y19398D01*
Y19357D01*
X32615Y19315D01*
X32573D01*
X32615D01*
X32657Y19273D01*
Y19232D01*
X32615Y19190D01*
X32532D01*
X32490Y19232D01*
X32906Y19440D02*
X32823Y19398D01*
X32740Y19315D01*
Y19232D01*
X32781Y19190D01*
X32865D01*
X32906Y19232D01*
Y19273D01*
X32865Y19315D01*
X32740D01*
X33262Y17757D02*
X33220Y17715D01*
Y17632D01*
X33262Y17590D01*
X33428D01*
X33470Y17632D01*
Y17715D01*
X33428Y17757D01*
X33262Y17840D02*
X33220Y17882D01*
Y17965D01*
X33262Y18007D01*
X33303D01*
X33345Y17965D01*
Y17923D01*
Y17965D01*
X33387Y18007D01*
X33428D01*
X33470Y17965D01*
Y17882D01*
X33428Y17840D01*
X33220Y18090D02*
Y18256D01*
X33262D01*
X33428Y18090D01*
X33470D01*
X33407Y17318D02*
X33365Y17360D01*
X33282D01*
X33240Y17318D01*
Y17152D01*
X33282Y17110D01*
X33365D01*
X33407Y17152D01*
X33490Y17318D02*
X33532Y17360D01*
X33615D01*
X33657Y17318D01*
Y17277D01*
X33615Y17235D01*
X33573D01*
X33615D01*
X33657Y17193D01*
Y17152D01*
X33615Y17110D01*
X33532D01*
X33490Y17152D01*
X33740Y17318D02*
X33781Y17360D01*
X33865D01*
X33906Y17318D01*
Y17277D01*
X33865Y17235D01*
X33906Y17193D01*
Y17152D01*
X33865Y17110D01*
X33781D01*
X33740Y17152D01*
Y17193D01*
X33781Y17235D01*
X33740Y17277D01*
Y17318D01*
X33781Y17235D02*
X33865D01*
X33382Y15537D02*
X33340Y15495D01*
Y15412D01*
X33382Y15370D01*
X33548D01*
X33590Y15412D01*
Y15495D01*
X33548Y15537D01*
X33382Y15620D02*
X33340Y15662D01*
Y15745D01*
X33382Y15787D01*
X33423D01*
X33465Y15745D01*
Y15703D01*
Y15745D01*
X33507Y15787D01*
X33548D01*
X33590Y15745D01*
Y15662D01*
X33548Y15620D01*
Y15870D02*
X33590Y15911D01*
Y15995D01*
X33548Y16036D01*
X33382D01*
X33340Y15995D01*
Y15911D01*
X33382Y15870D01*
X33423D01*
X33465Y15911D01*
Y16036D01*
X29222Y15197D02*
X29180Y15155D01*
Y15072D01*
X29222Y15030D01*
X29388D01*
X29430Y15072D01*
Y15155D01*
X29388Y15197D01*
X29430Y15405D02*
X29180D01*
X29305Y15280D01*
Y15447D01*
X29430Y15530D02*
Y15613D01*
Y15571D01*
X29180D01*
X29222Y15530D01*
X32397Y18988D02*
X32355Y19030D01*
X32272D01*
X32230Y18988D01*
Y18822D01*
X32272Y18780D01*
X32355D01*
X32397Y18822D01*
X32480Y19030D02*
X32647D01*
Y18988D01*
X32480Y18822D01*
Y18780D01*
X32730Y18988D02*
X32771Y19030D01*
X32855D01*
X32896Y18988D01*
Y18947D01*
X32855Y18905D01*
X32813D01*
X32855D01*
X32896Y18863D01*
Y18822D01*
X32855Y18780D01*
X32771D01*
X32730Y18822D01*
X32657Y15608D02*
X32615Y15650D01*
X32532D01*
X32490Y15608D01*
Y15442D01*
X32532Y15400D01*
X32615D01*
X32657Y15442D01*
X32740Y15650D02*
X32907D01*
Y15608D01*
X32740Y15442D01*
Y15400D01*
X33156Y15650D02*
X33073Y15608D01*
X32990Y15525D01*
Y15442D01*
X33031Y15400D01*
X33115D01*
X33156Y15442D01*
Y15483D01*
X33115Y15525D01*
X32990D01*
X33657Y12908D02*
X33615Y12950D01*
X33532D01*
X33490Y12908D01*
Y12742D01*
X33532Y12700D01*
X33615D01*
X33657Y12742D01*
X33740Y12950D02*
X33907D01*
Y12908D01*
X33740Y12742D01*
Y12700D01*
X33990Y12908D02*
X34031Y12950D01*
X34115D01*
X34156Y12908D01*
Y12867D01*
X34115Y12825D01*
X34156Y12783D01*
Y12742D01*
X34115Y12700D01*
X34031D01*
X33990Y12742D01*
Y12783D01*
X34031Y12825D01*
X33990Y12867D01*
Y12908D01*
X34031Y12825D02*
X34115D01*
X33267Y13428D02*
X33225Y13470D01*
X33142D01*
X33100Y13428D01*
Y13262D01*
X33142Y13220D01*
X33225D01*
X33267Y13262D01*
X33350Y13428D02*
X33392Y13470D01*
X33475D01*
X33517Y13428D01*
Y13387D01*
X33475Y13345D01*
X33517Y13303D01*
Y13262D01*
X33475Y13220D01*
X33392D01*
X33350Y13262D01*
Y13303D01*
X33392Y13345D01*
X33350Y13387D01*
Y13428D01*
X33392Y13345D02*
X33475D01*
X33600Y13428D02*
X33641Y13470D01*
X33725D01*
X33766Y13428D01*
Y13262D01*
X33725Y13220D01*
X33641D01*
X33600Y13262D01*
Y13428D01*
X31752Y19257D02*
X31710Y19215D01*
Y19132D01*
X31752Y19090D01*
X31918D01*
X31960Y19132D01*
Y19215D01*
X31918Y19257D01*
X31752Y19340D02*
X31710Y19382D01*
Y19465D01*
X31752Y19507D01*
X31793D01*
X31835Y19465D01*
X31877Y19507D01*
X31918D01*
X31960Y19465D01*
Y19382D01*
X31918Y19340D01*
X31877D01*
X31835Y19382D01*
X31793Y19340D01*
X31752D01*
X31835Y19382D02*
Y19465D01*
X31960Y19756D02*
Y19590D01*
X31793Y19756D01*
X31752D01*
X31710Y19715D01*
Y19631D01*
X31752Y19590D01*
X32287Y13438D02*
X32245Y13480D01*
X32162D01*
X32120Y13438D01*
Y13272D01*
X32162Y13230D01*
X32245D01*
X32287Y13272D01*
X32370Y13230D02*
X32453D01*
X32412D01*
Y13480D01*
X32370Y13438D01*
X32578Y13230D02*
X32661D01*
X32620D01*
Y13480D01*
X32578Y13438D01*
X32786Y13480D02*
X32953D01*
Y13438D01*
X32786Y13272D01*
Y13230D01*
X28267Y12868D02*
X28225Y12910D01*
X28142D01*
X28100Y12868D01*
Y12702D01*
X28142Y12660D01*
X28225D01*
X28267Y12702D01*
X28350Y12660D02*
X28433D01*
X28392D01*
Y12910D01*
X28350Y12868D01*
X28558Y12660D02*
X28641D01*
X28600D01*
Y12910D01*
X28558Y12868D01*
X28766D02*
X28808Y12910D01*
X28891D01*
X28933Y12868D01*
Y12827D01*
X28891Y12785D01*
X28933Y12743D01*
Y12702D01*
X28891Y12660D01*
X28808D01*
X28766Y12702D01*
Y12743D01*
X28808Y12785D01*
X28766Y12827D01*
Y12868D01*
X28808Y12785D02*
X28891D01*
X32387Y13828D02*
X32345Y13870D01*
X32262D01*
X32220Y13828D01*
Y13662D01*
X32262Y13620D01*
X32345D01*
X32387Y13662D01*
X32470Y13620D02*
X32553D01*
X32512D01*
Y13870D01*
X32470Y13828D01*
X32678Y13620D02*
X32761D01*
X32720D01*
Y13870D01*
X32678Y13828D01*
X32886Y13662D02*
X32928Y13620D01*
X33011D01*
X33053Y13662D01*
Y13828D01*
X33011Y13870D01*
X32928D01*
X32886Y13828D01*
Y13787D01*
X32928Y13745D01*
X33053D01*
X29610Y18060D02*
Y17810D01*
X29735D01*
X29777Y17852D01*
Y18018D01*
X29735Y18060D01*
X29610D01*
X30027Y17810D02*
X29860D01*
X30027Y17977D01*
Y18018D01*
X29985Y18060D01*
X29902D01*
X29860Y18018D01*
X30110Y17852D02*
X30151Y17810D01*
X30235D01*
X30276Y17852D01*
Y18018D01*
X30235Y18060D01*
X30151D01*
X30110Y18018D01*
Y17977D01*
X30151Y17935D01*
X30276D01*
X28810Y18060D02*
Y17810D01*
X28935D01*
X28977Y17852D01*
Y18018D01*
X28935Y18060D01*
X28810D01*
X29060Y18018D02*
X29102Y18060D01*
X29185D01*
X29227Y18018D01*
Y17977D01*
X29185Y17935D01*
X29143D01*
X29185D01*
X29227Y17893D01*
Y17852D01*
X29185Y17810D01*
X29102D01*
X29060Y17852D01*
X29310Y18018D02*
X29351Y18060D01*
X29435D01*
X29476Y18018D01*
Y17852D01*
X29435Y17810D01*
X29351D01*
X29310Y17852D01*
Y18018D01*
X32280Y12370D02*
Y12120D01*
X32405D01*
X32447Y12162D01*
Y12328D01*
X32405Y12370D01*
X32280D01*
X32530Y12328D02*
X32572Y12370D01*
X32655D01*
X32697Y12328D01*
Y12287D01*
X32655Y12245D01*
X32613D01*
X32655D01*
X32697Y12203D01*
Y12162D01*
X32655Y12120D01*
X32572D01*
X32530Y12162D01*
X32780Y12120D02*
X32863D01*
X32821D01*
Y12370D01*
X32780Y12328D01*
X30110Y12370D02*
Y12120D01*
X30235D01*
X30277Y12162D01*
Y12328D01*
X30235Y12370D01*
X30110D01*
X30360Y12328D02*
X30402Y12370D01*
X30485D01*
X30527Y12328D01*
Y12287D01*
X30485Y12245D01*
X30443D01*
X30485D01*
X30527Y12203D01*
Y12162D01*
X30485Y12120D01*
X30402D01*
X30360Y12162D01*
X30776Y12120D02*
X30610D01*
X30776Y12287D01*
Y12328D01*
X30735Y12370D01*
X30651D01*
X30610Y12328D01*
X33960Y15390D02*
X33710D01*
Y15515D01*
X33752Y15557D01*
X33835D01*
X33877Y15515D01*
Y15390D01*
Y15473D02*
X33960Y15557D01*
Y15640D02*
Y15723D01*
Y15682D01*
X33710D01*
X33752Y15640D01*
X33960Y15973D02*
X33710D01*
X33835Y15848D01*
Y16015D01*
X30110Y18970D02*
X29860D01*
Y19095D01*
X29902Y19137D01*
X29985D01*
X30027Y19095D01*
Y18970D01*
Y19053D02*
X30110Y19137D01*
Y19220D02*
Y19303D01*
Y19262D01*
X29860D01*
X29902Y19220D01*
X29860Y19595D02*
Y19428D01*
X29985D01*
X29943Y19511D01*
Y19553D01*
X29985Y19595D01*
X30068D01*
X30110Y19553D01*
Y19470D01*
X30068Y19428D01*
X29110Y14170D02*
Y14420D01*
X29235D01*
X29277Y14378D01*
Y14295D01*
X29235Y14253D01*
X29110D01*
X29193D02*
X29277Y14170D01*
X29527D02*
X29360D01*
X29527Y14337D01*
Y14378D01*
X29485Y14420D01*
X29402D01*
X29360Y14378D01*
X29776Y14420D02*
X29693Y14378D01*
X29610Y14295D01*
Y14212D01*
X29651Y14170D01*
X29735D01*
X29776Y14212D01*
Y14253D01*
X29735Y14295D01*
X29610D01*
X29370Y17050D02*
Y16842D01*
X29412Y16800D01*
X29495D01*
X29537Y16842D01*
Y17050D01*
X29620D02*
X29787D01*
Y17008D01*
X29620Y16842D01*
Y16800D01*
X29080Y10150D02*
X29247Y9900D01*
Y10150D02*
X29080Y9900D01*
X29330D02*
X29413D01*
X29372D01*
Y10150D01*
X29330Y10108D01*
X29538D02*
X29580Y10150D01*
X29663D01*
X29705Y10108D01*
Y9942D01*
X29663Y9900D01*
X29580D01*
X29538Y9942D01*
Y10108D01*
X25250Y37390D02*
Y37640D01*
X25375D01*
X25417Y37598D01*
Y37515D01*
X25375Y37473D01*
X25250D01*
X25500Y37390D02*
X25583D01*
X25542D01*
Y37640D01*
X25500Y37598D01*
X26120Y30000D02*
Y30250D01*
X26245D01*
X26287Y30208D01*
Y30125D01*
X26245Y30083D01*
X26120D01*
X26537Y30000D02*
X26370D01*
X26537Y30167D01*
Y30208D01*
X26495Y30250D01*
X26412D01*
X26370Y30208D01*
X18300Y31630D02*
Y31880D01*
X18425D01*
X18467Y31838D01*
Y31755D01*
X18425Y31713D01*
X18300D01*
X18383D02*
X18467Y31630D01*
X18550Y31880D02*
Y31713D01*
X18633Y31630D01*
X18717Y31713D01*
Y31880D01*
X18800Y31838D02*
X18841Y31880D01*
X18925D01*
X18966Y31838D01*
Y31797D01*
X18925Y31755D01*
X18883D01*
X18925D01*
X18966Y31713D01*
Y31672D01*
X18925Y31630D01*
X18841D01*
X18800Y31672D01*
X13560Y31510D02*
Y31760D01*
X13685D01*
X13727Y31718D01*
Y31635D01*
X13685Y31593D01*
X13560D01*
X13643D02*
X13727Y31510D01*
X13810Y31760D02*
Y31593D01*
X13893Y31510D01*
X13977Y31593D01*
Y31760D01*
X14185Y31510D02*
Y31760D01*
X14060Y31635D01*
X14226D01*
X18410Y31270D02*
Y31520D01*
X18535D01*
X18577Y31478D01*
Y31395D01*
X18535Y31353D01*
X18410D01*
X18493D02*
X18577Y31270D01*
X18660Y31520D02*
Y31353D01*
X18743Y31270D01*
X18827Y31353D01*
Y31520D01*
X19076D02*
X18910D01*
Y31395D01*
X18993Y31437D01*
X19035D01*
X19076Y31395D01*
Y31312D01*
X19035Y31270D01*
X18951D01*
X18910Y31312D01*
X15540Y31610D02*
Y31860D01*
X15665D01*
X15707Y31818D01*
Y31735D01*
X15665Y31693D01*
X15540D01*
X15623D02*
X15707Y31610D01*
X15790Y31860D02*
Y31693D01*
X15873Y31610D01*
X15957Y31693D01*
Y31860D01*
X16206D02*
X16123Y31818D01*
X16040Y31735D01*
Y31652D01*
X16081Y31610D01*
X16165D01*
X16206Y31652D01*
Y31693D01*
X16165Y31735D01*
X16040D01*
X19240Y31270D02*
Y31520D01*
X19365D01*
X19407Y31478D01*
Y31395D01*
X19365Y31353D01*
X19240D01*
X19323D02*
X19407Y31270D01*
X19490Y31520D02*
Y31353D01*
X19573Y31270D01*
X19657Y31353D01*
Y31520D01*
X19740D02*
X19906D01*
Y31478D01*
X19740Y31312D01*
Y31270D01*
X24250Y32480D02*
X24000D01*
Y32605D01*
X24042Y32647D01*
X24125D01*
X24167Y32605D01*
Y32480D01*
Y32563D02*
X24250Y32647D01*
X24000Y32730D02*
X24167D01*
X24250Y32813D01*
X24167Y32897D01*
X24000D01*
X24042Y32980D02*
X24000Y33021D01*
Y33105D01*
X24042Y33146D01*
X24083D01*
X24125Y33105D01*
X24167Y33146D01*
X24208D01*
X24250Y33105D01*
Y33021D01*
X24208Y32980D01*
X24167D01*
X24125Y33021D01*
X24083Y32980D01*
X24042D01*
X24125Y33021D02*
Y33105D01*
X24650Y28900D02*
Y29150D01*
X24775D01*
X24817Y29108D01*
Y29025D01*
X24775Y28983D01*
X24650D01*
X24733D02*
X24817Y28900D01*
X24900Y29150D02*
Y28983D01*
X24983Y28900D01*
X25067Y28983D01*
Y29150D01*
X25150Y28942D02*
X25191Y28900D01*
X25275D01*
X25316Y28942D01*
Y29108D01*
X25275Y29150D01*
X25191D01*
X25150Y29108D01*
Y29067D01*
X25191Y29025D01*
X25316D01*
X25700Y29060D02*
X25450D01*
Y29185D01*
X25492Y29227D01*
X25575D01*
X25617Y29185D01*
Y29060D01*
Y29143D02*
X25700Y29227D01*
X25450Y29310D02*
X25617D01*
X25700Y29393D01*
X25617Y29477D01*
X25450D01*
X25700Y29560D02*
Y29643D01*
Y29601D01*
X25450D01*
X25492Y29560D01*
Y29768D02*
X25450Y29810D01*
Y29893D01*
X25492Y29935D01*
X25658D01*
X25700Y29893D01*
Y29810D01*
X25658Y29768D01*
X25492D01*
X27270Y31120D02*
X27020D01*
Y31245D01*
X27062Y31287D01*
X27145D01*
X27187Y31245D01*
Y31120D01*
Y31203D02*
X27270Y31287D01*
X27020Y31370D02*
X27187D01*
X27270Y31453D01*
X27187Y31537D01*
X27020D01*
X27270Y31620D02*
Y31703D01*
Y31661D01*
X27020D01*
X27062Y31620D01*
X27270Y31828D02*
Y31911D01*
Y31870D01*
X27020D01*
X27062Y31828D01*
X28370Y31100D02*
X28120D01*
Y31225D01*
X28162Y31267D01*
X28245D01*
X28287Y31225D01*
Y31100D01*
Y31183D02*
X28370Y31267D01*
X28120Y31350D02*
X28287D01*
X28370Y31433D01*
X28287Y31517D01*
X28120D01*
X28370Y31600D02*
Y31683D01*
Y31641D01*
X28120D01*
X28162Y31600D01*
X28370Y31975D02*
Y31808D01*
X28203Y31975D01*
X28162D01*
X28120Y31933D01*
Y31850D01*
X28162Y31808D01*
X26910Y31120D02*
X26660D01*
Y31245D01*
X26702Y31287D01*
X26785D01*
X26827Y31245D01*
Y31120D01*
Y31203D02*
X26910Y31287D01*
X26660Y31370D02*
X26827D01*
X26910Y31453D01*
X26827Y31537D01*
X26660D01*
X26910Y31620D02*
Y31703D01*
Y31661D01*
X26660D01*
X26702Y31620D01*
Y31828D02*
X26660Y31870D01*
Y31953D01*
X26702Y31995D01*
X26743D01*
X26785Y31953D01*
Y31911D01*
Y31953D01*
X26827Y31995D01*
X26868D01*
X26910Y31953D01*
Y31870D01*
X26868Y31828D01*
X22980Y32460D02*
Y32710D01*
X23105D01*
X23147Y32668D01*
Y32585D01*
X23105Y32543D01*
X22980D01*
X23063D02*
X23147Y32460D01*
X23230Y32710D02*
Y32543D01*
X23313Y32460D01*
X23397Y32543D01*
Y32710D01*
X23480Y32460D02*
X23563D01*
X23521D01*
Y32710D01*
X23480Y32668D01*
X23813Y32460D02*
Y32710D01*
X23688Y32585D01*
X23855D01*
X21820Y32450D02*
Y32700D01*
X21945D01*
X21987Y32658D01*
Y32575D01*
X21945Y32533D01*
X21820D01*
X21903D02*
X21987Y32450D01*
X22070Y32700D02*
Y32533D01*
X22153Y32450D01*
X22237Y32533D01*
Y32700D01*
X22320Y32450D02*
X22403D01*
X22361D01*
Y32700D01*
X22320Y32658D01*
X22695Y32700D02*
X22528D01*
Y32575D01*
X22611Y32617D01*
X22653D01*
X22695Y32575D01*
Y32492D01*
X22653Y32450D01*
X22570D01*
X22528Y32492D01*
X23230Y32930D02*
X22980D01*
Y33055D01*
X23022Y33097D01*
X23105D01*
X23147Y33055D01*
Y32930D01*
Y33013D02*
X23230Y33097D01*
X22980Y33180D02*
X23147D01*
X23230Y33263D01*
X23147Y33347D01*
X22980D01*
X23230Y33430D02*
Y33513D01*
Y33471D01*
X22980D01*
X23022Y33430D01*
X22980Y33805D02*
X23022Y33721D01*
X23105Y33638D01*
X23188D01*
X23230Y33680D01*
Y33763D01*
X23188Y33805D01*
X23147D01*
X23105Y33763D01*
Y33638D01*
X20040Y31090D02*
Y31340D01*
X20165D01*
X20207Y31298D01*
Y31215D01*
X20165Y31173D01*
X20040D01*
X20123D02*
X20207Y31090D01*
X20290Y31340D02*
Y31173D01*
X20373Y31090D01*
X20457Y31173D01*
Y31340D01*
X20540Y31090D02*
X20623D01*
X20581D01*
Y31340D01*
X20540Y31298D01*
X20748Y31340D02*
X20915D01*
Y31298D01*
X20748Y31132D01*
Y31090D01*
X24900Y30050D02*
Y30300D01*
X25025D01*
X25067Y30258D01*
Y30175D01*
X25025Y30133D01*
X24900D01*
X24983D02*
X25067Y30050D01*
X25150Y30300D02*
Y30133D01*
X25233Y30050D01*
X25317Y30133D01*
Y30300D01*
X25400Y30050D02*
X25483D01*
X25441D01*
Y30300D01*
X25400Y30258D01*
X25608D02*
X25650Y30300D01*
X25733D01*
X25775Y30258D01*
Y30217D01*
X25733Y30175D01*
X25775Y30133D01*
Y30092D01*
X25733Y30050D01*
X25650D01*
X25608Y30092D01*
Y30133D01*
X25650Y30175D01*
X25608Y30217D01*
Y30258D01*
X25650Y30175D02*
X25733D01*
X32030Y30460D02*
Y30710D01*
X32155D01*
X32197Y30668D01*
Y30585D01*
X32155Y30543D01*
X32030D01*
X32113D02*
X32197Y30460D01*
X32280Y30710D02*
Y30543D01*
X32363Y30460D01*
X32447Y30543D01*
Y30710D01*
X32530Y30460D02*
X32613D01*
X32571D01*
Y30710D01*
X32530Y30668D01*
X32738Y30502D02*
X32780Y30460D01*
X32863D01*
X32905Y30502D01*
Y30668D01*
X32863Y30710D01*
X32780D01*
X32738Y30668D01*
Y30627D01*
X32780Y30585D01*
X32905D01*
X28560Y29730D02*
Y29980D01*
X28685D01*
X28727Y29938D01*
Y29855D01*
X28685Y29813D01*
X28560D01*
X28643D02*
X28727Y29730D01*
X28810Y29980D02*
Y29813D01*
X28893Y29730D01*
X28977Y29813D01*
Y29980D01*
X29226Y29730D02*
X29060D01*
X29226Y29897D01*
Y29938D01*
X29185Y29980D01*
X29101D01*
X29060Y29938D01*
X29310D02*
X29351Y29980D01*
X29435D01*
X29476Y29938D01*
Y29772D01*
X29435Y29730D01*
X29351D01*
X29310Y29772D01*
Y29938D01*
X27650Y30040D02*
Y30290D01*
X27775D01*
X27817Y30248D01*
Y30165D01*
X27775Y30123D01*
X27650D01*
X27733D02*
X27817Y30040D01*
X27900Y30290D02*
Y30123D01*
X27983Y30040D01*
X28067Y30123D01*
Y30290D01*
X28316Y30040D02*
X28150D01*
X28316Y30207D01*
Y30248D01*
X28275Y30290D01*
X28191D01*
X28150Y30248D01*
X28400Y30040D02*
X28483D01*
X28441D01*
Y30290D01*
X28400Y30248D01*
X26830Y29650D02*
Y29900D01*
X26955D01*
X26997Y29858D01*
Y29775D01*
X26955Y29733D01*
X26830D01*
X26913D02*
X26997Y29650D01*
X27080Y29900D02*
Y29733D01*
X27163Y29650D01*
X27247Y29733D01*
Y29900D01*
X27496Y29650D02*
X27330D01*
X27496Y29817D01*
Y29858D01*
X27455Y29900D01*
X27371D01*
X27330Y29858D01*
X27746Y29650D02*
X27580D01*
X27746Y29817D01*
Y29858D01*
X27705Y29900D01*
X27621D01*
X27580Y29858D01*
X20030Y31430D02*
Y31680D01*
X20155D01*
X20197Y31638D01*
Y31555D01*
X20155Y31513D01*
X20030D01*
X20113D02*
X20197Y31430D01*
X20280Y31680D02*
Y31513D01*
X20363Y31430D01*
X20447Y31513D01*
Y31680D01*
X20696Y31430D02*
X20530D01*
X20696Y31597D01*
Y31638D01*
X20655Y31680D01*
X20571D01*
X20530Y31638D01*
X20780D02*
X20821Y31680D01*
X20905D01*
X20946Y31638D01*
Y31597D01*
X20905Y31555D01*
X20863D01*
X20905D01*
X20946Y31513D01*
Y31472D01*
X20905Y31430D01*
X20821D01*
X20780Y31472D01*
X22050Y32890D02*
X21800D01*
Y33015D01*
X21842Y33057D01*
X21925D01*
X21967Y33015D01*
Y32890D01*
Y32973D02*
X22050Y33057D01*
X21800Y33140D02*
X21967D01*
X22050Y33223D01*
X21967Y33307D01*
X21800D01*
X22050Y33556D02*
Y33390D01*
X21883Y33556D01*
X21842D01*
X21800Y33515D01*
Y33431D01*
X21842Y33390D01*
X22050Y33765D02*
X21800D01*
X21925Y33640D01*
Y33806D01*
X24530Y32470D02*
Y32720D01*
X24655D01*
X24697Y32678D01*
Y32595D01*
X24655Y32553D01*
X24530D01*
X24613D02*
X24697Y32470D01*
X24780Y32720D02*
Y32553D01*
X24863Y32470D01*
X24947Y32553D01*
Y32720D01*
X25196Y32470D02*
X25030D01*
X25196Y32637D01*
Y32678D01*
X25155Y32720D01*
X25071D01*
X25030Y32678D01*
X25446Y32720D02*
X25280D01*
Y32595D01*
X25363Y32637D01*
X25405D01*
X25446Y32595D01*
Y32512D01*
X25405Y32470D01*
X25321D01*
X25280Y32512D01*
X19380Y29760D02*
Y30010D01*
X19505D01*
X19547Y29968D01*
Y29885D01*
X19505Y29843D01*
X19380D01*
X19463D02*
X19547Y29760D01*
X19630D02*
Y30010D01*
X19797Y29760D01*
Y30010D01*
X20005Y29760D02*
Y30010D01*
X19880Y29885D01*
X20046D01*
X21330Y32480D02*
X21080D01*
Y32605D01*
X21122Y32647D01*
X21205D01*
X21247Y32605D01*
Y32480D01*
Y32563D02*
X21330Y32647D01*
Y32730D02*
Y32813D01*
Y32772D01*
X21080D01*
X21122Y32730D01*
X21288Y32938D02*
X21330Y32980D01*
Y33063D01*
X21288Y33105D01*
X21122D01*
X21080Y33063D01*
Y32980D01*
X21122Y32938D01*
X21163D01*
X21205Y32980D01*
Y33105D01*
X23810Y28910D02*
Y29160D01*
X23935D01*
X23977Y29118D01*
Y29035D01*
X23935Y28993D01*
X23810D01*
X23893D02*
X23977Y28910D01*
X24227D02*
X24060D01*
X24227Y29077D01*
Y29118D01*
X24185Y29160D01*
X24102D01*
X24060Y29118D01*
X24310D02*
X24351Y29160D01*
X24435D01*
X24476Y29118D01*
Y28952D01*
X24435Y28910D01*
X24351D01*
X24310Y28952D01*
Y29118D01*
X26550Y31120D02*
X26300D01*
Y31245D01*
X26342Y31287D01*
X26425D01*
X26467Y31245D01*
Y31120D01*
Y31203D02*
X26550Y31287D01*
Y31537D02*
Y31370D01*
X26383Y31537D01*
X26342D01*
X26300Y31495D01*
Y31412D01*
X26342Y31370D01*
X26300Y31620D02*
Y31786D01*
X26342D01*
X26508Y31620D01*
X26550D01*
D120*
X12916Y14435D02*
G03*
X12916Y14435I-20J0D01*
G01*
X11893Y15005D02*
G03*
X11893Y15005I-20J0D01*
G01*
X11793Y18465D02*
G03*
X11793Y18465I-20J0D01*
G01*
X12816Y17895D02*
G03*
X12816Y17895I-20J0D01*
G01*
X16343Y14645D02*
G03*
X16343Y14645I-20J0D01*
G01*
X17366Y14075D02*
G03*
X17366Y14075I-20J0D01*
G01*
X16323Y18045D02*
G03*
X16323Y18045I-20J0D01*
G01*
X17336Y17475D02*
G03*
X17336Y17475I-20J0D01*
G01*
X20863Y14635D02*
G03*
X20863Y14635I-20J0D01*
G01*
X21886Y14065D02*
G03*
X21886Y14065I-20J0D01*
G01*
X20823Y18045D02*
G03*
X20823Y18045I-20J0D01*
G01*
X21836Y17475D02*
G03*
X21836Y17475I-20J0D01*
G01*
X30483Y14625D02*
G03*
X30483Y14625I-20J0D01*
G01*
X31536Y14055D02*
G03*
X31536Y14055I-20J0D01*
G01*
X30463Y18035D02*
G03*
X30463Y18035I-20J0D01*
G01*
X31466Y17465D02*
G03*
X31466Y17465I-20J0D01*
G01*
D121*
X42744Y33096D02*
G03*
X42744Y33096I-49J0D01*
G01*
X16855Y25801D02*
G03*
X16855Y25801I-39J0D01*
G01*
X11207Y17601D02*
G03*
X11207Y17601I-49J0D01*
G01*
X15680Y17241D02*
G03*
X15680Y17241I-49J0D01*
G01*
X20180D02*
G03*
X20180Y17241I-49J0D01*
G01*
X29820D02*
G03*
X29820Y17241I-49J0D01*
G01*
D122*
X19601Y23770D02*
G03*
X19601Y23770I-120J0D01*
G01*
D123*
X38897Y23697D02*
G03*
X38057Y24117I-840J-630D01*
G01*
D02*
G03*
X37217Y23697I0J-1050D01*
G01*
X36897D02*
G03*
X36057Y24117I-840J-630D01*
G01*
D02*
G03*
X35217Y23697I0J-1050D01*
G01*
X14132Y10977D02*
X18150D01*
X19250D02*
X23268D01*
X17445Y29176D02*
X17945D01*
X18195Y29426D02*
Y30926D01*
X17945Y31176D02*
X18195Y30926D01*
X17445Y31176D02*
X17945D01*
X17195Y30926D02*
X17445Y31176D01*
X17945Y29176D02*
X18195Y29426D01*
X17195D02*
X17445Y29176D01*
X15445D02*
X15945D01*
X16445D02*
X16945D01*
X17195Y29426D02*
Y30926D01*
X16195Y29426D02*
Y30926D01*
X16945Y31176D02*
X17195Y30926D01*
X16445Y31176D02*
X16945D01*
X16195Y30926D02*
X16445Y31176D01*
X15945D02*
X16195Y30926D01*
X15445Y31176D02*
X15945D01*
X15195Y30926D02*
X15445Y31176D01*
X15195Y29426D02*
Y30926D01*
X16945Y29176D02*
X17195Y29426D01*
X16195D02*
X16445Y29176D01*
X15945D02*
X16195Y29426D01*
X15195D02*
X15445Y29176D01*
X23171D02*
X23671D01*
X23921Y29426D02*
Y30926D01*
X23671Y31176D02*
X23921Y30926D01*
X23171Y31176D02*
X23671D01*
X22921Y30926D02*
X23171Y31176D01*
X23671Y29176D02*
X23921Y29426D01*
X22921D02*
X23171Y29176D01*
X21171D02*
X21671D01*
X22171D02*
X22671D01*
X22921Y29426D02*
Y30926D01*
X21921Y29426D02*
Y30926D01*
X22671Y31176D02*
X22921Y30926D01*
X22171Y31176D02*
X22671D01*
X21921Y30926D02*
X22171Y31176D01*
X21671D02*
X21921Y30926D01*
X21171Y31176D02*
X21671D01*
X20921Y30926D02*
X21171Y31176D01*
X20921Y29426D02*
Y30926D01*
X22671Y29176D02*
X22921Y29426D01*
X21921D02*
X22171Y29176D01*
X21671D02*
X21921Y29426D01*
X20921D02*
X21171Y29176D01*
X11217Y30540D02*
X11417D01*
X10117D02*
X10617D01*
X10117Y33240D02*
X10617D01*
X11217D02*
X11417D01*
Y30540D02*
Y30840D01*
X11517D01*
Y31190D01*
X11417D02*
X11517D01*
X11417D02*
Y31590D01*
X11317D02*
X11417D01*
X11317D02*
Y32190D01*
X11417D01*
Y32640D01*
X11517D01*
Y32940D01*
X11417D02*
X11517D01*
X11417D02*
Y33240D01*
X10117Y30540D02*
Y31640D01*
X10517D01*
Y32140D01*
X10117Y31640D02*
Y32140D01*
X10517D01*
X9917Y30890D02*
Y31390D01*
Y32390D01*
X10017Y30890D02*
Y33340D01*
X9917Y30890D02*
X10017D01*
X9917Y32390D02*
Y32890D01*
X10017D01*
X10117Y32140D02*
Y33240D01*
X10017Y33340D02*
X11417D01*
X10017Y30440D02*
Y30890D01*
Y30440D02*
X11417D01*
X24368Y10977D02*
X28386D01*
X24368Y13733D02*
X28386D01*
X29490Y10981D02*
X33508D01*
X34807Y24217D02*
X39307D01*
Y20917D02*
Y21117D01*
Y24217D01*
X39057Y21617D02*
Y23717D01*
Y21517D02*
Y21617D01*
X36907Y23717D02*
X37207D01*
X38887D02*
X39057D01*
X38257Y21617D02*
X39057D01*
X37857D02*
X38257D01*
X36257D02*
X37857D01*
X35857D02*
X36257D01*
X38257Y20917D02*
X39307D01*
X37857D02*
X38257D01*
X36257D02*
X37857D01*
X35857D02*
X36257D01*
X38357Y21117D02*
X39307D01*
X36357D02*
X37757D01*
X36357Y21517D02*
X37757D01*
X38357D02*
X39057D01*
X37857Y20917D02*
Y21617D01*
X38257Y20917D02*
Y21617D01*
X38357Y21117D02*
Y21517D01*
X37757Y21117D02*
Y21517D01*
Y21117D02*
X37857Y20917D01*
X38257D02*
X38357Y21117D01*
X38257Y21617D02*
X38357Y21517D01*
X37757D02*
X37857Y21617D01*
X35057Y23717D02*
X35207D01*
X36257Y20917D02*
Y21617D01*
X35857Y20917D02*
Y21617D01*
X35757Y21117D02*
Y21517D01*
Y21117D02*
X35857Y20917D01*
X35757Y21517D02*
X35857Y21617D01*
X36257Y20917D02*
X36357Y21117D01*
Y21517D01*
X36257Y21617D02*
X36357Y21517D01*
X35057D02*
Y21617D01*
X35757Y21517D02*
X35857Y21617D01*
X35757Y21117D02*
X35857Y20917D01*
X35057Y21517D02*
X35757D01*
X34807Y21117D02*
X35757D01*
X35057Y21617D02*
X35857D01*
X35057Y23717D02*
X35227D01*
X35057Y21617D02*
Y23717D01*
X34807Y21117D02*
Y24217D01*
Y20917D02*
Y21117D01*
Y20917D02*
X35857D01*
X25760Y34149D02*
X33720D01*
Y37731D01*
X25760D02*
X33720D01*
X25760Y34149D02*
Y37731D01*
X28854Y34149D02*
Y34680D01*
X30626Y34149D02*
Y34680D01*
X25760Y30399D02*
X33720D01*
Y33981D01*
X25760D02*
X33720D01*
X25760Y30399D02*
Y33981D01*
X28854Y30399D02*
Y30930D01*
X30626Y30399D02*
Y30930D01*
X28963Y18720D02*
X28750D01*
Y18400D01*
X28963D01*
X28750Y18560D02*
X28857D01*
X29070Y18400D02*
Y18720D01*
X29230D01*
X29283Y18667D01*
Y18560D01*
X29230Y18507D01*
X29070D01*
X29177D02*
X29283Y18400D01*
X29603Y18720D02*
X29390D01*
Y18400D01*
X29603D01*
X29390Y18560D02*
X29496D01*
X29923Y18720D02*
X29710D01*
Y18560D01*
X29816D01*
X29710D01*
Y18400D01*
X28140Y16330D02*
X28353D01*
Y16277D01*
X28140Y16063D01*
Y16010D01*
X28353D01*
X28460D02*
Y16330D01*
X28620D01*
X28673Y16277D01*
Y16170D01*
X28620Y16117D01*
X28460D01*
X28567D02*
X28673Y16010D01*
X28993Y16330D02*
X28780D01*
Y16010D01*
X28993D01*
X28780Y16170D02*
X28886D01*
X29313Y16330D02*
X29100D01*
Y16170D01*
X29206D01*
X29100D01*
Y16010D01*
X24310Y18550D02*
X24523Y18230D01*
Y18550D02*
X24310Y18230D01*
X24630D02*
Y18550D01*
X24790D01*
X24843Y18497D01*
Y18390D01*
X24790Y18337D01*
X24630D01*
X24737D02*
X24843Y18230D01*
X25163Y18550D02*
X24950D01*
Y18230D01*
X25163D01*
X24950Y18390D02*
X25056D01*
X25483Y18550D02*
X25270D01*
Y18390D01*
X25376D01*
X25270D01*
Y18230D01*
X36230Y31813D02*
Y31600D01*
X36390D01*
X36337Y31707D01*
Y31760D01*
X36390Y31813D01*
X36497D01*
X36550Y31760D01*
Y31653D01*
X36497Y31600D01*
X36230Y31920D02*
X36443D01*
X36550Y32027D01*
X36443Y32133D01*
X36230D01*
X16378Y31658D02*
X16485D01*
X16431D01*
Y31339D01*
X16378D01*
X16485D01*
X16858Y31605D02*
X16804Y31658D01*
X16698D01*
X16645Y31605D01*
Y31392D01*
X16698Y31339D01*
X16804D01*
X16858Y31392D01*
X17178Y31605D02*
X17124Y31658D01*
X17018D01*
X16964Y31605D01*
Y31552D01*
X17018Y31499D01*
X17124D01*
X17178Y31445D01*
Y31392D01*
X17124Y31339D01*
X17018D01*
X16964Y31392D01*
X17284Y31339D02*
Y31658D01*
X17444D01*
X17498Y31605D01*
Y31499D01*
X17444Y31445D01*
X17284D01*
X17604Y31499D02*
X17817D01*
X17924Y31339D02*
X18031D01*
X17977D01*
Y31658D01*
X17924Y31605D01*
X22283Y29080D02*
X22390D01*
X22337D01*
Y28760D01*
X22283D01*
X22390D01*
X22763Y29026D02*
X22710Y29080D01*
X22603D01*
X22550Y29026D01*
Y28813D01*
X22603Y28760D01*
X22710D01*
X22763Y28813D01*
X23083Y29026D02*
X23030Y29080D01*
X22923D01*
X22870Y29026D01*
Y28973D01*
X22923Y28920D01*
X23030D01*
X23083Y28866D01*
Y28813D01*
X23030Y28760D01*
X22923D01*
X22870Y28813D01*
X23190Y28760D02*
Y29080D01*
X23350D01*
X23403Y29026D01*
Y28920D01*
X23350Y28866D01*
X23190D01*
X22874Y32367D02*
X23087D01*
Y32314D01*
X22874Y32101D01*
Y32047D01*
X23087D01*
X23194Y32207D02*
X23407D01*
X23514Y32047D02*
Y32367D01*
X23620Y32261D01*
X23727Y32367D01*
Y32047D01*
X23834D02*
Y32261D01*
X23940Y32367D01*
X24047Y32261D01*
Y32047D01*
Y32207D01*
X23834D01*
X24154Y32367D02*
X24367Y32047D01*
Y32367D02*
X24154Y32047D01*
X18740Y32367D02*
Y32314D01*
X18847Y32207D01*
X18953Y32314D01*
Y32367D01*
X18847Y32207D02*
Y32047D01*
X19060Y32207D02*
X19273D01*
X19380Y32047D02*
Y32367D01*
X19487Y32261D01*
X19593Y32367D01*
Y32047D01*
X19700D02*
Y32261D01*
X19806Y32367D01*
X19913Y32261D01*
Y32047D01*
Y32207D01*
X19700D01*
X20020Y32367D02*
X20233Y32047D01*
Y32367D02*
X20020Y32047D01*
X14646Y32367D02*
X14859Y32047D01*
Y32367D02*
X14646Y32047D01*
X14966Y32207D02*
X15179D01*
X15285Y32047D02*
Y32367D01*
X15392Y32261D01*
X15499Y32367D01*
Y32047D01*
X15605D02*
Y32261D01*
X15712Y32367D01*
X15819Y32261D01*
Y32047D01*
Y32207D01*
X15605D01*
X15925Y32367D02*
X16139Y32047D01*
Y32367D02*
X15925Y32047D01*
X22953Y37210D02*
X23166D01*
Y37156D01*
X22953Y36943D01*
Y36890D01*
X23166D01*
X23273Y37050D02*
X23486D01*
X23593Y36890D02*
Y37210D01*
X23699Y37103D01*
X23806Y37210D01*
Y36890D01*
X23912Y37210D02*
X24019D01*
X23966D01*
Y36890D01*
X23912D01*
X24019D01*
X24179D02*
Y37210D01*
X24392Y36890D01*
Y37210D01*
X18858D02*
Y37156D01*
X18965Y37050D01*
X19072Y37156D01*
Y37210D01*
X18965Y37050D02*
Y36890D01*
X19178Y37050D02*
X19391D01*
X19498Y36890D02*
Y37210D01*
X19605Y37103D01*
X19711Y37210D01*
Y36890D01*
X19818Y37210D02*
X19925D01*
X19871D01*
Y36890D01*
X19818D01*
X19925D01*
X20085D02*
Y37210D01*
X20298Y36890D01*
Y37210D01*
X14724D02*
X14938Y36890D01*
Y37210D02*
X14724Y36890D01*
X15044Y37050D02*
X15258D01*
X15364Y36890D02*
Y37210D01*
X15471Y37103D01*
X15577Y37210D01*
Y36890D01*
X15684Y37210D02*
X15791D01*
X15737D01*
Y36890D01*
X15684D01*
X15791D01*
X15951D02*
Y37210D01*
X16164Y36890D01*
Y37210D01*
X20000Y26142D02*
Y26462D01*
X20160D01*
X20213Y26408D01*
Y26302D01*
X20160Y26248D01*
X20000D01*
X20107D02*
X20213Y26142D01*
X20320Y26462D02*
X20533Y26142D01*
Y26462D02*
X20320Y26142D01*
X19961Y27013D02*
X20174D01*
X20067D01*
Y26693D01*
X20281Y27013D02*
X20494Y26693D01*
Y27013D02*
X20281Y26693D01*
X10440Y34340D02*
Y33840D01*
X10540Y33740D01*
X10740D01*
X10840Y33840D01*
Y34340D01*
X11530Y22910D02*
X11743D01*
X11637Y23017D02*
Y22803D01*
X15350Y10180D02*
X15563Y9860D01*
Y10180D02*
X15350Y9860D01*
X15990D02*
Y10180D01*
X16096Y10073D01*
X16203Y10180D01*
Y9860D01*
X16470Y10180D02*
X16363D01*
X16310Y10127D01*
Y9913D01*
X16363Y9860D01*
X16470D01*
X16523Y9913D01*
Y10127D01*
X16470Y10180D01*
X16630D02*
X16843D01*
X16736D01*
Y9860D01*
X12790Y22870D02*
X12950D01*
X13003Y22923D01*
X12950Y22977D01*
X12843D01*
X12790Y23030D01*
X12843Y23083D01*
X13003D01*
X25000Y12918D02*
X25213D01*
Y12865D01*
X25000Y12652D01*
Y12598D01*
X25213D01*
X25640D02*
Y12918D01*
X25746Y12812D01*
X25853Y12918D01*
Y12598D01*
X26120Y12918D02*
X26013D01*
X25960Y12865D01*
Y12652D01*
X26013Y12598D01*
X26120D01*
X26173Y12652D01*
Y12865D01*
X26120Y12918D01*
X26280D02*
X26493D01*
X26386D01*
Y12598D01*
X26759Y12918D02*
X26653D01*
X26599Y12865D01*
Y12652D01*
X26653Y12598D01*
X26759D01*
X26813Y12652D01*
Y12865D01*
X26759Y12918D01*
X26919Y12598D02*
Y12918D01*
X27079D01*
X27133Y12865D01*
Y12758D01*
X27079Y12705D01*
X26919D01*
X27026D02*
X27133Y12598D01*
X27772D02*
X27559D01*
X27772Y12812D01*
Y12865D01*
X27719Y12918D01*
X27612D01*
X27559Y12865D01*
X25040Y10180D02*
X25253D01*
Y10127D01*
X25040Y9913D01*
Y9860D01*
X25253D01*
X25680D02*
Y10180D01*
X25786Y10073D01*
X25893Y10180D01*
Y9860D01*
X26160Y10180D02*
X26053D01*
X26000Y10127D01*
Y9913D01*
X26053Y9860D01*
X26160D01*
X26213Y9913D01*
Y10127D01*
X26160Y10180D01*
X26320D02*
X26533D01*
X26426D01*
Y9860D01*
X26799Y10180D02*
X26693D01*
X26639Y10127D01*
Y9913D01*
X26693Y9860D01*
X26799D01*
X26853Y9913D01*
Y10127D01*
X26799Y10180D01*
X26959Y9860D02*
Y10180D01*
X27119D01*
X27173Y10127D01*
Y10020D01*
X27119Y9967D01*
X26959D01*
X27066D02*
X27173Y9860D01*
X27599D02*
X27706D01*
X27652D01*
Y10180D01*
X27599Y10127D01*
X12190Y22920D02*
X12403D01*
X20090Y10180D02*
Y10127D01*
X20197Y10020D01*
X20303Y10127D01*
Y10180D01*
X20197Y10020D02*
Y9860D01*
X20730D02*
Y10180D01*
X20836Y10073D01*
X20943Y10180D01*
Y9860D01*
X21210Y10180D02*
X21103D01*
X21050Y10127D01*
Y9913D01*
X21103Y9860D01*
X21210D01*
X21263Y9913D01*
Y10127D01*
X21210Y10180D01*
X21370D02*
X21583D01*
X21476D01*
Y9860D01*
X21849Y10180D02*
X21743D01*
X21689Y10127D01*
Y9913D01*
X21743Y9860D01*
X21849D01*
X21903Y9913D01*
Y10127D01*
X21849Y10180D01*
X22009Y9860D02*
Y10180D01*
X22169D01*
X22223Y10127D01*
Y10020D01*
X22169Y9967D01*
X22009D01*
X22116D02*
X22223Y9860D01*
X39400Y30670D02*
Y30350D01*
Y30510D01*
X39613D01*
Y30670D01*
Y30350D01*
X39773Y30563D02*
X39880D01*
X39933Y30510D01*
Y30350D01*
X39773D01*
X39720Y30403D01*
X39773Y30457D01*
X39933D01*
X40040Y30563D02*
Y30350D01*
Y30457D01*
X40093Y30510D01*
X40146Y30563D01*
X40200D01*
X40573Y30670D02*
Y30350D01*
X40413D01*
X40360Y30403D01*
Y30510D01*
X40413Y30563D01*
X40573D01*
X40680D02*
Y30403D01*
X40733Y30350D01*
X40786Y30403D01*
X40840Y30350D01*
X40893Y30403D01*
Y30563D01*
X41053D02*
X41159D01*
X41213Y30510D01*
Y30350D01*
X41053D01*
X40999Y30403D01*
X41053Y30457D01*
X41213D01*
X41319Y30563D02*
Y30350D01*
Y30457D01*
X41373Y30510D01*
X41426Y30563D01*
X41479D01*
X41799Y30350D02*
X41693D01*
X41639Y30403D01*
Y30510D01*
X41693Y30563D01*
X41799D01*
X41853Y30510D01*
Y30457D01*
X41639D01*
X39140Y31210D02*
X39033D01*
X38980Y31157D01*
Y30943D01*
X39033Y30890D01*
X39140D01*
X39193Y30943D01*
Y31157D01*
X39140Y31210D01*
X39300Y30783D02*
Y31103D01*
X39460D01*
X39513Y31050D01*
Y30943D01*
X39460Y30890D01*
X39300D01*
X39780D02*
X39673D01*
X39620Y30943D01*
Y31050D01*
X39673Y31103D01*
X39780D01*
X39833Y31050D01*
Y30997D01*
X39620D01*
X39940Y30890D02*
Y31103D01*
X40100D01*
X40153Y31050D01*
Y30890D01*
X40793Y31157D02*
X40739Y31210D01*
X40633D01*
X40579Y31157D01*
Y31103D01*
X40633Y31050D01*
X40739D01*
X40793Y30997D01*
Y30943D01*
X40739Y30890D01*
X40633D01*
X40579Y30943D01*
X40953Y30890D02*
X41059D01*
X41113Y30943D01*
Y31050D01*
X41059Y31103D01*
X40953D01*
X40899Y31050D01*
Y30943D01*
X40953Y30890D01*
X41219Y31103D02*
Y30943D01*
X41273Y30890D01*
X41433D01*
Y31103D01*
X41539D02*
Y30890D01*
Y30997D01*
X41592Y31050D01*
X41646Y31103D01*
X41699D01*
X42072D02*
X41912D01*
X41859Y31050D01*
Y30943D01*
X41912Y30890D01*
X42072D01*
X42339D02*
X42232D01*
X42179Y30943D01*
Y31050D01*
X42232Y31103D01*
X42339D01*
X42392Y31050D01*
Y30997D01*
X42179D01*
X30523Y10180D02*
X30310D01*
Y9860D01*
X30523D01*
X30310Y10020D02*
X30417D01*
X30950Y9860D02*
Y10180D01*
X31056Y10073D01*
X31163Y10180D01*
Y9860D01*
X31430Y10180D02*
X31323D01*
X31270Y10127D01*
Y9913D01*
X31323Y9860D01*
X31430D01*
X31483Y9913D01*
Y10127D01*
X31430Y10180D01*
X31590D02*
X31803D01*
X31696D01*
Y9860D01*
X32069Y10180D02*
X31963D01*
X31909Y10127D01*
Y9913D01*
X31963Y9860D01*
X32069D01*
X32123Y9913D01*
Y10127D01*
X32069Y10180D01*
X32229Y9860D02*
Y10180D01*
X32389D01*
X32443Y10127D01*
Y10020D01*
X32389Y9967D01*
X32229D01*
X32336D02*
X32443Y9860D01*
X50170Y13120D02*
Y13227D01*
Y13173D01*
X49850D01*
X49903Y13120D01*
D124*
X33897Y32557D02*
X35897D01*
X33897Y37557D02*
X35897D01*
Y32557D02*
Y37557D01*
X33897Y32557D02*
Y37557D01*
X41691Y33096D02*
X42203D01*
X41691Y34435D02*
X42203D01*
X37178Y32467D02*
X37316D01*
X37178Y34633D02*
X37316D01*
X39284Y32467D02*
X39422D01*
X39284Y34633D02*
X39422D01*
X37178Y32467D02*
Y34633D01*
X39422Y32467D02*
Y34633D01*
X42193Y32295D02*
X42507D01*
X42193Y32885D02*
X42507D01*
X46525Y12036D02*
Y12824D01*
X45895Y12036D02*
Y12824D01*
X43366Y18065D02*
X44154D01*
X43366Y18695D02*
X44154D01*
X40223Y36260D02*
X41877D01*
X40223Y35040D02*
X41877D01*
X11413Y17493D02*
Y17660D01*
X11581D01*
X13372D02*
X13539D01*
Y17493D02*
Y17660D01*
Y15141D02*
Y15308D01*
X13372Y15141D02*
X13539D01*
X11413D02*
Y15308D01*
Y15141D02*
X11581D01*
X15887Y14781D02*
X16054D01*
X15887D02*
Y14948D01*
X17846Y14781D02*
X18013D01*
Y14948D01*
Y17133D02*
Y17300D01*
X17846D02*
X18013D01*
X15887D02*
X16054D01*
X15887Y17133D02*
Y17300D01*
X20387Y17133D02*
Y17300D01*
X20554D01*
X22346D02*
X22513D01*
Y17133D02*
Y17300D01*
Y14781D02*
Y14948D01*
X22346Y14781D02*
X22513D01*
X20387D02*
Y14948D01*
Y14781D02*
X20554D01*
X30027Y17133D02*
Y17300D01*
X30194D01*
X31986D02*
X32153D01*
Y17133D02*
Y17300D01*
Y14781D02*
Y14948D01*
X31986Y14781D02*
X32153D01*
X30027D02*
Y14948D01*
Y14781D02*
X30194D01*
X26193Y34680D02*
X33287D01*
X26193Y37200D02*
X33287D01*
X26193Y34680D02*
Y37200D01*
X33287Y34680D02*
Y37200D01*
X26193Y30930D02*
X33287D01*
X26193Y33450D02*
X33287D01*
X26193Y30930D02*
Y33450D01*
X33287Y30930D02*
Y33450D01*
D125*
X42173Y22384D02*
Y25142D01*
X39613Y22384D02*
Y25142D01*
D126*
X38107Y35651D02*
D03*
D127*
X35699Y26034D02*
D03*
X45290Y34840D02*
D03*
X19527Y27135D02*
D03*
X19518Y25798D02*
D03*
D128*
X35939Y26034D02*
D03*
X45050Y34840D02*
D03*
X19287Y27135D02*
D03*
X19758Y25798D02*
D03*
D129*
X35463Y26034D02*
D03*
X45526Y34840D02*
D03*
X19764Y27135D02*
D03*
X19282Y25798D02*
D03*
D130*
X38020Y15101D02*
D03*
X38008Y12229D02*
D03*
X44710Y29127D02*
D03*
X35429Y18927D02*
D03*
D131*
X35503Y27450D02*
D03*
X38580Y17351D02*
D03*
X10990Y29650D02*
D03*
Y28850D02*
D03*
D132*
X35503Y27211D02*
D03*
X38580Y17590D02*
D03*
X10990Y29890D02*
D03*
Y29090D02*
D03*
D133*
X35503Y27687D02*
D03*
X38580Y17114D02*
D03*
X10990Y29414D02*
D03*
Y28614D02*
D03*
D134*
X40889Y23181D02*
D03*
M02*
