G04 Layer_Color=2752767*
%FSLAX24Y24*%
%MOIN*%
G70*
G01*
G75*
%ADD119C,0.0050*%
%ADD121C,0.0040*%
%ADD326C,0.0067*%
D119*
X27540Y31490D02*
Y31890D01*
X27940D01*
Y31490D01*
X27540D01*
Y32490D02*
Y32890D01*
X27940D01*
Y32490D01*
X27540D01*
X28540Y31490D02*
Y31890D01*
X28940D01*
Y31490D01*
X28540D01*
Y32490D02*
Y32890D01*
X28940D01*
Y32490D01*
X28540D01*
X29540Y31490D02*
Y31890D01*
X29940D01*
Y31490D01*
X29540D01*
Y32490D02*
Y32890D01*
X29940D01*
Y32490D01*
X29540D01*
X30540Y31490D02*
Y31890D01*
X30940D01*
Y31490D01*
X30540D01*
Y32490D02*
Y32890D01*
X30940D01*
Y32490D01*
X30540D01*
X31540Y31490D02*
Y31890D01*
X31940D01*
Y31490D01*
X31540D01*
Y32490D02*
Y32890D01*
X31940D01*
Y32490D01*
X31540D01*
X27540Y35240D02*
Y35640D01*
X27940D01*
Y35240D01*
X27540D01*
Y36240D02*
Y36640D01*
X27940D01*
Y36240D01*
X27540D01*
X28540Y35240D02*
Y35640D01*
X28940D01*
Y35240D01*
X28540D01*
Y36240D02*
Y36640D01*
X28940D01*
Y36240D01*
X28540D01*
X29540Y35240D02*
Y35640D01*
X29940D01*
Y35240D01*
X29540D01*
Y36240D02*
Y36640D01*
X29940D01*
Y36240D01*
X29540D01*
X30540Y35240D02*
Y35640D01*
X30940D01*
Y35240D01*
X30540D01*
Y36240D02*
Y36640D01*
X30940D01*
Y36240D01*
X30540D01*
X31540Y35240D02*
Y35640D01*
X31940D01*
Y35240D01*
X31540D01*
Y36240D02*
Y36640D01*
X31940D01*
Y36240D01*
X31540D01*
X36057Y22517D02*
X35857Y22917D01*
X36257D01*
X36057Y22517D01*
X38057D02*
X37857Y22917D01*
X38257D01*
X38057Y22517D01*
X33000Y11221D02*
X33100Y11321D01*
X33200D01*
X33100Y11421D01*
X33200Y11521D01*
X33100D01*
X33000Y11621D01*
X32900Y11521D01*
X32800D01*
X32900Y11421D01*
X32800Y11321D01*
X32900D01*
X33000Y11221D01*
X32000D02*
X32100Y11321D01*
X32200D01*
X32100Y11421D01*
X32200Y11521D01*
X32100D01*
X32000Y11621D01*
X31900Y11521D01*
X31800D01*
X31900Y11421D01*
X31800Y11321D01*
X31900D01*
X32000Y11221D01*
X31000D02*
X31100Y11321D01*
X31200D01*
X31100Y11421D01*
X31200Y11521D01*
X31100D01*
X31000Y11621D01*
X30900Y11521D01*
X30800D01*
X30900Y11421D01*
X30800Y11321D01*
X30900D01*
X31000Y11221D01*
X30000D02*
X30100Y11321D01*
X30200D01*
X30100Y11421D01*
X30200Y11521D01*
X30100D01*
X30000Y11621D01*
X29900Y11521D01*
X29800D01*
X29900Y11421D01*
X29800Y11321D01*
X29900D01*
X30000Y11221D01*
X27878Y13973D02*
X27978Y14073D01*
X28078D01*
X27978Y14173D01*
X28078Y14273D01*
X27978D01*
X27878Y14373D01*
X27778Y14273D01*
X27678D01*
X27778Y14173D01*
X27678Y14073D01*
X27778D01*
X27878Y13973D01*
X26878D02*
X26978Y14073D01*
X27078D01*
X26978Y14173D01*
X27078Y14273D01*
X26978D01*
X26878Y14373D01*
X26778Y14273D01*
X26678D01*
X26778Y14173D01*
X26678Y14073D01*
X26778D01*
X26878Y13973D01*
X25878D02*
X25978Y14073D01*
X26078D01*
X25978Y14173D01*
X26078Y14273D01*
X25978D01*
X25878Y14373D01*
X25778Y14273D01*
X25678D01*
X25778Y14173D01*
X25678Y14073D01*
X25778D01*
X25878Y13973D01*
X24878D02*
X24978Y14073D01*
X25078D01*
X24978Y14173D01*
X25078Y14273D01*
X24978D01*
X24878Y14373D01*
X24778Y14273D01*
X24678D01*
X24778Y14173D01*
X24678Y14073D01*
X24778D01*
X24878Y13973D01*
X27878Y11217D02*
X27978Y11317D01*
X28078D01*
X27978Y11417D01*
X28078Y11517D01*
X27978D01*
X27878Y11617D01*
X27778Y11517D01*
X27678D01*
X27778Y11417D01*
X27678Y11317D01*
X27778D01*
X27878Y11217D01*
X26878D02*
X26978Y11317D01*
X27078D01*
X26978Y11417D01*
X27078Y11517D01*
X26978D01*
X26878Y11617D01*
X26778Y11517D01*
X26678D01*
X26778Y11417D01*
X26678Y11317D01*
X26778D01*
X26878Y11217D01*
X25878D02*
X25978Y11317D01*
X26078D01*
X25978Y11417D01*
X26078Y11517D01*
X25978D01*
X25878Y11617D01*
X25778Y11517D01*
X25678D01*
X25778Y11417D01*
X25678Y11317D01*
X25778D01*
X25878Y11217D01*
X24878D02*
X24978Y11317D01*
X25078D01*
X24978Y11417D01*
X25078Y11517D01*
X24978D01*
X24878Y11617D01*
X24778Y11517D01*
X24678D01*
X24778Y11417D01*
X24678Y11317D01*
X24778D01*
X24878Y11217D01*
X48313Y10911D02*
X48413Y11111D01*
X48313Y11311D01*
X48513Y11211D01*
X48713Y11311D01*
X48613Y11111D01*
X48713Y10911D01*
X48513Y11011D01*
X48313Y10911D01*
X49713D02*
X49813Y11111D01*
X49713Y11311D01*
X49913Y11211D01*
X50113Y11311D01*
X50013Y11111D01*
X50113Y10911D01*
X49913Y11011D01*
X49713Y10911D01*
Y12311D02*
X49813Y12511D01*
X49713Y12711D01*
X49913Y12611D01*
X50113Y12711D01*
X50013Y12511D01*
X50113Y12311D01*
X49913Y12411D01*
X49713Y12311D01*
X48313D02*
X48413Y12511D01*
X48313Y12711D01*
X48513Y12611D01*
X48713Y12711D01*
X48613Y12511D01*
X48713Y12311D01*
X48513Y12411D01*
X48313Y12311D01*
X48013Y11611D02*
X48113Y11811D01*
X48013Y12011D01*
X48213Y11911D01*
X48413Y12011D01*
X48313Y11811D01*
X48413Y11611D01*
X48213Y11711D01*
X48013Y11611D01*
X50013D02*
X50113Y11811D01*
X50013Y12011D01*
X50213Y11911D01*
X50413Y12011D01*
X50313Y11811D01*
X50413Y11611D01*
X50213Y11711D01*
X50013Y11611D01*
X49013Y12611D02*
X49113Y12811D01*
X49013Y13011D01*
X49213Y12911D01*
X49413Y13011D01*
X49313Y12811D01*
X49413Y12611D01*
X49213Y12711D01*
X49013Y12611D01*
Y10611D02*
X49113Y10811D01*
X49013Y11011D01*
X49213Y10911D01*
X49413Y11011D01*
X49313Y10811D01*
X49413Y10611D01*
X49213Y10711D01*
X49013Y10611D01*
X49113Y11711D02*
Y11611D01*
X49313D01*
Y11711D01*
X49413D01*
Y11911D01*
X49313D01*
Y12011D01*
X49113D01*
Y11911D01*
X49013D01*
Y11711D01*
X49113D01*
X10911Y10911D02*
X11011Y11111D01*
X10911Y11311D01*
X11111Y11211D01*
X11311Y11311D01*
X11211Y11111D01*
X11311Y10911D01*
X11111Y11011D01*
X10911Y10911D01*
X12311D02*
X12411Y11111D01*
X12311Y11311D01*
X12511Y11211D01*
X12711Y11311D01*
X12611Y11111D01*
X12711Y10911D01*
X12511Y11011D01*
X12311Y10911D01*
Y12311D02*
X12411Y12511D01*
X12311Y12711D01*
X12511Y12611D01*
X12711Y12711D01*
X12611Y12511D01*
X12711Y12311D01*
X12511Y12411D01*
X12311Y12311D01*
X10911D02*
X11011Y12511D01*
X10911Y12711D01*
X11111Y12611D01*
X11311Y12711D01*
X11211Y12511D01*
X11311Y12311D01*
X11111Y12411D01*
X10911Y12311D01*
X10611Y11611D02*
X10711Y11811D01*
X10611Y12011D01*
X10811Y11911D01*
X11011Y12011D01*
X10911Y11811D01*
X11011Y11611D01*
X10811Y11711D01*
X10611Y11611D01*
X12611D02*
X12711Y11811D01*
X12611Y12011D01*
X12811Y11911D01*
X13011Y12011D01*
X12911Y11811D01*
X13011Y11611D01*
X12811Y11711D01*
X12611Y11611D01*
X11611Y12611D02*
X11711Y12811D01*
X11611Y13011D01*
X11811Y12911D01*
X12011Y13011D01*
X11911Y12811D01*
X12011Y12611D01*
X11811Y12711D01*
X11611Y12611D01*
Y10611D02*
X11711Y10811D01*
X11611Y11011D01*
X11811Y10911D01*
X12011Y11011D01*
X11911Y10811D01*
X12011Y10611D01*
X11811Y10711D01*
X11611Y10611D01*
X11711Y11711D02*
Y11611D01*
X11911D01*
Y11711D01*
X12011D01*
Y11911D01*
X11911D01*
Y12011D01*
X11711D01*
Y11911D01*
X11611D01*
Y11711D01*
X11711D01*
X10911Y34927D02*
X11011Y35127D01*
X10911Y35327D01*
X11111Y35227D01*
X11311Y35327D01*
X11211Y35127D01*
X11311Y34927D01*
X11111Y35027D01*
X10911Y34927D01*
X12311D02*
X12411Y35127D01*
X12311Y35327D01*
X12511Y35227D01*
X12711Y35327D01*
X12611Y35127D01*
X12711Y34927D01*
X12511Y35027D01*
X12311Y34927D01*
Y36327D02*
X12411Y36527D01*
X12311Y36727D01*
X12511Y36627D01*
X12711Y36727D01*
X12611Y36527D01*
X12711Y36327D01*
X12511Y36427D01*
X12311Y36327D01*
X10911D02*
X11011Y36527D01*
X10911Y36727D01*
X11111Y36627D01*
X11311Y36727D01*
X11211Y36527D01*
X11311Y36327D01*
X11111Y36427D01*
X10911Y36327D01*
X10611Y35627D02*
X10711Y35827D01*
X10611Y36027D01*
X10811Y35927D01*
X11011Y36027D01*
X10911Y35827D01*
X11011Y35627D01*
X10811Y35727D01*
X10611Y35627D01*
X12611D02*
X12711Y35827D01*
X12611Y36027D01*
X12811Y35927D01*
X13011Y36027D01*
X12911Y35827D01*
X13011Y35627D01*
X12811Y35727D01*
X12611Y35627D01*
X11611Y36627D02*
X11711Y36827D01*
X11611Y37027D01*
X11811Y36927D01*
X12011Y37027D01*
X11911Y36827D01*
X12011Y36627D01*
X11811Y36727D01*
X11611Y36627D01*
Y34627D02*
X11711Y34827D01*
X11611Y35027D01*
X11811Y34927D01*
X12011Y35027D01*
X11911Y34827D01*
X12011Y34627D01*
X11811Y34727D01*
X11611Y34627D01*
X11711Y35727D02*
Y35627D01*
X11911D01*
Y35727D01*
X12011D01*
Y35927D01*
X11911D01*
Y36027D01*
X11711D01*
Y35927D01*
X11611D01*
Y35727D01*
X11711D01*
X48313Y34927D02*
X48413Y35127D01*
X48313Y35327D01*
X48513Y35227D01*
X48713Y35327D01*
X48613Y35127D01*
X48713Y34927D01*
X48513Y35027D01*
X48313Y34927D01*
X49713D02*
X49813Y35127D01*
X49713Y35327D01*
X49913Y35227D01*
X50113Y35327D01*
X50013Y35127D01*
X50113Y34927D01*
X49913Y35027D01*
X49713Y34927D01*
Y36327D02*
X49813Y36527D01*
X49713Y36727D01*
X49913Y36627D01*
X50113Y36727D01*
X50013Y36527D01*
X50113Y36327D01*
X49913Y36427D01*
X49713Y36327D01*
X48313D02*
X48413Y36527D01*
X48313Y36727D01*
X48513Y36627D01*
X48713Y36727D01*
X48613Y36527D01*
X48713Y36327D01*
X48513Y36427D01*
X48313Y36327D01*
X48013Y35627D02*
X48113Y35827D01*
X48013Y36027D01*
X48213Y35927D01*
X48413Y36027D01*
X48313Y35827D01*
X48413Y35627D01*
X48213Y35727D01*
X48013Y35627D01*
X50013D02*
X50113Y35827D01*
X50013Y36027D01*
X50213Y35927D01*
X50413Y36027D01*
X50313Y35827D01*
X50413Y35627D01*
X50213Y35727D01*
X50013Y35627D01*
X49013Y36627D02*
X49113Y36827D01*
X49013Y37027D01*
X49213Y36927D01*
X49413Y37027D01*
X49313Y36827D01*
X49413Y36627D01*
X49213Y36727D01*
X49013Y36627D01*
Y34627D02*
X49113Y34827D01*
X49013Y35027D01*
X49213Y34927D01*
X49413Y35027D01*
X49313Y34827D01*
X49413Y34627D01*
X49213Y34727D01*
X49013Y34627D01*
X49113Y35727D02*
Y35627D01*
X49313D01*
Y35727D01*
X49413D01*
Y35927D01*
X49313D01*
Y36027D01*
X49113D01*
Y35927D01*
X49013D01*
Y35727D01*
X49113D01*
X10927Y32580D02*
X11027Y32680D01*
X11127D01*
X11027Y32780D01*
X11127Y32880D01*
X11027D01*
X10927Y32980D01*
X10827Y32880D01*
X10727D01*
X10827Y32780D01*
X10727Y32680D01*
X10827D01*
X10927Y32580D01*
Y30800D02*
X11027Y30900D01*
X11127D01*
X11027Y31000D01*
X11127Y31100D01*
X11027D01*
X10927Y31200D01*
X10827Y31100D01*
X10727D01*
X10827Y31000D01*
X10727Y30900D01*
X10827D01*
X10927Y30800D01*
X11707Y33070D02*
X11807D01*
X11907Y33170D01*
X12007Y33070D01*
X12107D01*
Y33170D01*
X12007Y33270D01*
X12107Y33370D01*
Y33470D01*
X12007D01*
X11907Y33370D01*
X11807Y33470D01*
X11707D01*
Y33370D01*
X11807Y33270D01*
X11707Y33170D01*
Y33070D01*
Y30310D02*
X11807D01*
X11907Y30410D01*
X12007Y30310D01*
X12107D01*
Y30410D01*
X12007Y30510D01*
X12107Y30610D01*
Y30710D01*
X12007D01*
X11907Y30610D01*
X11807Y30710D01*
X11707D01*
Y30610D01*
X11807Y30510D01*
X11707Y30410D01*
Y30310D01*
X12398Y22827D02*
X12598Y23027D01*
X12798Y22827D01*
X12598Y22627D01*
X12398Y22827D01*
Y27559D02*
X12598Y27759D01*
X12798Y27559D01*
X12598Y27359D01*
X12398Y27559D01*
X13468Y24497D02*
Y24897D01*
X13868D01*
Y24497D01*
X13468D01*
X13548Y24577D02*
Y24817D01*
X13788D01*
Y24577D01*
X13548D01*
X13468Y25489D02*
Y25889D01*
X13868D01*
Y25489D01*
X13468D01*
X13548Y25569D02*
Y25809D01*
X13788D01*
Y25569D01*
X13548D01*
X14258Y25489D02*
Y25889D01*
X14658D01*
Y25489D01*
X14258D01*
X14338Y25569D02*
Y25809D01*
X14578D01*
Y25569D01*
X14338D01*
X14258Y24497D02*
Y24897D01*
X14658D01*
Y24497D01*
X14258D01*
X14338Y24577D02*
Y24817D01*
X14578D01*
Y24577D01*
X14338D01*
X21221Y29476D02*
Y29876D01*
X21621D01*
Y29476D01*
X21221D01*
X21301Y29556D02*
Y29796D01*
X21541D01*
Y29556D01*
X21301D01*
X21221Y30476D02*
Y30876D01*
X21621D01*
Y30476D01*
X21221D01*
X21301Y30556D02*
Y30796D01*
X21541D01*
Y30556D01*
X21301D01*
X22221Y29476D02*
Y29876D01*
X22621D01*
Y29476D01*
X22221D01*
X22301Y29556D02*
Y29796D01*
X22541D01*
Y29556D01*
X22301D01*
X22221Y30476D02*
Y30876D01*
X22621D01*
Y30476D01*
X22221D01*
X22301Y30556D02*
Y30796D01*
X22541D01*
Y30556D01*
X22301D01*
X23221Y29476D02*
Y29876D01*
X23621D01*
Y29476D01*
X23221D01*
X23301Y29556D02*
Y29796D01*
X23541D01*
Y29556D01*
X23301D01*
X23221Y30476D02*
Y30876D01*
X23621D01*
Y30476D01*
X23221D01*
X23301Y30556D02*
Y30796D01*
X23541D01*
Y30556D01*
X23301D01*
X15495Y29476D02*
Y29876D01*
X15895D01*
Y29476D01*
X15495D01*
X15575Y29556D02*
Y29796D01*
X15815D01*
Y29556D01*
X15575D01*
X15495Y30476D02*
Y30876D01*
X15895D01*
Y30476D01*
X15495D01*
X15575Y30556D02*
Y30796D01*
X15815D01*
Y30556D01*
X15575D01*
X16495Y29476D02*
Y29876D01*
X16895D01*
Y29476D01*
X16495D01*
X16575Y29556D02*
Y29796D01*
X16815D01*
Y29556D01*
X16575D01*
X16495Y30476D02*
Y30876D01*
X16895D01*
Y30476D01*
X16495D01*
X16575Y30556D02*
Y30796D01*
X16815D01*
Y30556D01*
X16575D01*
X17495Y29476D02*
Y29876D01*
X17895D01*
Y29476D01*
X17495D01*
X17575Y29556D02*
Y29796D01*
X17815D01*
Y29556D01*
X17575D01*
X17495Y30476D02*
Y30876D01*
X17895D01*
Y30476D01*
X17495D01*
X17575Y30556D02*
Y30796D01*
X17815D01*
Y30556D01*
X17575D01*
X24622Y35627D02*
X24722Y35727D01*
X24822D01*
X24722Y35827D01*
X24822Y35927D01*
X24722D01*
X24622Y36027D01*
X24522Y35927D01*
X24422D01*
X24522Y35827D01*
X24422Y35727D01*
X24522D01*
X24622Y35627D01*
X23622D02*
X23722Y35727D01*
X23822D01*
X23722Y35827D01*
X23822Y35927D01*
X23722D01*
X23622Y36027D01*
X23522Y35927D01*
X23422D01*
X23522Y35827D01*
X23422Y35727D01*
X23522D01*
X23622Y35627D01*
X22622D02*
X22722Y35727D01*
X22822D01*
X22722Y35827D01*
X22822Y35927D01*
X22722D01*
X22622Y36027D01*
X22522Y35927D01*
X22422D01*
X22522Y35827D01*
X22422Y35727D01*
X22522D01*
X22622Y35627D01*
X18488D02*
X18588Y35727D01*
X18688D01*
X18588Y35827D01*
X18688Y35927D01*
X18588D01*
X18488Y36027D01*
X18388Y35927D01*
X18288D01*
X18388Y35827D01*
X18288Y35727D01*
X18388D01*
X18488Y35627D01*
X19488D02*
X19588Y35727D01*
X19688D01*
X19588Y35827D01*
X19688Y35927D01*
X19588D01*
X19488Y36027D01*
X19388Y35927D01*
X19288D01*
X19388Y35827D01*
X19288Y35727D01*
X19388D01*
X19488Y35627D01*
X20488D02*
X20588Y35727D01*
X20688D01*
X20588Y35827D01*
X20688Y35927D01*
X20588D01*
X20488Y36027D01*
X20388Y35927D01*
X20288D01*
X20388Y35827D01*
X20288Y35727D01*
X20388D01*
X20488Y35627D01*
X16354D02*
X16454Y35727D01*
X16554D01*
X16454Y35827D01*
X16554Y35927D01*
X16454D01*
X16354Y36027D01*
X16254Y35927D01*
X16154D01*
X16254Y35827D01*
X16154Y35727D01*
X16254D01*
X16354Y35627D01*
X15354D02*
X15454Y35727D01*
X15554D01*
X15454Y35827D01*
X15554Y35927D01*
X15454D01*
X15354Y36027D01*
X15254Y35927D01*
X15154D01*
X15254Y35827D01*
X15154Y35727D01*
X15254D01*
X15354Y35627D01*
X14354D02*
X14454Y35727D01*
X14554D01*
X14454Y35827D01*
X14554Y35927D01*
X14454D01*
X14354Y36027D01*
X14254Y35927D01*
X14154D01*
X14254Y35827D01*
X14154Y35727D01*
X14254D01*
X14354Y35627D01*
X33504Y27017D02*
X33604Y27117D01*
X33704D01*
X33604Y27217D01*
X33704Y27317D01*
X33604D01*
X33504Y27417D01*
X33404Y27317D01*
X33304D01*
X33404Y27217D01*
X33304Y27117D01*
X33404D01*
X33504Y27017D01*
Y28017D02*
X33604Y28117D01*
X33704D01*
X33604Y28217D01*
X33704Y28317D01*
X33604D01*
X33504Y28417D01*
X33404Y28317D01*
X33304D01*
X33404Y28217D01*
X33304Y28117D01*
X33404D01*
X33504Y28017D01*
Y23906D02*
X33604Y24006D01*
X33704D01*
X33604Y24106D01*
X33704Y24206D01*
X33604D01*
X33504Y24306D01*
X33404Y24206D01*
X33304D01*
X33404Y24106D01*
X33304Y24006D01*
X33404D01*
X33504Y23906D01*
Y24906D02*
X33604Y25006D01*
X33704D01*
X33604Y25106D01*
X33704Y25206D01*
X33604D01*
X33504Y25306D01*
X33404Y25206D01*
X33304D01*
X33404Y25106D01*
X33304Y25006D01*
X33404D01*
X33504Y24906D01*
X34990Y31170D02*
X35090Y31270D01*
X35190D01*
X35090Y31370D01*
X35190Y31470D01*
X35090D01*
X34990Y31570D01*
X34890Y31470D01*
X34790D01*
X34890Y31370D01*
X34790Y31270D01*
X34890D01*
X34990Y31170D01*
Y30170D02*
X35090Y30270D01*
X35190D01*
X35090Y30370D01*
X35190Y30470D01*
X35090D01*
X34990Y30570D01*
X34890Y30470D01*
X34790D01*
X34890Y30370D01*
X34790Y30270D01*
X34890D01*
X34990Y30170D01*
X37008Y27713D02*
X37108Y27813D01*
X37208D01*
X37108Y27913D01*
X37208Y28013D01*
X37108D01*
X37008Y28113D01*
X36908Y28013D01*
X36808D01*
X36908Y27913D01*
X36808Y27813D01*
X36908D01*
X37008Y27713D01*
X38008D02*
X38108Y27813D01*
X38208D01*
X38108Y27913D01*
X38208Y28013D01*
X38108D01*
X38008Y28113D01*
X37908Y28013D01*
X37808D01*
X37908Y27913D01*
X37808Y27813D01*
X37908D01*
X38008Y27713D01*
X37059Y25430D02*
X37159Y25530D01*
X37259D01*
X37159Y25630D01*
X37259Y25730D01*
X37159D01*
X37059Y25830D01*
X36959Y25730D01*
X36859D01*
X36959Y25630D01*
X36859Y25530D01*
X36959D01*
X37059Y25430D01*
X38059D02*
X38159Y25530D01*
X38259D01*
X38159Y25630D01*
X38259Y25730D01*
X38159D01*
X38059Y25830D01*
X37959Y25730D01*
X37859D01*
X37959Y25630D01*
X37859Y25530D01*
X37959D01*
X38059Y25430D01*
X22760Y11217D02*
X22860Y11317D01*
X22960D01*
X22860Y11417D01*
X22960Y11517D01*
X22860D01*
X22760Y11617D01*
X22660Y11517D01*
X22560D01*
X22660Y11417D01*
X22560Y11317D01*
X22660D01*
X22760Y11217D01*
X21760D02*
X21860Y11317D01*
X21960D01*
X21860Y11417D01*
X21960Y11517D01*
X21860D01*
X21760Y11617D01*
X21660Y11517D01*
X21560D01*
X21660Y11417D01*
X21560Y11317D01*
X21660D01*
X21760Y11217D01*
X20760D02*
X20860Y11317D01*
X20960D01*
X20860Y11417D01*
X20960Y11517D01*
X20860D01*
X20760Y11617D01*
X20660Y11517D01*
X20560D01*
X20660Y11417D01*
X20560Y11317D01*
X20660D01*
X20760Y11217D01*
X19760D02*
X19860Y11317D01*
X19960D01*
X19860Y11417D01*
X19960Y11517D01*
X19860D01*
X19760Y11617D01*
X19660Y11517D01*
X19560D01*
X19660Y11417D01*
X19560Y11317D01*
X19660D01*
X19760Y11217D01*
X20488Y33265D02*
X20588Y33365D01*
X20688D01*
X20588Y33465D01*
X20688Y33565D01*
X20588D01*
X20488Y33665D01*
X20388Y33565D01*
X20288D01*
X20388Y33465D01*
X20288Y33365D01*
X20388D01*
X20488Y33265D01*
X19488D02*
X19588Y33365D01*
X19688D01*
X19588Y33465D01*
X19688Y33565D01*
X19588D01*
X19488Y33665D01*
X19388Y33565D01*
X19288D01*
X19388Y33465D01*
X19288Y33365D01*
X19388D01*
X19488Y33265D01*
X18488D02*
X18588Y33365D01*
X18688D01*
X18588Y33465D01*
X18688Y33565D01*
X18588D01*
X18488Y33665D01*
X18388Y33565D01*
X18288D01*
X18388Y33465D01*
X18288Y33365D01*
X18388D01*
X18488Y33265D01*
X22622D02*
X22722Y33365D01*
X22822D01*
X22722Y33465D01*
X22822Y33565D01*
X22722D01*
X22622Y33665D01*
X22522Y33565D01*
X22422D01*
X22522Y33465D01*
X22422Y33365D01*
X22522D01*
X22622Y33265D01*
X23622D02*
X23722Y33365D01*
X23822D01*
X23722Y33465D01*
X23822Y33565D01*
X23722D01*
X23622Y33665D01*
X23522Y33565D01*
X23422D01*
X23522Y33465D01*
X23422Y33365D01*
X23522D01*
X23622Y33265D01*
X24622D02*
X24722Y33365D01*
X24822D01*
X24722Y33465D01*
X24822Y33565D01*
X24722D01*
X24622Y33665D01*
X24522Y33565D01*
X24422D01*
X24522Y33465D01*
X24422Y33365D01*
X24522D01*
X24622Y33265D01*
X16354D02*
X16454Y33365D01*
X16554D01*
X16454Y33465D01*
X16554Y33565D01*
X16454D01*
X16354Y33665D01*
X16254Y33565D01*
X16154D01*
X16254Y33465D01*
X16154Y33365D01*
X16254D01*
X16354Y33265D01*
X15354D02*
X15454Y33365D01*
X15554D01*
X15454Y33465D01*
X15554Y33565D01*
X15454D01*
X15354Y33665D01*
X15254Y33565D01*
X15154D01*
X15254Y33465D01*
X15154Y33365D01*
X15254D01*
X15354Y33265D01*
X14354D02*
X14454Y33365D01*
X14554D01*
X14454Y33465D01*
X14554Y33565D01*
X14454D01*
X14354Y33665D01*
X14254Y33565D01*
X14154D01*
X14254Y33465D01*
X14154Y33365D01*
X14254D01*
X14354Y33265D01*
X33504Y20796D02*
X33604Y20896D01*
X33704D01*
X33604Y20996D01*
X33704Y21096D01*
X33604D01*
X33504Y21196D01*
X33404Y21096D01*
X33304D01*
X33404Y20996D01*
X33304Y20896D01*
X33404D01*
X33504Y20796D01*
Y21796D02*
X33604Y21896D01*
X33704D01*
X33604Y21996D01*
X33704Y22096D01*
X33604D01*
X33504Y22196D01*
X33404Y22096D01*
X33304D01*
X33404Y21996D01*
X33304Y21896D01*
X33404D01*
X33504Y21796D01*
X35197Y32857D02*
Y33257D01*
X35597D01*
Y32857D01*
X35197D01*
X34197D02*
Y33257D01*
X34597D01*
Y32857D01*
X34197D01*
X35197Y33857D02*
Y34257D01*
X35597D01*
Y33857D01*
X35197D01*
X34197D02*
Y34257D01*
X34597D01*
Y33857D01*
X34197D01*
X35197Y34857D02*
Y35257D01*
X35597D01*
Y34857D01*
X35197D01*
X34197D02*
Y35257D01*
X34597D01*
Y34857D01*
X34197D01*
X35197Y35857D02*
Y36257D01*
X35597D01*
Y35857D01*
X35197D01*
X34197D02*
Y36257D01*
X34597D01*
Y35857D01*
X34197D01*
X35197Y36857D02*
Y37257D01*
X35597D01*
Y36857D01*
X35197D01*
X34197D02*
Y37257D01*
X34597D01*
Y36857D01*
X34197D01*
X17642Y11217D02*
X17742Y11317D01*
X17842D01*
X17742Y11417D01*
X17842Y11517D01*
X17742D01*
X17642Y11617D01*
X17542Y11517D01*
X17442D01*
X17542Y11417D01*
X17442Y11317D01*
X17542D01*
X17642Y11217D01*
X16642D02*
X16742Y11317D01*
X16842D01*
X16742Y11417D01*
X16842Y11517D01*
X16742D01*
X16642Y11617D01*
X16542Y11517D01*
X16442D01*
X16542Y11417D01*
X16442Y11317D01*
X16542D01*
X16642Y11217D01*
X15642D02*
X15742Y11317D01*
X15842D01*
X15742Y11417D01*
X15842Y11517D01*
X15742D01*
X15642Y11617D01*
X15542Y11517D01*
X15442D01*
X15542Y11417D01*
X15442Y11317D01*
X15542D01*
X15642Y11217D01*
X14642D02*
X14742Y11317D01*
X14842D01*
X14742Y11417D01*
X14842Y11517D01*
X14742D01*
X14642Y11617D01*
X14542Y11517D01*
X14442D01*
X14542Y11417D01*
X14442Y11317D01*
X14542D01*
X14642Y11217D01*
X50207Y13855D02*
X50307Y13955D01*
X50407D01*
X50307Y14055D01*
X50407Y14155D01*
X50307D01*
X50207Y14255D01*
X50107Y14155D01*
X50007D01*
X50107Y14055D01*
X50007Y13955D01*
X50107D01*
X50207Y13855D01*
X23599Y24997D02*
X23699Y25197D01*
X23599Y25397D01*
X23799Y25297D01*
X23999Y25397D01*
X23899Y25197D01*
X23999Y24997D01*
X23799Y25097D01*
X23599Y24997D01*
X30657Y16490D02*
X30457Y16890D01*
X30857D01*
X30657Y16490D01*
Y16570D02*
X30537Y16810D01*
X30777D01*
X30657Y16570D01*
X31523Y15191D02*
X31323Y15591D01*
X31723D01*
X31523Y15191D01*
Y15271D02*
X31403Y15511D01*
X31643D01*
X31523Y15271D01*
X31090Y15191D02*
X30890Y15591D01*
X31290D01*
X31090Y15191D01*
Y15271D02*
X30970Y15511D01*
X31210D01*
X31090Y15271D01*
X30657Y15191D02*
X30457Y15591D01*
X30857D01*
X30657Y15191D01*
Y15271D02*
X30537Y15511D01*
X30777D01*
X30657Y15271D01*
X31523Y15624D02*
X31323Y16024D01*
X31723D01*
X31523Y15624D01*
Y15704D02*
X31403Y15944D01*
X31643D01*
X31523Y15704D01*
X31090Y15624D02*
X30890Y16024D01*
X31290D01*
X31090Y15624D01*
Y15704D02*
X30970Y15944D01*
X31210D01*
X31090Y15704D01*
X30657Y15624D02*
X30457Y16024D01*
X30857D01*
X30657Y15624D01*
Y15704D02*
X30537Y15944D01*
X30777D01*
X30657Y15704D01*
X31523Y16057D02*
X31323Y16457D01*
X31723D01*
X31523Y16057D01*
Y16137D02*
X31403Y16377D01*
X31643D01*
X31523Y16137D01*
X31090Y16057D02*
X30890Y16457D01*
X31290D01*
X31090Y16057D01*
Y16137D02*
X30970Y16377D01*
X31210D01*
X31090Y16137D01*
X30657Y16057D02*
X30457Y16457D01*
X30857D01*
X30657Y16057D01*
Y16137D02*
X30537Y16377D01*
X30777D01*
X30657Y16137D01*
X31523Y16490D02*
X31323Y16890D01*
X31723D01*
X31523Y16490D01*
Y16570D02*
X31403Y16810D01*
X31643D01*
X31523Y16570D01*
X31090Y16490D02*
X30890Y16890D01*
X31290D01*
X31090Y16490D01*
Y16570D02*
X30970Y16810D01*
X31210D01*
X31090Y16570D01*
X21017Y16490D02*
X20817Y16890D01*
X21217D01*
X21017Y16490D01*
Y16570D02*
X20897Y16810D01*
X21137D01*
X21017Y16570D01*
X21883Y15191D02*
X21683Y15591D01*
X22083D01*
X21883Y15191D01*
Y15271D02*
X21763Y15511D01*
X22003D01*
X21883Y15271D01*
X21450Y15191D02*
X21250Y15591D01*
X21650D01*
X21450Y15191D01*
Y15271D02*
X21330Y15511D01*
X21570D01*
X21450Y15271D01*
X21017Y15191D02*
X20817Y15591D01*
X21217D01*
X21017Y15191D01*
Y15271D02*
X20897Y15511D01*
X21137D01*
X21017Y15271D01*
X21883Y15624D02*
X21683Y16024D01*
X22083D01*
X21883Y15624D01*
Y15704D02*
X21763Y15944D01*
X22003D01*
X21883Y15704D01*
X21450Y15624D02*
X21250Y16024D01*
X21650D01*
X21450Y15624D01*
Y15704D02*
X21330Y15944D01*
X21570D01*
X21450Y15704D01*
X21017Y15624D02*
X20817Y16024D01*
X21217D01*
X21017Y15624D01*
Y15704D02*
X20897Y15944D01*
X21137D01*
X21017Y15704D01*
X21883Y16057D02*
X21683Y16457D01*
X22083D01*
X21883Y16057D01*
Y16137D02*
X21763Y16377D01*
X22003D01*
X21883Y16137D01*
X21450Y16057D02*
X21250Y16457D01*
X21650D01*
X21450Y16057D01*
Y16137D02*
X21330Y16377D01*
X21570D01*
X21450Y16137D01*
X21017Y16057D02*
X20817Y16457D01*
X21217D01*
X21017Y16057D01*
Y16137D02*
X20897Y16377D01*
X21137D01*
X21017Y16137D01*
X21883Y16490D02*
X21683Y16890D01*
X22083D01*
X21883Y16490D01*
Y16570D02*
X21763Y16810D01*
X22003D01*
X21883Y16570D01*
X21450Y16490D02*
X21250Y16890D01*
X21650D01*
X21450Y16490D01*
Y16570D02*
X21330Y16810D01*
X21570D01*
X21450Y16570D01*
X16950Y16490D02*
X16750Y16890D01*
X17150D01*
X16950Y16490D01*
Y16570D02*
X16830Y16810D01*
X17070D01*
X16950Y16570D01*
X17383Y16490D02*
X17183Y16890D01*
X17583D01*
X17383Y16490D01*
Y16570D02*
X17263Y16810D01*
X17503D01*
X17383Y16570D01*
X16517Y16057D02*
X16317Y16457D01*
X16717D01*
X16517Y16057D01*
Y16137D02*
X16397Y16377D01*
X16637D01*
X16517Y16137D01*
X16950Y16057D02*
X16750Y16457D01*
X17150D01*
X16950Y16057D01*
Y16137D02*
X16830Y16377D01*
X17070D01*
X16950Y16137D01*
X17383Y16057D02*
X17183Y16457D01*
X17583D01*
X17383Y16057D01*
Y16137D02*
X17263Y16377D01*
X17503D01*
X17383Y16137D01*
X16517Y15624D02*
X16317Y16024D01*
X16717D01*
X16517Y15624D01*
Y15704D02*
X16397Y15944D01*
X16637D01*
X16517Y15704D01*
X16950Y15624D02*
X16750Y16024D01*
X17150D01*
X16950Y15624D01*
Y15704D02*
X16830Y15944D01*
X17070D01*
X16950Y15704D01*
X17383Y15624D02*
X17183Y16024D01*
X17583D01*
X17383Y15624D01*
Y15704D02*
X17263Y15944D01*
X17503D01*
X17383Y15704D01*
X16517Y15191D02*
X16317Y15591D01*
X16717D01*
X16517Y15191D01*
Y15271D02*
X16397Y15511D01*
X16637D01*
X16517Y15271D01*
X16950Y15191D02*
X16750Y15591D01*
X17150D01*
X16950Y15191D01*
Y15271D02*
X16830Y15511D01*
X17070D01*
X16950Y15271D01*
X17383Y15191D02*
X17183Y15591D01*
X17583D01*
X17383Y15191D01*
Y15271D02*
X17263Y15511D01*
X17503D01*
X17383Y15271D01*
X16517Y16490D02*
X16317Y16890D01*
X16717D01*
X16517Y16490D01*
Y16570D02*
X16397Y16810D01*
X16637D01*
X16517Y16570D01*
X12909Y16850D02*
X12709Y17250D01*
X13109D01*
X12909Y16850D01*
Y16930D02*
X12789Y17170D01*
X13029D01*
X12909Y16930D01*
Y16417D02*
X12709Y16817D01*
X13109D01*
X12909Y16417D01*
Y16497D02*
X12789Y16737D01*
X13029D01*
X12909Y16497D01*
X12476Y16417D02*
X12276Y16817D01*
X12676D01*
X12476Y16417D01*
Y16497D02*
X12356Y16737D01*
X12596D01*
X12476Y16497D01*
Y16850D02*
X12276Y17250D01*
X12676D01*
X12476Y16850D01*
Y16930D02*
X12356Y17170D01*
X12596D01*
X12476Y16930D01*
X12909Y15984D02*
X12709Y16384D01*
X13109D01*
X12909Y15984D01*
Y16064D02*
X12789Y16304D01*
X13029D01*
X12909Y16064D01*
X12476Y15984D02*
X12276Y16384D01*
X12676D01*
X12476Y15984D01*
Y16064D02*
X12356Y16304D01*
X12596D01*
X12476Y16064D01*
X12909Y15551D02*
X12709Y15951D01*
X13109D01*
X12909Y15551D01*
Y15631D02*
X12789Y15871D01*
X13029D01*
X12909Y15631D01*
X12476Y15551D02*
X12276Y15951D01*
X12676D01*
X12476Y15551D01*
Y15631D02*
X12356Y15871D01*
X12596D01*
X12476Y15631D01*
X12043Y16417D02*
X11843Y16817D01*
X12243D01*
X12043Y16417D01*
Y16497D02*
X11923Y16737D01*
X12163D01*
X12043Y16497D01*
Y16850D02*
X11843Y17250D01*
X12243D01*
X12043Y16850D01*
Y16930D02*
X11923Y17170D01*
X12163D01*
X12043Y16930D01*
Y15551D02*
X11843Y15951D01*
X12243D01*
X12043Y15551D01*
Y15631D02*
X11923Y15871D01*
X12163D01*
X12043Y15631D01*
Y15984D02*
X11843Y16384D01*
X12243D01*
X12043Y15984D01*
Y16064D02*
X11923Y16304D01*
X12163D01*
X12043Y16064D01*
X37189Y18829D02*
X37289Y19029D01*
X37189Y19229D01*
X37389Y19129D01*
X37589Y19229D01*
X37489Y19029D01*
X37589Y18829D01*
X37389Y18929D01*
X37189Y18829D01*
X36789D02*
X36889Y19029D01*
X36789Y19229D01*
X36989Y19129D01*
X37189Y19229D01*
X37089Y19029D01*
X37189Y18829D01*
X36989Y18929D01*
X36789Y18829D01*
X37589D02*
X37689Y19029D01*
X37589Y19229D01*
X37789Y19129D01*
X37989Y19229D01*
X37889Y19029D01*
X37989Y18829D01*
X37789Y18929D01*
X37589Y18829D01*
X37989D02*
X38089Y19029D01*
X37989Y19229D01*
X38189Y19129D01*
X38389Y19229D01*
X38289Y19029D01*
X38389Y18829D01*
X38189Y18929D01*
X37989Y18829D01*
Y18429D02*
X38089Y18629D01*
X37989Y18829D01*
X38189Y18729D01*
X38389Y18829D01*
X38289Y18629D01*
X38389Y18429D01*
X38189Y18529D01*
X37989Y18429D01*
Y18029D02*
X38089Y18229D01*
X37989Y18429D01*
X38189Y18329D01*
X38389Y18429D01*
X38289Y18229D01*
X38389Y18029D01*
X38189Y18129D01*
X37989Y18029D01*
X37589D02*
X37689Y18229D01*
X37589Y18429D01*
X37789Y18329D01*
X37989Y18429D01*
X37889Y18229D01*
X37989Y18029D01*
X37789Y18129D01*
X37589Y18029D01*
Y18429D02*
X37689Y18629D01*
X37589Y18829D01*
X37789Y18729D01*
X37989Y18829D01*
X37889Y18629D01*
X37989Y18429D01*
X37789Y18529D01*
X37589Y18429D01*
X37189D02*
X37289Y18629D01*
X37189Y18829D01*
X37389Y18729D01*
X37589Y18829D01*
X37489Y18629D01*
X37589Y18429D01*
X37389Y18529D01*
X37189Y18429D01*
Y18029D02*
X37289Y18229D01*
X37189Y18429D01*
X37389Y18329D01*
X37589Y18429D01*
X37489Y18229D01*
X37589Y18029D01*
X37389Y18129D01*
X37189Y18029D01*
X36789D02*
X36889Y18229D01*
X36789Y18429D01*
X36989Y18329D01*
X37189Y18429D01*
X37089Y18229D01*
X37189Y18029D01*
X36989Y18129D01*
X36789Y18029D01*
Y18429D02*
X36889Y18629D01*
X36789Y18829D01*
X36989Y18729D01*
X37189Y18829D01*
X37089Y18629D01*
X37189Y18429D01*
X36989Y18529D01*
X36789Y18429D01*
Y19229D02*
X36889Y19429D01*
X36789Y19629D01*
X36989Y19529D01*
X37189Y19629D01*
X37089Y19429D01*
X37189Y19229D01*
X36989Y19329D01*
X36789Y19229D01*
Y19629D02*
X36889Y19829D01*
X36789Y20029D01*
X36989Y19929D01*
X37189Y20029D01*
X37089Y19829D01*
X37189Y19629D01*
X36989Y19729D01*
X36789Y19629D01*
X37189D02*
X37289Y19829D01*
X37189Y20029D01*
X37389Y19929D01*
X37589Y20029D01*
X37489Y19829D01*
X37589Y19629D01*
X37389Y19729D01*
X37189Y19629D01*
Y19229D02*
X37289Y19429D01*
X37189Y19629D01*
X37389Y19529D01*
X37589Y19629D01*
X37489Y19429D01*
X37589Y19229D01*
X37389Y19329D01*
X37189Y19229D01*
X37589D02*
X37689Y19429D01*
X37589Y19629D01*
X37789Y19529D01*
X37989Y19629D01*
X37889Y19429D01*
X37989Y19229D01*
X37789Y19329D01*
X37589Y19229D01*
Y19629D02*
X37689Y19829D01*
X37589Y20029D01*
X37789Y19929D01*
X37989Y20029D01*
X37889Y19829D01*
X37989Y19629D01*
X37789Y19729D01*
X37589Y19629D01*
X37989D02*
X38089Y19829D01*
X37989Y20029D01*
X38189Y19929D01*
X38389Y20029D01*
X38289Y19829D01*
X38389Y19629D01*
X38189Y19729D01*
X37989Y19629D01*
Y19229D02*
X38089Y19429D01*
X37989Y19629D01*
X38189Y19529D01*
X38389Y19629D01*
X38289Y19429D01*
X38389Y19229D01*
X38189Y19329D01*
X37989Y19229D01*
X17600Y26900D02*
X17700Y27100D01*
X17600Y27300D01*
X17800Y27200D01*
X18000Y27300D01*
X17900Y27100D01*
X18000Y26900D01*
X17800Y27000D01*
X17600Y26900D01*
Y27274D02*
X17700Y27474D01*
X17600Y27674D01*
X17800Y27574D01*
X18000Y27674D01*
X17900Y27474D01*
X18000Y27274D01*
X17800Y27374D01*
X17600Y27274D01*
X17223Y27278D02*
X17323Y27478D01*
X17223Y27678D01*
X17423Y27578D01*
X17623Y27678D01*
X17523Y27478D01*
X17623Y27278D01*
X17423Y27378D01*
X17223Y27278D01*
X17228Y26900D02*
X17328Y27100D01*
X17228Y27300D01*
X17428Y27200D01*
X17628Y27300D01*
X17528Y27100D01*
X17628Y26900D01*
X17428Y27000D01*
X17228Y26900D01*
X17226Y26516D02*
X17326Y26716D01*
X17226Y26916D01*
X17426Y26816D01*
X17626Y26916D01*
X17526Y26716D01*
X17626Y26516D01*
X17426Y26616D01*
X17226Y26516D01*
X17600Y26526D02*
X17700Y26726D01*
X17600Y26926D01*
X17800Y26826D01*
X18000Y26926D01*
X17900Y26726D01*
X18000Y26526D01*
X17800Y26626D01*
X17600Y26526D01*
X17974D02*
X18074Y26726D01*
X17974Y26926D01*
X18174Y26826D01*
X18374Y26926D01*
X18274Y26726D01*
X18374Y26526D01*
X18174Y26626D01*
X17974Y26526D01*
Y26900D02*
X18074Y27100D01*
X17974Y27300D01*
X18174Y27200D01*
X18374Y27300D01*
X18274Y27100D01*
X18374Y26900D01*
X18174Y27000D01*
X17974Y26900D01*
Y27274D02*
X18074Y27474D01*
X17974Y27674D01*
X18174Y27574D01*
X18374Y27674D01*
X18274Y27474D01*
X18374Y27274D01*
X18174Y27374D01*
X17974Y27274D01*
X41461Y27928D02*
X41561Y28128D01*
X41461Y28328D01*
X41661Y28228D01*
X41861Y28328D01*
X41761Y28128D01*
X41861Y27928D01*
X41661Y28028D01*
X41461Y27928D01*
X41861D02*
X41961Y28128D01*
X41861Y28328D01*
X42061Y28228D01*
X42261Y28328D01*
X42161Y28128D01*
X42261Y27928D01*
X42061Y28028D01*
X41861Y27928D01*
Y28328D02*
X41961Y28528D01*
X41861Y28728D01*
X42061Y28628D01*
X42261Y28728D01*
X42161Y28528D01*
X42261Y28328D01*
X42061Y28428D01*
X41861Y28328D01*
X41461D02*
X41561Y28528D01*
X41461Y28728D01*
X41661Y28628D01*
X41861Y28728D01*
X41761Y28528D01*
X41861Y28328D01*
X41661Y28428D01*
X41461Y28328D01*
Y28728D02*
X41561Y28928D01*
X41461Y29128D01*
X41661Y29028D01*
X41861Y29128D01*
X41761Y28928D01*
X41861Y28728D01*
X41661Y28828D01*
X41461Y28728D01*
X41861D02*
X41961Y28928D01*
X41861Y29128D01*
X42061Y29028D01*
X42261Y29128D01*
X42161Y28928D01*
X42261Y28728D01*
X42061Y28828D01*
X41861Y28728D01*
Y29128D02*
X41961Y29328D01*
X41861Y29528D01*
X42061Y29428D01*
X42261Y29528D01*
X42161Y29328D01*
X42261Y29128D01*
X42061Y29228D01*
X41861Y29128D01*
X41461D02*
X41561Y29328D01*
X41461Y29528D01*
X41661Y29428D01*
X41861Y29528D01*
X41761Y29328D01*
X41861Y29128D01*
X41661Y29228D01*
X41461Y29128D01*
X40661D02*
X40761Y29328D01*
X40661Y29528D01*
X40861Y29428D01*
X41061Y29528D01*
X40961Y29328D01*
X41061Y29128D01*
X40861Y29228D01*
X40661Y29128D01*
X40261D02*
X40361Y29328D01*
X40261Y29528D01*
X40461Y29428D01*
X40661Y29528D01*
X40561Y29328D01*
X40661Y29128D01*
X40461Y29228D01*
X40261Y29128D01*
Y28728D02*
X40361Y28928D01*
X40261Y29128D01*
X40461Y29028D01*
X40661Y29128D01*
X40561Y28928D01*
X40661Y28728D01*
X40461Y28828D01*
X40261Y28728D01*
X40661D02*
X40761Y28928D01*
X40661Y29128D01*
X40861Y29028D01*
X41061Y29128D01*
X40961Y28928D01*
X41061Y28728D01*
X40861Y28828D01*
X40661Y28728D01*
Y28328D02*
X40761Y28528D01*
X40661Y28728D01*
X40861Y28628D01*
X41061Y28728D01*
X40961Y28528D01*
X41061Y28328D01*
X40861Y28428D01*
X40661Y28328D01*
X40261D02*
X40361Y28528D01*
X40261Y28728D01*
X40461Y28628D01*
X40661Y28728D01*
X40561Y28528D01*
X40661Y28328D01*
X40461Y28428D01*
X40261Y28328D01*
Y27928D02*
X40361Y28128D01*
X40261Y28328D01*
X40461Y28228D01*
X40661Y28328D01*
X40561Y28128D01*
X40661Y27928D01*
X40461Y28028D01*
X40261Y27928D01*
X40661D02*
X40761Y28128D01*
X40661Y28328D01*
X40861Y28228D01*
X41061Y28328D01*
X40961Y28128D01*
X41061Y27928D01*
X40861Y28028D01*
X40661Y27928D01*
X41061D02*
X41161Y28128D01*
X41061Y28328D01*
X41261Y28228D01*
X41461Y28328D01*
X41361Y28128D01*
X41461Y27928D01*
X41261Y28028D01*
X41061Y27928D01*
Y28328D02*
X41161Y28528D01*
X41061Y28728D01*
X41261Y28628D01*
X41461Y28728D01*
X41361Y28528D01*
X41461Y28328D01*
X41261Y28428D01*
X41061Y28328D01*
Y29128D02*
X41161Y29328D01*
X41061Y29528D01*
X41261Y29428D01*
X41461Y29528D01*
X41361Y29328D01*
X41461Y29128D01*
X41261Y29228D01*
X41061Y29128D01*
Y28728D02*
X41161Y28928D01*
X41061Y29128D01*
X41261Y29028D01*
X41461Y29128D01*
X41361Y28928D01*
X41461Y28728D01*
X41261Y28828D01*
X41061Y28728D01*
X41353Y33172D02*
X41453Y33372D01*
X41353Y33572D01*
X41553Y33472D01*
X41753Y33572D01*
X41653Y33372D01*
X41753Y33172D01*
X41553Y33272D01*
X41353Y33172D01*
X41747D02*
X41847Y33372D01*
X41747Y33572D01*
X41947Y33472D01*
X42147Y33572D01*
X42047Y33372D01*
X42147Y33172D01*
X41947Y33272D01*
X41747Y33172D01*
X42141D02*
X42241Y33372D01*
X42141Y33572D01*
X42341Y33472D01*
X42541Y33572D01*
X42441Y33372D01*
X42541Y33172D01*
X42341Y33272D01*
X42141Y33172D01*
Y33566D02*
X42241Y33766D01*
X42141Y33966D01*
X42341Y33866D01*
X42541Y33966D01*
X42441Y33766D01*
X42541Y33566D01*
X42341Y33666D01*
X42141Y33566D01*
Y33959D02*
X42241Y34159D01*
X42141Y34359D01*
X42341Y34259D01*
X42541Y34359D01*
X42441Y34159D01*
X42541Y33959D01*
X42341Y34059D01*
X42141Y33959D01*
X41747D02*
X41847Y34159D01*
X41747Y34359D01*
X41947Y34259D01*
X42147Y34359D01*
X42047Y34159D01*
X42147Y33959D01*
X41947Y34059D01*
X41747Y33959D01*
X41353D02*
X41453Y34159D01*
X41353Y34359D01*
X41553Y34259D01*
X41753Y34359D01*
X41653Y34159D01*
X41753Y33959D01*
X41553Y34059D01*
X41353Y33959D01*
Y33566D02*
X41453Y33766D01*
X41353Y33966D01*
X41553Y33866D01*
X41753Y33966D01*
X41653Y33766D01*
X41753Y33566D01*
X41553Y33666D01*
X41353Y33566D01*
X41747D02*
X41847Y33766D01*
X41747Y33966D01*
X41947Y33866D01*
X42147Y33966D01*
X42047Y33766D01*
X42147Y33566D01*
X41947Y33666D01*
X41747Y33566D01*
X12300Y31800D02*
X12400Y32000D01*
X12300Y32200D01*
X12500Y32100D01*
X12700Y32200D01*
X12600Y32000D01*
X12700Y31800D01*
X12500Y31900D01*
X12300Y31800D01*
X13300Y36800D02*
X13400Y37000D01*
X13300Y37200D01*
X13500Y37100D01*
X13700Y37200D01*
X13600Y37000D01*
X13700Y36800D01*
X13500Y36900D01*
X13300Y36800D01*
X49300Y32800D02*
X49400Y33000D01*
X49300Y33200D01*
X49500Y33100D01*
X49700Y33200D01*
X49600Y33000D01*
X49700Y32800D01*
X49500Y32900D01*
X49300Y32800D01*
Y25300D02*
X49400Y25500D01*
X49300Y25700D01*
X49500Y25600D01*
X49700Y25700D01*
X49600Y25500D01*
X49700Y25300D01*
X49500Y25400D01*
X49300Y25300D01*
Y23800D02*
X49400Y24000D01*
X49300Y24200D01*
X49500Y24100D01*
X49700Y24200D01*
X49600Y24000D01*
X49700Y23800D01*
X49500Y23900D01*
X49300Y23800D01*
Y22300D02*
X49400Y22500D01*
X49300Y22700D01*
X49500Y22600D01*
X49700Y22700D01*
X49600Y22500D01*
X49700Y22300D01*
X49500Y22400D01*
X49300Y22300D01*
Y20800D02*
X49400Y21000D01*
X49300Y21200D01*
X49500Y21100D01*
X49700Y21200D01*
X49600Y21000D01*
X49700Y20800D01*
X49500Y20900D01*
X49300Y20800D01*
Y19300D02*
X49400Y19500D01*
X49300Y19700D01*
X49500Y19600D01*
X49700Y19700D01*
X49600Y19500D01*
X49700Y19300D01*
X49500Y19400D01*
X49300Y19300D01*
Y17800D02*
X49400Y18000D01*
X49300Y18200D01*
X49500Y18100D01*
X49700Y18200D01*
X49600Y18000D01*
X49700Y17800D01*
X49500Y17900D01*
X49300Y17800D01*
Y16300D02*
X49400Y16500D01*
X49300Y16700D01*
X49500Y16600D01*
X49700Y16700D01*
X49600Y16500D01*
X49700Y16300D01*
X49500Y16400D01*
X49300Y16300D01*
Y14800D02*
X49400Y15000D01*
X49300Y15200D01*
X49500Y15100D01*
X49700Y15200D01*
X49600Y15000D01*
X49700Y14800D01*
X49500Y14900D01*
X49300Y14800D01*
Y13300D02*
X49400Y13500D01*
X49300Y13700D01*
X49500Y13600D01*
X49700Y13700D01*
X49600Y13500D01*
X49700Y13300D01*
X49500Y13400D01*
X49300Y13300D01*
X47800Y34300D02*
X47900Y34500D01*
X47800Y34700D01*
X48000Y34600D01*
X48200Y34700D01*
X48100Y34500D01*
X48200Y34300D01*
X48000Y34400D01*
X47800Y34300D01*
Y31300D02*
X47900Y31500D01*
X47800Y31700D01*
X48000Y31600D01*
X48200Y31700D01*
X48100Y31500D01*
X48200Y31300D01*
X48000Y31400D01*
X47800Y31300D01*
Y29800D02*
X47900Y30000D01*
X47800Y30200D01*
X48000Y30100D01*
X48200Y30200D01*
X48100Y30000D01*
X48200Y29800D01*
X48000Y29900D01*
X47800Y29800D01*
Y23800D02*
X47900Y24000D01*
X47800Y24200D01*
X48000Y24100D01*
X48200Y24200D01*
X48100Y24000D01*
X48200Y23800D01*
X48000Y23900D01*
X47800Y23800D01*
Y19300D02*
X47900Y19500D01*
X47800Y19700D01*
X48000Y19600D01*
X48200Y19700D01*
X48100Y19500D01*
X48200Y19300D01*
X48000Y19400D01*
X47800Y19300D01*
Y17800D02*
X47900Y18000D01*
X47800Y18200D01*
X48000Y18100D01*
X48200Y18200D01*
X48100Y18000D01*
X48200Y17800D01*
X48000Y17900D01*
X47800Y17800D01*
X46300Y35800D02*
X46400Y36000D01*
X46300Y36200D01*
X46500Y36100D01*
X46700Y36200D01*
X46600Y36000D01*
X46700Y35800D01*
X46500Y35900D01*
X46300Y35800D01*
Y34300D02*
X46400Y34500D01*
X46300Y34700D01*
X46500Y34600D01*
X46700Y34700D01*
X46600Y34500D01*
X46700Y34300D01*
X46500Y34400D01*
X46300Y34300D01*
Y32800D02*
X46400Y33000D01*
X46300Y33200D01*
X46500Y33100D01*
X46700Y33200D01*
X46600Y33000D01*
X46700Y32800D01*
X46500Y32900D01*
X46300Y32800D01*
X44800D02*
X44900Y33000D01*
X44800Y33200D01*
X45000Y33100D01*
X45200Y33200D01*
X45100Y33000D01*
X45200Y32800D01*
X45000Y32900D01*
X44800Y32800D01*
Y31300D02*
X44900Y31500D01*
X44800Y31700D01*
X45000Y31600D01*
X45200Y31700D01*
X45100Y31500D01*
X45200Y31300D01*
X45000Y31400D01*
X44800Y31300D01*
X43300D02*
X43400Y31500D01*
X43300Y31700D01*
X43500Y31600D01*
X43700Y31700D01*
X43600Y31500D01*
X43700Y31300D01*
X43500Y31400D01*
X43300Y31300D01*
X41800Y20800D02*
X41900Y21000D01*
X41800Y21200D01*
X42000Y21100D01*
X42200Y21200D01*
X42100Y21000D01*
X42200Y20800D01*
X42000Y20900D01*
X41800Y20800D01*
Y19300D02*
X41900Y19500D01*
X41800Y19700D01*
X42000Y19600D01*
X42200Y19700D01*
X42100Y19500D01*
X42200Y19300D01*
X42000Y19400D01*
X41800Y19300D01*
X38800Y23800D02*
X38900Y24000D01*
X38800Y24200D01*
X39000Y24100D01*
X39200Y24200D01*
X39100Y24000D01*
X39200Y23800D01*
X39000Y23900D01*
X38800Y23800D01*
X37300Y31300D02*
X37400Y31500D01*
X37300Y31700D01*
X37500Y31600D01*
X37700Y31700D01*
X37600Y31500D01*
X37700Y31300D01*
X37500Y31400D01*
X37300Y31300D01*
X35800Y23800D02*
X35900Y24000D01*
X35800Y24200D01*
X36000Y24100D01*
X36200Y24200D01*
X36100Y24000D01*
X36200Y23800D01*
X36000Y23900D01*
X35800Y23800D01*
X10300Y31300D02*
X10400Y31500D01*
X10300Y31700D01*
X10500Y31600D01*
X10700Y31700D01*
X10600Y31500D01*
X10700Y31300D01*
X10500Y31400D01*
X10300Y31300D01*
X44800Y29300D02*
X44900Y29500D01*
X44800Y29700D01*
X45000Y29600D01*
X45200Y29700D01*
X45100Y29500D01*
X45200Y29300D01*
X45000Y29400D01*
X44800Y29300D01*
X42800Y27800D02*
X42900Y28000D01*
X42800Y28200D01*
X43000Y28100D01*
X43200Y28200D01*
X43100Y28000D01*
X43200Y27800D01*
X43000Y27900D01*
X42800Y27800D01*
Y28800D02*
X42900Y29000D01*
X42800Y29200D01*
X43000Y29100D01*
X43200Y29200D01*
X43100Y29000D01*
X43200Y28800D01*
X43000Y28900D01*
X42800Y28800D01*
X43800D02*
X43900Y29000D01*
X43800Y29200D01*
X44000Y29100D01*
X44200Y29200D01*
X44100Y29000D01*
X44200Y28800D01*
X44000Y28900D01*
X43800Y28800D01*
Y29800D02*
X43900Y30000D01*
X43800Y30200D01*
X44000Y30100D01*
X44200Y30200D01*
X44100Y30000D01*
X44200Y29800D01*
X44000Y29900D01*
X43800Y29800D01*
Y30800D02*
X43900Y31000D01*
X43800Y31200D01*
X44000Y31100D01*
X44200Y31200D01*
X44100Y31000D01*
X44200Y30800D01*
X44000Y30900D01*
X43800Y30800D01*
X42800D02*
X42900Y31000D01*
X42800Y31200D01*
X43000Y31100D01*
X43200Y31200D01*
X43100Y31000D01*
X43200Y30800D01*
X43000Y30900D01*
X42800Y30800D01*
Y29800D02*
X42900Y30000D01*
X42800Y30200D01*
X43000Y30100D01*
X43200Y30200D01*
X43100Y30000D01*
X43200Y29800D01*
X43000Y29900D01*
X42800Y29800D01*
X41800D02*
X41900Y30000D01*
X41800Y30200D01*
X42000Y30100D01*
X42200Y30200D01*
X42100Y30000D01*
X42200Y29800D01*
X42000Y29900D01*
X41800Y29800D01*
Y30800D02*
X41900Y31000D01*
X41800Y31200D01*
X42000Y31100D01*
X42200Y31200D01*
X42100Y31000D01*
X42200Y30800D01*
X42000Y30900D01*
X41800Y30800D01*
X40800D02*
X40900Y31000D01*
X40800Y31200D01*
X41000Y31100D01*
X41200Y31200D01*
X41100Y31000D01*
X41200Y30800D01*
X41000Y30900D01*
X40800Y30800D01*
Y29800D02*
X40900Y30000D01*
X40800Y30200D01*
X41000Y30100D01*
X41200Y30200D01*
X41100Y30000D01*
X41200Y29800D01*
X41000Y29900D01*
X40800Y29800D01*
X39800D02*
X39900Y30000D01*
X39800Y30200D01*
X40000Y30100D01*
X40200Y30200D01*
X40100Y30000D01*
X40200Y29800D01*
X40000Y29900D01*
X39800Y29800D01*
X38270Y20730D02*
X38370Y20930D01*
X38270Y21130D01*
X38470Y21030D01*
X38670Y21130D01*
X38570Y20930D01*
X38670Y20730D01*
X38470Y20830D01*
X38270Y20730D01*
X37460D02*
X37560Y20930D01*
X37460Y21130D01*
X37660Y21030D01*
X37860Y21130D01*
X37760Y20930D01*
X37860Y20730D01*
X37660Y20830D01*
X37460Y20730D01*
X37450Y20090D02*
X37550Y20290D01*
X37450Y20490D01*
X37650Y20390D01*
X37850Y20490D01*
X37750Y20290D01*
X37850Y20090D01*
X37650Y20190D01*
X37450Y20090D01*
X38300Y20070D02*
X38400Y20270D01*
X38300Y20470D01*
X38500Y20370D01*
X38700Y20470D01*
X38600Y20270D01*
X38700Y20070D01*
X38500Y20170D01*
X38300Y20070D01*
X36680Y20090D02*
X36780Y20290D01*
X36680Y20490D01*
X36880Y20390D01*
X37080Y20490D01*
X36980Y20290D01*
X37080Y20090D01*
X36880Y20190D01*
X36680Y20090D01*
X34580Y18160D02*
X34680Y18360D01*
X34580Y18560D01*
X34780Y18460D01*
X34980Y18560D01*
X34880Y18360D01*
X34980Y18160D01*
X34780Y18260D01*
X34580Y18160D01*
X34690Y15930D02*
X34790Y16130D01*
X34690Y16330D01*
X34890Y16230D01*
X35090Y16330D01*
X34990Y16130D01*
X35090Y15930D01*
X34890Y16030D01*
X34690Y15930D01*
X34120Y15320D02*
X34220Y15520D01*
X34120Y15720D01*
X34320Y15620D01*
X34520Y15720D01*
X34420Y15520D01*
X34520Y15320D01*
X34320Y15420D01*
X34120Y15320D01*
X34130Y16410D02*
X34230Y16610D01*
X34130Y16810D01*
X34330Y16710D01*
X34530Y16810D01*
X34430Y16610D01*
X34530Y16410D01*
X34330Y16510D01*
X34130Y16410D01*
Y17260D02*
X34230Y17460D01*
X34130Y17660D01*
X34330Y17560D01*
X34530Y17660D01*
X34430Y17460D01*
X34530Y17260D01*
X34330Y17360D01*
X34130Y17260D01*
X39460Y13960D02*
X39560Y14160D01*
X39460Y14360D01*
X39660Y14260D01*
X39860Y14360D01*
X39760Y14160D01*
X39860Y13960D01*
X39660Y14060D01*
X39460Y13960D01*
X39280Y11054D02*
X39380Y11254D01*
X39280Y11454D01*
X39480Y11354D01*
X39680Y11454D01*
X39580Y11254D01*
X39680Y11054D01*
X39480Y11154D01*
X39280Y11054D01*
X41930Y12680D02*
X42030Y12880D01*
X41930Y13080D01*
X42130Y12980D01*
X42330Y13080D01*
X42230Y12880D01*
X42330Y12680D01*
X42130Y12780D01*
X41930Y12680D01*
X41390Y11990D02*
X41490Y12190D01*
X41390Y12390D01*
X41590Y12290D01*
X41790Y12390D01*
X41690Y12190D01*
X41790Y11990D01*
X41590Y12090D01*
X41390Y11990D01*
X40080D02*
X40180Y12190D01*
X40080Y12390D01*
X40280Y12290D01*
X40480Y12390D01*
X40380Y12190D01*
X40480Y11990D01*
X40280Y12090D01*
X40080Y11990D01*
X40710Y11060D02*
X40810Y11260D01*
X40710Y11460D01*
X40910Y11360D01*
X41110Y11460D01*
X41010Y11260D01*
X41110Y11060D01*
X40910Y11160D01*
X40710Y11060D01*
X38860Y15820D02*
X38960Y16020D01*
X38860Y16220D01*
X39060Y16120D01*
X39260Y16220D01*
X39160Y16020D01*
X39260Y15820D01*
X39060Y15920D01*
X38860Y15820D01*
X36370Y15360D02*
X36470Y15560D01*
X36370Y15760D01*
X36570Y15660D01*
X36770Y15760D01*
X36670Y15560D01*
X36770Y15360D01*
X36570Y15460D01*
X36370Y15360D01*
X38488Y14373D02*
X38588Y14573D01*
X38488Y14773D01*
X38688Y14673D01*
X38888Y14773D01*
X38788Y14573D01*
X38888Y14373D01*
X38688Y14473D01*
X38488Y14373D01*
Y14019D02*
X38588Y14219D01*
X38488Y14419D01*
X38688Y14319D01*
X38888Y14419D01*
X38788Y14219D01*
X38888Y14019D01*
X38688Y14119D01*
X38488Y14019D01*
Y13664D02*
X38588Y13864D01*
X38488Y14064D01*
X38688Y13964D01*
X38888Y14064D01*
X38788Y13864D01*
X38888Y13664D01*
X38688Y13764D01*
X38488Y13664D01*
X38068Y14373D02*
X38168Y14573D01*
X38068Y14773D01*
X38268Y14673D01*
X38468Y14773D01*
X38368Y14573D01*
X38468Y14373D01*
X38268Y14473D01*
X38068Y14373D01*
X38844Y14427D02*
X38944Y14627D01*
X38844Y14827D01*
X39044Y14727D01*
X39244Y14827D01*
X39144Y14627D01*
X39244Y14427D01*
X39044Y14527D01*
X38844Y14427D01*
X37330Y28589D02*
X37430Y28789D01*
X37330Y28989D01*
X37530Y28889D01*
X37730Y28989D01*
X37630Y28789D01*
X37730Y28589D01*
X37530Y28689D01*
X37330Y28589D01*
X37369Y30036D02*
X37469Y30236D01*
X37369Y30436D01*
X37569Y30336D01*
X37769Y30436D01*
X37669Y30236D01*
X37769Y30036D01*
X37569Y30136D01*
X37369Y30036D01*
X36020Y18000D02*
X36120Y18100D01*
X36220D01*
X36120Y18200D01*
X36220Y18300D01*
X36120D01*
X36020Y18400D01*
X35920Y18300D01*
X35820D01*
X35920Y18200D01*
X35820Y18100D01*
X35920D01*
X36020Y18000D01*
Y18080D02*
X36080Y18140D01*
X36140D01*
X36080Y18200D01*
X36140Y18260D01*
X36080D01*
X36020Y18320D01*
X35960Y18260D01*
X35900D01*
X35960Y18200D01*
X35900Y18140D01*
X35960D01*
X36020Y18080D01*
Y17500D02*
X36120Y17600D01*
X36220D01*
X36120Y17700D01*
X36220Y17800D01*
X36120D01*
X36020Y17900D01*
X35920Y17800D01*
X35820D01*
X35920Y17700D01*
X35820Y17600D01*
X35920D01*
X36020Y17500D01*
Y17580D02*
X36080Y17640D01*
X36140D01*
X36080Y17700D01*
X36140Y17760D01*
X36080D01*
X36020Y17820D01*
X35960Y17760D01*
X35900D01*
X35960Y17700D01*
X35900Y17640D01*
X35960D01*
X36020Y17580D01*
X42380Y11050D02*
X42480Y11250D01*
X42380Y11450D01*
X42580Y11350D01*
X42780Y11450D01*
X42680Y11250D01*
X42780Y11050D01*
X42580Y11150D01*
X42380Y11050D01*
X42940Y11990D02*
X43040Y12190D01*
X42940Y12390D01*
X43140Y12290D01*
X43340Y12390D01*
X43240Y12190D01*
X43340Y11990D01*
X43140Y12090D01*
X42940Y11990D01*
X44290Y11860D02*
X44390Y12060D01*
X44290Y12260D01*
X44490Y12160D01*
X44690Y12260D01*
X44590Y12060D01*
X44690Y11860D01*
X44490Y11960D01*
X44290Y11860D01*
X43640Y11050D02*
X43740Y11250D01*
X43640Y11450D01*
X43840Y11350D01*
X44040Y11450D01*
X43940Y11250D01*
X44040Y11050D01*
X43840Y11150D01*
X43640Y11050D01*
X45300Y11400D02*
X45400Y11600D01*
X45300Y11800D01*
X45500Y11700D01*
X45700Y11800D01*
X45600Y11600D01*
X45700Y11400D01*
X45500Y11500D01*
X45300Y11400D01*
X46010Y11950D02*
X46110Y12150D01*
X46010Y12350D01*
X46210Y12250D01*
X46410Y12350D01*
X46310Y12150D01*
X46410Y11950D01*
X46210Y12050D01*
X46010Y11950D01*
X46630Y11400D02*
X46730Y11600D01*
X46630Y11800D01*
X46830Y11700D01*
X47030Y11800D01*
X46930Y11600D01*
X47030Y11400D01*
X46830Y11500D01*
X46630Y11400D01*
X44430Y13190D02*
X44530Y13390D01*
X44430Y13590D01*
X44630Y13490D01*
X44830Y13590D01*
X44730Y13390D01*
X44830Y13190D01*
X44630Y13290D01*
X44430Y13190D01*
X42960Y14420D02*
X43060Y14620D01*
X42960Y14820D01*
X43160Y14720D01*
X43360Y14820D01*
X43260Y14620D01*
X43360Y14420D01*
X43160Y14520D01*
X42960Y14420D01*
X43310Y13400D02*
X43410Y13600D01*
X43310Y13800D01*
X43510Y13700D01*
X43710Y13800D01*
X43610Y13600D01*
X43710Y13400D01*
X43510Y13500D01*
X43310Y13400D01*
X42990Y15370D02*
X43090Y15570D01*
X42990Y15770D01*
X43190Y15670D01*
X43390Y15770D01*
X43290Y15570D01*
X43390Y15370D01*
X43190Y15470D01*
X42990Y15370D01*
X44260Y15330D02*
X44360Y15530D01*
X44260Y15730D01*
X44460Y15630D01*
X44660Y15730D01*
X44560Y15530D01*
X44660Y15330D01*
X44460Y15430D01*
X44260Y15330D01*
X43630Y16350D02*
X43730Y16550D01*
X43630Y16750D01*
X43830Y16650D01*
X44030Y16750D01*
X43930Y16550D01*
X44030Y16350D01*
X43830Y16450D01*
X43630Y16350D01*
X43610Y17100D02*
X43710Y17300D01*
X43610Y17500D01*
X43810Y17400D01*
X44010Y17500D01*
X43910Y17300D01*
X44010Y17100D01*
X43810Y17200D01*
X43610Y17100D01*
X47350Y13310D02*
X47450Y13510D01*
X47350Y13710D01*
X47550Y13610D01*
X47750Y13710D01*
X47650Y13510D01*
X47750Y13310D01*
X47550Y13410D01*
X47350Y13310D01*
X46010Y12410D02*
X46110Y12610D01*
X46010Y12810D01*
X46210Y12710D01*
X46410Y12810D01*
X46310Y12610D01*
X46410Y12410D01*
X46210Y12510D01*
X46010Y12410D01*
X45360Y13030D02*
X45460Y13230D01*
X45360Y13430D01*
X45560Y13330D01*
X45760Y13430D01*
X45660Y13230D01*
X45760Y13030D01*
X45560Y13130D01*
X45360Y13030D01*
X46010Y13620D02*
X46110Y13820D01*
X46010Y14020D01*
X46210Y13920D01*
X46410Y14020D01*
X46310Y13820D01*
X46410Y13620D01*
X46210Y13720D01*
X46010Y13620D01*
X47120Y15490D02*
X47220Y15690D01*
X47120Y15890D01*
X47320Y15790D01*
X47520Y15890D01*
X47420Y15690D01*
X47520Y15490D01*
X47320Y15590D01*
X47120Y15490D01*
X45340Y15050D02*
X45440Y15250D01*
X45340Y15450D01*
X45540Y15350D01*
X45740Y15450D01*
X45640Y15250D01*
X45740Y15050D01*
X45540Y15150D01*
X45340Y15050D01*
X46200Y14540D02*
X46300Y14740D01*
X46200Y14940D01*
X46400Y14840D01*
X46600Y14940D01*
X46500Y14740D01*
X46600Y14540D01*
X46400Y14640D01*
X46200Y14540D01*
X46180Y16450D02*
X46280Y16650D01*
X46180Y16850D01*
X46380Y16750D01*
X46580Y16850D01*
X46480Y16650D01*
X46580Y16450D01*
X46380Y16550D01*
X46180Y16450D01*
X47560Y15990D02*
X47660Y16190D01*
X47560Y16390D01*
X47760Y16290D01*
X47960Y16390D01*
X47860Y16190D01*
X47960Y15990D01*
X47760Y16090D01*
X47560Y15990D01*
X45890Y17620D02*
X45990Y17820D01*
X45890Y18020D01*
X46090Y17920D01*
X46290Y18020D01*
X46190Y17820D01*
X46290Y17620D01*
X46090Y17720D01*
X45890Y17620D01*
X44890Y18180D02*
X44990Y18380D01*
X44890Y18580D01*
X45090Y18480D01*
X45290Y18580D01*
X45190Y18380D01*
X45290Y18180D01*
X45090Y18280D01*
X44890Y18180D01*
X44940Y17610D02*
X45040Y17810D01*
X44940Y18010D01*
X45140Y17910D01*
X45340Y18010D01*
X45240Y17810D01*
X45340Y17610D01*
X45140Y17710D01*
X44940Y17610D01*
X44980Y18560D02*
X45080Y18760D01*
X44980Y18960D01*
X45180Y18860D01*
X45380Y18960D01*
X45280Y18760D01*
X45380Y18560D01*
X45180Y18660D01*
X44980Y18560D01*
X41140Y14150D02*
X41240Y14350D01*
X41140Y14550D01*
X41340Y14450D01*
X41540Y14550D01*
X41440Y14350D01*
X41540Y14150D01*
X41340Y14250D01*
X41140Y14150D01*
X41420Y17370D02*
X41520Y17570D01*
X41420Y17770D01*
X41620Y17670D01*
X41820Y17770D01*
X41720Y17570D01*
X41820Y17370D01*
X41620Y17470D01*
X41420Y17370D01*
X41910Y17200D02*
X42010Y17400D01*
X41910Y17600D01*
X42110Y17500D01*
X42310Y17600D01*
X42210Y17400D01*
X42310Y17200D01*
X42110Y17300D01*
X41910Y17200D01*
X42300Y17580D02*
X42400Y17780D01*
X42300Y17980D01*
X42500Y17880D01*
X42700Y17980D01*
X42600Y17780D01*
X42700Y17580D01*
X42500Y17680D01*
X42300Y17580D01*
X43800Y18530D02*
X43900Y18730D01*
X43800Y18930D01*
X44000Y18830D01*
X44200Y18930D01*
X44100Y18730D01*
X44200Y18530D01*
X44000Y18630D01*
X43800Y18530D01*
X43350D02*
X43450Y18730D01*
X43350Y18930D01*
X43550Y18830D01*
X43750Y18930D01*
X43650Y18730D01*
X43750Y18530D01*
X43550Y18630D01*
X43350Y18530D01*
X39410Y17250D02*
X39510Y17450D01*
X39410Y17650D01*
X39610Y17550D01*
X39810Y17650D01*
X39710Y17450D01*
X39810Y17250D01*
X39610Y17350D01*
X39410Y17250D01*
X42200Y18180D02*
X42300Y18380D01*
X42200Y18580D01*
X42400Y18480D01*
X42600Y18580D01*
X42500Y18380D01*
X42600Y18180D01*
X42400Y18280D01*
X42200Y18180D01*
X42310Y18780D02*
X42410Y18980D01*
X42310Y19180D01*
X42510Y19080D01*
X42710Y19180D01*
X42610Y18980D01*
X42710Y18780D01*
X42510Y18880D01*
X42310Y18780D01*
X41380Y15380D02*
X41480Y15580D01*
X41380Y15780D01*
X41580Y15680D01*
X41780Y15780D01*
X41680Y15580D01*
X41780Y15380D01*
X41580Y15480D01*
X41380Y15380D01*
X40050Y15370D02*
X40150Y15570D01*
X40050Y15770D01*
X40250Y15670D01*
X40450Y15770D01*
X40350Y15570D01*
X40450Y15370D01*
X40250Y15470D01*
X40050Y15370D01*
X40080Y17380D02*
X40180Y17580D01*
X40080Y17780D01*
X40280Y17680D01*
X40480Y17780D01*
X40380Y17580D01*
X40480Y17380D01*
X40280Y17480D01*
X40080Y17380D01*
X40730Y16370D02*
X40830Y16570D01*
X40730Y16770D01*
X40930Y16670D01*
X41130Y16770D01*
X41030Y16570D01*
X41130Y16370D01*
X40930Y16470D01*
X40730Y16370D01*
X40740Y19540D02*
X40840Y19740D01*
X40740Y19940D01*
X40940Y19840D01*
X41140Y19940D01*
X41040Y19740D01*
X41140Y19540D01*
X40940Y19640D01*
X40740Y19540D01*
X46010Y20150D02*
X46110Y20350D01*
X46010Y20550D01*
X46210Y20450D01*
X46410Y20550D01*
X46310Y20350D01*
X46410Y20150D01*
X46210Y20250D01*
X46010Y20150D01*
X43890Y22800D02*
X43990Y23000D01*
X43890Y23200D01*
X44090Y23100D01*
X44290Y23200D01*
X44190Y23000D01*
X44290Y22800D01*
X44090Y22900D01*
X43890Y22800D01*
X47760Y21430D02*
X47860Y21630D01*
X47760Y21830D01*
X47960Y21730D01*
X48160Y21830D01*
X48060Y21630D01*
X48160Y21430D01*
X47960Y21530D01*
X47760Y21430D01*
X46170Y20990D02*
X46270Y21190D01*
X46170Y21390D01*
X46370Y21290D01*
X46570Y21390D01*
X46470Y21190D01*
X46570Y20990D01*
X46370Y21090D01*
X46170Y20990D01*
X45250Y21970D02*
X45350Y22170D01*
X45250Y22370D01*
X45450Y22270D01*
X45650Y22370D01*
X45550Y22170D01*
X45650Y21970D01*
X45450Y22070D01*
X45250Y21970D01*
X46170Y22950D02*
X46270Y23150D01*
X46170Y23350D01*
X46370Y23250D01*
X46570Y23350D01*
X46470Y23150D01*
X46570Y22950D01*
X46370Y23050D01*
X46170Y22950D01*
X47090Y22000D02*
X47190Y22200D01*
X47090Y22400D01*
X47290Y22300D01*
X47490Y22400D01*
X47390Y22200D01*
X47490Y22000D01*
X47290Y22100D01*
X47090Y22000D01*
X47540Y22520D02*
X47640Y22720D01*
X47540Y22920D01*
X47740Y22820D01*
X47940Y22920D01*
X47840Y22720D01*
X47940Y22520D01*
X47740Y22620D01*
X47540Y22520D01*
X47560Y20320D02*
X47660Y20520D01*
X47560Y20720D01*
X47760Y20620D01*
X47960Y20720D01*
X47860Y20520D01*
X47960Y20320D01*
X47760Y20420D01*
X47560Y20320D01*
X44330Y20130D02*
X44430Y20330D01*
X44330Y20530D01*
X44530Y20430D01*
X44730Y20530D01*
X44630Y20330D01*
X44730Y20130D01*
X44530Y20230D01*
X44330Y20130D01*
X45170Y21190D02*
X45270Y21390D01*
X45170Y21590D01*
X45370Y21490D01*
X45570Y21590D01*
X45470Y21390D01*
X45570Y21190D01*
X45370Y21290D01*
X45170Y21190D01*
X44330Y22190D02*
X44430Y22390D01*
X44330Y22590D01*
X44530Y22490D01*
X44730Y22590D01*
X44630Y22390D01*
X44730Y22190D01*
X44530Y22290D01*
X44330Y22190D01*
X43240D02*
X43340Y22390D01*
X43240Y22590D01*
X43440Y22490D01*
X43640Y22590D01*
X43540Y22390D01*
X43640Y22190D01*
X43440Y22290D01*
X43240Y22190D01*
X43660Y21160D02*
X43760Y21360D01*
X43660Y21560D01*
X43860Y21460D01*
X44060Y21560D01*
X43960Y21360D01*
X44060Y21160D01*
X43860Y21260D01*
X43660Y21160D01*
X43010Y20150D02*
X43110Y20350D01*
X43010Y20550D01*
X43210Y20450D01*
X43410Y20550D01*
X43310Y20350D01*
X43410Y20150D01*
X43210Y20250D01*
X43010Y20150D01*
X42280Y21170D02*
X42380Y21370D01*
X42280Y21570D01*
X42480Y21470D01*
X42680Y21570D01*
X42580Y21370D01*
X42680Y21170D01*
X42480Y21270D01*
X42280Y21170D01*
X44680Y19530D02*
X44780Y19730D01*
X44680Y19930D01*
X44880Y19830D01*
X45080Y19930D01*
X44980Y19730D01*
X45080Y19530D01*
X44880Y19630D01*
X44680Y19530D01*
X46970Y27610D02*
X47070Y27810D01*
X46970Y28010D01*
X47170Y27910D01*
X47370Y28010D01*
X47270Y27810D01*
X47370Y27610D01*
X47170Y27710D01*
X46970Y27610D01*
X45350Y27600D02*
X45450Y27800D01*
X45350Y28000D01*
X45550Y27900D01*
X45750Y28000D01*
X45650Y27800D01*
X45750Y27600D01*
X45550Y27700D01*
X45350Y27600D01*
X46840Y26320D02*
X46940Y26520D01*
X46840Y26720D01*
X47040Y26620D01*
X47240Y26720D01*
X47140Y26520D01*
X47240Y26320D01*
X47040Y26420D01*
X46840Y26320D01*
X47800Y27390D02*
X47900Y27590D01*
X47800Y27790D01*
X48000Y27690D01*
X48200Y27790D01*
X48100Y27590D01*
X48200Y27390D01*
X48000Y27490D01*
X47800Y27390D01*
X47810Y28170D02*
X47910Y28370D01*
X47810Y28570D01*
X48010Y28470D01*
X48210Y28570D01*
X48110Y28370D01*
X48210Y28170D01*
X48010Y28270D01*
X47810Y28170D01*
X47140Y28470D02*
X47240Y28670D01*
X47140Y28870D01*
X47340Y28770D01*
X47540Y28870D01*
X47440Y28670D01*
X47540Y28470D01*
X47340Y28570D01*
X47140Y28470D01*
X46180Y29460D02*
X46280Y29660D01*
X46180Y29860D01*
X46380Y29760D01*
X46580Y29860D01*
X46480Y29660D01*
X46580Y29460D01*
X46380Y29560D01*
X46180Y29460D01*
Y27550D02*
X46280Y27750D01*
X46180Y27950D01*
X46380Y27850D01*
X46580Y27950D01*
X46480Y27750D01*
X46580Y27550D01*
X46380Y27650D01*
X46180Y27550D01*
X45070Y26480D02*
X45170Y26680D01*
X45070Y26880D01*
X45270Y26780D01*
X45470Y26880D01*
X45370Y26680D01*
X45470Y26480D01*
X45270Y26580D01*
X45070Y26480D01*
X43680Y27190D02*
X43780Y27390D01*
X43680Y27590D01*
X43880Y27490D01*
X44080Y27590D01*
X43980Y27390D01*
X44080Y27190D01*
X43880Y27290D01*
X43680Y27190D01*
X43670Y26470D02*
X43770Y26670D01*
X43670Y26870D01*
X43870Y26770D01*
X44070Y26870D01*
X43970Y26670D01*
X44070Y26470D01*
X43870Y26570D01*
X43670Y26470D01*
X44350Y25290D02*
X44450Y25490D01*
X44350Y25690D01*
X44550Y25590D01*
X44750Y25690D01*
X44650Y25490D01*
X44750Y25290D01*
X44550Y25390D01*
X44350Y25290D01*
X43000Y25280D02*
X43100Y25480D01*
X43000Y25680D01*
X43200Y25580D01*
X43400Y25680D01*
X43300Y25480D01*
X43400Y25280D01*
X43200Y25380D01*
X43000Y25280D01*
X42440Y25540D02*
X42540Y25740D01*
X42440Y25940D01*
X42640Y25840D01*
X42840Y25940D01*
X42740Y25740D01*
X42840Y25540D01*
X42640Y25640D01*
X42440Y25540D01*
X42290Y26470D02*
X42390Y26670D01*
X42290Y26870D01*
X42490Y26770D01*
X42690Y26870D01*
X42590Y26670D01*
X42690Y26470D01*
X42490Y26570D01*
X42290Y26470D01*
X35900Y31166D02*
X36000Y31366D01*
X35900Y31566D01*
X36100Y31466D01*
X36300Y31566D01*
X36200Y31366D01*
X36300Y31166D01*
X36100Y31266D01*
X35900Y31166D01*
X28783Y29430D02*
X28883Y29630D01*
X28783Y29830D01*
X28983Y29730D01*
X29183Y29830D01*
X29083Y29630D01*
X29183Y29430D01*
X28983Y29530D01*
X28783Y29430D01*
X28863Y29510D02*
X28923Y29630D01*
X28863Y29750D01*
X28983Y29690D01*
X29103Y29750D01*
X29043Y29630D01*
X29103Y29510D01*
X28983Y29570D01*
X28863Y29510D01*
X32610Y29800D02*
X32710Y30000D01*
X32610Y30200D01*
X32810Y30100D01*
X33010Y30200D01*
X32910Y30000D01*
X33010Y29800D01*
X32810Y29900D01*
X32610Y29800D01*
X32690Y29880D02*
X32750Y30000D01*
X32690Y30120D01*
X32810Y30060D01*
X32930Y30120D01*
X32870Y30000D01*
X32930Y29880D01*
X32810Y29940D01*
X32690Y29880D01*
X32270Y30460D02*
X32370Y30660D01*
X32270Y30860D01*
X32470Y30760D01*
X32670Y30860D01*
X32570Y30660D01*
X32670Y30460D01*
X32470Y30560D01*
X32270Y30460D01*
X31890D02*
X31990Y30660D01*
X31890Y30860D01*
X32090Y30760D01*
X32290Y30860D01*
X32190Y30660D01*
X32290Y30460D01*
X32090Y30560D01*
X31890Y30460D01*
X27680Y28840D02*
X27780Y29040D01*
X27680Y29240D01*
X27880Y29140D01*
X28080Y29240D01*
X27980Y29040D01*
X28080Y28840D01*
X27880Y28940D01*
X27680Y28840D01*
X27760Y28920D02*
X27820Y29040D01*
X27760Y29160D01*
X27880Y29100D01*
X28000Y29160D01*
X27940Y29040D01*
X28000Y28920D01*
X27880Y28980D01*
X27760Y28920D01*
X28250Y28840D02*
X28350Y29040D01*
X28250Y29240D01*
X28450Y29140D01*
X28650Y29240D01*
X28550Y29040D01*
X28650Y28840D01*
X28450Y28940D01*
X28250Y28840D01*
X28330Y28920D02*
X28390Y29040D01*
X28330Y29160D01*
X28450Y29100D01*
X28570Y29160D01*
X28510Y29040D01*
X28570Y28920D01*
X28450Y28980D01*
X28330Y28920D01*
X25550Y30540D02*
X25650Y30740D01*
X25550Y30940D01*
X25750Y30840D01*
X25950Y30940D01*
X25850Y30740D01*
X25950Y30540D01*
X25750Y30640D01*
X25550Y30540D01*
X25630Y30620D02*
X25690Y30740D01*
X25630Y30860D01*
X25750Y30800D01*
X25870Y30860D01*
X25810Y30740D01*
X25870Y30620D01*
X25750Y30680D01*
X25630Y30620D01*
X25610Y30790D02*
X25710Y30990D01*
X25610Y31190D01*
X25810Y31090D01*
X26010Y31190D01*
X25910Y30990D01*
X26010Y30790D01*
X25810Y30890D01*
X25610Y30790D01*
X25690Y30870D02*
X25750Y30990D01*
X25690Y31110D01*
X25810Y31050D01*
X25930Y31110D01*
X25870Y30990D01*
X25930Y30870D01*
X25810Y30930D01*
X25690Y30870D01*
X22730Y32040D02*
X22830Y32240D01*
X22730Y32440D01*
X22930Y32340D01*
X23130Y32440D01*
X23030Y32240D01*
X23130Y32040D01*
X22930Y32140D01*
X22730Y32040D01*
X22810Y32120D02*
X22870Y32240D01*
X22810Y32360D01*
X22930Y32300D01*
X23050Y32360D01*
X22990Y32240D01*
X23050Y32120D01*
X22930Y32180D01*
X22810Y32120D01*
X24390Y32010D02*
X24490Y32210D01*
X24390Y32410D01*
X24590Y32310D01*
X24790Y32410D01*
X24690Y32210D01*
X24790Y32010D01*
X24590Y32110D01*
X24390Y32010D01*
X24470Y32090D02*
X24530Y32210D01*
X24470Y32330D01*
X24590Y32270D01*
X24710Y32330D01*
X24650Y32210D01*
X24710Y32090D01*
X24590Y32150D01*
X24470Y32090D01*
X23920Y32040D02*
X24020Y32240D01*
X23920Y32440D01*
X24120Y32340D01*
X24320Y32440D01*
X24220Y32240D01*
X24320Y32040D01*
X24120Y32140D01*
X23920Y32040D01*
X24000Y32120D02*
X24060Y32240D01*
X24000Y32360D01*
X24120Y32300D01*
X24240Y32360D01*
X24180Y32240D01*
X24240Y32120D01*
X24120Y32180D01*
X24000Y32120D01*
X14283Y31813D02*
X14383Y32013D01*
X14283Y32213D01*
X14483Y32113D01*
X14683Y32213D01*
X14583Y32013D01*
X14683Y31813D01*
X14483Y31913D01*
X14283Y31813D01*
X13200Y30280D02*
X13300Y30480D01*
X13200Y30680D01*
X13400Y30580D01*
X13600Y30680D01*
X13500Y30480D01*
X13600Y30280D01*
X13400Y30380D01*
X13200Y30280D01*
X18730Y30550D02*
X18830Y30750D01*
X18730Y30950D01*
X18930Y30850D01*
X19130Y30950D01*
X19030Y30750D01*
X19130Y30550D01*
X18930Y30650D01*
X18730Y30550D01*
X18810Y30630D02*
X18870Y30750D01*
X18810Y30870D01*
X18930Y30810D01*
X19050Y30870D01*
X18990Y30750D01*
X19050Y30630D01*
X18930Y30690D01*
X18810Y30630D01*
X18830Y30020D02*
X18930Y30220D01*
X18830Y30420D01*
X19030Y30320D01*
X19230Y30420D01*
X19130Y30220D01*
X19230Y30020D01*
X19030Y30120D01*
X18830Y30020D01*
X18910Y30100D02*
X18970Y30220D01*
X18910Y30340D01*
X19030Y30280D01*
X19150Y30340D01*
X19090Y30220D01*
X19150Y30100D01*
X19030Y30160D01*
X18910Y30100D01*
X24430Y29810D02*
X24530Y30010D01*
X24430Y30210D01*
X24630Y30110D01*
X24830Y30210D01*
X24730Y30010D01*
X24830Y29810D01*
X24630Y29910D01*
X24430Y29810D01*
X24510Y29890D02*
X24570Y30010D01*
X24510Y30130D01*
X24630Y30070D01*
X24750Y30130D01*
X24690Y30010D01*
X24750Y29890D01*
X24630Y29950D01*
X24510Y29890D01*
X23310Y31380D02*
X23410Y31580D01*
X23310Y31780D01*
X23510Y31680D01*
X23710Y31780D01*
X23610Y31580D01*
X23710Y31380D01*
X23510Y31480D01*
X23310Y31380D01*
X23390Y31460D02*
X23450Y31580D01*
X23390Y31700D01*
X23510Y31640D01*
X23630Y31700D01*
X23570Y31580D01*
X23630Y31460D01*
X23510Y31520D01*
X23390Y31460D01*
X23820Y31130D02*
X23920Y31330D01*
X23820Y31530D01*
X24020Y31430D01*
X24220Y31530D01*
X24120Y31330D01*
X24220Y31130D01*
X24020Y31230D01*
X23820Y31130D01*
X23900Y31210D02*
X23960Y31330D01*
X23900Y31450D01*
X24020Y31390D01*
X24140Y31450D01*
X24080Y31330D01*
X24140Y31210D01*
X24020Y31270D01*
X23900Y31210D01*
X20250Y30780D02*
X20350Y30980D01*
X20250Y31180D01*
X20450Y31080D01*
X20650Y31180D01*
X20550Y30980D01*
X20650Y30780D01*
X20450Y30880D01*
X20250Y30780D01*
X20330Y30860D02*
X20390Y30980D01*
X20330Y31100D01*
X20450Y31040D01*
X20570Y31100D01*
X20510Y30980D01*
X20570Y30860D01*
X20450Y30920D01*
X20330Y30860D01*
X19440Y30870D02*
X19540Y31070D01*
X19440Y31270D01*
X19640Y31170D01*
X19840Y31270D01*
X19740Y31070D01*
X19840Y30870D01*
X19640Y30970D01*
X19440Y30870D01*
X20250Y30210D02*
X20350Y30410D01*
X20250Y30610D01*
X20450Y30510D01*
X20650Y30610D01*
X20550Y30410D01*
X20650Y30210D01*
X20450Y30310D01*
X20250Y30210D01*
X20330Y30290D02*
X20390Y30410D01*
X20330Y30530D01*
X20450Y30470D01*
X20570Y30530D01*
X20510Y30410D01*
X20570Y30290D01*
X20450Y30350D01*
X20330Y30290D01*
X17000Y31970D02*
X17100Y32170D01*
X17000Y32370D01*
X17200Y32270D01*
X17400Y32370D01*
X17300Y32170D01*
X17400Y31970D01*
X17200Y32070D01*
X17000Y31970D01*
X17080Y32050D02*
X17140Y32170D01*
X17080Y32290D01*
X17200Y32230D01*
X17320Y32290D01*
X17260Y32170D01*
X17320Y32050D01*
X17200Y32110D01*
X17080Y32050D01*
X16623Y31953D02*
X16723Y32153D01*
X16623Y32353D01*
X16823Y32253D01*
X17023Y32353D01*
X16923Y32153D01*
X17023Y31953D01*
X16823Y32053D01*
X16623Y31953D01*
X16703Y32033D02*
X16763Y32153D01*
X16703Y32273D01*
X16823Y32213D01*
X16943Y32273D01*
X16883Y32153D01*
X16943Y32033D01*
X16823Y32093D01*
X16703Y32033D01*
X17483Y31957D02*
X17583Y32157D01*
X17483Y32357D01*
X17683Y32257D01*
X17883Y32357D01*
X17783Y32157D01*
X17883Y31957D01*
X17683Y32057D01*
X17483Y31957D01*
X17563Y32037D02*
X17623Y32157D01*
X17563Y32277D01*
X17683Y32217D01*
X17803Y32277D01*
X17743Y32157D01*
X17803Y32037D01*
X17683Y32097D01*
X17563Y32037D01*
X20040Y31957D02*
X20140Y32157D01*
X20040Y32357D01*
X20240Y32257D01*
X20440Y32357D01*
X20340Y32157D01*
X20440Y31957D01*
X20240Y32057D01*
X20040Y31957D01*
X20120Y32037D02*
X20180Y32157D01*
X20120Y32277D01*
X20240Y32217D01*
X20360Y32277D01*
X20300Y32157D01*
X20360Y32037D01*
X20240Y32097D01*
X20120Y32037D01*
X19250Y31957D02*
X19350Y32157D01*
X19250Y32357D01*
X19450Y32257D01*
X19650Y32357D01*
X19550Y32157D01*
X19650Y31957D01*
X19450Y32057D01*
X19250Y31957D01*
X19330Y32037D02*
X19390Y32157D01*
X19330Y32277D01*
X19450Y32217D01*
X19570Y32277D01*
X19510Y32157D01*
X19570Y32037D01*
X19450Y32097D01*
X19330Y32037D01*
X20790Y31400D02*
X20890Y31600D01*
X20790Y31800D01*
X20990Y31700D01*
X21190Y31800D01*
X21090Y31600D01*
X21190Y31400D01*
X20990Y31500D01*
X20790Y31400D01*
X20870Y31480D02*
X20930Y31600D01*
X20870Y31720D01*
X20990Y31660D01*
X21110Y31720D01*
X21050Y31600D01*
X21110Y31480D01*
X20990Y31540D01*
X20870Y31480D01*
X20790Y31790D02*
X20890Y31990D01*
X20790Y32190D01*
X20990Y32090D01*
X21190Y32190D01*
X21090Y31990D01*
X21190Y31790D01*
X20990Y31890D01*
X20790Y31790D01*
X20870Y31870D02*
X20930Y31990D01*
X20870Y32110D01*
X20990Y32050D01*
X21110Y32110D01*
X21050Y31990D01*
X21110Y31870D01*
X20990Y31930D01*
X20870Y31870D01*
X22450Y31150D02*
X22550Y31350D01*
X22450Y31550D01*
X22650Y31450D01*
X22850Y31550D01*
X22750Y31350D01*
X22850Y31150D01*
X22650Y31250D01*
X22450Y31150D01*
X22530Y31230D02*
X22590Y31350D01*
X22530Y31470D01*
X22650Y31410D01*
X22770Y31470D01*
X22710Y31350D01*
X22770Y31230D01*
X22650Y31290D01*
X22530Y31230D01*
X24720Y31960D02*
X24820Y32160D01*
X24720Y32360D01*
X24920Y32260D01*
X25120Y32360D01*
X25020Y32160D01*
X25120Y31960D01*
X24920Y32060D01*
X24720Y31960D01*
X24800Y32040D02*
X24860Y32160D01*
X24800Y32280D01*
X24920Y32220D01*
X25040Y32280D01*
X24980Y32160D01*
X25040Y32040D01*
X24920Y32100D01*
X24800Y32040D01*
X24850Y31210D02*
X24950Y31410D01*
X24850Y31610D01*
X25050Y31510D01*
X25250Y31610D01*
X25150Y31410D01*
X25250Y31210D01*
X25050Y31310D01*
X24850Y31210D01*
X24930Y31290D02*
X24990Y31410D01*
X24930Y31530D01*
X25050Y31470D01*
X25170Y31530D01*
X25110Y31410D01*
X25170Y31290D01*
X25050Y31350D01*
X24930Y31290D01*
X25220Y31210D02*
X25320Y31410D01*
X25220Y31610D01*
X25420Y31510D01*
X25620Y31610D01*
X25520Y31410D01*
X25620Y31210D01*
X25420Y31310D01*
X25220Y31210D01*
X25300Y31290D02*
X25360Y31410D01*
X25300Y31530D01*
X25420Y31470D01*
X25540Y31530D01*
X25480Y31410D01*
X25540Y31290D01*
X25420Y31350D01*
X25300Y31290D01*
X22980Y31380D02*
X23080Y31580D01*
X22980Y31780D01*
X23180Y31680D01*
X23380Y31780D01*
X23280Y31580D01*
X23380Y31380D01*
X23180Y31480D01*
X22980Y31380D01*
X23060Y31460D02*
X23120Y31580D01*
X23060Y31700D01*
X23180Y31640D01*
X23300Y31700D01*
X23240Y31580D01*
X23300Y31460D01*
X23180Y31520D01*
X23060Y31460D01*
X23310Y31770D02*
X23410Y31970D01*
X23310Y32170D01*
X23510Y32070D01*
X23710Y32170D01*
X23610Y31970D01*
X23710Y31770D01*
X23510Y31870D01*
X23310Y31770D01*
X23390Y31850D02*
X23450Y31970D01*
X23390Y32090D01*
X23510Y32030D01*
X23630Y32090D01*
X23570Y31970D01*
X23630Y31850D01*
X23510Y31910D01*
X23390Y31850D01*
X21420Y32080D02*
X21520Y32280D01*
X21420Y32480D01*
X21620Y32380D01*
X21820Y32480D01*
X21720Y32280D01*
X21820Y32080D01*
X21620Y32180D01*
X21420Y32080D01*
X21500Y32160D02*
X21560Y32280D01*
X21500Y32400D01*
X21620Y32340D01*
X21740Y32400D01*
X21680Y32280D01*
X21740Y32160D01*
X21620Y32220D01*
X21500Y32160D01*
X21920Y31010D02*
X22020Y31210D01*
X21920Y31410D01*
X22120Y31310D01*
X22320Y31410D01*
X22220Y31210D01*
X22320Y31010D01*
X22120Y31110D01*
X21920Y31010D01*
X22000Y31090D02*
X22060Y31210D01*
X22000Y31330D01*
X22120Y31270D01*
X22240Y31330D01*
X22180Y31210D01*
X22240Y31090D01*
X22120Y31150D01*
X22000Y31090D01*
X25123Y29810D02*
X25223Y30010D01*
X25123Y30210D01*
X25323Y30110D01*
X25523Y30210D01*
X25423Y30010D01*
X25523Y29810D01*
X25323Y29910D01*
X25123Y29810D01*
X25203Y29890D02*
X25263Y30010D01*
X25203Y30130D01*
X25323Y30070D01*
X25443Y30130D01*
X25383Y30010D01*
X25443Y29890D01*
X25323Y29950D01*
X25203Y29890D01*
X25558Y31178D02*
X25658Y31378D01*
X25558Y31578D01*
X25758Y31478D01*
X25958Y31578D01*
X25858Y31378D01*
X25958Y31178D01*
X25758Y31278D01*
X25558Y31178D01*
X25638Y31258D02*
X25698Y31378D01*
X25638Y31498D01*
X25758Y31438D01*
X25878Y31498D01*
X25818Y31378D01*
X25878Y31258D01*
X25758Y31318D01*
X25638Y31258D01*
X26906Y28861D02*
X27006Y29061D01*
X26906Y29261D01*
X27106Y29161D01*
X27306Y29261D01*
X27206Y29061D01*
X27306Y28861D01*
X27106Y28961D01*
X26906Y28861D01*
X27630Y29420D02*
X27730Y29620D01*
X27630Y29820D01*
X27830Y29720D01*
X28030Y29820D01*
X27930Y29620D01*
X28030Y29420D01*
X27830Y29520D01*
X27630Y29420D01*
X27710Y29500D02*
X27770Y29620D01*
X27710Y29740D01*
X27830Y29680D01*
X27950Y29740D01*
X27890Y29620D01*
X27950Y29500D01*
X27830Y29560D01*
X27710Y29500D01*
X28840Y28850D02*
X28940Y29050D01*
X28840Y29250D01*
X29040Y29150D01*
X29240Y29250D01*
X29140Y29050D01*
X29240Y28850D01*
X29040Y28950D01*
X28840Y28850D01*
X28920Y28930D02*
X28980Y29050D01*
X28920Y29170D01*
X29040Y29110D01*
X29160Y29170D01*
X29100Y29050D01*
X29160Y28930D01*
X29040Y28990D01*
X28920Y28930D01*
X28213Y29430D02*
X28313Y29630D01*
X28213Y29830D01*
X28413Y29730D01*
X28613Y29830D01*
X28513Y29630D01*
X28613Y29430D01*
X28413Y29530D01*
X28213Y29430D01*
X28293Y29510D02*
X28353Y29630D01*
X28293Y29750D01*
X28413Y29690D01*
X28533Y29750D01*
X28473Y29630D01*
X28533Y29510D01*
X28413Y29570D01*
X28293Y29510D01*
X27480Y34310D02*
X27580Y34510D01*
X27480Y34710D01*
X27680Y34610D01*
X27880Y34710D01*
X27780Y34510D01*
X27880Y34310D01*
X27680Y34410D01*
X27480Y34310D01*
X27430Y33860D02*
X27530Y34060D01*
X27430Y34260D01*
X27630Y34160D01*
X27830Y34260D01*
X27730Y34060D01*
X27830Y33860D01*
X27630Y33960D01*
X27430Y33860D01*
X20150Y28460D02*
X20250Y28660D01*
X20150Y28860D01*
X20350Y28760D01*
X20550Y28860D01*
X20450Y28660D01*
X20550Y28460D01*
X20350Y28560D01*
X20150Y28460D01*
X26980Y31060D02*
X27080Y31260D01*
X26980Y31460D01*
X27180Y31360D01*
X27380Y31460D01*
X27280Y31260D01*
X27380Y31060D01*
X27180Y31160D01*
X26980Y31060D01*
X29630Y29390D02*
X29730Y29590D01*
X29630Y29790D01*
X29830Y29690D01*
X30030Y29790D01*
X29930Y29590D01*
X30030Y29390D01*
X29830Y29490D01*
X29630Y29390D01*
X37250Y12530D02*
X37350Y12730D01*
X37250Y12930D01*
X37450Y12830D01*
X37650Y12930D01*
X37550Y12730D01*
X37650Y12530D01*
X37450Y12630D01*
X37250Y12530D01*
X37240Y13190D02*
X37340Y13390D01*
X37240Y13590D01*
X37440Y13490D01*
X37640Y13590D01*
X37540Y13390D01*
X37640Y13190D01*
X37440Y13290D01*
X37240Y13190D01*
X46630Y10710D02*
X46730Y10910D01*
X46630Y11110D01*
X46830Y11010D01*
X47030Y11110D01*
X46930Y10910D01*
X47030Y10710D01*
X46830Y10810D01*
X46630Y10710D01*
X46710Y10790D02*
X46770Y10910D01*
X46710Y11030D01*
X46830Y10970D01*
X46950Y11030D01*
X46890Y10910D01*
X46950Y10790D01*
X46830Y10850D01*
X46710Y10790D01*
X47050Y12660D02*
X47150Y12860D01*
X47050Y13060D01*
X47250Y12960D01*
X47450Y13060D01*
X47350Y12860D01*
X47450Y12660D01*
X47250Y12760D01*
X47050Y12660D01*
X47130Y12740D02*
X47190Y12860D01*
X47130Y12980D01*
X47250Y12920D01*
X47370Y12980D01*
X47310Y12860D01*
X47370Y12740D01*
X47250Y12800D01*
X47130Y12740D01*
X46750Y12340D02*
X46850Y12540D01*
X46750Y12740D01*
X46950Y12640D01*
X47150Y12740D01*
X47050Y12540D01*
X47150Y12340D01*
X46950Y12440D01*
X46750Y12340D01*
X46830Y12420D02*
X46890Y12540D01*
X46830Y12660D01*
X46950Y12600D01*
X47070Y12660D01*
X47010Y12540D01*
X47070Y12420D01*
X46950Y12480D01*
X46830Y12420D01*
X39162Y21608D02*
X39262Y21808D01*
X39162Y22008D01*
X39362Y21908D01*
X39562Y22008D01*
X39462Y21808D01*
X39562Y21608D01*
X39362Y21708D01*
X39162Y21608D01*
X10400Y14970D02*
X10500Y15170D01*
X10400Y15370D01*
X10600Y15270D01*
X10800Y15370D01*
X10700Y15170D01*
X10800Y14970D01*
X10600Y15070D01*
X10400Y14970D01*
X10480Y15050D02*
X10540Y15170D01*
X10480Y15290D01*
X10600Y15230D01*
X10720Y15290D01*
X10660Y15170D01*
X10720Y15050D01*
X10600Y15110D01*
X10480Y15050D01*
X23960Y19020D02*
X24060Y19220D01*
X23960Y19420D01*
X24160Y19320D01*
X24360Y19420D01*
X24260Y19220D01*
X24360Y19020D01*
X24160Y19120D01*
X23960Y19020D01*
X24040Y19100D02*
X24100Y19220D01*
X24040Y19340D01*
X24160Y19280D01*
X24280Y19340D01*
X24220Y19220D01*
X24280Y19100D01*
X24160Y19160D01*
X24040Y19100D01*
X15970Y17650D02*
X16070Y17850D01*
X15970Y18050D01*
X16170Y17950D01*
X16370Y18050D01*
X16270Y17850D01*
X16370Y17650D01*
X16170Y17750D01*
X15970Y17650D01*
X16050Y17730D02*
X16110Y17850D01*
X16050Y17970D01*
X16170Y17910D01*
X16290Y17970D01*
X16230Y17850D01*
X16290Y17730D01*
X16170Y17790D01*
X16050Y17730D01*
X14430Y18130D02*
X14530Y18330D01*
X14430Y18530D01*
X14630Y18430D01*
X14830Y18530D01*
X14730Y18330D01*
X14830Y18130D01*
X14630Y18230D01*
X14430Y18130D01*
X14510Y18210D02*
X14570Y18330D01*
X14510Y18450D01*
X14630Y18390D01*
X14750Y18450D01*
X14690Y18330D01*
X14750Y18210D01*
X14630Y18270D01*
X14510Y18210D01*
X31600Y18680D02*
X31700Y18880D01*
X31600Y19080D01*
X31800Y18980D01*
X32000Y19080D01*
X31900Y18880D01*
X32000Y18680D01*
X31800Y18780D01*
X31600Y18680D01*
X31680Y18760D02*
X31740Y18880D01*
X31680Y19000D01*
X31800Y18940D01*
X31920Y19000D01*
X31860Y18880D01*
X31920Y18760D01*
X31800Y18820D01*
X31680Y18760D01*
X19220Y13240D02*
X19320Y13440D01*
X19220Y13640D01*
X19420Y13540D01*
X19620Y13640D01*
X19520Y13440D01*
X19620Y13240D01*
X19420Y13340D01*
X19220Y13240D01*
X19300Y13320D02*
X19360Y13440D01*
X19300Y13560D01*
X19420Y13500D01*
X19540Y13560D01*
X19480Y13440D01*
X19540Y13320D01*
X19420Y13380D01*
X19300Y13320D01*
X20610Y12280D02*
X20710Y12480D01*
X20610Y12680D01*
X20810Y12580D01*
X21010Y12680D01*
X20910Y12480D01*
X21010Y12280D01*
X20810Y12380D01*
X20610Y12280D01*
X19340Y12700D02*
X19440Y12900D01*
X19340Y13100D01*
X19540Y13000D01*
X19740Y13100D01*
X19640Y12900D01*
X19740Y12700D01*
X19540Y12800D01*
X19340Y12700D01*
X19420Y12780D02*
X19480Y12900D01*
X19420Y13020D01*
X19540Y12960D01*
X19660Y13020D01*
X19600Y12900D01*
X19660Y12780D01*
X19540Y12840D01*
X19420Y12780D01*
X17540Y14180D02*
X17640Y14380D01*
X17540Y14580D01*
X17740Y14480D01*
X17940Y14580D01*
X17840Y14380D01*
X17940Y14180D01*
X17740Y14280D01*
X17540Y14180D01*
X17620Y14260D02*
X17680Y14380D01*
X17620Y14500D01*
X17740Y14440D01*
X17860Y14500D01*
X17800Y14380D01*
X17860Y14260D01*
X17740Y14320D01*
X17620Y14260D01*
X22600Y14480D02*
X22700Y14680D01*
X22600Y14880D01*
X22800Y14780D01*
X23000Y14880D01*
X22900Y14680D01*
X23000Y14480D01*
X22800Y14580D01*
X22600Y14480D01*
X22680Y14560D02*
X22740Y14680D01*
X22680Y14800D01*
X22800Y14740D01*
X22920Y14800D01*
X22860Y14680D01*
X22920Y14560D01*
X22800Y14620D01*
X22680Y14560D01*
X20430Y14170D02*
X20530Y14370D01*
X20430Y14570D01*
X20630Y14470D01*
X20830Y14570D01*
X20730Y14370D01*
X20830Y14170D01*
X20630Y14270D01*
X20430Y14170D01*
X20510Y14250D02*
X20570Y14370D01*
X20510Y14490D01*
X20630Y14430D01*
X20750Y14490D01*
X20690Y14370D01*
X20750Y14250D01*
X20630Y14310D01*
X20510Y14250D01*
X20180Y14170D02*
X20280Y14370D01*
X20180Y14570D01*
X20380Y14470D01*
X20580Y14570D01*
X20480Y14370D01*
X20580Y14170D01*
X20380Y14270D01*
X20180Y14170D01*
X20260Y14250D02*
X20320Y14370D01*
X20260Y14490D01*
X20380Y14430D01*
X20500Y14490D01*
X20440Y14370D01*
X20500Y14250D01*
X20380Y14310D01*
X20260Y14250D01*
X15890Y14160D02*
X15990Y14360D01*
X15890Y14560D01*
X16090Y14460D01*
X16290Y14560D01*
X16190Y14360D01*
X16290Y14160D01*
X16090Y14260D01*
X15890Y14160D01*
X15970Y14240D02*
X16030Y14360D01*
X15970Y14480D01*
X16090Y14420D01*
X16210Y14480D01*
X16150Y14360D01*
X16210Y14240D01*
X16090Y14300D01*
X15970Y14240D01*
X15580Y14170D02*
X15680Y14370D01*
X15580Y14570D01*
X15780Y14470D01*
X15980Y14570D01*
X15880Y14370D01*
X15980Y14170D01*
X15780Y14270D01*
X15580Y14170D01*
X15660Y14250D02*
X15720Y14370D01*
X15660Y14490D01*
X15780Y14430D01*
X15900Y14490D01*
X15840Y14370D01*
X15900Y14250D01*
X15780Y14310D01*
X15660Y14250D01*
X14800Y12360D02*
X14900Y12560D01*
X14800Y12760D01*
X15000Y12660D01*
X15200Y12760D01*
X15100Y12560D01*
X15200Y12360D01*
X15000Y12460D01*
X14800Y12360D01*
X14880Y12440D02*
X14940Y12560D01*
X14880Y12680D01*
X15000Y12620D01*
X15120Y12680D01*
X15060Y12560D01*
X15120Y12440D01*
X15000Y12500D01*
X14880Y12440D01*
X12850Y13270D02*
X12950Y13470D01*
X12850Y13670D01*
X13050Y13570D01*
X13250Y13670D01*
X13150Y13470D01*
X13250Y13270D01*
X13050Y13370D01*
X12850Y13270D01*
X12930Y13350D02*
X12990Y13470D01*
X12930Y13590D01*
X13050Y13530D01*
X13170Y13590D01*
X13110Y13470D01*
X13170Y13350D01*
X13050Y13410D01*
X12930Y13350D01*
X13420Y13080D02*
X13520Y13280D01*
X13420Y13480D01*
X13620Y13380D01*
X13820Y13480D01*
X13720Y13280D01*
X13820Y13080D01*
X13620Y13180D01*
X13420Y13080D01*
X13500Y13160D02*
X13560Y13280D01*
X13500Y13400D01*
X13620Y13340D01*
X13740Y13400D01*
X13680Y13280D01*
X13740Y13160D01*
X13620Y13220D01*
X13500Y13160D01*
X16180Y12310D02*
X16280Y12510D01*
X16180Y12710D01*
X16380Y12610D01*
X16580Y12710D01*
X16480Y12510D01*
X16580Y12310D01*
X16380Y12410D01*
X16180Y12310D01*
X16260Y12390D02*
X16320Y12510D01*
X16260Y12630D01*
X16380Y12570D01*
X16500Y12630D01*
X16440Y12510D01*
X16500Y12390D01*
X16380Y12450D01*
X16260Y12390D01*
X15910Y13250D02*
X16010Y13450D01*
X15910Y13650D01*
X16110Y13550D01*
X16310Y13650D01*
X16210Y13450D01*
X16310Y13250D01*
X16110Y13350D01*
X15910Y13250D01*
X15990Y13330D02*
X16050Y13450D01*
X15990Y13570D01*
X16110Y13510D01*
X16230Y13570D01*
X16170Y13450D01*
X16230Y13330D01*
X16110Y13390D01*
X15990Y13330D01*
X15010Y13580D02*
X15110Y13780D01*
X15010Y13980D01*
X15210Y13880D01*
X15410Y13980D01*
X15310Y13780D01*
X15410Y13580D01*
X15210Y13680D01*
X15010Y13580D01*
X15090Y13660D02*
X15150Y13780D01*
X15090Y13900D01*
X15210Y13840D01*
X15330Y13900D01*
X15270Y13780D01*
X15330Y13660D01*
X15210Y13720D01*
X15090Y13660D01*
X14840Y13860D02*
X14940Y14060D01*
X14840Y14260D01*
X15040Y14160D01*
X15240Y14260D01*
X15140Y14060D01*
X15240Y13860D01*
X15040Y13960D01*
X14840Y13860D01*
X14920Y13940D02*
X14980Y14060D01*
X14920Y14180D01*
X15040Y14120D01*
X15160Y14180D01*
X15100Y14060D01*
X15160Y13940D01*
X15040Y14000D01*
X14920Y13940D01*
X14310Y12360D02*
X14410Y12560D01*
X14310Y12760D01*
X14510Y12660D01*
X14710Y12760D01*
X14610Y12560D01*
X14710Y12360D01*
X14510Y12460D01*
X14310Y12360D01*
X14390Y12440D02*
X14450Y12560D01*
X14390Y12680D01*
X14510Y12620D01*
X14630Y12680D01*
X14570Y12560D01*
X14630Y12440D01*
X14510Y12500D01*
X14390Y12440D01*
X11610Y14120D02*
X11710Y14320D01*
X11610Y14520D01*
X11810Y14420D01*
X12010Y14520D01*
X11910Y14320D01*
X12010Y14120D01*
X11810Y14220D01*
X11610Y14120D01*
X11690Y14200D02*
X11750Y14320D01*
X11690Y14440D01*
X11810Y14380D01*
X11930Y14440D01*
X11870Y14320D01*
X11930Y14200D01*
X11810Y14260D01*
X11690Y14200D01*
X11610Y13810D02*
X11710Y14010D01*
X11610Y14210D01*
X11810Y14110D01*
X12010Y14210D01*
X11910Y14010D01*
X12010Y13810D01*
X11810Y13910D01*
X11610Y13810D01*
X11690Y13890D02*
X11750Y14010D01*
X11690Y14130D01*
X11810Y14070D01*
X11930Y14130D01*
X11870Y14010D01*
X11930Y13890D01*
X11810Y13950D01*
X11690Y13890D01*
X13310Y14650D02*
X13410Y14850D01*
X13310Y15050D01*
X13510Y14950D01*
X13710Y15050D01*
X13610Y14850D01*
X13710Y14650D01*
X13510Y14750D01*
X13310Y14650D01*
X13390Y14730D02*
X13450Y14850D01*
X13390Y14970D01*
X13510Y14910D01*
X13630Y14970D01*
X13570Y14850D01*
X13630Y14730D01*
X13510Y14790D01*
X13390Y14730D01*
X13300Y14270D02*
X13400Y14470D01*
X13300Y14670D01*
X13500Y14570D01*
X13700Y14670D01*
X13600Y14470D01*
X13700Y14270D01*
X13500Y14370D01*
X13300Y14270D01*
X13380Y14350D02*
X13440Y14470D01*
X13380Y14590D01*
X13500Y14530D01*
X13620Y14590D01*
X13560Y14470D01*
X13620Y14350D01*
X13500Y14410D01*
X13380Y14350D01*
X12970Y14450D02*
X13070Y14650D01*
X12970Y14850D01*
X13170Y14750D01*
X13370Y14850D01*
X13270Y14650D01*
X13370Y14450D01*
X13170Y14550D01*
X12970Y14450D01*
X13050Y14530D02*
X13110Y14650D01*
X13050Y14770D01*
X13170Y14710D01*
X13290Y14770D01*
X13230Y14650D01*
X13290Y14530D01*
X13170Y14590D01*
X13050Y14530D01*
X21830Y13290D02*
X21930Y13490D01*
X21830Y13690D01*
X22030Y13590D01*
X22230Y13690D01*
X22130Y13490D01*
X22230Y13290D01*
X22030Y13390D01*
X21830Y13290D01*
X21910Y13370D02*
X21970Y13490D01*
X21910Y13610D01*
X22030Y13550D01*
X22150Y13610D01*
X22090Y13490D01*
X22150Y13370D01*
X22030Y13430D01*
X21910Y13370D01*
X18350Y13710D02*
X18450Y13910D01*
X18350Y14110D01*
X18550Y14010D01*
X18750Y14110D01*
X18650Y13910D01*
X18750Y13710D01*
X18550Y13810D01*
X18350Y13710D01*
X18430Y13790D02*
X18490Y13910D01*
X18430Y14030D01*
X18550Y13970D01*
X18670Y14030D01*
X18610Y13910D01*
X18670Y13790D01*
X18550Y13850D01*
X18430Y13790D01*
X22490Y12290D02*
X22590Y12490D01*
X22490Y12690D01*
X22690Y12590D01*
X22890Y12690D01*
X22790Y12490D01*
X22890Y12290D01*
X22690Y12390D01*
X22490Y12290D01*
X22570Y12370D02*
X22630Y12490D01*
X22570Y12610D01*
X22690Y12550D01*
X22810Y12610D01*
X22750Y12490D01*
X22810Y12370D01*
X22690Y12430D01*
X22570Y12370D01*
X18950Y13240D02*
X19050Y13440D01*
X18950Y13640D01*
X19150Y13540D01*
X19350Y13640D01*
X19250Y13440D01*
X19350Y13240D01*
X19150Y13340D01*
X18950Y13240D01*
X19030Y13320D02*
X19090Y13440D01*
X19030Y13560D01*
X19150Y13500D01*
X19270Y13560D01*
X19210Y13440D01*
X19270Y13320D01*
X19150Y13380D01*
X19030Y13320D01*
X23130Y13450D02*
X23230Y13650D01*
X23130Y13850D01*
X23330Y13750D01*
X23530Y13850D01*
X23430Y13650D01*
X23530Y13450D01*
X23330Y13550D01*
X23130Y13450D01*
X23210Y13530D02*
X23270Y13650D01*
X23210Y13770D01*
X23330Y13710D01*
X23450Y13770D01*
X23390Y13650D01*
X23450Y13530D01*
X23330Y13590D01*
X23210Y13530D01*
X23310Y13780D02*
X23410Y13980D01*
X23310Y14180D01*
X23510Y14080D01*
X23710Y14180D01*
X23610Y13980D01*
X23710Y13780D01*
X23510Y13880D01*
X23310Y13780D01*
X23390Y13860D02*
X23450Y13980D01*
X23390Y14100D01*
X23510Y14040D01*
X23630Y14100D01*
X23570Y13980D01*
X23630Y13860D01*
X23510Y13920D01*
X23390Y13860D01*
X25370Y15890D02*
X25470Y16090D01*
X25370Y16290D01*
X25570Y16190D01*
X25770Y16290D01*
X25670Y16090D01*
X25770Y15890D01*
X25570Y15990D01*
X25370Y15890D01*
X25450Y15970D02*
X25510Y16090D01*
X25450Y16210D01*
X25570Y16150D01*
X25690Y16210D01*
X25630Y16090D01*
X25690Y15970D01*
X25570Y16030D01*
X25450Y15970D01*
X26295Y15275D02*
X26395Y15475D01*
X26295Y15675D01*
X26495Y15575D01*
X26695Y15675D01*
X26595Y15475D01*
X26695Y15275D01*
X26495Y15375D01*
X26295Y15275D01*
X26375Y15355D02*
X26435Y15475D01*
X26375Y15595D01*
X26495Y15535D01*
X26615Y15595D01*
X26555Y15475D01*
X26615Y15355D01*
X26495Y15415D01*
X26375Y15355D01*
X26490Y15100D02*
X26590Y15300D01*
X26490Y15500D01*
X26690Y15400D01*
X26890Y15500D01*
X26790Y15300D01*
X26890Y15100D01*
X26690Y15200D01*
X26490Y15100D01*
X26570Y15180D02*
X26630Y15300D01*
X26570Y15420D01*
X26690Y15360D01*
X26810Y15420D01*
X26750Y15300D01*
X26810Y15180D01*
X26690Y15240D01*
X26570Y15180D01*
X26450Y15610D02*
X26550Y15810D01*
X26450Y16010D01*
X26650Y15910D01*
X26850Y16010D01*
X26750Y15810D01*
X26850Y15610D01*
X26650Y15710D01*
X26450Y15610D01*
X26530Y15690D02*
X26590Y15810D01*
X26530Y15930D01*
X26650Y15870D01*
X26770Y15930D01*
X26710Y15810D01*
X26770Y15690D01*
X26650Y15750D01*
X26530Y15690D01*
X26680Y15610D02*
X26780Y15810D01*
X26680Y16010D01*
X26880Y15910D01*
X27080Y16010D01*
X26980Y15810D01*
X27080Y15610D01*
X26880Y15710D01*
X26680Y15610D01*
X26760Y15690D02*
X26820Y15810D01*
X26760Y15930D01*
X26880Y15870D01*
X27000Y15930D01*
X26940Y15810D01*
X27000Y15690D01*
X26880Y15750D01*
X26760Y15690D01*
X31070Y19910D02*
X31170Y20110D01*
X31070Y20310D01*
X31270Y20210D01*
X31470Y20310D01*
X31370Y20110D01*
X31470Y19910D01*
X31270Y20010D01*
X31070Y19910D01*
X31350Y19450D02*
X31450Y19650D01*
X31350Y19850D01*
X31550Y19750D01*
X31750Y19850D01*
X31650Y19650D01*
X31750Y19450D01*
X31550Y19550D01*
X31350Y19450D01*
X31430Y19530D02*
X31490Y19650D01*
X31430Y19770D01*
X31550Y19710D01*
X31670Y19770D01*
X31610Y19650D01*
X31670Y19530D01*
X31550Y19590D01*
X31430Y19530D01*
X28180Y18930D02*
X28280Y19130D01*
X28180Y19330D01*
X28380Y19230D01*
X28580Y19330D01*
X28480Y19130D01*
X28580Y18930D01*
X28380Y19030D01*
X28180Y18930D01*
X28260Y19010D02*
X28320Y19130D01*
X28260Y19250D01*
X28380Y19190D01*
X28500Y19250D01*
X28440Y19130D01*
X28500Y19010D01*
X28380Y19070D01*
X28260Y19010D01*
X30680Y12310D02*
X30780Y12510D01*
X30680Y12710D01*
X30880Y12610D01*
X31080Y12710D01*
X30980Y12510D01*
X31080Y12310D01*
X30880Y12410D01*
X30680Y12310D01*
X30760Y12390D02*
X30820Y12510D01*
X30760Y12630D01*
X30880Y12570D01*
X31000Y12630D01*
X30940Y12510D01*
X31000Y12390D01*
X30880Y12450D01*
X30760Y12390D01*
X33210Y12740D02*
X33310Y12940D01*
X33210Y13140D01*
X33410Y13040D01*
X33610Y13140D01*
X33510Y12940D01*
X33610Y12740D01*
X33410Y12840D01*
X33210Y12740D01*
X33290Y12820D02*
X33350Y12940D01*
X33290Y13060D01*
X33410Y13000D01*
X33530Y13060D01*
X33470Y12940D01*
X33530Y12820D01*
X33410Y12880D01*
X33290Y12820D01*
X32555Y12165D02*
X32655Y12365D01*
X32555Y12565D01*
X32755Y12465D01*
X32955Y12565D01*
X32855Y12365D01*
X32955Y12165D01*
X32755Y12265D01*
X32555Y12165D01*
X32635Y12245D02*
X32695Y12365D01*
X32635Y12485D01*
X32755Y12425D01*
X32875Y12485D01*
X32815Y12365D01*
X32875Y12245D01*
X32755Y12305D01*
X32635Y12245D01*
X32340Y12360D02*
X32440Y12560D01*
X32340Y12760D01*
X32540Y12660D01*
X32740Y12760D01*
X32640Y12560D01*
X32740Y12360D01*
X32540Y12460D01*
X32340Y12360D01*
X31440Y12050D02*
X31540Y12250D01*
X31440Y12450D01*
X31640Y12350D01*
X31840Y12450D01*
X31740Y12250D01*
X31840Y12050D01*
X31640Y12150D01*
X31440Y12050D01*
X31520Y12130D02*
X31580Y12250D01*
X31520Y12370D01*
X31640Y12310D01*
X31760Y12370D01*
X31700Y12250D01*
X31760Y12130D01*
X31640Y12190D01*
X31520Y12130D01*
X30180Y12440D02*
X30280Y12640D01*
X30180Y12840D01*
X30380Y12740D01*
X30580Y12840D01*
X30480Y12640D01*
X30580Y12440D01*
X30380Y12540D01*
X30180Y12440D01*
X30260Y12520D02*
X30320Y12640D01*
X30260Y12760D01*
X30380Y12700D01*
X30500Y12760D01*
X30440Y12640D01*
X30500Y12520D01*
X30380Y12580D01*
X30260Y12520D01*
X31550Y13920D02*
X31650Y14120D01*
X31550Y14320D01*
X31750Y14220D01*
X31950Y14320D01*
X31850Y14120D01*
X31950Y13920D01*
X31750Y14020D01*
X31550Y13920D01*
X31630Y14000D02*
X31690Y14120D01*
X31630Y14240D01*
X31750Y14180D01*
X31870Y14240D01*
X31810Y14120D01*
X31870Y14000D01*
X31750Y14060D01*
X31630Y14000D01*
X19009Y19847D02*
X19109Y20047D01*
X19009Y20247D01*
X19209Y20147D01*
X19409Y20247D01*
X19309Y20047D01*
X19409Y19847D01*
X19209Y19947D01*
X19009Y19847D01*
X19089Y19927D02*
X19149Y20047D01*
X19089Y20167D01*
X19209Y20107D01*
X19329Y20167D01*
X19269Y20047D01*
X19329Y19927D01*
X19209Y19987D01*
X19089Y19927D01*
X18850Y20140D02*
X18950Y20340D01*
X18850Y20540D01*
X19050Y20440D01*
X19250Y20540D01*
X19150Y20340D01*
X19250Y20140D01*
X19050Y20240D01*
X18850Y20140D01*
X18930Y20220D02*
X18990Y20340D01*
X18930Y20460D01*
X19050Y20400D01*
X19170Y20460D01*
X19110Y20340D01*
X19170Y20220D01*
X19050Y20280D01*
X18930Y20220D01*
X20710Y19940D02*
X20810Y20140D01*
X20710Y20340D01*
X20910Y20240D01*
X21110Y20340D01*
X21010Y20140D01*
X21110Y19940D01*
X20910Y20040D01*
X20710Y19940D01*
X20790Y20020D02*
X20850Y20140D01*
X20790Y20260D01*
X20910Y20200D01*
X21030Y20260D01*
X20970Y20140D01*
X21030Y20020D01*
X20910Y20080D01*
X20790Y20020D01*
X20960Y19940D02*
X21060Y20140D01*
X20960Y20340D01*
X21160Y20240D01*
X21360Y20340D01*
X21260Y20140D01*
X21360Y19940D01*
X21160Y20040D01*
X20960Y19940D01*
X21040Y20020D02*
X21100Y20140D01*
X21040Y20260D01*
X21160Y20200D01*
X21280Y20260D01*
X21220Y20140D01*
X21280Y20020D01*
X21160Y20080D01*
X21040Y20020D01*
X23023Y18460D02*
X23123Y18660D01*
X23023Y18860D01*
X23223Y18760D01*
X23423Y18860D01*
X23323Y18660D01*
X23423Y18460D01*
X23223Y18560D01*
X23023Y18460D01*
X23103Y18540D02*
X23163Y18660D01*
X23103Y18780D01*
X23223Y18720D01*
X23343Y18780D01*
X23283Y18660D01*
X23343Y18540D01*
X23223Y18600D01*
X23103Y18540D01*
X21210Y18500D02*
X21310Y18700D01*
X21210Y18900D01*
X21410Y18800D01*
X21610Y18900D01*
X21510Y18700D01*
X21610Y18500D01*
X21410Y18600D01*
X21210Y18500D01*
X21290Y18580D02*
X21350Y18700D01*
X21290Y18820D01*
X21410Y18760D01*
X21530Y18820D01*
X21470Y18700D01*
X21530Y18580D01*
X21410Y18640D01*
X21290Y18580D01*
X19050Y18530D02*
X19150Y18730D01*
X19050Y18930D01*
X19250Y18830D01*
X19450Y18930D01*
X19350Y18730D01*
X19450Y18530D01*
X19250Y18630D01*
X19050Y18530D01*
X19130Y18610D02*
X19190Y18730D01*
X19130Y18850D01*
X19250Y18790D01*
X19370Y18850D01*
X19310Y18730D01*
X19370Y18610D01*
X19250Y18670D01*
X19130Y18610D01*
X19950Y17850D02*
X20050Y18050D01*
X19950Y18250D01*
X20150Y18150D01*
X20350Y18250D01*
X20250Y18050D01*
X20350Y17850D01*
X20150Y17950D01*
X19950Y17850D01*
X20030Y17930D02*
X20090Y18050D01*
X20030Y18170D01*
X20150Y18110D01*
X20270Y18170D01*
X20210Y18050D01*
X20270Y17930D01*
X20150Y17990D01*
X20030Y17930D01*
X20440Y17670D02*
X20540Y17870D01*
X20440Y18070D01*
X20640Y17970D01*
X20840Y18070D01*
X20740Y17870D01*
X20840Y17670D01*
X20640Y17770D01*
X20440Y17670D01*
X20520Y17750D02*
X20580Y17870D01*
X20520Y17990D01*
X20640Y17930D01*
X20760Y17990D01*
X20700Y17870D01*
X20760Y17750D01*
X20640Y17810D01*
X20520Y17750D01*
X18470Y18400D02*
X18570Y18600D01*
X18470Y18800D01*
X18670Y18700D01*
X18870Y18800D01*
X18770Y18600D01*
X18870Y18400D01*
X18670Y18500D01*
X18470Y18400D01*
X18550Y18480D02*
X18610Y18600D01*
X18550Y18720D01*
X18670Y18660D01*
X18790Y18720D01*
X18730Y18600D01*
X18790Y18480D01*
X18670Y18540D01*
X18550Y18480D01*
X24700Y16550D02*
X24800Y16750D01*
X24700Y16950D01*
X24900Y16850D01*
X25100Y16950D01*
X25000Y16750D01*
X25100Y16550D01*
X24900Y16650D01*
X24700Y16550D01*
X24780Y16630D02*
X24840Y16750D01*
X24780Y16870D01*
X24900Y16810D01*
X25020Y16870D01*
X24960Y16750D01*
X25020Y16630D01*
X24900Y16690D01*
X24780Y16630D01*
X13980Y18670D02*
X14080Y18870D01*
X13980Y19070D01*
X14180Y18970D01*
X14380Y19070D01*
X14280Y18870D01*
X14380Y18670D01*
X14180Y18770D01*
X13980Y18670D01*
X14060Y18750D02*
X14120Y18870D01*
X14060Y18990D01*
X14180Y18930D01*
X14300Y18990D01*
X14240Y18870D01*
X14300Y18750D01*
X14180Y18810D01*
X14060Y18750D01*
X17460Y18470D02*
X17560Y18670D01*
X17460Y18870D01*
X17660Y18770D01*
X17860Y18870D01*
X17760Y18670D01*
X17860Y18470D01*
X17660Y18570D01*
X17460Y18470D01*
X17540Y18550D02*
X17600Y18670D01*
X17540Y18790D01*
X17660Y18730D01*
X17780Y18790D01*
X17720Y18670D01*
X17780Y18550D01*
X17660Y18610D01*
X17540Y18550D01*
X26280Y20180D02*
X26380Y20380D01*
X26280Y20580D01*
X26480Y20480D01*
X26680Y20580D01*
X26580Y20380D01*
X26680Y20180D01*
X26480Y20280D01*
X26280Y20180D01*
X26360Y20260D02*
X26420Y20380D01*
X26360Y20500D01*
X26480Y20440D01*
X26600Y20500D01*
X26540Y20380D01*
X26600Y20260D01*
X26480Y20320D01*
X26360Y20260D01*
X29610Y19550D02*
X29710Y19750D01*
X29610Y19950D01*
X29810Y19850D01*
X30010Y19950D01*
X29910Y19750D01*
X30010Y19550D01*
X29810Y19650D01*
X29610Y19550D01*
X29690Y19630D02*
X29750Y19750D01*
X29690Y19870D01*
X29810Y19810D01*
X29930Y19870D01*
X29870Y19750D01*
X29930Y19630D01*
X29810Y19690D01*
X29690Y19630D01*
X28620Y20020D02*
X28720Y20220D01*
X28620Y20420D01*
X28820Y20320D01*
X29020Y20420D01*
X28920Y20220D01*
X29020Y20020D01*
X28820Y20120D01*
X28620Y20020D01*
X28700Y20100D02*
X28760Y20220D01*
X28700Y20340D01*
X28820Y20280D01*
X28940Y20340D01*
X28880Y20220D01*
X28940Y20100D01*
X28820Y20160D01*
X28700Y20100D01*
X29290Y20020D02*
X29390Y20220D01*
X29290Y20420D01*
X29490Y20320D01*
X29690Y20420D01*
X29590Y20220D01*
X29690Y20020D01*
X29490Y20120D01*
X29290Y20020D01*
X29370Y20100D02*
X29430Y20220D01*
X29370Y20340D01*
X29490Y20280D01*
X29610Y20340D01*
X29550Y20220D01*
X29610Y20100D01*
X29490Y20160D01*
X29370Y20100D01*
X29750Y20040D02*
X29850Y20240D01*
X29750Y20440D01*
X29950Y20340D01*
X30150Y20440D01*
X30050Y20240D01*
X30150Y20040D01*
X29950Y20140D01*
X29750Y20040D01*
X29830Y20120D02*
X29890Y20240D01*
X29830Y20360D01*
X29950Y20300D01*
X30070Y20360D01*
X30010Y20240D01*
X30070Y20120D01*
X29950Y20180D01*
X29830Y20120D01*
X27762Y18595D02*
X27862Y18795D01*
X27762Y18995D01*
X27962Y18895D01*
X28162Y18995D01*
X28062Y18795D01*
X28162Y18595D01*
X27962Y18695D01*
X27762Y18595D01*
X27574Y18111D02*
X27674Y18311D01*
X27574Y18511D01*
X27774Y18411D01*
X27974Y18511D01*
X27874Y18311D01*
X27974Y18111D01*
X27774Y18211D01*
X27574Y18111D01*
X25842Y18111D02*
X25942Y18312D01*
X25842Y18512D01*
X26042Y18412D01*
X26242Y18512D01*
X26142Y18312D01*
X26242Y18111D01*
X26042Y18211D01*
X25842Y18111D01*
X32690Y18400D02*
X32790Y18600D01*
X32690Y18800D01*
X32890Y18700D01*
X33090Y18800D01*
X32990Y18600D01*
X33090Y18400D01*
X32890Y18500D01*
X32690Y18400D01*
X32770Y18480D02*
X32830Y18600D01*
X32770Y18720D01*
X32890Y18660D01*
X33010Y18720D01*
X32950Y18600D01*
X33010Y18480D01*
X32890Y18540D01*
X32770Y18480D01*
X33410Y17960D02*
X33510Y18160D01*
X33410Y18360D01*
X33610Y18260D01*
X33810Y18360D01*
X33710Y18160D01*
X33810Y17960D01*
X33610Y18060D01*
X33410Y17960D01*
X33490Y18040D02*
X33550Y18160D01*
X33490Y18280D01*
X33610Y18220D01*
X33730Y18280D01*
X33670Y18160D01*
X33730Y18040D01*
X33610Y18100D01*
X33490Y18040D01*
X31450Y21600D02*
X31550Y21800D01*
X31450Y22000D01*
X31650Y21900D01*
X31850Y22000D01*
X31750Y21800D01*
X31850Y21600D01*
X31650Y21700D01*
X31450Y21600D01*
X27660Y16380D02*
X27760Y16580D01*
X27660Y16780D01*
X27860Y16680D01*
X28060Y16780D01*
X27960Y16580D01*
X28060Y16380D01*
X27860Y16480D01*
X27660Y16380D01*
X31990Y14204D02*
X32090Y14404D01*
X31990Y14604D01*
X32190Y14504D01*
X32390Y14604D01*
X32290Y14404D01*
X32390Y14204D01*
X32190Y14304D01*
X31990Y14204D01*
X32070Y14284D02*
X32130Y14404D01*
X32070Y14524D01*
X32190Y14464D01*
X32310Y14524D01*
X32250Y14404D01*
X32310Y14284D01*
X32190Y14344D01*
X32070Y14284D01*
X31814Y14680D02*
X31914Y14880D01*
X31814Y15080D01*
X32014Y14980D01*
X32214Y15080D01*
X32114Y14880D01*
X32214Y14680D01*
X32014Y14780D01*
X31814Y14680D01*
X31894Y14760D02*
X31954Y14880D01*
X31894Y15000D01*
X32014Y14940D01*
X32134Y15000D01*
X32074Y14880D01*
X32134Y14760D01*
X32014Y14820D01*
X31894Y14760D01*
X30060Y17670D02*
X30160Y17870D01*
X30060Y18070D01*
X30260Y17970D01*
X30460Y18070D01*
X30360Y17870D01*
X30460Y17670D01*
X30260Y17770D01*
X30060Y17670D01*
X30140Y17750D02*
X30200Y17870D01*
X30140Y17990D01*
X30260Y17930D01*
X30380Y17990D01*
X30320Y17870D01*
X30380Y17750D01*
X30260Y17810D01*
X30140Y17750D01*
X22174Y14680D02*
X22274Y14880D01*
X22174Y15080D01*
X22374Y14980D01*
X22574Y15080D01*
X22474Y14880D01*
X22574Y14680D01*
X22374Y14780D01*
X22174Y14680D01*
X22254Y14760D02*
X22314Y14880D01*
X22254Y15000D01*
X22374Y14940D01*
X22494Y15000D01*
X22434Y14880D01*
X22494Y14760D01*
X22374Y14820D01*
X22254Y14760D01*
X22350Y14204D02*
X22450Y14404D01*
X22350Y14604D01*
X22550Y14504D01*
X22750Y14604D01*
X22650Y14404D01*
X22750Y14204D01*
X22550Y14304D01*
X22350Y14204D01*
X22430Y14284D02*
X22490Y14404D01*
X22430Y14524D01*
X22550Y14464D01*
X22670Y14524D01*
X22610Y14404D01*
X22670Y14284D01*
X22550Y14344D01*
X22430Y14284D01*
X10510Y20820D02*
X10610Y21020D01*
X10510Y21220D01*
X10710Y21120D01*
X10910Y21220D01*
X10810Y21020D01*
X10910Y20820D01*
X10710Y20920D01*
X10510Y20820D01*
X10590Y20900D02*
X10650Y21020D01*
X10590Y21140D01*
X10710Y21080D01*
X10830Y21140D01*
X10770Y21020D01*
X10830Y20900D01*
X10710Y20960D01*
X10590Y20900D01*
X24590Y21280D02*
X24690Y21480D01*
X24590Y21680D01*
X24790Y21580D01*
X24990Y21680D01*
X24890Y21480D01*
X24990Y21280D01*
X24790Y21380D01*
X24590Y21280D01*
X25180D02*
X25280Y21480D01*
X25180Y21680D01*
X25380Y21580D01*
X25580Y21680D01*
X25480Y21480D01*
X25580Y21280D01*
X25380Y21380D01*
X25180Y21280D01*
X26915Y20180D02*
X27015Y20380D01*
X26915Y20580D01*
X27115Y20480D01*
X27315Y20580D01*
X27215Y20380D01*
X27315Y20180D01*
X27115Y20280D01*
X26915Y20180D01*
X26995Y20260D02*
X27055Y20380D01*
X26995Y20500D01*
X27115Y20440D01*
X27235Y20500D01*
X27175Y20380D01*
X27235Y20260D01*
X27115Y20320D01*
X26995Y20260D01*
X27240Y20180D02*
X27340Y20380D01*
X27240Y20580D01*
X27440Y20480D01*
X27640Y20580D01*
X27540Y20380D01*
X27640Y20180D01*
X27440Y20280D01*
X27240Y20180D01*
X27320Y20260D02*
X27380Y20380D01*
X27320Y20500D01*
X27440Y20440D01*
X27560Y20500D01*
X27500Y20380D01*
X27560Y20260D01*
X27440Y20320D01*
X27320Y20260D01*
X27590Y20180D02*
X27690Y20380D01*
X27590Y20580D01*
X27790Y20480D01*
X27990Y20580D01*
X27890Y20380D01*
X27990Y20180D01*
X27790Y20280D01*
X27590Y20180D01*
X27670Y20260D02*
X27730Y20380D01*
X27670Y20500D01*
X27790Y20440D01*
X27910Y20500D01*
X27850Y20380D01*
X27910Y20260D01*
X27790Y20320D01*
X27670Y20260D01*
X27920Y20500D02*
X28020Y20700D01*
X27920Y20900D01*
X28120Y20800D01*
X28320Y20900D01*
X28220Y20700D01*
X28320Y20500D01*
X28120Y20600D01*
X27920Y20500D01*
X28000Y20580D02*
X28060Y20700D01*
X28000Y20820D01*
X28120Y20760D01*
X28240Y20820D01*
X28180Y20700D01*
X28240Y20580D01*
X28120Y20640D01*
X28000Y20580D01*
X29870Y14644D02*
X29970Y14844D01*
X29870Y15044D01*
X30070Y14944D01*
X30270Y15044D01*
X30170Y14844D01*
X30270Y14644D01*
X30070Y14744D01*
X29870Y14644D01*
X29950Y14724D02*
X30010Y14844D01*
X29950Y14964D01*
X30070Y14904D01*
X30190Y14964D01*
X30130Y14844D01*
X30190Y14724D01*
X30070Y14784D01*
X29950Y14724D01*
X29930Y17080D02*
X30030Y17280D01*
X29930Y17480D01*
X30130Y17380D01*
X30330Y17480D01*
X30230Y17280D01*
X30330Y17080D01*
X30130Y17180D01*
X29930Y17080D01*
X30010Y17160D02*
X30070Y17280D01*
X30010Y17400D01*
X30130Y17340D01*
X30250Y17400D01*
X30190Y17280D01*
X30250Y17160D01*
X30130Y17220D01*
X30010Y17160D01*
X32370Y16565D02*
X32470Y16765D01*
X32370Y16965D01*
X32570Y16865D01*
X32770Y16965D01*
X32670Y16765D01*
X32770Y16565D01*
X32570Y16665D01*
X32370Y16565D01*
X32450Y16645D02*
X32510Y16765D01*
X32450Y16885D01*
X32570Y16825D01*
X32690Y16885D01*
X32630Y16765D01*
X32690Y16645D01*
X32570Y16705D01*
X32450Y16645D01*
X32180Y15901D02*
X32280Y16101D01*
X32180Y16301D01*
X32380Y16201D01*
X32580Y16301D01*
X32480Y16101D01*
X32580Y15901D01*
X32380Y16001D01*
X32180Y15901D01*
X32260Y15981D02*
X32320Y16101D01*
X32260Y16221D01*
X32380Y16161D01*
X32500Y16221D01*
X32440Y16101D01*
X32500Y15981D01*
X32380Y16041D01*
X32260Y15981D01*
X22540Y15901D02*
X22640Y16101D01*
X22540Y16301D01*
X22740Y16201D01*
X22940Y16301D01*
X22840Y16101D01*
X22940Y15901D01*
X22740Y16001D01*
X22540Y15901D01*
X22620Y15981D02*
X22680Y16101D01*
X22620Y16221D01*
X22740Y16161D01*
X22860Y16221D01*
X22800Y16101D01*
X22860Y15981D01*
X22740Y16041D01*
X22620Y15981D01*
X22730Y16565D02*
X22830Y16765D01*
X22730Y16965D01*
X22930Y16865D01*
X23130Y16965D01*
X23030Y16765D01*
X23130Y16565D01*
X22930Y16665D01*
X22730Y16565D01*
X22810Y16645D02*
X22870Y16765D01*
X22810Y16885D01*
X22930Y16825D01*
X23050Y16885D01*
X22990Y16765D01*
X23050Y16645D01*
X22930Y16705D01*
X22810Y16645D01*
X27470Y20990D02*
X27570Y21190D01*
X27470Y21390D01*
X27670Y21290D01*
X27870Y21390D01*
X27770Y21190D01*
X27870Y20990D01*
X27670Y21090D01*
X27470Y20990D01*
X27550Y21070D02*
X27610Y21190D01*
X27550Y21310D01*
X27670Y21250D01*
X27790Y21310D01*
X27730Y21190D01*
X27790Y21070D01*
X27670Y21130D01*
X27550Y21070D01*
X20290Y17080D02*
X20390Y17280D01*
X20290Y17480D01*
X20490Y17380D01*
X20690Y17480D01*
X20590Y17280D01*
X20690Y17080D01*
X20490Y17180D01*
X20290Y17080D01*
X20370Y17160D02*
X20430Y17280D01*
X20370Y17400D01*
X20490Y17340D01*
X20610Y17400D01*
X20550Y17280D01*
X20610Y17160D01*
X20490Y17220D01*
X20370Y17160D01*
X14950Y15340D02*
X15050Y15540D01*
X14950Y15740D01*
X15150Y15640D01*
X15350Y15740D01*
X15250Y15540D01*
X15350Y15340D01*
X15150Y15440D01*
X14950Y15340D01*
X15030Y15420D02*
X15090Y15540D01*
X15030Y15660D01*
X15150Y15600D01*
X15270Y15660D01*
X15210Y15540D01*
X15270Y15420D01*
X15150Y15480D01*
X15030Y15420D01*
X14950Y14900D02*
X15050Y15100D01*
X14950Y15300D01*
X15150Y15200D01*
X15350Y15300D01*
X15250Y15100D01*
X15350Y14900D01*
X15150Y15000D01*
X14950Y14900D01*
X15030Y14980D02*
X15090Y15100D01*
X15030Y15220D01*
X15150Y15160D01*
X15270Y15220D01*
X15210Y15100D01*
X15270Y14980D01*
X15150Y15040D01*
X15030Y14980D01*
X14600Y14630D02*
X14700Y14830D01*
X14600Y15030D01*
X14800Y14930D01*
X15000Y15030D01*
X14900Y14830D01*
X15000Y14630D01*
X14800Y14730D01*
X14600Y14630D01*
X14680Y14710D02*
X14740Y14830D01*
X14680Y14950D01*
X14800Y14890D01*
X14920Y14950D01*
X14860Y14830D01*
X14920Y14710D01*
X14800Y14770D01*
X14680Y14710D01*
X13770Y16940D02*
X13870Y17140D01*
X13770Y17340D01*
X13970Y17240D01*
X14170Y17340D01*
X14070Y17140D01*
X14170Y16940D01*
X13970Y17040D01*
X13770Y16940D01*
X13850Y17020D02*
X13910Y17140D01*
X13850Y17260D01*
X13970Y17200D01*
X14090Y17260D01*
X14030Y17140D01*
X14090Y17020D01*
X13970Y17080D01*
X13850Y17020D01*
X18230Y16565D02*
X18330Y16765D01*
X18230Y16965D01*
X18430Y16865D01*
X18630Y16965D01*
X18530Y16765D01*
X18630Y16565D01*
X18430Y16665D01*
X18230Y16565D01*
X18310Y16645D02*
X18370Y16765D01*
X18310Y16885D01*
X18430Y16825D01*
X18550Y16885D01*
X18490Y16765D01*
X18550Y16645D01*
X18430Y16705D01*
X18310Y16645D01*
X17040Y18040D02*
X17140Y18240D01*
X17040Y18440D01*
X17240Y18340D01*
X17440Y18440D01*
X17340Y18240D01*
X17440Y18040D01*
X17240Y18140D01*
X17040Y18040D01*
X17120Y18120D02*
X17180Y18240D01*
X17120Y18360D01*
X17240Y18300D01*
X17360Y18360D01*
X17300Y18240D01*
X17360Y18120D01*
X17240Y18180D01*
X17120Y18120D01*
X16910Y18240D02*
X17010Y18440D01*
X16910Y18640D01*
X17110Y18540D01*
X17310Y18640D01*
X17210Y18440D01*
X17310Y18240D01*
X17110Y18340D01*
X16910Y18240D01*
X16990Y18320D02*
X17050Y18440D01*
X16990Y18560D01*
X17110Y18500D01*
X17230Y18560D01*
X17170Y18440D01*
X17230Y18320D01*
X17110Y18380D01*
X16990Y18320D01*
X18040Y15901D02*
X18140Y16101D01*
X18040Y16301D01*
X18240Y16201D01*
X18440Y16301D01*
X18340Y16101D01*
X18440Y15901D01*
X18240Y16001D01*
X18040Y15901D01*
X18120Y15981D02*
X18180Y16101D01*
X18120Y16221D01*
X18240Y16161D01*
X18360Y16221D01*
X18300Y16101D01*
X18360Y15981D01*
X18240Y16041D01*
X18120Y15981D01*
X19490Y14630D02*
X19590Y14830D01*
X19490Y15030D01*
X19690Y14930D01*
X19890Y15030D01*
X19790Y14830D01*
X19890Y14630D01*
X19690Y14730D01*
X19490Y14630D01*
X19570Y14710D02*
X19630Y14830D01*
X19570Y14950D01*
X19690Y14890D01*
X19810Y14950D01*
X19750Y14830D01*
X19810Y14710D01*
X19690Y14770D01*
X19570Y14710D01*
X20230Y14644D02*
X20330Y14844D01*
X20230Y15044D01*
X20430Y14944D01*
X20630Y15044D01*
X20530Y14844D01*
X20630Y14644D01*
X20430Y14744D01*
X20230Y14644D01*
X20310Y14724D02*
X20370Y14844D01*
X20310Y14964D01*
X20430Y14904D01*
X20550Y14964D01*
X20490Y14844D01*
X20550Y14724D01*
X20430Y14784D01*
X20310Y14724D01*
X13550Y14800D02*
X13650Y15000D01*
X13550Y15200D01*
X13750Y15100D01*
X13950Y15200D01*
X13850Y15000D01*
X13950Y14800D01*
X13750Y14900D01*
X13550Y14800D01*
X13630Y14880D02*
X13690Y15000D01*
X13630Y15120D01*
X13750Y15060D01*
X13870Y15120D01*
X13810Y15000D01*
X13870Y14880D01*
X13750Y14940D01*
X13630Y14880D01*
X17952Y18450D02*
X18052Y18650D01*
X17952Y18850D01*
X18152Y18750D01*
X18352Y18850D01*
X18252Y18650D01*
X18352Y18450D01*
X18152Y18550D01*
X17952Y18450D01*
X18032Y18530D02*
X18091Y18650D01*
X18032Y18770D01*
X18152Y18710D01*
X18271Y18770D01*
X18211Y18650D01*
X18271Y18530D01*
X18152Y18590D01*
X18032Y18530D01*
X12930Y18720D02*
X13030Y18920D01*
X12930Y19120D01*
X13130Y19020D01*
X13330Y19120D01*
X13230Y18920D01*
X13330Y18720D01*
X13130Y18820D01*
X12930Y18720D01*
X13010Y18800D02*
X13070Y18920D01*
X13010Y19040D01*
X13130Y18980D01*
X13250Y19040D01*
X13190Y18920D01*
X13250Y18800D01*
X13130Y18860D01*
X13010Y18800D01*
X13551Y16261D02*
X13651Y16461D01*
X13551Y16661D01*
X13751Y16561D01*
X13951Y16661D01*
X13851Y16461D01*
X13951Y16261D01*
X13751Y16361D01*
X13551Y16261D01*
X13631Y16341D02*
X13691Y16461D01*
X13631Y16581D01*
X13751Y16521D01*
X13871Y16581D01*
X13811Y16461D01*
X13871Y16341D01*
X13751Y16401D01*
X13631Y16341D01*
X15790Y17080D02*
X15890Y17280D01*
X15790Y17480D01*
X15990Y17380D01*
X16190Y17480D01*
X16090Y17280D01*
X16190Y17080D01*
X15990Y17180D01*
X15790Y17080D01*
X15870Y17160D02*
X15930Y17280D01*
X15870Y17400D01*
X15990Y17340D01*
X16110Y17400D01*
X16050Y17280D01*
X16110Y17160D01*
X15990Y17220D01*
X15870Y17160D01*
X10270Y15810D02*
X10370Y16010D01*
X10270Y16210D01*
X10470Y16110D01*
X10670Y16210D01*
X10570Y16010D01*
X10670Y15810D01*
X10470Y15910D01*
X10270Y15810D01*
X10350Y15890D02*
X10410Y16010D01*
X10350Y16130D01*
X10470Y16070D01*
X10590Y16130D01*
X10530Y16010D01*
X10590Y15890D01*
X10470Y15950D01*
X10350Y15890D01*
X15350Y12350D02*
X15450Y12550D01*
X15350Y12750D01*
X15550Y12650D01*
X15750Y12750D01*
X15650Y12550D01*
X15750Y12350D01*
X15550Y12450D01*
X15350Y12350D01*
X15430Y12430D02*
X15490Y12550D01*
X15430Y12670D01*
X15550Y12610D01*
X15670Y12670D01*
X15610Y12550D01*
X15670Y12430D01*
X15550Y12490D01*
X15430Y12430D01*
X17674Y14680D02*
X17774Y14880D01*
X17674Y15080D01*
X17874Y14980D01*
X18074Y15080D01*
X17974Y14880D01*
X18074Y14680D01*
X17874Y14780D01*
X17674Y14680D01*
X17754Y14760D02*
X17814Y14880D01*
X17754Y15000D01*
X17874Y14940D01*
X17994Y15000D01*
X17934Y14880D01*
X17994Y14760D01*
X17874Y14820D01*
X17754Y14760D01*
X17990Y14460D02*
X18090Y14660D01*
X17990Y14860D01*
X18190Y14760D01*
X18390Y14860D01*
X18290Y14660D01*
X18390Y14460D01*
X18190Y14560D01*
X17990Y14460D01*
X18070Y14540D02*
X18130Y14660D01*
X18070Y14780D01*
X18190Y14720D01*
X18310Y14780D01*
X18250Y14660D01*
X18310Y14540D01*
X18190Y14600D01*
X18070Y14540D01*
X15704Y14670D02*
X15804Y14870D01*
X15704Y15070D01*
X15904Y14970D01*
X16104Y15070D01*
X16004Y14870D01*
X16104Y14670D01*
X15904Y14770D01*
X15704Y14670D01*
X15784Y14750D02*
X15844Y14870D01*
X15784Y14990D01*
X15904Y14930D01*
X16024Y14990D01*
X15964Y14870D01*
X16024Y14750D01*
X15904Y14810D01*
X15784Y14750D01*
X10620Y14170D02*
X10720Y14370D01*
X10620Y14570D01*
X10820Y14470D01*
X11020Y14570D01*
X10920Y14370D01*
X11020Y14170D01*
X10820Y14270D01*
X10620Y14170D01*
X10700Y14250D02*
X10760Y14370D01*
X10700Y14490D01*
X10820Y14430D01*
X10940Y14490D01*
X10880Y14370D01*
X10940Y14250D01*
X10820Y14310D01*
X10700Y14250D01*
X10400Y14170D02*
X10500Y14370D01*
X10400Y14570D01*
X10600Y14470D01*
X10800Y14570D01*
X10700Y14370D01*
X10800Y14170D01*
X10600Y14270D01*
X10400Y14170D01*
X10480Y14250D02*
X10540Y14370D01*
X10480Y14490D01*
X10600Y14430D01*
X10720Y14490D01*
X10660Y14370D01*
X10720Y14250D01*
X10600Y14310D01*
X10480Y14250D01*
X31620Y33860D02*
X31720Y34060D01*
X31620Y34260D01*
X31820Y34160D01*
X32020Y34260D01*
X31920Y34060D01*
X32020Y33860D01*
X31820Y33960D01*
X31620Y33860D01*
X31950Y34110D02*
X32050Y34310D01*
X31950Y34510D01*
X32150Y34410D01*
X32350Y34510D01*
X32250Y34310D01*
X32350Y34110D01*
X32150Y34210D01*
X31950Y34110D01*
X20742Y26729D02*
X20842Y26929D01*
X20742Y27129D01*
X20942Y27029D01*
X21142Y27129D01*
X21042Y26929D01*
X21142Y26729D01*
X20942Y26829D01*
X20742Y26729D01*
X20115Y24879D02*
X20215Y25079D01*
X20115Y25279D01*
X20315Y25179D01*
X20515Y25279D01*
X20415Y25079D01*
X20515Y24879D01*
X20315Y24979D01*
X20115Y24879D01*
X20632Y24362D02*
X20732Y24562D01*
X20632Y24762D01*
X20832Y24662D01*
X21032Y24762D01*
X20932Y24562D01*
X21032Y24362D01*
X20832Y24462D01*
X20632Y24362D01*
X11360Y17850D02*
X11460Y18050D01*
X11360Y18250D01*
X11560Y18150D01*
X11760Y18250D01*
X11660Y18050D01*
X11760Y17850D01*
X11560Y17950D01*
X11360Y17850D01*
X11440Y17930D02*
X11500Y18050D01*
X11440Y18170D01*
X11560Y18110D01*
X11680Y18170D01*
X11620Y18050D01*
X11680Y17930D01*
X11560Y17990D01*
X11440Y17930D01*
X12320Y18360D02*
X12420Y18560D01*
X12320Y18760D01*
X12520Y18660D01*
X12720Y18760D01*
X12620Y18560D01*
X12720Y18360D01*
X12520Y18460D01*
X12320Y18360D01*
X12400Y18440D02*
X12460Y18560D01*
X12400Y18680D01*
X12520Y18620D01*
X12640Y18680D01*
X12580Y18560D01*
X12640Y18440D01*
X12520Y18500D01*
X12400Y18440D01*
X12540Y18360D02*
X12640Y18560D01*
X12540Y18760D01*
X12740Y18660D01*
X12940Y18760D01*
X12840Y18560D01*
X12940Y18360D01*
X12740Y18460D01*
X12540Y18360D01*
X12620Y18440D02*
X12680Y18560D01*
X12620Y18680D01*
X12740Y18620D01*
X12860Y18680D01*
X12800Y18560D01*
X12860Y18440D01*
X12740Y18500D01*
X12620Y18440D01*
X17770Y25270D02*
X17870Y25470D01*
X17770Y25670D01*
X17970Y25570D01*
X18170Y25670D01*
X18070Y25470D01*
X18170Y25270D01*
X17970Y25370D01*
X17770Y25270D01*
X18090Y25510D02*
X18190Y25710D01*
X18090Y25910D01*
X18290Y25810D01*
X18490Y25910D01*
X18390Y25710D01*
X18490Y25510D01*
X18290Y25610D01*
X18090Y25510D01*
X38350Y13191D02*
X38450Y13391D01*
X38350Y13591D01*
X38550Y13491D01*
X38750Y13591D01*
X38650Y13391D01*
X38750Y13191D01*
X38550Y13291D01*
X38350Y13191D01*
X36926Y28589D02*
X37026Y28789D01*
X36926Y28989D01*
X37126Y28889D01*
X37326Y28989D01*
X37226Y28789D01*
X37326Y28589D01*
X37126Y28689D01*
X36926Y28589D01*
X36985Y29672D02*
X37085Y29872D01*
X36985Y30072D01*
X37185Y29972D01*
X37385Y30072D01*
X37285Y29872D01*
X37385Y29672D01*
X37185Y29772D01*
X36985Y29672D01*
X37910Y29337D02*
X38010Y29537D01*
X37910Y29737D01*
X38110Y29637D01*
X38310Y29737D01*
X38210Y29537D01*
X38310Y29337D01*
X38110Y29437D01*
X37910Y29337D01*
Y30036D02*
X38010Y30236D01*
X37910Y30436D01*
X38110Y30336D01*
X38310Y30436D01*
X38210Y30236D01*
X38310Y30036D01*
X38110Y30136D01*
X37910Y30036D01*
X36926Y29111D02*
X37026Y29311D01*
X36926Y29511D01*
X37126Y29411D01*
X37326Y29511D01*
X37226Y29311D01*
X37326Y29111D01*
X37126Y29211D01*
X36926Y29111D01*
X34820Y27831D02*
X34920Y28031D01*
X34820Y28231D01*
X35020Y28131D01*
X35220Y28231D01*
X35120Y28031D01*
X35220Y27831D01*
X35020Y27931D01*
X34820Y27831D01*
X34859Y25883D02*
X34959Y26083D01*
X34859Y26283D01*
X35059Y26183D01*
X35259Y26283D01*
X35159Y26083D01*
X35259Y25883D01*
X35059Y25983D01*
X34859Y25883D01*
X39211Y29930D02*
Y29830D01*
X39411D01*
Y29930D01*
X39511D01*
Y30130D01*
X39411D01*
Y30230D01*
X39211D01*
Y30130D01*
X39111D01*
Y29930D01*
X39211D01*
X39251Y29970D02*
Y29910D01*
X39371D01*
Y29970D01*
X39431D01*
Y30090D01*
X39371D01*
Y30150D01*
X39251D01*
Y30090D01*
X39191D01*
Y29970D01*
X39251D01*
X40560Y31180D02*
X40660Y31380D01*
X40560Y31580D01*
X40760Y31480D01*
X40960Y31580D01*
X40860Y31380D01*
X40960Y31180D01*
X40760Y31280D01*
X40560Y31180D01*
X42020Y32380D02*
X42120Y32580D01*
X42020Y32780D01*
X42220Y32680D01*
X42420Y32780D01*
X42320Y32580D01*
X42420Y32380D01*
X42220Y32480D01*
X42020Y32380D01*
X43090Y31840D02*
X43190Y32040D01*
X43090Y32240D01*
X43290Y32140D01*
X43490Y32240D01*
X43390Y32040D01*
X43490Y31840D01*
X43290Y31940D01*
X43090Y31840D01*
X40620Y34450D02*
X40720Y34650D01*
X40620Y34850D01*
X40820Y34750D01*
X41020Y34850D01*
X40920Y34650D01*
X41020Y34450D01*
X40820Y34550D01*
X40620Y34450D01*
X42470Y34280D02*
X42570Y34480D01*
X42470Y34680D01*
X42670Y34580D01*
X42870Y34680D01*
X42770Y34480D01*
X42870Y34280D01*
X42670Y34380D01*
X42470Y34280D01*
X43686Y35416D02*
X43786Y35616D01*
X43686Y35816D01*
X43886Y35716D01*
X44086Y35816D01*
X43986Y35616D01*
X44086Y35416D01*
X43886Y35516D01*
X43686Y35416D01*
X41630Y35940D02*
X41730D01*
X41830Y36040D01*
X41930Y35940D01*
X42030D01*
Y36040D01*
X41930Y36140D01*
X42030Y36240D01*
Y36340D01*
X41930D01*
X41830Y36240D01*
X41730Y36340D01*
X41630D01*
Y36240D01*
X41730Y36140D01*
X41630Y36040D01*
Y35940D01*
X41710Y36020D02*
X41770D01*
X41830Y36080D01*
X41890Y36020D01*
X41950D01*
Y36080D01*
X41890Y36140D01*
X41950Y36200D01*
Y36260D01*
X41890D01*
X41830Y36200D01*
X41770Y36260D01*
X41710D01*
Y36200D01*
X41770Y36140D01*
X41710Y36080D01*
Y36020D01*
X43940Y31180D02*
X44040Y31380D01*
X43940Y31580D01*
X44140Y31480D01*
X44340Y31580D01*
X44240Y31380D01*
X44340Y31180D01*
X44140Y31280D01*
X43940Y31180D01*
X42055D02*
X42155Y31380D01*
X42055Y31580D01*
X42255Y31480D01*
X42455Y31580D01*
X42355Y31380D01*
X42455Y31180D01*
X42255Y31280D01*
X42055Y31180D01*
X38285D02*
X38385Y31380D01*
X38285Y31580D01*
X38485Y31480D01*
X38685Y31580D01*
X38585Y31380D01*
X38685Y31180D01*
X38485Y31280D01*
X38285Y31180D01*
X41626Y34796D02*
X41726D01*
X41826Y34896D01*
X41926Y34796D01*
X42026D01*
Y34896D01*
X41926Y34996D01*
X42026Y35096D01*
Y35196D01*
X41926D01*
X41826Y35096D01*
X41726Y35196D01*
X41626D01*
Y35096D01*
X41726Y34996D01*
X41626Y34896D01*
Y34796D01*
X41706Y34876D02*
X41766D01*
X41826Y34936D01*
X41886Y34876D01*
X41946D01*
Y34936D01*
X41886Y34996D01*
X41946Y35056D01*
Y35116D01*
X41886D01*
X41826Y35056D01*
X41766Y35116D01*
X41706D01*
Y35056D01*
X41766Y34996D01*
X41706Y34936D01*
Y34876D01*
X31210Y12280D02*
X31310Y12480D01*
X31210Y12680D01*
X31410Y12580D01*
X31610Y12680D01*
X31510Y12480D01*
X31610Y12280D01*
X31410Y12380D01*
X31210Y12280D01*
X30350D02*
X30450Y12480D01*
X30350Y12680D01*
X30550Y12580D01*
X30750Y12680D01*
X30650Y12480D01*
X30750Y12280D01*
X30550Y12380D01*
X30350Y12280D01*
X30430Y12360D02*
X30490Y12480D01*
X30430Y12600D01*
X30550Y12540D01*
X30670Y12600D01*
X30610Y12480D01*
X30670Y12360D01*
X30550Y12420D01*
X30430Y12360D01*
X21270Y12280D02*
X21370Y12480D01*
X21270Y12680D01*
X21470Y12580D01*
X21670Y12680D01*
X21570Y12480D01*
X21670Y12280D01*
X21470Y12380D01*
X21270Y12280D01*
X17270Y28560D02*
X17370Y28760D01*
X17270Y28960D01*
X17470Y28860D01*
X17670Y28960D01*
X17570Y28760D01*
X17670Y28560D01*
X17470Y28660D01*
X17270Y28560D01*
X14180Y29170D02*
X14280Y29370D01*
X14180Y29570D01*
X14380Y29470D01*
X14580Y29570D01*
X14480Y29370D01*
X14580Y29170D01*
X14380Y29270D01*
X14180Y29170D01*
X17100Y33550D02*
X17200Y33750D01*
X17100Y33950D01*
X17300Y33850D01*
X17500Y33950D01*
X17400Y33750D01*
X17500Y33550D01*
X17300Y33650D01*
X17100Y33550D01*
X24396Y24032D02*
X24496Y24232D01*
X24396Y24432D01*
X24596Y24332D01*
X24796Y24432D01*
X24696Y24232D01*
X24796Y24032D01*
X24596Y24132D01*
X24396Y24032D01*
X29800Y22900D02*
X29900Y23100D01*
X29800Y23300D01*
X30000Y23200D01*
X30200Y23300D01*
X30100Y23100D01*
X30200Y22900D01*
X30000Y23000D01*
X29800Y22900D01*
X24249Y24633D02*
X24349Y24833D01*
X24249Y25033D01*
X24449Y24933D01*
X24649Y25033D01*
X24549Y24833D01*
X24649Y24633D01*
X24449Y24733D01*
X24249Y24633D01*
X26014Y22763D02*
X26114Y22963D01*
X26014Y23163D01*
X26214Y23063D01*
X26414Y23163D01*
X26314Y22963D01*
X26414Y22763D01*
X26214Y22863D01*
X26014Y22763D01*
X26887Y27280D02*
X26987Y27480D01*
X26887Y27680D01*
X27087Y27580D01*
X27287Y27680D01*
X27187Y27480D01*
X27287Y27280D01*
X27087Y27380D01*
X26887Y27280D01*
X26611Y22871D02*
X26711Y23071D01*
X26611Y23271D01*
X26811Y23171D01*
X27011Y23271D01*
X26911Y23071D01*
X27011Y22871D01*
X26811Y22971D01*
X26611Y22871D01*
X27083Y22556D02*
X27183Y22756D01*
X27083Y22956D01*
X27283Y22856D01*
X27483Y22956D01*
X27383Y22756D01*
X27483Y22556D01*
X27283Y22656D01*
X27083Y22556D01*
X27162Y23619D02*
X27262Y23819D01*
X27162Y24019D01*
X27362Y23919D01*
X27562Y24019D01*
X27462Y23819D01*
X27562Y23619D01*
X27362Y23719D01*
X27162Y23619D01*
X27162Y24131D02*
X27262Y24331D01*
X27162Y24531D01*
X27362Y24431D01*
X27562Y24531D01*
X27462Y24331D01*
X27562Y24131D01*
X27362Y24231D01*
X27162Y24131D01*
X27161Y27626D02*
X27261Y27826D01*
X27161Y28026D01*
X27361Y27926D01*
X27561Y28026D01*
X27461Y27826D01*
X27561Y27626D01*
X27361Y27726D01*
X27161Y27626D01*
X37648Y14373D02*
X37748Y14573D01*
X37648Y14773D01*
X37848Y14673D01*
X38048Y14773D01*
X37948Y14573D01*
X38048Y14373D01*
X37848Y14473D01*
X37648Y14373D01*
X37228Y14373D02*
X37328Y14573D01*
X37228Y14773D01*
X37428Y14673D01*
X37628Y14773D01*
X37528Y14573D01*
X37628Y14373D01*
X37428Y14473D01*
X37228Y14373D01*
Y14019D02*
X37328Y14219D01*
X37228Y14419D01*
X37428Y14319D01*
X37628Y14419D01*
X37528Y14219D01*
X37628Y14019D01*
X37428Y14119D01*
X37228Y14019D01*
Y13664D02*
X37328Y13864D01*
X37228Y14064D01*
X37428Y13964D01*
X37628Y14064D01*
X37528Y13864D01*
X37628Y13664D01*
X37428Y13764D01*
X37228Y13664D01*
X31296Y22713D02*
X31396Y22913D01*
X31296Y23113D01*
X31496Y23013D01*
X31696Y23113D01*
X31596Y22913D01*
X31696Y22713D01*
X31496Y22813D01*
X31296Y22713D01*
X39690Y31923D02*
X39790D01*
X39890Y32023D01*
X39990Y31923D01*
X40090D01*
Y32023D01*
X39990Y32123D01*
X40090Y32223D01*
Y32323D01*
X39990D01*
X39890Y32223D01*
X39790Y32323D01*
X39690D01*
Y32223D01*
X39790Y32123D01*
X39690Y32023D01*
Y31923D01*
X39770Y32003D02*
X39830D01*
X39890Y32063D01*
X39950Y32003D01*
X40010D01*
Y32063D01*
X39950Y32123D01*
X40010Y32183D01*
Y32243D01*
X39950D01*
X39890Y32183D01*
X39830Y32243D01*
X39770D01*
Y32183D01*
X39830Y32123D01*
X39770Y32063D01*
Y32003D01*
X43550Y34900D02*
X43650Y35100D01*
X43550Y35300D01*
X43750Y35200D01*
X43950Y35300D01*
X43850Y35100D01*
X43950Y34900D01*
X43750Y35000D01*
X43550Y34900D01*
X40550Y26582D02*
X40650Y26782D01*
X40550Y26982D01*
X40750Y26882D01*
X40950Y26982D01*
X40850Y26782D01*
X40950Y26582D01*
X40750Y26682D01*
X40550Y26582D01*
X39526Y26779D02*
X39626Y26978D01*
X39526Y27178D01*
X39726Y27078D01*
X39926Y27178D01*
X39826Y26978D01*
X39926Y26779D01*
X39726Y26878D01*
X39526Y26779D01*
Y27172D02*
X39626Y27372D01*
X39526Y27572D01*
X39726Y27472D01*
X39926Y27572D01*
X39826Y27372D01*
X39926Y27172D01*
X39726Y27272D01*
X39526Y27172D01*
X39880Y26582D02*
X39980Y26782D01*
X39880Y26982D01*
X40080Y26882D01*
X40280Y26982D01*
X40180Y26782D01*
X40280Y26582D01*
X40080Y26682D01*
X39880Y26582D01*
Y27369D02*
X39980Y27569D01*
X39880Y27769D01*
X40080Y27669D01*
X40280Y27769D01*
X40180Y27569D01*
X40280Y27369D01*
X40080Y27469D01*
X39880Y27369D01*
Y26975D02*
X39980Y27175D01*
X39880Y27375D01*
X40080Y27275D01*
X40280Y27375D01*
X40180Y27175D01*
X40280Y26975D01*
X40080Y27075D01*
X39880Y26975D01*
X40313Y26345D02*
X40413Y26545D01*
X40313Y26745D01*
X40513Y26645D01*
X40713Y26745D01*
X40613Y26545D01*
X40713Y26345D01*
X40513Y26445D01*
X40313Y26345D01*
X40825D02*
X40925Y26545D01*
X40825Y26745D01*
X41025Y26645D01*
X41225Y26745D01*
X41125Y26545D01*
X41225Y26345D01*
X41025Y26445D01*
X40825Y26345D01*
X41534Y26582D02*
X41634Y26782D01*
X41534Y26982D01*
X41734Y26882D01*
X41934Y26982D01*
X41834Y26782D01*
X41934Y26582D01*
X41734Y26682D01*
X41534Y26582D01*
X41298Y26345D02*
X41398Y26545D01*
X41298Y26745D01*
X41498Y26645D01*
X41698Y26745D01*
X41598Y26545D01*
X41698Y26345D01*
X41498Y26445D01*
X41298Y26345D01*
X41061Y26582D02*
X41161Y26782D01*
X41061Y26982D01*
X41261Y26882D01*
X41461Y26982D01*
X41361Y26782D01*
X41461Y26582D01*
X41261Y26682D01*
X41061Y26582D01*
X39256Y18593D02*
X39356Y18793D01*
X39256Y18993D01*
X39456Y18893D01*
X39656Y18993D01*
X39556Y18793D01*
X39656Y18593D01*
X39456Y18693D01*
X39256Y18593D01*
Y18081D02*
X39356Y18281D01*
X39256Y18481D01*
X39456Y18381D01*
X39656Y18481D01*
X39556Y18281D01*
X39656Y18081D01*
X39456Y18181D01*
X39256Y18081D01*
X38325Y36730D02*
X38425Y36930D01*
X38325Y37130D01*
X38525Y37030D01*
X38725Y37130D01*
X38625Y36930D01*
X38725Y36730D01*
X38525Y36830D01*
X38325Y36730D01*
X41130Y32400D02*
X41230Y32500D01*
X41330D01*
X41230Y32600D01*
X41330Y32700D01*
X41230D01*
X41130Y32800D01*
X41030Y32700D01*
X40930D01*
X41030Y32600D01*
X40930Y32500D01*
X41030D01*
X41130Y32400D01*
Y32480D02*
X41190Y32540D01*
X41250D01*
X41190Y32600D01*
X41250Y32660D01*
X41190D01*
X41130Y32720D01*
X41070Y32660D01*
X41010D01*
X41070Y32600D01*
X41010Y32540D01*
X41070D01*
X41130Y32480D01*
X36440Y36730D02*
X36540Y36930D01*
X36440Y37130D01*
X36640Y37030D01*
X36840Y37130D01*
X36740Y36930D01*
X36840Y36730D01*
X36640Y36830D01*
X36440Y36730D01*
X40210D02*
X40310Y36930D01*
X40210Y37130D01*
X40410Y37030D01*
X40610Y37130D01*
X40510Y36930D01*
X40610Y36730D01*
X40410Y36830D01*
X40210Y36730D01*
X42095D02*
X42195Y36930D01*
X42095Y37130D01*
X42295Y37030D01*
X42495Y37130D01*
X42395Y36930D01*
X42495Y36730D01*
X42295Y36830D01*
X42095Y36730D01*
X43980D02*
X44080Y36930D01*
X43980Y37130D01*
X44180Y37030D01*
X44380Y37130D01*
X44280Y36930D01*
X44380Y36730D01*
X44180Y36830D01*
X43980Y36730D01*
X44350Y32320D02*
X44450Y32520D01*
X44350Y32720D01*
X44550Y32620D01*
X44750Y32720D01*
X44650Y32520D01*
X44750Y32320D01*
X44550Y32420D01*
X44350Y32320D01*
X36440Y33920D02*
X36540Y34120D01*
X36440Y34320D01*
X36640Y34220D01*
X36840Y34320D01*
X36740Y34120D01*
X36840Y33920D01*
X36640Y34020D01*
X36440Y33920D01*
Y32460D02*
X36540Y32660D01*
X36440Y32860D01*
X36640Y32760D01*
X36840Y32860D01*
X36740Y32660D01*
X36840Y32460D01*
X36640Y32560D01*
X36440Y32460D01*
X44350Y33915D02*
X44450Y34115D01*
X44350Y34315D01*
X44550Y34215D01*
X44750Y34315D01*
X44650Y34115D01*
X44750Y33915D01*
X44550Y34015D01*
X44350Y33915D01*
X37005Y30706D02*
X37105Y30906D01*
X37005Y31106D01*
X37205Y31006D01*
X37405Y31106D01*
X37305Y30906D01*
X37405Y30706D01*
X37205Y30806D01*
X37005Y30706D01*
X36440Y35380D02*
X36540Y35580D01*
X36440Y35780D01*
X36640Y35680D01*
X36840Y35780D01*
X36740Y35580D01*
X36840Y35380D01*
X36640Y35480D01*
X36440Y35380D01*
X43180Y36080D02*
X43280Y36280D01*
X43180Y36480D01*
X43380Y36380D01*
X43580Y36480D01*
X43480Y36280D01*
X43580Y36080D01*
X43380Y36180D01*
X43180Y36080D01*
X42596Y36092D02*
X42696Y36292D01*
X42596Y36492D01*
X42796Y36392D01*
X42996Y36492D01*
X42896Y36292D01*
X42996Y36092D01*
X42796Y36192D01*
X42596Y36092D01*
X44350Y35510D02*
X44450Y35710D01*
X44350Y35910D01*
X44550Y35810D01*
X44750Y35910D01*
X44650Y35710D01*
X44750Y35510D01*
X44550Y35610D01*
X44350Y35510D01*
X28501Y24436D02*
X28601Y24636D01*
X28501Y24836D01*
X28701Y24736D01*
X28901Y24836D01*
X28801Y24636D01*
X28901Y24436D01*
X28701Y24536D01*
X28501Y24436D01*
X17910Y28973D02*
X18010Y29173D01*
X17910Y29373D01*
X18110Y29273D01*
X18310Y29373D01*
X18210Y29173D01*
X18310Y28973D01*
X18110Y29073D01*
X17910Y28973D01*
X20558Y28038D02*
X20658Y28238D01*
X20558Y28438D01*
X20758Y28338D01*
X20958Y28438D01*
X20858Y28238D01*
X20958Y28038D01*
X20758Y28138D01*
X20558Y28038D01*
X20253Y26877D02*
X20353Y27077D01*
X20253Y27277D01*
X20453Y27177D01*
X20653Y27277D01*
X20553Y27077D01*
X20653Y26877D01*
X20453Y26977D01*
X20253Y26877D01*
X15518Y25115D02*
X15618Y25315D01*
X15518Y25515D01*
X15718Y25415D01*
X15919Y25515D01*
X15819Y25315D01*
X15919Y25115D01*
X15718Y25215D01*
X15518Y25115D01*
X15755Y26011D02*
X15855Y26211D01*
X15755Y26411D01*
X15955Y26311D01*
X16155Y26411D01*
X16055Y26211D01*
X16155Y26011D01*
X15955Y26111D01*
X15755Y26011D01*
X17054Y21877D02*
X17154Y22077D01*
X17054Y22277D01*
X17254Y22177D01*
X17454Y22277D01*
X17354Y22077D01*
X17454Y21877D01*
X17254Y21977D01*
X17054Y21877D01*
X16404Y25331D02*
X16504Y25531D01*
X16404Y25731D01*
X16604Y25631D01*
X16804Y25731D01*
X16704Y25531D01*
X16804Y25331D01*
X16604Y25431D01*
X16404Y25331D01*
X15351Y22379D02*
X15451Y22579D01*
X15351Y22779D01*
X15551Y22679D01*
X15751Y22779D01*
X15651Y22579D01*
X15751Y22379D01*
X15551Y22479D01*
X15351Y22379D01*
X24288Y26414D02*
X24388Y26614D01*
X24288Y26814D01*
X24488Y26714D01*
X24688Y26814D01*
X24588Y26614D01*
X24688Y26414D01*
X24488Y26514D01*
X24288Y26414D01*
X23915Y26799D02*
X24015Y26999D01*
X23915Y27199D01*
X24115Y27099D01*
X24315Y27199D01*
X24215Y26999D01*
X24315Y26799D01*
X24115Y26899D01*
X23915Y26799D01*
X28314Y23757D02*
X28414Y23957D01*
X28314Y24157D01*
X28514Y24057D01*
X28714Y24157D01*
X28614Y23957D01*
X28714Y23757D01*
X28514Y23857D01*
X28314Y23757D01*
X32044Y28599D02*
X32144Y28799D01*
X32044Y28999D01*
X32244Y28899D01*
X32444Y28999D01*
X32344Y28799D01*
X32444Y28599D01*
X32244Y28699D01*
X32044Y28599D01*
X23166Y28038D02*
X23266Y28238D01*
X23166Y28438D01*
X23366Y28338D01*
X23566Y28438D01*
X23466Y28238D01*
X23566Y28038D01*
X23366Y28138D01*
X23166Y28038D01*
X28048Y24308D02*
X28148Y24508D01*
X28048Y24708D01*
X28248Y24608D01*
X28448Y24708D01*
X28348Y24508D01*
X28448Y24308D01*
X28248Y24408D01*
X28048Y24308D01*
X31040Y27487D02*
X31140Y27687D01*
X31040Y27887D01*
X31240Y27787D01*
X31440Y27887D01*
X31340Y27687D01*
X31440Y27487D01*
X31240Y27587D01*
X31040Y27487D01*
X22064Y27074D02*
X22164Y27274D01*
X22064Y27474D01*
X22264Y27374D01*
X22464Y27474D01*
X22364Y27274D01*
X22464Y27074D01*
X22264Y27174D01*
X22064Y27074D01*
X18176Y29249D02*
X18276Y29449D01*
X18176Y29649D01*
X18376Y29549D01*
X18576Y29649D01*
X18476Y29449D01*
X18576Y29249D01*
X18376Y29349D01*
X18176Y29249D01*
X25862Y18633D02*
X25962Y18833D01*
X25862Y19033D01*
X26062Y18933D01*
X26262Y19033D01*
X26162Y18833D01*
X26262Y18633D01*
X26062Y18733D01*
X25862Y18633D01*
X27653Y16852D02*
X27753Y17052D01*
X27653Y17252D01*
X27853Y17152D01*
X28053Y17252D01*
X27953Y17052D01*
X28053Y16852D01*
X27853Y16952D01*
X27653Y16852D01*
X21553Y24014D02*
X21653Y24214D01*
X21553Y24414D01*
X21753Y24314D01*
X21953Y24414D01*
X21853Y24214D01*
X21953Y24014D01*
X21753Y24114D01*
X21553Y24014D01*
X21414Y26729D02*
X21514Y26929D01*
X21414Y27129D01*
X21614Y27029D01*
X21814Y27129D01*
X21714Y26929D01*
X21814Y26729D01*
X21614Y26829D01*
X21414Y26729D01*
X31139Y24839D02*
X31239Y25039D01*
X31139Y25239D01*
X31339Y25139D01*
X31539Y25239D01*
X31439Y25039D01*
X31539Y24839D01*
X31339Y24939D01*
X31139Y24839D01*
X18925Y25559D02*
X19025Y25759D01*
X18925Y25959D01*
X19125Y25859D01*
X19325Y25959D01*
X19225Y25759D01*
X19325Y25559D01*
X19125Y25659D01*
X18925Y25559D01*
X19277Y28272D02*
X19377Y28472D01*
X19277Y28672D01*
X19477Y28572D01*
X19677Y28672D01*
X19577Y28472D01*
X19677Y28272D01*
X19477Y28372D01*
X19277Y28272D01*
X25852Y17600D02*
X25952Y17800D01*
X25852Y18000D01*
X26052Y17900D01*
X26252Y18000D01*
X26152Y17800D01*
X26252Y17600D01*
X26052Y17700D01*
X25852Y17600D01*
X17841Y22211D02*
X17941Y22411D01*
X17841Y22611D01*
X18041Y22511D01*
X18241Y22611D01*
X18141Y22411D01*
X18241Y22211D01*
X18041Y22311D01*
X17841Y22211D01*
Y21828D02*
X17941Y22028D01*
X17841Y22228D01*
X18041Y22128D01*
X18241Y22228D01*
X18141Y22028D01*
X18241Y21828D01*
X18041Y21928D01*
X17841Y21828D01*
X14682Y30391D02*
X14782Y30591D01*
X14682Y30791D01*
X14882Y30691D01*
X15082Y30791D01*
X14982Y30591D01*
X15082Y30391D01*
X14882Y30491D01*
X14682Y30391D01*
X15607Y27950D02*
X15707Y28150D01*
X15607Y28350D01*
X15807Y28250D01*
X16007Y28350D01*
X15907Y28150D01*
X16007Y27950D01*
X15807Y28050D01*
X15607Y27950D01*
X18924Y27005D02*
X19024Y27205D01*
X18924Y27405D01*
X19124Y27305D01*
X19324Y27405D01*
X19224Y27205D01*
X19324Y27005D01*
X19124Y27105D01*
X18924Y27005D01*
X32202Y27989D02*
X32302Y28189D01*
X32202Y28389D01*
X32402Y28289D01*
X32602Y28389D01*
X32502Y28189D01*
X32602Y27989D01*
X32402Y28089D01*
X32202Y27989D01*
X30824Y27950D02*
X30924Y28150D01*
X30824Y28350D01*
X31024Y28250D01*
X31224Y28350D01*
X31124Y28150D01*
X31224Y27950D01*
X31024Y28050D01*
X30824Y27950D01*
X30745Y25587D02*
X30845Y25787D01*
X30745Y25987D01*
X30945Y25887D01*
X31145Y25987D01*
X31045Y25787D01*
X31145Y25587D01*
X30945Y25687D01*
X30745Y25587D01*
X30587Y27398D02*
X30687Y27598D01*
X30587Y27798D01*
X30787Y27698D01*
X30987Y27798D01*
X30887Y27598D01*
X30987Y27398D01*
X30787Y27498D01*
X30587Y27398D01*
X26600Y17531D02*
X26700Y17731D01*
X26600Y17931D01*
X26800Y17831D01*
X27000Y17931D01*
X26900Y17731D01*
X27000Y17531D01*
X26800Y17631D01*
X26600Y17531D01*
X27771Y17600D02*
X27871Y17800D01*
X27771Y18000D01*
X27971Y17900D01*
X28171Y18000D01*
X28071Y17800D01*
X28171Y17600D01*
X27971Y17700D01*
X27771Y17600D01*
X26600Y18623D02*
X26700Y18823D01*
X26600Y19023D01*
X26800Y18923D01*
X27000Y19023D01*
X26900Y18823D01*
X27000Y18623D01*
X26800Y18723D01*
X26600Y18623D01*
X15597Y22940D02*
X15697Y23140D01*
X15597Y23340D01*
X15797Y23240D01*
X15997Y23340D01*
X15897Y23140D01*
X15997Y22940D01*
X15797Y23040D01*
X15597Y22940D01*
X30745Y24721D02*
X30845Y24921D01*
X30745Y25121D01*
X30945Y25021D01*
X31145Y25121D01*
X31045Y24921D01*
X31145Y24721D01*
X30945Y24821D01*
X30745Y24721D01*
X22241Y27477D02*
X22341Y27677D01*
X22241Y27877D01*
X22441Y27777D01*
X22641Y27877D01*
X22541Y27677D01*
X22641Y27477D01*
X22441Y27577D01*
X22241Y27477D01*
X21611Y22280D02*
X21711Y22480D01*
X21611Y22680D01*
X21811Y22580D01*
X22011Y22680D01*
X21911Y22480D01*
X22011Y22280D01*
X21811Y22380D01*
X21611Y22280D01*
X20430Y24711D02*
X20530Y24911D01*
X20430Y25111D01*
X20630Y25011D01*
X20830Y25111D01*
X20730Y24911D01*
X20830Y24711D01*
X20630Y24811D01*
X20430Y24711D01*
X21690Y27044D02*
X21790Y27244D01*
X21690Y27444D01*
X21890Y27344D01*
X22090Y27444D01*
X21990Y27244D01*
X22090Y27044D01*
X21890Y27144D01*
X21690Y27044D01*
X20051Y26038D02*
X20151Y26238D01*
X20051Y26438D01*
X20251Y26338D01*
X20451Y26438D01*
X20351Y26238D01*
X20451Y26038D01*
X20251Y26138D01*
X20051Y26038D01*
X21300Y22610D02*
X21400Y22810D01*
X21300Y23010D01*
X21500Y22910D01*
X21700Y23010D01*
X21600Y22810D01*
X21700Y22610D01*
X21500Y22710D01*
X21300Y22610D01*
X26168Y21278D02*
X26268Y21478D01*
X26168Y21678D01*
X26368Y21578D01*
X26568Y21678D01*
X26468Y21478D01*
X26568Y21278D01*
X26368Y21378D01*
X26168Y21278D01*
X30589Y28814D02*
X30689Y29014D01*
X30589Y29214D01*
X30789Y29114D01*
X30989Y29214D01*
X30889Y29014D01*
X30989Y28814D01*
X30789Y28914D01*
X30589Y28814D01*
X30745Y26493D02*
X30845Y26693D01*
X30745Y26893D01*
X30945Y26793D01*
X31145Y26893D01*
X31045Y26693D01*
X31145Y26493D01*
X30945Y26593D01*
X30745Y26493D01*
X30587Y26906D02*
X30687Y27106D01*
X30587Y27306D01*
X30787Y27206D01*
X30987Y27306D01*
X30887Y27106D01*
X30987Y26906D01*
X30787Y27006D01*
X30587Y26906D01*
X26917Y29246D02*
X27017Y29446D01*
X26917Y29646D01*
X27117Y29546D01*
X27317Y29646D01*
X27217Y29446D01*
X27317Y29246D01*
X27117Y29346D01*
X26917Y29246D01*
X21512Y23610D02*
X21612Y23810D01*
X21512Y24010D01*
X21712Y23910D01*
X21912Y24010D01*
X21812Y23810D01*
X21912Y23610D01*
X21712Y23710D01*
X21512Y23610D01*
X23845Y23629D02*
X23945Y23829D01*
X23845Y24029D01*
X24045Y23929D01*
X24245Y24029D01*
X24145Y23829D01*
X24245Y23629D01*
X24045Y23729D01*
X23845Y23629D01*
X21572Y24406D02*
X21672Y24606D01*
X21572Y24806D01*
X21772Y24706D01*
X21972Y24806D01*
X21872Y24606D01*
X21972Y24406D01*
X21772Y24506D01*
X21572Y24406D01*
X24554Y25135D02*
X24654Y25335D01*
X24554Y25535D01*
X24754Y25435D01*
X24954Y25535D01*
X24854Y25335D01*
X24954Y25135D01*
X24754Y25235D01*
X24554Y25135D01*
X22247Y25509D02*
X22347Y25709D01*
X22247Y25909D01*
X22447Y25809D01*
X22647Y25909D01*
X22547Y25709D01*
X22647Y25509D01*
X22447Y25609D01*
X22247Y25509D01*
X22114Y23463D02*
X22214Y23663D01*
X22114Y23863D01*
X22314Y23763D01*
X22514Y23863D01*
X22414Y23663D01*
X22514Y23463D01*
X22314Y23563D01*
X22114Y23463D01*
X23963Y22920D02*
X24063Y23120D01*
X23963Y23320D01*
X24163Y23220D01*
X24363Y23320D01*
X24263Y23120D01*
X24363Y22920D01*
X24163Y23020D01*
X23963Y22920D01*
X22114Y24486D02*
X22214Y24686D01*
X22114Y24886D01*
X22314Y24786D01*
X22514Y24886D01*
X22414Y24686D01*
X22514Y24486D01*
X22314Y24586D01*
X22114Y24486D01*
X24288Y23333D02*
X24388Y23533D01*
X24288Y23733D01*
X24488Y23633D01*
X24688Y23733D01*
X24588Y23533D01*
X24688Y23333D01*
X24488Y23433D01*
X24288Y23333D01*
X23383Y27162D02*
X23483Y27362D01*
X23383Y27562D01*
X23583Y27462D01*
X23783Y27562D01*
X23683Y27362D01*
X23783Y27162D01*
X23583Y27262D01*
X23383Y27162D01*
X23343Y26453D02*
X23443Y26653D01*
X23343Y26853D01*
X23543Y26753D01*
X23743Y26853D01*
X23643Y26653D01*
X23743Y26453D01*
X23543Y26553D01*
X23343Y26453D01*
X23855Y26139D02*
X23955Y26339D01*
X23855Y26539D01*
X24055Y26439D01*
X24255Y26539D01*
X24155Y26339D01*
X24255Y26139D01*
X24055Y26239D01*
X23855Y26139D01*
X24396Y22654D02*
X24496Y22854D01*
X24396Y23054D01*
X24596Y22954D01*
X24796Y23054D01*
X24696Y22854D01*
X24796Y22654D01*
X24596Y22754D01*
X24396Y22654D01*
X25510Y22370D02*
X25610Y22570D01*
X25510Y22770D01*
X25710Y22670D01*
X25910Y22770D01*
X25810Y22570D01*
X25910Y22370D01*
X25710Y22470D01*
X25510Y22370D01*
X24544Y25922D02*
X24644Y26122D01*
X24544Y26322D01*
X24744Y26222D01*
X24944Y26322D01*
X24844Y26122D01*
X24944Y25922D01*
X24744Y26022D01*
X24544Y25922D01*
X26051Y27321D02*
X26151Y27521D01*
X26051Y27721D01*
X26251Y27621D01*
X26451Y27721D01*
X26351Y27521D01*
X26451Y27321D01*
X26251Y27421D01*
X26051Y27321D01*
X23753Y27160D02*
X23853Y27360D01*
X23753Y27560D01*
X23953Y27460D01*
X24153Y27560D01*
X24053Y27360D01*
X24153Y27160D01*
X23953Y27260D01*
X23753Y27160D01*
X25489Y22871D02*
X25589Y23071D01*
X25489Y23271D01*
X25689Y23171D01*
X25889Y23271D01*
X25789Y23071D01*
X25889Y22871D01*
X25689Y22971D01*
X25489Y22871D01*
X24219Y25509D02*
X24319Y25709D01*
X24219Y25909D01*
X24419Y25809D01*
X24619Y25909D01*
X24519Y25709D01*
X24619Y25509D01*
X24419Y25609D01*
X24219Y25509D01*
X33737Y29131D02*
X33837Y29331D01*
X33737Y29531D01*
X33937Y29431D01*
X34137Y29531D01*
X34037Y29331D01*
X34137Y29131D01*
X33937Y29231D01*
X33737Y29131D01*
X39680Y24750D02*
X39780Y24950D01*
X39680Y25150D01*
X39880Y25050D01*
X40080Y25150D01*
X39980Y24950D01*
X40080Y24750D01*
X39880Y24850D01*
X39680Y24750D01*
X41058Y25417D02*
X41158Y25617D01*
X41058Y25817D01*
X41258Y25717D01*
X41458Y25817D01*
X41358Y25617D01*
X41458Y25417D01*
X41258Y25517D01*
X41058Y25417D01*
X39890Y23990D02*
X39990Y24190D01*
X39890Y24390D01*
X40090Y24290D01*
X40290Y24390D01*
X40190Y24190D01*
X40290Y23990D01*
X40090Y24090D01*
X39890Y23990D01*
X39910Y25417D02*
X40010Y25617D01*
X39910Y25817D01*
X40110Y25717D01*
X40310Y25817D01*
X40210Y25617D01*
X40310Y25417D01*
X40110Y25517D01*
X39910Y25417D01*
X40914Y23990D02*
X41014Y24190D01*
X40914Y24390D01*
X41114Y24290D01*
X41314Y24390D01*
X41214Y24190D01*
X41314Y23990D01*
X41114Y24090D01*
X40914Y23990D01*
X41425D02*
X41525Y24190D01*
X41425Y24390D01*
X41625Y24290D01*
X41825Y24390D01*
X41725Y24190D01*
X41825Y23990D01*
X41625Y24090D01*
X41425Y23990D01*
X40402D02*
X40502Y24190D01*
X40402Y24390D01*
X40602Y24290D01*
X40802Y24390D01*
X40702Y24190D01*
X40802Y23990D01*
X40602Y24090D01*
X40402Y23990D01*
X40484Y25417D02*
X40584Y25617D01*
X40484Y25817D01*
X40684Y25717D01*
X40884Y25817D01*
X40784Y25617D01*
X40884Y25417D01*
X40684Y25517D01*
X40484Y25417D01*
X13642Y29429D02*
Y29762D01*
X13808Y29929D01*
X13975Y29762D01*
Y29429D01*
Y29679D01*
X13642D01*
X31800Y24200D02*
X31900Y24400D01*
X31800Y24600D01*
X32000Y24500D01*
X32200Y24600D01*
X32100Y24400D01*
X32200Y24200D01*
X32000Y24300D01*
X31800Y24200D01*
X31500Y26550D02*
X31600Y26750D01*
X31500Y26950D01*
X31700Y26850D01*
X31900Y26950D01*
X31800Y26750D01*
X31900Y26550D01*
X31700Y26650D01*
X31500Y26550D01*
X17379Y25263D02*
X17479Y25463D01*
X17379Y25663D01*
X17579Y25563D01*
X17779Y25663D01*
X17679Y25463D01*
X17779Y25263D01*
X17579Y25363D01*
X17379Y25263D01*
X17831Y23540D02*
X17931Y23740D01*
X17831Y23940D01*
X18032Y23840D01*
X18232Y23940D01*
X18132Y23740D01*
X18232Y23540D01*
X18032Y23640D01*
X17831Y23540D01*
X17822Y23934D02*
X17922Y24134D01*
X17822Y24334D01*
X18022Y24234D01*
X18222Y24334D01*
X18122Y24134D01*
X18222Y23934D01*
X18022Y24034D01*
X17822Y23934D01*
X18200Y23100D02*
X18300Y23300D01*
X18200Y23500D01*
X18400Y23400D01*
X18600Y23500D01*
X18500Y23300D01*
X18600Y23100D01*
X18400Y23200D01*
X18200Y23100D01*
X21200Y23270D02*
X21300Y23470D01*
X21200Y23670D01*
X21400Y23570D01*
X21600Y23670D01*
X21500Y23470D01*
X21600Y23270D01*
X21400Y23370D01*
X21200Y23270D01*
X18110Y24390D02*
X18210Y24590D01*
X18110Y24790D01*
X18310Y24690D01*
X18510Y24790D01*
X18410Y24590D01*
X18510Y24390D01*
X18310Y24490D01*
X18110Y24390D01*
X14800Y26230D02*
X14900Y26430D01*
X14800Y26630D01*
X15000Y26530D01*
X15200Y26630D01*
X15100Y26430D01*
X15200Y26230D01*
X15000Y26330D01*
X14800Y26230D01*
X14520Y26950D02*
X14620Y27150D01*
X14520Y27350D01*
X14720Y27250D01*
X14920Y27350D01*
X14820Y27150D01*
X14920Y26950D01*
X14720Y27050D01*
X14520Y26950D01*
X29370Y12280D02*
X29470Y12480D01*
X29370Y12680D01*
X29570Y12580D01*
X29770Y12680D01*
X29670Y12480D01*
X29770Y12280D01*
X29570Y12380D01*
X29370Y12280D01*
X29030Y11960D02*
X29130Y12160D01*
X29030Y12360D01*
X29230Y12260D01*
X29430Y12360D01*
X29330Y12160D01*
X29430Y11960D01*
X29230Y12060D01*
X29030Y11960D01*
X19710Y12270D02*
X19810Y12470D01*
X19710Y12670D01*
X19910Y12570D01*
X20110Y12670D01*
X20010Y12470D01*
X20110Y12270D01*
X19910Y12370D01*
X19710Y12270D01*
X29750D02*
X29850Y12470D01*
X29750Y12670D01*
X29950Y12570D01*
X30150Y12670D01*
X30050Y12470D01*
X30150Y12270D01*
X29950Y12370D01*
X29750Y12270D01*
X31790Y12280D02*
X31890Y12480D01*
X31790Y12680D01*
X31990Y12580D01*
X32190Y12680D01*
X32090Y12480D01*
X32190Y12280D01*
X31990Y12380D01*
X31790Y12280D01*
X34249Y28737D02*
X34349Y28937D01*
X34249Y29137D01*
X34449Y29037D01*
X34649Y29137D01*
X34549Y28937D01*
X34649Y28737D01*
X34449Y28837D01*
X34249Y28737D01*
X32684Y34603D02*
X32784Y34803D01*
X32684Y35003D01*
X32884Y34903D01*
X33084Y35003D01*
X32984Y34803D01*
X33084Y34603D01*
X32884Y34703D01*
X32684Y34603D01*
X39298Y29209D02*
X39398Y29409D01*
X39298Y29609D01*
X39498Y29509D01*
X39698Y29609D01*
X39598Y29409D01*
X39698Y29209D01*
X39498Y29309D01*
X39298Y29209D01*
X16552Y25755D02*
X16652Y25955D01*
X16552Y26155D01*
X16752Y26055D01*
X16952Y26155D01*
X16852Y25955D01*
X16952Y25755D01*
X16752Y25855D01*
X16552Y25755D01*
X14268Y30400D02*
X14368Y30600D01*
X14268Y30800D01*
X14468Y30700D01*
X14669Y30800D01*
X14569Y30600D01*
X14669Y30400D01*
X14468Y30500D01*
X14268Y30400D01*
X14475Y21650D02*
X14575Y21850D01*
X14475Y22050D01*
X14675Y21950D01*
X14875Y22050D01*
X14775Y21850D01*
X14875Y21650D01*
X14675Y21750D01*
X14475Y21650D01*
X10578Y21670D02*
X10678Y21870D01*
X10578Y22070D01*
X10778Y21970D01*
X10978Y22070D01*
X10878Y21870D01*
X10978Y21670D01*
X10778Y21770D01*
X10578Y21670D01*
X11326Y27743D02*
X11426Y27943D01*
X11326Y28143D01*
X11526Y28043D01*
X11726Y28143D01*
X11626Y27943D01*
X11726Y27743D01*
X11526Y27843D01*
X11326Y27743D01*
X11230Y15030D02*
X11330Y15230D01*
X11230Y15430D01*
X11430Y15330D01*
X11630Y15430D01*
X11530Y15230D01*
X11630Y15030D01*
X11430Y15130D01*
X11230Y15030D01*
X11310Y15110D02*
X11370Y15230D01*
X11310Y15350D01*
X11430Y15290D01*
X11550Y15350D01*
X11490Y15230D01*
X11550Y15110D01*
X11430Y15170D01*
X11310Y15110D01*
X11360Y18070D02*
X11460Y18270D01*
X11360Y18470D01*
X11560Y18370D01*
X11760Y18470D01*
X11660Y18270D01*
X11760Y18070D01*
X11560Y18170D01*
X11360Y18070D01*
X11440Y18150D02*
X11500Y18270D01*
X11440Y18390D01*
X11560Y18330D01*
X11680Y18390D01*
X11620Y18270D01*
X11680Y18150D01*
X11560Y18210D01*
X11440Y18150D01*
X11330Y17500D02*
X11430Y17700D01*
X11330Y17900D01*
X11530Y17800D01*
X11730Y17900D01*
X11630Y17700D01*
X11730Y17500D01*
X11530Y17600D01*
X11330Y17500D01*
X11410Y17580D02*
X11470Y17700D01*
X11410Y17820D01*
X11530Y17760D01*
X11650Y17820D01*
X11590Y17700D01*
X11650Y17580D01*
X11530Y17640D01*
X11410Y17580D01*
X13200Y15040D02*
X13300Y15240D01*
X13200Y15440D01*
X13400Y15340D01*
X13600Y15440D01*
X13500Y15240D01*
X13600Y15040D01*
X13400Y15140D01*
X13200Y15040D01*
X13280Y15120D02*
X13340Y15240D01*
X13280Y15360D01*
X13400Y15300D01*
X13520Y15360D01*
X13460Y15240D01*
X13520Y15120D01*
X13400Y15180D01*
X13280Y15120D01*
X23727Y25607D02*
X23827Y25807D01*
X23727Y26007D01*
X23927Y25907D01*
X24127Y26007D01*
X24027Y25807D01*
X24127Y25607D01*
X23927Y25707D01*
X23727Y25607D01*
X21540Y18040D02*
X21640Y18240D01*
X21540Y18440D01*
X21740Y18340D01*
X21940Y18440D01*
X21840Y18240D01*
X21940Y18040D01*
X21740Y18140D01*
X21540Y18040D01*
X21620Y18120D02*
X21680Y18240D01*
X21620Y18360D01*
X21740Y18300D01*
X21860Y18360D01*
X21800Y18240D01*
X21860Y18120D01*
X21740Y18180D01*
X21620Y18120D01*
X21410Y18240D02*
X21510Y18440D01*
X21410Y18640D01*
X21610Y18540D01*
X21810Y18640D01*
X21710Y18440D01*
X21810Y18240D01*
X21610Y18340D01*
X21410Y18240D01*
X21490Y18320D02*
X21550Y18440D01*
X21490Y18560D01*
X21610Y18500D01*
X21730Y18560D01*
X21670Y18440D01*
X21730Y18320D01*
X21610Y18380D01*
X21490Y18320D01*
X20320Y17450D02*
X20420Y17650D01*
X20320Y17850D01*
X20520Y17750D01*
X20720Y17850D01*
X20620Y17650D01*
X20720Y17450D01*
X20520Y17550D01*
X20320Y17450D01*
X20400Y17530D02*
X20460Y17650D01*
X20400Y17770D01*
X20520Y17710D01*
X20640Y17770D01*
X20580Y17650D01*
X20640Y17530D01*
X20520Y17590D01*
X20400Y17530D01*
X30790Y20510D02*
X30890Y20710D01*
X30790Y20910D01*
X30990Y20810D01*
X31190Y20910D01*
X31090Y20710D01*
X31190Y20510D01*
X30990Y20610D01*
X30790Y20510D01*
X30870Y20590D02*
X30930Y20710D01*
X30870Y20830D01*
X30990Y20770D01*
X31110Y20830D01*
X31050Y20710D01*
X31110Y20590D01*
X30990Y20650D01*
X30870Y20590D01*
X30280Y20510D02*
X30380Y20710D01*
X30280Y20910D01*
X30480Y20810D01*
X30680Y20910D01*
X30580Y20710D01*
X30680Y20510D01*
X30480Y20610D01*
X30280Y20510D01*
X30360Y20590D02*
X30420Y20710D01*
X30360Y20830D01*
X30480Y20770D01*
X30600Y20830D01*
X30540Y20710D01*
X30600Y20590D01*
X30480Y20650D01*
X30360Y20590D01*
X31590Y18440D02*
X31690Y18640D01*
X31590Y18840D01*
X31790Y18740D01*
X31990Y18840D01*
X31890Y18640D01*
X31990Y18440D01*
X31790Y18540D01*
X31590Y18440D01*
X31670Y18520D02*
X31730Y18640D01*
X31670Y18760D01*
X31790Y18700D01*
X31910Y18760D01*
X31850Y18640D01*
X31910Y18520D01*
X31790Y18580D01*
X31670Y18520D01*
X31920Y18570D02*
X32020Y18770D01*
X31920Y18970D01*
X32120Y18870D01*
X32320Y18970D01*
X32220Y18770D01*
X32320Y18570D01*
X32120Y18670D01*
X31920Y18570D01*
X32000Y18650D02*
X32060Y18770D01*
X32000Y18890D01*
X32120Y18830D01*
X32240Y18890D01*
X32180Y18770D01*
X32240Y18650D01*
X32120Y18710D01*
X32000Y18650D01*
X23590Y17880D02*
X23690Y18080D01*
X23590Y18280D01*
X23790Y18180D01*
X23990Y18280D01*
X23890Y18080D01*
X23990Y17880D01*
X23790Y17980D01*
X23590Y17880D01*
X23670Y17960D02*
X23730Y18080D01*
X23670Y18200D01*
X23790Y18140D01*
X23910Y18200D01*
X23850Y18080D01*
X23910Y17960D01*
X23790Y18020D01*
X23670Y17960D01*
X22820Y18150D02*
X22920Y18350D01*
X22820Y18550D01*
X23020Y18450D01*
X23220Y18550D01*
X23120Y18350D01*
X23220Y18150D01*
X23020Y18250D01*
X22820Y18150D01*
X22900Y18230D02*
X22960Y18350D01*
X22900Y18470D01*
X23020Y18410D01*
X23140Y18470D01*
X23080Y18350D01*
X23140Y18230D01*
X23020Y18290D01*
X22900Y18230D01*
X22690Y18360D02*
X22790Y18560D01*
X22690Y18760D01*
X22890Y18660D01*
X23090Y18760D01*
X22990Y18560D01*
X23090Y18360D01*
X22890Y18460D01*
X22690Y18360D01*
X22770Y18440D02*
X22830Y18560D01*
X22770Y18680D01*
X22890Y18620D01*
X23010Y18680D01*
X22950Y18560D01*
X23010Y18440D01*
X22890Y18500D01*
X22770Y18440D01*
X23450Y18460D02*
X23550Y18660D01*
X23450Y18860D01*
X23650Y18760D01*
X23850Y18860D01*
X23750Y18660D01*
X23850Y18460D01*
X23650Y18560D01*
X23450Y18460D01*
X23530Y18540D02*
X23590Y18660D01*
X23530Y18780D01*
X23650Y18720D01*
X23770Y18780D01*
X23710Y18660D01*
X23770Y18540D01*
X23650Y18600D01*
X23530Y18540D01*
X23160Y20940D02*
X23260Y21140D01*
X23160Y21340D01*
X23360Y21240D01*
X23560Y21340D01*
X23460Y21140D01*
X23560Y20940D01*
X23360Y21040D01*
X23160Y20940D01*
X23240Y21020D02*
X23300Y21140D01*
X23240Y21260D01*
X23360Y21200D01*
X23480Y21260D01*
X23420Y21140D01*
X23480Y21020D01*
X23360Y21080D01*
X23240Y21020D01*
X21400Y18710D02*
X21500Y18910D01*
X21400Y19110D01*
X21600Y19010D01*
X21800Y19110D01*
X21700Y18910D01*
X21800Y18710D01*
X21600Y18810D01*
X21400Y18710D01*
X21480Y18790D02*
X21540Y18910D01*
X21480Y19030D01*
X21600Y18970D01*
X21720Y19030D01*
X21660Y18910D01*
X21720Y18790D01*
X21600Y18850D01*
X21480Y18790D01*
X22250Y18710D02*
X22350Y18910D01*
X22250Y19110D01*
X22450Y19010D01*
X22650Y19110D01*
X22550Y18910D01*
X22650Y18710D01*
X22450Y18810D01*
X22250Y18710D01*
X22330Y18790D02*
X22390Y18910D01*
X22330Y19030D01*
X22450Y18970D01*
X22570Y19030D01*
X22510Y18910D01*
X22570Y18790D01*
X22450Y18850D01*
X22330Y18790D01*
X21770Y19870D02*
X21870Y20070D01*
X21770Y20270D01*
X21970Y20170D01*
X22170Y20270D01*
X22070Y20070D01*
X22170Y19870D01*
X21970Y19970D01*
X21770Y19870D01*
X21850Y19950D02*
X21910Y20070D01*
X21850Y20190D01*
X21970Y20130D01*
X22090Y20190D01*
X22030Y20070D01*
X22090Y19950D01*
X21970Y20010D01*
X21850Y19950D01*
X19040Y15080D02*
X19140Y15280D01*
X19040Y15480D01*
X19240Y15380D01*
X19440Y15480D01*
X19340Y15280D01*
X19440Y15080D01*
X19240Y15180D01*
X19040Y15080D01*
X19120Y15160D02*
X19180Y15280D01*
X19120Y15400D01*
X19240Y15340D01*
X19360Y15400D01*
X19300Y15280D01*
X19360Y15160D01*
X19240Y15220D01*
X19120Y15160D01*
X19090Y14610D02*
X19190Y14810D01*
X19090Y15010D01*
X19290Y14910D01*
X19490Y15010D01*
X19390Y14810D01*
X19490Y14610D01*
X19290Y14710D01*
X19090Y14610D01*
X19170Y14690D02*
X19230Y14810D01*
X19170Y14930D01*
X19290Y14870D01*
X19410Y14930D01*
X19350Y14810D01*
X19410Y14690D01*
X19290Y14750D01*
X19170Y14690D01*
X22250Y21040D02*
X22350Y21240D01*
X22250Y21440D01*
X22450Y21340D01*
X22650Y21440D01*
X22550Y21240D01*
X22650Y21040D01*
X22450Y21140D01*
X22250Y21040D01*
X22330Y21120D02*
X22390Y21240D01*
X22330Y21360D01*
X22450Y21300D01*
X22570Y21360D01*
X22510Y21240D01*
X22570Y21120D01*
X22450Y21180D01*
X22330Y21120D01*
X21594Y21903D02*
X21694Y22103D01*
X21594Y22303D01*
X21794Y22203D01*
X21994Y22303D01*
X21894Y22103D01*
X21994Y21903D01*
X21794Y22003D01*
X21594Y21903D01*
X28930Y19540D02*
X29030Y19740D01*
X28930Y19940D01*
X29130Y19840D01*
X29330Y19940D01*
X29230Y19740D01*
X29330Y19540D01*
X29130Y19640D01*
X28930Y19540D01*
X29010Y19620D02*
X29070Y19740D01*
X29010Y19860D01*
X29130Y19800D01*
X29250Y19860D01*
X29190Y19740D01*
X29250Y19620D01*
X29130Y19680D01*
X29010Y19620D01*
X19580Y19270D02*
X19680Y19470D01*
X19580Y19670D01*
X19780Y19570D01*
X19980Y19670D01*
X19880Y19470D01*
X19980Y19270D01*
X19780Y19370D01*
X19580Y19270D01*
X19660Y19350D02*
X19720Y19470D01*
X19660Y19590D01*
X19780Y19530D01*
X19900Y19590D01*
X19840Y19470D01*
X19900Y19350D01*
X19780Y19410D01*
X19660Y19350D01*
X19960Y19470D02*
X20060Y19670D01*
X19960Y19870D01*
X20160Y19770D01*
X20360Y19870D01*
X20260Y19670D01*
X20360Y19470D01*
X20160Y19570D01*
X19960Y19470D01*
X20040Y19550D02*
X20100Y19670D01*
X20040Y19790D01*
X20160Y19730D01*
X20280Y19790D01*
X20220Y19670D01*
X20280Y19550D01*
X20160Y19610D01*
X20040Y19550D01*
X19200Y19480D02*
X19300Y19680D01*
X19200Y19880D01*
X19400Y19780D01*
X19600Y19880D01*
X19500Y19680D01*
X19600Y19480D01*
X19400Y19580D01*
X19200Y19480D01*
X19280Y19560D02*
X19340Y19680D01*
X19280Y19800D01*
X19400Y19740D01*
X19520Y19800D01*
X19460Y19680D01*
X19520Y19560D01*
X19400Y19620D01*
X19280Y19560D01*
X15810Y17470D02*
X15910Y17670D01*
X15810Y17870D01*
X16010Y17770D01*
X16210Y17870D01*
X16110Y17670D01*
X16210Y17470D01*
X16010Y17570D01*
X15810Y17470D01*
X15890Y17550D02*
X15950Y17670D01*
X15890Y17790D01*
X16010Y17730D01*
X16130Y17790D01*
X16070Y17670D01*
X16130Y17550D01*
X16010Y17610D01*
X15890Y17550D01*
X15480Y18990D02*
X15580Y19190D01*
X15480Y19390D01*
X15680Y19290D01*
X15880Y19390D01*
X15780Y19190D01*
X15880Y18990D01*
X15680Y19090D01*
X15480Y18990D01*
X15560Y19070D02*
X15620Y19190D01*
X15560Y19310D01*
X15680Y19250D01*
X15800Y19310D01*
X15740Y19190D01*
X15800Y19070D01*
X15680Y19130D01*
X15560Y19070D01*
X13010Y18950D02*
X13110Y19150D01*
X13010Y19350D01*
X13210Y19250D01*
X13410Y19350D01*
X13310Y19150D01*
X13410Y18950D01*
X13210Y19050D01*
X13010Y18950D01*
X13090Y19030D02*
X13150Y19150D01*
X13090Y19270D01*
X13210Y19210D01*
X13330Y19270D01*
X13270Y19150D01*
X13330Y19030D01*
X13210Y19090D01*
X13090Y19030D01*
X13360Y18680D02*
X13460Y18880D01*
X13360Y19080D01*
X13560Y18980D01*
X13760Y19080D01*
X13660Y18880D01*
X13760Y18680D01*
X13560Y18780D01*
X13360Y18680D01*
X13440Y18760D02*
X13500Y18880D01*
X13440Y19000D01*
X13560Y18940D01*
X13680Y19000D01*
X13620Y18880D01*
X13680Y18760D01*
X13560Y18820D01*
X13440Y18760D01*
Y18910D02*
X13540Y19110D01*
X13440Y19310D01*
X13640Y19210D01*
X13840Y19310D01*
X13740Y19110D01*
X13840Y18910D01*
X13640Y19010D01*
X13440Y18910D01*
X13520Y18990D02*
X13580Y19110D01*
X13520Y19230D01*
X13640Y19170D01*
X13760Y19230D01*
X13700Y19110D01*
X13760Y18990D01*
X13640Y19050D01*
X13520Y18990D01*
X22410Y21560D02*
X22510Y21760D01*
X22410Y21960D01*
X22610Y21860D01*
X22810Y21960D01*
X22710Y21760D01*
X22810Y21560D01*
X22610Y21660D01*
X22410Y21560D01*
X22490Y21640D02*
X22550Y21760D01*
X22490Y21880D01*
X22610Y21820D01*
X22730Y21880D01*
X22670Y21760D01*
X22730Y21640D01*
X22610Y21700D01*
X22490Y21640D01*
X13610Y20750D02*
X13710Y20950D01*
X13610Y21150D01*
X13810Y21050D01*
X14010Y21150D01*
X13910Y20950D01*
X14010Y20750D01*
X13810Y20850D01*
X13610Y20750D01*
X13690Y20830D02*
X13750Y20950D01*
X13690Y21070D01*
X13810Y21010D01*
X13930Y21070D01*
X13870Y20950D01*
X13930Y20830D01*
X13810Y20890D01*
X13690Y20830D01*
X14260Y20590D02*
X14360Y20790D01*
X14260Y20990D01*
X14460Y20890D01*
X14660Y20990D01*
X14560Y20790D01*
X14660Y20590D01*
X14460Y20690D01*
X14260Y20590D01*
X14340Y20670D02*
X14400Y20790D01*
X14340Y20910D01*
X14460Y20850D01*
X14580Y20910D01*
X14520Y20790D01*
X14580Y20670D01*
X14460Y20730D01*
X14340Y20670D01*
X15160Y19140D02*
X15260Y19340D01*
X15160Y19540D01*
X15360Y19440D01*
X15560Y19540D01*
X15460Y19340D01*
X15560Y19140D01*
X15360Y19240D01*
X15160Y19140D01*
X15240Y19220D02*
X15300Y19340D01*
X15240Y19460D01*
X15360Y19400D01*
X15480Y19460D01*
X15420Y19340D01*
X15480Y19220D01*
X15360Y19280D01*
X15240Y19220D01*
X14840Y19213D02*
X14940Y19413D01*
X14840Y19613D01*
X15040Y19513D01*
X15240Y19613D01*
X15140Y19413D01*
X15240Y19213D01*
X15040Y19313D01*
X14840Y19213D01*
X14920Y19293D02*
X14980Y19413D01*
X14920Y19533D01*
X15040Y19473D01*
X15160Y19533D01*
X15100Y19413D01*
X15160Y19293D01*
X15040Y19353D01*
X14920Y19293D01*
X16510Y20310D02*
X16610Y20510D01*
X16510Y20710D01*
X16710Y20610D01*
X16910Y20710D01*
X16810Y20510D01*
X16910Y20310D01*
X16710Y20410D01*
X16510Y20310D01*
X16590Y20390D02*
X16650Y20510D01*
X16590Y20630D01*
X16710Y20570D01*
X16830Y20630D01*
X16770Y20510D01*
X16830Y20390D01*
X16710Y20450D01*
X16590Y20390D01*
X17970Y18690D02*
X18070Y18890D01*
X17970Y19090D01*
X18170Y18990D01*
X18370Y19090D01*
X18270Y18890D01*
X18370Y18690D01*
X18170Y18790D01*
X17970Y18690D01*
X18050Y18770D02*
X18110Y18890D01*
X18050Y19010D01*
X18170Y18950D01*
X18290Y19010D01*
X18230Y18890D01*
X18290Y18770D01*
X18170Y18830D01*
X18050Y18770D01*
X17570Y18680D02*
X17670Y18880D01*
X17570Y19080D01*
X17770Y18980D01*
X17970Y19080D01*
X17870Y18880D01*
X17970Y18680D01*
X17770Y18780D01*
X17570Y18680D01*
X17650Y18760D02*
X17710Y18880D01*
X17650Y19000D01*
X17770Y18940D01*
X17890Y19000D01*
X17830Y18880D01*
X17890Y18760D01*
X17770Y18820D01*
X17650Y18760D01*
X18090Y19170D02*
X18190Y19370D01*
X18090Y19570D01*
X18290Y19470D01*
X18490Y19570D01*
X18390Y19370D01*
X18490Y19170D01*
X18290Y19270D01*
X18090Y19170D01*
X18170Y19250D02*
X18230Y19370D01*
X18170Y19490D01*
X18290Y19430D01*
X18410Y19490D01*
X18350Y19370D01*
X18410Y19250D01*
X18290Y19310D01*
X18170Y19250D01*
X16180Y20010D02*
X16280Y20210D01*
X16180Y20410D01*
X16380Y20310D01*
X16580Y20410D01*
X16480Y20210D01*
X16580Y20010D01*
X16380Y20110D01*
X16180Y20010D01*
X16260Y20090D02*
X16320Y20210D01*
X16260Y20330D01*
X16380Y20270D01*
X16500Y20330D01*
X16440Y20210D01*
X16500Y20090D01*
X16380Y20150D01*
X16260Y20090D01*
X16190Y20250D02*
X16290Y20450D01*
X16190Y20650D01*
X16390Y20550D01*
X16590Y20650D01*
X16490Y20450D01*
X16590Y20250D01*
X16390Y20350D01*
X16190Y20250D01*
X16270Y20330D02*
X16330Y20450D01*
X16270Y20570D01*
X16390Y20510D01*
X16510Y20570D01*
X16450Y20450D01*
X16510Y20330D01*
X16390Y20390D01*
X16270Y20330D01*
X17450Y19450D02*
X17550Y19650D01*
X17450Y19850D01*
X17650Y19750D01*
X17850Y19850D01*
X17750Y19650D01*
X17850Y19450D01*
X17650Y19550D01*
X17450Y19450D01*
X17530Y19530D02*
X17590Y19650D01*
X17530Y19770D01*
X17650Y19710D01*
X17770Y19770D01*
X17710Y19650D01*
X17770Y19530D01*
X17650Y19590D01*
X17530Y19530D01*
X17210Y19460D02*
X17310Y19660D01*
X17210Y19860D01*
X17410Y19760D01*
X17610Y19860D01*
X17510Y19660D01*
X17610Y19460D01*
X17410Y19560D01*
X17210Y19460D01*
X17290Y19540D02*
X17350Y19660D01*
X17290Y19780D01*
X17410Y19720D01*
X17530Y19780D01*
X17470Y19660D01*
X17530Y19540D01*
X17410Y19600D01*
X17290Y19540D01*
X16910Y19640D02*
X17010Y19840D01*
X16910Y20040D01*
X17110Y19940D01*
X17310Y20040D01*
X17210Y19840D01*
X17310Y19640D01*
X17110Y19740D01*
X16910Y19640D01*
X16990Y19720D02*
X17050Y19840D01*
X16990Y19960D01*
X17110Y19900D01*
X17230Y19960D01*
X17170Y19840D01*
X17230Y19720D01*
X17110Y19780D01*
X16990Y19720D01*
X14800Y18520D02*
X14900Y18720D01*
X14800Y18920D01*
X15000Y18820D01*
X15200Y18920D01*
X15100Y18720D01*
X15200Y18520D01*
X15000Y18620D01*
X14800Y18520D01*
X14880Y18600D02*
X14940Y18720D01*
X14880Y18840D01*
X15000Y18780D01*
X15120Y18840D01*
X15060Y18720D01*
X15120Y18600D01*
X15000Y18660D01*
X14880Y18600D01*
X15740Y18130D02*
X15840Y18330D01*
X15740Y18530D01*
X15940Y18430D01*
X16140Y18530D01*
X16040Y18330D01*
X16140Y18130D01*
X15940Y18230D01*
X15740Y18130D01*
X15820Y18210D02*
X15880Y18330D01*
X15820Y18450D01*
X15940Y18390D01*
X16060Y18450D01*
X16000Y18330D01*
X16060Y18210D01*
X15940Y18270D01*
X15820Y18210D01*
X12030Y20400D02*
X12130Y20600D01*
X12030Y20800D01*
X12230Y20700D01*
X12430Y20800D01*
X12330Y20600D01*
X12430Y20400D01*
X12230Y20500D01*
X12030Y20400D01*
X12110Y20480D02*
X12170Y20600D01*
X12110Y20720D01*
X12230Y20660D01*
X12350Y20720D01*
X12290Y20600D01*
X12350Y20480D01*
X12230Y20540D01*
X12110Y20480D01*
X11770Y20620D02*
X11870Y20820D01*
X11770Y21020D01*
X11970Y20920D01*
X12170Y21020D01*
X12070Y20820D01*
X12170Y20620D01*
X11970Y20720D01*
X11770Y20620D01*
X11850Y20700D02*
X11910Y20820D01*
X11850Y20940D01*
X11970Y20880D01*
X12090Y20940D01*
X12030Y20820D01*
X12090Y20700D01*
X11970Y20760D01*
X11850Y20700D01*
X10920Y20550D02*
X11020Y20750D01*
X10920Y20950D01*
X11120Y20850D01*
X11320Y20950D01*
X11220Y20750D01*
X11320Y20550D01*
X11120Y20650D01*
X10920Y20550D01*
X11000Y20630D02*
X11060Y20750D01*
X11000Y20870D01*
X11120Y20810D01*
X11240Y20870D01*
X11180Y20750D01*
X11240Y20630D01*
X11120Y20690D01*
X11000Y20630D01*
X11280Y19580D02*
X11380Y19780D01*
X11280Y19980D01*
X11480Y19880D01*
X11680Y19980D01*
X11580Y19780D01*
X11680Y19580D01*
X11480Y19680D01*
X11280Y19580D01*
X11360Y19660D02*
X11420Y19780D01*
X11360Y19900D01*
X11480Y19840D01*
X11600Y19900D01*
X11540Y19780D01*
X11600Y19660D01*
X11480Y19720D01*
X11360Y19660D01*
X12430Y19610D02*
X12530Y19810D01*
X12430Y20010D01*
X12630Y19910D01*
X12830Y20010D01*
X12730Y19810D01*
X12830Y19610D01*
X12630Y19710D01*
X12430Y19610D01*
X12510Y19690D02*
X12570Y19810D01*
X12510Y19930D01*
X12630Y19870D01*
X12750Y19930D01*
X12690Y19810D01*
X12750Y19690D01*
X12630Y19750D01*
X12510Y19690D01*
X13650Y19180D02*
X13750Y19380D01*
X13650Y19580D01*
X13850Y19480D01*
X14050Y19580D01*
X13950Y19380D01*
X14050Y19180D01*
X13850Y19280D01*
X13650Y19180D01*
X13730Y19260D02*
X13790Y19380D01*
X13730Y19500D01*
X13850Y19440D01*
X13970Y19500D01*
X13910Y19380D01*
X13970Y19260D01*
X13850Y19320D01*
X13730Y19260D01*
X12250Y19890D02*
X12350Y20090D01*
X12250Y20290D01*
X12450Y20190D01*
X12650Y20290D01*
X12550Y20090D01*
X12650Y19890D01*
X12450Y19990D01*
X12250Y19890D01*
X12330Y19970D02*
X12390Y20090D01*
X12330Y20210D01*
X12450Y20150D01*
X12570Y20210D01*
X12510Y20090D01*
X12570Y19970D01*
X12450Y20030D01*
X12330Y19970D01*
X36000Y16530D02*
X36100Y16630D01*
X36200D01*
X36100Y16730D01*
X36200Y16830D01*
X36100D01*
X36000Y16930D01*
X35900Y16830D01*
X35800D01*
X35900Y16730D01*
X35800Y16630D01*
X35900D01*
X36000Y16530D01*
Y16610D02*
X36060Y16670D01*
X36120D01*
X36060Y16730D01*
X36120Y16790D01*
X36060D01*
X36000Y16850D01*
X35940Y16790D01*
X35880D01*
X35940Y16730D01*
X35880Y16670D01*
X35940D01*
X36000Y16610D01*
X36530Y17150D02*
X36630Y17350D01*
X36530Y17550D01*
X36730Y17450D01*
X36930Y17550D01*
X36830Y17350D01*
X36930Y17150D01*
X36730Y17250D01*
X36530Y17150D01*
X42460Y32160D02*
Y32493D01*
X42627Y32660D01*
X42793Y32493D01*
Y32160D01*
Y32410D01*
X42460D01*
X39256Y19066D02*
X39356Y19266D01*
X39256Y19466D01*
X39456Y19366D01*
X39656Y19466D01*
X39556Y19266D01*
X39656Y19066D01*
X39456Y19166D01*
X39256Y19066D01*
X42330Y13810D02*
X42430Y14010D01*
X42330Y14210D01*
X42530Y14110D01*
X42730Y14210D01*
X42630Y14010D01*
X42730Y13810D01*
X42530Y13910D01*
X42330Y13810D01*
X41220Y19180D02*
X41320Y19380D01*
X41220Y19580D01*
X41420Y19480D01*
X41620Y19580D01*
X41520Y19380D01*
X41620Y19180D01*
X41420Y19280D01*
X41220Y19180D01*
X40290Y19160D02*
X40390Y19360D01*
X40290Y19560D01*
X40490Y19460D01*
X40690Y19560D01*
X40590Y19360D01*
X40690Y19160D01*
X40490Y19260D01*
X40290Y19160D01*
X40280Y18660D02*
X40380Y18860D01*
X40280Y19060D01*
X40480Y18960D01*
X40680Y19060D01*
X40580Y18860D01*
X40680Y18660D01*
X40480Y18760D01*
X40280Y18660D01*
X41230Y18650D02*
X41330Y18850D01*
X41230Y19050D01*
X41430Y18950D01*
X41630Y19050D01*
X41530Y18850D01*
X41630Y18650D01*
X41430Y18750D01*
X41230Y18650D01*
X40280Y18060D02*
X40380Y18260D01*
X40280Y18460D01*
X40480Y18360D01*
X40680Y18460D01*
X40580Y18260D01*
X40680Y18060D01*
X40480Y18160D01*
X40280Y18060D01*
X41610Y25400D02*
X41710Y25600D01*
X41610Y25800D01*
X41810Y25700D01*
X42010Y25800D01*
X41910Y25600D01*
X42010Y25400D01*
X41810Y25500D01*
X41610Y25400D01*
X41670Y24760D02*
X41770Y24960D01*
X41670Y25160D01*
X41870Y25060D01*
X42070Y25160D01*
X41970Y24960D01*
X42070Y24760D01*
X41870Y24860D01*
X41670Y24760D01*
X38350Y12890D02*
X38450Y13090D01*
X38350Y13290D01*
X38550Y13190D01*
X38750Y13290D01*
X38650Y13090D01*
X38750Y12890D01*
X38550Y12990D01*
X38350Y12890D01*
X37240D02*
X37340Y13090D01*
X37240Y13290D01*
X37440Y13190D01*
X37640Y13290D01*
X37540Y13090D01*
X37640Y12890D01*
X37440Y12990D01*
X37240Y12890D01*
X37580Y12290D02*
X37680Y12490D01*
X37580Y12690D01*
X37780Y12590D01*
X37980Y12690D01*
X37880Y12490D01*
X37980Y12290D01*
X37780Y12390D01*
X37580Y12290D01*
X38690Y12250D02*
X38790Y12450D01*
X38690Y12650D01*
X38890Y12550D01*
X39090Y12650D01*
X38990Y12450D01*
X39090Y12250D01*
X38890Y12350D01*
X38690Y12250D01*
X35900Y10550D02*
X36000Y10750D01*
X35900Y10950D01*
X36100Y10850D01*
X36300Y10950D01*
X36200Y10750D01*
X36300Y10550D01*
X36100Y10650D01*
X35900Y10550D01*
X34960Y10540D02*
X35060Y10740D01*
X34960Y10940D01*
X35160Y10840D01*
X35360Y10940D01*
X35260Y10740D01*
X35360Y10540D01*
X35160Y10640D01*
X34960Y10540D01*
X35910Y11130D02*
X36010Y11330D01*
X35910Y11530D01*
X36110Y11430D01*
X36310Y11530D01*
X36210Y11330D01*
X36310Y11130D01*
X36110Y11230D01*
X35910Y11130D01*
X34960Y11140D02*
X35060Y11340D01*
X34960Y11540D01*
X35160Y11440D01*
X35360Y11540D01*
X35260Y11340D01*
X35360Y11140D01*
X35160Y11240D01*
X34960Y11140D01*
X34970Y11640D02*
X35070Y11840D01*
X34970Y12040D01*
X35170Y11940D01*
X35370Y12040D01*
X35270Y11840D01*
X35370Y11640D01*
X35170Y11740D01*
X34970Y11640D01*
X35900Y11660D02*
X36000Y11860D01*
X35900Y12060D01*
X36100Y11960D01*
X36300Y12060D01*
X36200Y11860D01*
X36300Y11660D01*
X36100Y11760D01*
X35900Y11660D01*
X35710Y14170D02*
X35810Y14370D01*
X35710Y14570D01*
X35910Y14470D01*
X36110Y14570D01*
X36010Y14370D01*
X36110Y14170D01*
X35910Y14270D01*
X35710Y14170D01*
X34770Y14160D02*
X34870Y14360D01*
X34770Y14560D01*
X34970Y14460D01*
X35170Y14560D01*
X35070Y14360D01*
X35170Y14160D01*
X34970Y14260D01*
X34770Y14160D01*
X35720Y14750D02*
X35820Y14950D01*
X35720Y15150D01*
X35920Y15050D01*
X36120Y15150D01*
X36020Y14950D01*
X36120Y14750D01*
X35920Y14850D01*
X35720Y14750D01*
X34770Y14760D02*
X34870Y14960D01*
X34770Y15160D01*
X34970Y15060D01*
X35170Y15160D01*
X35070Y14960D01*
X35170Y14760D01*
X34970Y14860D01*
X34770Y14760D01*
X34780Y15260D02*
X34880Y15460D01*
X34780Y15660D01*
X34980Y15560D01*
X35180Y15660D01*
X35080Y15460D01*
X35180Y15260D01*
X34980Y15360D01*
X34780Y15260D01*
X35710Y15280D02*
X35810Y15480D01*
X35710Y15680D01*
X35910Y15580D01*
X36110Y15680D01*
X36010Y15480D01*
X36110Y15280D01*
X35910Y15380D01*
X35710Y15280D01*
X38270Y10810D02*
X38370Y11010D01*
X38270Y11210D01*
X38470Y11110D01*
X38670Y11210D01*
X38570Y11010D01*
X38670Y10810D01*
X38470Y10910D01*
X38270Y10810D01*
X37160D02*
X37260Y11010D01*
X37160Y11210D01*
X37360Y11110D01*
X37560Y11210D01*
X37460Y11010D01*
X37560Y10810D01*
X37360Y10910D01*
X37160Y10810D01*
X38750D02*
X38850Y11010D01*
X38750Y11210D01*
X38950Y11110D01*
X39150Y11210D01*
X39050Y11010D01*
X39150Y10810D01*
X38950Y10910D01*
X38750Y10810D01*
X37160Y11790D02*
X37260Y11990D01*
X37160Y12190D01*
X37360Y12090D01*
X37560Y12190D01*
X37460Y11990D01*
X37560Y11790D01*
X37360Y11890D01*
X37160Y11790D01*
Y11320D02*
X37260Y11520D01*
X37160Y11720D01*
X37360Y11620D01*
X37560Y11720D01*
X37460Y11520D01*
X37560Y11320D01*
X37360Y11420D01*
X37160Y11320D01*
X37730Y10810D02*
X37830Y11010D01*
X37730Y11210D01*
X37930Y11110D01*
X38130Y11210D01*
X38030Y11010D01*
X38130Y10810D01*
X37930Y10910D01*
X37730Y10810D01*
X35900Y12597D02*
X36000Y12797D01*
X35900Y12997D01*
X36100Y12897D01*
X36300Y12997D01*
X36200Y12797D01*
X36300Y12597D01*
X36100Y12697D01*
X35900Y12597D01*
X34960Y12587D02*
X35060Y12787D01*
X34960Y12987D01*
X35160Y12887D01*
X35360Y12987D01*
X35260Y12787D01*
X35360Y12587D01*
X35160Y12687D01*
X34960Y12587D01*
X35910Y13177D02*
X36010Y13377D01*
X35910Y13577D01*
X36110Y13477D01*
X36310Y13577D01*
X36210Y13377D01*
X36310Y13177D01*
X36110Y13277D01*
X35910Y13177D01*
X34960Y13187D02*
X35060Y13387D01*
X34960Y13587D01*
X35160Y13487D01*
X35360Y13587D01*
X35260Y13387D01*
X35360Y13187D01*
X35160Y13287D01*
X34960Y13187D01*
X34970Y13687D02*
X35070Y13887D01*
X34970Y14087D01*
X35170Y13987D01*
X35370Y14087D01*
X35270Y13887D01*
X35370Y13687D01*
X35170Y13787D01*
X34970Y13687D01*
X35900Y13707D02*
X36000Y13907D01*
X35900Y14107D01*
X36100Y14007D01*
X36300Y14107D01*
X36200Y13907D01*
X36300Y13707D01*
X36100Y13807D01*
X35900Y13707D01*
X37460Y16170D02*
X37560Y16370D01*
X37460Y16570D01*
X37660Y16470D01*
X37860Y16570D01*
X37760Y16370D01*
X37860Y16170D01*
X37660Y16270D01*
X37460Y16170D01*
X41880Y21205D02*
X41980Y21405D01*
X41880Y21605D01*
X42080Y21505D01*
X42280Y21605D01*
X42180Y21405D01*
X42280Y21205D01*
X42080Y21305D01*
X41880Y21205D01*
X25860Y20050D02*
X25960Y20250D01*
X25860Y20450D01*
X26060Y20350D01*
X26260Y20450D01*
X26160Y20250D01*
X26260Y20050D01*
X26060Y20150D01*
X25860Y20050D01*
X25940Y20130D02*
X26000Y20250D01*
X25940Y20370D01*
X26060Y20310D01*
X26180Y20370D01*
X26120Y20250D01*
X26180Y20130D01*
X26060Y20190D01*
X25940Y20130D01*
X25270Y20240D02*
X25370Y20440D01*
X25270Y20640D01*
X25470Y20540D01*
X25670Y20640D01*
X25570Y20440D01*
X25670Y20240D01*
X25470Y20340D01*
X25270Y20240D01*
X24950D02*
X25050Y20440D01*
X24950Y20640D01*
X25150Y20540D01*
X25350Y20640D01*
X25250Y20440D01*
X25350Y20240D01*
X25150Y20340D01*
X24950Y20240D01*
X18930Y12690D02*
X19030Y12890D01*
X18930Y13090D01*
X19130Y12990D01*
X19330Y13090D01*
X19230Y12890D01*
X19330Y12690D01*
X19130Y12790D01*
X18930Y12690D01*
X19010Y12770D02*
X19070Y12890D01*
X19010Y13010D01*
X19130Y12950D01*
X19250Y13010D01*
X19190Y12890D01*
X19250Y12770D01*
X19130Y12830D01*
X19010Y12770D01*
X31550Y14140D02*
X31650Y14340D01*
X31550Y14540D01*
X31750Y14440D01*
X31950Y14540D01*
X31850Y14340D01*
X31950Y14140D01*
X31750Y14240D01*
X31550Y14140D01*
X31630Y14220D02*
X31690Y14340D01*
X31630Y14460D01*
X31750Y14400D01*
X31870Y14460D01*
X31810Y14340D01*
X31870Y14220D01*
X31750Y14280D01*
X31630Y14220D01*
X32181Y14421D02*
X32281Y14621D01*
X32181Y14821D01*
X32381Y14721D01*
X32581Y14821D01*
X32481Y14621D01*
X32581Y14421D01*
X32381Y14521D01*
X32181Y14421D01*
X32261Y14501D02*
X32321Y14621D01*
X32261Y14741D01*
X32381Y14681D01*
X32501Y14741D01*
X32441Y14621D01*
X32501Y14501D01*
X32381Y14561D01*
X32261Y14501D01*
X28890Y13400D02*
X28990Y13600D01*
X28890Y13800D01*
X29090Y13700D01*
X29290Y13800D01*
X29190Y13600D01*
X29290Y13400D01*
X29090Y13500D01*
X28890Y13400D01*
X28970Y13480D02*
X29030Y13600D01*
X28970Y13720D01*
X29090Y13660D01*
X29210Y13720D01*
X29150Y13600D01*
X29210Y13480D01*
X29090Y13540D01*
X28970Y13480D01*
X28890Y13650D02*
X28990Y13850D01*
X28890Y14050D01*
X29090Y13950D01*
X29290Y14050D01*
X29190Y13850D01*
X29290Y13650D01*
X29090Y13750D01*
X28890Y13650D01*
X28970Y13730D02*
X29030Y13850D01*
X28970Y13970D01*
X29090Y13910D01*
X29210Y13970D01*
X29150Y13850D01*
X29210Y13730D01*
X29090Y13790D01*
X28970Y13730D01*
X30010Y19240D02*
X30110Y19440D01*
X30010Y19640D01*
X30210Y19540D01*
X30410Y19640D01*
X30310Y19440D01*
X30410Y19240D01*
X30210Y19340D01*
X30010Y19240D01*
X30090Y19320D02*
X30150Y19440D01*
X30090Y19560D01*
X30210Y19500D01*
X30330Y19560D01*
X30270Y19440D01*
X30330Y19320D01*
X30210Y19380D01*
X30090Y19320D01*
X30610Y19760D02*
X30710Y19960D01*
X30610Y20160D01*
X30810Y20060D01*
X31010Y20160D01*
X30910Y19960D01*
X31010Y19760D01*
X30810Y19860D01*
X30610Y19760D01*
X30690Y19840D02*
X30750Y19960D01*
X30690Y20080D01*
X30810Y20020D01*
X30930Y20080D01*
X30870Y19960D01*
X30930Y19840D01*
X30810Y19900D01*
X30690Y19840D01*
X29919Y17529D02*
X30019Y17729D01*
X29919Y17929D01*
X30119Y17829D01*
X30319Y17929D01*
X30219Y17729D01*
X30319Y17529D01*
X30119Y17629D01*
X29919Y17529D01*
X29999Y17609D02*
X30059Y17729D01*
X29999Y17849D01*
X30119Y17789D01*
X30239Y17849D01*
X30179Y17729D01*
X30239Y17609D01*
X30119Y17669D01*
X29999Y17609D01*
X31100Y18030D02*
X31200Y18230D01*
X31100Y18430D01*
X31300Y18330D01*
X31500Y18430D01*
X31400Y18230D01*
X31500Y18030D01*
X31300Y18130D01*
X31100Y18030D01*
X31180Y18110D02*
X31240Y18230D01*
X31180Y18350D01*
X31300Y18290D01*
X31420Y18350D01*
X31360Y18230D01*
X31420Y18110D01*
X31300Y18170D01*
X31180Y18110D01*
Y18260D02*
X31280Y18460D01*
X31180Y18660D01*
X31380Y18560D01*
X31580Y18660D01*
X31480Y18460D01*
X31580Y18260D01*
X31380Y18360D01*
X31180Y18260D01*
X31260Y18340D02*
X31320Y18460D01*
X31260Y18580D01*
X31380Y18520D01*
X31500Y18580D01*
X31440Y18460D01*
X31500Y18340D01*
X31380Y18400D01*
X31260Y18340D01*
X32110Y18430D02*
X32210Y18630D01*
X32110Y18830D01*
X32310Y18730D01*
X32510Y18830D01*
X32410Y18630D01*
X32510Y18430D01*
X32310Y18530D01*
X32110Y18430D01*
X32190Y18510D02*
X32250Y18630D01*
X32190Y18750D01*
X32310Y18690D01*
X32430Y18750D01*
X32370Y18630D01*
X32430Y18510D01*
X32310Y18570D01*
X32190Y18510D01*
X30200Y22620D02*
X30300Y22820D01*
X30200Y23020D01*
X30400Y22920D01*
X30600Y23020D01*
X30500Y22820D01*
X30600Y22620D01*
X30400Y22720D01*
X30200Y22620D01*
X28670Y20830D02*
X28770Y21030D01*
X28670Y21230D01*
X28870Y21130D01*
X29070Y21230D01*
X28970Y21030D01*
X29070Y20830D01*
X28870Y20930D01*
X28670Y20830D01*
X28750Y20910D02*
X28810Y21030D01*
X28750Y21150D01*
X28870Y21090D01*
X28990Y21150D01*
X28930Y21030D01*
X28990Y20910D01*
X28870Y20970D01*
X28750Y20910D01*
X30194Y23196D02*
X30294Y23396D01*
X30194Y23596D01*
X30394Y23496D01*
X30594Y23596D01*
X30494Y23396D01*
X30594Y23196D01*
X30394Y23296D01*
X30194Y23196D01*
X30020Y20820D02*
X30120Y21020D01*
X30020Y21220D01*
X30220Y21120D01*
X30420Y21220D01*
X30320Y21020D01*
X30420Y20820D01*
X30220Y20920D01*
X30020Y20820D01*
X30100Y20900D02*
X30160Y21020D01*
X30100Y21140D01*
X30220Y21080D01*
X30340Y21140D01*
X30280Y21020D01*
X30340Y20900D01*
X30220Y20960D01*
X30100Y20900D01*
X28380Y16020D02*
X28480Y16220D01*
X28380Y16420D01*
X28580Y16320D01*
X28780Y16420D01*
X28680Y16220D01*
X28780Y16020D01*
X28580Y16120D01*
X28380Y16020D01*
X28460Y16100D02*
X28520Y16220D01*
X28460Y16340D01*
X28580Y16280D01*
X28700Y16340D01*
X28640Y16220D01*
X28700Y16100D01*
X28580Y16160D01*
X28460Y16100D01*
X28390Y17140D02*
X28490Y17340D01*
X28390Y17540D01*
X28590Y17440D01*
X28790Y17540D01*
X28690Y17340D01*
X28790Y17140D01*
X28590Y17240D01*
X28390Y17140D01*
X28470Y17220D02*
X28530Y17340D01*
X28470Y17460D01*
X28590Y17400D01*
X28710Y17460D01*
X28650Y17340D01*
X28710Y17220D01*
X28590Y17280D01*
X28470Y17220D01*
X29130Y14940D02*
X29230Y15140D01*
X29130Y15340D01*
X29330Y15240D01*
X29530Y15340D01*
X29430Y15140D01*
X29530Y14940D01*
X29330Y15040D01*
X29130Y14940D01*
X29210Y15020D02*
X29270Y15140D01*
X29210Y15260D01*
X29330Y15200D01*
X29450Y15260D01*
X29390Y15140D01*
X29450Y15020D01*
X29330Y15080D01*
X29210Y15020D01*
X33210Y14060D02*
X33310Y14260D01*
X33210Y14460D01*
X33410Y14360D01*
X33610Y14460D01*
X33510Y14260D01*
X33610Y14060D01*
X33410Y14160D01*
X33210Y14060D01*
X33290Y14140D02*
X33350Y14260D01*
X33290Y14380D01*
X33410Y14320D01*
X33530Y14380D01*
X33470Y14260D01*
X33530Y14140D01*
X33410Y14200D01*
X33290Y14140D01*
X23210Y15380D02*
X23310Y15580D01*
X23210Y15780D01*
X23410Y15680D01*
X23610Y15780D01*
X23510Y15580D01*
X23610Y15380D01*
X23410Y15480D01*
X23210Y15380D01*
X23290Y15460D02*
X23350Y15580D01*
X23290Y15700D01*
X23410Y15640D01*
X23530Y15700D01*
X23470Y15580D01*
X23530Y15460D01*
X23410Y15520D01*
X23290Y15460D01*
X23920Y16600D02*
X24020Y16800D01*
X23920Y17000D01*
X24120Y16900D01*
X24320Y17000D01*
X24220Y16800D01*
X24320Y16600D01*
X24120Y16700D01*
X23920Y16600D01*
X24000Y16680D02*
X24060Y16800D01*
X24000Y16920D01*
X24120Y16860D01*
X24240Y16920D01*
X24180Y16800D01*
X24240Y16680D01*
X24120Y16740D01*
X24000Y16680D01*
X17670Y13670D02*
X17770Y13870D01*
X17670Y14070D01*
X17870Y13970D01*
X18070Y14070D01*
X17970Y13870D01*
X18070Y13670D01*
X17870Y13770D01*
X17670Y13670D01*
X17750Y13750D02*
X17810Y13870D01*
X17750Y13990D01*
X17870Y13930D01*
X17990Y13990D01*
X17930Y13870D01*
X17990Y13750D01*
X17870Y13810D01*
X17750Y13750D01*
X24060Y18170D02*
X24160Y18370D01*
X24060Y18570D01*
X24260Y18470D01*
X24460Y18570D01*
X24360Y18370D01*
X24460Y18170D01*
X24260Y18270D01*
X24060Y18170D01*
X24140Y18250D02*
X24200Y18370D01*
X24140Y18490D01*
X24260Y18430D01*
X24380Y18490D01*
X24320Y18370D01*
X24380Y18250D01*
X24260Y18310D01*
X24140Y18250D01*
X29900Y18440D02*
X30000Y18640D01*
X29900Y18840D01*
X30100Y18740D01*
X30300Y18840D01*
X30200Y18640D01*
X30300Y18440D01*
X30100Y18540D01*
X29900Y18440D01*
X29980Y18520D02*
X30040Y18640D01*
X29980Y18760D01*
X30100Y18700D01*
X30220Y18760D01*
X30160Y18640D01*
X30220Y18520D01*
X30100Y18580D01*
X29980Y18520D01*
X33920Y18860D02*
X34020Y19060D01*
X33920Y19260D01*
X34120Y19160D01*
X34320Y19260D01*
X34220Y19060D01*
X34320Y18860D01*
X34120Y18960D01*
X33920Y18860D01*
X34000Y18940D02*
X34060Y19060D01*
X34000Y19180D01*
X34120Y19120D01*
X34240Y19180D01*
X34180Y19060D01*
X34240Y18940D01*
X34120Y19000D01*
X34000Y18940D01*
X32100Y13340D02*
X32200Y13540D01*
X32100Y13740D01*
X32300Y13640D01*
X32500Y13740D01*
X32400Y13540D01*
X32500Y13340D01*
X32300Y13440D01*
X32100Y13340D01*
X32180Y13420D02*
X32240Y13540D01*
X32180Y13660D01*
X32300Y13600D01*
X32420Y13660D01*
X32360Y13540D01*
X32420Y13420D01*
X32300Y13480D01*
X32180Y13420D01*
X33740Y13210D02*
X33840Y13410D01*
X33740Y13610D01*
X33940Y13510D01*
X34140Y13610D01*
X34040Y13410D01*
X34140Y13210D01*
X33940Y13310D01*
X33740Y13210D01*
X33820Y13290D02*
X33880Y13410D01*
X33820Y13530D01*
X33940Y13470D01*
X34060Y13530D01*
X34000Y13410D01*
X34060Y13290D01*
X33940Y13350D01*
X33820Y13290D01*
X39510Y18820D02*
X39610Y19020D01*
X39510Y19220D01*
X39710Y19120D01*
X39910Y19220D01*
X39810Y19020D01*
X39910Y18820D01*
X39710Y18920D01*
X39510Y18820D01*
Y18330D02*
X39610Y18530D01*
X39510Y18730D01*
X39710Y18630D01*
X39910Y18730D01*
X39810Y18530D01*
X39910Y18330D01*
X39710Y18430D01*
X39510Y18330D01*
X38850Y20590D02*
X38950Y20790D01*
X38850Y20990D01*
X39050Y20890D01*
X39250Y20990D01*
X39150Y20790D01*
X39250Y20590D01*
X39050Y20690D01*
X38850Y20590D01*
X38930Y20670D02*
X38990Y20790D01*
X38930Y20910D01*
X39050Y20850D01*
X39170Y20910D01*
X39110Y20790D01*
X39170Y20670D01*
X39050Y20730D01*
X38930Y20670D01*
X38390Y21210D02*
X38490Y21410D01*
X38390Y21610D01*
X38590Y21510D01*
X38790Y21610D01*
X38690Y21410D01*
X38790Y21210D01*
X38590Y21310D01*
X38390Y21210D01*
X38470Y21290D02*
X38530Y21410D01*
X38470Y21530D01*
X38590Y21470D01*
X38710Y21530D01*
X38650Y21410D01*
X38710Y21290D01*
X38590Y21350D01*
X38470Y21290D01*
X37160Y21190D02*
X37260Y21390D01*
X37160Y21590D01*
X37360Y21490D01*
X37560Y21590D01*
X37460Y21390D01*
X37560Y21190D01*
X37360Y21290D01*
X37160Y21190D01*
X37240Y21270D02*
X37300Y21390D01*
X37240Y21510D01*
X37360Y21450D01*
X37480Y21510D01*
X37420Y21390D01*
X37480Y21270D01*
X37360Y21330D01*
X37240Y21270D01*
X36580Y20600D02*
X36680Y20800D01*
X36580Y21000D01*
X36780Y20900D01*
X36980Y21000D01*
X36880Y20800D01*
X36980Y20600D01*
X36780Y20700D01*
X36580Y20600D01*
X36660Y20680D02*
X36720Y20800D01*
X36660Y20920D01*
X36780Y20860D01*
X36900Y20920D01*
X36840Y20800D01*
X36900Y20680D01*
X36780Y20740D01*
X36660Y20680D01*
X36790Y17620D02*
X36890Y17820D01*
X36790Y18020D01*
X36990Y17920D01*
X37190Y18020D01*
X37090Y17820D01*
X37190Y17620D01*
X36990Y17720D01*
X36790Y17620D01*
X36870Y17700D02*
X36930Y17820D01*
X36870Y17940D01*
X36990Y17880D01*
X37110Y17940D01*
X37050Y17820D01*
X37110Y17700D01*
X36990Y17760D01*
X36870Y17700D01*
X38140Y17620D02*
X38240Y17820D01*
X38140Y18020D01*
X38340Y17920D01*
X38540Y18020D01*
X38440Y17820D01*
X38540Y17620D01*
X38340Y17720D01*
X38140Y17620D01*
X38220Y17700D02*
X38280Y17820D01*
X38220Y17940D01*
X38340Y17880D01*
X38460Y17940D01*
X38400Y17820D01*
X38460Y17700D01*
X38340Y17760D01*
X38220Y17700D01*
X43680Y27860D02*
X43780Y28060D01*
X43680Y28260D01*
X43880Y28160D01*
X44080Y28260D01*
X43980Y28060D01*
X44080Y27860D01*
X43880Y27960D01*
X43680Y27860D01*
X43760Y27940D02*
X43820Y28060D01*
X43760Y28180D01*
X43880Y28120D01*
X44000Y28180D01*
X43940Y28060D01*
X44000Y27940D01*
X43880Y28000D01*
X43760Y27940D01*
X44940Y29970D02*
X45040Y30170D01*
X44940Y30370D01*
X45140Y30270D01*
X45340Y30370D01*
X45240Y30170D01*
X45340Y29970D01*
X45140Y30070D01*
X44940Y29970D01*
X45020Y30050D02*
X45080Y30170D01*
X45020Y30290D01*
X45140Y30230D01*
X45260Y30290D01*
X45200Y30170D01*
X45260Y30050D01*
X45140Y30110D01*
X45020Y30050D01*
X39890Y30560D02*
X39990Y30760D01*
X39890Y30960D01*
X40090Y30860D01*
X40290Y30960D01*
X40190Y30760D01*
X40290Y30560D01*
X40090Y30660D01*
X39890Y30560D01*
X39970Y30640D02*
X40030Y30760D01*
X39970Y30880D01*
X40090Y30820D01*
X40210Y30880D01*
X40150Y30760D01*
X40210Y30640D01*
X40090Y30700D01*
X39970Y30640D01*
X39390Y27860D02*
X39490Y28060D01*
X39390Y28260D01*
X39590Y28160D01*
X39790Y28260D01*
X39690Y28060D01*
X39790Y27860D01*
X39590Y27960D01*
X39390Y27860D01*
X39470Y27940D02*
X39530Y28060D01*
X39470Y28180D01*
X39590Y28120D01*
X39710Y28180D01*
X39650Y28060D01*
X39710Y27940D01*
X39590Y28000D01*
X39470Y27940D01*
X44750Y30810D02*
X44850Y31010D01*
X44750Y31210D01*
X44950Y31110D01*
X45150Y31210D01*
X45050Y31010D01*
X45150Y30810D01*
X44950Y30910D01*
X44750Y30810D01*
X44830Y30890D02*
X44890Y31010D01*
X44830Y31130D01*
X44950Y31070D01*
X45070Y31130D01*
X45010Y31010D01*
X45070Y30890D01*
X44950Y30950D01*
X44830Y30890D01*
D121*
X46490Y31945D02*
G03*
X46490Y31945I-120J0D01*
G01*
Y28695D02*
G03*
X46490Y28695I-120J0D01*
G01*
Y25445D02*
G03*
X46490Y25445I-120J0D01*
G01*
Y22195D02*
G03*
X46490Y22195I-120J0D01*
G01*
Y18945D02*
G03*
X46490Y18945I-120J0D01*
G01*
Y15695D02*
G03*
X46490Y15695I-120J0D01*
G01*
D326*
X43400Y21380D02*
G03*
X43400Y21380I-200J0D01*
G01*
X44740D02*
G03*
X44740Y21380I-200J0D01*
G01*
Y26680D02*
G03*
X44740Y26680I-200J0D01*
G01*
X43400D02*
G03*
X43400Y26680I-200J0D01*
G01*
X41790Y11254D02*
G03*
X41790Y11254I-200J0D01*
G01*
X40450D02*
G03*
X40450Y11254I-200J0D01*
G01*
Y16554D02*
G03*
X40450Y16554I-200J0D01*
G01*
X41790D02*
G03*
X41790Y16554I-200J0D01*
G01*
X44690Y16550D02*
G03*
X44690Y16550I-200J0D01*
G01*
X43350D02*
G03*
X43350Y16550I-200J0D01*
G01*
Y11250D02*
G03*
X43350Y11250I-200J0D01*
G01*
X44690D02*
G03*
X44690Y11250I-200J0D01*
G01*
X46570Y31945D02*
G03*
X46570Y31945I-200J0D01*
G01*
Y28695D02*
G03*
X46570Y28695I-200J0D01*
G01*
Y25445D02*
G03*
X46570Y25445I-200J0D01*
G01*
Y22195D02*
G03*
X46570Y22195I-200J0D01*
G01*
Y18945D02*
G03*
X46570Y18945I-200J0D01*
G01*
Y15695D02*
G03*
X46570Y15695I-200J0D01*
G01*
M02*
