G04 Layer_Color=16711935*
%FSLAX24Y24*%
%MOIN*%
G70*
G01*
G75*
%ADD48C,0.0600*%
G04:AMPARAMS|DCode=213|XSize=56mil|YSize=56mil|CornerRadius=28mil|HoleSize=0mil|Usage=FLASHONLY|Rotation=90.000|XOffset=0mil|YOffset=0mil|HoleType=Round|Shape=RoundedRectangle|*
%AMROUNDEDRECTD213*
21,1,0.0560,0.0000,0,0,90.0*
21,1,0.0000,0.0560,0,0,90.0*
1,1,0.0560,0.0000,0.0000*
1,1,0.0560,0.0000,0.0000*
1,1,0.0560,0.0000,0.0000*
1,1,0.0560,0.0000,0.0000*
%
%ADD213ROUNDEDRECTD213*%
%ADD221C,0.0860*%
%ADD222O,0.0660X0.1260*%
%ADD223O,0.1360X0.1420*%
%ADD224R,0.0651X0.0651*%
%ADD225O,0.1084X0.0651*%
%ADD226C,0.0651*%
%ADD227O,0.1260X0.0660*%
%ADD228C,0.0660*%
%ADD229P,0.0736X8X22.5*%
%ADD230C,0.1365*%
%ADD231C,0.1060*%
%ADD232P,0.0823X8X292.5*%
G04:AMPARAMS|DCode=233|XSize=139mil|YSize=89mil|CornerRadius=0mil|HoleSize=0mil|Usage=FLASHONLY|Rotation=270.000|XOffset=0mil|YOffset=0mil|HoleType=Round|Shape=Octagon|*
%AMOCTAGOND233*
4,1,8,-0.0223,-0.0695,0.0223,-0.0695,0.0445,-0.0473,0.0445,0.0473,0.0223,0.0695,-0.0223,0.0695,-0.0445,0.0473,-0.0445,-0.0473,-0.0223,-0.0695,0.0*
%
%ADD233OCTAGOND233*%

%ADD234O,0.0885X0.1710*%
%ADD235R,0.0651X0.0651*%
%ADD236C,0.0180*%
%ADD237C,0.0080*%
%ADD238C,0.0420*%
%ADD239R,0.0704X0.0354*%
%ADD240R,0.0354X0.0704*%
G04:AMPARAMS|DCode=241|XSize=52mil|YSize=69mil|CornerRadius=14.5mil|HoleSize=0mil|Usage=FLASHONLY|Rotation=270.000|XOffset=0mil|YOffset=0mil|HoleType=Round|Shape=RoundedRectangle|*
%AMROUNDEDRECTD241*
21,1,0.0520,0.0400,0,0,270.0*
21,1,0.0230,0.0690,0,0,270.0*
1,1,0.0290,-0.0200,-0.0115*
1,1,0.0290,-0.0200,0.0115*
1,1,0.0290,0.0200,0.0115*
1,1,0.0290,0.0200,-0.0115*
%
%ADD241ROUNDEDRECTD241*%
G04:AMPARAMS|DCode=242|XSize=56mil|YSize=56mil|CornerRadius=28mil|HoleSize=0mil|Usage=FLASHONLY|Rotation=180.000|XOffset=0mil|YOffset=0mil|HoleType=Round|Shape=RoundedRectangle|*
%AMROUNDEDRECTD242*
21,1,0.0560,0.0000,0,0,180.0*
21,1,0.0000,0.0560,0,0,180.0*
1,1,0.0560,0.0000,0.0000*
1,1,0.0560,0.0000,0.0000*
1,1,0.0560,0.0000,0.0000*
1,1,0.0560,0.0000,0.0000*
%
%ADD242ROUNDEDRECTD242*%
G04:AMPARAMS|DCode=243|XSize=52mil|YSize=69mil|CornerRadius=14.5mil|HoleSize=0mil|Usage=FLASHONLY|Rotation=180.000|XOffset=0mil|YOffset=0mil|HoleType=Round|Shape=RoundedRectangle|*
%AMROUNDEDRECTD243*
21,1,0.0520,0.0400,0,0,180.0*
21,1,0.0230,0.0690,0,0,180.0*
1,1,0.0290,-0.0115,0.0200*
1,1,0.0290,0.0115,0.0200*
1,1,0.0290,0.0115,-0.0200*
1,1,0.0290,-0.0115,-0.0200*
%
%ADD243ROUNDEDRECTD243*%
D48*
X14458Y24697D02*
D03*
Y25689D02*
D03*
X13668D02*
D03*
Y24697D02*
D03*
D213*
X10740Y14000D02*
D03*
X32000Y22000D02*
D03*
X35000Y32000D02*
D03*
X17000Y13000D02*
D03*
X16000D02*
D03*
X15000D02*
D03*
X14000D02*
D03*
X20000D02*
D03*
X21000D02*
D03*
X22000D02*
D03*
X25000D02*
D03*
X26000D02*
D03*
X27000D02*
D03*
X28000D02*
D03*
X29000D02*
D03*
X30000D02*
D03*
X31000D02*
D03*
X32000D02*
D03*
D221*
X50207Y14055D02*
D03*
D222*
X14642Y11417D02*
D03*
X15642D02*
D03*
X16642D02*
D03*
X17642D02*
D03*
X14354Y33465D02*
D03*
X15354D02*
D03*
X16354D02*
D03*
X24622D02*
D03*
X23622D02*
D03*
X22622D02*
D03*
X18488D02*
D03*
X19488D02*
D03*
X20488D02*
D03*
X19760Y11417D02*
D03*
X20760D02*
D03*
X21760D02*
D03*
X22760D02*
D03*
X38059Y25630D02*
D03*
X37059D02*
D03*
X14354Y35827D02*
D03*
X15354D02*
D03*
X16354D02*
D03*
X20488D02*
D03*
X19488D02*
D03*
X18488D02*
D03*
X22622D02*
D03*
X23622D02*
D03*
X24622D02*
D03*
X24878Y11417D02*
D03*
X25878D02*
D03*
X26878D02*
D03*
X27878D02*
D03*
X24878Y14173D02*
D03*
X25878D02*
D03*
X26878D02*
D03*
X27878D02*
D03*
X30000Y11421D02*
D03*
X31000D02*
D03*
X32000D02*
D03*
X33000D02*
D03*
D223*
X46370Y15695D02*
D03*
Y18945D02*
D03*
Y22195D02*
D03*
Y25445D02*
D03*
Y28695D02*
D03*
Y31945D02*
D03*
D224*
X34397Y37057D02*
D03*
D225*
X35613D02*
D03*
Y36057D02*
D03*
Y35057D02*
D03*
Y34057D02*
D03*
Y33057D02*
D03*
D226*
X34397Y36057D02*
D03*
Y35057D02*
D03*
Y34057D02*
D03*
Y33057D02*
D03*
X31740Y36440D02*
D03*
Y35440D02*
D03*
X30740Y36440D02*
D03*
Y35440D02*
D03*
X29740Y36440D02*
D03*
Y35440D02*
D03*
X28740Y36440D02*
D03*
Y35440D02*
D03*
X27740Y36440D02*
D03*
X31740Y32690D02*
D03*
Y31690D02*
D03*
X30740Y32690D02*
D03*
Y31690D02*
D03*
X29740Y32690D02*
D03*
Y31690D02*
D03*
X28740Y32690D02*
D03*
Y31690D02*
D03*
X27740Y32690D02*
D03*
D227*
X33504Y21996D02*
D03*
Y20996D02*
D03*
X34990Y30370D02*
D03*
Y31370D02*
D03*
X33504Y25106D02*
D03*
Y24106D02*
D03*
Y28217D02*
D03*
Y27217D02*
D03*
D228*
X38008Y27913D02*
D03*
X37008D02*
D03*
D229*
X17695Y30676D02*
D03*
Y29676D02*
D03*
X16695Y30676D02*
D03*
Y29676D02*
D03*
X15695Y30676D02*
D03*
Y29676D02*
D03*
X23421Y30676D02*
D03*
Y29676D02*
D03*
X22421Y30676D02*
D03*
Y29676D02*
D03*
X21421Y30676D02*
D03*
Y29676D02*
D03*
D230*
X12598Y27559D02*
D03*
Y22827D02*
D03*
D231*
X11907Y30510D02*
D03*
Y33270D02*
D03*
D232*
X10927Y31000D02*
D03*
Y32780D02*
D03*
D233*
X44490Y11250D02*
D03*
X43150D02*
D03*
Y16550D02*
D03*
X44490D02*
D03*
X41590Y16554D02*
D03*
X40250D02*
D03*
Y11254D02*
D03*
X41590D02*
D03*
X43200Y26680D02*
D03*
X44540D02*
D03*
Y21380D02*
D03*
X43200D02*
D03*
D234*
X38057Y22717D02*
D03*
X36057D02*
D03*
D235*
X27740Y35440D02*
D03*
Y31690D02*
D03*
D236*
X36050Y16730D02*
D03*
X36060Y17700D02*
D03*
X39890Y32123D02*
D03*
X41826Y34996D02*
D03*
X41830Y36140D02*
D03*
X36020Y18200D02*
D03*
D237*
X41130Y32600D02*
D03*
D238*
X37126Y36998D02*
G03*
X37126Y36998I-200J0D01*
G01*
Y36009D02*
G03*
X37126Y36009I-200J0D01*
G01*
Y35020D02*
G03*
X37126Y35020I-200J0D01*
G01*
Y34031D02*
G03*
X37126Y34031I-200J0D01*
G01*
Y33041D02*
G03*
X37126Y33041I-200J0D01*
G01*
D239*
X18624Y28504D02*
D03*
D240*
X49920Y18948D02*
D03*
D241*
X18632Y28194D02*
D03*
Y28794D02*
D03*
D242*
X38410Y12640D02*
D03*
X45000Y14000D02*
D03*
X43000D02*
D03*
X41000D02*
D03*
X20000Y31000D02*
D03*
X25000Y37000D02*
D03*
X13000Y25000D02*
D03*
X14000Y24000D02*
D03*
X17000Y29000D02*
D03*
X14000Y30000D02*
D03*
X16000Y29000D02*
D03*
X17000Y28000D02*
D03*
X22000Y34000D02*
D03*
X21000Y35000D02*
D03*
X18000Y34000D02*
D03*
X17000D02*
D03*
X23000Y29000D02*
D03*
X27000Y30000D02*
D03*
X22000Y29000D02*
D03*
X21000D02*
D03*
X40000Y22000D02*
D03*
X32000Y27000D02*
D03*
Y24000D02*
D03*
X48000Y31000D02*
D03*
Y27000D02*
D03*
Y33000D02*
D03*
Y29000D02*
D03*
X38000Y27000D02*
D03*
X39000Y25000D02*
D03*
X18000Y23000D02*
D03*
Y25000D02*
D03*
Y26000D02*
D03*
X15000D02*
D03*
X14000Y27000D02*
D03*
X21000Y24000D02*
D03*
X22000Y23000D02*
D03*
X21000D02*
D03*
D243*
X49610Y18940D02*
D03*
X50210D02*
D03*
M02*
