%FSLAX24Y24*%
%MOIN*%
G70*
G01*
G75*
G04 Layer_Color=16711935*
G04:AMPARAMS|DCode=10|XSize=29.1mil|YSize=39.4mil|CornerRadius=5.8mil|HoleSize=0mil|Usage=FLASHONLY|Rotation=90.000|XOffset=0mil|YOffset=0mil|HoleType=Round|Shape=RoundedRectangle|*
%AMROUNDEDRECTD10*
21,1,0.0291,0.0277,0,0,90.0*
21,1,0.0175,0.0394,0,0,90.0*
1,1,0.0117,0.0139,0.0087*
1,1,0.0117,0.0139,-0.0087*
1,1,0.0117,-0.0139,-0.0087*
1,1,0.0117,-0.0139,0.0087*
%
%ADD10ROUNDEDRECTD10*%
%ADD11R,0.0120X0.0600*%
%ADD12R,0.0600X0.0120*%
%ADD13R,0.0681X0.0748*%
%ADD14R,0.0402X0.0118*%
%ADD15R,0.0480X0.0480*%
%ADD16R,0.0433X0.0669*%
G04:AMPARAMS|DCode=17|XSize=52mil|YSize=60mil|CornerRadius=13mil|HoleSize=0mil|Usage=FLASHONLY|Rotation=270.000|XOffset=0mil|YOffset=0mil|HoleType=Round|Shape=RoundedRectangle|*
%AMROUNDEDRECTD17*
21,1,0.0520,0.0340,0,0,270.0*
21,1,0.0260,0.0600,0,0,270.0*
1,1,0.0260,-0.0170,-0.0130*
1,1,0.0260,-0.0170,0.0130*
1,1,0.0260,0.0170,0.0130*
1,1,0.0260,0.0170,-0.0130*
%
%ADD17ROUNDEDRECTD17*%
G04:AMPARAMS|DCode=18|XSize=52mil|YSize=60mil|CornerRadius=13mil|HoleSize=0mil|Usage=FLASHONLY|Rotation=0.000|XOffset=0mil|YOffset=0mil|HoleType=Round|Shape=RoundedRectangle|*
%AMROUNDEDRECTD18*
21,1,0.0520,0.0340,0,0,0.0*
21,1,0.0260,0.0600,0,0,0.0*
1,1,0.0260,0.0130,-0.0170*
1,1,0.0260,-0.0130,-0.0170*
1,1,0.0260,-0.0130,0.0170*
1,1,0.0260,0.0130,0.0170*
%
%ADD18ROUNDEDRECTD18*%
%ADD19R,0.0790X0.0790*%
G04:AMPARAMS|DCode=20|XSize=22mil|YSize=24mil|CornerRadius=4.4mil|HoleSize=0mil|Usage=FLASHONLY|Rotation=0.000|XOffset=0mil|YOffset=0mil|HoleType=Round|Shape=RoundedRectangle|*
%AMROUNDEDRECTD20*
21,1,0.0220,0.0152,0,0,0.0*
21,1,0.0132,0.0240,0,0,0.0*
1,1,0.0088,0.0066,-0.0076*
1,1,0.0088,-0.0066,-0.0076*
1,1,0.0088,-0.0066,0.0076*
1,1,0.0088,0.0066,0.0076*
%
%ADD20ROUNDEDRECTD20*%
%ADD21R,0.1654X0.0807*%
G04:AMPARAMS|DCode=22|XSize=22mil|YSize=24mil|CornerRadius=4.4mil|HoleSize=0mil|Usage=FLASHONLY|Rotation=90.000|XOffset=0mil|YOffset=0mil|HoleType=Round|Shape=RoundedRectangle|*
%AMROUNDEDRECTD22*
21,1,0.0220,0.0152,0,0,90.0*
21,1,0.0132,0.0240,0,0,90.0*
1,1,0.0088,0.0076,0.0066*
1,1,0.0088,0.0076,-0.0066*
1,1,0.0088,-0.0076,-0.0066*
1,1,0.0088,-0.0076,0.0066*
%
%ADD22ROUNDEDRECTD22*%
G04:AMPARAMS|DCode=23|XSize=29.1mil|YSize=39.4mil|CornerRadius=5.8mil|HoleSize=0mil|Usage=FLASHONLY|Rotation=0.000|XOffset=0mil|YOffset=0mil|HoleType=Round|Shape=RoundedRectangle|*
%AMROUNDEDRECTD23*
21,1,0.0291,0.0277,0,0,0.0*
21,1,0.0175,0.0394,0,0,0.0*
1,1,0.0117,0.0087,-0.0139*
1,1,0.0117,-0.0087,-0.0139*
1,1,0.0117,-0.0087,0.0139*
1,1,0.0117,0.0087,0.0139*
%
%ADD23ROUNDEDRECTD23*%
%ADD24R,0.0200X0.0260*%
%ADD25R,0.0543X0.0709*%
G04:AMPARAMS|DCode=26|XSize=63mil|YSize=71mil|CornerRadius=15.8mil|HoleSize=0mil|Usage=FLASHONLY|Rotation=270.000|XOffset=0mil|YOffset=0mil|HoleType=Round|Shape=RoundedRectangle|*
%AMROUNDEDRECTD26*
21,1,0.0630,0.0395,0,0,270.0*
21,1,0.0315,0.0710,0,0,270.0*
1,1,0.0315,-0.0198,-0.0158*
1,1,0.0315,-0.0198,0.0158*
1,1,0.0315,0.0198,0.0158*
1,1,0.0315,0.0198,-0.0158*
%
%ADD26ROUNDEDRECTD26*%
%ADD27R,0.0500X0.0150*%
%ADD28R,0.0790X0.0790*%
%ADD29R,0.0280X0.0200*%
%ADD30R,0.0200X0.0280*%
%ADD31R,0.0360X0.0320*%
%ADD32R,0.1260X0.0630*%
%ADD33R,0.0240X0.0240*%
%ADD34R,0.0480X0.0480*%
G04:AMPARAMS|DCode=35|XSize=40mil|YSize=40mil|CornerRadius=20mil|HoleSize=0mil|Usage=FLASHONLY|Rotation=0.000|XOffset=0mil|YOffset=0mil|HoleType=Round|Shape=RoundedRectangle|*
%AMROUNDEDRECTD35*
21,1,0.0400,0.0000,0,0,0.0*
21,1,0.0000,0.0400,0,0,0.0*
1,1,0.0400,0.0000,0.0000*
1,1,0.0400,0.0000,0.0000*
1,1,0.0400,0.0000,0.0000*
1,1,0.0400,0.0000,0.0000*
%
%ADD35ROUNDEDRECTD35*%
%ADD36R,0.0420X0.0520*%
%ADD37R,0.1970X0.1700*%
%ADD38R,0.0280X0.0560*%
%ADD39R,0.0236X0.1319*%
%ADD40R,0.0354X0.1299*%
%ADD41R,0.1370X0.1370*%
G04:AMPARAMS|DCode=42|XSize=12mil|YSize=32mil|CornerRadius=4.8mil|HoleSize=0mil|Usage=FLASHONLY|Rotation=270.000|XOffset=0mil|YOffset=0mil|HoleType=Round|Shape=RoundedRectangle|*
%AMROUNDEDRECTD42*
21,1,0.0120,0.0224,0,0,270.0*
21,1,0.0024,0.0320,0,0,270.0*
1,1,0.0096,-0.0112,-0.0012*
1,1,0.0096,-0.0112,0.0012*
1,1,0.0096,0.0112,0.0012*
1,1,0.0096,0.0112,-0.0012*
%
%ADD42ROUNDEDRECTD42*%
G04:AMPARAMS|DCode=43|XSize=12mil|YSize=32mil|CornerRadius=4.8mil|HoleSize=0mil|Usage=FLASHONLY|Rotation=180.000|XOffset=0mil|YOffset=0mil|HoleType=Round|Shape=RoundedRectangle|*
%AMROUNDEDRECTD43*
21,1,0.0120,0.0224,0,0,180.0*
21,1,0.0024,0.0320,0,0,180.0*
1,1,0.0096,-0.0012,0.0112*
1,1,0.0096,0.0012,0.0112*
1,1,0.0096,0.0012,-0.0112*
1,1,0.0096,-0.0012,-0.0112*
%
%ADD43ROUNDEDRECTD43*%
%ADD44R,0.1370X0.1370*%
%ADD45C,0.0240*%
%ADD46C,0.0080*%
%ADD47C,0.0200*%
%ADD48C,0.0100*%
%ADD49C,0.0070*%
%ADD50C,0.0320*%
%ADD51C,0.0120*%
%ADD52C,0.0500*%
%ADD53C,0.0600*%
%ADD54C,0.0400*%
%ADD55C,0.0250*%
%ADD56C,0.0160*%
%ADD57R,0.1299X0.1063*%
%ADD58R,0.1575X0.0984*%
%ADD59R,0.1929X0.1457*%
%ADD60R,0.0551X0.0472*%
%ADD61O,0.0540X0.0360*%
%ADD62C,0.0360*%
%ADD63O,0.1024X0.0591*%
%ADD64C,0.0591*%
%ADD65R,0.0591X0.0591*%
%ADD66C,0.1000*%
%ADD67P,0.0758X8X292.5*%
%ADD68O,0.0825X0.1650*%
%ADD69C,0.2756*%
%ADD70C,0.0840*%
%ADD71P,0.0909X8X22.5*%
%ADD72O,0.1650X0.0825*%
%ADD73O,0.0600X0.1200*%
%ADD74O,0.1200X0.0600*%
%ADD75C,0.0600*%
%ADD76P,0.0671X8X22.5*%
%ADD77C,0.0800*%
%ADD78P,0.0909X8X112.5*%
G04:AMPARAMS|DCode=79|XSize=140mil|YSize=200mil|CornerRadius=0mil|HoleSize=0mil|Usage=FLASHONLY|Rotation=270.000|XOffset=0mil|YOffset=0mil|HoleType=Round|Shape=Octagon|*
%AMOCTAGOND79*
4,1,8,0.1000,0.0350,0.1000,-0.0350,0.0650,-0.0700,-0.0650,-0.0700,-0.1000,-0.0350,-0.1000,0.0350,-0.0650,0.0700,0.0650,0.0700,0.1000,0.0350,0.0*
%
%ADD79OCTAGOND79*%

%ADD80C,0.1305*%
%ADD81C,0.0540*%
%ADD82C,0.0300*%
%ADD83C,0.0500*%
%ADD84C,0.0400*%
%ADD85C,0.0320*%
%ADD86C,0.0460*%
G04:AMPARAMS|DCode=87|XSize=82mil|YSize=82mil|CornerRadius=0mil|HoleSize=0mil|Usage=FLASHONLY|Rotation=0.000|XOffset=0mil|YOffset=0mil|HoleType=Round|Shape=Relief|Width=10mil|Gap=10mil|Entries=4|*
%AMTHD87*
7,0,0,0.0820,0.0620,0.0100,45*
%
%ADD87THD87*%
%ADD88C,0.0594*%
G04:AMPARAMS|DCode=89|XSize=95.433mil|YSize=95.433mil|CornerRadius=0mil|HoleSize=0mil|Usage=FLASHONLY|Rotation=0.000|XOffset=0mil|YOffset=0mil|HoleType=Round|Shape=Relief|Width=10mil|Gap=10mil|Entries=4|*
%AMTHD89*
7,0,0,0.0954,0.0754,0.0100,45*
%
%ADD89THD89*%
%ADD90C,0.0830*%
G04:AMPARAMS|DCode=91|XSize=100mil|YSize=100mil|CornerRadius=0mil|HoleSize=0mil|Usage=FLASHONLY|Rotation=0.000|XOffset=0mil|YOffset=0mil|HoleType=Round|Shape=Relief|Width=10mil|Gap=10mil|Entries=4|*
%AMTHD91*
7,0,0,0.1000,0.0800,0.0100,45*
%
%ADD91THD91*%
%ADD92C,0.0640*%
G04:AMPARAMS|DCode=93|XSize=115mil|YSize=115mil|CornerRadius=0mil|HoleSize=0mil|Usage=FLASHONLY|Rotation=0.000|XOffset=0mil|YOffset=0mil|HoleType=Round|Shape=Relief|Width=10mil|Gap=10mil|Entries=4|*
%AMTHD93*
7,0,0,0.1150,0.0950,0.0100,45*
%
%ADD93THD93*%
%ADD94C,0.0790*%
%ADD95C,0.1421*%
%ADD96C,0.0620*%
G04:AMPARAMS|DCode=97|XSize=98mil|YSize=98mil|CornerRadius=0mil|HoleSize=0mil|Usage=FLASHONLY|Rotation=0.000|XOffset=0mil|YOffset=0mil|HoleType=Round|Shape=Relief|Width=10mil|Gap=10mil|Entries=4|*
%AMTHD97*
7,0,0,0.0980,0.0780,0.0100,45*
%
%ADD97THD97*%
%ADD98C,0.1240*%
%ADD99C,0.1110*%
%ADD100C,0.0390*%
%ADD101C,0.0520*%
%ADD102C,0.0800*%
%ADD103C,0.1400*%
%ADD104C,0.1040*%
%ADD105R,0.4094X0.4331*%
%ADD106R,0.3425X0.4331*%
%ADD107R,0.3583X0.4331*%
%ADD108R,0.3622X0.4331*%
G04:AMPARAMS|DCode=109|XSize=46mil|YSize=63mil|CornerRadius=11.5mil|HoleSize=0mil|Usage=FLASHONLY|Rotation=90.000|XOffset=0mil|YOffset=0mil|HoleType=Round|Shape=RoundedRectangle|*
%AMROUNDEDRECTD109*
21,1,0.0460,0.0400,0,0,90.0*
21,1,0.0230,0.0630,0,0,90.0*
1,1,0.0230,0.0200,0.0115*
1,1,0.0230,0.0200,-0.0115*
1,1,0.0230,-0.0200,-0.0115*
1,1,0.0230,-0.0200,0.0115*
%
%ADD109ROUNDEDRECTD109*%
G04:AMPARAMS|DCode=110|XSize=50mil|YSize=50mil|CornerRadius=25mil|HoleSize=0mil|Usage=FLASHONLY|Rotation=180.000|XOffset=0mil|YOffset=0mil|HoleType=Round|Shape=RoundedRectangle|*
%AMROUNDEDRECTD110*
21,1,0.0500,0.0000,0,0,180.0*
21,1,0.0000,0.0500,0,0,180.0*
1,1,0.0500,0.0000,0.0000*
1,1,0.0500,0.0000,0.0000*
1,1,0.0500,0.0000,0.0000*
1,1,0.0500,0.0000,0.0000*
%
%ADD110ROUNDEDRECTD110*%
G04:AMPARAMS|DCode=111|XSize=50mil|YSize=50mil|CornerRadius=25mil|HoleSize=0mil|Usage=FLASHONLY|Rotation=90.000|XOffset=0mil|YOffset=0mil|HoleType=Round|Shape=RoundedRectangle|*
%AMROUNDEDRECTD111*
21,1,0.0500,0.0000,0,0,90.0*
21,1,0.0000,0.0500,0,0,90.0*
1,1,0.0500,0.0000,0.0000*
1,1,0.0500,0.0000,0.0000*
1,1,0.0500,0.0000,0.0000*
1,1,0.0500,0.0000,0.0000*
%
%ADD111ROUNDEDRECTD111*%
%ADD112C,0.0098*%
%ADD113C,0.0060*%
%ADD114C,0.0050*%
%ADD115C,0.0000*%
%ADD116C,0.0079*%
%ADD117C,0.0040*%
%ADD118R,0.0059X0.0120*%
%ADD119R,0.0060X0.0120*%
%ADD120R,0.0119X0.0120*%
%ADD121R,0.0295X0.0879*%
%ADD122R,0.0879X0.0295*%
%ADD123R,0.2450X0.0492*%
%ADD124R,0.0120X0.0059*%
%ADD125R,0.0120X0.0060*%
%ADD126R,0.0120X0.0119*%
G04:AMPARAMS|DCode=127|XSize=31.1mil|YSize=41.4mil|CornerRadius=6.8mil|HoleSize=0mil|Usage=FLASHONLY|Rotation=90.000|XOffset=0mil|YOffset=0mil|HoleType=Round|Shape=RoundedRectangle|*
%AMROUNDEDRECTD127*
21,1,0.0311,0.0277,0,0,90.0*
21,1,0.0175,0.0414,0,0,90.0*
1,1,0.0137,0.0139,0.0087*
1,1,0.0137,0.0139,-0.0087*
1,1,0.0137,-0.0139,-0.0087*
1,1,0.0137,-0.0139,0.0087*
%
%ADD127ROUNDEDRECTD127*%
%ADD128R,0.0140X0.0620*%
%ADD129R,0.0620X0.0140*%
%ADD130R,0.0701X0.0768*%
%ADD131R,0.0422X0.0138*%
%ADD132R,0.0500X0.0500*%
%ADD133R,0.0453X0.0689*%
G04:AMPARAMS|DCode=134|XSize=54mil|YSize=62mil|CornerRadius=14mil|HoleSize=0mil|Usage=FLASHONLY|Rotation=270.000|XOffset=0mil|YOffset=0mil|HoleType=Round|Shape=RoundedRectangle|*
%AMROUNDEDRECTD134*
21,1,0.0540,0.0340,0,0,270.0*
21,1,0.0260,0.0620,0,0,270.0*
1,1,0.0280,-0.0170,-0.0130*
1,1,0.0280,-0.0170,0.0130*
1,1,0.0280,0.0170,0.0130*
1,1,0.0280,0.0170,-0.0130*
%
%ADD134ROUNDEDRECTD134*%
G04:AMPARAMS|DCode=135|XSize=54mil|YSize=62mil|CornerRadius=14mil|HoleSize=0mil|Usage=FLASHONLY|Rotation=0.000|XOffset=0mil|YOffset=0mil|HoleType=Round|Shape=RoundedRectangle|*
%AMROUNDEDRECTD135*
21,1,0.0540,0.0340,0,0,0.0*
21,1,0.0260,0.0620,0,0,0.0*
1,1,0.0280,0.0130,-0.0170*
1,1,0.0280,-0.0130,-0.0170*
1,1,0.0280,-0.0130,0.0170*
1,1,0.0280,0.0130,0.0170*
%
%ADD135ROUNDEDRECTD135*%
%ADD136R,0.0810X0.0810*%
G04:AMPARAMS|DCode=137|XSize=24mil|YSize=26mil|CornerRadius=5.4mil|HoleSize=0mil|Usage=FLASHONLY|Rotation=0.000|XOffset=0mil|YOffset=0mil|HoleType=Round|Shape=RoundedRectangle|*
%AMROUNDEDRECTD137*
21,1,0.0240,0.0152,0,0,0.0*
21,1,0.0132,0.0260,0,0,0.0*
1,1,0.0108,0.0066,-0.0076*
1,1,0.0108,-0.0066,-0.0076*
1,1,0.0108,-0.0066,0.0076*
1,1,0.0108,0.0066,0.0076*
%
%ADD137ROUNDEDRECTD137*%
%ADD138R,0.1674X0.0827*%
G04:AMPARAMS|DCode=139|XSize=24mil|YSize=26mil|CornerRadius=5.4mil|HoleSize=0mil|Usage=FLASHONLY|Rotation=90.000|XOffset=0mil|YOffset=0mil|HoleType=Round|Shape=RoundedRectangle|*
%AMROUNDEDRECTD139*
21,1,0.0240,0.0152,0,0,90.0*
21,1,0.0132,0.0260,0,0,90.0*
1,1,0.0108,0.0076,0.0066*
1,1,0.0108,0.0076,-0.0066*
1,1,0.0108,-0.0076,-0.0066*
1,1,0.0108,-0.0076,0.0066*
%
%ADD139ROUNDEDRECTD139*%
G04:AMPARAMS|DCode=140|XSize=31.1mil|YSize=41.4mil|CornerRadius=6.8mil|HoleSize=0mil|Usage=FLASHONLY|Rotation=0.000|XOffset=0mil|YOffset=0mil|HoleType=Round|Shape=RoundedRectangle|*
%AMROUNDEDRECTD140*
21,1,0.0311,0.0277,0,0,0.0*
21,1,0.0175,0.0414,0,0,0.0*
1,1,0.0137,0.0087,-0.0139*
1,1,0.0137,-0.0087,-0.0139*
1,1,0.0137,-0.0087,0.0139*
1,1,0.0137,0.0087,0.0139*
%
%ADD140ROUNDEDRECTD140*%
%ADD141R,0.0220X0.0280*%
%ADD142R,0.0563X0.0729*%
G04:AMPARAMS|DCode=143|XSize=65mil|YSize=73mil|CornerRadius=16.8mil|HoleSize=0mil|Usage=FLASHONLY|Rotation=270.000|XOffset=0mil|YOffset=0mil|HoleType=Round|Shape=RoundedRectangle|*
%AMROUNDEDRECTD143*
21,1,0.0650,0.0395,0,0,270.0*
21,1,0.0315,0.0730,0,0,270.0*
1,1,0.0335,-0.0198,-0.0158*
1,1,0.0335,-0.0198,0.0158*
1,1,0.0335,0.0198,0.0158*
1,1,0.0335,0.0198,-0.0158*
%
%ADD143ROUNDEDRECTD143*%
%ADD144R,0.0520X0.0170*%
%ADD145R,0.0810X0.0810*%
%ADD146R,0.0300X0.0220*%
%ADD147R,0.0220X0.0300*%
%ADD148R,0.0380X0.0340*%
%ADD149R,0.1280X0.0650*%
%ADD150R,0.0260X0.0260*%
%ADD151R,0.0500X0.0500*%
%ADD152R,0.0440X0.0540*%
%ADD153R,0.1990X0.1720*%
%ADD154R,0.0300X0.0580*%
%ADD155R,0.0256X0.1339*%
%ADD156R,0.0374X0.1319*%
G04:AMPARAMS|DCode=157|XSize=14mil|YSize=34mil|CornerRadius=5.8mil|HoleSize=0mil|Usage=FLASHONLY|Rotation=270.000|XOffset=0mil|YOffset=0mil|HoleType=Round|Shape=RoundedRectangle|*
%AMROUNDEDRECTD157*
21,1,0.0140,0.0224,0,0,270.0*
21,1,0.0024,0.0340,0,0,270.0*
1,1,0.0116,-0.0112,-0.0012*
1,1,0.0116,-0.0112,0.0012*
1,1,0.0116,0.0112,0.0012*
1,1,0.0116,0.0112,-0.0012*
%
%ADD157ROUNDEDRECTD157*%
G04:AMPARAMS|DCode=158|XSize=14mil|YSize=34mil|CornerRadius=5.8mil|HoleSize=0mil|Usage=FLASHONLY|Rotation=180.000|XOffset=0mil|YOffset=0mil|HoleType=Round|Shape=RoundedRectangle|*
%AMROUNDEDRECTD158*
21,1,0.0140,0.0224,0,0,180.0*
21,1,0.0024,0.0340,0,0,180.0*
1,1,0.0116,-0.0012,0.0112*
1,1,0.0116,0.0012,0.0112*
1,1,0.0116,0.0012,-0.0112*
1,1,0.0116,-0.0012,-0.0112*
%
%ADD158ROUNDEDRECTD158*%
%ADD159C,0.0394*%
%ADD160C,0.0150*%
%ADD161R,0.0460X0.0130*%
%ADD162R,0.0530X0.0170*%
%ADD163R,0.1585X0.2303*%
%ADD164R,0.2303X0.1594*%
%ADD165R,0.1594X0.2303*%
%ADD166R,0.2303X0.1585*%
G04:AMPARAMS|DCode=167|XSize=35.1mil|YSize=45.4mil|CornerRadius=8.8mil|HoleSize=0mil|Usage=FLASHONLY|Rotation=90.000|XOffset=0mil|YOffset=0mil|HoleType=Round|Shape=RoundedRectangle|*
%AMROUNDEDRECTD167*
21,1,0.0351,0.0277,0,0,90.0*
21,1,0.0175,0.0454,0,0,90.0*
1,1,0.0177,0.0139,0.0087*
1,1,0.0177,0.0139,-0.0087*
1,1,0.0177,-0.0139,-0.0087*
1,1,0.0177,-0.0139,0.0087*
%
%ADD167ROUNDEDRECTD167*%
%ADD168R,0.0200X0.0680*%
%ADD169R,0.0680X0.0200*%
%ADD170R,0.0741X0.0808*%
%ADD171R,0.0482X0.0198*%
%ADD172R,0.0540X0.0540*%
%ADD173R,0.0493X0.0729*%
G04:AMPARAMS|DCode=174|XSize=58mil|YSize=66mil|CornerRadius=16mil|HoleSize=0mil|Usage=FLASHONLY|Rotation=270.000|XOffset=0mil|YOffset=0mil|HoleType=Round|Shape=RoundedRectangle|*
%AMROUNDEDRECTD174*
21,1,0.0580,0.0340,0,0,270.0*
21,1,0.0260,0.0660,0,0,270.0*
1,1,0.0320,-0.0170,-0.0130*
1,1,0.0320,-0.0170,0.0130*
1,1,0.0320,0.0170,0.0130*
1,1,0.0320,0.0170,-0.0130*
%
%ADD174ROUNDEDRECTD174*%
G04:AMPARAMS|DCode=175|XSize=58mil|YSize=66mil|CornerRadius=16mil|HoleSize=0mil|Usage=FLASHONLY|Rotation=0.000|XOffset=0mil|YOffset=0mil|HoleType=Round|Shape=RoundedRectangle|*
%AMROUNDEDRECTD175*
21,1,0.0580,0.0340,0,0,0.0*
21,1,0.0260,0.0660,0,0,0.0*
1,1,0.0320,0.0130,-0.0170*
1,1,0.0320,-0.0130,-0.0170*
1,1,0.0320,-0.0130,0.0170*
1,1,0.0320,0.0130,0.0170*
%
%ADD175ROUNDEDRECTD175*%
%ADD176R,0.0850X0.0850*%
G04:AMPARAMS|DCode=177|XSize=28mil|YSize=30mil|CornerRadius=7.4mil|HoleSize=0mil|Usage=FLASHONLY|Rotation=0.000|XOffset=0mil|YOffset=0mil|HoleType=Round|Shape=RoundedRectangle|*
%AMROUNDEDRECTD177*
21,1,0.0280,0.0152,0,0,0.0*
21,1,0.0132,0.0300,0,0,0.0*
1,1,0.0148,0.0066,-0.0076*
1,1,0.0148,-0.0066,-0.0076*
1,1,0.0148,-0.0066,0.0076*
1,1,0.0148,0.0066,0.0076*
%
%ADD177ROUNDEDRECTD177*%
%ADD178R,0.1714X0.0867*%
G04:AMPARAMS|DCode=179|XSize=28mil|YSize=30mil|CornerRadius=7.4mil|HoleSize=0mil|Usage=FLASHONLY|Rotation=90.000|XOffset=0mil|YOffset=0mil|HoleType=Round|Shape=RoundedRectangle|*
%AMROUNDEDRECTD179*
21,1,0.0280,0.0152,0,0,90.0*
21,1,0.0132,0.0300,0,0,90.0*
1,1,0.0148,0.0076,0.0066*
1,1,0.0148,0.0076,-0.0066*
1,1,0.0148,-0.0076,-0.0066*
1,1,0.0148,-0.0076,0.0066*
%
%ADD179ROUNDEDRECTD179*%
G04:AMPARAMS|DCode=180|XSize=35.1mil|YSize=45.4mil|CornerRadius=8.8mil|HoleSize=0mil|Usage=FLASHONLY|Rotation=0.000|XOffset=0mil|YOffset=0mil|HoleType=Round|Shape=RoundedRectangle|*
%AMROUNDEDRECTD180*
21,1,0.0351,0.0277,0,0,0.0*
21,1,0.0175,0.0454,0,0,0.0*
1,1,0.0177,0.0087,-0.0139*
1,1,0.0177,-0.0087,-0.0139*
1,1,0.0177,-0.0087,0.0139*
1,1,0.0177,0.0087,0.0139*
%
%ADD180ROUNDEDRECTD180*%
%ADD181R,0.0260X0.0320*%
%ADD182R,0.0603X0.0769*%
G04:AMPARAMS|DCode=183|XSize=69mil|YSize=77mil|CornerRadius=18.8mil|HoleSize=0mil|Usage=FLASHONLY|Rotation=270.000|XOffset=0mil|YOffset=0mil|HoleType=Round|Shape=RoundedRectangle|*
%AMROUNDEDRECTD183*
21,1,0.0690,0.0395,0,0,270.0*
21,1,0.0315,0.0770,0,0,270.0*
1,1,0.0375,-0.0198,-0.0158*
1,1,0.0375,-0.0198,0.0158*
1,1,0.0375,0.0198,0.0158*
1,1,0.0375,0.0198,-0.0158*
%
%ADD183ROUNDEDRECTD183*%
%ADD184R,0.0560X0.0210*%
%ADD185R,0.0850X0.0850*%
%ADD186R,0.0340X0.0260*%
%ADD187R,0.0260X0.0340*%
%ADD188R,0.0420X0.0380*%
%ADD189R,0.1320X0.0690*%
%ADD190R,0.0300X0.0300*%
%ADD191R,0.0540X0.0540*%
G04:AMPARAMS|DCode=192|XSize=80mil|YSize=80mil|CornerRadius=40mil|HoleSize=0mil|Usage=FLASHONLY|Rotation=0.000|XOffset=0mil|YOffset=0mil|HoleType=Round|Shape=RoundedRectangle|*
%AMROUNDEDRECTD192*
21,1,0.0800,0.0000,0,0,0.0*
21,1,0.0000,0.0800,0,0,0.0*
1,1,0.0800,0.0000,0.0000*
1,1,0.0800,0.0000,0.0000*
1,1,0.0800,0.0000,0.0000*
1,1,0.0800,0.0000,0.0000*
%
%ADD192ROUNDEDRECTD192*%
%ADD193R,0.0480X0.0580*%
%ADD194R,0.2030X0.1760*%
%ADD195R,0.0340X0.0620*%
%ADD196R,0.0296X0.1379*%
%ADD197R,0.0414X0.1359*%
%ADD198R,0.1430X0.1430*%
G04:AMPARAMS|DCode=199|XSize=18mil|YSize=38mil|CornerRadius=7.8mil|HoleSize=0mil|Usage=FLASHONLY|Rotation=270.000|XOffset=0mil|YOffset=0mil|HoleType=Round|Shape=RoundedRectangle|*
%AMROUNDEDRECTD199*
21,1,0.0180,0.0224,0,0,270.0*
21,1,0.0024,0.0380,0,0,270.0*
1,1,0.0156,-0.0112,-0.0012*
1,1,0.0156,-0.0112,0.0012*
1,1,0.0156,0.0112,0.0012*
1,1,0.0156,0.0112,-0.0012*
%
%ADD199ROUNDEDRECTD199*%
G04:AMPARAMS|DCode=200|XSize=18mil|YSize=38mil|CornerRadius=7.8mil|HoleSize=0mil|Usage=FLASHONLY|Rotation=180.000|XOffset=0mil|YOffset=0mil|HoleType=Round|Shape=RoundedRectangle|*
%AMROUNDEDRECTD200*
21,1,0.0180,0.0224,0,0,180.0*
21,1,0.0024,0.0380,0,0,180.0*
1,1,0.0156,-0.0012,0.0112*
1,1,0.0156,0.0012,0.0112*
1,1,0.0156,0.0012,-0.0112*
1,1,0.0156,-0.0012,-0.0112*
%
%ADD200ROUNDEDRECTD200*%
%ADD201R,0.1430X0.1430*%
%ADD202O,0.0600X0.0420*%
%ADD203C,0.0420*%
%ADD204O,0.1084X0.0651*%
%ADD205C,0.0651*%
%ADD206R,0.0651X0.0651*%
%ADD207C,0.1060*%
%ADD208P,0.0823X8X292.5*%
%ADD209O,0.0885X0.1710*%
%ADD210C,0.2816*%
%ADD211C,0.0900*%
%ADD212P,0.0974X8X22.5*%
%ADD213O,0.1710X0.0885*%
%ADD214O,0.0660X0.1260*%
%ADD215O,0.1260X0.0660*%
%ADD216C,0.0660*%
%ADD217P,0.0736X8X22.5*%
%ADD218C,0.0860*%
%ADD219P,0.0974X8X112.5*%
G04:AMPARAMS|DCode=220|XSize=146mil|YSize=206mil|CornerRadius=0mil|HoleSize=0mil|Usage=FLASHONLY|Rotation=270.000|XOffset=0mil|YOffset=0mil|HoleType=Round|Shape=Octagon|*
%AMOCTAGOND220*
4,1,8,0.1030,0.0365,0.1030,-0.0365,0.0665,-0.0730,-0.0665,-0.0730,-0.1030,-0.0365,-0.1030,0.0365,-0.0665,0.0730,0.0665,0.0730,0.1030,0.0365,0.0*
%
%ADD220OCTAGOND220*%

%ADD221C,0.1365*%
%ADD222C,0.0180*%
%ADD223C,0.0080*%
%ADD224R,0.0704X0.0354*%
G04:AMPARAMS|DCode=225|XSize=52mil|YSize=69mil|CornerRadius=14.5mil|HoleSize=0mil|Usage=FLASHONLY|Rotation=90.000|XOffset=0mil|YOffset=0mil|HoleType=Round|Shape=RoundedRectangle|*
%AMROUNDEDRECTD225*
21,1,0.0520,0.0400,0,0,90.0*
21,1,0.0230,0.0690,0,0,90.0*
1,1,0.0290,0.0200,0.0115*
1,1,0.0290,0.0200,-0.0115*
1,1,0.0290,-0.0200,-0.0115*
1,1,0.0290,-0.0200,0.0115*
%
%ADD225ROUNDEDRECTD225*%
G04:AMPARAMS|DCode=226|XSize=56mil|YSize=56mil|CornerRadius=28mil|HoleSize=0mil|Usage=FLASHONLY|Rotation=180.000|XOffset=0mil|YOffset=0mil|HoleType=Round|Shape=RoundedRectangle|*
%AMROUNDEDRECTD226*
21,1,0.0560,0.0000,0,0,180.0*
21,1,0.0000,0.0560,0,0,180.0*
1,1,0.0560,0.0000,0.0000*
1,1,0.0560,0.0000,0.0000*
1,1,0.0560,0.0000,0.0000*
1,1,0.0560,0.0000,0.0000*
%
%ADD226ROUNDEDRECTD226*%
G04:AMPARAMS|DCode=227|XSize=56mil|YSize=56mil|CornerRadius=28mil|HoleSize=0mil|Usage=FLASHONLY|Rotation=90.000|XOffset=0mil|YOffset=0mil|HoleType=Round|Shape=RoundedRectangle|*
%AMROUNDEDRECTD227*
21,1,0.0560,0.0000,0,0,90.0*
21,1,0.0000,0.0560,0,0,90.0*
1,1,0.0560,0.0000,0.0000*
1,1,0.0560,0.0000,0.0000*
1,1,0.0560,0.0000,0.0000*
1,1,0.0560,0.0000,0.0000*
%
%ADD227ROUNDEDRECTD227*%
D75*
X13668Y24697D02*
D03*
Y25689D02*
D03*
X14458D02*
D03*
Y24697D02*
D03*
D202*
X31828Y36445D02*
D03*
Y35445D02*
D03*
Y32783D02*
D03*
Y31783D02*
D03*
D203*
X31238Y36445D02*
D03*
Y35445D02*
D03*
X30738Y36445D02*
D03*
Y35445D02*
D03*
X30238Y36445D02*
D03*
Y35445D02*
D03*
X29738Y36445D02*
D03*
Y35445D02*
D03*
X29238Y36445D02*
D03*
Y35445D02*
D03*
X28738Y36445D02*
D03*
Y35445D02*
D03*
X28238Y36445D02*
D03*
Y35445D02*
D03*
X27738Y36445D02*
D03*
Y35445D02*
D03*
X27238Y36445D02*
D03*
Y35445D02*
D03*
X31238Y32783D02*
D03*
Y31783D02*
D03*
X30738Y32783D02*
D03*
Y31783D02*
D03*
X30238Y32783D02*
D03*
Y31783D02*
D03*
X29738Y32783D02*
D03*
Y31783D02*
D03*
X29238Y32783D02*
D03*
Y31783D02*
D03*
X28738Y32783D02*
D03*
Y31783D02*
D03*
X28238Y32783D02*
D03*
Y31783D02*
D03*
X27738Y32783D02*
D03*
Y31783D02*
D03*
X27238Y32783D02*
D03*
Y31783D02*
D03*
D204*
X35217Y33050D02*
D03*
Y34050D02*
D03*
Y35050D02*
D03*
Y36050D02*
D03*
Y37050D02*
D03*
D205*
X34000Y33050D02*
D03*
Y34050D02*
D03*
Y35050D02*
D03*
Y36050D02*
D03*
D206*
Y37050D02*
D03*
D207*
X11907Y30510D02*
D03*
Y33270D02*
D03*
X36496Y21614D02*
D03*
X38465D02*
D03*
D208*
X10927Y31000D02*
D03*
Y32780D02*
D03*
D209*
X39087Y15197D02*
D03*
X41087D02*
D03*
X43087D02*
D03*
X45087D02*
D03*
D210*
X49213Y11811D02*
D03*
Y35827D02*
D03*
X11811D02*
D03*
Y11811D02*
D03*
D211*
X48355Y23819D02*
D03*
X41024Y23473D02*
D03*
D212*
X49755Y23819D02*
D03*
D213*
X49210Y27000D02*
D03*
Y29000D02*
D03*
Y31000D02*
D03*
Y33000D02*
D03*
D214*
X14642Y11417D02*
D03*
X15642D02*
D03*
X16642D02*
D03*
X17642D02*
D03*
X19760D02*
D03*
X20760D02*
D03*
X21760D02*
D03*
X22760D02*
D03*
X29996D02*
D03*
X30996D02*
D03*
X31996D02*
D03*
X32996D02*
D03*
X37059Y25630D02*
D03*
X38059D02*
D03*
X22622Y35827D02*
D03*
X23622D02*
D03*
X24622D02*
D03*
X18488D02*
D03*
X19488D02*
D03*
X20488D02*
D03*
X14354D02*
D03*
X15354D02*
D03*
X16354D02*
D03*
X20488Y33465D02*
D03*
X19488D02*
D03*
X18488D02*
D03*
X24622D02*
D03*
X23622D02*
D03*
X22622D02*
D03*
X16354D02*
D03*
X15354D02*
D03*
X14354D02*
D03*
X27878Y11417D02*
D03*
X26878D02*
D03*
X25878D02*
D03*
X24878D02*
D03*
X27878Y14173D02*
D03*
X26878D02*
D03*
X25878D02*
D03*
X24878D02*
D03*
D215*
X33504Y27217D02*
D03*
Y28217D02*
D03*
Y24106D02*
D03*
Y25106D02*
D03*
X34528Y31366D02*
D03*
Y30366D02*
D03*
X33504Y20996D02*
D03*
Y21996D02*
D03*
D216*
X37008Y27913D02*
D03*
X38008D02*
D03*
D217*
X15695Y29676D02*
D03*
Y30676D02*
D03*
X16695Y29676D02*
D03*
Y30676D02*
D03*
X17695Y29676D02*
D03*
Y30676D02*
D03*
X21421Y29676D02*
D03*
Y30676D02*
D03*
X22421Y29676D02*
D03*
Y30676D02*
D03*
X23421Y29676D02*
D03*
Y30676D02*
D03*
D218*
X46634Y11083D02*
D03*
D219*
X41024Y24873D02*
D03*
D220*
X36496Y11885D02*
D03*
Y13885D02*
D03*
Y17485D02*
D03*
Y15485D02*
D03*
X43976Y20342D02*
D03*
Y18342D02*
D03*
Y21942D02*
D03*
Y23942D02*
D03*
X46220D02*
D03*
Y21942D02*
D03*
Y18342D02*
D03*
Y20342D02*
D03*
D221*
X12598Y22827D02*
D03*
Y27559D02*
D03*
D222*
X41830Y36140D02*
D03*
X41826Y34996D02*
D03*
X39890Y32123D02*
D03*
D223*
X41130Y32600D02*
D03*
D224*
X39063Y13120D02*
D03*
X18624Y28504D02*
D03*
D225*
X39055Y13430D02*
D03*
Y12830D02*
D03*
X18632Y28794D02*
D03*
Y28194D02*
D03*
D226*
X22000Y29000D02*
D03*
X24000Y20000D02*
D03*
X17000Y28000D02*
D03*
X21000Y35000D02*
D03*
X48000Y33000D02*
D03*
X20000Y20000D02*
D03*
X48000Y31000D02*
D03*
X15000Y26000D02*
D03*
Y20000D02*
D03*
X16000D02*
D03*
X21000Y24000D02*
D03*
X48000Y29000D02*
D03*
X38000Y15000D02*
D03*
X17000Y34000D02*
D03*
X30116Y12917D02*
D03*
X22000Y20000D02*
D03*
X19000D02*
D03*
X14000Y13000D02*
D03*
Y27000D02*
D03*
X18000Y25000D02*
D03*
X32000Y13000D02*
D03*
Y24000D02*
D03*
X15000Y13000D02*
D03*
X27000D02*
D03*
X23000Y29000D02*
D03*
X25000Y13000D02*
D03*
X21000D02*
D03*
X32000Y27000D02*
D03*
X21000Y29000D02*
D03*
X18000Y20000D02*
D03*
X16000Y13000D02*
D03*
X13000Y20000D02*
D03*
X48000Y27000D02*
D03*
X28000Y20000D02*
D03*
X20000Y31000D02*
D03*
X22000Y13000D02*
D03*
Y34000D02*
D03*
X28000Y31000D02*
D03*
X11000Y20000D02*
D03*
X18000Y26000D02*
D03*
X31000Y13000D02*
D03*
X40000Y22000D02*
D03*
X17000Y20000D02*
D03*
X25000Y37000D02*
D03*
X20000Y13000D02*
D03*
X13000Y25000D02*
D03*
X38000Y27000D02*
D03*
X17000Y29000D02*
D03*
X22000Y23000D02*
D03*
X28000Y13000D02*
D03*
X29000Y20000D02*
D03*
X16000Y29000D02*
D03*
X11000Y14000D02*
D03*
X45000D02*
D03*
X21000Y23000D02*
D03*
X18000Y34000D02*
D03*
X21000Y20000D02*
D03*
X17000Y13000D02*
D03*
X18000Y23000D02*
D03*
X31000Y20000D02*
D03*
X41000Y14000D02*
D03*
X30000Y20000D02*
D03*
X14000Y30000D02*
D03*
X29000Y13000D02*
D03*
X43000Y14000D02*
D03*
X14000Y24000D02*
D03*
X26000Y13000D02*
D03*
X39000Y25000D02*
D03*
D227*
X32000Y22000D02*
D03*
X35000Y32000D02*
D03*
M02*
