M48
;Layer_Color=9474304
;FILE_FORMAT=2:4
INCH
;TYPE=PLATED
T1F00S00C0.0150
T2F00S00C0.0200
T3F00S00C0.0220
T4F00S00C0.0280
T5F00S00C0.0300
T6F00S00C0.0354
T7F00S00C0.0380
T8F00S00C0.0400
T9F00S00C0.0550
T10F00S00C0.0590
T11F00S00C0.0870
T12F00S00C0.1000
;TYPE=NON_PLATED
T13F00S00C0.1181
%
T01
X011111Y011111
X010811Y011811
X011111Y012511
X011811Y012811
X012511Y012511
X012811Y011811
X012511Y011111
X011811Y010811
X011560Y013930
X012008Y014449
X012333
X013484Y014459
X013819Y014449
X014567Y014370
Y015157
X014636Y015600
X014870Y012550
X014370Y012580
X013980Y012180
X015510Y012570
X011210Y015080
X011191Y015591
X015630
X015650Y015157
Y014370
X016457Y014409
X016850
X017913Y014370
X018228
X019094
Y015157
Y015591
X020039
X020079Y015157
Y014370
X020827Y014409
X021142
X022323Y014370
X022638
X023080Y014370
X023150Y014850
X023500Y015180
X023740Y013820
X021470Y012480
X020810
X019910Y012470
X018730Y012590
X018380Y012600
X017250Y012480
X016750Y012450
X029230Y012160
X029570Y012480
X029950Y012470
X030550Y012480
X030118Y014409
X029764
X031220
X028937Y015551
X032598Y015512
X032480Y014961
X032850Y014400
X031575Y014409
X031410Y012480
X031990
X032370
X033900Y013750
X034100Y014300
Y014650
Y015250
Y011200
X034291Y011063
Y010669
X034659
X035026
X035394
Y011063
X044252Y014488
X044409Y015039
X045748Y015000
X045866Y014488
X048513Y012511
X049213Y012811
X049913Y012511
X050213Y011811
X049913Y011111
X049213Y010811
X048513Y011111
X048213Y011811
X047362Y015669
X048218Y017795
Y018189
Y018583
Y018976
X048622Y018996
X049026Y019016
X049429Y018996
X049833Y018996
Y018596
Y018196
Y017795
X049429
X049026
X048622
X048622Y020236
X049016
X049409
X049882Y020748
X049213Y021339
X048661
X048150Y020787
X047450Y020240
X047030Y019440
X046900Y022990
X047500Y024400
X048337Y026250
X048911
X049485
X050059
X050079Y027677
X049567
X049055
X048543
X050404Y021752
X046630Y022880
X045810Y022890
X045530Y023020
X044220Y022960
X043720Y022950
X042720Y023360
X042640Y024000
X042795Y025433
X043032Y025669
X042559
X042323Y025433
X042047Y025669
X041811Y025433
X041378Y025669
Y026063
Y026457
X041024Y026260
Y025866
X041759Y027015
X042159
X042559
Y027415
Y027815
Y028215
X042159
Y027815
Y027415
X041759
Y027815
Y028215
X042959
X043359
Y027815
X042959
Y027415
X043359
Y027015
X042959
X044449Y026378
X046000Y024910
X045810Y019300
X045360Y019500
X045080Y019760
X046610Y019300
X046520Y017370
X045890
X045512Y016142
X044670Y016200
X044055Y016614
X042283Y018307
Y018661
Y019016
X041864Y019016
X041444
X041024Y019016
Y018661
Y018307
X040512Y019134
X033800Y019200
X033500Y018550
X034100Y018500
X033500Y017150
X033268Y016457
X033278Y016191
X033850Y015700
X034100Y016500
X032156Y016988
X031890Y017913
X032087Y018898
X031378Y019213
X031663Y019518
X032766Y019242
X031650Y021800
X031496Y022913
X032000Y024400
X031339Y025039
X031700Y026750
X032402Y028189
X032244Y028799
X032019Y030169
X032598Y030354
X033937Y029331
X034449
X035138Y030935
X036700Y030550
X035291Y027043
X035294Y026721
X034921Y027047
X034970Y024193
X035331Y024160
Y023833
X045000Y030906
X030789Y029014
X031024Y028150
X031240Y027687
X030787Y027598
Y027106
X030945Y026693
X030945Y025787
Y024921
X030394Y023396
X030000Y023100
X029291Y022520
X027795Y022638
X027283Y022756
X026811Y023071
X026214Y022963
X025689Y023071
X025710Y022570
X025315Y022716
X024596Y022854
X024163Y023120
X024094Y022598
X024045Y023829
X024075Y024380
X024596Y024232
X024449Y024833
X024754Y025335
X024419Y025709
X023927Y025807
X024055Y026339
X024488Y026614
X024744Y026122
X024115Y026999
X023953Y027360
X023583Y027362
X023543Y026653
X023799Y025197
X022447Y025709
X022314Y024686
X021772Y024606
X021753Y024214
X021712Y023810
X021400Y023470
X021500Y022810
X021811Y022480
X021794Y022103
X022600Y021880
X022009Y021271
X023169Y021093
X023584Y021074
X023465Y019974
X022920Y019920
X023199Y019183
X023583Y019173
X024350Y019150
X024903Y019588
X024902Y018553
X024882Y018032
X024892Y017520
X025640Y017451
Y018543
X026802Y018515
X027175Y018750
X026654Y019488
Y019882
X027500Y020000
X027441Y020965
X028072Y020581
X028783Y019683
X028950Y019150
X029600
X029900Y018800
X029600Y018300
Y017750
X028950Y018300
X028278Y017431
X027874Y016378
X028386Y015906
X028661
X030272Y016314
X030276Y016691
X030650
Y016319
X031033Y016317
X031024Y016691
Y017065
X030650
X030276
X030400Y019250
X030630Y020370
X029500Y020000
X026368Y021388
X025679Y021073
X025187Y021476
X024705Y021388
X024488Y023533
X022314Y023663
X020832Y024562
X020630Y024911
X020315Y025079
X020251Y026238
X020453Y027077
X020942Y026929
X021614
X021890Y027244
X022264Y027274
X022441Y027677
X023366Y028238
X020758
X019477Y028472
X019124Y027205
X018174Y027100
X017800
X017428
X017423Y027478
X017800Y027474
X018174
Y026726
X017800
X017426Y026716
X017579Y025463
X017970Y025470
X018290Y025710
X019125Y025759
X018310Y024590
X018022Y024134
X018032Y023740
X018400Y023300
X018041Y022411
Y022028
X017254Y022077
X017520Y020440
X017530Y019640
X017050Y019250
X016350Y019150
X015800
Y018450
X016350
Y017800
X016700Y018750
X018023Y019184
X018543Y019173
X019094
X020300Y019150
X020850
X021450Y019200
X021100Y018750
X020850Y018400
X020300
X020750Y017800
X020364Y017057
X021395Y017134
Y016760
X021769
Y016388
X021392Y016383
X022153Y016386
X022143Y016760
Y017134
X021769
X023150Y017057
X023031Y017913
X022580Y019170
X021550Y020000
X020750Y019750
X019600Y019900
X019400Y020250
X018400Y020000
X018701Y017913
X018730Y017057
X017757Y017134
Y016760
X017383
Y016388
X017005Y016383
X017009Y016760
Y017134
X017383
X017767Y016386
X019449Y016496
X019439Y016250
X019724Y016260
Y016496
X023711Y016073
X023976Y016063
X024230Y016830
X024750Y016560
X026693Y016772
X026614Y016102
X026811Y017520
X026614Y018031
X027362Y023819
X027362Y024331
X028248Y024508
X028701Y024636
X028307Y025039
X028515Y025838
X028465Y026220
X028798Y026657
X028661Y029045
X028269Y029185
X029222Y029134
X027126Y028937
Y029331
X027117Y029716
X027361Y027826
X027087Y027480
X026251Y027521
X028514Y023957
X016604Y025531
X015718Y025315
X015955Y026211
X015807Y028150
X017470Y028760
X018110Y029173
X018376Y029449
X015797Y023140
X015551Y022579
X015310Y020400
X015500Y020050
X015430Y019530
X014850Y019230
X014134Y019291
X013504Y019242
X012700Y019200
X012200Y018750
X011600Y018950
X011100
Y018400
X011600
X011850Y017800
X011329Y017055
X010827Y016732
X010709Y016496
X012496Y016383
X012500Y016760
X012874
Y016388
X013258Y016386
X013248Y016760
Y017134
X012874
X012500
X014273Y017055
X014173Y017913
X015010Y016516
Y016220
X015315
Y016526
X014488Y020000
X013944
X013300Y020300
X011500Y019750
X010600Y020000
X015000Y026430
X014720Y027150
X014380Y029370
X014882Y030591
X012511Y035127
X011811Y034827
X011111Y035127
X010811Y035827
X011111Y036527
X011811Y036827
X012511Y036527
X012811Y035827
X017300Y033750
X018504Y032441
X020280Y031280
X023307Y031673
X023950Y031700
X025188Y031596
X025089Y031969
X025400Y032700
X027410Y033970
X032250Y032050
X036100Y031800
X036430Y032660
Y034120
Y035580
X036640Y036930
X038525
X040410
X042295
X042796Y036292
X043380Y036280
X043886Y035616
X043750Y035100
X044550Y035710
X044180Y036930
X044550Y034115
X045342Y033806
Y033406
Y033006
Y032606
X045742
X046142
Y033006
Y033406
Y033806
X045742
Y033406
Y033006
X046542
Y033406
Y033806
Y032606
X046378Y031339
X045906
X045394
X044921Y031417
Y031732
Y032047
X044550Y032520
X044140Y031380
X043290Y032040
X042220Y032580
X042341Y033372
Y033766
X041947
X041553
Y034159
X041947
X042341
X042670Y034480
X041947Y033372
X041553
X040820Y034650
X040370Y031380
X042255
X038485
X046942Y032606
Y033006
Y033406
Y033806
X048513Y035127
X048213Y035827
X048513Y036527
X049213Y036827
X049913Y036527
X050213Y035827
X049913Y035127
X049213Y034827
T02
X041130Y032600
T03
X027238Y031783
X027738
X028238
X028738
X029238
X029738
X030238
X030738
X031238
Y032783
X030738
X030238
X029738
X029238
X028738
X028238
X027738
X027238
Y035445
X027738
X028238
X028738
X029238
X029738
X030238
X030738
X031238
Y036445
X030738
X030238
X029738
X029238
X028738
X028238
X027738
X027238
X031738
Y035445
Y032783
Y031783
T04
X040866Y020276
X040669Y022126
X013642Y029429
X042460Y032160
X046575Y036811
T05
X034134Y012874
X035630
X039890Y032123
X041826Y034996
X041830Y036140
T06
X034000Y033050
X035000
Y034050
X034000
Y035050
X035000
Y036050
X034000
Y037050
X035000
T07
X015695Y029676
Y030676
X016695
Y029676
X017695
Y030676
X021421
Y029676
X022421
Y030676
X023421
Y029676
X014458Y025689
X013668
Y024697
X014458
T08
X014642Y011417
X015642
X016642
X017642
X019760
X020760
X021760
X022760
X024878
X025878
X026878
X027878
X029996
X030996
X027878Y014173
X026878
X025878
X024878
X031996Y011417
X032996
X046634Y011083
X048355Y023819
X049755
X041024Y023473
Y024873
X038059Y025630
X037059
X037008Y027913
X038008
X033504Y028217
Y027217
Y025106
Y024106
Y021996
Y020996
X036496Y021614
X038465
X034528Y030366
X010927Y031000
Y032780
X014354Y033465
X015354
Y035827
X014354
X016354
X018488
X019488
X020488
X022622
X023622
X024622
Y033465
X023622
X022622
X020488
X019488
X018488
X016354
X034528Y031366
T09
X039087Y015197
X041087
X043087
X045087
X049210Y027000
Y029000
Y031000
Y033000
T10
X011907Y030510
Y033270
T11
X012598Y022827
Y027559
T12
X036496Y011885
Y013885
Y015485
Y017485
X043976Y018342
Y020342
Y021942
Y023942
X046220
Y021942
Y020342
Y018342
T13
X011811Y011811
X049213
X011811Y035827
X049213
M30
