%FSLAX24Y24*%
%MOIN*%
G70*
G01*
G75*
G04 Layer_Color=2752767*
%ADD10C,0.0650*%
%ADD11R,0.0600X0.0120*%
%ADD12R,0.0120X0.0600*%
G04:AMPARAMS|DCode=13|XSize=11mil|YSize=31.5mil|CornerRadius=4.4mil|HoleSize=0mil|Usage=FLASHONLY|Rotation=180.000|XOffset=0mil|YOffset=0mil|HoleType=Round|Shape=RoundedRectangle|*
%AMROUNDEDRECTD13*
21,1,0.0110,0.0227,0,0,180.0*
21,1,0.0022,0.0315,0,0,180.0*
1,1,0.0088,-0.0011,0.0113*
1,1,0.0088,0.0011,0.0113*
1,1,0.0088,0.0011,-0.0113*
1,1,0.0088,-0.0011,-0.0113*
%
%ADD13ROUNDEDRECTD13*%
G04:AMPARAMS|DCode=14|XSize=11mil|YSize=31.5mil|CornerRadius=4.4mil|HoleSize=0mil|Usage=FLASHONLY|Rotation=270.000|XOffset=0mil|YOffset=0mil|HoleType=Round|Shape=RoundedRectangle|*
%AMROUNDEDRECTD14*
21,1,0.0110,0.0227,0,0,270.0*
21,1,0.0022,0.0315,0,0,270.0*
1,1,0.0088,-0.0113,-0.0011*
1,1,0.0088,-0.0113,0.0011*
1,1,0.0088,0.0113,0.0011*
1,1,0.0088,0.0113,-0.0011*
%
%ADD14ROUNDEDRECTD14*%
%ADD15R,0.1370X0.1370*%
%ADD16R,0.1370X0.1370*%
%ADD17R,0.0236X0.1319*%
G04:AMPARAMS|DCode=18|XSize=40mil|YSize=40mil|CornerRadius=20mil|HoleSize=0mil|Usage=FLASHONLY|Rotation=0.000|XOffset=0mil|YOffset=0mil|HoleType=Round|Shape=RoundedRectangle|*
%AMROUNDEDRECTD18*
21,1,0.0400,0.0000,0,0,0.0*
21,1,0.0000,0.0400,0,0,0.0*
1,1,0.0400,0.0000,0.0000*
1,1,0.0400,0.0000,0.0000*
1,1,0.0400,0.0000,0.0000*
1,1,0.0400,0.0000,0.0000*
%
%ADD18ROUNDEDRECTD18*%
%ADD19R,0.0480X0.0480*%
%ADD20R,0.0480X0.0480*%
%ADD21R,0.0420X0.0520*%
%ADD22R,0.0354X0.1299*%
%ADD23R,0.0240X0.0240*%
%ADD24R,0.1260X0.0630*%
%ADD25R,0.0402X0.0118*%
%ADD26R,0.0681X0.0748*%
%ADD27R,0.0360X0.0320*%
%ADD28R,0.1970X0.1700*%
%ADD29R,0.0280X0.0560*%
%ADD30R,0.0280X0.0200*%
%ADD31R,0.0200X0.0280*%
%ADD32R,0.0790X0.0790*%
%ADD33R,0.0790X0.0790*%
%ADD34R,0.0500X0.0150*%
G04:AMPARAMS|DCode=35|XSize=63mil|YSize=71mil|CornerRadius=15.8mil|HoleSize=0mil|Usage=FLASHONLY|Rotation=270.000|XOffset=0mil|YOffset=0mil|HoleType=Round|Shape=RoundedRectangle|*
%AMROUNDEDRECTD35*
21,1,0.0630,0.0395,0,0,270.0*
21,1,0.0315,0.0710,0,0,270.0*
1,1,0.0315,-0.0198,-0.0158*
1,1,0.0315,-0.0198,0.0158*
1,1,0.0315,0.0198,0.0158*
1,1,0.0315,0.0198,-0.0158*
%
%ADD35ROUNDEDRECTD35*%
G04:AMPARAMS|DCode=36|XSize=29.1mil|YSize=39.4mil|CornerRadius=5.8mil|HoleSize=0mil|Usage=FLASHONLY|Rotation=90.000|XOffset=0mil|YOffset=0mil|HoleType=Round|Shape=RoundedRectangle|*
%AMROUNDEDRECTD36*
21,1,0.0291,0.0277,0,0,90.0*
21,1,0.0175,0.0394,0,0,90.0*
1,1,0.0117,0.0139,0.0087*
1,1,0.0117,0.0139,-0.0087*
1,1,0.0117,-0.0139,-0.0087*
1,1,0.0117,-0.0139,0.0087*
%
%ADD36ROUNDEDRECTD36*%
G04:AMPARAMS|DCode=37|XSize=29.1mil|YSize=39.4mil|CornerRadius=5.8mil|HoleSize=0mil|Usage=FLASHONLY|Rotation=180.000|XOffset=0mil|YOffset=0mil|HoleType=Round|Shape=RoundedRectangle|*
%AMROUNDEDRECTD37*
21,1,0.0291,0.0277,0,0,180.0*
21,1,0.0175,0.0394,0,0,180.0*
1,1,0.0117,-0.0087,0.0139*
1,1,0.0117,0.0087,0.0139*
1,1,0.0117,0.0087,-0.0139*
1,1,0.0117,-0.0087,-0.0139*
%
%ADD37ROUNDEDRECTD37*%
G04:AMPARAMS|DCode=38|XSize=22mil|YSize=24mil|CornerRadius=4.4mil|HoleSize=0mil|Usage=FLASHONLY|Rotation=0.000|XOffset=0mil|YOffset=0mil|HoleType=Round|Shape=RoundedRectangle|*
%AMROUNDEDRECTD38*
21,1,0.0220,0.0152,0,0,0.0*
21,1,0.0132,0.0240,0,0,0.0*
1,1,0.0088,0.0066,-0.0076*
1,1,0.0088,-0.0066,-0.0076*
1,1,0.0088,-0.0066,0.0076*
1,1,0.0088,0.0066,0.0076*
%
%ADD38ROUNDEDRECTD38*%
G04:AMPARAMS|DCode=39|XSize=22mil|YSize=24mil|CornerRadius=4.4mil|HoleSize=0mil|Usage=FLASHONLY|Rotation=270.000|XOffset=0mil|YOffset=0mil|HoleType=Round|Shape=RoundedRectangle|*
%AMROUNDEDRECTD39*
21,1,0.0220,0.0152,0,0,270.0*
21,1,0.0132,0.0240,0,0,270.0*
1,1,0.0088,-0.0076,-0.0066*
1,1,0.0088,-0.0076,0.0066*
1,1,0.0088,0.0076,0.0066*
1,1,0.0088,0.0076,-0.0066*
%
%ADD39ROUNDEDRECTD39*%
%ADD40R,0.0543X0.0709*%
%ADD41R,0.0200X0.0260*%
%ADD42R,0.0433X0.0669*%
G04:AMPARAMS|DCode=43|XSize=52mil|YSize=60mil|CornerRadius=13mil|HoleSize=0mil|Usage=FLASHONLY|Rotation=180.000|XOffset=0mil|YOffset=0mil|HoleType=Round|Shape=RoundedRectangle|*
%AMROUNDEDRECTD43*
21,1,0.0520,0.0340,0,0,180.0*
21,1,0.0260,0.0600,0,0,180.0*
1,1,0.0260,-0.0130,0.0170*
1,1,0.0260,0.0130,0.0170*
1,1,0.0260,0.0130,-0.0170*
1,1,0.0260,-0.0130,-0.0170*
%
%ADD43ROUNDEDRECTD43*%
G04:AMPARAMS|DCode=44|XSize=52mil|YSize=60mil|CornerRadius=13mil|HoleSize=0mil|Usage=FLASHONLY|Rotation=270.000|XOffset=0mil|YOffset=0mil|HoleType=Round|Shape=RoundedRectangle|*
%AMROUNDEDRECTD44*
21,1,0.0520,0.0340,0,0,270.0*
21,1,0.0260,0.0600,0,0,270.0*
1,1,0.0260,-0.0170,-0.0130*
1,1,0.0260,-0.0170,0.0130*
1,1,0.0260,0.0170,0.0130*
1,1,0.0260,0.0170,-0.0130*
%
%ADD44ROUNDEDRECTD44*%
%ADD45R,0.1673X0.0465*%
%ADD46C,0.0600*%
G04:AMPARAMS|DCode=47|XSize=50mil|YSize=50mil|CornerRadius=25mil|HoleSize=0mil|Usage=FLASHONLY|Rotation=90.000|XOffset=0mil|YOffset=0mil|HoleType=Round|Shape=RoundedRectangle|*
%AMROUNDEDRECTD47*
21,1,0.0500,0.0000,0,0,90.0*
21,1,0.0000,0.0500,0,0,90.0*
1,1,0.0500,0.0000,0.0000*
1,1,0.0500,0.0000,0.0000*
1,1,0.0500,0.0000,0.0000*
1,1,0.0500,0.0000,0.0000*
%
%ADD47ROUNDEDRECTD47*%
%ADD48C,0.0500*%
%ADD49C,0.0240*%
%ADD50C,0.0080*%
%ADD51C,0.0200*%
%ADD52C,0.0100*%
%ADD53C,0.0070*%
%ADD54C,0.0320*%
%ADD55C,0.0120*%
%ADD56C,0.0600*%
%ADD57C,0.0400*%
%ADD58C,0.0250*%
%ADD59C,0.0160*%
%ADD60R,0.1299X0.1063*%
%ADD61R,0.1575X0.0984*%
%ADD62R,0.1929X0.1457*%
%ADD63R,0.0551X0.0472*%
%ADD64O,0.0540X0.0360*%
%ADD65C,0.0360*%
%ADD66O,0.0600X0.1200*%
%ADD67P,0.0758X8X292.5*%
%ADD68C,0.1000*%
%ADD69O,0.1200X0.0600*%
%ADD70O,0.1024X0.0591*%
%ADD71C,0.0591*%
%ADD72R,0.0591X0.0591*%
%ADD73C,0.1305*%
%ADD74C,0.0540*%
%ADD75O,0.1650X0.0825*%
%ADD76O,0.0825X0.1650*%
%ADD77P,0.0909X8X112.5*%
%ADD78C,0.0840*%
%ADD79P,0.0909X8X22.5*%
G04:AMPARAMS|DCode=80|XSize=133.9mil|YSize=200mil|CornerRadius=0mil|HoleSize=0mil|Usage=FLASHONLY|Rotation=270.000|XOffset=0mil|YOffset=0mil|HoleType=Round|Shape=Octagon|*
%AMOCTAGOND80*
4,1,8,0.1000,0.0335,0.1000,-0.0335,0.0665,-0.0669,-0.0665,-0.0669,-0.1000,-0.0335,-0.1000,0.0335,-0.0665,0.0669,0.0665,0.0669,0.1000,0.0335,0.0*
%
%ADD80OCTAGOND80*%

G04:AMPARAMS|DCode=81|XSize=140mil|YSize=200mil|CornerRadius=0mil|HoleSize=0mil|Usage=FLASHONLY|Rotation=270.000|XOffset=0mil|YOffset=0mil|HoleType=Round|Shape=Octagon|*
%AMOCTAGOND81*
4,1,8,0.1000,0.0350,0.1000,-0.0350,0.0650,-0.0700,-0.0650,-0.0700,-0.1000,-0.0350,-0.1000,0.0350,-0.0650,0.0700,0.0650,0.0700,0.1000,0.0350,0.0*
%
%ADD81OCTAGOND81*%

%ADD82P,0.0671X8X22.5*%
%ADD83C,0.0800*%
%ADD84C,0.0300*%
%ADD85C,0.0500*%
%ADD86C,0.0400*%
%ADD87C,0.0320*%
%ADD88C,0.0460*%
G04:AMPARAMS|DCode=89|XSize=82mil|YSize=82mil|CornerRadius=0mil|HoleSize=0mil|Usage=FLASHONLY|Rotation=0.000|XOffset=0mil|YOffset=0mil|HoleType=Round|Shape=Relief|Width=10mil|Gap=10mil|Entries=4|*
%AMTHD89*
7,0,0,0.0820,0.0620,0.0100,45*
%
%ADD89THD89*%
%ADD90C,0.0640*%
G04:AMPARAMS|DCode=91|XSize=100mil|YSize=100mil|CornerRadius=0mil|HoleSize=0mil|Usage=FLASHONLY|Rotation=0.000|XOffset=0mil|YOffset=0mil|HoleType=Round|Shape=Relief|Width=10mil|Gap=10mil|Entries=4|*
%AMTHD91*
7,0,0,0.1000,0.0800,0.0100,45*
%
%ADD91THD91*%
%ADD92C,0.0830*%
%ADD93C,0.0594*%
G04:AMPARAMS|DCode=94|XSize=95.433mil|YSize=95.433mil|CornerRadius=0mil|HoleSize=0mil|Usage=FLASHONLY|Rotation=0.000|XOffset=0mil|YOffset=0mil|HoleType=Round|Shape=Relief|Width=10mil|Gap=10mil|Entries=4|*
%AMTHD94*
7,0,0,0.0954,0.0754,0.0100,45*
%
%ADD94THD94*%
%ADD95C,0.1110*%
G04:AMPARAMS|DCode=96|XSize=98mil|YSize=98mil|CornerRadius=0mil|HoleSize=0mil|Usage=FLASHONLY|Rotation=0.000|XOffset=0mil|YOffset=0mil|HoleType=Round|Shape=Relief|Width=10mil|Gap=10mil|Entries=4|*
%AMTHD96*
7,0,0,0.0980,0.0780,0.0100,45*
%
%ADD96THD96*%
%ADD97C,0.0620*%
%ADD98C,0.0790*%
G04:AMPARAMS|DCode=99|XSize=115mil|YSize=115mil|CornerRadius=0mil|HoleSize=0mil|Usage=FLASHONLY|Rotation=0.000|XOffset=0mil|YOffset=0mil|HoleType=Round|Shape=Relief|Width=10mil|Gap=10mil|Entries=4|*
%AMTHD99*
7,0,0,0.1150,0.0950,0.0100,45*
%
%ADD99THD99*%
%ADD100C,0.1240*%
%ADD101C,0.0390*%
%ADD102C,0.1421*%
%ADD103C,0.0520*%
%ADD104C,0.1400*%
%ADD105C,0.0800*%
%ADD106C,0.1040*%
%ADD107C,0.1300*%
%ADD108R,0.4094X0.4331*%
%ADD109R,0.3425X0.4284*%
%ADD110R,0.3583X0.4284*%
%ADD111R,0.3622X0.4331*%
G04:AMPARAMS|DCode=112|XSize=46mil|YSize=63mil|CornerRadius=11.5mil|HoleSize=0mil|Usage=FLASHONLY|Rotation=270.000|XOffset=0mil|YOffset=0mil|HoleType=Round|Shape=RoundedRectangle|*
%AMROUNDEDRECTD112*
21,1,0.0460,0.0400,0,0,270.0*
21,1,0.0230,0.0630,0,0,270.0*
1,1,0.0230,-0.0200,-0.0115*
1,1,0.0230,-0.0200,0.0115*
1,1,0.0230,0.0200,0.0115*
1,1,0.0230,0.0200,-0.0115*
%
%ADD112ROUNDEDRECTD112*%
G04:AMPARAMS|DCode=113|XSize=50mil|YSize=50mil|CornerRadius=25mil|HoleSize=0mil|Usage=FLASHONLY|Rotation=0.000|XOffset=0mil|YOffset=0mil|HoleType=Round|Shape=RoundedRectangle|*
%AMROUNDEDRECTD113*
21,1,0.0500,0.0000,0,0,0.0*
21,1,0.0000,0.0500,0,0,0.0*
1,1,0.0500,0.0000,0.0000*
1,1,0.0500,0.0000,0.0000*
1,1,0.0500,0.0000,0.0000*
1,1,0.0500,0.0000,0.0000*
%
%ADD113ROUNDEDRECTD113*%
%ADD114C,0.0098*%
%ADD115C,0.0050*%
%ADD116C,0.0000*%
%ADD117C,0.0060*%
%ADD118C,0.0079*%
%ADD119C,0.0040*%
%ADD120R,0.0120X0.0059*%
%ADD121R,0.0120X0.0060*%
%ADD122R,0.0120X0.0119*%
%ADD123R,0.0059X0.0120*%
%ADD124R,0.0060X0.0120*%
%ADD125R,0.0119X0.0120*%
%ADD126R,0.2450X0.0492*%
%ADD127R,0.0879X0.0295*%
%ADD128R,0.0295X0.0879*%
%ADD129R,0.0580X0.0100*%
%ADD130R,0.0100X0.0580*%
G04:AMPARAMS|DCode=131|XSize=9mil|YSize=29.5mil|CornerRadius=3.4mil|HoleSize=0mil|Usage=FLASHONLY|Rotation=180.000|XOffset=0mil|YOffset=0mil|HoleType=Round|Shape=RoundedRectangle|*
%AMROUNDEDRECTD131*
21,1,0.0090,0.0227,0,0,180.0*
21,1,0.0022,0.0295,0,0,180.0*
1,1,0.0068,-0.0011,0.0113*
1,1,0.0068,0.0011,0.0113*
1,1,0.0068,0.0011,-0.0113*
1,1,0.0068,-0.0011,-0.0113*
%
%ADD131ROUNDEDRECTD131*%
G04:AMPARAMS|DCode=132|XSize=9mil|YSize=29.5mil|CornerRadius=3.4mil|HoleSize=0mil|Usage=FLASHONLY|Rotation=270.000|XOffset=0mil|YOffset=0mil|HoleType=Round|Shape=RoundedRectangle|*
%AMROUNDEDRECTD132*
21,1,0.0090,0.0227,0,0,270.0*
21,1,0.0022,0.0295,0,0,270.0*
1,1,0.0068,-0.0113,-0.0011*
1,1,0.0068,-0.0113,0.0011*
1,1,0.0068,0.0113,0.0011*
1,1,0.0068,0.0113,-0.0011*
%
%ADD132ROUNDEDRECTD132*%
%ADD133R,0.0216X0.1299*%
%ADD134R,0.0460X0.0460*%
%ADD135R,0.0460X0.0460*%
%ADD136R,0.0400X0.0500*%
%ADD137R,0.0334X0.1279*%
%ADD138R,0.0220X0.0220*%
%ADD139R,0.1240X0.0610*%
%ADD140R,0.0382X0.0098*%
%ADD141R,0.0661X0.0728*%
%ADD142R,0.0340X0.0300*%
%ADD143R,0.1950X0.1680*%
%ADD144R,0.0260X0.0540*%
%ADD145R,0.0260X0.0180*%
%ADD146R,0.0180X0.0260*%
%ADD147R,0.0770X0.0770*%
%ADD148R,0.0770X0.0770*%
%ADD149R,0.0480X0.0130*%
G04:AMPARAMS|DCode=150|XSize=61mil|YSize=69mil|CornerRadius=14.8mil|HoleSize=0mil|Usage=FLASHONLY|Rotation=270.000|XOffset=0mil|YOffset=0mil|HoleType=Round|Shape=RoundedRectangle|*
%AMROUNDEDRECTD150*
21,1,0.0610,0.0395,0,0,270.0*
21,1,0.0315,0.0690,0,0,270.0*
1,1,0.0295,-0.0198,-0.0158*
1,1,0.0295,-0.0198,0.0158*
1,1,0.0295,0.0198,0.0158*
1,1,0.0295,0.0198,-0.0158*
%
%ADD150ROUNDEDRECTD150*%
G04:AMPARAMS|DCode=151|XSize=27.1mil|YSize=37.4mil|CornerRadius=4.8mil|HoleSize=0mil|Usage=FLASHONLY|Rotation=90.000|XOffset=0mil|YOffset=0mil|HoleType=Round|Shape=RoundedRectangle|*
%AMROUNDEDRECTD151*
21,1,0.0271,0.0277,0,0,90.0*
21,1,0.0175,0.0374,0,0,90.0*
1,1,0.0097,0.0139,0.0087*
1,1,0.0097,0.0139,-0.0087*
1,1,0.0097,-0.0139,-0.0087*
1,1,0.0097,-0.0139,0.0087*
%
%ADD151ROUNDEDRECTD151*%
G04:AMPARAMS|DCode=152|XSize=27.1mil|YSize=37.4mil|CornerRadius=4.8mil|HoleSize=0mil|Usage=FLASHONLY|Rotation=180.000|XOffset=0mil|YOffset=0mil|HoleType=Round|Shape=RoundedRectangle|*
%AMROUNDEDRECTD152*
21,1,0.0271,0.0277,0,0,180.0*
21,1,0.0175,0.0374,0,0,180.0*
1,1,0.0097,-0.0087,0.0139*
1,1,0.0097,0.0087,0.0139*
1,1,0.0097,0.0087,-0.0139*
1,1,0.0097,-0.0087,-0.0139*
%
%ADD152ROUNDEDRECTD152*%
G04:AMPARAMS|DCode=153|XSize=20mil|YSize=22mil|CornerRadius=3.4mil|HoleSize=0mil|Usage=FLASHONLY|Rotation=0.000|XOffset=0mil|YOffset=0mil|HoleType=Round|Shape=RoundedRectangle|*
%AMROUNDEDRECTD153*
21,1,0.0200,0.0152,0,0,0.0*
21,1,0.0132,0.0220,0,0,0.0*
1,1,0.0068,0.0066,-0.0076*
1,1,0.0068,-0.0066,-0.0076*
1,1,0.0068,-0.0066,0.0076*
1,1,0.0068,0.0066,0.0076*
%
%ADD153ROUNDEDRECTD153*%
G04:AMPARAMS|DCode=154|XSize=20mil|YSize=22mil|CornerRadius=3.4mil|HoleSize=0mil|Usage=FLASHONLY|Rotation=270.000|XOffset=0mil|YOffset=0mil|HoleType=Round|Shape=RoundedRectangle|*
%AMROUNDEDRECTD154*
21,1,0.0200,0.0152,0,0,270.0*
21,1,0.0132,0.0220,0,0,270.0*
1,1,0.0068,-0.0076,-0.0066*
1,1,0.0068,-0.0076,0.0066*
1,1,0.0068,0.0076,0.0066*
1,1,0.0068,0.0076,-0.0066*
%
%ADD154ROUNDEDRECTD154*%
%ADD155R,0.0523X0.0689*%
%ADD156R,0.0180X0.0240*%
%ADD157R,0.0413X0.0649*%
G04:AMPARAMS|DCode=158|XSize=50mil|YSize=58mil|CornerRadius=12mil|HoleSize=0mil|Usage=FLASHONLY|Rotation=180.000|XOffset=0mil|YOffset=0mil|HoleType=Round|Shape=RoundedRectangle|*
%AMROUNDEDRECTD158*
21,1,0.0500,0.0340,0,0,180.0*
21,1,0.0260,0.0580,0,0,180.0*
1,1,0.0240,-0.0130,0.0170*
1,1,0.0240,0.0130,0.0170*
1,1,0.0240,0.0130,-0.0170*
1,1,0.0240,-0.0130,-0.0170*
%
%ADD158ROUNDEDRECTD158*%
G04:AMPARAMS|DCode=159|XSize=50mil|YSize=58mil|CornerRadius=12mil|HoleSize=0mil|Usage=FLASHONLY|Rotation=270.000|XOffset=0mil|YOffset=0mil|HoleType=Round|Shape=RoundedRectangle|*
%AMROUNDEDRECTD159*
21,1,0.0500,0.0340,0,0,270.0*
21,1,0.0260,0.0580,0,0,270.0*
1,1,0.0240,-0.0170,-0.0130*
1,1,0.0240,-0.0170,0.0130*
1,1,0.0240,0.0170,0.0130*
1,1,0.0240,0.0170,-0.0130*
%
%ADD159ROUNDEDRECTD159*%
%ADD160R,0.1653X0.0445*%
G04:AMPARAMS|DCode=161|XSize=48mil|YSize=48mil|CornerRadius=24mil|HoleSize=0mil|Usage=FLASHONLY|Rotation=90.000|XOffset=0mil|YOffset=0mil|HoleType=Round|Shape=RoundedRectangle|*
%AMROUNDEDRECTD161*
21,1,0.0480,0.0000,0,0,90.0*
21,1,0.0000,0.0480,0,0,90.0*
1,1,0.0480,0.0000,0.0000*
1,1,0.0480,0.0000,0.0000*
1,1,0.0480,0.0000,0.0000*
1,1,0.0480,0.0000,0.0000*
%
%ADD161ROUNDEDRECTD161*%
%ADD162C,0.0150*%
%ADD163C,0.0394*%
%ADD164R,0.0460X0.0130*%
%ADD165R,0.0530X0.0170*%
%ADD166R,0.0680X0.0200*%
%ADD167R,0.0200X0.0680*%
G04:AMPARAMS|DCode=168|XSize=15mil|YSize=35.4mil|CornerRadius=6.4mil|HoleSize=0mil|Usage=FLASHONLY|Rotation=180.000|XOffset=0mil|YOffset=0mil|HoleType=Round|Shape=RoundedRectangle|*
%AMROUNDEDRECTD168*
21,1,0.0150,0.0227,0,0,180.0*
21,1,0.0022,0.0354,0,0,180.0*
1,1,0.0128,-0.0011,0.0113*
1,1,0.0128,0.0011,0.0113*
1,1,0.0128,0.0011,-0.0113*
1,1,0.0128,-0.0011,-0.0113*
%
%ADD168ROUNDEDRECTD168*%
G04:AMPARAMS|DCode=169|XSize=15mil|YSize=35.4mil|CornerRadius=6.4mil|HoleSize=0mil|Usage=FLASHONLY|Rotation=270.000|XOffset=0mil|YOffset=0mil|HoleType=Round|Shape=RoundedRectangle|*
%AMROUNDEDRECTD169*
21,1,0.0150,0.0227,0,0,270.0*
21,1,0.0022,0.0354,0,0,270.0*
1,1,0.0128,-0.0113,-0.0011*
1,1,0.0128,-0.0113,0.0011*
1,1,0.0128,0.0113,0.0011*
1,1,0.0128,0.0113,-0.0011*
%
%ADD169ROUNDEDRECTD169*%
%ADD170R,0.0296X0.1379*%
G04:AMPARAMS|DCode=171|XSize=80mil|YSize=80mil|CornerRadius=40mil|HoleSize=0mil|Usage=FLASHONLY|Rotation=0.000|XOffset=0mil|YOffset=0mil|HoleType=Round|Shape=RoundedRectangle|*
%AMROUNDEDRECTD171*
21,1,0.0800,0.0000,0,0,0.0*
21,1,0.0000,0.0800,0,0,0.0*
1,1,0.0800,0.0000,0.0000*
1,1,0.0800,0.0000,0.0000*
1,1,0.0800,0.0000,0.0000*
1,1,0.0800,0.0000,0.0000*
%
%ADD171ROUNDEDRECTD171*%
%ADD172R,0.0540X0.0540*%
%ADD173R,0.0540X0.0540*%
%ADD174R,0.0480X0.0580*%
%ADD175R,0.0414X0.1359*%
%ADD176R,0.0300X0.0300*%
%ADD177R,0.1320X0.0690*%
%ADD178R,0.0482X0.0198*%
%ADD179R,0.0741X0.0808*%
%ADD180R,0.0420X0.0380*%
%ADD181R,0.2030X0.1760*%
%ADD182R,0.0340X0.0620*%
%ADD183R,0.0340X0.0260*%
%ADD184R,0.0260X0.0340*%
%ADD185R,0.0850X0.0850*%
%ADD186R,0.0850X0.0850*%
%ADD187R,0.0560X0.0210*%
G04:AMPARAMS|DCode=188|XSize=69mil|YSize=77mil|CornerRadius=18.8mil|HoleSize=0mil|Usage=FLASHONLY|Rotation=270.000|XOffset=0mil|YOffset=0mil|HoleType=Round|Shape=RoundedRectangle|*
%AMROUNDEDRECTD188*
21,1,0.0690,0.0395,0,0,270.0*
21,1,0.0315,0.0770,0,0,270.0*
1,1,0.0375,-0.0198,-0.0158*
1,1,0.0375,-0.0198,0.0158*
1,1,0.0375,0.0198,0.0158*
1,1,0.0375,0.0198,-0.0158*
%
%ADD188ROUNDEDRECTD188*%
G04:AMPARAMS|DCode=189|XSize=35.1mil|YSize=45.4mil|CornerRadius=8.8mil|HoleSize=0mil|Usage=FLASHONLY|Rotation=90.000|XOffset=0mil|YOffset=0mil|HoleType=Round|Shape=RoundedRectangle|*
%AMROUNDEDRECTD189*
21,1,0.0351,0.0277,0,0,90.0*
21,1,0.0175,0.0454,0,0,90.0*
1,1,0.0177,0.0139,0.0087*
1,1,0.0177,0.0139,-0.0087*
1,1,0.0177,-0.0139,-0.0087*
1,1,0.0177,-0.0139,0.0087*
%
%ADD189ROUNDEDRECTD189*%
G04:AMPARAMS|DCode=190|XSize=35.1mil|YSize=45.4mil|CornerRadius=8.8mil|HoleSize=0mil|Usage=FLASHONLY|Rotation=180.000|XOffset=0mil|YOffset=0mil|HoleType=Round|Shape=RoundedRectangle|*
%AMROUNDEDRECTD190*
21,1,0.0351,0.0277,0,0,180.0*
21,1,0.0175,0.0454,0,0,180.0*
1,1,0.0177,-0.0087,0.0139*
1,1,0.0177,0.0087,0.0139*
1,1,0.0177,0.0087,-0.0139*
1,1,0.0177,-0.0087,-0.0139*
%
%ADD190ROUNDEDRECTD190*%
G04:AMPARAMS|DCode=191|XSize=28mil|YSize=30mil|CornerRadius=7.4mil|HoleSize=0mil|Usage=FLASHONLY|Rotation=0.000|XOffset=0mil|YOffset=0mil|HoleType=Round|Shape=RoundedRectangle|*
%AMROUNDEDRECTD191*
21,1,0.0280,0.0152,0,0,0.0*
21,1,0.0132,0.0300,0,0,0.0*
1,1,0.0148,0.0066,-0.0076*
1,1,0.0148,-0.0066,-0.0076*
1,1,0.0148,-0.0066,0.0076*
1,1,0.0148,0.0066,0.0076*
%
%ADD191ROUNDEDRECTD191*%
G04:AMPARAMS|DCode=192|XSize=28mil|YSize=30mil|CornerRadius=7.4mil|HoleSize=0mil|Usage=FLASHONLY|Rotation=270.000|XOffset=0mil|YOffset=0mil|HoleType=Round|Shape=RoundedRectangle|*
%AMROUNDEDRECTD192*
21,1,0.0280,0.0152,0,0,270.0*
21,1,0.0132,0.0300,0,0,270.0*
1,1,0.0148,-0.0076,-0.0066*
1,1,0.0148,-0.0076,0.0066*
1,1,0.0148,0.0076,0.0066*
1,1,0.0148,0.0076,-0.0066*
%
%ADD192ROUNDEDRECTD192*%
%ADD193R,0.0603X0.0769*%
%ADD194R,0.0260X0.0320*%
%ADD195R,0.0493X0.0729*%
G04:AMPARAMS|DCode=196|XSize=58mil|YSize=66mil|CornerRadius=16mil|HoleSize=0mil|Usage=FLASHONLY|Rotation=180.000|XOffset=0mil|YOffset=0mil|HoleType=Round|Shape=RoundedRectangle|*
%AMROUNDEDRECTD196*
21,1,0.0580,0.0340,0,0,180.0*
21,1,0.0260,0.0660,0,0,180.0*
1,1,0.0320,-0.0130,0.0170*
1,1,0.0320,0.0130,0.0170*
1,1,0.0320,0.0130,-0.0170*
1,1,0.0320,-0.0130,-0.0170*
%
%ADD196ROUNDEDRECTD196*%
G04:AMPARAMS|DCode=197|XSize=58mil|YSize=66mil|CornerRadius=16mil|HoleSize=0mil|Usage=FLASHONLY|Rotation=270.000|XOffset=0mil|YOffset=0mil|HoleType=Round|Shape=RoundedRectangle|*
%AMROUNDEDRECTD197*
21,1,0.0580,0.0340,0,0,270.0*
21,1,0.0260,0.0660,0,0,270.0*
1,1,0.0320,-0.0170,-0.0130*
1,1,0.0320,-0.0170,0.0130*
1,1,0.0320,0.0170,0.0130*
1,1,0.0320,0.0170,-0.0130*
%
%ADD197ROUNDEDRECTD197*%
%ADD198R,0.1733X0.0525*%
G04:AMPARAMS|DCode=199|XSize=56mil|YSize=56mil|CornerRadius=28mil|HoleSize=0mil|Usage=FLASHONLY|Rotation=90.000|XOffset=0mil|YOffset=0mil|HoleType=Round|Shape=RoundedRectangle|*
%AMROUNDEDRECTD199*
21,1,0.0560,0.0000,0,0,90.0*
21,1,0.0000,0.0560,0,0,90.0*
1,1,0.0560,0.0000,0.0000*
1,1,0.0560,0.0000,0.0000*
1,1,0.0560,0.0000,0.0000*
1,1,0.0560,0.0000,0.0000*
%
%ADD199ROUNDEDRECTD199*%
%ADD200O,0.0600X0.0420*%
%ADD201C,0.0420*%
%ADD202O,0.0660X0.1260*%
%ADD203P,0.0823X8X292.5*%
%ADD204C,0.1060*%
%ADD205O,0.1260X0.0660*%
%ADD206O,0.1084X0.0651*%
%ADD207C,0.0651*%
%ADD208R,0.0651X0.0651*%
%ADD209C,0.1365*%
%ADD210O,0.1710X0.0885*%
%ADD211O,0.0885X0.1710*%
%ADD212P,0.0974X8X112.5*%
%ADD213C,0.0900*%
%ADD214P,0.0974X8X22.5*%
G04:AMPARAMS|DCode=215|XSize=139.9mil|YSize=206mil|CornerRadius=0mil|HoleSize=0mil|Usage=FLASHONLY|Rotation=270.000|XOffset=0mil|YOffset=0mil|HoleType=Round|Shape=Octagon|*
%AMOCTAGOND215*
4,1,8,0.1030,0.0350,0.1030,-0.0350,0.0680,-0.0699,-0.0680,-0.0699,-0.1030,-0.0350,-0.1030,0.0350,-0.0680,0.0699,0.0680,0.0699,0.1030,0.0350,0.0*
%
%ADD215OCTAGOND215*%

G04:AMPARAMS|DCode=216|XSize=146mil|YSize=206mil|CornerRadius=0mil|HoleSize=0mil|Usage=FLASHONLY|Rotation=270.000|XOffset=0mil|YOffset=0mil|HoleType=Round|Shape=Octagon|*
%AMOCTAGOND216*
4,1,8,0.1030,0.0365,0.1030,-0.0365,0.0665,-0.0730,-0.0665,-0.0730,-0.1030,-0.0365,-0.1030,0.0365,-0.0665,0.0730,0.0665,0.0730,0.1030,0.0365,0.0*
%
%ADD216OCTAGOND216*%

%ADD217P,0.0736X8X22.5*%
%ADD218C,0.0660*%
%ADD219C,0.0860*%
%ADD220C,0.0180*%
%ADD221C,0.0080*%
%ADD222R,0.0704X0.0354*%
G04:AMPARAMS|DCode=223|XSize=52mil|YSize=69mil|CornerRadius=14.5mil|HoleSize=0mil|Usage=FLASHONLY|Rotation=270.000|XOffset=0mil|YOffset=0mil|HoleType=Round|Shape=RoundedRectangle|*
%AMROUNDEDRECTD223*
21,1,0.0520,0.0400,0,0,270.0*
21,1,0.0230,0.0690,0,0,270.0*
1,1,0.0290,-0.0200,-0.0115*
1,1,0.0290,-0.0200,0.0115*
1,1,0.0290,0.0200,0.0115*
1,1,0.0290,0.0200,-0.0115*
%
%ADD223ROUNDEDRECTD223*%
G04:AMPARAMS|DCode=224|XSize=56mil|YSize=56mil|CornerRadius=28mil|HoleSize=0mil|Usage=FLASHONLY|Rotation=0.000|XOffset=0mil|YOffset=0mil|HoleType=Round|Shape=RoundedRectangle|*
%AMROUNDEDRECTD224*
21,1,0.0560,0.0000,0,0,0.0*
21,1,0.0000,0.0560,0,0,0.0*
1,1,0.0560,0.0000,0.0000*
1,1,0.0560,0.0000,0.0000*
1,1,0.0560,0.0000,0.0000*
1,1,0.0560,0.0000,0.0000*
%
%ADD224ROUNDEDRECTD224*%
G04:AMPARAMS|DCode=225|XSize=44mil|YSize=61mil|CornerRadius=10.5mil|HoleSize=0mil|Usage=FLASHONLY|Rotation=270.000|XOffset=0mil|YOffset=0mil|HoleType=Round|Shape=RoundedRectangle|*
%AMROUNDEDRECTD225*
21,1,0.0440,0.0400,0,0,270.0*
21,1,0.0230,0.0610,0,0,270.0*
1,1,0.0210,-0.0200,-0.0115*
1,1,0.0210,-0.0200,0.0115*
1,1,0.0210,0.0200,0.0115*
1,1,0.0210,0.0200,-0.0115*
%
%ADD225ROUNDEDRECTD225*%
G04:AMPARAMS|DCode=226|XSize=48mil|YSize=48mil|CornerRadius=24mil|HoleSize=0mil|Usage=FLASHONLY|Rotation=0.000|XOffset=0mil|YOffset=0mil|HoleType=Round|Shape=RoundedRectangle|*
%AMROUNDEDRECTD226*
21,1,0.0480,0.0000,0,0,0.0*
21,1,0.0000,0.0480,0,0,0.0*
1,1,0.0480,0.0000,0.0000*
1,1,0.0480,0.0000,0.0000*
1,1,0.0480,0.0000,0.0000*
1,1,0.0480,0.0000,0.0000*
%
%ADD226ROUNDEDRECTD226*%
%ADD227C,0.0020*%
%ADD228C,0.0039*%
%ADD229C,0.0010*%
%ADD230R,0.0410X0.0118*%
%ADD231R,0.0410X0.0118*%
%ADD232R,0.0410X0.0118*%
%ADD233R,0.0410X0.0119*%
%ADD234R,0.0410X0.0120*%
%ADD235R,0.0410X0.0110*%
%ADD236R,0.0120X0.0410*%
%ADD237R,0.0110X0.0410*%
%ADD238R,0.0119X0.0410*%
%ADD239R,0.0118X0.0410*%
%ADD240R,0.0118X0.0410*%
%ADD241R,0.0118X0.0410*%
%ADD242R,0.0413X0.0120*%
%ADD243R,0.0413X0.0110*%
%ADD244R,0.0413X0.0119*%
%ADD245R,0.0413X0.0118*%
%ADD246R,0.0413X0.0118*%
%ADD247R,0.0413X0.0118*%
%ADD248R,0.0118X0.0413*%
%ADD249R,0.0118X0.0413*%
%ADD250R,0.0118X0.0413*%
%ADD251R,0.0118X0.0413*%
%ADD252R,0.0119X0.0413*%
%ADD253R,0.0120X0.0413*%
%ADD254R,0.0110X0.0413*%
%ADD255R,0.0010X0.0010*%
%ADD256R,0.0020X0.0010*%
%ADD257R,0.0021X0.0010*%
%ADD258R,0.0011X0.0010*%
%ADD259R,0.0240X0.0536*%
%ADD260R,0.0236X0.0536*%
%ADD261R,0.0536X0.0240*%
%ADD262R,0.0536X0.0236*%
%ADD263R,0.0556X0.0079*%
%ADD264R,0.0860X0.0210*%
%ADD265R,0.0194X0.0194*%
%ADD266R,0.0187X0.0194*%
%ADD267R,0.0190X0.0194*%
%ADD268R,0.0194X0.0190*%
%ADD269R,0.0194X0.0187*%
%ADD270R,0.0230X0.0246*%
%ADD271R,0.0190X0.0413*%
%ADD272R,0.0236X0.0246*%
%ADD273R,0.0197X0.0413*%
%ADD274R,0.0114X0.0317*%
%ADD275R,0.0080X0.0137*%
%ADD276R,0.0083X0.0137*%
%ADD277R,0.0317X0.0114*%
%ADD278R,0.0137X0.0080*%
%ADD279R,0.0137X0.0083*%
%ADD280R,0.0645X0.0170*%
%ADD281R,0.0635X0.0165*%
%ADD282R,0.0170X0.0645*%
%ADD283R,0.0165X0.0635*%
%ADD284R,0.0470X0.0140*%
%ADD285R,0.0460X0.0140*%
%ADD286R,0.1000X0.0200*%
%ADD287R,0.0200X0.1000*%
%ADD288R,0.0630X0.0290*%
%ADD289R,0.0315X0.0138*%
%ADD290R,0.0138X0.0315*%
%ADD291R,0.0118X0.0240*%
%ADD292R,0.0110X0.0240*%
%ADD293R,0.0240X0.0118*%
%ADD294R,0.0240X0.0110*%
%ADD295R,0.0300X0.0575*%
%ADD296R,0.0295X0.0575*%
%ADD297R,0.0575X0.0300*%
%ADD298R,0.0575X0.0295*%
%ADD299R,0.0118X0.0240*%
%ADD300R,0.0240X0.0118*%
%ADD301R,0.0200X0.0200*%
%ADD302C,0.0020*%
%ADD303C,0.0067*%
D115*
X31538Y32583D02*
Y32983D01*
X31938D01*
Y32583D01*
X31538D01*
Y31583D02*
Y31983D01*
X31938D01*
Y31583D01*
X31538D01*
X31038Y32583D02*
Y32983D01*
X31438D01*
Y32583D01*
X31038D01*
Y31583D02*
Y31983D01*
X31438D01*
Y31583D01*
X31038D01*
X30538Y32583D02*
Y32983D01*
X30938D01*
Y32583D01*
X30538D01*
Y31583D02*
Y31983D01*
X30938D01*
Y31583D01*
X30538D01*
X30038Y32583D02*
Y32983D01*
X30438D01*
Y32583D01*
X30038D01*
Y31583D02*
Y31983D01*
X30438D01*
Y31583D01*
X30038D01*
X29538Y32583D02*
Y32983D01*
X29938D01*
Y32583D01*
X29538D01*
Y31583D02*
Y31983D01*
X29938D01*
Y31583D01*
X29538D01*
X29038Y32583D02*
Y32983D01*
X29438D01*
Y32583D01*
X29038D01*
Y31583D02*
Y31983D01*
X29438D01*
Y31583D01*
X29038D01*
X28538Y32583D02*
Y32983D01*
X28938D01*
Y32583D01*
X28538D01*
Y31583D02*
Y31983D01*
X28938D01*
Y31583D01*
X28538D01*
X28038Y32583D02*
Y32983D01*
X28438D01*
Y32583D01*
X28038D01*
Y31583D02*
Y31983D01*
X28438D01*
Y31583D01*
X28038D01*
X27538Y32583D02*
Y32983D01*
X27938D01*
Y32583D01*
X27538D01*
Y31583D02*
Y31983D01*
X27938D01*
Y31583D01*
X27538D01*
X27038Y32583D02*
Y32983D01*
X27438D01*
Y32583D01*
X27038D01*
Y31583D02*
Y31983D01*
X27438D01*
Y31583D01*
X27038D01*
X31538Y36245D02*
Y36645D01*
X31938D01*
Y36245D01*
X31538D01*
Y35245D02*
Y35645D01*
X31938D01*
Y35245D01*
X31538D01*
X31038Y36245D02*
Y36645D01*
X31438D01*
Y36245D01*
X31038D01*
Y35245D02*
Y35645D01*
X31438D01*
Y35245D01*
X31038D01*
X30538Y36245D02*
Y36645D01*
X30938D01*
Y36245D01*
X30538D01*
Y35245D02*
Y35645D01*
X30938D01*
Y35245D01*
X30538D01*
X30038Y36245D02*
Y36645D01*
X30438D01*
Y36245D01*
X30038D01*
Y35245D02*
Y35645D01*
X30438D01*
Y35245D01*
X30038D01*
X29538Y36245D02*
Y36645D01*
X29938D01*
Y36245D01*
X29538D01*
Y35245D02*
Y35645D01*
X29938D01*
Y35245D01*
X29538D01*
X29038Y36245D02*
Y36645D01*
X29438D01*
Y36245D01*
X29038D01*
Y35245D02*
Y35645D01*
X29438D01*
Y35245D01*
X29038D01*
X28538Y36245D02*
Y36645D01*
X28938D01*
Y36245D01*
X28538D01*
Y35245D02*
Y35645D01*
X28938D01*
Y35245D01*
X28538D01*
X28038Y36245D02*
Y36645D01*
X28438D01*
Y36245D01*
X28038D01*
Y35245D02*
Y35645D01*
X28438D01*
Y35245D01*
X28038D01*
X27538Y36245D02*
Y36645D01*
X27938D01*
Y36245D01*
X27538D01*
Y35245D02*
Y35645D01*
X27938D01*
Y35245D01*
X27538D01*
X27038Y36245D02*
Y36645D01*
X27438D01*
Y36245D01*
X27038D01*
Y35245D02*
Y35645D01*
X27438D01*
Y35245D01*
X27038D01*
X11907Y33070D02*
X11707Y33470D01*
X12107D01*
X11907Y33070D01*
Y30310D02*
X11707Y30710D01*
X12107D01*
X11907Y30310D01*
X35000Y32850D02*
X35100Y32950D01*
X35200D01*
X35100Y33050D01*
X35200Y33150D01*
X35100D01*
X35000Y33250D01*
X34900Y33150D01*
X34800D01*
X34900Y33050D01*
X34800Y32950D01*
X34900D01*
X35000Y32850D01*
X34000D02*
X34100Y32950D01*
X34200D01*
X34100Y33050D01*
X34200Y33150D01*
X34100D01*
X34000Y33250D01*
X33900Y33150D01*
X33800D01*
X33900Y33050D01*
X33800Y32950D01*
X33900D01*
X34000Y32850D01*
X35000Y33850D02*
X35100Y33950D01*
X35200D01*
X35100Y34050D01*
X35200Y34150D01*
X35100D01*
X35000Y34250D01*
X34900Y34150D01*
X34800D01*
X34900Y34050D01*
X34800Y33950D01*
X34900D01*
X35000Y33850D01*
X34000D02*
X34100Y33950D01*
X34200D01*
X34100Y34050D01*
X34200Y34150D01*
X34100D01*
X34000Y34250D01*
X33900Y34150D01*
X33800D01*
X33900Y34050D01*
X33800Y33950D01*
X33900D01*
X34000Y33850D01*
X35000Y34850D02*
X35100Y34950D01*
X35200D01*
X35100Y35050D01*
X35200Y35150D01*
X35100D01*
X35000Y35250D01*
X34900Y35150D01*
X34800D01*
X34900Y35050D01*
X34800Y34950D01*
X34900D01*
X35000Y34850D01*
X34000D02*
X34100Y34950D01*
X34200D01*
X34100Y35050D01*
X34200Y35150D01*
X34100D01*
X34000Y35250D01*
X33900Y35150D01*
X33800D01*
X33900Y35050D01*
X33800Y34950D01*
X33900D01*
X34000Y34850D01*
X35000Y35850D02*
X35100Y35950D01*
X35200D01*
X35100Y36050D01*
X35200Y36150D01*
X35100D01*
X35000Y36250D01*
X34900Y36150D01*
X34800D01*
X34900Y36050D01*
X34800Y35950D01*
X34900D01*
X35000Y35850D01*
X34000D02*
X34100Y35950D01*
X34200D01*
X34100Y36050D01*
X34200Y36150D01*
X34100D01*
X34000Y36250D01*
X33900Y36150D01*
X33800D01*
X33900Y36050D01*
X33800Y35950D01*
X33900D01*
X34000Y35850D01*
X35000Y36850D02*
X35100Y36950D01*
X35200D01*
X35100Y37050D01*
X35200Y37150D01*
X35100D01*
X35000Y37250D01*
X34900Y37150D01*
X34800D01*
X34900Y37050D01*
X34800Y36950D01*
X34900D01*
X35000Y36850D01*
X34000D02*
X34100Y36950D01*
X34200D01*
X34100Y37050D01*
X34200Y37150D01*
X34100D01*
X34000Y37250D01*
X33900Y37150D01*
X33800D01*
X33900Y37050D01*
X33800Y36950D01*
X33900D01*
X34000Y36850D01*
X12398Y22627D02*
X12498Y22827D01*
X12398Y23027D01*
X12598Y22927D01*
X12798Y23027D01*
X12698Y22827D01*
X12798Y22627D01*
X12598Y22727D01*
X12398Y22627D01*
Y27359D02*
X12498Y27559D01*
X12398Y27759D01*
X12598Y27659D01*
X12798Y27759D01*
X12698Y27559D01*
X12798Y27359D01*
X12598Y27459D01*
X12398Y27359D01*
X13568Y24597D02*
Y24497D01*
X13768D01*
Y24597D01*
X13868D01*
Y24797D01*
X13768D01*
Y24897D01*
X13568D01*
Y24797D01*
X13468D01*
Y24597D01*
X13568D01*
Y25589D02*
Y25489D01*
X13768D01*
Y25589D01*
X13868D01*
Y25789D01*
X13768D01*
Y25889D01*
X13568D01*
Y25789D01*
X13468D01*
Y25589D01*
X13568D01*
X14358D02*
Y25489D01*
X14558D01*
Y25589D01*
X14658D01*
Y25789D01*
X14558D01*
Y25889D01*
X14358D01*
Y25789D01*
X14258D01*
Y25589D01*
X14358D01*
Y24597D02*
Y24497D01*
X14558D01*
Y24597D01*
X14658D01*
Y24797D01*
X14558D01*
Y24897D01*
X14358D01*
Y24797D01*
X14258D01*
Y24597D01*
X14358D01*
X49010Y26800D02*
X49110D01*
X49210Y26900D01*
X49310Y26800D01*
X49410D01*
Y26900D01*
X49310Y27000D01*
X49410Y27100D01*
Y27200D01*
X49310D01*
X49210Y27100D01*
X49110Y27200D01*
X49010D01*
Y27100D01*
X49110Y27000D01*
X49010Y26900D01*
Y26800D01*
Y28800D02*
X49110D01*
X49210Y28900D01*
X49310Y28800D01*
X49410D01*
Y28900D01*
X49310Y29000D01*
X49410Y29100D01*
Y29200D01*
X49310D01*
X49210Y29100D01*
X49110Y29200D01*
X49010D01*
Y29100D01*
X49110Y29000D01*
X49010Y28900D01*
Y28800D01*
Y30800D02*
X49110D01*
X49210Y30900D01*
X49310Y30800D01*
X49410D01*
Y30900D01*
X49310Y31000D01*
X49410Y31100D01*
Y31200D01*
X49310D01*
X49210Y31100D01*
X49110Y31200D01*
X49010D01*
Y31100D01*
X49110Y31000D01*
X49010Y30900D01*
Y30800D01*
Y32800D02*
X49110D01*
X49210Y32900D01*
X49310Y32800D01*
X49410D01*
Y32900D01*
X49310Y33000D01*
X49410Y33100D01*
Y33200D01*
X49310D01*
X49210Y33100D01*
X49110Y33200D01*
X49010D01*
Y33100D01*
X49110Y33000D01*
X49010Y32900D01*
Y32800D01*
X44887Y14997D02*
X44987D01*
X45087Y15097D01*
X45187Y14997D01*
X45287D01*
Y15097D01*
X45187Y15197D01*
X45287Y15297D01*
Y15397D01*
X45187D01*
X45087Y15297D01*
X44987Y15397D01*
X44887D01*
Y15297D01*
X44987Y15197D01*
X44887Y15097D01*
Y14997D01*
X42887D02*
X42987D01*
X43087Y15097D01*
X43187Y14997D01*
X43287D01*
Y15097D01*
X43187Y15197D01*
X43287Y15297D01*
Y15397D01*
X43187D01*
X43087Y15297D01*
X42987Y15397D01*
X42887D01*
Y15297D01*
X42987Y15197D01*
X42887Y15097D01*
Y14997D01*
X40887D02*
X40987D01*
X41087Y15097D01*
X41187Y14997D01*
X41287D01*
Y15097D01*
X41187Y15197D01*
X41287Y15297D01*
Y15397D01*
X41187D01*
X41087Y15297D01*
X40987Y15397D01*
X40887D01*
Y15297D01*
X40987Y15197D01*
X40887Y15097D01*
Y14997D01*
X38887D02*
X38987D01*
X39087Y15097D01*
X39187Y14997D01*
X39287D01*
Y15097D01*
X39187Y15197D01*
X39287Y15297D01*
Y15397D01*
X39187D01*
X39087Y15297D01*
X38987Y15397D01*
X38887D01*
Y15297D01*
X38987Y15197D01*
X38887Y15097D01*
Y14997D01*
X36296Y15485D02*
X36496Y15685D01*
X36696Y15485D01*
X36496Y15285D01*
X36296Y15485D01*
Y17485D02*
X36496Y17685D01*
X36696Y17485D01*
X36496Y17285D01*
X36296Y17485D01*
Y13885D02*
X36496Y14085D01*
X36696Y13885D01*
X36496Y13685D01*
X36296Y13885D01*
Y11885D02*
X36496Y12085D01*
X36696Y11885D01*
X36496Y11685D01*
X36296Y11885D01*
X43776Y20342D02*
X43976Y20542D01*
X44176Y20342D01*
X43976Y20142D01*
X43776Y20342D01*
Y18342D02*
X43976Y18542D01*
X44176Y18342D01*
X43976Y18142D01*
X43776Y18342D01*
Y21942D02*
X43976Y22142D01*
X44176Y21942D01*
X43976Y21742D01*
X43776Y21942D01*
Y23942D02*
X43976Y24142D01*
X44176Y23942D01*
X43976Y23742D01*
X43776Y23942D01*
X46020Y20342D02*
X46220Y20542D01*
X46420Y20342D01*
X46220Y20142D01*
X46020Y20342D01*
Y18342D02*
X46220Y18542D01*
X46420Y18342D01*
X46220Y18142D01*
X46020Y18342D01*
Y21942D02*
X46220Y22142D01*
X46420Y21942D01*
X46220Y21742D01*
X46020Y21942D01*
Y23942D02*
X46220Y24142D01*
X46420Y23942D01*
X46220Y23742D01*
X46020Y23942D01*
X21321Y29576D02*
Y29476D01*
X21521D01*
Y29576D01*
X21621D01*
Y29776D01*
X21521D01*
Y29876D01*
X21321D01*
Y29776D01*
X21221D01*
Y29576D01*
X21321D01*
Y30576D02*
Y30476D01*
X21521D01*
Y30576D01*
X21621D01*
Y30776D01*
X21521D01*
Y30876D01*
X21321D01*
Y30776D01*
X21221D01*
Y30576D01*
X21321D01*
X22321Y29576D02*
Y29476D01*
X22521D01*
Y29576D01*
X22621D01*
Y29776D01*
X22521D01*
Y29876D01*
X22321D01*
Y29776D01*
X22221D01*
Y29576D01*
X22321D01*
Y30576D02*
Y30476D01*
X22521D01*
Y30576D01*
X22621D01*
Y30776D01*
X22521D01*
Y30876D01*
X22321D01*
Y30776D01*
X22221D01*
Y30576D01*
X22321D01*
X23321Y29576D02*
Y29476D01*
X23521D01*
Y29576D01*
X23621D01*
Y29776D01*
X23521D01*
Y29876D01*
X23321D01*
Y29776D01*
X23221D01*
Y29576D01*
X23321D01*
Y30576D02*
Y30476D01*
X23521D01*
Y30576D01*
X23621D01*
Y30776D01*
X23521D01*
Y30876D01*
X23321D01*
Y30776D01*
X23221D01*
Y30576D01*
X23321D01*
X15595Y29576D02*
Y29476D01*
X15795D01*
Y29576D01*
X15895D01*
Y29776D01*
X15795D01*
Y29876D01*
X15595D01*
Y29776D01*
X15495D01*
Y29576D01*
X15595D01*
Y30576D02*
Y30476D01*
X15795D01*
Y30576D01*
X15895D01*
Y30776D01*
X15795D01*
Y30876D01*
X15595D01*
Y30776D01*
X15495D01*
Y30576D01*
X15595D01*
X16595Y29576D02*
Y29476D01*
X16795D01*
Y29576D01*
X16895D01*
Y29776D01*
X16795D01*
Y29876D01*
X16595D01*
Y29776D01*
X16495D01*
Y29576D01*
X16595D01*
Y30576D02*
Y30476D01*
X16795D01*
Y30576D01*
X16895D01*
Y30776D01*
X16795D01*
Y30876D01*
X16595D01*
Y30776D01*
X16495D01*
Y30576D01*
X16595D01*
X17595Y29576D02*
Y29476D01*
X17795D01*
Y29576D01*
X17895D01*
Y29776D01*
X17795D01*
Y29876D01*
X17595D01*
Y29776D01*
X17495D01*
Y29576D01*
X17595D01*
Y30576D02*
Y30476D01*
X17795D01*
Y30576D01*
X17895D01*
Y30776D01*
X17795D01*
Y30876D01*
X17595D01*
Y30776D01*
X17495D01*
Y30576D01*
X17595D01*
X48313Y34927D02*
Y35327D01*
X48713D01*
Y34927D01*
X48313D01*
X48393Y35007D02*
Y35247D01*
X48633D01*
Y35007D01*
X48393D01*
X49713Y34927D02*
Y35327D01*
X50113D01*
Y34927D01*
X49713D01*
X49793Y35007D02*
Y35247D01*
X50033D01*
Y35007D01*
X49793D01*
X49713Y36327D02*
Y36727D01*
X50113D01*
Y36327D01*
X49713D01*
X49793Y36407D02*
Y36647D01*
X50033D01*
Y36407D01*
X49793D01*
X48313Y36327D02*
Y36727D01*
X48713D01*
Y36327D01*
X48313D01*
X48393Y36407D02*
Y36647D01*
X48633D01*
Y36407D01*
X48393D01*
X48013Y35627D02*
Y36027D01*
X48413D01*
Y35627D01*
X48013D01*
X48093Y35707D02*
Y35947D01*
X48333D01*
Y35707D01*
X48093D01*
X50013Y35627D02*
Y36027D01*
X50413D01*
Y35627D01*
X50013D01*
X50093Y35707D02*
Y35947D01*
X50333D01*
Y35707D01*
X50093D01*
X49013Y36627D02*
Y37027D01*
X49413D01*
Y36627D01*
X49013D01*
X49093Y36707D02*
Y36947D01*
X49333D01*
Y36707D01*
X49093D01*
X49013Y34627D02*
Y35027D01*
X49413D01*
Y34627D01*
X49013D01*
X49093Y34707D02*
Y34947D01*
X49333D01*
Y34707D01*
X49093D01*
X11611Y34627D02*
Y35027D01*
X12011D01*
Y34627D01*
X11611D01*
X11691Y34707D02*
Y34947D01*
X11931D01*
Y34707D01*
X11691D01*
X11611Y36627D02*
Y37027D01*
X12011D01*
Y36627D01*
X11611D01*
X11691Y36707D02*
Y36947D01*
X11931D01*
Y36707D01*
X11691D01*
X12611Y35627D02*
Y36027D01*
X13011D01*
Y35627D01*
X12611D01*
X12691Y35707D02*
Y35947D01*
X12931D01*
Y35707D01*
X12691D01*
X10611Y35627D02*
Y36027D01*
X11011D01*
Y35627D01*
X10611D01*
X10691Y35707D02*
Y35947D01*
X10931D01*
Y35707D01*
X10691D01*
X10911Y36327D02*
Y36727D01*
X11311D01*
Y36327D01*
X10911D01*
X10991Y36407D02*
Y36647D01*
X11231D01*
Y36407D01*
X10991D01*
X12311Y36327D02*
Y36727D01*
X12711D01*
Y36327D01*
X12311D01*
X12391Y36407D02*
Y36647D01*
X12631D01*
Y36407D01*
X12391D01*
X12311Y34927D02*
Y35327D01*
X12711D01*
Y34927D01*
X12311D01*
X12391Y35007D02*
Y35247D01*
X12631D01*
Y35007D01*
X12391D01*
X10911Y34927D02*
Y35327D01*
X11311D01*
Y34927D01*
X10911D01*
X10991Y35007D02*
Y35247D01*
X11231D01*
Y35007D01*
X10991D01*
X10911Y10911D02*
Y11311D01*
X11311D01*
Y10911D01*
X10911D01*
X10991Y10991D02*
Y11231D01*
X11231D01*
Y10991D01*
X10991D01*
X12311Y10911D02*
Y11311D01*
X12711D01*
Y10911D01*
X12311D01*
X12391Y10991D02*
Y11231D01*
X12631D01*
Y10991D01*
X12391D01*
X12311Y12311D02*
Y12711D01*
X12711D01*
Y12311D01*
X12311D01*
X12391Y12391D02*
Y12631D01*
X12631D01*
Y12391D01*
X12391D01*
X10911Y12311D02*
Y12711D01*
X11311D01*
Y12311D01*
X10911D01*
X10991Y12391D02*
Y12631D01*
X11231D01*
Y12391D01*
X10991D01*
X10611Y11611D02*
Y12011D01*
X11011D01*
Y11611D01*
X10611D01*
X10691Y11691D02*
Y11931D01*
X10931D01*
Y11691D01*
X10691D01*
X12611Y11611D02*
Y12011D01*
X13011D01*
Y11611D01*
X12611D01*
X12691Y11691D02*
Y11931D01*
X12931D01*
Y11691D01*
X12691D01*
X11611Y12611D02*
Y13011D01*
X12011D01*
Y12611D01*
X11611D01*
X11691Y12691D02*
Y12931D01*
X11931D01*
Y12691D01*
X11691D01*
X11611Y10611D02*
Y11011D01*
X12011D01*
Y10611D01*
X11611D01*
X11691Y10691D02*
Y10931D01*
X11931D01*
Y10691D01*
X11691D01*
X49013Y10611D02*
Y11011D01*
X49413D01*
Y10611D01*
X49013D01*
X49093Y10691D02*
Y10931D01*
X49333D01*
Y10691D01*
X49093D01*
X49013Y12611D02*
Y13011D01*
X49413D01*
Y12611D01*
X49013D01*
X49093Y12691D02*
Y12931D01*
X49333D01*
Y12691D01*
X49093D01*
X50013Y11611D02*
Y12011D01*
X50413D01*
Y11611D01*
X50013D01*
X50093Y11691D02*
Y11931D01*
X50333D01*
Y11691D01*
X50093D01*
X48013Y11611D02*
Y12011D01*
X48413D01*
Y11611D01*
X48013D01*
X48093Y11691D02*
Y11931D01*
X48333D01*
Y11691D01*
X48093D01*
X48313Y12311D02*
Y12711D01*
X48713D01*
Y12311D01*
X48313D01*
X48393Y12391D02*
Y12631D01*
X48633D01*
Y12391D01*
X48393D01*
X49713Y12311D02*
Y12711D01*
X50113D01*
Y12311D01*
X49713D01*
X49793Y12391D02*
Y12631D01*
X50033D01*
Y12391D01*
X49793D01*
X49713Y10911D02*
Y11311D01*
X50113D01*
Y10911D01*
X49713D01*
X49793Y10991D02*
Y11231D01*
X50033D01*
Y10991D01*
X49793D01*
X48313Y10911D02*
Y11311D01*
X48713D01*
Y10911D01*
X48313D01*
X48393Y10991D02*
Y11231D01*
X48633D01*
Y10991D01*
X48393D01*
X33900Y11000D02*
Y11400D01*
X34300D01*
Y11000D01*
X33900D01*
X33980Y11080D02*
Y11320D01*
X34220D01*
Y11080D01*
X33980D01*
X17600Y26900D02*
Y27300D01*
X18000D01*
Y26900D01*
X17600D01*
X17680Y26980D02*
Y27220D01*
X17920D01*
Y26980D01*
X17680D01*
X17600Y27274D02*
Y27674D01*
X18000D01*
Y27274D01*
X17600D01*
X17680Y27354D02*
Y27594D01*
X17920D01*
Y27354D01*
X17680D01*
X17223Y27278D02*
Y27678D01*
X17623D01*
Y27278D01*
X17223D01*
X17303Y27358D02*
Y27598D01*
X17543D01*
Y27358D01*
X17303D01*
X17228Y26900D02*
Y27300D01*
X17628D01*
Y26900D01*
X17228D01*
X17308Y26980D02*
Y27220D01*
X17548D01*
Y26980D01*
X17308D01*
X17226Y26516D02*
Y26916D01*
X17626D01*
Y26516D01*
X17226D01*
X17306Y26596D02*
Y26836D01*
X17546D01*
Y26596D01*
X17306D01*
X17600Y26526D02*
Y26926D01*
X18000D01*
Y26526D01*
X17600D01*
X17680Y26606D02*
Y26846D01*
X17920D01*
Y26606D01*
X17680D01*
X17974Y26526D02*
Y26926D01*
X18374D01*
Y26526D01*
X17974D01*
X18054Y26606D02*
Y26846D01*
X18294D01*
Y26606D01*
X18054D01*
X17974Y26900D02*
Y27300D01*
X18374D01*
Y26900D01*
X17974D01*
X18054Y26980D02*
Y27220D01*
X18294D01*
Y26980D01*
X18054D01*
X17974Y27274D02*
Y27674D01*
X18374D01*
Y27274D01*
X17974D01*
X18054Y27354D02*
Y27594D01*
X18294D01*
Y27354D01*
X18054D01*
X12674Y16560D02*
Y16960D01*
X13074D01*
Y16560D01*
X12674D01*
X12754Y16640D02*
Y16880D01*
X12994D01*
Y16640D01*
X12754D01*
X12300Y16560D02*
Y16960D01*
X12700D01*
Y16560D01*
X12300D01*
X12380Y16640D02*
Y16880D01*
X12620D01*
Y16640D01*
X12380D01*
X12296Y16183D02*
Y16583D01*
X12696D01*
Y16183D01*
X12296D01*
X12376Y16263D02*
Y16503D01*
X12616D01*
Y16263D01*
X12376D01*
X12674Y16188D02*
Y16588D01*
X13074D01*
Y16188D01*
X12674D01*
X12754Y16268D02*
Y16508D01*
X12994D01*
Y16268D01*
X12754D01*
X13058Y16186D02*
Y16586D01*
X13458D01*
Y16186D01*
X13058D01*
X13138Y16266D02*
Y16506D01*
X13378D01*
Y16266D01*
X13138D01*
X13048Y16560D02*
Y16960D01*
X13448D01*
Y16560D01*
X13048D01*
X13128Y16640D02*
Y16880D01*
X13368D01*
Y16640D01*
X13128D01*
X13048Y16934D02*
Y17334D01*
X13448D01*
Y16934D01*
X13048D01*
X13128Y17014D02*
Y17254D01*
X13368D01*
Y17014D01*
X13128D01*
X12674Y16934D02*
Y17334D01*
X13074D01*
Y16934D01*
X12674D01*
X12754Y17014D02*
Y17254D01*
X12994D01*
Y17014D01*
X12754D01*
X12300Y16934D02*
Y17334D01*
X12700D01*
Y16934D01*
X12300D01*
X12380Y17014D02*
Y17254D01*
X12620D01*
Y17014D01*
X12380D01*
X17183Y16560D02*
Y16960D01*
X17583D01*
Y16560D01*
X17183D01*
X17263Y16640D02*
Y16880D01*
X17503D01*
Y16640D01*
X17263D01*
X16809Y16560D02*
Y16960D01*
X17209D01*
Y16560D01*
X16809D01*
X16889Y16640D02*
Y16880D01*
X17129D01*
Y16640D01*
X16889D01*
X16805Y16183D02*
Y16583D01*
X17205D01*
Y16183D01*
X16805D01*
X16885Y16263D02*
Y16503D01*
X17125D01*
Y16263D01*
X16885D01*
X17183Y16188D02*
Y16588D01*
X17583D01*
Y16188D01*
X17183D01*
X17263Y16268D02*
Y16508D01*
X17503D01*
Y16268D01*
X17263D01*
X17567Y16186D02*
Y16586D01*
X17967D01*
Y16186D01*
X17567D01*
X17647Y16266D02*
Y16506D01*
X17887D01*
Y16266D01*
X17647D01*
X17557Y16560D02*
Y16960D01*
X17957D01*
Y16560D01*
X17557D01*
X17637Y16640D02*
Y16880D01*
X17877D01*
Y16640D01*
X17637D01*
X17557Y16934D02*
Y17334D01*
X17957D01*
Y16934D01*
X17557D01*
X17637Y17014D02*
Y17254D01*
X17877D01*
Y17014D01*
X17637D01*
X17183Y16934D02*
Y17334D01*
X17583D01*
Y16934D01*
X17183D01*
X17263Y17014D02*
Y17254D01*
X17503D01*
Y17014D01*
X17263D01*
X16809Y16934D02*
Y17334D01*
X17209D01*
Y16934D01*
X16809D01*
X16889Y17014D02*
Y17254D01*
X17129D01*
Y17014D01*
X16889D01*
X21569Y16560D02*
Y16960D01*
X21969D01*
Y16560D01*
X21569D01*
X21649Y16640D02*
Y16880D01*
X21889D01*
Y16640D01*
X21649D01*
X21195Y16560D02*
Y16960D01*
X21595D01*
Y16560D01*
X21195D01*
X21275Y16640D02*
Y16880D01*
X21515D01*
Y16640D01*
X21275D01*
X21192Y16183D02*
Y16583D01*
X21592D01*
Y16183D01*
X21192D01*
X21272Y16263D02*
Y16503D01*
X21512D01*
Y16263D01*
X21272D01*
X21569Y16188D02*
Y16588D01*
X21969D01*
Y16188D01*
X21569D01*
X21649Y16268D02*
Y16508D01*
X21889D01*
Y16268D01*
X21649D01*
X21953Y16186D02*
Y16586D01*
X22353D01*
Y16186D01*
X21953D01*
X22033Y16266D02*
Y16506D01*
X22273D01*
Y16266D01*
X22033D01*
X21943Y16560D02*
Y16960D01*
X22343D01*
Y16560D01*
X21943D01*
X22023Y16640D02*
Y16880D01*
X22263D01*
Y16640D01*
X22023D01*
X21943Y16934D02*
Y17334D01*
X22343D01*
Y16934D01*
X21943D01*
X22023Y17014D02*
Y17254D01*
X22263D01*
Y17014D01*
X22023D01*
X21569Y16934D02*
Y17334D01*
X21969D01*
Y16934D01*
X21569D01*
X21649Y17014D02*
Y17254D01*
X21889D01*
Y17014D01*
X21649D01*
X21195Y16934D02*
Y17334D01*
X21595D01*
Y16934D01*
X21195D01*
X21275Y17014D02*
Y17254D01*
X21515D01*
Y17014D01*
X21275D01*
X30450Y16491D02*
Y16891D01*
X30850D01*
Y16491D01*
X30450D01*
X30530Y16571D02*
Y16811D01*
X30770D01*
Y16571D01*
X30530D01*
X30076Y16491D02*
Y16891D01*
X30476D01*
Y16491D01*
X30076D01*
X30156Y16571D02*
Y16811D01*
X30396D01*
Y16571D01*
X30156D01*
X30072Y16114D02*
Y16514D01*
X30472D01*
Y16114D01*
X30072D01*
X30152Y16194D02*
Y16434D01*
X30392D01*
Y16194D01*
X30152D01*
X30450Y16119D02*
Y16519D01*
X30850D01*
Y16119D01*
X30450D01*
X30530Y16199D02*
Y16439D01*
X30770D01*
Y16199D01*
X30530D01*
X30833Y16117D02*
Y16517D01*
X31233D01*
Y16117D01*
X30833D01*
X30913Y16197D02*
Y16437D01*
X31153D01*
Y16197D01*
X30913D01*
X30824Y16491D02*
Y16891D01*
X31224D01*
Y16491D01*
X30824D01*
X30904Y16571D02*
Y16811D01*
X31144D01*
Y16571D01*
X30904D01*
X30824Y16865D02*
Y17265D01*
X31224D01*
Y16865D01*
X30824D01*
X30904Y16945D02*
Y17185D01*
X31144D01*
Y16945D01*
X30904D01*
X30450Y16865D02*
Y17265D01*
X30850D01*
Y16865D01*
X30450D01*
X30530Y16945D02*
Y17185D01*
X30770D01*
Y16945D01*
X30530D01*
X30076Y16865D02*
Y17265D01*
X30476D01*
Y16865D01*
X30076D01*
X30156Y16945D02*
Y17185D01*
X30396D01*
Y16945D01*
X30156D01*
X41747Y33566D02*
Y33966D01*
X42147D01*
Y33566D01*
X41747D01*
X41827Y33646D02*
Y33886D01*
X42067D01*
Y33646D01*
X41827D01*
X41353Y33566D02*
Y33966D01*
X41753D01*
Y33566D01*
X41353D01*
X41433Y33646D02*
Y33886D01*
X41673D01*
Y33646D01*
X41433D01*
X41353Y33959D02*
Y34359D01*
X41753D01*
Y33959D01*
X41353D01*
X41433Y34039D02*
Y34279D01*
X41673D01*
Y34039D01*
X41433D01*
X41747Y33959D02*
Y34359D01*
X42147D01*
Y33959D01*
X41747D01*
X41827Y34039D02*
Y34279D01*
X42067D01*
Y34039D01*
X41827D01*
X42141Y33959D02*
Y34359D01*
X42541D01*
Y33959D01*
X42141D01*
X42221Y34039D02*
Y34279D01*
X42461D01*
Y34039D01*
X42221D01*
X42141Y33566D02*
Y33966D01*
X42541D01*
Y33566D01*
X42141D01*
X42221Y33646D02*
Y33886D01*
X42461D01*
Y33646D01*
X42221D01*
X42141Y33172D02*
Y33572D01*
X42541D01*
Y33172D01*
X42141D01*
X42221Y33252D02*
Y33492D01*
X42461D01*
Y33252D01*
X42221D01*
X41747Y33172D02*
Y33572D01*
X42147D01*
Y33172D01*
X41747D01*
X41827Y33252D02*
Y33492D01*
X42067D01*
Y33252D01*
X41827D01*
X41353Y33172D02*
Y33572D01*
X41753D01*
Y33172D01*
X41353D01*
X41433Y33252D02*
Y33492D01*
X41673D01*
Y33252D01*
X41433D01*
X45942Y33206D02*
Y33606D01*
X46342D01*
Y33206D01*
X45942D01*
X46022Y33286D02*
Y33526D01*
X46262D01*
Y33286D01*
X46022D01*
X45942Y33606D02*
Y34006D01*
X46342D01*
Y33606D01*
X45942D01*
X46022Y33686D02*
Y33926D01*
X46262D01*
Y33686D01*
X46022D01*
X45942Y32806D02*
Y33206D01*
X46342D01*
Y32806D01*
X45942D01*
X46022Y32886D02*
Y33126D01*
X46262D01*
Y32886D01*
X46022D01*
X45942Y32406D02*
Y32806D01*
X46342D01*
Y32406D01*
X45942D01*
X46022Y32486D02*
Y32726D01*
X46262D01*
Y32486D01*
X46022D01*
X45542Y32406D02*
Y32806D01*
X45942D01*
Y32406D01*
X45542D01*
X45622Y32486D02*
Y32726D01*
X45862D01*
Y32486D01*
X45622D01*
X45142Y32406D02*
Y32806D01*
X45542D01*
Y32406D01*
X45142D01*
X45222Y32486D02*
Y32726D01*
X45462D01*
Y32486D01*
X45222D01*
X45142Y32806D02*
Y33206D01*
X45542D01*
Y32806D01*
X45142D01*
X45222Y32886D02*
Y33126D01*
X45462D01*
Y32886D01*
X45222D01*
X45542Y32806D02*
Y33206D01*
X45942D01*
Y32806D01*
X45542D01*
X45622Y32886D02*
Y33126D01*
X45862D01*
Y32886D01*
X45622D01*
X45542Y33206D02*
Y33606D01*
X45942D01*
Y33206D01*
X45542D01*
X45622Y33286D02*
Y33526D01*
X45862D01*
Y33286D01*
X45622D01*
X45142Y33206D02*
Y33606D01*
X45542D01*
Y33206D01*
X45142D01*
X45222Y33286D02*
Y33526D01*
X45462D01*
Y33286D01*
X45222D01*
X45142Y33606D02*
Y34006D01*
X45542D01*
Y33606D01*
X45142D01*
X45222Y33686D02*
Y33926D01*
X45462D01*
Y33686D01*
X45222D01*
X45542Y33606D02*
Y34006D01*
X45942D01*
Y33606D01*
X45542D01*
X45622Y33686D02*
Y33926D01*
X45862D01*
Y33686D01*
X45622D01*
X46342Y33606D02*
Y34006D01*
X46742D01*
Y33606D01*
X46342D01*
X46422Y33686D02*
Y33926D01*
X46662D01*
Y33686D01*
X46422D01*
X46742Y33606D02*
Y34006D01*
X47142D01*
Y33606D01*
X46742D01*
X46822Y33686D02*
Y33926D01*
X47062D01*
Y33686D01*
X46822D01*
X46742Y33206D02*
Y33606D01*
X47142D01*
Y33206D01*
X46742D01*
X46822Y33286D02*
Y33526D01*
X47062D01*
Y33286D01*
X46822D01*
X46342Y33206D02*
Y33606D01*
X46742D01*
Y33206D01*
X46342D01*
X46422Y33286D02*
Y33526D01*
X46662D01*
Y33286D01*
X46422D01*
X46342Y32806D02*
Y33206D01*
X46742D01*
Y32806D01*
X46342D01*
X46422Y32886D02*
Y33126D01*
X46662D01*
Y32886D01*
X46422D01*
X46742Y32806D02*
Y33206D01*
X47142D01*
Y32806D01*
X46742D01*
X46822Y32886D02*
Y33126D01*
X47062D01*
Y32886D01*
X46822D01*
X46742Y32406D02*
Y32806D01*
X47142D01*
Y32406D01*
X46742D01*
X46822Y32486D02*
Y32726D01*
X47062D01*
Y32486D01*
X46822D01*
X46342Y32406D02*
Y32806D01*
X46742D01*
Y32406D01*
X46342D01*
X46422Y32486D02*
Y32726D01*
X46662D01*
Y32486D01*
X46422D01*
X42359Y27615D02*
Y28015D01*
X42759D01*
Y27615D01*
X42359D01*
X42439Y27695D02*
Y27935D01*
X42679D01*
Y27695D01*
X42439D01*
X42359Y28015D02*
Y28415D01*
X42759D01*
Y28015D01*
X42359D01*
X42439Y28095D02*
Y28335D01*
X42679D01*
Y28095D01*
X42439D01*
X42359Y27215D02*
Y27615D01*
X42759D01*
Y27215D01*
X42359D01*
X42439Y27295D02*
Y27535D01*
X42679D01*
Y27295D01*
X42439D01*
X42359Y26815D02*
Y27215D01*
X42759D01*
Y26815D01*
X42359D01*
X42439Y26895D02*
Y27135D01*
X42679D01*
Y26895D01*
X42439D01*
X41959Y26815D02*
Y27215D01*
X42359D01*
Y26815D01*
X41959D01*
X42039Y26895D02*
Y27135D01*
X42279D01*
Y26895D01*
X42039D01*
X41559Y26815D02*
Y27215D01*
X41959D01*
Y26815D01*
X41559D01*
X41639Y26895D02*
Y27135D01*
X41879D01*
Y26895D01*
X41639D01*
X41559Y27215D02*
Y27615D01*
X41959D01*
Y27215D01*
X41559D01*
X41639Y27295D02*
Y27535D01*
X41879D01*
Y27295D01*
X41639D01*
X41959Y27215D02*
Y27615D01*
X42359D01*
Y27215D01*
X41959D01*
X42039Y27295D02*
Y27535D01*
X42279D01*
Y27295D01*
X42039D01*
X41959Y27615D02*
Y28015D01*
X42359D01*
Y27615D01*
X41959D01*
X42039Y27695D02*
Y27935D01*
X42279D01*
Y27695D01*
X42039D01*
X41559Y27615D02*
Y28015D01*
X41959D01*
Y27615D01*
X41559D01*
X41639Y27695D02*
Y27935D01*
X41879D01*
Y27695D01*
X41639D01*
X41559Y28015D02*
Y28415D01*
X41959D01*
Y28015D01*
X41559D01*
X41639Y28095D02*
Y28335D01*
X41879D01*
Y28095D01*
X41639D01*
X41959Y28015D02*
Y28415D01*
X42359D01*
Y28015D01*
X41959D01*
X42039Y28095D02*
Y28335D01*
X42279D01*
Y28095D01*
X42039D01*
X42759Y28015D02*
Y28415D01*
X43159D01*
Y28015D01*
X42759D01*
X42839Y28095D02*
Y28335D01*
X43079D01*
Y28095D01*
X42839D01*
X43159Y28015D02*
Y28415D01*
X43559D01*
Y28015D01*
X43159D01*
X43239Y28095D02*
Y28335D01*
X43479D01*
Y28095D01*
X43239D01*
X43159Y27615D02*
Y28015D01*
X43559D01*
Y27615D01*
X43159D01*
X43239Y27695D02*
Y27935D01*
X43479D01*
Y27695D01*
X43239D01*
X42759Y27615D02*
Y28015D01*
X43159D01*
Y27615D01*
X42759D01*
X42839Y27695D02*
Y27935D01*
X43079D01*
Y27695D01*
X42839D01*
X42759Y27215D02*
Y27615D01*
X43159D01*
Y27215D01*
X42759D01*
X42839Y27295D02*
Y27535D01*
X43079D01*
Y27295D01*
X42839D01*
X43159Y27215D02*
Y27615D01*
X43559D01*
Y27215D01*
X43159D01*
X43239Y27295D02*
Y27535D01*
X43479D01*
Y27295D01*
X43239D01*
X43159Y26815D02*
Y27215D01*
X43559D01*
Y26815D01*
X43159D01*
X43239Y26895D02*
Y27135D01*
X43479D01*
Y26895D01*
X43239D01*
X42759Y26815D02*
Y27215D01*
X43159D01*
Y26815D01*
X42759D01*
X42839Y26895D02*
Y27135D01*
X43079D01*
Y26895D01*
X42839D01*
X42440Y23800D02*
Y24200D01*
X42840D01*
Y23800D01*
X42440D01*
X42520Y23880D02*
Y24120D01*
X42760D01*
Y23880D01*
X42520D01*
Y23160D02*
Y23560D01*
X42920D01*
Y23160D01*
X42520D01*
X42600Y23240D02*
Y23480D01*
X42840D01*
Y23240D01*
X42600D01*
X43520Y22750D02*
Y23150D01*
X43920D01*
Y22750D01*
X43520D01*
X43600Y22830D02*
Y23070D01*
X43840D01*
Y22830D01*
X43600D01*
X44020Y22760D02*
Y23160D01*
X44420D01*
Y22760D01*
X44020D01*
X44100Y22840D02*
Y23080D01*
X44340D01*
Y22840D01*
X44100D01*
X15230Y19330D02*
Y19730D01*
X15630D01*
Y19330D01*
X15230D01*
X15310Y19410D02*
Y19650D01*
X15550D01*
Y19410D01*
X15310D01*
X15300Y19850D02*
Y20250D01*
X15700D01*
Y19850D01*
X15300D01*
X15380Y19930D02*
Y20170D01*
X15620D01*
Y19930D01*
X15380D01*
X32050Y31850D02*
Y32250D01*
X32450D01*
Y31850D01*
X32050D01*
X32130Y31930D02*
Y32170D01*
X32370D01*
Y31930D01*
X32130D01*
X23750Y31500D02*
Y31900D01*
X24150D01*
Y31500D01*
X23750D01*
X23830Y31580D02*
Y31820D01*
X24070D01*
Y31580D01*
X23830D01*
X25200Y32500D02*
Y32900D01*
X25600D01*
Y32500D01*
X25200D01*
X25280Y32580D02*
Y32820D01*
X25520D01*
Y32580D01*
X25280D01*
X24889Y31769D02*
Y32169D01*
X25289D01*
Y31769D01*
X24889D01*
X24969Y31848D02*
Y32088D01*
X25209D01*
Y31848D01*
X24969D01*
X40170Y31180D02*
Y31580D01*
X40570D01*
Y31180D01*
X40170D01*
X40250Y31260D02*
Y31500D01*
X40490D01*
Y31260D01*
X40250D01*
X42020Y32380D02*
Y32780D01*
X42420D01*
Y32380D01*
X42020D01*
X42100Y32460D02*
Y32700D01*
X42340D01*
Y32460D01*
X42100D01*
X43090Y31840D02*
Y32240D01*
X43490D01*
Y31840D01*
X43090D01*
X43170Y31920D02*
Y32160D01*
X43410D01*
Y31920D01*
X43170D01*
X40620Y34450D02*
Y34850D01*
X41020D01*
Y34450D01*
X40620D01*
X40700Y34530D02*
Y34770D01*
X40940D01*
Y34530D01*
X40700D01*
X42470Y34280D02*
Y34680D01*
X42870D01*
Y34280D01*
X42470D01*
X42550Y34360D02*
Y34600D01*
X42790D01*
Y34360D01*
X42550D01*
X42460Y31960D02*
X42260Y32360D01*
X42660D01*
X42460Y31960D01*
Y32040D02*
X42340Y32280D01*
X42580D01*
X42460Y32040D01*
X43686Y35416D02*
Y35816D01*
X44086D01*
Y35416D01*
X43686D01*
X43766Y35496D02*
Y35736D01*
X44006D01*
Y35496D01*
X43766D01*
X41830Y35940D02*
X41930Y36040D01*
X42030D01*
X41930Y36140D01*
X42030Y36240D01*
X41930D01*
X41830Y36340D01*
X41730Y36240D01*
X41630D01*
X41730Y36140D01*
X41630Y36040D01*
X41730D01*
X41830Y35940D01*
Y36020D02*
X41890Y36080D01*
X41950D01*
X41890Y36140D01*
X41950Y36200D01*
X41890D01*
X41830Y36260D01*
X41770Y36200D01*
X41710D01*
X41770Y36140D01*
X41710Y36080D01*
X41770D01*
X41830Y36020D01*
X43940Y31180D02*
Y31580D01*
X44340D01*
Y31180D01*
X43940D01*
X44020Y31260D02*
Y31500D01*
X44260D01*
Y31260D01*
X44020D01*
X42055Y31180D02*
Y31580D01*
X42455D01*
Y31180D01*
X42055D01*
X42135Y31260D02*
Y31500D01*
X42375D01*
Y31260D01*
X42135D01*
X35900Y31600D02*
Y32000D01*
X36300D01*
Y31600D01*
X35900D01*
X35980Y31680D02*
Y31920D01*
X36220D01*
Y31680D01*
X35980D01*
X38285Y31180D02*
Y31580D01*
X38685D01*
Y31180D01*
X38285D01*
X38365Y31260D02*
Y31500D01*
X38605D01*
Y31260D01*
X38365D01*
X41826Y34796D02*
X41926Y34896D01*
X42026D01*
X41926Y34996D01*
X42026Y35096D01*
X41926D01*
X41826Y35196D01*
X41726Y35096D01*
X41626D01*
X41726Y34996D01*
X41626Y34896D01*
X41726D01*
X41826Y34796D01*
Y34876D02*
X41886Y34936D01*
X41946D01*
X41886Y34996D01*
X41946Y35056D01*
X41886D01*
X41826Y35116D01*
X41766Y35056D01*
X41706D01*
X41766Y34996D01*
X41706Y34936D01*
X41766D01*
X41826Y34876D01*
X32170Y12280D02*
Y12680D01*
X32570D01*
Y12280D01*
X32170D01*
X32250Y12360D02*
Y12600D01*
X32490D01*
Y12360D01*
X32250D01*
X31210Y12280D02*
Y12680D01*
X31610D01*
Y12280D01*
X31210D01*
X31290Y12360D02*
Y12600D01*
X31530D01*
Y12360D01*
X31290D01*
X30350Y12280D02*
Y12680D01*
X30750D01*
Y12280D01*
X30350D01*
X30430Y12360D02*
Y12600D01*
X30670D01*
Y12360D01*
X30430D01*
X21270Y12280D02*
Y12680D01*
X21670D01*
Y12280D01*
X21270D01*
X21350Y12360D02*
Y12600D01*
X21590D01*
Y12360D01*
X21350D01*
X33700Y13550D02*
Y13950D01*
X34100D01*
Y13550D01*
X33700D01*
X33780Y13630D02*
Y13870D01*
X34020D01*
Y13630D01*
X33780D01*
X13780Y11980D02*
Y12380D01*
X14180D01*
Y11980D01*
X13780D01*
X13860Y12060D02*
Y12300D01*
X14100D01*
Y12060D01*
X13860D01*
X17270Y28560D02*
Y28960D01*
X17670D01*
Y28560D01*
X17270D01*
X17350Y28640D02*
Y28880D01*
X17590D01*
Y28640D01*
X17350D01*
X14180Y29170D02*
Y29570D01*
X14580D01*
Y29170D01*
X14180D01*
X14260Y29250D02*
Y29490D01*
X14500D01*
Y29250D01*
X14260D01*
X20080Y31080D02*
Y31480D01*
X20480D01*
Y31080D01*
X20080D01*
X20160Y31160D02*
Y31400D01*
X20400D01*
Y31160D01*
X20160D01*
X17100Y33550D02*
Y33950D01*
X17500D01*
Y33550D01*
X17100D01*
X17180Y33630D02*
Y33870D01*
X17420D01*
Y33630D01*
X17180D01*
X24396Y24032D02*
Y24432D01*
X24796D01*
Y24032D01*
X24396D01*
X24476Y24112D02*
Y24352D01*
X24716D01*
Y24112D01*
X24476D01*
X29800Y22900D02*
Y23300D01*
X30200D01*
Y22900D01*
X29800D01*
X29880Y22980D02*
Y23220D01*
X30120D01*
Y22980D01*
X29880D01*
X31463Y19318D02*
Y19718D01*
X31863D01*
Y19318D01*
X31463D01*
X31543Y19398D02*
Y19638D01*
X31783D01*
Y19398D01*
X31543D01*
X23727Y25607D02*
Y26007D01*
X24127D01*
Y25607D01*
X23727D01*
X23807Y25687D02*
Y25927D01*
X24047D01*
Y25687D01*
X23807D01*
X24249Y24633D02*
Y25033D01*
X24649D01*
Y24633D01*
X24249D01*
X24329Y24713D02*
Y24953D01*
X24569D01*
Y24713D01*
X24329D01*
X23599Y24997D02*
Y25397D01*
X23999D01*
Y24997D01*
X23599D01*
X23679Y25077D02*
Y25317D01*
X23919D01*
Y25077D01*
X23679D01*
X26014Y22763D02*
Y23163D01*
X26414D01*
Y22763D01*
X26014D01*
X26094Y22843D02*
Y23083D01*
X26334D01*
Y22843D01*
X26094D01*
X26887Y27280D02*
Y27680D01*
X27287D01*
Y27280D01*
X26887D01*
X26967Y27360D02*
Y27600D01*
X27207D01*
Y27360D01*
X26967D01*
X26611Y22871D02*
Y23271D01*
X27011D01*
Y22871D01*
X26611D01*
X26691Y22951D02*
Y23191D01*
X26931D01*
Y22951D01*
X26691D01*
X27083Y22556D02*
Y22956D01*
X27483D01*
Y22556D01*
X27083D01*
X27163Y22636D02*
Y22876D01*
X27403D01*
Y22636D01*
X27163D01*
X27595Y22438D02*
Y22838D01*
X27995D01*
Y22438D01*
X27595D01*
X27675Y22518D02*
Y22758D01*
X27915D01*
Y22518D01*
X27675D01*
X27162Y23619D02*
Y24019D01*
X27562D01*
Y23619D01*
X27162D01*
X27242Y23699D02*
Y23939D01*
X27482D01*
Y23699D01*
X27242D01*
X27162Y24131D02*
Y24531D01*
X27562D01*
Y24131D01*
X27162D01*
X27242Y24211D02*
Y24451D01*
X27482D01*
Y24211D01*
X27242D01*
X27161Y27626D02*
Y28026D01*
X27561D01*
Y27626D01*
X27161D01*
X27241Y27706D02*
Y27946D01*
X27481D01*
Y27706D01*
X27241D01*
X10509Y16296D02*
Y16696D01*
X10909D01*
Y16296D01*
X10509D01*
X10589Y16376D02*
Y16616D01*
X10829D01*
Y16376D01*
X10589D01*
X19524Y16060D02*
Y16460D01*
X19924D01*
Y16060D01*
X19524D01*
X19604Y16140D02*
Y16380D01*
X19844D01*
Y16140D01*
X19604D01*
X34134Y12674D02*
X34234Y12774D01*
X34334D01*
X34234Y12874D01*
X34334Y12974D01*
X34234D01*
X34134Y13074D01*
X34034Y12974D01*
X33934D01*
X34034Y12874D01*
X33934Y12774D01*
X34034D01*
X34134Y12674D01*
Y12754D02*
X34194Y12814D01*
X34254D01*
X34194Y12874D01*
X34254Y12934D01*
X34194D01*
X34134Y12994D01*
X34074Y12934D01*
X34014D01*
X34074Y12874D01*
X34014Y12814D01*
X34074D01*
X34134Y12754D01*
X35630Y12674D02*
X35730Y12774D01*
X35830D01*
X35730Y12874D01*
X35830Y12974D01*
X35730D01*
X35630Y13074D01*
X35530Y12974D01*
X35430D01*
X35530Y12874D01*
X35430Y12774D01*
X35530D01*
X35630Y12674D01*
Y12754D02*
X35690Y12814D01*
X35750D01*
X35690Y12874D01*
X35750Y12934D01*
X35690D01*
X35630Y12994D01*
X35570Y12934D01*
X35510D01*
X35570Y12874D01*
X35510Y12814D01*
X35570D01*
X35630Y12754D01*
X34091Y10863D02*
Y11263D01*
X34491D01*
Y10863D01*
X34091D01*
X34171Y10943D02*
Y11183D01*
X34411D01*
Y10943D01*
X34171D01*
X35194Y10863D02*
Y11263D01*
X35594D01*
Y10863D01*
X35194D01*
X35274Y10943D02*
Y11183D01*
X35514D01*
Y10943D01*
X35274D01*
X35194Y10469D02*
Y10869D01*
X35594D01*
Y10469D01*
X35194D01*
X35274Y10549D02*
Y10789D01*
X35514D01*
Y10549D01*
X35274D01*
X34826Y10469D02*
Y10869D01*
X35226D01*
Y10469D01*
X34826D01*
X34906Y10549D02*
Y10789D01*
X35146D01*
Y10549D01*
X34906D01*
X34459Y10469D02*
Y10869D01*
X34859D01*
Y10469D01*
X34459D01*
X34539Y10549D02*
Y10789D01*
X34779D01*
Y10549D01*
X34539D01*
X34091Y10469D02*
Y10869D01*
X34491D01*
Y10469D01*
X34091D01*
X34171Y10549D02*
Y10789D01*
X34411D01*
Y10549D01*
X34171D01*
X42083Y18107D02*
Y18507D01*
X42483D01*
Y18107D01*
X42083D01*
X42163Y18187D02*
Y18427D01*
X42403D01*
Y18187D01*
X42163D01*
X42083Y18461D02*
Y18861D01*
X42483D01*
Y18461D01*
X42083D01*
X42163Y18541D02*
Y18781D01*
X42403D01*
Y18541D01*
X42163D01*
X42083Y18816D02*
Y19216D01*
X42483D01*
Y18816D01*
X42083D01*
X42163Y18896D02*
Y19136D01*
X42403D01*
Y18896D01*
X42163D01*
X41664Y18816D02*
Y19216D01*
X42064D01*
Y18816D01*
X41664D01*
X41744Y18896D02*
Y19136D01*
X41984D01*
Y18896D01*
X41744D01*
X41244Y18816D02*
Y19216D01*
X41644D01*
Y18816D01*
X41244D01*
X41324Y18896D02*
Y19136D01*
X41564D01*
Y18896D01*
X41324D01*
X40824Y18816D02*
Y19216D01*
X41224D01*
Y18816D01*
X40824D01*
X40904Y18896D02*
Y19136D01*
X41144D01*
Y18896D01*
X40904D01*
X40824Y18461D02*
Y18861D01*
X41224D01*
Y18461D01*
X40824D01*
X40904Y18541D02*
Y18781D01*
X41144D01*
Y18541D01*
X40904D01*
X40824Y18107D02*
Y18507D01*
X41224D01*
Y18107D01*
X40824D01*
X40904Y18187D02*
Y18427D01*
X41144D01*
Y18187D01*
X40904D01*
X48826Y17595D02*
Y17995D01*
X49226D01*
Y17595D01*
X48826D01*
X48906Y17675D02*
Y17915D01*
X49146D01*
Y17675D01*
X48906D01*
X48422Y17595D02*
Y17995D01*
X48822D01*
Y17595D01*
X48422D01*
X48502Y17675D02*
Y17915D01*
X48742D01*
Y17675D01*
X48502D01*
X48018Y17595D02*
Y17995D01*
X48418D01*
Y17595D01*
X48018D01*
X48099Y17675D02*
Y17915D01*
X48338D01*
Y17675D01*
X48099D01*
X49633Y17595D02*
Y17995D01*
X50033D01*
Y17595D01*
X49633D01*
X49713Y17675D02*
Y17915D01*
X49953D01*
Y17675D01*
X49713D01*
X48826Y18816D02*
Y19216D01*
X49226D01*
Y18816D01*
X48826D01*
X48906Y18896D02*
Y19136D01*
X49146D01*
Y18896D01*
X48906D01*
X31296Y22713D02*
Y23113D01*
X31696D01*
Y22713D01*
X31296D01*
X31376Y22793D02*
Y23033D01*
X31616D01*
Y22793D01*
X31376D01*
X29091Y22320D02*
Y22720D01*
X29491D01*
Y22320D01*
X29091D01*
X29171Y22400D02*
Y22640D01*
X29411D01*
Y22400D01*
X29171D01*
X30194Y23196D02*
Y23596D01*
X30594D01*
Y23196D01*
X30194D01*
X30274Y23276D02*
Y23516D01*
X30514D01*
Y23276D01*
X30274D01*
X48018Y18383D02*
Y18783D01*
X48418D01*
Y18383D01*
X48018D01*
X48099Y18463D02*
Y18703D01*
X48338D01*
Y18463D01*
X48099D01*
X48018Y18776D02*
Y19176D01*
X48418D01*
Y18776D01*
X48018D01*
X48099Y18856D02*
Y19096D01*
X48338D01*
Y18856D01*
X48099D01*
X48422Y18796D02*
Y19196D01*
X48822D01*
Y18796D01*
X48422D01*
X48502Y18876D02*
Y19116D01*
X48742D01*
Y18876D01*
X48502D01*
X49229Y18796D02*
Y19196D01*
X49629D01*
Y18796D01*
X49229D01*
X49309Y18876D02*
Y19116D01*
X49549D01*
Y18876D01*
X49309D01*
X49633Y18796D02*
Y19196D01*
X50033D01*
Y18796D01*
X49633D01*
X49713Y18876D02*
Y19116D01*
X49953D01*
Y18876D01*
X49713D01*
X49633Y18396D02*
Y18796D01*
X50033D01*
Y18396D01*
X49633D01*
X49713Y18476D02*
Y18716D01*
X49953D01*
Y18476D01*
X49713D01*
X49633Y17996D02*
Y18396D01*
X50033D01*
Y17996D01*
X49633D01*
X49713Y18076D02*
Y18316D01*
X49953D01*
Y18076D01*
X49713D01*
X49229Y17595D02*
Y17995D01*
X49629D01*
Y17595D01*
X49229D01*
X49309Y17675D02*
Y17915D01*
X49549D01*
Y17675D01*
X49309D01*
X48018Y17989D02*
Y18389D01*
X48418D01*
Y17989D01*
X48018D01*
X48099Y18069D02*
Y18309D01*
X48338D01*
Y18069D01*
X48099D01*
X40312Y18934D02*
Y19334D01*
X40712D01*
Y18934D01*
X40312D01*
X40392Y19014D02*
Y19254D01*
X40632D01*
Y19014D01*
X40392D01*
X39890Y31923D02*
X39990Y32023D01*
X40090D01*
X39990Y32123D01*
X40090Y32223D01*
X39990D01*
X39890Y32323D01*
X39790Y32223D01*
X39690D01*
X39790Y32123D01*
X39690Y32023D01*
X39790D01*
X39890Y31923D01*
Y32003D02*
X39950Y32063D01*
X40010D01*
X39950Y32123D01*
X40010Y32183D01*
X39950D01*
X39890Y32243D01*
X39830Y32183D01*
X39770D01*
X39830Y32123D01*
X39770Y32063D01*
X39830D01*
X39890Y32003D01*
X43550Y34900D02*
Y35300D01*
X43950D01*
Y34900D01*
X43550D01*
X43630Y34980D02*
Y35220D01*
X43870D01*
Y34980D01*
X43630D01*
X46575Y36611D02*
X46375Y37011D01*
X46775D01*
X46575Y36611D01*
Y36691D02*
X46455Y36931D01*
X46695D01*
X46575Y36691D01*
X41847Y25469D02*
Y25869D01*
X42247D01*
Y25469D01*
X41847D01*
X41927Y25549D02*
Y25789D01*
X42167D01*
Y25549D01*
X41927D01*
X40824Y25666D02*
Y26066D01*
X41224D01*
Y25666D01*
X40824D01*
X40904Y25746D02*
Y25986D01*
X41144D01*
Y25746D01*
X40904D01*
X40824Y26060D02*
Y26460D01*
X41224D01*
Y26060D01*
X40824D01*
X40904Y26140D02*
Y26380D01*
X41144D01*
Y26140D01*
X40904D01*
X41178Y25469D02*
Y25869D01*
X41578D01*
Y25469D01*
X41178D01*
X41258Y25549D02*
Y25789D01*
X41498D01*
Y25549D01*
X41258D01*
X41178Y26257D02*
Y26657D01*
X41578D01*
Y26257D01*
X41178D01*
X41258Y26337D02*
Y26577D01*
X41498D01*
Y26337D01*
X41258D01*
X41178Y25863D02*
Y26263D01*
X41578D01*
Y25863D01*
X41178D01*
X41258Y25943D02*
Y26183D01*
X41498D01*
Y25943D01*
X41258D01*
X41611Y25233D02*
Y25633D01*
X42011D01*
Y25233D01*
X41611D01*
X41691Y25313D02*
Y25553D01*
X41931D01*
Y25313D01*
X41691D01*
X42123Y25233D02*
Y25633D01*
X42523D01*
Y25233D01*
X42123D01*
X42203Y25313D02*
Y25553D01*
X42443D01*
Y25313D01*
X42203D01*
X42832Y25469D02*
Y25869D01*
X43232D01*
Y25469D01*
X42832D01*
X42912Y25549D02*
Y25789D01*
X43151D01*
Y25549D01*
X42912D01*
X42595Y25233D02*
Y25633D01*
X42995D01*
Y25233D01*
X42595D01*
X42675Y25313D02*
Y25553D01*
X42915D01*
Y25313D01*
X42675D01*
X42359Y25469D02*
Y25869D01*
X42759D01*
Y25469D01*
X42359D01*
X42439Y25549D02*
Y25789D01*
X42679D01*
Y25549D01*
X42439D01*
X46178Y31139D02*
Y31539D01*
X46578D01*
Y31139D01*
X46178D01*
X46258Y31219D02*
Y31459D01*
X46498D01*
Y31219D01*
X46258D01*
X45706Y31139D02*
Y31539D01*
X46106D01*
Y31139D01*
X45706D01*
X45786Y31219D02*
Y31459D01*
X46026D01*
Y31219D01*
X45786D01*
X45194Y31139D02*
Y31539D01*
X45594D01*
Y31139D01*
X45194D01*
X45274Y31219D02*
Y31459D01*
X45514D01*
Y31219D01*
X45274D01*
X44721Y31217D02*
Y31617D01*
X45121D01*
Y31217D01*
X44721D01*
X44801Y31297D02*
Y31537D01*
X45041D01*
Y31297D01*
X44801D01*
X44721Y31532D02*
Y31932D01*
X45121D01*
Y31532D01*
X44721D01*
X44801Y31612D02*
Y31852D01*
X45041D01*
Y31612D01*
X44801D01*
X44721Y31847D02*
Y32247D01*
X45121D01*
Y31847D01*
X44721D01*
X44801Y31927D02*
Y32167D01*
X45041D01*
Y31927D01*
X44801D01*
X44249Y26178D02*
Y26578D01*
X44649D01*
Y26178D01*
X44249D01*
X44329Y26258D02*
Y26498D01*
X44569D01*
Y26258D01*
X44329D01*
X44470Y16000D02*
Y16400D01*
X44870D01*
Y16000D01*
X44470D01*
X44550Y16080D02*
Y16320D01*
X44790D01*
Y16080D01*
X44550D01*
X45312Y15942D02*
Y16342D01*
X45712D01*
Y15942D01*
X45312D01*
X45392Y16022D02*
Y16262D01*
X45632D01*
Y16022D01*
X45392D01*
X44209Y14839D02*
Y15239D01*
X44609D01*
Y14839D01*
X44209D01*
X44289Y14919D02*
Y15159D01*
X44529D01*
Y14919D01*
X44289D01*
X45548Y14800D02*
Y15200D01*
X45948D01*
Y14800D01*
X45548D01*
X45628Y14880D02*
Y15120D01*
X45868D01*
Y14880D01*
X45628D01*
X45666Y14288D02*
Y14688D01*
X46066D01*
Y14288D01*
X45666D01*
X45746Y14368D02*
Y14608D01*
X45986D01*
Y14368D01*
X45746D01*
X44052Y14288D02*
Y14688D01*
X44452D01*
Y14288D01*
X44052D01*
X44132Y14368D02*
Y14608D01*
X44372D01*
Y14368D01*
X44132D01*
X43855Y16414D02*
Y16814D01*
X44255D01*
Y16414D01*
X43855D01*
X43935Y16494D02*
Y16734D01*
X44175D01*
Y16494D01*
X43935D01*
X47162Y15469D02*
Y15869D01*
X47562D01*
Y15469D01*
X47162D01*
X47242Y15549D02*
Y15789D01*
X47482D01*
Y15549D01*
X47242D01*
X46320Y17170D02*
Y17570D01*
X46720D01*
Y17170D01*
X46320D01*
X46400Y17250D02*
Y17490D01*
X46640D01*
Y17250D01*
X46400D01*
X45690Y17170D02*
Y17570D01*
X46090D01*
Y17170D01*
X45690D01*
X45770Y17250D02*
Y17490D01*
X46010D01*
Y17250D01*
X45770D01*
X46830Y19240D02*
Y19640D01*
X47230D01*
Y19240D01*
X46830D01*
X46910Y19320D02*
Y19560D01*
X47150D01*
Y19320D01*
X46910D01*
X46410Y19100D02*
Y19500D01*
X46810D01*
Y19100D01*
X46410D01*
X46490Y19180D02*
Y19420D01*
X46730D01*
Y19180D01*
X46490D01*
X45610Y19100D02*
Y19500D01*
X46010D01*
Y19100D01*
X45610D01*
X45690Y19180D02*
Y19420D01*
X45930D01*
Y19180D01*
X45690D01*
X45160Y19300D02*
Y19700D01*
X45560D01*
Y19300D01*
X45160D01*
X45240Y19380D02*
Y19620D01*
X45480D01*
Y19380D01*
X45240D01*
X47250Y20040D02*
Y20440D01*
X47650D01*
Y20040D01*
X47250D01*
X47330Y20120D02*
Y20360D01*
X47570D01*
Y20120D01*
X47330D01*
X44880Y19560D02*
Y19960D01*
X45280D01*
Y19560D01*
X44880D01*
X44960Y19640D02*
Y19880D01*
X45200D01*
Y19640D01*
X44960D01*
X50204Y21552D02*
Y21952D01*
X50604D01*
Y21552D01*
X50204D01*
X50284Y21632D02*
Y21872D01*
X50524D01*
Y21632D01*
X50284D01*
X48461Y21139D02*
Y21539D01*
X48861D01*
Y21139D01*
X48461D01*
X48541Y21219D02*
Y21459D01*
X48781D01*
Y21219D01*
X48541D01*
X49013Y21139D02*
Y21539D01*
X49413D01*
Y21139D01*
X49013D01*
X49093Y21219D02*
Y21459D01*
X49333D01*
Y21219D01*
X49093D01*
X49682Y20548D02*
Y20948D01*
X50082D01*
Y20548D01*
X49682D01*
X49762Y20628D02*
Y20868D01*
X50002D01*
Y20628D01*
X49762D01*
X49209Y20036D02*
Y20436D01*
X49609D01*
Y20036D01*
X49209D01*
X49289Y20116D02*
Y20356D01*
X49529D01*
Y20116D01*
X49289D01*
X48422Y20036D02*
Y20436D01*
X48822D01*
Y20036D01*
X48422D01*
X48502Y20116D02*
Y20356D01*
X48742D01*
Y20116D01*
X48502D01*
X48816Y20036D02*
Y20436D01*
X49216D01*
Y20036D01*
X48816D01*
X48896Y20116D02*
Y20356D01*
X49136D01*
Y20116D01*
X48896D01*
X47950Y20587D02*
Y20987D01*
X48350D01*
Y20587D01*
X47950D01*
X48030Y20667D02*
Y20907D01*
X48270D01*
Y20667D01*
X48030D01*
X47300Y24200D02*
Y24600D01*
X47700D01*
Y24200D01*
X47300D01*
X47380Y24280D02*
Y24520D01*
X47620D01*
Y24280D01*
X47380D01*
X45800Y24710D02*
Y25110D01*
X46200D01*
Y24710D01*
X45800D01*
X45880Y24790D02*
Y25030D01*
X46120D01*
Y24790D01*
X45880D01*
X46700Y22790D02*
Y23190D01*
X47100D01*
Y22790D01*
X46700D01*
X46780Y22870D02*
Y23110D01*
X47020D01*
Y22870D01*
X46780D01*
X46430Y22680D02*
Y23080D01*
X46830D01*
Y22680D01*
X46430D01*
X46510Y22760D02*
Y23000D01*
X46750D01*
Y22760D01*
X46510D01*
X45610Y22690D02*
Y23090D01*
X46010D01*
Y22690D01*
X45610D01*
X45690Y22770D02*
Y23010D01*
X45930D01*
Y22770D01*
X45690D01*
X45330Y22820D02*
Y23220D01*
X45730D01*
Y22820D01*
X45330D01*
X45410Y22900D02*
Y23140D01*
X45650D01*
Y22900D01*
X45410D01*
X40669Y21926D02*
X40469Y22326D01*
X40869D01*
X40669Y21926D01*
Y22006D02*
X40549Y22246D01*
X40789D01*
X40669Y22006D01*
X35131Y23960D02*
Y24360D01*
X35531D01*
Y23960D01*
X35131D01*
X35211Y24040D02*
Y24280D01*
X35451D01*
Y24040D01*
X35211D01*
X34249Y29131D02*
Y29531D01*
X34649D01*
Y29131D01*
X34249D01*
X34329Y29211D02*
Y29451D01*
X34569D01*
Y29211D01*
X34329D01*
X38325Y36730D02*
Y37130D01*
X38725D01*
Y36730D01*
X38325D01*
X38405Y36810D02*
Y37050D01*
X38645D01*
Y36810D01*
X38405D01*
X40930Y32400D02*
X41030Y32600D01*
X40930Y32800D01*
X41130Y32700D01*
X41330Y32800D01*
X41230Y32600D01*
X41330Y32400D01*
X41130Y32500D01*
X40930Y32400D01*
X41010Y32480D02*
X41070Y32600D01*
X41010Y32720D01*
X41130Y32660D01*
X41250Y32720D01*
X41190Y32600D01*
X41250Y32480D01*
X41130Y32540D01*
X41010Y32480D01*
X36440Y36730D02*
Y37130D01*
X36840D01*
Y36730D01*
X36440D01*
X36520Y36810D02*
Y37050D01*
X36760D01*
Y36810D01*
X36520D01*
X40210Y36730D02*
Y37130D01*
X40610D01*
Y36730D01*
X40210D01*
X40290Y36810D02*
Y37050D01*
X40530D01*
Y36810D01*
X40290D01*
X42095Y36730D02*
Y37130D01*
X42495D01*
Y36730D01*
X42095D01*
X42175Y36810D02*
Y37050D01*
X42415D01*
Y36810D01*
X42175D01*
X43980Y36730D02*
Y37130D01*
X44380D01*
Y36730D01*
X43980D01*
X44060Y36810D02*
Y37050D01*
X44300D01*
Y36810D01*
X44060D01*
X44800Y30706D02*
Y31106D01*
X45200D01*
Y30706D01*
X44800D01*
X44880Y30786D02*
Y31026D01*
X45120D01*
Y30786D01*
X44880D01*
X44350Y32320D02*
Y32720D01*
X44750D01*
Y32320D01*
X44350D01*
X44430Y32400D02*
Y32640D01*
X44670D01*
Y32400D01*
X44430D01*
X36230Y33920D02*
Y34320D01*
X36630D01*
Y33920D01*
X36230D01*
X36310Y34000D02*
Y34240D01*
X36550D01*
Y34000D01*
X36310D01*
X36230Y32460D02*
Y32860D01*
X36630D01*
Y32460D01*
X36230D01*
X36310Y32540D02*
Y32780D01*
X36550D01*
Y32540D01*
X36310D01*
X36500Y30350D02*
Y30750D01*
X36900D01*
Y30350D01*
X36500D01*
X36580Y30430D02*
Y30670D01*
X36820D01*
Y30430D01*
X36580D01*
X44350Y33915D02*
Y34315D01*
X44750D01*
Y33915D01*
X44350D01*
X44430Y33995D02*
Y34235D01*
X44670D01*
Y33995D01*
X44430D01*
X34938Y30735D02*
Y31135D01*
X35338D01*
Y30735D01*
X34938D01*
X35018Y30815D02*
Y31055D01*
X35258D01*
Y30815D01*
X35018D01*
X36230Y35380D02*
Y35780D01*
X36630D01*
Y35380D01*
X36230D01*
X36310Y35460D02*
Y35700D01*
X36550D01*
Y35460D01*
X36310D01*
X43180Y36080D02*
Y36480D01*
X43580D01*
Y36080D01*
X43180D01*
X43260Y36160D02*
Y36400D01*
X43500D01*
Y36160D01*
X43260D01*
X42596Y36092D02*
Y36492D01*
X42996D01*
Y36092D01*
X42596D01*
X42676Y36172D02*
Y36412D01*
X42916D01*
Y36172D01*
X42676D01*
X44350Y35510D02*
Y35910D01*
X44750D01*
Y35510D01*
X44350D01*
X44430Y35590D02*
Y35830D01*
X44670D01*
Y35590D01*
X44430D01*
X15450Y14957D02*
Y15357D01*
X15850D01*
Y14957D01*
X15450D01*
X15530Y15037D02*
Y15277D01*
X15770D01*
Y15037D01*
X15530D01*
X11010Y14880D02*
Y15280D01*
X11410D01*
Y14880D01*
X11010D01*
X11090Y14960D02*
Y15200D01*
X11330D01*
Y14960D01*
X11090D01*
X14367Y14957D02*
Y15357D01*
X14767D01*
Y14957D01*
X14367D01*
X14447Y15037D02*
Y15277D01*
X14687D01*
Y15037D01*
X14447D01*
X19879Y14957D02*
Y15357D01*
X20279D01*
Y14957D01*
X19879D01*
X19959Y15037D02*
Y15277D01*
X20199D01*
Y15037D01*
X19959D01*
X18894Y14957D02*
Y15357D01*
X19294D01*
Y14957D01*
X18894D01*
X18974Y15037D02*
Y15277D01*
X19214D01*
Y15037D01*
X18974D01*
X28737Y15351D02*
Y15751D01*
X29137D01*
Y15351D01*
X28737D01*
X28817Y15431D02*
Y15671D01*
X29057D01*
Y15431D01*
X28817D01*
X32650Y14200D02*
Y14600D01*
X33050D01*
Y14200D01*
X32650D01*
X32730Y14280D02*
Y14520D01*
X32970D01*
Y14280D01*
X32730D01*
X31690Y17713D02*
Y18113D01*
X32090D01*
Y17713D01*
X31690D01*
X31770Y17793D02*
Y18033D01*
X32010D01*
Y17793D01*
X31770D01*
X29400Y17550D02*
Y17950D01*
X29800D01*
Y17550D01*
X29400D01*
X29480Y17630D02*
Y17870D01*
X29720D01*
Y17630D01*
X29480D01*
X22831Y17713D02*
Y18113D01*
X23231D01*
Y17713D01*
X22831D01*
X22912Y17793D02*
Y18033D01*
X23152D01*
Y17793D01*
X22912D01*
X20550Y17600D02*
Y18000D01*
X20950D01*
Y17600D01*
X20550D01*
X20630Y17680D02*
Y17920D01*
X20870D01*
Y17680D01*
X20630D01*
X18501Y17713D02*
Y18113D01*
X18901D01*
Y17713D01*
X18501D01*
X18581Y17793D02*
Y18033D01*
X18821D01*
Y17793D01*
X18581D01*
X16150Y17600D02*
Y18000D01*
X16550D01*
Y17600D01*
X16150D01*
X16230Y17680D02*
Y17920D01*
X16470D01*
Y17680D01*
X16230D01*
X13973Y17713D02*
Y18113D01*
X14373D01*
Y17713D01*
X13973D01*
X14053Y17793D02*
Y18033D01*
X14293D01*
Y17793D01*
X14053D01*
X11650Y17600D02*
Y18000D01*
X12050D01*
Y17600D01*
X11650D01*
X11730Y17680D02*
Y17920D01*
X11970D01*
Y17680D01*
X11730D01*
X32566Y19042D02*
Y19442D01*
X32966D01*
Y19042D01*
X32566D01*
X32646Y19122D02*
Y19362D01*
X32886D01*
Y19122D01*
X32646D01*
X28501Y24436D02*
Y24836D01*
X28901D01*
Y24436D01*
X28501D01*
X28581Y24516D02*
Y24756D01*
X28821D01*
Y24516D01*
X28581D01*
X31956Y16788D02*
Y17188D01*
X32356D01*
Y16788D01*
X31956D01*
X32036Y16868D02*
Y17108D01*
X32276D01*
Y16868D01*
X32036D01*
X32398Y15312D02*
Y15712D01*
X32798D01*
Y15312D01*
X32398D01*
X32478Y15392D02*
Y15632D01*
X32718D01*
Y15392D01*
X32478D01*
X14436Y15400D02*
Y15800D01*
X14836D01*
Y15400D01*
X14436D01*
X14516Y15480D02*
Y15720D01*
X14756D01*
Y15480D01*
X14516D01*
X15430Y15391D02*
Y15791D01*
X15830D01*
Y15391D01*
X15430D01*
X15510Y15471D02*
Y15711D01*
X15750D01*
Y15471D01*
X15510D01*
X19839Y15391D02*
Y15791D01*
X20239D01*
Y15391D01*
X19839D01*
X19919Y15471D02*
Y15711D01*
X20159D01*
Y15471D01*
X19919D01*
X18894Y15391D02*
Y15791D01*
X19294D01*
Y15391D01*
X18894D01*
X18974Y15471D02*
Y15711D01*
X19214D01*
Y15471D01*
X18974D01*
X13934Y19091D02*
Y19491D01*
X14334D01*
Y19091D01*
X13934D01*
X14014Y19171D02*
Y19411D01*
X14254D01*
Y19171D01*
X14014D01*
X10991Y15391D02*
Y15791D01*
X11391D01*
Y15391D01*
X10991D01*
X11071Y15471D02*
Y15711D01*
X11311D01*
Y15471D01*
X11071D01*
X28461Y15706D02*
Y16106D01*
X28861D01*
Y15706D01*
X28461D01*
X28541Y15786D02*
Y16026D01*
X28781D01*
Y15786D01*
X28541D01*
X33068Y16257D02*
Y16657D01*
X33468D01*
Y16257D01*
X33068D01*
X33148Y16337D02*
Y16577D01*
X33388D01*
Y16337D01*
X33148D01*
X15115Y16326D02*
Y16726D01*
X15515D01*
Y16326D01*
X15115D01*
X15195Y16406D02*
Y16646D01*
X15435D01*
Y16406D01*
X15195D01*
X19524Y16296D02*
Y16696D01*
X19924D01*
Y16296D01*
X19524D01*
X19604Y16376D02*
Y16616D01*
X19844D01*
Y16376D01*
X19604D01*
X34770Y23993D02*
Y24393D01*
X35170D01*
Y23993D01*
X34770D01*
X34850Y24073D02*
Y24313D01*
X35090D01*
Y24073D01*
X34850D01*
X31178Y19013D02*
Y19413D01*
X31578D01*
Y19013D01*
X31178D01*
X31258Y19093D02*
Y19333D01*
X31498D01*
Y19093D01*
X31258D01*
X31887Y18698D02*
Y19098D01*
X32287D01*
Y18698D01*
X31887D01*
X31967Y18778D02*
Y19018D01*
X32207D01*
Y18778D01*
X31967D01*
X31020Y14209D02*
Y14609D01*
X31420D01*
Y14209D01*
X31020D01*
X31100Y14289D02*
Y14529D01*
X31340D01*
Y14289D01*
X31100D01*
X29918Y14209D02*
Y14609D01*
X30318D01*
Y14209D01*
X29918D01*
X29998Y14289D02*
Y14529D01*
X30238D01*
Y14289D01*
X29998D01*
X31375Y14209D02*
Y14609D01*
X31775D01*
Y14209D01*
X31375D01*
X31455Y14289D02*
Y14529D01*
X31695D01*
Y14289D01*
X31455D01*
X29564Y14209D02*
Y14609D01*
X29964D01*
Y14209D01*
X29564D01*
X29644Y14289D02*
Y14529D01*
X29884D01*
Y14289D01*
X29644D01*
X18530Y16857D02*
Y17257D01*
X18930D01*
Y16857D01*
X18530D01*
X18610Y16937D02*
Y17177D01*
X18850D01*
Y16937D01*
X18610D01*
X17910Y28973D02*
Y29373D01*
X18310D01*
Y28973D01*
X17910D01*
X17990Y29053D02*
Y29293D01*
X18230D01*
Y29053D01*
X17990D01*
X23107Y31473D02*
Y31873D01*
X23507D01*
Y31473D01*
X23107D01*
X23187Y31553D02*
Y31793D01*
X23427D01*
Y31553D01*
X23187D01*
X20558Y28038D02*
Y28438D01*
X20958D01*
Y28038D01*
X20558D01*
X20638Y28118D02*
Y28358D01*
X20878D01*
Y28118D01*
X20638D01*
X20253Y26877D02*
Y27277D01*
X20653D01*
Y26877D01*
X20253D01*
X20333Y26957D02*
Y27197D01*
X20573D01*
Y26957D01*
X20333D01*
X15518Y25115D02*
Y25515D01*
X15919D01*
Y25115D01*
X15518D01*
X15598Y25195D02*
Y25435D01*
X15839D01*
Y25195D01*
X15598D01*
X15755Y26011D02*
Y26411D01*
X16155D01*
Y26011D01*
X15755D01*
X15835Y26091D02*
Y26331D01*
X16075D01*
Y26091D01*
X15835D01*
X17054Y21877D02*
Y22277D01*
X17454D01*
Y21877D01*
X17054D01*
X17134Y21957D02*
Y22197D01*
X17374D01*
Y21957D01*
X17134D01*
X16404Y25331D02*
Y25731D01*
X16804D01*
Y25331D01*
X16404D01*
X16484Y25412D02*
Y25652D01*
X16724D01*
Y25412D01*
X16484D01*
X15351Y22379D02*
Y22779D01*
X15751D01*
Y22379D01*
X15351D01*
X15431Y22459D02*
Y22699D01*
X15671D01*
Y22459D01*
X15431D01*
X35094Y26521D02*
Y26921D01*
X35494D01*
Y26521D01*
X35094D01*
X35174Y26601D02*
Y26841D01*
X35414D01*
Y26601D01*
X35174D01*
X35131Y23633D02*
Y24033D01*
X35531D01*
Y23633D01*
X35131D01*
X35211Y23713D02*
Y23953D01*
X35451D01*
Y23713D01*
X35211D01*
X35091Y26843D02*
Y27243D01*
X35491D01*
Y26843D01*
X35091D01*
X35171Y26923D02*
Y27163D01*
X35411D01*
Y26923D01*
X35171D01*
X34721Y26847D02*
Y27247D01*
X35121D01*
Y26847D01*
X34721D01*
X34801Y26927D02*
Y27167D01*
X35041D01*
Y26927D01*
X34801D01*
X24988Y31396D02*
Y31796D01*
X25388D01*
Y31396D01*
X24988D01*
X25068Y31476D02*
Y31716D01*
X25308D01*
Y31476D01*
X25068D01*
X24288Y26414D02*
Y26814D01*
X24688D01*
Y26414D01*
X24288D01*
X24368Y26494D02*
Y26734D01*
X24608D01*
Y26494D01*
X24368D01*
X23915Y26799D02*
Y27199D01*
X24315D01*
Y26799D01*
X23915D01*
X23995Y26879D02*
Y27119D01*
X24235D01*
Y26879D01*
X23995D01*
X29022Y28934D02*
Y29334D01*
X29422D01*
Y28934D01*
X29022D01*
X29102Y29014D02*
Y29254D01*
X29342D01*
Y29014D01*
X29102D01*
X28461Y28845D02*
Y29245D01*
X28861D01*
Y28845D01*
X28461D01*
X28541Y28925D02*
Y29165D01*
X28781D01*
Y28925D01*
X28541D01*
X28069Y28984D02*
Y29385D01*
X28469D01*
Y28984D01*
X28069D01*
X28149Y29065D02*
Y29304D01*
X28389D01*
Y29065D01*
X28149D01*
X28314Y23757D02*
Y24157D01*
X28714D01*
Y23757D01*
X28314D01*
X28394Y23837D02*
Y24077D01*
X28634D01*
Y23837D01*
X28394D01*
X32044Y28599D02*
Y28999D01*
X32444D01*
Y28599D01*
X32044D01*
X32124Y28679D02*
Y28919D01*
X32364D01*
Y28679D01*
X32124D01*
X26926Y29131D02*
Y29531D01*
X27326D01*
Y29131D01*
X26926D01*
X27006Y29211D02*
Y29451D01*
X27246D01*
Y29211D01*
X27006D01*
X23166Y28038D02*
Y28438D01*
X23566D01*
Y28038D01*
X23166D01*
X23246Y28118D02*
Y28358D01*
X23486D01*
Y28118D01*
X23246D01*
X24505Y21188D02*
Y21588D01*
X24905D01*
Y21188D01*
X24505D01*
X24585Y21268D02*
Y21508D01*
X24825D01*
Y21268D01*
X24585D01*
X23384Y20874D02*
Y21274D01*
X23784D01*
Y20874D01*
X23384D01*
X23464Y20954D02*
Y21194D01*
X23704D01*
Y20954D01*
X23464D01*
X27241Y20765D02*
Y21165D01*
X27641D01*
Y20765D01*
X27241D01*
X27321Y20845D02*
Y21085D01*
X27561D01*
Y20845D01*
X27321D01*
X27872Y20381D02*
Y20781D01*
X28272D01*
Y20381D01*
X27872D01*
X27952Y20461D02*
Y20701D01*
X28192D01*
Y20461D01*
X27952D01*
X28048Y24308D02*
Y24708D01*
X28448D01*
Y24308D01*
X28048D01*
X28128Y24388D02*
Y24628D01*
X28368D01*
Y24388D01*
X28128D01*
X23265Y19774D02*
Y20174D01*
X23665D01*
Y19774D01*
X23265D01*
X23345Y19854D02*
Y20094D01*
X23585D01*
Y19854D01*
X23345D01*
X31040Y27487D02*
Y27887D01*
X31440D01*
Y27487D01*
X31040D01*
X31120Y27567D02*
Y27807D01*
X31360D01*
Y27567D01*
X31120D01*
X22064Y27074D02*
Y27474D01*
X22464D01*
Y27074D01*
X22064D01*
X22144Y27154D02*
Y27394D01*
X22384D01*
Y27154D01*
X22144D01*
X18304Y32241D02*
Y32641D01*
X18704D01*
Y32241D01*
X18304D01*
X18384Y32321D02*
Y32561D01*
X18624D01*
Y32321D01*
X18384D01*
X26975Y18550D02*
Y18950D01*
X27375D01*
Y18550D01*
X26975D01*
X27055Y18630D02*
Y18870D01*
X27295D01*
Y18630D01*
X27055D01*
X18176Y29249D02*
Y29649D01*
X18576D01*
Y29249D01*
X18176D01*
X18256Y29329D02*
Y29569D01*
X18496D01*
Y29329D01*
X18256D01*
X26414Y15902D02*
Y16302D01*
X26814D01*
Y15902D01*
X26414D01*
X26494Y15982D02*
Y16222D01*
X26734D01*
Y15982D01*
X26494D01*
X24682Y17831D02*
Y18232D01*
X25082D01*
Y17831D01*
X24682D01*
X24762Y17911D02*
Y18152D01*
X25002D01*
Y17911D01*
X24762D01*
X24702Y18353D02*
Y18753D01*
X25102D01*
Y18353D01*
X24702D01*
X24782Y18433D02*
Y18673D01*
X25022D01*
Y18433D01*
X24782D01*
X26493Y16572D02*
Y16972D01*
X26893D01*
Y16572D01*
X26493D01*
X26573Y16652D02*
Y16892D01*
X26813D01*
Y16652D01*
X26573D01*
X28078Y17231D02*
Y17631D01*
X28478D01*
Y17231D01*
X28078D01*
X28158Y17311D02*
Y17551D01*
X28398D01*
Y17311D01*
X28158D01*
X26414Y17831D02*
Y18231D01*
X26814D01*
Y17831D01*
X26414D01*
X26494Y17911D02*
Y18151D01*
X26734D01*
Y17911D01*
X26494D01*
X17823Y18984D02*
Y19384D01*
X18223D01*
Y18984D01*
X17823D01*
X17903Y19064D02*
Y19304D01*
X18143D01*
Y19064D01*
X17903D01*
X11300Y19550D02*
Y19950D01*
X11700D01*
Y19550D01*
X11300D01*
X11380Y19630D02*
Y19870D01*
X11620D01*
Y19630D01*
X11380D01*
X18894Y18973D02*
Y19373D01*
X19294D01*
Y18973D01*
X18894D01*
X18974Y19053D02*
Y19293D01*
X19214D01*
Y19053D01*
X18974D01*
X18343Y18973D02*
Y19373D01*
X18743D01*
Y18973D01*
X18343D01*
X18423Y19053D02*
Y19293D01*
X18663D01*
Y19053D01*
X18423D01*
X13284Y14259D02*
Y14659D01*
X13684D01*
Y14259D01*
X13284D01*
X13364Y14339D02*
Y14579D01*
X13604D01*
Y14339D01*
X13364D01*
X12133Y14249D02*
Y14649D01*
X12533D01*
Y14249D01*
X12133D01*
X12213Y14329D02*
Y14569D01*
X12453D01*
Y14329D01*
X12213D01*
X14650Y19030D02*
Y19430D01*
X15050D01*
Y19030D01*
X14650D01*
X14730Y19110D02*
Y19350D01*
X14970D01*
Y19110D01*
X14730D01*
X11808Y14249D02*
Y14649D01*
X12208D01*
Y14249D01*
X11808D01*
X11888Y14329D02*
Y14569D01*
X12128D01*
Y14329D01*
X11888D01*
X20627Y14209D02*
Y14609D01*
X21027D01*
Y14209D01*
X20627D01*
X20707Y14289D02*
Y14529D01*
X20947D01*
Y14289D01*
X20707D01*
X14073Y16855D02*
Y17255D01*
X14473D01*
Y16855D01*
X14073D01*
X14153Y16935D02*
Y17175D01*
X14393D01*
Y16935D01*
X14153D01*
X23776Y15863D02*
Y16263D01*
X24176D01*
Y15863D01*
X23776D01*
X23856Y15943D02*
Y16183D01*
X24096D01*
Y15943D01*
X23856D01*
X10627Y16532D02*
Y16932D01*
X11027D01*
Y16532D01*
X10627D01*
X10707Y16612D02*
Y16852D01*
X10947D01*
Y16612D01*
X10707D01*
X19249Y16296D02*
Y16696D01*
X19649D01*
Y16296D01*
X19249D01*
X19329Y16376D02*
Y16616D01*
X19569D01*
Y16376D01*
X19329D01*
X21553Y24014D02*
Y24414D01*
X21953D01*
Y24014D01*
X21553D01*
X21633Y24094D02*
Y24334D01*
X21873D01*
Y24094D01*
X21633D01*
X21414Y26729D02*
Y27129D01*
X21814D01*
Y26729D01*
X21414D01*
X21494Y26809D02*
Y27049D01*
X21734D01*
Y26809D01*
X21494D01*
X31139Y24839D02*
Y25239D01*
X31539D01*
Y24839D01*
X31139D01*
X31219Y24919D02*
Y25159D01*
X31459D01*
Y24919D01*
X31219D01*
X18925Y25559D02*
Y25959D01*
X19325D01*
Y25559D01*
X18925D01*
X19005Y25639D02*
Y25879D01*
X19245D01*
Y25639D01*
X19005D01*
X19277Y28272D02*
Y28672D01*
X19677D01*
Y28272D01*
X19277D01*
X19357Y28352D02*
Y28592D01*
X19597D01*
Y28352D01*
X19357D01*
X24692Y17320D02*
Y17720D01*
X25092D01*
Y17320D01*
X24692D01*
X24772Y17400D02*
Y17640D01*
X25012D01*
Y17400D01*
X24772D01*
X17841Y22211D02*
Y22611D01*
X18241D01*
Y22211D01*
X17841D01*
X17921Y22291D02*
Y22531D01*
X18161D01*
Y22291D01*
X17921D01*
X17841Y21828D02*
Y22228D01*
X18241D01*
Y21828D01*
X17841D01*
X17921Y21908D02*
Y22148D01*
X18161D01*
Y21908D01*
X17921D01*
X14682Y30391D02*
Y30791D01*
X15082D01*
Y30391D01*
X14682D01*
X14762Y30471D02*
Y30711D01*
X15002D01*
Y30471D01*
X14762D01*
X15607Y27950D02*
Y28350D01*
X16007D01*
Y27950D01*
X15607D01*
X15687Y28030D02*
Y28270D01*
X15927D01*
Y28030D01*
X15687D01*
X18924Y27005D02*
Y27405D01*
X19324D01*
Y27005D01*
X18924D01*
X19004Y27085D02*
Y27325D01*
X19244D01*
Y27085D01*
X19004D01*
X32202Y27989D02*
Y28389D01*
X32602D01*
Y27989D01*
X32202D01*
X32282Y28069D02*
Y28309D01*
X32522D01*
Y28069D01*
X32282D01*
X30824Y27950D02*
Y28350D01*
X31224D01*
Y27950D01*
X30824D01*
X30904Y28030D02*
Y28270D01*
X31144D01*
Y28030D01*
X30904D01*
X30745Y25587D02*
Y25987D01*
X31145D01*
Y25587D01*
X30745D01*
X30825Y25667D02*
Y25907D01*
X31065D01*
Y25667D01*
X30825D01*
X30587Y27398D02*
Y27798D01*
X30987D01*
Y27398D01*
X30587D01*
X30667Y27478D02*
Y27718D01*
X30907D01*
Y27478D01*
X30667D01*
X25440Y17251D02*
Y17651D01*
X25840D01*
Y17251D01*
X25440D01*
X25520Y17331D02*
Y17571D01*
X25760D01*
Y17331D01*
X25520D01*
X26611Y17320D02*
Y17720D01*
X27011D01*
Y17320D01*
X26611D01*
X26691Y17400D02*
Y17640D01*
X26931D01*
Y17400D01*
X26691D01*
X25440Y18343D02*
Y18743D01*
X25840D01*
Y18343D01*
X25440D01*
X25520Y18423D02*
Y18663D01*
X25760D01*
Y18423D01*
X25520D01*
X22950Y16857D02*
Y17257D01*
X23350D01*
Y16857D01*
X22950D01*
X23030Y16937D02*
Y17177D01*
X23270D01*
Y16937D01*
X23030D01*
X14810Y16316D02*
Y16716D01*
X15210D01*
Y16316D01*
X14810D01*
X14890Y16396D02*
Y16636D01*
X15130D01*
Y16396D01*
X14890D01*
X20164Y16857D02*
Y17257D01*
X20564D01*
Y16857D01*
X20164D01*
X20244Y16937D02*
Y17177D01*
X20484D01*
Y16937D01*
X20244D01*
X15597Y22940D02*
Y23340D01*
X15997D01*
Y22940D01*
X15597D01*
X15677Y23020D02*
Y23260D01*
X15917D01*
Y23020D01*
X15677D01*
X12500Y19000D02*
Y19400D01*
X12900D01*
Y19000D01*
X12500D01*
X12580Y19080D02*
Y19320D01*
X12820D01*
Y19080D01*
X12580D01*
X13304Y19042D02*
Y19442D01*
X13704D01*
Y19042D01*
X13304D01*
X13384Y19122D02*
Y19362D01*
X13624D01*
Y19122D01*
X13384D01*
X30745Y24721D02*
Y25121D01*
X31145D01*
Y24721D01*
X30745D01*
X30825Y24801D02*
Y25041D01*
X31065D01*
Y24801D01*
X30825D01*
X22241Y27477D02*
Y27877D01*
X22641D01*
Y27477D01*
X22241D01*
X22321Y27557D02*
Y27797D01*
X22561D01*
Y27557D01*
X22321D01*
X22999Y18983D02*
Y19383D01*
X23399D01*
Y18983D01*
X22999D01*
X23079Y19063D02*
Y19303D01*
X23319D01*
Y19063D01*
X23079D01*
X21611Y22280D02*
Y22680D01*
X22011D01*
Y22280D01*
X21611D01*
X21691Y22360D02*
Y22600D01*
X21931D01*
Y22360D01*
X21691D01*
X20430Y24711D02*
Y25111D01*
X20830D01*
Y24711D01*
X20430D01*
X20510Y24791D02*
Y25031D01*
X20750D01*
Y24791D01*
X20510D01*
X21690Y27044D02*
Y27444D01*
X22090D01*
Y27044D01*
X21690D01*
X21770Y27124D02*
Y27364D01*
X22010D01*
Y27124D01*
X21770D01*
X20632Y24362D02*
Y24762D01*
X21032D01*
Y24362D01*
X20632D01*
X20712Y24442D02*
Y24682D01*
X20952D01*
Y24442D01*
X20712D01*
X20115Y24879D02*
Y25279D01*
X20515D01*
Y24879D01*
X20115D01*
X20195Y24959D02*
Y25199D01*
X20435D01*
Y24959D01*
X20195D01*
X20051Y26038D02*
Y26438D01*
X20451D01*
Y26038D01*
X20051D01*
X20131Y26118D02*
Y26358D01*
X20371D01*
Y26118D01*
X20131D01*
X20742Y26729D02*
Y27129D01*
X21142D01*
Y26729D01*
X20742D01*
X20822Y26809D02*
Y27049D01*
X21062D01*
Y26809D01*
X20822D01*
X21300Y22610D02*
Y23010D01*
X21700D01*
Y22610D01*
X21300D01*
X21380Y22690D02*
Y22930D01*
X21620D01*
Y22690D01*
X21380D01*
X21594Y21903D02*
Y22303D01*
X21994D01*
Y21903D01*
X21594D01*
X21674Y21983D02*
Y22223D01*
X21914D01*
Y21983D01*
X21674D01*
X13744Y19800D02*
Y20200D01*
X14144D01*
Y19800D01*
X13744D01*
X13824Y19880D02*
Y20120D01*
X14064D01*
Y19880D01*
X13824D01*
X25479Y20873D02*
Y21273D01*
X25879D01*
Y20873D01*
X25479D01*
X25559Y20953D02*
Y21193D01*
X25799D01*
Y20953D01*
X25559D01*
X26168Y21188D02*
Y21588D01*
X26568D01*
Y21188D01*
X26168D01*
X26248Y21268D02*
Y21508D01*
X26488D01*
Y21268D01*
X26248D01*
X26454Y19682D02*
Y20082D01*
X26854D01*
Y19682D01*
X26454D01*
X26534Y19762D02*
Y20002D01*
X26774D01*
Y19762D01*
X26534D01*
X17320Y20240D02*
Y20640D01*
X17720D01*
Y20240D01*
X17320D01*
X17400Y20320D02*
Y20560D01*
X17640D01*
Y20320D01*
X17400D01*
X17330Y19440D02*
Y19840D01*
X17730D01*
Y19440D01*
X17330D01*
X17410Y19520D02*
Y19760D01*
X17650D01*
Y19520D01*
X17410D01*
X14288Y19800D02*
Y20200D01*
X14688D01*
Y19800D01*
X14288D01*
X14368Y19880D02*
Y20120D01*
X14608D01*
Y19880D01*
X14368D01*
X22969Y20893D02*
Y21293D01*
X23369D01*
Y20893D01*
X22969D01*
X23049Y20973D02*
Y21213D01*
X23289D01*
Y20973D01*
X23049D01*
X26602Y18315D02*
Y18715D01*
X27002D01*
Y18315D01*
X26602D01*
X26682Y18395D02*
Y18635D01*
X26922D01*
Y18395D01*
X26682D01*
X26454Y19288D02*
Y19688D01*
X26854D01*
Y19288D01*
X26454D01*
X26534Y19368D02*
Y19608D01*
X26774D01*
Y19368D01*
X26534D01*
X23383Y18973D02*
Y19373D01*
X23783D01*
Y18973D01*
X23383D01*
X23463Y19053D02*
Y19293D01*
X23703D01*
Y19053D01*
X23463D01*
X24703Y19388D02*
Y19788D01*
X25103D01*
Y19388D01*
X24703D01*
X24783Y19468D02*
Y19708D01*
X25023D01*
Y19468D01*
X24783D01*
X21809Y21071D02*
Y21471D01*
X22209D01*
Y21071D01*
X21809D01*
X21889Y21151D02*
Y21391D01*
X22129D01*
Y21151D01*
X21889D01*
X22380Y18970D02*
Y19370D01*
X22780D01*
Y18970D01*
X22380D01*
X22460Y19050D02*
Y19290D01*
X22700D01*
Y19050D01*
X22460D01*
X22720Y19720D02*
Y20120D01*
X23120D01*
Y19720D01*
X22720D01*
X22800Y19800D02*
Y20040D01*
X23040D01*
Y19800D01*
X22800D01*
X30589Y28814D02*
Y29214D01*
X30989D01*
Y28814D01*
X30589D01*
X30669Y28894D02*
Y29134D01*
X30909D01*
Y28894D01*
X30669D01*
X27674Y16178D02*
Y16578D01*
X28074D01*
Y16178D01*
X27674D01*
X27754Y16258D02*
Y16498D01*
X27994D01*
Y16258D01*
X27754D01*
X28186Y15706D02*
Y16106D01*
X28586D01*
Y15706D01*
X28186D01*
X28266Y15786D02*
Y16026D01*
X28506D01*
Y15786D01*
X28266D01*
X11129Y16855D02*
Y17255D01*
X11529D01*
Y16855D01*
X11129D01*
X11209Y16935D02*
Y17175D01*
X11449D01*
Y16935D01*
X11209D01*
X21250Y19000D02*
Y19400D01*
X21650D01*
Y19000D01*
X21250D01*
X21330Y19080D02*
Y19320D01*
X21570D01*
Y19080D01*
X21330D01*
X28315Y25638D02*
Y26038D01*
X28715D01*
Y25638D01*
X28315D01*
X28395Y25718D02*
Y25958D01*
X28635D01*
Y25718D01*
X28395D01*
X30745Y26493D02*
Y26893D01*
X31145D01*
Y26493D01*
X30745D01*
X30825Y26573D02*
Y26813D01*
X31065D01*
Y26573D01*
X30825D01*
X30587Y26906D02*
Y27306D01*
X30987D01*
Y26906D01*
X30587D01*
X30667Y26986D02*
Y27226D01*
X30907D01*
Y26986D01*
X30667D01*
X26917Y29516D02*
Y29916D01*
X27317D01*
Y29516D01*
X26917D01*
X26997Y29596D02*
Y29836D01*
X27237D01*
Y29596D01*
X26997D01*
X27210Y33770D02*
Y34170D01*
X27610D01*
Y33770D01*
X27210D01*
X27290Y33850D02*
Y34090D01*
X27530D01*
Y33850D01*
X27290D01*
X28265Y26020D02*
Y26420D01*
X28665D01*
Y26020D01*
X28265D01*
X28345Y26100D02*
Y26340D01*
X28585D01*
Y26100D01*
X28345D01*
X28598Y26457D02*
Y26857D01*
X28998D01*
Y26457D01*
X28598D01*
X28678Y26537D02*
Y26777D01*
X28918D01*
Y26537D01*
X28678D01*
X28107Y24839D02*
Y25239D01*
X28507D01*
Y24839D01*
X28107D01*
X28187Y24919D02*
Y25159D01*
X28427D01*
Y24919D01*
X28187D01*
X21512Y23610D02*
Y24010D01*
X21912D01*
Y23610D01*
X21512D01*
X21592Y23690D02*
Y23930D01*
X21832D01*
Y23690D01*
X21592D01*
X23845Y23629D02*
Y24029D01*
X24245D01*
Y23629D01*
X23845D01*
X23925Y23709D02*
Y23949D01*
X24165D01*
Y23709D01*
X23925D01*
X21572Y24406D02*
Y24806D01*
X21972D01*
Y24406D01*
X21572D01*
X21652Y24486D02*
Y24726D01*
X21892D01*
Y24486D01*
X21652D01*
X24554Y25135D02*
Y25535D01*
X24954D01*
Y25135D01*
X24554D01*
X24634Y25215D02*
Y25455D01*
X24874D01*
Y25215D01*
X24634D01*
X23875Y24180D02*
Y24580D01*
X24275D01*
Y24180D01*
X23875D01*
X23955Y24260D02*
Y24500D01*
X24195D01*
Y24260D01*
X23955D01*
X22247Y25509D02*
Y25909D01*
X22647D01*
Y25509D01*
X22247D01*
X22327Y25589D02*
Y25829D01*
X22567D01*
Y25589D01*
X22327D01*
X22114Y23463D02*
Y23863D01*
X22514D01*
Y23463D01*
X22114D01*
X22194Y23543D02*
Y23783D01*
X22434D01*
Y23543D01*
X22194D01*
X22400Y21680D02*
Y22080D01*
X22800D01*
Y21680D01*
X22400D01*
X22480Y21760D02*
Y22000D01*
X22720D01*
Y21760D01*
X22480D01*
X23894Y22398D02*
Y22798D01*
X24294D01*
Y22398D01*
X23894D01*
X23974Y22478D02*
Y22718D01*
X24214D01*
Y22478D01*
X23974D01*
X23963Y22920D02*
Y23320D01*
X24363D01*
Y22920D01*
X23963D01*
X24043Y23000D02*
Y23240D01*
X24283D01*
Y23000D01*
X24043D01*
X22114Y24486D02*
Y24886D01*
X22514D01*
Y24486D01*
X22114D01*
X22194Y24566D02*
Y24806D01*
X22434D01*
Y24566D01*
X22194D01*
X24288Y23333D02*
Y23733D01*
X24688D01*
Y23333D01*
X24288D01*
X24368Y23413D02*
Y23653D01*
X24608D01*
Y23413D01*
X24368D01*
X23383Y27162D02*
Y27562D01*
X23783D01*
Y27162D01*
X23383D01*
X23463Y27242D02*
Y27482D01*
X23703D01*
Y27242D01*
X23463D01*
X23343Y26453D02*
Y26853D01*
X23743D01*
Y26453D01*
X23343D01*
X23423Y26533D02*
Y26773D01*
X23663D01*
Y26533D01*
X23423D01*
X23855Y26139D02*
Y26539D01*
X24255D01*
Y26139D01*
X23855D01*
X23935Y26219D02*
Y26459D01*
X24175D01*
Y26219D01*
X23935D01*
X24396Y22654D02*
Y23054D01*
X24796D01*
Y22654D01*
X24396D01*
X24476Y22734D02*
Y22974D01*
X24716D01*
Y22734D01*
X24476D01*
X25510Y22370D02*
Y22770D01*
X25910D01*
Y22370D01*
X25510D01*
X25590Y22450D02*
Y22690D01*
X25830D01*
Y22450D01*
X25590D01*
X26926Y28737D02*
Y29137D01*
X27326D01*
Y28737D01*
X26926D01*
X27006Y28817D02*
Y29057D01*
X27246D01*
Y28817D01*
X27006D01*
X24544Y25922D02*
Y26322D01*
X24944D01*
Y25922D01*
X24544D01*
X24624Y26002D02*
Y26242D01*
X24864D01*
Y26002D01*
X24624D01*
X26051Y27321D02*
Y27721D01*
X26451D01*
Y27321D01*
X26051D01*
X26131Y27401D02*
Y27641D01*
X26371D01*
Y27401D01*
X26131D01*
X23753Y27160D02*
Y27560D01*
X24153D01*
Y27160D01*
X23753D01*
X23833Y27240D02*
Y27480D01*
X24073D01*
Y27240D01*
X23833D01*
X24987Y21276D02*
Y21676D01*
X25387D01*
Y21276D01*
X24987D01*
X25067Y21356D02*
Y21596D01*
X25307D01*
Y21356D01*
X25067D01*
X25489Y22871D02*
Y23271D01*
X25889D01*
Y22871D01*
X25489D01*
X25569Y22951D02*
Y23191D01*
X25809D01*
Y22951D01*
X25569D01*
X25115Y22516D02*
Y22916D01*
X25515D01*
Y22516D01*
X25115D01*
X25195Y22596D02*
Y22836D01*
X25435D01*
Y22596D01*
X25195D01*
X24219Y25509D02*
Y25909D01*
X24619D01*
Y25509D01*
X24219D01*
X24299Y25589D02*
Y25829D01*
X24539D01*
Y25589D01*
X24299D01*
X31819Y29969D02*
Y30369D01*
X32219D01*
Y29969D01*
X31819D01*
X31899Y30049D02*
Y30289D01*
X32139D01*
Y30049D01*
X31899D01*
X33737Y29131D02*
Y29531D01*
X34137D01*
Y29131D01*
X33737D01*
X33817Y29211D02*
Y29451D01*
X34057D01*
Y29211D01*
X33817D01*
X32398Y30154D02*
Y30554D01*
X32798D01*
Y30154D01*
X32398D01*
X32478Y30234D02*
Y30474D01*
X32718D01*
Y30234D01*
X32478D01*
X48137Y26050D02*
Y26450D01*
X48537D01*
Y26050D01*
X48137D01*
X48217Y26130D02*
Y26370D01*
X48457D01*
Y26130D01*
X48217D01*
X48711Y26050D02*
Y26450D01*
X49111D01*
Y26050D01*
X48711D01*
X48791Y26130D02*
Y26370D01*
X49031D01*
Y26130D01*
X48791D01*
X49879Y27477D02*
Y27877D01*
X50279D01*
Y27477D01*
X49879D01*
X49959Y27557D02*
Y27797D01*
X50199D01*
Y27557D01*
X49959D01*
X49859Y26050D02*
Y26450D01*
X50259D01*
Y26050D01*
X49859D01*
X49939Y26130D02*
Y26370D01*
X50179D01*
Y26130D01*
X49939D01*
X48855Y27477D02*
Y27877D01*
X49255D01*
Y27477D01*
X48855D01*
X48935Y27557D02*
Y27797D01*
X49175D01*
Y27557D01*
X48935D01*
X48343Y27477D02*
Y27877D01*
X48743D01*
Y27477D01*
X48343D01*
X48423Y27557D02*
Y27797D01*
X48663D01*
Y27557D01*
X48423D01*
X49367Y27477D02*
Y27877D01*
X49767D01*
Y27477D01*
X49367D01*
X49447Y27557D02*
Y27797D01*
X49687D01*
Y27557D01*
X49447D01*
X49285Y26050D02*
Y26450D01*
X49685D01*
Y26050D01*
X49285D01*
X49365Y26130D02*
Y26370D01*
X49605D01*
Y26130D01*
X49365D01*
X40866Y20076D02*
X40666Y20476D01*
X41066D01*
X40866Y20076D01*
Y20156D02*
X40746Y20396D01*
X40986D01*
X40866Y20156D01*
X13642Y29229D02*
X13442Y29629D01*
X13842D01*
X13642Y29229D01*
Y29309D02*
X13522Y29549D01*
X13762D01*
X13642Y29309D01*
X12000Y18550D02*
Y18950D01*
X12400D01*
Y18550D01*
X12000D01*
X12080Y18630D02*
Y18870D01*
X12320D01*
Y18630D01*
X12080D01*
X11400Y18200D02*
Y18600D01*
X11800D01*
Y18200D01*
X11400D01*
X11480Y18280D02*
Y18520D01*
X11720D01*
Y18280D01*
X11480D01*
X11400Y18750D02*
Y19150D01*
X11800D01*
Y18750D01*
X11400D01*
X11480Y18830D02*
Y19070D01*
X11720D01*
Y18830D01*
X11480D01*
X10900Y18750D02*
Y19150D01*
X11300D01*
Y18750D01*
X10900D01*
X10980Y18830D02*
Y19070D01*
X11220D01*
Y18830D01*
X10980D01*
X10900Y18200D02*
Y18600D01*
X11300D01*
Y18200D01*
X10900D01*
X10980Y18280D02*
Y18520D01*
X11220D01*
Y18280D01*
X10980D01*
X16850Y19050D02*
Y19450D01*
X17250D01*
Y19050D01*
X16850D01*
X16930Y19130D02*
Y19370D01*
X17170D01*
Y19130D01*
X16930D01*
X16500Y18550D02*
Y18950D01*
X16900D01*
Y18550D01*
X16500D01*
X16580Y18630D02*
Y18870D01*
X16820D01*
Y18630D01*
X16580D01*
X20900Y18550D02*
Y18950D01*
X21300D01*
Y18550D01*
X20900D01*
X20980Y18630D02*
Y18870D01*
X21220D01*
Y18630D01*
X20980D01*
X15600Y18250D02*
Y18650D01*
X16000D01*
Y18250D01*
X15600D01*
X15680Y18330D02*
Y18570D01*
X15920D01*
Y18330D01*
X15680D01*
X16150Y18250D02*
Y18650D01*
X16550D01*
Y18250D01*
X16150D01*
X16230Y18330D02*
Y18570D01*
X16470D01*
Y18330D01*
X16230D01*
X16150Y18950D02*
Y19350D01*
X16550D01*
Y18950D01*
X16150D01*
X16230Y19030D02*
Y19270D01*
X16470D01*
Y19030D01*
X16230D01*
X15600Y18950D02*
Y19350D01*
X16000D01*
Y18950D01*
X15600D01*
X15680Y19030D02*
Y19270D01*
X15920D01*
Y19030D01*
X15680D01*
X20100Y18200D02*
Y18600D01*
X20500D01*
Y18200D01*
X20100D01*
X20180Y18280D02*
Y18520D01*
X20420D01*
Y18280D01*
X20180D01*
X20650Y18200D02*
Y18600D01*
X21050D01*
Y18200D01*
X20650D01*
X20730Y18280D02*
Y18520D01*
X20970D01*
Y18280D01*
X20730D01*
X20100Y18950D02*
Y19350D01*
X20500D01*
Y18950D01*
X20100D01*
X20180Y19030D02*
Y19270D01*
X20420D01*
Y19030D01*
X20180D01*
X20650Y18950D02*
Y19350D01*
X21050D01*
Y18950D01*
X20650D01*
X20730Y19030D02*
Y19270D01*
X20970D01*
Y19030D01*
X20730D01*
X30200Y19050D02*
Y19450D01*
X30600D01*
Y19050D01*
X30200D01*
X30280Y19130D02*
Y19370D01*
X30520D01*
Y19130D01*
X30280D01*
X29700Y18600D02*
Y19000D01*
X30100D01*
Y18600D01*
X29700D01*
X29780Y18680D02*
Y18920D01*
X30020D01*
Y18680D01*
X29780D01*
X28750Y18950D02*
Y19350D01*
X29150D01*
Y18950D01*
X28750D01*
X28830Y19030D02*
Y19270D01*
X29070D01*
Y19030D01*
X28830D01*
X29400Y18950D02*
Y19350D01*
X29800D01*
Y18950D01*
X29400D01*
X29480Y19030D02*
Y19270D01*
X29720D01*
Y19030D01*
X29480D01*
X29400Y18100D02*
Y18500D01*
X29800D01*
Y18100D01*
X29400D01*
X29480Y18180D02*
Y18420D01*
X29720D01*
Y18180D01*
X29480D01*
X28750Y18100D02*
Y18500D01*
X29150D01*
Y18100D01*
X28750D01*
X28830Y18180D02*
Y18420D01*
X29070D01*
Y18180D01*
X28830D01*
X33300Y18350D02*
Y18750D01*
X33700D01*
Y18350D01*
X33300D01*
X33380Y18430D02*
Y18670D01*
X33620D01*
Y18430D01*
X33380D01*
X33600Y19000D02*
Y19400D01*
X34000D01*
Y19000D01*
X33600D01*
X33680Y19080D02*
Y19320D01*
X33920D01*
Y19080D01*
X33680D01*
X33300Y16950D02*
Y17350D01*
X33700D01*
Y16950D01*
X33300D01*
X33380Y17030D02*
Y17270D01*
X33620D01*
Y17030D01*
X33380D01*
X33900Y14450D02*
Y14850D01*
X34300D01*
Y14450D01*
X33900D01*
X33980Y14530D02*
Y14770D01*
X34220D01*
Y14530D01*
X33980D01*
X33650Y15500D02*
Y15900D01*
X34050D01*
Y15500D01*
X33650D01*
X33730Y15580D02*
Y15820D01*
X33970D01*
Y15580D01*
X33730D01*
X33900Y15050D02*
Y15450D01*
X34300D01*
Y15050D01*
X33900D01*
X33980Y15130D02*
Y15370D01*
X34220D01*
Y15130D01*
X33980D01*
X33900Y16300D02*
Y16700D01*
X34300D01*
Y16300D01*
X33900D01*
X33980Y16380D02*
Y16620D01*
X34220D01*
Y16380D01*
X33980D01*
X33900Y18300D02*
Y18700D01*
X34300D01*
Y18300D01*
X33900D01*
X33980Y18380D02*
Y18620D01*
X34220D01*
Y18380D01*
X33980D01*
X31450Y21600D02*
Y22000D01*
X31850D01*
Y21600D01*
X31450D01*
X31530Y21680D02*
Y21920D01*
X31770D01*
Y21680D01*
X31530D01*
X31800Y24200D02*
Y24600D01*
X32200D01*
Y24200D01*
X31800D01*
X31880Y24280D02*
Y24520D01*
X32120D01*
Y24280D01*
X31880D01*
X31500Y26550D02*
Y26950D01*
X31900D01*
Y26550D01*
X31500D01*
X31580Y26630D02*
Y26870D01*
X31820D01*
Y26630D01*
X31580D01*
X30430Y20170D02*
Y20570D01*
X30830D01*
Y20170D01*
X30430D01*
X30510Y20250D02*
Y20490D01*
X30750D01*
Y20250D01*
X30510D01*
X29300Y19800D02*
Y20200D01*
X29700D01*
Y19800D01*
X29300D01*
X29380Y19880D02*
Y20120D01*
X29620D01*
Y19880D01*
X29380D01*
X28583Y19483D02*
Y19883D01*
X28983D01*
Y19483D01*
X28583D01*
X28663Y19563D02*
Y19803D01*
X28903D01*
Y19563D01*
X28663D01*
X27300Y19800D02*
Y20200D01*
X27700D01*
Y19800D01*
X27300D01*
X27380Y19880D02*
Y20120D01*
X27620D01*
Y19880D01*
X27380D01*
X24150Y18950D02*
Y19350D01*
X24550D01*
Y18950D01*
X24150D01*
X24230Y19030D02*
Y19270D01*
X24470D01*
Y19030D01*
X24230D01*
X21350Y19800D02*
Y20200D01*
X21750D01*
Y19800D01*
X21350D01*
X21430Y19880D02*
Y20120D01*
X21670D01*
Y19880D01*
X21430D01*
X20550Y19550D02*
Y19950D01*
X20950D01*
Y19550D01*
X20550D01*
X20630Y19630D02*
Y19870D01*
X20870D01*
Y19630D01*
X20630D01*
X19200Y20050D02*
Y20450D01*
X19600D01*
Y20050D01*
X19200D01*
X19280Y20130D02*
Y20370D01*
X19520D01*
Y20130D01*
X19280D01*
X18200Y19800D02*
Y20200D01*
X18600D01*
Y19800D01*
X18200D01*
X18280Y19880D02*
Y20120D01*
X18520D01*
Y19880D01*
X18280D01*
X13100Y20100D02*
Y20500D01*
X13500D01*
Y20100D01*
X13100D01*
X13180Y20180D02*
Y20420D01*
X13420D01*
Y20180D01*
X13180D01*
X10400Y19800D02*
Y20200D01*
X10800D01*
Y19800D01*
X10400D01*
X10480Y19880D02*
Y20120D01*
X10720D01*
Y19880D01*
X10480D01*
X17379Y25263D02*
Y25663D01*
X17779D01*
Y25263D01*
X17379D01*
X17459Y25343D02*
Y25583D01*
X17699D01*
Y25343D01*
X17459D01*
X17831Y23540D02*
Y23940D01*
X18232D01*
Y23540D01*
X17831D01*
X17911Y23620D02*
Y23860D01*
X18152D01*
Y23620D01*
X17911D01*
X17822Y23934D02*
Y24334D01*
X18222D01*
Y23934D01*
X17822D01*
X17902Y24014D02*
Y24254D01*
X18142D01*
Y24014D01*
X17902D01*
X18200Y23100D02*
Y23500D01*
X18600D01*
Y23100D01*
X18200D01*
X18280Y23180D02*
Y23420D01*
X18520D01*
Y23180D01*
X18280D01*
X21200Y23270D02*
Y23670D01*
X21600D01*
Y23270D01*
X21200D01*
X21280Y23350D02*
Y23590D01*
X21520D01*
Y23350D01*
X21280D01*
X18110Y24390D02*
Y24790D01*
X18510D01*
Y24390D01*
X18110D01*
X18190Y24470D02*
Y24710D01*
X18430D01*
Y24470D01*
X18190D01*
X17770Y25270D02*
Y25670D01*
X18170D01*
Y25270D01*
X17770D01*
X17850Y25350D02*
Y25590D01*
X18090D01*
Y25350D01*
X17850D01*
X18090Y25510D02*
Y25910D01*
X18490D01*
Y25510D01*
X18090D01*
X18170Y25590D02*
Y25830D01*
X18410D01*
Y25590D01*
X18170D01*
X14800Y26230D02*
Y26630D01*
X15200D01*
Y26230D01*
X14800D01*
X14880Y26310D02*
Y26550D01*
X15120D01*
Y26310D01*
X14880D01*
X14520Y26950D02*
Y27350D01*
X14920D01*
Y26950D01*
X14520D01*
X14600Y27030D02*
Y27270D01*
X14840D01*
Y27030D01*
X14600D01*
X15110Y20200D02*
Y20600D01*
X15510D01*
Y20200D01*
X15110D01*
X15190Y20280D02*
Y20520D01*
X15430D01*
Y20280D01*
X15190D01*
X19400Y19700D02*
Y20100D01*
X19800D01*
Y19700D01*
X19400D01*
X19480Y19780D02*
Y20020D01*
X19720D01*
Y19780D01*
X19480D01*
X32280Y14761D02*
Y15161D01*
X32680D01*
Y14761D01*
X32280D01*
X32360Y14841D02*
Y15081D01*
X32600D01*
Y14841D01*
X32360D01*
X33900Y14100D02*
Y14500D01*
X34300D01*
Y14100D01*
X33900D01*
X33980Y14180D02*
Y14420D01*
X34220D01*
Y14180D01*
X33980D01*
X14170Y12380D02*
Y12780D01*
X14570D01*
Y12380D01*
X14170D01*
X14250Y12460D02*
Y12700D01*
X14490D01*
Y12460D01*
X14250D01*
X29370Y12280D02*
Y12680D01*
X29770D01*
Y12280D01*
X29370D01*
X29450Y12360D02*
Y12600D01*
X29690D01*
Y12360D01*
X29450D01*
X13619Y14249D02*
Y14649D01*
X14019D01*
Y14249D01*
X13619D01*
X13699Y14329D02*
Y14569D01*
X13939D01*
Y14329D01*
X13699D01*
X14367Y14170D02*
Y14570D01*
X14767D01*
Y14170D01*
X14367D01*
X14447Y14250D02*
Y14490D01*
X14687D01*
Y14250D01*
X14447D01*
X11360Y13730D02*
Y14130D01*
X11760D01*
Y13730D01*
X11360D01*
X11440Y13810D02*
Y14050D01*
X11680D01*
Y13810D01*
X11440D01*
X20942Y14209D02*
Y14609D01*
X21342D01*
Y14209D01*
X20942D01*
X21022Y14289D02*
Y14529D01*
X21262D01*
Y14289D01*
X21022D01*
X20610Y12280D02*
Y12680D01*
X21010D01*
Y12280D01*
X20610D01*
X20690Y12360D02*
Y12600D01*
X20930D01*
Y12360D01*
X20690D01*
X29030Y11960D02*
Y12360D01*
X29430D01*
Y11960D01*
X29030D01*
X29110Y12040D02*
Y12280D01*
X29350D01*
Y12040D01*
X29110D01*
X23540Y13620D02*
Y14020D01*
X23940D01*
Y13620D01*
X23540D01*
X23620Y13700D02*
Y13940D01*
X23860D01*
Y13700D01*
X23620D01*
X22123Y14170D02*
Y14570D01*
X22523D01*
Y14170D01*
X22123D01*
X22203Y14250D02*
Y14490D01*
X22443D01*
Y14250D01*
X22203D01*
X22438Y14170D02*
Y14570D01*
X22838D01*
Y14170D01*
X22438D01*
X22518Y14250D02*
Y14490D01*
X22758D01*
Y14250D01*
X22518D01*
X24030Y16630D02*
Y17030D01*
X24430D01*
Y16630D01*
X24030D01*
X24110Y16710D02*
Y16950D01*
X24350D01*
Y16710D01*
X24110D01*
X22950Y14650D02*
Y15050D01*
X23350D01*
Y14650D01*
X22950D01*
X23030Y14730D02*
Y14970D01*
X23270D01*
Y14730D01*
X23030D01*
X22880Y14170D02*
Y14570D01*
X23280D01*
Y14170D01*
X22880D01*
X22960Y14250D02*
Y14490D01*
X23200D01*
Y14250D01*
X22960D01*
X16550Y12250D02*
Y12650D01*
X16950D01*
Y12250D01*
X16550D01*
X16630Y12330D02*
Y12570D01*
X16870D01*
Y12330D01*
X16630D01*
X19710Y12270D02*
Y12670D01*
X20110D01*
Y12270D01*
X19710D01*
X19790Y12350D02*
Y12590D01*
X20030D01*
Y12350D01*
X19790D01*
X16650Y14209D02*
Y14609D01*
X17050D01*
Y14209D01*
X16650D01*
X16730Y14289D02*
Y14529D01*
X16970D01*
Y14289D01*
X16730D01*
X18028Y14170D02*
Y14570D01*
X18428D01*
Y14170D01*
X18028D01*
X18108Y14250D02*
Y14490D01*
X18348D01*
Y14250D01*
X18108D01*
X19879Y14170D02*
Y14570D01*
X20279D01*
Y14170D01*
X19879D01*
X19959Y14250D02*
Y14490D01*
X20199D01*
Y14250D01*
X19959D01*
X17050Y12280D02*
Y12680D01*
X17450D01*
Y12280D01*
X17050D01*
X17130Y12360D02*
Y12600D01*
X17370D01*
Y12360D01*
X17130D01*
X18180Y12400D02*
Y12800D01*
X18580D01*
Y12400D01*
X18180D01*
X18260Y12480D02*
Y12720D01*
X18500D01*
Y12480D01*
X18260D01*
X17713Y14170D02*
Y14570D01*
X18113D01*
Y14170D01*
X17713D01*
X17793Y14250D02*
Y14490D01*
X18033D01*
Y14250D01*
X17793D01*
X15450Y14170D02*
Y14570D01*
X15850D01*
Y14170D01*
X15450D01*
X15530Y14250D02*
Y14490D01*
X15770D01*
Y14250D01*
X15530D01*
X16257Y14209D02*
Y14609D01*
X16657D01*
Y14209D01*
X16257D01*
X16337Y14289D02*
Y14529D01*
X16577D01*
Y14289D01*
X16337D01*
X14670Y12350D02*
Y12750D01*
X15070D01*
Y12350D01*
X14670D01*
X14750Y12430D02*
Y12670D01*
X14990D01*
Y12430D01*
X14750D01*
X24550Y16360D02*
Y16760D01*
X24950D01*
Y16360D01*
X24550D01*
X24630Y16440D02*
Y16680D01*
X24870D01*
Y16440D01*
X24630D01*
X23300Y14980D02*
Y15380D01*
X23700D01*
Y14980D01*
X23300D01*
X23380Y15060D02*
Y15300D01*
X23620D01*
Y15060D01*
X23380D01*
X18530Y12390D02*
Y12790D01*
X18930D01*
Y12390D01*
X18530D01*
X18610Y12470D02*
Y12710D01*
X18850D01*
Y12470D01*
X18610D01*
X18894Y14170D02*
Y14570D01*
X19294D01*
Y14170D01*
X18894D01*
X18974Y14250D02*
Y14490D01*
X19214D01*
Y14250D01*
X18974D01*
X15310Y12370D02*
Y12770D01*
X15710D01*
Y12370D01*
X15310D01*
X15390Y12450D02*
Y12690D01*
X15630D01*
Y12450D01*
X15390D01*
X29750Y12270D02*
Y12670D01*
X30150D01*
Y12270D01*
X29750D01*
X29830Y12350D02*
Y12590D01*
X30070D01*
Y12350D01*
X29830D01*
X31790Y12280D02*
Y12680D01*
X32190D01*
Y12280D01*
X31790D01*
X31870Y12360D02*
Y12600D01*
X32110D01*
Y12360D01*
X31870D01*
X14810Y16020D02*
Y16420D01*
X15210D01*
Y16020D01*
X14810D01*
X14890Y16100D02*
Y16340D01*
X15130D01*
Y16100D01*
X14890D01*
X15115Y16020D02*
Y16420D01*
X15515D01*
Y16020D01*
X15115D01*
X15195Y16100D02*
Y16340D01*
X15435D01*
Y16100D01*
X15195D01*
X19239Y16050D02*
Y16450D01*
X19639D01*
Y16050D01*
X19239D01*
X19319Y16130D02*
Y16370D01*
X19559D01*
Y16130D01*
X19319D01*
X23511Y15873D02*
Y16273D01*
X23911D01*
Y15873D01*
X23511D01*
X23591Y15953D02*
Y16193D01*
X23831D01*
Y15953D01*
X23591D01*
X33078Y15991D02*
Y16391D01*
X33478D01*
Y15991D01*
X33078D01*
X33158Y16071D02*
Y16311D01*
X33398D01*
Y16071D01*
X33158D01*
D119*
X49333Y35827D02*
G03*
X49333Y35827I-120J0D01*
G01*
X11931D02*
G03*
X11931Y35827I-120J0D01*
G01*
Y11811D02*
G03*
X11931Y11811I-120J0D01*
G01*
X49333D02*
G03*
X49333Y11811I-120J0D01*
G01*
D303*
X25078Y11417D02*
G03*
X25078Y11417I-200J0D01*
G01*
X26078D02*
G03*
X26078Y11417I-200J0D01*
G01*
X27078D02*
G03*
X27078Y11417I-200J0D01*
G01*
X28078D02*
G03*
X28078Y11417I-200J0D01*
G01*
X25078Y14173D02*
G03*
X25078Y14173I-200J0D01*
G01*
X26078D02*
G03*
X26078Y14173I-200J0D01*
G01*
X27078D02*
G03*
X27078Y14173I-200J0D01*
G01*
X28078D02*
G03*
X28078Y14173I-200J0D01*
G01*
X11127Y32780D02*
G03*
X11127Y32780I-200J0D01*
G01*
Y31000D02*
G03*
X11127Y31000I-200J0D01*
G01*
X22822Y35827D02*
G03*
X22822Y35827I-200J0D01*
G01*
X23822D02*
G03*
X23822Y35827I-200J0D01*
G01*
X24822D02*
G03*
X24822Y35827I-200J0D01*
G01*
X18688D02*
G03*
X18688Y35827I-200J0D01*
G01*
X19688D02*
G03*
X19688Y35827I-200J0D01*
G01*
X20688D02*
G03*
X20688Y35827I-200J0D01*
G01*
X14554D02*
G03*
X14554Y35827I-200J0D01*
G01*
X15554D02*
G03*
X15554Y35827I-200J0D01*
G01*
X16554D02*
G03*
X16554Y35827I-200J0D01*
G01*
X20688Y33465D02*
G03*
X20688Y33465I-200J0D01*
G01*
X19688D02*
G03*
X19688Y33465I-200J0D01*
G01*
X18688D02*
G03*
X18688Y33465I-200J0D01*
G01*
X24822D02*
G03*
X24822Y33465I-200J0D01*
G01*
X23822D02*
G03*
X23822Y33465I-200J0D01*
G01*
X22822D02*
G03*
X22822Y33465I-200J0D01*
G01*
X16554D02*
G03*
X16554Y33465I-200J0D01*
G01*
X15554D02*
G03*
X15554Y33465I-200J0D01*
G01*
X14554D02*
G03*
X14554Y33465I-200J0D01*
G01*
X33704Y27217D02*
G03*
X33704Y27217I-200J0D01*
G01*
Y28217D02*
G03*
X33704Y28217I-200J0D01*
G01*
Y24106D02*
G03*
X33704Y24106I-200J0D01*
G01*
Y25106D02*
G03*
X33704Y25106I-200J0D01*
G01*
X34728Y31366D02*
G03*
X34728Y31366I-200J0D01*
G01*
Y30366D02*
G03*
X34728Y30366I-200J0D01*
G01*
X37259Y25630D02*
G03*
X37259Y25630I-200J0D01*
G01*
X38259D02*
G03*
X38259Y25630I-200J0D01*
G01*
X33704Y20996D02*
G03*
X33704Y20996I-200J0D01*
G01*
Y21996D02*
G03*
X33704Y21996I-200J0D01*
G01*
X38665Y21614D02*
G03*
X38665Y21614I-200J0D01*
G01*
X36696D02*
G03*
X36696Y21614I-200J0D01*
G01*
X14842Y11417D02*
G03*
X14842Y11417I-200J0D01*
G01*
X15842D02*
G03*
X15842Y11417I-200J0D01*
G01*
X16842D02*
G03*
X16842Y11417I-200J0D01*
G01*
X17842D02*
G03*
X17842Y11417I-200J0D01*
G01*
X19960D02*
G03*
X19960Y11417I-200J0D01*
G01*
X20960D02*
G03*
X20960Y11417I-200J0D01*
G01*
X21960D02*
G03*
X21960Y11417I-200J0D01*
G01*
X22960D02*
G03*
X22960Y11417I-200J0D01*
G01*
X30196D02*
G03*
X30196Y11417I-200J0D01*
G01*
X31196D02*
G03*
X31196Y11417I-200J0D01*
G01*
X32196D02*
G03*
X32196Y11417I-200J0D01*
G01*
X33196D02*
G03*
X33196Y11417I-200J0D01*
G01*
X41224Y24873D02*
G03*
X41224Y24873I-200J0D01*
G01*
Y23473D02*
G03*
X41224Y23473I-200J0D01*
G01*
X49955Y23819D02*
G03*
X49955Y23819I-200J0D01*
G01*
X48555D02*
G03*
X48555Y23819I-200J0D01*
G01*
X37208Y27913D02*
G03*
X37208Y27913I-200J0D01*
G01*
X38208D02*
G03*
X38208Y27913I-200J0D01*
G01*
X46834Y11083D02*
G03*
X46834Y11083I-200J0D01*
G01*
X49413Y35827D02*
G03*
X49413Y35827I-200J0D01*
G01*
X12011D02*
G03*
X12011Y35827I-200J0D01*
G01*
Y11811D02*
G03*
X12011Y11811I-200J0D01*
G01*
X49413D02*
G03*
X49413Y11811I-200J0D01*
G01*
M02*
