G04 Layer_Color=128*
%FSLAX24Y24*%
%MOIN*%
G70*
G01*
G75*
%ADD223C,0.0020*%
D223*
X10010Y96959D02*
X11191D01*
X10600Y96368D02*
Y97549D01*
X53789Y96959D02*
X54970D01*
X54380Y96368D02*
Y97549D01*
X53789Y10600D02*
X54970D01*
X54380Y10010D02*
Y11191D01*
X10010Y10600D02*
X11191D01*
X10600Y10010D02*
Y11191D01*
X38268Y18959D02*
X38898D01*
X38583Y18644D02*
Y19274D01*
X36928Y18959D02*
X37558D01*
X37243Y18644D02*
Y19274D01*
X36928Y13659D02*
X37558D01*
X37243Y13344D02*
Y13974D01*
X38268Y13659D02*
X38898D01*
X38583Y13344D02*
Y13974D01*
X44734Y25809D02*
X45363D01*
X45048Y25494D02*
Y26124D01*
X46073Y25809D02*
X46704D01*
X46389Y25494D02*
Y26124D01*
X46073Y20509D02*
X46704D01*
X46389Y20194D02*
Y20824D01*
X44734Y20509D02*
X45363D01*
X45048Y20194D02*
Y20824D01*
X47637Y20519D02*
X48267D01*
X47952Y20204D02*
Y20834D01*
X48977Y20519D02*
X49607D01*
X49292Y20204D02*
Y20834D01*
X48977Y25819D02*
X49607D01*
X49292Y25504D02*
Y26134D01*
X47637Y25819D02*
X48267D01*
X47952Y25504D02*
Y26134D01*
X29307Y37425D02*
X29661D01*
X29484Y37248D02*
Y37602D01*
X29307Y38425D02*
X29661D01*
X29484Y38248D02*
Y38602D01*
X30307Y37425D02*
X30661D01*
X30484Y37248D02*
Y37602D01*
X30307Y38425D02*
X30661D01*
X30484Y38248D02*
Y38602D01*
X31307Y37425D02*
X31661D01*
X31484Y37248D02*
Y37602D01*
X31307Y38425D02*
X31661D01*
X31484Y38248D02*
Y38602D01*
X32307Y37425D02*
X32661D01*
X32484Y37248D02*
Y37602D01*
X32307Y38425D02*
X32661D01*
X32484Y38248D02*
Y38602D01*
X33307Y37425D02*
X33661D01*
X33484Y37248D02*
Y37602D01*
X33307Y38425D02*
X33661D01*
X33484Y38248D02*
Y38602D01*
X29287Y33754D02*
X29642D01*
X29465Y33577D02*
Y33931D01*
X29287Y34754D02*
X29642D01*
X29465Y34577D02*
Y34931D01*
X30287Y33754D02*
X30642D01*
X30465Y33577D02*
Y33931D01*
X30287Y34754D02*
X30642D01*
X30465Y34577D02*
Y34931D01*
X31287Y33754D02*
X31642D01*
X31465Y33577D02*
Y33931D01*
X31287Y34754D02*
X31642D01*
X31465Y34577D02*
Y34931D01*
X32287Y33754D02*
X32642D01*
X32465Y33577D02*
Y33931D01*
X32287Y34754D02*
X32642D01*
X32465Y34577D02*
Y34931D01*
X33287Y33754D02*
X33642D01*
X33465Y33577D02*
Y33931D01*
X33287Y34754D02*
X33642D01*
X33465Y34577D02*
Y34931D01*
X26646Y13386D02*
X27046D01*
X26846Y13186D02*
Y13586D01*
X27646Y13386D02*
X28046D01*
X27846Y13186D02*
Y13586D01*
X28646Y13386D02*
X29046D01*
X28846Y13186D02*
Y13586D01*
X29646Y13386D02*
X30046D01*
X29846Y13186D02*
Y13586D01*
X26646Y16142D02*
X27046D01*
X26846Y15942D02*
Y16342D01*
X27646Y16142D02*
X28046D01*
X27846Y15942D02*
Y16342D01*
X28646Y16142D02*
X29046D01*
X28846Y15942D02*
Y16342D01*
X29646Y16142D02*
X30046D01*
X29846Y15942D02*
Y16342D01*
X12696Y34748D02*
X13096D01*
X12896Y34548D02*
Y34948D01*
X12696Y32968D02*
X13096D01*
X12896Y32768D02*
Y33168D01*
X13581Y35238D02*
X14171D01*
X13876Y34943D02*
Y35533D01*
X13581Y32478D02*
X14171D01*
X13876Y32183D02*
Y32773D01*
X24391Y37795D02*
X24791D01*
X24591Y37595D02*
Y37995D01*
X25391Y37795D02*
X25791D01*
X25591Y37595D02*
Y37995D01*
X26391Y37795D02*
X26791D01*
X26591Y37595D02*
Y37995D01*
X20257Y37795D02*
X20657D01*
X20457Y37595D02*
Y37995D01*
X21257Y37795D02*
X21657D01*
X21457Y37595D02*
Y37995D01*
X22257Y37795D02*
X22657D01*
X22457Y37595D02*
Y37995D01*
X16123Y37795D02*
X16523D01*
X16323Y37595D02*
Y37995D01*
X17123Y37795D02*
X17523D01*
X17323Y37595D02*
Y37995D01*
X18123Y37795D02*
X18523D01*
X18323Y37595D02*
Y37995D01*
X22257Y35433D02*
X22657D01*
X22457Y35233D02*
Y35633D01*
X21257Y35433D02*
X21657D01*
X21457Y35233D02*
Y35633D01*
X20257Y35433D02*
X20657D01*
X20457Y35233D02*
Y35633D01*
X26391Y35433D02*
X26791D01*
X26591Y35233D02*
Y35633D01*
X25391Y35433D02*
X25791D01*
X25591Y35233D02*
Y35633D01*
X24391Y35433D02*
X24791D01*
X24591Y35233D02*
Y35633D01*
X18123Y35433D02*
X18523D01*
X18323Y35233D02*
Y35633D01*
X17123Y35433D02*
X17523D01*
X17323Y35233D02*
Y35633D01*
X16123Y35433D02*
X16523D01*
X16323Y35233D02*
Y35633D01*
X35272Y29185D02*
X35672D01*
X35472Y28985D02*
Y29385D01*
X35272Y30185D02*
X35672D01*
X35472Y29985D02*
Y30385D01*
X35272Y26075D02*
X35672D01*
X35472Y25875D02*
Y26275D01*
X35272Y27075D02*
X35672D01*
X35472Y26875D02*
Y27275D01*
X36296Y33335D02*
X36696D01*
X36496Y33135D02*
Y33535D01*
X36296Y32335D02*
X36696D01*
X36496Y32135D02*
Y32535D01*
X38828Y27598D02*
X39228D01*
X39028Y27398D02*
Y27798D01*
X39828Y27598D02*
X40228D01*
X40028Y27398D02*
Y27798D01*
X35272Y22965D02*
X35672D01*
X35472Y22765D02*
Y23165D01*
X35272Y23965D02*
X35672D01*
X35472Y23765D02*
Y24165D01*
X36738Y35026D02*
X37093D01*
X36915Y34848D02*
Y35203D01*
X35738Y35026D02*
X36093D01*
X35915Y34848D02*
Y35203D01*
X36738Y36026D02*
X37093D01*
X36915Y35848D02*
Y36203D01*
X35738Y36026D02*
X36093D01*
X35915Y35848D02*
Y36203D01*
X36738Y37026D02*
X37093D01*
X36915Y36848D02*
Y37203D01*
X35738Y37026D02*
X36093D01*
X35915Y36848D02*
Y37203D01*
X36738Y38026D02*
X37093D01*
X36915Y37848D02*
Y38203D01*
X35738Y38026D02*
X36093D01*
X35915Y37848D02*
Y38203D01*
X36738Y39026D02*
X37093D01*
X36915Y38848D02*
Y39203D01*
X35738Y39026D02*
X36093D01*
X35915Y38848D02*
Y39203D01*
X14132Y24795D02*
X15002D01*
X14567Y24360D02*
Y25230D01*
X14132Y29528D02*
X15002D01*
X14567Y29093D02*
Y29963D01*
X15447Y26665D02*
X15827D01*
X15637Y26475D02*
Y26855D01*
X15447Y27657D02*
X15827D01*
X15637Y27467D02*
Y27847D01*
X16237Y27657D02*
X16617D01*
X16427Y27467D02*
Y27847D01*
X16237Y26665D02*
X16617D01*
X16427Y26475D02*
Y26855D01*
X40213Y22913D02*
X40613D01*
X40413Y22713D02*
Y23113D01*
X38245Y22913D02*
X38645D01*
X38445Y22713D02*
Y23113D01*
X16410Y13386D02*
X16810D01*
X16610Y13186D02*
Y13586D01*
X17410Y13386D02*
X17810D01*
X17610Y13186D02*
Y13586D01*
X18410Y13386D02*
X18810D01*
X18610Y13186D02*
Y13586D01*
X19410Y13386D02*
X19810D01*
X19610Y13186D02*
Y13586D01*
X21528Y13386D02*
X21928D01*
X21728Y13186D02*
Y13586D01*
X22528Y13386D02*
X22928D01*
X22728Y13186D02*
Y13586D01*
X23528Y13386D02*
X23928D01*
X23728Y13186D02*
Y13586D01*
X24528Y13386D02*
X24928D01*
X24728Y13186D02*
Y13586D01*
X31765Y13386D02*
X32165D01*
X31965Y13186D02*
Y13586D01*
X32765Y13386D02*
X33165D01*
X32965Y13186D02*
Y13586D01*
X33765Y13386D02*
X34165D01*
X33965Y13186D02*
Y13586D01*
X34765Y13386D02*
X35165D01*
X34965Y13186D02*
Y13586D01*
X50904Y28969D02*
X51453D01*
X51178Y28693D02*
Y29244D01*
X50904Y30968D02*
X51453D01*
X51178Y30694D02*
Y31244D01*
X50904Y32968D02*
X51453D01*
X51178Y32694D02*
Y33244D01*
X50904Y34969D02*
X51453D01*
X51178Y34694D02*
Y35243D01*
X42408Y26418D02*
X42808D01*
X42608Y26219D02*
Y26618D01*
X42408Y25018D02*
X42808D01*
X42608Y24818D02*
Y25219D01*
X50253Y16820D02*
X50653D01*
X50453Y16620D02*
Y17020D01*
X50253Y18220D02*
X50653D01*
X50453Y18020D02*
Y18420D01*
X23200Y31644D02*
X23580D01*
X23390Y31454D02*
Y31834D01*
X23200Y32644D02*
X23580D01*
X23390Y32454D02*
Y32834D01*
X24200Y31644D02*
X24580D01*
X24390Y31454D02*
Y31834D01*
X24200Y32644D02*
X24580D01*
X24390Y32454D02*
Y32834D01*
X25200Y31644D02*
X25580D01*
X25390Y31454D02*
Y31834D01*
X25200Y32644D02*
X25580D01*
X25390Y32454D02*
Y32834D01*
X17474Y31644D02*
X17854D01*
X17664Y31454D02*
Y31834D01*
X17474Y32644D02*
X17854D01*
X17664Y32454D02*
Y32834D01*
X18474Y31644D02*
X18854D01*
X18664Y31454D02*
Y31834D01*
X18474Y32644D02*
X18854D01*
X18664Y32454D02*
Y32834D01*
X19474Y31644D02*
X19854D01*
X19664Y31454D02*
Y31834D01*
X19474Y32644D02*
X19854D01*
X19664Y32454D02*
Y32834D01*
X38776Y29882D02*
X39176D01*
X38976Y29682D02*
Y30082D01*
X39776Y29882D02*
X40176D01*
X39976Y29682D02*
Y30082D01*
X51975Y16024D02*
X52375D01*
X52175Y15824D02*
Y16224D01*
X50406Y13080D02*
X50556D01*
X50481Y13005D02*
Y13155D01*
X51806Y13080D02*
X51956D01*
X51881Y13005D02*
Y13155D01*
X51806Y14480D02*
X51956D01*
X51881Y14405D02*
Y14555D01*
X50406Y14480D02*
X50556D01*
X50481Y14405D02*
Y14555D01*
X50106Y13780D02*
X50256D01*
X50181Y13705D02*
Y13855D01*
X52106Y13780D02*
X52256D01*
X52181Y13705D02*
Y13855D01*
X51106Y14780D02*
X51256D01*
X51181Y14705D02*
Y14855D01*
X51106Y12780D02*
X51256D01*
X51181Y12705D02*
Y12855D01*
X50591Y13780D02*
X51772D01*
X51181Y13189D02*
Y14370D01*
X13005Y13080D02*
X13155D01*
X13080Y13005D02*
Y13155D01*
X14405Y13080D02*
X14555D01*
X14480Y13005D02*
Y13155D01*
X14405Y14480D02*
X14555D01*
X14480Y14405D02*
Y14555D01*
X13005Y14480D02*
X13155D01*
X13080Y14405D02*
Y14555D01*
X12705Y13780D02*
X12855D01*
X12780Y13705D02*
Y13855D01*
X14705Y13780D02*
X14855D01*
X14780Y13705D02*
Y13855D01*
X13705Y14780D02*
X13855D01*
X13780Y14705D02*
Y14855D01*
X13705Y12780D02*
X13855D01*
X13780Y12705D02*
Y12855D01*
X13189Y13780D02*
X14370D01*
X13780Y13189D02*
Y14370D01*
X13005Y37095D02*
X13155D01*
X13080Y37020D02*
Y37170D01*
X14405Y37095D02*
X14555D01*
X14480Y37020D02*
Y37170D01*
X14405Y38495D02*
X14555D01*
X14480Y38420D02*
Y38570D01*
X13005Y38495D02*
X13155D01*
X13080Y38420D02*
Y38570D01*
X12705Y37795D02*
X12855D01*
X12780Y37720D02*
Y37870D01*
X14705Y37795D02*
X14855D01*
X14780Y37720D02*
Y37870D01*
X13705Y38795D02*
X13855D01*
X13780Y38720D02*
Y38870D01*
X13705Y36795D02*
X13855D01*
X13780Y36720D02*
Y36870D01*
X13189Y37795D02*
X14370D01*
X13780Y37205D02*
Y38386D01*
X50406Y37095D02*
X50556D01*
X50481Y37020D02*
Y37170D01*
X51806Y37095D02*
X51956D01*
X51881Y37020D02*
Y37170D01*
X51806Y38495D02*
X51956D01*
X51881Y38420D02*
Y38570D01*
X50406Y38495D02*
X50556D01*
X50481Y38420D02*
Y38570D01*
X50106Y37795D02*
X50256D01*
X50181Y37720D02*
Y37870D01*
X52106Y37795D02*
X52256D01*
X52181Y37720D02*
Y37870D01*
X51106Y38795D02*
X51256D01*
X51181Y38720D02*
Y38870D01*
X51106Y36795D02*
X51256D01*
X51181Y36720D02*
Y36870D01*
X50591Y37795D02*
X51772D01*
X51181Y37205D02*
Y38386D01*
X40514Y17077D02*
X41064D01*
X40789Y16802D02*
Y17352D01*
X42514Y17077D02*
X43064D01*
X42789Y16802D02*
Y17352D01*
X44514Y17077D02*
X45064D01*
X44789Y16802D02*
Y17352D01*
X46514Y17077D02*
X47064D01*
X46789Y16802D02*
Y17352D01*
X40329Y20226D02*
X40479D01*
X40404Y20151D02*
Y20301D01*
X41834Y20600D02*
X41984D01*
X41909Y20525D02*
Y20675D01*
X41244Y20965D02*
X41394D01*
X41319Y20890D02*
Y21040D01*
X35781Y13819D02*
X35931D01*
X35856Y13744D02*
Y13894D01*
X35112Y17362D02*
X35262D01*
X35187Y17287D02*
Y17437D01*
X35161Y18179D02*
X35311D01*
X35236Y18104D02*
Y18254D01*
X36293Y17126D02*
X36443D01*
X36368Y17051D02*
Y17201D01*
X36293Y18167D02*
X36443D01*
X36368Y18092D02*
Y18242D01*
X44423Y25197D02*
X44573D01*
X44498Y25122D02*
Y25272D01*
X44374Y25896D02*
X44524D01*
X44449Y25821D02*
Y25971D01*
X38492Y15886D02*
X38792D01*
X38642Y15736D02*
Y16036D01*
X37950Y15315D02*
X38250D01*
X38100Y15165D02*
Y15465D01*
X49413Y15266D02*
X49563D01*
X49488Y15191D02*
Y15341D01*
X48557Y15039D02*
X48707D01*
X48632Y14964D02*
Y15114D01*
X36293Y17820D02*
X36443D01*
X36368Y17745D02*
Y17895D01*
X36293Y17473D02*
X36443D01*
X36368Y17398D02*
Y17548D01*
X36293Y16779D02*
X36443D01*
X36368Y16704D02*
Y16854D01*
X51392Y22205D02*
X51542D01*
X51467Y22130D02*
Y22280D01*
X50919Y22205D02*
X51069D01*
X50994Y22130D02*
Y22280D01*
X50516Y22205D02*
X50666D01*
X50591Y22130D02*
Y22280D01*
X39423Y30758D02*
X39573D01*
X39498Y30683D02*
Y30833D01*
X39019Y30758D02*
X39169D01*
X39094Y30683D02*
Y30833D01*
X39079Y31841D02*
X39229D01*
X39154Y31766D02*
Y31916D01*
X40004Y31506D02*
X40154D01*
X40079Y31431D02*
Y31581D01*
X40004Y32205D02*
X40154D01*
X40079Y32130D02*
Y32280D01*
X39462Y32205D02*
X39612D01*
X39537Y32130D02*
Y32280D01*
X39019Y31280D02*
X39169D01*
X39094Y31205D02*
Y31355D01*
X36913Y30000D02*
X37063D01*
X36988Y29925D02*
Y30075D01*
X36953Y28051D02*
X37103D01*
X37028Y27976D02*
Y28126D01*
X41155Y31998D02*
X41405D01*
X41280Y31873D02*
Y32123D01*
X47228Y15285D02*
X47378D01*
X47303Y15210D02*
Y15360D01*
X46411Y15285D02*
X46561D01*
X46486Y15210D02*
Y15360D01*
X46057Y17146D02*
X46207D01*
X46132Y17071D02*
Y17221D01*
X24895Y33031D02*
X25045D01*
X24970Y32956D02*
Y33106D01*
X29994Y33406D02*
X30144D01*
X30069Y33331D02*
Y33481D01*
X48035Y35374D02*
X48185D01*
X48110Y35299D02*
Y35449D01*
X48035Y35774D02*
X48185D01*
X48110Y35699D02*
Y35849D01*
X48035Y34974D02*
X48185D01*
X48110Y34899D02*
Y35049D01*
X48035Y34574D02*
X48185D01*
X48110Y34499D02*
Y34649D01*
X47635Y34574D02*
X47785D01*
X47710Y34499D02*
Y34649D01*
X47235Y34574D02*
X47385D01*
X47310Y34499D02*
Y34649D01*
X47235Y34974D02*
X47385D01*
X47310Y34899D02*
Y35049D01*
X47635Y34974D02*
X47785D01*
X47710Y34899D02*
Y35049D01*
X47635Y35374D02*
X47785D01*
X47710Y35299D02*
Y35449D01*
X47235Y35374D02*
X47385D01*
X47310Y35299D02*
Y35449D01*
X47235Y35774D02*
X47385D01*
X47310Y35699D02*
Y35849D01*
X47635Y35774D02*
X47785D01*
X47710Y35699D02*
Y35849D01*
X48435Y35774D02*
X48585D01*
X48510Y35699D02*
Y35849D01*
X48835Y35774D02*
X48985D01*
X48910Y35699D02*
Y35849D01*
X48835Y35374D02*
X48985D01*
X48910Y35299D02*
Y35449D01*
X48435Y35374D02*
X48585D01*
X48510Y35299D02*
Y35449D01*
X48435Y34974D02*
X48585D01*
X48510Y34899D02*
Y35049D01*
X48835Y34974D02*
X48985D01*
X48910Y34899D02*
Y35049D01*
X48835Y34574D02*
X48985D01*
X48910Y34499D02*
Y34649D01*
X48435Y34574D02*
X48585D01*
X48510Y34499D02*
Y34649D01*
X44853Y28984D02*
X45003D01*
X44928Y28909D02*
Y29059D01*
X45253Y28984D02*
X45403D01*
X45328Y28909D02*
Y29059D01*
X45253Y29384D02*
X45403D01*
X45328Y29309D02*
Y29459D01*
X44853Y29384D02*
X45003D01*
X44928Y29309D02*
Y29459D01*
X44853Y29784D02*
X45003D01*
X44928Y29709D02*
Y29859D01*
X45253Y29784D02*
X45403D01*
X45328Y29709D02*
Y29859D01*
X45253Y30184D02*
X45403D01*
X45328Y30109D02*
Y30259D01*
X44853Y30184D02*
X45003D01*
X44928Y30109D02*
Y30259D01*
X44053Y30184D02*
X44203D01*
X44128Y30109D02*
Y30259D01*
X43653Y30184D02*
X43803D01*
X43728Y30109D02*
Y30259D01*
X43653Y29784D02*
X43803D01*
X43728Y29709D02*
Y29859D01*
X44053Y29784D02*
X44203D01*
X44128Y29709D02*
Y29859D01*
X44053Y29384D02*
X44203D01*
X44128Y29309D02*
Y29459D01*
X43653Y29384D02*
X43803D01*
X43728Y29309D02*
Y29459D01*
X43653Y28984D02*
X43803D01*
X43728Y28909D02*
Y29059D01*
X44053Y28984D02*
X44203D01*
X44128Y28909D02*
Y29059D01*
X44453Y28984D02*
X44603D01*
X44528Y28909D02*
Y29059D01*
X44453Y29384D02*
X44603D01*
X44528Y29309D02*
Y29459D01*
X44453Y30184D02*
X44603D01*
X44528Y30109D02*
Y30259D01*
X44453Y29784D02*
X44603D01*
X44528Y29709D02*
Y29859D01*
X19693Y29069D02*
X19843D01*
X19769Y28993D02*
Y29144D01*
X19693Y29443D02*
X19843D01*
X19769Y29368D02*
Y29518D01*
X19317Y29446D02*
X19467D01*
X19392Y29371D02*
Y29521D01*
X19321Y29069D02*
X19471D01*
X19396Y28993D02*
Y29144D01*
X19319Y28685D02*
X19469D01*
X19394Y28610D02*
Y28760D01*
X19693Y28694D02*
X19843D01*
X19769Y28619D02*
Y28769D01*
X20068Y28694D02*
X20218D01*
X20143Y28619D02*
Y28769D01*
X20068Y29069D02*
X20218D01*
X20143Y28993D02*
Y29144D01*
X20068Y29443D02*
X20218D01*
X20143Y29368D02*
Y29518D01*
X14768Y18729D02*
X14918D01*
X14843Y18654D02*
Y18804D01*
X14394Y18729D02*
X14543D01*
X14468Y18654D02*
Y18804D01*
X14390Y18352D02*
X14540D01*
X14465Y18277D02*
Y18427D01*
X14768Y18357D02*
X14918D01*
X14843Y18282D02*
Y18432D01*
X15151Y18355D02*
X15301D01*
X15226Y18280D02*
Y18430D01*
X15142Y18729D02*
X15292D01*
X15217Y18654D02*
Y18804D01*
X15142Y19103D02*
X15292D01*
X15217Y19028D02*
Y19178D01*
X14768Y19103D02*
X14918D01*
X14843Y19028D02*
Y19178D01*
X14394Y19103D02*
X14543D01*
X14468Y19028D02*
Y19178D01*
X19277Y18729D02*
X19427D01*
X19352Y18654D02*
Y18804D01*
X18903Y18729D02*
X19053D01*
X18978Y18654D02*
Y18804D01*
X18899Y18352D02*
X19049D01*
X18974Y18277D02*
Y18427D01*
X19277Y18357D02*
X19427D01*
X19352Y18282D02*
Y18432D01*
X19660Y18355D02*
X19810D01*
X19735Y18280D02*
Y18430D01*
X19651Y18729D02*
X19801D01*
X19726Y18654D02*
Y18804D01*
X19651Y19103D02*
X19801D01*
X19726Y19028D02*
Y19178D01*
X19277Y19103D02*
X19427D01*
X19352Y19028D02*
Y19178D01*
X18903Y19103D02*
X19053D01*
X18978Y19028D02*
Y19178D01*
X23663Y18729D02*
X23813D01*
X23738Y18654D02*
Y18804D01*
X23289Y18729D02*
X23439D01*
X23364Y18654D02*
Y18804D01*
X23285Y18352D02*
X23435D01*
X23360Y18277D02*
Y18427D01*
X23663Y18357D02*
X23813D01*
X23738Y18282D02*
Y18432D01*
X24047Y18355D02*
X24197D01*
X24122Y18280D02*
Y18430D01*
X24037Y18729D02*
X24187D01*
X24112Y18654D02*
Y18804D01*
X24037Y19103D02*
X24187D01*
X24112Y19028D02*
Y19178D01*
X23663Y19103D02*
X23813D01*
X23738Y19028D02*
Y19178D01*
X23289Y19103D02*
X23439D01*
X23364Y19028D02*
Y19178D01*
X32543Y18660D02*
X32693D01*
X32618Y18585D02*
Y18735D01*
X32169Y18660D02*
X32319D01*
X32244Y18585D02*
Y18735D01*
X32166Y18283D02*
X32315D01*
X32241Y18208D02*
Y18358D01*
X32543Y18288D02*
X32693D01*
X32618Y18213D02*
Y18363D01*
X32927Y18286D02*
X33077D01*
X33002Y18211D02*
Y18361D01*
X32917Y18660D02*
X33067D01*
X32992Y18585D02*
Y18735D01*
X32917Y19034D02*
X33067D01*
X32992Y18959D02*
Y19109D01*
X32543Y19034D02*
X32693D01*
X32618Y18959D02*
Y19109D01*
X32169Y19034D02*
X32319D01*
X32244Y18959D02*
Y19109D01*
X17323Y21498D02*
X17473D01*
X17399Y21423D02*
Y21574D01*
X17393Y22018D02*
X17543D01*
X17469Y21944D02*
Y22094D01*
X42264Y33349D02*
X42414D01*
X42339Y33273D02*
Y33424D01*
X44113Y34548D02*
X44264D01*
X44188Y34474D02*
Y34623D01*
X45184Y34009D02*
X45333D01*
X45258Y33933D02*
Y34083D01*
X42713Y36618D02*
X42863D01*
X42789Y36544D02*
Y36693D01*
X44563Y36449D02*
X44714D01*
X44639Y36374D02*
Y36523D01*
X44289Y34128D02*
X44569D01*
X44429Y33988D02*
Y34269D01*
X45779Y37585D02*
X45929D01*
X45854Y37510D02*
Y37660D01*
X43649Y38108D02*
X43948D01*
X43798Y37959D02*
Y38259D01*
X46034Y33349D02*
X46184D01*
X46108Y33273D02*
Y33424D01*
X44149Y33349D02*
X44299D01*
X44223Y33273D02*
Y33424D01*
X37994Y33768D02*
X38143D01*
X38068Y33693D02*
Y33844D01*
X40379Y33349D02*
X40529D01*
X40454Y33273D02*
Y33424D01*
X43645Y36964D02*
X43945D01*
X43795Y36814D02*
Y37114D01*
X34264Y14448D02*
X34413D01*
X34339Y14374D02*
Y14524D01*
X33303Y14448D02*
X33454D01*
X33379Y14374D02*
Y14524D01*
X32443Y14448D02*
X32594D01*
X32518Y14374D02*
Y14524D01*
X23363Y14448D02*
X23514D01*
X23438Y14374D02*
Y14524D01*
X15874Y14148D02*
X16023D01*
X15948Y14073D02*
Y14224D01*
X19363Y30728D02*
X19513D01*
X19439Y30654D02*
Y30803D01*
X16273Y31339D02*
X16423D01*
X16349Y31263D02*
Y31414D01*
X22174Y33249D02*
X22324D01*
X22248Y33173D02*
Y33324D01*
X19194Y35719D02*
X19344D01*
X19268Y35643D02*
Y35793D01*
X26490Y26201D02*
X26640D01*
X26565Y26126D02*
Y26276D01*
X31893Y25069D02*
X32043D01*
X31969Y24994D02*
Y25144D01*
X33557Y21486D02*
X33707D01*
X33632Y21411D02*
Y21561D01*
X25821Y27776D02*
X25971D01*
X25896Y27701D02*
Y27851D01*
X26342Y26801D02*
X26492D01*
X26417Y26726D02*
Y26876D01*
X25693Y27165D02*
X25843D01*
X25768Y27090D02*
Y27240D01*
X28107Y24931D02*
X28257D01*
X28182Y24856D02*
Y25006D01*
X28980Y29449D02*
X29130D01*
X29055Y29374D02*
Y29524D01*
X28705Y25039D02*
X28855D01*
X28780Y24964D02*
Y25114D01*
X29177Y24724D02*
X29327D01*
X29252Y24649D02*
Y24799D01*
X29256Y25787D02*
X29406D01*
X29331Y25712D02*
Y25862D01*
X29256Y26299D02*
X29406D01*
X29331Y26224D02*
Y26374D01*
X29255Y29795D02*
X29405D01*
X29330Y29720D02*
Y29870D01*
X12602Y18465D02*
X12752D01*
X12677Y18390D02*
Y18540D01*
X37448Y14843D02*
X37748D01*
X37598Y14693D02*
Y14993D01*
X35112Y17003D02*
X35262D01*
X35187Y16928D02*
Y17078D01*
X35112Y16644D02*
X35262D01*
X35187Y16569D02*
Y16719D01*
X44108Y21683D02*
X44258D01*
X44183Y21608D02*
Y21758D01*
X44108Y22037D02*
X44258D01*
X44183Y21962D02*
Y22112D01*
X44108Y22392D02*
X44258D01*
X44183Y22317D02*
Y22467D01*
X43688Y22392D02*
X43838D01*
X43763Y22317D02*
Y22467D01*
X43268Y22392D02*
X43418D01*
X43343Y22317D02*
Y22467D01*
X42848Y22392D02*
X42998D01*
X42923Y22317D02*
Y22467D01*
X42848Y22037D02*
X42998D01*
X42923Y21962D02*
Y22112D01*
X42848Y21683D02*
X42998D01*
X42923Y21608D02*
Y21758D01*
X50919Y19764D02*
X51069D01*
X50994Y19689D02*
Y19839D01*
X50516Y19764D02*
X50666D01*
X50591Y19689D02*
Y19839D01*
X50112Y19764D02*
X50262D01*
X50187Y19689D02*
Y19839D01*
X51726Y19764D02*
X51876D01*
X51801Y19689D02*
Y19839D01*
X50919Y20984D02*
X51069D01*
X50994Y20909D02*
Y21059D01*
X33390Y24882D02*
X33540D01*
X33465Y24807D02*
Y24957D01*
X32287Y25364D02*
X32437D01*
X32362Y25289D02*
Y25439D01*
X50112Y20551D02*
X50262D01*
X50187Y20476D02*
Y20626D01*
X50112Y20945D02*
X50262D01*
X50187Y20870D02*
Y21020D01*
X50516Y20965D02*
X50666D01*
X50591Y20890D02*
Y21040D01*
X51323Y20965D02*
X51473D01*
X51398Y20890D02*
Y21040D01*
X51726Y20965D02*
X51876D01*
X51801Y20890D02*
Y21040D01*
X51323Y19764D02*
X51473D01*
X51398Y19689D02*
Y19839D01*
X50112Y20157D02*
X50262D01*
X50187Y20082D02*
Y20232D01*
X42474Y22805D02*
X42624D01*
X42549Y22730D02*
Y22880D01*
X41709Y34092D02*
X42009D01*
X41859Y33942D02*
Y34242D01*
X45644Y37069D02*
X45793D01*
X45718Y36994D02*
Y37143D01*
X48403Y38780D02*
X48683D01*
X48543Y38640D02*
Y38920D01*
X43941Y27638D02*
X44091D01*
X44016Y27563D02*
Y27713D01*
X42917Y27835D02*
X43067D01*
X42992Y27760D02*
Y27910D01*
X42917Y28228D02*
X43067D01*
X42992Y28153D02*
Y28303D01*
X43271Y27638D02*
X43421D01*
X43346Y27563D02*
Y27713D01*
X43271Y28425D02*
X43421D01*
X43346Y28350D02*
Y28500D01*
X43271Y28031D02*
X43421D01*
X43346Y27957D02*
Y28107D01*
X43705Y27402D02*
X43855D01*
X43780Y27327D02*
Y27477D01*
X44216Y27402D02*
X44366D01*
X44291Y27327D02*
Y27477D01*
X44925Y27638D02*
X45075D01*
X45000Y27563D02*
Y27713D01*
X44689Y27402D02*
X44839D01*
X44764Y27327D02*
Y27477D01*
X44453Y27638D02*
X44603D01*
X44528Y27563D02*
Y27713D01*
X48271Y33307D02*
X48421D01*
X48346Y33232D02*
Y33382D01*
X47799Y33307D02*
X47949D01*
X47874Y33232D02*
Y33382D01*
X47287Y33307D02*
X47437D01*
X47362Y33232D02*
Y33382D01*
X46815Y33386D02*
X46965D01*
X46890Y33311D02*
Y33461D01*
X46815Y33701D02*
X46965D01*
X46890Y33626D02*
Y33776D01*
X46815Y34016D02*
X46965D01*
X46890Y33941D02*
Y34091D01*
X46342Y28346D02*
X46492D01*
X46417Y28271D02*
Y28421D01*
X46564Y18168D02*
X46714D01*
X46638Y18094D02*
Y18243D01*
X47405Y18110D02*
X47555D01*
X47480Y18035D02*
Y18185D01*
X47642Y16968D02*
X47792D01*
X47717Y16894D02*
Y17043D01*
X47553Y16457D02*
X47703D01*
X47628Y16382D02*
Y16532D01*
X46057Y16437D02*
X46207D01*
X46132Y16362D02*
Y16512D01*
X45949Y18583D02*
X46099D01*
X46024Y18508D02*
Y18658D01*
X49256Y17638D02*
X49406D01*
X49331Y17563D02*
Y17713D01*
X48414Y19339D02*
X48563D01*
X48488Y19263D02*
Y19413D01*
X47783Y19339D02*
X47934D01*
X47859Y19263D02*
Y19413D01*
X48924Y21409D02*
X49074D01*
X48998Y21333D02*
Y21484D01*
X48503Y21268D02*
X48653D01*
X48579Y21193D02*
Y21344D01*
X47703Y21268D02*
X47853D01*
X47779Y21193D02*
Y21344D01*
X47253Y21469D02*
X47403D01*
X47329Y21393D02*
Y21544D01*
X49344Y22208D02*
X49493D01*
X49419Y22134D02*
Y22283D01*
X46974Y21728D02*
X47123D01*
X47049Y21653D02*
Y21804D01*
X52297Y23720D02*
X52447D01*
X52372Y23645D02*
Y23795D01*
X50555Y23307D02*
X50705D01*
X50630Y23232D02*
Y23382D01*
X51106Y23307D02*
X51256D01*
X51181Y23232D02*
Y23382D01*
X50043Y22756D02*
X50193D01*
X50118Y22681D02*
Y22831D01*
X49394Y26369D02*
X49543D01*
X49468Y26293D02*
Y26444D01*
X47894Y26878D02*
X48043D01*
X47969Y26804D02*
Y26953D01*
X49216Y24872D02*
X49366D01*
X49291Y24797D02*
Y24947D01*
X47858Y24843D02*
X48008D01*
X47933Y24768D02*
Y24918D01*
X47248Y25138D02*
X47398D01*
X47323Y25063D02*
Y25213D01*
X40419Y38898D02*
X40568D01*
X40493Y38823D02*
Y38974D01*
X42998Y34569D02*
X43198D01*
X43099Y34469D02*
Y34669D01*
X38533Y38898D02*
X38684D01*
X38609Y38823D02*
Y38974D01*
X42304Y38898D02*
X42453D01*
X42379Y38823D02*
Y38974D01*
X44188Y38898D02*
X44338D01*
X44264Y38823D02*
Y38974D01*
X46073Y38898D02*
X46224D01*
X46149Y38823D02*
Y38974D01*
X46894Y32874D02*
X47043D01*
X46968Y32799D02*
Y32949D01*
X46444Y34488D02*
X46593D01*
X46519Y34413D02*
Y34564D01*
X38324Y36089D02*
X38473D01*
X38398Y36014D02*
Y36163D01*
X38324Y34629D02*
X38473D01*
X38398Y34553D02*
Y34704D01*
X46444Y36084D02*
X46593D01*
X46519Y36009D02*
Y36158D01*
X39098Y32874D02*
X39248D01*
X39173Y32799D02*
Y32949D01*
X38324Y37548D02*
X38473D01*
X38398Y37473D02*
Y37624D01*
X45273Y38249D02*
X45423D01*
X45349Y38173D02*
Y38324D01*
X44689Y38261D02*
X44839D01*
X44764Y38186D02*
Y38336D01*
X46444Y37678D02*
X46593D01*
X46519Y37603D02*
Y37754D01*
X17543Y17126D02*
X17693D01*
X17618Y17051D02*
Y17201D01*
X13103Y17048D02*
X13254D01*
X13178Y16974D02*
Y17124D01*
X16460Y17126D02*
X16610D01*
X16535Y17051D02*
Y17201D01*
X21972Y17126D02*
X22122D01*
X22047Y17051D02*
Y17201D01*
X20988Y17126D02*
X21138D01*
X21063Y17051D02*
Y17201D01*
X30831Y17520D02*
X30981D01*
X30906Y17445D02*
Y17595D01*
X34743Y16368D02*
X34894D01*
X34818Y16293D02*
Y16444D01*
X33783Y19882D02*
X33933D01*
X33858Y19807D02*
Y19957D01*
X31493Y19719D02*
X31644D01*
X31569Y19643D02*
Y19793D01*
X24925Y19882D02*
X25075D01*
X25000Y19807D02*
Y19957D01*
X22643Y19769D02*
X22794D01*
X22719Y19693D02*
Y19843D01*
X20594Y19882D02*
X20744D01*
X20669Y19807D02*
Y19957D01*
X18243Y19769D02*
X18393D01*
X18319Y19693D02*
Y19843D01*
X16067Y19882D02*
X16217D01*
X16142Y19807D02*
Y19957D01*
X13743Y19769D02*
X13894D01*
X13819Y19693D02*
Y19843D01*
X34659Y21211D02*
X34809D01*
X34734Y21136D02*
Y21286D01*
X30594Y26604D02*
X30744D01*
X30669Y26529D02*
Y26679D01*
X34049Y18957D02*
X34199D01*
X34124Y18882D02*
Y19032D01*
X34492Y17480D02*
X34642D01*
X34567Y17405D02*
Y17555D01*
X16529Y17569D02*
X16679D01*
X16604Y17494D02*
Y17644D01*
X17523Y17559D02*
X17673D01*
X17598Y17484D02*
Y17634D01*
X21933Y17559D02*
X22083D01*
X22008Y17484D02*
Y17634D01*
X20988Y17559D02*
X21138D01*
X21063Y17484D02*
Y17634D01*
X16027Y21260D02*
X16177D01*
X16102Y21185D02*
Y21335D01*
X13084Y17559D02*
X13234D01*
X13159Y17484D02*
Y17634D01*
X30555Y17874D02*
X30705D01*
X30630Y17799D02*
Y17949D01*
X35161Y18425D02*
X35311D01*
X35236Y18350D02*
Y18500D01*
X17208Y18494D02*
X17358D01*
X17283Y18419D02*
Y18569D01*
X21618Y18465D02*
X21768D01*
X21693Y18390D02*
Y18540D01*
X33271Y21181D02*
X33421D01*
X33346Y21106D02*
Y21256D01*
X33980Y20866D02*
X34130D01*
X34055Y20791D02*
Y20941D01*
X33114Y16378D02*
X33264D01*
X33189Y16303D02*
Y16453D01*
X32012Y16378D02*
X32162D01*
X32087Y16303D02*
Y16453D01*
X33468Y16378D02*
X33618D01*
X33543Y16303D02*
Y16453D01*
X31657Y16378D02*
X31807D01*
X31732Y16303D02*
Y16453D01*
X20624Y19026D02*
X20774D01*
X20699Y18951D02*
Y19101D01*
X20004Y31142D02*
X20154D01*
X20079Y31067D02*
Y31217D01*
X22651Y30207D02*
X22801D01*
X22726Y30132D02*
Y30282D01*
X22346Y29045D02*
X22496D01*
X22421Y28970D02*
Y29120D01*
X17612Y27283D02*
X17762D01*
X17687Y27208D02*
Y27358D01*
X17848Y28179D02*
X17998D01*
X17923Y28104D02*
Y28254D01*
X19147Y24045D02*
X19297D01*
X19222Y23970D02*
Y24120D01*
X18498Y27500D02*
X18648D01*
X18573Y27425D02*
Y27575D01*
X17445Y24547D02*
X17595D01*
X17520Y24472D02*
Y24622D01*
X27082Y33565D02*
X27232D01*
X27157Y33490D02*
Y33640D01*
X26382Y28583D02*
X26532D01*
X26457Y28508D02*
Y28658D01*
X26009Y28968D02*
X26159D01*
X26084Y28893D02*
Y29043D01*
X30407Y25925D02*
X30557D01*
X30482Y25850D02*
Y26000D01*
X34138Y30768D02*
X34288D01*
X34213Y30693D02*
Y30843D01*
X25260Y30207D02*
X25410D01*
X25335Y30132D02*
Y30282D01*
X26598Y23356D02*
X26748D01*
X26673Y23281D02*
Y23431D01*
X25477Y23042D02*
X25627D01*
X25552Y22967D02*
Y23117D01*
X29334Y22933D02*
X29484D01*
X29409Y22858D02*
Y23008D01*
X29966Y22549D02*
X30116D01*
X30041Y22474D02*
Y22624D01*
X30142Y26476D02*
X30292D01*
X30217Y26401D02*
Y26551D01*
X25358Y21942D02*
X25508D01*
X25433Y21867D02*
Y22017D01*
X33134Y29656D02*
X33284D01*
X33209Y29581D02*
Y29731D01*
X24157Y29242D02*
X24307D01*
X24232Y29167D02*
Y29317D01*
X20397Y34409D02*
X20547D01*
X20472Y34334D02*
Y34484D01*
X29069Y20719D02*
X29219D01*
X29144Y20643D02*
Y20793D01*
X20269Y31417D02*
X20419D01*
X20344Y31342D02*
Y31492D01*
X28508Y18071D02*
X28658D01*
X28583Y17996D02*
Y18146D01*
X26775Y20000D02*
X26925D01*
X26850Y19925D02*
Y20075D01*
X26795Y20522D02*
X26945D01*
X26870Y20447D02*
Y20597D01*
X28586Y18740D02*
X28736D01*
X28661Y18665D02*
Y18815D01*
X30171Y19400D02*
X30321D01*
X30246Y19325D02*
Y19475D01*
X28508Y20000D02*
X28658D01*
X28583Y19925D02*
Y20075D01*
X19916Y21153D02*
X20066D01*
X19991Y21078D02*
Y21228D01*
X13393Y21718D02*
X13543D01*
X13469Y21644D02*
Y21793D01*
X20988Y21142D02*
X21138D01*
X21063Y21067D02*
Y21217D01*
X20437Y21142D02*
X20587D01*
X20512Y21067D02*
Y21217D01*
X15378Y16427D02*
X15528D01*
X15453Y16352D02*
Y16502D01*
X14226Y16417D02*
X14376D01*
X14301Y16342D02*
Y16492D01*
X16744Y21198D02*
X16894D01*
X16818Y21123D02*
Y21274D01*
X13901Y16417D02*
X14051D01*
X13976Y16342D02*
Y16492D01*
X22720Y16378D02*
X22870D01*
X22795Y16303D02*
Y16453D01*
X16167Y19024D02*
X16317D01*
X16242Y18949D02*
Y19099D01*
X25870Y18032D02*
X26020D01*
X25945Y17957D02*
Y18106D01*
X12720Y18701D02*
X12870D01*
X12795Y18626D02*
Y18776D01*
X21342Y18465D02*
X21492D01*
X21417Y18390D02*
Y18540D01*
X23647Y26182D02*
X23797D01*
X23722Y26107D02*
Y26257D01*
X23508Y28898D02*
X23658D01*
X23583Y28823D02*
Y28973D01*
X33232Y27008D02*
X33382D01*
X33307Y26933D02*
Y27083D01*
X21018Y27728D02*
X21168D01*
X21093Y27653D02*
Y27803D01*
X21371Y30440D02*
X21521D01*
X21446Y30365D02*
Y30515D01*
X26785Y19488D02*
X26935D01*
X26860Y19413D02*
Y19563D01*
X19935Y24380D02*
X20085D01*
X20010Y24305D02*
Y24455D01*
X19935Y23996D02*
X20085D01*
X20010Y23921D02*
Y24071D01*
X16775Y32559D02*
X16925D01*
X16850Y32484D02*
Y32634D01*
X17701Y30118D02*
X17851D01*
X17776Y30043D02*
Y30193D01*
X21018Y29173D02*
X21168D01*
X21093Y29098D02*
Y29248D01*
X34295Y30157D02*
X34445D01*
X34370Y30082D02*
Y30232D01*
X32917Y30118D02*
X33067D01*
X32992Y30043D02*
Y30193D01*
X32838Y27756D02*
X32988D01*
X32913Y27681D02*
Y27831D01*
X32681Y29567D02*
X32831D01*
X32756Y29492D02*
Y29642D01*
X27533Y19419D02*
X27683D01*
X27608Y19344D02*
Y19494D01*
X28705Y19488D02*
X28855D01*
X28780Y19413D02*
Y19563D01*
X27533Y20512D02*
X27683D01*
X27608Y20437D02*
Y20587D01*
X25043Y19026D02*
X25193D01*
X25118Y18951D02*
Y19101D01*
X16903Y18484D02*
X17053D01*
X16978Y18409D02*
Y18559D01*
X22258Y19026D02*
X22408D01*
X22333Y18951D02*
Y19101D01*
X17691Y25108D02*
X17841D01*
X17766Y25033D02*
Y25183D01*
X14593Y21168D02*
X14743D01*
X14669Y21093D02*
Y21244D01*
X15397Y21211D02*
X15547D01*
X15472Y21136D02*
Y21286D01*
X32838Y26890D02*
X32988D01*
X32913Y26815D02*
Y26965D01*
X24334Y29646D02*
X24484D01*
X24409Y29571D02*
Y29721D01*
X25092Y21152D02*
X25242D01*
X25167Y21077D02*
Y21227D01*
X23705Y24449D02*
X23855D01*
X23780Y24374D02*
Y24524D01*
X22523Y26880D02*
X22673D01*
X22598Y26805D02*
Y26955D01*
X23783Y29213D02*
X23933D01*
X23858Y29138D02*
Y29288D01*
X22725Y26531D02*
X22875D01*
X22800Y26456D02*
Y26606D01*
X22208Y27047D02*
X22358D01*
X22283Y26972D02*
Y27122D01*
X22145Y28207D02*
X22295D01*
X22220Y28132D02*
Y28282D01*
X22835Y28898D02*
X22985D01*
X22910Y28823D02*
Y28973D01*
X23393Y24778D02*
X23544D01*
X23468Y24704D02*
Y24853D01*
X23688Y24072D02*
X23838D01*
X23763Y23997D02*
Y24147D01*
X15838Y21969D02*
X15988D01*
X15913Y21893D02*
Y22043D01*
X27573Y23041D02*
X27723D01*
X27648Y22966D02*
Y23116D01*
X28262Y23356D02*
X28412D01*
X28337Y23281D02*
Y23431D01*
X28547Y21850D02*
X28697D01*
X28622Y21775D02*
Y21925D01*
X19413Y22408D02*
X19563D01*
X19489Y22334D02*
Y22483D01*
X19424Y21609D02*
X19574D01*
X19498Y21534D02*
Y21683D01*
X16382Y21969D02*
X16532D01*
X16457Y21893D02*
Y22043D01*
X25063Y23061D02*
X25213D01*
X25138Y22986D02*
Y23136D01*
X28696Y20483D02*
X28846D01*
X28771Y20408D02*
Y20558D01*
X28547Y21457D02*
X28697D01*
X28622Y21382D02*
Y21532D01*
X25476Y21142D02*
X25626D01*
X25551Y21067D02*
Y21217D01*
X26796Y21556D02*
X26946D01*
X26871Y21481D02*
Y21631D01*
X23902Y23239D02*
X24052D01*
X23977Y23164D02*
Y23314D01*
X24474Y21139D02*
X24623D01*
X24548Y21063D02*
Y21214D01*
X24813Y21888D02*
X24964D01*
X24889Y21813D02*
Y21964D01*
X32682Y30983D02*
X32832D01*
X32757Y30908D02*
Y31058D01*
X29768Y18346D02*
X29918D01*
X29843Y18271D02*
Y18421D01*
X30279Y17874D02*
X30429D01*
X30354Y17799D02*
Y17949D01*
X13222Y19024D02*
X13372D01*
X13297Y18949D02*
Y19099D01*
X23344Y21168D02*
X23493D01*
X23419Y21093D02*
Y21244D01*
X32838Y28661D02*
X32988D01*
X32913Y28586D02*
Y28736D01*
X32681Y29075D02*
X32831D01*
X32756Y29000D02*
Y29150D01*
X29011Y31685D02*
X29161D01*
X29086Y31610D02*
Y31760D01*
X23605Y25779D02*
X23755D01*
X23680Y25703D02*
Y25854D01*
X25939Y25797D02*
X26089D01*
X26014Y25722D02*
Y25872D01*
X23665Y26575D02*
X23815D01*
X23740Y26500D02*
Y26650D01*
X26647Y27303D02*
X26797D01*
X26722Y27228D02*
Y27378D01*
X24340Y27677D02*
X24490D01*
X24415Y27602D02*
Y27752D01*
X24208Y25631D02*
X24358D01*
X24283Y25556D02*
Y25706D01*
X24494Y23849D02*
X24643D01*
X24569Y23774D02*
Y23923D01*
X26057Y25089D02*
X26207D01*
X26132Y25014D02*
Y25164D01*
X24208Y26655D02*
X24358D01*
X24283Y26580D02*
Y26730D01*
X26382Y25502D02*
X26532D01*
X26457Y25427D02*
Y25577D01*
X25476Y29331D02*
X25626D01*
X25551Y29256D02*
Y29406D01*
X25437Y28622D02*
X25587D01*
X25512Y28547D02*
Y28697D01*
X25949Y28307D02*
X26099D01*
X26024Y28232D02*
Y28382D01*
X26490Y24823D02*
X26640D01*
X26565Y24748D02*
Y24898D01*
X27603Y24539D02*
X27753D01*
X27678Y24464D02*
Y24613D01*
X26638Y28091D02*
X26788D01*
X26713Y28016D02*
Y28166D01*
X28145Y29490D02*
X28295D01*
X28220Y29415D02*
Y29565D01*
X25846Y29328D02*
X25996D01*
X25921Y29253D02*
Y29403D01*
X27582Y25039D02*
X27732D01*
X27657Y24964D02*
Y25114D01*
X26313Y27677D02*
X26463D01*
X26388Y27602D02*
Y27752D01*
X35831Y31299D02*
X35981D01*
X35906Y31224D02*
Y31374D01*
X50230Y28219D02*
X50380D01*
X50305Y28143D02*
Y28293D01*
X50804Y28219D02*
X50954D01*
X50879Y28143D02*
Y28293D01*
X51972Y29646D02*
X52122D01*
X52047Y29571D02*
Y29721D01*
X51953Y28219D02*
X52103D01*
X52028Y28143D02*
Y28293D01*
X50949Y29646D02*
X51099D01*
X51024Y29571D02*
Y29721D01*
X50437Y29646D02*
X50587D01*
X50512Y29571D02*
Y29721D01*
X51460Y29646D02*
X51610D01*
X51535Y29571D02*
Y29721D01*
X51378Y28219D02*
X51528D01*
X51453Y28143D02*
Y28293D01*
X15470Y31398D02*
X15750D01*
X15610Y31258D02*
Y31538D01*
X14094Y20719D02*
X14244D01*
X14168Y20643D02*
Y20793D01*
X13493Y20368D02*
X13643D01*
X13569Y20294D02*
Y20443D01*
X13493Y20919D02*
X13643D01*
X13569Y20844D02*
Y20993D01*
X12994Y20919D02*
X13144D01*
X13068Y20844D02*
Y20993D01*
X12994Y20368D02*
X13144D01*
X13068Y20294D02*
Y20443D01*
X18944Y21219D02*
X19094D01*
X19018Y21144D02*
Y21293D01*
X18593Y20719D02*
X18743D01*
X18669Y20643D02*
Y20793D01*
X22994Y20719D02*
X23143D01*
X23068Y20643D02*
Y20793D01*
X17694Y20419D02*
X17844D01*
X17768Y20343D02*
Y20494D01*
X18243Y20419D02*
X18393D01*
X18319Y20343D02*
Y20494D01*
X18243Y21119D02*
X18393D01*
X18319Y21044D02*
Y21193D01*
X17694Y21119D02*
X17844D01*
X17768Y21044D02*
Y21193D01*
X22194Y20368D02*
X22343D01*
X22269Y20294D02*
Y20443D01*
X22743Y20368D02*
X22894D01*
X22819Y20294D02*
Y20443D01*
X22194Y21119D02*
X22343D01*
X22269Y21044D02*
Y21193D01*
X22743Y21119D02*
X22894D01*
X22819Y21044D02*
Y21193D01*
X32294Y21219D02*
X32443D01*
X32369Y21144D02*
Y21293D01*
X31793Y20768D02*
X31944D01*
X31869Y20694D02*
Y20844D01*
X30844Y21119D02*
X30993D01*
X30919Y21044D02*
Y21193D01*
X31493Y21119D02*
X31644D01*
X31569Y21044D02*
Y21193D01*
X31493Y20268D02*
X31644D01*
X31569Y20194D02*
Y20343D01*
X30844Y20268D02*
X30993D01*
X30919Y20194D02*
Y20343D01*
X35394Y20519D02*
X35543D01*
X35468Y20443D02*
Y20594D01*
X35694Y21168D02*
X35844D01*
X35768Y21093D02*
Y21244D01*
X35394Y19118D02*
X35543D01*
X35468Y19044D02*
Y19194D01*
X35993Y18469D02*
X36144D01*
X36068Y18393D02*
Y18543D01*
X35993Y20468D02*
X36144D01*
X36068Y20394D02*
Y20543D01*
X33544Y23768D02*
X33693D01*
X33619Y23693D02*
Y23844D01*
X33893Y26369D02*
X34044D01*
X33969Y26293D02*
Y26444D01*
X33593Y28719D02*
X33744D01*
X33668Y28644D02*
Y28793D01*
X32524Y22339D02*
X32673D01*
X32599Y22264D02*
Y22413D01*
X31393Y21969D02*
X31544D01*
X31469Y21893D02*
Y22043D01*
X30676Y21651D02*
X30826D01*
X30751Y21576D02*
Y21726D01*
X29393Y21969D02*
X29543D01*
X29469Y21893D02*
Y22043D01*
X26244Y21119D02*
X26393D01*
X26319Y21044D02*
Y21193D01*
X23444Y21969D02*
X23593D01*
X23519Y21893D02*
Y22043D01*
X22643Y21718D02*
X22794D01*
X22719Y21644D02*
Y21793D01*
X21293Y22218D02*
X21444D01*
X21369Y22143D02*
Y22294D01*
X20294Y21969D02*
X20443D01*
X20368Y21893D02*
Y22043D01*
X15194Y22269D02*
X15344D01*
X15268Y22194D02*
Y22343D01*
X12493Y21969D02*
X12644D01*
X12569Y21893D02*
Y22043D01*
X19472Y27431D02*
X19622D01*
X19547Y27356D02*
Y27506D01*
X19925Y25709D02*
X20075D01*
X20000Y25634D02*
Y25784D01*
X19915Y26102D02*
X20065D01*
X19990Y26027D02*
Y26177D01*
X20294Y25268D02*
X20443D01*
X20368Y25194D02*
Y25343D01*
X23293Y25438D02*
X23444D01*
X23368Y25364D02*
Y25514D01*
X20203Y26558D02*
X20354D01*
X20278Y26484D02*
Y26634D01*
X19864Y27438D02*
X20013D01*
X19938Y27364D02*
Y27513D01*
X20183Y27678D02*
X20333D01*
X20259Y27603D02*
Y27754D01*
X16894Y28398D02*
X17043D01*
X16968Y28324D02*
Y28473D01*
X16614Y29118D02*
X16763D01*
X16688Y29044D02*
Y29193D01*
X17204Y22369D02*
X17354D01*
X17278Y22294D02*
Y22443D01*
X21493Y21869D02*
X21644D01*
X21569Y21793D02*
Y21944D01*
X34374Y16929D02*
X34524D01*
X34449Y16854D02*
Y17004D01*
X16264Y14548D02*
X16414D01*
X16338Y14474D02*
Y14624D01*
X31463Y14448D02*
X31614D01*
X31539Y14374D02*
Y14524D01*
X15712Y16417D02*
X15862D01*
X15787Y16342D02*
Y16492D01*
X16460Y16339D02*
X16610D01*
X16535Y16264D02*
Y16414D01*
X13454Y15898D02*
X13604D01*
X13528Y15824D02*
Y15974D01*
X23035Y16378D02*
X23185D01*
X23110Y16303D02*
Y16453D01*
X22703Y14448D02*
X22854D01*
X22778Y14374D02*
Y14524D01*
X31123Y14129D02*
X31274D01*
X31198Y14053D02*
Y14203D01*
X25633Y15789D02*
X25784D01*
X25708Y15713D02*
Y15863D01*
X24216Y16339D02*
X24366D01*
X24291Y16264D02*
Y16414D01*
X24531Y16339D02*
X24681D01*
X24606Y16264D02*
Y16414D01*
X26123Y18799D02*
X26274D01*
X26198Y18723D02*
Y18873D01*
X25043Y16818D02*
X25194D01*
X25119Y16744D02*
Y16894D01*
X24973Y16338D02*
X25124D01*
X25048Y16264D02*
Y16414D01*
X18643Y14418D02*
X18793D01*
X18719Y14344D02*
Y14493D01*
X21804Y14439D02*
X21953D01*
X21878Y14363D02*
Y14513D01*
X18744Y16378D02*
X18894D01*
X18819Y16303D02*
Y16453D01*
X20122Y16339D02*
X20272D01*
X20197Y16264D02*
Y16414D01*
X21972Y16339D02*
X22122D01*
X22047Y16264D02*
Y16414D01*
X19144Y14448D02*
X19294D01*
X19218Y14374D02*
Y14524D01*
X20273Y14569D02*
X20424D01*
X20348Y14493D02*
Y14643D01*
X19807Y16339D02*
X19957D01*
X19882Y16264D02*
Y16414D01*
X17543Y16339D02*
X17693D01*
X17618Y16264D02*
Y16414D01*
X18350Y16378D02*
X18500D01*
X18425Y16303D02*
Y16453D01*
X16763Y14519D02*
X16913D01*
X16839Y14444D02*
Y14593D01*
X26644Y18528D02*
X26793D01*
X26718Y18454D02*
Y18604D01*
X25394Y17148D02*
X25543D01*
X25468Y17074D02*
Y17224D01*
X20624Y14559D02*
X20773D01*
X20698Y14483D02*
Y14634D01*
X20988Y16339D02*
X21138D01*
X21063Y16264D02*
Y16414D01*
X17404Y14539D02*
X17553D01*
X17478Y14463D02*
Y14613D01*
X31844Y14439D02*
X31994D01*
X31918Y14363D02*
Y14513D01*
X33884Y14448D02*
X34034D01*
X33958Y14374D02*
Y14524D01*
X16903Y18189D02*
X17053D01*
X16978Y18114D02*
Y18264D01*
X17208Y18189D02*
X17358D01*
X17283Y18114D02*
Y18264D01*
X43447Y35341D02*
X43597D01*
X43522Y35266D02*
Y35416D01*
X43840Y35341D02*
X43990D01*
X43915Y35266D02*
Y35416D01*
X44234Y35341D02*
X44384D01*
X44309Y35266D02*
Y35416D01*
X44234Y35734D02*
X44384D01*
X44309Y35659D02*
Y35809D01*
X44234Y36128D02*
X44384D01*
X44309Y36053D02*
Y36203D01*
X43840Y36128D02*
X43990D01*
X43915Y36053D02*
Y36203D01*
X43447Y36128D02*
X43597D01*
X43522Y36053D02*
Y36203D01*
X43447Y35734D02*
X43597D01*
X43522Y35659D02*
Y35809D01*
X43840Y35734D02*
X43990D01*
X43915Y35659D02*
Y35809D01*
X36342Y30906D02*
X36492D01*
X36417Y30831D02*
Y30981D01*
X34502Y33091D02*
X34652D01*
X34577Y33016D02*
Y33166D01*
X34502Y32628D02*
X34652D01*
X34577Y32553D02*
Y32703D01*
X29019Y31299D02*
X29169D01*
X29094Y31224D02*
Y31374D01*
X34777Y36772D02*
X34927D01*
X34852Y36697D02*
Y36847D01*
X26677Y33593D02*
X26827D01*
X26752Y33518D02*
Y33668D01*
X33783Y35474D02*
X33933D01*
X33858Y35399D02*
Y35549D01*
X34079Y35768D02*
X34229D01*
X34154Y35693D02*
Y35843D01*
X43104Y19862D02*
X43254D01*
X43179Y19787D02*
Y19937D01*
X50516Y20157D02*
X50666D01*
X50591Y20082D02*
Y20232D01*
X50516Y20551D02*
X50666D01*
X50591Y20476D02*
Y20626D01*
X51667Y23179D02*
X51817D01*
X51742Y23104D02*
Y23254D01*
X48557Y25827D02*
X48707D01*
X48632Y25752D02*
Y25902D01*
X49216Y26890D02*
X49366D01*
X49291Y26815D02*
Y26965D01*
X49994Y25827D02*
X50144D01*
X50069Y25752D02*
Y25902D01*
X47317Y24026D02*
X47467D01*
X47392Y23951D02*
Y24101D01*
X49128Y23976D02*
X49278D01*
X49203Y23901D02*
Y24051D01*
X50860Y25197D02*
X51010D01*
X50935Y25122D02*
Y25272D01*
X50919Y26565D02*
X51069D01*
X50994Y26490D02*
Y26640D01*
X49236Y27549D02*
X49386D01*
X49311Y27474D02*
Y27624D01*
X42051Y32047D02*
X42201D01*
X42126Y31972D02*
Y32122D01*
X41392Y31378D02*
X41542D01*
X41467Y31303D02*
Y31453D01*
X41421Y29252D02*
X41571D01*
X41496Y29177D02*
Y29327D01*
X42681Y28967D02*
X42831D01*
X42756Y28892D02*
Y29042D01*
X47710Y29262D02*
X47860D01*
X47785Y29187D02*
Y29337D01*
X48311Y30492D02*
X48461D01*
X48386Y30417D02*
Y30567D01*
X48311Y32047D02*
X48461D01*
X48386Y31972D02*
Y32122D01*
X43616Y32047D02*
X43766D01*
X43691Y31972D02*
Y32122D01*
X45181Y32047D02*
X45331D01*
X45256Y31972D02*
Y32122D01*
X46746Y32047D02*
X46896D01*
X46821Y31972D02*
Y32122D01*
X41392Y30256D02*
X41542D01*
X41467Y30181D02*
Y30331D01*
X18645Y27923D02*
X18795D01*
X18720Y27848D02*
Y27998D01*
X20673Y32333D02*
X20823D01*
X20748Y32258D02*
Y32408D01*
X16362Y32569D02*
X16512D01*
X16437Y32494D02*
Y32644D01*
X16569Y23819D02*
X16719D01*
X16644Y23744D02*
Y23894D01*
X12671Y23839D02*
X12821D01*
X12746Y23764D02*
Y23914D01*
X13419Y29911D02*
X13569D01*
X13494Y29836D02*
Y29986D01*
X38268Y46951D02*
X38898D01*
X38583Y46636D02*
Y47266D01*
X36928Y46951D02*
X37558D01*
X37243Y46636D02*
Y47266D01*
X36928Y41651D02*
X37558D01*
X37243Y41336D02*
Y41966D01*
X38268Y41651D02*
X38898D01*
X38583Y41336D02*
Y41966D01*
X44734Y53802D02*
X45363D01*
X45048Y53487D02*
Y54117D01*
X46073Y53802D02*
X46704D01*
X46389Y53487D02*
Y54117D01*
X46073Y48502D02*
X46704D01*
X46389Y48187D02*
Y48817D01*
X44734Y48502D02*
X45363D01*
X45048Y48187D02*
Y48817D01*
X47637Y48511D02*
X48267D01*
X47952Y48196D02*
Y48826D01*
X48977Y48511D02*
X49607D01*
X49292Y48196D02*
Y48826D01*
X48977Y53811D02*
X49607D01*
X49292Y53496D02*
Y54126D01*
X47637Y53811D02*
X48267D01*
X47952Y53496D02*
Y54126D01*
X29307Y65417D02*
X29661D01*
X29484Y65240D02*
Y65594D01*
X29307Y66417D02*
X29661D01*
X29484Y66240D02*
Y66594D01*
X30307Y65417D02*
X30661D01*
X30484Y65240D02*
Y65594D01*
X30307Y66417D02*
X30661D01*
X30484Y66240D02*
Y66594D01*
X31307Y65417D02*
X31661D01*
X31484Y65240D02*
Y65594D01*
X31307Y66417D02*
X31661D01*
X31484Y66240D02*
Y66594D01*
X32307Y65417D02*
X32661D01*
X32484Y65240D02*
Y65594D01*
X32307Y66417D02*
X32661D01*
X32484Y66240D02*
Y66594D01*
X33307Y65417D02*
X33661D01*
X33484Y65240D02*
Y65594D01*
X33307Y66417D02*
X33661D01*
X33484Y66240D02*
Y66594D01*
X29287Y61746D02*
X29642D01*
X29465Y61569D02*
Y61923D01*
X29287Y62746D02*
X29642D01*
X29465Y62569D02*
Y62923D01*
X30287Y61746D02*
X30642D01*
X30465Y61569D02*
Y61923D01*
X30287Y62746D02*
X30642D01*
X30465Y62569D02*
Y62923D01*
X31287Y61746D02*
X31642D01*
X31465Y61569D02*
Y61923D01*
X31287Y62746D02*
X31642D01*
X31465Y62569D02*
Y62923D01*
X32287Y61746D02*
X32642D01*
X32465Y61569D02*
Y61923D01*
X32287Y62746D02*
X32642D01*
X32465Y62569D02*
Y62923D01*
X33287Y61746D02*
X33642D01*
X33465Y61569D02*
Y61923D01*
X33287Y62746D02*
X33642D01*
X33465Y62569D02*
Y62923D01*
X26646Y41378D02*
X27046D01*
X26846Y41178D02*
Y41578D01*
X27646Y41378D02*
X28046D01*
X27846Y41178D02*
Y41578D01*
X28646Y41378D02*
X29046D01*
X28846Y41178D02*
Y41578D01*
X29646Y41378D02*
X30046D01*
X29846Y41178D02*
Y41578D01*
X26646Y44134D02*
X27046D01*
X26846Y43934D02*
Y44334D01*
X27646Y44134D02*
X28046D01*
X27846Y43934D02*
Y44334D01*
X28646Y44134D02*
X29046D01*
X28846Y43934D02*
Y44334D01*
X29646Y44134D02*
X30046D01*
X29846Y43934D02*
Y44334D01*
X12696Y62740D02*
X13096D01*
X12896Y62540D02*
Y62940D01*
X12696Y60960D02*
X13096D01*
X12896Y60760D02*
Y61160D01*
X13581Y63230D02*
X14171D01*
X13876Y62935D02*
Y63525D01*
X13581Y60470D02*
X14171D01*
X13876Y60175D02*
Y60765D01*
X24391Y65787D02*
X24791D01*
X24591Y65587D02*
Y65987D01*
X25391Y65787D02*
X25791D01*
X25591Y65587D02*
Y65987D01*
X26391Y65787D02*
X26791D01*
X26591Y65587D02*
Y65987D01*
X20257Y65787D02*
X20657D01*
X20457Y65587D02*
Y65987D01*
X21257Y65787D02*
X21657D01*
X21457Y65587D02*
Y65987D01*
X22257Y65787D02*
X22657D01*
X22457Y65587D02*
Y65987D01*
X16123Y65787D02*
X16523D01*
X16323Y65587D02*
Y65987D01*
X17123Y65787D02*
X17523D01*
X17323Y65587D02*
Y65987D01*
X18123Y65787D02*
X18523D01*
X18323Y65587D02*
Y65987D01*
X22257Y63425D02*
X22657D01*
X22457Y63225D02*
Y63625D01*
X21257Y63425D02*
X21657D01*
X21457Y63225D02*
Y63625D01*
X20257Y63425D02*
X20657D01*
X20457Y63225D02*
Y63625D01*
X26391Y63425D02*
X26791D01*
X26591Y63225D02*
Y63625D01*
X25391Y63425D02*
X25791D01*
X25591Y63225D02*
Y63625D01*
X24391Y63425D02*
X24791D01*
X24591Y63225D02*
Y63625D01*
X18123Y63425D02*
X18523D01*
X18323Y63225D02*
Y63625D01*
X17123Y63425D02*
X17523D01*
X17323Y63225D02*
Y63625D01*
X16123Y63425D02*
X16523D01*
X16323Y63225D02*
Y63625D01*
X35272Y57177D02*
X35672D01*
X35472Y56977D02*
Y57377D01*
X35272Y58177D02*
X35672D01*
X35472Y57977D02*
Y58377D01*
X35272Y54067D02*
X35672D01*
X35472Y53867D02*
Y54267D01*
X35272Y55067D02*
X35672D01*
X35472Y54867D02*
Y55267D01*
X36296Y61327D02*
X36696D01*
X36496Y61127D02*
Y61527D01*
X36296Y60327D02*
X36696D01*
X36496Y60127D02*
Y60527D01*
X38828Y55591D02*
X39228D01*
X39028Y55391D02*
Y55791D01*
X39828Y55591D02*
X40228D01*
X40028Y55391D02*
Y55791D01*
X35272Y50957D02*
X35672D01*
X35472Y50757D02*
Y51157D01*
X35272Y51957D02*
X35672D01*
X35472Y51757D02*
Y52157D01*
X36738Y63018D02*
X37093D01*
X36915Y62841D02*
Y63195D01*
X35738Y63018D02*
X36093D01*
X35915Y62841D02*
Y63195D01*
X36738Y64018D02*
X37093D01*
X36915Y63841D02*
Y64195D01*
X35738Y64018D02*
X36093D01*
X35915Y63841D02*
Y64195D01*
X36738Y65018D02*
X37093D01*
X36915Y64841D02*
Y65195D01*
X35738Y65018D02*
X36093D01*
X35915Y64841D02*
Y65195D01*
X36738Y66018D02*
X37093D01*
X36915Y65841D02*
Y66195D01*
X35738Y66018D02*
X36093D01*
X35915Y65841D02*
Y66195D01*
X36738Y67018D02*
X37093D01*
X36915Y66841D02*
Y67195D01*
X35738Y67018D02*
X36093D01*
X35915Y66841D02*
Y67195D01*
X14132Y52787D02*
X15002D01*
X14567Y52352D02*
Y53222D01*
X14132Y57520D02*
X15002D01*
X14567Y57085D02*
Y57955D01*
X15447Y54657D02*
X15827D01*
X15637Y54467D02*
Y54847D01*
X15447Y55650D02*
X15827D01*
X15637Y55460D02*
Y55840D01*
X16237Y55650D02*
X16617D01*
X16427Y55460D02*
Y55840D01*
X16237Y54657D02*
X16617D01*
X16427Y54467D02*
Y54847D01*
X40213Y50906D02*
X40613D01*
X40413Y50706D02*
Y51106D01*
X38245Y50906D02*
X38645D01*
X38445Y50706D02*
Y51106D01*
X16410Y41378D02*
X16810D01*
X16610Y41178D02*
Y41578D01*
X17410Y41378D02*
X17810D01*
X17610Y41178D02*
Y41578D01*
X18410Y41378D02*
X18810D01*
X18610Y41178D02*
Y41578D01*
X19410Y41378D02*
X19810D01*
X19610Y41178D02*
Y41578D01*
X21528Y41378D02*
X21928D01*
X21728Y41178D02*
Y41578D01*
X22528Y41378D02*
X22928D01*
X22728Y41178D02*
Y41578D01*
X23528Y41378D02*
X23928D01*
X23728Y41178D02*
Y41578D01*
X24528Y41378D02*
X24928D01*
X24728Y41178D02*
Y41578D01*
X31765Y41378D02*
X32165D01*
X31965Y41178D02*
Y41578D01*
X32765Y41378D02*
X33165D01*
X32965Y41178D02*
Y41578D01*
X33765Y41378D02*
X34165D01*
X33965Y41178D02*
Y41578D01*
X34765Y41378D02*
X35165D01*
X34965Y41178D02*
Y41578D01*
X50904Y56961D02*
X51453D01*
X51178Y56686D02*
Y57236D01*
X50904Y58961D02*
X51453D01*
X51178Y58686D02*
Y59236D01*
X50904Y60961D02*
X51453D01*
X51178Y60686D02*
Y61236D01*
X50904Y62961D02*
X51453D01*
X51178Y62686D02*
Y63236D01*
X42408Y54411D02*
X42808D01*
X42608Y54211D02*
Y54611D01*
X42408Y53011D02*
X42808D01*
X42608Y52811D02*
Y53211D01*
X50253Y44812D02*
X50653D01*
X50453Y44612D02*
Y45012D01*
X50253Y46212D02*
X50653D01*
X50453Y46012D02*
Y46412D01*
X23200Y59636D02*
X23580D01*
X23390Y59446D02*
Y59826D01*
X23200Y60636D02*
X23580D01*
X23390Y60446D02*
Y60826D01*
X24200Y59636D02*
X24580D01*
X24390Y59446D02*
Y59826D01*
X24200Y60636D02*
X24580D01*
X24390Y60446D02*
Y60826D01*
X25200Y59636D02*
X25580D01*
X25390Y59446D02*
Y59826D01*
X25200Y60636D02*
X25580D01*
X25390Y60446D02*
Y60826D01*
X17474Y59636D02*
X17854D01*
X17664Y59446D02*
Y59826D01*
X17474Y60636D02*
X17854D01*
X17664Y60446D02*
Y60826D01*
X18474Y59636D02*
X18854D01*
X18664Y59446D02*
Y59826D01*
X18474Y60636D02*
X18854D01*
X18664Y60446D02*
Y60826D01*
X19474Y59636D02*
X19854D01*
X19664Y59446D02*
Y59826D01*
X19474Y60636D02*
X19854D01*
X19664Y60446D02*
Y60826D01*
X38776Y57874D02*
X39176D01*
X38976Y57674D02*
Y58074D01*
X39776Y57874D02*
X40176D01*
X39976Y57674D02*
Y58074D01*
X51975Y44016D02*
X52375D01*
X52175Y43816D02*
Y44216D01*
X50406Y41072D02*
X50556D01*
X50481Y40997D02*
Y41147D01*
X51806Y41072D02*
X51956D01*
X51881Y40997D02*
Y41147D01*
X51806Y42472D02*
X51956D01*
X51881Y42397D02*
Y42547D01*
X50406Y42472D02*
X50556D01*
X50481Y42397D02*
Y42547D01*
X50106Y41772D02*
X50256D01*
X50181Y41697D02*
Y41847D01*
X52106Y41772D02*
X52256D01*
X52181Y41697D02*
Y41847D01*
X51106Y42772D02*
X51256D01*
X51181Y42697D02*
Y42847D01*
X51106Y40772D02*
X51256D01*
X51181Y40697D02*
Y40847D01*
X50591Y41772D02*
X51772D01*
X51181Y41181D02*
Y42362D01*
X13005Y41072D02*
X13155D01*
X13080Y40997D02*
Y41147D01*
X14405Y41072D02*
X14555D01*
X14480Y40997D02*
Y41147D01*
X14405Y42472D02*
X14555D01*
X14480Y42397D02*
Y42547D01*
X13005Y42472D02*
X13155D01*
X13080Y42397D02*
Y42547D01*
X12705Y41772D02*
X12855D01*
X12780Y41697D02*
Y41847D01*
X14705Y41772D02*
X14855D01*
X14780Y41697D02*
Y41847D01*
X13705Y42772D02*
X13855D01*
X13780Y42697D02*
Y42847D01*
X13705Y40772D02*
X13855D01*
X13780Y40697D02*
Y40847D01*
X13189Y41772D02*
X14370D01*
X13780Y41181D02*
Y42362D01*
X13005Y65087D02*
X13155D01*
X13080Y65012D02*
Y65162D01*
X14405Y65087D02*
X14555D01*
X14480Y65012D02*
Y65162D01*
X14405Y66487D02*
X14555D01*
X14480Y66412D02*
Y66562D01*
X13005Y66487D02*
X13155D01*
X13080Y66412D02*
Y66562D01*
X12705Y65787D02*
X12855D01*
X12780Y65712D02*
Y65862D01*
X14705Y65787D02*
X14855D01*
X14780Y65712D02*
Y65862D01*
X13705Y66787D02*
X13855D01*
X13780Y66712D02*
Y66862D01*
X13705Y64787D02*
X13855D01*
X13780Y64712D02*
Y64862D01*
X13189Y65787D02*
X14370D01*
X13780Y65197D02*
Y66378D01*
X50406Y65087D02*
X50556D01*
X50481Y65012D02*
Y65162D01*
X51806Y65087D02*
X51956D01*
X51881Y65012D02*
Y65162D01*
X51806Y66487D02*
X51956D01*
X51881Y66412D02*
Y66562D01*
X50406Y66487D02*
X50556D01*
X50481Y66412D02*
Y66562D01*
X50106Y65787D02*
X50256D01*
X50181Y65712D02*
Y65862D01*
X52106Y65787D02*
X52256D01*
X52181Y65712D02*
Y65862D01*
X51106Y66787D02*
X51256D01*
X51181Y66712D02*
Y66862D01*
X51106Y64787D02*
X51256D01*
X51181Y64712D02*
Y64862D01*
X50591Y65787D02*
X51772D01*
X51181Y65197D02*
Y66378D01*
X40514Y45069D02*
X41064D01*
X40789Y44794D02*
Y45344D01*
X42514Y45069D02*
X43064D01*
X42789Y44794D02*
Y45344D01*
X44514Y45069D02*
X45064D01*
X44789Y44794D02*
Y45344D01*
X46514Y45069D02*
X47064D01*
X46789Y44794D02*
Y45344D01*
X40329Y48218D02*
X40479D01*
X40404Y48144D02*
Y48293D01*
X41834Y48593D02*
X41984D01*
X41909Y48518D02*
Y48668D01*
X41244Y48957D02*
X41394D01*
X41319Y48882D02*
Y49032D01*
X35781Y41811D02*
X35931D01*
X35856Y41736D02*
Y41886D01*
X35112Y45354D02*
X35262D01*
X35187Y45279D02*
Y45429D01*
X35161Y46171D02*
X35311D01*
X35236Y46096D02*
Y46246D01*
X36293Y45118D02*
X36443D01*
X36368Y45043D02*
Y45193D01*
X36293Y46159D02*
X36443D01*
X36368Y46084D02*
Y46234D01*
X44423Y53189D02*
X44573D01*
X44498Y53114D02*
Y53264D01*
X44374Y53888D02*
X44524D01*
X44449Y53813D02*
Y53963D01*
X38492Y43878D02*
X38792D01*
X38642Y43728D02*
Y44028D01*
X37950Y43307D02*
X38250D01*
X38100Y43157D02*
Y43457D01*
X49413Y43258D02*
X49563D01*
X49488Y43183D02*
Y43333D01*
X48557Y43032D02*
X48707D01*
X48632Y42957D02*
Y43106D01*
X36293Y45812D02*
X36443D01*
X36368Y45737D02*
Y45887D01*
X36293Y45465D02*
X36443D01*
X36368Y45390D02*
Y45540D01*
X36293Y44771D02*
X36443D01*
X36368Y44696D02*
Y44846D01*
X51392Y50197D02*
X51542D01*
X51467Y50122D02*
Y50272D01*
X50919Y50197D02*
X51069D01*
X50994Y50122D02*
Y50272D01*
X50516Y50197D02*
X50666D01*
X50591Y50122D02*
Y50272D01*
X39423Y58750D02*
X39573D01*
X39498Y58675D02*
Y58825D01*
X39019Y58750D02*
X39169D01*
X39094Y58675D02*
Y58825D01*
X39079Y59833D02*
X39229D01*
X39154Y59758D02*
Y59908D01*
X40004Y59498D02*
X40154D01*
X40079Y59423D02*
Y59573D01*
X40004Y60197D02*
X40154D01*
X40079Y60122D02*
Y60272D01*
X39462Y60197D02*
X39612D01*
X39537Y60122D02*
Y60272D01*
X39019Y59272D02*
X39169D01*
X39094Y59197D02*
Y59347D01*
X36913Y57992D02*
X37063D01*
X36988Y57917D02*
Y58067D01*
X36953Y56043D02*
X37103D01*
X37028Y55968D02*
Y56118D01*
X41155Y59990D02*
X41405D01*
X41280Y59865D02*
Y60115D01*
X47228Y43278D02*
X47378D01*
X47303Y43203D02*
Y43353D01*
X46411Y43278D02*
X46561D01*
X46486Y43203D02*
Y43353D01*
X46057Y45138D02*
X46207D01*
X46132Y45063D02*
Y45213D01*
X24895Y61023D02*
X25045D01*
X24970Y60948D02*
Y61098D01*
X29994Y61398D02*
X30144D01*
X30069Y61323D02*
Y61473D01*
X48035Y63367D02*
X48185D01*
X48110Y63292D02*
Y63442D01*
X48035Y63767D02*
X48185D01*
X48110Y63692D02*
Y63842D01*
X48035Y62967D02*
X48185D01*
X48110Y62892D02*
Y63042D01*
X48035Y62567D02*
X48185D01*
X48110Y62492D02*
Y62642D01*
X47635Y62567D02*
X47785D01*
X47710Y62492D02*
Y62642D01*
X47235Y62567D02*
X47385D01*
X47310Y62492D02*
Y62642D01*
X47235Y62967D02*
X47385D01*
X47310Y62892D02*
Y63042D01*
X47635Y62967D02*
X47785D01*
X47710Y62892D02*
Y63042D01*
X47635Y63367D02*
X47785D01*
X47710Y63292D02*
Y63442D01*
X47235Y63367D02*
X47385D01*
X47310Y63292D02*
Y63442D01*
X47235Y63767D02*
X47385D01*
X47310Y63692D02*
Y63842D01*
X47635Y63767D02*
X47785D01*
X47710Y63692D02*
Y63842D01*
X48435Y63767D02*
X48585D01*
X48510Y63692D02*
Y63842D01*
X48835Y63767D02*
X48985D01*
X48910Y63692D02*
Y63842D01*
X48835Y63367D02*
X48985D01*
X48910Y63292D02*
Y63442D01*
X48435Y63367D02*
X48585D01*
X48510Y63292D02*
Y63442D01*
X48435Y62967D02*
X48585D01*
X48510Y62892D02*
Y63042D01*
X48835Y62967D02*
X48985D01*
X48910Y62892D02*
Y63042D01*
X48835Y62567D02*
X48985D01*
X48910Y62492D02*
Y62642D01*
X48435Y62567D02*
X48585D01*
X48510Y62492D02*
Y62642D01*
X44853Y56976D02*
X45003D01*
X44928Y56901D02*
Y57051D01*
X45253Y56976D02*
X45403D01*
X45328Y56901D02*
Y57051D01*
X45253Y57376D02*
X45403D01*
X45328Y57301D02*
Y57451D01*
X44853Y57376D02*
X45003D01*
X44928Y57301D02*
Y57451D01*
X44853Y57776D02*
X45003D01*
X44928Y57701D02*
Y57851D01*
X45253Y57776D02*
X45403D01*
X45328Y57701D02*
Y57851D01*
X45253Y58176D02*
X45403D01*
X45328Y58101D02*
Y58251D01*
X44853Y58176D02*
X45003D01*
X44928Y58101D02*
Y58251D01*
X44053Y58176D02*
X44203D01*
X44128Y58101D02*
Y58251D01*
X43653Y58176D02*
X43803D01*
X43728Y58101D02*
Y58251D01*
X43653Y57776D02*
X43803D01*
X43728Y57701D02*
Y57851D01*
X44053Y57776D02*
X44203D01*
X44128Y57701D02*
Y57851D01*
X44053Y57376D02*
X44203D01*
X44128Y57301D02*
Y57451D01*
X43653Y57376D02*
X43803D01*
X43728Y57301D02*
Y57451D01*
X43653Y56976D02*
X43803D01*
X43728Y56901D02*
Y57051D01*
X44053Y56976D02*
X44203D01*
X44128Y56901D02*
Y57051D01*
X44453Y56976D02*
X44603D01*
X44528Y56901D02*
Y57051D01*
X44453Y57376D02*
X44603D01*
X44528Y57301D02*
Y57451D01*
X44453Y58176D02*
X44603D01*
X44528Y58101D02*
Y58251D01*
X44453Y57776D02*
X44603D01*
X44528Y57701D02*
Y57851D01*
X19693Y57061D02*
X19843D01*
X19769Y56986D02*
Y57136D01*
X19693Y57435D02*
X19843D01*
X19769Y57360D02*
Y57510D01*
X19317Y57438D02*
X19467D01*
X19392Y57363D02*
Y57513D01*
X19321Y57061D02*
X19471D01*
X19396Y56986D02*
Y57136D01*
X19319Y56677D02*
X19469D01*
X19394Y56602D02*
Y56752D01*
X19693Y56687D02*
X19843D01*
X19769Y56612D02*
Y56762D01*
X20068Y56687D02*
X20218D01*
X20143Y56612D02*
Y56762D01*
X20068Y57061D02*
X20218D01*
X20143Y56986D02*
Y57136D01*
X20068Y57435D02*
X20218D01*
X20143Y57360D02*
Y57510D01*
X14768Y46721D02*
X14918D01*
X14843Y46646D02*
Y46796D01*
X14394Y46721D02*
X14543D01*
X14468Y46646D02*
Y46796D01*
X14390Y46344D02*
X14540D01*
X14465Y46269D02*
Y46419D01*
X14768Y46349D02*
X14918D01*
X14843Y46274D02*
Y46424D01*
X15151Y46347D02*
X15301D01*
X15226Y46272D02*
Y46422D01*
X15142Y46721D02*
X15292D01*
X15217Y46646D02*
Y46796D01*
X15142Y47095D02*
X15292D01*
X15217Y47020D02*
Y47170D01*
X14768Y47095D02*
X14918D01*
X14843Y47020D02*
Y47170D01*
X14394Y47095D02*
X14543D01*
X14468Y47020D02*
Y47170D01*
X19277Y46721D02*
X19427D01*
X19352Y46646D02*
Y46796D01*
X18903Y46721D02*
X19053D01*
X18978Y46646D02*
Y46796D01*
X18899Y46344D02*
X19049D01*
X18974Y46269D02*
Y46419D01*
X19277Y46349D02*
X19427D01*
X19352Y46274D02*
Y46424D01*
X19660Y46347D02*
X19810D01*
X19735Y46272D02*
Y46422D01*
X19651Y46721D02*
X19801D01*
X19726Y46646D02*
Y46796D01*
X19651Y47095D02*
X19801D01*
X19726Y47020D02*
Y47170D01*
X19277Y47095D02*
X19427D01*
X19352Y47020D02*
Y47170D01*
X18903Y47095D02*
X19053D01*
X18978Y47020D02*
Y47170D01*
X23663Y46721D02*
X23813D01*
X23738Y46646D02*
Y46796D01*
X23289Y46721D02*
X23439D01*
X23364Y46646D02*
Y46796D01*
X23285Y46344D02*
X23435D01*
X23360Y46269D02*
Y46419D01*
X23663Y46349D02*
X23813D01*
X23738Y46274D02*
Y46424D01*
X24047Y46347D02*
X24197D01*
X24122Y46272D02*
Y46422D01*
X24037Y46721D02*
X24187D01*
X24112Y46646D02*
Y46796D01*
X24037Y47095D02*
X24187D01*
X24112Y47020D02*
Y47170D01*
X23663Y47095D02*
X23813D01*
X23738Y47020D02*
Y47170D01*
X23289Y47095D02*
X23439D01*
X23364Y47020D02*
Y47170D01*
X32543Y46652D02*
X32693D01*
X32618Y46577D02*
Y46727D01*
X32169Y46652D02*
X32319D01*
X32244Y46577D02*
Y46727D01*
X32166Y46275D02*
X32315D01*
X32241Y46200D02*
Y46350D01*
X32543Y46280D02*
X32693D01*
X32618Y46205D02*
Y46355D01*
X32927Y46278D02*
X33077D01*
X33002Y46203D02*
Y46353D01*
X32917Y46652D02*
X33067D01*
X32992Y46577D02*
Y46727D01*
X32917Y47026D02*
X33067D01*
X32992Y46951D02*
Y47101D01*
X32543Y47026D02*
X32693D01*
X32618Y46951D02*
Y47101D01*
X32169Y47026D02*
X32319D01*
X32244Y46951D02*
Y47101D01*
X17323Y49491D02*
X17473D01*
X17399Y49416D02*
Y49566D01*
X17393Y50011D02*
X17543D01*
X17469Y49936D02*
Y50086D01*
X42264Y61341D02*
X42414D01*
X42339Y61266D02*
Y61416D01*
X44113Y62541D02*
X44264D01*
X44188Y62466D02*
Y62616D01*
X45184Y62001D02*
X45333D01*
X45258Y61926D02*
Y62076D01*
X42713Y64611D02*
X42863D01*
X42789Y64536D02*
Y64686D01*
X44563Y64441D02*
X44714D01*
X44639Y64366D02*
Y64516D01*
X44289Y62121D02*
X44569D01*
X44429Y61981D02*
Y62261D01*
X45779Y65577D02*
X45929D01*
X45854Y65502D02*
Y65652D01*
X43649Y66101D02*
X43948D01*
X43798Y65951D02*
Y66251D01*
X46034Y61341D02*
X46184D01*
X46108Y61266D02*
Y61416D01*
X44149Y61341D02*
X44299D01*
X44223Y61266D02*
Y61416D01*
X37994Y61761D02*
X38143D01*
X38068Y61686D02*
Y61836D01*
X40379Y61341D02*
X40529D01*
X40454Y61266D02*
Y61416D01*
X43645Y64957D02*
X43945D01*
X43795Y64807D02*
Y65107D01*
X34264Y42441D02*
X34413D01*
X34339Y42366D02*
Y42516D01*
X33303Y42441D02*
X33454D01*
X33379Y42366D02*
Y42516D01*
X32443Y42441D02*
X32594D01*
X32518Y42366D02*
Y42516D01*
X23363Y42441D02*
X23514D01*
X23438Y42366D02*
Y42516D01*
X15874Y42141D02*
X16023D01*
X15948Y42066D02*
Y42216D01*
X19363Y58721D02*
X19513D01*
X19439Y58646D02*
Y58796D01*
X16273Y59331D02*
X16423D01*
X16349Y59256D02*
Y59406D01*
X22174Y61241D02*
X22324D01*
X22248Y61166D02*
Y61316D01*
X19194Y63711D02*
X19344D01*
X19268Y63636D02*
Y63786D01*
X26490Y54193D02*
X26640D01*
X26565Y54118D02*
Y54268D01*
X31893Y53061D02*
X32043D01*
X31969Y52986D02*
Y53136D01*
X33557Y49478D02*
X33707D01*
X33632Y49403D02*
Y49553D01*
X25821Y55768D02*
X25971D01*
X25896Y55693D02*
Y55843D01*
X26342Y54793D02*
X26492D01*
X26417Y54718D02*
Y54868D01*
X25693Y55157D02*
X25843D01*
X25768Y55082D02*
Y55232D01*
X28107Y52923D02*
X28257D01*
X28182Y52848D02*
Y52998D01*
X28980Y57441D02*
X29130D01*
X29055Y57366D02*
Y57516D01*
X28705Y53032D02*
X28855D01*
X28780Y52957D02*
Y53106D01*
X29177Y52717D02*
X29327D01*
X29252Y52642D02*
Y52792D01*
X29256Y53779D02*
X29406D01*
X29331Y53704D02*
Y53854D01*
X29256Y54291D02*
X29406D01*
X29331Y54216D02*
Y54366D01*
X29255Y57787D02*
X29405D01*
X29330Y57712D02*
Y57862D01*
X12602Y46457D02*
X12752D01*
X12677Y46382D02*
Y46532D01*
X37448Y42835D02*
X37748D01*
X37598Y42685D02*
Y42985D01*
X35112Y44995D02*
X35262D01*
X35187Y44920D02*
Y45070D01*
X35112Y44636D02*
X35262D01*
X35187Y44561D02*
Y44711D01*
X44108Y49675D02*
X44258D01*
X44183Y49600D02*
Y49750D01*
X44108Y50030D02*
X44258D01*
X44183Y49955D02*
Y50105D01*
X44108Y50384D02*
X44258D01*
X44183Y50309D02*
Y50459D01*
X43688Y50384D02*
X43838D01*
X43763Y50309D02*
Y50459D01*
X43268Y50384D02*
X43418D01*
X43343Y50309D02*
Y50459D01*
X42848Y50384D02*
X42998D01*
X42923Y50309D02*
Y50459D01*
X42848Y50030D02*
X42998D01*
X42923Y49955D02*
Y50105D01*
X42848Y49675D02*
X42998D01*
X42923Y49600D02*
Y49750D01*
X50919Y47756D02*
X51069D01*
X50994Y47681D02*
Y47831D01*
X50516Y47756D02*
X50666D01*
X50591Y47681D02*
Y47831D01*
X50112Y47756D02*
X50262D01*
X50187Y47681D02*
Y47831D01*
X51726Y47756D02*
X51876D01*
X51801Y47681D02*
Y47831D01*
X50919Y48976D02*
X51069D01*
X50994Y48901D02*
Y49051D01*
X33390Y52874D02*
X33540D01*
X33465Y52799D02*
Y52949D01*
X32287Y53356D02*
X32437D01*
X32362Y53281D02*
Y53431D01*
X50112Y48543D02*
X50262D01*
X50187Y48468D02*
Y48618D01*
X50112Y48937D02*
X50262D01*
X50187Y48862D02*
Y49012D01*
X50516Y48957D02*
X50666D01*
X50591Y48882D02*
Y49032D01*
X51323Y48957D02*
X51473D01*
X51398Y48882D02*
Y49032D01*
X51726Y48957D02*
X51876D01*
X51801Y48882D02*
Y49032D01*
X51323Y47756D02*
X51473D01*
X51398Y47681D02*
Y47831D01*
X50112Y48150D02*
X50262D01*
X50187Y48075D02*
Y48225D01*
X42474Y50797D02*
X42624D01*
X42549Y50722D02*
Y50872D01*
X41709Y62084D02*
X42009D01*
X41859Y61934D02*
Y62234D01*
X45644Y65061D02*
X45793D01*
X45718Y64986D02*
Y65136D01*
X48403Y66772D02*
X48683D01*
X48543Y66632D02*
Y66912D01*
X43941Y55630D02*
X44091D01*
X44016Y55555D02*
Y55705D01*
X42917Y55827D02*
X43067D01*
X42992Y55752D02*
Y55902D01*
X42917Y56220D02*
X43067D01*
X42992Y56145D02*
Y56295D01*
X43271Y55630D02*
X43421D01*
X43346Y55555D02*
Y55705D01*
X43271Y56417D02*
X43421D01*
X43346Y56342D02*
Y56492D01*
X43271Y56024D02*
X43421D01*
X43346Y55949D02*
Y56099D01*
X43705Y55394D02*
X43855D01*
X43780Y55319D02*
Y55469D01*
X44216Y55394D02*
X44366D01*
X44291Y55319D02*
Y55469D01*
X44925Y55630D02*
X45075D01*
X45000Y55555D02*
Y55705D01*
X44689Y55394D02*
X44839D01*
X44764Y55319D02*
Y55469D01*
X44453Y55630D02*
X44603D01*
X44528Y55555D02*
Y55705D01*
X48271Y61299D02*
X48421D01*
X48346Y61224D02*
Y61374D01*
X47799Y61299D02*
X47949D01*
X47874Y61224D02*
Y61374D01*
X47287Y61299D02*
X47437D01*
X47362Y61224D02*
Y61374D01*
X46815Y61378D02*
X46965D01*
X46890Y61303D02*
Y61453D01*
X46815Y61693D02*
X46965D01*
X46890Y61618D02*
Y61768D01*
X46815Y62008D02*
X46965D01*
X46890Y61933D02*
Y62083D01*
X46342Y56339D02*
X46492D01*
X46417Y56264D02*
Y56414D01*
X46564Y46161D02*
X46714D01*
X46638Y46086D02*
Y46236D01*
X47405Y46102D02*
X47555D01*
X47480Y46027D02*
Y46177D01*
X47642Y44961D02*
X47792D01*
X47717Y44886D02*
Y45036D01*
X47553Y44449D02*
X47703D01*
X47628Y44374D02*
Y44524D01*
X46057Y44429D02*
X46207D01*
X46132Y44354D02*
Y44504D01*
X45949Y46575D02*
X46099D01*
X46024Y46500D02*
Y46650D01*
X49256Y45630D02*
X49406D01*
X49331Y45555D02*
Y45705D01*
X48414Y47331D02*
X48563D01*
X48488Y47256D02*
Y47406D01*
X47783Y47331D02*
X47934D01*
X47859Y47256D02*
Y47406D01*
X48924Y49401D02*
X49074D01*
X48998Y49326D02*
Y49476D01*
X48503Y49261D02*
X48653D01*
X48579Y49186D02*
Y49336D01*
X47703Y49261D02*
X47853D01*
X47779Y49186D02*
Y49336D01*
X47253Y49461D02*
X47403D01*
X47329Y49386D02*
Y49536D01*
X49344Y50201D02*
X49493D01*
X49419Y50126D02*
Y50276D01*
X46974Y49721D02*
X47123D01*
X47049Y49646D02*
Y49796D01*
X52297Y51713D02*
X52447D01*
X52372Y51638D02*
Y51788D01*
X50555Y51299D02*
X50705D01*
X50630Y51224D02*
Y51374D01*
X51106Y51299D02*
X51256D01*
X51181Y51224D02*
Y51374D01*
X50043Y50748D02*
X50193D01*
X50118Y50673D02*
Y50823D01*
X49394Y54361D02*
X49543D01*
X49468Y54286D02*
Y54436D01*
X47894Y54871D02*
X48043D01*
X47969Y54796D02*
Y54946D01*
X49216Y52864D02*
X49366D01*
X49291Y52789D02*
Y52939D01*
X47858Y52835D02*
X48008D01*
X47933Y52760D02*
Y52910D01*
X47248Y53130D02*
X47398D01*
X47323Y53055D02*
Y53205D01*
X40419Y66891D02*
X40568D01*
X40493Y66816D02*
Y66966D01*
X42998Y62561D02*
X43198D01*
X43099Y62461D02*
Y62661D01*
X38533Y66891D02*
X38684D01*
X38609Y66816D02*
Y66966D01*
X42304Y66891D02*
X42453D01*
X42379Y66816D02*
Y66966D01*
X44188Y66891D02*
X44338D01*
X44264Y66816D02*
Y66966D01*
X46073Y66891D02*
X46224D01*
X46149Y66816D02*
Y66966D01*
X46894Y60866D02*
X47043D01*
X46968Y60791D02*
Y60941D01*
X46444Y62481D02*
X46593D01*
X46519Y62406D02*
Y62556D01*
X38324Y64081D02*
X38473D01*
X38398Y64006D02*
Y64156D01*
X38324Y62621D02*
X38473D01*
X38398Y62546D02*
Y62696D01*
X46444Y64076D02*
X46593D01*
X46519Y64001D02*
Y64151D01*
X39098Y60866D02*
X39248D01*
X39173Y60791D02*
Y60941D01*
X38324Y65541D02*
X38473D01*
X38398Y65466D02*
Y65616D01*
X45273Y66241D02*
X45423D01*
X45349Y66166D02*
Y66316D01*
X44689Y66253D02*
X44839D01*
X44764Y66178D02*
Y66328D01*
X46444Y65671D02*
X46593D01*
X46519Y65596D02*
Y65746D01*
X17543Y45118D02*
X17693D01*
X17618Y45043D02*
Y45193D01*
X13103Y45041D02*
X13254D01*
X13178Y44966D02*
Y45116D01*
X16460Y45118D02*
X16610D01*
X16535Y45043D02*
Y45193D01*
X21972Y45118D02*
X22122D01*
X22047Y45043D02*
Y45193D01*
X20988Y45118D02*
X21138D01*
X21063Y45043D02*
Y45193D01*
X30831Y45512D02*
X30981D01*
X30906Y45437D02*
Y45587D01*
X34743Y44361D02*
X34894D01*
X34818Y44286D02*
Y44436D01*
X33783Y47874D02*
X33933D01*
X33858Y47799D02*
Y47949D01*
X31493Y47711D02*
X31644D01*
X31569Y47636D02*
Y47786D01*
X24925Y47874D02*
X25075D01*
X25000Y47799D02*
Y47949D01*
X22643Y47761D02*
X22794D01*
X22719Y47686D02*
Y47836D01*
X20594Y47874D02*
X20744D01*
X20669Y47799D02*
Y47949D01*
X18243Y47761D02*
X18393D01*
X18319Y47686D02*
Y47836D01*
X16067Y47874D02*
X16217D01*
X16142Y47799D02*
Y47949D01*
X13743Y47761D02*
X13894D01*
X13819Y47686D02*
Y47836D01*
X34659Y49203D02*
X34809D01*
X34734Y49128D02*
Y49278D01*
X30594Y54596D02*
X30744D01*
X30669Y54521D02*
Y54671D01*
X34049Y46949D02*
X34199D01*
X34124Y46874D02*
Y47024D01*
X34492Y45472D02*
X34642D01*
X34567Y45397D02*
Y45547D01*
X16529Y45561D02*
X16679D01*
X16604Y45486D02*
Y45636D01*
X17523Y45551D02*
X17673D01*
X17598Y45476D02*
Y45626D01*
X21933Y45551D02*
X22083D01*
X22008Y45476D02*
Y45626D01*
X20988Y45551D02*
X21138D01*
X21063Y45476D02*
Y45626D01*
X16027Y49252D02*
X16177D01*
X16102Y49177D02*
Y49327D01*
X13084Y45551D02*
X13234D01*
X13159Y45476D02*
Y45626D01*
X30555Y45866D02*
X30705D01*
X30630Y45791D02*
Y45941D01*
X35161Y46417D02*
X35311D01*
X35236Y46342D02*
Y46492D01*
X17208Y46486D02*
X17358D01*
X17283Y46411D02*
Y46561D01*
X21618Y46457D02*
X21768D01*
X21693Y46382D02*
Y46532D01*
X33271Y49173D02*
X33421D01*
X33346Y49098D02*
Y49248D01*
X33980Y48858D02*
X34130D01*
X34055Y48783D02*
Y48933D01*
X33114Y44370D02*
X33264D01*
X33189Y44295D02*
Y44445D01*
X32012Y44370D02*
X32162D01*
X32087Y44295D02*
Y44445D01*
X33468Y44370D02*
X33618D01*
X33543Y44295D02*
Y44445D01*
X31657Y44370D02*
X31807D01*
X31732Y44295D02*
Y44445D01*
X20624Y47018D02*
X20774D01*
X20699Y46943D02*
Y47093D01*
X20004Y59134D02*
X20154D01*
X20079Y59059D02*
Y59209D01*
X22651Y58199D02*
X22801D01*
X22726Y58124D02*
Y58274D01*
X22346Y57037D02*
X22496D01*
X22421Y56962D02*
Y57112D01*
X17612Y55276D02*
X17762D01*
X17687Y55201D02*
Y55351D01*
X17848Y56171D02*
X17998D01*
X17923Y56096D02*
Y56246D01*
X19147Y52037D02*
X19297D01*
X19222Y51962D02*
Y52112D01*
X18498Y55492D02*
X18648D01*
X18573Y55417D02*
Y55567D01*
X17445Y52539D02*
X17595D01*
X17520Y52464D02*
Y52614D01*
X27082Y61557D02*
X27232D01*
X27157Y61482D02*
Y61632D01*
X26382Y56575D02*
X26532D01*
X26457Y56500D02*
Y56650D01*
X26009Y56960D02*
X26159D01*
X26084Y56885D02*
Y57035D01*
X30407Y53917D02*
X30557D01*
X30482Y53842D02*
Y53992D01*
X34138Y58760D02*
X34288D01*
X34213Y58685D02*
Y58835D01*
X25260Y58199D02*
X25410D01*
X25335Y58124D02*
Y58274D01*
X26598Y51348D02*
X26748D01*
X26673Y51273D02*
Y51423D01*
X25477Y51034D02*
X25627D01*
X25552Y50959D02*
Y51109D01*
X29334Y50925D02*
X29484D01*
X29409Y50850D02*
Y51000D01*
X29966Y50541D02*
X30116D01*
X30041Y50466D02*
Y50616D01*
X30142Y54468D02*
X30292D01*
X30217Y54394D02*
Y54543D01*
X25358Y49934D02*
X25508D01*
X25433Y49859D02*
Y50009D01*
X33134Y57648D02*
X33284D01*
X33209Y57573D02*
Y57723D01*
X24157Y57234D02*
X24307D01*
X24232Y57159D02*
Y57309D01*
X20397Y62402D02*
X20547D01*
X20472Y62327D02*
Y62477D01*
X29069Y48711D02*
X29219D01*
X29144Y48636D02*
Y48786D01*
X20269Y59409D02*
X20419D01*
X20344Y59334D02*
Y59484D01*
X28508Y46063D02*
X28658D01*
X28583Y45988D02*
Y46138D01*
X26775Y47992D02*
X26925D01*
X26850Y47917D02*
Y48067D01*
X26795Y48514D02*
X26945D01*
X26870Y48439D02*
Y48589D01*
X28586Y46732D02*
X28736D01*
X28661Y46657D02*
Y46807D01*
X30171Y47392D02*
X30321D01*
X30246Y47317D02*
Y47467D01*
X28508Y47992D02*
X28658D01*
X28583Y47917D02*
Y48067D01*
X19916Y49145D02*
X20066D01*
X19991Y49070D02*
Y49220D01*
X13393Y49711D02*
X13543D01*
X13469Y49636D02*
Y49786D01*
X20988Y49134D02*
X21138D01*
X21063Y49059D02*
Y49209D01*
X20437Y49134D02*
X20587D01*
X20512Y49059D02*
Y49209D01*
X15378Y44419D02*
X15528D01*
X15453Y44344D02*
Y44494D01*
X14226Y44409D02*
X14376D01*
X14301Y44334D02*
Y44484D01*
X16744Y49191D02*
X16894D01*
X16818Y49116D02*
Y49266D01*
X13901Y44409D02*
X14051D01*
X13976Y44334D02*
Y44484D01*
X22720Y44370D02*
X22870D01*
X22795Y44295D02*
Y44445D01*
X16167Y47016D02*
X16317D01*
X16242Y46941D02*
Y47091D01*
X25870Y46024D02*
X26020D01*
X25945Y45949D02*
Y46099D01*
X12720Y46693D02*
X12870D01*
X12795Y46618D02*
Y46768D01*
X21342Y46457D02*
X21492D01*
X21417Y46382D02*
Y46532D01*
X23647Y54174D02*
X23797D01*
X23722Y54099D02*
Y54249D01*
X23508Y56890D02*
X23658D01*
X23583Y56815D02*
Y56965D01*
X33232Y55000D02*
X33382D01*
X33307Y54925D02*
Y55075D01*
X21018Y55720D02*
X21168D01*
X21093Y55645D02*
Y55795D01*
X21371Y58432D02*
X21521D01*
X21446Y58357D02*
Y58507D01*
X26785Y47480D02*
X26935D01*
X26860Y47405D02*
Y47555D01*
X19935Y52372D02*
X20085D01*
X20010Y52297D02*
Y52447D01*
X19935Y51988D02*
X20085D01*
X20010Y51913D02*
Y52063D01*
X16775Y60551D02*
X16925D01*
X16850Y60476D02*
Y60626D01*
X17701Y58110D02*
X17851D01*
X17776Y58035D02*
Y58185D01*
X21018Y57165D02*
X21168D01*
X21093Y57090D02*
Y57240D01*
X34295Y58150D02*
X34445D01*
X34370Y58075D02*
Y58225D01*
X32917Y58110D02*
X33067D01*
X32992Y58035D02*
Y58185D01*
X32838Y55748D02*
X32988D01*
X32913Y55673D02*
Y55823D01*
X32681Y57559D02*
X32831D01*
X32756Y57484D02*
Y57634D01*
X27533Y47411D02*
X27683D01*
X27608Y47336D02*
Y47486D01*
X28705Y47480D02*
X28855D01*
X28780Y47405D02*
Y47555D01*
X27533Y48504D02*
X27683D01*
X27608Y48429D02*
Y48579D01*
X25043Y47018D02*
X25193D01*
X25118Y46943D02*
Y47093D01*
X16903Y46476D02*
X17053D01*
X16978Y46401D02*
Y46551D01*
X22258Y47018D02*
X22408D01*
X22333Y46943D02*
Y47093D01*
X17691Y53100D02*
X17841D01*
X17766Y53025D02*
Y53175D01*
X14593Y49161D02*
X14743D01*
X14669Y49086D02*
Y49236D01*
X15397Y49203D02*
X15547D01*
X15472Y49128D02*
Y49278D01*
X32838Y54882D02*
X32988D01*
X32913Y54807D02*
Y54957D01*
X24334Y57638D02*
X24484D01*
X24409Y57563D02*
Y57713D01*
X25092Y49144D02*
X25242D01*
X25167Y49069D02*
Y49219D01*
X23705Y52441D02*
X23855D01*
X23780Y52366D02*
Y52516D01*
X22523Y54872D02*
X22673D01*
X22598Y54797D02*
Y54947D01*
X23783Y57205D02*
X23933D01*
X23858Y57130D02*
Y57280D01*
X22725Y54523D02*
X22875D01*
X22800Y54448D02*
Y54598D01*
X22208Y55039D02*
X22358D01*
X22283Y54964D02*
Y55114D01*
X22145Y56199D02*
X22295D01*
X22220Y56124D02*
Y56274D01*
X22835Y56890D02*
X22985D01*
X22910Y56815D02*
Y56965D01*
X23393Y52771D02*
X23544D01*
X23468Y52696D02*
Y52846D01*
X23688Y52064D02*
X23838D01*
X23763Y51989D02*
Y52139D01*
X15838Y49961D02*
X15988D01*
X15913Y49886D02*
Y50036D01*
X27573Y51033D02*
X27723D01*
X27648Y50958D02*
Y51108D01*
X28262Y51348D02*
X28412D01*
X28337Y51273D02*
Y51423D01*
X28547Y49843D02*
X28697D01*
X28622Y49768D02*
Y49918D01*
X19413Y50401D02*
X19563D01*
X19489Y50326D02*
Y50476D01*
X19424Y49601D02*
X19574D01*
X19498Y49526D02*
Y49676D01*
X16382Y49961D02*
X16532D01*
X16457Y49886D02*
Y50036D01*
X25063Y51053D02*
X25213D01*
X25138Y50978D02*
Y51128D01*
X28696Y48475D02*
X28846D01*
X28771Y48400D02*
Y48550D01*
X28547Y49449D02*
X28697D01*
X28622Y49374D02*
Y49524D01*
X25476Y49134D02*
X25626D01*
X25551Y49059D02*
Y49209D01*
X26796Y49548D02*
X26946D01*
X26871Y49473D02*
Y49623D01*
X23902Y51231D02*
X24052D01*
X23977Y51156D02*
Y51306D01*
X24474Y49131D02*
X24623D01*
X24548Y49056D02*
Y49206D01*
X24813Y49881D02*
X24964D01*
X24889Y49806D02*
Y49956D01*
X32682Y58975D02*
X32832D01*
X32757Y58900D02*
Y59050D01*
X29768Y46339D02*
X29918D01*
X29843Y46264D02*
Y46414D01*
X30279Y45866D02*
X30429D01*
X30354Y45791D02*
Y45941D01*
X13222Y47016D02*
X13372D01*
X13297Y46941D02*
Y47091D01*
X23344Y49161D02*
X23493D01*
X23419Y49086D02*
Y49236D01*
X32838Y56654D02*
X32988D01*
X32913Y56579D02*
Y56729D01*
X32681Y57067D02*
X32831D01*
X32756Y56992D02*
Y57142D01*
X29011Y59677D02*
X29161D01*
X29086Y59602D02*
Y59752D01*
X23605Y53771D02*
X23755D01*
X23680Y53696D02*
Y53846D01*
X25939Y53789D02*
X26089D01*
X26014Y53714D02*
Y53864D01*
X23665Y54567D02*
X23815D01*
X23740Y54492D02*
Y54642D01*
X26647Y55295D02*
X26797D01*
X26722Y55220D02*
Y55370D01*
X24340Y55669D02*
X24490D01*
X24415Y55594D02*
Y55744D01*
X24208Y53623D02*
X24358D01*
X24283Y53548D02*
Y53698D01*
X24494Y51841D02*
X24643D01*
X24569Y51766D02*
Y51916D01*
X26057Y53081D02*
X26207D01*
X26132Y53006D02*
Y53156D01*
X24208Y54647D02*
X24358D01*
X24283Y54572D02*
Y54722D01*
X26382Y53494D02*
X26532D01*
X26457Y53419D02*
Y53569D01*
X25476Y57323D02*
X25626D01*
X25551Y57248D02*
Y57398D01*
X25437Y56614D02*
X25587D01*
X25512Y56539D02*
Y56689D01*
X25949Y56299D02*
X26099D01*
X26024Y56224D02*
Y56374D01*
X26490Y52815D02*
X26640D01*
X26565Y52740D02*
Y52890D01*
X27603Y52531D02*
X27753D01*
X27678Y52456D02*
Y52606D01*
X26638Y56083D02*
X26788D01*
X26713Y56008D02*
Y56158D01*
X28145Y57482D02*
X28295D01*
X28220Y57407D02*
Y57557D01*
X25846Y57321D02*
X25996D01*
X25921Y57246D02*
Y57396D01*
X27582Y53032D02*
X27732D01*
X27657Y52957D02*
Y53106D01*
X26313Y55669D02*
X26463D01*
X26388Y55594D02*
Y55744D01*
X35831Y59291D02*
X35981D01*
X35906Y59216D02*
Y59366D01*
X50230Y56211D02*
X50380D01*
X50305Y56136D02*
Y56286D01*
X50804Y56211D02*
X50954D01*
X50879Y56136D02*
Y56286D01*
X51972Y57638D02*
X52122D01*
X52047Y57563D02*
Y57713D01*
X51953Y56211D02*
X52103D01*
X52028Y56136D02*
Y56286D01*
X50949Y57638D02*
X51099D01*
X51024Y57563D02*
Y57713D01*
X50437Y57638D02*
X50587D01*
X50512Y57563D02*
Y57713D01*
X51460Y57638D02*
X51610D01*
X51535Y57563D02*
Y57713D01*
X51378Y56211D02*
X51528D01*
X51453Y56136D02*
Y56286D01*
X15470Y59390D02*
X15750D01*
X15610Y59250D02*
Y59530D01*
X14094Y48711D02*
X14244D01*
X14168Y48636D02*
Y48786D01*
X13493Y48361D02*
X13643D01*
X13569Y48286D02*
Y48436D01*
X13493Y48911D02*
X13643D01*
X13569Y48836D02*
Y48986D01*
X12994Y48911D02*
X13144D01*
X13068Y48836D02*
Y48986D01*
X12994Y48361D02*
X13144D01*
X13068Y48286D02*
Y48436D01*
X18944Y49211D02*
X19094D01*
X19018Y49136D02*
Y49286D01*
X18593Y48711D02*
X18743D01*
X18669Y48636D02*
Y48786D01*
X22994Y48711D02*
X23143D01*
X23068Y48636D02*
Y48786D01*
X17694Y48411D02*
X17844D01*
X17768Y48336D02*
Y48486D01*
X18243Y48411D02*
X18393D01*
X18319Y48336D02*
Y48486D01*
X18243Y49111D02*
X18393D01*
X18319Y49036D02*
Y49186D01*
X17694Y49111D02*
X17844D01*
X17768Y49036D02*
Y49186D01*
X22194Y48361D02*
X22343D01*
X22269Y48286D02*
Y48436D01*
X22743Y48361D02*
X22894D01*
X22819Y48286D02*
Y48436D01*
X22194Y49111D02*
X22343D01*
X22269Y49036D02*
Y49186D01*
X22743Y49111D02*
X22894D01*
X22819Y49036D02*
Y49186D01*
X32294Y49211D02*
X32443D01*
X32369Y49136D02*
Y49286D01*
X31793Y48761D02*
X31944D01*
X31869Y48686D02*
Y48836D01*
X30844Y49111D02*
X30993D01*
X30919Y49036D02*
Y49186D01*
X31493Y49111D02*
X31644D01*
X31569Y49036D02*
Y49186D01*
X31493Y48261D02*
X31644D01*
X31569Y48186D02*
Y48336D01*
X30844Y48261D02*
X30993D01*
X30919Y48186D02*
Y48336D01*
X35394Y48511D02*
X35543D01*
X35468Y48436D02*
Y48586D01*
X35694Y49161D02*
X35844D01*
X35768Y49086D02*
Y49236D01*
X35394Y47111D02*
X35543D01*
X35468Y47036D02*
Y47186D01*
X35993Y46461D02*
X36144D01*
X36068Y46386D02*
Y46536D01*
X35993Y48461D02*
X36144D01*
X36068Y48386D02*
Y48536D01*
X33544Y51761D02*
X33693D01*
X33619Y51686D02*
Y51836D01*
X33893Y54361D02*
X34044D01*
X33969Y54286D02*
Y54436D01*
X33593Y56711D02*
X33744D01*
X33668Y56636D02*
Y56786D01*
X32524Y50331D02*
X32673D01*
X32599Y50256D02*
Y50406D01*
X31393Y49961D02*
X31544D01*
X31469Y49886D02*
Y50036D01*
X30676Y49643D02*
X30826D01*
X30751Y49568D02*
Y49718D01*
X29393Y49961D02*
X29543D01*
X29469Y49886D02*
Y50036D01*
X26244Y49111D02*
X26393D01*
X26319Y49036D02*
Y49186D01*
X23444Y49961D02*
X23593D01*
X23519Y49886D02*
Y50036D01*
X22643Y49711D02*
X22794D01*
X22719Y49636D02*
Y49786D01*
X21293Y50211D02*
X21444D01*
X21369Y50136D02*
Y50286D01*
X20294Y49961D02*
X20443D01*
X20368Y49886D02*
Y50036D01*
X15194Y50261D02*
X15344D01*
X15268Y50186D02*
Y50336D01*
X12493Y49961D02*
X12644D01*
X12569Y49886D02*
Y50036D01*
X19472Y55423D02*
X19622D01*
X19547Y55348D02*
Y55498D01*
X19925Y53701D02*
X20075D01*
X20000Y53626D02*
Y53776D01*
X19915Y54094D02*
X20065D01*
X19990Y54019D02*
Y54169D01*
X20294Y53261D02*
X20443D01*
X20368Y53186D02*
Y53336D01*
X23293Y53431D02*
X23444D01*
X23368Y53356D02*
Y53506D01*
X20203Y54551D02*
X20354D01*
X20278Y54476D02*
Y54626D01*
X19864Y55431D02*
X20013D01*
X19938Y55356D02*
Y55506D01*
X20183Y55671D02*
X20333D01*
X20259Y55596D02*
Y55746D01*
X16894Y56391D02*
X17043D01*
X16968Y56316D02*
Y56466D01*
X16614Y57111D02*
X16763D01*
X16688Y57036D02*
Y57186D01*
X17204Y50361D02*
X17354D01*
X17278Y50286D02*
Y50436D01*
X21493Y49861D02*
X21644D01*
X21569Y49786D02*
Y49936D01*
X34374Y44921D02*
X34524D01*
X34449Y44846D02*
Y44996D01*
X16264Y42541D02*
X16414D01*
X16338Y42466D02*
Y42616D01*
X31463Y42441D02*
X31614D01*
X31539Y42366D02*
Y42516D01*
X15712Y44409D02*
X15862D01*
X15787Y44334D02*
Y44484D01*
X16460Y44331D02*
X16610D01*
X16535Y44256D02*
Y44406D01*
X13454Y43891D02*
X13604D01*
X13528Y43816D02*
Y43966D01*
X23035Y44370D02*
X23185D01*
X23110Y44295D02*
Y44445D01*
X22703Y42441D02*
X22854D01*
X22778Y42366D02*
Y42516D01*
X31123Y42121D02*
X31274D01*
X31198Y42046D02*
Y42196D01*
X25633Y43781D02*
X25784D01*
X25708Y43706D02*
Y43856D01*
X24216Y44331D02*
X24366D01*
X24291Y44256D02*
Y44406D01*
X24531Y44331D02*
X24681D01*
X24606Y44256D02*
Y44406D01*
X26123Y46791D02*
X26274D01*
X26198Y46716D02*
Y46866D01*
X25043Y44811D02*
X25194D01*
X25119Y44736D02*
Y44886D01*
X24973Y44331D02*
X25124D01*
X25048Y44256D02*
Y44406D01*
X18643Y42411D02*
X18793D01*
X18719Y42336D02*
Y42486D01*
X21804Y42431D02*
X21953D01*
X21878Y42356D02*
Y42506D01*
X18744Y44370D02*
X18894D01*
X18819Y44295D02*
Y44445D01*
X20122Y44331D02*
X20272D01*
X20197Y44256D02*
Y44406D01*
X21972Y44331D02*
X22122D01*
X22047Y44256D02*
Y44406D01*
X19144Y42441D02*
X19294D01*
X19218Y42366D02*
Y42516D01*
X20273Y42561D02*
X20424D01*
X20348Y42486D02*
Y42636D01*
X19807Y44331D02*
X19957D01*
X19882Y44256D02*
Y44406D01*
X17543Y44331D02*
X17693D01*
X17618Y44256D02*
Y44406D01*
X18350Y44370D02*
X18500D01*
X18425Y44295D02*
Y44445D01*
X16763Y42511D02*
X16913D01*
X16839Y42436D02*
Y42586D01*
X26644Y46521D02*
X26793D01*
X26718Y46446D02*
Y46596D01*
X25394Y45141D02*
X25543D01*
X25468Y45066D02*
Y45216D01*
X20624Y42551D02*
X20773D01*
X20698Y42476D02*
Y42626D01*
X20988Y44331D02*
X21138D01*
X21063Y44256D02*
Y44406D01*
X17404Y42531D02*
X17553D01*
X17478Y42456D02*
Y42606D01*
X31844Y42431D02*
X31994D01*
X31918Y42356D02*
Y42506D01*
X33884Y42441D02*
X34034D01*
X33958Y42366D02*
Y42516D01*
X16903Y46181D02*
X17053D01*
X16978Y46106D02*
Y46256D01*
X17208Y46181D02*
X17358D01*
X17283Y46106D02*
Y46256D01*
X43447Y63333D02*
X43597D01*
X43522Y63258D02*
Y63408D01*
X43840Y63333D02*
X43990D01*
X43915Y63258D02*
Y63408D01*
X44234Y63333D02*
X44384D01*
X44309Y63258D02*
Y63408D01*
X44234Y63726D02*
X44384D01*
X44309Y63651D02*
Y63801D01*
X44234Y64120D02*
X44384D01*
X44309Y64045D02*
Y64195D01*
X43840Y64120D02*
X43990D01*
X43915Y64045D02*
Y64195D01*
X43447Y64120D02*
X43597D01*
X43522Y64045D02*
Y64195D01*
X43447Y63726D02*
X43597D01*
X43522Y63651D02*
Y63801D01*
X43840Y63726D02*
X43990D01*
X43915Y63651D02*
Y63801D01*
X36342Y58898D02*
X36492D01*
X36417Y58823D02*
Y58973D01*
X34502Y61083D02*
X34652D01*
X34577Y61008D02*
Y61158D01*
X34502Y60620D02*
X34652D01*
X34577Y60545D02*
Y60695D01*
X29019Y59291D02*
X29169D01*
X29094Y59216D02*
Y59366D01*
X34777Y64764D02*
X34927D01*
X34852Y64689D02*
Y64839D01*
X26677Y61585D02*
X26827D01*
X26752Y61510D02*
Y61660D01*
X33783Y63466D02*
X33933D01*
X33858Y63391D02*
Y63541D01*
X34079Y63760D02*
X34229D01*
X34154Y63685D02*
Y63835D01*
X43104Y47854D02*
X43254D01*
X43179Y47779D02*
Y47929D01*
X50516Y48150D02*
X50666D01*
X50591Y48075D02*
Y48225D01*
X50516Y48543D02*
X50666D01*
X50591Y48468D02*
Y48618D01*
X51667Y51171D02*
X51817D01*
X51742Y51096D02*
Y51246D01*
X48557Y53819D02*
X48707D01*
X48632Y53744D02*
Y53894D01*
X49216Y54882D02*
X49366D01*
X49291Y54807D02*
Y54957D01*
X49994Y53819D02*
X50144D01*
X50069Y53744D02*
Y53894D01*
X47317Y52018D02*
X47467D01*
X47392Y51943D02*
Y52093D01*
X49128Y51968D02*
X49278D01*
X49203Y51894D02*
Y52043D01*
X50860Y53189D02*
X51010D01*
X50935Y53114D02*
Y53264D01*
X50919Y54557D02*
X51069D01*
X50994Y54482D02*
Y54632D01*
X49236Y55541D02*
X49386D01*
X49311Y55466D02*
Y55616D01*
X42051Y60039D02*
X42201D01*
X42126Y59964D02*
Y60114D01*
X41392Y59370D02*
X41542D01*
X41467Y59295D02*
Y59445D01*
X41421Y57244D02*
X41571D01*
X41496Y57169D02*
Y57319D01*
X42681Y56959D02*
X42831D01*
X42756Y56884D02*
Y57034D01*
X47710Y57254D02*
X47860D01*
X47785Y57179D02*
Y57329D01*
X48311Y58484D02*
X48461D01*
X48386Y58409D02*
Y58559D01*
X48311Y60039D02*
X48461D01*
X48386Y59964D02*
Y60114D01*
X43616Y60039D02*
X43766D01*
X43691Y59964D02*
Y60114D01*
X45181Y60039D02*
X45331D01*
X45256Y59964D02*
Y60114D01*
X46746Y60039D02*
X46896D01*
X46821Y59964D02*
Y60114D01*
X41392Y58248D02*
X41542D01*
X41467Y58173D02*
Y58323D01*
X18645Y55915D02*
X18795D01*
X18720Y55840D02*
Y55990D01*
X20673Y60325D02*
X20823D01*
X20748Y60250D02*
Y60400D01*
X16362Y60561D02*
X16512D01*
X16437Y60486D02*
Y60636D01*
X16569Y51811D02*
X16719D01*
X16644Y51736D02*
Y51886D01*
X12671Y51831D02*
X12821D01*
X12746Y51756D02*
Y51906D01*
X13419Y57904D02*
X13569D01*
X13494Y57829D02*
Y57979D01*
X38268Y74943D02*
X38898D01*
X38583Y74628D02*
Y75258D01*
X36928Y74943D02*
X37558D01*
X37243Y74628D02*
Y75258D01*
X36928Y69643D02*
X37558D01*
X37243Y69328D02*
Y69958D01*
X38268Y69643D02*
X38898D01*
X38583Y69328D02*
Y69958D01*
X44734Y81794D02*
X45363D01*
X45048Y81479D02*
Y82109D01*
X46073Y81794D02*
X46704D01*
X46389Y81479D02*
Y82109D01*
X46073Y76494D02*
X46704D01*
X46389Y76179D02*
Y76809D01*
X44734Y76494D02*
X45363D01*
X45048Y76179D02*
Y76809D01*
X47637Y76504D02*
X48267D01*
X47952Y76189D02*
Y76819D01*
X48977Y76504D02*
X49607D01*
X49292Y76189D02*
Y76819D01*
X48977Y81804D02*
X49607D01*
X49292Y81489D02*
Y82119D01*
X47637Y81804D02*
X48267D01*
X47952Y81489D02*
Y82119D01*
X29307Y93409D02*
X29661D01*
X29484Y93232D02*
Y93587D01*
X29307Y94409D02*
X29661D01*
X29484Y94232D02*
Y94587D01*
X30307Y93409D02*
X30661D01*
X30484Y93232D02*
Y93587D01*
X30307Y94409D02*
X30661D01*
X30484Y94232D02*
Y94587D01*
X31307Y93409D02*
X31661D01*
X31484Y93232D02*
Y93587D01*
X31307Y94409D02*
X31661D01*
X31484Y94232D02*
Y94587D01*
X32307Y93409D02*
X32661D01*
X32484Y93232D02*
Y93587D01*
X32307Y94409D02*
X32661D01*
X32484Y94232D02*
Y94587D01*
X33307Y93409D02*
X33661D01*
X33484Y93232D02*
Y93587D01*
X33307Y94409D02*
X33661D01*
X33484Y94232D02*
Y94587D01*
X29287Y89738D02*
X29642D01*
X29465Y89561D02*
Y89915D01*
X29287Y90738D02*
X29642D01*
X29465Y90561D02*
Y90915D01*
X30287Y89738D02*
X30642D01*
X30465Y89561D02*
Y89915D01*
X30287Y90738D02*
X30642D01*
X30465Y90561D02*
Y90915D01*
X31287Y89738D02*
X31642D01*
X31465Y89561D02*
Y89915D01*
X31287Y90738D02*
X31642D01*
X31465Y90561D02*
Y90915D01*
X32287Y89738D02*
X32642D01*
X32465Y89561D02*
Y89915D01*
X32287Y90738D02*
X32642D01*
X32465Y90561D02*
Y90915D01*
X33287Y89738D02*
X33642D01*
X33465Y89561D02*
Y89915D01*
X33287Y90738D02*
X33642D01*
X33465Y90561D02*
Y90915D01*
X26646Y69370D02*
X27046D01*
X26846Y69170D02*
Y69570D01*
X27646Y69370D02*
X28046D01*
X27846Y69170D02*
Y69570D01*
X28646Y69370D02*
X29046D01*
X28846Y69170D02*
Y69570D01*
X29646Y69370D02*
X30046D01*
X29846Y69170D02*
Y69570D01*
X26646Y72126D02*
X27046D01*
X26846Y71926D02*
Y72326D01*
X27646Y72126D02*
X28046D01*
X27846Y71926D02*
Y72326D01*
X28646Y72126D02*
X29046D01*
X28846Y71926D02*
Y72326D01*
X29646Y72126D02*
X30046D01*
X29846Y71926D02*
Y72326D01*
X12696Y90733D02*
X13096D01*
X12896Y90533D02*
Y90933D01*
X12696Y88953D02*
X13096D01*
X12896Y88753D02*
Y89153D01*
X13581Y91223D02*
X14171D01*
X13876Y90928D02*
Y91518D01*
X13581Y88463D02*
X14171D01*
X13876Y88168D02*
Y88758D01*
X24391Y93780D02*
X24791D01*
X24591Y93580D02*
Y93980D01*
X25391Y93780D02*
X25791D01*
X25591Y93580D02*
Y93980D01*
X26391Y93780D02*
X26791D01*
X26591Y93580D02*
Y93980D01*
X20257Y93780D02*
X20657D01*
X20457Y93580D02*
Y93980D01*
X21257Y93780D02*
X21657D01*
X21457Y93580D02*
Y93980D01*
X22257Y93780D02*
X22657D01*
X22457Y93580D02*
Y93980D01*
X16123Y93780D02*
X16523D01*
X16323Y93580D02*
Y93980D01*
X17123Y93780D02*
X17523D01*
X17323Y93580D02*
Y93980D01*
X18123Y93780D02*
X18523D01*
X18323Y93580D02*
Y93980D01*
X22257Y91417D02*
X22657D01*
X22457Y91217D02*
Y91617D01*
X21257Y91417D02*
X21657D01*
X21457Y91217D02*
Y91617D01*
X20257Y91417D02*
X20657D01*
X20457Y91217D02*
Y91617D01*
X26391Y91417D02*
X26791D01*
X26591Y91217D02*
Y91617D01*
X25391Y91417D02*
X25791D01*
X25591Y91217D02*
Y91617D01*
X24391Y91417D02*
X24791D01*
X24591Y91217D02*
Y91617D01*
X18123Y91417D02*
X18523D01*
X18323Y91217D02*
Y91617D01*
X17123Y91417D02*
X17523D01*
X17323Y91217D02*
Y91617D01*
X16123Y91417D02*
X16523D01*
X16323Y91217D02*
Y91617D01*
X35272Y85169D02*
X35672D01*
X35472Y84969D02*
Y85369D01*
X35272Y86169D02*
X35672D01*
X35472Y85969D02*
Y86369D01*
X35272Y82059D02*
X35672D01*
X35472Y81859D02*
Y82259D01*
X35272Y83059D02*
X35672D01*
X35472Y82859D02*
Y83259D01*
X36296Y89319D02*
X36696D01*
X36496Y89119D02*
Y89519D01*
X36296Y88319D02*
X36696D01*
X36496Y88119D02*
Y88519D01*
X38828Y83583D02*
X39228D01*
X39028Y83383D02*
Y83783D01*
X39828Y83583D02*
X40228D01*
X40028Y83383D02*
Y83783D01*
X35272Y78949D02*
X35672D01*
X35472Y78749D02*
Y79149D01*
X35272Y79949D02*
X35672D01*
X35472Y79749D02*
Y80149D01*
X36738Y91010D02*
X37093D01*
X36915Y90833D02*
Y91187D01*
X35738Y91010D02*
X36093D01*
X35915Y90833D02*
Y91187D01*
X36738Y92010D02*
X37093D01*
X36915Y91833D02*
Y92187D01*
X35738Y92010D02*
X36093D01*
X35915Y91833D02*
Y92187D01*
X36738Y93010D02*
X37093D01*
X36915Y92833D02*
Y93187D01*
X35738Y93010D02*
X36093D01*
X35915Y92833D02*
Y93187D01*
X36738Y94010D02*
X37093D01*
X36915Y93833D02*
Y94187D01*
X35738Y94010D02*
X36093D01*
X35915Y93833D02*
Y94187D01*
X36738Y95010D02*
X37093D01*
X36915Y94833D02*
Y95187D01*
X35738Y95010D02*
X36093D01*
X35915Y94833D02*
Y95187D01*
X14132Y80780D02*
X15002D01*
X14567Y80345D02*
Y81215D01*
X14132Y85512D02*
X15002D01*
X14567Y85077D02*
Y85947D01*
X15447Y82650D02*
X15827D01*
X15637Y82460D02*
Y82840D01*
X15447Y83642D02*
X15827D01*
X15637Y83452D02*
Y83832D01*
X16237Y83642D02*
X16617D01*
X16427Y83452D02*
Y83832D01*
X16237Y82650D02*
X16617D01*
X16427Y82460D02*
Y82840D01*
X40213Y78898D02*
X40613D01*
X40413Y78698D02*
Y79098D01*
X38245Y78898D02*
X38645D01*
X38445Y78698D02*
Y79098D01*
X16410Y69370D02*
X16810D01*
X16610Y69170D02*
Y69570D01*
X17410Y69370D02*
X17810D01*
X17610Y69170D02*
Y69570D01*
X18410Y69370D02*
X18810D01*
X18610Y69170D02*
Y69570D01*
X19410Y69370D02*
X19810D01*
X19610Y69170D02*
Y69570D01*
X21528Y69370D02*
X21928D01*
X21728Y69170D02*
Y69570D01*
X22528Y69370D02*
X22928D01*
X22728Y69170D02*
Y69570D01*
X23528Y69370D02*
X23928D01*
X23728Y69170D02*
Y69570D01*
X24528Y69370D02*
X24928D01*
X24728Y69170D02*
Y69570D01*
X31765Y69370D02*
X32165D01*
X31965Y69170D02*
Y69570D01*
X32765Y69370D02*
X33165D01*
X32965Y69170D02*
Y69570D01*
X33765Y69370D02*
X34165D01*
X33965Y69170D02*
Y69570D01*
X34765Y69370D02*
X35165D01*
X34965Y69170D02*
Y69570D01*
X50904Y84953D02*
X51453D01*
X51178Y84678D02*
Y85228D01*
X50904Y86953D02*
X51453D01*
X51178Y86678D02*
Y87228D01*
X50904Y88953D02*
X51453D01*
X51178Y88678D02*
Y89228D01*
X50904Y90953D02*
X51453D01*
X51178Y90678D02*
Y91228D01*
X42408Y82403D02*
X42808D01*
X42608Y82203D02*
Y82603D01*
X42408Y81003D02*
X42808D01*
X42608Y80803D02*
Y81203D01*
X50253Y72804D02*
X50653D01*
X50453Y72604D02*
Y73004D01*
X50253Y74204D02*
X50653D01*
X50453Y74004D02*
Y74404D01*
X23200Y87628D02*
X23580D01*
X23390Y87438D02*
Y87818D01*
X23200Y88628D02*
X23580D01*
X23390Y88438D02*
Y88818D01*
X24200Y87628D02*
X24580D01*
X24390Y87438D02*
Y87818D01*
X24200Y88628D02*
X24580D01*
X24390Y88438D02*
Y88818D01*
X25200Y87628D02*
X25580D01*
X25390Y87438D02*
Y87818D01*
X25200Y88628D02*
X25580D01*
X25390Y88438D02*
Y88818D01*
X17474Y87628D02*
X17854D01*
X17664Y87438D02*
Y87818D01*
X17474Y88628D02*
X17854D01*
X17664Y88438D02*
Y88818D01*
X18474Y87628D02*
X18854D01*
X18664Y87438D02*
Y87818D01*
X18474Y88628D02*
X18854D01*
X18664Y88438D02*
Y88818D01*
X19474Y87628D02*
X19854D01*
X19664Y87438D02*
Y87818D01*
X19474Y88628D02*
X19854D01*
X19664Y88438D02*
Y88818D01*
X38776Y85866D02*
X39176D01*
X38976Y85666D02*
Y86066D01*
X39776Y85866D02*
X40176D01*
X39976Y85666D02*
Y86066D01*
X51975Y72008D02*
X52375D01*
X52175Y71808D02*
Y72208D01*
X50406Y69064D02*
X50556D01*
X50481Y68989D02*
Y69139D01*
X51806Y69064D02*
X51956D01*
X51881Y68989D02*
Y69139D01*
X51806Y70464D02*
X51956D01*
X51881Y70389D02*
Y70539D01*
X50406Y70464D02*
X50556D01*
X50481Y70389D02*
Y70539D01*
X50106Y69764D02*
X50256D01*
X50181Y69689D02*
Y69839D01*
X52106Y69764D02*
X52256D01*
X52181Y69689D02*
Y69839D01*
X51106Y70764D02*
X51256D01*
X51181Y70689D02*
Y70839D01*
X51106Y68764D02*
X51256D01*
X51181Y68689D02*
Y68839D01*
X50591Y69764D02*
X51772D01*
X51181Y69173D02*
Y70354D01*
X13005Y69064D02*
X13155D01*
X13080Y68989D02*
Y69139D01*
X14405Y69064D02*
X14555D01*
X14480Y68989D02*
Y69139D01*
X14405Y70464D02*
X14555D01*
X14480Y70389D02*
Y70539D01*
X13005Y70464D02*
X13155D01*
X13080Y70389D02*
Y70539D01*
X12705Y69764D02*
X12855D01*
X12780Y69689D02*
Y69839D01*
X14705Y69764D02*
X14855D01*
X14780Y69689D02*
Y69839D01*
X13705Y70764D02*
X13855D01*
X13780Y70689D02*
Y70839D01*
X13705Y68764D02*
X13855D01*
X13780Y68689D02*
Y68839D01*
X13189Y69764D02*
X14370D01*
X13780Y69173D02*
Y70354D01*
X13005Y93080D02*
X13155D01*
X13080Y93005D02*
Y93155D01*
X14405Y93080D02*
X14555D01*
X14480Y93005D02*
Y93155D01*
X14405Y94480D02*
X14555D01*
X14480Y94405D02*
Y94555D01*
X13005Y94480D02*
X13155D01*
X13080Y94405D02*
Y94555D01*
X12705Y93780D02*
X12855D01*
X12780Y93705D02*
Y93855D01*
X14705Y93780D02*
X14855D01*
X14780Y93705D02*
Y93855D01*
X13705Y94780D02*
X13855D01*
X13780Y94705D02*
Y94855D01*
X13705Y92780D02*
X13855D01*
X13780Y92705D02*
Y92855D01*
X13189Y93780D02*
X14370D01*
X13780Y93189D02*
Y94370D01*
X50406Y93080D02*
X50556D01*
X50481Y93005D02*
Y93155D01*
X51806Y93080D02*
X51956D01*
X51881Y93005D02*
Y93155D01*
X51806Y94480D02*
X51956D01*
X51881Y94405D02*
Y94555D01*
X50406Y94480D02*
X50556D01*
X50481Y94405D02*
Y94555D01*
X50106Y93780D02*
X50256D01*
X50181Y93705D02*
Y93855D01*
X52106Y93780D02*
X52256D01*
X52181Y93705D02*
Y93855D01*
X51106Y94780D02*
X51256D01*
X51181Y94705D02*
Y94855D01*
X51106Y92780D02*
X51256D01*
X51181Y92705D02*
Y92855D01*
X50591Y93780D02*
X51772D01*
X51181Y93189D02*
Y94370D01*
X40514Y73061D02*
X41064D01*
X40789Y72786D02*
Y73336D01*
X42514Y73061D02*
X43064D01*
X42789Y72786D02*
Y73336D01*
X44514Y73061D02*
X45064D01*
X44789Y72786D02*
Y73336D01*
X46514Y73061D02*
X47064D01*
X46789Y72786D02*
Y73336D01*
X40329Y76211D02*
X40479D01*
X40404Y76136D02*
Y76286D01*
X41834Y76585D02*
X41984D01*
X41909Y76510D02*
Y76660D01*
X41244Y76949D02*
X41394D01*
X41319Y76874D02*
Y77024D01*
X35781Y69803D02*
X35931D01*
X35856Y69728D02*
Y69878D01*
X35112Y73346D02*
X35262D01*
X35187Y73271D02*
Y73421D01*
X35161Y74163D02*
X35311D01*
X35236Y74088D02*
Y74238D01*
X36293Y73110D02*
X36443D01*
X36368Y73035D02*
Y73185D01*
X36293Y74151D02*
X36443D01*
X36368Y74076D02*
Y74226D01*
X44423Y81181D02*
X44573D01*
X44498Y81106D02*
Y81256D01*
X44374Y81880D02*
X44524D01*
X44449Y81805D02*
Y81955D01*
X38492Y71870D02*
X38792D01*
X38642Y71720D02*
Y72020D01*
X37950Y71299D02*
X38250D01*
X38100Y71149D02*
Y71449D01*
X49413Y71250D02*
X49563D01*
X49488Y71175D02*
Y71325D01*
X48557Y71024D02*
X48707D01*
X48632Y70949D02*
Y71099D01*
X36293Y73804D02*
X36443D01*
X36368Y73729D02*
Y73879D01*
X36293Y73457D02*
X36443D01*
X36368Y73382D02*
Y73532D01*
X36293Y72763D02*
X36443D01*
X36368Y72688D02*
Y72838D01*
X51392Y78189D02*
X51542D01*
X51467Y78114D02*
Y78264D01*
X50919Y78189D02*
X51069D01*
X50994Y78114D02*
Y78264D01*
X50516Y78189D02*
X50666D01*
X50591Y78114D02*
Y78264D01*
X39423Y86742D02*
X39573D01*
X39498Y86667D02*
Y86817D01*
X39019Y86742D02*
X39169D01*
X39094Y86667D02*
Y86817D01*
X39079Y87825D02*
X39229D01*
X39154Y87750D02*
Y87900D01*
X40004Y87490D02*
X40154D01*
X40079Y87415D02*
Y87565D01*
X40004Y88189D02*
X40154D01*
X40079Y88114D02*
Y88264D01*
X39462Y88189D02*
X39612D01*
X39537Y88114D02*
Y88264D01*
X39019Y87264D02*
X39169D01*
X39094Y87189D02*
Y87339D01*
X36913Y85984D02*
X37063D01*
X36988Y85909D02*
Y86059D01*
X36953Y84035D02*
X37103D01*
X37028Y83960D02*
Y84110D01*
X41155Y87982D02*
X41405D01*
X41280Y87857D02*
Y88107D01*
X47228Y71270D02*
X47378D01*
X47303Y71195D02*
Y71345D01*
X46411Y71270D02*
X46561D01*
X46486Y71195D02*
Y71345D01*
X46057Y73130D02*
X46207D01*
X46132Y73055D02*
Y73205D01*
X24895Y89015D02*
X25045D01*
X24970Y88940D02*
Y89090D01*
X29994Y89390D02*
X30144D01*
X30069Y89315D02*
Y89465D01*
X48035Y91359D02*
X48185D01*
X48110Y91284D02*
Y91434D01*
X48035Y91759D02*
X48185D01*
X48110Y91684D02*
Y91834D01*
X48035Y90959D02*
X48185D01*
X48110Y90884D02*
Y91034D01*
X48035Y90559D02*
X48185D01*
X48110Y90484D02*
Y90634D01*
X47635Y90559D02*
X47785D01*
X47710Y90484D02*
Y90634D01*
X47235Y90559D02*
X47385D01*
X47310Y90484D02*
Y90634D01*
X47235Y90959D02*
X47385D01*
X47310Y90884D02*
Y91034D01*
X47635Y90959D02*
X47785D01*
X47710Y90884D02*
Y91034D01*
X47635Y91359D02*
X47785D01*
X47710Y91284D02*
Y91434D01*
X47235Y91359D02*
X47385D01*
X47310Y91284D02*
Y91434D01*
X47235Y91759D02*
X47385D01*
X47310Y91684D02*
Y91834D01*
X47635Y91759D02*
X47785D01*
X47710Y91684D02*
Y91834D01*
X48435Y91759D02*
X48585D01*
X48510Y91684D02*
Y91834D01*
X48835Y91759D02*
X48985D01*
X48910Y91684D02*
Y91834D01*
X48835Y91359D02*
X48985D01*
X48910Y91284D02*
Y91434D01*
X48435Y91359D02*
X48585D01*
X48510Y91284D02*
Y91434D01*
X48435Y90959D02*
X48585D01*
X48510Y90884D02*
Y91034D01*
X48835Y90959D02*
X48985D01*
X48910Y90884D02*
Y91034D01*
X48835Y90559D02*
X48985D01*
X48910Y90484D02*
Y90634D01*
X48435Y90559D02*
X48585D01*
X48510Y90484D02*
Y90634D01*
X44853Y84968D02*
X45003D01*
X44928Y84893D02*
Y85043D01*
X45253Y84968D02*
X45403D01*
X45328Y84893D02*
Y85043D01*
X45253Y85368D02*
X45403D01*
X45328Y85293D02*
Y85443D01*
X44853Y85368D02*
X45003D01*
X44928Y85293D02*
Y85443D01*
X44853Y85768D02*
X45003D01*
X44928Y85693D02*
Y85843D01*
X45253Y85768D02*
X45403D01*
X45328Y85693D02*
Y85843D01*
X45253Y86168D02*
X45403D01*
X45328Y86093D02*
Y86243D01*
X44853Y86168D02*
X45003D01*
X44928Y86093D02*
Y86243D01*
X44053Y86168D02*
X44203D01*
X44128Y86093D02*
Y86243D01*
X43653Y86168D02*
X43803D01*
X43728Y86093D02*
Y86243D01*
X43653Y85768D02*
X43803D01*
X43728Y85693D02*
Y85843D01*
X44053Y85768D02*
X44203D01*
X44128Y85693D02*
Y85843D01*
X44053Y85368D02*
X44203D01*
X44128Y85293D02*
Y85443D01*
X43653Y85368D02*
X43803D01*
X43728Y85293D02*
Y85443D01*
X43653Y84968D02*
X43803D01*
X43728Y84893D02*
Y85043D01*
X44053Y84968D02*
X44203D01*
X44128Y84893D02*
Y85043D01*
X44453Y84968D02*
X44603D01*
X44528Y84893D02*
Y85043D01*
X44453Y85368D02*
X44603D01*
X44528Y85293D02*
Y85443D01*
X44453Y86168D02*
X44603D01*
X44528Y86093D02*
Y86243D01*
X44453Y85768D02*
X44603D01*
X44528Y85693D02*
Y85843D01*
X19693Y85053D02*
X19843D01*
X19769Y84978D02*
Y85128D01*
X19693Y85427D02*
X19843D01*
X19769Y85352D02*
Y85502D01*
X19317Y85430D02*
X19467D01*
X19392Y85355D02*
Y85505D01*
X19321Y85053D02*
X19471D01*
X19396Y84978D02*
Y85128D01*
X19319Y84669D02*
X19469D01*
X19394Y84594D02*
Y84744D01*
X19693Y84679D02*
X19843D01*
X19769Y84604D02*
Y84754D01*
X20068Y84679D02*
X20218D01*
X20143Y84604D02*
Y84754D01*
X20068Y85053D02*
X20218D01*
X20143Y84978D02*
Y85128D01*
X20068Y85427D02*
X20218D01*
X20143Y85352D02*
Y85502D01*
X14768Y74713D02*
X14918D01*
X14843Y74638D02*
Y74788D01*
X14394Y74713D02*
X14543D01*
X14468Y74638D02*
Y74788D01*
X14390Y74336D02*
X14540D01*
X14465Y74261D02*
Y74411D01*
X14768Y74341D02*
X14918D01*
X14843Y74266D02*
Y74416D01*
X15151Y74339D02*
X15301D01*
X15226Y74264D02*
Y74414D01*
X15142Y74713D02*
X15292D01*
X15217Y74638D02*
Y74788D01*
X15142Y75087D02*
X15292D01*
X15217Y75012D02*
Y75162D01*
X14768Y75087D02*
X14918D01*
X14843Y75012D02*
Y75162D01*
X14394Y75087D02*
X14543D01*
X14468Y75012D02*
Y75162D01*
X19277Y74713D02*
X19427D01*
X19352Y74638D02*
Y74788D01*
X18903Y74713D02*
X19053D01*
X18978Y74638D02*
Y74788D01*
X18899Y74336D02*
X19049D01*
X18974Y74261D02*
Y74411D01*
X19277Y74341D02*
X19427D01*
X19352Y74266D02*
Y74416D01*
X19660Y74339D02*
X19810D01*
X19735Y74264D02*
Y74414D01*
X19651Y74713D02*
X19801D01*
X19726Y74638D02*
Y74788D01*
X19651Y75087D02*
X19801D01*
X19726Y75012D02*
Y75162D01*
X19277Y75087D02*
X19427D01*
X19352Y75012D02*
Y75162D01*
X18903Y75087D02*
X19053D01*
X18978Y75012D02*
Y75162D01*
X23663Y74713D02*
X23813D01*
X23738Y74638D02*
Y74788D01*
X23289Y74713D02*
X23439D01*
X23364Y74638D02*
Y74788D01*
X23285Y74336D02*
X23435D01*
X23360Y74261D02*
Y74411D01*
X23663Y74341D02*
X23813D01*
X23738Y74266D02*
Y74416D01*
X24047Y74339D02*
X24197D01*
X24122Y74264D02*
Y74414D01*
X24037Y74713D02*
X24187D01*
X24112Y74638D02*
Y74788D01*
X24037Y75087D02*
X24187D01*
X24112Y75012D02*
Y75162D01*
X23663Y75087D02*
X23813D01*
X23738Y75012D02*
Y75162D01*
X23289Y75087D02*
X23439D01*
X23364Y75012D02*
Y75162D01*
X32543Y74644D02*
X32693D01*
X32618Y74569D02*
Y74719D01*
X32169Y74644D02*
X32319D01*
X32244Y74569D02*
Y74719D01*
X32166Y74267D02*
X32315D01*
X32241Y74192D02*
Y74342D01*
X32543Y74272D02*
X32693D01*
X32618Y74197D02*
Y74347D01*
X32927Y74270D02*
X33077D01*
X33002Y74195D02*
Y74345D01*
X32917Y74644D02*
X33067D01*
X32992Y74569D02*
Y74719D01*
X32917Y75018D02*
X33067D01*
X32992Y74943D02*
Y75093D01*
X32543Y75018D02*
X32693D01*
X32618Y74943D02*
Y75093D01*
X32169Y75018D02*
X32319D01*
X32244Y74943D02*
Y75093D01*
X17323Y77483D02*
X17473D01*
X17399Y77408D02*
Y77558D01*
X17393Y78003D02*
X17543D01*
X17469Y77928D02*
Y78078D01*
X42264Y89333D02*
X42414D01*
X42339Y89258D02*
Y89408D01*
X44113Y90533D02*
X44264D01*
X44188Y90458D02*
Y90608D01*
X45184Y89993D02*
X45333D01*
X45258Y89918D02*
Y90068D01*
X42713Y92603D02*
X42863D01*
X42789Y92528D02*
Y92678D01*
X44563Y92433D02*
X44714D01*
X44639Y92358D02*
Y92508D01*
X44289Y90113D02*
X44569D01*
X44429Y89973D02*
Y90253D01*
X45779Y93569D02*
X45929D01*
X45854Y93494D02*
Y93644D01*
X43649Y94093D02*
X43948D01*
X43798Y93943D02*
Y94243D01*
X46034Y89333D02*
X46184D01*
X46108Y89258D02*
Y89408D01*
X44149Y89333D02*
X44299D01*
X44223Y89258D02*
Y89408D01*
X37994Y89753D02*
X38143D01*
X38068Y89678D02*
Y89828D01*
X40379Y89333D02*
X40529D01*
X40454Y89258D02*
Y89408D01*
X43645Y92949D02*
X43945D01*
X43795Y92799D02*
Y93099D01*
X34264Y70433D02*
X34413D01*
X34339Y70358D02*
Y70508D01*
X33303Y70433D02*
X33454D01*
X33379Y70358D02*
Y70508D01*
X32443Y70433D02*
X32594D01*
X32518Y70358D02*
Y70508D01*
X23363Y70433D02*
X23514D01*
X23438Y70358D02*
Y70508D01*
X15874Y70133D02*
X16023D01*
X15948Y70058D02*
Y70208D01*
X19363Y86713D02*
X19513D01*
X19439Y86638D02*
Y86788D01*
X16273Y87323D02*
X16423D01*
X16349Y87248D02*
Y87398D01*
X22174Y89233D02*
X22324D01*
X22248Y89158D02*
Y89308D01*
X19194Y91703D02*
X19344D01*
X19268Y91628D02*
Y91778D01*
X26490Y82185D02*
X26640D01*
X26565Y82110D02*
Y82260D01*
X31893Y81053D02*
X32043D01*
X31969Y80978D02*
Y81128D01*
X33557Y77470D02*
X33707D01*
X33632Y77395D02*
Y77545D01*
X25821Y83760D02*
X25971D01*
X25896Y83685D02*
Y83835D01*
X26342Y82785D02*
X26492D01*
X26417Y82710D02*
Y82860D01*
X25693Y83150D02*
X25843D01*
X25768Y83075D02*
Y83225D01*
X28107Y80915D02*
X28257D01*
X28182Y80840D02*
Y80990D01*
X28980Y85433D02*
X29130D01*
X29055Y85358D02*
Y85508D01*
X28705Y81024D02*
X28855D01*
X28780Y80949D02*
Y81099D01*
X29177Y80709D02*
X29327D01*
X29252Y80634D02*
Y80784D01*
X29256Y81772D02*
X29406D01*
X29331Y81697D02*
Y81847D01*
X29256Y82283D02*
X29406D01*
X29331Y82208D02*
Y82358D01*
X29255Y85779D02*
X29405D01*
X29330Y85704D02*
Y85854D01*
X12602Y74449D02*
X12752D01*
X12677Y74374D02*
Y74524D01*
X37448Y70827D02*
X37748D01*
X37598Y70677D02*
Y70977D01*
X35112Y72987D02*
X35262D01*
X35187Y72912D02*
Y73062D01*
X35112Y72628D02*
X35262D01*
X35187Y72553D02*
Y72703D01*
X44108Y77667D02*
X44258D01*
X44183Y77592D02*
Y77742D01*
X44108Y78022D02*
X44258D01*
X44183Y77947D02*
Y78097D01*
X44108Y78376D02*
X44258D01*
X44183Y78301D02*
Y78451D01*
X43688Y78376D02*
X43838D01*
X43763Y78301D02*
Y78451D01*
X43268Y78376D02*
X43418D01*
X43343Y78301D02*
Y78451D01*
X42848Y78376D02*
X42998D01*
X42923Y78301D02*
Y78451D01*
X42848Y78022D02*
X42998D01*
X42923Y77947D02*
Y78097D01*
X42848Y77667D02*
X42998D01*
X42923Y77592D02*
Y77742D01*
X50919Y75748D02*
X51069D01*
X50994Y75673D02*
Y75823D01*
X50516Y75748D02*
X50666D01*
X50591Y75673D02*
Y75823D01*
X50112Y75748D02*
X50262D01*
X50187Y75673D02*
Y75823D01*
X51726Y75748D02*
X51876D01*
X51801Y75673D02*
Y75823D01*
X50919Y76968D02*
X51069D01*
X50994Y76894D02*
Y77043D01*
X33390Y80866D02*
X33540D01*
X33465Y80791D02*
Y80941D01*
X32287Y81348D02*
X32437D01*
X32362Y81273D02*
Y81423D01*
X50112Y76535D02*
X50262D01*
X50187Y76460D02*
Y76610D01*
X50112Y76929D02*
X50262D01*
X50187Y76854D02*
Y77004D01*
X50516Y76949D02*
X50666D01*
X50591Y76874D02*
Y77024D01*
X51323Y76949D02*
X51473D01*
X51398Y76874D02*
Y77024D01*
X51726Y76949D02*
X51876D01*
X51801Y76874D02*
Y77024D01*
X51323Y75748D02*
X51473D01*
X51398Y75673D02*
Y75823D01*
X50112Y76142D02*
X50262D01*
X50187Y76067D02*
Y76217D01*
X42474Y78789D02*
X42624D01*
X42549Y78714D02*
Y78864D01*
X41709Y90076D02*
X42009D01*
X41859Y89926D02*
Y90226D01*
X45644Y93053D02*
X45793D01*
X45718Y92978D02*
Y93128D01*
X48403Y94764D02*
X48683D01*
X48543Y94624D02*
Y94904D01*
X43941Y83622D02*
X44091D01*
X44016Y83547D02*
Y83697D01*
X42917Y83819D02*
X43067D01*
X42992Y83744D02*
Y83894D01*
X42917Y84213D02*
X43067D01*
X42992Y84138D02*
Y84288D01*
X43271Y83622D02*
X43421D01*
X43346Y83547D02*
Y83697D01*
X43271Y84409D02*
X43421D01*
X43346Y84334D02*
Y84484D01*
X43271Y84016D02*
X43421D01*
X43346Y83941D02*
Y84091D01*
X43705Y83386D02*
X43855D01*
X43780Y83311D02*
Y83461D01*
X44216Y83386D02*
X44366D01*
X44291Y83311D02*
Y83461D01*
X44925Y83622D02*
X45075D01*
X45000Y83547D02*
Y83697D01*
X44689Y83386D02*
X44839D01*
X44764Y83311D02*
Y83461D01*
X44453Y83622D02*
X44603D01*
X44528Y83547D02*
Y83697D01*
X48271Y89291D02*
X48421D01*
X48346Y89216D02*
Y89366D01*
X47799Y89291D02*
X47949D01*
X47874Y89216D02*
Y89366D01*
X47287Y89291D02*
X47437D01*
X47362Y89216D02*
Y89366D01*
X46815Y89370D02*
X46965D01*
X46890Y89295D02*
Y89445D01*
X46815Y89685D02*
X46965D01*
X46890Y89610D02*
Y89760D01*
X46815Y90000D02*
X46965D01*
X46890Y89925D02*
Y90075D01*
X46342Y84331D02*
X46492D01*
X46417Y84256D02*
Y84406D01*
X46564Y74153D02*
X46714D01*
X46638Y74078D02*
Y74228D01*
X47405Y74094D02*
X47555D01*
X47480Y74019D02*
Y74169D01*
X47642Y72953D02*
X47792D01*
X47717Y72878D02*
Y73028D01*
X47553Y72441D02*
X47703D01*
X47628Y72366D02*
Y72516D01*
X46057Y72421D02*
X46207D01*
X46132Y72346D02*
Y72496D01*
X45949Y74567D02*
X46099D01*
X46024Y74492D02*
Y74642D01*
X49256Y73622D02*
X49406D01*
X49331Y73547D02*
Y73697D01*
X48414Y75323D02*
X48563D01*
X48488Y75248D02*
Y75398D01*
X47783Y75323D02*
X47934D01*
X47859Y75248D02*
Y75398D01*
X48924Y77393D02*
X49074D01*
X48998Y77318D02*
Y77468D01*
X48503Y77253D02*
X48653D01*
X48579Y77178D02*
Y77328D01*
X47703Y77253D02*
X47853D01*
X47779Y77178D02*
Y77328D01*
X47253Y77453D02*
X47403D01*
X47329Y77378D02*
Y77528D01*
X49344Y78193D02*
X49493D01*
X49419Y78118D02*
Y78268D01*
X46974Y77713D02*
X47123D01*
X47049Y77638D02*
Y77788D01*
X52297Y79705D02*
X52447D01*
X52372Y79630D02*
Y79780D01*
X50555Y79291D02*
X50705D01*
X50630Y79216D02*
Y79366D01*
X51106Y79291D02*
X51256D01*
X51181Y79216D02*
Y79366D01*
X50043Y78740D02*
X50193D01*
X50118Y78665D02*
Y78815D01*
X49394Y82353D02*
X49543D01*
X49468Y82278D02*
Y82428D01*
X47894Y82863D02*
X48043D01*
X47969Y82788D02*
Y82938D01*
X49216Y80856D02*
X49366D01*
X49291Y80781D02*
Y80931D01*
X47858Y80827D02*
X48008D01*
X47933Y80752D02*
Y80902D01*
X47248Y81122D02*
X47398D01*
X47323Y81047D02*
Y81197D01*
X40419Y94883D02*
X40568D01*
X40493Y94808D02*
Y94958D01*
X42998Y90553D02*
X43198D01*
X43099Y90453D02*
Y90653D01*
X38533Y94883D02*
X38684D01*
X38609Y94808D02*
Y94958D01*
X42304Y94883D02*
X42453D01*
X42379Y94808D02*
Y94958D01*
X44188Y94883D02*
X44338D01*
X44264Y94808D02*
Y94958D01*
X46073Y94883D02*
X46224D01*
X46149Y94808D02*
Y94958D01*
X46894Y88858D02*
X47043D01*
X46968Y88783D02*
Y88933D01*
X46444Y90473D02*
X46593D01*
X46519Y90398D02*
Y90548D01*
X38324Y92073D02*
X38473D01*
X38398Y91998D02*
Y92148D01*
X38324Y90613D02*
X38473D01*
X38398Y90538D02*
Y90688D01*
X46444Y92068D02*
X46593D01*
X46519Y91993D02*
Y92143D01*
X39098Y88858D02*
X39248D01*
X39173Y88783D02*
Y88933D01*
X38324Y93533D02*
X38473D01*
X38398Y93458D02*
Y93608D01*
X45273Y94233D02*
X45423D01*
X45349Y94158D02*
Y94308D01*
X44689Y94245D02*
X44839D01*
X44764Y94170D02*
Y94320D01*
X46444Y93663D02*
X46593D01*
X46519Y93588D02*
Y93738D01*
X17543Y73110D02*
X17693D01*
X17618Y73035D02*
Y73185D01*
X13103Y73033D02*
X13254D01*
X13178Y72958D02*
Y73108D01*
X16460Y73110D02*
X16610D01*
X16535Y73035D02*
Y73185D01*
X21972Y73110D02*
X22122D01*
X22047Y73035D02*
Y73185D01*
X20988Y73110D02*
X21138D01*
X21063Y73035D02*
Y73185D01*
X30831Y73504D02*
X30981D01*
X30906Y73429D02*
Y73579D01*
X34743Y72353D02*
X34894D01*
X34818Y72278D02*
Y72428D01*
X33783Y75866D02*
X33933D01*
X33858Y75791D02*
Y75941D01*
X31493Y75703D02*
X31644D01*
X31569Y75628D02*
Y75778D01*
X24925Y75866D02*
X25075D01*
X25000Y75791D02*
Y75941D01*
X22643Y75753D02*
X22794D01*
X22719Y75678D02*
Y75828D01*
X20594Y75866D02*
X20744D01*
X20669Y75791D02*
Y75941D01*
X18243Y75753D02*
X18393D01*
X18319Y75678D02*
Y75828D01*
X16067Y75866D02*
X16217D01*
X16142Y75791D02*
Y75941D01*
X13743Y75753D02*
X13894D01*
X13819Y75678D02*
Y75828D01*
X34659Y77195D02*
X34809D01*
X34734Y77120D02*
Y77270D01*
X30594Y82589D02*
X30744D01*
X30669Y82514D02*
Y82664D01*
X34049Y74941D02*
X34199D01*
X34124Y74866D02*
Y75016D01*
X34492Y73465D02*
X34642D01*
X34567Y73390D02*
Y73540D01*
X16529Y73553D02*
X16679D01*
X16604Y73478D02*
Y73628D01*
X17523Y73543D02*
X17673D01*
X17598Y73468D02*
Y73618D01*
X21933Y73543D02*
X22083D01*
X22008Y73468D02*
Y73618D01*
X20988Y73543D02*
X21138D01*
X21063Y73468D02*
Y73618D01*
X16027Y77244D02*
X16177D01*
X16102Y77169D02*
Y77319D01*
X13084Y73543D02*
X13234D01*
X13159Y73468D02*
Y73618D01*
X30555Y73858D02*
X30705D01*
X30630Y73783D02*
Y73933D01*
X35161Y74409D02*
X35311D01*
X35236Y74334D02*
Y74484D01*
X17208Y74478D02*
X17358D01*
X17283Y74403D02*
Y74553D01*
X21618Y74449D02*
X21768D01*
X21693Y74374D02*
Y74524D01*
X33271Y77165D02*
X33421D01*
X33346Y77090D02*
Y77240D01*
X33980Y76850D02*
X34130D01*
X34055Y76775D02*
Y76925D01*
X33114Y72362D02*
X33264D01*
X33189Y72287D02*
Y72437D01*
X32012Y72362D02*
X32162D01*
X32087Y72287D02*
Y72437D01*
X33468Y72362D02*
X33618D01*
X33543Y72287D02*
Y72437D01*
X31657Y72362D02*
X31807D01*
X31732Y72287D02*
Y72437D01*
X20624Y75010D02*
X20774D01*
X20699Y74935D02*
Y75085D01*
X20004Y87126D02*
X20154D01*
X20079Y87051D02*
Y87201D01*
X22651Y86191D02*
X22801D01*
X22726Y86116D02*
Y86266D01*
X22346Y85030D02*
X22496D01*
X22421Y84955D02*
Y85105D01*
X17612Y83268D02*
X17762D01*
X17687Y83193D02*
Y83343D01*
X17848Y84163D02*
X17998D01*
X17923Y84088D02*
Y84238D01*
X19147Y80030D02*
X19297D01*
X19222Y79955D02*
Y80105D01*
X18498Y83484D02*
X18648D01*
X18573Y83409D02*
Y83559D01*
X17445Y80532D02*
X17595D01*
X17520Y80456D02*
Y80606D01*
X27082Y89549D02*
X27232D01*
X27157Y89474D02*
Y89624D01*
X26382Y84567D02*
X26532D01*
X26457Y84492D02*
Y84642D01*
X26009Y84952D02*
X26159D01*
X26084Y84877D02*
Y85027D01*
X30407Y81909D02*
X30557D01*
X30482Y81834D02*
Y81984D01*
X34138Y86752D02*
X34288D01*
X34213Y86677D02*
Y86827D01*
X25260Y86191D02*
X25410D01*
X25335Y86116D02*
Y86266D01*
X26598Y79341D02*
X26748D01*
X26673Y79266D02*
Y79416D01*
X25477Y79027D02*
X25627D01*
X25552Y78952D02*
Y79102D01*
X29334Y78917D02*
X29484D01*
X29409Y78842D02*
Y78992D01*
X29966Y78533D02*
X30116D01*
X30041Y78458D02*
Y78608D01*
X30142Y82461D02*
X30292D01*
X30217Y82386D02*
Y82536D01*
X25358Y77926D02*
X25508D01*
X25433Y77851D02*
Y78001D01*
X33134Y85640D02*
X33284D01*
X33209Y85565D02*
Y85715D01*
X24157Y85226D02*
X24307D01*
X24232Y85151D02*
Y85301D01*
X20397Y90394D02*
X20547D01*
X20472Y90319D02*
Y90469D01*
X29069Y76703D02*
X29219D01*
X29144Y76628D02*
Y76778D01*
X20269Y87402D02*
X20419D01*
X20344Y87327D02*
Y87477D01*
X28508Y74055D02*
X28658D01*
X28583Y73980D02*
Y74130D01*
X26775Y75984D02*
X26925D01*
X26850Y75909D02*
Y76059D01*
X26795Y76506D02*
X26945D01*
X26870Y76431D02*
Y76581D01*
X28586Y74724D02*
X28736D01*
X28661Y74649D02*
Y74799D01*
X30171Y75384D02*
X30321D01*
X30246Y75309D02*
Y75459D01*
X28508Y75984D02*
X28658D01*
X28583Y75909D02*
Y76059D01*
X19916Y77137D02*
X20066D01*
X19991Y77062D02*
Y77212D01*
X13393Y77703D02*
X13543D01*
X13469Y77628D02*
Y77778D01*
X20988Y77126D02*
X21138D01*
X21063Y77051D02*
Y77201D01*
X20437Y77126D02*
X20587D01*
X20512Y77051D02*
Y77201D01*
X15378Y72411D02*
X15528D01*
X15453Y72336D02*
Y72486D01*
X14226Y72402D02*
X14376D01*
X14301Y72327D02*
Y72477D01*
X16744Y77183D02*
X16894D01*
X16818Y77108D02*
Y77258D01*
X13901Y72402D02*
X14051D01*
X13976Y72327D02*
Y72477D01*
X22720Y72362D02*
X22870D01*
X22795Y72287D02*
Y72437D01*
X16167Y75008D02*
X16317D01*
X16242Y74933D02*
Y75083D01*
X25870Y74016D02*
X26020D01*
X25945Y73941D02*
Y74091D01*
X12720Y74685D02*
X12870D01*
X12795Y74610D02*
Y74760D01*
X21342Y74449D02*
X21492D01*
X21417Y74374D02*
Y74524D01*
X23647Y82167D02*
X23797D01*
X23722Y82092D02*
Y82242D01*
X23508Y84882D02*
X23658D01*
X23583Y84807D02*
Y84957D01*
X33232Y82992D02*
X33382D01*
X33307Y82917D02*
Y83067D01*
X21018Y83712D02*
X21168D01*
X21093Y83637D02*
Y83787D01*
X21371Y86424D02*
X21521D01*
X21446Y86349D02*
Y86499D01*
X26785Y75472D02*
X26935D01*
X26860Y75397D02*
Y75547D01*
X19935Y80364D02*
X20085D01*
X20010Y80289D02*
Y80439D01*
X19935Y79980D02*
X20085D01*
X20010Y79905D02*
Y80055D01*
X16775Y88543D02*
X16925D01*
X16850Y88468D02*
Y88618D01*
X17701Y86102D02*
X17851D01*
X17776Y86027D02*
Y86177D01*
X21018Y85157D02*
X21168D01*
X21093Y85082D02*
Y85232D01*
X34295Y86142D02*
X34445D01*
X34370Y86067D02*
Y86217D01*
X32917Y86102D02*
X33067D01*
X32992Y86027D02*
Y86177D01*
X32838Y83740D02*
X32988D01*
X32913Y83665D02*
Y83815D01*
X32681Y85551D02*
X32831D01*
X32756Y85476D02*
Y85626D01*
X27533Y75404D02*
X27683D01*
X27608Y75329D02*
Y75479D01*
X28705Y75472D02*
X28855D01*
X28780Y75397D02*
Y75547D01*
X27533Y76496D02*
X27683D01*
X27608Y76421D02*
Y76571D01*
X25043Y75010D02*
X25193D01*
X25118Y74935D02*
Y75085D01*
X16903Y74468D02*
X17053D01*
X16978Y74394D02*
Y74543D01*
X22258Y75010D02*
X22408D01*
X22333Y74935D02*
Y75085D01*
X17691Y81093D02*
X17841D01*
X17766Y81018D02*
Y81168D01*
X14593Y77153D02*
X14743D01*
X14669Y77078D02*
Y77228D01*
X15397Y77195D02*
X15547D01*
X15472Y77120D02*
Y77270D01*
X32838Y82874D02*
X32988D01*
X32913Y82799D02*
Y82949D01*
X24334Y85630D02*
X24484D01*
X24409Y85555D02*
Y85705D01*
X25092Y77136D02*
X25242D01*
X25167Y77061D02*
Y77211D01*
X23705Y80433D02*
X23855D01*
X23780Y80358D02*
Y80508D01*
X22523Y82864D02*
X22673D01*
X22598Y82789D02*
Y82939D01*
X23783Y85197D02*
X23933D01*
X23858Y85122D02*
Y85272D01*
X22725Y82515D02*
X22875D01*
X22800Y82440D02*
Y82590D01*
X22208Y83032D02*
X22358D01*
X22283Y82956D02*
Y83106D01*
X22145Y84191D02*
X22295D01*
X22220Y84116D02*
Y84266D01*
X22835Y84882D02*
X22985D01*
X22910Y84807D02*
Y84957D01*
X23393Y80763D02*
X23544D01*
X23468Y80688D02*
Y80838D01*
X23688Y80056D02*
X23838D01*
X23763Y79981D02*
Y80131D01*
X15838Y77953D02*
X15988D01*
X15913Y77878D02*
Y78028D01*
X27573Y79026D02*
X27723D01*
X27648Y78951D02*
Y79101D01*
X28262Y79341D02*
X28412D01*
X28337Y79266D02*
Y79416D01*
X28547Y77835D02*
X28697D01*
X28622Y77760D02*
Y77910D01*
X19413Y78393D02*
X19563D01*
X19489Y78318D02*
Y78468D01*
X19424Y77593D02*
X19574D01*
X19498Y77518D02*
Y77668D01*
X16382Y77953D02*
X16532D01*
X16457Y77878D02*
Y78028D01*
X25063Y79045D02*
X25213D01*
X25138Y78970D02*
Y79120D01*
X28696Y76467D02*
X28846D01*
X28771Y76392D02*
Y76542D01*
X28547Y77441D02*
X28697D01*
X28622Y77366D02*
Y77516D01*
X25476Y77126D02*
X25626D01*
X25551Y77051D02*
Y77201D01*
X26796Y77540D02*
X26946D01*
X26871Y77465D02*
Y77615D01*
X23902Y79223D02*
X24052D01*
X23977Y79148D02*
Y79298D01*
X24474Y77123D02*
X24623D01*
X24548Y77048D02*
Y77198D01*
X24813Y77873D02*
X24964D01*
X24889Y77798D02*
Y77948D01*
X32682Y86967D02*
X32832D01*
X32757Y86892D02*
Y87042D01*
X29768Y74331D02*
X29918D01*
X29843Y74256D02*
Y74406D01*
X30279Y73858D02*
X30429D01*
X30354Y73783D02*
Y73933D01*
X13222Y75008D02*
X13372D01*
X13297Y74933D02*
Y75083D01*
X23344Y77153D02*
X23493D01*
X23419Y77078D02*
Y77228D01*
X32838Y84646D02*
X32988D01*
X32913Y84571D02*
Y84721D01*
X32681Y85059D02*
X32831D01*
X32756Y84984D02*
Y85134D01*
X29011Y87669D02*
X29161D01*
X29086Y87594D02*
Y87744D01*
X23605Y81763D02*
X23755D01*
X23680Y81688D02*
Y81838D01*
X25939Y81782D02*
X26089D01*
X26014Y81706D02*
Y81856D01*
X23665Y82559D02*
X23815D01*
X23740Y82484D02*
Y82634D01*
X26647Y83287D02*
X26797D01*
X26722Y83212D02*
Y83362D01*
X24340Y83661D02*
X24490D01*
X24415Y83586D02*
Y83736D01*
X24208Y81615D02*
X24358D01*
X24283Y81540D02*
Y81690D01*
X24494Y79833D02*
X24643D01*
X24569Y79758D02*
Y79908D01*
X26057Y81073D02*
X26207D01*
X26132Y80998D02*
Y81148D01*
X24208Y82639D02*
X24358D01*
X24283Y82564D02*
Y82714D01*
X26382Y81486D02*
X26532D01*
X26457Y81411D02*
Y81561D01*
X25476Y85315D02*
X25626D01*
X25551Y85240D02*
Y85390D01*
X25437Y84606D02*
X25587D01*
X25512Y84531D02*
Y84681D01*
X25949Y84291D02*
X26099D01*
X26024Y84216D02*
Y84366D01*
X26490Y80807D02*
X26640D01*
X26565Y80732D02*
Y80882D01*
X27603Y80523D02*
X27753D01*
X27678Y80448D02*
Y80598D01*
X26638Y84075D02*
X26788D01*
X26713Y84000D02*
Y84150D01*
X28145Y85474D02*
X28295D01*
X28220Y85399D02*
Y85549D01*
X25846Y85313D02*
X25996D01*
X25921Y85238D02*
Y85388D01*
X27582Y81024D02*
X27732D01*
X27657Y80949D02*
Y81099D01*
X26313Y83661D02*
X26463D01*
X26388Y83586D02*
Y83736D01*
X35831Y87283D02*
X35981D01*
X35906Y87208D02*
Y87358D01*
X50230Y84203D02*
X50380D01*
X50305Y84128D02*
Y84278D01*
X50804Y84203D02*
X50954D01*
X50879Y84128D02*
Y84278D01*
X51972Y85630D02*
X52122D01*
X52047Y85555D02*
Y85705D01*
X51953Y84203D02*
X52103D01*
X52028Y84128D02*
Y84278D01*
X50949Y85630D02*
X51099D01*
X51024Y85555D02*
Y85705D01*
X50437Y85630D02*
X50587D01*
X50512Y85555D02*
Y85705D01*
X51460Y85630D02*
X51610D01*
X51535Y85555D02*
Y85705D01*
X51378Y84203D02*
X51528D01*
X51453Y84128D02*
Y84278D01*
X15470Y87382D02*
X15750D01*
X15610Y87242D02*
Y87522D01*
X14094Y76703D02*
X14244D01*
X14168Y76628D02*
Y76778D01*
X13493Y76353D02*
X13643D01*
X13569Y76278D02*
Y76428D01*
X13493Y76903D02*
X13643D01*
X13569Y76828D02*
Y76978D01*
X12994Y76903D02*
X13144D01*
X13068Y76828D02*
Y76978D01*
X12994Y76353D02*
X13144D01*
X13068Y76278D02*
Y76428D01*
X18944Y77203D02*
X19094D01*
X19018Y77128D02*
Y77278D01*
X18593Y76703D02*
X18743D01*
X18669Y76628D02*
Y76778D01*
X22994Y76703D02*
X23143D01*
X23068Y76628D02*
Y76778D01*
X17694Y76403D02*
X17844D01*
X17768Y76328D02*
Y76478D01*
X18243Y76403D02*
X18393D01*
X18319Y76328D02*
Y76478D01*
X18243Y77103D02*
X18393D01*
X18319Y77028D02*
Y77178D01*
X17694Y77103D02*
X17844D01*
X17768Y77028D02*
Y77178D01*
X22194Y76353D02*
X22343D01*
X22269Y76278D02*
Y76428D01*
X22743Y76353D02*
X22894D01*
X22819Y76278D02*
Y76428D01*
X22194Y77103D02*
X22343D01*
X22269Y77028D02*
Y77178D01*
X22743Y77103D02*
X22894D01*
X22819Y77028D02*
Y77178D01*
X32294Y77203D02*
X32443D01*
X32369Y77128D02*
Y77278D01*
X31793Y76753D02*
X31944D01*
X31869Y76678D02*
Y76828D01*
X30844Y77103D02*
X30993D01*
X30919Y77028D02*
Y77178D01*
X31493Y77103D02*
X31644D01*
X31569Y77028D02*
Y77178D01*
X31493Y76253D02*
X31644D01*
X31569Y76178D02*
Y76328D01*
X30844Y76253D02*
X30993D01*
X30919Y76178D02*
Y76328D01*
X35394Y76503D02*
X35543D01*
X35468Y76428D02*
Y76578D01*
X35694Y77153D02*
X35844D01*
X35768Y77078D02*
Y77228D01*
X35394Y75103D02*
X35543D01*
X35468Y75028D02*
Y75178D01*
X35993Y74453D02*
X36144D01*
X36068Y74378D02*
Y74528D01*
X35993Y76453D02*
X36144D01*
X36068Y76378D02*
Y76528D01*
X33544Y79753D02*
X33693D01*
X33619Y79678D02*
Y79828D01*
X33893Y82353D02*
X34044D01*
X33969Y82278D02*
Y82428D01*
X33593Y84703D02*
X33744D01*
X33668Y84628D02*
Y84778D01*
X32524Y78323D02*
X32673D01*
X32599Y78248D02*
Y78398D01*
X31393Y77953D02*
X31544D01*
X31469Y77878D02*
Y78028D01*
X30676Y77636D02*
X30826D01*
X30751Y77561D02*
Y77711D01*
X29393Y77953D02*
X29543D01*
X29469Y77878D02*
Y78028D01*
X26244Y77103D02*
X26393D01*
X26319Y77028D02*
Y77178D01*
X23444Y77953D02*
X23593D01*
X23519Y77878D02*
Y78028D01*
X22643Y77703D02*
X22794D01*
X22719Y77628D02*
Y77778D01*
X21293Y78203D02*
X21444D01*
X21369Y78128D02*
Y78278D01*
X20294Y77953D02*
X20443D01*
X20368Y77878D02*
Y78028D01*
X15194Y78253D02*
X15344D01*
X15268Y78178D02*
Y78328D01*
X12493Y77953D02*
X12644D01*
X12569Y77878D02*
Y78028D01*
X19472Y83415D02*
X19622D01*
X19547Y83340D02*
Y83490D01*
X19925Y81693D02*
X20075D01*
X20000Y81618D02*
Y81768D01*
X19915Y82087D02*
X20065D01*
X19990Y82012D02*
Y82162D01*
X20294Y81253D02*
X20443D01*
X20368Y81178D02*
Y81328D01*
X23293Y81423D02*
X23444D01*
X23368Y81348D02*
Y81498D01*
X20203Y82543D02*
X20354D01*
X20278Y82468D02*
Y82618D01*
X19864Y83423D02*
X20013D01*
X19938Y83348D02*
Y83498D01*
X20183Y83663D02*
X20333D01*
X20259Y83588D02*
Y83738D01*
X16894Y84383D02*
X17043D01*
X16968Y84308D02*
Y84458D01*
X16614Y85103D02*
X16763D01*
X16688Y85028D02*
Y85178D01*
X17204Y78353D02*
X17354D01*
X17278Y78278D02*
Y78428D01*
X21493Y77853D02*
X21644D01*
X21569Y77778D02*
Y77928D01*
X34374Y72913D02*
X34524D01*
X34449Y72838D02*
Y72988D01*
X16264Y70533D02*
X16414D01*
X16338Y70458D02*
Y70608D01*
X31463Y70433D02*
X31614D01*
X31539Y70358D02*
Y70508D01*
X15712Y72402D02*
X15862D01*
X15787Y72327D02*
Y72477D01*
X16460Y72323D02*
X16610D01*
X16535Y72248D02*
Y72398D01*
X13454Y71883D02*
X13604D01*
X13528Y71808D02*
Y71958D01*
X23035Y72362D02*
X23185D01*
X23110Y72287D02*
Y72437D01*
X22703Y70433D02*
X22854D01*
X22778Y70358D02*
Y70508D01*
X31123Y70113D02*
X31274D01*
X31198Y70038D02*
Y70188D01*
X25633Y71773D02*
X25784D01*
X25708Y71698D02*
Y71848D01*
X24216Y72323D02*
X24366D01*
X24291Y72248D02*
Y72398D01*
X24531Y72323D02*
X24681D01*
X24606Y72248D02*
Y72398D01*
X26123Y74783D02*
X26274D01*
X26198Y74708D02*
Y74858D01*
X25043Y72803D02*
X25194D01*
X25119Y72728D02*
Y72878D01*
X24973Y72323D02*
X25124D01*
X25048Y72248D02*
Y72398D01*
X18643Y70403D02*
X18793D01*
X18719Y70328D02*
Y70478D01*
X21804Y70423D02*
X21953D01*
X21878Y70348D02*
Y70498D01*
X18744Y72362D02*
X18894D01*
X18819Y72287D02*
Y72437D01*
X20122Y72323D02*
X20272D01*
X20197Y72248D02*
Y72398D01*
X21972Y72323D02*
X22122D01*
X22047Y72248D02*
Y72398D01*
X19144Y70433D02*
X19294D01*
X19218Y70358D02*
Y70508D01*
X20273Y70553D02*
X20424D01*
X20348Y70478D02*
Y70628D01*
X19807Y72323D02*
X19957D01*
X19882Y72248D02*
Y72398D01*
X17543Y72323D02*
X17693D01*
X17618Y72248D02*
Y72398D01*
X18350Y72362D02*
X18500D01*
X18425Y72287D02*
Y72437D01*
X16763Y70503D02*
X16913D01*
X16839Y70428D02*
Y70578D01*
X26644Y74513D02*
X26793D01*
X26718Y74438D02*
Y74588D01*
X25394Y73133D02*
X25543D01*
X25468Y73058D02*
Y73208D01*
X20624Y70543D02*
X20773D01*
X20698Y70468D02*
Y70618D01*
X20988Y72323D02*
X21138D01*
X21063Y72248D02*
Y72398D01*
X17404Y70523D02*
X17553D01*
X17478Y70448D02*
Y70598D01*
X31844Y70423D02*
X31994D01*
X31918Y70348D02*
Y70498D01*
X33884Y70433D02*
X34034D01*
X33958Y70358D02*
Y70508D01*
X16903Y74173D02*
X17053D01*
X16978Y74098D02*
Y74248D01*
X17208Y74173D02*
X17358D01*
X17283Y74098D02*
Y74248D01*
X43447Y91325D02*
X43597D01*
X43522Y91250D02*
Y91400D01*
X43840Y91325D02*
X43990D01*
X43915Y91250D02*
Y91400D01*
X44234Y91325D02*
X44384D01*
X44309Y91250D02*
Y91400D01*
X44234Y91719D02*
X44384D01*
X44309Y91643D02*
Y91793D01*
X44234Y92112D02*
X44384D01*
X44309Y92037D02*
Y92187D01*
X43840Y92112D02*
X43990D01*
X43915Y92037D02*
Y92187D01*
X43447Y92112D02*
X43597D01*
X43522Y92037D02*
Y92187D01*
X43447Y91719D02*
X43597D01*
X43522Y91643D02*
Y91793D01*
X43840Y91719D02*
X43990D01*
X43915Y91643D02*
Y91793D01*
X36342Y86890D02*
X36492D01*
X36417Y86815D02*
Y86965D01*
X34502Y89075D02*
X34652D01*
X34577Y89000D02*
Y89150D01*
X34502Y88612D02*
X34652D01*
X34577Y88537D02*
Y88687D01*
X29019Y87283D02*
X29169D01*
X29094Y87208D02*
Y87358D01*
X34777Y92756D02*
X34927D01*
X34852Y92681D02*
Y92831D01*
X26677Y89577D02*
X26827D01*
X26752Y89502D02*
Y89652D01*
X33783Y91458D02*
X33933D01*
X33858Y91383D02*
Y91533D01*
X34079Y91752D02*
X34229D01*
X34154Y91677D02*
Y91827D01*
X43104Y75846D02*
X43254D01*
X43179Y75771D02*
Y75921D01*
X50516Y76142D02*
X50666D01*
X50591Y76067D02*
Y76217D01*
X50516Y76535D02*
X50666D01*
X50591Y76460D02*
Y76610D01*
X51667Y79163D02*
X51817D01*
X51742Y79088D02*
Y79238D01*
X48557Y81811D02*
X48707D01*
X48632Y81736D02*
Y81886D01*
X49216Y82874D02*
X49366D01*
X49291Y82799D02*
Y82949D01*
X49994Y81811D02*
X50144D01*
X50069Y81736D02*
Y81886D01*
X47317Y80010D02*
X47467D01*
X47392Y79935D02*
Y80085D01*
X49128Y79961D02*
X49278D01*
X49203Y79886D02*
Y80036D01*
X50860Y81181D02*
X51010D01*
X50935Y81106D02*
Y81256D01*
X50919Y82549D02*
X51069D01*
X50994Y82474D02*
Y82624D01*
X49236Y83533D02*
X49386D01*
X49311Y83458D02*
Y83608D01*
X42051Y88032D02*
X42201D01*
X42126Y87956D02*
Y88106D01*
X41392Y87362D02*
X41542D01*
X41467Y87287D02*
Y87437D01*
X41421Y85236D02*
X41571D01*
X41496Y85161D02*
Y85311D01*
X42681Y84951D02*
X42831D01*
X42756Y84876D02*
Y85026D01*
X47710Y85246D02*
X47860D01*
X47785Y85171D02*
Y85321D01*
X48311Y86476D02*
X48461D01*
X48386Y86401D02*
Y86551D01*
X48311Y88032D02*
X48461D01*
X48386Y87956D02*
Y88106D01*
X43616Y88032D02*
X43766D01*
X43691Y87956D02*
Y88106D01*
X45181Y88032D02*
X45331D01*
X45256Y87956D02*
Y88106D01*
X46746Y88032D02*
X46896D01*
X46821Y87956D02*
Y88106D01*
X41392Y86240D02*
X41542D01*
X41467Y86165D02*
Y86315D01*
X18645Y83907D02*
X18795D01*
X18720Y83832D02*
Y83982D01*
X20673Y88317D02*
X20823D01*
X20748Y88242D02*
Y88392D01*
X16362Y88553D02*
X16512D01*
X16437Y88478D02*
Y88628D01*
X16569Y79803D02*
X16719D01*
X16644Y79728D02*
Y79878D01*
X12671Y79823D02*
X12821D01*
X12746Y79748D02*
Y79898D01*
X13419Y85896D02*
X13569D01*
X13494Y85821D02*
Y85971D01*
M02*
