G04*
G04 #@! TF.GenerationSoftware,Altium Limited,Altium Designer,21.0.8 (223)*
G04*
G04 Layer_Color=128*
%FSLAX25Y25*%
%MOIN*%
G70*
G04*
G04 #@! TF.SameCoordinates,9996C82E-4A36-4C5B-9496-8E533FBA6DEC*
G04*
G04*
G04 #@! TF.FilePolarity,Positive*
G04*
G01*
G75*
%ADD25C,0.00200*%
G54D25*
X146063Y234803D02*
X151102D01*
X148583Y232283D02*
Y237323D01*
X146063Y224803D02*
X151102D01*
X148583Y222284D02*
Y227323D01*
X136063Y234803D02*
X141102D01*
X138583Y232283D02*
Y237323D01*
X136063Y224803D02*
X141102D01*
X138583Y222284D02*
Y227323D01*
X126063Y234803D02*
X131102D01*
X128583Y232283D02*
Y237323D01*
X126063Y224803D02*
X131102D01*
X128583Y222284D02*
Y227323D01*
X116063Y234803D02*
X121102D01*
X118583Y232283D02*
Y237323D01*
X116063Y224803D02*
X121102D01*
X118583Y222284D02*
Y227323D01*
X106063Y234803D02*
X111102D01*
X108583Y232283D02*
Y237323D01*
X106063Y224803D02*
X111102D01*
X108583Y222284D02*
Y227323D01*
X96063Y234803D02*
X101102D01*
X98583Y232283D02*
Y237323D01*
X96063Y224803D02*
X101102D01*
X98583Y222284D02*
Y227323D01*
X86063Y234803D02*
X91102D01*
X88583Y232283D02*
Y237323D01*
X86063Y224803D02*
X91102D01*
X88583Y222284D02*
Y227323D01*
X177286Y255978D02*
X180829D01*
X179058Y254206D02*
Y257750D01*
X177286Y265978D02*
X180829D01*
X179058Y264206D02*
Y267750D01*
X187286Y255978D02*
X190829D01*
X189058Y254206D02*
Y257750D01*
X187286Y265978D02*
X190829D01*
X189058Y264206D02*
Y267750D01*
X197286Y255978D02*
X200829D01*
X199057Y254206D02*
Y257750D01*
X197286Y265978D02*
X200829D01*
X199057Y264206D02*
Y267750D01*
X207286Y255978D02*
X210829D01*
X209057Y254206D02*
Y257750D01*
X207286Y265978D02*
X210829D01*
X209057Y264206D02*
Y267750D01*
X217286Y255978D02*
X220829D01*
X219057Y254206D02*
Y257750D01*
X217286Y265978D02*
X220829D01*
X219057Y264206D02*
Y267750D01*
X260008Y95878D02*
X265508D01*
X262757Y93128D02*
Y98628D01*
X280008Y95878D02*
X285507D01*
X282757Y93128D02*
Y98628D01*
X261554Y219149D02*
X265098D01*
X263326Y217377D02*
Y220920D01*
X251554Y219149D02*
X255098D01*
X253326Y217377D02*
Y220920D01*
X261554Y229149D02*
X265098D01*
X263326Y227377D02*
Y230921D01*
X251554Y229149D02*
X255098D01*
X253326Y227377D02*
Y230921D01*
X261554Y239149D02*
X265098D01*
X263326Y237377D02*
Y240920D01*
X251554Y239149D02*
X255098D01*
X253326Y237377D02*
Y240920D01*
X261554Y249149D02*
X265098D01*
X263326Y247377D02*
Y250921D01*
X251554Y249149D02*
X255098D01*
X253326Y247377D02*
Y250921D01*
X261554Y259149D02*
X265098D01*
X263326Y257377D02*
Y260921D01*
X251554Y259149D02*
X255098D01*
X253326Y257377D02*
Y260921D01*
X314403Y14117D02*
X320703D01*
X317553Y10967D02*
Y17267D01*
X301003Y14117D02*
X307303D01*
X304153Y10967D02*
Y17267D01*
X301003Y67117D02*
X307303D01*
X304153Y63967D02*
Y70267D01*
X314403Y67117D02*
X320703D01*
X317553Y63967D02*
Y70267D01*
X53010Y198034D02*
X56810D01*
X54910Y196134D02*
Y199934D01*
X53010Y208034D02*
X56810D01*
X54910Y206134D02*
Y209934D01*
X63010Y198034D02*
X66810D01*
X64910Y196134D02*
Y199934D01*
X63010Y208034D02*
X66810D01*
X64910Y206134D02*
Y209934D01*
X73010Y198034D02*
X76810D01*
X74910Y196134D02*
Y199934D01*
X73010Y208034D02*
X76810D01*
X74910Y206134D02*
Y209934D01*
X44342Y148547D02*
X48142D01*
X46242Y146646D02*
Y150446D01*
X44342Y158468D02*
X48142D01*
X46242Y156568D02*
Y160368D01*
X36442Y158468D02*
X40242D01*
X38342Y156568D02*
Y160368D01*
X36442Y148547D02*
X40242D01*
X38342Y146646D02*
Y150446D01*
X23292Y177169D02*
X31992D01*
X27642Y172819D02*
Y181518D01*
X23292Y129847D02*
X31992D01*
X27642Y125496D02*
Y134196D01*
X8931Y229376D02*
X12931D01*
X10931Y227376D02*
Y231376D01*
X8931Y211576D02*
X12931D01*
X10931Y209576D02*
Y213576D01*
X17781Y234276D02*
X23681D01*
X20731Y231326D02*
Y237226D01*
X17781Y206676D02*
X23681D01*
X20731Y203726D02*
Y209626D01*
X386034Y12688D02*
X387533D01*
X386784Y11938D02*
Y13438D01*
X400034Y12688D02*
X401534D01*
X400783Y11938D02*
Y13438D01*
X400034Y26688D02*
X401534D01*
X400783Y25938D02*
Y27438D01*
X386034Y26688D02*
X387533D01*
X386784Y25938D02*
Y27438D01*
X383033Y19688D02*
X384534D01*
X383784Y18938D02*
Y20438D01*
X403033Y19688D02*
X404533D01*
X403784Y18938D02*
Y20438D01*
X393034Y29688D02*
X394533D01*
X393783Y28938D02*
Y30438D01*
X393034Y9688D02*
X394533D01*
X393783Y8938D02*
Y10438D01*
X387878Y19688D02*
X399689D01*
X393783Y13783D02*
Y25594D01*
X258958Y122278D02*
X262958D01*
X260958Y120278D02*
Y124278D01*
X258958Y132278D02*
X262958D01*
X260958Y130278D02*
Y134278D01*
X258958Y142278D02*
X262958D01*
X260958Y140278D02*
Y144278D01*
X89483Y259803D02*
X93483D01*
X91483Y257803D02*
Y261803D01*
X79483Y259803D02*
X83483D01*
X81483Y257803D02*
Y261803D01*
X141278Y259846D02*
X145278D01*
X143278Y257846D02*
Y261846D01*
X131278Y259846D02*
X135278D01*
X133278Y257846D02*
Y261846D01*
X121278Y259846D02*
X125278D01*
X123278Y257846D02*
Y261846D01*
X111278Y259846D02*
X115278D01*
X113278Y257846D02*
Y261846D01*
X361558Y221028D02*
X369157D01*
X365357Y217229D02*
Y224827D01*
X361558Y188528D02*
X369157D01*
X365357Y184729D02*
Y192327D01*
X361558Y156028D02*
X369157D01*
X365357Y152229D02*
Y159827D01*
X361558Y123528D02*
X369157D01*
X365357Y119729D02*
Y127327D01*
X361558Y91028D02*
X369157D01*
X365357Y87229D02*
Y94827D01*
X361558Y58528D02*
X369157D01*
X365357Y54729D02*
Y62327D01*
X217286Y228478D02*
X220829D01*
X219057Y226706D02*
Y230250D01*
X217286Y218478D02*
X220829D01*
X219057Y216706D02*
Y220250D01*
X207286Y228478D02*
X210829D01*
X209057Y226706D02*
Y230250D01*
X207286Y218478D02*
X210829D01*
X209057Y216706D02*
Y220250D01*
X197286Y228478D02*
X200829D01*
X199057Y226706D02*
Y230250D01*
X197286Y218478D02*
X200829D01*
X199057Y216706D02*
Y220250D01*
X187286Y228478D02*
X190829D01*
X189058Y226706D02*
Y230250D01*
X187286Y218478D02*
X190829D01*
X189058Y216706D02*
Y220250D01*
X177286Y228478D02*
X180829D01*
X179058Y226706D02*
Y230250D01*
X177286Y218478D02*
X180829D01*
X179058Y216706D02*
Y220250D01*
X401724Y42129D02*
X405724D01*
X403724Y40129D02*
Y44129D01*
X387878Y259846D02*
X399689D01*
X393783Y253940D02*
Y265751D01*
X393034Y249846D02*
X394533D01*
X393783Y249096D02*
Y250596D01*
X393034Y269846D02*
X394533D01*
X393783Y269096D02*
Y270596D01*
X403033Y259846D02*
X404533D01*
X403784Y259096D02*
Y260596D01*
X383033Y259846D02*
X384534D01*
X383784Y259096D02*
Y260596D01*
X386034Y266846D02*
X387533D01*
X386784Y266096D02*
Y267596D01*
X400034Y266846D02*
X401534D01*
X400783Y266096D02*
Y267596D01*
X400034Y252846D02*
X401534D01*
X400783Y252096D02*
Y253596D01*
X386034Y252846D02*
X387533D01*
X386784Y252096D02*
Y253596D01*
X13862Y259846D02*
X25673D01*
X19768Y253940D02*
Y265751D01*
X19018Y249846D02*
X20518D01*
X19768Y249096D02*
Y250596D01*
X19018Y269846D02*
X20518D01*
X19768Y269096D02*
Y270596D01*
X29018Y259846D02*
X30518D01*
X29768Y259096D02*
Y260596D01*
X9018Y259846D02*
X10518D01*
X9768Y259096D02*
Y260596D01*
X12018Y266846D02*
X13518D01*
X12768Y266096D02*
Y267596D01*
X26018Y266846D02*
X27518D01*
X26768Y266096D02*
Y267596D01*
X26018Y252846D02*
X27518D01*
X26768Y252096D02*
Y253596D01*
X12018Y252846D02*
X13518D01*
X12768Y252096D02*
Y253596D01*
X13862Y19688D02*
X25673D01*
X19768Y13783D02*
Y25594D01*
X19018Y9688D02*
X20518D01*
X19768Y8938D02*
Y10438D01*
X19018Y29688D02*
X20518D01*
X19768Y28938D02*
Y30438D01*
X29018Y19688D02*
X30518D01*
X29768Y18938D02*
Y20438D01*
X9018Y19688D02*
X10518D01*
X9768Y18938D02*
Y20438D01*
X12018Y26688D02*
X13518D01*
X12768Y25938D02*
Y27438D01*
X26018Y26688D02*
X27518D01*
X26768Y25938D02*
Y27438D01*
X26018Y12688D02*
X27518D01*
X26768Y11938D02*
Y13438D01*
X12018Y12688D02*
X13518D01*
X12768Y11938D02*
Y13438D01*
X330507Y168378D02*
X336807D01*
X333658Y165228D02*
Y171528D01*
X343907Y168378D02*
X350207D01*
X347058Y165228D02*
Y171528D01*
X343907Y115378D02*
X350207D01*
X347058Y112228D02*
Y118528D01*
X330507Y115378D02*
X336807D01*
X333658Y112228D02*
Y118528D01*
X343408Y67078D02*
X349708D01*
X346557Y63928D02*
Y70228D01*
X330008Y67078D02*
X336308D01*
X333157Y63928D02*
Y70228D01*
X330008Y14078D02*
X336308D01*
X333157Y10928D02*
Y17228D01*
X343408Y14078D02*
X349708D01*
X346557Y10928D02*
Y17228D01*
X46083Y11803D02*
X50083D01*
X48083Y9803D02*
Y13803D01*
X56083Y11803D02*
X60083D01*
X58083Y9803D02*
Y13803D01*
X66083Y11803D02*
X70083D01*
X68083Y9803D02*
Y13803D01*
X76083Y11803D02*
X80083D01*
X78083Y9803D02*
Y13803D01*
X97264Y11803D02*
X101264D01*
X99264Y9803D02*
Y13803D01*
X107264Y11803D02*
X111264D01*
X109264Y9803D02*
Y13803D01*
X117264Y11803D02*
X121264D01*
X119264Y9803D02*
Y13803D01*
X127264Y11803D02*
X131264D01*
X129264Y9803D02*
Y13803D01*
X148445Y39362D02*
X152445D01*
X150445Y37362D02*
Y41362D01*
X158445Y39362D02*
X162445D01*
X160445Y37362D02*
Y41362D01*
X168445Y39362D02*
X172445D01*
X170445Y37362D02*
Y41362D01*
X178445Y39362D02*
X182445D01*
X180445Y37362D02*
Y41362D01*
X148445Y11803D02*
X152445D01*
X150445Y9803D02*
Y13803D01*
X158445Y11803D02*
X162445D01*
X160445Y9803D02*
Y13803D01*
X168445Y11803D02*
X172445D01*
X170445Y9803D02*
Y13803D01*
X178445Y11803D02*
X182445D01*
X180445Y9803D02*
Y13803D01*
X199665Y11842D02*
X203665D01*
X201665Y9843D02*
Y13842D01*
X209665Y11842D02*
X213665D01*
X211665Y9843D02*
Y13842D01*
X219665Y11842D02*
X223665D01*
X221665Y9843D02*
Y13842D01*
X229665Y11842D02*
X233665D01*
X231665Y9843D02*
Y13842D01*
X234697Y173743D02*
X238697D01*
X236697Y171743D02*
Y175743D01*
X234697Y183743D02*
X238697D01*
X236697Y181743D02*
Y185743D01*
X234697Y142641D02*
X238697D01*
X236697Y140641D02*
Y144641D01*
X234697Y152641D02*
X238697D01*
X236697Y150641D02*
Y154641D01*
X234697Y111539D02*
X238697D01*
X236697Y109539D02*
Y113539D01*
X234697Y121539D02*
X238697D01*
X236697Y119539D02*
Y123539D01*
X57383Y235703D02*
X61383D01*
X59383Y233703D02*
Y237703D01*
X47383Y235703D02*
X51383D01*
X49383Y233703D02*
Y237703D01*
X47383Y259803D02*
X51383D01*
X49383Y257803D02*
Y261803D01*
X57383Y259803D02*
X61383D01*
X59383Y257803D02*
Y261803D01*
X361157Y254178D02*
X365158D01*
X363158Y252178D02*
Y256178D01*
X361157Y264178D02*
X365158D01*
X363158Y262178D02*
Y266178D01*
X259057Y183678D02*
X263057D01*
X261057Y181678D02*
Y185678D01*
X259057Y173678D02*
X263057D01*
X261057Y171678D02*
Y175678D01*
X259057Y163678D02*
X263057D01*
X261057Y161678D02*
Y165678D01*
X312908Y238372D02*
X313908D01*
X313408Y237872D02*
Y238872D01*
X309312Y238372D02*
X310312D01*
X309811Y237872D02*
Y238872D01*
X316504Y238372D02*
X317504D01*
X317004Y237872D02*
Y238872D01*
X320138Y238372D02*
X321138D01*
X320638Y237872D02*
Y238872D01*
X312271Y218815D02*
X313271D01*
X312771Y218315D02*
Y219315D01*
X308675Y218815D02*
X309675D01*
X309175Y218315D02*
Y219315D01*
X315867Y218815D02*
X316867D01*
X316367Y218315D02*
Y219315D01*
X319501Y218815D02*
X320501D01*
X320001Y218315D02*
Y219315D01*
X294716Y222600D02*
X295716D01*
X295216Y222100D02*
Y223100D01*
X283247Y250684D02*
X284247D01*
X283747Y250184D02*
Y251184D01*
X283247Y243492D02*
X284247D01*
X283747Y242992D02*
Y243992D01*
X283247Y247088D02*
X284247D01*
X283747Y246588D02*
Y247588D01*
X283247Y239896D02*
X284247D01*
X283747Y239395D02*
Y240395D01*
X283247Y234537D02*
X284247D01*
X283747Y234037D02*
Y235037D01*
X313158Y277100D02*
X314158D01*
X313657Y276600D02*
Y277600D01*
X339673Y254095D02*
X340673D01*
X340173Y253594D02*
Y254594D01*
X332481Y254095D02*
X333481D01*
X332981Y253594D02*
Y254594D01*
X328885Y254095D02*
X329885D01*
X329385Y253594D02*
Y254594D01*
X325289Y254095D02*
X326289D01*
X325788Y253594D02*
Y254594D01*
X321692Y254095D02*
X322692D01*
X322192Y253594D02*
Y254594D01*
X318096Y254095D02*
X319096D01*
X318596Y253594D02*
Y254594D01*
X314500Y247400D02*
X315500D01*
X315000Y246900D02*
Y247900D01*
X318096Y247400D02*
X319096D01*
X318596Y246900D02*
Y247900D01*
X321692Y247400D02*
X322692D01*
X322192Y246900D02*
Y247900D01*
X325289Y247400D02*
X326289D01*
X325788Y246900D02*
Y247900D01*
X328885Y247400D02*
X329885D01*
X329385Y246900D02*
Y247900D01*
X343269Y247400D02*
X344269D01*
X343769Y246900D02*
Y247900D01*
X332481Y247400D02*
X333481D01*
X332981Y246900D02*
Y247900D01*
X339673Y247400D02*
X340673D01*
X340173Y246900D02*
Y247900D01*
X346865Y247400D02*
X347865D01*
X347365Y246900D02*
Y247900D01*
X314500Y241500D02*
X315500D01*
X315000Y241000D02*
Y242000D01*
X318096Y241500D02*
X319096D01*
X318596Y241000D02*
Y242000D01*
X321692Y241500D02*
X322692D01*
X322192Y241000D02*
Y242000D01*
X325289Y241500D02*
X326289D01*
X325788Y241000D02*
Y242000D01*
X328885Y241500D02*
X329885D01*
X329385Y241000D02*
Y242000D01*
X343269Y241500D02*
X344269D01*
X343769Y241000D02*
Y242000D01*
X332481Y241500D02*
X333481D01*
X332981Y241000D02*
Y242000D01*
X339673Y241500D02*
X340673D01*
X340173Y241000D02*
Y242000D01*
X346865Y241500D02*
X347865D01*
X347365Y241000D02*
Y242000D01*
X309502Y232809D02*
X310502D01*
X310002Y232309D02*
Y233309D01*
X313832Y232809D02*
X314832D01*
X314332Y232309D02*
Y233309D01*
X318163Y232809D02*
X319163D01*
X318663Y232309D02*
Y233309D01*
X309502Y228478D02*
X310502D01*
X310002Y227978D02*
Y228978D01*
X313832Y228478D02*
X314832D01*
X314332Y227978D02*
Y228978D01*
X318163Y228478D02*
X319163D01*
X318663Y227978D02*
Y228978D01*
X309502Y224147D02*
X310502D01*
X310002Y223647D02*
Y224647D01*
X313832Y224147D02*
X314832D01*
X314332Y223647D02*
Y224647D01*
X318163Y224147D02*
X319163D01*
X318663Y223647D02*
Y224647D01*
X337100Y221524D02*
X338100D01*
X337600Y221024D02*
Y222024D01*
X334000Y257915D02*
X335000D01*
X334500Y257415D02*
Y258415D01*
X289500Y263600D02*
X290500D01*
X290000Y263100D02*
Y264100D01*
X208791Y243701D02*
X209791D01*
X209291Y243201D02*
Y244201D01*
X187059Y241693D02*
X188059D01*
X187559Y241193D02*
Y242193D01*
X218283Y237003D02*
X219283D01*
X218783Y236503D02*
Y237503D01*
X223783Y264603D02*
X224783D01*
X224283Y264103D02*
Y265103D01*
X278083Y224147D02*
X279083D01*
X278583Y223647D02*
Y224647D01*
X281081Y224238D02*
X282081D01*
X281581Y223738D02*
Y224738D01*
X292541Y215387D02*
X293541D01*
X293041Y214887D02*
Y215887D01*
X277064Y234060D02*
X278064D01*
X277564Y233560D02*
Y234560D01*
X262826Y205779D02*
X263826D01*
X263326Y205279D02*
Y206279D01*
X258400Y205800D02*
X259400D01*
X258900Y205300D02*
Y206300D01*
X283247Y230234D02*
X284247D01*
X283747Y229734D02*
Y230734D01*
X306021Y215610D02*
X307521D01*
X306771Y214860D02*
Y216360D01*
X276958Y270725D02*
X277958D01*
X277458Y270225D02*
Y271225D01*
X309523Y277100D02*
X310523D01*
X310023Y276600D02*
Y277600D01*
X302331Y277100D02*
X303331D01*
X302831Y276600D02*
Y277600D01*
X295139Y277100D02*
X296139D01*
X295639Y276600D02*
Y277600D01*
X305927Y277100D02*
X306927D01*
X306427Y276600D02*
Y277600D01*
X298735Y277100D02*
X299735D01*
X299235Y276600D02*
Y277600D01*
X291542Y277100D02*
X292542D01*
X292042Y276600D02*
Y277600D01*
X287946Y277100D02*
X288946D01*
X288446Y276600D02*
Y277600D01*
X284350Y277100D02*
X285350D01*
X284850Y276600D02*
Y277600D01*
X280754Y277100D02*
X281754D01*
X281254Y276600D02*
Y277600D01*
X277158Y277100D02*
X278158D01*
X277658Y276600D02*
Y277600D01*
X329440Y257915D02*
X330440D01*
X329940Y257415D02*
Y258415D01*
X338600Y257915D02*
X339600D01*
X339100Y257415D02*
Y258415D01*
X325337Y257915D02*
X326337D01*
X325836Y257415D02*
Y258415D01*
X315608Y215610D02*
X317108D01*
X316357Y214860D02*
Y216360D01*
X341627Y220503D02*
X343127D01*
X342377Y219753D02*
Y221253D01*
X336303Y215478D02*
X337803D01*
X337053Y214728D02*
Y216228D01*
X345797Y207279D02*
X347297D01*
X346547Y206529D02*
Y208029D01*
X345050Y232300D02*
X346550D01*
X345800Y231550D02*
Y233050D01*
X347279Y230100D02*
X348779D01*
X348029Y229350D02*
Y230850D01*
X340400Y267600D02*
X341400D01*
X340900Y267100D02*
Y268100D01*
X296049Y200507D02*
X297049D01*
X296549Y200007D02*
Y201007D01*
X286320Y200441D02*
X287320D01*
X286820Y199941D02*
Y200940D01*
X287235Y204687D02*
X288235D01*
X287735Y204187D02*
Y205187D01*
X204639Y184076D02*
X205639D01*
X205139Y183576D02*
Y184576D01*
X207757Y183743D02*
X208757D01*
X208258Y183243D02*
Y184243D01*
X203557Y188268D02*
X204557D01*
X204058Y187768D02*
Y188768D01*
X201496Y191160D02*
X202496D01*
X201996Y190660D02*
Y191660D01*
X194931Y184937D02*
X196431D01*
X195680Y184187D02*
Y185687D01*
X186036Y188347D02*
X187036D01*
X186536Y187847D02*
Y188847D01*
X210691Y180647D02*
X211691D01*
X211191Y180147D02*
Y181147D01*
X207453Y189362D02*
X208453D01*
X207953Y188862D02*
Y189862D01*
X210561Y186095D02*
X211561D01*
X211061Y185595D02*
Y186595D01*
X213116Y187207D02*
X214116D01*
X213616Y186707D02*
Y187707D01*
X215090Y185378D02*
X216090D01*
X215591Y184878D02*
Y185878D01*
X208271Y171965D02*
X209771D01*
X209021Y171215D02*
Y172715D01*
X215057Y190888D02*
X216057D01*
X215558Y190388D02*
Y191388D01*
X207757Y186095D02*
X208757D01*
X208258Y185595D02*
Y186595D01*
X225108Y182278D02*
X226607D01*
X225857Y181528D02*
Y183028D01*
X207554Y194811D02*
X208554D01*
X208054Y194311D02*
Y195311D01*
X206314Y179724D02*
X207814D01*
X207064Y178974D02*
Y180474D01*
X196118Y199928D02*
X197118D01*
X196618Y199428D02*
Y200428D01*
X190518Y196175D02*
X191518D01*
X191018Y195675D02*
Y196675D01*
X183325Y195065D02*
X184325D01*
X183825Y194565D02*
Y195565D01*
X184490Y199985D02*
X185490D01*
X184990Y199485D02*
Y200485D01*
X190091Y199985D02*
X191091D01*
X190591Y199485D02*
Y200485D01*
X202138Y202785D02*
X203138D01*
X202638Y202285D02*
Y203285D01*
X209131Y202591D02*
X210131D01*
X209630Y202091D02*
Y203091D01*
X217808Y166299D02*
X219307D01*
X218558Y165549D02*
Y167049D01*
X179785Y194685D02*
X180785D01*
X180285Y194185D02*
Y195185D01*
X179558Y199985D02*
X180558D01*
X180058Y199485D02*
Y200485D01*
X224972Y191535D02*
X225972D01*
X225472Y191035D02*
Y192035D01*
X8203Y48007D02*
X9203D01*
X8703Y47507D02*
Y48507D01*
X9358Y45278D02*
X10357D01*
X9858Y44778D02*
Y45778D01*
X7156Y53725D02*
X8156D01*
X7656Y53225D02*
Y54225D01*
X12268Y57993D02*
X13268D01*
X12768Y57493D02*
Y58493D01*
X317771Y182853D02*
X318771D01*
X318271Y182353D02*
Y183353D01*
X321771Y182853D02*
X322771D01*
X322271Y182353D02*
Y183353D01*
X321771Y186853D02*
X322771D01*
X322271Y186353D02*
Y187353D01*
X317771Y186853D02*
X318771D01*
X318271Y186353D02*
Y187353D01*
X317771Y190853D02*
X318771D01*
X318271Y190353D02*
Y191353D01*
X321771Y190853D02*
X322771D01*
X322271Y190353D02*
Y191353D01*
X321771Y194853D02*
X322771D01*
X322271Y194353D02*
Y195353D01*
X317771Y194853D02*
X318771D01*
X318271Y194353D02*
Y195353D01*
X309771Y194853D02*
X310771D01*
X310271Y194353D02*
Y195353D01*
X305771Y194853D02*
X306771D01*
X306271Y194353D02*
Y195353D01*
X305771Y190853D02*
X306771D01*
X306271Y190353D02*
Y191353D01*
X309771Y190853D02*
X310771D01*
X310271Y190353D02*
Y191353D01*
X309771Y186853D02*
X310771D01*
X310271Y186353D02*
Y187353D01*
X305771Y186853D02*
X306771D01*
X306271Y186353D02*
Y187353D01*
X305771Y182853D02*
X306771D01*
X306271Y182353D02*
Y183353D01*
X309771Y182853D02*
X310771D01*
X310271Y182353D02*
Y183353D01*
X313771Y182853D02*
X314771D01*
X314271Y182353D02*
Y183353D01*
X313771Y186853D02*
X314771D01*
X314271Y186353D02*
Y187353D01*
X313771Y194853D02*
X314771D01*
X314271Y194353D02*
Y195353D01*
X313771Y190853D02*
X314771D01*
X314271Y190353D02*
Y191353D01*
X281241Y54746D02*
X282241D01*
X281740Y54246D02*
Y55246D01*
X281241Y58746D02*
X282241D01*
X281740Y58246D02*
Y59246D01*
X277240Y58746D02*
X278240D01*
X277741Y58246D02*
Y59246D01*
X277240Y54746D02*
X278240D01*
X277741Y54246D02*
Y55246D01*
X273240Y54746D02*
X274240D01*
X273741Y54246D02*
Y55246D01*
X273240Y58746D02*
X274240D01*
X273741Y58246D02*
Y59246D01*
X269240Y58746D02*
X270240D01*
X269741Y58246D02*
Y59246D01*
X269240Y54746D02*
X270240D01*
X269741Y54246D02*
Y55246D01*
X269240Y46746D02*
X270240D01*
X269741Y46246D02*
Y47246D01*
X269240Y42746D02*
X270240D01*
X269741Y42246D02*
Y43246D01*
X273240Y42746D02*
X274240D01*
X273741Y42246D02*
Y43246D01*
X273240Y46746D02*
X274240D01*
X273741Y46246D02*
Y47246D01*
X277240Y46746D02*
X278240D01*
X277741Y46246D02*
Y47246D01*
X277240Y42746D02*
X278240D01*
X277741Y42246D02*
Y43246D01*
X281241Y42746D02*
X282241D01*
X281740Y42246D02*
Y43246D01*
X281241Y46746D02*
X282241D01*
X281740Y46246D02*
Y47246D01*
X281241Y50746D02*
X282241D01*
X281740Y50246D02*
Y51246D01*
X277240Y50746D02*
X278240D01*
X277741Y50246D02*
Y51246D01*
X269240Y50746D02*
X270240D01*
X269741Y50246D02*
Y51246D01*
X273240Y50746D02*
X274240D01*
X273741Y50246D02*
Y51246D01*
X172084Y192559D02*
X173584D01*
X172835Y191809D02*
Y193309D01*
X246573Y57795D02*
X248073D01*
X247323Y57045D02*
Y58545D01*
X255707Y58071D02*
X257207D01*
X256457Y57321D02*
Y58821D01*
X246494Y51913D02*
X247994D01*
X247244Y51163D02*
Y52663D01*
X255825Y52165D02*
X257325D01*
X256575Y51415D02*
Y52915D01*
X351858Y102654D02*
X353358D01*
X352608Y101904D02*
Y103404D01*
X201823Y42835D02*
X202823D01*
X202323Y42335D02*
Y43335D01*
X201883Y36803D02*
X202883D01*
X202383Y36303D02*
Y37303D01*
X76183Y31003D02*
X77183D01*
X76683Y30503D02*
Y31503D01*
X284776Y147402D02*
X285776D01*
X285276Y146902D02*
Y147902D01*
X280083Y151803D02*
X281083D01*
X280583Y151303D02*
Y152303D01*
X300583Y140503D02*
X301583D01*
X301083Y140003D02*
Y141003D01*
X278083Y151903D02*
X279083D01*
X278583Y151403D02*
Y152403D01*
X287133Y144203D02*
X288633D01*
X287883Y143453D02*
Y144953D01*
X290307Y133978D02*
X291808D01*
X291057Y133228D02*
Y134728D01*
X137059Y166457D02*
X138059D01*
X137559Y165957D02*
Y166957D01*
X119250Y124409D02*
X120750D01*
X120000Y123659D02*
Y125159D01*
X125091Y125433D02*
X126091D01*
X125591Y124933D02*
Y125933D01*
X118807Y142730D02*
X120308D01*
X119557Y141980D02*
Y143480D01*
X128201Y150512D02*
X129201D01*
X128701Y150012D02*
Y151012D01*
X126941Y193583D02*
X127941D01*
X127441Y193083D02*
Y194083D01*
X121552Y180878D02*
X122552D01*
X122052Y180378D02*
Y181378D01*
X126823Y190276D02*
X127823D01*
X127323Y189776D02*
Y190776D01*
X106311Y202284D02*
X107311D01*
X106811Y201783D02*
Y202783D01*
X117858Y197232D02*
X118858D01*
X118358Y196732D02*
Y197732D01*
X117650Y193150D02*
X118650D01*
X118150Y192650D02*
Y193650D01*
X122571Y138701D02*
X123571D01*
X123071Y138201D02*
Y139201D01*
X125209Y134252D02*
X126209D01*
X125709Y133752D02*
Y134752D01*
X128240Y135276D02*
X129240D01*
X128740Y134776D02*
Y135776D01*
X181114Y104528D02*
X182114D01*
X181614Y104028D02*
Y105028D01*
X167492Y104882D02*
X168492D01*
X167992Y104382D02*
Y105382D01*
X134067Y197362D02*
X135067D01*
X134567Y196862D02*
Y197862D01*
X124579Y190236D02*
X125579D01*
X125079Y189736D02*
Y190736D01*
X166331Y178642D02*
X167331D01*
X166831Y178142D02*
Y179142D01*
X207727Y68480D02*
X208727D01*
X208227Y67980D02*
Y68980D01*
X216388Y55487D02*
X217388D01*
X216888Y54987D02*
Y55987D01*
X212057Y55487D02*
X213057D01*
X212558Y54987D02*
Y55987D01*
X207727Y55487D02*
X208727D01*
X208227Y54987D02*
Y55987D01*
X216388Y59818D02*
X217388D01*
X216888Y59318D02*
Y60318D01*
X212057Y59818D02*
X213057D01*
X212558Y59318D02*
Y60318D01*
X207727Y59818D02*
X208727D01*
X208227Y59318D02*
Y60318D01*
X216388Y64149D02*
X217388D01*
X216888Y63649D02*
Y64649D01*
X212057Y64149D02*
X213057D01*
X212558Y63649D02*
Y64649D01*
X207727Y64149D02*
X208727D01*
X208227Y63649D02*
Y64649D01*
X216388Y68480D02*
X217388D01*
X216888Y67980D02*
Y68980D01*
X212057Y68480D02*
X213057D01*
X212558Y67980D02*
Y68980D01*
X79158Y172578D02*
X80158D01*
X79658Y172078D02*
Y173078D01*
X79158Y176318D02*
X80158D01*
X79658Y175818D02*
Y176818D01*
X75389Y176354D02*
X76389D01*
X75889Y175854D02*
Y176854D01*
X75437Y172578D02*
X76437D01*
X75937Y172078D02*
Y173078D01*
X75417Y168739D02*
X76417D01*
X75917Y168239D02*
Y169239D01*
X79158Y168838D02*
X80158D01*
X79658Y168338D02*
Y169338D01*
X82898Y168838D02*
X83898D01*
X83398Y168338D02*
Y169338D01*
X82898Y172578D02*
X83898D01*
X83398Y172078D02*
Y173078D01*
X82898Y176318D02*
X83898D01*
X83398Y175818D02*
Y176818D01*
X170268Y85236D02*
X171268D01*
X170768Y84736D02*
Y85736D01*
X174598Y85236D02*
X175598D01*
X175098Y84736D02*
Y85736D01*
X170268Y80905D02*
X171268D01*
X170768Y80405D02*
Y81406D01*
X174598Y80905D02*
X175598D01*
X175098Y80405D02*
Y81406D01*
X115445Y198644D02*
X116445D01*
X115945Y198144D02*
Y199144D01*
X125484Y210827D02*
X126484D01*
X125984Y210327D02*
Y211327D01*
X133988Y207126D02*
X134988D01*
X134488Y206626D02*
Y207626D01*
X129157Y206856D02*
X130157D01*
X129657Y206356D02*
Y207356D01*
X145642Y210827D02*
X146642D01*
X146142Y210327D02*
Y211327D01*
X131902Y211417D02*
X132902D01*
X132402Y210917D02*
Y211917D01*
X133791Y202362D02*
X134791D01*
X134291Y201862D02*
Y202862D01*
X123158Y240158D02*
X124158D01*
X123658Y239657D02*
Y240657D01*
X118673Y211299D02*
X119673D01*
X119173Y210799D02*
Y211799D01*
X93043Y220433D02*
X94043D01*
X93543Y219933D02*
Y220933D01*
X93043Y229803D02*
X94043D01*
X93543Y229303D02*
Y230303D01*
X141862Y166575D02*
X142862D01*
X142362Y166075D02*
Y167075D01*
X141941Y161575D02*
X142941D01*
X142441Y161075D02*
Y162075D01*
X137177Y161575D02*
X138177D01*
X137677Y161075D02*
Y162075D01*
X147697Y161811D02*
X148697D01*
X148197Y161311D02*
Y162311D01*
X202886Y160630D02*
X203886D01*
X203386Y160130D02*
Y161130D01*
X123656Y163420D02*
X125156D01*
X124406Y162671D02*
Y164171D01*
X109526Y149331D02*
X111026D01*
X110276Y148581D02*
Y150081D01*
X107295Y154252D02*
X108295D01*
X107795Y153752D02*
Y154752D01*
X119107Y167578D02*
X120607D01*
X119858Y166828D02*
Y168328D01*
X124382Y155285D02*
X125382D01*
X124882Y154785D02*
Y155785D01*
X151370Y210650D02*
X152370D01*
X151870Y210150D02*
Y211150D01*
X160445Y274331D02*
X161445D01*
X160945Y273831D02*
Y274831D01*
X157965Y274319D02*
X158965D01*
X158465Y273819D02*
Y274819D01*
X158520Y267559D02*
X159520D01*
X159020Y267059D02*
Y268059D01*
X150217Y257165D02*
X151217D01*
X150717Y256665D02*
Y257665D01*
X151920Y258869D02*
X152920D01*
X152420Y258368D02*
Y259368D01*
X276823Y264488D02*
X277823D01*
X277323Y263988D02*
Y264988D01*
X276468Y254095D02*
X277468D01*
X276969Y253594D02*
Y254594D01*
X276429Y244134D02*
X277429D01*
X276929Y243634D02*
Y244634D01*
X229894Y195945D02*
X230894D01*
X230394Y195445D02*
Y196445D01*
X276494Y130591D02*
X277994D01*
X277244Y129841D02*
Y131341D01*
X271980Y136063D02*
X272980D01*
X272480Y135563D02*
Y136563D01*
X269736Y133780D02*
X270736D01*
X270236Y133280D02*
Y134280D01*
X279815Y142559D02*
X280815D01*
X280315Y142059D02*
Y143059D01*
X187098Y118543D02*
X188098D01*
X187598Y118043D02*
Y119043D01*
X248122Y204173D02*
X249122D01*
X248622Y203673D02*
Y204673D01*
X248083Y206457D02*
X249083D01*
X248583Y205957D02*
Y206957D01*
X272083Y202716D02*
X273083D01*
X272583Y202217D02*
Y203217D01*
X272059Y200512D02*
X273059D01*
X272559Y200012D02*
Y201012D01*
X261744Y199567D02*
X262744D01*
X262244Y199067D02*
Y200067D01*
X253831Y199843D02*
X254831D01*
X254331Y199343D02*
Y200342D01*
X253831Y202402D02*
X254831D01*
X254331Y201902D02*
Y202902D01*
X147335Y171496D02*
X148335D01*
X147835Y170996D02*
Y171996D01*
X140760Y156378D02*
X141760D01*
X141260Y155878D02*
Y156878D01*
X177177Y136150D02*
X178177D01*
X177677Y135650D02*
Y136650D01*
X173614Y143012D02*
X174614D01*
X174114Y142512D02*
Y143512D01*
X236114Y194370D02*
X237114D01*
X236614Y193870D02*
Y194870D01*
X240366Y215205D02*
X241366D01*
X240866Y214705D02*
Y215705D01*
X229009Y210344D02*
X230009D01*
X229509Y209844D02*
Y210844D01*
X231075Y215630D02*
X232075D01*
X231575Y215130D02*
Y216130D01*
X213407Y159778D02*
X214908D01*
X214158Y159028D02*
Y160528D01*
X182020Y129728D02*
X183020D01*
X182520Y129228D02*
Y130228D01*
X200799Y103976D02*
X201799D01*
X201299Y103476D02*
Y104476D01*
X158063Y235906D02*
X159063D01*
X158563Y235405D02*
Y236405D01*
X143201Y239646D02*
X144201D01*
X143701Y239146D02*
Y240146D01*
X133083Y219567D02*
X134083D01*
X133583Y219067D02*
Y220067D01*
X190642Y113878D02*
X191642D01*
X191142Y113378D02*
Y114378D01*
X257807Y199902D02*
X258807D01*
X258307Y199402D02*
Y200402D01*
X173319Y100689D02*
X174319D01*
X173819Y100189D02*
Y101189D01*
X177020Y108937D02*
X178020D01*
X177520Y108437D02*
Y109437D01*
X184028Y108307D02*
X185028D01*
X184528Y107807D02*
Y108807D01*
X179028Y116890D02*
X180028D01*
X179528Y116390D02*
Y117390D01*
X151193Y134213D02*
X152193D01*
X151693Y133713D02*
Y134713D01*
X112807Y180748D02*
X113807D01*
X113307Y180248D02*
Y181248D01*
X142453Y129567D02*
X143453D01*
X142953Y129067D02*
Y130067D01*
X142689Y136614D02*
X143689D01*
X143189Y136114D02*
Y137114D01*
X154421Y148031D02*
X155421D01*
X154921Y147531D02*
Y148531D01*
X157295Y128572D02*
X158295D01*
X157795Y128072D02*
Y129072D01*
X147138Y147814D02*
X148138D01*
X147638Y147314D02*
Y148314D01*
X213673Y213425D02*
X214673D01*
X214173Y212925D02*
Y213925D01*
X339067Y272047D02*
X340067D01*
X339567Y271547D02*
Y272547D01*
X341350Y272047D02*
X342350D01*
X341850Y271547D02*
Y272547D01*
X158520Y265354D02*
X159520D01*
X159020Y264854D02*
Y265854D01*
X152333Y244803D02*
X153833D01*
X153083Y244053D02*
Y245553D01*
X157925Y224331D02*
X158925D01*
X158425Y223831D02*
Y224831D01*
X157965Y228228D02*
X158965D01*
X158465Y227728D02*
Y228728D01*
X160238Y228239D02*
X161238D01*
X160738Y227739D02*
Y228739D01*
X160169Y224370D02*
X161169D01*
X160669Y223870D02*
Y224870D01*
X201823Y151929D02*
X202823D01*
X202323Y151429D02*
Y152429D01*
X200248Y155151D02*
X201248D01*
X200748Y154651D02*
Y155651D01*
X197689Y159843D02*
X198689D01*
X198189Y159343D02*
Y160343D01*
X132535Y114488D02*
X133535D01*
X133035Y113988D02*
Y114988D01*
X131154Y122078D02*
X132153D01*
X131653Y121578D02*
Y122578D01*
X114185Y136260D02*
X115185D01*
X114685Y135760D02*
Y136760D01*
X118881Y138930D02*
X120381D01*
X119632Y138180D02*
Y139680D01*
X81383Y225703D02*
X82383D01*
X81883Y225203D02*
Y226203D01*
X150450Y263032D02*
X151450D01*
X150950Y262531D02*
Y263531D01*
X143183Y220603D02*
X144183D01*
X143683Y220103D02*
Y221103D01*
X152333Y241459D02*
X153833D01*
X153083Y240709D02*
Y242209D01*
X105957Y172008D02*
X106957D01*
X106457Y171508D02*
Y172508D01*
X125602Y273819D02*
X126602D01*
X126102Y273319D02*
Y274319D01*
X117098Y273819D02*
X118098D01*
X117598Y273319D02*
Y274319D01*
X112822Y273819D02*
X113822D01*
X113322Y273319D02*
Y274319D01*
X95484Y273976D02*
X96484D01*
X95984Y273476D02*
Y274476D01*
X156980Y88287D02*
X157980D01*
X157480Y87787D02*
Y88787D01*
X151075Y89862D02*
X152075D01*
X151575Y89362D02*
Y90362D01*
X161213Y104528D02*
X162213D01*
X161713Y104028D02*
Y105028D01*
X156075Y79626D02*
X157075D01*
X156575Y79126D02*
Y80126D01*
X158653Y64961D02*
X159653D01*
X159153Y64461D02*
Y65461D01*
X149008Y65354D02*
X150008D01*
X149508Y64854D02*
Y65854D01*
X147039Y76772D02*
X148039D01*
X147539Y76272D02*
Y77272D01*
X151075Y83071D02*
X152075D01*
X151575Y82571D02*
Y83571D01*
X171350Y89665D02*
X172350D01*
X171850Y89165D02*
Y90165D01*
X162591Y81595D02*
X163591D01*
X163091Y81094D02*
Y82095D01*
X176173Y65354D02*
X177173D01*
X176673Y64854D02*
Y65854D01*
X183063Y82579D02*
X184063D01*
X183563Y82079D02*
Y83079D01*
X176567Y68504D02*
X177567D01*
X177067Y68004D02*
Y69004D01*
X178831Y89173D02*
X179831D01*
X179331Y88673D02*
Y89673D01*
X204323Y108465D02*
X205323D01*
X204823Y107965D02*
Y108965D01*
X210032Y106693D02*
X211032D01*
X210531Y106193D02*
Y107193D01*
X198909Y98917D02*
X199909D01*
X199409Y98417D02*
Y99417D01*
X195366Y103740D02*
X196366D01*
X195866Y103240D02*
Y104240D01*
X152453Y63681D02*
X153453D01*
X152953Y63181D02*
Y64181D01*
X172531Y106102D02*
X173531D01*
X173031Y105602D02*
Y106602D01*
X151665Y117520D02*
X152665D01*
X152165Y117020D02*
Y118020D01*
X139559Y93799D02*
X140559D01*
X140059Y93299D02*
Y94299D01*
X169972Y117618D02*
X170972D01*
X170472Y117118D02*
Y118118D01*
X165687Y117126D02*
X167187D01*
X166437Y116376D02*
Y117876D01*
X156534Y117028D02*
X158034D01*
X157283Y116278D02*
Y117778D01*
X109960Y203150D02*
X110960D01*
X110460Y202650D02*
Y203650D01*
X345733Y24003D02*
X347233D01*
X346483Y23253D02*
Y24753D01*
X339233Y58603D02*
X340733D01*
X339983Y57853D02*
Y59353D01*
X296733Y43203D02*
X298233D01*
X297483Y42453D02*
Y43953D01*
X296733Y48203D02*
X298233D01*
X297483Y47453D02*
Y48953D01*
X296733Y53103D02*
X298233D01*
X297483Y52353D02*
Y53853D01*
X287108Y120428D02*
X288108D01*
X287608Y119928D02*
Y120928D01*
X297033Y125203D02*
X298533D01*
X297783Y124453D02*
Y125953D01*
X7483Y178603D02*
X8483D01*
X7983Y178103D02*
Y179103D01*
X14833Y177503D02*
X16333D01*
X15583Y176753D02*
Y178253D01*
X273433Y155003D02*
X274933D01*
X274183Y154253D02*
Y155753D01*
X248708Y85178D02*
X250207D01*
X249458Y84428D02*
Y85928D01*
X245758Y101778D02*
X246758D01*
X246257Y101278D02*
Y102278D01*
X123057Y216678D02*
X124057D01*
X123557Y216178D02*
Y217178D01*
X306041Y167032D02*
X307541D01*
X306791Y166282D02*
Y167782D01*
X303708Y161178D02*
X305207D01*
X304457Y160428D02*
Y161928D01*
X340983Y101603D02*
X341983D01*
X341483Y101103D02*
Y102103D01*
X348683Y98303D02*
X349683D01*
X349183Y97803D02*
Y98803D01*
X293883Y172903D02*
X294883D01*
X294383Y172403D02*
Y173403D01*
X289083Y172903D02*
X290083D01*
X289583Y172403D02*
Y173403D01*
X104059Y273903D02*
X105059D01*
X104559Y273403D02*
Y274403D01*
X91457Y155478D02*
X92457D01*
X91957Y154978D02*
Y155978D01*
X101258Y256178D02*
X102258D01*
X101758Y255678D02*
Y256678D01*
X64157Y241578D02*
X65158D01*
X64657Y241078D02*
Y242078D01*
X82758Y244678D02*
X83758D01*
X83258Y244178D02*
Y245178D01*
X381157Y195978D02*
X382157D01*
X381658Y195478D02*
Y196478D01*
X351157Y45778D02*
X352157D01*
X351658Y45278D02*
Y46278D01*
X314307Y45078D02*
X315808D01*
X315057Y44328D02*
Y45828D01*
X188683Y154603D02*
X189683D01*
X189183Y154103D02*
Y155103D01*
X93058Y214278D02*
X94058D01*
X93558Y213778D02*
Y214778D01*
X86333Y247903D02*
X87833D01*
X87083Y247153D02*
Y248653D01*
X89333Y247903D02*
X90833D01*
X90083Y247153D02*
Y248653D01*
X96333Y247903D02*
X97833D01*
X97083Y247153D02*
Y248653D01*
X102408Y244878D02*
X103908D01*
X103157Y244128D02*
Y245628D01*
X197283Y50303D02*
X198283D01*
X197783Y49803D02*
Y50803D01*
X187480Y58255D02*
X188480D01*
X187980Y57755D02*
Y58755D01*
X181158Y55878D02*
X182158D01*
X181658Y55378D02*
Y56378D01*
X157757Y56178D02*
X158757D01*
X158257Y55678D02*
Y56678D01*
X197583Y165103D02*
X198583D01*
X198083Y164603D02*
Y165603D01*
X299607Y196278D02*
X301108D01*
X300358Y195528D02*
Y197028D01*
X299408Y181978D02*
X300907D01*
X300157Y181228D02*
Y182728D01*
X350157Y267923D02*
X351157D01*
X350658Y267423D02*
Y268423D01*
X349727Y264213D02*
X350727D01*
X350227Y263713D02*
Y264713D01*
X244257Y218478D02*
X245257D01*
X244758Y217978D02*
Y218978D01*
X364608Y230778D02*
X366108D01*
X365357Y230028D02*
Y231528D01*
X144283Y35503D02*
X145283D01*
X144783Y35003D02*
Y36003D01*
X177183Y132603D02*
X178183D01*
X177683Y132103D02*
Y133103D01*
X28958Y189978D02*
X29958D01*
X29458Y189478D02*
Y190478D01*
X221683Y237003D02*
X222683D01*
X222183Y236503D02*
Y237503D01*
X100883Y211303D02*
X101883D01*
X101383Y210803D02*
Y211803D01*
X75383Y219903D02*
X76383D01*
X75883Y219403D02*
Y220403D01*
X32883Y210803D02*
X33883D01*
X33383Y210303D02*
Y211303D01*
X120683Y149403D02*
X121683D01*
X121183Y148903D02*
Y149903D01*
X129333Y247903D02*
X130833D01*
X130083Y247153D02*
Y248653D01*
X126333Y247903D02*
X127833D01*
X127083Y247153D02*
Y248653D01*
X172283Y215103D02*
X173283D01*
X172783Y214603D02*
Y215603D01*
X222358Y223378D02*
X223358D01*
X222857Y222878D02*
Y223878D01*
X145071Y156595D02*
X146071D01*
X145571Y156095D02*
Y157095D01*
X156193Y155610D02*
X157193D01*
X156693Y155110D02*
Y156110D01*
X165051Y132750D02*
X166051D01*
X165551Y132250D02*
Y133250D01*
X187886Y138976D02*
X188886D01*
X188386Y138476D02*
Y139476D01*
X201958Y75978D02*
X202958D01*
X202457Y75478D02*
Y76478D01*
X116083Y28803D02*
X117083D01*
X116583Y28303D02*
Y29303D01*
X36257Y50478D02*
X37258D01*
X36757Y49978D02*
Y50978D01*
X223957Y50378D02*
X224957D01*
X224458Y49878D02*
Y50878D01*
X223458Y46778D02*
X224458D01*
X223957Y46278D02*
Y47278D01*
X77358Y98578D02*
X78357D01*
X77858Y98078D02*
Y99078D01*
X61195Y73478D02*
X62195D01*
X61695Y72978D02*
Y73978D01*
X60395Y75678D02*
X61395D01*
X60895Y75178D02*
Y76178D01*
X37758Y54078D02*
X38758D01*
X38258Y53578D02*
Y54578D01*
X16283Y51913D02*
X17283D01*
X16783Y51413D02*
Y52413D01*
X15657Y79278D02*
X16657D01*
X16158Y78778D02*
Y79778D01*
X16283Y54213D02*
X17283D01*
X16783Y53713D02*
Y54713D01*
X77758Y87378D02*
X78758D01*
X78258Y86878D02*
Y87878D01*
X82657Y89778D02*
X83657D01*
X83157Y89278D02*
Y90278D01*
X220557Y111778D02*
X221557D01*
X221058Y111278D02*
Y112278D01*
X204107Y114878D02*
X205608D01*
X204857Y114128D02*
Y115628D01*
X50407Y189478D02*
X51907D01*
X51157Y188728D02*
Y190228D01*
X44407Y189478D02*
X45908D01*
X45158Y188728D02*
Y190228D01*
X35107Y198078D02*
X36608D01*
X35857Y197328D02*
Y198828D01*
X37325Y195478D02*
X38825D01*
X38075Y194728D02*
Y196228D01*
X50807Y135478D02*
X52307D01*
X51557Y134728D02*
Y136228D01*
X67908Y131178D02*
X69407D01*
X68657Y130428D02*
Y131928D01*
X67908Y127978D02*
X69407D01*
X68657Y127228D02*
Y128728D01*
X50907Y128078D02*
X52407D01*
X51657Y127328D02*
Y128828D01*
X50907Y131278D02*
X52407D01*
X51657Y130528D02*
Y132028D01*
X64307Y161578D02*
X65807D01*
X65057Y160828D02*
Y162328D01*
X92407Y159169D02*
X93407D01*
X92907Y158669D02*
Y159669D01*
X84057Y158678D02*
X85057D01*
X84557Y158178D02*
Y159178D01*
X84258Y147478D02*
X85258D01*
X84758Y146978D02*
Y147978D01*
X85883Y136003D02*
X86883D01*
X86383Y135503D02*
Y136503D01*
X107783Y180103D02*
X108783D01*
X108283Y179603D02*
Y180603D01*
X112783Y171991D02*
X113783D01*
X113283Y171491D02*
Y172491D01*
X116957Y129278D02*
X117957D01*
X117457Y128778D02*
Y129778D01*
X182036Y143778D02*
X183036D01*
X182536Y143278D02*
Y144278D01*
X137440Y175278D02*
X138440D01*
X137940Y174778D02*
Y175778D01*
X140540Y175278D02*
X141540D01*
X141040Y174778D02*
Y175778D01*
X188236Y143778D02*
X189236D01*
X188736Y143278D02*
Y144278D01*
X200557Y125578D02*
X201557D01*
X201058Y125078D02*
Y126078D01*
X185136Y143778D02*
X186136D01*
X185636Y143278D02*
Y144278D01*
X168908Y133228D02*
X169908D01*
X169408Y132728D02*
Y133728D01*
X158858Y131278D02*
X159857D01*
X159358Y130778D02*
Y131778D01*
X150958Y128178D02*
X151957D01*
X151458Y127678D02*
Y128678D01*
X291407Y184278D02*
X292908D01*
X292158Y183528D02*
Y185028D01*
X283707Y185378D02*
X285208D01*
X284457Y184628D02*
Y186128D01*
X221207Y132578D02*
X222708D01*
X221957Y131828D02*
Y133328D01*
X225008Y149478D02*
X226507D01*
X225758Y148728D02*
Y150228D01*
X220108Y136778D02*
X221607D01*
X220858Y136028D02*
Y137528D01*
X221207Y127978D02*
X222708D01*
X221957Y127228D02*
Y128728D01*
X309807Y146078D02*
X311308D01*
X310558Y145328D02*
Y146828D01*
X304807Y146078D02*
X306308D01*
X305557Y145328D02*
Y146828D01*
X224708Y177778D02*
X226207D01*
X225458Y177028D02*
Y178528D01*
X202133Y137703D02*
X203633D01*
X202883Y136953D02*
Y138453D01*
X204433Y126403D02*
X205933D01*
X205183Y125653D02*
Y127153D01*
X216508Y113978D02*
X218007D01*
X217257Y113228D02*
Y114728D01*
X200507Y133278D02*
X202008D01*
X201257Y132528D02*
Y134028D01*
X301710Y177269D02*
X303210D01*
X302460Y176518D02*
Y178018D01*
X249507Y109678D02*
X251008D01*
X250257Y108928D02*
Y110428D01*
X240407Y98778D02*
X241908D01*
X241158Y98028D02*
Y99528D01*
X155257Y56178D02*
X156257D01*
X155757Y55678D02*
Y56678D01*
X400908Y205678D02*
X402408D01*
X401657Y204928D02*
Y206428D01*
X402333Y176803D02*
X403833D01*
X403083Y176053D02*
Y177553D01*
X316007Y51078D02*
X317508D01*
X316757Y50328D02*
Y51828D01*
X262407Y53278D02*
X263908D01*
X263158Y52528D02*
Y54028D01*
X256207Y66378D02*
X257708D01*
X256958Y65628D02*
Y67128D01*
X260008Y66278D02*
X261508D01*
X260757Y65528D02*
Y67028D01*
X355308Y92278D02*
X356807D01*
X356058Y91528D02*
Y93028D01*
X364707Y99778D02*
X366208D01*
X365458Y99028D02*
Y100528D01*
X374307Y91178D02*
X375807D01*
X375058Y90428D02*
Y91928D01*
X373708Y155978D02*
X375207D01*
X374458Y155228D02*
Y156728D01*
X364608Y146778D02*
X366108D01*
X365357Y146028D02*
Y147528D01*
X355507Y156078D02*
X357008D01*
X356258Y155328D02*
Y156828D01*
X355608Y220978D02*
X357107D01*
X356358Y220228D02*
Y221728D01*
X364608Y211178D02*
X366108D01*
X365357Y210428D02*
Y211928D01*
X237657Y31378D02*
X238657D01*
X238158Y30878D02*
Y31878D01*
X223458Y37078D02*
X224458D01*
X223957Y36578D02*
Y37578D01*
X240858Y91278D02*
X241858D01*
X241357Y90778D02*
Y91778D01*
X143757Y85278D02*
X144757D01*
X144257Y84778D02*
Y85778D01*
X142358Y69578D02*
X143358D01*
X142858Y69078D02*
Y70078D01*
X235258Y45078D02*
X236258D01*
X235757Y44578D02*
Y45578D01*
X199758Y50378D02*
X200758D01*
X200257Y49878D02*
Y50878D01*
X187295Y70768D02*
X188295D01*
X187795Y70268D02*
Y71268D01*
X186958Y63778D02*
X187958D01*
X187458Y63278D02*
Y64278D01*
X224257Y87878D02*
X225257D01*
X224758Y87378D02*
Y88378D01*
X214957Y86178D02*
X215957D01*
X215458Y85678D02*
Y86678D01*
X214158Y83878D02*
X215158D01*
X214657Y83378D02*
Y84378D01*
X209258Y101178D02*
X210258D01*
X209757Y100678D02*
Y101678D01*
X203257Y95978D02*
X204257D01*
X203758Y95478D02*
Y96478D01*
X192058Y40078D02*
X193058D01*
X192558Y39578D02*
Y40578D01*
X192058Y37578D02*
X193058D01*
X192558Y37078D02*
Y38078D01*
X218657Y44978D02*
X219657D01*
X219158Y44478D02*
Y45478D01*
X321708Y115624D02*
X323207D01*
X322458Y114874D02*
Y116374D01*
X261807Y39478D02*
X263307D01*
X262558Y38728D02*
Y40228D01*
X252607Y39450D02*
X254107D01*
X253358Y38700D02*
Y40200D01*
X252607Y34178D02*
X254107D01*
X253358Y33428D02*
Y34928D01*
X261807Y34178D02*
X263307D01*
X262558Y33428D02*
Y34928D01*
X252607Y28978D02*
X254107D01*
X253358Y28228D02*
Y29728D01*
X261807Y28978D02*
X263307D01*
X262558Y28228D02*
Y29728D01*
X296607Y14178D02*
X298108D01*
X297358Y13428D02*
Y14928D01*
X292108Y8378D02*
X293607D01*
X292858Y7628D02*
Y9128D01*
X287308Y8378D02*
X288808D01*
X288057Y7628D02*
Y9128D01*
X296607Y18478D02*
X298108D01*
X297358Y17728D02*
Y19228D01*
X296607Y9978D02*
X298108D01*
X297358Y9228D02*
Y10728D01*
X246708Y45778D02*
X248207D01*
X247458Y45028D02*
Y46528D01*
X255908Y45778D02*
X257407D01*
X256658Y45028D02*
Y46528D01*
X261807Y18978D02*
X263307D01*
X262558Y18228D02*
Y19728D01*
X252607Y18978D02*
X254107D01*
X253358Y18228D02*
Y19728D01*
X252607Y13778D02*
X254107D01*
X253358Y13028D02*
Y14528D01*
X261807Y13878D02*
X263307D01*
X262558Y13128D02*
Y14628D01*
X252607Y8678D02*
X254107D01*
X253358Y7928D02*
Y9428D01*
X261807Y8678D02*
X263307D01*
X262558Y7928D02*
Y9428D01*
X326207Y41678D02*
X327708D01*
X326958Y40928D02*
Y42428D01*
X293607Y53178D02*
X295108D01*
X294357Y52428D02*
Y53928D01*
X37958Y95578D02*
X38958D01*
X38458Y95078D02*
Y96078D01*
X15757Y101378D02*
X16758D01*
X16258Y100878D02*
Y101878D01*
X12358Y109078D02*
X13358D01*
X12857Y108578D02*
Y109578D01*
X20857Y109778D02*
X21858D01*
X21358Y109278D02*
Y110278D01*
X23458Y107578D02*
X24457D01*
X23957Y107078D02*
Y108078D01*
X60357Y84078D02*
X61357D01*
X60857Y83578D02*
Y84578D01*
X52457Y90278D02*
X53457D01*
X52957Y89778D02*
Y90778D01*
X61658Y99878D02*
X62657D01*
X62157Y99378D02*
Y100378D01*
X74857Y98578D02*
X75858D01*
X75358Y98078D02*
Y99078D01*
X64657Y105578D02*
X65658D01*
X65158Y105078D02*
Y106078D01*
X64657Y102978D02*
X65658D01*
X65158Y102478D02*
Y103478D01*
X86958Y94978D02*
X87958D01*
X87458Y94478D02*
Y95478D01*
X77758Y89778D02*
X78758D01*
X78258Y89278D02*
Y90278D01*
X68257Y106678D02*
X69257D01*
X68757Y106178D02*
Y107178D01*
X52683Y96103D02*
X53683D01*
X53183Y95603D02*
Y96603D01*
X55583Y95103D02*
X56583D01*
X56083Y94603D02*
Y95603D01*
X45757Y109478D02*
X46758D01*
X46257Y108978D02*
Y109978D01*
X40257Y111078D02*
X41258D01*
X40758Y110578D02*
Y111578D01*
X37983Y92503D02*
X38983D01*
X38483Y92003D02*
Y93003D01*
X37983Y90203D02*
X38983D01*
X38483Y89703D02*
Y90703D01*
X33257Y93078D02*
X34258D01*
X33757Y92578D02*
Y93578D01*
X58083Y93403D02*
X59083D01*
X58583Y92903D02*
Y93903D01*
X62858Y77578D02*
X63858D01*
X63358Y77078D02*
Y78078D01*
X95157Y98378D02*
X96157D01*
X95657Y97878D02*
Y98878D01*
X102758Y98278D02*
X103758D01*
X103258Y97778D02*
Y98778D01*
X98958Y98378D02*
X99958D01*
X99458Y97878D02*
Y98878D01*
X192457Y98978D02*
X193457D01*
X192957Y98478D02*
Y99478D01*
X112238Y121047D02*
X113738D01*
X112988Y120297D02*
Y121797D01*
X93958Y49678D02*
X94958D01*
X94458Y49178D02*
Y50178D01*
X120858Y102278D02*
X121858D01*
X121358Y101778D02*
Y102778D01*
X135758Y88178D02*
X136758D01*
X136258Y87678D02*
Y88678D01*
X130858Y86478D02*
X131858D01*
X131358Y85978D02*
Y86978D01*
X139058Y82278D02*
X140058D01*
X139558Y81778D02*
Y82778D01*
X224257Y90378D02*
X225257D01*
X224758Y89878D02*
Y90878D01*
X219057Y87978D02*
X220058D01*
X219557Y87478D02*
Y88478D01*
X117257Y85978D02*
X118257D01*
X117757Y85478D02*
Y86478D01*
X118558Y83978D02*
X119557D01*
X119058Y83478D02*
Y84478D01*
X35157Y54078D02*
X36158D01*
X35658Y53578D02*
Y54578D01*
X16457Y77078D02*
X17458D01*
X16958Y76578D02*
Y77578D01*
X16758Y84278D02*
X17758D01*
X17257Y83778D02*
Y84778D01*
X7208Y126878D02*
X8708D01*
X7958Y126128D02*
Y127628D01*
X60508Y161478D02*
X62007D01*
X61257Y160728D02*
Y162228D01*
X299507Y189178D02*
X301008D01*
X300257Y188428D02*
Y189928D01*
X193457Y23178D02*
X194457D01*
X193957Y22678D02*
Y23678D01*
X48107Y173078D02*
X49608D01*
X48858Y172328D02*
Y173828D01*
X50907Y165878D02*
X52407D01*
X51657Y165128D02*
Y166628D01*
X81124Y142917D02*
X82624D01*
X81874Y142166D02*
Y143667D01*
X81133Y139003D02*
X82633D01*
X81883Y138253D02*
Y139753D01*
X75308Y155978D02*
X76807D01*
X76057Y155228D02*
Y156728D01*
X314908Y146078D02*
X316407D01*
X315657Y145328D02*
Y146828D01*
X210033Y168503D02*
X211533D01*
X210783Y167753D02*
Y169253D01*
X92148Y173625D02*
X93648D01*
X92898Y172875D02*
Y174375D01*
X60607Y179878D02*
X62107D01*
X61357Y179128D02*
Y180628D01*
X46126Y206083D02*
X47626D01*
X46876Y205333D02*
Y206834D01*
X81321Y121853D02*
X82821D01*
X82071Y121104D02*
Y122603D01*
X81321Y125692D02*
X82821D01*
X82071Y124942D02*
Y126442D01*
X95678Y186294D02*
X97177D01*
X96428Y185544D02*
Y187044D01*
X84667Y196066D02*
X86167D01*
X85417Y195316D02*
Y196816D01*
X125310Y173169D02*
X126810D01*
X126060Y172418D02*
Y173918D01*
X55607Y153478D02*
X57108D01*
X56358Y152728D02*
Y154228D01*
X60408Y135578D02*
X61908D01*
X61158Y134828D02*
Y136328D01*
X82010Y193310D02*
X83510D01*
X82760Y192560D02*
Y194060D01*
X293607Y43178D02*
X295108D01*
X294357Y42428D02*
Y43928D01*
X293607Y48178D02*
X295108D01*
X294357Y47428D02*
Y48928D01*
X313521Y169395D02*
X315021D01*
X314271Y168644D02*
Y170144D01*
X315883Y167032D02*
X317383D01*
X316633Y166282D02*
Y167782D01*
X318245Y169395D02*
X319745D01*
X318995Y168644D02*
Y170144D01*
X311159Y167032D02*
X312659D01*
X311909Y166282D02*
Y167782D01*
X301710Y173331D02*
X303210D01*
X302460Y172582D02*
Y174082D01*
X301710Y169395D02*
X303210D01*
X302460Y168644D02*
Y170144D01*
X308403Y169395D02*
X309903D01*
X309153Y168644D02*
Y170144D01*
X279533Y28052D02*
X281033D01*
X280283Y27302D02*
Y28802D01*
X41107Y193878D02*
X42608D01*
X41857Y193128D02*
Y194628D01*
X75608Y189178D02*
X77108D01*
X76358Y188428D02*
Y189928D01*
X198057Y33278D02*
X199057D01*
X198557Y32778D02*
Y33778D01*
X215057Y34878D02*
X216057D01*
X215558Y34378D02*
Y35378D01*
X325807Y215478D02*
X327308D01*
X326557Y214728D02*
Y216228D01*
X285635Y174648D02*
X287135D01*
X286385Y173898D02*
Y175398D01*
X79120Y156052D02*
X80620D01*
X79870Y155302D02*
Y156802D01*
X28558Y87178D02*
X29557D01*
X29057Y86678D02*
Y87678D01*
X26357Y87178D02*
X27358D01*
X26858Y86678D02*
Y87678D01*
X16758Y82078D02*
X17758D01*
X17257Y81578D02*
Y82578D01*
X61058Y50378D02*
X62058D01*
X61558Y49878D02*
Y50878D01*
X78658Y46778D02*
X79658D01*
X79158Y46278D02*
Y47278D01*
X38667Y66187D02*
X39667D01*
X39167Y65687D02*
Y66687D01*
X32458Y90778D02*
X33457D01*
X32958Y90278D02*
Y91278D01*
X82657Y87378D02*
X83657D01*
X83157Y86878D02*
Y87878D01*
X38758Y51178D02*
X39757D01*
X39257Y50678D02*
Y51678D01*
X105957Y50578D02*
X106957D01*
X106457Y50078D02*
Y51078D01*
X97957Y52478D02*
X98958D01*
X98457Y51978D02*
Y52978D01*
X83758Y62678D02*
X84758D01*
X84258Y62178D02*
Y63178D01*
X72258Y85978D02*
X73257D01*
X72758Y85478D02*
Y86478D01*
X85757Y69128D02*
X86757D01*
X86257Y68628D02*
Y69628D01*
X40857Y72878D02*
X41857D01*
X41357Y72378D02*
Y73378D01*
X52658Y51078D02*
X53658D01*
X53158Y50578D02*
Y51578D01*
X52658Y54078D02*
X53658D01*
X53158Y53578D02*
Y54578D01*
X130457Y69328D02*
X131457D01*
X130957Y68828D02*
Y69828D01*
X224957Y62587D02*
X225957D01*
X225458Y62087D02*
Y63087D01*
X226857Y69228D02*
X227857D01*
X227358Y68728D02*
Y69728D01*
X202405Y73631D02*
X203405D01*
X202905Y73131D02*
Y74131D01*
X202358Y50378D02*
X203358D01*
X202857Y49878D02*
Y50878D01*
X8258Y111778D02*
X9257D01*
X8758Y111278D02*
Y112278D01*
X127857Y44278D02*
X128858D01*
X128358Y43778D02*
Y44778D01*
X221295Y50378D02*
X222295D01*
X221795Y49878D02*
Y50878D01*
X222058Y44278D02*
X223058D01*
X222557Y43778D02*
Y44778D01*
X230058Y87578D02*
X231058D01*
X230557Y87078D02*
Y88078D01*
X42883Y89603D02*
X43883D01*
X43383Y89103D02*
Y90103D01*
X107557Y80978D02*
X108557D01*
X108057Y80478D02*
Y81478D01*
X102558Y80078D02*
X103558D01*
X103058Y79578D02*
Y80578D01*
X94157Y86878D02*
X95157D01*
X94657Y86378D02*
Y87378D01*
X115258Y88578D02*
X116258D01*
X115758Y88078D02*
Y89078D01*
X133485Y88178D02*
X134485D01*
X133985Y87678D02*
Y88678D01*
X112057Y103878D02*
X113057D01*
X112557Y103378D02*
Y104378D01*
X110057Y101978D02*
X111057D01*
X110557Y101478D02*
Y102478D01*
X91658Y104978D02*
X92658D01*
X92158Y104478D02*
Y105478D01*
X93251Y102046D02*
X94251D01*
X93751Y101546D02*
Y102546D01*
X218657Y42778D02*
X219657D01*
X219158Y42278D02*
Y43278D01*
X195457Y33278D02*
X196458D01*
X195958Y32778D02*
Y33778D01*
X217558Y34878D02*
X218558D01*
X218057Y34378D02*
Y35378D01*
X231757Y40078D02*
X232757D01*
X232258Y39578D02*
Y40578D01*
X234358Y40078D02*
X235357D01*
X234858Y39578D02*
Y40578D01*
X209958Y26678D02*
X210958D01*
X210457Y26178D02*
Y27178D01*
X184958Y92878D02*
X185958D01*
X185458Y92378D02*
Y93378D01*
X216657Y98078D02*
X217657D01*
X217158Y97578D02*
Y98578D01*
X213608Y102678D02*
X215107D01*
X214357Y101928D02*
Y103428D01*
X169957Y59678D02*
X170958D01*
X170457Y59178D02*
Y60178D01*
X167657Y59678D02*
X168658D01*
X168157Y59178D02*
Y60178D01*
X136258Y41378D02*
X137258D01*
X136758Y40878D02*
Y41878D01*
X134458Y38078D02*
X135458D01*
X134958Y37578D02*
Y38578D01*
X92658Y35978D02*
X93657D01*
X93158Y35478D02*
Y36478D01*
X125258Y26478D02*
X126258D01*
X125758Y25978D02*
Y26978D01*
X83883Y49103D02*
X84883D01*
X84383Y48603D02*
Y49603D01*
X121458Y36478D02*
X122458D01*
X121958Y35978D02*
Y36978D01*
X32857Y47878D02*
X33858D01*
X33358Y47378D02*
Y48378D01*
X36158Y46278D02*
X37157D01*
X36658Y45778D02*
Y46778D01*
X13457Y37778D02*
X14457D01*
X13958Y37278D02*
Y38278D01*
X16258Y37778D02*
X17257D01*
X16758Y37278D02*
Y38278D01*
X52883Y44003D02*
X53883D01*
X53383Y43503D02*
Y44503D01*
X54383Y41503D02*
X55383D01*
X54883Y41003D02*
Y42003D01*
X62257Y36078D02*
X63257D01*
X62757Y35578D02*
Y36578D01*
X47483Y43903D02*
X48483D01*
X47983Y43403D02*
Y44403D01*
X37358Y34478D02*
X38357D01*
X37857Y33978D02*
Y34978D01*
X31657Y36278D02*
X32658D01*
X32157Y35778D02*
Y36778D01*
X42083Y43903D02*
X43083D01*
X42583Y43403D02*
Y44403D01*
X58957Y45278D02*
X59957D01*
X59457Y44778D02*
Y45778D01*
X62058Y45178D02*
X63058D01*
X62558Y44678D02*
Y45678D01*
X104957Y45278D02*
X105957D01*
X105457Y44778D02*
Y45778D01*
X107457Y45278D02*
X108458D01*
X107957Y44778D02*
Y45778D01*
X127857Y46778D02*
X128858D01*
X128358Y46278D02*
Y47278D01*
X78658Y44178D02*
X79658D01*
X79158Y43678D02*
Y44678D01*
X219158Y90378D02*
X220158D01*
X219657Y89878D02*
Y90878D01*
X47458Y84878D02*
X48458D01*
X47958Y84378D02*
Y85378D01*
X62858Y80078D02*
X63858D01*
X63358Y79578D02*
Y80578D01*
X279807Y8678D02*
X281308D01*
X280557Y7928D02*
Y9428D01*
X34907Y206378D02*
X36408D01*
X35658Y205628D02*
Y207128D01*
X325807Y168278D02*
X327308D01*
X326557Y167528D02*
Y169028D01*
X327308Y158978D02*
X328807D01*
X328058Y158228D02*
Y159728D01*
X332908Y156378D02*
X334407D01*
X333658Y155628D02*
Y157128D01*
X346408Y156478D02*
X347907D01*
X347158Y155728D02*
Y157228D01*
X339707Y175478D02*
X341208D01*
X340458Y174728D02*
Y176228D01*
X353608Y168378D02*
X355107D01*
X354358Y167628D02*
Y169128D01*
X364707Y179078D02*
X366208D01*
X365458Y178328D02*
Y179828D01*
X364707Y198178D02*
X366208D01*
X365458Y197428D02*
Y198928D01*
X374307Y188278D02*
X375807D01*
X375058Y187528D02*
Y189028D01*
X381008Y185278D02*
X382507D01*
X381757Y184528D02*
Y186028D01*
X380908Y177478D02*
X382407D01*
X381658Y176728D02*
Y178228D01*
X371307Y166778D02*
X372808D01*
X372058Y166028D02*
Y167528D01*
X356407Y179578D02*
X357908D01*
X357157Y178828D02*
Y180328D01*
X372607Y179678D02*
X374108D01*
X373358Y178928D02*
Y180428D01*
X328358Y98828D02*
X329858D01*
X329108Y98078D02*
Y99578D01*
X325708Y115278D02*
X327207D01*
X326458Y114528D02*
Y116028D01*
X333008Y105078D02*
X334507D01*
X333757Y104328D02*
Y105828D01*
X335308Y125478D02*
X336807D01*
X336057Y124728D02*
Y126228D01*
X346207Y125478D02*
X347708D01*
X346957Y124728D02*
Y126228D01*
X354608Y115478D02*
X356107D01*
X355358Y114728D02*
Y116228D01*
X378507Y106778D02*
X380008D01*
X379257Y106028D02*
Y107528D01*
X378308Y128778D02*
X379807D01*
X379058Y128028D02*
Y129528D01*
X373808Y123578D02*
X375307D01*
X374557Y122828D02*
Y124328D01*
X364707Y132478D02*
X366208D01*
X365458Y131728D02*
Y133228D01*
X355408Y123278D02*
X356908D01*
X356157Y122528D02*
Y124028D01*
X364608Y113478D02*
X366108D01*
X365357Y112728D02*
Y114228D01*
X380507Y117878D02*
X382008D01*
X381258Y117128D02*
Y118628D01*
X341808Y131578D02*
X343307D01*
X342558Y130828D02*
Y132328D01*
X363007Y105078D02*
X364508D01*
X363757Y104328D02*
Y105828D01*
X303708Y77378D02*
X305207D01*
X304457Y76628D02*
Y78128D01*
X309507Y58878D02*
X311007D01*
X310258Y58128D02*
Y59628D01*
X316707Y57378D02*
X318208D01*
X317458Y56628D02*
Y58128D01*
X326008Y91378D02*
X327507D01*
X326758Y90628D02*
Y92128D01*
X324907Y85378D02*
X326408D01*
X325658Y84628D02*
Y86128D01*
X336407Y88878D02*
X337908D01*
X337158Y88128D02*
Y89628D01*
X340908Y88878D02*
X342407D01*
X341657Y88128D02*
Y89628D01*
X325907Y79378D02*
X327408D01*
X326658Y78628D02*
Y80128D01*
X322007Y75578D02*
X323507D01*
X322758Y74828D02*
Y76328D01*
X317108Y77278D02*
X318607D01*
X317858Y76528D02*
Y78028D01*
X352708Y89178D02*
X354207D01*
X353457Y88428D02*
Y89928D01*
X352308Y79678D02*
X353807D01*
X353058Y78928D02*
Y80428D01*
X351807Y85378D02*
X353308D01*
X352557Y84628D02*
Y86128D01*
X361807Y79778D02*
X363307D01*
X362558Y79028D02*
Y80528D01*
X378507Y63478D02*
X380008D01*
X379257Y62728D02*
Y64228D01*
X364707Y68078D02*
X366208D01*
X365458Y67328D02*
Y68828D01*
X364908Y48978D02*
X366407D01*
X365657Y48228D02*
Y49728D01*
X356308Y54078D02*
X357807D01*
X357057Y53328D02*
Y54828D01*
X374108Y58478D02*
X375607D01*
X374857Y57728D02*
Y59228D01*
X359608Y39778D02*
X361107D01*
X360357Y39028D02*
Y40528D01*
X359608Y27678D02*
X361107D01*
X360357Y26928D02*
Y28428D01*
X374633Y35203D02*
X376133D01*
X375383Y34453D02*
Y35953D01*
X279533Y23852D02*
X281033D01*
X280283Y23102D02*
Y24602D01*
X269408Y26478D02*
X270907D01*
X270158Y25728D02*
Y27228D01*
X303708Y23478D02*
X305207D01*
X304457Y22728D02*
Y24228D01*
X300907Y201578D02*
X302408D01*
X301658Y200828D02*
Y202328D01*
X320907Y201578D02*
X322408D01*
X321657Y200828D02*
Y202328D01*
X330908Y199678D02*
X332407D01*
X331658Y198928D02*
Y200428D01*
X327708Y207478D02*
X329207D01*
X328457Y206728D02*
Y208228D01*
X340508Y211578D02*
X342007D01*
X341258Y210828D02*
Y212328D01*
X339808Y201478D02*
X341307D01*
X340558Y200728D02*
Y202228D01*
X340908Y191578D02*
X342407D01*
X341657Y190828D02*
Y192328D01*
X330908Y191578D02*
X332407D01*
X331658Y190828D02*
Y192328D01*
X330908Y181578D02*
X332407D01*
X331658Y180828D02*
Y182328D01*
X284807Y34378D02*
X286308D01*
X285558Y33628D02*
Y35128D01*
X269317Y13493D02*
X270817D01*
X270067Y12743D02*
Y14243D01*
X280008Y12178D02*
X281507D01*
X280757Y11428D02*
Y12928D01*
X256207Y71478D02*
X257708D01*
X256958Y70728D02*
Y72228D01*
X256207Y76478D02*
X257708D01*
X256958Y75728D02*
Y77228D01*
X303608Y111678D02*
X305107D01*
X304358Y110928D02*
Y112428D01*
X276108Y126178D02*
X277607D01*
X276857Y125428D02*
Y126928D01*
X32708Y220078D02*
X34207D01*
X33457Y219328D02*
Y220828D01*
X25607Y213478D02*
X27108D01*
X26357Y212728D02*
Y214228D01*
X15757Y98578D02*
X16758D01*
X16258Y98078D02*
Y99078D01*
X79857Y50578D02*
X80857D01*
X80357Y50078D02*
Y51078D01*
X82057Y50578D02*
X83057D01*
X82557Y50078D02*
Y51078D01*
X48283Y50803D02*
X49283D01*
X48783Y50303D02*
Y51303D01*
X105358Y75978D02*
X106358D01*
X105858Y75478D02*
Y76478D01*
X106158Y73678D02*
X107158D01*
X106658Y73178D02*
Y74178D01*
X105957Y48378D02*
X106957D01*
X106457Y47878D02*
Y48878D01*
X127258Y50378D02*
X128258D01*
X127758Y49878D02*
Y50878D01*
X124895Y50378D02*
X125895D01*
X125395Y49878D02*
Y50878D01*
X152957Y104578D02*
X153957D01*
X153457Y104078D02*
Y105078D01*
X155657Y104578D02*
X156658D01*
X156158Y104078D02*
Y105078D01*
X96858Y48778D02*
X97857D01*
X97357Y48278D02*
Y49278D01*
X95358Y35978D02*
X96358D01*
X95858Y35478D02*
Y36478D01*
X128758Y62778D02*
X129757D01*
X129258Y62278D02*
Y63278D01*
X131658Y84378D02*
X132658D01*
X132158Y83878D02*
Y84878D01*
X80257Y99478D02*
X81257D01*
X80757Y98978D02*
Y99978D01*
X83457Y99478D02*
X84457D01*
X83957Y98978D02*
Y99978D01*
X28558Y102578D02*
X29557D01*
X29057Y102078D02*
Y103078D01*
X28558Y105178D02*
X29557D01*
X29057Y104678D02*
Y105678D01*
X126157Y114478D02*
X127157D01*
X126657Y113978D02*
Y114978D01*
X131058Y104278D02*
X132057D01*
X131558Y103778D02*
Y104778D01*
X134057Y104278D02*
X135057D01*
X134557Y103778D02*
Y104778D01*
X315007Y84778D02*
X316508D01*
X315757Y84028D02*
Y85528D01*
X305807Y84778D02*
X307308D01*
X306557Y84028D02*
Y85528D01*
X315007Y89978D02*
X316508D01*
X315757Y89228D02*
Y90728D01*
X305807Y89978D02*
X307308D01*
X306557Y89228D02*
Y90728D01*
X305807Y95078D02*
X307308D01*
X306557Y94328D02*
Y95828D01*
X315007Y95078D02*
X316508D01*
X315757Y94328D02*
Y95828D01*
X80183Y185003D02*
X81183D01*
X80683Y184503D02*
Y185503D01*
X76583Y130903D02*
X77583D01*
X77083Y130403D02*
Y131403D01*
X82783Y135903D02*
X83783D01*
X83283Y135403D02*
Y136403D01*
X81583Y230703D02*
X82583D01*
X82083Y230203D02*
Y231203D01*
X76383Y226203D02*
X77383D01*
X76883Y225703D02*
Y226703D01*
X72783Y246003D02*
X73783D01*
X73283Y245503D02*
Y246503D01*
X145839Y136614D02*
X146839D01*
X146339Y136114D02*
Y137114D01*
X156783Y162795D02*
X157783D01*
X157283Y162295D02*
Y163295D01*
X149697Y131299D02*
X150697D01*
X150197Y130799D02*
Y131799D01*
X182276Y139665D02*
X183276D01*
X182776Y139165D02*
Y140165D01*
X149657Y150303D02*
X150657D01*
X150157Y149803D02*
Y150803D01*
X174106Y131282D02*
X175106D01*
X174606Y130782D02*
Y131782D01*
X130347Y180778D02*
X131347D01*
X130847Y180278D02*
Y181278D01*
X28783Y3103D02*
X29783D01*
X29283Y2603D02*
Y3603D01*
X2083Y2503D02*
X3083D01*
X2583Y2003D02*
Y3003D01*
X2883Y30103D02*
X3883D01*
X3383Y29603D02*
Y30603D01*
X9383Y37403D02*
X10383D01*
X9883Y36903D02*
Y37903D01*
X35783Y15403D02*
X36783D01*
X36283Y14903D02*
Y15903D01*
X35883Y22003D02*
X36883D01*
X36383Y21503D02*
Y22503D01*
X84283Y9303D02*
X85283D01*
X84783Y8803D02*
Y9803D01*
X93683Y9603D02*
X94683D01*
X94183Y9103D02*
Y10103D01*
X20183Y45103D02*
X21183D01*
X20683Y44603D02*
Y45603D01*
X8752Y57874D02*
X9752D01*
X9252Y57374D02*
Y58374D01*
X21683Y37003D02*
X22683D01*
X22183Y36503D02*
Y37503D01*
X83383Y16903D02*
X84383D01*
X83883Y16403D02*
Y17403D01*
X41283Y17803D02*
X42283D01*
X41783Y17303D02*
Y18303D01*
X41483Y8303D02*
X42483D01*
X41983Y7803D02*
Y8803D01*
X129283Y53403D02*
X130283D01*
X129783Y52903D02*
Y53903D01*
X133183Y49203D02*
X134183D01*
X133683Y48703D02*
Y49703D01*
X137583Y38603D02*
X138583D01*
X138083Y38103D02*
Y39103D01*
X135183Y8403D02*
X136183D01*
X135683Y7903D02*
Y8903D01*
X135083Y18303D02*
X136083D01*
X135583Y17803D02*
Y18803D01*
X144283Y18403D02*
X145283D01*
X144783Y17903D02*
Y18903D01*
X62683Y8003D02*
X63683D01*
X63183Y7503D02*
Y8503D01*
X164983Y8203D02*
X165983D01*
X165483Y7703D02*
Y8703D01*
X137383Y51403D02*
X138383D01*
X137883Y50903D02*
Y51903D01*
X155483Y28203D02*
X156483D01*
X155983Y27703D02*
Y28703D01*
X191183Y58303D02*
X192183D01*
X191683Y57803D02*
Y58803D01*
X186083Y28703D02*
X187083D01*
X186583Y28203D02*
Y29203D01*
X186183Y19603D02*
X187183D01*
X186683Y19103D02*
Y20103D01*
X185883Y8603D02*
X186883D01*
X186383Y8103D02*
Y9103D01*
X195483Y16403D02*
X196483D01*
X195983Y15903D02*
Y16903D01*
X195583Y8703D02*
X196583D01*
X196083Y8203D02*
Y9203D01*
X216283Y8403D02*
X217283D01*
X216783Y7903D02*
Y8903D01*
X237083Y20503D02*
X238083D01*
X237583Y20003D02*
Y21003D01*
X237383Y8403D02*
X238383D01*
X237883Y7903D02*
Y8903D01*
X245783Y14103D02*
X246783D01*
X246283Y13603D02*
Y14603D01*
X245583Y26303D02*
X246583D01*
X246083Y25803D02*
Y26803D01*
X328283Y53903D02*
X329283D01*
X328783Y53403D02*
Y54403D01*
X324983Y34003D02*
X325983D01*
X325483Y33503D02*
Y34503D01*
X407683Y27703D02*
X408683D01*
X408183Y27203D02*
Y28203D01*
X383183Y42303D02*
X384183D01*
X383683Y41803D02*
Y42803D01*
X382783Y71803D02*
X383783D01*
X383283Y71303D02*
Y72303D01*
X405083Y60803D02*
X406083D01*
X405583Y60303D02*
Y61303D01*
X404383Y84003D02*
X405383D01*
X404883Y83503D02*
Y84503D01*
X338683Y80603D02*
X339683D01*
X339183Y80103D02*
Y81103D01*
X385083Y106303D02*
X386083D01*
X385583Y105803D02*
Y106803D01*
X385283Y125803D02*
X386283D01*
X385783Y125303D02*
Y126303D01*
X404883Y117103D02*
X405883D01*
X405383Y116603D02*
Y117603D01*
X405183Y136003D02*
X406183D01*
X405683Y135503D02*
Y136503D01*
X405283Y156503D02*
X406283D01*
X405783Y156003D02*
Y157003D01*
X390083Y151303D02*
X391083D01*
X390583Y150803D02*
Y151803D01*
X376183Y137403D02*
X377183D01*
X376683Y136903D02*
Y137903D01*
X380383Y164403D02*
X381383D01*
X380883Y163903D02*
Y164903D01*
X390183Y172003D02*
X391183D01*
X390683Y171503D02*
Y172503D01*
X380783Y149503D02*
X381783D01*
X381283Y149003D02*
Y150003D01*
X384483Y197303D02*
X385483D01*
X384983Y196803D02*
Y197803D01*
X374783Y220503D02*
X375783D01*
X375283Y220003D02*
Y221003D01*
X372283Y271903D02*
X373283D01*
X372783Y271403D02*
Y272403D01*
X391183Y212003D02*
X392183D01*
X391683Y211503D02*
Y212503D01*
X381583Y245603D02*
X382583D01*
X382083Y245103D02*
Y246103D01*
X391183Y224903D02*
X392183D01*
X391683Y224403D02*
Y225403D01*
X405183Y225003D02*
X406183D01*
X405683Y224503D02*
Y225503D01*
X404983Y242203D02*
X405983D01*
X405483Y241703D02*
Y242703D01*
X369483Y235503D02*
X370483D01*
X369983Y235003D02*
Y236003D01*
X359483Y238703D02*
X360483D01*
X359983Y238203D02*
Y239203D01*
X405983Y273603D02*
X406983D01*
X406483Y273103D02*
Y274103D01*
X268595Y188528D02*
X269595D01*
X269094Y188028D02*
Y189028D01*
X225149Y165157D02*
X226149D01*
X225649Y164657D02*
Y165657D01*
X245783Y166003D02*
X246783D01*
X246283Y165503D02*
Y166503D01*
X225563Y154311D02*
X226563D01*
X226063Y153811D02*
Y154811D01*
X245683Y133103D02*
X246683D01*
X246183Y132603D02*
Y133603D01*
X227283Y139903D02*
X228283D01*
X227783Y139403D02*
Y140403D01*
X222683Y117203D02*
X223683D01*
X223183Y116703D02*
Y117703D01*
X242283Y232703D02*
X243283D01*
X242783Y232203D02*
Y233203D01*
X237583Y250103D02*
X238583D01*
X238083Y249603D02*
Y250603D01*
X242283Y257903D02*
X243283D01*
X242783Y257403D02*
Y258403D01*
X232483Y256603D02*
X233483D01*
X232983Y256103D02*
Y257103D01*
X229583Y236603D02*
X230583D01*
X230083Y236103D02*
Y237103D01*
X229857Y243878D02*
X230857D01*
X230358Y243378D02*
Y244378D01*
X223783Y257403D02*
X224783D01*
X224283Y256903D02*
Y257903D01*
X218183Y249303D02*
X219183D01*
X218683Y248803D02*
Y249803D01*
X196902Y248543D02*
X197902D01*
X197402Y248043D02*
Y249043D01*
X193083Y253603D02*
X194083D01*
X193583Y253103D02*
Y254103D01*
X203483Y269903D02*
X204483D01*
X203983Y269403D02*
Y270403D01*
X171665Y269961D02*
X172665D01*
X172165Y269461D02*
Y270461D01*
X169483Y260203D02*
X170483D01*
X169983Y259703D02*
Y260703D01*
X130839Y274567D02*
X131839D01*
X131339Y274067D02*
Y275067D01*
X105383Y265903D02*
X106383D01*
X105883Y265403D02*
Y266403D01*
X88883Y272303D02*
X89883D01*
X89383Y271803D02*
Y272803D01*
X76083Y263103D02*
X77083D01*
X76583Y262603D02*
Y263603D01*
X71683Y274703D02*
X72683D01*
X72183Y274203D02*
Y275203D01*
X44783Y274603D02*
X45783D01*
X45283Y274103D02*
Y275103D01*
X25483Y275803D02*
X26483D01*
X25983Y275303D02*
Y276303D01*
X2783Y256703D02*
X3783D01*
X3283Y256203D02*
Y257203D01*
X12883Y241003D02*
X13883D01*
X13383Y240503D02*
Y241503D01*
X2283Y237803D02*
X3283D01*
X2783Y237303D02*
Y238303D01*
X27883Y245203D02*
X28883D01*
X28383Y244703D02*
Y245703D01*
X44283Y248303D02*
X45283D01*
X44783Y247803D02*
Y248803D01*
X18283Y225503D02*
X19283D01*
X18783Y225003D02*
Y226003D01*
X33683Y226503D02*
X34683D01*
X34183Y226003D02*
Y227003D01*
X18583Y219703D02*
X19583D01*
X19083Y219203D02*
Y220203D01*
X1783D02*
X2783D01*
X2283Y219703D02*
Y220703D01*
X2483Y194603D02*
X3483D01*
X2983Y194103D02*
Y195103D01*
X30483Y195303D02*
X31483D01*
X30983Y194803D02*
Y195803D01*
X102283Y156703D02*
X103283D01*
X102783Y156203D02*
Y157203D01*
X102583Y167103D02*
X103583D01*
X103083Y166603D02*
Y167603D01*
X6783Y114403D02*
X7783D01*
X7283Y113903D02*
Y114903D01*
X231983Y100703D02*
X232983D01*
X232483Y100203D02*
Y101203D01*
X246283Y116203D02*
X247283D01*
X246783Y115703D02*
Y116703D01*
X86783Y200803D02*
X87783D01*
X87283Y200303D02*
Y201303D01*
X50058Y217878D02*
X51057D01*
X50558Y217378D02*
Y218378D01*
X102783Y49703D02*
X103783D01*
X103283Y49203D02*
Y50203D01*
X210683Y150103D02*
X211683D01*
X211183Y149603D02*
Y150603D01*
X275708Y83978D02*
X277207D01*
X276458Y83228D02*
Y84728D01*
X274808Y93078D02*
X276308D01*
X275557Y92328D02*
Y93828D01*
X278058Y70278D02*
X279058D01*
X278557Y69778D02*
Y70778D01*
X260008Y71478D02*
X261508D01*
X260757Y70728D02*
Y72228D01*
X259707Y76078D02*
X261208D01*
X260457Y75328D02*
Y76828D01*
X247207Y95678D02*
X248708D01*
X247957Y94928D02*
Y96428D01*
X60683Y217553D02*
X61683D01*
X61183Y217053D02*
Y218053D01*
X310908Y201578D02*
X312407D01*
X311658Y200828D02*
Y202328D01*
X320808Y207878D02*
X322307D01*
X321557Y207128D02*
Y208628D01*
X312908Y209278D02*
X314407D01*
X313657Y208528D02*
Y210028D01*
X113683Y7903D02*
X114683D01*
X114183Y7403D02*
Y8403D01*
X34004Y31303D02*
X35004D01*
X34504Y30803D02*
Y31803D01*
X36683Y31303D02*
X37683D01*
X37183Y30803D02*
Y31803D01*
X45183Y27703D02*
X46183D01*
X45683Y27203D02*
Y28203D01*
X45183Y30303D02*
X46183D01*
X45683Y29803D02*
Y30803D01*
X54683Y30503D02*
X55683D01*
X55183Y30003D02*
Y31003D01*
X54683Y27903D02*
X55683D01*
X55183Y27403D02*
Y28403D01*
X62083Y28378D02*
X63083D01*
X62583Y27878D02*
Y28878D01*
X62083Y25978D02*
X63083D01*
X62583Y25478D02*
Y26478D01*
X74583Y27803D02*
X75583D01*
X75083Y27303D02*
Y28303D01*
X74483Y25203D02*
X75483D01*
X74983Y24703D02*
Y25703D01*
X90983Y41903D02*
X91983D01*
X91483Y41403D02*
Y42403D01*
X88483Y31303D02*
X89483D01*
X88983Y30803D02*
Y31803D01*
X92383Y32703D02*
X93383D01*
X92883Y32203D02*
Y33203D01*
X92383Y30103D02*
X93383D01*
X92883Y29603D02*
Y30603D01*
X116058Y31378D02*
X117058D01*
X116558Y30878D02*
Y31878D01*
X131083Y30903D02*
X132083D01*
X131583Y30403D02*
Y31403D01*
X133783Y30903D02*
X134783D01*
X134283Y30403D02*
Y31403D01*
X140758Y207178D02*
X141758D01*
X141258Y206678D02*
Y207678D01*
X224957Y236978D02*
X225957D01*
X225458Y236478D02*
Y237478D01*
X326708Y14078D02*
X328207D01*
X327457Y13328D02*
Y14828D01*
X367257Y26978D02*
X368257D01*
X367758Y26478D02*
Y27478D01*
X370257Y30178D02*
X371257D01*
X370758Y29678D02*
Y30678D01*
X339007Y74578D02*
X340508D01*
X339757Y73828D02*
Y75328D01*
X345508Y56878D02*
X347007D01*
X346257Y56128D02*
Y57628D01*
X332807Y57278D02*
X334308D01*
X333558Y56528D02*
Y58028D01*
X336007Y37578D02*
X337508D01*
X336757Y36828D02*
Y38328D01*
X332507Y47778D02*
X334008D01*
X333258Y47028D02*
Y48528D01*
X356608Y22578D02*
X358107D01*
X357358Y21828D02*
Y23328D01*
X362407Y22678D02*
X363908D01*
X363158Y21928D02*
Y23428D01*
X332308Y23478D02*
X333807D01*
X333057Y22728D02*
Y24228D01*
X365007Y11778D02*
X366508D01*
X365757Y11028D02*
Y12528D01*
X339383Y23803D02*
X340383D01*
X339883Y23303D02*
Y24303D01*
X354033Y17803D02*
X355533D01*
X354783Y17053D02*
Y18553D01*
X96283Y209603D02*
X97283D01*
X96783Y209103D02*
Y210103D01*
X318133Y149503D02*
X319633D01*
X318883Y148753D02*
Y150253D01*
X301633Y150303D02*
X303133D01*
X302383Y149553D02*
Y151053D01*
X317933Y146103D02*
X319433D01*
X318683Y145353D02*
Y146853D01*
X347279Y226805D02*
X348779D01*
X348029Y226055D02*
Y227555D01*
X144383Y271603D02*
X145383D01*
X144883Y271103D02*
Y272103D01*
X45283Y33403D02*
X46283D01*
X45783Y32903D02*
Y33903D01*
X27983Y99603D02*
X28983D01*
X28483Y99103D02*
Y100103D01*
X61058Y48178D02*
X62058D01*
X61558Y47678D02*
Y48678D01*
X73558Y83978D02*
X74558D01*
X74058Y83478D02*
Y84478D01*
X87883Y86503D02*
X88883D01*
X88383Y86003D02*
Y87003D01*
X203758Y80878D02*
X204757D01*
X204257Y80378D02*
Y81378D01*
X203758Y78378D02*
X204757D01*
X204257Y77878D02*
Y78878D01*
X72783Y100803D02*
X73783D01*
X73283Y100303D02*
Y101303D01*
X77358Y148478D02*
X78357D01*
X77858Y147978D02*
Y148978D01*
X55257Y145978D02*
X56257D01*
X55757Y145478D02*
Y146478D01*
X340633Y125003D02*
X342133D01*
X341383Y124253D02*
Y125753D01*
X339533Y157203D02*
X341033D01*
X340283Y156453D02*
Y157953D01*
X401183Y34103D02*
X402183D01*
X401683Y33603D02*
Y34603D01*
X25920Y72079D02*
X26920D01*
X26420Y71579D02*
Y72579D01*
X30250Y72079D02*
X31250D01*
X30750Y71579D02*
Y72579D01*
X21589Y67749D02*
X22589D01*
X22089Y67249D02*
Y68249D01*
X25920Y67749D02*
X26920D01*
X26420Y67249D02*
Y68249D01*
X30250Y67749D02*
X31250D01*
X30750Y67249D02*
Y68249D01*
X21589Y63418D02*
X22589D01*
X22089Y62918D02*
Y63918D01*
X25920Y63418D02*
X26920D01*
X26420Y62918D02*
Y63918D01*
X30250Y63418D02*
X31250D01*
X30750Y62918D02*
Y63918D01*
X21589Y59087D02*
X22589D01*
X22089Y58587D02*
Y59587D01*
X25920Y59087D02*
X26920D01*
X26420Y58587D02*
Y59587D01*
X30250Y59087D02*
X31250D01*
X30750Y58587D02*
Y59587D01*
X21589Y72079D02*
X22589D01*
X22089Y71579D02*
Y72579D01*
X70657Y68480D02*
X71658D01*
X71157Y67980D02*
Y68980D01*
X74988Y68480D02*
X75988D01*
X75488Y67980D02*
Y68980D01*
X66327Y64149D02*
X67327D01*
X66827Y63649D02*
Y64649D01*
X70657Y64149D02*
X71658D01*
X71157Y63649D02*
Y64649D01*
X74988Y64149D02*
X75988D01*
X75488Y63649D02*
Y64649D01*
X66327Y59818D02*
X67327D01*
X66827Y59318D02*
Y60318D01*
X70657Y59818D02*
X71658D01*
X71157Y59318D02*
Y60318D01*
X74988Y59818D02*
X75988D01*
X75488Y59318D02*
Y60318D01*
X66327Y55487D02*
X67327D01*
X66827Y54987D02*
Y55987D01*
X70657Y55487D02*
X71658D01*
X71157Y54987D02*
Y55987D01*
X74988Y55487D02*
X75988D01*
X75488Y54987D02*
Y55987D01*
X66327Y68480D02*
X67327D01*
X66827Y67980D02*
Y68980D01*
X115657Y68480D02*
X116657D01*
X116157Y67980D02*
Y68980D01*
X119988Y68480D02*
X120988D01*
X120488Y67980D02*
Y68980D01*
X111327Y64149D02*
X112327D01*
X111827Y63649D02*
Y64649D01*
X115657Y64149D02*
X116657D01*
X116157Y63649D02*
Y64649D01*
X119988Y64149D02*
X120988D01*
X120488Y63649D02*
Y64649D01*
X111327Y59818D02*
X112327D01*
X111827Y59318D02*
Y60318D01*
X115657Y59818D02*
X116657D01*
X116157Y59318D02*
Y60318D01*
X119988Y59818D02*
X120988D01*
X120488Y59318D02*
Y60318D01*
X111327Y55487D02*
X112327D01*
X111827Y54987D02*
Y55987D01*
X115657Y55487D02*
X116657D01*
X116157Y54987D02*
Y55987D01*
X119988Y55487D02*
X120988D01*
X120488Y54987D02*
Y55987D01*
X111327Y68480D02*
X112327D01*
X111827Y67980D02*
Y68980D01*
X156095Y179134D02*
X157095D01*
X156595Y178634D02*
Y179634D01*
X167217Y155315D02*
X168217D01*
X167717Y154815D02*
Y155815D01*
X152157Y199311D02*
X153157D01*
X152657Y198811D02*
Y199811D01*
X158457Y205709D02*
X159457D01*
X158957Y205209D02*
Y206209D01*
X147925Y178740D02*
X148925D01*
X148425Y178240D02*
Y179240D01*
X143597Y175194D02*
X144597D01*
X144097Y174694D02*
Y175694D01*
X119658Y191932D02*
X120658D01*
X120158Y191432D02*
Y192432D01*
X117413Y189823D02*
X118413D01*
X117913Y189323D02*
Y190323D01*
X189357Y103778D02*
X190357D01*
X189857Y103278D02*
Y104278D01*
X167118Y163091D02*
X168118D01*
X167618Y162591D02*
Y163591D01*
X181634Y245228D02*
X182634D01*
X182134Y244728D02*
Y245728D01*
X146547Y193405D02*
X147547D01*
X147047Y192905D02*
Y193905D01*
X162295Y151575D02*
X163295D01*
X162795Y151075D02*
Y152075D01*
X180681Y148773D02*
X181681D01*
X181181Y148273D02*
Y149273D01*
X181587Y175984D02*
X182587D01*
X182087Y175484D02*
Y176484D01*
X171933Y196397D02*
X173433D01*
X172683Y195647D02*
Y197147D01*
M02*
