G04 Layer_Color=128*
%FSLAX25Y25*%
%MOIN*%
G70*
G01*
G75*
%ADD157C,0.00200*%
G54D157*
X273775Y-3775D02*
X279775D01*
X276775Y-6775D02*
Y-775D01*
X273775Y-36275D02*
X279775D01*
X276775Y-39275D02*
Y-33275D01*
X273775Y-68775D02*
X279775D01*
X276775Y-71775D02*
Y-65775D01*
X273775Y-101275D02*
X279775D01*
X276775Y-104275D02*
Y-98275D01*
X273775Y-133775D02*
X279775D01*
X276775Y-136775D02*
Y-130775D01*
X273775Y-166275D02*
X279775D01*
X276775Y-169275D02*
Y-163275D01*
X162972Y34346D02*
X166515D01*
X164743Y32574D02*
Y36117D01*
X172972Y34346D02*
X176515D01*
X174743Y32574D02*
Y36117D01*
X162972Y24346D02*
X166515D01*
X164743Y22574D02*
Y26117D01*
X172972Y24346D02*
X176515D01*
X174743Y22574D02*
Y26117D01*
X162972Y14346D02*
X166515D01*
X164743Y12574D02*
Y16117D01*
X172972Y14346D02*
X176515D01*
X174743Y12574D02*
Y16117D01*
X162972Y4346D02*
X166515D01*
X164743Y2574D02*
Y6117D01*
X172972Y4346D02*
X176515D01*
X174743Y2574D02*
Y6117D01*
X162972Y-5654D02*
X166515D01*
X164743Y-7426D02*
Y-3883D01*
X172972Y-5654D02*
X176515D01*
X174743Y-7426D02*
Y-3883D01*
X-42500Y-213000D02*
X-38500D01*
X-40500Y-215000D02*
Y-211000D01*
X-32500Y-213000D02*
X-28500D01*
X-30500Y-215000D02*
Y-211000D01*
X-22500Y-213000D02*
X-18500D01*
X-20500Y-215000D02*
Y-211000D01*
X-12500Y-213000D02*
X-8500D01*
X-10500Y-215000D02*
Y-211000D01*
X38681Y-213000D02*
X42681D01*
X40681Y-215000D02*
Y-211000D01*
X28681Y-213000D02*
X32681D01*
X30681Y-215000D02*
Y-211000D01*
X18681Y-213000D02*
X22681D01*
X20681Y-215000D02*
Y-211000D01*
X8681Y-213000D02*
X12681D01*
X10681Y-215000D02*
Y-211000D01*
X59862Y-185441D02*
X63862D01*
X61862Y-187441D02*
Y-183441D01*
X69862Y-185441D02*
X73862D01*
X71862Y-187441D02*
Y-183441D01*
X79862Y-185441D02*
X83862D01*
X81862Y-187441D02*
Y-183441D01*
X89862Y-185441D02*
X93862D01*
X91862Y-187441D02*
Y-183441D01*
X89862Y-213000D02*
X93862D01*
X91862Y-215000D02*
Y-211000D01*
X79862Y-213000D02*
X83862D01*
X81862Y-215000D02*
Y-211000D01*
X69862Y-213000D02*
X73862D01*
X71862Y-215000D02*
Y-211000D01*
X59862Y-213000D02*
X63862D01*
X61862Y-215000D02*
Y-211000D01*
X111083Y-212961D02*
X115083D01*
X113083Y-214961D02*
Y-210961D01*
X121083Y-212961D02*
X125083D01*
X123083Y-214961D02*
Y-210961D01*
X131083Y-212961D02*
X135083D01*
X133083Y-214961D02*
Y-210961D01*
X141083Y-212961D02*
X145083D01*
X143083Y-214961D02*
Y-210961D01*
X52695Y35043D02*
X56695D01*
X54695Y33042D02*
Y37042D01*
X42695Y35043D02*
X46695D01*
X44695Y33042D02*
Y37042D01*
X32695Y35043D02*
X36695D01*
X34695Y33042D02*
Y37042D01*
X22695Y35043D02*
X26695D01*
X24695Y33042D02*
Y37042D01*
X128703Y3675D02*
X132246D01*
X130475Y1903D02*
Y5446D01*
X128703Y-6325D02*
X132246D01*
X130475Y-8097D02*
Y-4553D01*
X118703Y3675D02*
X122247D01*
X120475Y1903D02*
Y5446D01*
X118703Y-6325D02*
X122247D01*
X120475Y-8097D02*
Y-4553D01*
X108703Y3675D02*
X112247D01*
X110475Y1903D02*
Y5446D01*
X108703Y-6325D02*
X112247D01*
X110475Y-8097D02*
Y-4553D01*
X98703Y3675D02*
X102246D01*
X100475Y1903D02*
Y5446D01*
X98703Y-6325D02*
X102246D01*
X100475Y-8097D02*
Y-4553D01*
X88703Y3675D02*
X92247D01*
X90475Y1903D02*
Y5446D01*
X88703Y-6325D02*
X92247D01*
X90475Y-8097D02*
Y-4553D01*
X128703Y41175D02*
X132246D01*
X130475Y39403D02*
Y42946D01*
X128703Y31175D02*
X132246D01*
X130475Y29403D02*
Y32946D01*
X118703Y41175D02*
X122247D01*
X120475Y39403D02*
Y42946D01*
X118703Y31175D02*
X122247D01*
X120475Y29403D02*
Y32946D01*
X108703Y41175D02*
X112247D01*
X110475Y39403D02*
Y42946D01*
X108703Y31175D02*
X112247D01*
X110475Y29403D02*
Y32946D01*
X98703Y41175D02*
X102246D01*
X100475Y39403D02*
Y42946D01*
X98703Y31175D02*
X102246D01*
X100475Y29403D02*
Y32946D01*
X88703Y41175D02*
X92247D01*
X90475Y39403D02*
Y42946D01*
X88703Y31175D02*
X92247D01*
X90475Y29403D02*
Y32946D01*
X-9100Y35000D02*
X-5100D01*
X-7100Y33000D02*
Y37000D01*
X900Y35000D02*
X4900D01*
X2900Y33000D02*
Y37000D01*
X-41200Y35000D02*
X-37200D01*
X-39200Y33000D02*
Y37000D01*
X-31200Y35000D02*
X-27200D01*
X-29200Y33000D02*
Y37000D01*
X170375Y-82525D02*
X174375D01*
X172375Y-84525D02*
Y-80525D01*
X170375Y-92525D02*
X174375D01*
X172375Y-94525D02*
Y-90525D01*
X170375Y-102525D02*
X174375D01*
X172375Y-104525D02*
Y-100525D01*
X170475Y-41125D02*
X174475D01*
X172475Y-43125D02*
Y-39125D01*
X170475Y-51125D02*
X174475D01*
X172475Y-53125D02*
Y-49125D01*
X170475Y-61125D02*
X174475D01*
X172475Y-63125D02*
Y-59125D01*
X146114Y-51060D02*
X150114D01*
X148114Y-53060D02*
Y-49060D01*
X146114Y-41060D02*
X150114D01*
X148114Y-43060D02*
Y-39060D01*
X146114Y-113265D02*
X150114D01*
X148114Y-115265D02*
Y-111265D01*
X146114Y-103265D02*
X150114D01*
X148114Y-105265D02*
Y-101265D01*
X191425Y-128925D02*
X196925D01*
X194175Y-131675D02*
Y-126175D01*
X171425Y-128925D02*
X176925D01*
X174175Y-131675D02*
Y-126175D01*
X-15573Y-16769D02*
X-11772D01*
X-13672Y-18669D02*
Y-14869D01*
X-15573Y-26769D02*
X-11772D01*
X-13672Y-28669D02*
Y-24869D01*
X-25572Y-16769D02*
X-21772D01*
X-23673Y-18669D02*
Y-14869D01*
X-25572Y-26769D02*
X-21772D01*
X-23673Y-28669D02*
Y-24869D01*
X-35572Y-16769D02*
X-31772D01*
X-33672Y-18669D02*
Y-14869D01*
X-35572Y-26769D02*
X-31772D01*
X-33672Y-28669D02*
Y-24869D01*
X-65291Y-94957D02*
X-56591D01*
X-60941Y-99307D02*
Y-90607D01*
X-65291Y-47635D02*
X-56591D01*
X-60941Y-51985D02*
Y-43285D01*
X-52141Y-76257D02*
X-48341D01*
X-50241Y-78157D02*
Y-74357D01*
X-52141Y-66335D02*
X-48341D01*
X-50241Y-68235D02*
Y-64435D01*
X-44241Y-66335D02*
X-40441D01*
X-42341Y-68235D02*
Y-64435D01*
X-44241Y-76257D02*
X-40441D01*
X-42341Y-78157D02*
Y-74357D01*
X-70802Y-18128D02*
X-64902D01*
X-67852Y-21078D02*
Y-15178D01*
X-70802Y9472D02*
X-64902D01*
X-67852Y6522D02*
Y12422D01*
X-79652Y-13228D02*
X-75652D01*
X-77652Y-15228D02*
Y-11228D01*
X-79652Y4572D02*
X-75652D01*
X-77652Y2572D02*
Y6572D01*
X299295Y-205115D02*
X311106D01*
X305201Y-211020D02*
Y-199209D01*
X304451Y-215115D02*
X305951D01*
X305201Y-215865D02*
Y-214365D01*
X304451Y-195115D02*
X305951D01*
X305201Y-195865D02*
Y-194365D01*
X314451Y-205115D02*
X315951D01*
X315201Y-205865D02*
Y-204365D01*
X294451Y-205115D02*
X295951D01*
X295201Y-205865D02*
Y-204365D01*
X297451Y-198115D02*
X298951D01*
X298201Y-198865D02*
Y-197365D01*
X311451Y-198115D02*
X312951D01*
X312201Y-198865D02*
Y-197365D01*
X311451Y-212115D02*
X312951D01*
X312201Y-212865D02*
Y-211365D01*
X297451Y-212115D02*
X298951D01*
X298201Y-212865D02*
Y-211365D01*
X313142Y-182674D02*
X317142D01*
X315142Y-184674D02*
Y-180674D01*
X299295Y35043D02*
X311106D01*
X305201Y29137D02*
Y40948D01*
X304451Y25043D02*
X305951D01*
X305201Y24293D02*
Y25793D01*
X304451Y45042D02*
X305951D01*
X305201Y44293D02*
Y45792D01*
X314451Y35043D02*
X315951D01*
X315201Y34293D02*
Y35792D01*
X294451Y35043D02*
X295951D01*
X295201Y34293D02*
Y35792D01*
X297451Y42042D02*
X298951D01*
X298201Y41293D02*
Y42792D01*
X311451Y42042D02*
X312951D01*
X312201Y41293D02*
Y42792D01*
X311451Y28043D02*
X312951D01*
X312201Y27292D02*
Y28793D01*
X297451Y28043D02*
X298951D01*
X298201Y27292D02*
Y28793D01*
X-74721Y35043D02*
X-62910D01*
X-68815Y29137D02*
Y40948D01*
X-69565Y25043D02*
X-68065D01*
X-68815Y24293D02*
Y25793D01*
X-69565Y45042D02*
X-68065D01*
X-68815Y44293D02*
Y45792D01*
X-59565Y35043D02*
X-58065D01*
X-58815Y34293D02*
Y35792D01*
X-79565Y35043D02*
X-78065D01*
X-78815Y34293D02*
Y35792D01*
X-76565Y42042D02*
X-75065D01*
X-75815Y41293D02*
Y42792D01*
X-62565Y42042D02*
X-61065D01*
X-61815Y41293D02*
Y42792D01*
X-62565Y28043D02*
X-61065D01*
X-61815Y27292D02*
Y28793D01*
X-76565Y28043D02*
X-75065D01*
X-75815Y27292D02*
Y28793D01*
X-74721Y-205115D02*
X-62910D01*
X-68815Y-211020D02*
Y-199209D01*
X-69565Y-215115D02*
X-68065D01*
X-68815Y-215865D02*
Y-214365D01*
X-69565Y-195115D02*
X-68065D01*
X-68815Y-195865D02*
Y-194365D01*
X-59565Y-205115D02*
X-58065D01*
X-58815Y-205865D02*
Y-204365D01*
X-79565Y-205115D02*
X-78065D01*
X-78815Y-205865D02*
Y-204365D01*
X-76565Y-198115D02*
X-75065D01*
X-75815Y-198865D02*
Y-197365D01*
X-62565Y-198115D02*
X-61065D01*
X-61815Y-198865D02*
Y-197365D01*
X-62565Y-212115D02*
X-61065D01*
X-61815Y-212865D02*
Y-211365D01*
X-76565Y-212115D02*
X-75065D01*
X-75815Y-212865D02*
Y-211365D01*
X225820Y-157686D02*
X232120D01*
X228970Y-160836D02*
Y-154536D01*
X212420Y-157686D02*
X218720D01*
X215570Y-160836D02*
Y-154536D01*
X212420Y-210686D02*
X218720D01*
X215570Y-213836D02*
Y-207536D01*
X225820Y-210686D02*
X232120D01*
X228970Y-213836D02*
Y-207536D01*
X241925Y-56425D02*
X248225D01*
X245075Y-59575D02*
Y-53275D01*
X255325Y-56425D02*
X261625D01*
X258475Y-59575D02*
Y-53275D01*
X255325Y-109425D02*
X261625D01*
X258475Y-112575D02*
Y-106275D01*
X241925Y-109425D02*
X248225D01*
X245075Y-112575D02*
Y-106275D01*
X272575Y29375D02*
X276575D01*
X274575Y27375D02*
Y31375D01*
X272575Y39375D02*
X276575D01*
X274575Y37375D02*
Y41375D01*
X146114Y-82162D02*
X150114D01*
X148114Y-84162D02*
Y-80162D01*
X146114Y-72162D02*
X150114D01*
X148114Y-74162D02*
Y-70162D01*
X-31200Y10900D02*
X-27200D01*
X-29200Y8900D02*
Y12900D01*
X-41200Y10900D02*
X-37200D01*
X-39200Y8900D02*
Y12900D01*
X-2520Y0D02*
X2520D01*
X0Y-2520D02*
Y2520D01*
X-2520Y10000D02*
X2520D01*
X0Y7480D02*
Y12520D01*
X7480Y0D02*
X12520D01*
X10000Y-2520D02*
Y2520D01*
X7480Y10000D02*
X12520D01*
X10000Y7480D02*
Y12520D01*
X17480Y0D02*
X22520D01*
X20000Y-2520D02*
Y2520D01*
X17480Y10000D02*
X22520D01*
X20000Y7480D02*
Y12520D01*
X27480Y0D02*
X32520D01*
X30000Y-2520D02*
Y2520D01*
X27480Y10000D02*
X32520D01*
X30000Y7480D02*
Y12520D01*
X37480Y0D02*
X42520D01*
X40000Y-2520D02*
Y2520D01*
X37480Y10000D02*
X42520D01*
X40000Y7480D02*
Y12520D01*
X47480Y0D02*
X52520D01*
X50000Y-2520D02*
Y2520D01*
X47480Y10000D02*
X52520D01*
X50000Y7480D02*
Y12520D01*
X57480Y0D02*
X62520D01*
X60000Y-2520D02*
Y2520D01*
X57480Y10000D02*
X62520D01*
X60000Y7480D02*
Y12520D01*
X254825Y-157725D02*
X261125D01*
X257975Y-160875D02*
Y-154575D01*
X241425Y-157725D02*
X247725D01*
X244575Y-160875D02*
Y-154575D01*
X241425Y-210725D02*
X247725D01*
X244575Y-213875D02*
Y-207575D01*
X254825Y-210725D02*
X261125D01*
X257975Y-213875D02*
Y-207575D01*
X257150Y-200800D02*
X258650D01*
X257900Y-201550D02*
Y-200050D01*
X250650Y-166200D02*
X252150D01*
X251400Y-166950D02*
Y-165450D01*
X241043Y14432D02*
X242043D01*
X241543Y13932D02*
Y14932D01*
X237106Y14432D02*
X238106D01*
X237606Y13932D02*
Y14932D01*
X237106Y18369D02*
X238106D01*
X237606Y17869D02*
Y18869D01*
X241043Y18369D02*
X242043D01*
X241543Y17869D02*
Y18869D01*
X244980Y18369D02*
X245980D01*
X245480Y17869D02*
Y18869D01*
X244980Y14432D02*
X245980D01*
X245480Y13932D02*
Y14932D01*
X244980Y10495D02*
X245980D01*
X245480Y9995D02*
Y10995D01*
X241043Y10495D02*
X242043D01*
X241543Y9995D02*
Y10995D01*
X237106Y10495D02*
X238106D01*
X237606Y9995D02*
Y10995D01*
X-9425Y-52225D02*
X-8425D01*
X-8925Y-52725D02*
Y-51725D01*
X-9425Y-48485D02*
X-8425D01*
X-8925Y-48985D02*
Y-47985D01*
X-13194Y-48449D02*
X-12194D01*
X-12694Y-48949D02*
Y-47949D01*
X-13146Y-52225D02*
X-12146D01*
X-12646Y-52725D02*
Y-51725D01*
X-13165Y-56064D02*
X-12165D01*
X-12665Y-56564D02*
Y-55564D01*
X-9425Y-55965D02*
X-8425D01*
X-8925Y-56465D02*
Y-55465D01*
X-5685Y-55965D02*
X-4685D01*
X-5185Y-56465D02*
Y-55465D01*
X-5685Y-52225D02*
X-4685D01*
X-5185Y-52725D02*
Y-51725D01*
X-5685Y-48485D02*
X-4685D01*
X-5185Y-48985D02*
Y-47985D01*
X198550Y-80600D02*
X200050D01*
X199300Y-81350D02*
Y-79850D01*
X208150Y-181600D02*
X209650D01*
X208900Y-182350D02*
Y-180850D01*
X208150Y-176600D02*
X209650D01*
X208900Y-177350D02*
Y-175850D01*
X208150Y-171700D02*
X209650D01*
X208900Y-172450D02*
Y-170950D01*
X198525Y-104375D02*
X199525D01*
X199025Y-104875D02*
Y-103875D01*
X208450Y-99600D02*
X209950D01*
X209200Y-100350D02*
Y-98850D01*
X201725Y-90825D02*
X203225D01*
X202475Y-91575D02*
Y-90075D01*
X189500Y-72900D02*
X190500D01*
X190000Y-73400D02*
Y-72400D01*
X191500Y-73000D02*
X192500D01*
X192000Y-73500D02*
Y-72500D01*
X-81100Y-46200D02*
X-80100D01*
X-80600Y-46700D02*
Y-45700D01*
X-73750Y-47300D02*
X-72250D01*
X-73000Y-48050D02*
Y-46550D01*
X184850Y-69800D02*
X186350D01*
X185600Y-70550D02*
Y-69050D01*
X160125Y-139625D02*
X161625D01*
X160875Y-140375D02*
Y-138875D01*
X157175Y-123025D02*
X158175D01*
X157675Y-123525D02*
Y-122525D01*
X34475Y-8125D02*
X35475D01*
X34975Y-8625D02*
Y-7625D01*
X124825Y-65025D02*
X126325D01*
X125575Y-65775D02*
Y-64275D01*
X217458Y-57771D02*
X218958D01*
X218208Y-58521D02*
Y-57021D01*
X215125Y-63625D02*
X216625D01*
X215875Y-64375D02*
Y-62875D01*
X141600Y-23400D02*
X142600D01*
X142100Y-23900D02*
Y-22900D01*
X252400Y-123200D02*
X253400D01*
X252900Y-123700D02*
Y-122700D01*
X260100Y-126500D02*
X261100D01*
X260600Y-127000D02*
Y-126000D01*
X109100Y-64800D02*
X110100D01*
X109600Y-65300D02*
Y-64300D01*
X113775Y-64025D02*
X114775D01*
X114275Y-64525D02*
Y-63525D01*
X261850Y3100D02*
X263350D01*
X262600Y2350D02*
Y3850D01*
X205300Y-51900D02*
X206300D01*
X205800Y-52400D02*
Y-51400D01*
X200500Y-51900D02*
X201500D01*
X201000Y-52400D02*
Y-51400D01*
X17300Y49600D02*
X18300D01*
X17800Y49100D02*
Y50100D01*
X26500Y49100D02*
X27500D01*
X27000Y48600D02*
Y49600D01*
X2875Y-69325D02*
X3875D01*
X3375Y-69825D02*
Y-68825D01*
X12675Y31375D02*
X13675D01*
X13175Y30875D02*
Y31875D01*
X-24425Y16775D02*
X-23425D01*
X-23925Y16275D02*
Y17275D01*
X-5825Y19875D02*
X-4825D01*
X-5325Y19375D02*
Y20375D01*
X292575Y-28825D02*
X293575D01*
X293075Y-29325D02*
Y-28325D01*
X318775Y-133825D02*
X319775D01*
X319275Y-134325D02*
Y-133325D01*
X262575Y-179025D02*
X263575D01*
X263075Y-179525D02*
Y-178525D01*
X225725Y-179725D02*
X227225D01*
X226475Y-180475D02*
Y-178975D01*
X31075Y-33225D02*
X32075D01*
X31575Y-33725D02*
Y-32725D01*
X38275Y-32125D02*
X39275D01*
X38775Y-32625D02*
Y-31625D01*
X40075Y-28825D02*
X41075D01*
X40575Y-29325D02*
Y-28325D01*
X100100Y-70200D02*
X101100D01*
X100600Y-70700D02*
Y-69700D01*
X32970Y-43925D02*
X33970D01*
X33470Y-44425D02*
Y-43425D01*
X4475Y-10525D02*
X5475D01*
X4975Y-11025D02*
Y-10025D01*
X4475Y7375D02*
X5475D01*
X4975Y6875D02*
Y7875D01*
X4575Y-3125D02*
X5575D01*
X5075Y-3625D02*
Y-2625D01*
X-2250Y23100D02*
X-750D01*
X-1500Y22350D02*
Y23850D01*
X750Y23100D02*
X2250D01*
X1500Y22350D02*
Y23850D01*
X7750Y23100D02*
X9250D01*
X8500Y22350D02*
Y23850D01*
X13825Y20075D02*
X15325D01*
X14575Y19325D02*
Y20825D01*
X34575Y12175D02*
X35575D01*
X35075Y11675D02*
Y12675D01*
X55775Y-13925D02*
X56775D01*
X56275Y-14425D02*
Y-13425D01*
X45475Y-25925D02*
X46475D01*
X45975Y-26425D02*
Y-25425D01*
X44675Y-21625D02*
X45675D01*
X45175Y-22125D02*
Y-21125D01*
X56475Y-63225D02*
X57475D01*
X56975Y-63725D02*
Y-62725D01*
X108700Y-174500D02*
X109700D01*
X109200Y-175000D02*
Y-174000D01*
X98898Y-166548D02*
X99898D01*
X99398Y-167048D02*
Y-166048D01*
X92575Y-168925D02*
X93575D01*
X93075Y-169425D02*
Y-168425D01*
X72875Y-159825D02*
X73875D01*
X73375Y-160325D02*
Y-159325D01*
X69175Y-168625D02*
X70175D01*
X69675Y-169125D02*
Y-168125D01*
X139875Y-33525D02*
X140875D01*
X140375Y-34025D02*
Y-33025D01*
X109000Y-59700D02*
X110000D01*
X109500Y-60200D02*
Y-59200D01*
X202575Y50575D02*
X203575D01*
X203075Y50075D02*
Y51075D01*
X198875Y50475D02*
X199875D01*
X199375Y49975D02*
Y50975D01*
X211025Y-28525D02*
X212525D01*
X211775Y-29275D02*
Y-27775D01*
X210825Y-42825D02*
X212325D01*
X211575Y-43575D02*
Y-42075D01*
X261575Y47175D02*
X262575D01*
X262075Y46675D02*
Y47675D01*
X261075Y43475D02*
X262075D01*
X261575Y42975D02*
Y43975D01*
X155675Y-6325D02*
X156675D01*
X156175Y-6825D02*
Y-5825D01*
X34700Y-18900D02*
X35700D01*
X35200Y-19400D02*
Y-18400D01*
X58875Y-80125D02*
X59875D01*
X59375Y-80625D02*
Y-79625D01*
X81375Y-108525D02*
X82375D01*
X81875Y-109025D02*
Y-108025D01*
X87075Y-47725D02*
X88075D01*
X87575Y-48225D02*
Y-47225D01*
X88575Y-89125D02*
X89575D01*
X89075Y-89625D02*
Y-88625D01*
X125553Y-29447D02*
X126553D01*
X126053Y-29947D02*
Y-28947D01*
X118975Y-27825D02*
X119975D01*
X119475Y-28325D02*
Y-27325D01*
X276025Y5975D02*
X277525D01*
X276775Y5225D02*
Y6725D01*
X67000Y-93600D02*
X68000D01*
X67500Y-94100D02*
Y-93100D01*
X55700Y-189300D02*
X56700D01*
X56200Y-189800D02*
Y-188800D01*
X229188Y-41948D02*
X230188D01*
X229688Y-42448D02*
Y-41448D01*
X233188Y-41948D02*
X234188D01*
X233688Y-42448D02*
Y-41448D01*
X233188Y-37948D02*
X234188D01*
X233688Y-38448D02*
Y-37448D01*
X229188Y-37948D02*
X230188D01*
X229688Y-38448D02*
Y-37448D01*
X229188Y-33948D02*
X230188D01*
X229688Y-34448D02*
Y-33448D01*
X233188Y-33948D02*
X234188D01*
X233688Y-34448D02*
Y-33448D01*
X233188Y-29948D02*
X234188D01*
X233688Y-30448D02*
Y-29448D01*
X229188Y-29948D02*
X230188D01*
X229688Y-30448D02*
Y-29448D01*
X221188Y-29948D02*
X222188D01*
X221688Y-30448D02*
Y-29448D01*
X217188Y-29948D02*
X218188D01*
X217688Y-30448D02*
Y-29448D01*
X217188Y-33948D02*
X218188D01*
X217688Y-34448D02*
Y-33448D01*
X221188Y-33948D02*
X222188D01*
X221688Y-34448D02*
Y-33448D01*
X221188Y-37948D02*
X222188D01*
X221688Y-38448D02*
Y-37448D01*
X217188Y-37948D02*
X218188D01*
X217688Y-38448D02*
Y-37448D01*
X217188Y-41948D02*
X218188D01*
X217688Y-42448D02*
Y-41448D01*
X221188Y-41948D02*
X222188D01*
X221688Y-42448D02*
Y-41448D01*
X225188Y-41948D02*
X226188D01*
X225688Y-42448D02*
Y-41448D01*
X225188Y-37948D02*
X226188D01*
X225688Y-38448D02*
Y-37448D01*
X225188Y-29948D02*
X226188D01*
X225688Y-30448D02*
Y-29448D01*
X225188Y-33948D02*
X226188D01*
X225688Y-34448D02*
Y-33448D01*
X184656Y-174057D02*
X185656D01*
X185156Y-174557D02*
Y-173557D01*
X180656Y-174057D02*
X181656D01*
X181156Y-174557D02*
Y-173557D01*
X188656Y-174057D02*
X189656D01*
X189156Y-174557D02*
Y-173557D01*
X192656Y-174057D02*
X193656D01*
X193156Y-174557D02*
Y-173557D01*
X192656Y-178058D02*
X193656D01*
X193156Y-178558D02*
Y-177558D01*
X192656Y-182057D02*
X193656D01*
X193156Y-182557D02*
Y-181558D01*
X188656Y-182057D02*
X189656D01*
X189156Y-182557D02*
Y-181558D01*
X188656Y-178058D02*
X189656D01*
X189156Y-178558D02*
Y-177558D01*
X184656Y-178058D02*
X185656D01*
X185156Y-178558D02*
Y-177558D01*
X184656Y-182057D02*
X185656D01*
X185156Y-182557D02*
Y-181558D01*
X180656Y-182057D02*
X181656D01*
X181156Y-182557D02*
Y-181558D01*
X180656Y-178058D02*
X181656D01*
X181156Y-178558D02*
Y-177558D01*
X180656Y-170057D02*
X181656D01*
X181156Y-170557D02*
Y-169557D01*
X180656Y-166058D02*
X181656D01*
X181156Y-166558D02*
Y-165558D01*
X184656Y-166058D02*
X185656D01*
X185156Y-166558D02*
Y-165558D01*
X184656Y-170057D02*
X185656D01*
X185156Y-170557D02*
Y-169557D01*
X188656Y-170057D02*
X189656D01*
X189156Y-170557D02*
Y-169557D01*
X188656Y-166058D02*
X189656D01*
X189156Y-166558D02*
Y-165558D01*
X192656Y-166058D02*
X193656D01*
X193156Y-166558D02*
Y-165558D01*
X192656Y-170057D02*
X193656D01*
X193156Y-170557D02*
Y-169557D01*
X88600Y-92200D02*
X89600D01*
X89100Y-92700D02*
Y-91700D01*
X-59625Y-34825D02*
X-58625D01*
X-59125Y-35325D02*
Y-34325D01*
X26675Y-33925D02*
X27675D01*
X27175Y-34425D02*
Y-33425D01*
X133100Y12200D02*
X134100D01*
X133600Y11700D02*
Y12700D01*
X129700Y12200D02*
X130700D01*
X130200Y11700D02*
Y12700D01*
X141475Y-16925D02*
X142475D01*
X141975Y-17425D02*
Y-16425D01*
X113975Y-71425D02*
X114975D01*
X114475Y-71925D02*
Y-70925D01*
X93400Y24100D02*
X94400D01*
X93900Y23600D02*
Y24600D01*
X56075Y-27025D02*
X57075D01*
X56575Y-27525D02*
Y-26525D01*
X12300Y-13500D02*
X13300D01*
X12800Y-14000D02*
Y-13000D01*
X-13200Y-4900D02*
X-12200D01*
X-12700Y-5400D02*
Y-4400D01*
X-55700Y-14000D02*
X-54700D01*
X-55200Y-14500D02*
Y-13500D01*
X32100Y-75400D02*
X33100D01*
X32600Y-75900D02*
Y-74900D01*
X40750Y23100D02*
X42250D01*
X41500Y22350D02*
Y23850D01*
X37750Y23100D02*
X39250D01*
X38500Y22350D02*
Y23850D01*
X54500Y8500D02*
X55500D01*
X55000Y8000D02*
Y9000D01*
X63750Y13900D02*
X65250D01*
X64500Y13150D02*
Y14650D01*
X63750Y20000D02*
X65250D01*
X64500Y19250D02*
Y20750D01*
X83700Y-9700D02*
X84700D01*
X84200Y-10200D02*
Y-9200D01*
X133775Y-1425D02*
X134775D01*
X134275Y-1925D02*
Y-925D01*
X58175Y-49525D02*
X59175D01*
X58675Y-50025D02*
Y-49025D01*
X58200Y-67800D02*
X59200D01*
X58700Y-68300D02*
Y-67300D01*
X62800Y-80000D02*
X63800D01*
X63300Y-80500D02*
Y-79500D01*
X74475Y-80525D02*
X75475D01*
X74975Y-81025D02*
Y-80025D01*
X91600Y-76200D02*
X92600D01*
X92100Y-76700D02*
Y-75700D01*
X113375Y-148825D02*
X114375D01*
X113875Y-149325D02*
Y-148325D01*
X27500Y-196000D02*
X28500D01*
X28000Y-196500D02*
Y-195500D01*
X-52325Y-174325D02*
X-51325D01*
X-51825Y-174825D02*
Y-173825D01*
X135375Y-174425D02*
X136375D01*
X135875Y-174925D02*
Y-173925D01*
X134875Y-178025D02*
X135875D01*
X135375Y-178525D02*
Y-177525D01*
X-11225Y-126225D02*
X-10225D01*
X-10725Y-126725D02*
Y-125725D01*
X-27387Y-151325D02*
X-26387D01*
X-26887Y-151825D02*
Y-150825D01*
X-28187Y-149125D02*
X-27187D01*
X-27687Y-149625D02*
Y-148625D01*
X-50825Y-170725D02*
X-49825D01*
X-50325Y-171225D02*
Y-170225D01*
X-72300Y-172890D02*
X-71300D01*
X-71800Y-173390D02*
Y-172390D01*
X-72925Y-145525D02*
X-71925D01*
X-72425Y-146025D02*
Y-145025D01*
X-72300Y-170590D02*
X-71300D01*
X-71800Y-171090D02*
Y-170090D01*
X-10825Y-137425D02*
X-9825D01*
X-10325Y-137925D02*
Y-136925D01*
X-5925Y-135025D02*
X-4925D01*
X-5425Y-135525D02*
Y-134525D01*
X247125Y38875D02*
X248625D01*
X247875Y38125D02*
Y39625D01*
X239825Y30775D02*
X241325D01*
X240575Y30025D02*
Y31525D01*
X239825Y38175D02*
X241325D01*
X240575Y37425D02*
Y38925D01*
X239825Y34475D02*
X241325D01*
X240575Y33725D02*
Y35225D01*
X202575Y-68625D02*
X203575D01*
X203075Y-69125D02*
Y-68125D01*
X187200Y-82400D02*
X188200D01*
X187700Y-82900D02*
Y-81900D01*
X131975Y-113025D02*
X132975D01*
X132475Y-113525D02*
Y-112525D01*
X115525Y-109925D02*
X117025D01*
X116275Y-110675D02*
Y-109175D01*
X115775Y-118125D02*
X116775D01*
X116275Y-118625D02*
Y-117625D01*
X-38175Y-35325D02*
X-36675D01*
X-37425Y-36075D02*
Y-34575D01*
X-44175Y-35325D02*
X-42675D01*
X-43425Y-36075D02*
Y-34575D01*
X-53475Y-26725D02*
X-51975D01*
X-52725Y-27475D02*
Y-25975D01*
X-51258Y-29325D02*
X-49758D01*
X-50508Y-30075D02*
Y-28575D01*
X-37775Y-89325D02*
X-36275D01*
X-37025Y-90075D02*
Y-88575D01*
X-20675Y-93625D02*
X-19175D01*
X-19925Y-94375D02*
Y-92875D01*
X-20675Y-96825D02*
X-19175D01*
X-19925Y-97575D02*
Y-96075D01*
X-37675Y-96725D02*
X-36175D01*
X-36925Y-97475D02*
Y-95975D01*
X-37675Y-93525D02*
X-36175D01*
X-36925Y-94275D02*
Y-92775D01*
X-24275Y-63225D02*
X-22775D01*
X-23525Y-63975D02*
Y-62475D01*
X3824Y-65634D02*
X4824D01*
X4324Y-66134D02*
Y-65134D01*
X-4525Y-66125D02*
X-3525D01*
X-4025Y-66625D02*
Y-65625D01*
X-4325Y-77325D02*
X-3325D01*
X-3825Y-77825D02*
Y-76825D01*
X-2700Y-88800D02*
X-1700D01*
X-2200Y-89300D02*
Y-88300D01*
X35975Y-89725D02*
X36975D01*
X36475Y-90225D02*
Y-89225D01*
X30525Y-57225D02*
X32025D01*
X31275Y-57975D02*
Y-56475D01*
X26575Y-88525D02*
X27575D01*
X27075Y-89025D02*
Y-88025D01*
X19200Y-44700D02*
X20200D01*
X19700Y-45200D02*
Y-44200D01*
X24200Y-53600D02*
X25200D01*
X24700Y-54100D02*
Y-53100D01*
X28375Y-95525D02*
X29375D01*
X28875Y-96025D02*
Y-95025D01*
X36175Y-92825D02*
X37175D01*
X36675Y-93325D02*
Y-92325D01*
X73675Y-49125D02*
X74675D01*
X74175Y-49625D02*
Y-48625D01*
X89375Y-45625D02*
X90375D01*
X89875Y-46125D02*
Y-45125D01*
X93454Y-81025D02*
X94454D01*
X93954Y-81525D02*
Y-80525D01*
X58475Y-110225D02*
X59475D01*
X58975Y-110725D02*
Y-109725D01*
X48858Y-49525D02*
X49858D01*
X49358Y-50025D02*
Y-49025D01*
X51957Y-49525D02*
X52957D01*
X52457Y-50025D02*
Y-49025D01*
X55075Y-49525D02*
X56075D01*
X55575Y-50025D02*
Y-49025D01*
X48875Y-58825D02*
X49875D01*
X49375Y-59325D02*
Y-58325D01*
X48858Y-63225D02*
X49858D01*
X49358Y-63725D02*
Y-62725D01*
X51957Y-63225D02*
X52957D01*
X52457Y-63725D02*
Y-62725D01*
X51957Y-67725D02*
X52957D01*
X52457Y-68225D02*
Y-67225D01*
X48858Y-73225D02*
X49858D01*
X49358Y-73725D02*
Y-72725D01*
X55058Y-73225D02*
X56058D01*
X55558Y-73725D02*
Y-72725D01*
X55600Y-80100D02*
X56600D01*
X56100Y-80600D02*
Y-79600D01*
X34400Y-78200D02*
X35400D01*
X34900Y-78700D02*
Y-77700D01*
X99654Y-81025D02*
X100654D01*
X100154Y-81525D02*
Y-80525D01*
X110875Y-71325D02*
X111875D01*
X111375Y-71825D02*
Y-70825D01*
X111975Y-99225D02*
X112975D01*
X112475Y-99725D02*
Y-98725D01*
X96553Y-81025D02*
X97553D01*
X97053Y-81525D02*
Y-80525D01*
X51975Y-58825D02*
X52975D01*
X52475Y-59325D02*
Y-58325D01*
X55058Y-67725D02*
X56058D01*
X55558Y-68225D02*
Y-67225D01*
X51957Y-73225D02*
X52957D01*
X52457Y-73725D02*
Y-72725D01*
X35675Y-85275D02*
X36675D01*
X36175Y-85775D02*
Y-84775D01*
X80300Y-96600D02*
X81300D01*
X80800Y-97100D02*
Y-96100D01*
X80325Y-91575D02*
X81325D01*
X80825Y-92075D02*
Y-91075D01*
X70275Y-93525D02*
X71275D01*
X70775Y-94025D02*
Y-93025D01*
X62375Y-96625D02*
X63375D01*
X62875Y-97125D02*
Y-96125D01*
X62375Y-90325D02*
X63375D01*
X62875Y-90825D02*
Y-89825D01*
X58225Y49475D02*
X59725D01*
X58975Y48725D02*
Y50225D01*
X141475Y-13625D02*
X142475D01*
X141975Y-14125D02*
Y-13125D01*
X110775Y-33900D02*
X111775D01*
X111275Y-34400D02*
Y-33400D01*
X71800Y-16200D02*
X72800D01*
X72300Y-16700D02*
Y-15700D01*
X83675Y-119725D02*
X84675D01*
X84175Y-120225D02*
Y-119225D01*
X202825Y-40525D02*
X204325D01*
X203575Y-41275D02*
Y-39775D01*
X195125Y-39425D02*
X196625D01*
X195875Y-40175D02*
Y-38675D01*
X132625Y-92225D02*
X134125D01*
X133375Y-92975D02*
Y-91475D01*
X136425Y-75325D02*
X137925D01*
X137175Y-76075D02*
Y-74575D01*
X131525Y-88025D02*
X133025D01*
X132275Y-88775D02*
Y-87275D01*
X132625Y-96825D02*
X134125D01*
X133375Y-97575D02*
Y-96075D01*
X129225Y-60025D02*
X130725D01*
X129975Y-60775D02*
Y-59275D01*
X221225Y-78725D02*
X222725D01*
X221975Y-79475D02*
Y-77975D01*
X216225Y-78725D02*
X217725D01*
X216975Y-79475D02*
Y-77975D01*
X136125Y-47025D02*
X137625D01*
X136875Y-47775D02*
Y-46275D01*
X113550Y-87100D02*
X115050D01*
X114300Y-87850D02*
Y-86350D01*
X115850Y-98400D02*
X117350D01*
X116600Y-99150D02*
Y-97650D01*
X127925Y-110825D02*
X129425D01*
X128675Y-111575D02*
Y-110075D01*
X235825Y6675D02*
X237325D01*
X236575Y5925D02*
Y7425D01*
X232025Y575D02*
X233525D01*
X232775Y-175D02*
Y1325D01*
X232025Y5075D02*
X233525D01*
X232775Y4325D02*
Y5825D01*
X216125Y2875D02*
X217625D01*
X216875Y2125D02*
Y3625D01*
X83350Y-28800D02*
X84850D01*
X84100Y-29550D02*
Y-28050D01*
X111925Y-91525D02*
X113425D01*
X112675Y-92275D02*
Y-90775D01*
X30225Y-81325D02*
X31725D01*
X30975Y-82075D02*
Y-80575D01*
X213127Y-47535D02*
X214627D01*
X213877Y-48285D02*
Y-46785D01*
X160925Y-115125D02*
X162425D01*
X161675Y-115875D02*
Y-114375D01*
X151825Y-126025D02*
X153325D01*
X152575Y-126775D02*
Y-125275D01*
X66675Y-168625D02*
X67675D01*
X67175Y-169125D02*
Y-168125D01*
X312325Y-19125D02*
X313825D01*
X313075Y-19875D02*
Y-18375D01*
X313750Y-48000D02*
X315250D01*
X314500Y-48750D02*
Y-47250D01*
X227425Y-173725D02*
X228925D01*
X228175Y-174475D02*
Y-172975D01*
X173825Y-171525D02*
X175325D01*
X174575Y-172275D02*
Y-170775D01*
X167625Y-158425D02*
X169125D01*
X168375Y-159175D02*
Y-157675D01*
X171425Y-158525D02*
X172925D01*
X172175Y-159275D02*
Y-157775D01*
X266725Y-132525D02*
X268225D01*
X267475Y-133275D02*
Y-131775D01*
X276125Y-125025D02*
X277625D01*
X276875Y-125775D02*
Y-124275D01*
X285725Y-133625D02*
X287225D01*
X286475Y-134375D02*
Y-132875D01*
X285125Y-68825D02*
X286625D01*
X285875Y-69575D02*
Y-68075D01*
X276025Y-78025D02*
X277525D01*
X276775Y-78775D02*
Y-77275D01*
X266925Y-68725D02*
X268425D01*
X267675Y-69475D02*
Y-67975D01*
X267025Y-3825D02*
X268525D01*
X267775Y-4575D02*
Y-3075D01*
X276025Y-13625D02*
X277525D01*
X276775Y-14375D02*
Y-12875D01*
X149075Y-193425D02*
X150075D01*
X149575Y-193925D02*
Y-192925D01*
X134875Y-187725D02*
X135875D01*
X135375Y-188225D02*
Y-187225D01*
X152275Y-133525D02*
X153275D01*
X152775Y-134025D02*
Y-133025D01*
X55175Y-139525D02*
X56175D01*
X55675Y-140025D02*
Y-139025D01*
X53775Y-155225D02*
X54775D01*
X54275Y-155725D02*
Y-154725D01*
X146675Y-179725D02*
X147675D01*
X147175Y-180225D02*
Y-179225D01*
X111175Y-174425D02*
X112175D01*
X111675Y-174925D02*
Y-173925D01*
X98475Y-149825D02*
X99475D01*
X98975Y-150325D02*
Y-149325D01*
X98375Y-161025D02*
X99375D01*
X98875Y-161525D02*
Y-160525D01*
X101275Y-112925D02*
X102275D01*
X101775Y-113425D02*
Y-112425D01*
X135675Y-136925D02*
X136675D01*
X136175Y-137425D02*
Y-136425D01*
X126375Y-138625D02*
X127375D01*
X126875Y-139125D02*
Y-138125D01*
X125575Y-140925D02*
X126575D01*
X126075Y-141425D02*
Y-140425D01*
X120675Y-123625D02*
X121675D01*
X121175Y-124125D02*
Y-123125D01*
X114675Y-128825D02*
X115675D01*
X115175Y-129325D02*
Y-128325D01*
X103475Y-184725D02*
X104475D01*
X103975Y-185225D02*
Y-184225D01*
X103475Y-187225D02*
X104475D01*
X103975Y-187725D02*
Y-186725D01*
X130075Y-179825D02*
X131075D01*
X130575Y-180325D02*
Y-179325D01*
X73175Y-120725D02*
X74175D01*
X73675Y-121225D02*
Y-120225D01*
X233125Y-109179D02*
X234625D01*
X233875Y-109930D02*
Y-108430D01*
X173225Y-185325D02*
X174725D01*
X173975Y-186075D02*
Y-184575D01*
X164025Y-185353D02*
X165525D01*
X164775Y-186103D02*
Y-184603D01*
X164025Y-190625D02*
X165525D01*
X164775Y-191375D02*
Y-189875D01*
X173225Y-190625D02*
X174725D01*
X173975Y-191375D02*
Y-189875D01*
X164025Y-195825D02*
X165525D01*
X164775Y-196575D02*
Y-195075D01*
X173225Y-195825D02*
X174725D01*
X173975Y-196575D02*
Y-195075D01*
X208025Y-210625D02*
X209525D01*
X208775Y-211375D02*
Y-209875D01*
X203525Y-216425D02*
X205025D01*
X204275Y-217175D02*
Y-215675D01*
X198725Y-216425D02*
X200225D01*
X199475Y-217175D02*
Y-215675D01*
X208025Y-206325D02*
X209525D01*
X208775Y-207075D02*
Y-205575D01*
X208025Y-214825D02*
X209525D01*
X208775Y-215575D02*
Y-214075D01*
X167325Y-168725D02*
X168825D01*
X168075Y-169475D02*
Y-167975D01*
X158125Y-168725D02*
X159625D01*
X158875Y-169475D02*
Y-167975D01*
X158125Y-173825D02*
X159625D01*
X158875Y-174575D02*
Y-173075D01*
X167325Y-173825D02*
X168825D01*
X168075Y-174575D02*
Y-173075D01*
X158125Y-179025D02*
X159625D01*
X158875Y-179775D02*
Y-178275D01*
X167325Y-179025D02*
X168825D01*
X168075Y-179775D02*
Y-178275D01*
X173225Y-205825D02*
X174725D01*
X173975Y-206575D02*
Y-205075D01*
X164025Y-205825D02*
X165525D01*
X164775Y-206575D02*
Y-205075D01*
X164025Y-211025D02*
X165525D01*
X164775Y-211775D02*
Y-210275D01*
X173225Y-210925D02*
X174725D01*
X173975Y-211675D02*
Y-210175D01*
X164025Y-216125D02*
X165525D01*
X164775Y-216875D02*
Y-215375D01*
X173225Y-216125D02*
X174725D01*
X173975Y-216875D02*
Y-215375D01*
X237625Y-183125D02*
X239125D01*
X238375Y-183875D02*
Y-182375D01*
X205025Y-171625D02*
X206525D01*
X205775Y-172375D02*
Y-170875D01*
X-50625Y-129225D02*
X-49625D01*
X-50125Y-129725D02*
Y-128725D01*
X-72825Y-123425D02*
X-71825D01*
X-72325Y-123925D02*
Y-122925D01*
X-76225Y-115725D02*
X-75225D01*
X-75725Y-116225D02*
Y-115225D01*
X-67725Y-115025D02*
X-66725D01*
X-67225Y-115525D02*
Y-114525D01*
X-65125Y-117225D02*
X-64125D01*
X-64625Y-117725D02*
Y-116725D01*
X-28225Y-140725D02*
X-27225D01*
X-27725Y-141225D02*
Y-140225D01*
X-36125Y-134525D02*
X-35125D01*
X-35625Y-135025D02*
Y-134025D01*
X-26925Y-124925D02*
X-25925D01*
X-26425Y-125425D02*
Y-124425D01*
X-13725Y-126225D02*
X-12725D01*
X-13225Y-126725D02*
Y-125725D01*
X-23925Y-119225D02*
X-22925D01*
X-23425Y-119725D02*
Y-118725D01*
X-23925Y-121825D02*
X-22925D01*
X-23425Y-122325D02*
Y-121325D01*
X-1625Y-129825D02*
X-625D01*
X-1125Y-130325D02*
Y-129325D01*
X-10825Y-135025D02*
X-9825D01*
X-10325Y-135525D02*
Y-134525D01*
X-20325Y-118125D02*
X-19325D01*
X-19825Y-118625D02*
Y-117625D01*
X-35900Y-128700D02*
X-34900D01*
X-35400Y-129200D02*
Y-128200D01*
X-33000Y-129700D02*
X-32000D01*
X-32500Y-130200D02*
Y-129200D01*
X-42825Y-115325D02*
X-41825D01*
X-42325Y-115825D02*
Y-114825D01*
X-48325Y-113725D02*
X-47325D01*
X-47825Y-114225D02*
Y-113225D01*
X38675Y-105625D02*
X39675D01*
X39175Y-106125D02*
Y-105125D01*
X-50600Y-132300D02*
X-49600D01*
X-50100Y-132800D02*
Y-131800D01*
X-50600Y-134600D02*
X-49600D01*
X-50100Y-135100D02*
Y-134100D01*
X-55325Y-131725D02*
X-54325D01*
X-54825Y-132225D02*
Y-131225D01*
X-30500Y-131400D02*
X-29500D01*
X-30000Y-131900D02*
Y-130900D01*
X-25725Y-147225D02*
X-24725D01*
X-25225Y-147725D02*
Y-146725D01*
X6575Y-126425D02*
X7575D01*
X7075Y-126925D02*
Y-125925D01*
X14175Y-126525D02*
X15175D01*
X14675Y-127025D02*
Y-126025D01*
X10375Y-126425D02*
X11375D01*
X10875Y-126925D02*
Y-125925D01*
X103875Y-125825D02*
X104875D01*
X104375Y-126325D02*
Y-125325D01*
X23655Y-103756D02*
X25155D01*
X24406Y-104506D02*
Y-103006D01*
X5375Y-175125D02*
X6375D01*
X5875Y-175625D02*
Y-174625D01*
X4975Y-170425D02*
X5975D01*
X5475Y-170925D02*
Y-169925D01*
X32275Y-122525D02*
X33275D01*
X32775Y-123025D02*
Y-122025D01*
X43675Y-110725D02*
X44675D01*
X44175Y-111225D02*
Y-110225D01*
X47175Y-136625D02*
X48175D01*
X47675Y-137125D02*
Y-136125D01*
X42275Y-138325D02*
X43275D01*
X42775Y-138825D02*
Y-137825D01*
X50475Y-142525D02*
X51475D01*
X50975Y-143025D02*
Y-142025D01*
X135675Y-134425D02*
X136675D01*
X136175Y-134925D02*
Y-133925D01*
X130475Y-136825D02*
X131475D01*
X130975Y-137325D02*
Y-136325D01*
X120775Y-118125D02*
X121775D01*
X121275Y-118625D02*
Y-117625D01*
X28675Y-138825D02*
X29675D01*
X29175Y-139325D02*
Y-138325D01*
X29975Y-140825D02*
X30975D01*
X30475Y-141325D02*
Y-140325D01*
X-53425Y-170725D02*
X-52425D01*
X-52925Y-171225D02*
Y-170225D01*
X-72125Y-147725D02*
X-71125D01*
X-71625Y-148225D02*
Y-147225D01*
X-71825Y-140525D02*
X-70825D01*
X-71325Y-141025D02*
Y-140025D01*
X-81375Y-97925D02*
X-79875D01*
X-80625Y-98675D02*
Y-97175D01*
X-28075Y-63325D02*
X-26575D01*
X-27325Y-64075D02*
Y-62575D01*
X210925Y-35625D02*
X212425D01*
X211675Y-36375D02*
Y-34875D01*
X104875Y-201625D02*
X105875D01*
X105375Y-202125D02*
Y-201125D01*
X-40475Y-51725D02*
X-38975D01*
X-39725Y-52475D02*
Y-50975D01*
X-37675Y-58925D02*
X-36175D01*
X-36925Y-59675D02*
Y-58175D01*
X-7459Y-81887D02*
X-5959D01*
X-6709Y-82637D02*
Y-81137D01*
X-7450Y-85800D02*
X-5950D01*
X-6700Y-86550D02*
Y-85050D01*
X-13275Y-68825D02*
X-11775D01*
X-12525Y-69575D02*
Y-68075D01*
X226325Y-78725D02*
X227825D01*
X227075Y-79475D02*
Y-77975D01*
X120425Y-52125D02*
X121925D01*
X121175Y-52875D02*
Y-51375D01*
X121450Y-56300D02*
X122950D01*
X122200Y-57050D02*
Y-55550D01*
X77325Y-108525D02*
X78825D01*
X78075Y-109275D02*
Y-107775D01*
X35225Y-61525D02*
X36725D01*
X35975Y-62275D02*
Y-60775D01*
X19724Y-75311D02*
X21224D01*
X20474Y-76061D02*
Y-74561D01*
X80572Y-134992D02*
X81572D01*
X81072Y-135492D02*
Y-134492D01*
X92285Y-145228D02*
X93285D01*
X92785Y-145728D02*
Y-144728D01*
X80572Y-145917D02*
X81572D01*
X81072Y-146417D02*
Y-145417D01*
X120225Y-47025D02*
X121725D01*
X120975Y-47775D02*
Y-46275D01*
X3565Y-51178D02*
X5065D01*
X4315Y-51928D02*
Y-50428D01*
X-27975Y-44925D02*
X-26475D01*
X-27225Y-45675D02*
Y-44175D01*
X-42456Y-18720D02*
X-40956D01*
X-41706Y-19470D02*
Y-17970D01*
X-7262Y-102950D02*
X-5762D01*
X-6512Y-103700D02*
Y-102200D01*
X-7262Y-99111D02*
X-5762D01*
X-6512Y-99861D02*
Y-98361D01*
X73092Y-145228D02*
X74092D01*
X73592Y-145728D02*
Y-144728D01*
X7095Y-38509D02*
X8595D01*
X7845Y-39259D02*
Y-37759D01*
X91104Y-152709D02*
X92104D01*
X91604Y-153209D02*
Y-152209D01*
X74100Y-135000D02*
X75100D01*
X74600Y-135500D02*
Y-134500D01*
X-3915Y-28737D02*
X-2415D01*
X-3165Y-29487D02*
Y-27987D01*
X35625Y-52225D02*
X37125D01*
X36375Y-52975D02*
Y-51475D01*
X-32975Y-71325D02*
X-31475D01*
X-32225Y-72075D02*
Y-70575D01*
X-28175Y-89225D02*
X-26675D01*
X-27425Y-89975D02*
Y-88475D01*
X-6573Y-31493D02*
X-5073D01*
X-5823Y-32243D02*
Y-30743D01*
X252425Y35375D02*
X253925D01*
X253175Y34625D02*
Y36125D01*
X205025Y-181625D02*
X206525D01*
X205775Y-182375D02*
Y-180875D01*
X205025Y-176625D02*
X206525D01*
X205775Y-177375D02*
Y-175875D01*
X224938Y-55409D02*
X226438D01*
X225688Y-56159D02*
Y-54659D01*
X227300Y-57771D02*
X228800D01*
X228050Y-58521D02*
Y-57021D01*
X229663Y-55409D02*
X231163D01*
X230413Y-56159D02*
Y-54659D01*
X222576Y-57771D02*
X224076D01*
X223326Y-58521D02*
Y-57021D01*
X213127Y-51472D02*
X214627D01*
X213877Y-52222D02*
Y-50722D01*
X213127Y-55409D02*
X214627D01*
X213877Y-56159D02*
Y-54659D01*
X219820Y-55409D02*
X221320D01*
X220570Y-56159D02*
Y-54659D01*
X190950Y-196751D02*
X192450D01*
X191700Y-197502D02*
Y-196002D01*
X-47475Y-30925D02*
X-45975D01*
X-46725Y-31675D02*
Y-30175D01*
X-12975Y-35625D02*
X-11475D01*
X-12225Y-36375D02*
Y-34875D01*
X109475Y-191525D02*
X110475D01*
X109975Y-192025D02*
Y-191025D01*
X126475Y-189925D02*
X127475D01*
X126975Y-190425D02*
Y-189425D01*
X234875Y-9425D02*
X236375D01*
X235625Y-10175D02*
Y-8675D01*
X252025Y-9325D02*
X253525D01*
X252775Y-10075D02*
Y-8575D01*
X248025Y21575D02*
X249525D01*
X248775Y20825D02*
Y22325D01*
X229525Y23275D02*
X231025D01*
X230275Y22525D02*
Y24025D01*
X197052Y-50155D02*
X198552D01*
X197802Y-50905D02*
Y-49405D01*
X-9463Y-68751D02*
X-7963D01*
X-8713Y-69501D02*
Y-68001D01*
X-60025Y-137625D02*
X-59025D01*
X-59525Y-138125D02*
Y-137125D01*
X-62225Y-137625D02*
X-61225D01*
X-61725Y-138125D02*
Y-137125D01*
X-71825Y-142725D02*
X-70825D01*
X-71325Y-143225D02*
Y-142225D01*
X-81425Y-179525D02*
X-80425D01*
X-80925Y-180025D02*
Y-179025D01*
X-79225Y-179525D02*
X-78225D01*
X-78725Y-180025D02*
Y-179025D01*
X-27525Y-174425D02*
X-26525D01*
X-27025Y-174925D02*
Y-173925D01*
X-9925Y-178025D02*
X-8925D01*
X-9425Y-178525D02*
Y-177525D01*
X-82725Y-163125D02*
X-81725D01*
X-82225Y-163625D02*
Y-162625D01*
X-49916Y-158616D02*
X-48916D01*
X-49416Y-159116D02*
Y-158116D01*
X-56125Y-134025D02*
X-55125D01*
X-55625Y-134525D02*
Y-133525D01*
X-5925Y-137425D02*
X-4925D01*
X-5425Y-137925D02*
Y-136925D01*
X-49825Y-173625D02*
X-48825D01*
X-49325Y-174125D02*
Y-173125D01*
X17375Y-174225D02*
X18375D01*
X17875Y-174725D02*
Y-173725D01*
X9375Y-172325D02*
X10375D01*
X9875Y-172825D02*
Y-171825D01*
X-4825Y-162125D02*
X-3825D01*
X-4325Y-162625D02*
Y-161625D01*
X-16325Y-138825D02*
X-15325D01*
X-15825Y-139325D02*
Y-138325D01*
X-2825Y-155675D02*
X-1825D01*
X-2325Y-156175D02*
Y-155175D01*
X-47725Y-151925D02*
X-46725D01*
X-47225Y-152425D02*
Y-151425D01*
X-35925Y-173725D02*
X-34925D01*
X-35425Y-174225D02*
Y-173225D01*
X-35925Y-170725D02*
X-34925D01*
X-35425Y-171225D02*
Y-170225D01*
X-35925Y-167725D02*
X-34925D01*
X-35425Y-168225D02*
Y-167225D01*
X89275Y-111325D02*
X90275D01*
X89775Y-111825D02*
Y-110825D01*
X41875Y-155475D02*
X42875D01*
X42375Y-155975D02*
Y-154975D01*
X136375Y-162216D02*
X137375D01*
X136875Y-162716D02*
Y-161716D01*
X138275Y-155575D02*
X139275D01*
X138775Y-156075D02*
Y-155075D01*
X113822Y-151172D02*
X114822D01*
X114322Y-151672D02*
Y-150672D01*
X113775Y-174425D02*
X114775D01*
X114275Y-174925D02*
Y-173925D01*
X93775Y-116225D02*
X94775D01*
X94275Y-116725D02*
Y-115725D01*
X90475Y-119425D02*
X91475D01*
X90975Y-119925D02*
Y-118925D01*
X86875Y-119725D02*
X87875D01*
X87375Y-120225D02*
Y-119225D01*
X67925Y-108525D02*
X69425D01*
X68675Y-109275D02*
Y-107775D01*
X-80325Y-113025D02*
X-79325D01*
X-79825Y-113525D02*
Y-112525D01*
X39275Y-180525D02*
X40275D01*
X39775Y-181025D02*
Y-180025D01*
X132713Y-174425D02*
X133713D01*
X133213Y-174925D02*
Y-173925D01*
X133475Y-180525D02*
X134475D01*
X133975Y-181025D02*
Y-180025D01*
X91175Y-157425D02*
X92175D01*
X91675Y-157925D02*
Y-156925D01*
X148675Y-141625D02*
X149675D01*
X149175Y-142125D02*
Y-141125D01*
X141475Y-137225D02*
X142475D01*
X141975Y-137725D02*
Y-136725D01*
X72994Y-140110D02*
X73994D01*
X73494Y-140610D02*
Y-139610D01*
X90316Y-140110D02*
X91316D01*
X90816Y-140610D02*
Y-139610D01*
X92200Y-135278D02*
X93200D01*
X92700Y-135778D02*
Y-134778D01*
X112075Y-120825D02*
X113075D01*
X112575Y-121325D02*
Y-120325D01*
X107475Y-121025D02*
X108475D01*
X107975Y-121525D02*
Y-120525D01*
X100775Y-121025D02*
X101775D01*
X101275Y-121525D02*
Y-120525D01*
X110675Y-125725D02*
X111675D01*
X111175Y-126225D02*
Y-125225D01*
X77275Y-119725D02*
X78275D01*
X77775Y-120225D02*
Y-119225D01*
X-45700Y-135200D02*
X-44700D01*
X-45200Y-135700D02*
Y-134700D01*
X61575Y-155725D02*
X62575D01*
X62075Y-156225D02*
Y-155225D01*
X18975Y-143825D02*
X19975D01*
X19475Y-144325D02*
Y-143325D01*
X13975Y-144725D02*
X14975D01*
X14475Y-145225D02*
Y-144225D01*
X5575Y-137925D02*
X6575D01*
X6075Y-138425D02*
Y-137425D01*
X26675Y-136225D02*
X27675D01*
X27175Y-136725D02*
Y-135725D01*
X44902Y-136625D02*
X45902D01*
X45402Y-137125D02*
Y-136125D01*
X23475Y-120925D02*
X24475D01*
X23975Y-121425D02*
Y-120425D01*
X21475Y-122825D02*
X22475D01*
X21975Y-123325D02*
Y-122325D01*
X3075Y-119825D02*
X4075D01*
X3575Y-120325D02*
Y-119325D01*
X4668Y-122757D02*
X5668D01*
X5168Y-123257D02*
Y-122257D01*
X130075Y-182025D02*
X131075D01*
X130575Y-182525D02*
Y-181525D01*
X106875Y-191525D02*
X107875D01*
X107375Y-192025D02*
Y-191025D01*
X128975Y-189925D02*
X129975D01*
X129475Y-190425D02*
Y-189425D01*
X143175Y-184725D02*
X144175D01*
X143675Y-185225D02*
Y-184225D01*
X145775Y-184725D02*
X146775D01*
X146275Y-185225D02*
Y-184225D01*
X121375Y-198125D02*
X122375D01*
X121875Y-198625D02*
Y-197625D01*
X96375Y-131925D02*
X97375D01*
X96875Y-132425D02*
Y-131425D01*
X128075Y-126725D02*
X129075D01*
X128575Y-127225D02*
Y-126225D01*
X125025Y-122125D02*
X126525D01*
X125775Y-122875D02*
Y-121375D01*
X81375Y-165125D02*
X82375D01*
X81875Y-165625D02*
Y-164625D01*
X79075Y-165125D02*
X80075D01*
X79575Y-165625D02*
Y-164625D01*
X47675Y-183425D02*
X48675D01*
X48175Y-183925D02*
Y-182925D01*
X45875Y-186725D02*
X46875D01*
X46375Y-187225D02*
Y-186225D01*
X4075Y-188825D02*
X5075D01*
X4575Y-189325D02*
Y-188325D01*
X36675Y-198325D02*
X37675D01*
X37175Y-198825D02*
Y-197825D01*
X-4700Y-175700D02*
X-3700D01*
X-4200Y-176200D02*
Y-175200D01*
X32875Y-188325D02*
X33875D01*
X33375Y-188825D02*
Y-187825D01*
X-55725Y-176925D02*
X-54725D01*
X-55225Y-177425D02*
Y-176425D01*
X-52425Y-178525D02*
X-51425D01*
X-51925Y-179025D02*
Y-178025D01*
X-75125Y-187025D02*
X-74125D01*
X-74625Y-187525D02*
Y-186525D01*
X-72325Y-187025D02*
X-71325D01*
X-71825Y-187525D02*
Y-186525D01*
X-35700Y-180800D02*
X-34700D01*
X-35200Y-181300D02*
Y-180300D01*
X-34200Y-183300D02*
X-33200D01*
X-33700Y-183800D02*
Y-182800D01*
X-26325Y-188725D02*
X-25325D01*
X-25825Y-189225D02*
Y-188225D01*
X-41100Y-180900D02*
X-40100D01*
X-40600Y-181400D02*
Y-180400D01*
X-51225Y-190325D02*
X-50225D01*
X-50725Y-190825D02*
Y-189825D01*
X-56925Y-188525D02*
X-55925D01*
X-56425Y-189025D02*
Y-188025D01*
X-46500Y-180900D02*
X-45500D01*
X-46000Y-181400D02*
Y-180400D01*
X-29625Y-179525D02*
X-28625D01*
X-29125Y-180025D02*
Y-179025D01*
X-26525Y-179625D02*
X-25525D01*
X-26025Y-180125D02*
Y-179125D01*
X16375Y-179525D02*
X17375D01*
X16875Y-180025D02*
Y-179025D01*
X18875Y-179525D02*
X19875D01*
X19375Y-180025D02*
Y-179025D01*
X39275Y-178025D02*
X40275D01*
X39775Y-178525D02*
Y-177525D01*
X-9925Y-180625D02*
X-8925D01*
X-9425Y-181125D02*
Y-180125D01*
X130575Y-134425D02*
X131575D01*
X131075Y-134925D02*
Y-133925D01*
X-41125Y-139925D02*
X-40125D01*
X-40625Y-140425D02*
Y-139425D01*
X-25725Y-144725D02*
X-24725D01*
X-25225Y-145225D02*
Y-144225D01*
X54175Y-131025D02*
X55175D01*
X54675Y-131525D02*
Y-130525D01*
X-81425Y-171925D02*
X-80425D01*
X-80925Y-172425D02*
Y-171425D01*
X191225Y-216125D02*
X192725D01*
X191975Y-216875D02*
Y-215375D01*
X96975Y-26625D02*
X97975D01*
X97475Y-27125D02*
Y-26125D01*
X91500Y-26600D02*
X92500D01*
X92000Y-27100D02*
Y-26100D01*
X39600Y-20900D02*
X40600D01*
X40100Y-21400D02*
Y-20400D01*
X-53675Y-18425D02*
X-52175D01*
X-52925Y-19175D02*
Y-17675D01*
X39475Y-14725D02*
X40475D01*
X39975Y-15225D02*
Y-14225D01*
X103075Y-26525D02*
X104075D01*
X103575Y-27025D02*
Y-26025D01*
X192325Y-1425D02*
X193825D01*
X193075Y-2175D02*
Y-675D01*
X237225Y-56525D02*
X238725D01*
X237975Y-57275D02*
Y-55775D01*
X238725Y-65825D02*
X240225D01*
X239475Y-66575D02*
Y-65075D01*
X244325Y-68425D02*
X245825D01*
X245075Y-69175D02*
Y-67675D01*
X257825Y-68325D02*
X259325D01*
X258575Y-69075D02*
Y-67575D01*
X251025Y-56525D02*
X252525D01*
X251775Y-57275D02*
Y-55775D01*
X251125Y-49325D02*
X252625D01*
X251875Y-50075D02*
Y-48575D01*
X265025Y-56425D02*
X266525D01*
X265775Y-57175D02*
Y-55675D01*
X276125Y-45725D02*
X277625D01*
X276875Y-46475D02*
Y-44975D01*
X276125Y-26625D02*
X277625D01*
X276875Y-27375D02*
Y-25875D01*
X285725Y-36525D02*
X287225D01*
X286475Y-37275D02*
Y-35775D01*
X292425Y-39525D02*
X293925D01*
X293175Y-40275D02*
Y-38775D01*
X292325Y-47325D02*
X293825D01*
X293075Y-48075D02*
Y-46575D01*
X282725Y-58025D02*
X284225D01*
X283475Y-58775D02*
Y-57275D01*
X267825Y-45225D02*
X269325D01*
X268575Y-45975D02*
Y-44475D01*
X284025Y-45125D02*
X285525D01*
X284775Y-45875D02*
Y-44375D01*
X239775Y-125975D02*
X241275D01*
X240525Y-126725D02*
Y-125225D01*
X237125Y-109525D02*
X238625D01*
X237875Y-110275D02*
Y-108775D01*
X244425Y-119725D02*
X245925D01*
X245175Y-120475D02*
Y-118975D01*
X250925Y-109625D02*
X252425D01*
X251675Y-110375D02*
Y-108875D01*
X246725Y-99325D02*
X248225D01*
X247475Y-100075D02*
Y-98575D01*
X257625Y-99325D02*
X259125D01*
X258375Y-100075D02*
Y-98575D01*
X266025Y-109325D02*
X267525D01*
X266775Y-110075D02*
Y-108575D01*
X257625Y-119925D02*
X259125D01*
X258375Y-120675D02*
Y-119175D01*
X289925Y-118025D02*
X291425D01*
X290675Y-118775D02*
Y-117275D01*
X289725Y-96025D02*
X291225D01*
X290475Y-96775D02*
Y-95275D01*
X285225Y-101225D02*
X286725D01*
X285975Y-101975D02*
Y-100475D01*
X276125Y-92325D02*
X277625D01*
X276875Y-93075D02*
Y-91575D01*
X266825Y-101525D02*
X268325D01*
X267575Y-102275D02*
Y-100775D01*
X276025Y-111325D02*
X277525D01*
X276775Y-112075D02*
Y-110575D01*
X291925Y-106925D02*
X293425D01*
X292675Y-107675D02*
Y-106175D01*
X253225Y-93225D02*
X254725D01*
X253975Y-93975D02*
Y-92475D01*
X274425Y-119725D02*
X275925D01*
X275175Y-120475D02*
Y-118975D01*
X215125Y-147425D02*
X216625D01*
X215875Y-148175D02*
Y-146675D01*
X220925Y-165925D02*
X222425D01*
X221675Y-166675D02*
Y-165175D01*
X228125Y-167425D02*
X229625D01*
X228875Y-168175D02*
Y-166675D01*
X237425Y-133425D02*
X238925D01*
X238175Y-134175D02*
Y-132675D01*
X236325Y-139425D02*
X237825D01*
X237075Y-140175D02*
Y-138675D01*
X247825Y-135925D02*
X249325D01*
X248575Y-136675D02*
Y-135175D01*
X252325Y-135925D02*
X253825D01*
X253075Y-136675D02*
Y-135175D01*
X237325Y-145425D02*
X238825D01*
X238075Y-146175D02*
Y-144675D01*
X233425Y-149225D02*
X234925D01*
X234175Y-149975D02*
Y-148475D01*
X228525Y-147525D02*
X230025D01*
X229275Y-148275D02*
Y-146775D01*
X264125Y-135625D02*
X265625D01*
X264875Y-136375D02*
Y-134875D01*
X263725Y-145125D02*
X265225D01*
X264475Y-145875D02*
Y-144375D01*
X263225Y-139425D02*
X264725D01*
X263975Y-140175D02*
Y-138675D01*
X273225Y-145025D02*
X274725D01*
X273975Y-145775D02*
Y-144275D01*
X289925Y-161325D02*
X291425D01*
X290675Y-162075D02*
Y-160575D01*
X276125Y-156725D02*
X277625D01*
X276875Y-157475D02*
Y-155975D01*
X276325Y-175825D02*
X277825D01*
X277075Y-176575D02*
Y-175075D01*
X267725Y-170725D02*
X269225D01*
X268475Y-171475D02*
Y-169975D01*
X285525Y-166325D02*
X287025D01*
X286275Y-167075D02*
Y-165575D01*
X271025Y-185025D02*
X272525D01*
X271775Y-185775D02*
Y-184275D01*
X271025Y-197125D02*
X272525D01*
X271775Y-197875D02*
Y-196375D01*
X286050Y-189600D02*
X287550D01*
X286800Y-190350D02*
Y-188850D01*
X190950Y-200951D02*
X192450D01*
X191700Y-201701D02*
Y-200201D01*
X180825Y-198325D02*
X182325D01*
X181575Y-199075D02*
Y-197575D01*
X215125Y-201325D02*
X216625D01*
X215875Y-202075D02*
Y-200575D01*
X156825Y-165125D02*
X158325D01*
X157575Y-165875D02*
Y-164375D01*
X212325Y-23225D02*
X213825D01*
X213075Y-23975D02*
Y-22475D01*
X232325Y-23225D02*
X233825D01*
X233075Y-23975D02*
Y-22475D01*
X242325Y-25125D02*
X243825D01*
X243075Y-25875D02*
Y-24375D01*
X239125Y-17325D02*
X240625D01*
X239875Y-18075D02*
Y-16575D01*
X251925Y-13225D02*
X253425D01*
X252675Y-13975D02*
Y-12475D01*
X251225Y-23325D02*
X252725D01*
X251975Y-24075D02*
Y-22575D01*
X252325Y-33225D02*
X253825D01*
X253075Y-33975D02*
Y-32475D01*
X242325Y-33225D02*
X243825D01*
X243075Y-33975D02*
Y-32475D01*
X242325Y-43225D02*
X243825D01*
X243075Y-43975D02*
Y-42475D01*
X261050Y-15700D02*
X262550D01*
X261800Y-16450D02*
Y-14950D01*
X196225Y-190425D02*
X197725D01*
X196975Y-191175D02*
Y-189675D01*
X180734Y-211310D02*
X182234D01*
X181484Y-212060D02*
Y-210560D01*
X191425Y-212625D02*
X192925D01*
X192175Y-213375D02*
Y-211875D01*
X167625Y-153325D02*
X169125D01*
X168375Y-154075D02*
Y-152575D01*
X167625Y-148325D02*
X169125D01*
X168375Y-149075D02*
Y-147575D01*
X215025Y-113125D02*
X216525D01*
X215775Y-113875D02*
Y-112375D01*
X187725Y-94025D02*
X189225D01*
X188475Y-94775D02*
Y-93275D01*
X187525Y-98625D02*
X189025D01*
X188275Y-99375D02*
Y-97875D01*
X20375Y-53425D02*
X21375D01*
X20875Y-53925D02*
Y-52925D01*
X256325Y26575D02*
X257825D01*
X257075Y25825D02*
Y27325D01*
X-55875Y-4725D02*
X-54375D01*
X-55125Y-5475D02*
Y-3975D01*
X-62975Y-11325D02*
X-61475D01*
X-62225Y-12075D02*
Y-10575D01*
X30100Y-20700D02*
X31100D01*
X30600Y-21200D02*
Y-20200D01*
X34900Y-12600D02*
X35900D01*
X35400Y-13100D02*
Y-12100D01*
X30725Y-98925D02*
X32225D01*
X31475Y-99675D02*
Y-98175D01*
X30425Y-85825D02*
X31925D01*
X31175Y-86575D02*
Y-85075D01*
X83350Y-32600D02*
X84850D01*
X84100Y-33350D02*
Y-31850D01*
X124625Y-38325D02*
X126125D01*
X125375Y-39075D02*
Y-37575D01*
X68900Y-17000D02*
X69900D01*
X69400Y-17500D02*
Y-16500D01*
X-72825Y-126225D02*
X-71825D01*
X-72325Y-126725D02*
Y-125725D01*
X-8725Y-174225D02*
X-7725D01*
X-8225Y-174725D02*
Y-173725D01*
X-6525Y-174225D02*
X-5525D01*
X-6025Y-174725D02*
Y-173725D01*
X-40300Y-174000D02*
X-39300D01*
X-39800Y-174500D02*
Y-173500D01*
X16775Y-148825D02*
X17775D01*
X17275Y-149325D02*
Y-148325D01*
X17575Y-151125D02*
X18575D01*
X18075Y-151625D02*
Y-150625D01*
X17375Y-176425D02*
X18375D01*
X17875Y-176925D02*
Y-175925D01*
X38675Y-174425D02*
X39675D01*
X39175Y-174925D02*
Y-173925D01*
X36313Y-174425D02*
X37313D01*
X36813Y-174925D02*
Y-173925D01*
X64375Y-120225D02*
X65375D01*
X64875Y-120725D02*
Y-119725D01*
X67075Y-120225D02*
X68075D01*
X67575Y-120725D02*
Y-119725D01*
X8275Y-176025D02*
X9275D01*
X8775Y-176525D02*
Y-175525D01*
X6775Y-188825D02*
X7775D01*
X7275Y-189325D02*
Y-188325D01*
X40175Y-162025D02*
X41175D01*
X40675Y-162525D02*
Y-161525D01*
X43075Y-140425D02*
X44075D01*
X43575Y-140925D02*
Y-139925D01*
X-8325Y-125325D02*
X-7325D01*
X-7825Y-125825D02*
Y-124825D01*
X-5125Y-125325D02*
X-4125D01*
X-4625Y-125825D02*
Y-124825D01*
X-60025Y-122225D02*
X-59025D01*
X-59525Y-122725D02*
Y-121725D01*
X-60025Y-119625D02*
X-59025D01*
X-59525Y-120125D02*
Y-119125D01*
X37575Y-110325D02*
X38575D01*
X38075Y-110825D02*
Y-109825D01*
X42475Y-120525D02*
X43475D01*
X42975Y-121025D02*
Y-120025D01*
X45475Y-120525D02*
X46475D01*
X45975Y-121025D02*
Y-120025D01*
X226425Y-140025D02*
X227925D01*
X227175Y-140775D02*
Y-139275D01*
X217225Y-140025D02*
X218725D01*
X217975Y-140775D02*
Y-139275D01*
X226425Y-134825D02*
X227925D01*
X227175Y-135575D02*
Y-134075D01*
X217225Y-134825D02*
X218725D01*
X217975Y-135575D02*
Y-134075D01*
X217225Y-129725D02*
X218725D01*
X217975Y-130475D02*
Y-128975D01*
X226425Y-129725D02*
X227925D01*
X227175Y-130475D02*
Y-128975D01*
X-8400Y-39800D02*
X-7400D01*
X-7900Y-40300D02*
Y-39300D01*
X-12000Y-93900D02*
X-11000D01*
X-11500Y-94400D02*
Y-93400D01*
X-5800Y-88900D02*
X-4800D01*
X-5300Y-89400D02*
Y-88400D01*
X101950Y-39900D02*
X103450D01*
X102700Y-40650D02*
Y-39150D01*
X114950Y-38500D02*
X116450D01*
X115700Y-39250D02*
Y-37750D01*
X196350Y-1400D02*
X197850D01*
X197100Y-2150D02*
Y-650D01*
X-7000Y5900D02*
X-6000D01*
X-6500Y5400D02*
Y6400D01*
X-12200Y1400D02*
X-11200D01*
X-11700Y900D02*
Y1900D01*
X-15800Y21200D02*
X-14800D01*
X-15300Y20700D02*
Y21700D01*
X57700Y-85300D02*
X58700D01*
X58200Y-85800D02*
Y-84800D01*
X66500Y-61700D02*
X67500D01*
X67000Y-62200D02*
Y-61200D01*
X74700Y-61700D02*
X75700D01*
X75200Y-62200D02*
Y-61200D01*
X66500Y-49100D02*
X67500D01*
X67000Y-49600D02*
Y-48600D01*
X88775Y-55825D02*
X89775D01*
X89275Y-56325D02*
Y-55325D01*
X88775Y-61725D02*
X89775D01*
X89275Y-62225D02*
Y-61225D01*
X55175Y-88625D02*
X56175D01*
X55675Y-89125D02*
Y-88125D01*
X91800Y-95200D02*
X92800D01*
X92300Y-95700D02*
Y-94700D01*
X42500Y-44100D02*
X43500D01*
X43000Y-44600D02*
Y-43600D01*
X24175Y-43825D02*
X25175D01*
X24675Y-44325D02*
Y-43325D01*
X-59800Y-221700D02*
X-58800D01*
X-59300Y-222200D02*
Y-221200D01*
X-86500Y-222300D02*
X-85500D01*
X-86000Y-222800D02*
Y-221800D01*
X-85700Y-194700D02*
X-84700D01*
X-85200Y-195200D02*
Y-194200D01*
X-79200Y-187400D02*
X-78200D01*
X-78700Y-187900D02*
Y-186900D01*
X-52800Y-212100D02*
X-51800D01*
X-52300Y-212600D02*
Y-211600D01*
X-52700Y-202800D02*
X-51700D01*
X-52200Y-203300D02*
Y-202300D01*
X-4300Y-215500D02*
X-3300D01*
X-3800Y-216000D02*
Y-215000D01*
X5100Y-215200D02*
X6100D01*
X5600Y-215700D02*
Y-214700D01*
X-68400Y-179700D02*
X-67400D01*
X-67900Y-180200D02*
Y-179200D01*
X-81400Y-168400D02*
X-80400D01*
X-80900Y-168900D02*
Y-167900D01*
X-66900Y-187800D02*
X-65900D01*
X-66400Y-188300D02*
Y-187300D01*
X-5200Y-207900D02*
X-4200D01*
X-4700Y-208400D02*
Y-207400D01*
X-47300Y-207000D02*
X-46300D01*
X-46800Y-207500D02*
Y-206500D01*
X-47100Y-216500D02*
X-46100D01*
X-46600Y-217000D02*
Y-216000D01*
X40700Y-171400D02*
X41700D01*
X41200Y-171900D02*
Y-170900D01*
X44600Y-175600D02*
X45600D01*
X45100Y-176100D02*
Y-175100D01*
X49000Y-186200D02*
X50000D01*
X49500Y-186700D02*
Y-185700D01*
X46600Y-216400D02*
X47600D01*
X47100Y-216900D02*
Y-215900D01*
X46500Y-206500D02*
X47500D01*
X47000Y-207000D02*
Y-206000D01*
X55700Y-206400D02*
X56700D01*
X56200Y-206900D02*
Y-205900D01*
X-25900Y-216800D02*
X-24900D01*
X-25400Y-217300D02*
Y-216300D01*
X76400Y-216600D02*
X77400D01*
X76900Y-217100D02*
Y-216100D01*
X48800Y-173400D02*
X49800D01*
X49300Y-173900D02*
Y-172900D01*
X66900Y-196600D02*
X67900D01*
X67400Y-197100D02*
Y-196100D01*
X102600Y-166500D02*
X103600D01*
X103100Y-167000D02*
Y-166000D01*
X97500Y-196100D02*
X98500D01*
X98000Y-196600D02*
Y-195600D01*
X97600Y-205200D02*
X98600D01*
X98100Y-205700D02*
Y-204700D01*
X97300Y-216200D02*
X98300D01*
X97800Y-216700D02*
Y-215700D01*
X106900Y-208400D02*
X107900D01*
X107400Y-208900D02*
Y-207900D01*
X107000Y-216100D02*
X108000D01*
X107500Y-216600D02*
Y-215600D01*
X127700Y-216400D02*
X128700D01*
X128200Y-216900D02*
Y-215900D01*
X113300Y-182800D02*
X114300D01*
X113800Y-183300D02*
Y-182300D01*
X113300Y-188000D02*
X114300D01*
X113800Y-188500D02*
Y-187500D01*
X148500Y-204300D02*
X149500D01*
X149000Y-204800D02*
Y-203800D01*
X148800Y-216400D02*
X149800D01*
X149300Y-216900D02*
Y-215900D01*
X157200Y-210700D02*
X158200D01*
X157700Y-211200D02*
Y-210200D01*
X157000Y-198500D02*
X158000D01*
X157500Y-199000D02*
Y-198000D01*
X239700Y-170900D02*
X240700D01*
X240200Y-171400D02*
Y-170400D01*
X236400Y-190800D02*
X237400D01*
X236900Y-191300D02*
Y-190300D01*
X319100Y-197100D02*
X320100D01*
X319600Y-197600D02*
Y-196600D01*
X294600Y-182500D02*
X295600D01*
X295100Y-183000D02*
Y-182000D01*
X294200Y-153000D02*
X295200D01*
X294700Y-153500D02*
Y-152500D01*
X316500Y-164000D02*
X317500D01*
X317000Y-164500D02*
Y-163500D01*
X315800Y-140800D02*
X316800D01*
X316300Y-141300D02*
Y-140300D01*
X250100Y-144200D02*
X251100D01*
X250600Y-144700D02*
Y-143700D01*
X296500Y-118500D02*
X297500D01*
X297000Y-119000D02*
Y-118000D01*
X296700Y-99000D02*
X297700D01*
X297200Y-99500D02*
Y-98500D01*
X316300Y-107700D02*
X317300D01*
X316800Y-108200D02*
Y-107200D01*
X316600Y-88800D02*
X317600D01*
X317100Y-89300D02*
Y-88300D01*
X316700Y-68300D02*
X317700D01*
X317200Y-68800D02*
Y-67800D01*
X301500Y-73500D02*
X302500D01*
X302000Y-74000D02*
Y-73000D01*
X287600Y-87400D02*
X288600D01*
X288100Y-87900D02*
Y-86900D01*
X291800Y-60400D02*
X292800D01*
X292300Y-60900D02*
Y-59900D01*
X301600Y-52800D02*
X302600D01*
X302100Y-53300D02*
Y-52300D01*
X292200Y-75300D02*
X293200D01*
X292700Y-75800D02*
Y-74800D01*
X295900Y-27500D02*
X296900D01*
X296400Y-28000D02*
Y-27000D01*
X286200Y-4300D02*
X287200D01*
X286700Y-4800D02*
Y-3800D01*
X283700Y47100D02*
X284700D01*
X284200Y46600D02*
Y47600D01*
X302600Y-12800D02*
X303600D01*
X303100Y-13300D02*
Y-12300D01*
X293000Y20800D02*
X294000D01*
X293500Y20300D02*
Y21300D01*
X302600Y100D02*
X303600D01*
X303100Y-400D02*
Y600D01*
X316600Y200D02*
X317600D01*
X317100Y-300D02*
Y700D01*
X316400Y17400D02*
X317400D01*
X316900Y16900D02*
Y17900D01*
X280900Y10700D02*
X281900D01*
X281400Y10200D02*
Y11200D01*
X270900Y13900D02*
X271900D01*
X271400Y13400D02*
Y14400D01*
X317400Y48800D02*
X318400D01*
X317900Y48300D02*
Y49300D01*
X255600Y32200D02*
X256600D01*
X256100Y31700D02*
Y32700D01*
X230900Y29900D02*
X231900D01*
X231400Y29400D02*
Y30400D01*
X233400Y41400D02*
X234400D01*
X233900Y40900D02*
Y41900D01*
X216200Y41700D02*
X217200D01*
X216700Y41200D02*
Y42200D01*
X203700Y40700D02*
X204700D01*
X204200Y40200D02*
Y41200D01*
X215500Y8200D02*
X216500D01*
X216000Y7700D02*
Y8700D01*
X154800Y-31000D02*
X155800D01*
X155300Y-31500D02*
Y-30500D01*
X183900Y-32800D02*
X184900D01*
X184400Y-33300D02*
Y-32300D01*
X133000Y-33600D02*
X134000D01*
X133500Y-34100D02*
Y-33100D01*
X153400Y-58900D02*
X154400D01*
X153900Y-59400D02*
Y-58400D01*
X157200Y-58800D02*
X158200D01*
X157700Y-59300D02*
Y-58300D01*
X153600Y-91700D02*
X154600D01*
X154100Y-92200D02*
Y-91200D01*
X157100Y-91700D02*
X158100D01*
X157600Y-92200D02*
Y-91200D01*
X138700Y-84900D02*
X139700D01*
X139200Y-85400D02*
Y-84400D01*
X134100Y-107600D02*
X135100D01*
X134600Y-108100D02*
Y-107100D01*
X153700Y7900D02*
X154700D01*
X154200Y7400D02*
Y8400D01*
X149000Y25300D02*
X150000D01*
X149500Y24800D02*
Y25800D01*
X153700Y33100D02*
X154700D01*
X154200Y32600D02*
Y33600D01*
X143900Y31800D02*
X144900D01*
X144400Y31300D02*
Y32300D01*
X141000Y11800D02*
X142000D01*
X141500Y11300D02*
Y12300D01*
X141275Y19075D02*
X142275D01*
X141775Y18575D02*
Y19575D01*
X135200Y32600D02*
X136200D01*
X135700Y32100D02*
Y33100D01*
X129600Y24500D02*
X130600D01*
X130100Y24000D02*
Y25000D01*
X123100Y18600D02*
X124100D01*
X123600Y18100D02*
Y19100D01*
X115000Y23100D02*
X116000D01*
X115500Y22600D02*
Y23600D01*
X103700Y24100D02*
X104700D01*
X104200Y23600D02*
Y24600D01*
X104500Y28800D02*
X105500D01*
X105000Y28300D02*
Y29300D01*
X114900Y45100D02*
X115900D01*
X115400Y44600D02*
Y45600D01*
X84100Y45000D02*
X85100D01*
X84600Y44500D02*
Y45500D01*
X80900Y35400D02*
X81900D01*
X81400Y34900D02*
Y35900D01*
X75600Y29100D02*
X76600D01*
X76100Y28600D02*
Y29600D01*
X76400Y21700D02*
X77400D01*
X76900Y21200D02*
Y22200D01*
X86700Y20300D02*
X87700D01*
X87200Y19800D02*
Y20800D01*
X98200Y14400D02*
X99200D01*
X98700Y13900D02*
Y14900D01*
X39400Y49900D02*
X40400D01*
X39900Y49400D02*
Y50400D01*
X16800Y41100D02*
X17800D01*
X17300Y40600D02*
Y41600D01*
X300Y47500D02*
X1300D01*
X800Y47000D02*
Y48000D01*
X-12500Y38300D02*
X-11500D01*
X-12000Y37800D02*
Y38800D01*
X-16900Y49900D02*
X-15900D01*
X-16400Y49400D02*
Y50400D01*
X-43800Y49800D02*
X-42800D01*
X-43300Y49300D02*
Y50300D01*
X-63100Y51000D02*
X-62100D01*
X-62600Y50500D02*
Y51500D01*
X-85800Y31900D02*
X-84800D01*
X-85300Y31400D02*
Y32400D01*
X-75700Y16200D02*
X-74700D01*
X-75200Y15700D02*
Y16700D01*
X-86300Y13000D02*
X-85300D01*
X-85800Y12500D02*
Y13500D01*
X-60700Y20400D02*
X-59700D01*
X-60200Y19900D02*
Y20900D01*
X-44300Y23500D02*
X-43300D01*
X-43800Y23000D02*
Y24000D01*
X-70300Y700D02*
X-69300D01*
X-69800Y200D02*
Y1200D01*
X-54900Y1700D02*
X-53900D01*
X-54400Y1200D02*
Y2200D01*
X-70000Y-5100D02*
X-69000D01*
X-69500Y-5600D02*
Y-4600D01*
X-86800D02*
X-85800D01*
X-86300Y-5100D02*
Y-4100D01*
X-86100Y-30200D02*
X-85100D01*
X-85600Y-30700D02*
Y-29700D01*
X-58100Y-29500D02*
X-57100D01*
X-57600Y-30000D02*
Y-29000D01*
X13700Y-68100D02*
X14700D01*
X14200Y-68600D02*
Y-67600D01*
X14000Y-57700D02*
X15000D01*
X14500Y-58200D02*
Y-57200D01*
X-81800Y-110400D02*
X-80800D01*
X-81300Y-110900D02*
Y-109900D01*
X143400Y-124100D02*
X144400D01*
X143900Y-124600D02*
Y-123600D01*
X157700Y-108600D02*
X158700D01*
X158200Y-109100D02*
Y-108100D01*
X-1800Y-24000D02*
X-800D01*
X-1300Y-24500D02*
Y-23500D01*
X-38525Y-6925D02*
X-37525D01*
X-38025Y-7425D02*
Y-6425D01*
X14200Y-175100D02*
X15200D01*
X14700Y-175600D02*
Y-174600D01*
X55575Y-95325D02*
X56575D01*
X56075Y-95825D02*
Y-94825D01*
X66500Y-75400D02*
X67500D01*
X67000Y-75900D02*
Y-74900D01*
X122100Y-74700D02*
X123100D01*
X122600Y-75200D02*
Y-74200D01*
X69900Y-135000D02*
X70900D01*
X70400Y-135500D02*
Y-134500D01*
X174500Y-23800D02*
X175500D01*
X175000Y-24300D02*
Y-23300D01*
X192200Y-21300D02*
X193200D01*
X192700Y-21800D02*
Y-20800D01*
X197100Y-21100D02*
X198100D01*
X197600Y-21600D02*
Y-20600D01*
X199000Y-17600D02*
X200000D01*
X199500Y-18100D02*
Y-17100D01*
X187125Y-140825D02*
X188625D01*
X187875Y-141575D02*
Y-140075D01*
X186225Y-131725D02*
X187725D01*
X186975Y-132475D02*
Y-130975D01*
X189475Y-154525D02*
X190475D01*
X189975Y-155025D02*
Y-154025D01*
X171425Y-153325D02*
X172925D01*
X172175Y-154075D02*
Y-152575D01*
X171125Y-148725D02*
X172625D01*
X171875Y-149475D02*
Y-147975D01*
X158625Y-129125D02*
X160125D01*
X159375Y-129875D02*
Y-128375D01*
X-27900Y-7250D02*
X-26900D01*
X-27400Y-7750D02*
Y-6750D01*
X203900Y-9000D02*
X204900D01*
X204400Y-9500D02*
Y-8500D01*
X222325Y-23225D02*
X223825D01*
X223075Y-23975D02*
Y-22475D01*
X232225Y-16925D02*
X233725D01*
X232975Y-17675D02*
Y-16175D01*
X224325Y-15525D02*
X225825D01*
X225075Y-16275D02*
Y-14775D01*
X213950Y-1400D02*
X215450D01*
X214700Y-2150D02*
Y-650D01*
X219925Y-9425D02*
X221425D01*
X220675Y-10175D02*
Y-8675D01*
X207950Y-1400D02*
X209450D01*
X208700Y-2150D02*
Y-650D01*
X202050Y-1400D02*
X203550D01*
X202800Y-2150D02*
Y-650D01*
X60900Y42600D02*
X61900D01*
X61400Y42100D02*
Y43100D01*
X248425Y35175D02*
X249925D01*
X249175Y34425D02*
Y35925D01*
X251875Y39775D02*
X252875D01*
X252375Y39275D02*
Y40275D01*
X136125Y-42525D02*
X137625D01*
X136875Y-43275D02*
Y-41775D01*
X25100Y-216900D02*
X26100D01*
X25600Y-217400D02*
Y-216400D01*
X-54578Y-193500D02*
X-53578D01*
X-54078Y-194000D02*
Y-193000D01*
X-51900Y-193500D02*
X-50900D01*
X-51400Y-194000D02*
Y-193000D01*
X-43400Y-197100D02*
X-42400D01*
X-42900Y-197600D02*
Y-196600D01*
X-43400Y-194500D02*
X-42400D01*
X-42900Y-195000D02*
Y-194000D01*
X-33900Y-194300D02*
X-32900D01*
X-33400Y-194800D02*
Y-193800D01*
X-33900Y-196900D02*
X-32900D01*
X-33400Y-197400D02*
Y-196400D01*
X-26500Y-196425D02*
X-25500D01*
X-26000Y-196925D02*
Y-195925D01*
X-26500Y-198825D02*
X-25500D01*
X-26000Y-199325D02*
Y-198325D01*
X-12400Y-193800D02*
X-11400D01*
X-11900Y-194300D02*
Y-193300D01*
X-14000Y-197000D02*
X-13000D01*
X-13500Y-197500D02*
Y-196500D01*
X-14100Y-199600D02*
X-13100D01*
X-13600Y-200100D02*
Y-199100D01*
X2400Y-182900D02*
X3400D01*
X2900Y-183400D02*
Y-182400D01*
X-100Y-193500D02*
X900D01*
X400Y-194000D02*
Y-193000D01*
X3800Y-192100D02*
X4800D01*
X4300Y-192600D02*
Y-191600D01*
X3800Y-194700D02*
X4800D01*
X4300Y-195200D02*
Y-194200D01*
X27475Y-193425D02*
X28475D01*
X27975Y-193925D02*
Y-192925D01*
X42500Y-193900D02*
X43500D01*
X43000Y-194400D02*
Y-193400D01*
X45200Y-193900D02*
X46200D01*
X45700Y-194400D02*
Y-193400D01*
X105475Y-28425D02*
X106475D01*
X105975Y-28925D02*
Y-27925D01*
X102865Y-30315D02*
X103865D01*
X103365Y-30815D02*
Y-29815D01*
X96985Y-30315D02*
X97985D01*
X97485Y-30815D02*
Y-29815D01*
X91465Y-30415D02*
X92465D01*
X91965Y-30915D02*
Y-29915D01*
X52175Y-17625D02*
X53175D01*
X52675Y-18125D02*
Y-17125D01*
X147575Y-19425D02*
X148575D01*
X148075Y-19925D02*
Y-18925D01*
X136375Y12175D02*
X137375D01*
X136875Y11675D02*
Y12675D01*
X238125Y-210725D02*
X239625D01*
X238875Y-211475D02*
Y-209975D01*
X278675Y-197825D02*
X279675D01*
X279175Y-198325D02*
Y-197325D01*
X281675Y-194625D02*
X282675D01*
X282175Y-195125D02*
Y-194125D01*
X250425Y-150225D02*
X251925D01*
X251175Y-150975D02*
Y-149475D01*
X256925Y-167925D02*
X258425D01*
X257675Y-168675D02*
Y-167175D01*
X244225Y-167525D02*
X245725D01*
X244975Y-168275D02*
Y-166775D01*
X247425Y-187225D02*
X248925D01*
X248175Y-187975D02*
Y-186475D01*
X243925Y-177025D02*
X245425D01*
X244675Y-177775D02*
Y-176275D01*
X268025Y-202225D02*
X269525D01*
X268775Y-202975D02*
Y-201475D01*
X273825Y-202125D02*
X275325D01*
X274575Y-202875D02*
Y-201375D01*
X243725Y-201325D02*
X245225D01*
X244475Y-202075D02*
Y-200575D01*
X276425Y-213025D02*
X277925D01*
X277175Y-213775D02*
Y-212275D01*
X250800Y-201000D02*
X251800D01*
X251300Y-201500D02*
Y-200500D01*
X265450Y-207000D02*
X266950D01*
X266200Y-207750D02*
Y-206250D01*
X7700Y-15200D02*
X8700D01*
X8200Y-15700D02*
Y-14700D01*
X-7200Y900D02*
X-6200D01*
X-6700Y400D02*
Y1400D01*
X229550Y-75300D02*
X231050D01*
X230300Y-76050D02*
Y-74550D01*
X213050Y-74500D02*
X214550D01*
X213800Y-75250D02*
Y-73750D01*
X229350Y-78700D02*
X230850D01*
X230100Y-79450D02*
Y-77950D01*
X135200Y39800D02*
X136200D01*
X135700Y39300D02*
Y40300D01*
X235825Y3375D02*
X237325D01*
X236575Y2625D02*
Y4125D01*
X235825Y75D02*
X237325D01*
X236575Y-675D02*
Y825D01*
X250225Y-2725D02*
X251725D01*
X250975Y-3475D02*
Y-1975D01*
X246425Y-2725D02*
X247925D01*
X247175Y-3475D02*
Y-1975D01*
X312600Y-190700D02*
X313600D01*
X313100Y-191200D02*
Y-190200D01*
X212000Y-84300D02*
X213000D01*
X212500Y-84800D02*
Y-83800D01*
X55800Y46800D02*
X56800D01*
X56300Y46300D02*
Y47300D01*
X54700Y3600D02*
X55700D01*
X55200Y3100D02*
Y4100D01*
X54600Y-4200D02*
X55600D01*
X55100Y-4700D02*
Y-3700D01*
X29275Y-27925D02*
X30275D01*
X29775Y-28425D02*
Y-27425D01*
X-66994Y-152724D02*
X-65994D01*
X-66494Y-153224D02*
Y-152224D01*
X-58332Y-165716D02*
X-57332D01*
X-57832Y-166216D02*
Y-165216D01*
X-62663Y-165716D02*
X-61663D01*
X-62163Y-166216D02*
Y-165216D01*
X-66994Y-165716D02*
X-65994D01*
X-66494Y-166216D02*
Y-165216D01*
X-58332Y-161385D02*
X-57332D01*
X-57832Y-161885D02*
Y-160885D01*
X-62663Y-161385D02*
X-61663D01*
X-62163Y-161885D02*
Y-160885D01*
X-66994Y-161385D02*
X-65994D01*
X-66494Y-161885D02*
Y-160885D01*
X-58332Y-157054D02*
X-57332D01*
X-57832Y-157554D02*
Y-156554D01*
X-62663Y-157054D02*
X-61663D01*
X-62163Y-157554D02*
Y-156554D01*
X-66994Y-157054D02*
X-65994D01*
X-66494Y-157554D02*
Y-156554D01*
X-58332Y-152724D02*
X-57332D01*
X-57832Y-153224D02*
Y-152224D01*
X-62663Y-152724D02*
X-61663D01*
X-62163Y-153224D02*
Y-152224D01*
X-17925Y-156324D02*
X-16925D01*
X-17425Y-156824D02*
Y-155824D01*
X-13595Y-156324D02*
X-12595D01*
X-13094Y-156824D02*
Y-155824D01*
X-22256Y-160654D02*
X-21256D01*
X-21756Y-161154D02*
Y-160154D01*
X-17925Y-160654D02*
X-16925D01*
X-17425Y-161154D02*
Y-160154D01*
X-13595Y-160654D02*
X-12595D01*
X-13094Y-161154D02*
Y-160154D01*
X-22256Y-164985D02*
X-21256D01*
X-21756Y-165485D02*
Y-164485D01*
X-17925Y-164985D02*
X-16925D01*
X-17425Y-165485D02*
Y-164485D01*
X-13595Y-164985D02*
X-12595D01*
X-13094Y-165485D02*
Y-164485D01*
X-22256Y-169316D02*
X-21256D01*
X-21756Y-169816D02*
Y-168816D01*
X-17925Y-169316D02*
X-16925D01*
X-17425Y-169816D02*
Y-168816D01*
X-13595Y-169316D02*
X-12595D01*
X-13094Y-169816D02*
Y-168816D01*
X-22256Y-156324D02*
X-21256D01*
X-21756Y-156824D02*
Y-155824D01*
X22744Y-156324D02*
X23744D01*
X23244Y-156824D02*
Y-155824D01*
X31405Y-169316D02*
X32405D01*
X31905Y-169816D02*
Y-168816D01*
X27075Y-169316D02*
X28075D01*
X27575Y-169816D02*
Y-168816D01*
X22744Y-169316D02*
X23744D01*
X23244Y-169816D02*
Y-168816D01*
X31405Y-164985D02*
X32405D01*
X31905Y-165485D02*
Y-164485D01*
X27075Y-164985D02*
X28075D01*
X27575Y-165485D02*
Y-164485D01*
X22744Y-164985D02*
X23744D01*
X23244Y-165485D02*
Y-164485D01*
X31405Y-160654D02*
X32405D01*
X31905Y-161154D02*
Y-160154D01*
X27075Y-160654D02*
X28075D01*
X27575Y-161154D02*
Y-160154D01*
X22744Y-160654D02*
X23744D01*
X23244Y-161154D02*
Y-160154D01*
X31405Y-156324D02*
X32405D01*
X31905Y-156824D02*
Y-155824D01*
X27075Y-156324D02*
X28075D01*
X27575Y-156824D02*
Y-155824D01*
X123475Y-156324D02*
X124475D01*
X123975Y-156824D02*
Y-155824D01*
X127805Y-156324D02*
X128805D01*
X128305Y-156824D02*
Y-155824D01*
X119144Y-160654D02*
X120144D01*
X119644Y-161154D02*
Y-160154D01*
X123475Y-160654D02*
X124475D01*
X123975Y-161154D02*
Y-160154D01*
X127805Y-160654D02*
X128805D01*
X128305Y-161154D02*
Y-160154D01*
X119144Y-164985D02*
X120144D01*
X119644Y-165485D02*
Y-164485D01*
X123475Y-164985D02*
X124475D01*
X123975Y-165485D02*
Y-164485D01*
X127805Y-164985D02*
X128805D01*
X128305Y-165485D02*
Y-164485D01*
X119144Y-169316D02*
X120144D01*
X119644Y-169816D02*
Y-168816D01*
X123475Y-169316D02*
X124475D01*
X123975Y-169816D02*
Y-168816D01*
X127805Y-169316D02*
X128805D01*
X128305Y-169816D02*
Y-168816D01*
X119144Y-156324D02*
X120144D01*
X119644Y-156824D02*
Y-155824D01*
X-43300Y-191400D02*
X-42300D01*
X-42800Y-191900D02*
Y-190900D01*
X-60600Y-125200D02*
X-59600D01*
X-60100Y-125700D02*
Y-124700D01*
X-27525Y-176625D02*
X-26525D01*
X-27025Y-177125D02*
Y-176125D01*
X-15025Y-140825D02*
X-14025D01*
X-14525Y-141325D02*
Y-140325D01*
X-700Y-138300D02*
X300D01*
X-200Y-138800D02*
Y-137800D01*
X115175Y-143925D02*
X116175D01*
X115675Y-144425D02*
Y-143425D01*
X115175Y-146425D02*
X116175D01*
X115675Y-146925D02*
Y-145925D01*
X-15800Y-124000D02*
X-14800D01*
X-15300Y-124500D02*
Y-123500D01*
X-11225Y-76325D02*
X-10225D01*
X-10725Y-76825D02*
Y-75825D01*
X-33325Y-78825D02*
X-32325D01*
X-32825Y-79325D02*
Y-78325D01*
M02*
