G04 Layer_Physical_Order=2*
G04 Layer_Color=32768*
%FSLAX25Y25*%
%MOIN*%
G70*
G01*
G75*
%ADD77C,0.01000*%
%ADD80C,0.02000*%
%ADD134C,0.08700*%
G04:AMPARAMS|DCode=135|XSize=88mil|YSize=88mil|CornerRadius=0mil|HoleSize=0mil|Usage=FLASHONLY|Rotation=0.000|XOffset=0mil|YOffset=0mil|HoleType=Round|Shape=Relief|Width=8mil|Gap=12mil|Entries=4|*
%AMTHD135*
7,0,0,0.08800,0.06400,0.00800,45*
%
%ADD135THD135*%
%ADD136C,0.06400*%
%ADD137C,0.03900*%
%ADD138C,0.14211*%
%ADD139C,0.05943*%
G04:AMPARAMS|DCode=140|XSize=83.433mil|YSize=83.433mil|CornerRadius=0mil|HoleSize=0mil|Usage=FLASHONLY|Rotation=0.000|XOffset=0mil|YOffset=0mil|HoleType=Round|Shape=Relief|Width=8mil|Gap=12mil|Entries=4|*
%AMTHD140*
7,0,0,0.08343,0.05943,0.00800,45*
%
%ADD140THD140*%
%ADD141C,0.07439*%
%ADD142C,0.08400*%
G04:AMPARAMS|DCode=143|XSize=108mil|YSize=108mil|CornerRadius=0mil|HoleSize=0mil|Usage=FLASHONLY|Rotation=0.000|XOffset=0mil|YOffset=0mil|HoleType=Round|Shape=Relief|Width=8mil|Gap=12mil|Entries=4|*
%AMTHD143*
7,0,0,0.10800,0.08400,0.00800,45*
%
%ADD143THD143*%
%ADD144C,0.08300*%
%ADD145C,0.06200*%
G04:AMPARAMS|DCode=146|XSize=86mil|YSize=86mil|CornerRadius=0mil|HoleSize=0mil|Usage=FLASHONLY|Rotation=0.000|XOffset=0mil|YOffset=0mil|HoleType=Round|Shape=Relief|Width=8mil|Gap=12mil|Entries=4|*
%AMTHD146*
7,0,0,0.08600,0.06200,0.00800,45*
%
%ADD146THD146*%
%ADD147C,0.11100*%
%ADD148C,0.07900*%
%ADD149C,0.03400*%
G54D77*
X-88500Y-108953D02*
X-86146Y-106600D01*
X-38925Y-10225D02*
X-11725D01*
X-7925Y-14025D01*
Y-26079D02*
Y-14025D01*
Y-26079D02*
X12681D01*
X-86146Y-106600D02*
X15900D01*
X17800Y-104700D01*
Y-79600D01*
X12681Y-74481D02*
X17800Y-79600D01*
X12681Y-74481D02*
Y-26079D01*
X-51400Y-22700D02*
X-38925Y-10225D01*
X-51400Y-39225D02*
Y-22700D01*
X-88500Y-39225D02*
X-51400D01*
G54D80*
X-88500Y-224800D02*
X324886D01*
Y54728D01*
X-88500D02*
X324886D01*
X-88500Y-224800D02*
Y54728D01*
G54D134*
X257975Y-210725D02*
D03*
X244575D02*
D03*
Y-157725D02*
D03*
X257975D02*
D03*
X245075Y-109425D02*
D03*
X258475D02*
D03*
Y-56425D02*
D03*
X245075D02*
D03*
X228970Y-210686D02*
D03*
X215570D02*
D03*
Y-157686D02*
D03*
X228970D02*
D03*
G54D135*
X-39200Y10900D02*
D03*
X148114Y-72162D02*
D03*
X274575Y39375D02*
D03*
X148114Y-41060D02*
D03*
X-29200Y35000D02*
D03*
X34695Y35043D02*
D03*
X2900Y35000D02*
D03*
X148114Y-103265D02*
D03*
X-77652Y-13228D02*
D03*
G54D136*
X-29200Y10900D02*
D03*
X148114Y-82162D02*
D03*
X274575Y29375D02*
D03*
X315142Y-182674D02*
D03*
X148114Y-51060D02*
D03*
X172475Y-61125D02*
D03*
Y-51125D02*
D03*
Y-41125D02*
D03*
X-39200Y35000D02*
D03*
X61862Y-213000D02*
D03*
X71862D02*
D03*
X81862D02*
D03*
X91862D02*
D03*
Y-185441D02*
D03*
X81862D02*
D03*
X71862D02*
D03*
X61862D02*
D03*
X10681Y-213000D02*
D03*
X20681D02*
D03*
X30681D02*
D03*
X40681D02*
D03*
X-10500D02*
D03*
X-20500D02*
D03*
X-30500D02*
D03*
X-40500D02*
D03*
X24695Y35043D02*
D03*
X44695D02*
D03*
X54695D02*
D03*
X-7100Y35000D02*
D03*
X143083Y-212961D02*
D03*
X133083D02*
D03*
X123083D02*
D03*
X113083D02*
D03*
X148114Y-113265D02*
D03*
X172375Y-102525D02*
D03*
Y-92525D02*
D03*
Y-82525D02*
D03*
X-77652Y4572D02*
D03*
G54D137*
X-75815Y-212115D02*
D03*
X-61815D02*
D03*
Y-198115D02*
D03*
X-75815D02*
D03*
X-78815Y-205115D02*
D03*
X-58815D02*
D03*
X-68815Y-195115D02*
D03*
Y-215115D02*
D03*
X-75815Y28043D02*
D03*
X-61815D02*
D03*
Y42042D02*
D03*
X-75815D02*
D03*
X-78815Y35043D02*
D03*
X-58815D02*
D03*
X-68815Y45042D02*
D03*
Y25043D02*
D03*
X298201Y28043D02*
D03*
X312201D02*
D03*
Y42042D02*
D03*
X298201D02*
D03*
X295201Y35043D02*
D03*
X315201D02*
D03*
X305201Y45042D02*
D03*
Y25043D02*
D03*
X298201Y-212115D02*
D03*
X312201D02*
D03*
Y-198115D02*
D03*
X298201D02*
D03*
X295201Y-205115D02*
D03*
X315201D02*
D03*
X305201Y-195115D02*
D03*
Y-215115D02*
D03*
X84100Y-32600D02*
D03*
X251700Y-67600D02*
D03*
X252800Y-99800D02*
D03*
X247175Y-2725D02*
D03*
X250975D02*
D03*
X266200Y-207000D02*
D03*
X244475Y-201325D02*
D03*
X274575Y-202125D02*
D03*
X268775Y-202225D02*
D03*
X244675Y-177025D02*
D03*
X248175Y-187225D02*
D03*
X244975Y-167525D02*
D03*
X257675Y-167925D02*
D03*
X251175Y-150225D02*
D03*
X238875Y-210725D02*
D03*
X249175Y35175D02*
D03*
X202800Y-1400D02*
D03*
X208700D02*
D03*
X214700D02*
D03*
X225075Y-15525D02*
D03*
X232975Y-16925D02*
D03*
X223075Y-23225D02*
D03*
X171875Y-148725D02*
D03*
X172175Y-153325D02*
D03*
X186975Y-131725D02*
D03*
X187875Y-140825D02*
D03*
X197100Y-1400D02*
D03*
X115700Y-38500D02*
D03*
X125375Y-38325D02*
D03*
X31475Y-98925D02*
D03*
X-55125Y-4725D02*
D03*
X257075Y26575D02*
D03*
X188275Y-98625D02*
D03*
X168375Y-148325D02*
D03*
Y-153325D02*
D03*
X261800Y-15700D02*
D03*
X243075Y-43225D02*
D03*
Y-33225D02*
D03*
X253075D02*
D03*
X251975Y-23325D02*
D03*
X252675Y-13225D02*
D03*
X239875Y-17325D02*
D03*
X243075Y-25125D02*
D03*
X233075Y-23225D02*
D03*
X213075D02*
D03*
X215875Y-201325D02*
D03*
X286800Y-189600D02*
D03*
X271775Y-197125D02*
D03*
X271775Y-185025D02*
D03*
X286275Y-166325D02*
D03*
X268475Y-170725D02*
D03*
X277075Y-175825D02*
D03*
X276875Y-156725D02*
D03*
X290675Y-161325D02*
D03*
X273975Y-145025D02*
D03*
X263975Y-139425D02*
D03*
X264475Y-145125D02*
D03*
X264875Y-135625D02*
D03*
X229275Y-147525D02*
D03*
X234175Y-149225D02*
D03*
X238075Y-145425D02*
D03*
X237075Y-139425D02*
D03*
X238175Y-133425D02*
D03*
X228875Y-167425D02*
D03*
X221675Y-165925D02*
D03*
X215875Y-147425D02*
D03*
X275175Y-119725D02*
D03*
X253975Y-93225D02*
D03*
X292675Y-106925D02*
D03*
X276775Y-111325D02*
D03*
X267575Y-101525D02*
D03*
X276875Y-92325D02*
D03*
X285975Y-101225D02*
D03*
X290475Y-96025D02*
D03*
X290675Y-118025D02*
D03*
X258375Y-119925D02*
D03*
X266775Y-109325D02*
D03*
X258375Y-99325D02*
D03*
X247475D02*
D03*
X245175Y-119725D02*
D03*
X237875Y-109525D02*
D03*
X284775Y-45125D02*
D03*
X268575Y-45225D02*
D03*
X283475Y-58025D02*
D03*
X293075Y-47325D02*
D03*
X293175Y-39525D02*
D03*
X286475Y-36525D02*
D03*
X276875Y-26625D02*
D03*
Y-45725D02*
D03*
X265775Y-56425D02*
D03*
X251875Y-49325D02*
D03*
X258575Y-68325D02*
D03*
X245075Y-68425D02*
D03*
X239475Y-65825D02*
D03*
X237975Y-56525D02*
D03*
X193075Y-1425D02*
D03*
X-52925Y-18425D02*
D03*
X125775Y-122125D02*
D03*
X-8713Y-68751D02*
D03*
X-12225Y-35625D02*
D03*
X-46725Y-30925D02*
D03*
X-5823Y-31493D02*
D03*
X-32225Y-71325D02*
D03*
X36375Y-52225D02*
D03*
X-3165Y-28737D02*
D03*
X7845Y-38509D02*
D03*
X-6512Y-99111D02*
D03*
X-41706Y-18720D02*
D03*
X4315Y-51178D02*
D03*
X-6709Y-81887D02*
D03*
X-36925Y-58925D02*
D03*
X-39725Y-51725D02*
D03*
X211675Y-35625D02*
D03*
X208775Y-214825D02*
D03*
Y-206325D02*
D03*
X199475Y-216425D02*
D03*
X204275D02*
D03*
X208775Y-210625D02*
D03*
X173975Y-195825D02*
D03*
X164775D02*
D03*
X173975Y-190625D02*
D03*
X164775D02*
D03*
Y-185353D02*
D03*
X173975Y-185325D02*
D03*
X276775Y-13625D02*
D03*
X267775Y-3825D02*
D03*
X172175Y-158525D02*
D03*
X168375Y-158425D02*
D03*
X152575Y-126025D02*
D03*
X30975Y-81325D02*
D03*
X112675Y-91525D02*
D03*
X216875Y2875D02*
D03*
X128675Y-110825D02*
D03*
X116600Y-98400D02*
D03*
X136875Y-47025D02*
D03*
X129975Y-60025D02*
D03*
X133375Y-96825D02*
D03*
X132275Y-88025D02*
D03*
X137175Y-75325D02*
D03*
X-23525Y-63225D02*
D03*
X-36925Y-93525D02*
D03*
Y-96725D02*
D03*
X-37025Y-89325D02*
D03*
X-50508Y-29325D02*
D03*
X-52725Y-26725D02*
D03*
X116275Y-109925D02*
D03*
X38500Y23100D02*
D03*
X41500D02*
D03*
X276775Y5975D02*
D03*
X211575Y-42825D02*
D03*
X211775Y-28525D02*
D03*
X1500Y23100D02*
D03*
X-1500D02*
D03*
X226475Y-179725D02*
D03*
X185600Y-69800D02*
D03*
X-73000Y-47300D02*
D03*
X209200Y-99600D02*
D03*
X199300Y-80600D02*
D03*
X251400Y-166200D02*
D03*
X257900Y-200800D02*
D03*
X68701Y-107776D02*
D03*
G54D138*
X-68815Y-205115D02*
D03*
Y35043D02*
D03*
X305201D02*
D03*
Y-205115D02*
D03*
G54D139*
X90475Y-6325D02*
D03*
X100475D02*
D03*
Y3675D02*
D03*
X110475Y-6325D02*
D03*
Y3675D02*
D03*
X120475Y-6325D02*
D03*
Y3675D02*
D03*
X130475Y-6325D02*
D03*
Y3675D02*
D03*
X174743Y-5654D02*
D03*
X164743D02*
D03*
X174743Y4346D02*
D03*
Y14346D02*
D03*
X164743D02*
D03*
Y24346D02*
D03*
X174743Y34346D02*
D03*
X164743D02*
D03*
X90475Y31175D02*
D03*
X100475D02*
D03*
Y41175D02*
D03*
X110475Y31175D02*
D03*
Y41175D02*
D03*
X120475Y31175D02*
D03*
Y41175D02*
D03*
X130475Y31175D02*
D03*
Y41175D02*
D03*
G54D140*
X90475Y3675D02*
D03*
X164743Y4346D02*
D03*
X174743Y24346D02*
D03*
X90475Y41175D02*
D03*
G54D141*
X60000Y10000D02*
D03*
Y0D02*
D03*
X50000Y10000D02*
D03*
Y0D02*
D03*
X40000Y10000D02*
D03*
Y0D02*
D03*
X30000Y10000D02*
D03*
Y0D02*
D03*
X20000Y10000D02*
D03*
Y0D02*
D03*
X10000Y10000D02*
D03*
Y0D02*
D03*
X0Y10000D02*
D03*
Y0D02*
D03*
G54D142*
X276775Y-166275D02*
D03*
Y-101275D02*
D03*
Y-36275D02*
D03*
Y-3775D02*
D03*
G54D143*
Y-133775D02*
D03*
Y-68775D02*
D03*
G54D144*
X-67852Y9472D02*
D03*
Y-18128D02*
D03*
G54D145*
X-42341Y-76257D02*
D03*
Y-66335D02*
D03*
X-50241D02*
D03*
X-33672Y-26769D02*
D03*
Y-16769D02*
D03*
X-23673Y-26769D02*
D03*
Y-16769D02*
D03*
X-13672Y-26769D02*
D03*
G54D146*
X-50241Y-76257D02*
D03*
X-13672Y-16769D02*
D03*
G54D147*
X-60941Y-47635D02*
D03*
Y-94957D02*
D03*
G54D148*
X174175Y-128925D02*
D03*
X194175D02*
D03*
G54D149*
X45177Y-20472D02*
D03*
X45967Y-17422D02*
D03*
X38781Y-13977D02*
D03*
X101275Y-121025D02*
D03*
X41831Y-17435D02*
D03*
X43898Y-14173D02*
D03*
X29331Y-35335D02*
D03*
X45975Y-25925D02*
D03*
X55515Y-49609D02*
D03*
X59842Y-46063D02*
D03*
X70374Y-19094D02*
D03*
X64075Y-25492D02*
D03*
X57776Y-31398D02*
D03*
X87575Y-47725D02*
D03*
X76382Y-45967D02*
D03*
X83563Y-22933D02*
D03*
X193156Y-170057D02*
D03*
Y-166058D02*
D03*
X189156D02*
D03*
Y-170057D02*
D03*
X185156D02*
D03*
Y-166058D02*
D03*
X181156D02*
D03*
Y-170057D02*
D03*
Y-178058D02*
D03*
Y-182057D02*
D03*
X185156D02*
D03*
Y-178058D02*
D03*
X189156D02*
D03*
Y-182057D02*
D03*
X193156D02*
D03*
Y-178058D02*
D03*
Y-174057D02*
D03*
X189156D02*
D03*
X181156D02*
D03*
X185156D02*
D03*
X225688Y-33948D02*
D03*
Y-29948D02*
D03*
Y-37948D02*
D03*
Y-41948D02*
D03*
X221688D02*
D03*
X217688D02*
D03*
Y-37948D02*
D03*
X221688D02*
D03*
Y-33948D02*
D03*
X217688D02*
D03*
Y-29948D02*
D03*
X221688D02*
D03*
X229688D02*
D03*
X233688D02*
D03*
Y-33948D02*
D03*
X229688D02*
D03*
Y-37948D02*
D03*
X233688D02*
D03*
Y-41948D02*
D03*
X229688D02*
D03*
X-15300Y-124000D02*
D03*
X115675Y-146425D02*
D03*
Y-143925D02*
D03*
X-200Y-138300D02*
D03*
X-14525Y-140825D02*
D03*
X29775Y-27925D02*
D03*
X55100Y-4200D02*
D03*
X55200Y3600D02*
D03*
X56300Y46800D02*
D03*
X212500Y-84300D02*
D03*
X-6700Y900D02*
D03*
X136875Y12175D02*
D03*
X148075Y-19425D02*
D03*
X52675Y-17625D02*
D03*
X91965Y-30415D02*
D03*
X97485Y-30315D02*
D03*
X103365D02*
D03*
X45700Y-193900D02*
D03*
X43000D02*
D03*
X27975Y-193425D02*
D03*
X4300Y-194700D02*
D03*
Y-192100D02*
D03*
X2900Y-182900D02*
D03*
X-13600Y-199600D02*
D03*
X-13500Y-197000D02*
D03*
X-26000Y-198825D02*
D03*
Y-196425D02*
D03*
X-33400Y-196900D02*
D03*
Y-194300D02*
D03*
X-42900Y-194500D02*
D03*
Y-197100D02*
D03*
X-51400Y-193500D02*
D03*
X-54078D02*
D03*
X252375Y39775D02*
D03*
X-27400Y-7250D02*
D03*
X189975Y-154525D02*
D03*
X199500Y-17600D02*
D03*
X197600Y-21100D02*
D03*
X192700Y-21300D02*
D03*
X175000Y-23800D02*
D03*
X122600Y-74700D02*
D03*
X67000Y-75400D02*
D03*
X56075Y-95325D02*
D03*
X43000Y-44100D02*
D03*
X-15300Y21200D02*
D03*
X-11700Y1400D02*
D03*
X-5300Y-88900D02*
D03*
X-11500Y-93900D02*
D03*
X-7900Y-39800D02*
D03*
X45975Y-120525D02*
D03*
X42975D02*
D03*
X38075Y-110325D02*
D03*
X-59525Y-119625D02*
D03*
Y-122225D02*
D03*
X-4625Y-125325D02*
D03*
X-7825D02*
D03*
X103575Y-26525D02*
D03*
X-25225Y-144725D02*
D03*
X-40625Y-139925D02*
D03*
X131075Y-134425D02*
D03*
X-9425Y-180625D02*
D03*
X39775Y-178025D02*
D03*
X19375Y-179525D02*
D03*
X16875D02*
D03*
X-26025Y-179625D02*
D03*
X-29125Y-179525D02*
D03*
X-46000Y-180900D02*
D03*
X-40600D02*
D03*
X-51925Y-178525D02*
D03*
X-55225Y-176925D02*
D03*
X79575Y-165125D02*
D03*
X81875D02*
D03*
X96875Y-131925D02*
D03*
X146275Y-184725D02*
D03*
X143675D02*
D03*
X129475Y-189925D02*
D03*
X107375Y-191525D02*
D03*
X130575Y-182025D02*
D03*
X5168Y-122757D02*
D03*
X3575Y-119825D02*
D03*
X45402Y-136625D02*
D03*
X6075Y-137925D02*
D03*
X14475Y-144725D02*
D03*
X19475Y-143825D02*
D03*
X-45200Y-135200D02*
D03*
X112575Y-120825D02*
D03*
X141975Y-137225D02*
D03*
X133975Y-180525D02*
D03*
X39775D02*
D03*
X-79825Y-113025D02*
D03*
X-35425Y-170725D02*
D03*
Y-173725D02*
D03*
X-15825Y-138825D02*
D03*
X9875Y-172325D02*
D03*
X-49325Y-173625D02*
D03*
X-55625Y-134025D02*
D03*
X-82225Y-163125D02*
D03*
X-9425Y-178025D02*
D03*
X-78725Y-179525D02*
D03*
X-80925D02*
D03*
X-71325Y-142725D02*
D03*
X-61725Y-137625D02*
D03*
X-59525D02*
D03*
X126975Y-189925D02*
D03*
X109975Y-191525D02*
D03*
X105375Y-201625D02*
D03*
X-71325Y-140525D02*
D03*
X30475Y-140825D02*
D03*
X29175Y-138825D02*
D03*
X130975Y-136825D02*
D03*
X50975Y-142525D02*
D03*
X47675Y-136625D02*
D03*
X44175Y-110725D02*
D03*
X32775Y-122525D02*
D03*
X5875Y-175125D02*
D03*
X104375Y-125825D02*
D03*
X10875Y-126425D02*
D03*
X14675Y-126525D02*
D03*
X7075Y-126425D02*
D03*
X-25225Y-147225D02*
D03*
X-30000Y-131400D02*
D03*
X-54825Y-131725D02*
D03*
X39175Y-105625D02*
D03*
X-47825Y-113725D02*
D03*
X-42325Y-115325D02*
D03*
X-32500Y-129700D02*
D03*
X-35400Y-128700D02*
D03*
X-19825Y-118125D02*
D03*
X-10325Y-135025D02*
D03*
X-1125Y-129825D02*
D03*
X-35625Y-134525D02*
D03*
X-27725Y-140725D02*
D03*
X-64625Y-117225D02*
D03*
X-67225Y-115025D02*
D03*
X-75725Y-115725D02*
D03*
X-50125Y-129225D02*
D03*
X130575Y-179825D02*
D03*
X126075Y-140925D02*
D03*
X126875Y-138625D02*
D03*
X67175Y-168625D02*
D03*
X111275Y-33900D02*
D03*
X141975Y-13625D02*
D03*
X62875Y-90325D02*
D03*
Y-96625D02*
D03*
X70775Y-93525D02*
D03*
X80825Y-91575D02*
D03*
X80800Y-96600D02*
D03*
X36175Y-85275D02*
D03*
X52475Y-58825D02*
D03*
X97053Y-81025D02*
D03*
X112475Y-99225D02*
D03*
X111375Y-71325D02*
D03*
X100154Y-81025D02*
D03*
X34900Y-78200D02*
D03*
X56100Y-80100D02*
D03*
X55558Y-73225D02*
D03*
X52457Y-67725D02*
D03*
Y-63225D02*
D03*
X49358D02*
D03*
X49375Y-58825D02*
D03*
X52457Y-49525D02*
D03*
X49358D02*
D03*
X93954Y-81025D02*
D03*
X36675Y-92825D02*
D03*
X28875Y-95525D02*
D03*
X24700Y-53600D02*
D03*
X19700Y-44700D02*
D03*
X27075Y-88525D02*
D03*
X36475Y-89725D02*
D03*
X-2200Y-88800D02*
D03*
X-3825Y-77325D02*
D03*
X-4025Y-66125D02*
D03*
X4324Y-65634D02*
D03*
X132475Y-113025D02*
D03*
X187700Y-82400D02*
D03*
X203075Y-68625D02*
D03*
X-10325Y-137425D02*
D03*
X135375Y-178025D02*
D03*
X-51825Y-174325D02*
D03*
X28000Y-196000D02*
D03*
X134275Y-1425D02*
D03*
X84200Y-9700D02*
D03*
X55000Y8500D02*
D03*
X-55200Y-14000D02*
D03*
X-12700Y-4900D02*
D03*
X93900Y24100D02*
D03*
X114475Y-71425D02*
D03*
X141975Y-16925D02*
D03*
X130200Y12200D02*
D03*
X133600D02*
D03*
X-59125Y-34825D02*
D03*
X89100Y-92200D02*
D03*
X67500Y-93600D02*
D03*
X119475Y-27825D02*
D03*
X89075Y-89125D02*
D03*
X59375Y-80125D02*
D03*
X156175Y-6325D02*
D03*
X262075Y47175D02*
D03*
X199375Y50475D02*
D03*
X109500Y-59700D02*
D03*
X140375Y-33525D02*
D03*
X69675Y-168625D02*
D03*
X56975Y-63225D02*
D03*
X35075Y12175D02*
D03*
X5075Y-3125D02*
D03*
X4975Y7375D02*
D03*
Y-10525D02*
D03*
X33470Y-43925D02*
D03*
X100600Y-70200D02*
D03*
X40575Y-28825D02*
D03*
X38775Y-32125D02*
D03*
X263075Y-179025D02*
D03*
X293075Y-28825D02*
D03*
X-5325Y19875D02*
D03*
X-23925Y16775D02*
D03*
X13175Y31375D02*
D03*
X3375Y-69325D02*
D03*
X27000Y49100D02*
D03*
X201000Y-51900D02*
D03*
X205800D02*
D03*
X114275Y-64025D02*
D03*
X109600Y-64800D02*
D03*
X260600Y-126500D02*
D03*
X252900Y-123200D02*
D03*
X142100Y-23400D02*
D03*
X34975Y-8125D02*
D03*
X157675Y-123025D02*
D03*
X192000Y-73000D02*
D03*
X190000Y-72900D02*
D03*
X199025Y-104375D02*
D03*
X99016Y-36319D02*
D03*
X97441Y-26083D02*
D03*
X92028D02*
D03*
X81890Y-107185D02*
D03*
X51476Y-131004D02*
D03*
X63583Y-107283D02*
D03*
X84449Y-118701D02*
D03*
X79921Y-119980D02*
D03*
X89764Y-109350D02*
D03*
X93405Y-119095D02*
D03*
X95866Y-116339D02*
D03*
X107283Y-121063D02*
D03*
X110827Y-125886D02*
D03*
X121949Y-118110D02*
D03*
X116240Y-116339D02*
D03*
X85236Y-124114D02*
D03*
X90748Y-135630D02*
D03*
X88484Y-156299D02*
D03*
X94980Y-142224D02*
D03*
X88090Y-159449D02*
D03*
X83268Y-135138D02*
D03*
X62992Y-141732D02*
D03*
X73130Y-120276D02*
D03*
X62992Y-134941D02*
D03*
M02*
