M48
;Layer_Color=9474304
;FILE_FORMAT=4:4
METRIC,TZ
;TYPE=PLATED
T1F00S00C0.2540
T2F00S00C0.3810
T3F00S00C0.9000
T4F00S00C0.9652
T5F00S00C1.0160
T6F00S00C1.3970
T7F00S00C1.4986
T8F00S00C1.5240
T9F00S00C1.6002
T10F00S00C2.2098
;TYPE=NON_PLATED
T11F00S00C1.2800
T12F00S00C3.0000
%
T01
X-218440Y-564642
X-150622Y-563118
X-132842Y-538734
X-132588Y-515112
X-118872Y-525780
X-118364Y-549910
X-108966Y-500634
Y-494030
X-108712Y-486156
X-128842Y-483426
X-130556Y-491490
X-137359
X-143320Y-478854
X-168656Y-477012
X-182436Y-475044
X-189548
X-199898Y-475996
X-199962Y-455994
X-205550
Y-436690
X-205486Y-427736
X-182372Y-433298
Y-439140
X-172466Y-456438
X-140272Y-449390
X-131890Y-453454
X-131636Y-442786
X-125286Y-441008
X-127826Y-433642
X-134430
X-101092Y-441960
X-89980Y-441262
Y-433642
Y-426022
X-89408Y-459232
X-85598Y-465582
X-103124Y-459486
X-116840
X-84836Y-493522
Y-500126
X-216408Y-494538
X-66040Y-498920
Y-505016
X-65596Y-479362
X-66104Y-456248
X-73978Y-455994
X-68644Y-448628
Y-443040
X-55260Y-430062
X-44260
X-33260
X-20892Y-442532
X-15304
X-10668Y-446278
X-23940Y-452184
Y-458788
X7366Y-464566
X11620Y-479616
X18478
X10922Y-487934
Y-494538
X1016Y-491490
X-30226Y-492252
X-34290Y-500380
X-34544Y-506984
X-11938Y-528066
X-9652Y-547370
X14224Y-546608
X65024Y-550926
X119634Y-549656
X119380Y-524510
X142748Y-524256
Y-480822
X125730Y-472948
X117792Y-474282
X122364Y-465900
X114554Y-446024
X125222Y-440436
X104648Y-435356
X99504Y-443040
X93504
X101028Y-452184
Y-458534
X84772Y-478346
X71056Y-491300
X71120Y-497840
X94424Y-503746
X109220Y-492506
X116078
X171196Y-499364
X170624Y-428308
X176974
X236410Y-429070
X277368Y-443230
X283654Y-443040
X290258
X289052Y-464312
Y-477520
X279336Y-486474
X272732
X264096Y-475552
Y-469202
X248920Y-498094
X249174Y-521208
X267652Y-512128
X272796Y-529336
X273050Y-548894
X248412Y-549148
X195326Y-550164
X309562Y-503238
X314896Y-430062
X303896
X81040
X70040
X59040
X45402Y-442532
Y-448120
X42862Y-455994
X49212
X37338Y-444754
X22288Y-447104
X14922Y-444818
X13906Y-432880
X25082Y-437706
X-64516Y-550672
X325628Y-549656
X379222
X378460Y-518922
X379920Y-491300
X371538Y-469202
X364934
X373824Y-456502
X343852Y-452184
X340296Y-458534
X331660Y-456756
Y-462344
X328866Y-482410
X322516
X343852Y-476822
X345122Y-443040
X338360
X325896Y-430062
X460136Y-431946
Y-442106
X470296
X480456
X490616
Y-452266
Y-462426
X480456
Y-452266
X470296
Y-462426
X460136
Y-452266
X470296Y-431946
X480456
X490616
X610108Y-434086
X601726Y-484632
X638302Y-510540
X709104Y-502476
X668210Y-454724
X400050Y-504190
X400558Y-535178
X716724Y-494348
X749554Y-463550
X795274Y-484378
X811784Y-500634
X805180Y-416560
X803402Y-357632
X810958Y-339916
X804672Y-273558
X805434Y-225552
X805688Y-173482
X767080Y-186690
X743458Y-191262
X742442Y-153416
X767334Y-134112
X752856Y-69850
X744410Y-73216
X769874Y-32512
X731774Y-221996
X754888Y-251460
X754380Y-300990
X748538Y-388620
X636524Y-366268
X642366Y-312928
X661924Y-321310
X505524Y-265112
X476758Y-209296
X482600Y-185166
X487680Y-185420
X515810Y-174308
X510540Y-131826
X522732
X552928Y-106548
Y-96388
Y-86228
Y-76068
X563088
Y-86228
Y-96388
Y-106548
X573248
X583408
X593568
Y-96388
X583408
Y-86228
X593568
Y-76068
X583408
X573248
Y-86228
Y-96388
X501904Y-53594
X489458Y-54102
X506730Y-44704
X468376Y-83312
X444500Y-60452
X394462Y-78740
X356552Y-85154
X339090Y-85344
X320174Y-74796
X360934Y-59436
X360616Y-42990
Y-34608
X376110Y-49340
X390906Y-149606
X400558Y-149352
X400304Y-232918
X391414
X401828Y-275844
X400494Y-312484
X365506Y-315214
X360616Y-348552
X345884Y-347790
Y-341440
X332930
X332676Y-347536
X322262Y-352108
X320230Y-357950
X326580Y-321882
X336486Y-287084
X341884Y-273304
X353568Y-215646
X388048Y-339154
X378904Y-359728
X352488Y-395161
X347662Y-412029
X325896Y-408062
Y-397062
Y-419062
X460136Y-421786
X470296
X480456
X490616
X482536Y-392494
X539750Y-214122
X311404Y-189738
X290766Y-181420
X282892Y-181166
X278384Y-164592
X278130Y-151638
X290258Y-162624
X255524Y-178308
X254390Y-205804
X246516
X238642
X233934Y-193548
X226250Y-226378
X226314Y-234188
X234442Y-241808
X205232Y-245364
X205296Y-232600
X179768Y-237554
X171450Y-237744
X159702Y-245428
Y-229426
X141414Y-225108
X147828Y-216662
X150812Y-203518
X142494Y-203454
X160782Y-203200
X170180Y-191516
X190436Y-204534
X191008Y-156718
X170180
X144716Y-160592
X133242
X125368
X125412Y-149416
X133286
X133242Y-172022
X141116
X149098Y-172212
X141116Y-185992
X133242
X125368
X82804Y-191516
X88646Y-198628
X91884Y-216598
X92646Y-227902
X93154Y-235776
X73342Y-242634
X68770Y-224854
X99504Y-268288
X96710Y-280226
X112204Y-281242
X109156Y-306134
X116776
X83248Y-311214
X60896Y-307150
X55816Y-311976
X37274Y-321374
X27622Y-321120
X17970
X13127Y-311804
X9080Y-304356
X-11748Y-318326
X-19876
X-27242Y-320612
X-33592
X-38862Y-314960
X-59500Y-309436
Y-302832
X-50356Y-300038
X-67120Y-317310
X-76200Y-333756
X-70422Y-357442
X-64072Y-367602
Y-373952
X-70326Y-378778
X-68294Y-384366
X-55260Y-397062
X-44260
Y-408062
X-55260
Y-419062
X-44260
X-33260
Y-408062
Y-397062
X-5906Y-395415
X-10986Y-411798
X-13780Y-349060
Y-342964
X-26226
Y-349060
X-40196Y-352616
X-36894Y-357696
X-508Y-351282
X15430Y-350330
X36766Y-367602
X49466Y-365316
X43878Y-378016
X45910Y-383858
X59040Y-397062
Y-408062
X70040
Y-397062
X81040
Y-408062
Y-419062
X70040
X59040
X103314Y-411544
X107632Y-394907
X137858Y-394272
X157670Y-395542
X186372Y-405956
X202120Y-419418
X207962
X232854Y-399860
X232674Y-387880
X235674Y-368880
X230674Y-355880
X235457Y-343607
X246062Y-335090
X265112Y-319596
X282384Y-319342
X285940Y-306896
X274256Y-307404
X257238
X258508Y-286830
X239458Y-295212
X231076Y-303340
X221932Y-304102
X213804
X197548
X187134Y-306642
X171640Y-305372
X164782
X149796Y-279972
X142430Y-242126
X138874Y-332804
X141414Y-354394
X129476Y-362014
X121094Y-347028
X115322
X108648Y-351346
X110680Y-356680
X77406Y-357696
X74104Y-352616
X69024Y-346012
X-2858Y-329756
X-5588Y-225552
X-13462Y-225806
X-29210Y-238506
X-27242Y-193866
X-9716Y-196406
X-10224Y-167958
X10984Y-166710
X8572Y-176086
X36068Y-172974
X36830Y-146558
X53022Y-135700
X62738Y-136144
X62674Y-111316
X50038Y-113538
X85013Y-111570
X109220Y-112014
X125368Y-125794
X133242
X141160
X149034
X170180Y-124714
X188404Y-124778
X222440Y-121222
X228282Y-115888
X226758Y-141796
Y-156782
X233590Y-77254
X233680Y-67564
X247586Y-67628
X247612Y-77000
X262546
X263080Y-67374
X269176Y-72200
X282638Y-86106
X303466Y-70676
X183642Y-41148
X176276Y-43180
X142938Y-35370
X133794Y-44768
X114744Y-54928
X116776Y-65850
X103060Y-73216
X98488Y-81598
X80200Y-84392
X69024Y-86170
X75628Y-70930
X77724Y-52578
X89408Y-48006
X89916Y-32004
X101536Y-37402
X101854Y-53086
X143700Y-68644
X32512Y-34290
X20828Y-38608
X-3302Y-60960
X-20066Y-101092
X-22670Y-123152
Y-132652
X-32120
X-32242Y-123061
X-13170Y-123152
Y-132652
Y-142152
X-22670
X-32170Y-142402
X207962Y-275654
X228028Y-282766
X205924Y-342880
X189484Y-342900
X178816
X186674Y-355880
X186924Y-368880
X205924Y-370630
X251396Y-380556
X251142Y-409004
X252470Y-423032
X261874Y-422910
X303896Y-419062
X314896
Y-408062
Y-397062
X303896
Y-408062
X290378Y-383978
X289242Y-378016
X293814Y-371920
Y-365570
X292544Y-327216
X307784Y-314008
X308038Y-300038
X295338
X285686Y-252032
X-83376Y-200216
X-107506Y-292926
X-121476Y-288862
X-151194Y-303848
Y-310452
X-152654Y-318008
X-139256Y-334582
X-141288Y-340424
X-127254Y-341884
Y-336042
X-127318Y-328232
X-114808Y-343408
X-103188Y-355410
X-90488Y-341694
X-89916Y-326898
X-82550Y-329438
X-151194Y-349568
X-156782
X-181166Y-356934
Y-362522
X-183960Y-369634
X-181928Y-375222
X-168894Y-387918
Y-398918
X-157894
Y-387918
X-146894
Y-398918
Y-409918
Y-420918
X-157894
X-168894
Y-409918
X-157894
X-125517Y-402885
X-119952Y-385890
X-208852Y-414338
X-183706Y-320612
Y-313500
X-192342Y-293942
X-202756Y-287084
X-206502Y-280416
X-170752Y-292164
X-164148Y-297752
X-204724Y-117348
X-217424Y-76708
X-146304Y-74930
X-150178Y-88456
X-140208Y-35560
X-138176Y4318
X-177292Y1778
X-176530Y-12954
X-219202Y-11684
X-217932Y33020
X-191008Y41148
X-152908Y51816
X-111252Y59690
X-109982Y126492
X-159004Y129540
X-216662Y81026
X-96584Y-17590
X-69596Y-18416
X-32258Y-12446
X-29718Y3556
X-17018Y2286
X-16510Y14986
X12636Y18732
X12890Y-7938
X12636Y-26734
X88836Y-20638
X89090Y30924
X139700Y21590
X140208Y9144
X139954Y-10668
X213868Y-24638
X221488Y51562
X238506Y61214
X264668
X266700Y73152
X293370Y58674
X313944Y47244
X250698Y36576
X195326Y55118
X193294Y73914
X206756Y89916
X214884Y114300
X155956Y108204
X143002Y118872
X101346Y126746
X68580Y124714
X45212Y125984
X43942Y104394
X33464Y79692
X2032Y120650
X-41656Y126746
X-30480Y97282
X-38862Y53848
X-13526Y50482
X-60770Y42608
X293116Y114554
X344678Y101092
Y82804
X366776Y80772
X391668Y84074
X379730Y64262
X360108Y48450
X359410Y29972
X347662Y30924
X339344Y30988
X330708
X330454Y62230
X341058Y-3620
X396684Y-16066
X391668Y20066
X548640Y20828
X603520Y26658
Y36658
X613520
Y46658
X603520
X623520
Y36658
Y26658
X613520
X587756Y75946
X594106Y105156
X550418Y105918
X518668Y103378
X515810Y128460
X506412Y128206
X641032Y101028
X650494Y81788
X664400Y110426
X665670Y119824
X689356Y35306
X714756Y27178
X519176Y-22860
X728218Y-10922
X769874Y254
X805434Y508
X804926Y44196
X745490Y52832
X721868Y119634
X807466Y123952
T02
X-192570Y-538772
X-174790Y-546392
X-157010Y-538772
X-149390Y-520992
X-157010Y-503212
X-174790Y-495592
X-192570Y-503212
X-200190Y-520992
X418528Y-522796
Y-536004
Y-548958
X441896
Y-535750
Y-522796
Y-497396
Y-484188
Y-470726
X418528Y-470796
Y-484188
Y-497396
X461200Y-503746
X486918Y-499749
Y-510415
X488124Y-540068
X487616Y-548958
X506666Y-549720
X518858
X530288Y-545656
Y-534988
Y-524066
X548322Y-511366
X530606Y-461264
X522668Y-461328
Y-448628
X530606Y-448564
Y-436118
X522668Y-435928
X579564Y-441262
X581342Y-425260
X575246Y-456502
X605472Y-465138
X621474Y-449644
X622236Y-425514
X654494Y-426530
X681926Y-433642
X703770Y-446596
X690308Y-469964
X690308Y-500698
X697420Y-513398
X682688Y-513652
X676148Y-525780
X655066Y-510032
X620966Y-511366
X606742Y-535242
X630364Y-475552
X500316Y-483680
X460970Y-536728
X426910Y-454724
Y-441516
Y-428562
X403542
Y-441516
Y-454724
X443420Y-435674
X704024Y-541084
X757430Y-538772
X775210Y-546392
X792990Y-538772
X800610Y-520992
X792990Y-503212
X775210Y-495592
X757430Y-503212
X749810Y-520992
X728472Y-481584
X727138Y-422466
X738314Y-409766
X727646Y-339408
X738314Y-299784
X743394Y-271590
X726376Y-257112
X737806Y-243904
X726122Y-174816
X720026Y-147384
X723328Y-114618
X727646Y-92774
X744664Y-100394
X744410Y-120206
X798830Y-121920
X795210Y-48578
X703008Y-34608
X703262Y-67628
Y-116142
X682180Y-114872
X675068Y-143320
X639508Y-143574
X639762Y-125286
X617410Y-109792
Y-84392
Y-63818
X640016Y-59246
X641794Y-33592
X664972Y-39878
X609282Y-44006
X591756Y-42990
X592010Y-58992
X566610
X571690Y-39434
X541210Y-58992
X537908Y-72454
X537654Y-90488
X537400Y-108776
X543248Y-120738
Y-130738
Y-140738
X554248Y-146738
X560248Y-140738
X573248
X567248Y-146738
X579248
X585248Y-140738
X604456Y-143574
X608266Y-167196
X622490Y-173800
X656780Y-173546
X679894Y-174562
X703008Y-198184
X703262Y-234506
X679640Y-257874
X677608Y-277686
X703008Y-282766
X698944Y-304102
X703262Y-317564
X679386Y-336614
X672782Y-344488
X670496Y-354140
X671766Y-368618
X695896Y-368364
X703262Y-398082
X637984Y-381572
X638556Y-422148
X563054Y-421450
X548322Y-374460
X553656Y-355664
Y-342456
Y-329502
X577024
Y-342456
Y-355664
X582358Y-374714
X594804Y-379032
X604710Y-369380
X602170Y-354140
X604964Y-338900
X610934Y-319976
X622744Y-304102
X656272Y-304610
X639254Y-278448
X604202Y-278194
X594042Y-277316
X548068Y-287338
X531368Y-252984
X514286Y-230696
X506222Y-204724
X551116Y-199962
X563816
X576770
X584454Y-199898
X584962Y-191262
X543052Y-189230
X548322Y-161608
X502418Y-127394
X497522Y-100140
X517080Y-102934
X471424Y-177292
X478726Y-238824
X478218Y-250508
X474916Y-334582
X477202Y-357696
X436562Y-377762
X427672Y-376746
Y-389446
X437324
Y-402654
X427672Y-402400
X400240Y-419418
X408622Y-354648
X404812Y-327978
X387540Y-320104
X410654Y-292418
X326834Y-281496
X319468Y-310198
X338772Y-245936
Y-234252
X335978Y-223584
X348424Y-191326
X318960Y-165164
X330136Y-152464
X347662Y-119444
Y-108014
X642810Y-84392
X645096Y-236792
X656272Y-252286
X628586
X631380Y-345250
X642810
X295338Y-279210
X296164Y-249936
X286194Y-232474
X290322Y-221234
X310388Y-143002
X307784Y-132398
X307276Y-119444
X318452Y-97346
X293878Y-97790
X260858Y-101346
X213614Y-82804
Y-73152
X92392Y-132652
X91376Y-156274
X79438Y-145352
X78676Y-206566
X79184Y-217996
X79946Y-251270
X61990Y-263540
X-16540Y-261492
Y-251742
X-17018Y-217932
X-17040Y-207992
X-22130Y-174628
X-31814Y-174816
X-59754Y-160592
X-69406Y-160846
X-69152Y-114110
X-31052Y-90488
X-14790Y-79992
X-8040Y-72992
X19926Y-97813
X10960Y-129992
X52004Y-191290
X-50610Y-237808
Y-245936
X-69660Y-226632
X174434Y-275654
X198310
X-93790Y-245682
Y-237554
X-94044Y-226886
X-81852Y-181166
X-93790Y-149670
X-100902Y-131382
X-95060Y-89726
X-110300
X-118682Y-78550
X-128290Y-74486
X-133922Y-67882
X-134430Y-46800
X-105934Y-47548
X-158052Y-28766
X-185420Y-120142
X-204788Y-248730
X-140018Y-12002
X-157010Y71228
X-174790Y63608
X-192570Y71228
X-200190Y89008
X-192570Y106788
X-174790Y114408
X-157010Y106788
X-149390Y89008
X-3810Y58674
X3810
X21590
X37020Y50990
X97790Y58674
X105410
X163830Y50800
Y35306
X149796Y125666
X490410Y-3620
X500634Y-3556
X515112
X530098
X545338
X550862Y7302
X560514Y-23940
X598487
X600900Y190
Y8572
Y16954
X591248Y12890
Y1460
X627824Y-6922
X637476
X642048Y-23686
X680148Y-9716
X667004Y7874
X703008Y15176
X652970Y67500
X643064Y89852
X632904Y89344
X629602Y98742
X611060Y96964
Y87566
Y78168
X631888Y54800
X584898Y59118
X757430Y71228
X775210Y63608
X792990Y71228
X800610Y89008
X792990Y106788
X775210Y114408
X757430Y106788
X749810Y89008
T03
X229806Y-16066
X255206
X280606
X306006
Y9334
X280606
X255206
X229806
Y79184
X255206
X280606
X306006
Y104584
X280606
X255206
X229806
X331406
Y79184
Y9334
Y-16066
X418448Y-14362
Y11038
Y36438
Y61838
Y87238
X443848
Y61838
Y36438
Y11038
Y-14362
T04
X-60128Y-67994
X-34728
Y-42594
X-60128
X-85528
Y-67994
X-107546Y-168492
X-127612
Y-193692
X-107546
T05
X-102870Y-541020
X-77470
X-52070
X-26670
X27130
X52530
X77930
X103330
X157130
X182530
X207930
X233330
X287230Y-540920
X312630
X233330Y-471020
X207930
X182530
X157130
X338030Y-540920
X363430
X800460Y-463992
X437832Y-260414
Y-235014
Y-209614
X438086Y-155258
Y-129858
Y-104458
X376210Y-104292
Y-129692
Y-183292
Y-208692
Y-262292
Y-287692
X-197236Y-33598
Y11614
X-99568Y27686
Y88900
X-74168
X-18034
X7366
X62726Y89008
X88126
X113526
X138926
X-74168Y27686
X697420Y74612
Y100012
T06
X442404Y-327470
X493204
T07
X-172344Y-46044
Y24060
T08
X703008Y-422339
Y-339789
Y-257239
Y-174689
Y-92139
Y-9589
T09
X547548Y-535142
X581584
X621220Y-535242
X655256
Y-400622
X621220
X581584Y-400522
X547548
X622490Y-277940
X656526
Y-143320
X622490
T10
X-154790Y-241190
Y-120992
T11
X0Y0
Y25400
X25400
Y0
X50800
Y25400
X76200
Y0
X101600
Y25400
X127000
Y0
X152400
Y25400
T12
X-174790Y-520992
X775210
X-174790Y89008
X775210
M30
