G04*
G04 #@! TF.GenerationSoftware,Altium Limited,Altium Designer,18.1.9 (240)*
G04*
G04 Layer_Color=16711935*
%FSLAX25Y25*%
%MOIN*%
G70*
G01*
G75*
%ADD103C,0.06306*%
G04:AMPARAMS|DCode=123|XSize=33.13mil|YSize=43.37mil|CornerRadius=7.83mil|HoleSize=0mil|Usage=FLASHONLY|Rotation=90.000|XOffset=0mil|YOffset=0mil|HoleType=Round|Shape=RoundedRectangle|*
%AMROUNDEDRECTD123*
21,1,0.03313,0.02772,0,0,90.0*
21,1,0.01748,0.04337,0,0,90.0*
1,1,0.01565,0.01386,0.00874*
1,1,0.01565,0.01386,-0.00874*
1,1,0.01565,-0.01386,-0.00874*
1,1,0.01565,-0.01386,0.00874*
%
%ADD123ROUNDEDRECTD123*%
G04:AMPARAMS|DCode=136|XSize=54mil|YSize=54mil|CornerRadius=27mil|HoleSize=0mil|Usage=FLASHONLY|Rotation=270.000|XOffset=0mil|YOffset=0mil|HoleType=Round|Shape=RoundedRectangle|*
%AMROUNDEDRECTD136*
21,1,0.05400,0.00000,0,0,270.0*
21,1,0.00000,0.05400,0,0,270.0*
1,1,0.05400,0.00000,0.00000*
1,1,0.05400,0.00000,0.00000*
1,1,0.05400,0.00000,0.00000*
1,1,0.05400,0.00000,0.00000*
%
%ADD136ROUNDEDRECTD136*%
%ADD169R,0.06306X0.06306*%
%ADD170C,0.06306*%
%ADD171O,0.08650X0.16900*%
%ADD172R,0.06306X0.06306*%
G04:AMPARAMS|DCode=173|XSize=137mil|YSize=87mil|CornerRadius=0mil|HoleSize=0mil|Usage=FLASHONLY|Rotation=270.000|XOffset=0mil|YOffset=0mil|HoleType=Round|Shape=Octagon|*
%AMOCTAGOND173*
4,1,8,-0.02175,-0.06850,0.02175,-0.06850,0.04350,-0.04675,0.04350,0.04675,0.02175,0.06850,-0.02175,0.06850,-0.04350,0.04675,-0.04350,-0.04675,-0.02175,-0.06850,0.0*
%
%ADD173OCTAGOND173*%

%ADD174P,0.07144X8X22.5*%
%ADD175C,0.05800*%
%ADD176C,0.13450*%
%ADD177P,0.08010X8X292.5*%
%ADD178C,0.10400*%
%ADD179R,0.12400X0.06400*%
%ADD180O,0.12400X0.06400*%
%ADD181R,0.06400X0.12400*%
%ADD182O,0.06400X0.12400*%
%ADD183O,0.13998X0.14000*%
%ADD184R,0.13998X0.14000*%
%ADD185C,0.08400*%
%ADD328R,0.07045X0.03543*%
%ADD329R,0.12408X0.02802*%
G04:AMPARAMS|DCode=330|XSize=50mil|YSize=67mil|CornerRadius=13.5mil|HoleSize=0mil|Usage=FLASHONLY|Rotation=270.000|XOffset=0mil|YOffset=0mil|HoleType=Round|Shape=RoundedRectangle|*
%AMROUNDEDRECTD330*
21,1,0.05000,0.04000,0,0,270.0*
21,1,0.02300,0.06700,0,0,270.0*
1,1,0.02700,-0.02000,-0.01150*
1,1,0.02700,-0.02000,0.01150*
1,1,0.02700,0.02000,0.01150*
1,1,0.02700,0.02000,-0.01150*
%
%ADD330ROUNDEDRECTD330*%
%ADD331R,0.05321X0.03747*%
%ADD332R,0.06306X0.06306*%
G04:AMPARAMS|DCode=333|XSize=54mil|YSize=54mil|CornerRadius=27mil|HoleSize=0mil|Usage=FLASHONLY|Rotation=0.000|XOffset=0mil|YOffset=0mil|HoleType=Round|Shape=RoundedRectangle|*
%AMROUNDEDRECTD333*
21,1,0.05400,0.00000,0,0,0.0*
21,1,0.00000,0.05400,0,0,0.0*
1,1,0.05400,0.00000,0.00000*
1,1,0.05400,0.00000,0.00000*
1,1,0.05400,0.00000,0.00000*
1,1,0.05400,0.00000,0.00000*
%
%ADD333ROUNDEDRECTD333*%
%ADD334C,0.01000*%
G36*
X21043Y-71595D02*
X34429Y-71595D01*
X34429Y-75453D01*
X33878Y-76004D01*
X31240Y-78642D01*
X30059D01*
X24232D01*
X21043Y-75453D01*
Y-71595D01*
D02*
G37*
G36*
Y-14035D02*
X34429Y-14035D01*
X34429Y-10177D01*
X33878Y-9626D01*
X31240Y-6988D01*
X30059D01*
X24232D01*
X21043Y-10177D01*
Y-14035D01*
D02*
G37*
G36*
X183643Y-5654D02*
X175743Y-8654D01*
X176943Y-7454D01*
Y-3854D01*
X175743Y-2654D01*
X183643Y-5654D01*
D02*
G37*
G36*
X256279Y-63365D02*
X247180D01*
Y-49465D01*
X256279D01*
Y-63365D01*
D02*
G37*
G36*
Y-116365D02*
X247180D01*
Y-102465D01*
X256279D01*
Y-116365D01*
D02*
G37*
G36*
X226775Y-164625D02*
X217675D01*
Y-150725D01*
X226775D01*
Y-164625D01*
D02*
G37*
G36*
X255780Y-164665D02*
X246679D01*
Y-150765D01*
X255780D01*
Y-164665D01*
D02*
G37*
G36*
X226775Y-217625D02*
X217675D01*
Y-203725D01*
X226775D01*
Y-217625D01*
D02*
G37*
G36*
X255780Y-217665D02*
X246679D01*
Y-203765D01*
X255780D01*
Y-217665D01*
D02*
G37*
G36*
X183643Y4346D02*
X175743Y1346D01*
X176943Y2546D01*
Y6146D01*
X175743Y7346D01*
X183643Y4346D01*
D02*
G37*
G36*
Y14346D02*
X175743Y11346D01*
X176943Y12546D01*
Y16146D01*
X175743Y17346D01*
X183643Y14346D01*
D02*
G37*
G36*
Y24346D02*
X175743Y21346D01*
X176943Y22546D01*
Y26146D01*
X175743Y27346D01*
X183643Y24346D01*
D02*
G37*
G36*
Y34346D02*
X175743Y31346D01*
X176943Y32546D01*
Y36146D01*
X175743Y37346D01*
X183643Y34346D01*
D02*
G37*
G54D103*
X174743D02*
D03*
Y24346D02*
D03*
Y14346D02*
D03*
Y4346D02*
D03*
Y-5654D02*
D03*
G54D123*
X82087Y-56811D02*
D03*
Y-51456D02*
D03*
Y-51496D02*
D03*
Y-46141D02*
D03*
Y-41358D02*
D03*
Y-36004D02*
D03*
G54D136*
X53075Y-23225D02*
D03*
X123075Y-203225D02*
D03*
X-36925D02*
D03*
X-26925D02*
D03*
X-16925D02*
D03*
X-6925D02*
D03*
X13075D02*
D03*
X43075D02*
D03*
X133075D02*
D03*
X213075Y-103225D02*
D03*
X203075Y-73225D02*
D03*
X193075Y-53225D02*
D03*
X103075Y-193225D02*
D03*
X123075D02*
D03*
X113075D02*
D03*
X133075D02*
D03*
X63075D02*
D03*
X83075D02*
D03*
X73075D02*
D03*
X93075D02*
D03*
X-16925D02*
D03*
X23075D02*
D03*
X13075D02*
D03*
X33075D02*
D03*
X-76925Y-183225D02*
D03*
X192775Y-206425D02*
D03*
X133075Y-103225D02*
D03*
X153075Y-3225D02*
D03*
X-36925Y-193225D02*
D03*
X-46925D02*
D03*
X-26925D02*
D03*
X-36925Y-63225D02*
D03*
X-46925Y-53225D02*
D03*
X-6925Y16775D02*
D03*
X103075Y-133225D02*
D03*
G54D169*
X90475Y31175D02*
D03*
Y-6325D02*
D03*
G54D170*
Y41175D02*
D03*
X100475Y31175D02*
D03*
Y41175D02*
D03*
X110475Y31175D02*
D03*
Y41175D02*
D03*
X120475Y31175D02*
D03*
Y41175D02*
D03*
X130475Y31175D02*
D03*
Y41175D02*
D03*
X164743Y-5654D02*
D03*
Y4346D02*
D03*
Y14346D02*
D03*
Y24346D02*
D03*
X130475Y3675D02*
D03*
Y-6325D02*
D03*
X120475Y3675D02*
D03*
Y-6325D02*
D03*
X110475Y3675D02*
D03*
Y-6325D02*
D03*
X100475Y3675D02*
D03*
Y-6325D02*
D03*
X90475Y3675D02*
D03*
G54D171*
X174175Y-128925D02*
D03*
X194175D02*
D03*
G54D172*
X164743Y34346D02*
D03*
G54D173*
X228970Y-210686D02*
D03*
X215570D02*
D03*
Y-157686D02*
D03*
X228970D02*
D03*
X245075Y-56425D02*
D03*
X258475D02*
D03*
Y-109425D02*
D03*
X245075D02*
D03*
X257975Y-157725D02*
D03*
X244575D02*
D03*
Y-210725D02*
D03*
X257975D02*
D03*
G54D174*
X-33672Y-26769D02*
D03*
Y-16769D02*
D03*
X-23673Y-26769D02*
D03*
Y-16769D02*
D03*
X-13672Y-26769D02*
D03*
Y-16769D02*
D03*
G54D175*
X-42341Y-76257D02*
D03*
Y-66335D02*
D03*
X-50241D02*
D03*
Y-76257D02*
D03*
G54D176*
X-60941Y-47635D02*
D03*
Y-94957D02*
D03*
G54D177*
X-77652Y4572D02*
D03*
Y-13228D02*
D03*
G54D178*
X-67852Y9472D02*
D03*
Y-18128D02*
D03*
G54D179*
X172375Y-102525D02*
D03*
X148114Y-41060D02*
D03*
Y-72162D02*
D03*
Y-103265D02*
D03*
X274575Y39375D02*
D03*
X172475Y-61125D02*
D03*
G54D180*
X172375Y-92525D02*
D03*
Y-82525D02*
D03*
X148114Y-51060D02*
D03*
Y-82162D02*
D03*
Y-113265D02*
D03*
X274575Y29375D02*
D03*
X172475Y-41125D02*
D03*
Y-51125D02*
D03*
G54D181*
X2900Y35000D02*
D03*
X54695Y35043D02*
D03*
X-10500Y-213000D02*
D03*
X40681D02*
D03*
X91862Y-185441D02*
D03*
Y-213000D02*
D03*
X143083Y-212961D02*
D03*
X-39200Y10900D02*
D03*
X-29200Y35000D02*
D03*
G54D182*
X-7100D02*
D03*
X44695Y35043D02*
D03*
X34695D02*
D03*
X24695D02*
D03*
X-40500Y-213000D02*
D03*
X-30500D02*
D03*
X-20500D02*
D03*
X10681D02*
D03*
X20681D02*
D03*
X30681D02*
D03*
X61862Y-185441D02*
D03*
X71862D02*
D03*
X81862D02*
D03*
X61862Y-213000D02*
D03*
X71862D02*
D03*
X81862D02*
D03*
X113083Y-212961D02*
D03*
X123083D02*
D03*
X133083D02*
D03*
X-29200Y10900D02*
D03*
X-39200Y35000D02*
D03*
G54D183*
X276775Y-3775D02*
D03*
Y-36275D02*
D03*
Y-68775D02*
D03*
Y-101275D02*
D03*
Y-133775D02*
D03*
G54D184*
Y-166275D02*
D03*
G54D185*
X315142Y-182674D02*
D03*
G54D328*
X-684Y-38186D02*
D03*
X305294Y-183957D02*
D03*
X-53978Y19198D02*
D03*
X-52178Y-216902D02*
D03*
X305222Y12598D02*
D03*
G54D329*
X68405Y-52854D02*
D03*
Y-48839D02*
D03*
Y-28760D02*
D03*
Y-32776D02*
D03*
Y-36791D02*
D03*
Y-40807D02*
D03*
Y-44823D02*
D03*
Y-56870D02*
D03*
G54D330*
X-606Y-35284D02*
D03*
Y-41284D02*
D03*
X305217Y-186858D02*
D03*
Y-180858D02*
D03*
X-53900Y22100D02*
D03*
Y16100D02*
D03*
X-52100Y-214000D02*
D03*
Y-220000D02*
D03*
X305300Y15500D02*
D03*
Y9500D02*
D03*
G54D331*
X-82700Y-42842D02*
D03*
Y-35558D02*
D03*
X-72500D02*
D03*
Y-42842D02*
D03*
G54D332*
X187543Y34346D02*
D03*
Y24346D02*
D03*
Y14346D02*
D03*
Y4346D02*
D03*
Y-5654D02*
D03*
G54D333*
X263075Y-183225D02*
D03*
X243075D02*
D03*
X223075D02*
D03*
X63075Y46775D02*
D03*
X-56925Y-73225D02*
D03*
X-46925Y-83225D02*
D03*
X-16925Y-33225D02*
D03*
X-46925Y-23225D02*
D03*
X-26925Y-33225D02*
D03*
X-16925Y-43225D02*
D03*
X13175Y26775D02*
D03*
X-16925Y16775D02*
D03*
X43075Y-33225D02*
D03*
X93075Y-13225D02*
D03*
X23075Y-33225D02*
D03*
X133075Y-53225D02*
D03*
Y-83225D02*
D03*
X213075Y-93225D02*
D03*
X293075Y-53225D02*
D03*
X173075Y-143225D02*
D03*
X293075Y-33225D02*
D03*
X-6925Y-93225D02*
D03*
Y-73225D02*
D03*
Y-63225D02*
D03*
X23075Y-83225D02*
D03*
X33075Y-93225D02*
D03*
X23075D02*
D03*
G54D334*
X193156Y-170057D02*
D03*
Y-166058D02*
D03*
X189156D02*
D03*
Y-170057D02*
D03*
X185156D02*
D03*
Y-166058D02*
D03*
X181156D02*
D03*
Y-170057D02*
D03*
Y-178058D02*
D03*
Y-182057D02*
D03*
X185156D02*
D03*
Y-178058D02*
D03*
X189156D02*
D03*
Y-182057D02*
D03*
X193156D02*
D03*
Y-178058D02*
D03*
Y-174057D02*
D03*
X189156D02*
D03*
X181156D02*
D03*
X185156D02*
D03*
X119644Y-156324D02*
D03*
X128305Y-169316D02*
D03*
X123975D02*
D03*
X119644D02*
D03*
X128305Y-164985D02*
D03*
X123975D02*
D03*
X119644D02*
D03*
X128305Y-160654D02*
D03*
X123975D02*
D03*
X119644D02*
D03*
X128305Y-156324D02*
D03*
X123975D02*
D03*
X-8925Y-52225D02*
D03*
Y-48485D02*
D03*
X-12694Y-48449D02*
D03*
X-12646Y-52225D02*
D03*
X-12665Y-56064D02*
D03*
X-8925Y-55965D02*
D03*
X-5185D02*
D03*
Y-52225D02*
D03*
Y-48485D02*
D03*
X241543Y14432D02*
D03*
X237606D02*
D03*
Y18369D02*
D03*
X241543D02*
D03*
X245480D02*
D03*
Y14432D02*
D03*
Y10495D02*
D03*
X241543D02*
D03*
X237606D02*
D03*
X-62163Y-152724D02*
D03*
X-57832D02*
D03*
X-66494Y-157054D02*
D03*
X-62163D02*
D03*
X-57832D02*
D03*
X-66494Y-161385D02*
D03*
X-62163D02*
D03*
X-57832D02*
D03*
X-66494Y-165716D02*
D03*
X-62163D02*
D03*
X-57832D02*
D03*
X-66494Y-152724D02*
D03*
X-17425Y-156324D02*
D03*
X-13094D02*
D03*
X-21756Y-160654D02*
D03*
X-17425D02*
D03*
X-13094D02*
D03*
X-21756Y-164985D02*
D03*
X-17425D02*
D03*
X-13094D02*
D03*
X-21756Y-169316D02*
D03*
X-17425D02*
D03*
X-13094D02*
D03*
X-21756Y-156324D02*
D03*
X27575D02*
D03*
X31905D02*
D03*
X23244Y-160654D02*
D03*
X27575D02*
D03*
X31905D02*
D03*
X23244Y-164985D02*
D03*
X27575D02*
D03*
X31905D02*
D03*
X23244Y-169316D02*
D03*
X27575D02*
D03*
X31905D02*
D03*
X23244Y-156324D02*
D03*
X229688Y-41948D02*
D03*
X233688D02*
D03*
Y-37948D02*
D03*
X229688D02*
D03*
Y-33948D02*
D03*
X233688D02*
D03*
Y-29948D02*
D03*
X229688D02*
D03*
X221688D02*
D03*
X217688D02*
D03*
Y-33948D02*
D03*
X221688D02*
D03*
Y-37948D02*
D03*
X217688D02*
D03*
Y-41948D02*
D03*
X221688D02*
D03*
X225688D02*
D03*
Y-37948D02*
D03*
Y-29948D02*
D03*
Y-33948D02*
D03*
M02*
