M48
;Layer_Color=9474304
;FILE_FORMAT=4:4
METRIC,TZ
;TYPE=PLATED
T1F00S00C0.2540
T2F00S00C0.3810
T3F00S00C0.9000
T4F00S00C0.9652
T5F00S00C1.0160
T6F00S00C1.3970
T7F00S00C1.4986
T8F00S00C1.6002
T9F00S00C1.9300
T10F00S00C2.2098
;TYPE=NON_PLATED
T11F00S00C1.2800
T12F00S00C3.0000
%
T01
X6560Y6358
X74378Y7882
X106636Y21090
X106128Y45220
X92158Y39124
X92412Y55888
X94444Y79510
X87641
X96158Y87574
X81680Y92146
X56344Y93988
X42564Y95956
X35452
X25102Y95004
X25038Y115006
X22106Y121938
X19446Y136462
X42628Y137702
Y131860
X52534Y114562
X84728Y121610
X93110Y117546
X93364Y128214
X99714Y129992
X97174Y137358
X90570
X123908Y129040
X135020Y129738
Y137358
X135592Y111768
X139402Y105418
X121876Y111514
X108160
X116288Y84844
X116034Y76970
Y70366
X140164Y70874
Y77478
X8592Y76462
X158960Y72080
Y65984
X159404Y91638
X158896Y114752
X151022Y115006
X156356Y122372
Y127960
X169740Y140938
X180740
X191740
X204108Y128468
X209696
X214332Y124722
X201060Y118816
Y112212
X232366Y106434
X236620Y91384
X243478
X235922Y83066
Y76462
X226016Y79510
X194774Y78748
X190710Y70620
X190456Y64016
X213062Y42934
X215348Y23630
X239224Y24392
X290024Y20074
X344634Y21344
X344380Y46490
X367748Y46744
Y90178
X350730Y98052
X342792Y96718
X347364Y105100
X339554Y124976
X350222Y130564
X329648Y135644
X324504Y127960
X318504
X326028Y118816
Y112466
X309772Y92654
X296056Y79700
X296120Y73160
X319424Y67254
X334220Y78494
X341078
X396196Y71636
X395624Y142692
X401974
X461410Y141930
X502368Y127770
X508654Y127960
X515258
X513899Y108801
X514052Y93480
X504336Y84526
X497732
X489096Y95448
Y101798
X473920Y72906
X474174Y49792
X492652Y58872
X497796Y41664
X498050Y22106
X473412Y21852
X420326Y20836
X534562Y67762
X539896Y140938
X528896
X306040
X295040
X284040
X270402Y128468
Y122880
X267862Y115006
X274212
X262338Y126246
X247288Y123896
X239922Y126182
X250082Y133294
X160484Y20328
X550628Y21344
X604222
X603460Y52078
X604920Y79700
X596538Y101798
X589934
X598824Y114498
X568852Y118816
X565296Y112466
X556660Y114244
Y108656
X553866Y88590
X547516
X568852Y94178
X570122Y127960
X563360
X550896Y140938
X685141Y139054
X695301
X705461
X715621
Y128894
Y118734
X705461
X695301
X685141
Y108574
X695301
X705461
X715621
X705461Y128894
X695301
X685141
X625050Y66810
X625558Y35822
X826726Y86368
X835108Y136914
X893210Y116276
X863302Y60460
X934104Y68524
X941724Y76652
X974554Y107450
X1020274Y86622
X1036784Y70366
X1030180Y154440
X1028402Y213368
X1029672Y297442
X1030434Y345448
X1030688Y397518
X992080Y384310
X968458Y379738
X967442Y417584
X992334Y436888
X977856Y501150
X969410Y497784
X994874Y538488
X956774Y349004
X979888Y319540
X979380Y270010
X973538Y182380
X861524Y204732
X867366Y258072
X886924Y249690
X730524Y305888
X724600Y374400
X712680Y385580
X707600Y385834
X712000Y362100
X692100Y345600
X686400Y339800
X625304Y338082
X626828Y295156
X625494Y258516
X590506Y255786
X585616Y222448
X570884Y223210
Y229560
X557930
X557676Y223464
X547262Y218892
X545230Y213050
X551580Y249118
X561486Y283916
X566884Y297696
X578568Y355354
X574200Y391949
X573149Y419500
X625558Y421648
X601000Y493700
X585200Y497700
X572700Y486500
X547516Y484856
X547600Y470860
X544000Y542100
X582953Y534274
X631400Y524400
X631500Y518600
X646000Y514100
Y507600
X656100Y507750
X666100Y506900
X692300Y509300
X692360Y514900
X714458Y516898
X726904Y517406
X731730Y526296
X777928Y494927
X788088
Y484767
X777928
Y474607
X788088
Y464447
X777928
X798248
X808408
X818568
Y474607
X808408
Y484767
X818568
Y494927
X808408
X798248
Y484767
Y474607
X747732Y439174
X735540
X683500Y478861
X764750Y356878
X707536Y178506
X705461Y149214
X715621
X695301
X685141
X572662Y158971
X577488Y175839
X550896Y173938
Y162938
Y151938
X613048Y231846
X532784Y256992
X534750Y271000
X520250Y275500
X511300Y264100
X497500Y263500
X482238Y263596
X490112Y251404
X506500Y251250
X517544Y243784
X518814Y205430
Y199080
X514242Y192984
X515378Y187022
X528896Y173938
Y162938
X539896
Y173938
Y151938
X528896
X486874Y148090
X477470Y147968
X476142Y161996
X477000Y179750
X449750Y174000
X448750Y166000
X432962Y151582
X427120
X404250Y165000
X388500Y161750
X379750Y166000
X362858Y176728
X374750Y195000
X385000Y211000
Y228250
X400000Y224250
X397700Y202250
X414250Y207250
X433750Y205500
Y216500
X444750
Y205500
X466250Y209750
X455500Y226500
X436500Y227750
X441500Y255750
X439500Y269500
X426700Y266400
X410750Y265500
X396640Y265628
X389782
X386500Y298500
X384702Y325572
X381500Y333500
X385300Y340900
X371700Y347000
X363700
X363100Y329100
X400800Y326574
X404768Y333446
X420500Y337184
X430296Y338400
X443500Y333456
X451314Y336812
X451300Y345821
X464250Y354750
X463642Y365196
X471516
X479390
X478500Y353000
X463600Y329510
X456000Y296900
X476500Y301100
X485500Y289250
X468700Y275100
X461300Y265500
X450900Y276700
X433000Y298750
X442250Y363250
X460200Y377883
X480524Y392692
X509900Y394084
X513900Y385900
X516600Y408000
X503400Y406000
X503130Y419362
X521054Y467552
X528974Y466708
Y472682
X536096
X542585Y475505
X528201Y480979
X518306Y478200
X513069Y485547
X528456Y494820
X532462Y514582
X514701Y515074
X499410Y507816
X484100Y507962
X485186Y498283
X466916Y495466
X457924Y494500
X457347Y507962
X469874
X473802Y478400
X462500Y447000
X423750Y453750
X397750Y455000
X377000Y454000
X375500Y435600
X366007Y444994
X358242Y445206
X350368
X349400Y422800
X361600Y423100
X361800Y410400
X349700
X358800Y397200
X369750Y397750
X376421Y411000
X399500Y413500
X398000Y395250
X393500Y376000
X381400Y381770
X375000Y375448
X413500Y385000
X426000Y394500
X425750Y414250
X317200Y394425
X326900Y382300
X307804Y379484
X312600Y352300
X319300Y341000
X327000Y343600
X319000Y318601
X334400Y310078
X337908Y290800
X321710Y290774
X334156Y264866
X341776
X308248Y259786
X285896Y263850
X280816Y259024
X262274Y249626
X252622Y249880
X242970
X238127Y259196
X234080Y266644
X213252Y252674
X205124
X197758Y250388
X191408
X186138Y256040
X165500Y261564
Y268168
X174644Y270962
X157880Y253690
X148800Y237244
X154578Y213558
X160928Y203398
Y197048
X154674Y192222
X156706Y186634
X169740Y173938
X180740
Y162938
X169740
Y151938
X180740
X191740
Y162938
Y173938
X219094Y175585
X214014Y159202
X211220Y221940
Y228036
X198774
Y221940
X184804Y218384
X188106Y213304
X224492Y219718
X240430Y220670
X261766Y203398
X274466Y205684
X268878Y192984
X270910Y187142
X284040Y173938
X295040
Y162938
X284040
Y151938
X295040
X306040
Y162938
Y173938
X332632Y176093
X328314Y159456
X335680Y214320
X333648Y219654
X340322Y223972
X346094
X354476Y208986
X366414Y216606
X355750Y238250
X294024Y224988
X299104Y218384
X302406Y213304
X222142Y241244
X219412Y345448
X211538Y345194
X195790Y332494
X197758Y377134
X215284Y374594
X214776Y403042
X235984Y404290
X233572Y394914
X261068Y398026
X273800Y391800
X261830Y424442
X270400Y436900
X287738Y436856
X287800Y459100
X275038Y457462
X310013Y459430
X332352Y459176
X323400Y483300
X317700Y483200
X323700Y491700
X305200Y487508
X300100Y490600
X299500Y482150
X300628Y500970
X294500Y504556
X280568Y516000
X271300Y513800
X257512Y536710
X245828Y532392
X221698Y510040
X204934Y469908
X202330Y447848
Y438348
X192880
X192758Y447939
X211830Y447848
Y438348
Y428848
X202330
X192830Y428598
X291300Y346101
X298342Y328366
X302700Y536700
X320000Y535500
X336300Y537000
X341600Y526100
X341100Y514000
X341800Y501300
X329330Y525414
X358794Y526232
X371200Y535500
X385750Y535050
X403750Y522500
X387750Y506250
X373500Y491250
X536426Y458843
X536404Y381262
X510686Y318968
X471062Y235910
X142450Y241562
X135084Y244102
X134512Y229306
X110192Y227592
X97746Y229116
Y234958
X97682Y242768
X85744Y236418
X83712Y230576
X73806Y221432
X68218
X43834Y214066
Y208478
X41040Y201366
X43072Y195778
X56106Y183082
X67106
Y172082
X56106
Y161082
X67106
X78106
Y172082
Y183082
X105048Y185110
X99483Y168115
X78106Y150082
X67106
X56106
X32430Y147302
X23500Y147000
X41294Y250388
Y257500
X32658Y277058
X22244Y283916
X18498Y290584
X54248Y278836
X60852Y273248
X73806Y267152
Y260548
X72346Y252992
X103524Y282138
X117494Y278074
X121812Y215590
X141624Y370784
X74822Y482544
X78696Y496070
X84792Y535440
X7576Y494292
X20276Y453652
X5798Y559316
X48470Y558046
X47708Y572778
X86824Y575318
X72092Y622816
X33992Y612148
X7068Y604020
X8338Y652026
X65996Y700540
X115018Y697492
X113748Y630690
X128416Y553410
X155404Y552584
X192742Y558554
X195282Y574556
X207982Y573286
X208490Y585986
X237600Y583700
Y559900
X237636Y544266
X313836Y550362
X339300Y557700
X364954Y560332
X402400Y569800
X408100Y569900
X408274Y579726
X402500Y579700
X402750Y599200
X365000Y608700
X314090Y610000
X320300Y695500
X333600Y697400
X298700Y695500
X287838
X265580Y695714
X243800Y695900
X227032Y691650
X183344Y697746
X194520Y668282
X186138Y624848
X211474Y621482
X164230Y613608
X258464Y650692
X268942Y675394
X368002Y689872
X383414Y668100
X387147Y657526
X382821Y653200
X403912Y674000
Y679600
X402500Y696770
X408800Y696800
X437300Y685700
X431756Y660916
X462620Y622880
X476400Y613900
X501400Y631300
X491700Y644152
X531600Y619000
X518116Y685554
X438868Y546362
X566058Y567380
X564344Y601988
X572662Y601924
X584410Y600972
X585108Y619450
X604730Y635262
X591776Y651772
X569678Y653804
Y672092
X555454Y633230
X555708Y601988
X616668Y591066
X621684Y554934
X611800Y546620
X588200Y547700
X616668Y655074
X703500Y645400
X703400Y620100
X705000Y594500
X704400Y671800
X705680Y684076
X704700Y694100
X731412Y699206
X743668Y674378
X775418Y676918
X810600Y666297
X819700Y678594
X824000Y653900
X812756Y646946
X828520Y617658
Y607658
X838520
Y617658
X848520
Y607658
Y597658
X838520
X828520
X914356Y606306
X939756Y598178
X889576Y671100
X890670Y680524
X868300Y691000
X862500
X866032Y672028
X744176Y548140
X953218Y560078
X994874Y571254
X1030434Y571508
X1029926Y615196
X970490Y623832
X946868Y690634
X1032466Y694952
T02
X32430Y32228
X50210Y24608
X67990Y32228
X75610Y50008
X67990Y67788
X50210Y75408
X32430Y67788
X24810Y50008
X643528Y48204
Y34996
Y22042
X666896
Y35250
Y48204
Y73604
Y86812
Y100274
X643528Y100204
Y86812
Y73604
X686200Y67254
X711918Y71251
Y60585
X713124Y30932
X712616Y22042
X731666Y21280
X743858
X755288Y25344
Y36012
Y46934
X773322Y59634
X755606Y109736
X747668Y109672
Y122372
X755606Y122436
Y134882
X747668Y135072
X804564Y129738
X806342Y145740
X800246Y114498
X830472Y105862
X846474Y121356
X847236Y145486
X879494Y144470
X906926Y137358
X928770Y124404
X915308Y101036
X915308Y70302
X922420Y57602
X907688Y57348
X901148Y45220
X880066Y60968
X845966Y59634
X831742Y35758
X855364Y95448
X725316Y87320
X685970Y34272
X651910Y116276
X651700Y132500
X668420Y135326
X628000Y131860
X628200Y146800
X628542Y116276
X929024Y29916
X982430Y32228
X974810Y50008
X982430Y67788
X1000210Y75408
X1017990Y67788
X1025610Y50008
X1017990Y32228
X1000210Y24608
X953472Y89416
X952138Y148534
X963314Y161234
X952646Y231592
X963314Y271216
X968394Y299410
X951376Y313888
X962806Y327096
X951122Y396184
X945026Y423616
X948328Y456382
X952646Y478226
X969664Y470606
X969410Y450794
X1023830Y449080
X1020210Y522422
X928008Y536392
X928262Y503372
Y454858
X907180Y456128
X900068Y427680
X904894Y396438
X881780Y397454
X864318Y399296
X847490Y397200
X833266Y403804
X829456Y427426
X810248Y430262
X804248Y424262
X798248Y430262
X792248Y424262
X779248
X785248Y430262
X768248
Y440262
Y450262
X762400Y462224
X762654Y480512
X762908Y498546
X766210Y512008
X791610
X796690Y531566
X816756Y528010
X817010Y512008
X842410Y507182
Y486608
X867810
X865016Y511754
X866794Y537408
X889972Y531122
X834282Y526994
X842410Y461208
X864762Y445714
X870096Y334208
X867112Y317508
X853586Y318714
X881272
X904640Y313126
X902608Y293314
X928008Y288234
X923944Y266898
X928262Y253436
X895625Y260742
X904386Y234386
X897782Y226512
X895496Y216860
X896766Y202382
X920896Y202636
X928262Y172918
X862984Y189428
X863556Y148852
X788054Y149550
X773322Y196540
X778656Y215336
Y228544
Y241498
X802024
Y228544
Y215336
X807358Y196286
X819804Y191968
X829710Y201620
X827170Y216860
X829964Y232100
X835934Y251024
X847744Y266898
X829202Y292806
X819042Y293684
X773068Y283662
X756368Y318016
X739286Y340304
X731222Y366276
X776116Y371038
X788816
X801770
X809454Y371102
X809962Y379738
X768052Y381770
X773322Y409392
X727418Y443606
X722522Y470860
X742080Y468066
X696424Y393708
X704199Y331701
X703218Y320492
X699916Y236418
X702202Y213304
X661562Y193238
X652672Y194254
Y181554
X662324
Y168346
X652672Y168600
X651400Y147500
X633622Y216352
X629812Y243022
X612540Y250896
X635654Y278582
X551834Y289504
X544468Y260802
X563772Y325064
Y336748
X560978Y347416
X573424Y379674
X543960Y405836
X555136Y422400
X572662Y451556
X573678Y462986
X928008Y372816
X928262Y336494
X867810Y225750
X856380
X520338Y291790
X521164Y321064
X511194Y338526
X515322Y349766
X535388Y427998
X530913Y436792
X525942Y456500
X497029Y469740
X439000Y489100
X438614Y498848
X320192Y439848
X315991Y415088
X304438Y425648
X303676Y362534
X303864Y352882
X304800Y316000
X286990Y307460
X280100Y379300
X207960Y363008
X207982Y353068
X208460Y319258
Y309508
X174390Y325064
Y333192
X155340Y344368
X155594Y410154
X165246Y410408
X193186Y396184
X202870Y396372
X235960Y441008
X244926Y473187
X210210Y491008
X216960Y498008
X193948Y480512
X155848Y456890
X399500Y297250
X422750Y297500
X131210Y325318
Y333446
X130956Y344114
X143148Y389834
X131210Y421330
X124098Y439618
X129940Y481274
X114700
X106318Y492450
X96710Y496514
X91078Y503118
X90570Y524200
X119066Y523452
X66948Y542234
X39580Y450858
X20212Y322270
X84982Y558998
X67990Y642228
X50210Y634608
X32430Y642228
X24810Y660008
X32430Y677788
X50210Y685408
X67990Y677788
X75610Y660008
X221190Y629674
X228810
X246590
X262020Y621990
X322790Y629674
X330410
X388830Y621800
Y613306
X715410Y567380
X725400Y567400
X740112Y567444
X755098
X770338
X775862Y578302
X785514Y547060
X823487
X825900Y571190
Y579572
Y587954
X816248Y583890
Y572460
X852824Y564078
X862476
X867048Y547314
X905148Y561284
X892004Y578874
X928008Y586176
X877970Y638500
X868064Y660852
X857904Y660344
X854602Y669742
X836060Y667964
Y658566
Y649168
X856888Y625800
X809898Y630118
X982430Y642228
X1000210Y634608
X1017990Y642228
X1025610Y660008
X1017990Y677788
X1000210Y685408
X982430Y677788
X974810Y660008
T03
X454806Y554934
X480206
X505606
X531006
Y580334
X505606
X480206
X454806
Y650184
Y675584
X480206
Y650184
X505606
Y675584
X531006
Y650184
X556406
Y675584
Y580334
Y554934
X643448Y556638
X668848
Y582038
X643448
Y607438
X668848
Y632838
X643448
Y658238
X668848
T04
X164872Y503006
Y528406
X190272
Y503006
X139472
Y528406
X117454Y402508
X97388
Y377308
X117454
T05
X122130Y29980
X147530
X172930
X198330
X252130
X277530
X302930
X328330
X382130
X407530
X432930
X458330
X512230Y30080
X537630
X458330Y99980
X432930
X407530
X382130
X563030Y30080
X588430
X1025460Y107008
X662832Y310586
Y335986
Y361386
X663086Y415742
Y441142
Y466542
X601210Y466708
Y441308
Y387708
Y362308
Y308708
Y283308
X27764Y537402
Y582614
X125432Y598686
Y659900
X150832
X206966
X232366
X287726Y660008
X313126
X338526
X363926
X150832Y598686
X922420Y645612
Y671012
T06
X667404Y243530
X718204
T07
X52656Y524956
Y595060
T08
X772548Y35858
X806584
X846220Y35758
X880256
Y170378
X846220
X806584Y170478
X772548
X847490Y293060
X881526
Y427680
X847490
T09
X928008Y148661
Y231211
Y313761
Y396311
Y478861
Y561411
T10
X70210Y329810
Y450008
T11
X225000Y571000
X250400
X275800
X301200
X326600
X352000
X377400
Y596400
X352000
X326600
X301200
X275800
X250400
X225000
T12
X50210Y50008
X1000210
X50210Y660008
X1000210
M30
