G04*
G04 #@! TF.GenerationSoftware,Altium Limited,Altium Designer,18.1.9 (240)*
G04*
G04 Layer_Color=65535*
%FSLAX25Y25*%
%MOIN*%
G70*
G01*
G75*
%ADD10C,0.00984*%
%ADD11C,0.00600*%
%ADD12C,0.00800*%
%ADD13C,0.01000*%
%ADD14C,0.02362*%
%ADD15C,0.00394*%
%ADD16C,0.00500*%
%ADD17C,0.02500*%
%ADD18C,0.03000*%
%ADD19C,0.02000*%
%ADD20C,0.01968*%
%ADD21C,0.00039*%
%ADD22C,0.00197*%
%ADD23C,0.00200*%
%ADD24C,0.00787*%
%ADD25C,0.00700*%
%ADD26C,0.00400*%
%ADD27R,0.02953X0.08790*%
%ADD28R,0.24505X0.04921*%
%ADD29R,0.00590X0.01200*%
%ADD30R,0.00600X0.01200*%
%ADD31R,0.01190X0.01200*%
%ADD32R,0.04921X0.28150*%
%ADD33R,0.24213X0.05945*%
%ADD34R,0.04961X0.28189*%
%ADD35R,0.22559X0.04291*%
%ADD36R,0.04331X0.22520*%
%ADD37R,0.22559X0.04409*%
%ADD38R,0.04370X0.22520*%
%ADD39R,0.01200X0.01190*%
%ADD40R,0.01200X0.00600*%
%ADD41R,0.01200X0.00590*%
%ADD42R,0.08790X0.02953*%
G36*
X11650Y46250D02*
X1345D01*
Y50000D01*
X11650D01*
Y46250D01*
D02*
G37*
G36*
X-20450D02*
X-30755D01*
Y50000D01*
X-20450D01*
Y46250D01*
D02*
G37*
G36*
X263325Y37820D02*
X259575D01*
Y48125D01*
X263325D01*
Y37820D01*
D02*
G37*
G36*
X-37645Y-4100D02*
X-47950D01*
Y-350D01*
X-37645D01*
Y-4100D01*
D02*
G37*
G36*
X136864Y-42615D02*
X133114D01*
Y-32310D01*
X136864D01*
Y-42615D01*
D02*
G37*
G36*
X187475Y-64875D02*
X183725D01*
Y-58015D01*
X187475D01*
Y-64875D01*
D02*
G37*
G36*
X136864Y-73717D02*
X133114D01*
Y-63412D01*
X136864D01*
Y-73717D01*
D02*
G37*
G36*
Y-104820D02*
X133114D01*
Y-94515D01*
X136864D01*
Y-104820D01*
D02*
G37*
G36*
X187375Y-106275D02*
X183625D01*
Y-99415D01*
X187375D01*
Y-106275D01*
D02*
G37*
G36*
X176168Y-147356D02*
X176218Y-147360D01*
X176279Y-147363D01*
X176347Y-147374D01*
X176426Y-147385D01*
X176508Y-147403D01*
X176598Y-147424D01*
X176688Y-147449D01*
X176784Y-147482D01*
X176877Y-147521D01*
X176970Y-147567D01*
X177060Y-147617D01*
X177146Y-147678D01*
X177228Y-147750D01*
X177232Y-147754D01*
X177246Y-147768D01*
X177267Y-147789D01*
X177293Y-147822D01*
X177325Y-147857D01*
X177360Y-147904D01*
X177400Y-147958D01*
X177439Y-148019D01*
X177475Y-148087D01*
X177515Y-148162D01*
X177550Y-148244D01*
X177583Y-148330D01*
X177608Y-148423D01*
X177629Y-148520D01*
X177643Y-148624D01*
X177647Y-148731D01*
Y-148734D01*
Y-148745D01*
Y-148759D01*
Y-148781D01*
X177643Y-148810D01*
X177640Y-148838D01*
X177636Y-148874D01*
X177633Y-148914D01*
X177618Y-149003D01*
X177597Y-149103D01*
X177565Y-149207D01*
X177525Y-149314D01*
Y-149318D01*
X177518Y-149329D01*
X177511Y-149343D01*
X177500Y-149364D01*
X177489Y-149390D01*
X177471Y-149422D01*
X177454Y-149458D01*
X177428Y-149497D01*
X177403Y-149540D01*
X177375Y-149586D01*
X177303Y-149690D01*
X177264Y-149744D01*
X177221Y-149801D01*
X177171Y-149859D01*
X177121Y-149919D01*
X177117Y-149923D01*
X177106Y-149934D01*
X177092Y-149952D01*
X177067Y-149977D01*
X177035Y-150009D01*
X176995Y-150048D01*
X176952Y-150095D01*
X176899Y-150149D01*
X176838Y-150206D01*
X176766Y-150270D01*
X176691Y-150342D01*
X176605Y-150421D01*
X176512Y-150503D01*
X176412Y-150593D01*
X176301Y-150689D01*
X176183Y-150789D01*
X176175Y-150793D01*
X176158Y-150811D01*
X176133Y-150832D01*
X176097Y-150865D01*
X176050Y-150900D01*
X176004Y-150943D01*
X175950Y-150990D01*
X175893Y-151040D01*
X175771Y-151144D01*
X175714Y-151198D01*
X175656Y-151248D01*
X175603Y-151298D01*
X175556Y-151341D01*
X175513Y-151380D01*
X175481Y-151416D01*
X175474Y-151423D01*
X175456Y-151444D01*
X175427Y-151477D01*
X175391Y-151516D01*
X175352Y-151566D01*
X175309Y-151620D01*
X175266Y-151681D01*
X175227Y-151742D01*
X177654D01*
Y-152325D01*
X174382D01*
Y-152322D01*
Y-152314D01*
Y-152304D01*
Y-152289D01*
Y-152268D01*
X174385Y-152246D01*
X174389Y-152189D01*
X174396Y-152128D01*
X174407Y-152057D01*
X174425Y-151981D01*
X174450Y-151906D01*
Y-151903D01*
X174457Y-151892D01*
X174464Y-151874D01*
X174475Y-151849D01*
X174486Y-151817D01*
X174504Y-151781D01*
X174525Y-151742D01*
X174547Y-151699D01*
X174572Y-151649D01*
X174604Y-151599D01*
X174672Y-151488D01*
X174754Y-151369D01*
X174851Y-151248D01*
X174855Y-151244D01*
X174865Y-151233D01*
X174880Y-151215D01*
X174901Y-151190D01*
X174930Y-151158D01*
X174966Y-151122D01*
X175005Y-151079D01*
X175055Y-151033D01*
X175109Y-150979D01*
X175166Y-150922D01*
X175230Y-150861D01*
X175302Y-150793D01*
X175381Y-150725D01*
X175463Y-150653D01*
X175553Y-150578D01*
X175646Y-150499D01*
X175649Y-150496D01*
X175656Y-150492D01*
X175667Y-150481D01*
X175681Y-150471D01*
X175699Y-150453D01*
X175721Y-150435D01*
X175775Y-150388D01*
X175843Y-150335D01*
X175914Y-150267D01*
X175996Y-150195D01*
X176083Y-150116D01*
X176175Y-150034D01*
X176265Y-149948D01*
X176358Y-149862D01*
X176444Y-149773D01*
X176530Y-149687D01*
X176605Y-149604D01*
X176677Y-149522D01*
X176734Y-149447D01*
X176738Y-149443D01*
X176745Y-149429D01*
X176759Y-149407D01*
X176781Y-149382D01*
X176802Y-149347D01*
X176823Y-149307D01*
X176852Y-149261D01*
X176877Y-149211D01*
X176902Y-149157D01*
X176931Y-149100D01*
X176978Y-148974D01*
X176995Y-148910D01*
X177010Y-148845D01*
X177017Y-148781D01*
X177020Y-148717D01*
Y-148713D01*
Y-148699D01*
Y-148681D01*
X177017Y-148656D01*
X177013Y-148624D01*
X177006Y-148588D01*
X176999Y-148548D01*
X176988Y-148505D01*
X176974Y-148459D01*
X176956Y-148409D01*
X176935Y-148359D01*
X176909Y-148308D01*
X176881Y-148255D01*
X176845Y-148205D01*
X176806Y-148154D01*
X176759Y-148108D01*
X176755Y-148104D01*
X176748Y-148097D01*
X176734Y-148087D01*
X176713Y-148069D01*
X176688Y-148051D01*
X176655Y-148029D01*
X176620Y-148004D01*
X176580Y-147983D01*
X176533Y-147958D01*
X176483Y-147936D01*
X176426Y-147915D01*
X176369Y-147897D01*
X176304Y-147879D01*
X176236Y-147868D01*
X176165Y-147861D01*
X176090Y-147857D01*
X176047D01*
X176018Y-147861D01*
X175979Y-147864D01*
X175936Y-147872D01*
X175889Y-147879D01*
X175835Y-147890D01*
X175782Y-147904D01*
X175724Y-147922D01*
X175667Y-147943D01*
X175606Y-147968D01*
X175549Y-148001D01*
X175492Y-148036D01*
X175435Y-148076D01*
X175384Y-148122D01*
X175381Y-148126D01*
X175374Y-148133D01*
X175359Y-148151D01*
X175345Y-148169D01*
X175323Y-148197D01*
X175302Y-148230D01*
X175277Y-148269D01*
X175256Y-148312D01*
X175230Y-148359D01*
X175205Y-148416D01*
X175184Y-148473D01*
X175162Y-148538D01*
X175148Y-148609D01*
X175134Y-148684D01*
X175127Y-148763D01*
X175123Y-148849D01*
X174496Y-148785D01*
Y-148781D01*
Y-148777D01*
X174500Y-148767D01*
Y-148752D01*
X174504Y-148717D01*
X174514Y-148670D01*
X174525Y-148613D01*
X174539Y-148545D01*
X174557Y-148469D01*
X174579Y-148391D01*
X174608Y-148305D01*
X174640Y-148219D01*
X174679Y-148129D01*
X174726Y-148040D01*
X174776Y-147954D01*
X174837Y-147872D01*
X174901Y-147793D01*
X174976Y-147721D01*
X174980Y-147718D01*
X174994Y-147707D01*
X175019Y-147686D01*
X175051Y-147664D01*
X175094Y-147635D01*
X175145Y-147603D01*
X175205Y-147571D01*
X175273Y-147535D01*
X175352Y-147503D01*
X175435Y-147471D01*
X175528Y-147439D01*
X175628Y-147410D01*
X175735Y-147385D01*
X175850Y-147367D01*
X175971Y-147356D01*
X176100Y-147353D01*
X176133D01*
X176168Y-147356D01*
D02*
G37*
G36*
X205101Y-152325D02*
X204492D01*
Y-148452D01*
X204488Y-148455D01*
X204481Y-148462D01*
X204470Y-148473D01*
X204453Y-148487D01*
X204431Y-148505D01*
X204402Y-148530D01*
X204370Y-148556D01*
X204338Y-148584D01*
X204295Y-148613D01*
X204252Y-148649D01*
X204206Y-148681D01*
X204155Y-148720D01*
X204098Y-148756D01*
X204041Y-148795D01*
X203912Y-148874D01*
X203908Y-148878D01*
X203898Y-148885D01*
X203876Y-148896D01*
X203851Y-148906D01*
X203822Y-148924D01*
X203787Y-148946D01*
X203744Y-148967D01*
X203701Y-148992D01*
X203601Y-149042D01*
X203493Y-149092D01*
X203382Y-149143D01*
X203275Y-149186D01*
Y-148598D01*
X203282Y-148595D01*
X203296Y-148588D01*
X203325Y-148573D01*
X203361Y-148556D01*
X203404Y-148534D01*
X203457Y-148505D01*
X203515Y-148473D01*
X203575Y-148437D01*
X203643Y-148394D01*
X203715Y-148351D01*
X203866Y-148251D01*
X204019Y-148140D01*
X204166Y-148019D01*
X204170Y-148015D01*
X204184Y-148004D01*
X204202Y-147986D01*
X204227Y-147961D01*
X204259Y-147929D01*
X204295Y-147893D01*
X204334Y-147850D01*
X204377Y-147807D01*
X204420Y-147757D01*
X204467Y-147703D01*
X204556Y-147592D01*
X204639Y-147474D01*
X204675Y-147413D01*
X204707Y-147353D01*
X205101D01*
Y-152325D01*
D02*
G37*
G54D10*
X131300Y-38700D02*
X130562Y-38274D01*
Y-39126D01*
X131300Y-38700D01*
X101525Y-41107D02*
X100787Y-40681D01*
Y-41533D01*
X101525Y-41107D01*
X111278Y-150812D02*
X110540Y-150386D01*
Y-151238D01*
X111278Y-150812D01*
X-18374Y-65217D02*
X-19161D01*
X-18374D01*
X249516Y7739D02*
X248778Y8166D01*
Y7313D01*
X249516Y7739D01*
X63779Y-23425D02*
X63041Y-22999D01*
Y-23851D01*
X63779Y-23425D01*
X71752Y-124606D02*
X71014Y-124180D01*
Y-125032D01*
X71752Y-124606D01*
X89842Y-151732D02*
X89104Y-151306D01*
Y-152158D01*
X89842Y-151732D01*
X29232Y-19291D02*
X28494Y-18865D01*
Y-19717D01*
X29232Y-19291D01*
X-74860Y-147212D02*
X-75598Y-146786D01*
Y-147638D01*
X-74860Y-147212D01*
X-30122Y-150812D02*
X-30860Y-150386D01*
Y-151238D01*
X-30122Y-150812D01*
X14878D02*
X14140Y-150386D01*
Y-151238D01*
X14878Y-150812D01*
G54D11*
X174175Y-114925D02*
X173203Y-114970D01*
X172239Y-115105D01*
X171291Y-115329D01*
X170369Y-115639D01*
X169479Y-116034D01*
X168630Y-116509D01*
X167828Y-117061D01*
X167080Y-117684D01*
X166394Y-118375D01*
X165775Y-119125D01*
X182575D02*
X181955Y-118375D01*
X181269Y-117684D01*
X180522Y-117061D01*
X179720Y-116509D01*
X178870Y-116034D01*
X177981Y-115639D01*
X177058Y-115329D01*
X176111Y-115105D01*
X175147Y-114970D01*
X174175Y-114925D01*
X194175D02*
X193202Y-114970D01*
X192239Y-115105D01*
X191291Y-115329D01*
X190369Y-115639D01*
X189479Y-116034D01*
X188630Y-116509D01*
X187828Y-117061D01*
X187081Y-117684D01*
X186394Y-118375D01*
X185775Y-119125D01*
X202575D02*
X201955Y-118375D01*
X201269Y-117684D01*
X200522Y-117061D01*
X199720Y-116509D01*
X198871Y-116034D01*
X197981Y-115639D01*
X197058Y-115329D01*
X196111Y-115105D01*
X195147Y-114970D01*
X194175Y-114925D01*
X9087Y-85521D02*
X8736Y-84673D01*
X7887Y-84321D01*
X7039Y-84673D01*
X6687Y-85521D01*
X7039Y-86370D01*
X7887Y-86721D01*
X8736Y-86370D01*
X9087Y-85521D01*
X114240Y-37318D02*
X131760D01*
X114240D02*
Y-27082D01*
X131760D01*
Y-37318D02*
Y-27082D01*
X119333Y18261D02*
Y23576D01*
X101617Y18261D02*
Y23576D01*
X70672Y18261D02*
Y54088D01*
X150278D01*
Y18261D02*
Y54088D01*
X70672Y18261D02*
X150278D01*
X161675Y-146925D02*
X172175D01*
X161675D02*
Y-144925D01*
Y-113925D01*
X164175Y-139925D02*
Y-118925D01*
X165875D01*
X164175Y-139925D02*
X172175D01*
X161675Y-144925D02*
X171175D01*
X164175Y-140925D02*
X171175D01*
Y-144925D02*
X172175Y-146925D01*
X171175Y-140925D02*
X172175Y-139925D01*
X164175Y-140925D02*
Y-139925D01*
X176175D02*
X177175Y-140925D01*
Y-144925D02*
Y-140925D01*
X176175Y-146925D02*
X177175Y-144925D01*
X171175Y-140925D02*
X172175Y-139925D01*
X171175Y-144925D02*
X172175Y-146925D01*
X171175Y-144925D02*
Y-140925D01*
X172175Y-146925D02*
Y-139925D01*
X176175Y-146925D02*
Y-139925D01*
X164175Y-118925D02*
X165675D01*
X191175Y-140925D02*
X192175Y-139925D01*
X196175D02*
X197175Y-140925D01*
X196175Y-146925D02*
X197175Y-144925D01*
X191175D02*
X192175Y-146925D01*
X191175Y-144925D02*
Y-140925D01*
X197175Y-144925D02*
Y-140925D01*
X196175Y-146925D02*
Y-139925D01*
X192175Y-146925D02*
Y-139925D01*
X197175Y-140925D02*
X204175D01*
X177175D02*
X191175D01*
X177175Y-144925D02*
X191175D01*
X197175D02*
X206675D01*
X172175Y-146925D02*
X176175D01*
X192175D01*
X196175D01*
X206675D01*
X172175Y-139925D02*
X176175D01*
X192175D01*
X196175D01*
X204175D01*
X202475Y-118925D02*
X204175D01*
X182675D02*
X185675D01*
X204175Y-140925D02*
Y-139925D01*
Y-118925D01*
X206675Y-144925D02*
Y-113925D01*
Y-146925D02*
Y-144925D01*
X161675Y-113925D02*
X206675D01*
X151830Y5487D02*
X157145D01*
X151830Y23204D02*
X157145D01*
X151830Y54149D02*
X187657D01*
Y-25458D02*
Y54149D01*
X151830Y-25458D02*
X187657D01*
X151830D02*
Y54149D01*
X-38672Y-29269D02*
X-36172Y-31769D01*
X-31172D02*
X-28672Y-29269D01*
X-26172Y-31769D01*
X-21172D02*
X-18673Y-29269D01*
X-38672D02*
Y-14269D01*
X-36172Y-11769D01*
X-31172D01*
X-28672Y-14269D01*
X-26172Y-11769D01*
X-21172D01*
X-18673Y-14269D01*
X-28672Y-29269D02*
Y-14269D01*
X-18673Y-29269D02*
Y-14269D01*
X-26172Y-31769D02*
X-21172D01*
X-36172D02*
X-31172D01*
X-18673Y-29269D02*
X-16172Y-31769D01*
X-11173D02*
X-8672Y-29269D01*
X-18673Y-14269D02*
X-16172Y-11769D01*
X-11173D01*
X-8672Y-14269D01*
Y-29269D02*
Y-14269D01*
X-16172Y-31769D02*
X-11173D01*
X-86752Y-18828D02*
X-72752D01*
X-86752D02*
Y-14328D01*
Y10172D02*
X-72752D01*
X-85752Y-1828D02*
Y9172D01*
X-87752Y5672D02*
X-86752D01*
X-87752Y672D02*
Y5672D01*
Y-14328D02*
X-86752D01*
Y10172D01*
X-87752Y-9328D02*
Y672D01*
Y-14328D02*
Y-9328D01*
X-85752Y-1828D02*
X-81752D01*
X-85752Y-6828D02*
Y-1828D01*
X-81752Y-6828D02*
Y-1828D01*
X-85752Y-6828D02*
X-81752D01*
X-85752Y-17828D02*
Y-6828D01*
X-72752Y6172D02*
Y9172D01*
Y6172D02*
X-71752D01*
Y3172D02*
Y6172D01*
X-72752Y3172D02*
X-71752D01*
X-72752Y-1328D02*
Y3172D01*
X-73752Y-1328D02*
X-72752D01*
X-73752Y-7328D02*
Y-1328D01*
Y-7328D02*
X-72752D01*
Y-11328D02*
Y-7328D01*
Y-11328D02*
X-71752D01*
Y-14828D02*
Y-11328D01*
X-72752Y-14828D02*
X-71752D01*
X-72752Y-17828D02*
Y-14828D01*
X-74752Y9172D02*
X-72752D01*
X-85752D02*
X-80752D01*
X-85752Y-17828D02*
X-80752D01*
X-74752D02*
X-72752D01*
X-47708Y-41300D02*
Y-33363D01*
X-53264Y-41300D02*
Y-33363D01*
X51695Y23742D02*
X54695Y22042D01*
X57695Y23742D01*
X19595Y30643D02*
X59774D01*
X70672Y-19239D02*
X150278D01*
Y16588D01*
X70672D02*
X150278D01*
X70672Y-19239D02*
Y16588D01*
X101617Y-19239D02*
Y-13924D01*
X119333Y-19239D02*
Y-13924D01*
X-45600Y-217400D02*
X-5421D01*
X-10500Y-226000D02*
X-7500Y-224300D01*
X-13500D02*
X-10500Y-226000D01*
X5581Y-217400D02*
X45760D01*
X40681Y-226000D02*
X43681Y-224300D01*
X37681D02*
X40681Y-226000D01*
X56762Y-189841D02*
X96941D01*
X91862Y-198441D02*
X94862Y-196741D01*
X88862D02*
X91862Y-198441D01*
X56762Y-217400D02*
X96941D01*
X91862Y-226000D02*
X94862Y-224300D01*
X88862D02*
X91862Y-226000D01*
X107983Y-217361D02*
X148161D01*
X143083Y-225961D02*
X146083Y-224261D01*
X140083D02*
X143083Y-225961D01*
X124016Y-118921D02*
X126415D01*
X125215D01*
Y-122520D01*
X130014D02*
X127615D01*
X130014Y-120121D01*
Y-119521D01*
X129414Y-118921D01*
X128214D01*
X127615Y-119521D01*
X124094Y-59551D02*
X126494D01*
X125294D01*
Y-63150D01*
X127693D02*
X128893D01*
X128293D01*
Y-59551D01*
X127693Y-60151D01*
X119644Y-45614D02*
X122043D01*
X120844D01*
Y-49213D01*
X123243Y-46214D02*
X123843Y-45614D01*
X125042D01*
X125642Y-46214D01*
Y-48613D01*
X125042Y-49213D01*
X123843D01*
X123243Y-48613D01*
Y-46214D01*
X-25925Y-32626D02*
X-24859D01*
X-25392D01*
Y-35825D01*
X-25925D01*
X-24859D01*
X-21127Y-33159D02*
X-21660Y-32626D01*
X-22726D01*
X-23259Y-33159D01*
Y-35292D01*
X-22726Y-35825D01*
X-21660D01*
X-21127Y-35292D01*
X-17928Y-33159D02*
X-18461Y-32626D01*
X-19527D01*
X-20060Y-33159D01*
Y-33693D01*
X-19527Y-34226D01*
X-18461D01*
X-17928Y-34759D01*
Y-35292D01*
X-18461Y-35825D01*
X-19527D01*
X-20060Y-35292D01*
X-16861Y-35825D02*
Y-32626D01*
X-15262D01*
X-14729Y-33159D01*
Y-34226D01*
X-15262Y-34759D01*
X-16861D01*
X-13663Y-34226D02*
X-11530D01*
X-10464Y-32626D02*
Y-35292D01*
X-9930Y-35825D01*
X-8864D01*
X-8331Y-35292D01*
Y-32626D01*
X-7265Y-35825D02*
X-6198D01*
X-6731D01*
Y-32626D01*
X-7265Y-33159D01*
X28900Y54199D02*
X31033D01*
Y53666D01*
X28900Y51533D01*
Y51000D01*
X31033D01*
X32099Y52600D02*
X34232D01*
X35298Y51000D02*
Y54199D01*
X36897D01*
X37431Y53666D01*
Y52600D01*
X36897Y52066D01*
X35298D01*
X38497Y51000D02*
Y54199D01*
X40096D01*
X40630Y53666D01*
Y52600D01*
X40096Y52066D01*
X38497D01*
X39563D02*
X40630Y51000D01*
X43295Y54199D02*
X42229D01*
X41696Y53666D01*
Y51533D01*
X42229Y51000D01*
X43295D01*
X43828Y51533D01*
Y53666D01*
X43295Y54199D01*
X44895D02*
Y51000D01*
X46494D01*
X47028Y51533D01*
Y52066D01*
X46494Y52600D01*
X44895D01*
X46494D01*
X47028Y53133D01*
Y53666D01*
X46494Y54199D01*
X44895D01*
X50226D02*
X48094D01*
Y51000D01*
X50226D01*
X48094Y52600D02*
X49160D01*
X-8800Y54199D02*
Y53666D01*
X-7734Y52600D01*
X-6667Y53666D01*
Y54199D01*
X-7734Y52600D02*
Y51000D01*
X-5601Y52600D02*
X-3468D01*
X-2402Y51000D02*
Y54199D01*
X-1336Y53133D01*
X-269Y54199D01*
Y51000D01*
X797Y54199D02*
X1863D01*
X1330D01*
Y51000D01*
X797D01*
X1863D01*
X3463D02*
Y54199D01*
X5595Y51000D01*
Y54199D01*
X-39700D02*
X-37567Y51000D01*
Y54199D02*
X-39700Y51000D01*
X-36501Y52600D02*
X-34368D01*
X-33302Y51000D02*
Y54199D01*
X-32236Y53133D01*
X-31169Y54199D01*
Y51000D01*
X-30103Y54199D02*
X-29037D01*
X-29570D01*
Y51000D01*
X-30103D01*
X-29037D01*
X-27437D02*
Y54199D01*
X-25305Y51000D01*
Y54199D01*
X11901Y-54700D02*
Y-52567D01*
Y-53634D01*
X15100D01*
X11901Y-51501D02*
X15100Y-49368D01*
X11901D02*
X15100Y-51501D01*
X-79173Y-99396D02*
Y-104394D01*
X-78174Y-105394D01*
X-76174D01*
X-75174Y-104394D01*
Y-99396D01*
X-36800Y-221201D02*
X-34667Y-224400D01*
Y-221201D02*
X-36800Y-224400D01*
X-30402D02*
Y-221201D01*
X-29336Y-222267D01*
X-28269Y-221201D01*
Y-224400D01*
X-25604Y-221201D02*
X-26670D01*
X-27203Y-221734D01*
Y-223867D01*
X-26670Y-224400D01*
X-25604D01*
X-25070Y-223867D01*
Y-221734D01*
X-25604Y-221201D01*
X-24004D02*
X-21871D01*
X-22938D01*
Y-224400D01*
X-19206Y-221201D02*
X-20272D01*
X-20805Y-221734D01*
Y-223867D01*
X-20272Y-224400D01*
X-19206D01*
X-18673Y-223867D01*
Y-221734D01*
X-19206Y-221201D01*
X-17606Y-224400D02*
Y-221201D01*
X-16007D01*
X-15473Y-221734D01*
Y-222800D01*
X-16007Y-223334D01*
X-17606D01*
X-16540D02*
X-15473Y-224400D01*
X-59025Y-94525D02*
X-57426D01*
X-56893Y-93992D01*
X-57426Y-93459D01*
X-58492D01*
X-59025Y-92926D01*
X-58492Y-92393D01*
X-56893D01*
X61475Y-221226D02*
X63607D01*
Y-221759D01*
X61475Y-223892D01*
Y-224425D01*
X63607D01*
X67873D02*
Y-221226D01*
X68939Y-222293D01*
X70005Y-221226D01*
Y-224425D01*
X72671Y-221226D02*
X71605D01*
X71072Y-221759D01*
Y-223892D01*
X71605Y-224425D01*
X72671D01*
X73204Y-223892D01*
Y-221759D01*
X72671Y-221226D01*
X74271D02*
X76403D01*
X75337D01*
Y-224425D01*
X79069Y-221226D02*
X78003D01*
X77470Y-221759D01*
Y-223892D01*
X78003Y-224425D01*
X79069D01*
X79602Y-223892D01*
Y-221759D01*
X79069Y-221226D01*
X80669Y-224425D02*
Y-221226D01*
X82268D01*
X82801Y-221759D01*
Y-222826D01*
X82268Y-223359D01*
X80669D01*
X81735D02*
X82801Y-224425D01*
X87067D02*
X88133D01*
X87600D01*
Y-221226D01*
X87067Y-221759D01*
X89732Y-222826D02*
X91865D01*
X90799Y-221759D02*
Y-223892D01*
X95064Y-224425D02*
X92931D01*
X95064Y-222293D01*
Y-221759D01*
X94531Y-221226D01*
X93464D01*
X92931Y-221759D01*
X-65025Y-94026D02*
X-62893D01*
X13975Y-221226D02*
Y-221759D01*
X15041Y-222826D01*
X16107Y-221759D01*
Y-221226D01*
X15041Y-222826D02*
Y-224425D01*
X20373D02*
Y-221226D01*
X21439Y-222293D01*
X22505Y-221226D01*
Y-224425D01*
X25171Y-221226D02*
X24105D01*
X23572Y-221759D01*
Y-223892D01*
X24105Y-224425D01*
X25171D01*
X25704Y-223892D01*
Y-221759D01*
X25171Y-221226D01*
X26771D02*
X28903D01*
X27837D01*
Y-224425D01*
X31569Y-221226D02*
X30503D01*
X29970Y-221759D01*
Y-223892D01*
X30503Y-224425D01*
X31569D01*
X32102Y-223892D01*
Y-221759D01*
X31569Y-221226D01*
X33169Y-224425D02*
Y-221226D01*
X34768D01*
X35301Y-221759D01*
Y-222826D01*
X34768Y-223359D01*
X33169D01*
X34235D02*
X35301Y-224425D01*
X211275Y-17726D02*
Y-20925D01*
Y-19326D01*
X213407D01*
Y-17726D01*
Y-20925D01*
X215007Y-18793D02*
X216073D01*
X216606Y-19326D01*
Y-20925D01*
X215007D01*
X214474Y-20392D01*
X215007Y-19859D01*
X216606D01*
X217673Y-18793D02*
Y-20925D01*
Y-19859D01*
X218206Y-19326D01*
X218739Y-18793D01*
X219272D01*
X223004Y-17726D02*
Y-20925D01*
X221405D01*
X220872Y-20392D01*
Y-19326D01*
X221405Y-18793D01*
X223004D01*
X224071D02*
Y-20392D01*
X224604Y-20925D01*
X225137Y-20392D01*
X225670Y-20925D01*
X226203Y-20392D01*
Y-18793D01*
X227803D02*
X228869D01*
X229402Y-19326D01*
Y-20925D01*
X227803D01*
X227270Y-20392D01*
X227803Y-19859D01*
X229402D01*
X230469Y-18793D02*
Y-20925D01*
Y-19859D01*
X231002Y-19326D01*
X231535Y-18793D01*
X232068D01*
X235267Y-20925D02*
X234201D01*
X233668Y-20392D01*
Y-19326D01*
X234201Y-18793D01*
X235267D01*
X235800Y-19326D01*
Y-19859D01*
X233668D01*
X212774Y-12226D02*
X211708D01*
X211175Y-12759D01*
Y-14892D01*
X211708Y-15425D01*
X212774D01*
X213307Y-14892D01*
Y-12759D01*
X212774Y-12226D01*
X214374Y-16491D02*
Y-13293D01*
X215973D01*
X216506Y-13826D01*
Y-14892D01*
X215973Y-15425D01*
X214374D01*
X219172D02*
X218106D01*
X217573Y-14892D01*
Y-13826D01*
X218106Y-13293D01*
X219172D01*
X219705Y-13826D01*
Y-14359D01*
X217573D01*
X220772Y-15425D02*
Y-13293D01*
X222371D01*
X222904Y-13826D01*
Y-15425D01*
X229302Y-12759D02*
X228769Y-12226D01*
X227703D01*
X227170Y-12759D01*
Y-13293D01*
X227703Y-13826D01*
X228769D01*
X229302Y-14359D01*
Y-14892D01*
X228769Y-15425D01*
X227703D01*
X227170Y-14892D01*
X230902Y-15425D02*
X231968D01*
X232501Y-14892D01*
Y-13826D01*
X231968Y-13293D01*
X230902D01*
X230369Y-13826D01*
Y-14892D01*
X230902Y-15425D01*
X233568Y-13293D02*
Y-14892D01*
X234101Y-15425D01*
X235700D01*
Y-13293D01*
X236767D02*
Y-15425D01*
Y-14359D01*
X237300Y-13826D01*
X237833Y-13293D01*
X238366D01*
X242098D02*
X240499D01*
X239966Y-13826D01*
Y-14892D01*
X240499Y-15425D01*
X242098D01*
X244764D02*
X243698D01*
X243164Y-14892D01*
Y-13826D01*
X243698Y-13293D01*
X244764D01*
X245297Y-13826D01*
Y-14359D01*
X243164D01*
X118307Y-221426D02*
X116175D01*
Y-224625D01*
X118307D01*
X116175Y-223026D02*
X117241D01*
X122573Y-224625D02*
Y-221426D01*
X123639Y-222493D01*
X124705Y-221426D01*
Y-224625D01*
X127371Y-221426D02*
X126305D01*
X125772Y-221959D01*
Y-224092D01*
X126305Y-224625D01*
X127371D01*
X127904Y-224092D01*
Y-221959D01*
X127371Y-221426D01*
X128971D02*
X131103D01*
X130037D01*
Y-224625D01*
X133769Y-221426D02*
X132703D01*
X132170Y-221959D01*
Y-224092D01*
X132703Y-224625D01*
X133769D01*
X134302Y-224092D01*
Y-221959D01*
X133769Y-221426D01*
X135369Y-224625D02*
Y-221426D01*
X136968D01*
X137501Y-221959D01*
Y-223026D01*
X136968Y-223559D01*
X135369D01*
X136435D02*
X137501Y-224625D01*
X15100Y-68200D02*
X11901D01*
Y-66601D01*
X12434Y-66067D01*
X13500D01*
X14034Y-66601D01*
Y-68200D01*
Y-67134D02*
X15100Y-66067D01*
X11901Y-65001D02*
X15100Y-62868D01*
X11901D02*
X15100Y-65001D01*
X-65850Y-12400D02*
X-69349D01*
Y-10651D01*
X-68766Y-10067D01*
X-67600D01*
X-67017Y-10651D01*
Y-12400D01*
Y-11234D02*
X-65850Y-10067D01*
X-69349Y-6569D02*
Y-8901D01*
X-65850D01*
Y-6569D01*
X-67600Y-8901D02*
Y-7735D01*
X-68766Y-3070D02*
X-69349Y-3653D01*
Y-4819D01*
X-68766Y-5402D01*
X-68183D01*
X-67600Y-4819D01*
Y-3653D01*
X-67017Y-3070D01*
X-66434D01*
X-65850Y-3653D01*
Y-4819D01*
X-66434Y-5402D01*
X-69349Y429D02*
Y-1903D01*
X-65850D01*
Y429D01*
X-67600Y-1903D02*
Y-737D01*
X-69349Y1595D02*
Y3928D01*
Y2762D01*
X-65850D01*
X137633Y-112962D02*
Y-111796D01*
Y-112379D01*
X134717D01*
X134134Y-111796D01*
Y-111213D01*
X134717Y-110630D01*
X137633Y-116461D02*
X137050Y-115295D01*
X135883Y-114129D01*
X134717D01*
X134134Y-114712D01*
Y-115878D01*
X134717Y-116461D01*
X135300D01*
X135883Y-115878D01*
Y-114129D01*
X137987Y-83474D02*
Y-82308D01*
Y-82891D01*
X135071D01*
X134488Y-82308D01*
Y-81725D01*
X135071Y-81142D01*
X137404Y-84641D02*
X137987Y-85224D01*
Y-86390D01*
X137404Y-86973D01*
X136821D01*
X136238Y-86390D01*
Y-85807D01*
Y-86390D01*
X135654Y-86973D01*
X135071D01*
X134488Y-86390D01*
Y-85224D01*
X135071Y-84641D01*
X139374Y-53592D02*
Y-52426D01*
Y-53009D01*
X136458D01*
X135875Y-52426D01*
Y-51843D01*
X136458Y-51260D01*
X135875Y-57091D02*
Y-54759D01*
X138207Y-57091D01*
X138791D01*
X139374Y-56508D01*
Y-55342D01*
X138791Y-54759D01*
G54D12*
X248475Y-28525D02*
X248961Y-27560D01*
X249275Y-26525D01*
X249375Y-23725D02*
X249003Y-22786D01*
X248475Y-21925D01*
X246375Y-19925D02*
X245506Y-19455D01*
X244575Y-19125D01*
X241675Y-19225D02*
X240798Y-19510D01*
X239975Y-19925D01*
X237875Y-21925D02*
X237401Y-22792D01*
X237075Y-23725D01*
Y-26725D02*
X237402Y-27657D01*
X237875Y-28525D01*
X244375Y-27625D02*
X245158Y-27049D01*
X245689Y-26235D01*
X245901Y-25287D01*
X245767Y-24324D01*
X245304Y-23470D01*
X244571Y-22831D01*
X243661Y-22491D01*
X242689D01*
X241779Y-22831D01*
X241046Y-23470D01*
X240583Y-24324D01*
X240449Y-25287D01*
X240661Y-26235D01*
X241192Y-27049D01*
X241975Y-27625D01*
X210580Y-39009D02*
X210036Y-38260D01*
X209155Y-38546D01*
Y-39472D01*
X210036Y-39758D01*
X210580Y-39009D01*
X-118Y-15276D02*
X2835Y-12323D01*
X-315Y-15079D02*
X-118Y-15276D01*
X-3071Y-12323D02*
X-315Y-15079D01*
X-4724Y-12323D02*
Y22323D01*
X64724D01*
Y-12323D02*
Y22323D01*
X-4724Y-12323D02*
X64724D01*
X90461Y15275D02*
X93448Y18261D01*
X87475D02*
X90461Y15275D01*
X148843Y34359D02*
X151830Y31372D01*
X148843Y34359D02*
X151830Y37346D01*
X244375Y-27625D02*
X245775Y-31025D01*
X246575Y-30625D01*
X248375Y-31825D01*
X249775Y-30425D01*
X248475Y-28625D02*
X249775Y-30425D01*
X249275Y-26625D02*
X251475Y-26225D01*
Y-24225D01*
X249275Y-23825D02*
X251475Y-24225D01*
X248375Y-21925D02*
X249775Y-20025D01*
X248375Y-18625D02*
X249775Y-20025D01*
X246375Y-19925D02*
X248375Y-18625D01*
X244075Y-16825D02*
X244575Y-19225D01*
X242175Y-16825D02*
X244075D01*
X241675Y-19225D02*
X242175Y-16825D01*
X237975Y-18625D02*
X239875Y-19925D01*
X236575Y-20025D02*
X237975Y-18625D01*
X236575Y-20025D02*
X237875Y-21925D01*
X234775Y-24225D02*
X237075Y-23825D01*
X234775Y-26225D02*
Y-24225D01*
Y-26225D02*
X236975Y-26625D01*
X236575Y-30425D02*
X237775Y-28625D01*
X236575Y-30425D02*
X237975Y-31825D01*
X239775Y-30625D01*
X240475Y-31025D01*
X241975Y-27625D01*
X5107Y-101521D02*
Y-82973D01*
X19587D01*
Y-101521D02*
Y-82973D01*
X5107Y-101521D02*
X19587D01*
X218008Y-83406D02*
X222008Y-88874D01*
X225945Y-83406D01*
X218008D02*
X225945D01*
X188875Y-52710D02*
Y-39698D01*
Y-37729D01*
X207824Y-39698D02*
Y-37729D01*
Y-52710D02*
Y-39698D01*
X188875D02*
X207824D01*
X266975Y-173025D02*
X267775D01*
X266975D02*
Y-159525D01*
X267775D01*
X266275Y-173025D02*
X266975D01*
X266275D02*
Y-159525D01*
X267775D01*
X250975Y-6525D02*
X257575Y-6925D01*
X87475Y-19239D02*
X90461Y-22225D01*
X93448Y-19239D01*
X132400Y-132700D02*
Y-124800D01*
X130900Y-126300D02*
X132400Y-124800D01*
X133900Y-126300D01*
X-64750Y-13600D02*
Y5100D01*
X-70550D02*
X-64750D01*
X-70550Y-13600D02*
Y5100D01*
Y-13600D02*
X-64750D01*
X190300Y-156500D02*
X191500Y-152400D01*
X130820Y-62251D02*
X134420Y-63451D01*
X147900Y-141102D02*
X151232Y-146100D01*
Y-141102D02*
X147900Y-146100D01*
X152898D02*
X154564D01*
X153731D01*
Y-141102D01*
X152898Y-141935D01*
X157064D02*
X157897Y-141102D01*
X159563D01*
X160396Y-141935D01*
Y-142768D01*
X159563Y-143601D01*
X158730D01*
X159563D01*
X160396Y-144434D01*
Y-145267D01*
X159563Y-146100D01*
X157897D01*
X157064Y-145267D01*
X41181Y-36694D02*
Y-40860D01*
X42014Y-41693D01*
X43680D01*
X44513Y-40860D01*
Y-36694D01*
X49512Y-41693D02*
X46180D01*
X49512Y-38361D01*
Y-37528D01*
X48679Y-36694D01*
X47012D01*
X46180Y-37528D01*
X137700Y-168402D02*
Y-172567D01*
X138533Y-173400D01*
X140199D01*
X141032Y-172567D01*
Y-168402D01*
X142698D02*
X146031D01*
Y-169235D01*
X142698Y-172567D01*
Y-173400D01*
X220575Y43375D02*
X221908D01*
X221241D01*
Y47374D01*
X220575Y46707D01*
X223907Y43375D02*
Y44041D01*
X224573D01*
Y43375D01*
X223907D01*
X229905D02*
X227239D01*
X229905Y46041D01*
Y46707D01*
X229239Y47374D01*
X227906D01*
X227239Y46707D01*
X231905Y46041D02*
X233237D01*
X233904Y45374D01*
Y43375D01*
X231905D01*
X231238Y44041D01*
X231905Y44708D01*
X233904D01*
X134700Y-128502D02*
X138032D01*
X136366D01*
Y-133500D01*
X139698Y-128502D02*
Y-133500D01*
Y-131001D01*
X140531Y-130168D01*
X142198D01*
X143031Y-131001D01*
Y-133500D01*
X147196D02*
X145530D01*
X144697Y-132667D01*
Y-131001D01*
X145530Y-130168D01*
X147196D01*
X148029Y-131001D01*
Y-131834D01*
X144697D01*
X149695Y-130168D02*
Y-133500D01*
Y-131834D01*
X150528Y-131001D01*
X151361Y-130168D01*
X152194D01*
X154693Y-133500D02*
Y-130168D01*
X155527D01*
X156360Y-131001D01*
Y-133500D01*
Y-131001D01*
X157193Y-130168D01*
X158026Y-131001D01*
Y-133500D01*
X16775Y-109125D02*
Y-104127D01*
X18441Y-105793D01*
X20107Y-104127D01*
Y-109125D01*
X22606D02*
X24272D01*
X25105Y-108292D01*
Y-106626D01*
X24272Y-105793D01*
X22606D01*
X21773Y-106626D01*
Y-108292D01*
X22606Y-109125D01*
X27605Y-104960D02*
Y-105793D01*
X26772D01*
X28438D01*
X27605D01*
Y-108292D01*
X28438Y-109125D01*
X31770D02*
X33436D01*
X34269Y-108292D01*
Y-106626D01*
X33436Y-105793D01*
X31770D01*
X30937Y-106626D01*
Y-108292D01*
X31770Y-109125D01*
X35935Y-105793D02*
Y-109125D01*
Y-107459D01*
X36768Y-106626D01*
X37601Y-105793D01*
X38434D01*
X40934Y-109125D02*
X43433D01*
X44266Y-108292D01*
X43433Y-107459D01*
X41767D01*
X40934Y-106626D01*
X41767Y-105793D01*
X44266D01*
X321576Y-169125D02*
Y-165793D01*
X319910Y-167459D02*
X323242D01*
X321576Y-134136D02*
Y-130804D01*
X212641Y52873D02*
X209975D01*
Y48875D01*
X212641D01*
X209975Y50874D02*
X211308D01*
X213973Y52873D02*
X215306D01*
X214640D01*
Y48875D01*
X213973D01*
X215306D01*
X217306D02*
Y52873D01*
X219972Y48875D01*
Y52873D01*
X223970Y52207D02*
X223304Y52873D01*
X221971D01*
X221304Y52207D01*
Y51541D01*
X221971Y50874D01*
X223304D01*
X223970Y50208D01*
Y49541D01*
X223304Y48875D01*
X221971D01*
X221304Y49541D01*
X225303Y52873D02*
Y52207D01*
X226636Y50874D01*
X227969Y52207D01*
Y52873D01*
X226636Y50874D02*
Y48875D01*
X233301D02*
Y52873D01*
X235300D01*
X235966Y52207D01*
Y50874D01*
X235300Y50208D01*
X233301D01*
X234633D02*
X235966Y48875D01*
X237299D02*
Y51541D01*
X238632Y52873D01*
X239965Y51541D01*
Y48875D01*
Y50874D01*
X237299D01*
X241298Y48875D02*
Y52873D01*
X242631Y51541D01*
X243964Y52873D01*
Y48875D01*
X245297Y52873D02*
Y48875D01*
X247296D01*
X247962Y49541D01*
Y50208D01*
X247296Y50874D01*
X245297D01*
X247296D01*
X247962Y51541D01*
Y52207D01*
X247296Y52873D01*
X245297D01*
X249962Y48875D02*
X251295D01*
X251961Y49541D01*
Y50874D01*
X251295Y51541D01*
X249962D01*
X249295Y50874D01*
Y49541D01*
X249962Y48875D01*
X324475Y-164425D02*
X319476D01*
Y-161926D01*
X320309Y-161093D01*
X321976D01*
X322809Y-161926D01*
Y-164425D01*
X319476Y-159427D02*
X324475D01*
X322809Y-157761D01*
X324475Y-156095D01*
X319476D01*
X324475Y-154428D02*
X319476D01*
Y-151929D01*
X320309Y-151096D01*
X321976D01*
X322809Y-151929D01*
Y-154428D01*
Y-152762D02*
X324475Y-151096D01*
X319476Y-144432D02*
Y-142766D01*
Y-143599D01*
X324475D01*
Y-144432D01*
Y-142766D01*
Y-140266D02*
X319476D01*
X324475Y-136934D01*
X319476D01*
X319076Y-99525D02*
X324075D01*
Y-97026D01*
X323242Y-96193D01*
X322409D01*
X321576Y-97026D01*
Y-99525D01*
Y-97026D01*
X320743Y-96193D01*
X319910D01*
X319076Y-97026D01*
Y-99525D01*
Y-91195D02*
Y-94527D01*
X324075D01*
Y-91195D01*
X321576Y-94527D02*
Y-92861D01*
X319076Y-89528D02*
X324075D01*
Y-87029D01*
X323242Y-86196D01*
X319910D01*
X319076Y-87029D01*
Y-89528D01*
Y-79532D02*
Y-77865D01*
Y-78699D01*
X324075D01*
Y-79532D01*
Y-77865D01*
Y-75366D02*
X319076D01*
X324075Y-72034D01*
X319076D01*
X321576Y-104625D02*
Y-101293D01*
X319910Y-102959D02*
X323242D01*
X321576Y-69636D02*
Y-66304D01*
Y-40625D02*
Y-37293D01*
X319910Y-38959D02*
X323242D01*
X321576Y4360D02*
Y7693D01*
X319076Y-32025D02*
X324075D01*
Y-29526D01*
X323242Y-28693D01*
X322409D01*
X321576Y-29526D01*
Y-32025D01*
Y-29526D01*
X320743Y-28693D01*
X319910D01*
X319076Y-29526D01*
Y-32025D01*
Y-23695D02*
Y-27027D01*
X324075D01*
Y-23695D01*
X321576Y-27027D02*
Y-25361D01*
X319076Y-22028D02*
X324075D01*
Y-19529D01*
X323242Y-18696D01*
X319910D01*
X319076Y-19529D01*
Y-22028D01*
Y-9533D02*
Y-11199D01*
X319910Y-12032D01*
X323242D01*
X324075Y-11199D01*
Y-9533D01*
X323242Y-8699D01*
X319910D01*
X319076Y-9533D01*
Y-7033D02*
X323242D01*
X324075Y-6200D01*
Y-4534D01*
X323242Y-3701D01*
X319076D01*
Y-2035D02*
Y1297D01*
Y-369D01*
X324075D01*
X6275Y-153127D02*
Y-157292D01*
X7108Y-158125D01*
X8774D01*
X9607Y-157292D01*
Y-153127D01*
X14605D02*
X12939Y-153960D01*
X11273Y-155626D01*
Y-157292D01*
X12106Y-158125D01*
X13772D01*
X14605Y-157292D01*
Y-156459D01*
X13772Y-155626D01*
X11273D01*
X-38925Y-152827D02*
Y-156992D01*
X-38092Y-157825D01*
X-36426D01*
X-35593Y-156992D01*
Y-152827D01*
X-30595D02*
X-33927D01*
Y-155326D01*
X-32261Y-154493D01*
X-31428D01*
X-30595Y-155326D01*
Y-156992D01*
X-31428Y-157825D01*
X-33094D01*
X-33927Y-156992D01*
X-83625Y-148927D02*
Y-153092D01*
X-82792Y-153925D01*
X-81126D01*
X-80293Y-153092D01*
Y-148927D01*
X-76128Y-153925D02*
Y-148927D01*
X-78627Y-151426D01*
X-75295D01*
X-44459Y-5327D02*
X-45792D01*
X-45126D01*
Y-8659D01*
X-45792Y-9325D01*
X-46459D01*
X-47125Y-8659D01*
X-43126Y-5327D02*
X-40461D01*
Y-5993D01*
X-43126Y-8659D01*
Y-9325D01*
G54D13*
X-47828Y-13169D02*
X-48488Y-12787D01*
Y-13550D01*
X-47828Y-13169D01*
X-43825Y-21869D02*
X-44485Y-21488D01*
Y-22251D01*
X-43825Y-21869D01*
X196217Y38275D02*
X213975D01*
X196217Y28354D02*
X213975D01*
X191575Y-111925D02*
X209333D01*
X191575Y-102004D02*
X209333D01*
X-38841Y-94557D02*
Y-48028D01*
X-100901Y-94557D02*
X-38841D01*
X-100901D02*
Y-48028D01*
X-38841D01*
X-29814Y-115220D02*
Y-108527D01*
Y-133724D02*
Y-127031D01*
X-53436Y-130968D02*
Y-127031D01*
Y-130968D02*
X-50680Y-133724D01*
Y-133724D02*
X-29814D01*
X-53436Y-115220D02*
Y-111283D01*
X-50680Y-108527D02*
X-29814D01*
X-53436Y-111283D02*
X-50680Y-108527D01*
X183625Y-78725D02*
Y-72525D01*
Y-78725D02*
X187375D01*
Y-106275D02*
Y-78725D01*
X183625Y-106275D02*
X187375D01*
X183625Y-112525D02*
Y-106275D01*
X161075Y-112525D02*
X183625D01*
X161075D02*
Y-72525D01*
X183625D01*
Y-106275D02*
Y-78725D01*
X-17100Y46250D02*
X-15900D01*
Y50000D01*
X11650D01*
Y46250D02*
Y50000D01*
Y46250D02*
X12900D01*
Y23700D02*
Y46250D01*
X-17100Y23700D02*
X12900D01*
X-17100D02*
Y46250D01*
X47695Y47142D02*
X53445D01*
X47695Y48043D02*
X53345D01*
X47695Y46265D02*
Y50042D01*
Y49042D02*
X53445D01*
Y46292D02*
Y50042D01*
X25895D02*
X53445D01*
X25822Y46265D02*
X53372D01*
X19095Y40751D02*
X60207D01*
X19095Y29243D02*
Y40751D01*
Y29243D02*
X60207D01*
Y40751D01*
X14695Y23742D02*
Y46292D01*
Y23742D02*
X64695D01*
Y46292D01*
X53445D02*
X64695D01*
X25895D02*
Y50042D01*
X14695Y46292D02*
X25895D01*
X267775Y-185775D02*
X317775D01*
Y15725D01*
X267775D02*
X317775D01*
X267775Y-185775D02*
Y15725D01*
X179217Y-189014D02*
X181973Y-191770D01*
X181973Y-212636D02*
Y-191770D01*
X175280Y-189014D02*
X179217D01*
X156776Y-212636D02*
Y-191770D01*
X156776D02*
X159532Y-189014D01*
X163469D01*
X156776Y-212636D02*
X163469D01*
X175280D02*
X181973D01*
X39928Y-114483D02*
X42684Y-111727D01*
Y-111727D02*
X63550D01*
X39928Y-118420D02*
Y-114483D01*
X42684Y-136924D02*
X63550D01*
X39928Y-134168D02*
X42684Y-136924D01*
X39928Y-134168D02*
Y-130231D01*
X63550Y-136924D02*
Y-130231D01*
Y-118420D02*
Y-111727D01*
X-8275Y-111658D02*
X-5519Y-108902D01*
Y-108902D02*
X15347D01*
X-8275Y-115594D02*
Y-111658D01*
X-5519Y-134098D02*
X15347D01*
X-8275Y-131342D02*
X-5519Y-134098D01*
X-8275Y-131342D02*
Y-127406D01*
X15347Y-134098D02*
Y-127406D01*
Y-115594D02*
Y-108902D01*
X173317Y-151814D02*
X176073Y-154570D01*
X176073Y-175436D02*
Y-154570D01*
X169380Y-151814D02*
X173317D01*
X150876Y-175436D02*
Y-154570D01*
X150876D02*
X153632Y-151814D01*
X157569D01*
X150876Y-175436D02*
X157569D01*
X169380D02*
X176073D01*
X232417Y-112814D02*
X235173Y-115570D01*
X235173Y-136436D02*
Y-115570D01*
X228480Y-112814D02*
X232417D01*
X209976Y-136436D02*
Y-115570D01*
X209976D02*
X212732Y-112814D01*
X216669D01*
X209976Y-136436D02*
X216669D01*
X228480D02*
X235173D01*
X183625Y-106275D02*
Y-98369D01*
X187375D01*
X186421Y-106269D02*
Y-98369D01*
X185500Y-106248D02*
Y-98369D01*
X184520Y-106275D02*
Y-98369D01*
X183725Y-64875D02*
Y-56968D01*
X187475D01*
X186521Y-64868D02*
Y-56968D01*
X185600Y-64848D02*
Y-56968D01*
X184620Y-64875D02*
Y-56968D01*
X136864Y-40217D02*
Y-32310D01*
X133114Y-40217D02*
X136864D01*
X134069D02*
Y-32317D01*
X134989Y-40217D02*
Y-32337D01*
X135968Y-40217D02*
Y-32310D01*
X136864Y-71319D02*
Y-63412D01*
X133114Y-71319D02*
X136864D01*
X134069D02*
Y-63419D01*
X134989Y-71319D02*
Y-63440D01*
X135968Y-71319D02*
Y-63412D01*
X136864Y-102421D02*
Y-94515D01*
X133114Y-102421D02*
X136864D01*
X134069D02*
Y-94521D01*
X134989Y-102421D02*
Y-94542D01*
X135968Y-102421D02*
Y-94515D01*
X186146Y-193536D02*
X203905D01*
X186146Y-203457D02*
X203905D01*
X265721Y-24758D02*
Y-7000D01*
X255800Y-24758D02*
Y-7000D01*
X186056Y-215442D02*
X203814D01*
X186056Y-205521D02*
X203814D01*
X-50500Y-201750D02*
X-39300D01*
Y-198000D01*
X-11750Y-201750D02*
X-500D01*
Y-224300D02*
Y-201750D01*
X-50500Y-224300D02*
X-500D01*
X-50500D02*
Y-201750D01*
X-4988Y-218800D02*
Y-207291D01*
X-46100Y-218800D02*
X-4988D01*
X-46100D02*
Y-207291D01*
X-4988D01*
X-39373Y-201778D02*
X-11823D01*
X-39300Y-198000D02*
X-11750D01*
Y-201750D02*
Y-198000D01*
X-17500Y-199000D02*
X-11750D01*
X-17500Y-201778D02*
Y-198000D01*
Y-200000D02*
X-11850D01*
X-17500Y-200900D02*
X-11750D01*
X681Y-201750D02*
X11881D01*
Y-198000D01*
X39431Y-201750D02*
X50681D01*
Y-224300D02*
Y-201750D01*
X681Y-224300D02*
X50681D01*
X681D02*
Y-201750D01*
X46193Y-218800D02*
Y-207291D01*
X5081Y-218800D02*
X46193D01*
X5081D02*
Y-207291D01*
X46193D01*
X11808Y-201778D02*
X39358D01*
X11881Y-198000D02*
X39431D01*
Y-201750D02*
Y-198000D01*
X33681Y-199000D02*
X39431D01*
X33681Y-201778D02*
Y-198000D01*
Y-200000D02*
X39331D01*
X33681Y-200900D02*
X39431D01*
X51862Y-174191D02*
X63062D01*
Y-170441D01*
X90612Y-174191D02*
X101862D01*
Y-196741D02*
Y-174191D01*
X51862Y-196741D02*
X101862D01*
X51862D02*
Y-174191D01*
X97374Y-191241D02*
Y-179732D01*
X56262Y-191241D02*
X97374D01*
X56262D02*
Y-179732D01*
X97374D01*
X62989Y-174218D02*
X90539D01*
X63062Y-170441D02*
X90612D01*
Y-174191D02*
Y-170441D01*
X84862Y-171441D02*
X90612D01*
X84862Y-174218D02*
Y-170441D01*
Y-172441D02*
X90512D01*
X84862Y-173341D02*
X90612D01*
X51862Y-201750D02*
X63062D01*
Y-198000D01*
X90612Y-201750D02*
X101862D01*
Y-224300D02*
Y-201750D01*
X51862Y-224300D02*
X101862D01*
X51862D02*
Y-201750D01*
X97374Y-218800D02*
Y-207291D01*
X56262Y-218800D02*
X97374D01*
X56262D02*
Y-207291D01*
X97374D01*
X62989Y-201778D02*
X90539D01*
X63062Y-198000D02*
X90612D01*
Y-201750D02*
Y-198000D01*
X84862Y-199000D02*
X90612D01*
X84862Y-201778D02*
Y-198000D01*
Y-200000D02*
X90512D01*
X84862Y-200900D02*
X90612D01*
X103083Y-201711D02*
X114283D01*
Y-197961D01*
X141833Y-201711D02*
X153083D01*
Y-224261D02*
Y-201711D01*
X103083Y-224261D02*
X153083D01*
X103083D02*
Y-201711D01*
X148594Y-218761D02*
Y-207252D01*
X107483Y-218761D02*
X148594D01*
X107483D02*
Y-207252D01*
X148594D01*
X114209Y-201738D02*
X141759D01*
X114283Y-197961D02*
X141833D01*
Y-201711D02*
Y-197961D01*
X136083Y-198961D02*
X141833D01*
X136083Y-201738D02*
Y-197961D01*
Y-199961D02*
X141733D01*
X136083Y-200861D02*
X141833D01*
X136864Y-61060D02*
X159414D01*
Y-31060D01*
X136864D02*
X159414D01*
X136864Y-32310D02*
Y-31060D01*
X133114Y-32310D02*
X136864D01*
X133114Y-59860D02*
Y-32310D01*
Y-59860D02*
X136864D01*
Y-61060D02*
Y-59860D01*
Y-92162D02*
X159414D01*
Y-62162D01*
X136864D02*
X159414D01*
X136864Y-63412D02*
Y-62162D01*
X133114Y-63412D02*
X136864D01*
X133114Y-90962D02*
Y-63412D01*
Y-90962D02*
X136864D01*
Y-92162D02*
Y-90962D01*
Y-123265D02*
X159414D01*
Y-93265D01*
X136864D02*
X159414D01*
X136864Y-94515D02*
Y-93265D01*
X133114Y-94515D02*
X136864D01*
X133114Y-122065D02*
Y-94515D01*
Y-122065D02*
X136864D01*
Y-123265D02*
Y-122065D01*
X-19200Y-350D02*
Y22200D01*
X-49200D02*
X-19200D01*
X-49200Y-350D02*
Y22200D01*
Y-350D02*
X-47950D01*
Y-4100D02*
Y-350D01*
Y-4100D02*
X-20400D01*
Y-350D01*
X-19200D01*
X-49200Y23700D02*
Y46250D01*
Y23700D02*
X-19200D01*
Y46250D01*
X-20450D02*
X-19200D01*
X-20450D02*
Y50000D01*
X-48000D02*
X-20450D01*
X-48000Y46250D02*
Y50000D01*
X-49200Y46250D02*
X-48000D01*
X263325Y19375D02*
X285875D01*
Y49375D01*
X263325D02*
X285875D01*
X263325Y48125D02*
Y49375D01*
X259575Y48125D02*
X263325D01*
X259575Y20575D02*
Y48125D01*
Y20575D02*
X263325D01*
Y19375D02*
Y20575D01*
X183725Y-64875D02*
Y-37325D01*
X161175Y-31125D02*
X183725D01*
X161175Y-71125D02*
Y-31125D01*
Y-71125D02*
X183725D01*
Y-64875D01*
X187475D01*
Y-37325D01*
X183725D02*
X187475D01*
X183725D02*
Y-31125D01*
X316275Y-190925D02*
Y-188926D01*
Y-189926D01*
X310277D01*
X311276Y-190925D01*
G54D14*
X97982Y-49178D02*
X97537Y-48254D01*
X96538Y-48026D01*
X95737Y-48665D01*
Y-49690D01*
X96538Y-50330D01*
X97537Y-50101D01*
X97982Y-49178D01*
G54D15*
X71339Y-151594D02*
D03*
G54D16*
X-72873Y-102194D02*
X-72995Y-101189D01*
X-73354Y-100242D01*
X-73930Y-99409D01*
X-74687Y-98737D01*
X-75584Y-98267D01*
X-76567Y-98024D01*
X-77579D01*
X-78563Y-98267D01*
X-79459Y-98737D01*
X-80217Y-99409D01*
X-80792Y-100242D01*
X-81151Y-101189D01*
X-81273Y-102194D01*
X-81151Y-103199D01*
X-80792Y-104146D01*
X-80217Y-104979D01*
X-79459Y-105650D01*
X-78563Y-106121D01*
X-77579Y-106363D01*
X-76567D01*
X-75584Y-106121D01*
X-74687Y-105650D01*
X-73930Y-104979D01*
X-73354Y-104146D01*
X-72995Y-103199D01*
X-72873Y-102194D01*
X208520Y-223186D02*
Y-145186D01*
Y-223186D02*
X236020D01*
Y-145186D01*
X208520D02*
X236020D01*
X-13825Y-85646D02*
Y-75725D01*
X-26424Y-85646D02*
X-13825D01*
X-26424D02*
Y-75725D01*
X-13825D01*
X-18925Y-62225D02*
Y-61044D01*
Y-43406D02*
Y-42225D01*
X-106Y-62225D02*
X1075D01*
X-18925D02*
X-17744D01*
X1075D02*
Y-61044D01*
Y-43406D02*
Y-42225D01*
X-106D02*
X1075D01*
X-18925D02*
X-17744D01*
X-16032Y6565D02*
X-7568D01*
X-16032Y2235D02*
X-7568D01*
X-16229Y6565D02*
X-16032D01*
X-16721Y6073D02*
X-16229Y6565D01*
X-16229Y2235D02*
X-16032D01*
X-16721Y2727D02*
X-16229Y2235D01*
X-16721Y2727D02*
Y6073D01*
X-17115Y5680D02*
X-16721Y6073D01*
X-17115Y3121D02*
Y5680D01*
Y3121D02*
X-16721Y2727D01*
X73425Y-158661D02*
X85236D01*
X73425Y-150787D02*
X85236D01*
X265525Y-121925D02*
Y-43925D01*
X238025D02*
X265525D01*
X238025Y-121925D02*
Y-43925D01*
Y-121925D02*
X265525D01*
X126742Y-68460D02*
X135207D01*
X126742Y-72790D02*
X135207D01*
X126546Y-68460D02*
X126742D01*
X126054Y-68952D02*
X126546Y-68460D01*
X126546Y-72790D02*
X126742D01*
X126054Y-72298D02*
X126546Y-72790D01*
X126054Y-72298D02*
Y-68952D01*
X125660Y-69346D02*
X126054Y-68952D01*
X125660Y-71905D02*
Y-69346D01*
Y-71905D02*
X126054Y-72298D01*
X125460Y-43805D02*
X125854Y-44198D01*
X125460Y-43805D02*
Y-41246D01*
X125854Y-40852D01*
Y-44198D02*
Y-40852D01*
Y-44198D02*
X126346Y-44691D01*
X126542D01*
X125854Y-40852D02*
X126346Y-40360D01*
X126542D01*
Y-44691D02*
X135007D01*
X126542Y-40360D02*
X135007D01*
X126542Y-49291D02*
X135007D01*
X126542Y-44960D02*
X135007D01*
Y-49291D02*
X135204D01*
X135696Y-48798D01*
X135007Y-44960D02*
X135204D01*
X135696Y-45452D01*
Y-48798D02*
Y-45452D01*
Y-48798D02*
X136090Y-48405D01*
Y-45846D01*
X135696Y-45452D02*
X136090Y-45846D01*
X135896Y-73552D02*
X136290Y-73946D01*
Y-76505D02*
Y-73946D01*
X135896Y-76898D02*
X136290Y-76505D01*
X135896Y-76898D02*
Y-73552D01*
X135404Y-73060D02*
X135896Y-73552D01*
X135207Y-73060D02*
X135404D01*
X135404Y-77390D02*
X135896Y-76898D01*
X135207Y-77390D02*
X135404D01*
X126742Y-73060D02*
X135207D01*
X126742Y-77390D02*
X135207D01*
X122796Y-98990D02*
X131261D01*
X122796Y-94660D02*
X131261D01*
Y-98990D02*
X131457D01*
X131950Y-98498D01*
X131261Y-94660D02*
X131457D01*
X131950Y-95152D01*
Y-98498D02*
Y-95152D01*
Y-98498D02*
X132343Y-98105D01*
Y-95546D01*
X131950Y-95152D02*
X132343Y-95546D01*
X121660Y-93505D02*
X122054Y-93898D01*
X121660Y-93505D02*
Y-90946D01*
X122054Y-90552D01*
Y-93898D02*
Y-90552D01*
Y-93898D02*
X122546Y-94390D01*
X122742D01*
X122054Y-90552D02*
X122546Y-90060D01*
X122742D01*
Y-94390D02*
X131207D01*
X122742Y-90060D02*
X131207D01*
X200068Y-16265D02*
X208532D01*
X200068Y-11935D02*
X208532D01*
Y-16265D02*
X208729D01*
X209221Y-15773D01*
X208532Y-11935D02*
X208729D01*
X209221Y-12427D01*
Y-15773D02*
Y-12427D01*
Y-15773D02*
X209615Y-15380D01*
Y-12821D01*
X209221Y-12427D02*
X209615Y-12821D01*
X189460Y-99905D02*
X189854Y-100298D01*
X189460Y-99905D02*
Y-97346D01*
X189854Y-96952D01*
Y-100298D02*
Y-96952D01*
Y-100298D02*
X190346Y-100791D01*
X190542D01*
X189854Y-96952D02*
X190346Y-96460D01*
X190542D01*
Y-100791D02*
X199007D01*
X190542Y-96460D02*
X199007D01*
X190542Y-96191D02*
X199007D01*
X190542Y-91860D02*
X199007D01*
Y-96191D02*
X199204D01*
X199696Y-95698D01*
X199007Y-91860D02*
X199204D01*
X199696Y-92352D01*
Y-95698D02*
Y-92352D01*
Y-95698D02*
X200090Y-95305D01*
Y-92746D01*
X199696Y-92352D02*
X200090Y-92746D01*
X198985Y-10480D02*
X199379Y-10873D01*
X198985Y-10480D02*
Y-7920D01*
X199379Y-7527D01*
Y-10873D02*
Y-7527D01*
Y-10873D02*
X199871Y-11365D01*
X200068D01*
X199379Y-7527D02*
X199871Y-7035D01*
X200068D01*
Y-11365D02*
X208532D01*
X200068Y-7035D02*
X208532D01*
X-17232Y-3665D02*
X-8768D01*
X-17232Y665D02*
X-8768D01*
Y-3665D02*
X-8571D01*
X-8079Y-3173D01*
X-8768Y665D02*
X-8571D01*
X-8079Y173D01*
Y-3173D02*
Y173D01*
Y-3173D02*
X-7685Y-2780D01*
Y-221D01*
X-8079Y173D02*
X-7685Y-221D01*
X23189Y-72525D02*
Y-59926D01*
Y-72525D02*
X33110D01*
Y-59926D01*
X23189D02*
X33110D01*
X237525Y-145225D02*
X265025D01*
Y-223225D02*
Y-145225D01*
X237525Y-223225D02*
X265025D01*
X237525D02*
Y-145225D01*
X-11028Y-7383D02*
X-11861D01*
X-11444D01*
Y-9465D01*
X-11861Y-9882D01*
X-12277D01*
X-12694Y-9465D01*
X-10195Y-9882D02*
X-9362D01*
X-9778D01*
Y-7383D01*
X-10195Y-7799D01*
X-8112Y-9465D02*
X-7695Y-9882D01*
X-6862D01*
X-6446Y-9465D01*
Y-7799D01*
X-6862Y-7383D01*
X-7695D01*
X-8112Y-7799D01*
Y-8216D01*
X-7695Y-8632D01*
X-6446D01*
X-7599Y-22400D02*
X-5100Y-20734D01*
X-7599D02*
X-5100Y-22400D01*
Y-19901D02*
Y-19068D01*
Y-19484D01*
X-7599D01*
X-7183Y-19901D01*
X-7599Y-17818D02*
Y-16152D01*
X-7183D01*
X-5517Y-17818D01*
X-5100D01*
X185001Y-110134D02*
Y-110967D01*
Y-110550D01*
X187083D01*
X187500Y-110967D01*
Y-111383D01*
X187083Y-111800D01*
X185001Y-107635D02*
Y-109301D01*
X186250D01*
X185834Y-108468D01*
Y-108051D01*
X186250Y-107635D01*
X187083D01*
X187500Y-108051D01*
Y-108884D01*
X187083Y-109301D01*
X-17006Y53838D02*
X-17839D01*
X-17423D01*
Y51755D01*
X-17839Y51339D01*
X-18256D01*
X-18673Y51755D01*
X-16173Y51339D02*
X-15340D01*
X-15757D01*
Y53838D01*
X-16173Y53421D01*
X-12841Y51339D02*
Y53838D01*
X-14091Y52588D01*
X-12425D01*
X18832Y53699D02*
X17998D01*
X18415D01*
Y51617D01*
X17998Y51200D01*
X17582D01*
X17165Y51617D01*
X19665Y51200D02*
X20498D01*
X20081D01*
Y53699D01*
X19665Y53283D01*
X23413Y53699D02*
X21747D01*
Y52450D01*
X22580Y52866D01*
X22997D01*
X23413Y52450D01*
Y51617D01*
X22997Y51200D01*
X22164D01*
X21747Y51617D01*
X40840Y-97561D02*
X42506D01*
X41673D01*
Y-100061D01*
X43339D02*
Y-97561D01*
X44589D01*
X45006Y-97978D01*
Y-98811D01*
X44589Y-99228D01*
X43339D01*
X45838Y-100061D02*
X46672D01*
X46255D01*
Y-97561D01*
X45838Y-97978D01*
X47921Y-100061D02*
X48754D01*
X48338D01*
Y-97561D01*
X47921Y-97978D01*
X-67300Y-39700D02*
Y-37201D01*
X-66050D01*
X-65634Y-37617D01*
Y-38450D01*
X-66050Y-38867D01*
X-67300D01*
X-64801Y-37201D02*
Y-39700D01*
X-63968Y-38867D01*
X-63135Y-39700D01*
Y-37201D01*
X-62302Y-39700D02*
Y-37201D01*
X-61052D01*
X-60636Y-37617D01*
Y-38450D01*
X-61052Y-38867D01*
X-62302D01*
X-61469D02*
X-60636Y-39700D01*
X-67300Y-31500D02*
Y-29834D01*
X-66467Y-29001D01*
X-65634Y-29834D01*
Y-31500D01*
Y-30250D01*
X-67300D01*
X-63135Y-29417D02*
X-63551Y-29001D01*
X-64384D01*
X-64801Y-29417D01*
Y-31084D01*
X-64384Y-31500D01*
X-63551D01*
X-63135Y-31084D01*
X-62302Y-29001D02*
X-60636D01*
X-61469D01*
Y-31500D01*
X192493Y-78839D02*
X190827D01*
Y-80089D01*
X191660D01*
X190827D01*
Y-81339D01*
X193326D02*
Y-79672D01*
X194159Y-78839D01*
X194992Y-79672D01*
Y-81339D01*
Y-80089D01*
X193326D01*
X195825Y-81339D02*
Y-78839D01*
X197491Y-81339D01*
Y-78839D01*
X198324Y-79256D02*
X198741Y-78839D01*
X199574D01*
X199990Y-79256D01*
Y-80922D01*
X199574Y-81339D01*
X198741D01*
X198324Y-80922D01*
Y-79256D01*
X186556Y-34239D02*
Y-35906D01*
X187805D01*
Y-35072D01*
Y-35906D01*
X189055D01*
Y-33406D02*
X187389D01*
X186556Y-32573D01*
X187389Y-31740D01*
X189055D01*
X187805D01*
Y-33406D01*
X189055Y-30907D02*
X186556D01*
X189055Y-29241D01*
X186556D01*
X189055Y-28408D02*
Y-27575D01*
Y-27991D01*
X186556D01*
X186972Y-28408D01*
X183500Y-148601D02*
Y-151100D01*
Y-149850D01*
X185166D01*
Y-148601D01*
Y-151100D01*
X187665Y-148601D02*
X185999D01*
Y-151100D01*
X187665D01*
X185999Y-149850D02*
X186832D01*
X188498Y-151100D02*
Y-149434D01*
X189331Y-148601D01*
X190164Y-149434D01*
Y-151100D01*
Y-149850D01*
X188498D01*
X190998Y-148601D02*
X192664D01*
X191831D01*
Y-151100D01*
X193497Y-149850D02*
X195163D01*
X195996Y-149017D02*
X196413Y-148601D01*
X197246D01*
X197662Y-149017D01*
Y-150683D01*
X197246Y-151100D01*
X196413D01*
X195996Y-150683D01*
Y-149017D01*
X-49318Y53641D02*
X-50151D01*
X-49735D01*
Y51558D01*
X-50151Y51142D01*
X-50568D01*
X-50984Y51558D01*
X-48485Y51142D02*
X-47652D01*
X-48068D01*
Y53641D01*
X-48485Y53224D01*
X-46402D02*
X-45986Y53641D01*
X-45153D01*
X-44736Y53224D01*
Y52808D01*
X-45153Y52391D01*
X-45569D01*
X-45153D01*
X-44736Y51975D01*
Y51558D01*
X-45153Y51142D01*
X-45986D01*
X-46402Y51558D01*
X184745Y-70145D02*
Y-70978D01*
Y-70561D01*
X186828D01*
X187244Y-70978D01*
Y-71394D01*
X186828Y-71811D01*
X187244Y-68062D02*
X184745D01*
X185995Y-69312D01*
Y-67646D01*
X-87000Y-38301D02*
Y-40800D01*
X-85334D01*
X-82835Y-38301D02*
X-84501D01*
Y-40800D01*
X-82835D01*
X-84501Y-39550D02*
X-83668D01*
X-82002Y-38301D02*
Y-40800D01*
X-80752D01*
X-80335Y-40383D01*
Y-38717D01*
X-80752Y-38301D01*
X-82002D01*
X-79502D02*
X-77836D01*
Y-38717D01*
X-79502Y-40383D01*
Y-40800D01*
X-87300Y-20701D02*
Y-23200D01*
X-85634D01*
X-83135Y-20701D02*
X-84801D01*
Y-23200D01*
X-83135D01*
X-84801Y-21950D02*
X-83968D01*
X-82302Y-20701D02*
Y-23200D01*
X-81052D01*
X-80635Y-22783D01*
Y-21117D01*
X-81052Y-20701D01*
X-82302D01*
X-79802Y-23200D02*
X-78969D01*
X-79386D01*
Y-20701D01*
X-79802Y-21117D01*
G54D17*
X2287Y-80721D02*
D03*
G54D18*
X-47008Y-31300D02*
D03*
X98400Y-36800D02*
D03*
X-34525Y-32025D02*
D03*
G54D19*
X72008Y-150197D02*
D03*
X129200Y-148500D02*
D03*
X116000Y-148700D02*
D03*
X128500Y-183000D02*
D03*
X115700Y-177100D02*
D03*
X33700Y-182700D02*
D03*
X19500Y-181300D02*
D03*
X33100Y-148300D02*
D03*
X19600Y-148800D02*
D03*
X-13200D02*
D03*
X-23700Y-148700D02*
D03*
X-11400Y-181700D02*
D03*
X-25100Y-176800D02*
D03*
X-55800Y-174600D02*
D03*
X-70400Y-177000D02*
D03*
X-58500Y-144800D02*
D03*
X-70400D02*
D03*
X208200Y-194400D02*
D03*
X205700Y-205400D02*
D03*
X193900Y28000D02*
D03*
X210200Y-16700D02*
D03*
X197400Y-5900D02*
D03*
X265400Y-40600D02*
D03*
X234100Y-100500D02*
D03*
X211900Y-101800D02*
D03*
X198900Y-90400D02*
D03*
X188900Y-101200D02*
D03*
X131400Y-100300D02*
D03*
X121000Y-89600D02*
D03*
X136775Y-77825D02*
D03*
X125211Y-67886D02*
D03*
X137000Y-49700D02*
D03*
X125000Y-39800D02*
D03*
X-7400Y-4400D02*
D03*
X-17600Y7300D02*
D03*
G54D20*
X118875Y-113325D02*
D03*
X27975D02*
D03*
Y-25625D02*
D03*
G54D21*
X215814Y-28375D02*
X235499D01*
Y-51170D02*
Y-28375D01*
X215814Y-51170D02*
X235499D01*
X215814D02*
Y-28375D01*
X217270Y-49241D02*
X218885D01*
X217270Y-51643D02*
Y-49241D01*
Y-51643D02*
X218885D01*
Y-49241D01*
X223924Y-51643D02*
Y-49241D01*
X222310Y-51643D02*
X223924D01*
X222310D02*
Y-49241D01*
X223924D01*
X228963Y-51643D02*
Y-49241D01*
X227349Y-51643D02*
X228963D01*
X227349D02*
Y-49241D01*
X228963D01*
X234003Y-51643D02*
Y-49241D01*
X232389Y-51643D02*
X234003D01*
X232389D02*
Y-49241D01*
X234003D01*
X232369Y-27863D02*
X233983D01*
X232369Y-28375D02*
Y-27863D01*
X233983Y-28375D02*
Y-27863D01*
X217133D02*
X218747D01*
X217133Y-28375D02*
Y-27863D01*
X218747Y-28375D02*
Y-27863D01*
X222290D02*
X223904D01*
X222290Y-28375D02*
Y-27863D01*
X223904Y-28375D02*
Y-27863D01*
X227329D02*
X228944D01*
X227329Y-28375D02*
Y-27863D01*
X228944Y-28375D02*
Y-27863D01*
X215814Y-44280D02*
X235499D01*
X215806Y-42291D02*
X217814D01*
Y-30265D01*
X217145D02*
X217814D01*
X217145D02*
Y-28393D01*
X218766D01*
X232342D02*
X233963D01*
Y-30283D02*
Y-28393D01*
X227302D02*
X228924D01*
Y-30265D02*
X232342D01*
X233562Y-30283D02*
X233963D01*
X232342Y-30265D02*
Y-28393D01*
X228924Y-30265D02*
Y-28393D01*
X223885Y-30265D02*
X227302D01*
X222263D02*
Y-28393D01*
X223885D01*
X218766Y-30265D02*
X222263D01*
X227302D02*
Y-28393D01*
X218766Y-30265D02*
Y-28393D01*
X223885Y-30265D02*
Y-28393D01*
X233562Y-44298D02*
Y-30283D01*
X179583Y-183932D02*
Y-164247D01*
X202378D01*
Y-183932D02*
Y-164247D01*
X179583Y-183932D02*
X202378D01*
X200449Y-182475D02*
Y-180861D01*
Y-182475D02*
X202850D01*
Y-180861D01*
X200449D02*
X202850D01*
X200449Y-175822D02*
X202850D01*
Y-177436D02*
Y-175822D01*
X200449Y-177436D02*
X202850D01*
X200449D02*
Y-175822D01*
Y-170782D02*
X202850D01*
Y-172397D02*
Y-170782D01*
X200449Y-172397D02*
X202850D01*
X200449D02*
Y-170782D01*
Y-165743D02*
X202850D01*
Y-167357D02*
Y-165743D01*
X200449Y-167357D02*
X202850D01*
X200449D02*
Y-165743D01*
X179071Y-167377D02*
Y-165763D01*
Y-167377D02*
X179583D01*
X179071Y-165763D02*
X179583D01*
X179071Y-182613D02*
Y-180999D01*
Y-182613D02*
X179583D01*
X179071Y-180999D02*
X179583D01*
X179071Y-177455D02*
Y-175841D01*
Y-177455D02*
X179583D01*
X179071Y-175841D02*
X179583D01*
X179071Y-172416D02*
Y-170802D01*
Y-172416D02*
X179583D01*
X179071Y-170802D02*
X179583D01*
X195488Y-183932D02*
Y-164247D01*
X193498Y-183939D02*
Y-181931D01*
X181472D02*
X193498D01*
X181472Y-182601D02*
Y-181931D01*
X179601Y-182601D02*
X181472D01*
X179601D02*
Y-180979D01*
Y-167404D02*
Y-165782D01*
X181491D01*
X179601Y-172443D02*
Y-170822D01*
X181472D02*
Y-167404D01*
X181491Y-166183D02*
Y-165782D01*
X179601Y-167404D02*
X181472D01*
X179601Y-170822D02*
X181472D01*
Y-175861D02*
Y-172443D01*
X179601Y-177483D02*
X181472D01*
X179601D02*
Y-175861D01*
X181472Y-180979D02*
Y-177483D01*
X179601Y-172443D02*
X181472D01*
X179601Y-180979D02*
X181472D01*
X179601Y-175861D02*
X181472D01*
X181491Y-166183D02*
X195506D01*
G54D22*
X-13550Y10175D02*
X-7250D01*
X-13550Y7025D02*
X-7250D01*
X-13550D02*
Y10175D01*
X-7250Y7025D02*
Y10175D01*
X38424Y-34346D02*
Y-31196D01*
X32125Y-34346D02*
Y-31196D01*
Y-34346D02*
X38424D01*
X32125Y-31196D02*
X38424D01*
X106976Y-36650D02*
X113275D01*
X106976Y-39800D02*
X113275D01*
X106976D02*
Y-36650D01*
X113275Y-39800D02*
Y-36650D01*
X186750Y-60425D02*
X193050D01*
X186750Y-63575D02*
X193050D01*
X186750D02*
Y-60425D01*
X193050Y-63575D02*
Y-60425D01*
X254095Y40984D02*
X260394D01*
X254095Y37835D02*
X260394D01*
X254095D02*
Y40984D01*
X260394Y37835D02*
Y40984D01*
X-30556Y-73687D02*
Y-68963D01*
X-21894Y-73687D02*
Y-68963D01*
X-30556D02*
X-21894D01*
X-30556Y-73687D02*
X-21894D01*
X194291Y-78347D02*
Y-73622D01*
X185630Y-78347D02*
Y-73622D01*
Y-78347D02*
X194291D01*
X185630Y-73622D02*
X194291D01*
X142513Y-194656D02*
Y-185995D01*
X147237Y-194656D02*
Y-185995D01*
X142513Y-194656D02*
X147237D01*
X142513Y-185995D02*
X147237D01*
X125144Y-196887D02*
X133806D01*
X125144Y-192163D02*
X133806D01*
Y-196887D02*
Y-192163D01*
X125144Y-196887D02*
Y-192163D01*
X108413Y-200756D02*
Y-192095D01*
X113137Y-200756D02*
Y-192095D01*
X108413Y-200756D02*
X113137D01*
X108413Y-192095D02*
X113137D01*
X81644Y-173387D02*
X90306D01*
X81644Y-168663D02*
X90306D01*
Y-173387D02*
Y-168663D01*
X81644Y-173387D02*
Y-168663D01*
X70744Y-173387D02*
X79405D01*
X70744Y-168663D02*
X79405D01*
Y-173387D02*
Y-168663D01*
X70744Y-173387D02*
Y-168663D01*
X57044Y-173387D02*
X65706D01*
X57044Y-168663D02*
X65706D01*
Y-173387D02*
Y-168663D01*
X57044Y-173387D02*
Y-168663D01*
X-41562Y-200131D02*
Y-191469D01*
X-36838Y-200131D02*
Y-191469D01*
X-41562Y-200131D02*
X-36838D01*
X-41562Y-191469D02*
X-36838D01*
X30744Y-31133D02*
Y-26409D01*
X39406Y-31133D02*
Y-26409D01*
X30744D02*
X39406D01*
X30744Y-31133D02*
X39406D01*
X17669Y-191038D02*
X26331D01*
X17669Y-195762D02*
X26331D01*
X17669D02*
Y-191038D01*
X26331Y-195762D02*
Y-191038D01*
X102844Y-176863D02*
X111505D01*
X102844Y-181587D02*
X111505D01*
X102844D02*
Y-176863D01*
X111505Y-181587D02*
Y-176863D01*
X114013Y-99795D02*
X118737D01*
X114013Y-108456D02*
X118737D01*
Y-99795D01*
X114013Y-108456D02*
Y-99795D01*
X125005Y-44987D02*
Y-40263D01*
X116344Y-44987D02*
Y-40263D01*
Y-44987D02*
X125005D01*
X116344Y-40263D02*
X125005D01*
X-49862Y-200131D02*
Y-191469D01*
X-45138Y-200131D02*
Y-191469D01*
X-49862Y-200131D02*
X-45138D01*
X-49862Y-191469D02*
X-45138D01*
X-32062Y-200149D02*
Y-191487D01*
X-27338Y-200149D02*
Y-191487D01*
X-32062Y-200149D02*
X-27338D01*
X-32062Y-191487D02*
X-27338D01*
X-23831Y-200562D02*
X-15169D01*
X-23831Y-195838D02*
X-15169D01*
Y-200562D02*
Y-195838D01*
X-23831Y-200562D02*
Y-195838D01*
X-12231Y-200662D02*
X-3569D01*
X-12231Y-195938D02*
X-3569D01*
Y-200662D02*
Y-195938D01*
X-12231Y-200662D02*
Y-195938D01*
X-7562Y-191831D02*
Y-183169D01*
X-2838Y-191831D02*
Y-183169D01*
X-7562Y-191831D02*
X-2838D01*
X-7562Y-183169D02*
X-2838D01*
X5869Y-195762D02*
X14531D01*
X5869Y-191038D02*
X14531D01*
Y-195762D02*
Y-191038D01*
X5869Y-195762D02*
Y-191038D01*
X41169Y-200162D02*
X49831D01*
X41169Y-195438D02*
X49831D01*
Y-200162D02*
Y-195438D01*
X41169Y-200162D02*
Y-195438D01*
G54D23*
X-33495Y-104881D02*
X-23455D01*
X-33495D02*
Y-99370D01*
X-23455D01*
Y-104881D02*
Y-99370D01*
X254705Y-3625D02*
X262475D01*
X254705Y11943D02*
X262475D01*
X254705Y-3625D02*
Y11943D01*
X262475Y-3625D02*
Y11943D01*
X197655Y-193181D02*
X207695D01*
X197655D02*
Y-187669D01*
X207695D01*
Y-193181D02*
Y-187669D01*
X-36225Y-99125D02*
X-20657D01*
X-36225Y-91355D02*
X-20657D01*
Y-99125D02*
Y-91355D01*
X-36225Y-99125D02*
Y-91355D01*
X-35181Y-64745D02*
Y-54705D01*
X-29670D01*
Y-64745D02*
Y-54705D01*
X-35181Y-64745D02*
X-29670D01*
X-71325Y-139176D02*
X-63555D01*
Y-120475D01*
X-71325D02*
X-63555D01*
X-71325Y-139176D02*
Y-120475D01*
X-46981Y-145245D02*
Y-135205D01*
X-41469D01*
Y-145245D02*
Y-135205D01*
X-46981Y-145245D02*
X-41469D01*
X123955Y-188681D02*
X133994D01*
X123955D02*
Y-183169D01*
X133994D01*
Y-188681D02*
Y-183169D01*
X107095Y-173281D02*
Y-167769D01*
X97055D02*
X107095D01*
X97055Y-173281D02*
Y-167769D01*
Y-173281D02*
X107095D01*
X114355Y-191369D02*
X124395D01*
Y-196881D02*
Y-191369D01*
X114355Y-196881D02*
X124395D01*
X114355D02*
Y-191369D01*
X124219Y-127506D02*
X129731D01*
X124219Y-137545D02*
Y-127506D01*
Y-137545D02*
X129731D01*
Y-127506D01*
X136519Y-193822D02*
Y-183783D01*
X142031D01*
Y-193822D02*
Y-183783D01*
X136519Y-193822D02*
X142031D01*
X147719Y-182405D02*
X153231D01*
X147719Y-192445D02*
Y-182405D01*
Y-192445D02*
X153231D01*
Y-182405D01*
X139319Y-148245D02*
Y-138206D01*
X144831D01*
Y-148245D02*
Y-138206D01*
X139319Y-148245D02*
X144831D01*
X137995Y-143081D02*
Y-137569D01*
X127955D02*
X137995D01*
X127955Y-143081D02*
Y-137569D01*
Y-143081D02*
X137995D01*
X136355Y-183481D02*
X146395D01*
X136355D02*
Y-177969D01*
X146395D01*
Y-183481D02*
Y-177969D01*
X26944Y-191620D02*
X32456D01*
Y-181580D01*
X26944D02*
X32456D01*
X26944Y-191620D02*
Y-181580D01*
X5155Y-182081D02*
X15194D01*
X5155D02*
Y-176569D01*
X15194D01*
Y-182081D02*
Y-176569D01*
X36255Y-189381D02*
Y-183869D01*
Y-189381D02*
X46295D01*
Y-183869D01*
X36255D02*
X46295D01*
X17855Y-142481D02*
X27894D01*
X17855D02*
Y-136969D01*
X27894D01*
Y-142481D02*
Y-136969D01*
X72047Y-167421D02*
Y-161909D01*
X62008D02*
X72047D01*
X62008Y-167421D02*
Y-161909D01*
Y-167421D02*
X72047D01*
X85355Y-162369D02*
X95394D01*
Y-167881D02*
Y-162369D01*
X85355Y-167881D02*
X95394D01*
X85355D02*
Y-162369D01*
X43255Y-148881D02*
Y-143369D01*
Y-148881D02*
X53294D01*
Y-143369D01*
X43255D02*
X53294D01*
X31655Y-143181D02*
X41695D01*
X31655D02*
Y-137669D01*
X41695D01*
Y-143181D02*
Y-137669D01*
X50394Y-182781D02*
Y-177269D01*
X40355D02*
X50394D01*
X40355Y-182781D02*
Y-177269D01*
Y-182781D02*
X50394D01*
X-13245Y-143181D02*
X-3206D01*
X-13245D02*
Y-137669D01*
X-3206D01*
Y-143181D02*
Y-137669D01*
X1194Y-182881D02*
Y-177369D01*
X-8845D02*
X1194D01*
X-8845Y-182881D02*
Y-177369D01*
Y-182881D02*
X1194D01*
X-23845Y-190069D02*
X-13805D01*
Y-195581D02*
Y-190069D01*
X-23845Y-195581D02*
X-13805D01*
X-23845D02*
Y-190069D01*
X-29880Y-180656D02*
Y-175144D01*
X-39920D02*
X-29880D01*
X-39920Y-180656D02*
Y-175144D01*
Y-180656D02*
X-29880D01*
X-7844Y-193220D02*
Y-183180D01*
X-13356Y-193220D02*
X-7844D01*
X-13356D02*
Y-183180D01*
X-7844D01*
X-17381Y-127605D02*
X-11869D01*
X-17381Y-137645D02*
Y-127605D01*
Y-137645D02*
X-11869D01*
Y-127605D01*
X2956Y-193220D02*
Y-183180D01*
X-2556Y-193220D02*
X2956D01*
X-2556D02*
Y-183180D01*
X2956D01*
X29355Y-197381D02*
Y-191869D01*
Y-197381D02*
X39395D01*
Y-191869D01*
X29355D02*
X39395D01*
X-2081Y-148645D02*
Y-138605D01*
X3431D01*
Y-148645D02*
Y-138605D01*
X-2081Y-148645D02*
X3431D01*
X213019Y-101805D02*
X218531D01*
X213019Y-111845D02*
Y-101805D01*
Y-111845D02*
X218531D01*
Y-101805D01*
X241206Y-128631D02*
X251245D01*
X241206D02*
Y-123119D01*
X251245D01*
Y-128631D02*
Y-123119D01*
X240455Y-134381D02*
Y-128869D01*
Y-134381D02*
X250495D01*
Y-128869D01*
X240455D02*
X250495D01*
X251155Y-134381D02*
X261194D01*
X251155D02*
Y-128869D01*
X261194D01*
Y-134381D02*
Y-128869D01*
X232675Y-1095D02*
Y6675D01*
X217107Y-1095D02*
Y6675D01*
Y-1095D02*
X232675D01*
X217107Y6675D02*
X232675D01*
X218619Y6655D02*
X224131D01*
Y16694D01*
X218619D02*
X224131D01*
X218619Y6655D02*
Y16694D01*
X219855Y-1369D02*
X229894D01*
Y-6881D02*
Y-1369D01*
X219855Y-6881D02*
X229894D01*
X219855D02*
Y-1369D01*
X226155Y-102369D02*
X236194D01*
Y-107881D02*
Y-102369D01*
X226155Y-107881D02*
X236194D01*
X226155D02*
Y-102369D01*
X-57845Y-140681D02*
X-47806D01*
X-57845D02*
Y-135169D01*
X-47806D01*
Y-140681D02*
Y-135169D01*
X-40205Y-179681D02*
Y-174169D01*
X-50245D02*
X-40205D01*
X-50245Y-179681D02*
Y-174169D01*
Y-179681D02*
X-40205D01*
X-58381Y-188345D02*
Y-178305D01*
X-52869D01*
Y-188345D02*
Y-178305D01*
X-58381Y-188345D02*
X-52869D01*
X-73905Y-178081D02*
Y-172569D01*
X-83945D02*
X-73905D01*
X-83945Y-178081D02*
Y-172569D01*
Y-178081D02*
X-73905D01*
X-47169Y-189745D02*
Y-179706D01*
X-52681Y-189745D02*
X-47169D01*
X-52681D02*
Y-179706D01*
X-47169D01*
X-63381Y-125706D02*
X-57869D01*
X-63381Y-135745D02*
Y-125706D01*
Y-135745D02*
X-57869D01*
Y-125706D01*
X-41419Y-191122D02*
Y-181083D01*
X-46931Y-191122D02*
X-41419D01*
X-46931D02*
Y-181083D01*
X-41419D01*
X-41131Y-181105D02*
X-35619D01*
X-41131Y-191145D02*
Y-181105D01*
Y-191145D02*
X-35619D01*
Y-181105D01*
X103543Y-108661D02*
X113583D01*
Y-114173D02*
Y-108661D01*
X103543Y-114173D02*
X113583D01*
X103543D02*
Y-108661D01*
X123325Y-189925D02*
Y-182155D01*
X104624D02*
X123325D01*
X104624Y-189925D02*
Y-182155D01*
Y-189925D02*
X123325D01*
X18250Y-129000D02*
X36950D01*
Y-136770D02*
Y-129000D01*
X18250Y-136770D02*
X36950D01*
X18250D02*
Y-129000D01*
X116200Y-143550D02*
X123970D01*
Y-124850D01*
X116200D02*
X123970D01*
X116200Y-143550D02*
Y-124850D01*
X-33150Y-189100D02*
X-14450D01*
X-33150D02*
Y-181330D01*
X-14450D01*
Y-189100D02*
Y-181330D01*
X26650Y-190000D02*
Y-182230D01*
X7950D02*
X26650D01*
X7950Y-190000D02*
Y-182230D01*
Y-190000D02*
X26650D01*
X-25325Y-143376D02*
Y-124675D01*
X-17555D01*
Y-143376D02*
Y-124675D01*
X-25325Y-143376D02*
X-17555D01*
X-58575Y-186025D02*
Y-178255D01*
X-77276D02*
X-58575D01*
X-77276Y-186025D02*
Y-178255D01*
Y-186025D02*
X-58575D01*
X-29669Y-54245D02*
Y-44206D01*
X-35181Y-54245D02*
X-29669D01*
X-35181D02*
Y-44206D01*
X-29669D01*
X266455Y-210269D02*
X276495D01*
Y-215781D02*
Y-210269D01*
X266455Y-215781D02*
X276495D01*
X266455D02*
Y-210269D01*
X276419Y-187005D02*
X281931D01*
X276419Y-197045D02*
Y-187005D01*
Y-197045D02*
X281931D01*
Y-187005D01*
X276419Y-208845D02*
Y-198805D01*
X281931D01*
Y-208845D02*
Y-198805D01*
X276419Y-208845D02*
X281931D01*
G54D24*
X145947Y23576D02*
Y48773D01*
X75002Y23576D02*
Y48773D01*
X145947D01*
X75002Y23576D02*
X145947D01*
X157145Y-21127D02*
X182342D01*
X157145Y49818D02*
X182342D01*
Y-21127D02*
Y49818D01*
X157145Y-21127D02*
Y49818D01*
X244000Y5628D02*
X247150D01*
X244000Y-278D02*
X247150D01*
X246738Y-136276D02*
X254612D01*
X246738Y-142575D02*
X254612D01*
X48769Y-45241D02*
X100738D01*
X48769Y-97210D02*
X100738D01*
Y-45241D01*
X48769Y-97210D02*
Y-45241D01*
X224307Y27172D02*
X240843D01*
X224307Y39377D02*
X240843D01*
X113345Y-175418D02*
X115018D01*
X113345D02*
Y-173745D01*
X132931Y-175418D02*
X134605D01*
Y-173745D01*
Y-151894D02*
Y-150221D01*
X132931D02*
X134605D01*
X113345D02*
X115018D01*
X113345Y-151894D02*
Y-150221D01*
X238984Y7739D02*
X244102D01*
X238984Y21125D02*
X244102D01*
X58071Y-15551D02*
Y-14862D01*
X60039D01*
X58071Y-21555D02*
Y-20866D01*
Y-21555D02*
X60039D01*
X73721Y-125984D02*
X74114D01*
X73721Y-132677D02*
X74114D01*
X73721D02*
Y-125984D01*
X74114Y-132677D02*
Y-125984D01*
X89665Y-133957D02*
X92126D01*
Y-135433D02*
Y-133957D01*
X76575D02*
X79035D01*
X76575Y-135433D02*
Y-133957D01*
Y-149508D02*
Y-148031D01*
Y-149508D02*
X79035D01*
X89665D02*
X92126D01*
Y-148031D01*
X20669Y-22146D02*
X27362D01*
X20669Y-21752D02*
X27362D01*
X20669Y-22146D02*
Y-21752D01*
X27362Y-22146D02*
Y-21752D01*
X75002Y-13924D02*
X145947D01*
X75002Y11273D02*
X145947D01*
X75002Y-13924D02*
Y11273D01*
X145947Y-13924D02*
Y11273D01*
X268625Y-202862D02*
Y-194988D01*
X274924Y-202862D02*
Y-194988D01*
X-72793Y-148294D02*
Y-146621D01*
X-71120D01*
X-53206D02*
X-51533D01*
Y-148294D02*
Y-146621D01*
Y-171818D02*
Y-170145D01*
X-53206Y-171818D02*
X-51533D01*
X-72793D02*
Y-170145D01*
Y-171818D02*
X-71120D01*
X-28055Y-151894D02*
Y-150221D01*
X-26382D01*
X-8468D02*
X-6795D01*
Y-151894D02*
Y-150221D01*
Y-175418D02*
Y-173745D01*
X-8468Y-175418D02*
X-6795D01*
X-28055D02*
Y-173745D01*
Y-175418D02*
X-26382D01*
X16945Y-151894D02*
Y-150221D01*
X18618D01*
X36531D02*
X38205D01*
Y-151894D02*
Y-150221D01*
Y-175418D02*
Y-173745D01*
X36531Y-175418D02*
X38205D01*
X16945D02*
Y-173745D01*
Y-175418D02*
X18618D01*
G54D25*
X189283Y25267D02*
X215267D01*
Y-717D02*
Y25267D01*
X189283Y-717D02*
X215267D01*
X189283D02*
Y25267D01*
X112375Y-22127D02*
Y-25459D01*
X113041Y-26125D01*
X114374D01*
X115041Y-25459D01*
Y-22127D01*
X116374Y-22793D02*
X117040Y-22127D01*
X118373D01*
X119039Y-22793D01*
Y-23459D01*
X118373Y-24126D01*
X119039Y-24792D01*
Y-25459D01*
X118373Y-26125D01*
X117040D01*
X116374Y-25459D01*
Y-24792D01*
X117040Y-24126D01*
X116374Y-23459D01*
Y-22793D01*
X117040Y-24126D02*
X118373D01*
X69764Y23189D02*
X65765D01*
Y25188D01*
X66431Y25855D01*
X67764D01*
X68431Y25188D01*
Y23189D01*
X69764Y27188D02*
Y28521D01*
Y27854D01*
X65765D01*
X66431Y27188D01*
X192975Y30275D02*
X188976D01*
Y32274D01*
X189643Y32941D01*
X190975D01*
X191642Y32274D01*
Y30275D01*
X189643Y34273D02*
X188976Y34940D01*
Y36273D01*
X189643Y36939D01*
X190309D01*
X190975Y36273D01*
Y35606D01*
Y36273D01*
X191642Y36939D01*
X192308D01*
X192975Y36273D01*
Y34940D01*
X192308Y34273D01*
X202941Y-219326D02*
X200275D01*
Y-221326D01*
X201608D01*
X200275D01*
Y-223325D01*
X206939D02*
X204274D01*
X206939Y-220659D01*
Y-219993D01*
X206273Y-219326D01*
X204940D01*
X204274Y-219993D01*
X6975Y-77926D02*
Y-81259D01*
X7641Y-81925D01*
X8974D01*
X9641Y-81259D01*
Y-77926D01*
X10973Y-81925D02*
X12306D01*
X11640D01*
Y-77926D01*
X10973Y-78593D01*
X14306D02*
X14972Y-77926D01*
X16305D01*
X16972Y-78593D01*
Y-81259D01*
X16305Y-81925D01*
X14972D01*
X14306Y-81259D01*
Y-78593D01*
X-86400Y-42501D02*
X-83734Y-46500D01*
Y-42501D02*
X-86400Y-46500D01*
X-79735D02*
X-82401D01*
X-79735Y-43834D01*
Y-43168D01*
X-80402Y-42501D01*
X-81735D01*
X-82401Y-43168D01*
X-80659Y15207D02*
X-81326Y15874D01*
X-82659D01*
X-83325Y15207D01*
Y14541D01*
X-82659Y13874D01*
X-81326D01*
X-80659Y13208D01*
Y12541D01*
X-81326Y11875D01*
X-82659D01*
X-83325Y12541D01*
X-79326Y11875D02*
X-77994D01*
X-78660D01*
Y15874D01*
X-79326Y15207D01*
X186966Y-188233D02*
Y-185568D01*
X186299Y-184901D01*
X184967D01*
X184300Y-185568D01*
Y-188233D01*
X184967Y-188900D01*
X186299D01*
X185633Y-187567D02*
X186966Y-188900D01*
X186299D02*
X186966Y-188233D01*
X188299Y-188900D02*
X189632D01*
X188965D01*
Y-184901D01*
X188299Y-185568D01*
X211441Y-57634D02*
Y-54968D01*
X210774Y-54301D01*
X209441D01*
X208775Y-54968D01*
Y-57634D01*
X209441Y-58300D01*
X210774D01*
X210108Y-56967D02*
X211441Y-58300D01*
X210774D02*
X211441Y-57634D01*
X215439Y-58300D02*
X212773D01*
X215439Y-55634D01*
Y-54968D01*
X214773Y-54301D01*
X213440D01*
X212773Y-54968D01*
X-28000Y-38801D02*
Y-42134D01*
X-27334Y-42800D01*
X-26001D01*
X-25334Y-42134D01*
Y-38801D01*
X-24001Y-42800D02*
X-22668D01*
X-23335D01*
Y-38801D01*
X-24001Y-39468D01*
X291041Y21073D02*
X289708D01*
X290374D01*
Y17741D01*
X289708Y17075D01*
X289041D01*
X288375Y17741D01*
X292373Y17075D02*
X293706D01*
X293040D01*
Y21073D01*
X292373Y20407D01*
X217175Y22873D02*
Y19541D01*
X217841Y18875D01*
X219174D01*
X219841Y19541D01*
Y22873D01*
X221174Y22207D02*
X221840Y22873D01*
X223173D01*
X223839Y22207D01*
Y21541D01*
X223173Y20874D01*
X222506D01*
X223173D01*
X223839Y20208D01*
Y19541D01*
X223173Y18875D01*
X221840D01*
X221174Y19541D01*
X238875Y-5426D02*
Y-9425D01*
X240874D01*
X241541Y-8759D01*
Y-8092D01*
X240874Y-7426D01*
X238875D01*
X240874D01*
X241541Y-6759D01*
Y-6093D01*
X240874Y-5426D01*
X238875D01*
X245539D02*
X242874D01*
Y-9425D01*
X245539D01*
X242874Y-7426D02*
X244206D01*
X246872Y-5426D02*
Y-9425D01*
X248872D01*
X249538Y-8759D01*
Y-6093D01*
X248872Y-5426D01*
X246872D01*
X-54334Y20299D02*
X-57000D01*
Y18299D01*
X-55667Y18966D01*
X-55001D01*
X-54334Y18299D01*
Y16966D01*
X-55001Y16300D01*
X-56334D01*
X-57000Y16966D01*
X-53001Y20299D02*
Y17633D01*
X-51668Y16300D01*
X-50336Y17633D01*
Y20299D01*
X-70827Y-102267D02*
Y-105266D01*
X-70227Y-105866D01*
X-69027D01*
X-68427Y-105266D01*
Y-102267D01*
X-67228Y-105866D02*
X-66028D01*
X-66628D01*
Y-102267D01*
X-67228D01*
X-63629Y-102867D02*
Y-103467D01*
X-64229D01*
X-63029D01*
X-63629D01*
Y-105266D01*
X-63029Y-105866D01*
X-61230D02*
X-60030D01*
X-60630D01*
Y-103467D01*
X-61230D01*
X-58231Y-105866D02*
Y-102267D01*
X-57031Y-103467D01*
X-55832Y-102267D01*
Y-105866D01*
X-54032Y-103467D02*
X-52833D01*
X-52233Y-104067D01*
Y-105866D01*
X-54032D01*
X-54632Y-105266D01*
X-54032Y-104666D01*
X-52233D01*
X-48634Y-103467D02*
X-50433D01*
X-51033Y-104067D01*
Y-105266D01*
X-50433Y-105866D01*
X-48634D01*
X-47434Y-102267D02*
Y-105866D01*
Y-104067D01*
X-46834Y-103467D01*
X-45635D01*
X-45035Y-104067D01*
Y-105866D01*
X-43835D02*
X-42636D01*
X-43236D01*
Y-103467D01*
X-43835D01*
X-40837Y-105866D02*
Y-103467D01*
X-39037D01*
X-38437Y-104067D01*
Y-105866D01*
X-35438D02*
X-36638D01*
X-37238Y-105266D01*
Y-104067D01*
X-36638Y-103467D01*
X-35438D01*
X-34838Y-104067D01*
Y-104666D01*
X-37238D01*
X171741Y-115427D02*
X169075D01*
Y-119425D01*
X171741D01*
X169075Y-117426D02*
X170408D01*
X173073Y-115427D02*
X175739Y-119425D01*
Y-115427D02*
X173073Y-119425D01*
X177072Y-115427D02*
X179738D01*
X178405D01*
Y-119425D01*
X181071D02*
Y-115427D01*
X183070D01*
X183737Y-116093D01*
Y-117426D01*
X183070Y-118092D01*
X181071D01*
X182404D02*
X183737Y-119425D01*
X185070Y-115427D02*
Y-118759D01*
X185736Y-119425D01*
X187069D01*
X187735Y-118759D01*
Y-115427D01*
X189068D02*
Y-119425D01*
X191068D01*
X191734Y-118759D01*
Y-116093D01*
X191068Y-115427D01*
X189068D01*
X195733D02*
X193067D01*
Y-119425D01*
X195733D01*
X193067Y-117426D02*
X194400D01*
X197066Y-119425D02*
Y-115427D01*
X199065D01*
X199732Y-116093D01*
Y-117426D01*
X199065Y-118092D01*
X197066D01*
X198399D02*
X199732Y-119425D01*
X156766Y-219001D02*
X155433D01*
X156099D01*
Y-222334D01*
X155433Y-223000D01*
X154766D01*
X154100Y-222334D01*
X158099Y-223000D02*
X159432D01*
X158765D01*
Y-219001D01*
X158099Y-219668D01*
X164097Y-223000D02*
X161431D01*
X164097Y-220334D01*
Y-219668D01*
X163430Y-219001D01*
X162097D01*
X161431Y-219668D01*
X54280Y-163797D02*
X52947D01*
X53614D01*
Y-167129D01*
X52947Y-167795D01*
X52281D01*
X51614Y-167129D01*
X55613Y-167795D02*
X56946D01*
X56279D01*
Y-163797D01*
X55613Y-164463D01*
X58945Y-167795D02*
X60278D01*
X59612D01*
Y-163797D01*
X58945Y-164463D01*
X53768Y-158324D02*
X52435D01*
X53102D01*
Y-161656D01*
X52435Y-162323D01*
X51769D01*
X51102Y-161656D01*
X55101Y-162323D02*
X56434D01*
X55768D01*
Y-158324D01*
X55101Y-158991D01*
X58433D02*
X59100Y-158324D01*
X60433D01*
X61099Y-158991D01*
Y-161656D01*
X60433Y-162323D01*
X59100D01*
X58433Y-161656D01*
Y-158991D01*
X4366Y-196601D02*
X3033D01*
X3699D01*
Y-199934D01*
X3033Y-200600D01*
X2366D01*
X1700Y-199934D01*
X5699D02*
X6365Y-200600D01*
X7698D01*
X8365Y-199934D01*
Y-197268D01*
X7698Y-196601D01*
X6365D01*
X5699Y-197268D01*
Y-197934D01*
X6365Y-198601D01*
X8365D01*
X-55734Y-219801D02*
X-57067D01*
X-56401D01*
Y-223134D01*
X-57067Y-223800D01*
X-57734D01*
X-58400Y-223134D01*
X-54401Y-220468D02*
X-53735Y-219801D01*
X-52402D01*
X-51736Y-220468D01*
Y-221134D01*
X-52402Y-221801D01*
X-51736Y-222467D01*
Y-223134D01*
X-52402Y-223800D01*
X-53735D01*
X-54401Y-223134D01*
Y-222467D01*
X-53735Y-221801D01*
X-54401Y-221134D01*
Y-220468D01*
X-53735Y-221801D02*
X-52402D01*
X227441Y-26059D02*
Y-23393D01*
X226774Y-22727D01*
X225441D01*
X224775Y-23393D01*
Y-26059D01*
X225441Y-26725D01*
X226774D01*
X226108Y-25392D02*
X227441Y-26725D01*
X226774D02*
X227441Y-26059D01*
X231439Y-22727D02*
X228773D01*
Y-24726D01*
X230106Y-24059D01*
X230773D01*
X231439Y-24726D01*
Y-26059D01*
X230773Y-26725D01*
X229440D01*
X228773Y-26059D01*
X248866Y-38601D02*
X246200D01*
Y-40601D01*
X247533D01*
X246200D01*
Y-42600D01*
X250199Y-39268D02*
X250865Y-38601D01*
X252198D01*
X252865Y-39268D01*
Y-39934D01*
X252198Y-40601D01*
X251532D01*
X252198D01*
X252865Y-41267D01*
Y-41934D01*
X252198Y-42600D01*
X250865D01*
X250199Y-41934D01*
X75315Y-27598D02*
X71316D01*
Y-25599D01*
X71983Y-24933D01*
X73316D01*
X73982Y-25599D01*
Y-27598D01*
X75315Y-20934D02*
Y-23600D01*
X72649Y-20934D01*
X71983D01*
X71316Y-21600D01*
Y-22933D01*
X71983Y-23600D01*
X290741Y51473D02*
X289408D01*
X290074D01*
Y48141D01*
X289408Y47475D01*
X288741D01*
X288075Y48141D01*
X292073Y47475D02*
X293406D01*
X292740D01*
Y51473D01*
X292073Y50807D01*
X298072Y51473D02*
X296739Y50807D01*
X295406Y49474D01*
Y48141D01*
X296072Y47475D01*
X297405D01*
X298072Y48141D01*
Y48808D01*
X297405Y49474D01*
X295406D01*
X269041Y-218927D02*
X266375D01*
Y-220926D01*
X267708D01*
X266375D01*
Y-222925D01*
X270374D02*
X271706D01*
X271040D01*
Y-218927D01*
X270374Y-219593D01*
G54D26*
X-52525Y-11948D02*
Y-7225D01*
X-49350Y-11948D02*
Y-7225D01*
X209208Y-99386D02*
Y-71806D01*
X234803Y-99386D02*
Y-71806D01*
X-1098Y-34296D02*
Y-28343D01*
X11205Y-34296D02*
Y-28343D01*
X-40008Y-27813D02*
Y-23090D01*
X-43183Y-27813D02*
Y-23090D01*
G54D27*
X203146Y33280D02*
D03*
X202404Y-106931D02*
D03*
X196977Y-198466D02*
D03*
X196885Y-210448D02*
D03*
G54D28*
X221961Y-91420D02*
D03*
G54D29*
X202413Y-81325D02*
D03*
X10709Y-51876D02*
D03*
X5890Y-65243D02*
D03*
X195538Y-66800D02*
D03*
X255438Y-35001D02*
D03*
G54D30*
X207175Y-81325D02*
D03*
X5947Y-51876D02*
D03*
X10652Y-65243D02*
D03*
X200300Y-66800D02*
D03*
X260200Y-35001D02*
D03*
G54D31*
X204780Y-81325D02*
D03*
X8342Y-51876D02*
D03*
X8257Y-65243D02*
D03*
X197905Y-66800D02*
D03*
X257805Y-35001D02*
D03*
G54D32*
X114349Y-162839D02*
D03*
X-71789Y-159239D02*
D03*
X-27051Y-162839D02*
D03*
X17949D02*
D03*
G54D33*
X123995Y-173942D02*
D03*
Y-151698D02*
D03*
X-62143Y-148098D02*
D03*
Y-170342D02*
D03*
X-17405Y-151698D02*
D03*
Y-173942D02*
D03*
X27595Y-151698D02*
D03*
Y-173942D02*
D03*
G54D34*
X133621Y-162820D02*
D03*
X-52517Y-159220D02*
D03*
X-7779Y-162820D02*
D03*
X37220D02*
D03*
G54D35*
X-8945Y-61300D02*
D03*
G54D36*
X169Y-52186D02*
D03*
G54D37*
X-8945Y-43131D02*
D03*
G54D38*
X-18039Y-52186D02*
D03*
G54D39*
X-77025Y-26720D02*
D03*
Y-34720D02*
D03*
X188675Y-160232D02*
D03*
G54D40*
X-77025Y-24325D02*
D03*
Y-32325D02*
D03*
X188675Y-162627D02*
D03*
G54D41*
X-77025Y-29087D02*
D03*
Y-37087D02*
D03*
X188675Y-157865D02*
D03*
G54D42*
X260796Y-17827D02*
D03*
M02*
