G04 Layer_Physical_Order=2*
G04 Layer_Color=32768*
%FSLAX25Y25*%
%MOIN*%
G70*
G01*
G75*
%ADD60C,0.01000*%
%ADD65C,0.04000*%
%ADD67C,0.02400*%
%ADD98C,0.06400*%
%ADD99C,0.05943*%
G04:AMPARAMS|DCode=100|XSize=95.433mil|YSize=95.433mil|CornerRadius=0mil|HoleSize=0mil|Usage=FLASHONLY|Rotation=0.000|XOffset=0mil|YOffset=0mil|HoleType=Round|Shape=Relief|Width=10mil|Gap=10mil|Entries=4|*
%AMTHD100*
7,0,0,0.09543,0.07543,0.01000,45*
%
%ADD100THD100*%
%ADD101C,0.08700*%
%ADD102C,0.07900*%
%ADD103C,0.03900*%
%ADD104C,0.14211*%
G04:AMPARAMS|DCode=105|XSize=100mil|YSize=100mil|CornerRadius=0mil|HoleSize=0mil|Usage=FLASHONLY|Rotation=0.000|XOffset=0mil|YOffset=0mil|HoleType=Round|Shape=Relief|Width=10mil|Gap=10mil|Entries=4|*
%AMTHD105*
7,0,0,0.10000,0.08000,0.01000,45*
%
%ADD105THD105*%
%ADD106C,0.08300*%
%ADD107C,0.11100*%
G04:AMPARAMS|DCode=108|XSize=98mil|YSize=98mil|CornerRadius=0mil|HoleSize=0mil|Usage=FLASHONLY|Rotation=0.000|XOffset=0mil|YOffset=0mil|HoleType=Round|Shape=Relief|Width=10mil|Gap=10mil|Entries=4|*
%AMTHD108*
7,0,0,0.09800,0.07800,0.01000,45*
%
%ADD108THD108*%
%ADD109C,0.06200*%
%ADD110C,0.09400*%
G04:AMPARAMS|DCode=111|XSize=130mil|YSize=130mil|CornerRadius=0mil|HoleSize=0mil|Usage=FLASHONLY|Rotation=0.000|XOffset=0mil|YOffset=0mil|HoleType=Round|Shape=Relief|Width=10mil|Gap=10mil|Entries=4|*
%AMTHD111*
7,0,0,0.13000,0.11000,0.01000,45*
%
%ADD111THD111*%
%ADD112C,0.03400*%
%ADD113C,0.05200*%
G54D60*
X49600Y214600D02*
X80400D01*
X85352Y209648D01*
Y198746D02*
Y209648D01*
Y198746D02*
X101206D01*
X25Y115872D02*
X89887D01*
X95399Y121384D01*
Y146679D01*
X101206Y152486D01*
Y198746D01*
X41856Y206856D02*
X49600Y214600D01*
X41856Y185600D02*
Y206856D01*
X25Y185600D02*
X41856D01*
X114164Y307497D02*
X107500D01*
Y297500D01*
X114164D01*
X107500Y302498D02*
X110832D01*
X117497Y307497D02*
X120829D01*
X119163D01*
Y297500D01*
X117497D01*
X120829D01*
X125827D02*
Y307497D01*
X132492Y297500D01*
Y307497D01*
X135824D02*
Y305831D01*
X139156Y302498D01*
X142489Y305831D01*
Y307497D01*
X139156Y302498D02*
Y297500D01*
X155818Y305831D02*
X157484Y307497D01*
X160816D01*
X162482Y305831D01*
Y299166D01*
X160816Y297500D01*
X157484D01*
X155818Y299166D01*
Y305831D01*
X165814Y297500D02*
Y299166D01*
X167481D01*
Y297500D01*
X165814D01*
X180810D02*
X174145D01*
X180810Y304165D01*
Y305831D01*
X179144Y307497D01*
X175811D01*
X174145Y305831D01*
X185808Y304165D02*
X189140D01*
X190806Y302498D01*
Y297500D01*
X185808D01*
X184142Y299166D01*
X185808Y300832D01*
X190806D01*
X114164Y335831D02*
X112498Y337497D01*
X109166D01*
X107500Y335831D01*
Y329166D01*
X109166Y327500D01*
X112498D01*
X114164Y329166D01*
Y332498D01*
X110832D01*
X117497Y327500D02*
Y337497D01*
X124161Y327500D01*
Y337497D01*
X127494D02*
Y327500D01*
X132492D01*
X134158Y329166D01*
Y335831D01*
X132492Y337497D01*
X127494D01*
X147487Y327500D02*
Y337497D01*
X152486D01*
X154152Y335831D01*
Y332498D01*
X152486Y330832D01*
X147487D01*
X157484Y337497D02*
Y327500D01*
X164148D01*
X167481D02*
Y334165D01*
X170813Y337497D01*
X174145Y334165D01*
Y327500D01*
Y332498D01*
X167481D01*
X177477Y327500D02*
Y337497D01*
X184142Y327500D01*
Y337497D01*
X194139D02*
X187474D01*
Y327500D01*
X194139D01*
X187474Y332498D02*
X190806D01*
X107500Y322497D02*
Y312500D01*
X114164D01*
X117497D02*
Y319164D01*
X120829Y322497D01*
X124161Y319164D01*
Y312500D01*
Y317498D01*
X117497D01*
X127494Y322497D02*
Y320831D01*
X130826Y317498D01*
X134158Y320831D01*
Y322497D01*
X130826Y317498D02*
Y312500D01*
X144155Y322497D02*
X137490D01*
Y312500D01*
X144155D01*
X137490Y317498D02*
X140823D01*
X147487Y312500D02*
Y322497D01*
X152486D01*
X154152Y320831D01*
Y317498D01*
X152486Y315832D01*
X147487D01*
X150819D02*
X154152Y312500D01*
X174145D02*
X167481D01*
X174145Y319164D01*
Y320831D01*
X172479Y322497D01*
X169147D01*
X167481Y320831D01*
G54D65*
X25Y25D02*
X413411D01*
Y279553D01*
X25D02*
X413411D01*
X25Y25D02*
Y279553D01*
G54D67*
X219100Y42800D02*
Y45000D01*
G54D98*
X261000Y163700D02*
D03*
Y173700D02*
D03*
Y183700D02*
D03*
X231600Y15813D02*
D03*
X221600D02*
D03*
X211600D02*
D03*
X201600D02*
D03*
X180379Y43332D02*
D03*
X170379D02*
D03*
X160380D02*
D03*
X150380D02*
D03*
X180379Y15773D02*
D03*
X170379D02*
D03*
X160380D02*
D03*
X150380D02*
D03*
X10873Y229398D02*
D03*
X147820Y259868D02*
D03*
X127821D02*
D03*
X86482D02*
D03*
X106482D02*
D03*
X65143D02*
D03*
X45143D02*
D03*
X236639Y173765D02*
D03*
Y142663D02*
D03*
X251500Y215300D02*
D03*
X129198Y15773D02*
D03*
X119198D02*
D03*
X109198D02*
D03*
X99198D02*
D03*
X106482Y236246D02*
D03*
X86482D02*
D03*
X127821D02*
D03*
X147820D02*
D03*
X65143D02*
D03*
X45143D02*
D03*
X236639Y111561D02*
D03*
X78017Y15773D02*
D03*
X68017D02*
D03*
X58017D02*
D03*
X48017D02*
D03*
X403667Y42151D02*
D03*
X260900Y122100D02*
D03*
Y132100D02*
D03*
Y142100D02*
D03*
G54D99*
X179000Y218500D02*
D03*
X189000D02*
D03*
Y228500D02*
D03*
X199000Y218500D02*
D03*
Y228500D02*
D03*
X209000Y218500D02*
D03*
Y228500D02*
D03*
X219000Y218500D02*
D03*
Y228500D02*
D03*
X179000Y256000D02*
D03*
X189000D02*
D03*
Y266000D02*
D03*
X199000Y256000D02*
D03*
Y266000D02*
D03*
X209000Y256000D02*
D03*
Y266000D02*
D03*
X219000Y256000D02*
D03*
Y266000D02*
D03*
X255569Y232171D02*
D03*
X245568D02*
D03*
X255569Y242171D02*
D03*
Y252171D02*
D03*
X245568D02*
D03*
Y262171D02*
D03*
X255569Y272171D02*
D03*
X245568D02*
D03*
G54D100*
X179000Y228500D02*
D03*
Y266000D02*
D03*
X245568Y242171D02*
D03*
X255569Y262171D02*
D03*
G54D101*
X333600Y115400D02*
D03*
X347000D02*
D03*
Y168400D02*
D03*
X333600D02*
D03*
X317495Y14139D02*
D03*
X304095D02*
D03*
Y67139D02*
D03*
X317495D02*
D03*
X346500Y67100D02*
D03*
X333100D02*
D03*
Y14100D02*
D03*
X346500D02*
D03*
G54D102*
X262700Y96100D02*
D03*
X282700D02*
D03*
G54D103*
X386726Y12710D02*
D03*
X400726D02*
D03*
Y26710D02*
D03*
X386726D02*
D03*
X383726Y19710D02*
D03*
X403726D02*
D03*
X393726Y29710D02*
D03*
Y9710D02*
D03*
X12710Y12710D02*
D03*
X26710D02*
D03*
Y26710D02*
D03*
X12710D02*
D03*
X9710Y19710D02*
D03*
X29710D02*
D03*
X19710Y29710D02*
D03*
Y9710D02*
D03*
X12710Y252868D02*
D03*
X26710D02*
D03*
Y266868D02*
D03*
X12710D02*
D03*
X9710Y259868D02*
D03*
X29710D02*
D03*
X19710Y269868D02*
D03*
Y249868D02*
D03*
X386726Y252868D02*
D03*
X400726D02*
D03*
Y266868D02*
D03*
X386726D02*
D03*
X383726Y259868D02*
D03*
X403726D02*
D03*
X393726Y269868D02*
D03*
Y249868D02*
D03*
X276800Y126200D02*
D03*
X284500Y206900D02*
D03*
X221000Y111800D02*
D03*
X237400Y201100D02*
D03*
X201900Y151900D02*
D03*
X208600Y143000D02*
D03*
X295300Y159900D02*
D03*
X297900Y123500D02*
D03*
X214400Y166400D02*
D03*
X326700Y222100D02*
D03*
X330500D02*
D03*
X256900Y76500D02*
D03*
X247100D02*
D03*
X256900Y71500D02*
D03*
X256800Y83900D02*
D03*
X139592Y153568D02*
D03*
X273681Y50768D02*
D03*
X269681D02*
D03*
X277681D02*
D03*
X281681D02*
D03*
Y46768D02*
D03*
Y42768D02*
D03*
X277681D02*
D03*
Y46768D02*
D03*
X273681D02*
D03*
Y42768D02*
D03*
X269681D02*
D03*
Y46768D02*
D03*
Y54768D02*
D03*
Y58768D02*
D03*
X273681D02*
D03*
Y54768D02*
D03*
X277681D02*
D03*
Y58768D02*
D03*
X281681D02*
D03*
Y54768D02*
D03*
X318213Y182877D02*
D03*
X322213D02*
D03*
Y186877D02*
D03*
X318213D02*
D03*
Y190877D02*
D03*
X322213D02*
D03*
Y194877D02*
D03*
X318213D02*
D03*
X310213D02*
D03*
X306213D02*
D03*
Y190877D02*
D03*
X310213D02*
D03*
Y186877D02*
D03*
X306213D02*
D03*
Y182877D02*
D03*
X310213D02*
D03*
X314213D02*
D03*
Y186877D02*
D03*
Y194877D02*
D03*
Y190877D02*
D03*
X351600Y196600D02*
D03*
X331600Y181600D02*
D03*
Y191600D02*
D03*
X341600D02*
D03*
Y201600D02*
D03*
Y211600D02*
D03*
X331600D02*
D03*
Y201600D02*
D03*
X321600D02*
D03*
Y211600D02*
D03*
X311600D02*
D03*
Y201600D02*
D03*
X301600D02*
D03*
X304400Y23500D02*
D03*
X310700Y14200D02*
D03*
X247100Y71600D02*
D03*
X327400Y14100D02*
D03*
X333000Y23500D02*
D03*
X346500Y22200D02*
D03*
X340000Y14100D02*
D03*
X357167Y17790D02*
D03*
X366500Y22700D02*
D03*
X360700Y22600D02*
D03*
X347900Y35500D02*
D03*
X333200Y47800D02*
D03*
X336700Y37600D02*
D03*
X333500Y57300D02*
D03*
X346200Y56900D02*
D03*
X339900Y67100D02*
D03*
X339700Y74600D02*
D03*
X377100Y36700D02*
D03*
X363700Y27700D02*
D03*
X357200Y33900D02*
D03*
X363700Y39800D02*
D03*
X374800Y58500D02*
D03*
X357000Y54100D02*
D03*
X365600Y49000D02*
D03*
X365400Y68100D02*
D03*
X379200Y63500D02*
D03*
X362500Y79800D02*
D03*
X352500Y85400D02*
D03*
X353000Y79700D02*
D03*
X353400Y89200D02*
D03*
X315000Y45100D02*
D03*
X317800Y77300D02*
D03*
X322700Y75600D02*
D03*
X326600Y79400D02*
D03*
X325600Y85400D02*
D03*
X326700Y91400D02*
D03*
X317400Y57400D02*
D03*
X310200Y58900D02*
D03*
X304400Y77400D02*
D03*
X310900Y67300D02*
D03*
X363700Y105100D02*
D03*
X342500Y131600D02*
D03*
X381200Y117900D02*
D03*
X365300Y113500D02*
D03*
X356100Y123300D02*
D03*
X365400Y132500D02*
D03*
X374500Y123600D02*
D03*
X379000Y128800D02*
D03*
X379200Y106800D02*
D03*
X346900Y104900D02*
D03*
X355300Y115500D02*
D03*
X346900Y125500D02*
D03*
X336000D02*
D03*
X340200Y115200D02*
D03*
X333700Y105100D02*
D03*
X326400Y115300D02*
D03*
X373300Y179700D02*
D03*
X357100Y179600D02*
D03*
X372000Y166800D02*
D03*
X381600Y177500D02*
D03*
X381700Y185300D02*
D03*
X375000Y188300D02*
D03*
X365400Y198200D02*
D03*
Y179100D02*
D03*
X354300Y168400D02*
D03*
X340400Y175500D02*
D03*
X340300Y168300D02*
D03*
X347100Y156500D02*
D03*
X333600Y156400D02*
D03*
X328000Y159000D02*
D03*
X326500Y168300D02*
D03*
X262600Y215261D02*
D03*
X35600Y206400D02*
D03*
X98000Y212300D02*
D03*
X178400Y246700D02*
D03*
X177900Y242200D02*
D03*
X105100Y188200D02*
D03*
X109700Y26400D02*
D03*
X214300Y102700D02*
D03*
X227000Y27200D02*
D03*
X179342Y84715D02*
D03*
X162019Y84715D02*
D03*
X218100Y119600D02*
D03*
X149500Y116400D02*
D03*
X155400D02*
D03*
X219800Y242200D02*
D03*
X223100Y244700D02*
D03*
X81300Y156300D02*
D03*
X84500Y158700D02*
D03*
X215700Y26400D02*
D03*
X116300D02*
D03*
X76300Y189200D02*
D03*
X45400Y195300D02*
D03*
X74600Y239100D02*
D03*
X146088Y149927D02*
D03*
X163737Y131226D02*
D03*
X172466Y176403D02*
D03*
X169710Y132309D02*
D03*
X174435Y129159D02*
D03*
X175222Y139788D02*
D03*
X175222Y144907D02*
D03*
X175215Y179862D02*
D03*
X339100Y252600D02*
D03*
X329556Y264523D02*
D03*
X188608Y147958D02*
D03*
X82702Y193332D02*
D03*
X109179Y183982D02*
D03*
X67643Y156915D02*
D03*
X57112Y127387D02*
D03*
X146482Y167742D02*
D03*
X142754Y171593D02*
D03*
X186738Y141167D02*
D03*
X135261Y183982D02*
D03*
X184080Y146679D02*
D03*
X124238Y174336D02*
D03*
X85360Y196088D02*
D03*
X180129Y72117D02*
D03*
X92849Y159191D02*
D03*
X96370Y186316D02*
D03*
X82013Y125714D02*
D03*
X50419Y207505D02*
D03*
X92840Y173647D02*
D03*
X126009Y178372D02*
D03*
X119710Y126403D02*
D03*
X116600Y129700D02*
D03*
X209489Y191743D02*
D03*
X149139Y154946D02*
D03*
X137426Y175222D02*
D03*
X137033Y168135D02*
D03*
X142151Y164986D02*
D03*
X149041Y162820D02*
D03*
X164113Y176810D02*
D03*
X141126Y175199D02*
D03*
X158490Y132309D02*
D03*
X145793Y158687D02*
D03*
X81817Y142939D02*
D03*
X85600Y134600D02*
D03*
X84700Y147500D02*
D03*
X51600Y165900D02*
D03*
X48800Y173100D02*
D03*
X193900Y23200D02*
D03*
X100700Y26300D02*
D03*
X230439Y249632D02*
D03*
X300500Y194900D02*
D03*
X140872Y159671D02*
D03*
X297300Y10000D02*
D03*
Y18500D02*
D03*
X288000Y8400D02*
D03*
X292800D02*
D03*
X297300Y14200D02*
D03*
X262600Y28572D02*
D03*
X253200Y28472D02*
D03*
X262700Y34372D02*
D03*
X253200Y34472D02*
D03*
X253300Y39472D02*
D03*
X262600Y39672D02*
D03*
X365300Y211200D02*
D03*
X356300Y221000D02*
D03*
X365300Y230800D02*
D03*
X247100Y66400D02*
D03*
X256900D02*
D03*
X241100Y98800D02*
D03*
X171600Y216200D02*
D03*
X222500Y208200D02*
D03*
X226300D02*
D03*
X115600Y136300D02*
D03*
X119100Y143700D02*
D03*
X142582Y138835D02*
D03*
X142600Y144800D02*
D03*
X146600D02*
D03*
X124741Y148462D02*
D03*
X146900Y138800D02*
D03*
X146700Y131400D02*
D03*
X205000Y135600D02*
D03*
X200300Y197900D02*
D03*
X172660Y192207D02*
D03*
X294300Y227600D02*
D03*
X296800Y230000D02*
D03*
Y225300D02*
D03*
X273600Y197600D02*
D03*
X124741Y138226D02*
D03*
X158500Y128300D02*
D03*
X217200Y114000D02*
D03*
X201400Y132100D02*
D03*
X204800Y129900D02*
D03*
X225400Y180600D02*
D03*
X274100Y156900D02*
D03*
X218500Y167600D02*
D03*
X221900Y128000D02*
D03*
X220800Y136900D02*
D03*
X221600Y145600D02*
D03*
X223000Y149500D02*
D03*
X276200Y139400D02*
D03*
X279900Y142800D02*
D03*
X285700D02*
D03*
X284400Y203000D02*
D03*
G54D104*
X393726Y19710D02*
D03*
X19710D02*
D03*
Y259868D02*
D03*
X393726D02*
D03*
G54D105*
X10873Y211598D02*
D03*
X137820Y259868D02*
D03*
X96482D02*
D03*
X55143D02*
D03*
X236639Y183765D02*
D03*
Y152663D02*
D03*
X251500Y205300D02*
D03*
X96482Y236246D02*
D03*
X137820D02*
D03*
X55143D02*
D03*
X236639Y121561D02*
D03*
G54D106*
X20673Y234298D02*
D03*
Y206698D02*
D03*
G54D107*
X27584Y129868D02*
D03*
Y177190D02*
D03*
G54D108*
X38284Y148568D02*
D03*
X135813Y208356D02*
D03*
X78553D02*
D03*
G54D109*
X38284Y158490D02*
D03*
X46184D02*
D03*
Y148568D02*
D03*
X115813Y198356D02*
D03*
Y208356D02*
D03*
X125813Y198356D02*
D03*
Y208356D02*
D03*
X135813Y198356D02*
D03*
X58553D02*
D03*
Y208356D02*
D03*
X68553Y198356D02*
D03*
Y208356D02*
D03*
X78553Y198356D02*
D03*
G54D110*
X365300Y58550D02*
D03*
Y123550D02*
D03*
Y188550D02*
D03*
Y221050D02*
D03*
G54D111*
Y91050D02*
D03*
Y156050D02*
D03*
G54D112*
X191430Y197900D02*
D03*
X142800Y224000D02*
D03*
X90900Y209100D02*
D03*
X91900Y203800D02*
D03*
X141800Y214900D02*
D03*
X106100Y211400D02*
D03*
Y205700D02*
D03*
X73600Y223300D02*
D03*
X152100Y215700D02*
D03*
X155800D02*
D03*
X133400Y217400D02*
D03*
X117800Y224400D02*
D03*
X122800Y213700D02*
D03*
X159179Y215379D02*
D03*
X179900Y197800D02*
D03*
X185730Y197900D02*
D03*
X143200Y93800D02*
D03*
X63300Y80100D02*
D03*
X47900Y84900D02*
D03*
X219600Y90400D02*
D03*
X79000Y45400D02*
D03*
X129600Y48400D02*
D03*
X107900Y45300D02*
D03*
X105400D02*
D03*
X62500Y45200D02*
D03*
X59400Y45300D02*
D03*
X51600Y27200D02*
D03*
X65400Y26700D02*
D03*
X36700Y50100D02*
D03*
X36600Y46300D02*
D03*
X33300Y48100D02*
D03*
X168100Y59700D02*
D03*
X170400D02*
D03*
X185400Y92900D02*
D03*
X229150Y25250D02*
D03*
X218000Y24100D02*
D03*
X205400Y28000D02*
D03*
X219100Y42800D02*
D03*
X93693Y102068D02*
D03*
X92100Y105000D02*
D03*
X133828Y88200D02*
D03*
X94100Y88900D02*
D03*
X103100Y82100D02*
D03*
X108000Y80300D02*
D03*
X88300Y87600D02*
D03*
X150600Y69100D02*
D03*
X43400Y90300D02*
D03*
X78200Y88300D02*
D03*
X166400Y105400D02*
D03*
X199700Y99100D02*
D03*
X189800Y103800D02*
D03*
X196500D02*
D03*
X201100Y104000D02*
D03*
X230500Y87600D02*
D03*
X237700Y83200D02*
D03*
X223500Y45638D02*
D03*
X204200Y80300D02*
D03*
X127100Y45638D02*
D03*
X8700Y111800D02*
D03*
X176000Y105400D02*
D03*
X179500D02*
D03*
X182800Y108600D02*
D03*
X178300Y113500D02*
D03*
X53100Y57000D02*
D03*
Y52600D02*
D03*
X49600Y49900D02*
D03*
X74000Y84000D02*
D03*
X72700Y86000D02*
D03*
X98500Y49900D02*
D03*
X39100Y51600D02*
D03*
X32900Y90800D02*
D03*
X6300Y61700D02*
D03*
X83500Y48200D02*
D03*
X9800Y45300D02*
D03*
X7600D02*
D03*
X17200Y82100D02*
D03*
X26800Y87200D02*
D03*
X29000D02*
D03*
X207100Y26400D02*
D03*
X17200Y84300D02*
D03*
X119000Y84000D02*
D03*
X117700Y86000D02*
D03*
X106800Y78100D02*
D03*
X211500Y108700D02*
D03*
X206400D02*
D03*
X219500Y88000D02*
D03*
X139500Y82400D02*
D03*
X138100Y88200D02*
D03*
X135200Y113000D02*
D03*
X121300Y102300D02*
D03*
X94000Y54400D02*
D03*
X94500Y49700D02*
D03*
X126100Y114000D02*
D03*
X192900Y99000D02*
D03*
X99400Y96300D02*
D03*
X103200Y98300D02*
D03*
X95600Y98400D02*
D03*
X61700Y78300D02*
D03*
X58400Y93500D02*
D03*
X33700Y93100D02*
D03*
X127700Y119200D02*
D03*
X39700Y111100D02*
D03*
X46200Y109500D02*
D03*
X55200Y95000D02*
D03*
X52000Y95726D02*
D03*
X68700Y106700D02*
D03*
X79300Y90400D02*
D03*
X84500Y95300D02*
D03*
X72700Y100000D02*
D03*
X51600Y88800D02*
D03*
X61000Y84900D02*
D03*
X23900Y107600D02*
D03*
X21300Y109800D02*
D03*
X12800Y109100D02*
D03*
X40100Y95400D02*
D03*
X162200Y104100D02*
D03*
X219100Y45000D02*
D03*
X225406Y47806D02*
D03*
X202794Y78894D02*
D03*
X214600Y83900D02*
D03*
X215400Y86200D02*
D03*
X203800Y111800D02*
D03*
X277500Y111900D02*
D03*
X340400Y182200D02*
D03*
X353000Y203300D02*
D03*
X302500Y209200D02*
D03*
X351100Y211700D02*
D03*
X168500Y54600D02*
D03*
X166200Y56300D02*
D03*
X300100Y181700D02*
D03*
X172500Y105400D02*
D03*
G54D113*
X38017Y195891D02*
D03*
M02*
