M48
;Layer_Color=9474304
;FILE_FORMAT=4:4
METRIC,TZ
;TYPE=PLATED
T1F00S00C0.2000
T2F00S00C0.2540
T3F00S00C0.3810
T4F00S00C0.7112
T5F00S00C0.7620
T6F00S00C0.9000
T7F00S00C0.9652
T8F00S00C1.0160
T9F00S00C1.3970
T10F00S00C1.4986
T11F00S00C1.6002
T12F00S00C1.7780
T13F00S00C2.2098
;TYPE=NON_PLATED
T14F00S00C3.0000
%
T01
X169594Y140994
X180594
X191594
X283894
X294894
X305894
X528750
X539750
X550750
Y151994
Y162994
Y173994
X539750
X528750
Y162994
X539750
Y151994
X528750
X305894
X294894
X283894
Y162994
Y173994
X294894
Y162994
X305894
Y173994
X191594
Y162994
X180594
Y173994
X169594
Y162994
Y151994
X180594
X191594
X77960Y150138
Y161138
Y172138
Y183138
X66960
Y172138
X55960
Y183138
Y161138
X66960
Y150138
X55960
T02
X19304Y115062
X24892
X19304Y135382
X40386Y136906
X50038Y113792
Y105918
X81534Y92202
X96012Y87376
X92964Y117602
X93218Y127254
X99314Y131064
X90424Y137160
X84582Y122174
X125984Y126746
X134874Y133604
Y144780
X132080Y107188
X136398Y100076
X131064Y69088
X118618
X145034Y68834
X166116Y67818
X159258Y91694
X158750Y114808
X150876Y115062
X154020Y127762
X204058Y128016
X212090Y122428
X200660Y115316
X203962Y102362
X221234Y103378
X236474Y91440
X243332
X246380Y77724
X235966Y77470
X240030Y126238
X250190Y126746
X268986Y127096
X267716Y115062
X274066
X322834Y115920
X329184Y122936
X318358Y128016
X309626Y92710
X342646Y96774
X347218Y105156
X344678Y145796
X422148Y143002
X427990Y138684
X495046Y134620
X513842Y127096
X488950Y101854
Y95504
X521716Y71120
X526034Y67056
X534416Y67818
X326390Y67310
X238760Y138176
X563214Y128016
X572531Y121427
X567690Y115920
X556514Y114300
Y108712
X570484Y93980
X582041Y64135
X598678Y78740
X612140Y90678
X598678Y112268
X553720Y61214
X942594Y68580
X950214Y76708
X704850Y284226
X616712Y234188
X603758Y211328
X585470Y222504
X570738Y223266
X565912Y226822
X557784Y229616
X557530Y223520
X547116Y218948
X545084Y213106
X551434Y249174
X577342Y175895
X572516Y159027
X762254Y461518
X768350Y531368
X891794Y537718
X896620Y516382
X864616Y462788
X487680Y487934
X472694Y487680
X458216
X456946Y502412
X471754Y502666
X486232
X393268Y512318
X375666
X404114Y530860
X405638Y537210
X311912Y542798
X269494Y536956
Y522478
X233426Y517652
X230886Y531114
X233934Y266700
X237981Y259252
X242824Y249936
X252476Y244602
X262128Y249682
X281178Y261620
X287528
X308102Y259842
X298704Y230378
X293878Y225044
X298958Y218440
X302260Y213360
X320294Y230378
X331470Y221488
X334772Y216154
X339922Y224028
X350774
X354330Y209296
X366268Y216662
X363728Y238252
X362712Y176784
X382524Y175514
X399542Y158750
X426974Y151638
X432816
X475996Y162052
X476250Y190500
X515366Y188976
X515097Y200391
X518668Y203962
X514604Y223520
X517398Y243840
X507238Y251714
X510794Y264160
X499110Y263652
X482092
X489966Y251460
X470916Y235966
X464312Y275844
X455930Y267716
X447040
X438150
X422656
X411988Y264414
X452882Y288290
X483362Y284226
X517652Y283972
X524256Y276098
X537210
X532638Y257048
X343408Y287020
X320294Y289560
X324358Y302768
X332486Y175895
X327660Y159027
X270510Y188976
X271272Y198374
X274320Y203962
X261874Y208534
X239014Y225806
X224282Y222504
X211112Y223774
X211582Y229870
X201422Y229616
X198628Y224282
X184658Y218440
X187960Y213360
X154940Y215646
X160782Y203454
X156718Y198882
X156210Y188976
X148336Y237490
X166116Y263398
X166370Y269494
X174498Y271018
X184658Y254000
X192278Y249428
X198374Y249174
X214630Y242062
X218186Y175895
X213360Y159027
X99337Y168171
X104902Y185420
X121666Y215646
X131064Y225552
X132080Y243143
X140208Y241300
X101854Y242316
X96520Y235458
X94488Y229616
X83566Y230632
X85598Y236474
X73660Y221488
X68072
X43688Y214122
Y208534
X42926Y199644
X41656Y252476
X70866Y253238
X66294Y260350
X60706Y273304
X54102Y278892
X32512Y277114
X22098Y283972
X100838Y282194
X117348Y278130
X110236Y229362
X16002Y156718
X177368Y566750
X186944Y567182
X199212Y566852
X244094
X264160
X283210Y562610
Y552704
X299212Y569976
X332486Y568960
X347218Y562102
Y552196
X338836
X325374Y546354
X360172Y545846
X362712Y568960
X374650Y568198
X383032Y566928
X386334Y547878
X395732
X404314Y547062
T03
X32284Y32284
X24664Y50064
X32284Y67844
X50064Y75464
X67844Y67844
X75464Y50064
X67844Y32284
X50064Y24664
X255778Y66802
X278638Y67056
X295402
X492506Y58928
X501142Y67056
X510794Y66802
X547878Y67056
X562610
X576580Y69088
X643128Y72320
Y87560
X643382Y100260
X667004Y100768
X667258Y87306
X667004Y72574
X686054Y76200
Y66802
Y57404
X685824Y43726
Y34328
Y24930
X694690Y22098
X703580
X712470
X712978Y30988
X731520Y21336
X743712
X755142Y25400
Y36068
Y46990
X773176Y59690
X789178Y36068
X831596Y35814
X863600
X880110Y56388
X916178Y57404
X930910Y57658
X923798Y70358
X923798Y101092
X928624Y124460
X906780Y137414
X879348Y144526
X847090Y145542
X846328Y121412
X830326Y105918
X855218Y95504
X883666Y90170
X907288Y86106
X907204Y45186
X928878Y29972
X845820Y59690
X800100Y114554
X804672Y132588
X806196Y145796
X747660Y134950
Y122950
Y109950
X715470Y108630
Y118790
Y128950
X705310
X695150
X684990
Y118790
X695150
X705310
Y108630
X695150
X684990
Y139110
X695150
X705310
X715470
X668274Y135382
X652272Y129794
X653288Y118872
X653542Y143256
X626618Y143002
X628142Y130048
X627126Y119126
X641604Y48260
X643128Y35560
X641096Y24384
X668782
X667258Y35306
X668528Y48768
X711772Y60133
Y70799
X711772Y81466
X702772
X693772
X725170Y86868
X957834Y93218
X982284Y67844
X974664Y50064
X982284Y32284
X1000064Y24664
X1017844Y32284
X1025464Y50064
X1017844Y67844
X1000064Y75464
X951992Y148590
X963168Y161290
X952500Y231648
X963168Y271272
X968248Y299466
X951230Y313944
X962660Y327152
X950976Y396240
X944880Y423672
X948182Y456438
X952500Y478282
X969518Y470662
X969264Y450850
X1020572Y445516
X1020064Y522478
X927862Y536448
X928116Y503428
X893064Y499364
X867664Y486664
X842264
Y461264
X818422Y464508
X808262
Y474668
X818422
Y484828
X808262
Y494988
X818422
X816864Y512064
X842264
X867664
Y537464
X842264
X816864
X791464
Y512064
X787942Y494988
X777782
Y484828
X787942
Y474668
X777782
Y464508
X787942
X798102
Y474668
Y484828
Y494988
X763270Y495046
X766064Y512064
X722376Y515620
X722630Y525526
X693674Y537972
X694944Y501904
X722376Y470916
X741934Y468122
X728288Y443662
X768102Y440318
Y430318
X785102
X779102Y424318
X792102
X798102Y430318
X810102
X804102Y424318
X819658Y418338
X829310Y427482
X833120Y403860
X847344Y397256
X881634Y397510
X904748Y396494
X899922Y427736
X907034Y456184
X928116Y454914
X864616Y445770
X864362Y427482
X812038Y400304
X798017Y400740
X783433
X768850
X763016Y383794
X768350Y364490
X781350
X794350
X807350
X813562Y384048
X750062Y406146
X696214Y398526
X701548Y354076
X710946Y362712
X725678
X739140Y340360
X703580Y332232
X703072Y320548
X756666Y313690
X772922Y283718
X778510Y241808
X778256Y229108
X802386Y228854
X802132Y242316
X789940Y251460
X829818Y232156
X827024Y216916
X829564Y201676
X819658Y192024
X807212Y196342
X773176Y196596
X789686Y170942
X787908Y149606
X750315Y175007
X715470Y149270
X705310
X695150
X684990
X652526Y168656
Y181610
Y194310
X652272Y213106
X633476Y216408
X627634Y194310
Y181864
Y168656
X625094Y157226
X629666Y243078
X612394Y250952
X635508Y278638
X561340Y283972
X551688Y289560
X553974Y303784
X563626Y325120
Y336804
X560832Y347726
X562864Y369824
X566420Y379730
X566674Y391414
X554990Y425704
X544576Y422656
X572516Y458724
Y470154
X574802Y528828
X565150
X585470Y520192
X602996Y510794
X768102Y450318
X818896Y293740
X829056Y292862
X864108Y292608
X853440Y318770
X881126
X869950Y334264
X904494Y313182
X902462Y293370
X927862Y288290
X923798Y266954
X928116Y253492
X890016Y251206
X881126Y266446
X847598Y266954
X856234Y225806
X867664
X897636Y226568
X895350Y216916
X896620Y202438
X920750Y202692
X928116Y172974
X863346Y170434
X862838Y189484
X904240Y234442
X928116Y336550
X927862Y372872
X544322Y260858
X520192Y329946
X511556Y335534
X520700Y344424
X508508Y359664
X529844Y363220
X512826Y385826
X479064Y375814
X467564Y372564
X474314Y358564
X445063Y355063
X445064Y368064
X443064Y328064
X431064Y336064
X415892Y333314
X402564Y336064
X402590Y325882
X372618Y333756
X373126Y352552
X362158Y352640
X362204Y367792
X372364
X371064Y380814
X378814Y393564
X370314Y403064
X357814Y405564
X361064Y419064
X372064Y426064
X378564Y413564
X362594Y435848
X358461Y445005
X349063Y445063
X348063Y427063
X354564Y390064
X320206Y403064
X316842Y377095
X303064Y375064
X302514Y364998
X302260Y354838
X293624Y346202
X296164Y329438
X304064Y321064
X303638Y311490
X316842Y351093
X279188Y373940
X274064Y382814
X266064Y387064
X264440Y416514
X269564Y437814
X281990Y434064
X299064
X306064Y442064
X315564Y442814
X320064Y453064
X343564Y467314
X277314
X266954Y478028
X244780Y473243
X235814Y441064
X211684Y438404
X202184
X192734
X192612Y447995
X202184Y447904
X211684
Y428904
X202184
X192684Y428654
X196564Y396814
X206502Y397002
X214630Y403098
X235838Y404346
X215138Y374650
X207814Y363064
X208064Y353064
X217424Y341884
X208314Y319314
Y309564
X188314Y310814
X151314Y337814
X149314Y393064
X171814Y398564
X175564Y409314
X155314Y415814
X151564Y465064
X193802Y480568
X210064Y491064
X216814Y498064
X248920Y539242
X438848Y497993
X438556Y488206
X445045Y456848
X438063Y448063
X416847Y449098
X532064Y451064
Y438564
X536064Y428064
X542290Y404114
X532102Y487026
X508762Y502666
X419814Y295600
X394716Y295656
X379730
X388874Y269240
X397002
X412028Y228426
X411528Y215176
X411778Y202176
X430778Y200426
Y228176
X460311Y227449
X455528Y215176
X460528Y202176
X457528Y183176
X457708Y171196
X145064Y323564
X122814Y305064
X23814Y305564
X42814Y459814
X123952Y439674
X131064Y421386
X115316Y496062
X117564Y527314
X128064Y527064
X90424Y524256
X67564Y562864
X117932Y563194
X67844Y642284
X75464Y660064
X67844Y677844
X50064Y685464
X32284Y677844
X24664Y660064
X32284Y642284
X50064Y634664
X92964Y689864
X189484Y607314
X300482Y689610
X453136Y626618
X451866Y615188
X435864Y549148
X558292Y615188
X566674Y621538
X585314Y634064
X586486Y689610
X680720Y653796
X728599Y688086
X776478
X824357
X837072Y671888
X851916Y671576
X864764Y654714
X861314Y641604
X881634Y657098
X872236Y688086
X881634Y616585
Y576072
X905002Y561340
X927862Y586232
X871220Y547116
X849630Y563880
X839470Y564134
X829818
X823341Y547116
X785368
X793242Y572516
X802894Y571246
Y579628
Y588010
X805514Y597714
X815514
X825514
Y607714
Y617714
X815514
X805514
Y607714
X815514
X833882Y625856
X786892Y630174
X793242Y583946
X753872Y584200
Y572262
X747522Y578104
X667004Y546764
X616712Y565912
X982284Y642284
X974664Y660064
X982284Y677844
X1000064Y685464
X1017844Y677844
X1025464Y660064
X1017844Y642284
X1000064Y634664
T04
X96564Y497564
T05
X812454Y638960
X812546Y668020
T06
X454660Y554990
Y580390
X480060
Y554990
X505460
Y580390
X530860
Y554990
Y650240
X505460
X480060
X454660
Y675640
X480060
X505460
X530860
X556260
Y650240
Y580390
Y554990
X623744Y589714
X649144
Y615114
X623744
Y640514
X649144
Y665914
X623744
Y691314
X649144
T07
X148724Y503824
Y529224
X174124
Y503824
X199524
Y529224
X294164
Y503824
X319564
Y529224
X344964
Y503824
X117308Y402564
X97242
Y377364
X117308
T08
X121964Y40064
X147364
X172764
X198164
X251964
X277364
X302764
X328164
X381964
X407364
X432764
X458164
X512064Y40164
X537464
X458164Y110064
X432764
X407364
X381964
X562864Y40164
X588264
X1025314Y107064
X662686Y310134
Y335534
Y360934
X662940Y415798
Y441198
Y466598
X601064Y466764
Y441364
Y387764
Y362364
Y308764
Y283364
X638810Y521462
X27618Y537458
Y582670
X114664Y600064
X140064
Y660064
X114664
X165464
X219664
X245064
X270464
X324664
X350064
X375464
Y600064
X350064
X324664
X270464
X245064
X219664
X165464
X638810Y546862
T09
X667258Y244094
X718058
T10
X52510Y525012
Y595116
T11
X772402Y35914
X806438
X846074Y35814
X880110
Y170434
X846074
X806438Y170534
X772402
X847344Y293116
X881380
Y427736
X847344
T12
X927862Y148717
Y231267
Y313817
Y396367
Y478917
Y561467
T13
X70064Y329866
Y450064
T14
X50064Y50064
X1000064
X50064Y660064
X1000064
M30
