G04 Layer_Color=32768*
%FSLAX24Y24*%
%MOIN*%
G70*
G01*
G75*
%ADD12C,0.0100*%
G54D12*
X9272Y39783D02*
X55272D01*
X9272Y11772D02*
X55272D01*
X9301Y95787D02*
X55272D01*
X11772Y9311D02*
Y98287D01*
X53169Y9272D02*
Y98287D01*
X9272Y67776D02*
X55272D01*
X44200Y107200D02*
X43800D01*
Y106600D01*
X44200D01*
X43800Y106900D02*
X44000D01*
X44400Y106600D02*
X44600D01*
X44500D01*
Y107000D01*
X44400D01*
X44900Y106600D02*
Y107000D01*
X45200D01*
X45300Y106900D01*
Y106600D01*
X45499D02*
X45799D01*
X45899Y106700D01*
X45799Y106800D01*
X45599D01*
X45499Y106900D01*
X45599Y107000D01*
X45899D01*
X46099D02*
Y106700D01*
X46199Y106600D01*
X46499D01*
Y106500D01*
X46399Y106400D01*
X46299D01*
X46499Y106600D02*
Y107000D01*
X47299Y107100D02*
X47399Y107200D01*
X47599D01*
X47699Y107100D01*
Y106700D01*
X47599Y106600D01*
X47399D01*
X47299Y106700D01*
Y107100D01*
X47899Y106600D02*
Y106700D01*
X47999D01*
Y106600D01*
X47899D01*
X48399Y107100D02*
X48498Y107200D01*
X48698D01*
X48798Y107100D01*
Y107000D01*
X48698Y106900D01*
X48598D01*
X48698D01*
X48798Y106800D01*
Y106700D01*
X48698Y106600D01*
X48498D01*
X48399Y106700D01*
X49098Y107000D02*
X49298D01*
X49398Y106900D01*
Y106600D01*
X49098D01*
X48998Y106700D01*
X49098Y106800D01*
X49398D01*
X43800Y106000D02*
Y105600D01*
X44000Y105400D01*
X44200Y105600D01*
Y106000D01*
X44400Y105700D02*
X44800D01*
X45399Y105900D02*
X45300Y106000D01*
X45100D01*
X45000Y105900D01*
Y105800D01*
X45100Y105700D01*
X45300D01*
X45399Y105600D01*
Y105500D01*
X45300Y105400D01*
X45100D01*
X45000Y105500D01*
X45999Y105800D02*
X45699D01*
X45599Y105700D01*
Y105500D01*
X45699Y105400D01*
X45999D01*
X46299D02*
X46499D01*
X46599Y105500D01*
Y105700D01*
X46499Y105800D01*
X46299D01*
X46199Y105700D01*
Y105500D01*
X46299Y105400D01*
X46799Y105800D02*
Y105400D01*
Y105600D01*
X46899Y105700D01*
X46999Y105800D01*
X47099D01*
X47699Y105400D02*
X47499D01*
X47399Y105500D01*
Y105700D01*
X47499Y105800D01*
X47699D01*
X47799Y105700D01*
Y105600D01*
X47399D01*
M02*
