G04 Layer_Color=0*
%FSLAX24Y24*%
%MOIN*%
G70*
G01*
G75*
%ADD12C,0.0100*%
G54D12*
X9272Y9272D02*
Y98287D01*
X55272D01*
Y9272D02*
Y98287D01*
X9272Y9272D02*
X55272D01*
X36000Y107200D02*
X35600D01*
Y106600D01*
X36000D01*
X35600Y106900D02*
X35800D01*
X36200Y106600D02*
X36400D01*
X36300D01*
Y107000D01*
X36200D01*
X36700Y106600D02*
Y107000D01*
X37000D01*
X37100Y106900D01*
Y106600D01*
X37299D02*
X37599D01*
X37699Y106700D01*
X37599Y106800D01*
X37399D01*
X37299Y106900D01*
X37399Y107000D01*
X37699D01*
X37899D02*
Y106700D01*
X37999Y106600D01*
X38299D01*
Y106500D01*
X38199Y106400D01*
X38099D01*
X38299Y106600D02*
Y107000D01*
X39099Y107100D02*
X39199Y107200D01*
X39399D01*
X39499Y107100D01*
Y106700D01*
X39399Y106600D01*
X39199D01*
X39099Y106700D01*
Y107100D01*
X39699Y106600D02*
Y106700D01*
X39799D01*
Y106600D01*
X39699D01*
X40199Y107100D02*
X40298Y107200D01*
X40498D01*
X40598Y107100D01*
Y107000D01*
X40498Y106900D01*
X40398D01*
X40498D01*
X40598Y106800D01*
Y106700D01*
X40498Y106600D01*
X40298D01*
X40199Y106700D01*
X40898Y107000D02*
X41098D01*
X41198Y106900D01*
Y106600D01*
X40898D01*
X40798Y106700D01*
X40898Y106800D01*
X41198D01*
X35600Y105400D02*
Y106000D01*
X35900D01*
X36000Y105900D01*
Y105700D01*
X35900Y105600D01*
X35600D01*
X36300Y105800D02*
X36500D01*
X36600Y105700D01*
Y105400D01*
X36300D01*
X36200Y105500D01*
X36300Y105600D01*
X36600D01*
X36800Y105400D02*
Y105800D01*
X37100D01*
X37199Y105700D01*
Y105400D01*
X37699D02*
X37499D01*
X37399Y105500D01*
Y105700D01*
X37499Y105800D01*
X37699D01*
X37799Y105700D01*
Y105600D01*
X37399D01*
X37999Y105400D02*
X38199D01*
X38099D01*
Y106000D01*
X37999D01*
X39399D02*
X39199D01*
X39099Y105900D01*
Y105500D01*
X39199Y105400D01*
X39399D01*
X39499Y105500D01*
Y105900D01*
X39399Y106000D01*
X39699Y105800D02*
Y105500D01*
X39799Y105400D01*
X40099D01*
Y105800D01*
X40398Y105900D02*
Y105800D01*
X40298D01*
X40498D01*
X40398D01*
Y105500D01*
X40498Y105400D01*
X40798D02*
X40998D01*
X40898D01*
Y106000D01*
X40798D01*
X41298Y105400D02*
X41498D01*
X41398D01*
Y105800D01*
X41298D01*
X41798Y105400D02*
Y105800D01*
X42098D01*
X42198Y105700D01*
Y105400D01*
X42698D02*
X42498D01*
X42398Y105500D01*
Y105700D01*
X42498Y105800D01*
X42698D01*
X42798Y105700D01*
Y105600D01*
X42398D01*
M02*
