M48
;Layer_Color=9474304
;FILE_FORMAT=2:4
INCH,TZ
;TYPE=PLATED
T1F00S00C0.0100
T2F00S00C0.0150
T3F00S00C0.0354
T4F00S00C0.0380
T5F00S00C0.0400
T6F00S00C0.0550
T7F00S00C0.0590
T8F00S00C0.0600
T9F00S00C0.0630
T10F00S00C0.0870
;TYPE=NON_PLATED
T11F00S00C0.1181
%
T01
X13178Y15589
X13478
X15019Y15438
X15589Y15249
X16479Y14528
X16968
X17519Y14519
X18348Y14478
X18079Y15418
X21119Y15409
X21388
X21509Y14869
X21098Y14858
X21878Y14439
X22706Y14519
X22878Y14346
X23438Y14448
X23688
X24659Y14459
X23998Y15459
X25299Y15618
X31058Y15568
X31198Y14129
X31539Y14448
X31918Y14439
X32348Y14539
Y14279
X32848Y14478
X33379Y14448
X33609Y14218
X33958Y14448
X34509Y14528
X34723Y14333
X35378Y14908
X35909Y15379
X34199Y15509
X49219Y14828
X48918Y14509
X39977Y16085
X39577
X39177
X38777
Y16485
X39177
X39577
X39977
Y16885
Y17285
Y17685
X39577
Y17285
X39177
Y17685
X38777
Y17285
Y16885
X39177
X39577
X35378Y16319
X34199Y16488
X34058Y16238
X33719Y16308
Y16089
X33982Y16848
X34248
X33492Y17359
X33059
X32625
Y17793
X33059
X33492
Y18226
Y18659
X33059
X32625
Y18226
X33059
X34348Y18069
X34539Y18734
X34279Y20598
Y20849
X33768
X33758Y20608
X33349Y20429
X33268Y20199
X32229Y19908
Y19648
X32048Y19409
X32093Y19174
X32178Y21409
X31779Y21718
X31918Y22208
X31458Y22188
X32288Y22478
X32789
X32778Y21929
X33519Y21618
X33909Y22989
X34859Y20568
X35578Y20129
X36089Y21028
X39558Y22998
X39429Y25749
X40968Y27429
X42430Y30096
X42830
X43230
Y30496
Y30896
X42830
Y30496
X42430
Y30896
X43630
X44030
Y30496
X43630
Y30096
X44030
X33249Y28449
X31999Y26999
X32668Y26109
X33969Y26369
X31948Y25018
X31828Y16848
X32088
X31058Y15819
X30549Y18189
X29829Y18549
X29821Y19020
X29940Y19768
X29743Y20280
X29931Y20763
X30348Y21098
X31098Y21709
X30789Y22188
X30838Y22998
X30089Y22668
X29759Y22348
X29399Y22318
X29079
X28438
X28029Y22218
X27418Y22269
X27148
X26558Y23268
X25078Y23219
X24469Y23259
X24578Y23728
X24328Y24999
X24309Y25319
X23368Y25438
X23549Y24739
X23928Y26579
X24199Y26818
X25597Y26969
X25907
X26217
X26518
X26469Y26288
X26068
X26067Y25692
X26518Y25679
X26479Y24948
X26948Y24938
Y24629
X27738
Y24938
X28928
Y24629
X30056Y24999
X30366
Y26188
X30676
X30056
X29869Y26748
X28159Y26239
X27348Y26198
X26217Y27518
X25907
Y27968
X25597
X25598Y28568
X25909
X25907Y29339
X25597
X26219
X26528
X28078Y29378
X28398Y29399
X29318
Y29708
X29648Y29729
X29848Y31009
X30419
X31009Y31019
X22318Y30628
X23131Y29536
X22748Y28939
X20143Y29069
Y29443
X19769
Y29069
X19396
X19392Y29446
X19394Y28685
X19769Y28694
X20143
X20259Y27678
X21093Y27728
X20278Y26558
X20131Y25401
X20441Y25411
X19511Y24901
X18678Y22478
X18319Y22369
Y22109
X18018Y21799
X17649Y21158
X17328Y21309
X17009Y21381
X16959Y20798
X16138Y20828
X15648
Y21079
Y21369
X15878Y22919
X16429Y22759
X16599Y20299
X17888Y20219
X18139Y19819
Y19548
X17892Y19378
X17972Y19159
X18485Y18659
Y18226
X18918
Y18659
X19352
Y18226
Y17793
Y17359
X18918
X18485
Y17793
X18918
X20219Y18079
X20398Y18734
X20619Y20489
X20119Y20549
Y20789
X19628
Y20549
X19079Y20408
X19209Y20208
X19339Y21669
X19589
X19878Y21758
X20199
X20549Y21309
X21369Y21648
X21748
X22129Y21639
X22859Y22009
X23059Y22199
X23939Y22039
X24959Y22239
X25259
X25191Y20628
X25429
X24938Y20459
X25018Y20248
X25759Y20048
X26228Y20338
X26128Y21188
X24418Y20828
X23379Y20668
X23579Y20408
X23709Y20208
X22608Y19908
Y19648
X22389Y19409
X22469Y19179
X22109Y19819
X21268Y20498
X21178Y22015
X21019Y22308
X19129Y21878
X19839Y16868
X20059
X19719Y16488
Y16228
X20549Y15939
X21258Y16779
X21539Y16688
X21648Y17059
X21209Y17249
X22448Y16868
Y16638
X22348Y16338
X22599
X22985Y17359
X23419
X23852
Y17793
X23419
X22985
Y18226
Y18659
X23419
Y18226
X23852
Y18659
X24899Y18734
X24729Y18079
X24578Y16848
X24342
X24639Y16488
Y16238
X25478Y15948
X26089Y18769
X26869Y18719
X27538Y18059
X28619Y17779
X28849
X28658Y17269
X28768Y19699
X28020Y19768
X28010Y20280
X28029Y20789
X28768Y20792
X29639Y23159
X30559Y19309
X15939Y19099
X15719Y18429
X15628Y17219
X15728Y16928
X16688Y16759
X17119Y16928
Y17219
Y17508
X17959Y16848
Y16629
X18059Y16329
X17749Y16338
X17009Y16028
X17178Y15748
X19871Y30311
X14708Y22329
Y22069
X14678Y21769
X15179Y21119
X15099Y20889
X14708Y20529
X14489
X13528Y20238
Y20018
X13419Y19739
X13499Y19519
X14012Y19019
Y18586
X14445
Y19019
X14878
Y18586
Y18153
Y17719
X14445
X14012
Y18153
X14445
X15368Y17219
X15479Y16839
X15468Y16438
X15138Y16599
X13478Y16989
Y17219
X12569Y17098
Y16338
X12788
X12438Y17979
X13428Y21669
Y21948
X13089Y22719
X12679Y22989
X13938Y22789
X14198Y22569
X15019Y43431
X15589Y43241
X15468Y44431
X15479Y44831
X15368Y45211
X15138Y44591
X14878Y45712
X14445
X14012
Y46145
X14445
X14878
Y46578
X14445
X14012
X13478Y45211
Y44981
X12569Y45091
Y44331
X12788
X13178Y43581
X13478
X12438Y45971
X15719Y46422
X15628Y45211
X15728Y44921
X16688Y44751
X17119Y44921
Y45211
Y45501
X17959Y44841
Y44621
X18059Y44321
X17749Y44331
X17009Y44021
X17178Y43741
X18079Y43411
X18348Y42471
X17519Y42511
X16968Y42521
X16479
X18485Y45352
X18918
X19352
Y45785
X18918
X18485
Y46218
Y46651
X18918
Y46218
X19352
Y46651
X20398Y46726
X20219Y46071
X20059Y44861
X19839
X19719Y44481
Y44221
X20549Y43931
X21119Y43401
X21388
X21509Y42861
X21098Y42851
X21878Y42431
X22706Y42511
X22878Y42338
X23438Y42441
X23688
X24659Y42451
X23998Y43451
X24639Y44231
Y44481
X24578Y44841
X24342
X23852Y45352
X23419
X22985
Y45785
X23419
X23852
Y46218
Y46651
X23419
X22985
Y46218
X23419
X24729Y46071
X24899Y46726
X26089Y46761
X26869Y46711
X27538Y46051
X28619Y45771
X28849
X28658Y45261
X29829Y46541
X30549Y46181
X31058Y43811
Y43561
X31198Y42121
X25299Y43611
X25478Y43941
X22599Y44331
X22348
X22448Y44631
Y44861
X21648Y45051
X21539Y44681
X21258Y44771
X21209Y45241
X21502Y34235
X22018Y34299
X22689Y34248
X23268Y34228
X23558Y34199
X23849
X24258Y34209
X24629
X25405
X25819Y34179
X26458Y34199
X27178Y33549
X27729Y33538
Y33918
X27418Y33068
Y32678
X26888Y32378
X26858Y33029
X25968Y32308
X27259Y31809
X29799Y31588
X30382Y31598
X30951
X25029Y33259
X24629
X23849
X22389Y33668
X22448Y32399
X21019Y32608
X20668Y32619
X21028Y31939
X19571Y34235
X18011Y34095
X17618Y33958
X17232Y33951
X23259Y34578
X34088Y34148
X34058Y32629
X34439
X34788Y32148
X35549Y31918
X31839Y31598
X40248Y32109
X40258Y32499
X42430Y31296
X42830
X43230
X43630
X44030
X43915Y35341
Y35734
X43522
Y36128
X43915
X44309
Y35734
Y35341
X43522
X39977Y44077
X39577
X39177
X38777
Y44477
X39177
X39577
X39977
Y44877
Y45277
Y45677
X39577
Y45277
X39177
Y45677
X38777
Y45277
Y44877
X39177
X39577
X35378Y44311
X34199Y44481
X34058Y44231
X33719Y44301
Y44081
X33982Y44841
X34248
X33492Y45352
X33059
X32625
Y45785
X33059
X33492
Y46218
Y46651
X33059
X32625
Y46218
X33059
X34348Y46062
X34539Y46726
X34199Y43501
X34509Y42521
X34723Y42326
X33958Y42441
X33609Y42211
X33379Y42441
X32848Y42471
X32348Y42531
Y42271
X31918Y42431
X31539Y42441
X31828Y44841
X32088
X35378Y42901
X35909Y43371
X49219Y42821
X48918Y42501
X46919Y32978
X47108Y32139
Y60131
X46919Y60971
X44030Y59288
X43630
X43230
Y58888
Y58488
Y58088
X42830
X42430
Y58488
X42830
Y58888
X42430
Y59288
X42830
X43630Y58888
X44030
Y58488
X43630
Y58088
X44030
X40968Y55421
X39429Y53741
X39558Y50991
X36089Y49021
X35578Y48121
X34859Y48561
X34279Y48591
Y48841
X33768
X33758Y48601
X33349Y48421
X33268Y48191
X32229Y47901
Y47641
X32048Y47401
X32093Y47166
X32178Y49401
X31779Y49711
X31918Y50201
X31458Y50181
X32288Y50471
X32789
X32778Y49921
X33519Y49611
X33909Y50981
X33969Y54361
X32668Y54101
X31999Y54991
X31948Y53011
X33249Y56441
X31839Y59591
X34058Y60621
X34439
X34788Y60141
X35549Y59911
X34088Y62141
X40258Y60491
X40248Y60101
X30951Y59591
X30382
X29799Y59581
X29848Y59001
X30419
X31009Y59011
X29648Y57721
X29318Y57701
Y57391
X28398
X28078Y57371
X26528Y57331
X26219
X25907
X25597
X25598Y56561
X25909
X25907Y55961
X25597
X25907Y55511
X26217
Y54961
X26518
X25907
X25597
X26068Y54281
X26469
X26518Y53671
X26067Y53684
X26479Y52941
X26948Y52931
Y52621
X27738
Y52931
X28928
Y52621
X30056Y52991
X30366
Y54181
X30676
X30056
X29869Y54741
X28159Y54231
X27348Y54191
X26558Y51261
X25078Y51211
X24469Y51251
X24578Y51721
X24328Y52991
X24309Y53311
X23368Y53431
X23549Y52731
X23928Y54571
X24199Y54811
X22748Y56931
X23131Y57528
X22318Y58621
X22448Y60391
X22389Y61661
X22689Y62241
X23268Y62221
X23558Y62191
X23849
X24258Y62201
X24629
X25405
X25819Y62171
X26458Y62191
X27178Y61541
X27729Y61531
Y61911
X27418Y61061
Y60671
X26888Y60371
X26858Y61021
X25968Y60301
X27259Y59801
X25029Y61251
X24629
X23849
X22018Y62291
X21502Y62228
X19571
X18011Y62088
X17618Y61951
X17232Y61944
X20668Y60611
X21019Y60601
X21028Y59931
X19871Y58303
X19769Y57435
X20143
Y57061
Y56687
X19769
Y57061
X19396
X19392Y57438
X19394Y56677
X20259Y55671
X21093Y55720
X20278Y54551
X20131Y53393
X20441Y53403
X19511Y52893
X18678Y50471
X18319Y50361
Y50101
X18018Y49791
X17649Y49151
X17328Y49301
X17009Y49373
X16959Y48791
X16138Y48821
X15648
Y49071
Y49361
X15878Y50911
X16429Y50751
X16599Y48291
X17888Y48211
X18139Y47811
Y47541
X17892Y47371
X17972Y47151
X15939Y47091
X19209Y48201
X19079Y48401
X19628Y48541
Y48781
X20119
Y48541
X20619Y48481
X21268Y48491
X21369Y49641
X21748
X22129Y49631
X22859Y50001
X23059Y50191
X23939Y50031
X24959Y50231
X25259
X25191Y48621
X25429
X24938Y48451
X25018Y48241
X25759Y48041
X26228Y48331
X26128Y49181
X24418Y48821
X23379Y48661
X23579Y48401
X23709Y48201
X22608Y47901
Y47641
X22389Y47401
X22469Y47171
X22109Y47811
X20549Y49301
X20199Y49751
X19878
X19589Y49661
X19339
X19129Y49871
X21178Y50007
X21019Y50301
X27148Y50261
X27418
X28029Y50211
X28438Y50311
X29079
X29399
X29759Y50341
X30089Y50661
X29639Y51151
X30838Y50991
X30789Y50181
X31098Y49701
X30348Y49091
X29931Y48755
X29743Y48272
X29940Y47760
X29821Y47012
X30559Y47301
X28768Y47691
X28020Y47760
X28010Y48272
X28029Y48781
X28768Y48784
X15099Y48881
X15179Y49111
X14708Y48521
X14489
X13528Y48231
Y48011
X13419Y47731
X13499Y47511
X14012Y47011
X14445
X14878
X14678Y49761
X14708Y50061
Y50321
X14198Y50561
X13938Y50781
X13089Y50711
X12679Y50981
X13428Y49941
Y49661
X13478Y71573
X13178
X12788Y72323
X12569
Y73083
X12438Y73963
X14012Y74137
X14445
Y73704
X14012
X14878
Y74137
Y74570
Y75003
X14445
X14012
Y74570
X14445
X13499Y75503
X13419Y75723
X13528Y76003
Y76223
X14489Y76513
X14708
X15099Y76873
X15179Y77103
X14678Y77753
X14708Y78053
X13428Y77933
Y77653
X13478Y73203
Y72973
X15138Y72583
X15468Y72423
X15479Y72823
X15368Y73203
X15019Y71423
X15589Y71233
X16479Y70513
X16968
X17519Y70503
X18348Y70463
X18079Y71403
X18059Y72313
X17749Y72323
X17959Y72613
Y72833
X17119Y72913
Y73203
Y73493
X16688Y72743
X17009Y72013
X17178Y71733
X15728Y72913
X15628Y73203
X15719Y74414
X15939Y75083
X16599Y76283
X16959Y76783
X17009Y77365
X17328Y77293
X17649Y77143
X18018Y77783
X18319Y78093
X19129Y77863
X19339Y77653
X19589
X19878Y77743
X20199
X20549Y77293
X20619Y76473
X20119Y76533
Y76773
X19628
Y76533
X19079Y76393
X19209Y76193
X17888Y76203
X18139Y75803
Y75533
X17892Y75363
X17972Y75143
X18485Y74643
Y74210
X18918
Y74643
X19352
Y74210
Y73777
Y73344
X18918
X18485
Y73777
X18918
X20219Y74063
X20398Y74718
X20059Y72853
X19839
X19719Y72473
Y72213
X20549Y71923
X21119Y71393
X21388
X21509Y70853
X21098Y70843
X21878Y70423
X22706Y70503
X22878Y70330
X23438Y70433
X23688
X24659Y70443
X23998Y71443
X24639Y72223
Y72473
X24578Y72833
X24342
X23852Y73344
X23419
X22985
Y73777
X23419
X23852
Y74210
Y74643
X23419
X22985
Y74210
X23419
X24729Y74063
X24899Y74718
X26089Y74753
X26869Y74703
X27538Y74043
X28619Y73763
X28849
X28658Y73253
X29829Y74533
X29821Y75004
X29940Y75752
X29743Y76264
X29931Y76747
X30348Y77083
X31098Y77693
X30559Y75293
X30549Y74173
X31058Y71803
Y71553
X31198Y70113
X25299Y71603
X25478Y71933
X22599Y72323
X22348
X22448Y72623
Y72853
X21648Y73043
X21539Y72673
X21258Y72763
X21209Y73233
X22469Y75163
X22389Y75393
X22608Y75633
Y75893
X22109Y75803
X21268Y76483
X21369Y77633
X21748
X22129Y77623
X22859Y77993
X23939Y78023
X24418Y76813
X24938Y76443
X25018Y76233
X25191Y76613
X25429
X25759Y76033
X26228Y76323
X26128Y77173
X28029Y76773
X28010Y76264
X28020Y75752
X28768Y75684
Y76776
X23379Y76653
X23579Y76393
X23709Y76193
X21178Y78000
X15648Y77353
Y77063
Y76813
X16138
X23259Y62571
X31539Y70433
X31918Y70423
X32348Y70523
Y70263
X32848Y70463
X33379Y70433
X33609Y70203
X33958Y70433
X34509Y70513
X34723Y70318
X35378Y70893
X35909Y71363
X35378Y72303
X34199Y72473
X34058Y72223
X33719Y72293
Y72073
X33982Y72833
X34248
X33492Y73344
X33059
X32625
Y73777
X33059
X33492
Y74210
Y74643
X33059
X32625
Y74210
X33059
X34348Y74054
X34539Y74718
X34279Y76583
Y76833
X33768
X33758Y76593
X33349Y76413
X33268Y76183
X32229Y75893
Y75633
X32048Y75393
X32093Y75158
X32178Y77393
X31779Y77703
X32778Y77913
X33519Y77603
X34859Y76553
X35578Y76113
X36089Y77013
X38777Y73670
X39177
X39577
X39977
Y73270
X39577
X39177
X38777
Y72870
Y72470
Y72070
X39177
Y72470
X39577
Y72070
X39977
Y72470
Y72870
X39577
X39177
X34199Y71493
X32088Y72833
X31828
X43522Y64120
Y63726
X43915
Y64120
X44309
Y63726
Y63333
X43915
X43522
X48918Y70493
X49219Y70813
X47108Y88123
X46919Y88963
X44030Y87280
X43630
X43230
Y86880
Y86480
Y86080
X42830
X42430
Y86480
X42830
Y86880
X42430
Y87280
X42830
X43630Y86880
X44030
Y86480
X43630
Y86080
X44030
X43915Y91325
Y91719
X43522
Y92112
X43915
X44309
Y91719
Y91325
X43522
X40258Y88483
X40248Y88093
X35549Y87903
X34788Y88133
X34439Y88613
X34058
X34088Y90133
X31839Y87583
X33249Y84433
X31999Y82983
X32668Y82093
X33969Y82353
X31948Y81003
X31918Y78193
X31458Y78173
X32288Y78463
X32789
X33909Y78973
X39558Y78983
X39429Y81733
X40968Y83413
X30676Y82173
X30366
X30056
X29869Y82733
X30056Y80983
X30366
X28928Y80923
Y80613
X27738
Y80923
X26948
Y80613
X26479Y80933
X26518Y81663
X26067Y81676
X26068Y82273
X26469
X26518Y82953
X26217
X25907
X25597
X25907Y83503
X26217
X25907Y83953
X25597
X25598Y84553
X25909
X25907Y85323
X25597
X26219
X26528
X28078Y85363
X28398Y85383
X29318
Y85693
X29648Y85713
X29848Y86993
X30419
X31009Y87003
X30951Y87583
X30382
X29799Y87573
X27259Y87793
X26888Y88363
X26858Y89013
X27418Y89053
Y88663
X27178Y89533
X27729Y89523
Y89903
X26458Y90183
X25819Y90163
X25405Y90193
X24629
X24258
X23849Y90183
X23558
X23268Y90213
X23259Y90563
X22689Y90233
X22018Y90283
X21502Y90220
X22389Y89653
X22448Y88383
X21019Y88593
X20668Y88603
X21028Y87923
X22318Y86613
X23131Y85520
X22748Y84923
X20143Y85053
Y85427
X19769
Y85053
X19396
X19392Y85430
X19394Y84669
X19769Y84679
X20143
X20259Y83663
X21093Y83712
X20278Y82543
X20131Y81385
X20441Y81395
X19511Y80885
X18678Y78463
X18319Y78353
X16429Y78743
X15878Y78903
X21019Y78293
X23059Y78183
X24959Y78223
X25259
X25078Y79203
X24469Y79243
X24578Y79713
X24328Y80983
X24309Y81303
X23368Y81423
X23549Y80723
X23928Y82563
X24199Y82803
X27348Y82183
X28159Y82223
X28029Y78203
X28438Y78303
X29079
X29399
X29759Y78333
X30089Y78653
X29639Y79143
X30838Y78983
X30789Y78173
X27418Y78253
X27148
X26558Y79253
X25968Y88293
X25029Y89243
X24629
X23849
X19571Y90220
X18011Y90080
X17618Y89943
X17232Y89936
X19871Y86295
X14708Y78313
X14198Y78553
X13938Y78773
X13089Y78703
X12679Y78973
T02
X13080Y13080
X12780Y13780
X13080Y14480
X13780Y14780
X14480Y14480
X14780Y13780
X14480Y13080
X13780Y12780
X37139Y12679
Y13189
Y13708
X38059
Y13198
Y12679
X38809Y12790
Y13160
Y13530
X38819Y14088
Y14459
Y14828
X39122Y15036
X39477
X39831
X39831Y14616
Y14196
X39878Y13029
X39859Y12679
X39509
X39158
X40609Y12649
X41089
X41539Y12809
Y13228
Y13658
X42249Y14159
X42878Y13228
X44549Y13218
X45108Y14159
X46459Y14029
X46599Y15359
X45479Y15568
X40359Y15249
X38059Y15229
Y14708
X37139
Y15229
X47529Y15199
X48179Y14578
X48458Y14079
X47878Y14068
X47525Y13587
X48379Y12989
X50481Y13080
X50181Y13780
X50481Y14480
X51181Y14780
X51881Y14480
X52181Y13780
X51881Y13080
X51181Y12780
X49518Y15479
X48179Y15789
X48369Y16709
X47509Y17219
X49289Y17658
X49728Y18159
X48348Y18619
X48059Y19789
X47108Y19778
X47059Y20348
X47148Y20728
X47408Y21038
X48348Y21788
X48179Y22318
X48338Y23159
X47339Y23359
X47418Y24139
X48348Y25059
X48338Y26488
X49248Y27408
X49008Y28489
X49138Y29778
X48348Y29718
X47519Y29769
X47238Y28649
X47428Y27418
X49969Y29558
X49978Y30338
X49309Y30638
X51989Y29348
X49708Y24688
X49258Y24169
X49928Y23598
X49728Y22489
X49309Y20928
X46849Y21699
X46498Y22299
X45178Y22318
X45828Y23328
X44448Y23338
X44049Y23373
X42238Y22978
X41599Y24158
X40908Y25208
X40378Y26089
X39799
X39509Y24889
X39488Y24429
X39218Y27499
X40481Y29276
X40248Y30348
X41019Y30238
X42049Y29538
Y29144
Y28750
X42718
X42482Y28514
X42994
X43230Y28750
X43702
X43466Y28514
X44078Y28279
X44458Y28639
X44608Y27708
X45168Y27448
X46519Y27459
X45838Y28639
X45848Y29358
X44969Y29969
Y30968
X45968
X46059Y24969
X46498Y24358
X45409
X45518Y20698
X45968
X45778Y19268
X45799Y18519
X45159Y17538
X45128Y16588
X44499Y15978
X43309Y16319
X43488Y17028
X43548Y17549
X42828Y17699
X42899Y18539
X42249Y19548
X42459Y20289
Y20808
Y21319
X43379
Y20808
Y20289
X43589Y19539
X44078Y19368
X44468Y19749
X44369Y20348
X44479Y20949
X41348Y18699
X41308Y17128
Y16629
Y16128
X38059Y15759
X37139Y15756
X37469Y16388
Y16909
Y17419
X36549
Y16909
Y16388
X36418Y17998
X36518Y18448
Y18968
Y19459
X37499
Y18958
Y18448
X37489Y20199
X36748Y20329
X36598Y21379
X35919Y21688
X36828Y22778
X33528Y23208
X32288Y23298
Y24799
X32308Y25368
X31828Y25968
X33888Y25498
X33998Y25069
Y24609
X34109Y26758
X34118Y27218
X33159Y27719
X32913Y28661
X32778Y29079
X32759Y29588
X32599Y30389
X34348Y30319
Y29869
X33658Y28568
X33238Y22078
X38119Y17139
X46428Y17499
X43369Y26418
X42859
X42358
X42355Y27422
X42865
X43365
X29074Y31029
X24299Y29069
X24258Y28128
X23788Y28568
Y26158
X23779Y25708
X23819Y24399
X23102Y23915
X20010Y23996
Y24380
X20000Y25709
X19990Y26102
X19589Y26658
X19409Y27408
X19790Y27406
X18309Y27959
X17929
X17438Y27159
X17378Y26409
X16959Y25359
X16968Y24938
Y24618
X17918Y25368
X18669Y24929
Y24609
X16968Y28398
X16688Y29118
X16918Y30759
X16319
X17938Y29799
X19439Y30728
X20079Y31142
X21446Y30440
X21093Y29173
X22708Y26760
X27529Y23398
X28468
X12746Y23839
X13494Y29911
X15610Y31358
X15388Y31618
X15368Y32448
X15149Y33819
X14439Y33159
X14480Y37095
X14780Y37795
X14480Y38495
X13780Y38795
X13080Y38495
X12780Y37795
X13080Y37095
X13780Y36795
X15498Y38749
X14480Y41072
X14780Y41772
X14480Y42472
X13780Y42772
X13080Y42472
X12780Y41772
X13080Y41072
X13780Y40772
X16451Y33981
X16437Y32569
X16850Y32559
X16349Y31339
X20344Y31417
X19268Y35719
X23809Y38698
X26569Y39269
X29648Y36479
X29599Y36028
X28969Y33359
X29086Y31415
X33788Y36028
X34118Y36279
X34852Y36772
X34899Y38958
X37139Y40671
Y41181
Y41701
X38059
Y41191
Y40671
X38809Y40782
Y41152
Y41522
X38819Y42081
Y42451
Y42821
X39122Y43028
X39477
X39831
X39831Y42608
Y42188
X39878Y41021
X39859Y40671
X39509
X39158
X40609Y40641
X41089
X41539Y40801
Y41221
Y41651
X42249Y42151
X42878Y41221
X44549Y41211
X45108Y42151
X46459Y42021
X46599Y43351
X45479Y43561
X45128Y44581
X45159Y45531
X46428Y45491
X45799Y46511
X42899Y46531
X42828Y45691
X43548Y45541
X43488Y45021
X43309Y44311
X44499Y43971
X41308Y44121
Y44621
Y45121
X41348Y46691
X37499Y46441
X36518
X36418Y45991
X36549Y45411
Y44901
Y44381
X37469
Y44901
Y45411
X38119Y45131
X38059Y43751
Y43221
Y42701
X37139
Y43221
Y43748
X40359Y43241
X40493Y38898
X39488Y39109
X42379Y38898
X44264
X44549Y38179
X44679Y37829
X45079
X45854Y37585
X46519Y37678
X46149Y38898
X45469Y36948
X44639Y36449
X43818Y37369
Y37738
Y38108
X42789Y36618
X43039Y34799
Y34348
X43418Y34299
Y34629
Y34959
X44479Y34018
X44858
X45258Y34009
X44969Y32968
X45968
X46108Y33349
X45968Y31969
X44969
X43969
Y32968
X44223Y33349
X42729
X42969Y32968
Y31969
X41968
X41859Y31298
X39169Y31569
X39118Y32989
X38798Y34258
X36089Y34088
X41448Y34578
X46519Y34488
Y36084
X48338Y34889
X47439Y33909
X48338Y32929
X48348Y31628
X46968Y31469
X51968Y32378
X51881Y37095
X52181Y37795
X51881Y38495
X51181Y38795
X50481Y38495
X50181Y37795
X50481Y37095
X51181Y36795
Y40772
X50481Y41072
X50181Y41772
X50481Y42472
X51181Y42772
X51881Y42472
X52181Y41772
X51881Y41072
X48379Y40981
X48458Y42071
X47878Y42061
X48179Y42571
X48179Y43781
X48369Y44701
X47509Y45211
X47529Y43191
X47525Y41580
X49518Y43471
X49289Y45651
X49728Y46151
X48348Y46611
X48059Y47781
X47108Y47771
X47059Y48341
X47148Y48721
X47408Y49031
X48348Y49781
X48179Y50311
X48338Y51151
X47339Y51351
X47418Y52131
X48348Y53051
X48338Y54481
X49248Y55401
X49008Y56481
X49138Y57771
X48348Y57711
X47519Y57761
X47238Y56641
X47428Y55411
X46968Y59461
X48348Y59621
X48338Y60921
X47439Y61901
X49309Y58631
X49978Y58331
X49969Y57551
X51989Y57341
X51968Y60371
X49708Y52681
X49258Y52161
X49928Y51591
X49728Y50481
X49309Y48921
X46849Y49691
X46498Y50291
X45178Y50311
X45828Y51321
X44448Y51331
X44049Y51365
X42238Y50971
X41599Y52151
X40908Y53201
X40378Y54081
X39799
X39509Y52881
X39488Y52421
X39218Y55491
X40481Y57268
X40248Y58341
X41019Y58231
X42049Y57530
Y57136
Y56742
X42718
X42482Y56506
X42994
X43230Y56742
X43702
X43466Y56506
X44078Y56271
X44458Y56631
X44608Y55701
X45168Y55441
X46519Y55451
X45838Y56631
X45848Y57351
X44969Y57961
Y58961
X45968
Y59961
Y60961
X46108Y61341
X45258Y62001
X44858Y62011
X44479
X44223Y61341
X43969Y60961
X44969
Y59961
X43969
X42969
Y60961
X42729Y61341
X43039Y62341
X43418Y62291
X46519Y62481
X41968Y59961
X41859Y59291
X39169Y59561
X39118Y60981
X38798Y62251
X36089Y62081
X34348Y58311
Y57861
X32759Y57581
X32778Y57071
X32913Y56654
X33658Y56561
X33159Y55711
X34118Y55211
X34109Y54751
X33888Y53491
X33998Y53061
Y52601
X33528Y51201
X32288Y51291
Y52791
X32308Y53361
X31828Y53961
X32599Y58381
X33238Y50071
X35919Y49681
X36598Y49371
X36748Y48321
X37489Y48191
X37499Y47451
Y46951
X36518Y46961
Y47451
X36828Y50771
X42459Y49311
Y48801
Y48281
X43379
Y48801
Y49311
X44479Y48941
X44369Y48341
X44468Y47741
X44078Y47361
X43589Y47531
X42249Y47541
X45778Y47261
X45968Y48691
X45518
X45409Y52351
X46498
X46059Y52961
X43369Y54411
X42859
X42358
X42355Y55414
X42865
X43365
X29074Y59021
X29086Y59407
X28969Y61351
X24299Y57061
X24258Y56121
X23788Y56561
Y54151
X23779Y53701
X23819Y52391
X23102Y51908
X20010Y51988
Y52372
X20000Y53701
X19990Y54094
X19589Y54651
X19409Y55401
X19790Y55398
X18309Y55951
X17929
X17438Y55151
X17378Y54401
X16959Y53351
X16968Y52931
Y52611
X17918Y53361
X18669Y52921
Y52601
X16968Y56391
X16688Y57111
X16918Y58751
X16319
X16349Y59331
X16437Y60561
X16850Y60551
X16451Y61974
X17938Y57791
X19439Y58721
X20079Y59134
X20344Y59409
X21446Y58432
X21093Y57165
X22708Y54752
X27529Y51391
X28468
X12746Y51831
X13494Y57904
X15610Y59351
X15388Y59611
X15368Y60441
X15149Y61811
X14439Y61151
X14480Y65087
X14780Y65787
X14480Y66487
X13780Y66787
X13080Y66487
X12780Y65787
X13080Y65087
X13780Y64787
X15498Y66741
X14480Y69064
X14780Y69764
X14480Y70464
X13780Y70764
X13080Y70464
X12780Y69764
X13080Y69064
X13780Y68764
X19268Y63711
X23809Y66691
X26569Y67261
X29648Y64471
X29599Y64021
X33788
X34118Y64271
X34852Y64764
X34899Y66951
X37139Y68663
Y69173
Y69693
X38059
Y69183
Y68663
X38809Y68774
Y69144
Y69514
X38819Y70073
Y70443
Y70813
X39122Y71020
X39477
X39831
X39831Y70600
Y70180
X39878Y69013
X39859Y68663
X39509
X39158
X40609Y68633
X41089
X41539Y68793
Y69213
Y69643
X42249Y70143
X42878Y69213
X44549Y69203
X45108Y70143
X46459Y70013
X46599Y71343
X45479Y71553
X45128Y72573
X45159Y73523
X46428Y73483
X45799Y74503
X45778Y75253
X45968Y76683
X45518
X44479Y76933
X44369Y76333
X44468Y75733
X44078Y75353
X43589Y75523
X43379Y76273
Y76793
Y77303
X42459
Y76793
Y76273
X42249Y75533
X42899Y74523
X42828Y73683
X43548Y73533
X43488Y73013
X43309Y72303
X44499Y71963
X41308Y72113
Y72613
Y73113
X41348Y74683
X37499Y74433
Y74943
Y75443
X37489Y76183
X36748Y76313
X36518Y75443
Y74953
Y74433
X36418Y73983
X36549Y73403
Y72893
Y72373
X37469
Y72893
Y73403
X38119Y73123
X38059Y71743
Y71213
Y70693
X37139
Y71213
Y71740
X40359Y71233
X40493Y66891
X39488Y67101
X42379Y66891
X44264
X44549Y66171
X44679Y65821
X45079
X45854Y65577
X46519Y65671
X46149Y66891
X45469Y64941
X44639Y64441
X43818Y65361
Y65731
Y66101
X42789Y64611
X43039Y62791
X43418Y62951
Y62621
X41448Y62571
X46519Y64076
X46849Y77683
X36598Y77363
X35919Y77673
X33238Y78063
X47408Y77023
X47148Y76713
X47059Y76333
X47108Y75763
X48059Y75773
X48348Y74603
X49728Y74143
X49289Y73643
X48369Y72693
X48179Y71773
X48179Y70563
X48458Y70063
X47878Y70053
X47525Y69572
X48379Y68973
X50481Y69064
X50181Y69764
X50481Y70464
X51181Y70764
X51881Y70464
X52181Y69764
X51881Y69064
X51181Y68764
Y66787
X51881Y66487
X52181Y65787
X51881Y65087
X51181Y64787
X50481Y65087
X50181Y65787
X50481Y66487
X48338Y62881
X47529Y71183
X47509Y73203
X49518Y71463
X49309Y76913
X48348Y77773
X48179Y78303
X48338Y79143
X47339Y79343
X47418Y80123
X48348Y81043
X48338Y82473
X49248Y83393
X49008Y84473
X49138Y85763
X48348Y85703
X47519Y85753
X47238Y84633
X47428Y83403
X46968Y87453
X48348Y87613
X48338Y88913
X47439Y89893
X48338Y90873
X50481Y93080
X51181Y92780
X51881Y93080
X51968Y88363
X51989Y85333
X49969Y85543
X49978Y86323
X49309Y86623
X49708Y80673
X49258Y80153
X49928Y79583
X49728Y78473
X46498Y78283
X45178Y78303
X45828Y79313
X44448Y79323
X44049Y79357
X42238Y78963
X41599Y80143
X40908Y81193
X40378Y82073
X39799
X39509Y80873
X39488Y80413
X39218Y83483
X40481Y85260
X40248Y86333
X41019Y86223
X42049Y85522
Y85128
Y84734
X42718
X42482Y84498
X42994
X43230Y84734
X43702
X43466Y84498
X44078Y84263
X44458Y84623
X44608Y83693
X45168Y83433
X46519Y83443
X45838Y84623
X45848Y85343
X44969Y85953
Y86953
X45968
Y87953
Y88953
X46108Y89333
X45258Y89993
X44858Y90003
X44479
X44223Y89333
X43969Y88953
X44969
Y87953
X43969
X42969
Y88953
X42729Y89333
X43039Y90333
X43418Y90283
Y90613
Y90943
X43039Y90783
X41448Y90563
X38798Y90243
X39118Y88973
X39169Y87553
X41859Y87283
X41968Y87953
X42355Y83407
X42865
X43365
X43369Y82403
X42859
X42358
X45409Y80343
X46498
X46059Y80953
X46519Y90473
Y92068
Y93663
X45854Y93569
X45469Y92933
X44639Y92433
X43818Y93353
Y93723
X42789Y92603
X34852Y92756
X34118Y92263
X33788Y92013
X36089Y90073
X34348Y86303
Y85853
X32759Y85573
X32778Y85063
X32913Y84646
X33658Y84553
X33159Y83703
X34118Y83203
X34109Y82743
X33888Y81483
X33998Y81053
Y80593
X33528Y79193
X32288Y79283
Y80783
X32308Y81353
X31828Y81953
X32599Y86373
X36828Y78763
X28468Y79383
X27529
X23819Y80383
X23102Y79900
X23779Y81693
X23788Y82143
X22708Y82744
X23788Y84553
X24258Y84113
X24299Y85053
X21093Y85157
X21446Y86424
X20079Y87126
X20344Y87402
X19439Y86713
X17938Y85783
X17929Y83943
X18309
X19409Y83393
X19790Y83390
X19589Y82643
X19990Y82087
X20000Y81693
X20010Y80364
Y79980
X18669Y80593
Y80913
X17918Y81353
X16959Y81343
X16968Y80923
Y80603
X17378Y82393
X17438Y83143
X16968Y84383
X16688Y85103
X16918Y86743
X16319
X16349Y87323
X16437Y88553
X16850Y88543
X16451Y89966
X19268Y91703
X29599Y92013
X29648Y92463
X28969Y89343
X29086Y87399
X29074Y87013
X15610Y87343
X15388Y87603
X15368Y88433
X15149Y89803
X14439Y89143
X14480Y93080
X13780Y92780
X13080Y93080
X13494Y85896
X12746Y79823
X12780Y93780
X13080Y94480
X13780Y94780
X14480Y94480
X14780Y93780
X15498Y94733
X23809Y94683
X26569Y95253
X34899Y94943
X39488Y95093
X40493Y94883
X42379
X44264
X44549Y94163
X44679Y93813
X45079
X43818Y94093
X46149Y94883
X50481Y94480
X50181Y93780
X52181
X51881Y94480
X51181Y94780
T03
X29708Y33658
Y34659
X30708
Y33658
Y37408
X29708
Y38409
X30708
X31709
Y37408
X32708
Y38409
X33709
Y37408
Y34659
X32708
X31709
Y33658
X32708
X33709
X36365Y35026
X37365
Y36026
X36365
Y37026
X37365
Y38026
X36365
Y39026
X37365
X33709Y61651
X32708
X31709
X30708
X29708
Y62651
X30708
Y65401
X29708
Y66401
X30708
X31709
Y65401
X32708
Y66401
X33709
Y65401
Y62651
X32708
X31709
X36365Y63018
X37365
Y64018
X36365
Y65018
X37365
Y66018
X36365
Y67018
X37365
Y91010
X36365
Y92010
X37365
Y93010
X36365
X33709Y93393
X32708
X31709
Y90643
Y89643
X32708
Y90643
X33709
Y89643
X30708
X29708
Y90643
X30708
Y93393
X29708
Y94393
X30708
X31709
X32708
X33709
X36365Y94010
X37365
Y95010
X36365
T04
X15637Y26665
X16427
Y27657
X15637
X17664Y31644
Y32644
X18664
Y31644
X19664
Y32644
X23390
Y31644
X24390
Y32644
X25390
Y31644
Y59636
X24390
X23390
Y60636
X24390
X25390
X19664
X18664
X17664
Y59636
X18664
X19664
X16427Y55650
X15637
Y54657
X16427
Y82650
X15637
Y83642
X16427
X17664Y87628
Y88628
X18664
Y87628
X19664
Y88628
X23390
Y87628
X24390
Y88628
X25390
Y87628
T05
X16610Y13386
X17610
X18610
X19610
X21728
X22728
X23728
X24728
X26846
X27846
X28846
X29846
X31969Y13390
X32968
X33969
X34969
X52175Y16024
X37898Y24039
Y25038
Y26038
X37908Y28179
Y29179
Y30178
X35472Y30185
Y29185
Y27075
Y26075
Y23965
Y22965
X29846Y16142
X28846
X27846
X26846
X12896Y32968
Y34748
X16323Y35433
X17323
X18323
X20457
X21457
X22457
X24591
X25591
X26591
Y37795
X25591
X24591
X22457
X21457
X20457
X18323
X17323
X16323
X16610Y41378
X17610
X18610
X19610
X21728
X22728
X23728
X24728
X26846
X27846
X28846
X29846
Y44134
X28846
X27846
X26846
X31969Y41382
X32968
X33969
X34969
X36958Y33338
Y32339
X52175Y44016
X37898Y52031
Y53031
Y54031
X37908Y56171
Y57171
Y58171
X35472Y58177
Y57177
Y55067
Y54067
Y51957
Y50957
X36958Y60331
Y61331
X12896Y60960
Y62740
X16323Y63425
X17323
X18323
X20457
X21457
X22457
X24591
X25591
X26591
Y65787
X25591
X24591
X22457
X21457
X20457
X18323
X17323
X16323
X16610Y69370
X17610
X18610
X19610
X21728
X22728
X23728
X24728
X26846
X27846
X28846
X29846
Y72126
X28846
X27846
X26846
X31969Y69374
X32968
X33969
X34969
X52175Y72008
X37898Y80023
Y81023
Y82023
X37908Y84163
Y85163
Y86163
X35472Y86169
Y85169
Y83059
Y82059
Y79949
Y78949
X36958Y88323
Y89323
X26591Y91417
X25591
X24591
X22457
X21457
X20457
X18323
X17323
X16323
X12896Y90733
Y88953
X16323Y93780
X17323
X18323
X20457
X21457
X22457
X24591
X25591
X26591
T06
X38078Y21398
X40079
Y49391
X38078
Y77383
X40079
T07
X13876Y32478
Y35238
Y60470
Y63230
Y88463
Y91223
T08
X48338Y17664
Y20914
Y24163
Y27413
Y30663
Y33914
Y45656
Y48906
Y52156
Y55406
Y58656
Y61906
Y73648
Y76898
Y80148
Y83398
Y86648
Y89898
T09
X42218Y13222
X43558
X45118Y13218
X46459
Y18519
X45118
X43558Y18522
X42218
X45168Y23349
X46508
Y28649
X45168
X45118Y41211
X46459
X43558Y41215
X42218
Y46515
X43558
X45118Y46511
X46459
X46508Y51341
X45168
Y56641
X46508
X46459Y69203
X45118
X43558Y69207
X42218
Y74507
X43558
X45118Y74503
X46459
X46508Y79333
X45168
Y84633
X46508
T10
X14567Y24795
Y29528
Y52787
Y57520
Y80780
Y85512
T11
X10600Y10600
X13780Y13780
X51181
X54380Y10600
X13780Y37795
Y41772
X51181
Y37795
X13780Y65787
Y69764
X51181
Y65787
X13780Y93780
X10600Y96959
X51181Y93780
X54380Y96959
M30
