%FSLAX24Y24*%
%MOIN*%
G70*
G01*
G75*
G04 Layer_Color=8421504*
%ADD10C,0.0070*%
G04:AMPARAMS|DCode=11|XSize=78.7mil|YSize=78.7mil|CornerRadius=39.4mil|HoleSize=0mil|Usage=FLASHONLY|Rotation=90.000|XOffset=0mil|YOffset=0mil|HoleType=Round|Shape=RoundedRectangle|*
%AMROUNDEDRECTD11*
21,1,0.0787,0.0000,0,0,90.0*
21,1,0.0000,0.0787,0,0,90.0*
1,1,0.0787,0.0000,0.0000*
1,1,0.0787,0.0000,0.0000*
1,1,0.0787,0.0000,0.0000*
1,1,0.0787,0.0000,0.0000*
%
%ADD11ROUNDEDRECTD11*%
%ADD12C,0.0100*%
%ADD13C,0.0650*%
%ADD14R,0.0600X0.0120*%
%ADD15R,0.0120X0.0600*%
G04:AMPARAMS|DCode=16|XSize=11mil|YSize=31.5mil|CornerRadius=4.4mil|HoleSize=0mil|Usage=FLASHONLY|Rotation=180.000|XOffset=0mil|YOffset=0mil|HoleType=Round|Shape=RoundedRectangle|*
%AMROUNDEDRECTD16*
21,1,0.0110,0.0227,0,0,180.0*
21,1,0.0022,0.0315,0,0,180.0*
1,1,0.0088,-0.0011,0.0113*
1,1,0.0088,0.0011,0.0113*
1,1,0.0088,0.0011,-0.0113*
1,1,0.0088,-0.0011,-0.0113*
%
%ADD16ROUNDEDRECTD16*%
G04:AMPARAMS|DCode=17|XSize=11mil|YSize=31.5mil|CornerRadius=4.4mil|HoleSize=0mil|Usage=FLASHONLY|Rotation=270.000|XOffset=0mil|YOffset=0mil|HoleType=Round|Shape=RoundedRectangle|*
%AMROUNDEDRECTD17*
21,1,0.0110,0.0227,0,0,270.0*
21,1,0.0022,0.0315,0,0,270.0*
1,1,0.0088,-0.0113,-0.0011*
1,1,0.0088,-0.0113,0.0011*
1,1,0.0088,0.0113,0.0011*
1,1,0.0088,0.0113,-0.0011*
%
%ADD17ROUNDEDRECTD17*%
%ADD18R,0.1370X0.1370*%
%ADD19R,0.1370X0.1370*%
%ADD20R,0.0236X0.1319*%
G04:AMPARAMS|DCode=21|XSize=40mil|YSize=40mil|CornerRadius=20mil|HoleSize=0mil|Usage=FLASHONLY|Rotation=0.000|XOffset=0mil|YOffset=0mil|HoleType=Round|Shape=RoundedRectangle|*
%AMROUNDEDRECTD21*
21,1,0.0400,0.0000,0,0,0.0*
21,1,0.0000,0.0400,0,0,0.0*
1,1,0.0400,0.0000,0.0000*
1,1,0.0400,0.0000,0.0000*
1,1,0.0400,0.0000,0.0000*
1,1,0.0400,0.0000,0.0000*
%
%ADD21ROUNDEDRECTD21*%
%ADD22R,0.0480X0.0480*%
%ADD23R,0.0480X0.0480*%
%ADD24R,0.0420X0.0520*%
%ADD25R,0.0354X0.1299*%
%ADD26R,0.0240X0.0240*%
%ADD27R,0.1260X0.0630*%
%ADD28R,0.0402X0.0118*%
%ADD29R,0.0681X0.0748*%
%ADD30R,0.0360X0.0320*%
%ADD31R,0.1970X0.1700*%
%ADD32R,0.0280X0.0560*%
%ADD33R,0.0280X0.0200*%
%ADD34R,0.0200X0.0280*%
%ADD35R,0.0790X0.0790*%
%ADD36R,0.0790X0.0790*%
%ADD37R,0.0500X0.0150*%
G04:AMPARAMS|DCode=38|XSize=63mil|YSize=71mil|CornerRadius=15.8mil|HoleSize=0mil|Usage=FLASHONLY|Rotation=270.000|XOffset=0mil|YOffset=0mil|HoleType=Round|Shape=RoundedRectangle|*
%AMROUNDEDRECTD38*
21,1,0.0630,0.0395,0,0,270.0*
21,1,0.0315,0.0710,0,0,270.0*
1,1,0.0315,-0.0198,-0.0158*
1,1,0.0315,-0.0198,0.0158*
1,1,0.0315,0.0198,0.0158*
1,1,0.0315,0.0198,-0.0158*
%
%ADD38ROUNDEDRECTD38*%
G04:AMPARAMS|DCode=39|XSize=29.1mil|YSize=39.4mil|CornerRadius=5.8mil|HoleSize=0mil|Usage=FLASHONLY|Rotation=90.000|XOffset=0mil|YOffset=0mil|HoleType=Round|Shape=RoundedRectangle|*
%AMROUNDEDRECTD39*
21,1,0.0291,0.0277,0,0,90.0*
21,1,0.0175,0.0394,0,0,90.0*
1,1,0.0117,0.0139,0.0087*
1,1,0.0117,0.0139,-0.0087*
1,1,0.0117,-0.0139,-0.0087*
1,1,0.0117,-0.0139,0.0087*
%
%ADD39ROUNDEDRECTD39*%
G04:AMPARAMS|DCode=40|XSize=29.1mil|YSize=39.4mil|CornerRadius=5.8mil|HoleSize=0mil|Usage=FLASHONLY|Rotation=180.000|XOffset=0mil|YOffset=0mil|HoleType=Round|Shape=RoundedRectangle|*
%AMROUNDEDRECTD40*
21,1,0.0291,0.0277,0,0,180.0*
21,1,0.0175,0.0394,0,0,180.0*
1,1,0.0117,-0.0087,0.0139*
1,1,0.0117,0.0087,0.0139*
1,1,0.0117,0.0087,-0.0139*
1,1,0.0117,-0.0087,-0.0139*
%
%ADD40ROUNDEDRECTD40*%
G04:AMPARAMS|DCode=41|XSize=22mil|YSize=24mil|CornerRadius=4.4mil|HoleSize=0mil|Usage=FLASHONLY|Rotation=0.000|XOffset=0mil|YOffset=0mil|HoleType=Round|Shape=RoundedRectangle|*
%AMROUNDEDRECTD41*
21,1,0.0220,0.0152,0,0,0.0*
21,1,0.0132,0.0240,0,0,0.0*
1,1,0.0088,0.0066,-0.0076*
1,1,0.0088,-0.0066,-0.0076*
1,1,0.0088,-0.0066,0.0076*
1,1,0.0088,0.0066,0.0076*
%
%ADD41ROUNDEDRECTD41*%
G04:AMPARAMS|DCode=42|XSize=22mil|YSize=24mil|CornerRadius=4.4mil|HoleSize=0mil|Usage=FLASHONLY|Rotation=270.000|XOffset=0mil|YOffset=0mil|HoleType=Round|Shape=RoundedRectangle|*
%AMROUNDEDRECTD42*
21,1,0.0220,0.0152,0,0,270.0*
21,1,0.0132,0.0240,0,0,270.0*
1,1,0.0088,-0.0076,-0.0066*
1,1,0.0088,-0.0076,0.0066*
1,1,0.0088,0.0076,0.0066*
1,1,0.0088,0.0076,-0.0066*
%
%ADD42ROUNDEDRECTD42*%
%ADD43R,0.0543X0.0709*%
%ADD44R,0.0200X0.0260*%
%ADD45R,0.0433X0.0669*%
G04:AMPARAMS|DCode=46|XSize=52mil|YSize=60mil|CornerRadius=13mil|HoleSize=0mil|Usage=FLASHONLY|Rotation=180.000|XOffset=0mil|YOffset=0mil|HoleType=Round|Shape=RoundedRectangle|*
%AMROUNDEDRECTD46*
21,1,0.0520,0.0340,0,0,180.0*
21,1,0.0260,0.0600,0,0,180.0*
1,1,0.0260,-0.0130,0.0170*
1,1,0.0260,0.0130,0.0170*
1,1,0.0260,0.0130,-0.0170*
1,1,0.0260,-0.0130,-0.0170*
%
%ADD46ROUNDEDRECTD46*%
G04:AMPARAMS|DCode=47|XSize=52mil|YSize=60mil|CornerRadius=13mil|HoleSize=0mil|Usage=FLASHONLY|Rotation=270.000|XOffset=0mil|YOffset=0mil|HoleType=Round|Shape=RoundedRectangle|*
%AMROUNDEDRECTD47*
21,1,0.0520,0.0340,0,0,270.0*
21,1,0.0260,0.0600,0,0,270.0*
1,1,0.0260,-0.0170,-0.0130*
1,1,0.0260,-0.0170,0.0130*
1,1,0.0260,0.0170,0.0130*
1,1,0.0260,0.0170,-0.0130*
%
%ADD47ROUNDEDRECTD47*%
%ADD48R,0.1673X0.0465*%
%ADD49C,0.0600*%
G04:AMPARAMS|DCode=50|XSize=50mil|YSize=50mil|CornerRadius=25mil|HoleSize=0mil|Usage=FLASHONLY|Rotation=90.000|XOffset=0mil|YOffset=0mil|HoleType=Round|Shape=RoundedRectangle|*
%AMROUNDEDRECTD50*
21,1,0.0500,0.0000,0,0,90.0*
21,1,0.0000,0.0500,0,0,90.0*
1,1,0.0500,0.0000,0.0000*
1,1,0.0500,0.0000,0.0000*
1,1,0.0500,0.0000,0.0000*
1,1,0.0500,0.0000,0.0000*
%
%ADD50ROUNDEDRECTD50*%
%ADD51C,0.0500*%
%ADD52C,0.0240*%
%ADD53C,0.0080*%
%ADD54C,0.0200*%
%ADD55C,0.0320*%
%ADD56C,0.0120*%
%ADD57C,0.0600*%
%ADD58C,0.0400*%
%ADD59C,0.0250*%
%ADD60C,0.0160*%
%ADD61R,0.1299X0.1063*%
%ADD62R,0.1575X0.0984*%
%ADD63R,0.1929X0.1457*%
%ADD64R,0.0551X0.0472*%
%ADD65O,0.0540X0.0360*%
%ADD66C,0.0360*%
%ADD67O,0.0600X0.1200*%
%ADD68P,0.0758X8X292.5*%
%ADD69C,0.1000*%
%ADD70O,0.1200X0.0600*%
%ADD71O,0.1024X0.0591*%
%ADD72C,0.0591*%
%ADD73R,0.0591X0.0591*%
%ADD74C,0.1305*%
%ADD75C,0.0540*%
%ADD76O,0.1650X0.0825*%
%ADD77O,0.0825X0.1650*%
%ADD78P,0.0909X8X112.5*%
%ADD79C,0.0840*%
%ADD80P,0.0909X8X22.5*%
G04:AMPARAMS|DCode=81|XSize=133.9mil|YSize=200mil|CornerRadius=0mil|HoleSize=0mil|Usage=FLASHONLY|Rotation=270.000|XOffset=0mil|YOffset=0mil|HoleType=Round|Shape=Octagon|*
%AMOCTAGOND81*
4,1,8,0.1000,0.0335,0.1000,-0.0335,0.0665,-0.0669,-0.0665,-0.0669,-0.1000,-0.0335,-0.1000,0.0335,-0.0665,0.0669,0.0665,0.0669,0.1000,0.0335,0.0*
%
%ADD81OCTAGOND81*%

G04:AMPARAMS|DCode=82|XSize=140mil|YSize=200mil|CornerRadius=0mil|HoleSize=0mil|Usage=FLASHONLY|Rotation=270.000|XOffset=0mil|YOffset=0mil|HoleType=Round|Shape=Octagon|*
%AMOCTAGOND82*
4,1,8,0.1000,0.0350,0.1000,-0.0350,0.0650,-0.0700,-0.0650,-0.0700,-0.1000,-0.0350,-0.1000,0.0350,-0.0650,0.0700,0.0650,0.0700,0.1000,0.0350,0.0*
%
%ADD82OCTAGOND82*%

%ADD83P,0.0671X8X22.5*%
%ADD84C,0.0800*%
%ADD85C,0.0300*%
%ADD86C,0.0500*%
%ADD87C,0.0400*%
%ADD88C,0.0320*%
%ADD89C,0.1581*%
%ADD90C,0.0460*%
G04:AMPARAMS|DCode=91|XSize=82mil|YSize=82mil|CornerRadius=0mil|HoleSize=0mil|Usage=FLASHONLY|Rotation=0.000|XOffset=0mil|YOffset=0mil|HoleType=Round|Shape=Relief|Width=10mil|Gap=10mil|Entries=4|*
%AMTHD91*
7,0,0,0.0820,0.0620,0.0100,45*
%
%ADD91THD91*%
%ADD92C,0.0640*%
G04:AMPARAMS|DCode=93|XSize=100mil|YSize=100mil|CornerRadius=0mil|HoleSize=0mil|Usage=FLASHONLY|Rotation=0.000|XOffset=0mil|YOffset=0mil|HoleType=Round|Shape=Relief|Width=10mil|Gap=10mil|Entries=4|*
%AMTHD93*
7,0,0,0.1000,0.0800,0.0100,45*
%
%ADD93THD93*%
%ADD94C,0.0830*%
%ADD95C,0.0594*%
G04:AMPARAMS|DCode=96|XSize=95.433mil|YSize=95.433mil|CornerRadius=0mil|HoleSize=0mil|Usage=FLASHONLY|Rotation=0.000|XOffset=0mil|YOffset=0mil|HoleType=Round|Shape=Relief|Width=10mil|Gap=10mil|Entries=4|*
%AMTHD96*
7,0,0,0.0954,0.0754,0.0100,45*
%
%ADD96THD96*%
%ADD97C,0.1110*%
G04:AMPARAMS|DCode=98|XSize=98mil|YSize=98mil|CornerRadius=0mil|HoleSize=0mil|Usage=FLASHONLY|Rotation=0.000|XOffset=0mil|YOffset=0mil|HoleType=Round|Shape=Relief|Width=10mil|Gap=10mil|Entries=4|*
%AMTHD98*
7,0,0,0.0980,0.0780,0.0100,45*
%
%ADD98THD98*%
%ADD99C,0.0620*%
%ADD100C,0.0790*%
G04:AMPARAMS|DCode=101|XSize=115mil|YSize=115mil|CornerRadius=0mil|HoleSize=0mil|Usage=FLASHONLY|Rotation=0.000|XOffset=0mil|YOffset=0mil|HoleType=Round|Shape=Relief|Width=10mil|Gap=10mil|Entries=4|*
%AMTHD101*
7,0,0,0.1150,0.0950,0.0100,45*
%
%ADD101THD101*%
%ADD102C,0.1240*%
%ADD103C,0.0390*%
%ADD104C,0.1421*%
%ADD105C,0.0520*%
%ADD106C,0.1400*%
%ADD107C,0.0800*%
%ADD108C,0.1040*%
%ADD109C,0.1300*%
%ADD110R,0.4094X0.4331*%
%ADD111R,0.3425X0.4284*%
%ADD112R,0.3583X0.4284*%
%ADD113R,0.3622X0.4331*%
G04:AMPARAMS|DCode=114|XSize=46mil|YSize=63mil|CornerRadius=11.5mil|HoleSize=0mil|Usage=FLASHONLY|Rotation=270.000|XOffset=0mil|YOffset=0mil|HoleType=Round|Shape=RoundedRectangle|*
%AMROUNDEDRECTD114*
21,1,0.0460,0.0400,0,0,270.0*
21,1,0.0230,0.0630,0,0,270.0*
1,1,0.0230,-0.0200,-0.0115*
1,1,0.0230,-0.0200,0.0115*
1,1,0.0230,0.0200,0.0115*
1,1,0.0230,0.0200,-0.0115*
%
%ADD114ROUNDEDRECTD114*%
G04:AMPARAMS|DCode=115|XSize=50mil|YSize=50mil|CornerRadius=25mil|HoleSize=0mil|Usage=FLASHONLY|Rotation=0.000|XOffset=0mil|YOffset=0mil|HoleType=Round|Shape=RoundedRectangle|*
%AMROUNDEDRECTD115*
21,1,0.0500,0.0000,0,0,0.0*
21,1,0.0000,0.0500,0,0,0.0*
1,1,0.0500,0.0000,0.0000*
1,1,0.0500,0.0000,0.0000*
1,1,0.0500,0.0000,0.0000*
1,1,0.0500,0.0000,0.0000*
%
%ADD115ROUNDEDRECTD115*%
%ADD116C,0.0098*%
%ADD117C,0.0050*%
%ADD118C,0.0000*%
%ADD119C,0.0060*%
%ADD120C,0.0079*%
%ADD121C,0.0040*%
%ADD122R,0.0120X0.0059*%
%ADD123R,0.0120X0.0060*%
%ADD124R,0.0120X0.0119*%
%ADD125R,0.0059X0.0120*%
%ADD126R,0.0060X0.0120*%
%ADD127R,0.0119X0.0120*%
%ADD128R,0.2450X0.0492*%
%ADD129R,0.0879X0.0295*%
%ADD130R,0.0295X0.0879*%
%ADD131R,0.0580X0.0100*%
%ADD132R,0.0100X0.0580*%
G04:AMPARAMS|DCode=133|XSize=9mil|YSize=29.5mil|CornerRadius=3.4mil|HoleSize=0mil|Usage=FLASHONLY|Rotation=180.000|XOffset=0mil|YOffset=0mil|HoleType=Round|Shape=RoundedRectangle|*
%AMROUNDEDRECTD133*
21,1,0.0090,0.0227,0,0,180.0*
21,1,0.0022,0.0295,0,0,180.0*
1,1,0.0068,-0.0011,0.0113*
1,1,0.0068,0.0011,0.0113*
1,1,0.0068,0.0011,-0.0113*
1,1,0.0068,-0.0011,-0.0113*
%
%ADD133ROUNDEDRECTD133*%
G04:AMPARAMS|DCode=134|XSize=9mil|YSize=29.5mil|CornerRadius=3.4mil|HoleSize=0mil|Usage=FLASHONLY|Rotation=270.000|XOffset=0mil|YOffset=0mil|HoleType=Round|Shape=RoundedRectangle|*
%AMROUNDEDRECTD134*
21,1,0.0090,0.0227,0,0,270.0*
21,1,0.0022,0.0295,0,0,270.0*
1,1,0.0068,-0.0113,-0.0011*
1,1,0.0068,-0.0113,0.0011*
1,1,0.0068,0.0113,0.0011*
1,1,0.0068,0.0113,-0.0011*
%
%ADD134ROUNDEDRECTD134*%
%ADD135R,0.0216X0.1299*%
%ADD136R,0.0460X0.0460*%
%ADD137R,0.0460X0.0460*%
%ADD138R,0.0400X0.0500*%
%ADD139R,0.0334X0.1279*%
%ADD140R,0.0220X0.0220*%
%ADD141R,0.1240X0.0610*%
%ADD142R,0.0382X0.0098*%
%ADD143R,0.0661X0.0728*%
%ADD144R,0.0340X0.0300*%
%ADD145R,0.1950X0.1680*%
%ADD146R,0.0260X0.0540*%
%ADD147R,0.0260X0.0180*%
%ADD148R,0.0180X0.0260*%
%ADD149R,0.0770X0.0770*%
%ADD150R,0.0770X0.0770*%
%ADD151R,0.0480X0.0130*%
G04:AMPARAMS|DCode=152|XSize=61mil|YSize=69mil|CornerRadius=14.8mil|HoleSize=0mil|Usage=FLASHONLY|Rotation=270.000|XOffset=0mil|YOffset=0mil|HoleType=Round|Shape=RoundedRectangle|*
%AMROUNDEDRECTD152*
21,1,0.0610,0.0395,0,0,270.0*
21,1,0.0315,0.0690,0,0,270.0*
1,1,0.0295,-0.0198,-0.0158*
1,1,0.0295,-0.0198,0.0158*
1,1,0.0295,0.0198,0.0158*
1,1,0.0295,0.0198,-0.0158*
%
%ADD152ROUNDEDRECTD152*%
G04:AMPARAMS|DCode=153|XSize=27.1mil|YSize=37.4mil|CornerRadius=4.8mil|HoleSize=0mil|Usage=FLASHONLY|Rotation=90.000|XOffset=0mil|YOffset=0mil|HoleType=Round|Shape=RoundedRectangle|*
%AMROUNDEDRECTD153*
21,1,0.0271,0.0277,0,0,90.0*
21,1,0.0175,0.0374,0,0,90.0*
1,1,0.0097,0.0139,0.0087*
1,1,0.0097,0.0139,-0.0087*
1,1,0.0097,-0.0139,-0.0087*
1,1,0.0097,-0.0139,0.0087*
%
%ADD153ROUNDEDRECTD153*%
G04:AMPARAMS|DCode=154|XSize=27.1mil|YSize=37.4mil|CornerRadius=4.8mil|HoleSize=0mil|Usage=FLASHONLY|Rotation=180.000|XOffset=0mil|YOffset=0mil|HoleType=Round|Shape=RoundedRectangle|*
%AMROUNDEDRECTD154*
21,1,0.0271,0.0277,0,0,180.0*
21,1,0.0175,0.0374,0,0,180.0*
1,1,0.0097,-0.0087,0.0139*
1,1,0.0097,0.0087,0.0139*
1,1,0.0097,0.0087,-0.0139*
1,1,0.0097,-0.0087,-0.0139*
%
%ADD154ROUNDEDRECTD154*%
G04:AMPARAMS|DCode=155|XSize=20mil|YSize=22mil|CornerRadius=3.4mil|HoleSize=0mil|Usage=FLASHONLY|Rotation=0.000|XOffset=0mil|YOffset=0mil|HoleType=Round|Shape=RoundedRectangle|*
%AMROUNDEDRECTD155*
21,1,0.0200,0.0152,0,0,0.0*
21,1,0.0132,0.0220,0,0,0.0*
1,1,0.0068,0.0066,-0.0076*
1,1,0.0068,-0.0066,-0.0076*
1,1,0.0068,-0.0066,0.0076*
1,1,0.0068,0.0066,0.0076*
%
%ADD155ROUNDEDRECTD155*%
G04:AMPARAMS|DCode=156|XSize=20mil|YSize=22mil|CornerRadius=3.4mil|HoleSize=0mil|Usage=FLASHONLY|Rotation=270.000|XOffset=0mil|YOffset=0mil|HoleType=Round|Shape=RoundedRectangle|*
%AMROUNDEDRECTD156*
21,1,0.0200,0.0152,0,0,270.0*
21,1,0.0132,0.0220,0,0,270.0*
1,1,0.0068,-0.0076,-0.0066*
1,1,0.0068,-0.0076,0.0066*
1,1,0.0068,0.0076,0.0066*
1,1,0.0068,0.0076,-0.0066*
%
%ADD156ROUNDEDRECTD156*%
%ADD157R,0.0523X0.0689*%
%ADD158R,0.0180X0.0240*%
%ADD159R,0.0413X0.0649*%
G04:AMPARAMS|DCode=160|XSize=50mil|YSize=58mil|CornerRadius=12mil|HoleSize=0mil|Usage=FLASHONLY|Rotation=180.000|XOffset=0mil|YOffset=0mil|HoleType=Round|Shape=RoundedRectangle|*
%AMROUNDEDRECTD160*
21,1,0.0500,0.0340,0,0,180.0*
21,1,0.0260,0.0580,0,0,180.0*
1,1,0.0240,-0.0130,0.0170*
1,1,0.0240,0.0130,0.0170*
1,1,0.0240,0.0130,-0.0170*
1,1,0.0240,-0.0130,-0.0170*
%
%ADD160ROUNDEDRECTD160*%
G04:AMPARAMS|DCode=161|XSize=50mil|YSize=58mil|CornerRadius=12mil|HoleSize=0mil|Usage=FLASHONLY|Rotation=270.000|XOffset=0mil|YOffset=0mil|HoleType=Round|Shape=RoundedRectangle|*
%AMROUNDEDRECTD161*
21,1,0.0500,0.0340,0,0,270.0*
21,1,0.0260,0.0580,0,0,270.0*
1,1,0.0240,-0.0170,-0.0130*
1,1,0.0240,-0.0170,0.0130*
1,1,0.0240,0.0170,0.0130*
1,1,0.0240,0.0170,-0.0130*
%
%ADD161ROUNDEDRECTD161*%
%ADD162R,0.1653X0.0445*%
G04:AMPARAMS|DCode=163|XSize=48mil|YSize=48mil|CornerRadius=24mil|HoleSize=0mil|Usage=FLASHONLY|Rotation=90.000|XOffset=0mil|YOffset=0mil|HoleType=Round|Shape=RoundedRectangle|*
%AMROUNDEDRECTD163*
21,1,0.0480,0.0000,0,0,90.0*
21,1,0.0000,0.0480,0,0,90.0*
1,1,0.0480,0.0000,0.0000*
1,1,0.0480,0.0000,0.0000*
1,1,0.0480,0.0000,0.0000*
1,1,0.0480,0.0000,0.0000*
%
%ADD163ROUNDEDRECTD163*%
G36*
X33278Y18709D02*
X33149D01*
X33051Y18808D01*
Y18890D01*
X33144Y18984D01*
X33278D01*
Y18709D01*
D02*
G37*
G36*
X32185Y18885D02*
Y18804D01*
X32092Y18709D01*
X31959D01*
Y18984D01*
X32088D01*
X32185Y18885D01*
D02*
G37*
G36*
X24397Y18404D02*
X24268D01*
X24171Y18503D01*
Y18585D01*
X24264Y18679D01*
X24397D01*
Y18404D01*
D02*
G37*
G36*
X14409Y18954D02*
Y18873D01*
X14316Y18778D01*
X14183D01*
Y19053D01*
X14312D01*
X14409Y18954D01*
D02*
G37*
G36*
X32943Y18886D02*
Y18807D01*
X32854Y18719D01*
X32756D01*
X32677Y18797D01*
Y18896D01*
X32766Y18984D01*
X32844D01*
X32943Y18886D01*
D02*
G37*
G36*
X32569D02*
Y18807D01*
X32480Y18719D01*
X32382D01*
X32303Y18797D01*
Y18896D01*
X32392Y18984D01*
X32470D01*
X32569Y18886D01*
D02*
G37*
G36*
X20011Y18404D02*
X19882D01*
X19785Y18503D01*
Y18585D01*
X19878Y18679D01*
X20011D01*
Y18404D01*
D02*
G37*
G36*
X19667Y18591D02*
Y18492D01*
X19578Y18404D01*
X19499D01*
X19401Y18502D01*
Y18581D01*
X19489Y18670D01*
X19588D01*
X19667Y18591D01*
D02*
G37*
G36*
X19293D02*
Y18492D01*
X19204Y18404D01*
X19125D01*
X19027Y18502D01*
Y18581D01*
X19115Y18670D01*
X19214D01*
X19293Y18591D01*
D02*
G37*
G36*
X24053D02*
Y18492D01*
X23964Y18404D01*
X23885D01*
X23787Y18502D01*
Y18581D01*
X23876Y18670D01*
X23974D01*
X24053Y18591D01*
D02*
G37*
G36*
X23679D02*
Y18492D01*
X23590Y18404D01*
X23511D01*
X23413Y18502D01*
Y18581D01*
X23502Y18670D01*
X23600D01*
X23679Y18591D01*
D02*
G37*
G36*
X23305Y18580D02*
Y18499D01*
X23211Y18404D01*
X23078D01*
Y18679D01*
X23207D01*
X23305Y18580D01*
D02*
G37*
G36*
X15502Y18778D02*
X15373D01*
X15276Y18877D01*
Y18959D01*
X15369Y19053D01*
X15502D01*
Y18778D01*
D02*
G37*
G36*
X23689Y18955D02*
Y18876D01*
X23600Y18788D01*
X23502D01*
X23423Y18866D01*
Y18965D01*
X23511Y19053D01*
X23590D01*
X23689Y18955D01*
D02*
G37*
G36*
X19676D02*
Y18876D01*
X19588Y18788D01*
X19489D01*
X19411Y18866D01*
Y18965D01*
X19499Y19053D01*
X19578D01*
X19676Y18955D01*
D02*
G37*
G36*
X19302D02*
Y18876D01*
X19214Y18788D01*
X19115D01*
X19037Y18866D01*
Y18965D01*
X19125Y19053D01*
X19204D01*
X19302Y18955D01*
D02*
G37*
G36*
X33278Y19073D02*
X33159D01*
X33031Y19201D01*
Y19319D01*
X33278D01*
Y19073D01*
D02*
G37*
G36*
X32205Y19201D02*
X32077Y19073D01*
X31959D01*
Y19319D01*
X32205D01*
Y19201D01*
D02*
G37*
G36*
X24063Y18955D02*
Y18876D01*
X23974Y18788D01*
X23876D01*
X23797Y18866D01*
Y18965D01*
X23885Y19053D01*
X23964D01*
X24063Y18955D01*
D02*
G37*
G36*
X23305Y18954D02*
Y18873D01*
X23211Y18778D01*
X23078D01*
Y19053D01*
X23207D01*
X23305Y18954D01*
D02*
G37*
G36*
X20011Y18778D02*
X19882D01*
X19785Y18877D01*
Y18959D01*
X19878Y19053D01*
X20011D01*
Y18778D01*
D02*
G37*
G36*
X18918Y18954D02*
Y18873D01*
X18825Y18778D01*
X18692D01*
Y19053D01*
X18821D01*
X18918Y18954D01*
D02*
G37*
G36*
X15167Y18955D02*
Y18876D01*
X15079Y18788D01*
X14980D01*
X14902Y18866D01*
Y18965D01*
X14990Y19053D01*
X15069D01*
X15167Y18955D01*
D02*
G37*
G36*
X14793D02*
Y18876D01*
X14705Y18788D01*
X14606D01*
X14528Y18866D01*
Y18965D01*
X14616Y19053D01*
X14695D01*
X14793Y18955D01*
D02*
G37*
G36*
X24397Y18778D02*
X24268D01*
X24171Y18877D01*
Y18959D01*
X24264Y19053D01*
X24397D01*
Y18778D01*
D02*
G37*
G36*
X18938Y18187D02*
Y18069D01*
X18692D01*
Y18315D01*
X18810D01*
X18938Y18187D01*
D02*
G37*
G36*
X15502Y18069D02*
X15256D01*
Y18187D01*
X15384Y18315D01*
X15502D01*
Y18069D01*
D02*
G37*
G36*
X15167Y18202D02*
Y18069D01*
X14892D01*
Y18198D01*
X14991Y18296D01*
X15073D01*
X15167Y18202D01*
D02*
G37*
G36*
X20011Y18069D02*
X19765D01*
Y18187D01*
X19893Y18315D01*
X20011D01*
Y18069D01*
D02*
G37*
G36*
X19676Y18202D02*
Y18069D01*
X19401D01*
Y18198D01*
X19500Y18296D01*
X19582D01*
X19676Y18202D01*
D02*
G37*
G36*
X19302Y18207D02*
Y18069D01*
X19027D01*
Y18197D01*
X19125Y18296D01*
X19214D01*
X19302Y18207D01*
D02*
G37*
G36*
X32943Y18133D02*
Y18000D01*
X32667D01*
Y18129D01*
X32766Y18227D01*
X32848D01*
X32943Y18133D01*
D02*
G37*
G36*
X32569Y18138D02*
Y18000D01*
X32293D01*
Y18128D01*
X32392Y18227D01*
X32480D01*
X32569Y18138D01*
D02*
G37*
G36*
X32205Y18118D02*
Y18000D01*
X31959D01*
Y18246D01*
X32077D01*
X32205Y18118D01*
D02*
G37*
G36*
X14793Y18207D02*
Y18069D01*
X14518D01*
Y18197D01*
X14616Y18296D01*
X14705D01*
X14793Y18207D01*
D02*
G37*
G36*
X14429Y18187D02*
Y18069D01*
X14183D01*
Y18315D01*
X14301D01*
X14429Y18187D01*
D02*
G37*
G36*
X33278Y18000D02*
X33031D01*
Y18118D01*
X33159Y18246D01*
X33278D01*
Y18000D01*
D02*
G37*
G36*
X23324Y18187D02*
Y18069D01*
X23078D01*
Y18315D01*
X23196D01*
X23324Y18187D01*
D02*
G37*
G36*
X14783Y18591D02*
Y18492D01*
X14695Y18404D01*
X14616D01*
X14518Y18502D01*
Y18581D01*
X14606Y18670D01*
X14705D01*
X14783Y18591D01*
D02*
G37*
G36*
X14409Y18580D02*
Y18499D01*
X14316Y18404D01*
X14183D01*
Y18679D01*
X14312D01*
X14409Y18580D01*
D02*
G37*
G36*
X33278Y18335D02*
X33149D01*
X33051Y18434D01*
Y18516D01*
X33144Y18610D01*
X33278D01*
Y18335D01*
D02*
G37*
G36*
X18918Y18580D02*
Y18499D01*
X18825Y18404D01*
X18692D01*
Y18679D01*
X18821D01*
X18918Y18580D01*
D02*
G37*
G36*
X15502Y18404D02*
X15373D01*
X15276Y18503D01*
Y18585D01*
X15369Y18679D01*
X15502D01*
Y18404D01*
D02*
G37*
G36*
X15157Y18591D02*
Y18492D01*
X15069Y18404D01*
X14990D01*
X14892Y18502D01*
Y18581D01*
X14980Y18670D01*
X15079D01*
X15157Y18591D01*
D02*
G37*
G36*
X24397Y18069D02*
X24151D01*
Y18187D01*
X24279Y18315D01*
X24397D01*
Y18069D01*
D02*
G37*
G36*
X24063Y18202D02*
Y18069D01*
X23787D01*
Y18198D01*
X23886Y18296D01*
X23968D01*
X24063Y18202D01*
D02*
G37*
G36*
X23689Y18207D02*
Y18069D01*
X23413D01*
Y18197D01*
X23511Y18296D01*
X23600D01*
X23689Y18207D01*
D02*
G37*
G36*
X32933Y18522D02*
Y18423D01*
X32844Y18335D01*
X32766D01*
X32667Y18433D01*
Y18512D01*
X32756Y18601D01*
X32854D01*
X32933Y18522D01*
D02*
G37*
G36*
X32559D02*
Y18423D01*
X32470Y18335D01*
X32392D01*
X32293Y18433D01*
Y18512D01*
X32382Y18601D01*
X32480D01*
X32559Y18522D01*
D02*
G37*
G36*
X32185Y18511D02*
Y18430D01*
X32092Y18335D01*
X31959D01*
Y18610D01*
X32088D01*
X32185Y18511D01*
D02*
G37*
G36*
X20093Y29599D02*
X19994Y29502D01*
X19913D01*
X19818Y29595D01*
Y29728D01*
X20093D01*
Y29599D01*
D02*
G37*
G36*
X19719D02*
X19620Y29502D01*
X19539D01*
X19444Y29595D01*
Y29728D01*
X19719D01*
Y29599D01*
D02*
G37*
G36*
X20428Y29482D02*
X20310D01*
X20182Y29610D01*
Y29728D01*
X20428D01*
Y29482D01*
D02*
G37*
G36*
X44071Y30164D02*
X44035Y30134D01*
X43886D01*
X43846Y30174D01*
Y30414D01*
X44071D01*
Y30164D01*
D02*
G37*
G36*
X45498Y29894D02*
X45398D01*
Y30414D01*
X45498D01*
Y29894D01*
D02*
G37*
G36*
X43677D02*
X43567D01*
Y30414D01*
X43677D01*
Y29894D01*
D02*
G37*
G36*
X20093Y29295D02*
Y29216D01*
X19995Y29118D01*
X19916D01*
X19828Y29206D01*
Y29305D01*
X19906Y29383D01*
X20005D01*
X20093Y29295D01*
D02*
G37*
G36*
X19335Y29295D02*
Y29206D01*
X19247Y29118D01*
X19109D01*
Y29393D01*
X19237D01*
X19335Y29295D01*
D02*
G37*
G36*
X45128Y28756D02*
X44998D01*
Y28803D01*
X45038Y28846D01*
X45128D01*
Y28756D01*
D02*
G37*
G36*
X19355Y29610D02*
X19227Y29482D01*
X19109D01*
Y29728D01*
X19355D01*
Y29610D01*
D02*
G37*
G36*
X19709Y29305D02*
Y29206D01*
X19631Y29128D01*
X19532D01*
X19444Y29216D01*
Y29295D01*
X19542Y29393D01*
X19621D01*
X19709Y29305D01*
D02*
G37*
G36*
X20428Y29118D02*
X20299D01*
X20202Y29217D01*
Y29299D01*
X20295Y29393D01*
X20428D01*
Y29118D01*
D02*
G37*
G36*
X44449Y30164D02*
X44413Y30134D01*
X44264D01*
X44224Y30174D01*
Y30414D01*
X44449D01*
Y30164D01*
D02*
G37*
G36*
X47654Y35754D02*
X47618Y35724D01*
X47469D01*
X47429Y35764D01*
Y36004D01*
X47654D01*
Y35754D01*
D02*
G37*
G36*
X49080Y35484D02*
X48980D01*
Y36004D01*
X49080D01*
Y35484D01*
D02*
G37*
G36*
X47260D02*
X47150D01*
Y36004D01*
X47260D01*
Y35484D01*
D02*
G37*
G36*
X48780Y35764D02*
X48750Y35724D01*
X48600D01*
X48560Y35764D01*
Y36004D01*
X48780D01*
Y35764D01*
D02*
G37*
G36*
X48410D02*
X48370Y35724D01*
X48230D01*
X48190Y35764D01*
Y36004D01*
X48410D01*
Y35764D01*
D02*
G37*
G36*
X48032Y35754D02*
X47996Y35724D01*
X47846D01*
X47807Y35764D01*
Y36004D01*
X48032D01*
Y35754D01*
D02*
G37*
G36*
X47657Y34394D02*
Y34346D01*
X47516D01*
Y34437D01*
X47614D01*
X47657Y34394D01*
D02*
G37*
G36*
X45198Y30174D02*
X45168Y30134D01*
X45018D01*
X44978Y30174D01*
Y30414D01*
X45198D01*
Y30174D01*
D02*
G37*
G36*
X44828D02*
X44788Y30134D01*
X44648D01*
X44608Y30174D01*
Y30414D01*
X44828D01*
Y30174D01*
D02*
G37*
G36*
X48710Y34346D02*
X48580D01*
Y34394D01*
X48620Y34437D01*
X48710D01*
Y34346D01*
D02*
G37*
G36*
X48410Y34398D02*
Y34346D01*
X48200D01*
Y34398D01*
X48240Y34433D01*
X48380D01*
X48410Y34398D01*
D02*
G37*
G36*
X48032D02*
Y34346D01*
X47819D01*
Y34398D01*
X47854Y34433D01*
X47996D01*
X48032Y34398D01*
D02*
G37*
G36*
X14793Y19259D02*
X14694Y19162D01*
X14613D01*
X14518Y19255D01*
Y19388D01*
X14793D01*
Y19259D01*
D02*
G37*
G36*
X24397Y19142D02*
X24279D01*
X24151Y19270D01*
Y19388D01*
X24397D01*
Y19142D01*
D02*
G37*
G36*
X23324Y19270D02*
X23196Y19142D01*
X23078D01*
Y19388D01*
X23324D01*
Y19270D01*
D02*
G37*
G36*
X19676Y19260D02*
X19578Y19162D01*
X19489D01*
X19401Y19250D01*
Y19388D01*
X19676D01*
Y19260D01*
D02*
G37*
G36*
X19302Y19259D02*
X19203Y19162D01*
X19122D01*
X19027Y19255D01*
Y19388D01*
X19302D01*
Y19259D01*
D02*
G37*
G36*
X15167Y19260D02*
X15069Y19162D01*
X14980D01*
X14892Y19250D01*
Y19388D01*
X15167D01*
Y19260D01*
D02*
G37*
G36*
X14429Y19270D02*
X14301Y19142D01*
X14183D01*
Y19388D01*
X14429D01*
Y19270D01*
D02*
G37*
G36*
X32943Y19191D02*
X32844Y19093D01*
X32756D01*
X32667Y19181D01*
Y19319D01*
X32943D01*
Y19191D01*
D02*
G37*
G36*
X32569Y19190D02*
X32470Y19093D01*
X32388D01*
X32293Y19186D01*
Y19319D01*
X32569D01*
Y19190D01*
D02*
G37*
G36*
X20011Y19142D02*
X19893D01*
X19765Y19270D01*
Y19388D01*
X20011D01*
Y19142D01*
D02*
G37*
G36*
X18938Y19270D02*
X18810Y19142D01*
X18692D01*
Y19388D01*
X18938D01*
Y19270D01*
D02*
G37*
G36*
X15502Y19142D02*
X15384D01*
X15256Y19270D01*
Y19388D01*
X15502D01*
Y19142D01*
D02*
G37*
G36*
X23689Y19259D02*
X23590Y19162D01*
X23508D01*
X23413Y19255D01*
Y19388D01*
X23689D01*
Y19259D01*
D02*
G37*
G36*
X19709Y28931D02*
Y28832D01*
X19631Y28754D01*
X19532D01*
X19444Y28842D01*
Y28921D01*
X19542Y29019D01*
X19621D01*
X19709Y28931D01*
D02*
G37*
G36*
X20428Y28744D02*
X20300D01*
X20202Y28842D01*
Y28931D01*
X20290Y29019D01*
X20428D01*
Y28744D01*
D02*
G37*
G36*
X20093Y28921D02*
Y28842D01*
X19995Y28744D01*
X19916D01*
X19828Y28832D01*
Y28931D01*
X19906Y29009D01*
X20005D01*
X20093Y28921D01*
D02*
G37*
G36*
X44828Y28807D02*
Y28756D01*
X44618D01*
Y28807D01*
X44658Y28843D01*
X44798D01*
X44828Y28807D01*
D02*
G37*
G36*
X44449D02*
Y28756D01*
X44236D01*
Y28807D01*
X44272Y28843D01*
X44413D01*
X44449Y28807D01*
D02*
G37*
G36*
X44075Y28803D02*
Y28756D01*
X43933D01*
Y28846D01*
X44032D01*
X44075Y28803D01*
D02*
G37*
G36*
X19719Y28542D02*
Y28409D01*
X19444D01*
Y28538D01*
X19543Y28635D01*
X19624D01*
X19719Y28542D01*
D02*
G37*
G36*
X19355Y28527D02*
Y28409D01*
X19109D01*
Y28655D01*
X19227D01*
X19355Y28527D01*
D02*
G37*
G36*
X24063Y19260D02*
X23964Y19162D01*
X23876D01*
X23787Y19250D01*
Y19388D01*
X24063D01*
Y19260D01*
D02*
G37*
G36*
X19335Y28920D02*
Y28839D01*
X19242Y28744D01*
X19109D01*
Y29019D01*
X19238D01*
X19335Y28920D01*
D02*
G37*
G36*
X20428Y28409D02*
X20182D01*
Y28527D01*
X20310Y28655D01*
X20428D01*
Y28409D01*
D02*
G37*
G36*
X20093Y28542D02*
Y28409D01*
X19818D01*
Y28538D01*
X19917Y28635D01*
X19999D01*
X20093Y28542D01*
D02*
G37*
G36*
X74656Y18709D02*
X74527D01*
X74429Y18808D01*
Y18890D01*
X74522Y18984D01*
X74656D01*
Y18709D01*
D02*
G37*
G36*
X73563Y18885D02*
Y18804D01*
X73470Y18709D01*
X73337D01*
Y18984D01*
X73465D01*
X73563Y18885D01*
D02*
G37*
G36*
X65775Y18404D02*
X65646D01*
X65549Y18503D01*
Y18585D01*
X65642Y18679D01*
X65775D01*
Y18404D01*
D02*
G37*
G36*
X55787Y18954D02*
Y18873D01*
X55694Y18778D01*
X55561D01*
Y19053D01*
X55690D01*
X55787Y18954D01*
D02*
G37*
G36*
X74321Y18886D02*
Y18807D01*
X74232Y18719D01*
X74134D01*
X74055Y18797D01*
Y18896D01*
X74144Y18984D01*
X74222D01*
X74321Y18886D01*
D02*
G37*
G36*
X73947D02*
Y18807D01*
X73858Y18719D01*
X73760D01*
X73681Y18797D01*
Y18896D01*
X73770Y18984D01*
X73848D01*
X73947Y18886D01*
D02*
G37*
G36*
X61389Y18404D02*
X61260D01*
X61163Y18503D01*
Y18585D01*
X61256Y18679D01*
X61389D01*
Y18404D01*
D02*
G37*
G36*
X61044Y18591D02*
Y18492D01*
X60956Y18404D01*
X60877D01*
X60779Y18502D01*
Y18581D01*
X60867Y18670D01*
X60966D01*
X61044Y18591D01*
D02*
G37*
G36*
X60670D02*
Y18492D01*
X60582Y18404D01*
X60503D01*
X60405Y18502D01*
Y18581D01*
X60493Y18670D01*
X60592D01*
X60670Y18591D01*
D02*
G37*
G36*
X65431D02*
Y18492D01*
X65342Y18404D01*
X65263D01*
X65165Y18502D01*
Y18581D01*
X65254Y18670D01*
X65352D01*
X65431Y18591D01*
D02*
G37*
G36*
X65057D02*
Y18492D01*
X64968Y18404D01*
X64889D01*
X64791Y18502D01*
Y18581D01*
X64880Y18670D01*
X64978D01*
X65057Y18591D01*
D02*
G37*
G36*
X64683Y18580D02*
Y18499D01*
X64589Y18404D01*
X64456D01*
Y18679D01*
X64585D01*
X64683Y18580D01*
D02*
G37*
G36*
X56880Y18778D02*
X56751D01*
X56654Y18877D01*
Y18959D01*
X56747Y19053D01*
X56880D01*
Y18778D01*
D02*
G37*
G36*
X65067Y18955D02*
Y18876D01*
X64978Y18788D01*
X64880D01*
X64801Y18866D01*
Y18965D01*
X64889Y19053D01*
X64968D01*
X65067Y18955D01*
D02*
G37*
G36*
X61054D02*
Y18876D01*
X60966Y18788D01*
X60867D01*
X60789Y18866D01*
Y18965D01*
X60877Y19053D01*
X60956D01*
X61054Y18955D01*
D02*
G37*
G36*
X60680D02*
Y18876D01*
X60592Y18788D01*
X60493D01*
X60415Y18866D01*
Y18965D01*
X60503Y19053D01*
X60582D01*
X60680Y18955D01*
D02*
G37*
G36*
X74656Y19073D02*
X74537D01*
X74409Y19201D01*
Y19319D01*
X74656D01*
Y19073D01*
D02*
G37*
G36*
X73583Y19201D02*
X73455Y19073D01*
X73337D01*
Y19319D01*
X73583D01*
Y19201D01*
D02*
G37*
G36*
X65441Y18955D02*
Y18876D01*
X65352Y18788D01*
X65254D01*
X65175Y18866D01*
Y18965D01*
X65263Y19053D01*
X65342D01*
X65441Y18955D01*
D02*
G37*
G36*
X64683Y18954D02*
Y18873D01*
X64589Y18778D01*
X64456D01*
Y19053D01*
X64585D01*
X64683Y18954D01*
D02*
G37*
G36*
X61389Y18778D02*
X61260D01*
X61163Y18877D01*
Y18959D01*
X61256Y19053D01*
X61389D01*
Y18778D01*
D02*
G37*
G36*
X60296Y18954D02*
Y18873D01*
X60203Y18778D01*
X60070D01*
Y19053D01*
X60199D01*
X60296Y18954D01*
D02*
G37*
G36*
X56545Y18955D02*
Y18876D01*
X56457Y18788D01*
X56358D01*
X56280Y18866D01*
Y18965D01*
X56368Y19053D01*
X56447D01*
X56545Y18955D01*
D02*
G37*
G36*
X56171D02*
Y18876D01*
X56083Y18788D01*
X55984D01*
X55906Y18866D01*
Y18965D01*
X55994Y19053D01*
X56073D01*
X56171Y18955D01*
D02*
G37*
G36*
X65775Y18778D02*
X65646D01*
X65549Y18877D01*
Y18959D01*
X65642Y19053D01*
X65775D01*
Y18778D01*
D02*
G37*
G36*
X60316Y18187D02*
Y18069D01*
X60070D01*
Y18315D01*
X60188D01*
X60316Y18187D01*
D02*
G37*
G36*
X56880Y18069D02*
X56634D01*
Y18187D01*
X56762Y18315D01*
X56880D01*
Y18069D01*
D02*
G37*
G36*
X56545Y18202D02*
Y18069D01*
X56270D01*
Y18198D01*
X56369Y18296D01*
X56450D01*
X56545Y18202D01*
D02*
G37*
G36*
X61389Y18069D02*
X61143D01*
Y18187D01*
X61271Y18315D01*
X61389D01*
Y18069D01*
D02*
G37*
G36*
X61054Y18202D02*
Y18069D01*
X60779D01*
Y18198D01*
X60878Y18296D01*
X60960D01*
X61054Y18202D01*
D02*
G37*
G36*
X60680Y18207D02*
Y18069D01*
X60405D01*
Y18197D01*
X60503Y18296D01*
X60592D01*
X60680Y18207D01*
D02*
G37*
G36*
X74321Y18133D02*
Y18000D01*
X74045D01*
Y18129D01*
X74144Y18227D01*
X74226D01*
X74321Y18133D01*
D02*
G37*
G36*
X73947Y18138D02*
Y18000D01*
X73671D01*
Y18128D01*
X73770Y18227D01*
X73858D01*
X73947Y18138D01*
D02*
G37*
G36*
X73583Y18118D02*
Y18000D01*
X73337D01*
Y18246D01*
X73455D01*
X73583Y18118D01*
D02*
G37*
G36*
X56171Y18207D02*
Y18069D01*
X55896D01*
Y18197D01*
X55994Y18296D01*
X56083D01*
X56171Y18207D01*
D02*
G37*
G36*
X55807Y18187D02*
Y18069D01*
X55561D01*
Y18315D01*
X55679D01*
X55807Y18187D01*
D02*
G37*
G36*
X74656Y18000D02*
X74409D01*
Y18118D01*
X74537Y18246D01*
X74656D01*
Y18000D01*
D02*
G37*
G36*
X64702Y18187D02*
Y18069D01*
X64456D01*
Y18315D01*
X64574D01*
X64702Y18187D01*
D02*
G37*
G36*
X56161Y18591D02*
Y18492D01*
X56073Y18404D01*
X55994D01*
X55896Y18502D01*
Y18581D01*
X55984Y18670D01*
X56083D01*
X56161Y18591D01*
D02*
G37*
G36*
X55787Y18580D02*
Y18499D01*
X55694Y18404D01*
X55561D01*
Y18679D01*
X55690D01*
X55787Y18580D01*
D02*
G37*
G36*
X74656Y18335D02*
X74527D01*
X74429Y18434D01*
Y18516D01*
X74522Y18610D01*
X74656D01*
Y18335D01*
D02*
G37*
G36*
X60296Y18580D02*
Y18499D01*
X60203Y18404D01*
X60070D01*
Y18679D01*
X60199D01*
X60296Y18580D01*
D02*
G37*
G36*
X56880Y18404D02*
X56751D01*
X56654Y18503D01*
Y18585D01*
X56747Y18679D01*
X56880D01*
Y18404D01*
D02*
G37*
G36*
X56535Y18591D02*
Y18492D01*
X56447Y18404D01*
X56368D01*
X56270Y18502D01*
Y18581D01*
X56358Y18670D01*
X56457D01*
X56535Y18591D01*
D02*
G37*
G36*
X65775Y18069D02*
X65529D01*
Y18187D01*
X65657Y18315D01*
X65775D01*
Y18069D01*
D02*
G37*
G36*
X65441Y18202D02*
Y18069D01*
X65165D01*
Y18198D01*
X65264Y18296D01*
X65346D01*
X65441Y18202D01*
D02*
G37*
G36*
X65067Y18207D02*
Y18069D01*
X64791D01*
Y18197D01*
X64889Y18296D01*
X64978D01*
X65067Y18207D01*
D02*
G37*
G36*
X74311Y18522D02*
Y18423D01*
X74222Y18335D01*
X74144D01*
X74045Y18433D01*
Y18512D01*
X74134Y18601D01*
X74232D01*
X74311Y18522D01*
D02*
G37*
G36*
X73937D02*
Y18423D01*
X73848Y18335D01*
X73770D01*
X73671Y18433D01*
Y18512D01*
X73760Y18601D01*
X73858D01*
X73937Y18522D01*
D02*
G37*
G36*
X73563Y18511D02*
Y18430D01*
X73470Y18335D01*
X73337D01*
Y18610D01*
X73465D01*
X73563Y18511D01*
D02*
G37*
G36*
X61471Y29599D02*
X61372Y29502D01*
X61290D01*
X61196Y29595D01*
Y29728D01*
X61471D01*
Y29599D01*
D02*
G37*
G36*
X61097D02*
X60998Y29502D01*
X60916D01*
X60822Y29595D01*
Y29728D01*
X61097D01*
Y29599D01*
D02*
G37*
G36*
X61806Y29482D02*
X61688D01*
X61560Y29610D01*
Y29728D01*
X61806D01*
Y29482D01*
D02*
G37*
G36*
X85449Y30164D02*
X85413Y30134D01*
X85264D01*
X85224Y30174D01*
Y30414D01*
X85449D01*
Y30164D01*
D02*
G37*
G36*
X86876Y29894D02*
X86776D01*
Y30414D01*
X86876D01*
Y29894D01*
D02*
G37*
G36*
X85055D02*
X84945D01*
Y30414D01*
X85055D01*
Y29894D01*
D02*
G37*
G36*
X61471Y29295D02*
Y29216D01*
X61373Y29118D01*
X61294D01*
X61206Y29206D01*
Y29305D01*
X61284Y29383D01*
X61383D01*
X61471Y29295D01*
D02*
G37*
G36*
X60713Y29295D02*
Y29206D01*
X60625Y29118D01*
X60487D01*
Y29393D01*
X60615D01*
X60713Y29295D01*
D02*
G37*
G36*
X86506Y28756D02*
X86376D01*
Y28803D01*
X86416Y28846D01*
X86506D01*
Y28756D01*
D02*
G37*
G36*
X60733Y29610D02*
X60605Y29482D01*
X60487D01*
Y29728D01*
X60733D01*
Y29610D01*
D02*
G37*
G36*
X61087Y29305D02*
Y29206D01*
X61009Y29128D01*
X60910D01*
X60822Y29216D01*
Y29295D01*
X60920Y29393D01*
X60999D01*
X61087Y29305D01*
D02*
G37*
G36*
X61806Y29118D02*
X61677D01*
X61580Y29217D01*
Y29299D01*
X61673Y29393D01*
X61806D01*
Y29118D01*
D02*
G37*
G36*
X85827Y30164D02*
X85791Y30134D01*
X85642D01*
X85602Y30174D01*
Y30414D01*
X85827D01*
Y30164D01*
D02*
G37*
G36*
X89031Y35754D02*
X88996Y35724D01*
X88846D01*
X88807Y35764D01*
Y36004D01*
X89031D01*
Y35754D01*
D02*
G37*
G36*
X90458Y35484D02*
X90358D01*
Y36004D01*
X90458D01*
Y35484D01*
D02*
G37*
G36*
X88638D02*
X88528D01*
Y36004D01*
X88638D01*
Y35484D01*
D02*
G37*
G36*
X90158Y35764D02*
X90128Y35724D01*
X89978D01*
X89938Y35764D01*
Y36004D01*
X90158D01*
Y35764D01*
D02*
G37*
G36*
X89788D02*
X89748Y35724D01*
X89608D01*
X89568Y35764D01*
Y36004D01*
X89788D01*
Y35764D01*
D02*
G37*
G36*
X89409Y35754D02*
X89374Y35724D01*
X89224D01*
X89185Y35764D01*
Y36004D01*
X89409D01*
Y35754D01*
D02*
G37*
G36*
X89035Y34394D02*
Y34346D01*
X88894D01*
Y34437D01*
X88992D01*
X89035Y34394D01*
D02*
G37*
G36*
X86576Y30174D02*
X86546Y30134D01*
X86396D01*
X86356Y30174D01*
Y30414D01*
X86576D01*
Y30174D01*
D02*
G37*
G36*
X86206D02*
X86166Y30134D01*
X86026D01*
X85986Y30174D01*
Y30414D01*
X86206D01*
Y30174D01*
D02*
G37*
G36*
X90088Y34346D02*
X89958D01*
Y34394D01*
X89998Y34437D01*
X90088D01*
Y34346D01*
D02*
G37*
G36*
X89788Y34398D02*
Y34346D01*
X89578D01*
Y34398D01*
X89618Y34433D01*
X89758D01*
X89788Y34398D01*
D02*
G37*
G36*
X89409D02*
Y34346D01*
X89197D01*
Y34398D01*
X89232Y34433D01*
X89374D01*
X89409Y34398D01*
D02*
G37*
G36*
X56171Y19259D02*
X56072Y19162D01*
X55990D01*
X55896Y19255D01*
Y19388D01*
X56171D01*
Y19259D01*
D02*
G37*
G36*
X65775Y19142D02*
X65657D01*
X65529Y19270D01*
Y19388D01*
X65775D01*
Y19142D01*
D02*
G37*
G36*
X64702Y19270D02*
X64574Y19142D01*
X64456D01*
Y19388D01*
X64702D01*
Y19270D01*
D02*
G37*
G36*
X61054Y19260D02*
X60956Y19162D01*
X60867D01*
X60779Y19250D01*
Y19388D01*
X61054D01*
Y19260D01*
D02*
G37*
G36*
X60680Y19259D02*
X60581Y19162D01*
X60500D01*
X60405Y19255D01*
Y19388D01*
X60680D01*
Y19259D01*
D02*
G37*
G36*
X56545Y19260D02*
X56447Y19162D01*
X56358D01*
X56270Y19250D01*
Y19388D01*
X56545D01*
Y19260D01*
D02*
G37*
G36*
X55807Y19270D02*
X55679Y19142D01*
X55561D01*
Y19388D01*
X55807D01*
Y19270D01*
D02*
G37*
G36*
X74321Y19191D02*
X74222Y19093D01*
X74134D01*
X74045Y19181D01*
Y19319D01*
X74321D01*
Y19191D01*
D02*
G37*
G36*
X73947Y19190D02*
X73848Y19093D01*
X73766D01*
X73671Y19186D01*
Y19319D01*
X73947D01*
Y19190D01*
D02*
G37*
G36*
X61389Y19142D02*
X61271D01*
X61143Y19270D01*
Y19388D01*
X61389D01*
Y19142D01*
D02*
G37*
G36*
X60316Y19270D02*
X60188Y19142D01*
X60070D01*
Y19388D01*
X60316D01*
Y19270D01*
D02*
G37*
G36*
X56880Y19142D02*
X56762D01*
X56634Y19270D01*
Y19388D01*
X56880D01*
Y19142D01*
D02*
G37*
G36*
X65067Y19259D02*
X64967Y19162D01*
X64886D01*
X64791Y19255D01*
Y19388D01*
X65067D01*
Y19259D01*
D02*
G37*
G36*
X61087Y28931D02*
Y28832D01*
X61009Y28754D01*
X60910D01*
X60822Y28842D01*
Y28921D01*
X60920Y29019D01*
X60999D01*
X61087Y28931D01*
D02*
G37*
G36*
X61806Y28744D02*
X61678D01*
X61580Y28842D01*
Y28931D01*
X61668Y29019D01*
X61806D01*
Y28744D01*
D02*
G37*
G36*
X61471Y28921D02*
Y28842D01*
X61373Y28744D01*
X61294D01*
X61206Y28832D01*
Y28931D01*
X61284Y29009D01*
X61383D01*
X61471Y28921D01*
D02*
G37*
G36*
X86206Y28807D02*
Y28756D01*
X85996D01*
Y28807D01*
X86036Y28843D01*
X86176D01*
X86206Y28807D01*
D02*
G37*
G36*
X85827D02*
Y28756D01*
X85614D01*
Y28807D01*
X85650Y28843D01*
X85791D01*
X85827Y28807D01*
D02*
G37*
G36*
X85453Y28803D02*
Y28756D01*
X85311D01*
Y28846D01*
X85409D01*
X85453Y28803D01*
D02*
G37*
G36*
X61097Y28542D02*
Y28409D01*
X60822D01*
Y28538D01*
X60921Y28635D01*
X61002D01*
X61097Y28542D01*
D02*
G37*
G36*
X60733Y28527D02*
Y28409D01*
X60487D01*
Y28655D01*
X60605D01*
X60733Y28527D01*
D02*
G37*
G36*
X65441Y19260D02*
X65342Y19162D01*
X65254D01*
X65165Y19250D01*
Y19388D01*
X65441D01*
Y19260D01*
D02*
G37*
G36*
X60713Y28920D02*
Y28839D01*
X60620Y28744D01*
X60487D01*
Y29019D01*
X60616D01*
X60713Y28920D01*
D02*
G37*
G36*
X61806Y28409D02*
X61560D01*
Y28527D01*
X61688Y28655D01*
X61806D01*
Y28409D01*
D02*
G37*
G36*
X61471Y28542D02*
Y28409D01*
X61196D01*
Y28538D01*
X61295Y28635D01*
X61376D01*
X61471Y28542D01*
D02*
G37*
G36*
X33278Y46701D02*
X33149D01*
X33051Y46800D01*
Y46882D01*
X33144Y46977D01*
X33278D01*
Y46701D01*
D02*
G37*
G36*
X32185Y46878D02*
Y46796D01*
X32092Y46701D01*
X31959D01*
Y46977D01*
X32088D01*
X32185Y46878D01*
D02*
G37*
G36*
X24397Y46396D02*
X24268D01*
X24171Y46495D01*
Y46577D01*
X24264Y46672D01*
X24397D01*
Y46396D01*
D02*
G37*
G36*
X14409Y46946D02*
Y46865D01*
X14316Y46770D01*
X14183D01*
Y47046D01*
X14312D01*
X14409Y46946D01*
D02*
G37*
G36*
X32943Y46878D02*
Y46799D01*
X32854Y46711D01*
X32756D01*
X32677Y46790D01*
Y46888D01*
X32766Y46977D01*
X32844D01*
X32943Y46878D01*
D02*
G37*
G36*
X32569D02*
Y46799D01*
X32480Y46711D01*
X32382D01*
X32303Y46790D01*
Y46888D01*
X32392Y46977D01*
X32470D01*
X32569Y46878D01*
D02*
G37*
G36*
X20011Y46396D02*
X19882D01*
X19785Y46495D01*
Y46577D01*
X19878Y46672D01*
X20011D01*
Y46396D01*
D02*
G37*
G36*
X19667Y46583D02*
Y46484D01*
X19578Y46396D01*
X19499D01*
X19401Y46494D01*
Y46573D01*
X19489Y46662D01*
X19588D01*
X19667Y46583D01*
D02*
G37*
G36*
X19293D02*
Y46484D01*
X19204Y46396D01*
X19125D01*
X19027Y46494D01*
Y46573D01*
X19115Y46662D01*
X19214D01*
X19293Y46583D01*
D02*
G37*
G36*
X24053D02*
Y46484D01*
X23964Y46396D01*
X23885D01*
X23787Y46494D01*
Y46573D01*
X23876Y46662D01*
X23974D01*
X24053Y46583D01*
D02*
G37*
G36*
X23679D02*
Y46484D01*
X23590Y46396D01*
X23511D01*
X23413Y46494D01*
Y46573D01*
X23502Y46662D01*
X23600D01*
X23679Y46583D01*
D02*
G37*
G36*
X23305Y46572D02*
Y46491D01*
X23211Y46396D01*
X23078D01*
Y46672D01*
X23207D01*
X23305Y46572D01*
D02*
G37*
G36*
X15502Y46770D02*
X15373D01*
X15276Y46869D01*
Y46951D01*
X15369Y47046D01*
X15502D01*
Y46770D01*
D02*
G37*
G36*
X23689Y46947D02*
Y46868D01*
X23600Y46780D01*
X23502D01*
X23423Y46859D01*
Y46957D01*
X23511Y47046D01*
X23590D01*
X23689Y46947D01*
D02*
G37*
G36*
X19676D02*
Y46868D01*
X19588Y46780D01*
X19489D01*
X19411Y46859D01*
Y46957D01*
X19499Y47046D01*
X19578D01*
X19676Y46947D01*
D02*
G37*
G36*
X19302D02*
Y46868D01*
X19214Y46780D01*
X19115D01*
X19037Y46859D01*
Y46957D01*
X19125Y47046D01*
X19204D01*
X19302Y46947D01*
D02*
G37*
G36*
X33278Y47065D02*
X33159D01*
X33031Y47193D01*
Y47311D01*
X33278D01*
Y47065D01*
D02*
G37*
G36*
X32205Y47193D02*
X32077Y47065D01*
X31959D01*
Y47311D01*
X32205D01*
Y47193D01*
D02*
G37*
G36*
X24063Y46947D02*
Y46868D01*
X23974Y46780D01*
X23876D01*
X23797Y46859D01*
Y46957D01*
X23885Y47046D01*
X23964D01*
X24063Y46947D01*
D02*
G37*
G36*
X23305Y46946D02*
Y46865D01*
X23211Y46770D01*
X23078D01*
Y47046D01*
X23207D01*
X23305Y46946D01*
D02*
G37*
G36*
X20011Y46770D02*
X19882D01*
X19785Y46869D01*
Y46951D01*
X19878Y47046D01*
X20011D01*
Y46770D01*
D02*
G37*
G36*
X18918Y46946D02*
Y46865D01*
X18825Y46770D01*
X18692D01*
Y47046D01*
X18821D01*
X18918Y46946D01*
D02*
G37*
G36*
X15167Y46947D02*
Y46868D01*
X15079Y46780D01*
X14980D01*
X14902Y46859D01*
Y46957D01*
X14990Y47046D01*
X15069D01*
X15167Y46947D01*
D02*
G37*
G36*
X14793D02*
Y46868D01*
X14705Y46780D01*
X14606D01*
X14528Y46859D01*
Y46957D01*
X14616Y47046D01*
X14695D01*
X14793Y46947D01*
D02*
G37*
G36*
X24397Y46770D02*
X24268D01*
X24171Y46869D01*
Y46951D01*
X24264Y47046D01*
X24397D01*
Y46770D01*
D02*
G37*
G36*
X18938Y46179D02*
Y46061D01*
X18692D01*
Y46307D01*
X18810D01*
X18938Y46179D01*
D02*
G37*
G36*
X15502Y46061D02*
X15256D01*
Y46179D01*
X15384Y46307D01*
X15502D01*
Y46061D01*
D02*
G37*
G36*
X15167Y46194D02*
Y46061D01*
X14892D01*
Y46190D01*
X14991Y46288D01*
X15073D01*
X15167Y46194D01*
D02*
G37*
G36*
X20011Y46061D02*
X19765D01*
Y46179D01*
X19893Y46307D01*
X20011D01*
Y46061D01*
D02*
G37*
G36*
X19676Y46194D02*
Y46061D01*
X19401D01*
Y46190D01*
X19500Y46288D01*
X19582D01*
X19676Y46194D01*
D02*
G37*
G36*
X19302Y46199D02*
Y46061D01*
X19027D01*
Y46189D01*
X19125Y46288D01*
X19214D01*
X19302Y46199D01*
D02*
G37*
G36*
X32943Y46125D02*
Y45992D01*
X32667D01*
Y46121D01*
X32766Y46219D01*
X32848D01*
X32943Y46125D01*
D02*
G37*
G36*
X32569Y46130D02*
Y45992D01*
X32293D01*
Y46120D01*
X32392Y46219D01*
X32480D01*
X32569Y46130D01*
D02*
G37*
G36*
X32205Y46110D02*
Y45992D01*
X31959D01*
Y46238D01*
X32077D01*
X32205Y46110D01*
D02*
G37*
G36*
X14793Y46199D02*
Y46061D01*
X14518D01*
Y46189D01*
X14616Y46288D01*
X14705D01*
X14793Y46199D01*
D02*
G37*
G36*
X14429Y46179D02*
Y46061D01*
X14183D01*
Y46307D01*
X14301D01*
X14429Y46179D01*
D02*
G37*
G36*
X33278Y45992D02*
X33031D01*
Y46110D01*
X33159Y46238D01*
X33278D01*
Y45992D01*
D02*
G37*
G36*
X23324Y46179D02*
Y46061D01*
X23078D01*
Y46307D01*
X23196D01*
X23324Y46179D01*
D02*
G37*
G36*
X14783Y46583D02*
Y46484D01*
X14695Y46396D01*
X14616D01*
X14518Y46494D01*
Y46573D01*
X14606Y46662D01*
X14705D01*
X14783Y46583D01*
D02*
G37*
G36*
X14409Y46572D02*
Y46491D01*
X14316Y46396D01*
X14183D01*
Y46672D01*
X14312D01*
X14409Y46572D01*
D02*
G37*
G36*
X33278Y46327D02*
X33149D01*
X33051Y46426D01*
Y46508D01*
X33144Y46603D01*
X33278D01*
Y46327D01*
D02*
G37*
G36*
X18918Y46572D02*
Y46491D01*
X18825Y46396D01*
X18692D01*
Y46672D01*
X18821D01*
X18918Y46572D01*
D02*
G37*
G36*
X15502Y46396D02*
X15373D01*
X15276Y46495D01*
Y46577D01*
X15369Y46672D01*
X15502D01*
Y46396D01*
D02*
G37*
G36*
X15157Y46583D02*
Y46484D01*
X15069Y46396D01*
X14990D01*
X14892Y46494D01*
Y46573D01*
X14980Y46662D01*
X15079D01*
X15157Y46583D01*
D02*
G37*
G36*
X24397Y46061D02*
X24151D01*
Y46179D01*
X24279Y46307D01*
X24397D01*
Y46061D01*
D02*
G37*
G36*
X24063Y46194D02*
Y46061D01*
X23787D01*
Y46190D01*
X23886Y46288D01*
X23968D01*
X24063Y46194D01*
D02*
G37*
G36*
X23689Y46199D02*
Y46061D01*
X23413D01*
Y46189D01*
X23511Y46288D01*
X23600D01*
X23689Y46199D01*
D02*
G37*
G36*
X32933Y46514D02*
Y46416D01*
X32844Y46327D01*
X32766D01*
X32667Y46425D01*
Y46504D01*
X32756Y46593D01*
X32854D01*
X32933Y46514D01*
D02*
G37*
G36*
X32559D02*
Y46416D01*
X32470Y46327D01*
X32392D01*
X32293Y46425D01*
Y46504D01*
X32382Y46593D01*
X32480D01*
X32559Y46514D01*
D02*
G37*
G36*
X32185Y46504D02*
Y46422D01*
X32092Y46327D01*
X31959D01*
Y46603D01*
X32088D01*
X32185Y46504D01*
D02*
G37*
G36*
X20093Y57591D02*
X19994Y57494D01*
X19913D01*
X19818Y57587D01*
Y57720D01*
X20093D01*
Y57591D01*
D02*
G37*
G36*
X19719D02*
X19620Y57494D01*
X19539D01*
X19444Y57587D01*
Y57720D01*
X19719D01*
Y57591D01*
D02*
G37*
G36*
X20428Y57474D02*
X20310D01*
X20182Y57602D01*
Y57720D01*
X20428D01*
Y57474D01*
D02*
G37*
G36*
X44071Y58156D02*
X44035Y58126D01*
X43886D01*
X43846Y58166D01*
Y58406D01*
X44071D01*
Y58156D01*
D02*
G37*
G36*
X45498Y57886D02*
X45398D01*
Y58406D01*
X45498D01*
Y57886D01*
D02*
G37*
G36*
X43677D02*
X43567D01*
Y58406D01*
X43677D01*
Y57886D01*
D02*
G37*
G36*
X20093Y57287D02*
Y57208D01*
X19995Y57110D01*
X19916D01*
X19828Y57198D01*
Y57297D01*
X19906Y57376D01*
X20005D01*
X20093Y57287D01*
D02*
G37*
G36*
X19335Y57287D02*
Y57198D01*
X19247Y57110D01*
X19109D01*
Y57385D01*
X19237D01*
X19335Y57287D01*
D02*
G37*
G36*
X45128Y56748D02*
X44998D01*
Y56795D01*
X45038Y56839D01*
X45128D01*
Y56748D01*
D02*
G37*
G36*
X19355Y57602D02*
X19227Y57474D01*
X19109D01*
Y57720D01*
X19355D01*
Y57602D01*
D02*
G37*
G36*
X19709Y57297D02*
Y57198D01*
X19631Y57120D01*
X19532D01*
X19444Y57208D01*
Y57287D01*
X19542Y57385D01*
X19621D01*
X19709Y57297D01*
D02*
G37*
G36*
X20428Y57110D02*
X20299D01*
X20202Y57209D01*
Y57291D01*
X20295Y57385D01*
X20428D01*
Y57110D01*
D02*
G37*
G36*
X44449Y58156D02*
X44413Y58126D01*
X44264D01*
X44224Y58166D01*
Y58406D01*
X44449D01*
Y58156D01*
D02*
G37*
G36*
X47654Y63747D02*
X47618Y63717D01*
X47469D01*
X47429Y63757D01*
Y63997D01*
X47654D01*
Y63747D01*
D02*
G37*
G36*
X49080Y63477D02*
X48980D01*
Y63997D01*
X49080D01*
Y63477D01*
D02*
G37*
G36*
X47260D02*
X47150D01*
Y63997D01*
X47260D01*
Y63477D01*
D02*
G37*
G36*
X48780Y63757D02*
X48750Y63717D01*
X48600D01*
X48560Y63757D01*
Y63997D01*
X48780D01*
Y63757D01*
D02*
G37*
G36*
X48410D02*
X48370Y63717D01*
X48230D01*
X48190Y63757D01*
Y63997D01*
X48410D01*
Y63757D01*
D02*
G37*
G36*
X48032Y63747D02*
X47996Y63717D01*
X47846D01*
X47807Y63757D01*
Y63997D01*
X48032D01*
Y63747D01*
D02*
G37*
G36*
X47657Y62386D02*
Y62339D01*
X47516D01*
Y62429D01*
X47614D01*
X47657Y62386D01*
D02*
G37*
G36*
X45198Y58166D02*
X45168Y58126D01*
X45018D01*
X44978Y58166D01*
Y58406D01*
X45198D01*
Y58166D01*
D02*
G37*
G36*
X44828D02*
X44788Y58126D01*
X44648D01*
X44608Y58166D01*
Y58406D01*
X44828D01*
Y58166D01*
D02*
G37*
G36*
X48710Y62339D02*
X48580D01*
Y62386D01*
X48620Y62429D01*
X48710D01*
Y62339D01*
D02*
G37*
G36*
X48410Y62390D02*
Y62339D01*
X48200D01*
Y62390D01*
X48240Y62425D01*
X48380D01*
X48410Y62390D01*
D02*
G37*
G36*
X48032D02*
Y62339D01*
X47819D01*
Y62390D01*
X47854Y62425D01*
X47996D01*
X48032Y62390D01*
D02*
G37*
G36*
X14793Y47251D02*
X14694Y47154D01*
X14613D01*
X14518Y47247D01*
Y47380D01*
X14793D01*
Y47251D01*
D02*
G37*
G36*
X24397Y47134D02*
X24279D01*
X24151Y47262D01*
Y47380D01*
X24397D01*
Y47134D01*
D02*
G37*
G36*
X23324Y47262D02*
X23196Y47134D01*
X23078D01*
Y47380D01*
X23324D01*
Y47262D01*
D02*
G37*
G36*
X19676Y47252D02*
X19578Y47154D01*
X19489D01*
X19401Y47242D01*
Y47380D01*
X19676D01*
Y47252D01*
D02*
G37*
G36*
X19302Y47251D02*
X19203Y47154D01*
X19122D01*
X19027Y47247D01*
Y47380D01*
X19302D01*
Y47251D01*
D02*
G37*
G36*
X15167Y47252D02*
X15069Y47154D01*
X14980D01*
X14892Y47242D01*
Y47380D01*
X15167D01*
Y47252D01*
D02*
G37*
G36*
X14429Y47262D02*
X14301Y47134D01*
X14183D01*
Y47380D01*
X14429D01*
Y47262D01*
D02*
G37*
G36*
X32943Y47183D02*
X32844Y47085D01*
X32756D01*
X32667Y47173D01*
Y47311D01*
X32943D01*
Y47183D01*
D02*
G37*
G36*
X32569Y47182D02*
X32470Y47085D01*
X32388D01*
X32293Y47178D01*
Y47311D01*
X32569D01*
Y47182D01*
D02*
G37*
G36*
X20011Y47134D02*
X19893D01*
X19765Y47262D01*
Y47380D01*
X20011D01*
Y47134D01*
D02*
G37*
G36*
X18938Y47262D02*
X18810Y47134D01*
X18692D01*
Y47380D01*
X18938D01*
Y47262D01*
D02*
G37*
G36*
X15502Y47134D02*
X15384D01*
X15256Y47262D01*
Y47380D01*
X15502D01*
Y47134D01*
D02*
G37*
G36*
X23689Y47251D02*
X23590Y47154D01*
X23508D01*
X23413Y47247D01*
Y47380D01*
X23689D01*
Y47251D01*
D02*
G37*
G36*
X19709Y56923D02*
Y56824D01*
X19631Y56746D01*
X19532D01*
X19444Y56834D01*
Y56913D01*
X19542Y57011D01*
X19621D01*
X19709Y56923D01*
D02*
G37*
G36*
X20428Y56736D02*
X20300D01*
X20202Y56834D01*
Y56923D01*
X20290Y57011D01*
X20428D01*
Y56736D01*
D02*
G37*
G36*
X20093Y56913D02*
Y56834D01*
X19995Y56736D01*
X19916D01*
X19828Y56824D01*
Y56923D01*
X19906Y57002D01*
X20005D01*
X20093Y56913D01*
D02*
G37*
G36*
X44828Y56799D02*
Y56748D01*
X44618D01*
Y56799D01*
X44658Y56835D01*
X44798D01*
X44828Y56799D01*
D02*
G37*
G36*
X44449D02*
Y56748D01*
X44236D01*
Y56799D01*
X44272Y56835D01*
X44413D01*
X44449Y56799D01*
D02*
G37*
G36*
X44075Y56795D02*
Y56748D01*
X43933D01*
Y56839D01*
X44032D01*
X44075Y56795D01*
D02*
G37*
G36*
X19719Y56534D02*
Y56401D01*
X19444D01*
Y56530D01*
X19543Y56628D01*
X19624D01*
X19719Y56534D01*
D02*
G37*
G36*
X19355Y56519D02*
Y56401D01*
X19109D01*
Y56647D01*
X19227D01*
X19355Y56519D01*
D02*
G37*
G36*
X24063Y47252D02*
X23964Y47154D01*
X23876D01*
X23787Y47242D01*
Y47380D01*
X24063D01*
Y47252D01*
D02*
G37*
G36*
X19335Y56912D02*
Y56831D01*
X19242Y56736D01*
X19109D01*
Y57011D01*
X19238D01*
X19335Y56912D01*
D02*
G37*
G36*
X20428Y56401D02*
X20182D01*
Y56519D01*
X20310Y56647D01*
X20428D01*
Y56401D01*
D02*
G37*
G36*
X20093Y56534D02*
Y56401D01*
X19818D01*
Y56530D01*
X19917Y56628D01*
X19999D01*
X20093Y56534D01*
D02*
G37*
G36*
X74656Y46701D02*
X74527D01*
X74429Y46800D01*
Y46882D01*
X74522Y46977D01*
X74656D01*
Y46701D01*
D02*
G37*
G36*
X73563Y46878D02*
Y46796D01*
X73470Y46701D01*
X73337D01*
Y46977D01*
X73465D01*
X73563Y46878D01*
D02*
G37*
G36*
X65775Y46396D02*
X65646D01*
X65549Y46495D01*
Y46577D01*
X65642Y46672D01*
X65775D01*
Y46396D01*
D02*
G37*
G36*
X55787Y46946D02*
Y46865D01*
X55694Y46770D01*
X55561D01*
Y47046D01*
X55690D01*
X55787Y46946D01*
D02*
G37*
G36*
X74321Y46878D02*
Y46799D01*
X74232Y46711D01*
X74134D01*
X74055Y46790D01*
Y46888D01*
X74144Y46977D01*
X74222D01*
X74321Y46878D01*
D02*
G37*
G36*
X73947D02*
Y46799D01*
X73858Y46711D01*
X73760D01*
X73681Y46790D01*
Y46888D01*
X73770Y46977D01*
X73848D01*
X73947Y46878D01*
D02*
G37*
G36*
X61389Y46396D02*
X61260D01*
X61163Y46495D01*
Y46577D01*
X61256Y46672D01*
X61389D01*
Y46396D01*
D02*
G37*
G36*
X61044Y46583D02*
Y46484D01*
X60956Y46396D01*
X60877D01*
X60779Y46494D01*
Y46573D01*
X60867Y46662D01*
X60966D01*
X61044Y46583D01*
D02*
G37*
G36*
X60670D02*
Y46484D01*
X60582Y46396D01*
X60503D01*
X60405Y46494D01*
Y46573D01*
X60493Y46662D01*
X60592D01*
X60670Y46583D01*
D02*
G37*
G36*
X65431D02*
Y46484D01*
X65342Y46396D01*
X65263D01*
X65165Y46494D01*
Y46573D01*
X65254Y46662D01*
X65352D01*
X65431Y46583D01*
D02*
G37*
G36*
X65057D02*
Y46484D01*
X64968Y46396D01*
X64889D01*
X64791Y46494D01*
Y46573D01*
X64880Y46662D01*
X64978D01*
X65057Y46583D01*
D02*
G37*
G36*
X64683Y46572D02*
Y46491D01*
X64589Y46396D01*
X64456D01*
Y46672D01*
X64585D01*
X64683Y46572D01*
D02*
G37*
G36*
X56880Y46770D02*
X56751D01*
X56654Y46869D01*
Y46951D01*
X56747Y47046D01*
X56880D01*
Y46770D01*
D02*
G37*
G36*
X65067Y46947D02*
Y46868D01*
X64978Y46780D01*
X64880D01*
X64801Y46859D01*
Y46957D01*
X64889Y47046D01*
X64968D01*
X65067Y46947D01*
D02*
G37*
G36*
X61054D02*
Y46868D01*
X60966Y46780D01*
X60867D01*
X60789Y46859D01*
Y46957D01*
X60877Y47046D01*
X60956D01*
X61054Y46947D01*
D02*
G37*
G36*
X60680D02*
Y46868D01*
X60592Y46780D01*
X60493D01*
X60415Y46859D01*
Y46957D01*
X60503Y47046D01*
X60582D01*
X60680Y46947D01*
D02*
G37*
G36*
X74656Y47065D02*
X74537D01*
X74409Y47193D01*
Y47311D01*
X74656D01*
Y47065D01*
D02*
G37*
G36*
X73583Y47193D02*
X73455Y47065D01*
X73337D01*
Y47311D01*
X73583D01*
Y47193D01*
D02*
G37*
G36*
X65441Y46947D02*
Y46868D01*
X65352Y46780D01*
X65254D01*
X65175Y46859D01*
Y46957D01*
X65263Y47046D01*
X65342D01*
X65441Y46947D01*
D02*
G37*
G36*
X64683Y46946D02*
Y46865D01*
X64589Y46770D01*
X64456D01*
Y47046D01*
X64585D01*
X64683Y46946D01*
D02*
G37*
G36*
X61389Y46770D02*
X61260D01*
X61163Y46869D01*
Y46951D01*
X61256Y47046D01*
X61389D01*
Y46770D01*
D02*
G37*
G36*
X60296Y46946D02*
Y46865D01*
X60203Y46770D01*
X60070D01*
Y47046D01*
X60199D01*
X60296Y46946D01*
D02*
G37*
G36*
X56545Y46947D02*
Y46868D01*
X56457Y46780D01*
X56358D01*
X56280Y46859D01*
Y46957D01*
X56368Y47046D01*
X56447D01*
X56545Y46947D01*
D02*
G37*
G36*
X56171D02*
Y46868D01*
X56083Y46780D01*
X55984D01*
X55906Y46859D01*
Y46957D01*
X55994Y47046D01*
X56073D01*
X56171Y46947D01*
D02*
G37*
G36*
X65775Y46770D02*
X65646D01*
X65549Y46869D01*
Y46951D01*
X65642Y47046D01*
X65775D01*
Y46770D01*
D02*
G37*
G36*
X60316Y46179D02*
Y46061D01*
X60070D01*
Y46307D01*
X60188D01*
X60316Y46179D01*
D02*
G37*
G36*
X56880Y46061D02*
X56634D01*
Y46179D01*
X56762Y46307D01*
X56880D01*
Y46061D01*
D02*
G37*
G36*
X56545Y46194D02*
Y46061D01*
X56270D01*
Y46190D01*
X56369Y46288D01*
X56450D01*
X56545Y46194D01*
D02*
G37*
G36*
X61389Y46061D02*
X61143D01*
Y46179D01*
X61271Y46307D01*
X61389D01*
Y46061D01*
D02*
G37*
G36*
X61054Y46194D02*
Y46061D01*
X60779D01*
Y46190D01*
X60878Y46288D01*
X60960D01*
X61054Y46194D01*
D02*
G37*
G36*
X60680Y46199D02*
Y46061D01*
X60405D01*
Y46189D01*
X60503Y46288D01*
X60592D01*
X60680Y46199D01*
D02*
G37*
G36*
X74321Y46125D02*
Y45992D01*
X74045D01*
Y46121D01*
X74144Y46219D01*
X74226D01*
X74321Y46125D01*
D02*
G37*
G36*
X73947Y46130D02*
Y45992D01*
X73671D01*
Y46120D01*
X73770Y46219D01*
X73858D01*
X73947Y46130D01*
D02*
G37*
G36*
X73583Y46110D02*
Y45992D01*
X73337D01*
Y46238D01*
X73455D01*
X73583Y46110D01*
D02*
G37*
G36*
X56171Y46199D02*
Y46061D01*
X55896D01*
Y46189D01*
X55994Y46288D01*
X56083D01*
X56171Y46199D01*
D02*
G37*
G36*
X55807Y46179D02*
Y46061D01*
X55561D01*
Y46307D01*
X55679D01*
X55807Y46179D01*
D02*
G37*
G36*
X74656Y45992D02*
X74409D01*
Y46110D01*
X74537Y46238D01*
X74656D01*
Y45992D01*
D02*
G37*
G36*
X64702Y46179D02*
Y46061D01*
X64456D01*
Y46307D01*
X64574D01*
X64702Y46179D01*
D02*
G37*
G36*
X56161Y46583D02*
Y46484D01*
X56073Y46396D01*
X55994D01*
X55896Y46494D01*
Y46573D01*
X55984Y46662D01*
X56083D01*
X56161Y46583D01*
D02*
G37*
G36*
X55787Y46572D02*
Y46491D01*
X55694Y46396D01*
X55561D01*
Y46672D01*
X55690D01*
X55787Y46572D01*
D02*
G37*
G36*
X74656Y46327D02*
X74527D01*
X74429Y46426D01*
Y46508D01*
X74522Y46603D01*
X74656D01*
Y46327D01*
D02*
G37*
G36*
X60296Y46572D02*
Y46491D01*
X60203Y46396D01*
X60070D01*
Y46672D01*
X60199D01*
X60296Y46572D01*
D02*
G37*
G36*
X56880Y46396D02*
X56751D01*
X56654Y46495D01*
Y46577D01*
X56747Y46672D01*
X56880D01*
Y46396D01*
D02*
G37*
G36*
X56535Y46583D02*
Y46484D01*
X56447Y46396D01*
X56368D01*
X56270Y46494D01*
Y46573D01*
X56358Y46662D01*
X56457D01*
X56535Y46583D01*
D02*
G37*
G36*
X65775Y46061D02*
X65529D01*
Y46179D01*
X65657Y46307D01*
X65775D01*
Y46061D01*
D02*
G37*
G36*
X65441Y46194D02*
Y46061D01*
X65165D01*
Y46190D01*
X65264Y46288D01*
X65346D01*
X65441Y46194D01*
D02*
G37*
G36*
X65067Y46199D02*
Y46061D01*
X64791D01*
Y46189D01*
X64889Y46288D01*
X64978D01*
X65067Y46199D01*
D02*
G37*
G36*
X74311Y46514D02*
Y46416D01*
X74222Y46327D01*
X74144D01*
X74045Y46425D01*
Y46504D01*
X74134Y46593D01*
X74232D01*
X74311Y46514D01*
D02*
G37*
G36*
X73937D02*
Y46416D01*
X73848Y46327D01*
X73770D01*
X73671Y46425D01*
Y46504D01*
X73760Y46593D01*
X73858D01*
X73937Y46514D01*
D02*
G37*
G36*
X73563Y46504D02*
Y46422D01*
X73470Y46327D01*
X73337D01*
Y46603D01*
X73465D01*
X73563Y46504D01*
D02*
G37*
G36*
X61471Y57591D02*
X61372Y57494D01*
X61290D01*
X61196Y57587D01*
Y57720D01*
X61471D01*
Y57591D01*
D02*
G37*
G36*
X61097D02*
X60998Y57494D01*
X60916D01*
X60822Y57587D01*
Y57720D01*
X61097D01*
Y57591D01*
D02*
G37*
G36*
X61806Y57474D02*
X61688D01*
X61560Y57602D01*
Y57720D01*
X61806D01*
Y57474D01*
D02*
G37*
G36*
X85449Y58156D02*
X85413Y58126D01*
X85264D01*
X85224Y58166D01*
Y58406D01*
X85449D01*
Y58156D01*
D02*
G37*
G36*
X86876Y57886D02*
X86776D01*
Y58406D01*
X86876D01*
Y57886D01*
D02*
G37*
G36*
X85055D02*
X84945D01*
Y58406D01*
X85055D01*
Y57886D01*
D02*
G37*
G36*
X61471Y57287D02*
Y57208D01*
X61373Y57110D01*
X61294D01*
X61206Y57198D01*
Y57297D01*
X61284Y57376D01*
X61383D01*
X61471Y57287D01*
D02*
G37*
G36*
X60713Y57287D02*
Y57198D01*
X60625Y57110D01*
X60487D01*
Y57385D01*
X60615D01*
X60713Y57287D01*
D02*
G37*
G36*
X86506Y56748D02*
X86376D01*
Y56795D01*
X86416Y56839D01*
X86506D01*
Y56748D01*
D02*
G37*
G36*
X60733Y57602D02*
X60605Y57474D01*
X60487D01*
Y57720D01*
X60733D01*
Y57602D01*
D02*
G37*
G36*
X61087Y57297D02*
Y57198D01*
X61009Y57120D01*
X60910D01*
X60822Y57208D01*
Y57287D01*
X60920Y57385D01*
X60999D01*
X61087Y57297D01*
D02*
G37*
G36*
X61806Y57110D02*
X61677D01*
X61580Y57209D01*
Y57291D01*
X61673Y57385D01*
X61806D01*
Y57110D01*
D02*
G37*
G36*
X85827Y58156D02*
X85791Y58126D01*
X85642D01*
X85602Y58166D01*
Y58406D01*
X85827D01*
Y58156D01*
D02*
G37*
G36*
X89031Y63747D02*
X88996Y63717D01*
X88846D01*
X88807Y63757D01*
Y63997D01*
X89031D01*
Y63747D01*
D02*
G37*
G36*
X90458Y63477D02*
X90358D01*
Y63997D01*
X90458D01*
Y63477D01*
D02*
G37*
G36*
X88638D02*
X88528D01*
Y63997D01*
X88638D01*
Y63477D01*
D02*
G37*
G36*
X90158Y63757D02*
X90128Y63717D01*
X89978D01*
X89938Y63757D01*
Y63997D01*
X90158D01*
Y63757D01*
D02*
G37*
G36*
X89788D02*
X89748Y63717D01*
X89608D01*
X89568Y63757D01*
Y63997D01*
X89788D01*
Y63757D01*
D02*
G37*
G36*
X89409Y63747D02*
X89374Y63717D01*
X89224D01*
X89185Y63757D01*
Y63997D01*
X89409D01*
Y63747D01*
D02*
G37*
G36*
X89035Y62386D02*
Y62339D01*
X88894D01*
Y62429D01*
X88992D01*
X89035Y62386D01*
D02*
G37*
G36*
X86576Y58166D02*
X86546Y58126D01*
X86396D01*
X86356Y58166D01*
Y58406D01*
X86576D01*
Y58166D01*
D02*
G37*
G36*
X86206D02*
X86166Y58126D01*
X86026D01*
X85986Y58166D01*
Y58406D01*
X86206D01*
Y58166D01*
D02*
G37*
G36*
X90088Y62339D02*
X89958D01*
Y62386D01*
X89998Y62429D01*
X90088D01*
Y62339D01*
D02*
G37*
G36*
X89788Y62390D02*
Y62339D01*
X89578D01*
Y62390D01*
X89618Y62425D01*
X89758D01*
X89788Y62390D01*
D02*
G37*
G36*
X89409D02*
Y62339D01*
X89197D01*
Y62390D01*
X89232Y62425D01*
X89374D01*
X89409Y62390D01*
D02*
G37*
G36*
X56171Y47251D02*
X56072Y47154D01*
X55990D01*
X55896Y47247D01*
Y47380D01*
X56171D01*
Y47251D01*
D02*
G37*
G36*
X65775Y47134D02*
X65657D01*
X65529Y47262D01*
Y47380D01*
X65775D01*
Y47134D01*
D02*
G37*
G36*
X64702Y47262D02*
X64574Y47134D01*
X64456D01*
Y47380D01*
X64702D01*
Y47262D01*
D02*
G37*
G36*
X61054Y47252D02*
X60956Y47154D01*
X60867D01*
X60779Y47242D01*
Y47380D01*
X61054D01*
Y47252D01*
D02*
G37*
G36*
X60680Y47251D02*
X60581Y47154D01*
X60500D01*
X60405Y47247D01*
Y47380D01*
X60680D01*
Y47251D01*
D02*
G37*
G36*
X56545Y47252D02*
X56447Y47154D01*
X56358D01*
X56270Y47242D01*
Y47380D01*
X56545D01*
Y47252D01*
D02*
G37*
G36*
X55807Y47262D02*
X55679Y47134D01*
X55561D01*
Y47380D01*
X55807D01*
Y47262D01*
D02*
G37*
G36*
X74321Y47183D02*
X74222Y47085D01*
X74134D01*
X74045Y47173D01*
Y47311D01*
X74321D01*
Y47183D01*
D02*
G37*
G36*
X73947Y47182D02*
X73848Y47085D01*
X73766D01*
X73671Y47178D01*
Y47311D01*
X73947D01*
Y47182D01*
D02*
G37*
G36*
X61389Y47134D02*
X61271D01*
X61143Y47262D01*
Y47380D01*
X61389D01*
Y47134D01*
D02*
G37*
G36*
X60316Y47262D02*
X60188Y47134D01*
X60070D01*
Y47380D01*
X60316D01*
Y47262D01*
D02*
G37*
G36*
X56880Y47134D02*
X56762D01*
X56634Y47262D01*
Y47380D01*
X56880D01*
Y47134D01*
D02*
G37*
G36*
X65067Y47251D02*
X64967Y47154D01*
X64886D01*
X64791Y47247D01*
Y47380D01*
X65067D01*
Y47251D01*
D02*
G37*
G36*
X61087Y56923D02*
Y56824D01*
X61009Y56746D01*
X60910D01*
X60822Y56834D01*
Y56913D01*
X60920Y57011D01*
X60999D01*
X61087Y56923D01*
D02*
G37*
G36*
X61806Y56736D02*
X61678D01*
X61580Y56834D01*
Y56923D01*
X61668Y57011D01*
X61806D01*
Y56736D01*
D02*
G37*
G36*
X61471Y56913D02*
Y56834D01*
X61373Y56736D01*
X61294D01*
X61206Y56824D01*
Y56923D01*
X61284Y57002D01*
X61383D01*
X61471Y56913D01*
D02*
G37*
G36*
X86206Y56799D02*
Y56748D01*
X85996D01*
Y56799D01*
X86036Y56835D01*
X86176D01*
X86206Y56799D01*
D02*
G37*
G36*
X85827D02*
Y56748D01*
X85614D01*
Y56799D01*
X85650Y56835D01*
X85791D01*
X85827Y56799D01*
D02*
G37*
G36*
X85453Y56795D02*
Y56748D01*
X85311D01*
Y56839D01*
X85409D01*
X85453Y56795D01*
D02*
G37*
G36*
X61097Y56534D02*
Y56401D01*
X60822D01*
Y56530D01*
X60921Y56628D01*
X61002D01*
X61097Y56534D01*
D02*
G37*
G36*
X60733Y56519D02*
Y56401D01*
X60487D01*
Y56647D01*
X60605D01*
X60733Y56519D01*
D02*
G37*
G36*
X65441Y47252D02*
X65342Y47154D01*
X65254D01*
X65165Y47242D01*
Y47380D01*
X65441D01*
Y47252D01*
D02*
G37*
G36*
X60713Y56912D02*
Y56831D01*
X60620Y56736D01*
X60487D01*
Y57011D01*
X60616D01*
X60713Y56912D01*
D02*
G37*
G36*
X61806Y56401D02*
X61560D01*
Y56519D01*
X61688Y56647D01*
X61806D01*
Y56401D01*
D02*
G37*
G36*
X61471Y56534D02*
Y56401D01*
X61196D01*
Y56530D01*
X61295Y56628D01*
X61376D01*
X61471Y56534D01*
D02*
G37*
G36*
X33278Y74693D02*
X33149D01*
X33051Y74792D01*
Y74874D01*
X33144Y74969D01*
X33278D01*
Y74693D01*
D02*
G37*
G36*
X32185Y74870D02*
Y74788D01*
X32092Y74693D01*
X31959D01*
Y74969D01*
X32088D01*
X32185Y74870D01*
D02*
G37*
G36*
X24397Y74388D02*
X24268D01*
X24171Y74487D01*
Y74569D01*
X24264Y74664D01*
X24397D01*
Y74388D01*
D02*
G37*
G36*
X14409Y74939D02*
Y74857D01*
X14316Y74762D01*
X14183D01*
Y75038D01*
X14312D01*
X14409Y74939D01*
D02*
G37*
G36*
X32943Y74870D02*
Y74792D01*
X32854Y74703D01*
X32756D01*
X32677Y74782D01*
Y74880D01*
X32766Y74969D01*
X32844D01*
X32943Y74870D01*
D02*
G37*
G36*
X32569D02*
Y74792D01*
X32480Y74703D01*
X32382D01*
X32303Y74782D01*
Y74880D01*
X32392Y74969D01*
X32470D01*
X32569Y74870D01*
D02*
G37*
G36*
X20011Y74388D02*
X19882D01*
X19785Y74487D01*
Y74569D01*
X19878Y74664D01*
X20011D01*
Y74388D01*
D02*
G37*
G36*
X19667Y74575D02*
Y74477D01*
X19578Y74388D01*
X19499D01*
X19401Y74486D01*
Y74565D01*
X19489Y74654D01*
X19588D01*
X19667Y74575D01*
D02*
G37*
G36*
X19293D02*
Y74477D01*
X19204Y74388D01*
X19125D01*
X19027Y74486D01*
Y74565D01*
X19115Y74654D01*
X19214D01*
X19293Y74575D01*
D02*
G37*
G36*
X24053D02*
Y74477D01*
X23964Y74388D01*
X23885D01*
X23787Y74486D01*
Y74565D01*
X23876Y74654D01*
X23974D01*
X24053Y74575D01*
D02*
G37*
G36*
X23679D02*
Y74477D01*
X23590Y74388D01*
X23511D01*
X23413Y74486D01*
Y74565D01*
X23502Y74654D01*
X23600D01*
X23679Y74575D01*
D02*
G37*
G36*
X23305Y74565D02*
Y74483D01*
X23211Y74388D01*
X23078D01*
Y74664D01*
X23207D01*
X23305Y74565D01*
D02*
G37*
G36*
X15502Y74762D02*
X15373D01*
X15276Y74861D01*
Y74943D01*
X15369Y75038D01*
X15502D01*
Y74762D01*
D02*
G37*
G36*
X23689Y74939D02*
Y74860D01*
X23600Y74772D01*
X23502D01*
X23423Y74851D01*
Y74949D01*
X23511Y75038D01*
X23590D01*
X23689Y74939D01*
D02*
G37*
G36*
X19676D02*
Y74860D01*
X19588Y74772D01*
X19489D01*
X19411Y74851D01*
Y74949D01*
X19499Y75038D01*
X19578D01*
X19676Y74939D01*
D02*
G37*
G36*
X19302D02*
Y74860D01*
X19214Y74772D01*
X19115D01*
X19037Y74851D01*
Y74949D01*
X19125Y75038D01*
X19204D01*
X19302Y74939D01*
D02*
G37*
G36*
X33278Y75057D02*
X33159D01*
X33031Y75185D01*
Y75303D01*
X33278D01*
Y75057D01*
D02*
G37*
G36*
X32205Y75185D02*
X32077Y75057D01*
X31959D01*
Y75303D01*
X32205D01*
Y75185D01*
D02*
G37*
G36*
X24063Y74939D02*
Y74860D01*
X23974Y74772D01*
X23876D01*
X23797Y74851D01*
Y74949D01*
X23885Y75038D01*
X23964D01*
X24063Y74939D01*
D02*
G37*
G36*
X23305Y74939D02*
Y74857D01*
X23211Y74762D01*
X23078D01*
Y75038D01*
X23207D01*
X23305Y74939D01*
D02*
G37*
G36*
X20011Y74762D02*
X19882D01*
X19785Y74861D01*
Y74943D01*
X19878Y75038D01*
X20011D01*
Y74762D01*
D02*
G37*
G36*
X18918Y74939D02*
Y74857D01*
X18825Y74762D01*
X18692D01*
Y75038D01*
X18821D01*
X18918Y74939D01*
D02*
G37*
G36*
X15167Y74939D02*
Y74860D01*
X15079Y74772D01*
X14980D01*
X14902Y74851D01*
Y74949D01*
X14990Y75038D01*
X15069D01*
X15167Y74939D01*
D02*
G37*
G36*
X14793D02*
Y74860D01*
X14705Y74772D01*
X14606D01*
X14528Y74851D01*
Y74949D01*
X14616Y75038D01*
X14695D01*
X14793Y74939D01*
D02*
G37*
G36*
X24397Y74762D02*
X24268D01*
X24171Y74861D01*
Y74943D01*
X24264Y75038D01*
X24397D01*
Y74762D01*
D02*
G37*
G36*
X18938Y74172D02*
Y74053D01*
X18692D01*
Y74299D01*
X18810D01*
X18938Y74172D01*
D02*
G37*
G36*
X15502Y74053D02*
X15256D01*
Y74172D01*
X15384Y74299D01*
X15502D01*
Y74053D01*
D02*
G37*
G36*
X15167Y74186D02*
Y74053D01*
X14892D01*
Y74182D01*
X14991Y74280D01*
X15073D01*
X15167Y74186D01*
D02*
G37*
G36*
X20011Y74053D02*
X19765D01*
Y74172D01*
X19893Y74299D01*
X20011D01*
Y74053D01*
D02*
G37*
G36*
X19676Y74186D02*
Y74053D01*
X19401D01*
Y74182D01*
X19500Y74280D01*
X19582D01*
X19676Y74186D01*
D02*
G37*
G36*
X19302Y74191D02*
Y74053D01*
X19027D01*
Y74181D01*
X19125Y74280D01*
X19214D01*
X19302Y74191D01*
D02*
G37*
G36*
X32943Y74118D02*
Y73984D01*
X32667D01*
Y74113D01*
X32766Y74211D01*
X32848D01*
X32943Y74118D01*
D02*
G37*
G36*
X32569Y74122D02*
Y73984D01*
X32293D01*
Y74112D01*
X32392Y74211D01*
X32480D01*
X32569Y74122D01*
D02*
G37*
G36*
X32205Y74103D02*
Y73984D01*
X31959D01*
Y74231D01*
X32077D01*
X32205Y74103D01*
D02*
G37*
G36*
X14793Y74191D02*
Y74053D01*
X14518D01*
Y74181D01*
X14616Y74280D01*
X14705D01*
X14793Y74191D01*
D02*
G37*
G36*
X14429Y74172D02*
Y74053D01*
X14183D01*
Y74299D01*
X14301D01*
X14429Y74172D01*
D02*
G37*
G36*
X33278Y73984D02*
X33031D01*
Y74103D01*
X33159Y74231D01*
X33278D01*
Y73984D01*
D02*
G37*
G36*
X23324Y74172D02*
Y74053D01*
X23078D01*
Y74299D01*
X23196D01*
X23324Y74172D01*
D02*
G37*
G36*
X14783Y74575D02*
Y74477D01*
X14695Y74388D01*
X14616D01*
X14518Y74486D01*
Y74565D01*
X14606Y74654D01*
X14705D01*
X14783Y74575D01*
D02*
G37*
G36*
X14409Y74565D02*
Y74483D01*
X14316Y74388D01*
X14183D01*
Y74664D01*
X14312D01*
X14409Y74565D01*
D02*
G37*
G36*
X33278Y74319D02*
X33149D01*
X33051Y74418D01*
Y74500D01*
X33144Y74595D01*
X33278D01*
Y74319D01*
D02*
G37*
G36*
X18918Y74565D02*
Y74483D01*
X18825Y74388D01*
X18692D01*
Y74664D01*
X18821D01*
X18918Y74565D01*
D02*
G37*
G36*
X15502Y74388D02*
X15373D01*
X15276Y74487D01*
Y74569D01*
X15369Y74664D01*
X15502D01*
Y74388D01*
D02*
G37*
G36*
X15157Y74575D02*
Y74477D01*
X15069Y74388D01*
X14990D01*
X14892Y74486D01*
Y74565D01*
X14980Y74654D01*
X15079D01*
X15157Y74575D01*
D02*
G37*
G36*
X24397Y74053D02*
X24151D01*
Y74172D01*
X24279Y74299D01*
X24397D01*
Y74053D01*
D02*
G37*
G36*
X24063Y74186D02*
Y74053D01*
X23787D01*
Y74182D01*
X23886Y74280D01*
X23968D01*
X24063Y74186D01*
D02*
G37*
G36*
X23689Y74191D02*
Y74053D01*
X23413D01*
Y74181D01*
X23511Y74280D01*
X23600D01*
X23689Y74191D01*
D02*
G37*
G36*
X32933Y74506D02*
Y74408D01*
X32844Y74319D01*
X32766D01*
X32667Y74418D01*
Y74496D01*
X32756Y74585D01*
X32854D01*
X32933Y74506D01*
D02*
G37*
G36*
X32559D02*
Y74408D01*
X32470Y74319D01*
X32392D01*
X32293Y74418D01*
Y74496D01*
X32382Y74585D01*
X32480D01*
X32559Y74506D01*
D02*
G37*
G36*
X32185Y74496D02*
Y74414D01*
X32092Y74319D01*
X31959D01*
Y74595D01*
X32088D01*
X32185Y74496D01*
D02*
G37*
G36*
X20093Y85583D02*
X19994Y85486D01*
X19913D01*
X19818Y85579D01*
Y85712D01*
X20093D01*
Y85583D01*
D02*
G37*
G36*
X19719D02*
X19620Y85486D01*
X19539D01*
X19444Y85579D01*
Y85712D01*
X19719D01*
Y85583D01*
D02*
G37*
G36*
X20428Y85466D02*
X20310D01*
X20182Y85594D01*
Y85712D01*
X20428D01*
Y85466D01*
D02*
G37*
G36*
X44071Y86148D02*
X44035Y86118D01*
X43886D01*
X43846Y86158D01*
Y86398D01*
X44071D01*
Y86148D01*
D02*
G37*
G36*
X45498Y85878D02*
X45398D01*
Y86398D01*
X45498D01*
Y85878D01*
D02*
G37*
G36*
X43677D02*
X43567D01*
Y86398D01*
X43677D01*
Y85878D01*
D02*
G37*
G36*
X20093Y85279D02*
Y85200D01*
X19995Y85102D01*
X19916D01*
X19828Y85191D01*
Y85289D01*
X19906Y85368D01*
X20005D01*
X20093Y85279D01*
D02*
G37*
G36*
X19335Y85279D02*
Y85191D01*
X19247Y85102D01*
X19109D01*
Y85378D01*
X19237D01*
X19335Y85279D01*
D02*
G37*
G36*
X45128Y84740D02*
X44998D01*
Y84787D01*
X45038Y84831D01*
X45128D01*
Y84740D01*
D02*
G37*
G36*
X19355Y85594D02*
X19227Y85466D01*
X19109D01*
Y85712D01*
X19355D01*
Y85594D01*
D02*
G37*
G36*
X19709Y85289D02*
Y85191D01*
X19631Y85112D01*
X19532D01*
X19444Y85200D01*
Y85279D01*
X19542Y85378D01*
X19621D01*
X19709Y85289D01*
D02*
G37*
G36*
X20428Y85102D02*
X20299D01*
X20202Y85201D01*
Y85283D01*
X20295Y85378D01*
X20428D01*
Y85102D01*
D02*
G37*
G36*
X44449Y86148D02*
X44413Y86118D01*
X44264D01*
X44224Y86158D01*
Y86398D01*
X44449D01*
Y86148D01*
D02*
G37*
G36*
X47654Y91739D02*
X47618Y91709D01*
X47469D01*
X47429Y91749D01*
Y91989D01*
X47654D01*
Y91739D01*
D02*
G37*
G36*
X49080Y91469D02*
X48980D01*
Y91989D01*
X49080D01*
Y91469D01*
D02*
G37*
G36*
X47260D02*
X47150D01*
Y91989D01*
X47260D01*
Y91469D01*
D02*
G37*
G36*
X48780Y91749D02*
X48750Y91709D01*
X48600D01*
X48560Y91749D01*
Y91989D01*
X48780D01*
Y91749D01*
D02*
G37*
G36*
X48410D02*
X48370Y91709D01*
X48230D01*
X48190Y91749D01*
Y91989D01*
X48410D01*
Y91749D01*
D02*
G37*
G36*
X48032Y91739D02*
X47996Y91709D01*
X47846D01*
X47807Y91749D01*
Y91989D01*
X48032D01*
Y91739D01*
D02*
G37*
G36*
X47657Y90378D02*
Y90331D01*
X47516D01*
Y90421D01*
X47614D01*
X47657Y90378D01*
D02*
G37*
G36*
X45198Y86158D02*
X45168Y86118D01*
X45018D01*
X44978Y86158D01*
Y86398D01*
X45198D01*
Y86158D01*
D02*
G37*
G36*
X44828D02*
X44788Y86118D01*
X44648D01*
X44608Y86158D01*
Y86398D01*
X44828D01*
Y86158D01*
D02*
G37*
G36*
X48710Y90331D02*
X48580D01*
Y90378D01*
X48620Y90421D01*
X48710D01*
Y90331D01*
D02*
G37*
G36*
X48410Y90382D02*
Y90331D01*
X48200D01*
Y90382D01*
X48240Y90417D01*
X48380D01*
X48410Y90382D01*
D02*
G37*
G36*
X48032D02*
Y90331D01*
X47819D01*
Y90382D01*
X47854Y90417D01*
X47996D01*
X48032Y90382D01*
D02*
G37*
G36*
X14793Y75243D02*
X14694Y75146D01*
X14613D01*
X14518Y75239D01*
Y75372D01*
X14793D01*
Y75243D01*
D02*
G37*
G36*
X24397Y75126D02*
X24279D01*
X24151Y75254D01*
Y75372D01*
X24397D01*
Y75126D01*
D02*
G37*
G36*
X23324Y75254D02*
X23196Y75126D01*
X23078D01*
Y75372D01*
X23324D01*
Y75254D01*
D02*
G37*
G36*
X19676Y75244D02*
X19578Y75146D01*
X19489D01*
X19401Y75234D01*
Y75372D01*
X19676D01*
Y75244D01*
D02*
G37*
G36*
X19302Y75243D02*
X19203Y75146D01*
X19122D01*
X19027Y75239D01*
Y75372D01*
X19302D01*
Y75243D01*
D02*
G37*
G36*
X15167Y75244D02*
X15069Y75146D01*
X14980D01*
X14892Y75234D01*
Y75372D01*
X15167D01*
Y75244D01*
D02*
G37*
G36*
X14429Y75254D02*
X14301Y75126D01*
X14183D01*
Y75372D01*
X14429D01*
Y75254D01*
D02*
G37*
G36*
X32943Y75175D02*
X32844Y75077D01*
X32756D01*
X32667Y75166D01*
Y75303D01*
X32943D01*
Y75175D01*
D02*
G37*
G36*
X32569Y75174D02*
X32470Y75077D01*
X32388D01*
X32293Y75170D01*
Y75303D01*
X32569D01*
Y75174D01*
D02*
G37*
G36*
X20011Y75126D02*
X19893D01*
X19765Y75254D01*
Y75372D01*
X20011D01*
Y75126D01*
D02*
G37*
G36*
X18938Y75254D02*
X18810Y75126D01*
X18692D01*
Y75372D01*
X18938D01*
Y75254D01*
D02*
G37*
G36*
X15502Y75126D02*
X15384D01*
X15256Y75254D01*
Y75372D01*
X15502D01*
Y75126D01*
D02*
G37*
G36*
X23689Y75243D02*
X23590Y75146D01*
X23508D01*
X23413Y75239D01*
Y75372D01*
X23689D01*
Y75243D01*
D02*
G37*
G36*
X19709Y84915D02*
Y84817D01*
X19631Y84738D01*
X19532D01*
X19444Y84826D01*
Y84905D01*
X19542Y85004D01*
X19621D01*
X19709Y84915D01*
D02*
G37*
G36*
X20428Y84728D02*
X20300D01*
X20202Y84826D01*
Y84915D01*
X20290Y85004D01*
X20428D01*
Y84728D01*
D02*
G37*
G36*
X20093Y84905D02*
Y84826D01*
X19995Y84728D01*
X19916D01*
X19828Y84817D01*
Y84915D01*
X19906Y84994D01*
X20005D01*
X20093Y84905D01*
D02*
G37*
G36*
X44828Y84791D02*
Y84740D01*
X44618D01*
Y84791D01*
X44658Y84827D01*
X44798D01*
X44828Y84791D01*
D02*
G37*
G36*
X44449D02*
Y84740D01*
X44236D01*
Y84791D01*
X44272Y84827D01*
X44413D01*
X44449Y84791D01*
D02*
G37*
G36*
X44075Y84787D02*
Y84740D01*
X43933D01*
Y84831D01*
X44032D01*
X44075Y84787D01*
D02*
G37*
G36*
X19719Y84526D02*
Y84393D01*
X19444D01*
Y84522D01*
X19543Y84620D01*
X19624D01*
X19719Y84526D01*
D02*
G37*
G36*
X19355Y84511D02*
Y84393D01*
X19109D01*
Y84639D01*
X19227D01*
X19355Y84511D01*
D02*
G37*
G36*
X24063Y75244D02*
X23964Y75146D01*
X23876D01*
X23787Y75234D01*
Y75372D01*
X24063D01*
Y75244D01*
D02*
G37*
G36*
X19335Y84904D02*
Y84823D01*
X19242Y84728D01*
X19109D01*
Y85004D01*
X19238D01*
X19335Y84904D01*
D02*
G37*
G36*
X20428Y84393D02*
X20182D01*
Y84511D01*
X20310Y84639D01*
X20428D01*
Y84393D01*
D02*
G37*
G36*
X20093Y84526D02*
Y84393D01*
X19818D01*
Y84522D01*
X19917Y84620D01*
X19999D01*
X20093Y84526D01*
D02*
G37*
G36*
X74656Y74693D02*
X74527D01*
X74429Y74792D01*
Y74874D01*
X74522Y74969D01*
X74656D01*
Y74693D01*
D02*
G37*
G36*
X73563Y74870D02*
Y74788D01*
X73470Y74693D01*
X73337D01*
Y74969D01*
X73465D01*
X73563Y74870D01*
D02*
G37*
G36*
X65775Y74388D02*
X65646D01*
X65549Y74487D01*
Y74569D01*
X65642Y74664D01*
X65775D01*
Y74388D01*
D02*
G37*
G36*
X55787Y74939D02*
Y74857D01*
X55694Y74762D01*
X55561D01*
Y75038D01*
X55690D01*
X55787Y74939D01*
D02*
G37*
G36*
X74321Y74870D02*
Y74792D01*
X74232Y74703D01*
X74134D01*
X74055Y74782D01*
Y74880D01*
X74144Y74969D01*
X74222D01*
X74321Y74870D01*
D02*
G37*
G36*
X73947D02*
Y74792D01*
X73858Y74703D01*
X73760D01*
X73681Y74782D01*
Y74880D01*
X73770Y74969D01*
X73848D01*
X73947Y74870D01*
D02*
G37*
G36*
X61389Y74388D02*
X61260D01*
X61163Y74487D01*
Y74569D01*
X61256Y74664D01*
X61389D01*
Y74388D01*
D02*
G37*
G36*
X61044Y74575D02*
Y74477D01*
X60956Y74388D01*
X60877D01*
X60779Y74486D01*
Y74565D01*
X60867Y74654D01*
X60966D01*
X61044Y74575D01*
D02*
G37*
G36*
X60670D02*
Y74477D01*
X60582Y74388D01*
X60503D01*
X60405Y74486D01*
Y74565D01*
X60493Y74654D01*
X60592D01*
X60670Y74575D01*
D02*
G37*
G36*
X65431D02*
Y74477D01*
X65342Y74388D01*
X65263D01*
X65165Y74486D01*
Y74565D01*
X65254Y74654D01*
X65352D01*
X65431Y74575D01*
D02*
G37*
G36*
X65057D02*
Y74477D01*
X64968Y74388D01*
X64889D01*
X64791Y74486D01*
Y74565D01*
X64880Y74654D01*
X64978D01*
X65057Y74575D01*
D02*
G37*
G36*
X64683Y74565D02*
Y74483D01*
X64589Y74388D01*
X64456D01*
Y74664D01*
X64585D01*
X64683Y74565D01*
D02*
G37*
G36*
X56880Y74762D02*
X56751D01*
X56654Y74861D01*
Y74943D01*
X56747Y75038D01*
X56880D01*
Y74762D01*
D02*
G37*
G36*
X65067Y74939D02*
Y74860D01*
X64978Y74772D01*
X64880D01*
X64801Y74851D01*
Y74949D01*
X64889Y75038D01*
X64968D01*
X65067Y74939D01*
D02*
G37*
G36*
X61054D02*
Y74860D01*
X60966Y74772D01*
X60867D01*
X60789Y74851D01*
Y74949D01*
X60877Y75038D01*
X60956D01*
X61054Y74939D01*
D02*
G37*
G36*
X60680D02*
Y74860D01*
X60592Y74772D01*
X60493D01*
X60415Y74851D01*
Y74949D01*
X60503Y75038D01*
X60582D01*
X60680Y74939D01*
D02*
G37*
G36*
X74656Y75057D02*
X74537D01*
X74409Y75185D01*
Y75303D01*
X74656D01*
Y75057D01*
D02*
G37*
G36*
X73583Y75185D02*
X73455Y75057D01*
X73337D01*
Y75303D01*
X73583D01*
Y75185D01*
D02*
G37*
G36*
X65441Y74939D02*
Y74860D01*
X65352Y74772D01*
X65254D01*
X65175Y74851D01*
Y74949D01*
X65263Y75038D01*
X65342D01*
X65441Y74939D01*
D02*
G37*
G36*
X64683Y74939D02*
Y74857D01*
X64589Y74762D01*
X64456D01*
Y75038D01*
X64585D01*
X64683Y74939D01*
D02*
G37*
G36*
X61389Y74762D02*
X61260D01*
X61163Y74861D01*
Y74943D01*
X61256Y75038D01*
X61389D01*
Y74762D01*
D02*
G37*
G36*
X60296Y74939D02*
Y74857D01*
X60203Y74762D01*
X60070D01*
Y75038D01*
X60199D01*
X60296Y74939D01*
D02*
G37*
G36*
X56545Y74939D02*
Y74860D01*
X56457Y74772D01*
X56358D01*
X56280Y74851D01*
Y74949D01*
X56368Y75038D01*
X56447D01*
X56545Y74939D01*
D02*
G37*
G36*
X56171D02*
Y74860D01*
X56083Y74772D01*
X55984D01*
X55906Y74851D01*
Y74949D01*
X55994Y75038D01*
X56073D01*
X56171Y74939D01*
D02*
G37*
G36*
X65775Y74762D02*
X65646D01*
X65549Y74861D01*
Y74943D01*
X65642Y75038D01*
X65775D01*
Y74762D01*
D02*
G37*
G36*
X60316Y74172D02*
Y74053D01*
X60070D01*
Y74299D01*
X60188D01*
X60316Y74172D01*
D02*
G37*
G36*
X56880Y74053D02*
X56634D01*
Y74172D01*
X56762Y74299D01*
X56880D01*
Y74053D01*
D02*
G37*
G36*
X56545Y74186D02*
Y74053D01*
X56270D01*
Y74182D01*
X56369Y74280D01*
X56450D01*
X56545Y74186D01*
D02*
G37*
G36*
X61389Y74053D02*
X61143D01*
Y74172D01*
X61271Y74299D01*
X61389D01*
Y74053D01*
D02*
G37*
G36*
X61054Y74186D02*
Y74053D01*
X60779D01*
Y74182D01*
X60878Y74280D01*
X60960D01*
X61054Y74186D01*
D02*
G37*
G36*
X60680Y74191D02*
Y74053D01*
X60405D01*
Y74181D01*
X60503Y74280D01*
X60592D01*
X60680Y74191D01*
D02*
G37*
G36*
X74321Y74118D02*
Y73984D01*
X74045D01*
Y74113D01*
X74144Y74211D01*
X74226D01*
X74321Y74118D01*
D02*
G37*
G36*
X73947Y74122D02*
Y73984D01*
X73671D01*
Y74112D01*
X73770Y74211D01*
X73858D01*
X73947Y74122D01*
D02*
G37*
G36*
X73583Y74103D02*
Y73984D01*
X73337D01*
Y74231D01*
X73455D01*
X73583Y74103D01*
D02*
G37*
G36*
X56171Y74191D02*
Y74053D01*
X55896D01*
Y74181D01*
X55994Y74280D01*
X56083D01*
X56171Y74191D01*
D02*
G37*
G36*
X55807Y74172D02*
Y74053D01*
X55561D01*
Y74299D01*
X55679D01*
X55807Y74172D01*
D02*
G37*
G36*
X74656Y73984D02*
X74409D01*
Y74103D01*
X74537Y74231D01*
X74656D01*
Y73984D01*
D02*
G37*
G36*
X64702Y74172D02*
Y74053D01*
X64456D01*
Y74299D01*
X64574D01*
X64702Y74172D01*
D02*
G37*
G36*
X56161Y74575D02*
Y74477D01*
X56073Y74388D01*
X55994D01*
X55896Y74486D01*
Y74565D01*
X55984Y74654D01*
X56083D01*
X56161Y74575D01*
D02*
G37*
G36*
X55787Y74565D02*
Y74483D01*
X55694Y74388D01*
X55561D01*
Y74664D01*
X55690D01*
X55787Y74565D01*
D02*
G37*
G36*
X74656Y74319D02*
X74527D01*
X74429Y74418D01*
Y74500D01*
X74522Y74595D01*
X74656D01*
Y74319D01*
D02*
G37*
G36*
X60296Y74565D02*
Y74483D01*
X60203Y74388D01*
X60070D01*
Y74664D01*
X60199D01*
X60296Y74565D01*
D02*
G37*
G36*
X56880Y74388D02*
X56751D01*
X56654Y74487D01*
Y74569D01*
X56747Y74664D01*
X56880D01*
Y74388D01*
D02*
G37*
G36*
X56535Y74575D02*
Y74477D01*
X56447Y74388D01*
X56368D01*
X56270Y74486D01*
Y74565D01*
X56358Y74654D01*
X56457D01*
X56535Y74575D01*
D02*
G37*
G36*
X65775Y74053D02*
X65529D01*
Y74172D01*
X65657Y74299D01*
X65775D01*
Y74053D01*
D02*
G37*
G36*
X65441Y74186D02*
Y74053D01*
X65165D01*
Y74182D01*
X65264Y74280D01*
X65346D01*
X65441Y74186D01*
D02*
G37*
G36*
X65067Y74191D02*
Y74053D01*
X64791D01*
Y74181D01*
X64889Y74280D01*
X64978D01*
X65067Y74191D01*
D02*
G37*
G36*
X74311Y74506D02*
Y74408D01*
X74222Y74319D01*
X74144D01*
X74045Y74418D01*
Y74496D01*
X74134Y74585D01*
X74232D01*
X74311Y74506D01*
D02*
G37*
G36*
X73937D02*
Y74408D01*
X73848Y74319D01*
X73770D01*
X73671Y74418D01*
Y74496D01*
X73760Y74585D01*
X73858D01*
X73937Y74506D01*
D02*
G37*
G36*
X73563Y74496D02*
Y74414D01*
X73470Y74319D01*
X73337D01*
Y74595D01*
X73465D01*
X73563Y74496D01*
D02*
G37*
G36*
X61471Y85583D02*
X61372Y85486D01*
X61290D01*
X61196Y85579D01*
Y85712D01*
X61471D01*
Y85583D01*
D02*
G37*
G36*
X61097D02*
X60998Y85486D01*
X60916D01*
X60822Y85579D01*
Y85712D01*
X61097D01*
Y85583D01*
D02*
G37*
G36*
X61806Y85466D02*
X61688D01*
X61560Y85594D01*
Y85712D01*
X61806D01*
Y85466D01*
D02*
G37*
G36*
X85449Y86148D02*
X85413Y86118D01*
X85264D01*
X85224Y86158D01*
Y86398D01*
X85449D01*
Y86148D01*
D02*
G37*
G36*
X86876Y85878D02*
X86776D01*
Y86398D01*
X86876D01*
Y85878D01*
D02*
G37*
G36*
X85055D02*
X84945D01*
Y86398D01*
X85055D01*
Y85878D01*
D02*
G37*
G36*
X61471Y85279D02*
Y85200D01*
X61373Y85102D01*
X61294D01*
X61206Y85191D01*
Y85289D01*
X61284Y85368D01*
X61383D01*
X61471Y85279D01*
D02*
G37*
G36*
X60713Y85279D02*
Y85191D01*
X60625Y85102D01*
X60487D01*
Y85378D01*
X60615D01*
X60713Y85279D01*
D02*
G37*
G36*
X86506Y84740D02*
X86376D01*
Y84787D01*
X86416Y84831D01*
X86506D01*
Y84740D01*
D02*
G37*
G36*
X60733Y85594D02*
X60605Y85466D01*
X60487D01*
Y85712D01*
X60733D01*
Y85594D01*
D02*
G37*
G36*
X61087Y85289D02*
Y85191D01*
X61009Y85112D01*
X60910D01*
X60822Y85200D01*
Y85279D01*
X60920Y85378D01*
X60999D01*
X61087Y85289D01*
D02*
G37*
G36*
X61806Y85102D02*
X61677D01*
X61580Y85201D01*
Y85283D01*
X61673Y85378D01*
X61806D01*
Y85102D01*
D02*
G37*
G36*
X85827Y86148D02*
X85791Y86118D01*
X85642D01*
X85602Y86158D01*
Y86398D01*
X85827D01*
Y86148D01*
D02*
G37*
G36*
X89031Y91739D02*
X88996Y91709D01*
X88846D01*
X88807Y91749D01*
Y91989D01*
X89031D01*
Y91739D01*
D02*
G37*
G36*
X90458Y91469D02*
X90358D01*
Y91989D01*
X90458D01*
Y91469D01*
D02*
G37*
G36*
X88638D02*
X88528D01*
Y91989D01*
X88638D01*
Y91469D01*
D02*
G37*
G36*
X90158Y91749D02*
X90128Y91709D01*
X89978D01*
X89938Y91749D01*
Y91989D01*
X90158D01*
Y91749D01*
D02*
G37*
G36*
X89788D02*
X89748Y91709D01*
X89608D01*
X89568Y91749D01*
Y91989D01*
X89788D01*
Y91749D01*
D02*
G37*
G36*
X89409Y91739D02*
X89374Y91709D01*
X89224D01*
X89185Y91749D01*
Y91989D01*
X89409D01*
Y91739D01*
D02*
G37*
G36*
X89035Y90378D02*
Y90331D01*
X88894D01*
Y90421D01*
X88992D01*
X89035Y90378D01*
D02*
G37*
G36*
X86576Y86158D02*
X86546Y86118D01*
X86396D01*
X86356Y86158D01*
Y86398D01*
X86576D01*
Y86158D01*
D02*
G37*
G36*
X86206D02*
X86166Y86118D01*
X86026D01*
X85986Y86158D01*
Y86398D01*
X86206D01*
Y86158D01*
D02*
G37*
G36*
X90088Y90331D02*
X89958D01*
Y90378D01*
X89998Y90421D01*
X90088D01*
Y90331D01*
D02*
G37*
G36*
X89788Y90382D02*
Y90331D01*
X89578D01*
Y90382D01*
X89618Y90417D01*
X89758D01*
X89788Y90382D01*
D02*
G37*
G36*
X89409D02*
Y90331D01*
X89197D01*
Y90382D01*
X89232Y90417D01*
X89374D01*
X89409Y90382D01*
D02*
G37*
G36*
X56171Y75243D02*
X56072Y75146D01*
X55990D01*
X55896Y75239D01*
Y75372D01*
X56171D01*
Y75243D01*
D02*
G37*
G36*
X65775Y75126D02*
X65657D01*
X65529Y75254D01*
Y75372D01*
X65775D01*
Y75126D01*
D02*
G37*
G36*
X64702Y75254D02*
X64574Y75126D01*
X64456D01*
Y75372D01*
X64702D01*
Y75254D01*
D02*
G37*
G36*
X61054Y75244D02*
X60956Y75146D01*
X60867D01*
X60779Y75234D01*
Y75372D01*
X61054D01*
Y75244D01*
D02*
G37*
G36*
X60680Y75243D02*
X60581Y75146D01*
X60500D01*
X60405Y75239D01*
Y75372D01*
X60680D01*
Y75243D01*
D02*
G37*
G36*
X56545Y75244D02*
X56447Y75146D01*
X56358D01*
X56270Y75234D01*
Y75372D01*
X56545D01*
Y75244D01*
D02*
G37*
G36*
X55807Y75254D02*
X55679Y75126D01*
X55561D01*
Y75372D01*
X55807D01*
Y75254D01*
D02*
G37*
G36*
X74321Y75175D02*
X74222Y75077D01*
X74134D01*
X74045Y75166D01*
Y75303D01*
X74321D01*
Y75175D01*
D02*
G37*
G36*
X73947Y75174D02*
X73848Y75077D01*
X73766D01*
X73671Y75170D01*
Y75303D01*
X73947D01*
Y75174D01*
D02*
G37*
G36*
X61389Y75126D02*
X61271D01*
X61143Y75254D01*
Y75372D01*
X61389D01*
Y75126D01*
D02*
G37*
G36*
X60316Y75254D02*
X60188Y75126D01*
X60070D01*
Y75372D01*
X60316D01*
Y75254D01*
D02*
G37*
G36*
X56880Y75126D02*
X56762D01*
X56634Y75254D01*
Y75372D01*
X56880D01*
Y75126D01*
D02*
G37*
G36*
X65067Y75243D02*
X64967Y75146D01*
X64886D01*
X64791Y75239D01*
Y75372D01*
X65067D01*
Y75243D01*
D02*
G37*
G36*
X61087Y84915D02*
Y84817D01*
X61009Y84738D01*
X60910D01*
X60822Y84826D01*
Y84905D01*
X60920Y85004D01*
X60999D01*
X61087Y84915D01*
D02*
G37*
G36*
X61806Y84728D02*
X61678D01*
X61580Y84826D01*
Y84915D01*
X61668Y85004D01*
X61806D01*
Y84728D01*
D02*
G37*
G36*
X61471Y84905D02*
Y84826D01*
X61373Y84728D01*
X61294D01*
X61206Y84817D01*
Y84915D01*
X61284Y84994D01*
X61383D01*
X61471Y84905D01*
D02*
G37*
G36*
X86206Y84791D02*
Y84740D01*
X85996D01*
Y84791D01*
X86036Y84827D01*
X86176D01*
X86206Y84791D01*
D02*
G37*
G36*
X85827D02*
Y84740D01*
X85614D01*
Y84791D01*
X85650Y84827D01*
X85791D01*
X85827Y84791D01*
D02*
G37*
G36*
X85453Y84787D02*
Y84740D01*
X85311D01*
Y84831D01*
X85409D01*
X85453Y84787D01*
D02*
G37*
G36*
X61097Y84526D02*
Y84393D01*
X60822D01*
Y84522D01*
X60921Y84620D01*
X61002D01*
X61097Y84526D01*
D02*
G37*
G36*
X60733Y84511D02*
Y84393D01*
X60487D01*
Y84639D01*
X60605D01*
X60733Y84511D01*
D02*
G37*
G36*
X65441Y75244D02*
X65342Y75146D01*
X65254D01*
X65165Y75234D01*
Y75372D01*
X65441D01*
Y75244D01*
D02*
G37*
G36*
X60713Y84904D02*
Y84823D01*
X60620Y84728D01*
X60487D01*
Y85004D01*
X60616D01*
X60713Y84904D01*
D02*
G37*
G36*
X61806Y84393D02*
X61560D01*
Y84511D01*
X61688Y84639D01*
X61806D01*
Y84393D01*
D02*
G37*
G36*
X61471Y84526D02*
Y84393D01*
X61196D01*
Y84522D01*
X61295Y84620D01*
X61376D01*
X61471Y84526D01*
D02*
G37*
D11*
X13061Y96959D02*
D03*
X93356D02*
D03*
Y10561D02*
D03*
X13061D02*
D03*
D86*
X51575Y36850D02*
D03*
X50787D02*
D03*
X50236Y37402D02*
D03*
Y38189D02*
D03*
X50787Y38740D02*
D03*
X51575D02*
D03*
X52126Y38189D02*
D03*
Y37402D02*
D03*
X14724D02*
D03*
Y38189D02*
D03*
X14173Y38740D02*
D03*
X13386D02*
D03*
X12835Y38189D02*
D03*
Y37402D02*
D03*
X13386Y36850D02*
D03*
X14173D02*
D03*
Y12835D02*
D03*
X13386D02*
D03*
X12835Y13386D02*
D03*
Y14173D02*
D03*
X13386Y14724D02*
D03*
X14173D02*
D03*
X14724Y14173D02*
D03*
Y13386D02*
D03*
X52126D02*
D03*
Y14173D02*
D03*
X51575Y14724D02*
D03*
X50787D02*
D03*
X50236Y14173D02*
D03*
Y13386D02*
D03*
X50787Y12835D02*
D03*
X51575D02*
D03*
X92953Y36850D02*
D03*
X92165D02*
D03*
X91614Y37402D02*
D03*
Y38189D02*
D03*
X92165Y38740D02*
D03*
X92953D02*
D03*
X93504Y38189D02*
D03*
Y37402D02*
D03*
X56102D02*
D03*
Y38189D02*
D03*
X55551Y38740D02*
D03*
X54764D02*
D03*
X54213Y38189D02*
D03*
Y37402D02*
D03*
X54764Y36850D02*
D03*
X55551D02*
D03*
Y12835D02*
D03*
X54764D02*
D03*
X54213Y13386D02*
D03*
Y14173D02*
D03*
X54764Y14724D02*
D03*
X55551D02*
D03*
X56102Y14173D02*
D03*
Y13386D02*
D03*
X93504D02*
D03*
Y14173D02*
D03*
X92953Y14724D02*
D03*
X92165D02*
D03*
X91614Y14173D02*
D03*
Y13386D02*
D03*
X92165Y12835D02*
D03*
X92953D02*
D03*
X51575Y64843D02*
D03*
X50787D02*
D03*
X50236Y65394D02*
D03*
Y66181D02*
D03*
X50787Y66732D02*
D03*
X51575D02*
D03*
X52126Y66181D02*
D03*
Y65394D02*
D03*
X14724D02*
D03*
Y66181D02*
D03*
X14173Y66732D02*
D03*
X13386D02*
D03*
X12835Y66181D02*
D03*
Y65394D02*
D03*
X13386Y64843D02*
D03*
X14173D02*
D03*
Y40827D02*
D03*
X13386D02*
D03*
X12835Y41378D02*
D03*
Y42165D02*
D03*
X13386Y42717D02*
D03*
X14173D02*
D03*
X14724Y42165D02*
D03*
Y41378D02*
D03*
X52126D02*
D03*
Y42165D02*
D03*
X51575Y42717D02*
D03*
X50787D02*
D03*
X50236Y42165D02*
D03*
Y41378D02*
D03*
X50787Y40827D02*
D03*
X51575D02*
D03*
X92953Y64843D02*
D03*
X92165D02*
D03*
X91614Y65394D02*
D03*
Y66181D02*
D03*
X92165Y66732D02*
D03*
X92953D02*
D03*
X93504Y66181D02*
D03*
Y65394D02*
D03*
X56102D02*
D03*
Y66181D02*
D03*
X55551Y66732D02*
D03*
X54764D02*
D03*
X54213Y66181D02*
D03*
Y65394D02*
D03*
X54764Y64843D02*
D03*
X55551D02*
D03*
Y40827D02*
D03*
X54764D02*
D03*
X54213Y41378D02*
D03*
Y42165D02*
D03*
X54764Y42717D02*
D03*
X55551D02*
D03*
X56102Y42165D02*
D03*
Y41378D02*
D03*
X93504D02*
D03*
Y42165D02*
D03*
X92953Y42717D02*
D03*
X92165D02*
D03*
X91614Y42165D02*
D03*
Y41378D02*
D03*
X92165Y40827D02*
D03*
X92953D02*
D03*
X51575Y92835D02*
D03*
X50787D02*
D03*
X50236Y93386D02*
D03*
Y94173D02*
D03*
X50787Y94724D02*
D03*
X51575D02*
D03*
X52126Y94173D02*
D03*
Y93386D02*
D03*
X14724D02*
D03*
Y94173D02*
D03*
X14173Y94724D02*
D03*
X13386D02*
D03*
X12835Y94173D02*
D03*
Y93386D02*
D03*
X13386Y92835D02*
D03*
X14173D02*
D03*
Y68819D02*
D03*
X13386D02*
D03*
X12835Y69370D02*
D03*
Y70157D02*
D03*
X13386Y70709D02*
D03*
X14173D02*
D03*
X14724Y70157D02*
D03*
Y69370D02*
D03*
X52126D02*
D03*
Y70157D02*
D03*
X51575Y70709D02*
D03*
X50787D02*
D03*
X50236Y70157D02*
D03*
Y69370D02*
D03*
X50787Y68819D02*
D03*
X51575D02*
D03*
X92953Y92835D02*
D03*
X92165D02*
D03*
X91614Y93386D02*
D03*
Y94173D02*
D03*
X92165Y94724D02*
D03*
X92953D02*
D03*
X93504Y94173D02*
D03*
Y93386D02*
D03*
X56102D02*
D03*
Y94173D02*
D03*
X55551Y94724D02*
D03*
X54764D02*
D03*
X54213Y94173D02*
D03*
Y93386D02*
D03*
X54764Y92835D02*
D03*
X55551D02*
D03*
Y68819D02*
D03*
X54764D02*
D03*
X54213Y69370D02*
D03*
Y70157D02*
D03*
X54764Y70709D02*
D03*
X55551D02*
D03*
X56102Y70157D02*
D03*
Y69370D02*
D03*
X93504D02*
D03*
Y70157D02*
D03*
X92953Y70709D02*
D03*
X92165D02*
D03*
X91614Y70157D02*
D03*
Y69370D02*
D03*
X92165Y68819D02*
D03*
X92953D02*
D03*
D131*
X31286Y29531D02*
D03*
Y29334D02*
D03*
Y29137D02*
D03*
Y28940D02*
D03*
Y28743D02*
D03*
Y28546D02*
D03*
Y28350D02*
D03*
Y28153D02*
D03*
Y27956D02*
D03*
Y27759D02*
D03*
Y27562D02*
D03*
Y27365D02*
D03*
Y27169D02*
D03*
Y26969D02*
D03*
Y26769D02*
D03*
Y26569D02*
D03*
Y26379D02*
D03*
Y26179D02*
D03*
Y25979D02*
D03*
Y25789D02*
D03*
Y25589D02*
D03*
Y25389D02*
D03*
Y25199D02*
D03*
Y24999D02*
D03*
Y24799D02*
D03*
X24987D02*
D03*
Y24999D02*
D03*
Y25199D02*
D03*
Y25389D02*
D03*
Y25589D02*
D03*
Y25789D02*
D03*
Y25979D02*
D03*
Y26179D02*
D03*
Y26379D02*
D03*
Y26569D02*
D03*
Y26769D02*
D03*
Y26969D02*
D03*
Y27169D02*
D03*
Y27365D02*
D03*
Y27562D02*
D03*
Y27759D02*
D03*
Y27956D02*
D03*
Y28153D02*
D03*
Y28350D02*
D03*
Y28546D02*
D03*
Y28743D02*
D03*
Y28940D02*
D03*
Y29137D02*
D03*
Y29334D02*
D03*
Y29531D02*
D03*
X72664D02*
D03*
Y29334D02*
D03*
Y29137D02*
D03*
Y28940D02*
D03*
Y28743D02*
D03*
Y28546D02*
D03*
Y28350D02*
D03*
Y28153D02*
D03*
Y27956D02*
D03*
Y27759D02*
D03*
Y27562D02*
D03*
Y27365D02*
D03*
Y27169D02*
D03*
Y26969D02*
D03*
Y26769D02*
D03*
Y26569D02*
D03*
Y26379D02*
D03*
Y26179D02*
D03*
Y25979D02*
D03*
Y25789D02*
D03*
Y25589D02*
D03*
Y25389D02*
D03*
Y25199D02*
D03*
Y24999D02*
D03*
Y24799D02*
D03*
X66365D02*
D03*
Y24999D02*
D03*
Y25199D02*
D03*
Y25389D02*
D03*
Y25589D02*
D03*
Y25789D02*
D03*
Y25979D02*
D03*
Y26179D02*
D03*
Y26379D02*
D03*
Y26569D02*
D03*
Y26769D02*
D03*
Y26969D02*
D03*
Y27169D02*
D03*
Y27365D02*
D03*
Y27562D02*
D03*
Y27759D02*
D03*
Y27956D02*
D03*
Y28153D02*
D03*
Y28350D02*
D03*
Y28546D02*
D03*
Y28743D02*
D03*
Y28940D02*
D03*
Y29137D02*
D03*
Y29334D02*
D03*
Y29531D02*
D03*
X31286Y57523D02*
D03*
Y57326D02*
D03*
Y57129D02*
D03*
Y56932D02*
D03*
Y56735D02*
D03*
Y56539D02*
D03*
Y56342D02*
D03*
Y56145D02*
D03*
Y55948D02*
D03*
Y55751D02*
D03*
Y55554D02*
D03*
Y55357D02*
D03*
Y55161D02*
D03*
Y54961D02*
D03*
Y54761D02*
D03*
Y54561D02*
D03*
Y54371D02*
D03*
Y54171D02*
D03*
Y53971D02*
D03*
Y53781D02*
D03*
Y53581D02*
D03*
Y53381D02*
D03*
Y53191D02*
D03*
Y52991D02*
D03*
Y52791D02*
D03*
X24987D02*
D03*
Y52991D02*
D03*
Y53191D02*
D03*
Y53381D02*
D03*
Y53581D02*
D03*
Y53781D02*
D03*
Y53971D02*
D03*
Y54171D02*
D03*
Y54371D02*
D03*
Y54561D02*
D03*
Y54761D02*
D03*
Y54961D02*
D03*
Y55161D02*
D03*
Y55357D02*
D03*
Y55554D02*
D03*
Y55751D02*
D03*
Y55948D02*
D03*
Y56145D02*
D03*
Y56342D02*
D03*
Y56539D02*
D03*
Y56735D02*
D03*
Y56932D02*
D03*
Y57129D02*
D03*
Y57326D02*
D03*
Y57523D02*
D03*
X72664D02*
D03*
Y57326D02*
D03*
Y57129D02*
D03*
Y56932D02*
D03*
Y56735D02*
D03*
Y56539D02*
D03*
Y56342D02*
D03*
Y56145D02*
D03*
Y55948D02*
D03*
Y55751D02*
D03*
Y55554D02*
D03*
Y55357D02*
D03*
Y55161D02*
D03*
Y54961D02*
D03*
Y54761D02*
D03*
Y54561D02*
D03*
Y54371D02*
D03*
Y54171D02*
D03*
Y53971D02*
D03*
Y53781D02*
D03*
Y53581D02*
D03*
Y53381D02*
D03*
Y53191D02*
D03*
Y52991D02*
D03*
Y52791D02*
D03*
X66365D02*
D03*
Y52991D02*
D03*
Y53191D02*
D03*
Y53381D02*
D03*
Y53581D02*
D03*
Y53781D02*
D03*
Y53971D02*
D03*
Y54171D02*
D03*
Y54371D02*
D03*
Y54561D02*
D03*
Y54761D02*
D03*
Y54961D02*
D03*
Y55161D02*
D03*
Y55357D02*
D03*
Y55554D02*
D03*
Y55751D02*
D03*
Y55948D02*
D03*
Y56145D02*
D03*
Y56342D02*
D03*
Y56539D02*
D03*
Y56735D02*
D03*
Y56932D02*
D03*
Y57129D02*
D03*
Y57326D02*
D03*
Y57523D02*
D03*
X31286Y85515D02*
D03*
Y85318D02*
D03*
Y85121D02*
D03*
Y84924D02*
D03*
Y84728D02*
D03*
Y84531D02*
D03*
Y84334D02*
D03*
Y84137D02*
D03*
Y83940D02*
D03*
Y83743D02*
D03*
Y83546D02*
D03*
Y83350D02*
D03*
Y83153D02*
D03*
Y82953D02*
D03*
Y82753D02*
D03*
Y82553D02*
D03*
Y82363D02*
D03*
Y82163D02*
D03*
Y81963D02*
D03*
Y81773D02*
D03*
Y81573D02*
D03*
Y81373D02*
D03*
Y81183D02*
D03*
Y80983D02*
D03*
Y80783D02*
D03*
X24987D02*
D03*
Y80983D02*
D03*
Y81183D02*
D03*
Y81373D02*
D03*
Y81573D02*
D03*
Y81773D02*
D03*
Y81963D02*
D03*
Y82163D02*
D03*
Y82363D02*
D03*
Y82553D02*
D03*
Y82753D02*
D03*
Y82953D02*
D03*
Y83153D02*
D03*
Y83350D02*
D03*
Y83546D02*
D03*
Y83743D02*
D03*
Y83940D02*
D03*
Y84137D02*
D03*
Y84334D02*
D03*
Y84531D02*
D03*
Y84728D02*
D03*
Y84924D02*
D03*
Y85121D02*
D03*
Y85318D02*
D03*
Y85515D02*
D03*
X72664D02*
D03*
Y85318D02*
D03*
Y85121D02*
D03*
Y84924D02*
D03*
Y84728D02*
D03*
Y84531D02*
D03*
Y84334D02*
D03*
Y84137D02*
D03*
Y83940D02*
D03*
Y83743D02*
D03*
Y83546D02*
D03*
Y83350D02*
D03*
Y83153D02*
D03*
Y82953D02*
D03*
Y82753D02*
D03*
Y82553D02*
D03*
Y82363D02*
D03*
Y82163D02*
D03*
Y81963D02*
D03*
Y81773D02*
D03*
Y81573D02*
D03*
Y81373D02*
D03*
Y81183D02*
D03*
Y80983D02*
D03*
Y80783D02*
D03*
X66365D02*
D03*
Y80983D02*
D03*
Y81183D02*
D03*
Y81373D02*
D03*
Y81573D02*
D03*
Y81773D02*
D03*
Y81963D02*
D03*
Y82163D02*
D03*
Y82363D02*
D03*
Y82553D02*
D03*
Y82753D02*
D03*
Y82953D02*
D03*
Y83153D02*
D03*
Y83350D02*
D03*
Y83546D02*
D03*
Y83743D02*
D03*
Y83940D02*
D03*
Y84137D02*
D03*
Y84334D02*
D03*
Y84531D02*
D03*
Y84728D02*
D03*
Y84924D02*
D03*
Y85121D02*
D03*
Y85318D02*
D03*
Y85515D02*
D03*
D132*
X30506Y24018D02*
D03*
X30306D02*
D03*
X30106D02*
D03*
X29916D02*
D03*
X29716D02*
D03*
X29516D02*
D03*
X29326D02*
D03*
X29126D02*
D03*
X28926D02*
D03*
X28736D02*
D03*
X28536D02*
D03*
X28336D02*
D03*
X28136D02*
D03*
X27940D02*
D03*
X27743D02*
D03*
X27546D02*
D03*
X27349D02*
D03*
X27152D02*
D03*
X26955D02*
D03*
X26758D02*
D03*
X26562D02*
D03*
X26365D02*
D03*
X26168D02*
D03*
X25971D02*
D03*
X25774D02*
D03*
Y30318D02*
D03*
X25971D02*
D03*
X26168D02*
D03*
X26365D02*
D03*
X26562D02*
D03*
X26758D02*
D03*
X26955D02*
D03*
X27152D02*
D03*
X27349D02*
D03*
X27546D02*
D03*
X27743D02*
D03*
X27940D02*
D03*
X28136D02*
D03*
X28336D02*
D03*
X28536D02*
D03*
X28736D02*
D03*
X28926D02*
D03*
X29126D02*
D03*
X29326D02*
D03*
X29516D02*
D03*
X29716D02*
D03*
X29916D02*
D03*
X30106D02*
D03*
X30306D02*
D03*
X30506D02*
D03*
X71884Y24018D02*
D03*
X71684D02*
D03*
X71484D02*
D03*
X71294D02*
D03*
X71094D02*
D03*
X70894D02*
D03*
X70704D02*
D03*
X70504D02*
D03*
X70304D02*
D03*
X70114D02*
D03*
X69914D02*
D03*
X69714D02*
D03*
X69514D02*
D03*
X69317D02*
D03*
X69121D02*
D03*
X68924D02*
D03*
X68727D02*
D03*
X68530D02*
D03*
X68333D02*
D03*
X68136D02*
D03*
X67940D02*
D03*
X67743D02*
D03*
X67546D02*
D03*
X67349D02*
D03*
X67152D02*
D03*
Y30318D02*
D03*
X67349D02*
D03*
X67546D02*
D03*
X67743D02*
D03*
X67940D02*
D03*
X68136D02*
D03*
X68333D02*
D03*
X68530D02*
D03*
X68727D02*
D03*
X68924D02*
D03*
X69121D02*
D03*
X69317D02*
D03*
X69514D02*
D03*
X69714D02*
D03*
X69914D02*
D03*
X70114D02*
D03*
X70304D02*
D03*
X70504D02*
D03*
X70704D02*
D03*
X70894D02*
D03*
X71094D02*
D03*
X71294D02*
D03*
X71484D02*
D03*
X71684D02*
D03*
X71884D02*
D03*
X30506Y52011D02*
D03*
X30306D02*
D03*
X30106D02*
D03*
X29916D02*
D03*
X29716D02*
D03*
X29516D02*
D03*
X29326D02*
D03*
X29126D02*
D03*
X28926D02*
D03*
X28736D02*
D03*
X28536D02*
D03*
X28336D02*
D03*
X28136D02*
D03*
X27940D02*
D03*
X27743D02*
D03*
X27546D02*
D03*
X27349D02*
D03*
X27152D02*
D03*
X26955D02*
D03*
X26758D02*
D03*
X26562D02*
D03*
X26365D02*
D03*
X26168D02*
D03*
X25971D02*
D03*
X25774D02*
D03*
Y58310D02*
D03*
X25971D02*
D03*
X26168D02*
D03*
X26365D02*
D03*
X26562D02*
D03*
X26758D02*
D03*
X26955D02*
D03*
X27152D02*
D03*
X27349D02*
D03*
X27546D02*
D03*
X27743D02*
D03*
X27940D02*
D03*
X28136D02*
D03*
X28336D02*
D03*
X28536D02*
D03*
X28736D02*
D03*
X28926D02*
D03*
X29126D02*
D03*
X29326D02*
D03*
X29516D02*
D03*
X29716D02*
D03*
X29916D02*
D03*
X30106D02*
D03*
X30306D02*
D03*
X30506D02*
D03*
X71884Y52011D02*
D03*
X71684D02*
D03*
X71484D02*
D03*
X71294D02*
D03*
X71094D02*
D03*
X70894D02*
D03*
X70704D02*
D03*
X70504D02*
D03*
X70304D02*
D03*
X70114D02*
D03*
X69914D02*
D03*
X69714D02*
D03*
X69514D02*
D03*
X69317D02*
D03*
X69121D02*
D03*
X68924D02*
D03*
X68727D02*
D03*
X68530D02*
D03*
X68333D02*
D03*
X68136D02*
D03*
X67940D02*
D03*
X67743D02*
D03*
X67546D02*
D03*
X67349D02*
D03*
X67152D02*
D03*
Y58310D02*
D03*
X67349D02*
D03*
X67546D02*
D03*
X67743D02*
D03*
X67940D02*
D03*
X68136D02*
D03*
X68333D02*
D03*
X68530D02*
D03*
X68727D02*
D03*
X68924D02*
D03*
X69121D02*
D03*
X69317D02*
D03*
X69514D02*
D03*
X69714D02*
D03*
X69914D02*
D03*
X70114D02*
D03*
X70304D02*
D03*
X70504D02*
D03*
X70704D02*
D03*
X70894D02*
D03*
X71094D02*
D03*
X71294D02*
D03*
X71484D02*
D03*
X71684D02*
D03*
X71884D02*
D03*
X30506Y80003D02*
D03*
X30306D02*
D03*
X30106D02*
D03*
X29916D02*
D03*
X29716D02*
D03*
X29516D02*
D03*
X29326D02*
D03*
X29126D02*
D03*
X28926D02*
D03*
X28736D02*
D03*
X28536D02*
D03*
X28336D02*
D03*
X28136D02*
D03*
X27940D02*
D03*
X27743D02*
D03*
X27546D02*
D03*
X27349D02*
D03*
X27152D02*
D03*
X26955D02*
D03*
X26758D02*
D03*
X26562D02*
D03*
X26365D02*
D03*
X26168D02*
D03*
X25971D02*
D03*
X25774D02*
D03*
Y86302D02*
D03*
X25971D02*
D03*
X26168D02*
D03*
X26365D02*
D03*
X26562D02*
D03*
X26758D02*
D03*
X26955D02*
D03*
X27152D02*
D03*
X27349D02*
D03*
X27546D02*
D03*
X27743D02*
D03*
X27940D02*
D03*
X28136D02*
D03*
X28336D02*
D03*
X28536D02*
D03*
X28736D02*
D03*
X28926D02*
D03*
X29126D02*
D03*
X29326D02*
D03*
X29516D02*
D03*
X29716D02*
D03*
X29916D02*
D03*
X30106D02*
D03*
X30306D02*
D03*
X30506D02*
D03*
X71884Y80003D02*
D03*
X71684D02*
D03*
X71484D02*
D03*
X71294D02*
D03*
X71094D02*
D03*
X70894D02*
D03*
X70704D02*
D03*
X70504D02*
D03*
X70304D02*
D03*
X70114D02*
D03*
X69914D02*
D03*
X69714D02*
D03*
X69514D02*
D03*
X69317D02*
D03*
X69121D02*
D03*
X68924D02*
D03*
X68727D02*
D03*
X68530D02*
D03*
X68333D02*
D03*
X68136D02*
D03*
X67940D02*
D03*
X67743D02*
D03*
X67546D02*
D03*
X67349D02*
D03*
X67152D02*
D03*
Y86302D02*
D03*
X67349D02*
D03*
X67546D02*
D03*
X67743D02*
D03*
X67940D02*
D03*
X68136D02*
D03*
X68333D02*
D03*
X68530D02*
D03*
X68727D02*
D03*
X68924D02*
D03*
X69121D02*
D03*
X69317D02*
D03*
X69514D02*
D03*
X69714D02*
D03*
X69914D02*
D03*
X70114D02*
D03*
X70304D02*
D03*
X70504D02*
D03*
X70704D02*
D03*
X70894D02*
D03*
X71094D02*
D03*
X71294D02*
D03*
X71484D02*
D03*
X71684D02*
D03*
X71884D02*
D03*
D133*
X19079Y28124D02*
D03*
X19268D02*
D03*
X19468D02*
D03*
X19669D02*
D03*
X19867D02*
D03*
X20064D02*
D03*
X20261D02*
D03*
X20457D02*
D03*
Y30018D02*
D03*
X20261D02*
D03*
X20064D02*
D03*
X19867D02*
D03*
X19669D02*
D03*
X19468D02*
D03*
X19268D02*
D03*
X19079D02*
D03*
X15532Y19673D02*
D03*
X15335D02*
D03*
X15138D02*
D03*
X14941D02*
D03*
X14743D02*
D03*
X14543D02*
D03*
X14343D02*
D03*
X14153D02*
D03*
Y17779D02*
D03*
X14343D02*
D03*
X14543D02*
D03*
X14743D02*
D03*
X14941D02*
D03*
X15138D02*
D03*
X15335D02*
D03*
X15532D02*
D03*
X20041Y19673D02*
D03*
X19844D02*
D03*
X19647D02*
D03*
X19450D02*
D03*
X19252D02*
D03*
X19052D02*
D03*
X18852D02*
D03*
X18662D02*
D03*
Y17779D02*
D03*
X18852D02*
D03*
X19052D02*
D03*
X19252D02*
D03*
X19450D02*
D03*
X19647D02*
D03*
X19844D02*
D03*
X20041D02*
D03*
X24427Y19673D02*
D03*
X24230D02*
D03*
X24033D02*
D03*
X23836D02*
D03*
X23638D02*
D03*
X23438D02*
D03*
X23238D02*
D03*
X23048D02*
D03*
Y17779D02*
D03*
X23238D02*
D03*
X23438D02*
D03*
X23638D02*
D03*
X23836D02*
D03*
X24033D02*
D03*
X24230D02*
D03*
X24427D02*
D03*
X33307Y19605D02*
D03*
X33110D02*
D03*
X32913D02*
D03*
X32717D02*
D03*
X32518D02*
D03*
X32318D02*
D03*
X32118D02*
D03*
X31928D02*
D03*
Y17710D02*
D03*
X32118D02*
D03*
X32318D02*
D03*
X32518D02*
D03*
X32717D02*
D03*
X32913D02*
D03*
X33110D02*
D03*
X33307D02*
D03*
X60456Y28124D02*
D03*
X60646D02*
D03*
X60846D02*
D03*
X61046D02*
D03*
X61245D02*
D03*
X61442D02*
D03*
X61639D02*
D03*
X61835D02*
D03*
Y30018D02*
D03*
X61639D02*
D03*
X61442D02*
D03*
X61245D02*
D03*
X61046D02*
D03*
X60846D02*
D03*
X60646D02*
D03*
X60456D02*
D03*
X56909Y19673D02*
D03*
X56713D02*
D03*
X56516D02*
D03*
X56319D02*
D03*
X56120D02*
D03*
X55920D02*
D03*
X55720D02*
D03*
X55530D02*
D03*
Y17779D02*
D03*
X55720D02*
D03*
X55920D02*
D03*
X56120D02*
D03*
X56319D02*
D03*
X56516D02*
D03*
X56713D02*
D03*
X56909D02*
D03*
X61419Y19673D02*
D03*
X61222D02*
D03*
X61025D02*
D03*
X60828D02*
D03*
X60630D02*
D03*
X60430D02*
D03*
X60230D02*
D03*
X60040D02*
D03*
Y17779D02*
D03*
X60230D02*
D03*
X60430D02*
D03*
X60630D02*
D03*
X60828D02*
D03*
X61025D02*
D03*
X61222D02*
D03*
X61419D02*
D03*
X65805Y19673D02*
D03*
X65608D02*
D03*
X65411D02*
D03*
X65214D02*
D03*
X65016D02*
D03*
X64816D02*
D03*
X64616D02*
D03*
X64426D02*
D03*
Y17779D02*
D03*
X64616D02*
D03*
X64816D02*
D03*
X65016D02*
D03*
X65214D02*
D03*
X65411D02*
D03*
X65608D02*
D03*
X65805D02*
D03*
X74685Y19605D02*
D03*
X74488D02*
D03*
X74291D02*
D03*
X74094D02*
D03*
X73896D02*
D03*
X73696D02*
D03*
X73496D02*
D03*
X73306D02*
D03*
Y17710D02*
D03*
X73496D02*
D03*
X73696D02*
D03*
X73896D02*
D03*
X74094D02*
D03*
X74291D02*
D03*
X74488D02*
D03*
X74685D02*
D03*
X19079Y56116D02*
D03*
X19268D02*
D03*
X19468D02*
D03*
X19669D02*
D03*
X19867D02*
D03*
X20064D02*
D03*
X20261D02*
D03*
X20457D02*
D03*
Y58011D02*
D03*
X20261D02*
D03*
X20064D02*
D03*
X19867D02*
D03*
X19669D02*
D03*
X19468D02*
D03*
X19268D02*
D03*
X19079D02*
D03*
X15532Y47666D02*
D03*
X15335D02*
D03*
X15138D02*
D03*
X14941D02*
D03*
X14743D02*
D03*
X14543D02*
D03*
X14343D02*
D03*
X14153D02*
D03*
Y45771D02*
D03*
X14343D02*
D03*
X14543D02*
D03*
X14743D02*
D03*
X14941D02*
D03*
X15138D02*
D03*
X15335D02*
D03*
X15532D02*
D03*
X20041Y47666D02*
D03*
X19844D02*
D03*
X19647D02*
D03*
X19450D02*
D03*
X19252D02*
D03*
X19052D02*
D03*
X18852D02*
D03*
X18662D02*
D03*
Y45771D02*
D03*
X18852D02*
D03*
X19052D02*
D03*
X19252D02*
D03*
X19450D02*
D03*
X19647D02*
D03*
X19844D02*
D03*
X20041D02*
D03*
X24427Y47666D02*
D03*
X24230D02*
D03*
X24033D02*
D03*
X23836D02*
D03*
X23638D02*
D03*
X23438D02*
D03*
X23238D02*
D03*
X23048D02*
D03*
Y45771D02*
D03*
X23238D02*
D03*
X23438D02*
D03*
X23638D02*
D03*
X23836D02*
D03*
X24033D02*
D03*
X24230D02*
D03*
X24427D02*
D03*
X33307Y47597D02*
D03*
X33110D02*
D03*
X32913D02*
D03*
X32717D02*
D03*
X32518D02*
D03*
X32318D02*
D03*
X32118D02*
D03*
X31928D02*
D03*
Y45702D02*
D03*
X32118D02*
D03*
X32318D02*
D03*
X32518D02*
D03*
X32717D02*
D03*
X32913D02*
D03*
X33110D02*
D03*
X33307D02*
D03*
X60456Y56116D02*
D03*
X60646D02*
D03*
X60846D02*
D03*
X61046D02*
D03*
X61245D02*
D03*
X61442D02*
D03*
X61639D02*
D03*
X61835D02*
D03*
Y58011D02*
D03*
X61639D02*
D03*
X61442D02*
D03*
X61245D02*
D03*
X61046D02*
D03*
X60846D02*
D03*
X60646D02*
D03*
X60456D02*
D03*
X56909Y47666D02*
D03*
X56713D02*
D03*
X56516D02*
D03*
X56319D02*
D03*
X56120D02*
D03*
X55920D02*
D03*
X55720D02*
D03*
X55530D02*
D03*
Y45771D02*
D03*
X55720D02*
D03*
X55920D02*
D03*
X56120D02*
D03*
X56319D02*
D03*
X56516D02*
D03*
X56713D02*
D03*
X56909D02*
D03*
X61419Y47666D02*
D03*
X61222D02*
D03*
X61025D02*
D03*
X60828D02*
D03*
X60630D02*
D03*
X60430D02*
D03*
X60230D02*
D03*
X60040D02*
D03*
Y45771D02*
D03*
X60230D02*
D03*
X60430D02*
D03*
X60630D02*
D03*
X60828D02*
D03*
X61025D02*
D03*
X61222D02*
D03*
X61419D02*
D03*
X65805Y47666D02*
D03*
X65608D02*
D03*
X65411D02*
D03*
X65214D02*
D03*
X65016D02*
D03*
X64816D02*
D03*
X64616D02*
D03*
X64426D02*
D03*
Y45771D02*
D03*
X64616D02*
D03*
X64816D02*
D03*
X65016D02*
D03*
X65214D02*
D03*
X65411D02*
D03*
X65608D02*
D03*
X65805D02*
D03*
X74685Y47597D02*
D03*
X74488D02*
D03*
X74291D02*
D03*
X74094D02*
D03*
X73896D02*
D03*
X73696D02*
D03*
X73496D02*
D03*
X73306D02*
D03*
Y45702D02*
D03*
X73496D02*
D03*
X73696D02*
D03*
X73896D02*
D03*
X74094D02*
D03*
X74291D02*
D03*
X74488D02*
D03*
X74685D02*
D03*
X19079Y84108D02*
D03*
X19268D02*
D03*
X19468D02*
D03*
X19669D02*
D03*
X19867D02*
D03*
X20064D02*
D03*
X20261D02*
D03*
X20457D02*
D03*
Y86003D02*
D03*
X20261D02*
D03*
X20064D02*
D03*
X19867D02*
D03*
X19669D02*
D03*
X19468D02*
D03*
X19268D02*
D03*
X19079D02*
D03*
X15532Y75658D02*
D03*
X15335D02*
D03*
X15138D02*
D03*
X14941D02*
D03*
X14743D02*
D03*
X14543D02*
D03*
X14343D02*
D03*
X14153D02*
D03*
Y73763D02*
D03*
X14343D02*
D03*
X14543D02*
D03*
X14743D02*
D03*
X14941D02*
D03*
X15138D02*
D03*
X15335D02*
D03*
X15532D02*
D03*
X20041Y75658D02*
D03*
X19844D02*
D03*
X19647D02*
D03*
X19450D02*
D03*
X19252D02*
D03*
X19052D02*
D03*
X18852D02*
D03*
X18662D02*
D03*
Y73763D02*
D03*
X18852D02*
D03*
X19052D02*
D03*
X19252D02*
D03*
X19450D02*
D03*
X19647D02*
D03*
X19844D02*
D03*
X20041D02*
D03*
X24427Y75658D02*
D03*
X24230D02*
D03*
X24033D02*
D03*
X23836D02*
D03*
X23638D02*
D03*
X23438D02*
D03*
X23238D02*
D03*
X23048D02*
D03*
Y73763D02*
D03*
X23238D02*
D03*
X23438D02*
D03*
X23638D02*
D03*
X23836D02*
D03*
X24033D02*
D03*
X24230D02*
D03*
X24427D02*
D03*
X33307Y75589D02*
D03*
X33110D02*
D03*
X32913D02*
D03*
X32717D02*
D03*
X32518D02*
D03*
X32318D02*
D03*
X32118D02*
D03*
X31928D02*
D03*
Y73694D02*
D03*
X32118D02*
D03*
X32318D02*
D03*
X32518D02*
D03*
X32717D02*
D03*
X32913D02*
D03*
X33110D02*
D03*
X33307D02*
D03*
X60456Y84108D02*
D03*
X60646D02*
D03*
X60846D02*
D03*
X61046D02*
D03*
X61245D02*
D03*
X61442D02*
D03*
X61639D02*
D03*
X61835D02*
D03*
Y86003D02*
D03*
X61639D02*
D03*
X61442D02*
D03*
X61245D02*
D03*
X61046D02*
D03*
X60846D02*
D03*
X60646D02*
D03*
X60456D02*
D03*
X56909Y75658D02*
D03*
X56713D02*
D03*
X56516D02*
D03*
X56319D02*
D03*
X56120D02*
D03*
X55920D02*
D03*
X55720D02*
D03*
X55530D02*
D03*
Y73763D02*
D03*
X55720D02*
D03*
X55920D02*
D03*
X56120D02*
D03*
X56319D02*
D03*
X56516D02*
D03*
X56713D02*
D03*
X56909D02*
D03*
X61419Y75658D02*
D03*
X61222D02*
D03*
X61025D02*
D03*
X60828D02*
D03*
X60630D02*
D03*
X60430D02*
D03*
X60230D02*
D03*
X60040D02*
D03*
Y73763D02*
D03*
X60230D02*
D03*
X60430D02*
D03*
X60630D02*
D03*
X60828D02*
D03*
X61025D02*
D03*
X61222D02*
D03*
X61419D02*
D03*
X65805Y75658D02*
D03*
X65608D02*
D03*
X65411D02*
D03*
X65214D02*
D03*
X65016D02*
D03*
X64816D02*
D03*
X64616D02*
D03*
X64426D02*
D03*
Y73763D02*
D03*
X64616D02*
D03*
X64816D02*
D03*
X65016D02*
D03*
X65214D02*
D03*
X65411D02*
D03*
X65608D02*
D03*
X65805D02*
D03*
X74685Y75589D02*
D03*
X74488D02*
D03*
X74291D02*
D03*
X74094D02*
D03*
X73896D02*
D03*
X73696D02*
D03*
X73496D02*
D03*
X73306D02*
D03*
Y73694D02*
D03*
X73496D02*
D03*
X73696D02*
D03*
X73896D02*
D03*
X74094D02*
D03*
X74291D02*
D03*
X74488D02*
D03*
X74685D02*
D03*
D134*
X20713Y28380D02*
D03*
Y28576D02*
D03*
Y28773D02*
D03*
Y28970D02*
D03*
Y29169D02*
D03*
Y29369D02*
D03*
Y29569D02*
D03*
Y29759D02*
D03*
X18819D02*
D03*
Y29569D02*
D03*
Y29369D02*
D03*
Y29169D02*
D03*
Y28970D02*
D03*
Y28773D02*
D03*
Y28576D02*
D03*
Y28380D02*
D03*
X15787Y18039D02*
D03*
Y18229D02*
D03*
Y18429D02*
D03*
Y18629D02*
D03*
Y18827D02*
D03*
Y19024D02*
D03*
Y19221D02*
D03*
Y19418D02*
D03*
X13893D02*
D03*
Y19221D02*
D03*
Y19024D02*
D03*
Y18827D02*
D03*
Y18629D02*
D03*
Y18429D02*
D03*
Y18229D02*
D03*
Y18039D02*
D03*
X20296D02*
D03*
Y18229D02*
D03*
Y18429D02*
D03*
Y18629D02*
D03*
Y18827D02*
D03*
Y19024D02*
D03*
Y19221D02*
D03*
Y19418D02*
D03*
X18402D02*
D03*
Y19221D02*
D03*
Y19024D02*
D03*
Y18827D02*
D03*
Y18629D02*
D03*
Y18429D02*
D03*
Y18229D02*
D03*
Y18039D02*
D03*
X24683D02*
D03*
Y18229D02*
D03*
Y18429D02*
D03*
Y18629D02*
D03*
Y18827D02*
D03*
Y19024D02*
D03*
Y19221D02*
D03*
Y19418D02*
D03*
X22788D02*
D03*
Y19221D02*
D03*
Y19024D02*
D03*
Y18827D02*
D03*
Y18629D02*
D03*
Y18429D02*
D03*
Y18229D02*
D03*
Y18039D02*
D03*
X33563Y17970D02*
D03*
Y18160D02*
D03*
Y18360D02*
D03*
Y18560D02*
D03*
Y18758D02*
D03*
Y18955D02*
D03*
Y19152D02*
D03*
Y19349D02*
D03*
X31668D02*
D03*
Y19152D02*
D03*
Y18955D02*
D03*
Y18758D02*
D03*
Y18560D02*
D03*
Y18360D02*
D03*
Y18160D02*
D03*
Y17970D02*
D03*
X62091Y28380D02*
D03*
Y28576D02*
D03*
Y28773D02*
D03*
Y28970D02*
D03*
Y29169D02*
D03*
Y29369D02*
D03*
Y29569D02*
D03*
Y29759D02*
D03*
X60196D02*
D03*
Y29569D02*
D03*
Y29369D02*
D03*
Y29169D02*
D03*
Y28970D02*
D03*
Y28773D02*
D03*
Y28576D02*
D03*
Y28380D02*
D03*
X57165Y18039D02*
D03*
Y18229D02*
D03*
Y18429D02*
D03*
Y18629D02*
D03*
Y18827D02*
D03*
Y19024D02*
D03*
Y19221D02*
D03*
Y19418D02*
D03*
X55270D02*
D03*
Y19221D02*
D03*
Y19024D02*
D03*
Y18827D02*
D03*
Y18629D02*
D03*
Y18429D02*
D03*
Y18229D02*
D03*
Y18039D02*
D03*
X61674D02*
D03*
Y18229D02*
D03*
Y18429D02*
D03*
Y18629D02*
D03*
Y18827D02*
D03*
Y19024D02*
D03*
Y19221D02*
D03*
Y19418D02*
D03*
X59780D02*
D03*
Y19221D02*
D03*
Y19024D02*
D03*
Y18827D02*
D03*
Y18629D02*
D03*
Y18429D02*
D03*
Y18229D02*
D03*
Y18039D02*
D03*
X66061D02*
D03*
Y18229D02*
D03*
Y18429D02*
D03*
Y18629D02*
D03*
Y18827D02*
D03*
Y19024D02*
D03*
Y19221D02*
D03*
Y19418D02*
D03*
X64166D02*
D03*
Y19221D02*
D03*
Y19024D02*
D03*
Y18827D02*
D03*
Y18629D02*
D03*
Y18429D02*
D03*
Y18229D02*
D03*
Y18039D02*
D03*
X74941Y17970D02*
D03*
Y18160D02*
D03*
Y18360D02*
D03*
Y18560D02*
D03*
Y18758D02*
D03*
Y18955D02*
D03*
Y19152D02*
D03*
Y19349D02*
D03*
X73046D02*
D03*
Y19152D02*
D03*
Y18955D02*
D03*
Y18758D02*
D03*
Y18560D02*
D03*
Y18360D02*
D03*
Y18160D02*
D03*
Y17970D02*
D03*
X20713Y56372D02*
D03*
Y56569D02*
D03*
Y56765D02*
D03*
Y56962D02*
D03*
Y57161D02*
D03*
Y57361D02*
D03*
Y57561D02*
D03*
Y57751D02*
D03*
X18819D02*
D03*
Y57561D02*
D03*
Y57361D02*
D03*
Y57161D02*
D03*
Y56962D02*
D03*
Y56765D02*
D03*
Y56569D02*
D03*
Y56372D02*
D03*
X15787Y46031D02*
D03*
Y46221D02*
D03*
Y46421D02*
D03*
Y46621D02*
D03*
Y46819D02*
D03*
Y47016D02*
D03*
Y47213D02*
D03*
Y47410D02*
D03*
X13893D02*
D03*
Y47213D02*
D03*
Y47016D02*
D03*
Y46819D02*
D03*
Y46621D02*
D03*
Y46421D02*
D03*
Y46221D02*
D03*
Y46031D02*
D03*
X20296D02*
D03*
Y46221D02*
D03*
Y46421D02*
D03*
Y46621D02*
D03*
Y46819D02*
D03*
Y47016D02*
D03*
Y47213D02*
D03*
Y47410D02*
D03*
X18402D02*
D03*
Y47213D02*
D03*
Y47016D02*
D03*
Y46819D02*
D03*
Y46621D02*
D03*
Y46421D02*
D03*
Y46221D02*
D03*
Y46031D02*
D03*
X24683D02*
D03*
Y46221D02*
D03*
Y46421D02*
D03*
Y46621D02*
D03*
Y46819D02*
D03*
Y47016D02*
D03*
Y47213D02*
D03*
Y47410D02*
D03*
X22788D02*
D03*
Y47213D02*
D03*
Y47016D02*
D03*
Y46819D02*
D03*
Y46621D02*
D03*
Y46421D02*
D03*
Y46221D02*
D03*
Y46031D02*
D03*
X33563Y45962D02*
D03*
Y46152D02*
D03*
Y46352D02*
D03*
Y46552D02*
D03*
Y46750D02*
D03*
Y46947D02*
D03*
Y47144D02*
D03*
Y47341D02*
D03*
X31668D02*
D03*
Y47144D02*
D03*
Y46947D02*
D03*
Y46750D02*
D03*
Y46552D02*
D03*
Y46352D02*
D03*
Y46152D02*
D03*
Y45962D02*
D03*
X62091Y56372D02*
D03*
Y56569D02*
D03*
Y56765D02*
D03*
Y56962D02*
D03*
Y57161D02*
D03*
Y57361D02*
D03*
Y57561D02*
D03*
Y57751D02*
D03*
X60196D02*
D03*
Y57561D02*
D03*
Y57361D02*
D03*
Y57161D02*
D03*
Y56962D02*
D03*
Y56765D02*
D03*
Y56569D02*
D03*
Y56372D02*
D03*
X57165Y46031D02*
D03*
Y46221D02*
D03*
Y46421D02*
D03*
Y46621D02*
D03*
Y46819D02*
D03*
Y47016D02*
D03*
Y47213D02*
D03*
Y47410D02*
D03*
X55270D02*
D03*
Y47213D02*
D03*
Y47016D02*
D03*
Y46819D02*
D03*
Y46621D02*
D03*
Y46421D02*
D03*
Y46221D02*
D03*
Y46031D02*
D03*
X61674D02*
D03*
Y46221D02*
D03*
Y46421D02*
D03*
Y46621D02*
D03*
Y46819D02*
D03*
Y47016D02*
D03*
Y47213D02*
D03*
Y47410D02*
D03*
X59780D02*
D03*
Y47213D02*
D03*
Y47016D02*
D03*
Y46819D02*
D03*
Y46621D02*
D03*
Y46421D02*
D03*
Y46221D02*
D03*
Y46031D02*
D03*
X66061D02*
D03*
Y46221D02*
D03*
Y46421D02*
D03*
Y46621D02*
D03*
Y46819D02*
D03*
Y47016D02*
D03*
Y47213D02*
D03*
Y47410D02*
D03*
X64166D02*
D03*
Y47213D02*
D03*
Y47016D02*
D03*
Y46819D02*
D03*
Y46621D02*
D03*
Y46421D02*
D03*
Y46221D02*
D03*
Y46031D02*
D03*
X74941Y45962D02*
D03*
Y46152D02*
D03*
Y46352D02*
D03*
Y46552D02*
D03*
Y46750D02*
D03*
Y46947D02*
D03*
Y47144D02*
D03*
Y47341D02*
D03*
X73046D02*
D03*
Y47144D02*
D03*
Y46947D02*
D03*
Y46750D02*
D03*
Y46552D02*
D03*
Y46352D02*
D03*
Y46152D02*
D03*
Y45962D02*
D03*
X20713Y84364D02*
D03*
Y84561D02*
D03*
Y84757D02*
D03*
Y84954D02*
D03*
Y85153D02*
D03*
Y85353D02*
D03*
Y85553D02*
D03*
Y85743D02*
D03*
X18819D02*
D03*
Y85553D02*
D03*
Y85353D02*
D03*
Y85153D02*
D03*
Y84954D02*
D03*
Y84757D02*
D03*
Y84561D02*
D03*
Y84364D02*
D03*
X15787Y74023D02*
D03*
Y74213D02*
D03*
Y74413D02*
D03*
Y74613D02*
D03*
Y74811D02*
D03*
Y75008D02*
D03*
Y75205D02*
D03*
Y75402D02*
D03*
X13893D02*
D03*
Y75205D02*
D03*
Y75008D02*
D03*
Y74811D02*
D03*
Y74613D02*
D03*
Y74413D02*
D03*
Y74213D02*
D03*
Y74023D02*
D03*
X20296D02*
D03*
Y74213D02*
D03*
Y74413D02*
D03*
Y74613D02*
D03*
Y74811D02*
D03*
Y75008D02*
D03*
Y75205D02*
D03*
Y75402D02*
D03*
X18402D02*
D03*
Y75205D02*
D03*
Y75008D02*
D03*
Y74811D02*
D03*
Y74613D02*
D03*
Y74413D02*
D03*
Y74213D02*
D03*
Y74023D02*
D03*
X24683D02*
D03*
Y74213D02*
D03*
Y74413D02*
D03*
Y74613D02*
D03*
Y74811D02*
D03*
Y75008D02*
D03*
Y75205D02*
D03*
Y75402D02*
D03*
X22788D02*
D03*
Y75205D02*
D03*
Y75008D02*
D03*
Y74811D02*
D03*
Y74613D02*
D03*
Y74413D02*
D03*
Y74213D02*
D03*
Y74023D02*
D03*
X33563Y73954D02*
D03*
Y74144D02*
D03*
Y74344D02*
D03*
Y74544D02*
D03*
Y74742D02*
D03*
Y74939D02*
D03*
Y75136D02*
D03*
Y75333D02*
D03*
X31668D02*
D03*
Y75136D02*
D03*
Y74939D02*
D03*
Y74742D02*
D03*
Y74544D02*
D03*
Y74344D02*
D03*
Y74144D02*
D03*
Y73954D02*
D03*
X62091Y84364D02*
D03*
Y84561D02*
D03*
Y84757D02*
D03*
Y84954D02*
D03*
Y85153D02*
D03*
Y85353D02*
D03*
Y85553D02*
D03*
Y85743D02*
D03*
X60196D02*
D03*
Y85553D02*
D03*
Y85353D02*
D03*
Y85153D02*
D03*
Y84954D02*
D03*
Y84757D02*
D03*
Y84561D02*
D03*
Y84364D02*
D03*
X57165Y74023D02*
D03*
Y74213D02*
D03*
Y74413D02*
D03*
Y74613D02*
D03*
Y74811D02*
D03*
Y75008D02*
D03*
Y75205D02*
D03*
Y75402D02*
D03*
X55270D02*
D03*
Y75205D02*
D03*
Y75008D02*
D03*
Y74811D02*
D03*
Y74613D02*
D03*
Y74413D02*
D03*
Y74213D02*
D03*
Y74023D02*
D03*
X61674D02*
D03*
Y74213D02*
D03*
Y74413D02*
D03*
Y74613D02*
D03*
Y74811D02*
D03*
Y75008D02*
D03*
Y75205D02*
D03*
Y75402D02*
D03*
X59780D02*
D03*
Y75205D02*
D03*
Y75008D02*
D03*
Y74811D02*
D03*
Y74613D02*
D03*
Y74413D02*
D03*
Y74213D02*
D03*
Y74023D02*
D03*
X66061D02*
D03*
Y74213D02*
D03*
Y74413D02*
D03*
Y74613D02*
D03*
Y74811D02*
D03*
Y75008D02*
D03*
Y75205D02*
D03*
Y75402D02*
D03*
X64166D02*
D03*
Y75205D02*
D03*
Y75008D02*
D03*
Y74811D02*
D03*
Y74613D02*
D03*
Y74413D02*
D03*
Y74213D02*
D03*
Y74023D02*
D03*
X74941Y73954D02*
D03*
Y74144D02*
D03*
Y74344D02*
D03*
Y74544D02*
D03*
Y74742D02*
D03*
Y74939D02*
D03*
Y75136D02*
D03*
Y75333D02*
D03*
X73046D02*
D03*
Y75136D02*
D03*
Y74939D02*
D03*
Y74742D02*
D03*
Y74544D02*
D03*
Y74344D02*
D03*
Y74144D02*
D03*
Y73954D02*
D03*
D135*
X44390Y23219D02*
D03*
X42598D02*
D03*
X85768D02*
D03*
X83976D02*
D03*
X44390Y51211D02*
D03*
X42598D02*
D03*
X85768D02*
D03*
X83976D02*
D03*
X44390Y79203D02*
D03*
X42598D02*
D03*
X85768D02*
D03*
X83976D02*
D03*
D136*
X12599Y30819D02*
D03*
X13432D02*
D03*
X12599Y31618D02*
D03*
X13432D02*
D03*
X40223Y30827D02*
D03*
X39390D02*
D03*
X53976Y30819D02*
D03*
X54810D02*
D03*
X53976Y31618D02*
D03*
X54810D02*
D03*
X81601Y30827D02*
D03*
X80768D02*
D03*
X12599Y58811D02*
D03*
X13432D02*
D03*
X12599Y59611D02*
D03*
X13432D02*
D03*
X40223Y58819D02*
D03*
X39390D02*
D03*
X53976Y58811D02*
D03*
X54810D02*
D03*
X53976Y59611D02*
D03*
X54810D02*
D03*
X81601Y58819D02*
D03*
X80768D02*
D03*
X12599Y86803D02*
D03*
X13432D02*
D03*
X12599Y87603D02*
D03*
X13432D02*
D03*
X40223Y86811D02*
D03*
X39390D02*
D03*
X53976Y86803D02*
D03*
X54810D02*
D03*
X53976Y87603D02*
D03*
X54810D02*
D03*
X81601Y86811D02*
D03*
X80768D02*
D03*
D137*
X21486Y28127D02*
D03*
Y27293D02*
D03*
X21496Y28743D02*
D03*
Y29577D02*
D03*
X49016Y36863D02*
D03*
Y37697D02*
D03*
X47087Y28412D02*
D03*
Y27579D02*
D03*
X41496Y27493D02*
D03*
Y28327D02*
D03*
X62864Y28127D02*
D03*
Y27293D02*
D03*
X62874Y28743D02*
D03*
Y29577D02*
D03*
X90394Y36863D02*
D03*
Y37697D02*
D03*
X88465Y28412D02*
D03*
Y27579D02*
D03*
X82874Y27493D02*
D03*
Y28327D02*
D03*
X21486Y56119D02*
D03*
Y55285D02*
D03*
X21496Y56736D02*
D03*
Y57569D02*
D03*
X49016Y64856D02*
D03*
Y65689D02*
D03*
X47087Y56404D02*
D03*
Y55571D02*
D03*
X41496Y55486D02*
D03*
Y56319D02*
D03*
X62864Y56119D02*
D03*
Y55285D02*
D03*
X62874Y56736D02*
D03*
Y57569D02*
D03*
X90394Y64856D02*
D03*
Y65689D02*
D03*
X88465Y56404D02*
D03*
Y55571D02*
D03*
X82874Y55486D02*
D03*
Y56319D02*
D03*
X21486Y84111D02*
D03*
Y83278D02*
D03*
X21496Y84728D02*
D03*
Y85561D02*
D03*
X49016Y92848D02*
D03*
Y93681D02*
D03*
X47087Y84396D02*
D03*
Y83563D02*
D03*
X41496Y83478D02*
D03*
Y84311D02*
D03*
X62864Y84111D02*
D03*
Y83278D02*
D03*
X62874Y84728D02*
D03*
Y85561D02*
D03*
X90394Y92848D02*
D03*
Y93681D02*
D03*
X88465Y84396D02*
D03*
Y83563D02*
D03*
X82874Y83478D02*
D03*
Y84311D02*
D03*
D138*
X18144Y26462D02*
D03*
Y25550D02*
D03*
X18878D02*
D03*
Y26462D02*
D03*
X23734Y27336D02*
D03*
Y28248D02*
D03*
X23000D02*
D03*
Y27336D02*
D03*
X59522Y26462D02*
D03*
Y25550D02*
D03*
X60256D02*
D03*
Y26462D02*
D03*
X65112Y27336D02*
D03*
Y28248D02*
D03*
X64378D02*
D03*
Y27336D02*
D03*
X18144Y54455D02*
D03*
Y53542D02*
D03*
X18878D02*
D03*
Y54455D02*
D03*
X23734Y55328D02*
D03*
Y56241D02*
D03*
X23000D02*
D03*
Y55328D02*
D03*
X59522Y54455D02*
D03*
Y53542D02*
D03*
X60256D02*
D03*
Y54455D02*
D03*
X65112Y55328D02*
D03*
Y56241D02*
D03*
X64378D02*
D03*
Y55328D02*
D03*
X18144Y82447D02*
D03*
Y81534D02*
D03*
X18878D02*
D03*
Y82447D02*
D03*
X23734Y83320D02*
D03*
Y84233D02*
D03*
X23000D02*
D03*
Y83320D02*
D03*
X59522Y82447D02*
D03*
Y81534D02*
D03*
X60256D02*
D03*
Y82447D02*
D03*
X65112Y83320D02*
D03*
Y84233D02*
D03*
X64378D02*
D03*
Y83320D02*
D03*
D139*
X44180Y37619D02*
D03*
X41857D02*
D03*
X85558D02*
D03*
X83235D02*
D03*
X44180Y65611D02*
D03*
X41857D02*
D03*
X85558D02*
D03*
X83235D02*
D03*
X44180Y93603D02*
D03*
X41857D02*
D03*
X85558D02*
D03*
X83235D02*
D03*
D140*
X15610Y30994D02*
D03*
Y30121D02*
D03*
X33307Y29252D02*
D03*
Y30125D02*
D03*
X56988Y30994D02*
D03*
Y30121D02*
D03*
X74685Y29252D02*
D03*
Y30125D02*
D03*
X15610Y58986D02*
D03*
Y58113D02*
D03*
X33307Y57244D02*
D03*
Y58117D02*
D03*
X56988Y58986D02*
D03*
Y58113D02*
D03*
X74685Y57244D02*
D03*
Y58117D02*
D03*
X15610Y86978D02*
D03*
Y86105D02*
D03*
X33307Y85236D02*
D03*
Y86109D02*
D03*
X56988Y86978D02*
D03*
Y86105D02*
D03*
X74685Y85236D02*
D03*
Y86109D02*
D03*
D141*
X50984Y22756D02*
D03*
Y20385D02*
D03*
X92362Y22756D02*
D03*
Y20385D02*
D03*
X50984Y50748D02*
D03*
Y48377D02*
D03*
X92362Y50748D02*
D03*
Y48377D02*
D03*
X50984Y78740D02*
D03*
Y76369D02*
D03*
X92362Y78740D02*
D03*
Y76369D02*
D03*
D142*
X44860Y35341D02*
D03*
Y35537D02*
D03*
Y35734D02*
D03*
Y35931D02*
D03*
Y36128D02*
D03*
X42970Y35341D02*
D03*
Y35537D02*
D03*
Y35734D02*
D03*
Y35931D02*
D03*
Y36128D02*
D03*
X86238Y35341D02*
D03*
Y35537D02*
D03*
Y35734D02*
D03*
Y35931D02*
D03*
Y36128D02*
D03*
X84348Y35341D02*
D03*
Y35537D02*
D03*
Y35734D02*
D03*
Y35931D02*
D03*
Y36128D02*
D03*
X44860Y63333D02*
D03*
Y63530D02*
D03*
Y63726D02*
D03*
Y63923D02*
D03*
Y64120D02*
D03*
X42970Y63333D02*
D03*
Y63530D02*
D03*
Y63726D02*
D03*
Y63923D02*
D03*
Y64120D02*
D03*
X86238Y63333D02*
D03*
Y63530D02*
D03*
Y63726D02*
D03*
Y63923D02*
D03*
Y64120D02*
D03*
X84348Y63333D02*
D03*
Y63530D02*
D03*
Y63726D02*
D03*
Y63923D02*
D03*
Y64120D02*
D03*
X44860Y91325D02*
D03*
Y91522D02*
D03*
Y91719D02*
D03*
Y91915D02*
D03*
Y92112D02*
D03*
X42970Y91325D02*
D03*
Y91522D02*
D03*
Y91719D02*
D03*
Y91915D02*
D03*
Y92112D02*
D03*
X86238Y91325D02*
D03*
Y91522D02*
D03*
Y91719D02*
D03*
Y91915D02*
D03*
Y92112D02*
D03*
X84348Y91325D02*
D03*
Y91522D02*
D03*
Y91719D02*
D03*
Y91915D02*
D03*
Y92112D02*
D03*
D143*
X43915Y35734D02*
D03*
X85293D02*
D03*
X43915Y63726D02*
D03*
X85293D02*
D03*
X43915Y91719D02*
D03*
X85293D02*
D03*
D144*
X36890Y29429D02*
D03*
Y28675D02*
D03*
X37723Y29055D02*
D03*
X36939Y26555D02*
D03*
Y25801D02*
D03*
X37773Y26181D02*
D03*
X78268Y29429D02*
D03*
Y28675D02*
D03*
X79101Y29055D02*
D03*
X78317Y26555D02*
D03*
Y25801D02*
D03*
X79151Y26181D02*
D03*
X36890Y57421D02*
D03*
Y56667D02*
D03*
X37723Y57047D02*
D03*
X36939Y54547D02*
D03*
Y53793D02*
D03*
X37773Y54173D02*
D03*
X78268Y57421D02*
D03*
Y56667D02*
D03*
X79101Y57047D02*
D03*
X78317Y54547D02*
D03*
Y53793D02*
D03*
X79151Y54173D02*
D03*
X36890Y85413D02*
D03*
Y84659D02*
D03*
X37723Y85039D02*
D03*
X36939Y82539D02*
D03*
Y81785D02*
D03*
X37773Y82165D02*
D03*
X78268Y85413D02*
D03*
Y84659D02*
D03*
X79101Y85039D02*
D03*
X78317Y82539D02*
D03*
Y81785D02*
D03*
X79151Y82165D02*
D03*
D145*
X48110Y35164D02*
D03*
X44528Y29574D02*
D03*
X89488Y35164D02*
D03*
X85906Y29574D02*
D03*
X48110Y63157D02*
D03*
X44528Y57566D02*
D03*
X89488Y63157D02*
D03*
X85906Y57566D02*
D03*
X48110Y91149D02*
D03*
X44528Y85558D02*
D03*
X89488Y91149D02*
D03*
X85906Y85558D02*
D03*
D146*
X48860Y33720D02*
D03*
X48360D02*
D03*
X47860D02*
D03*
X47360D02*
D03*
X45278Y28130D02*
D03*
X44778D02*
D03*
X44278D02*
D03*
X43778D02*
D03*
X90238Y33720D02*
D03*
X89738D02*
D03*
X89238D02*
D03*
X88738D02*
D03*
X86656Y28130D02*
D03*
X86156D02*
D03*
X85656D02*
D03*
X85156D02*
D03*
X48860Y61713D02*
D03*
X48360D02*
D03*
X47860D02*
D03*
X47360D02*
D03*
X45278Y56122D02*
D03*
X44778D02*
D03*
X44278D02*
D03*
X43778D02*
D03*
X90238Y61713D02*
D03*
X89738D02*
D03*
X89238D02*
D03*
X88738D02*
D03*
X86656Y56122D02*
D03*
X86156D02*
D03*
X85656D02*
D03*
X85156D02*
D03*
X48860Y89705D02*
D03*
X48360D02*
D03*
X47860D02*
D03*
X47360D02*
D03*
X45278Y84114D02*
D03*
X44778D02*
D03*
X44278D02*
D03*
X43778D02*
D03*
X90238Y89705D02*
D03*
X89738D02*
D03*
X89238D02*
D03*
X88738D02*
D03*
X86656Y84114D02*
D03*
X86156D02*
D03*
X85656D02*
D03*
X85156D02*
D03*
D147*
X32283Y28268D02*
D03*
X32835D02*
D03*
X32254Y27402D02*
D03*
X32805D02*
D03*
X22992Y29921D02*
D03*
X22441D02*
D03*
X32283Y26496D02*
D03*
X32835D02*
D03*
X73661Y28268D02*
D03*
X74213D02*
D03*
X73632Y27402D02*
D03*
X74183D02*
D03*
X64370Y29921D02*
D03*
X63819D02*
D03*
X73661Y26496D02*
D03*
X74213D02*
D03*
X32283Y56260D02*
D03*
X32835D02*
D03*
X32254Y55394D02*
D03*
X32805D02*
D03*
X22992Y57913D02*
D03*
X22441D02*
D03*
X32283Y54488D02*
D03*
X32835D02*
D03*
X73661Y56260D02*
D03*
X74213D02*
D03*
X73632Y55394D02*
D03*
X74183D02*
D03*
X64370Y57913D02*
D03*
X63819D02*
D03*
X73661Y54488D02*
D03*
X74213D02*
D03*
X32283Y84252D02*
D03*
X32835D02*
D03*
X32254Y83386D02*
D03*
X32805D02*
D03*
X22992Y85906D02*
D03*
X22441D02*
D03*
X32283Y82480D02*
D03*
X32835D02*
D03*
X73661Y84252D02*
D03*
X74213D02*
D03*
X73632Y83386D02*
D03*
X74183D02*
D03*
X64370Y85906D02*
D03*
X63819D02*
D03*
X73661Y82480D02*
D03*
X74213D02*
D03*
D148*
X33307Y28858D02*
D03*
Y28307D02*
D03*
Y27323D02*
D03*
Y27874D02*
D03*
X16860Y32165D02*
D03*
Y31614D02*
D03*
X33307Y26693D02*
D03*
Y26142D02*
D03*
X74685Y28858D02*
D03*
Y28307D02*
D03*
Y27323D02*
D03*
Y27874D02*
D03*
X58238Y32165D02*
D03*
Y31614D02*
D03*
X74685Y26693D02*
D03*
Y26142D02*
D03*
X33307Y56850D02*
D03*
Y56299D02*
D03*
Y55315D02*
D03*
Y55866D02*
D03*
X16860Y60157D02*
D03*
Y59606D02*
D03*
X33307Y54685D02*
D03*
Y54134D02*
D03*
X74685Y56850D02*
D03*
Y56299D02*
D03*
Y55315D02*
D03*
Y55866D02*
D03*
X58238Y60157D02*
D03*
Y59606D02*
D03*
X74685Y54685D02*
D03*
Y54134D02*
D03*
X33307Y84843D02*
D03*
Y84291D02*
D03*
Y83307D02*
D03*
Y83858D02*
D03*
X16860Y88150D02*
D03*
Y87598D02*
D03*
X33307Y82677D02*
D03*
Y82126D02*
D03*
X74685Y84843D02*
D03*
Y84291D02*
D03*
Y83307D02*
D03*
Y83858D02*
D03*
X58238Y88150D02*
D03*
Y87598D02*
D03*
X74685Y82677D02*
D03*
Y82126D02*
D03*
D149*
X47913Y38622D02*
D03*
Y37045D02*
D03*
X48701Y28150D02*
D03*
Y29727D02*
D03*
X36769Y14756D02*
D03*
Y13178D02*
D03*
X43622Y22008D02*
D03*
Y20430D02*
D03*
X89291Y38622D02*
D03*
Y37045D02*
D03*
X90079Y28150D02*
D03*
Y29727D02*
D03*
X78146Y14756D02*
D03*
Y13178D02*
D03*
X85000Y22008D02*
D03*
Y20430D02*
D03*
X47913Y66614D02*
D03*
Y65037D02*
D03*
X48701Y56142D02*
D03*
Y57719D02*
D03*
X36769Y42748D02*
D03*
Y41171D02*
D03*
X43622Y50000D02*
D03*
Y48423D02*
D03*
X89291Y66614D02*
D03*
Y65037D02*
D03*
X90079Y56142D02*
D03*
Y57719D02*
D03*
X78146Y42748D02*
D03*
Y41171D02*
D03*
X85000Y50000D02*
D03*
Y48423D02*
D03*
X47913Y94606D02*
D03*
Y93029D02*
D03*
X48701Y84134D02*
D03*
Y85711D02*
D03*
X36769Y70740D02*
D03*
Y69163D02*
D03*
X43622Y77992D02*
D03*
Y76415D02*
D03*
X89291Y94606D02*
D03*
Y93029D02*
D03*
X90079Y84134D02*
D03*
Y85711D02*
D03*
X78146Y70740D02*
D03*
Y69163D02*
D03*
X85000Y77992D02*
D03*
Y76415D02*
D03*
D150*
X39481Y37619D02*
D03*
X41059D02*
D03*
X80859D02*
D03*
X82436D02*
D03*
X39481Y65611D02*
D03*
X41059D02*
D03*
X80859D02*
D03*
X82436D02*
D03*
X39481Y93603D02*
D03*
X41059D02*
D03*
X80859D02*
D03*
X82436D02*
D03*
D151*
X22920Y25944D02*
D03*
Y25694D02*
D03*
X20866Y24189D02*
D03*
X22920Y24439D02*
D03*
X20866D02*
D03*
Y24939D02*
D03*
X22920Y24189D02*
D03*
X20866Y24689D02*
D03*
X22920D02*
D03*
Y24939D02*
D03*
Y25444D02*
D03*
X20866Y25194D02*
D03*
Y25444D02*
D03*
Y25944D02*
D03*
X22920Y25194D02*
D03*
X20866Y25694D02*
D03*
X64298Y25944D02*
D03*
Y25694D02*
D03*
X62244Y24189D02*
D03*
X64298Y24439D02*
D03*
X62244D02*
D03*
Y24939D02*
D03*
X64298Y24189D02*
D03*
X62244Y24689D02*
D03*
X64298D02*
D03*
Y24939D02*
D03*
Y25444D02*
D03*
X62244Y25194D02*
D03*
Y25444D02*
D03*
Y25944D02*
D03*
X64298Y25194D02*
D03*
X62244Y25694D02*
D03*
X22920Y53936D02*
D03*
Y53686D02*
D03*
X20866Y52181D02*
D03*
X22920Y52431D02*
D03*
X20866D02*
D03*
Y52931D02*
D03*
X22920Y52181D02*
D03*
X20866Y52681D02*
D03*
X22920D02*
D03*
Y52931D02*
D03*
Y53436D02*
D03*
X20866Y53186D02*
D03*
Y53436D02*
D03*
Y53936D02*
D03*
X22920Y53186D02*
D03*
X20866Y53686D02*
D03*
X64298Y53936D02*
D03*
Y53686D02*
D03*
X62244Y52181D02*
D03*
X64298Y52431D02*
D03*
X62244D02*
D03*
Y52931D02*
D03*
X64298Y52181D02*
D03*
X62244Y52681D02*
D03*
X64298D02*
D03*
Y52931D02*
D03*
Y53436D02*
D03*
X62244Y53186D02*
D03*
Y53436D02*
D03*
Y53936D02*
D03*
X64298Y53186D02*
D03*
X62244Y53686D02*
D03*
X22920Y81928D02*
D03*
Y81678D02*
D03*
X20866Y80173D02*
D03*
X22920Y80423D02*
D03*
X20866D02*
D03*
Y80923D02*
D03*
X22920Y80173D02*
D03*
X20866Y80673D02*
D03*
X22920D02*
D03*
Y80923D02*
D03*
Y81428D02*
D03*
X20866Y81178D02*
D03*
Y81428D02*
D03*
Y81928D02*
D03*
X22920Y81178D02*
D03*
X20866Y81678D02*
D03*
X64298Y81928D02*
D03*
Y81678D02*
D03*
X62244Y80173D02*
D03*
X64298Y80423D02*
D03*
X62244D02*
D03*
Y80923D02*
D03*
X64298Y80173D02*
D03*
X62244Y80673D02*
D03*
X64298D02*
D03*
Y80923D02*
D03*
Y81428D02*
D03*
X62244Y81178D02*
D03*
Y81428D02*
D03*
Y81928D02*
D03*
X64298Y81178D02*
D03*
X62244Y81678D02*
D03*
D152*
X15600Y15907D02*
D03*
Y17026D02*
D03*
X14144Y15907D02*
D03*
Y17026D02*
D03*
X20059Y15907D02*
D03*
Y17026D02*
D03*
X18612Y15907D02*
D03*
Y17026D02*
D03*
X24459Y15907D02*
D03*
Y17026D02*
D03*
X22972Y15907D02*
D03*
Y17026D02*
D03*
X33366Y15907D02*
D03*
Y17026D02*
D03*
X31890Y15907D02*
D03*
Y17026D02*
D03*
X56978Y15907D02*
D03*
Y17026D02*
D03*
X55522Y15907D02*
D03*
Y17026D02*
D03*
X61437Y15907D02*
D03*
Y17026D02*
D03*
X59990Y15907D02*
D03*
Y17026D02*
D03*
X65837Y15907D02*
D03*
Y17026D02*
D03*
X64350Y15907D02*
D03*
Y17026D02*
D03*
X74744Y15907D02*
D03*
Y17026D02*
D03*
X73268Y15907D02*
D03*
Y17026D02*
D03*
X15600Y43899D02*
D03*
Y45019D02*
D03*
X14144Y43899D02*
D03*
Y45019D02*
D03*
X20059Y43899D02*
D03*
Y45019D02*
D03*
X18612Y43899D02*
D03*
Y45019D02*
D03*
X24459Y43899D02*
D03*
Y45019D02*
D03*
X22972Y43899D02*
D03*
Y45019D02*
D03*
X33366Y43899D02*
D03*
Y45019D02*
D03*
X31890Y43899D02*
D03*
Y45019D02*
D03*
X56978Y43899D02*
D03*
Y45019D02*
D03*
X55522Y43899D02*
D03*
Y45019D02*
D03*
X61437Y43899D02*
D03*
Y45019D02*
D03*
X59990Y43899D02*
D03*
Y45019D02*
D03*
X65837Y43899D02*
D03*
Y45019D02*
D03*
X64350Y43899D02*
D03*
Y45019D02*
D03*
X74744Y43899D02*
D03*
Y45019D02*
D03*
X73268Y43899D02*
D03*
Y45019D02*
D03*
X15600Y71891D02*
D03*
Y73011D02*
D03*
X14144Y71891D02*
D03*
Y73011D02*
D03*
X20059Y71891D02*
D03*
Y73011D02*
D03*
X18612Y71891D02*
D03*
Y73011D02*
D03*
X24459Y71891D02*
D03*
Y73011D02*
D03*
X22972Y71891D02*
D03*
Y73011D02*
D03*
X33366Y71891D02*
D03*
Y73011D02*
D03*
X31890Y71891D02*
D03*
Y73011D02*
D03*
X56978Y71891D02*
D03*
Y73011D02*
D03*
X55522Y71891D02*
D03*
Y73011D02*
D03*
X61437Y71891D02*
D03*
Y73011D02*
D03*
X59990Y71891D02*
D03*
Y73011D02*
D03*
X65837Y71891D02*
D03*
Y73011D02*
D03*
X64350Y71891D02*
D03*
Y73011D02*
D03*
X74744Y71891D02*
D03*
Y73011D02*
D03*
X73268Y71891D02*
D03*
Y73011D02*
D03*
D153*
X17418Y28586D02*
D03*
Y28051D02*
D03*
X17419Y29101D02*
D03*
Y29636D02*
D03*
X33976Y30150D02*
D03*
Y29614D02*
D03*
X48976Y38772D02*
D03*
Y38236D02*
D03*
X16358Y32167D02*
D03*
Y31632D02*
D03*
X45827Y28024D02*
D03*
Y27488D02*
D03*
X46417Y28024D02*
D03*
Y27488D02*
D03*
X47716Y28102D02*
D03*
Y27567D02*
D03*
X21063Y20362D02*
D03*
Y20898D02*
D03*
X16811Y20352D02*
D03*
Y20888D02*
D03*
X25827Y20354D02*
D03*
Y20889D02*
D03*
X34744Y20354D02*
D03*
Y20889D02*
D03*
X37008Y30126D02*
D03*
Y30661D02*
D03*
X37598Y30126D02*
D03*
Y30661D02*
D03*
X24173Y25307D02*
D03*
Y24772D02*
D03*
X33976Y28378D02*
D03*
Y27843D02*
D03*
Y27197D02*
D03*
Y26661D02*
D03*
X42126Y28457D02*
D03*
Y27921D02*
D03*
X37008Y27173D02*
D03*
Y27709D02*
D03*
X37598Y27173D02*
D03*
Y27709D02*
D03*
X45508Y36696D02*
D03*
Y36161D02*
D03*
X44774Y37402D02*
D03*
Y37938D02*
D03*
X45345D02*
D03*
Y37402D02*
D03*
X16089Y20889D02*
D03*
Y20354D02*
D03*
X16811Y19132D02*
D03*
Y19667D02*
D03*
X16604Y18407D02*
D03*
Y17872D02*
D03*
X15463Y20889D02*
D03*
Y20354D02*
D03*
X20512Y20898D02*
D03*
Y20362D02*
D03*
X21260Y19132D02*
D03*
Y19667D02*
D03*
X21063Y18417D02*
D03*
Y17882D02*
D03*
X19961Y20898D02*
D03*
Y20362D02*
D03*
X24951Y20888D02*
D03*
Y20352D02*
D03*
X25591Y19132D02*
D03*
Y19667D02*
D03*
X24380Y20888D02*
D03*
Y20352D02*
D03*
X33691Y20889D02*
D03*
Y20354D02*
D03*
X34587Y19132D02*
D03*
Y19667D02*
D03*
Y18407D02*
D03*
Y17872D02*
D03*
X33120Y20889D02*
D03*
Y20354D02*
D03*
X32318Y20351D02*
D03*
Y20886D02*
D03*
X23519Y20351D02*
D03*
Y20886D02*
D03*
X19118Y20351D02*
D03*
Y20886D02*
D03*
X14616Y20362D02*
D03*
Y20898D02*
D03*
X42480Y21961D02*
D03*
Y21425D02*
D03*
X13041Y18399D02*
D03*
Y17863D02*
D03*
X17598Y18407D02*
D03*
Y17872D02*
D03*
X22008Y18417D02*
D03*
Y17882D02*
D03*
X36929Y15756D02*
D03*
Y16291D02*
D03*
X38268Y33036D02*
D03*
Y32501D02*
D03*
X41898Y35191D02*
D03*
Y35726D02*
D03*
X31228Y14841D02*
D03*
Y15376D02*
D03*
X21899Y16106D02*
D03*
Y15571D02*
D03*
X25459Y15466D02*
D03*
Y14931D02*
D03*
X25468Y16806D02*
D03*
Y16271D02*
D03*
X26718Y18176D02*
D03*
Y17641D02*
D03*
X13148Y16716D02*
D03*
Y16181D02*
D03*
X17618Y16106D02*
D03*
Y15571D02*
D03*
X16609Y16106D02*
D03*
Y15571D02*
D03*
X21188Y16106D02*
D03*
Y15571D02*
D03*
X58796Y28586D02*
D03*
Y28051D02*
D03*
X58796Y29101D02*
D03*
Y29636D02*
D03*
X75354Y30150D02*
D03*
Y29614D02*
D03*
X90354Y38772D02*
D03*
Y38236D02*
D03*
X57736Y32167D02*
D03*
Y31632D02*
D03*
X87205Y28024D02*
D03*
Y27488D02*
D03*
X87795Y28024D02*
D03*
Y27488D02*
D03*
X89094Y28102D02*
D03*
Y27567D02*
D03*
X62441Y20362D02*
D03*
Y20898D02*
D03*
X58189Y20352D02*
D03*
Y20888D02*
D03*
X67205Y20354D02*
D03*
Y20889D02*
D03*
X76122Y20354D02*
D03*
Y20889D02*
D03*
X78386Y30126D02*
D03*
Y30661D02*
D03*
X78976Y30126D02*
D03*
Y30661D02*
D03*
X65551Y25307D02*
D03*
Y24772D02*
D03*
X75354Y28378D02*
D03*
Y27843D02*
D03*
Y27197D02*
D03*
Y26661D02*
D03*
X83504Y28457D02*
D03*
Y27921D02*
D03*
X78386Y27173D02*
D03*
Y27709D02*
D03*
X78976Y27173D02*
D03*
Y27709D02*
D03*
X86886Y36696D02*
D03*
Y36161D02*
D03*
X86152Y37402D02*
D03*
Y37938D02*
D03*
X86723D02*
D03*
Y37402D02*
D03*
X57467Y20889D02*
D03*
Y20354D02*
D03*
X58189Y19132D02*
D03*
Y19667D02*
D03*
X57982Y18407D02*
D03*
Y17872D02*
D03*
X56841Y20889D02*
D03*
Y20354D02*
D03*
X61890Y20898D02*
D03*
Y20362D02*
D03*
X62638Y19132D02*
D03*
Y19667D02*
D03*
X62441Y18417D02*
D03*
Y17882D02*
D03*
X61339Y20898D02*
D03*
Y20362D02*
D03*
X66329Y20888D02*
D03*
Y20352D02*
D03*
X66968Y19132D02*
D03*
Y19667D02*
D03*
X65758Y20888D02*
D03*
Y20352D02*
D03*
X75069Y20889D02*
D03*
Y20354D02*
D03*
X75965Y19132D02*
D03*
Y19667D02*
D03*
Y18407D02*
D03*
Y17872D02*
D03*
X74498Y20889D02*
D03*
Y20354D02*
D03*
X73696Y20351D02*
D03*
Y20886D02*
D03*
X64896Y20351D02*
D03*
Y20886D02*
D03*
X60496Y20351D02*
D03*
Y20886D02*
D03*
X55994Y20362D02*
D03*
Y20898D02*
D03*
X83858Y21961D02*
D03*
Y21425D02*
D03*
X54419Y18399D02*
D03*
Y17863D02*
D03*
X58976Y18407D02*
D03*
Y17872D02*
D03*
X63386Y18417D02*
D03*
Y17882D02*
D03*
X78307Y15756D02*
D03*
Y16291D02*
D03*
X79646Y33036D02*
D03*
Y32501D02*
D03*
X83276Y35191D02*
D03*
Y35726D02*
D03*
X72606Y14841D02*
D03*
Y15376D02*
D03*
X63276Y16106D02*
D03*
Y15571D02*
D03*
X66836Y15466D02*
D03*
Y14931D02*
D03*
X66846Y16806D02*
D03*
Y16271D02*
D03*
X68096Y18176D02*
D03*
Y17641D02*
D03*
X54526Y16716D02*
D03*
Y16181D02*
D03*
X58996Y16106D02*
D03*
Y15571D02*
D03*
X57986Y16106D02*
D03*
Y15571D02*
D03*
X62566Y16106D02*
D03*
Y15571D02*
D03*
X17418Y56578D02*
D03*
Y56043D02*
D03*
X17419Y57093D02*
D03*
Y57628D02*
D03*
X33976Y58142D02*
D03*
Y57606D02*
D03*
X48976Y66764D02*
D03*
Y66228D02*
D03*
X16358Y60159D02*
D03*
Y59624D02*
D03*
X45827Y56016D02*
D03*
Y55480D02*
D03*
X46417Y56016D02*
D03*
Y55480D02*
D03*
X47716Y56095D02*
D03*
Y55559D02*
D03*
X21063Y48354D02*
D03*
Y48890D02*
D03*
X16811Y48344D02*
D03*
Y48880D02*
D03*
X25827Y48346D02*
D03*
Y48882D02*
D03*
X34744Y48346D02*
D03*
Y48882D02*
D03*
X37008Y58118D02*
D03*
Y58654D02*
D03*
X37598Y58118D02*
D03*
Y58654D02*
D03*
X24173Y53299D02*
D03*
Y52764D02*
D03*
X33976Y56370D02*
D03*
Y55835D02*
D03*
Y55189D02*
D03*
Y54654D02*
D03*
X42126Y56449D02*
D03*
Y55913D02*
D03*
X37008Y55165D02*
D03*
Y55701D02*
D03*
X37598Y55165D02*
D03*
Y55701D02*
D03*
X45508Y64688D02*
D03*
Y64153D02*
D03*
X44774Y65395D02*
D03*
Y65930D02*
D03*
X45345D02*
D03*
Y65395D02*
D03*
X16089Y48882D02*
D03*
Y48346D02*
D03*
X16811Y47124D02*
D03*
Y47659D02*
D03*
X16604Y46400D02*
D03*
Y45864D02*
D03*
X15463Y48882D02*
D03*
Y48346D02*
D03*
X20512Y48890D02*
D03*
Y48354D02*
D03*
X21260Y47124D02*
D03*
Y47659D02*
D03*
X21063Y46409D02*
D03*
Y45874D02*
D03*
X19961Y48890D02*
D03*
Y48354D02*
D03*
X24951Y48880D02*
D03*
Y48344D02*
D03*
X25591Y47124D02*
D03*
Y47659D02*
D03*
X24380Y48880D02*
D03*
Y48344D02*
D03*
X33691Y48882D02*
D03*
Y48346D02*
D03*
X34587Y47124D02*
D03*
Y47659D02*
D03*
Y46400D02*
D03*
Y45864D02*
D03*
X33120Y48882D02*
D03*
Y48346D02*
D03*
X32318Y48343D02*
D03*
Y48878D02*
D03*
X23519Y48343D02*
D03*
Y48878D02*
D03*
X19118Y48343D02*
D03*
Y48878D02*
D03*
X14616Y48354D02*
D03*
Y48890D02*
D03*
X42480Y49953D02*
D03*
Y49417D02*
D03*
X13041Y46391D02*
D03*
Y45856D02*
D03*
X17598Y46400D02*
D03*
Y45864D02*
D03*
X22008Y46409D02*
D03*
Y45874D02*
D03*
X36929Y43748D02*
D03*
Y44283D02*
D03*
X38268Y61028D02*
D03*
Y60493D02*
D03*
X41898Y63183D02*
D03*
Y63718D02*
D03*
X31228Y42833D02*
D03*
Y43368D02*
D03*
X21899Y44098D02*
D03*
Y43563D02*
D03*
X25459Y43458D02*
D03*
Y42923D02*
D03*
X25468Y44798D02*
D03*
Y44263D02*
D03*
X26718Y46168D02*
D03*
Y45633D02*
D03*
X13148Y44708D02*
D03*
Y44173D02*
D03*
X17618Y44098D02*
D03*
Y43563D02*
D03*
X16609Y44098D02*
D03*
Y43563D02*
D03*
X21188Y44098D02*
D03*
Y43563D02*
D03*
X58796Y56578D02*
D03*
Y56043D02*
D03*
X58796Y57093D02*
D03*
Y57628D02*
D03*
X75354Y58142D02*
D03*
Y57606D02*
D03*
X90354Y66764D02*
D03*
Y66228D02*
D03*
X57736Y60159D02*
D03*
Y59624D02*
D03*
X87205Y56016D02*
D03*
Y55480D02*
D03*
X87795Y56016D02*
D03*
Y55480D02*
D03*
X89094Y56095D02*
D03*
Y55559D02*
D03*
X62441Y48354D02*
D03*
Y48890D02*
D03*
X58189Y48344D02*
D03*
Y48880D02*
D03*
X67205Y48346D02*
D03*
Y48882D02*
D03*
X76122Y48346D02*
D03*
Y48882D02*
D03*
X78386Y58118D02*
D03*
Y58654D02*
D03*
X78976Y58118D02*
D03*
Y58654D02*
D03*
X65551Y53299D02*
D03*
Y52764D02*
D03*
X75354Y56370D02*
D03*
Y55835D02*
D03*
Y55189D02*
D03*
Y54654D02*
D03*
X83504Y56449D02*
D03*
Y55913D02*
D03*
X78386Y55165D02*
D03*
Y55701D02*
D03*
X78976Y55165D02*
D03*
Y55701D02*
D03*
X86886Y64688D02*
D03*
Y64153D02*
D03*
X86152Y65395D02*
D03*
Y65930D02*
D03*
X86723D02*
D03*
Y65395D02*
D03*
X57467Y48882D02*
D03*
Y48346D02*
D03*
X58189Y47124D02*
D03*
Y47659D02*
D03*
X57982Y46400D02*
D03*
Y45864D02*
D03*
X56841Y48882D02*
D03*
Y48346D02*
D03*
X61890Y48890D02*
D03*
Y48354D02*
D03*
X62638Y47124D02*
D03*
Y47659D02*
D03*
X62441Y46409D02*
D03*
Y45874D02*
D03*
X61339Y48890D02*
D03*
Y48354D02*
D03*
X66329Y48880D02*
D03*
Y48344D02*
D03*
X66968Y47124D02*
D03*
Y47659D02*
D03*
X65758Y48880D02*
D03*
Y48344D02*
D03*
X75069Y48882D02*
D03*
Y48346D02*
D03*
X75965Y47124D02*
D03*
Y47659D02*
D03*
Y46400D02*
D03*
Y45864D02*
D03*
X74498Y48882D02*
D03*
Y48346D02*
D03*
X73696Y48343D02*
D03*
Y48878D02*
D03*
X64896Y48343D02*
D03*
Y48878D02*
D03*
X60496Y48343D02*
D03*
Y48878D02*
D03*
X55994Y48354D02*
D03*
Y48890D02*
D03*
X83858Y49953D02*
D03*
Y49417D02*
D03*
X54419Y46391D02*
D03*
Y45856D02*
D03*
X58976Y46400D02*
D03*
Y45864D02*
D03*
X63386Y46409D02*
D03*
Y45874D02*
D03*
X78307Y43748D02*
D03*
Y44283D02*
D03*
X79646Y61028D02*
D03*
Y60493D02*
D03*
X83276Y63183D02*
D03*
Y63718D02*
D03*
X72606Y42833D02*
D03*
Y43368D02*
D03*
X63276Y44098D02*
D03*
Y43563D02*
D03*
X66836Y43458D02*
D03*
Y42923D02*
D03*
X66846Y44798D02*
D03*
Y44263D02*
D03*
X68096Y46168D02*
D03*
Y45633D02*
D03*
X54526Y44708D02*
D03*
Y44173D02*
D03*
X58996Y44098D02*
D03*
Y43563D02*
D03*
X57986Y44098D02*
D03*
Y43563D02*
D03*
X62566Y44098D02*
D03*
Y43563D02*
D03*
X17418Y84571D02*
D03*
Y84035D02*
D03*
X17419Y85085D02*
D03*
Y85620D02*
D03*
X33976Y86134D02*
D03*
Y85598D02*
D03*
X48976Y94756D02*
D03*
Y94221D02*
D03*
X16358Y88152D02*
D03*
Y87616D02*
D03*
X45827Y84008D02*
D03*
Y83472D02*
D03*
X46417Y84008D02*
D03*
Y83472D02*
D03*
X47716Y84087D02*
D03*
Y83551D02*
D03*
X21063Y76346D02*
D03*
Y76882D02*
D03*
X16811Y76337D02*
D03*
Y76872D02*
D03*
X25827Y76338D02*
D03*
Y76874D02*
D03*
X34744Y76338D02*
D03*
Y76874D02*
D03*
X37008Y86110D02*
D03*
Y86646D02*
D03*
X37598Y86110D02*
D03*
Y86646D02*
D03*
X24173Y81291D02*
D03*
Y80756D02*
D03*
X33976Y84362D02*
D03*
Y83827D02*
D03*
Y83181D02*
D03*
Y82646D02*
D03*
X42126Y84441D02*
D03*
Y83906D02*
D03*
X37008Y83157D02*
D03*
Y83693D02*
D03*
X37598Y83157D02*
D03*
Y83693D02*
D03*
X45508Y92681D02*
D03*
Y92145D02*
D03*
X44774Y93387D02*
D03*
Y93922D02*
D03*
X45345D02*
D03*
Y93387D02*
D03*
X16089Y76874D02*
D03*
Y76338D02*
D03*
X16811Y75116D02*
D03*
Y75652D02*
D03*
X16604Y74392D02*
D03*
Y73856D02*
D03*
X15463Y76874D02*
D03*
Y76338D02*
D03*
X20512Y76882D02*
D03*
Y76346D02*
D03*
X21260Y75116D02*
D03*
Y75652D02*
D03*
X21063Y74402D02*
D03*
Y73866D02*
D03*
X19961Y76882D02*
D03*
Y76346D02*
D03*
X24951Y76872D02*
D03*
Y76337D02*
D03*
X25591Y75116D02*
D03*
Y75652D02*
D03*
X24380Y76872D02*
D03*
Y76337D02*
D03*
X33691Y76874D02*
D03*
Y76338D02*
D03*
X34587Y75116D02*
D03*
Y75652D02*
D03*
Y74392D02*
D03*
Y73856D02*
D03*
X33120Y76874D02*
D03*
Y76338D02*
D03*
X32318Y76335D02*
D03*
Y76870D02*
D03*
X23519Y76335D02*
D03*
Y76870D02*
D03*
X19118Y76335D02*
D03*
Y76870D02*
D03*
X14616Y76346D02*
D03*
Y76882D02*
D03*
X42480Y77945D02*
D03*
Y77409D02*
D03*
X13041Y74383D02*
D03*
Y73848D02*
D03*
X17598Y74392D02*
D03*
Y73856D02*
D03*
X22008Y74402D02*
D03*
Y73866D02*
D03*
X36929Y71740D02*
D03*
Y72276D02*
D03*
X38268Y89020D02*
D03*
Y88485D02*
D03*
X41898Y91175D02*
D03*
Y91710D02*
D03*
X31228Y70825D02*
D03*
Y71360D02*
D03*
X21899Y72090D02*
D03*
Y71555D02*
D03*
X25459Y71450D02*
D03*
Y70915D02*
D03*
X25468Y72790D02*
D03*
Y72255D02*
D03*
X26718Y74160D02*
D03*
Y73625D02*
D03*
X13148Y72700D02*
D03*
Y72165D02*
D03*
X17618Y72090D02*
D03*
Y71555D02*
D03*
X16609Y72090D02*
D03*
Y71555D02*
D03*
X21188Y72090D02*
D03*
Y71555D02*
D03*
X58796Y84571D02*
D03*
Y84035D02*
D03*
X58796Y85085D02*
D03*
Y85620D02*
D03*
X75354Y86134D02*
D03*
Y85598D02*
D03*
X90354Y94756D02*
D03*
Y94221D02*
D03*
X57736Y88152D02*
D03*
Y87616D02*
D03*
X87205Y84008D02*
D03*
Y83472D02*
D03*
X87795Y84008D02*
D03*
Y83472D02*
D03*
X89094Y84087D02*
D03*
Y83551D02*
D03*
X62441Y76346D02*
D03*
Y76882D02*
D03*
X58189Y76337D02*
D03*
Y76872D02*
D03*
X67205Y76338D02*
D03*
Y76874D02*
D03*
X76122Y76338D02*
D03*
Y76874D02*
D03*
X78386Y86110D02*
D03*
Y86646D02*
D03*
X78976Y86110D02*
D03*
Y86646D02*
D03*
X65551Y81291D02*
D03*
Y80756D02*
D03*
X75354Y84362D02*
D03*
Y83827D02*
D03*
Y83181D02*
D03*
Y82646D02*
D03*
X83504Y84441D02*
D03*
Y83906D02*
D03*
X78386Y83157D02*
D03*
Y83693D02*
D03*
X78976Y83157D02*
D03*
Y83693D02*
D03*
X86886Y92681D02*
D03*
Y92145D02*
D03*
X86152Y93387D02*
D03*
Y93922D02*
D03*
X86723D02*
D03*
Y93387D02*
D03*
X57467Y76874D02*
D03*
Y76338D02*
D03*
X58189Y75116D02*
D03*
Y75652D02*
D03*
X57982Y74392D02*
D03*
Y73856D02*
D03*
X56841Y76874D02*
D03*
Y76338D02*
D03*
X61890Y76882D02*
D03*
Y76346D02*
D03*
X62638Y75116D02*
D03*
Y75652D02*
D03*
X62441Y74402D02*
D03*
Y73866D02*
D03*
X61339Y76882D02*
D03*
Y76346D02*
D03*
X66329Y76872D02*
D03*
Y76337D02*
D03*
X66968Y75116D02*
D03*
Y75652D02*
D03*
X65758Y76872D02*
D03*
Y76337D02*
D03*
X75069Y76874D02*
D03*
Y76338D02*
D03*
X75965Y75116D02*
D03*
Y75652D02*
D03*
Y74392D02*
D03*
Y73856D02*
D03*
X74498Y76874D02*
D03*
Y76338D02*
D03*
X73696Y76335D02*
D03*
Y76870D02*
D03*
X64896Y76335D02*
D03*
Y76870D02*
D03*
X60496Y76335D02*
D03*
Y76870D02*
D03*
X55994Y76346D02*
D03*
Y76882D02*
D03*
X83858Y77945D02*
D03*
Y77409D02*
D03*
X54419Y74383D02*
D03*
Y73848D02*
D03*
X58976Y74392D02*
D03*
Y73856D02*
D03*
X63386Y74402D02*
D03*
Y73866D02*
D03*
X78307Y71740D02*
D03*
Y72276D02*
D03*
X79646Y89020D02*
D03*
Y88485D02*
D03*
X83276Y91175D02*
D03*
Y91710D02*
D03*
X72606Y70825D02*
D03*
Y71360D02*
D03*
X63276Y72090D02*
D03*
Y71555D02*
D03*
X66836Y71450D02*
D03*
Y70915D02*
D03*
X66846Y72790D02*
D03*
Y72255D02*
D03*
X68096Y74160D02*
D03*
Y73625D02*
D03*
X54526Y72700D02*
D03*
Y72165D02*
D03*
X58996Y72090D02*
D03*
Y71555D02*
D03*
X57986Y72090D02*
D03*
Y71555D02*
D03*
X62566Y72090D02*
D03*
Y71555D02*
D03*
D154*
X14281Y31619D02*
D03*
X14816D02*
D03*
X14281Y30819D02*
D03*
X14816D02*
D03*
X33463Y25226D02*
D03*
X33998D02*
D03*
X48890Y32874D02*
D03*
X48354D02*
D03*
X47291Y32874D02*
D03*
X47827D02*
D03*
X23472Y29803D02*
D03*
X24008D02*
D03*
X38276Y30827D02*
D03*
X38811D02*
D03*
X33890Y30748D02*
D03*
X33354D02*
D03*
X33463Y24528D02*
D03*
X33998D02*
D03*
Y23346D02*
D03*
X33463D02*
D03*
X25638Y18425D02*
D03*
X26173D02*
D03*
X51504Y23740D02*
D03*
X52039D02*
D03*
X30701Y18346D02*
D03*
X30165D02*
D03*
X15926Y14969D02*
D03*
X15391D02*
D03*
X31911Y14999D02*
D03*
X32446D02*
D03*
X33576Y15008D02*
D03*
X33041D02*
D03*
X34836Y15898D02*
D03*
X34301D02*
D03*
X19846Y14928D02*
D03*
X19311D02*
D03*
X17054Y14969D02*
D03*
X16518D02*
D03*
X20649Y14928D02*
D03*
X21184D02*
D03*
X55659Y31619D02*
D03*
X56194D02*
D03*
X55659Y30819D02*
D03*
X56194D02*
D03*
X74841Y25226D02*
D03*
X75376D02*
D03*
X90268Y32874D02*
D03*
X89732D02*
D03*
X88669Y32874D02*
D03*
X89205D02*
D03*
X64850Y29803D02*
D03*
X65386D02*
D03*
X79654Y30827D02*
D03*
X80189D02*
D03*
X75268Y30748D02*
D03*
X74732D02*
D03*
X74841Y24528D02*
D03*
X75376D02*
D03*
Y23346D02*
D03*
X74841D02*
D03*
X67016Y18425D02*
D03*
X67551D02*
D03*
X92882Y23740D02*
D03*
X93417D02*
D03*
X72079Y18346D02*
D03*
X71543D02*
D03*
X57304Y14969D02*
D03*
X56769D02*
D03*
X73289Y14999D02*
D03*
X73824D02*
D03*
X74954Y15008D02*
D03*
X74419D02*
D03*
X76214Y15898D02*
D03*
X75679D02*
D03*
X61224Y14928D02*
D03*
X60689D02*
D03*
X58432Y14969D02*
D03*
X57896D02*
D03*
X62026Y14928D02*
D03*
X62562D02*
D03*
X14281Y59611D02*
D03*
X14816D02*
D03*
X14281Y58811D02*
D03*
X14816D02*
D03*
X33463Y53218D02*
D03*
X33998D02*
D03*
X48890Y60866D02*
D03*
X48354D02*
D03*
X47291Y60866D02*
D03*
X47827D02*
D03*
X23472Y57795D02*
D03*
X24008D02*
D03*
X38276Y58819D02*
D03*
X38811D02*
D03*
X33890Y58740D02*
D03*
X33354D02*
D03*
X33463Y52520D02*
D03*
X33998D02*
D03*
Y51339D02*
D03*
X33463D02*
D03*
X25638Y46417D02*
D03*
X26173D02*
D03*
X51504Y51732D02*
D03*
X52039D02*
D03*
X30701Y46339D02*
D03*
X30165D02*
D03*
X15926Y42961D02*
D03*
X15391D02*
D03*
X31911Y42991D02*
D03*
X32446D02*
D03*
X33576Y43001D02*
D03*
X33041D02*
D03*
X34836Y43891D02*
D03*
X34301D02*
D03*
X19846Y42921D02*
D03*
X19311D02*
D03*
X17054Y42961D02*
D03*
X16518D02*
D03*
X20649Y42921D02*
D03*
X21184D02*
D03*
X55659Y59611D02*
D03*
X56194D02*
D03*
X55659Y58811D02*
D03*
X56194D02*
D03*
X74841Y53218D02*
D03*
X75376D02*
D03*
X90268Y60866D02*
D03*
X89732D02*
D03*
X88669Y60866D02*
D03*
X89205D02*
D03*
X64850Y57795D02*
D03*
X65386D02*
D03*
X79654Y58819D02*
D03*
X80189D02*
D03*
X75268Y58740D02*
D03*
X74732D02*
D03*
X74841Y52520D02*
D03*
X75376D02*
D03*
Y51339D02*
D03*
X74841D02*
D03*
X67016Y46417D02*
D03*
X67551D02*
D03*
X92882Y51732D02*
D03*
X93417D02*
D03*
X72079Y46339D02*
D03*
X71543D02*
D03*
X57304Y42961D02*
D03*
X56769D02*
D03*
X73289Y42991D02*
D03*
X73824D02*
D03*
X74954Y43001D02*
D03*
X74419D02*
D03*
X76214Y43891D02*
D03*
X75679D02*
D03*
X61224Y42921D02*
D03*
X60689D02*
D03*
X58432Y42961D02*
D03*
X57896D02*
D03*
X62026Y42921D02*
D03*
X62562D02*
D03*
X14281Y87603D02*
D03*
X14816D02*
D03*
X14281Y86803D02*
D03*
X14816D02*
D03*
X33463Y81211D02*
D03*
X33998D02*
D03*
X48890Y88858D02*
D03*
X48354D02*
D03*
X47291Y88858D02*
D03*
X47827D02*
D03*
X23472Y85787D02*
D03*
X24008D02*
D03*
X38276Y86811D02*
D03*
X38811D02*
D03*
X33890Y86732D02*
D03*
X33354D02*
D03*
X33463Y80512D02*
D03*
X33998D02*
D03*
Y79331D02*
D03*
X33463D02*
D03*
X25638Y74409D02*
D03*
X26173D02*
D03*
X51504Y79724D02*
D03*
X52039D02*
D03*
X30701Y74331D02*
D03*
X30165D02*
D03*
X15926Y70953D02*
D03*
X15391D02*
D03*
X31911Y70983D02*
D03*
X32446D02*
D03*
X33576Y70993D02*
D03*
X33041D02*
D03*
X34836Y71883D02*
D03*
X34301D02*
D03*
X19846Y70913D02*
D03*
X19311D02*
D03*
X17054Y70953D02*
D03*
X16518D02*
D03*
X20649Y70913D02*
D03*
X21184D02*
D03*
X55659Y87603D02*
D03*
X56194D02*
D03*
X55659Y86803D02*
D03*
X56194D02*
D03*
X74841Y81211D02*
D03*
X75376D02*
D03*
X90268Y88858D02*
D03*
X89732D02*
D03*
X88669Y88858D02*
D03*
X89205D02*
D03*
X64850Y85787D02*
D03*
X65386D02*
D03*
X79654Y86811D02*
D03*
X80189D02*
D03*
X75268Y86732D02*
D03*
X74732D02*
D03*
X74841Y80512D02*
D03*
X75376D02*
D03*
Y79331D02*
D03*
X74841D02*
D03*
X67016Y74409D02*
D03*
X67551D02*
D03*
X92882Y79724D02*
D03*
X93417D02*
D03*
X72079Y74331D02*
D03*
X71543D02*
D03*
X57304Y70953D02*
D03*
X56769D02*
D03*
X73289Y70983D02*
D03*
X73824D02*
D03*
X74954Y70993D02*
D03*
X74419D02*
D03*
X76214Y71883D02*
D03*
X75679D02*
D03*
X61224Y70913D02*
D03*
X60689D02*
D03*
X58432Y70953D02*
D03*
X57896D02*
D03*
X62026Y70913D02*
D03*
X62562D02*
D03*
D155*
X17930Y28568D02*
D03*
X18309D02*
D03*
X17930Y29118D02*
D03*
X18309D02*
D03*
X45420Y35679D02*
D03*
X45799D02*
D03*
X32096Y29075D02*
D03*
X32473D02*
D03*
X24341Y28878D02*
D03*
X23964D02*
D03*
X27648Y23346D02*
D03*
X28025D02*
D03*
X22864Y29409D02*
D03*
X22487D02*
D03*
X18305Y27469D02*
D03*
X17929D02*
D03*
X18305Y27919D02*
D03*
X17929D02*
D03*
X18553Y25039D02*
D03*
X18176D02*
D03*
X19872Y27726D02*
D03*
X19495D02*
D03*
X23455Y26841D02*
D03*
X23078D02*
D03*
X32254Y28661D02*
D03*
X32631D02*
D03*
X32254Y27795D02*
D03*
X32631D02*
D03*
X32096Y29567D02*
D03*
X32473D02*
D03*
X28386Y20817D02*
D03*
X28763D02*
D03*
X28386Y19183D02*
D03*
X28763D02*
D03*
X27982Y20827D02*
D03*
X27605D02*
D03*
X27982Y19193D02*
D03*
X27605D02*
D03*
X27234Y20827D02*
D03*
X26857D02*
D03*
X27205Y19193D02*
D03*
X26828D02*
D03*
X32254Y26929D02*
D03*
X32631D02*
D03*
X45036Y36728D02*
D03*
X44658D02*
D03*
X59307Y28568D02*
D03*
X59686D02*
D03*
X59307Y29118D02*
D03*
X59686D02*
D03*
X86797Y35679D02*
D03*
X87176D02*
D03*
X73474Y29075D02*
D03*
X73851D02*
D03*
X65718Y28878D02*
D03*
X65342D02*
D03*
X69026Y23346D02*
D03*
X69403D02*
D03*
X64242Y29409D02*
D03*
X63865D02*
D03*
X59683Y27469D02*
D03*
X59306D02*
D03*
X59683Y27919D02*
D03*
X59306D02*
D03*
X59931Y25039D02*
D03*
X59554D02*
D03*
X61250Y27726D02*
D03*
X60873D02*
D03*
X64833Y26841D02*
D03*
X64456D02*
D03*
X73632Y28661D02*
D03*
X74009D02*
D03*
X73632Y27795D02*
D03*
X74009D02*
D03*
X73474Y29567D02*
D03*
X73851D02*
D03*
X69764Y20817D02*
D03*
X70141D02*
D03*
X69764Y19183D02*
D03*
X70141D02*
D03*
X69360Y20827D02*
D03*
X68983D02*
D03*
X69360Y19193D02*
D03*
X68983D02*
D03*
X68612Y20827D02*
D03*
X68235D02*
D03*
X68583Y19193D02*
D03*
X68206D02*
D03*
X73632Y26929D02*
D03*
X74009D02*
D03*
X86413Y36728D02*
D03*
X86036D02*
D03*
X17930Y56561D02*
D03*
X18309D02*
D03*
X17930Y57111D02*
D03*
X18309D02*
D03*
X45420Y63671D02*
D03*
X45799D02*
D03*
X32096Y57067D02*
D03*
X32473D02*
D03*
X24341Y56870D02*
D03*
X23964D02*
D03*
X27648Y51339D02*
D03*
X28025D02*
D03*
X22864Y57402D02*
D03*
X22487D02*
D03*
X18305Y55461D02*
D03*
X17929D02*
D03*
X18305Y55911D02*
D03*
X17929D02*
D03*
X18553Y53032D02*
D03*
X18176D02*
D03*
X19872Y55718D02*
D03*
X19495D02*
D03*
X23455Y54833D02*
D03*
X23078D02*
D03*
X32254Y56654D02*
D03*
X32631D02*
D03*
X32254Y55787D02*
D03*
X32631D02*
D03*
X32096Y57559D02*
D03*
X32473D02*
D03*
X28386Y48809D02*
D03*
X28763D02*
D03*
X28386Y47175D02*
D03*
X28763D02*
D03*
X27982Y48819D02*
D03*
X27605D02*
D03*
X27982Y47185D02*
D03*
X27605D02*
D03*
X27234Y48819D02*
D03*
X26857D02*
D03*
X27205Y47185D02*
D03*
X26828D02*
D03*
X32254Y54921D02*
D03*
X32631D02*
D03*
X45036Y64721D02*
D03*
X44658D02*
D03*
X59307Y56561D02*
D03*
X59686D02*
D03*
X59307Y57111D02*
D03*
X59686D02*
D03*
X86797Y63671D02*
D03*
X87176D02*
D03*
X73474Y57067D02*
D03*
X73851D02*
D03*
X65718Y56870D02*
D03*
X65342D02*
D03*
X69026Y51339D02*
D03*
X69403D02*
D03*
X64242Y57402D02*
D03*
X63865D02*
D03*
X59683Y55461D02*
D03*
X59306D02*
D03*
X59683Y55911D02*
D03*
X59306D02*
D03*
X59931Y53032D02*
D03*
X59554D02*
D03*
X61250Y55718D02*
D03*
X60873D02*
D03*
X64833Y54833D02*
D03*
X64456D02*
D03*
X73632Y56654D02*
D03*
X74009D02*
D03*
X73632Y55787D02*
D03*
X74009D02*
D03*
X73474Y57559D02*
D03*
X73851D02*
D03*
X69764Y48809D02*
D03*
X70141D02*
D03*
X69764Y47175D02*
D03*
X70141D02*
D03*
X69360Y48819D02*
D03*
X68983D02*
D03*
X69360Y47185D02*
D03*
X68983D02*
D03*
X68612Y48819D02*
D03*
X68235D02*
D03*
X68583Y47185D02*
D03*
X68206D02*
D03*
X73632Y54921D02*
D03*
X74009D02*
D03*
X86413Y64721D02*
D03*
X86036D02*
D03*
X17930Y84553D02*
D03*
X18309D02*
D03*
X17930Y85103D02*
D03*
X18309D02*
D03*
X45420Y91663D02*
D03*
X45799D02*
D03*
X32096Y85059D02*
D03*
X32473D02*
D03*
X24341Y84862D02*
D03*
X23964D02*
D03*
X27648Y79331D02*
D03*
X28025D02*
D03*
X22864Y85394D02*
D03*
X22487D02*
D03*
X18305Y83453D02*
D03*
X17929D02*
D03*
X18305Y83903D02*
D03*
X17929D02*
D03*
X18553Y81024D02*
D03*
X18176D02*
D03*
X19872Y83711D02*
D03*
X19495D02*
D03*
X23455Y82825D02*
D03*
X23078D02*
D03*
X32254Y84646D02*
D03*
X32631D02*
D03*
X32254Y83780D02*
D03*
X32631D02*
D03*
X32096Y85551D02*
D03*
X32473D02*
D03*
X28386Y76801D02*
D03*
X28763D02*
D03*
X28386Y75167D02*
D03*
X28763D02*
D03*
X27982Y76811D02*
D03*
X27605D02*
D03*
X27982Y75177D02*
D03*
X27605D02*
D03*
X27234Y76811D02*
D03*
X26857D02*
D03*
X27205Y75177D02*
D03*
X26828D02*
D03*
X32254Y82913D02*
D03*
X32631D02*
D03*
X45036Y92713D02*
D03*
X44658D02*
D03*
X59307Y84553D02*
D03*
X59686D02*
D03*
X59307Y85103D02*
D03*
X59686D02*
D03*
X86797Y91663D02*
D03*
X87176D02*
D03*
X73474Y85059D02*
D03*
X73851D02*
D03*
X65718Y84862D02*
D03*
X65342D02*
D03*
X69026Y79331D02*
D03*
X69403D02*
D03*
X64242Y85394D02*
D03*
X63865D02*
D03*
X59683Y83453D02*
D03*
X59306D02*
D03*
X59683Y83903D02*
D03*
X59306D02*
D03*
X59931Y81024D02*
D03*
X59554D02*
D03*
X61250Y83711D02*
D03*
X60873D02*
D03*
X64833Y82825D02*
D03*
X64456D02*
D03*
X73632Y84646D02*
D03*
X74009D02*
D03*
X73632Y83780D02*
D03*
X74009D02*
D03*
X73474Y85551D02*
D03*
X73851D02*
D03*
X69764Y76801D02*
D03*
X70141D02*
D03*
X69764Y75167D02*
D03*
X70141D02*
D03*
X69360Y76811D02*
D03*
X68983D02*
D03*
X69360Y75177D02*
D03*
X68983D02*
D03*
X68612Y76811D02*
D03*
X68235D02*
D03*
X68583Y75177D02*
D03*
X68206D02*
D03*
X73632Y82913D02*
D03*
X74009D02*
D03*
X86413Y92713D02*
D03*
X86036D02*
D03*
D156*
X16914Y30458D02*
D03*
Y30079D02*
D03*
X31969Y25364D02*
D03*
Y25741D02*
D03*
X24183Y25974D02*
D03*
Y26351D02*
D03*
X18168Y29681D02*
D03*
Y30059D02*
D03*
X17687Y25935D02*
D03*
Y25558D02*
D03*
X22530Y27736D02*
D03*
Y27359D02*
D03*
X28780Y31230D02*
D03*
Y31607D02*
D03*
X20305Y23996D02*
D03*
Y24373D02*
D03*
X23484Y24065D02*
D03*
Y24442D02*
D03*
X23474Y26152D02*
D03*
Y25775D02*
D03*
X20295Y26093D02*
D03*
Y25716D02*
D03*
X16314Y30082D02*
D03*
Y30459D02*
D03*
X58292Y30458D02*
D03*
Y30079D02*
D03*
X73346Y25364D02*
D03*
Y25741D02*
D03*
X65561Y25974D02*
D03*
Y26351D02*
D03*
X59546Y29681D02*
D03*
Y30059D02*
D03*
X59065Y25935D02*
D03*
Y25558D02*
D03*
X63907Y27736D02*
D03*
Y27359D02*
D03*
X70157Y31230D02*
D03*
Y31607D02*
D03*
X61683Y23996D02*
D03*
Y24373D02*
D03*
X64862Y24065D02*
D03*
Y24442D02*
D03*
X64852Y26152D02*
D03*
Y25775D02*
D03*
X61673Y26093D02*
D03*
Y25716D02*
D03*
X57692Y30082D02*
D03*
Y30459D02*
D03*
X16914Y58450D02*
D03*
Y58071D02*
D03*
X31969Y53356D02*
D03*
Y53733D02*
D03*
X24183Y53967D02*
D03*
Y54344D02*
D03*
X18168Y57674D02*
D03*
Y58051D02*
D03*
X17687Y53927D02*
D03*
Y53550D02*
D03*
X22530Y55728D02*
D03*
Y55351D02*
D03*
X28780Y59222D02*
D03*
Y59599D02*
D03*
X20305Y51988D02*
D03*
Y52365D02*
D03*
X23484Y52057D02*
D03*
Y52434D02*
D03*
X23474Y54144D02*
D03*
Y53767D02*
D03*
X20295Y54085D02*
D03*
Y53708D02*
D03*
X16314Y58074D02*
D03*
Y58451D02*
D03*
X58292Y58450D02*
D03*
Y58071D02*
D03*
X73346Y53356D02*
D03*
Y53733D02*
D03*
X65561Y53967D02*
D03*
Y54344D02*
D03*
X59546Y57674D02*
D03*
Y58051D02*
D03*
X59065Y53927D02*
D03*
Y53550D02*
D03*
X63907Y55728D02*
D03*
Y55351D02*
D03*
X70157Y59222D02*
D03*
Y59599D02*
D03*
X61683Y51988D02*
D03*
Y52365D02*
D03*
X64862Y52057D02*
D03*
Y52434D02*
D03*
X64852Y54144D02*
D03*
Y53767D02*
D03*
X61673Y54085D02*
D03*
Y53708D02*
D03*
X57692Y58074D02*
D03*
Y58451D02*
D03*
X16914Y86442D02*
D03*
Y86063D02*
D03*
X31969Y81348D02*
D03*
Y81725D02*
D03*
X24183Y81959D02*
D03*
Y82336D02*
D03*
X18168Y85666D02*
D03*
Y86043D02*
D03*
X17687Y81919D02*
D03*
Y81542D02*
D03*
X22530Y83720D02*
D03*
Y83343D02*
D03*
X28780Y87215D02*
D03*
Y87592D02*
D03*
X20305Y79980D02*
D03*
Y80357D02*
D03*
X23484Y80049D02*
D03*
Y80426D02*
D03*
X23474Y82136D02*
D03*
Y81759D02*
D03*
X20295Y82077D02*
D03*
Y81700D02*
D03*
X16314Y86066D02*
D03*
Y86443D02*
D03*
X58292Y86442D02*
D03*
Y86063D02*
D03*
X73346Y81348D02*
D03*
Y81725D02*
D03*
X65561Y81959D02*
D03*
Y82336D02*
D03*
X59546Y85666D02*
D03*
Y86043D02*
D03*
X59065Y81919D02*
D03*
Y81542D02*
D03*
X63907Y83720D02*
D03*
Y83343D02*
D03*
X70157Y87215D02*
D03*
Y87592D02*
D03*
X61683Y79980D02*
D03*
Y80357D02*
D03*
X64862Y80049D02*
D03*
Y80426D02*
D03*
X64852Y82136D02*
D03*
Y81759D02*
D03*
X61673Y82077D02*
D03*
Y81700D02*
D03*
X57692Y86066D02*
D03*
Y86443D02*
D03*
D157*
X44236Y19449D02*
D03*
X42614D02*
D03*
X40055D02*
D03*
X41677D02*
D03*
X85614D02*
D03*
X83992D02*
D03*
X81433D02*
D03*
X83055D02*
D03*
X44236Y47441D02*
D03*
X42614D02*
D03*
X40055D02*
D03*
X41677D02*
D03*
X85614D02*
D03*
X83992D02*
D03*
X81433D02*
D03*
X83055D02*
D03*
X44236Y75433D02*
D03*
X42614D02*
D03*
X40055D02*
D03*
X41677D02*
D03*
X85614D02*
D03*
X83992D02*
D03*
X81433D02*
D03*
X83055D02*
D03*
D158*
X21644Y31427D02*
D03*
X21329D02*
D03*
X21011D02*
D03*
X20691D02*
D03*
Y30891D02*
D03*
X21011D02*
D03*
X21329D02*
D03*
X21644D02*
D03*
X28238Y21752D02*
D03*
X27923D02*
D03*
X27606D02*
D03*
X27286D02*
D03*
Y21216D02*
D03*
X27606D02*
D03*
X27923D02*
D03*
X28238D02*
D03*
Y20197D02*
D03*
X27923D02*
D03*
X27606D02*
D03*
X27286D02*
D03*
Y19661D02*
D03*
X27606D02*
D03*
X27923D02*
D03*
X28238D02*
D03*
Y18799D02*
D03*
X27923D02*
D03*
X27606D02*
D03*
X27286D02*
D03*
Y18263D02*
D03*
X27606D02*
D03*
X27923D02*
D03*
X28238D02*
D03*
X63022Y31427D02*
D03*
X62707D02*
D03*
X62389D02*
D03*
X62069D02*
D03*
Y30891D02*
D03*
X62389D02*
D03*
X62707D02*
D03*
X63022D02*
D03*
X69616Y21752D02*
D03*
X69301D02*
D03*
X68984D02*
D03*
X68664D02*
D03*
Y21216D02*
D03*
X68984D02*
D03*
X69301D02*
D03*
X69616D02*
D03*
Y20197D02*
D03*
X69301D02*
D03*
X68984D02*
D03*
X68664D02*
D03*
Y19661D02*
D03*
X68984D02*
D03*
X69301D02*
D03*
X69616D02*
D03*
Y18799D02*
D03*
X69301D02*
D03*
X68984D02*
D03*
X68664D02*
D03*
Y18263D02*
D03*
X68984D02*
D03*
X69301D02*
D03*
X69616D02*
D03*
X21644Y59419D02*
D03*
X21329D02*
D03*
X21011D02*
D03*
X20691D02*
D03*
Y58884D02*
D03*
X21011D02*
D03*
X21329D02*
D03*
X21644D02*
D03*
X28238Y49744D02*
D03*
X27923D02*
D03*
X27606D02*
D03*
X27286D02*
D03*
Y49208D02*
D03*
X27606D02*
D03*
X27923D02*
D03*
X28238D02*
D03*
Y48189D02*
D03*
X27923D02*
D03*
X27606D02*
D03*
X27286D02*
D03*
Y47653D02*
D03*
X27606D02*
D03*
X27923D02*
D03*
X28238D02*
D03*
Y46791D02*
D03*
X27923D02*
D03*
X27606D02*
D03*
X27286D02*
D03*
Y46256D02*
D03*
X27606D02*
D03*
X27923D02*
D03*
X28238D02*
D03*
X63022Y59419D02*
D03*
X62707D02*
D03*
X62389D02*
D03*
X62069D02*
D03*
Y58884D02*
D03*
X62389D02*
D03*
X62707D02*
D03*
X63022D02*
D03*
X69616Y49744D02*
D03*
X69301D02*
D03*
X68984D02*
D03*
X68664D02*
D03*
Y49208D02*
D03*
X68984D02*
D03*
X69301D02*
D03*
X69616D02*
D03*
Y48189D02*
D03*
X69301D02*
D03*
X68984D02*
D03*
X68664D02*
D03*
Y47653D02*
D03*
X68984D02*
D03*
X69301D02*
D03*
X69616D02*
D03*
Y46791D02*
D03*
X69301D02*
D03*
X68984D02*
D03*
X68664D02*
D03*
Y46256D02*
D03*
X68984D02*
D03*
X69301D02*
D03*
X69616D02*
D03*
X21644Y87411D02*
D03*
X21329D02*
D03*
X21011D02*
D03*
X20691D02*
D03*
Y86876D02*
D03*
X21011D02*
D03*
X21329D02*
D03*
X21644D02*
D03*
X28238Y77736D02*
D03*
X27923D02*
D03*
X27606D02*
D03*
X27286D02*
D03*
Y77200D02*
D03*
X27606D02*
D03*
X27923D02*
D03*
X28238D02*
D03*
Y76181D02*
D03*
X27923D02*
D03*
X27606D02*
D03*
X27286D02*
D03*
Y75645D02*
D03*
X27606D02*
D03*
X27923D02*
D03*
X28238D02*
D03*
Y74783D02*
D03*
X27923D02*
D03*
X27606D02*
D03*
X27286D02*
D03*
Y74248D02*
D03*
X27606D02*
D03*
X27923D02*
D03*
X28238D02*
D03*
X63022Y87411D02*
D03*
X62707D02*
D03*
X62389D02*
D03*
X62069D02*
D03*
Y86876D02*
D03*
X62389D02*
D03*
X62707D02*
D03*
X63022D02*
D03*
X69616Y77736D02*
D03*
X69301D02*
D03*
X68984D02*
D03*
X68664D02*
D03*
Y77200D02*
D03*
X68984D02*
D03*
X69301D02*
D03*
X69616D02*
D03*
Y76181D02*
D03*
X69301D02*
D03*
X68984D02*
D03*
X68664D02*
D03*
Y75645D02*
D03*
X68984D02*
D03*
X69301D02*
D03*
X69616D02*
D03*
Y74783D02*
D03*
X69301D02*
D03*
X68984D02*
D03*
X68664D02*
D03*
Y74248D02*
D03*
X68984D02*
D03*
X69301D02*
D03*
X69616D02*
D03*
D159*
X43797Y34558D02*
D03*
X44840D02*
D03*
X85175D02*
D03*
X86218D02*
D03*
X43797Y62551D02*
D03*
X44840D02*
D03*
X85175D02*
D03*
X86218D02*
D03*
X43797Y90543D02*
D03*
X44840D02*
D03*
X85175D02*
D03*
X86218D02*
D03*
D160*
X17966Y24065D02*
D03*
X18720D02*
D03*
X42628Y34569D02*
D03*
X41874D02*
D03*
X59344Y24065D02*
D03*
X60098D02*
D03*
X84006Y34569D02*
D03*
X83252D02*
D03*
X17966Y52057D02*
D03*
X18720D02*
D03*
X42628Y62561D02*
D03*
X41874D02*
D03*
X59344Y52057D02*
D03*
X60098D02*
D03*
X84006Y62561D02*
D03*
X83252D02*
D03*
X17966Y80049D02*
D03*
X18720D02*
D03*
X42628Y90553D02*
D03*
X41874D02*
D03*
X59344Y80049D02*
D03*
X60098D02*
D03*
X84006Y90553D02*
D03*
X83252D02*
D03*
D161*
X32283Y30250D02*
D03*
Y31004D02*
D03*
X45619Y34328D02*
D03*
Y35083D02*
D03*
X73661Y30250D02*
D03*
Y31004D02*
D03*
X86996Y34328D02*
D03*
Y35083D02*
D03*
X32283Y58242D02*
D03*
Y58996D02*
D03*
X45619Y62321D02*
D03*
Y63075D02*
D03*
X73661Y58242D02*
D03*
Y58996D02*
D03*
X86996Y62321D02*
D03*
Y63075D02*
D03*
X32283Y86234D02*
D03*
Y86988D02*
D03*
X45619Y90313D02*
D03*
Y91067D02*
D03*
X73661Y86234D02*
D03*
Y86988D02*
D03*
X86996Y90313D02*
D03*
Y91067D02*
D03*
D162*
X40269Y36170D02*
D03*
Y34867D02*
D03*
X81646Y36170D02*
D03*
Y34867D02*
D03*
X40269Y64162D02*
D03*
Y62859D02*
D03*
X81646Y64162D02*
D03*
Y62859D02*
D03*
X40269Y92154D02*
D03*
Y90851D02*
D03*
X81646Y92154D02*
D03*
Y90851D02*
D03*
D163*
X30925Y21959D02*
D03*
X28996Y18406D02*
D03*
X26516Y19843D02*
D03*
X72303Y21959D02*
D03*
X70374Y18406D02*
D03*
X67894Y19843D02*
D03*
X30925Y49951D02*
D03*
X28996Y46398D02*
D03*
X26516Y47835D02*
D03*
X72303Y49951D02*
D03*
X70374Y46398D02*
D03*
X67894Y47835D02*
D03*
X30925Y77943D02*
D03*
X28996Y74390D02*
D03*
X26516Y75827D02*
D03*
X72303Y77943D02*
D03*
X70374Y74390D02*
D03*
X67894Y75827D02*
D03*
M02*
